<?xml version="1.0" encoding="UTF-8" standalone="no"?>
<!DOCTYPE svg PUBLIC "-//W3C//DTD SVG 1.1//EN"
 "http://www.w3.org/Graphics/SVG/1.1/DTD/svg11.dtd">
<!-- Generated by graphviz version 2.43.0 (0)
 -->
<!-- Title: /home/tomek/CLionProjects/proi/proi&#45;projekt/src/board&#45;lib/Board.cpp Pages: 1 -->
<svg width="1004pt" height="363pt"
 viewBox="0.00 0.00 1003.80 363.00" xmlns="http://www.w3.org/2000/svg" xmlns:xlink="http://www.w3.org/1999/xlink">
<g id="graph0" class="graph" transform="scale(1 1) rotate(0) translate(4 359)">
<title>/home/tomek/CLionProjects/proi/proi&#45;projekt/src/board&#45;lib/Board.cpp</title>
<!-- Node1 -->
<g id="node1" class="node">
<title>Node1</title>
<g id="a_node1"><a xlink:title=" ">
<polygon fill="#bfbfbf" stroke="black" points="342.42,-313.5 342.42,-354.5 493.42,-354.5 493.42,-313.5 342.42,-313.5"/>
<text text-anchor="start" x="350.42" y="-342.5" font-family="Helvetica,sans-Serif" font-size="10.00">/home/tomek/CLionProjects</text>
<text text-anchor="start" x="350.42" y="-331.5" font-family="Helvetica,sans-Serif" font-size="10.00">/proi/proi&#45;projekt/src</text>
<text text-anchor="middle" x="417.92" y="-320.5" font-family="Helvetica,sans-Serif" font-size="10.00">/board&#45;lib/Board.cpp</text>
</a>
</g>
</g>
<!-- Node2 -->
<g id="node2" class="node">
<title>Node2</title>
<g id="a_node2"><a xlink:title=" ">
<polygon fill="none" stroke="#bfbfbf" points="33.42,-257.5 33.42,-276.5 80.42,-276.5 80.42,-257.5 33.42,-257.5"/>
<text text-anchor="middle" x="56.92" y="-264.5" font-family="Helvetica,sans-Serif" font-size="10.00">cmath</text>
</a>
</g>
</g>
<!-- Node1&#45;&gt;Node2 -->
<g id="edge1" class="edge">
<title>Node1&#45;&gt;Node2</title>
<path fill="none" stroke="midnightblue" d="M342.29,-321.22C276.68,-310.69 179.24,-294.28 94.92,-277 93.46,-276.7 91.98,-276.39 90.48,-276.07"/>
<polygon fill="midnightblue" stroke="midnightblue" points="91.11,-272.62 80.58,-273.84 89.57,-279.45 91.11,-272.62"/>
</g>
<!-- Node3 -->
<g id="node3" class="node">
<title>Node3</title>
<g id="a_node3"><a xlink:href="$_event_queue_8h.html" xlink:title=" ">
<polygon fill="none" stroke="black" points="369.42,-190.5 369.42,-220.5 470.42,-220.5 470.42,-190.5 369.42,-190.5"/>
<text text-anchor="start" x="377.42" y="-208.5" font-family="Helvetica,sans-Serif" font-size="10.00">../core&#45;lib/include</text>
<text text-anchor="middle" x="419.92" y="-197.5" font-family="Helvetica,sans-Serif" font-size="10.00">/EventQueue.h</text>
</a>
</g>
</g>
<!-- Node1&#45;&gt;Node3 -->
<g id="edge2" class="edge">
<title>Node1&#45;&gt;Node3</title>
<path fill="none" stroke="midnightblue" d="M429.65,-313.27C435.16,-302.87 441.12,-289.66 443.92,-277 447.48,-260.85 441.49,-243.23 434.6,-229.65"/>
<polygon fill="midnightblue" stroke="midnightblue" points="437.46,-227.59 429.55,-220.55 431.34,-230.99 437.46,-227.59"/>
</g>
<!-- Node6 -->
<g id="node6" class="node">
<title>Node6</title>
<g id="a_node6"><a xlink:href="$_event_8h.html" xlink:title=" ">
<polygon fill="none" stroke="black" points="56.42,-190.5 56.42,-220.5 157.42,-220.5 157.42,-190.5 56.42,-190.5"/>
<text text-anchor="start" x="64.42" y="-208.5" font-family="Helvetica,sans-Serif" font-size="10.00">../core&#45;lib/include</text>
<text text-anchor="middle" x="106.92" y="-197.5" font-family="Helvetica,sans-Serif" font-size="10.00">/Event.h</text>
</a>
</g>
</g>
<!-- Node1&#45;&gt;Node6 -->
<g id="edge5" class="edge">
<title>Node1&#45;&gt;Node6</title>
<path fill="none" stroke="midnightblue" d="M342.13,-327.21C266.99,-319.95 158.75,-304.93 127.92,-277 115.12,-265.41 109.98,-246.4 107.98,-231.04"/>
<polygon fill="midnightblue" stroke="midnightblue" points="111.43,-230.29 107.02,-220.66 104.46,-230.94 111.43,-230.29"/>
</g>
<!-- Node10 -->
<g id="node10" class="node">
<title>Node10</title>
<g id="a_node10"><a xlink:href="$_board_8h.html" xlink:title=" ">
<polygon fill="none" stroke="black" points="490.92,-257.5 490.92,-276.5 582.92,-276.5 582.92,-257.5 490.92,-257.5"/>
<text text-anchor="middle" x="536.92" y="-264.5" font-family="Helvetica,sans-Serif" font-size="10.00">include/Board.h</text>
</a>
</g>
</g>
<!-- Node1&#45;&gt;Node10 -->
<g id="edge10" class="edge">
<title>Node1&#45;&gt;Node10</title>
<path fill="none" stroke="midnightblue" d="M453.62,-313.5C472.39,-303.24 494.94,-290.93 511.85,-281.69"/>
<polygon fill="midnightblue" stroke="midnightblue" points="513.98,-284.52 521.07,-276.65 510.62,-278.37 513.98,-284.52"/>
</g>
<!-- Node11 -->
<g id="node11" class="node">
<title>Node11</title>
<g id="a_node11"><a xlink:href="$_tank_8h.html" xlink:title=" ">
<polygon fill="none" stroke="black" points="612.92,-123.5 612.92,-153.5 722.92,-153.5 722.92,-123.5 612.92,-123.5"/>
<text text-anchor="start" x="620.92" y="-141.5" font-family="Helvetica,sans-Serif" font-size="10.00">../../tank&#45;lib/include</text>
<text text-anchor="middle" x="667.92" y="-130.5" font-family="Helvetica,sans-Serif" font-size="10.00">/Tank.h</text>
</a>
</g>
</g>
<!-- Node1&#45;&gt;Node11 -->
<g id="edge33" class="edge">
<title>Node1&#45;&gt;Node11</title>
<path fill="none" stroke="midnightblue" d="M493.64,-318.48C530.86,-309.57 575.62,-296.12 612.92,-277 648.68,-258.66 666.38,-257.16 683.92,-221 692.8,-202.67 687.01,-179.75 680.03,-162.89"/>
<polygon fill="midnightblue" stroke="midnightblue" points="683.2,-161.41 675.89,-153.74 676.82,-164.3 683.2,-161.41"/>
</g>
<!-- Node16 -->
<g id="node16" class="node">
<title>Node16</title>
<g id="a_node16"><a xlink:href="$_entity_controller_8h.html" xlink:title=" ">
<polygon fill="none" stroke="black" points="564.92,-190.5 564.92,-220.5 674.92,-220.5 674.92,-190.5 564.92,-190.5"/>
<text text-anchor="start" x="572.92" y="-208.5" font-family="Helvetica,sans-Serif" font-size="10.00">../../tank&#45;lib/include</text>
<text text-anchor="middle" x="619.92" y="-197.5" font-family="Helvetica,sans-Serif" font-size="10.00">/EntityController.h</text>
</a>
</g>
</g>
<!-- Node1&#45;&gt;Node16 -->
<g id="edge32" class="edge">
<title>Node1&#45;&gt;Node16</title>
<path fill="none" stroke="midnightblue" d="M493.43,-323.54C527.11,-315.88 565.15,-302.04 591.92,-277 604.96,-264.79 612.05,-245.72 615.82,-230.49"/>
<polygon fill="midnightblue" stroke="midnightblue" points="619.25,-231.2 617.94,-220.69 612.41,-229.73 619.25,-231.2"/>
</g>
<!-- Node17 -->
<g id="node17" class="node">
<title>Node17</title>
<g id="a_node17"><a xlink:href="$_grid_8h.html" xlink:title=" ">
<polygon fill="none" stroke="black" points="266.92,-196 266.92,-215 312.92,-215 312.92,-196 266.92,-196"/>
<text text-anchor="middle" x="289.92" y="-203" font-family="Helvetica,sans-Serif" font-size="10.00">Grid.h</text>
</a>
</g>
</g>
<!-- Node1&#45;&gt;Node17 -->
<g id="edge27" class="edge">
<title>Node1&#45;&gt;Node17</title>
<path fill="none" stroke="midnightblue" d="M350.71,-313.47C332.34,-305.04 314.15,-293.26 301.92,-277 290.85,-262.29 288.58,-240.98 288.62,-225.65"/>
<polygon fill="midnightblue" stroke="midnightblue" points="292.13,-225.41 289,-215.29 285.14,-225.16 292.13,-225.41"/>
</g>
<!-- Node18 -->
<g id="node18" class="node">
<title>Node18</title>
<g id="a_node18"><a xlink:href="$_grid_builder_8h.html" xlink:title=" ">
<polygon fill="none" stroke="black" points="136.92,-257.5 136.92,-276.5 254.92,-276.5 254.92,-257.5 136.92,-257.5"/>
<text text-anchor="middle" x="195.92" y="-264.5" font-family="Helvetica,sans-Serif" font-size="10.00">include/GridBuilder.h</text>
</a>
</g>
</g>
<!-- Node1&#45;&gt;Node18 -->
<g id="edge28" class="edge">
<title>Node1&#45;&gt;Node18</title>
<path fill="none" stroke="midnightblue" d="M351.31,-313.5C313.39,-302.4 267.2,-288.87 235.08,-279.47"/>
<polygon fill="midnightblue" stroke="midnightblue" points="235.76,-276.02 225.17,-276.57 233.79,-282.74 235.76,-276.02"/>
</g>
<!-- Node19 -->
<g id="node19" class="node">
<title>Node19</title>
<g id="a_node19"><a xlink:href="$_tile_manager_8h.html" xlink:title=" ">
<polygon fill="none" stroke="black" points="310.92,-257.5 310.92,-276.5 434.92,-276.5 434.92,-257.5 310.92,-257.5"/>
<text text-anchor="middle" x="372.92" y="-264.5" font-family="Helvetica,sans-Serif" font-size="10.00">include/TileManager.h</text>
</a>
</g>
</g>
<!-- Node1&#45;&gt;Node19 -->
<g id="edge30" class="edge">
<title>Node1&#45;&gt;Node19</title>
<path fill="none" stroke="midnightblue" d="M404.41,-313.5C398.11,-304.39 390.68,-293.66 384.62,-284.91"/>
<polygon fill="midnightblue" stroke="midnightblue" points="387.48,-282.88 378.91,-276.65 381.72,-286.87 387.48,-282.88"/>
</g>
<!-- Node20 -->
<g id="node20" class="node">
<title>Node20</title>
<g id="a_node20"><a xlink:href="$_bullet_8h.html" xlink:title=" ">
<polygon fill="none" stroke="black" points="776.42,-123.5 776.42,-153.5 877.42,-153.5 877.42,-123.5 776.42,-123.5"/>
<text text-anchor="start" x="784.42" y="-141.5" font-family="Helvetica,sans-Serif" font-size="10.00">../tank&#45;lib/include</text>
<text text-anchor="middle" x="826.92" y="-130.5" font-family="Helvetica,sans-Serif" font-size="10.00">/Bullet.h</text>
</a>
</g>
</g>
<!-- Node1&#45;&gt;Node20 -->
<g id="edge34" class="edge">
<title>Node1&#45;&gt;Node20</title>
<path fill="none" stroke="midnightblue" d="M493.44,-322.43C539.15,-314.12 597.73,-300 645.92,-277 709.94,-246.45 773.3,-191 805.35,-160.69"/>
<polygon fill="midnightblue" stroke="midnightblue" points="808.01,-163 812.81,-153.56 803.17,-157.94 808.01,-163"/>
</g>
<!-- Node4 -->
<g id="node4" class="node">
<title>Node4</title>
<g id="a_node4"><a xlink:title=" ">
<polygon fill="none" stroke="#bfbfbf" points="377.42,-129 377.42,-148 424.42,-148 424.42,-129 377.42,-129"/>
<text text-anchor="middle" x="400.92" y="-136" font-family="Helvetica,sans-Serif" font-size="10.00">queue</text>
</a>
</g>
</g>
<!-- Node3&#45;&gt;Node4 -->
<g id="edge3" class="edge">
<title>Node3&#45;&gt;Node4</title>
<path fill="none" stroke="midnightblue" d="M415.79,-190.4C413.01,-180.86 409.3,-168.18 406.28,-157.86"/>
<polygon fill="midnightblue" stroke="midnightblue" points="409.62,-156.81 403.46,-148.19 402.9,-158.77 409.62,-156.81"/>
</g>
<!-- Node5 -->
<g id="node5" class="node">
<title>Node5</title>
<g id="a_node5"><a xlink:title=" ">
<polygon fill="none" stroke="#bfbfbf" points="461.92,-0.5 461.92,-19.5 519.92,-19.5 519.92,-0.5 461.92,-0.5"/>
<text text-anchor="middle" x="490.92" y="-7.5" font-family="Helvetica,sans-Serif" font-size="10.00">memory</text>
</a>
</g>
</g>
<!-- Node3&#45;&gt;Node5 -->
<g id="edge4" class="edge">
<title>Node3&#45;&gt;Node5</title>
<path fill="none" stroke="midnightblue" d="M425.14,-190.27C437.79,-155.8 470.07,-67.81 484.16,-29.4"/>
<polygon fill="midnightblue" stroke="midnightblue" points="487.61,-30.17 487.77,-19.58 481.04,-27.76 487.61,-30.17"/>
</g>
<!-- Node6&#45;&gt;Node5 -->
<g id="edge8" class="edge">
<title>Node6&#45;&gt;Node5</title>
<path fill="none" stroke="midnightblue" d="M56.37,-191.65C37.13,-184.03 17.15,-172.18 5.92,-154 -1.33,-142.28 -2.29,-134.07 5.92,-123 59.42,-50.87 345.79,-22.03 451.59,-13.74"/>
<polygon fill="midnightblue" stroke="midnightblue" points="452.13,-17.21 461.84,-12.96 451.6,-10.23 452.13,-17.21"/>
</g>
<!-- Node7 -->
<g id="node7" class="node">
<title>Node7</title>
<g id="a_node7"><a xlink:title=" ">
<polygon fill="none" stroke="#bfbfbf" points="147.42,-129 147.42,-148 212.42,-148 212.42,-129 147.42,-129"/>
<text text-anchor="middle" x="179.92" y="-136" font-family="Helvetica,sans-Serif" font-size="10.00">exception</text>
</a>
</g>
</g>
<!-- Node6&#45;&gt;Node7 -->
<g id="edge6" class="edge">
<title>Node6&#45;&gt;Node7</title>
<path fill="none" stroke="midnightblue" d="M122.75,-190.4C134.48,-179.96 150.43,-165.75 162.51,-155"/>
<polygon fill="midnightblue" stroke="midnightblue" points="165.01,-157.46 170.15,-148.19 160.35,-152.23 165.01,-157.46"/>
</g>
<!-- Node8 -->
<g id="node8" class="node">
<title>Node8</title>
<g id="a_node8"><a xlink:title=" ">
<polygon fill="none" stroke="#bfbfbf" points="84.92,-129 84.92,-148 128.92,-148 128.92,-129 84.92,-129"/>
<text text-anchor="middle" x="106.92" y="-136" font-family="Helvetica,sans-Serif" font-size="10.00">string</text>
</a>
</g>
</g>
<!-- Node6&#45;&gt;Node8 -->
<g id="edge7" class="edge">
<title>Node6&#45;&gt;Node8</title>
<path fill="none" stroke="midnightblue" d="M106.92,-190.4C106.92,-181.06 106.92,-168.71 106.92,-158.52"/>
<polygon fill="midnightblue" stroke="midnightblue" points="110.42,-158.19 106.92,-148.19 103.42,-158.19 110.42,-158.19"/>
</g>
<!-- Node9 -->
<g id="node9" class="node">
<title>Node9</title>
<g id="a_node9"><a xlink:title=" ">
<polygon fill="none" stroke="#bfbfbf" points="15.42,-129 15.42,-148 66.42,-148 66.42,-129 15.42,-129"/>
<text text-anchor="middle" x="40.92" y="-136" font-family="Helvetica,sans-Serif" font-size="10.00">variant</text>
</a>
</g>
</g>
<!-- Node6&#45;&gt;Node9 -->
<g id="edge9" class="edge">
<title>Node6&#45;&gt;Node9</title>
<path fill="none" stroke="midnightblue" d="M92.59,-190.4C82.1,-180.06 67.85,-166.02 56.97,-155.31"/>
<polygon fill="midnightblue" stroke="midnightblue" points="59.32,-152.72 49.74,-148.19 54.41,-157.71 59.32,-152.72"/>
</g>
<!-- Node10&#45;&gt;Node3 -->
<g id="edge12" class="edge">
<title>Node10&#45;&gt;Node3</title>
<path fill="none" stroke="midnightblue" d="M520.15,-257.48C503.64,-249.08 477.87,-235.97 456.59,-225.15"/>
<polygon fill="midnightblue" stroke="midnightblue" points="457.99,-221.94 447.49,-220.52 454.82,-228.18 457.99,-221.94"/>
</g>
<!-- Node10&#45;&gt;Node5 -->
<g id="edge11" class="edge">
<title>Node10&#45;&gt;Node5</title>
<path fill="none" stroke="midnightblue" d="M535.33,-257.22C528.75,-220.75 503.48,-80.68 494.29,-29.7"/>
<polygon fill="midnightblue" stroke="midnightblue" points="497.71,-28.96 492.49,-19.74 490.82,-30.2 497.71,-28.96"/>
</g>
<!-- Node10&#45;&gt;Node11 -->
<g id="edge13" class="edge">
<title>Node10&#45;&gt;Node11</title>
<path fill="none" stroke="midnightblue" d="M536.75,-257.4C536.91,-242.09 539.35,-209.83 555.92,-190 568.21,-175.29 585.67,-164.69 603.16,-157.12"/>
<polygon fill="midnightblue" stroke="midnightblue" points="604.87,-160.2 612.84,-153.22 602.26,-153.71 604.87,-160.2"/>
</g>
<!-- Node10&#45;&gt;Node16 -->
<g id="edge20" class="edge">
<title>Node10&#45;&gt;Node16</title>
<path fill="none" stroke="midnightblue" d="M548.81,-257.48C560.05,-249.42 577.34,-237.02 592.05,-226.47"/>
<polygon fill="midnightblue" stroke="midnightblue" points="594.27,-229.19 600.35,-220.52 590.19,-223.5 594.27,-229.19"/>
</g>
<!-- Node10&#45;&gt;Node17 -->
<g id="edge25" class="edge">
<title>Node10&#45;&gt;Node17</title>
<path fill="none" stroke="midnightblue" d="M501.53,-257.48C453.78,-245.97 369.37,-225.64 322.9,-214.45"/>
<polygon fill="midnightblue" stroke="midnightblue" points="323.58,-211.01 313.04,-212.07 321.94,-217.81 323.58,-211.01"/>
</g>
<!-- Node11&#45;&gt;Node5 -->
<g id="edge14" class="edge">
<title>Node11&#45;&gt;Node5</title>
<path fill="none" stroke="midnightblue" d="M663.47,-123.34C657.09,-105.23 643.65,-74.08 621.92,-56 595.65,-34.15 558.2,-22.7 530.06,-16.82"/>
<polygon fill="midnightblue" stroke="midnightblue" points="530.64,-13.37 520.16,-14.91 529.31,-20.24 530.64,-13.37"/>
</g>
<!-- Node12 -->
<g id="node12" class="node">
<title>Node12</title>
<g id="a_node12"><a xlink:title=" ">
<polygon fill="none" stroke="#bfbfbf" points="556.92,-62 556.92,-81 612.92,-81 612.92,-62 556.92,-62"/>
<text text-anchor="middle" x="584.92" y="-69" font-family="Helvetica,sans-Serif" font-size="10.00">optional</text>
</a>
</g>
</g>
<!-- Node11&#45;&gt;Node12 -->
<g id="edge15" class="edge">
<title>Node11&#45;&gt;Node12</title>
<path fill="none" stroke="midnightblue" d="M649.91,-123.4C636.32,-112.76 617.74,-98.2 603.92,-87.38"/>
<polygon fill="midnightblue" stroke="midnightblue" points="606.05,-84.6 596.02,-81.19 601.73,-90.12 606.05,-84.6"/>
</g>
<!-- Node13 -->
<g id="node13" class="node">
<title>Node13</title>
<g id="a_node13"><a xlink:href="$_simple_subscriber_8h.html" xlink:title=" ">
<polygon fill="none" stroke="black" points="669.42,-56.5 669.42,-86.5 782.42,-86.5 782.42,-56.5 669.42,-56.5"/>
<text text-anchor="start" x="677.42" y="-74.5" font-family="Helvetica,sans-Serif" font-size="10.00">../../core&#45;lib/include</text>
<text text-anchor="middle" x="725.92" y="-63.5" font-family="Helvetica,sans-Serif" font-size="10.00">/SimpleSubscriber.h</text>
</a>
</g>
</g>
<!-- Node11&#45;&gt;Node13 -->
<g id="edge16" class="edge">
<title>Node11&#45;&gt;Node13</title>
<path fill="none" stroke="midnightblue" d="M680.5,-123.4C688.1,-114.88 697.94,-103.85 706.52,-94.23"/>
<polygon fill="midnightblue" stroke="midnightblue" points="709.31,-96.37 713.35,-86.58 704.09,-91.71 709.31,-96.37"/>
</g>
<!-- Node15 -->
<g id="node15" class="node">
<title>Node15</title>
<g id="a_node15"><a xlink:href="$_entity_8h.html" xlink:title=" ">
<polygon fill="none" stroke="black" points="800.42,-62 800.42,-81 853.42,-81 853.42,-62 800.42,-62"/>
<text text-anchor="middle" x="826.92" y="-69" font-family="Helvetica,sans-Serif" font-size="10.00">Entity.h</text>
</a>
</g>
</g>
<!-- Node11&#45;&gt;Node15 -->
<g id="edge19" class="edge">
<title>Node11&#45;&gt;Node15</title>
<path fill="none" stroke="midnightblue" d="M702.68,-123.41C727.55,-113.31 761.81,-99.36 791.92,-87 793.5,-86.35 795.13,-85.68 796.78,-85"/>
<polygon fill="midnightblue" stroke="midnightblue" points="798.29,-88.16 806.2,-81.11 795.62,-81.69 798.29,-88.16"/>
</g>
<!-- Node13&#45;&gt;Node5 -->
<g id="edge18" class="edge">
<title>Node13&#45;&gt;Node5</title>
<path fill="none" stroke="midnightblue" d="M670.52,-56.47C627.3,-45.53 568.34,-30.6 529.95,-20.88"/>
<polygon fill="midnightblue" stroke="midnightblue" points="530.73,-17.47 520.18,-18.41 529.02,-24.26 530.73,-17.47"/>
</g>
<!-- Node14 -->
<g id="node14" class="node">
<title>Node14</title>
<g id="a_node14"><a xlink:title=" ">
<polygon fill="none" stroke="#bfbfbf" points="903.42,-0.5 903.42,-19.5 950.42,-19.5 950.42,-0.5 903.42,-0.5"/>
<text text-anchor="middle" x="926.92" y="-7.5" font-family="Helvetica,sans-Serif" font-size="10.00">vector</text>
</a>
</g>
</g>
<!-- Node13&#45;&gt;Node14 -->
<g id="edge17" class="edge">
<title>Node13&#45;&gt;Node14</title>
<path fill="none" stroke="midnightblue" d="M773.29,-56.47C810.16,-45.56 860.41,-30.69 893.24,-20.97"/>
<polygon fill="midnightblue" stroke="midnightblue" points="894.66,-24.2 903.25,-18 892.67,-17.49 894.66,-24.2"/>
</g>
<!-- Node16&#45;&gt;Node5 -->
<g id="edge22" class="edge">
<title>Node16&#45;&gt;Node5</title>
<path fill="none" stroke="midnightblue" d="M610.43,-190.27C587.15,-155.35 527.27,-65.54 502.21,-27.94"/>
<polygon fill="midnightblue" stroke="midnightblue" points="505.09,-25.96 496.63,-19.58 499.27,-29.84 505.09,-25.96"/>
</g>
<!-- Node16&#45;&gt;Node11 -->
<g id="edge24" class="edge">
<title>Node16&#45;&gt;Node11</title>
<path fill="none" stroke="midnightblue" d="M630.33,-190.4C636.49,-182.05 644.44,-171.29 651.44,-161.81"/>
<polygon fill="midnightblue" stroke="midnightblue" points="654.4,-163.7 657.52,-153.58 648.76,-159.54 654.4,-163.7"/>
</g>
<!-- Node16&#45;&gt;Node12 -->
<g id="edge23" class="edge">
<title>Node16&#45;&gt;Node12</title>
<path fill="none" stroke="midnightblue" d="M615.14,-190.44C611.79,-180.36 607.32,-166.42 603.92,-154 598.04,-132.6 592.41,-107.72 588.83,-91.13"/>
<polygon fill="midnightblue" stroke="midnightblue" points="592.2,-90.17 586.69,-81.12 585.35,-91.63 592.2,-90.17"/>
</g>
<!-- Node16&#45;&gt;Node14 -->
<g id="edge21" class="edge">
<title>Node16&#45;&gt;Node14</title>
<path fill="none" stroke="midnightblue" d="M675.08,-200.3C730.31,-194.66 816.92,-181.93 886.92,-154 937.98,-133.62 964.59,-135.27 990.92,-87 997.51,-74.9 997.26,-68.23 990.92,-56 983.76,-42.23 970.24,-31.78 957.47,-24.44"/>
<polygon fill="midnightblue" stroke="midnightblue" points="958.87,-21.23 948.4,-19.64 955.6,-27.41 958.87,-21.23"/>
</g>
<!-- Node17&#45;&gt;Node7 -->
<g id="edge26" class="edge">
<title>Node17&#45;&gt;Node7</title>
<path fill="none" stroke="midnightblue" d="M275.08,-195.73C256.61,-184.82 224.84,-166.05 203.14,-153.22"/>
<polygon fill="midnightblue" stroke="midnightblue" points="204.9,-150.2 194.52,-148.13 201.34,-156.23 204.9,-150.2"/>
</g>
<!-- Node18&#45;&gt;Node5 -->
<g id="edge29" class="edge">
<title>Node18&#45;&gt;Node5</title>
<path fill="none" stroke="midnightblue" d="M201.89,-257.14C223.55,-225.58 301.39,-117.35 389.92,-56 409.98,-42.09 435.04,-30.9 455.18,-23.15"/>
<polygon fill="midnightblue" stroke="midnightblue" points="456.48,-26.4 464.62,-19.63 454.03,-19.84 456.48,-26.4"/>
</g>
<!-- Node19&#45;&gt;Node5 -->
<g id="edge31" class="edge">
<title>Node19&#45;&gt;Node5</title>
<path fill="none" stroke="midnightblue" d="M369.83,-257.17C366.86,-248.2 362.6,-233.83 360.92,-221 355.24,-177.67 348.99,-161.89 368.92,-123 391.51,-78.9 438.98,-43.41 467.59,-24.93"/>
<polygon fill="midnightblue" stroke="midnightblue" points="469.56,-27.83 476.16,-19.54 465.83,-21.9 469.56,-27.83"/>
</g>
<!-- Node20&#45;&gt;Node15 -->
<g id="edge38" class="edge">
<title>Node20&#45;&gt;Node15</title>
<path fill="none" stroke="midnightblue" d="M826.92,-123.4C826.92,-114.06 826.92,-101.71 826.92,-91.52"/>
<polygon fill="midnightblue" stroke="midnightblue" points="830.42,-91.19 826.92,-81.19 823.42,-91.19 830.42,-91.19"/>
</g>
<!-- Node21 -->
<g id="node21" class="node">
<title>Node21</title>
<g id="a_node21"><a xlink:href="$_simple_publisher_8h.html" xlink:title=" ">
<polygon fill="none" stroke="black" points="871.92,-56.5 871.92,-86.5 981.92,-86.5 981.92,-56.5 871.92,-56.5"/>
<text text-anchor="start" x="879.92" y="-74.5" font-family="Helvetica,sans-Serif" font-size="10.00">../../core&#45;lib/include</text>
<text text-anchor="middle" x="926.92" y="-63.5" font-family="Helvetica,sans-Serif" font-size="10.00">/SimplePublisher.h</text>
</a>
</g>
</g>
<!-- Node20&#45;&gt;Node21 -->
<g id="edge35" class="edge">
<title>Node20&#45;&gt;Node21</title>
<path fill="none" stroke="midnightblue" d="M848.61,-123.4C862.63,-114.28 881.08,-102.29 896.55,-92.24"/>
<polygon fill="midnightblue" stroke="midnightblue" points="898.78,-94.96 905.26,-86.58 894.97,-89.09 898.78,-94.96"/>
</g>
<!-- Node21&#45;&gt;Node5 -->
<g id="edge36" class="edge">
<title>Node21&#45;&gt;Node5</title>
<path fill="none" stroke="midnightblue" d="M871.83,-57.64C868.82,-57.06 865.83,-56.51 862.92,-56 742.44,-35.12 598.36,-20.65 530.26,-14.42"/>
<polygon fill="midnightblue" stroke="midnightblue" points="530.28,-10.91 520,-13.5 529.65,-17.88 530.28,-10.91"/>
</g>
<!-- Node21&#45;&gt;Node14 -->
<g id="edge37" class="edge">
<title>Node21&#45;&gt;Node14</title>
<path fill="none" stroke="midnightblue" d="M926.92,-56.4C926.92,-48.47 926.92,-38.46 926.92,-29.86"/>
<polygon fill="midnightblue" stroke="midnightblue" points="930.42,-29.66 926.92,-19.66 923.42,-29.66 930.42,-29.66"/>
</g>
</g>
</svg>
