<?xml version="1.0" encoding="UTF-8" standalone="no"?>
<!DOCTYPE svg PUBLIC "-//W3C//DTD SVG 1.1//EN"
 "http://www.w3.org/Graphics/SVG/1.1/DTD/svg11.dtd">
<!-- Generated by graphviz version 2.50.0 (0)
 -->
<!-- Title: /home/tomek/trash/battle&#45;city/src/lib/board&#45;lib/Board.cpp Pages: 1 -->
<svg width="1382pt" height="441pt"
 viewBox="0.00 0.00 1382.09 441.00" xmlns="http://www.w3.org/2000/svg" xmlns:xlink="http://www.w3.org/1999/xlink">
<g id="graph0" class="graph" transform="scale(1 1) rotate(0) translate(4 437)">
<title>/home/tomek/trash/battle&#45;city/src/lib/board&#45;lib/Board.cpp</title>
<!-- Node1 -->
<g id="node1" class="node">
<title>Node1</title>
<g id="a_node1"><a xlink:title=" ">
<polygon fill="#bfbfbf" stroke="black" points="545,-391.5 545,-432.5 686,-432.5 686,-391.5 545,-391.5"/>
<text text-anchor="start" x="553" y="-420.5" font-family="Helvetica,sans-Serif" font-size="10.00">/home/tomek/trash/battle</text>
<text text-anchor="start" x="553" y="-409.5" font-family="Helvetica,sans-Serif" font-size="10.00">&#45;city/src/lib/board&#45;lib</text>
<text text-anchor="middle" x="615.5" y="-398.5" font-family="Helvetica,sans-Serif" font-size="10.00">/Board.cpp</text>
</a>
</g>
</g>
<!-- Node2 -->
<g id="node2" class="node">
<title>Node2</title>
<g id="a_node2"><a xlink:title=" ">
<polygon fill="none" stroke="#bfbfbf" points="0,-330 0,-349 47,-349 47,-330 0,-330"/>
<text text-anchor="middle" x="23.5" y="-337" font-family="Helvetica,sans-Serif" font-size="10.00">cmath</text>
</a>
</g>
</g>
<!-- Node1&#45;&gt;Node2 -->
<g id="edge1" class="edge">
<title>Node1&#45;&gt;Node2</title>
<path fill="none" stroke="midnightblue" d="M544.78,-411.23C437.25,-409.96 227,-401.09 55.5,-355 53.35,-354.42 51.16,-353.71 48.98,-352.92"/>
<polygon fill="midnightblue" stroke="midnightblue" points="50.31,-349.68 39.73,-349.09 47.63,-356.15 50.31,-349.68"/>
</g>
<!-- Node3 -->
<g id="node3" class="node">
<title>Node3</title>
<g id="a_node3"><a xlink:title=" ">
<polygon fill="none" stroke="#bfbfbf" points="65,-330 65,-349 110,-349 110,-330 65,-330"/>
<text text-anchor="middle" x="87.5" y="-337" font-family="Helvetica,sans-Serif" font-size="10.00">utility</text>
</a>
</g>
</g>
<!-- Node1&#45;&gt;Node3 -->
<g id="edge2" class="edge">
<title>Node1&#45;&gt;Node3</title>
<path fill="none" stroke="midnightblue" d="M544.96,-408.7C448.67,-404.26 271.25,-391.46 124.5,-355 121.83,-354.34 119.09,-353.53 116.38,-352.64"/>
<polygon fill="midnightblue" stroke="midnightblue" points="117.37,-349.27 106.78,-349.15 114.98,-355.85 117.37,-349.27"/>
</g>
<!-- Node4 -->
<g id="node4" class="node">
<title>Node4</title>
<g id="a_node4"><a xlink:href="$_event_queue_8h.html" xlink:title=" ">
<polygon fill="none" stroke="black" points="605,-257.5 605,-287.5 706,-287.5 706,-257.5 605,-257.5"/>
<text text-anchor="start" x="613" y="-275.5" font-family="Helvetica,sans-Serif" font-size="10.00">../core&#45;lib/include</text>
<text text-anchor="middle" x="655.5" y="-264.5" font-family="Helvetica,sans-Serif" font-size="10.00">/EventQueue.h</text>
</a>
</g>
</g>
<!-- Node1&#45;&gt;Node4 -->
<g id="edge3" class="edge">
<title>Node1&#45;&gt;Node4</title>
<path fill="none" stroke="midnightblue" d="M621.57,-391.33C624.86,-380.61 628.96,-367.09 632.5,-355 638.16,-335.67 644.35,-313.69 648.88,-297.43"/>
<polygon fill="midnightblue" stroke="midnightblue" points="652.29,-298.23 651.6,-287.66 645.55,-296.36 652.29,-298.23"/>
</g>
<!-- Node7 -->
<g id="node7" class="node">
<title>Node7</title>
<g id="a_node7"><a xlink:href="$_event_8h.html" xlink:title=" ">
<polygon fill="none" stroke="black" points="447,-257.5 447,-287.5 548,-287.5 548,-257.5 447,-257.5"/>
<text text-anchor="start" x="455" y="-275.5" font-family="Helvetica,sans-Serif" font-size="10.00">../core&#45;lib/include</text>
<text text-anchor="middle" x="497.5" y="-264.5" font-family="Helvetica,sans-Serif" font-size="10.00">/Event.h</text>
</a>
</g>
</g>
<!-- Node1&#45;&gt;Node7 -->
<g id="edge6" class="edge">
<title>Node1&#45;&gt;Node7</title>
<path fill="none" stroke="midnightblue" d="M568.36,-391.29C551.84,-382.35 534.45,-370.3 522.5,-355 509.52,-338.39 503.25,-315.03 500.23,-297.58"/>
<polygon fill="midnightblue" stroke="midnightblue" points="503.68,-296.96 498.75,-287.59 496.76,-297.99 503.68,-296.96"/>
</g>
<!-- Node18 -->
<g id="node18" class="node">
<title>Node18</title>
<g id="a_node18"><a xlink:href="$_board_8h.html" xlink:title=" ">
<polygon fill="none" stroke="black" points="707.5,-330 707.5,-349 799.5,-349 799.5,-330 707.5,-330"/>
<text text-anchor="middle" x="753.5" y="-337" font-family="Helvetica,sans-Serif" font-size="10.00">include/Board.h</text>
</a>
</g>
</g>
<!-- Node1&#45;&gt;Node18 -->
<g id="edge24" class="edge">
<title>Node1&#45;&gt;Node18</title>
<path fill="none" stroke="midnightblue" d="M653.94,-391.36C677.35,-379.4 706.64,-364.44 727.37,-353.85"/>
<polygon fill="midnightblue" stroke="midnightblue" points="729.21,-356.84 736.52,-349.17 726.02,-350.61 729.21,-356.84"/>
</g>
<!-- Node20 -->
<g id="node20" class="node">
<title>Node20</title>
<g id="a_node20"><a xlink:href="$_grid_8h.html" xlink:title=" ">
<polygon fill="none" stroke="black" points="928.5,-263 928.5,-282 974.5,-282 974.5,-263 928.5,-263"/>
<text text-anchor="middle" x="951.5" y="-270" font-family="Helvetica,sans-Serif" font-size="10.00">Grid.h</text>
</a>
</g>
</g>
<!-- Node1&#45;&gt;Node20 -->
<g id="edge38" class="edge">
<title>Node1&#45;&gt;Node20</title>
<path fill="none" stroke="midnightblue" d="M686.1,-394.78C723.25,-385.19 769.14,-371.65 808.5,-355 853.9,-335.8 903.04,-305.47 930.27,-287.73"/>
<polygon fill="midnightblue" stroke="midnightblue" points="932.2,-290.65 938.63,-282.23 928.35,-284.8 932.2,-290.65"/>
</g>
<!-- Node21 -->
<g id="node21" class="node">
<title>Node21</title>
<g id="a_node21"><a xlink:href="$_grid_builder_8h.html" xlink:title=" ">
<polygon fill="none" stroke="black" points="28.5,-263 28.5,-282 146.5,-282 146.5,-263 28.5,-263"/>
<text text-anchor="middle" x="87.5" y="-270" font-family="Helvetica,sans-Serif" font-size="10.00">include/GridBuilder.h</text>
</a>
</g>
</g>
<!-- Node1&#45;&gt;Node21 -->
<g id="edge39" class="edge">
<title>Node1&#45;&gt;Node21</title>
<path fill="none" stroke="midnightblue" d="M544.89,-408.18C434.67,-402.8 227.6,-388.48 162.5,-355 133.97,-340.33 110.78,-310.17 98.08,-290.94"/>
<polygon fill="midnightblue" stroke="midnightblue" points="100.88,-288.82 92.57,-282.26 94.97,-292.57 100.88,-288.82"/>
</g>
<!-- Node22 -->
<g id="node22" class="node">
<title>Node22</title>
<g id="a_node22"><a xlink:href="$_tile_manager_8h.html" xlink:title=" ">
<polygon fill="none" stroke="black" points="114.5,-129 114.5,-148 238.5,-148 238.5,-129 114.5,-129"/>
<text text-anchor="middle" x="176.5" y="-136" font-family="Helvetica,sans-Serif" font-size="10.00">include/TileManager.h</text>
</a>
</g>
</g>
<!-- Node1&#45;&gt;Node22 -->
<g id="edge41" class="edge">
<title>Node1&#45;&gt;Node22</title>
<path fill="none" stroke="midnightblue" d="M547.64,-391.5C463.6,-364.55 319.89,-309.05 224.5,-221 205.13,-203.12 191.18,-175.63 183.47,-157.6"/>
<polygon fill="midnightblue" stroke="midnightblue" points="186.67,-156.17 179.66,-148.22 180.18,-158.81 186.67,-156.17"/>
</g>
<!-- Node23 -->
<g id="node23" class="node">
<title>Node23</title>
<g id="a_node23"><a xlink:href="$_bullet_8h.html" xlink:title=" ">
<polygon fill="none" stroke="black" points="1077,-123.5 1077,-153.5 1178,-153.5 1178,-123.5 1077,-123.5"/>
<text text-anchor="start" x="1085" y="-141.5" font-family="Helvetica,sans-Serif" font-size="10.00">../tank&#45;lib/include</text>
<text text-anchor="middle" x="1127.5" y="-130.5" font-family="Helvetica,sans-Serif" font-size="10.00">/Bullet.h</text>
</a>
</g>
</g>
<!-- Node1&#45;&gt;Node23 -->
<g id="edge43" class="edge">
<title>Node1&#45;&gt;Node23</title>
<path fill="none" stroke="midnightblue" d="M686.18,-409.75C795.74,-406.56 1000.18,-395.22 1059.5,-355 1122.48,-312.3 1129.06,-210.6 1128.55,-163.82"/>
<polygon fill="midnightblue" stroke="midnightblue" points="1132.05,-163.6 1128.32,-153.68 1125.05,-163.76 1132.05,-163.6"/>
</g>
<!-- Node25 -->
<g id="node25" class="node">
<title>Node25</title>
<g id="a_node25"><a xlink:href="$_bot_controller_8h.html" xlink:title=" ">
<polygon fill="none" stroke="black" points="955,-324.5 955,-354.5 1050,-354.5 1050,-324.5 955,-324.5"/>
<text text-anchor="start" x="963" y="-342.5" font-family="Helvetica,sans-Serif" font-size="10.00">../bot&#45;lib/include</text>
<text text-anchor="middle" x="1002.5" y="-331.5" font-family="Helvetica,sans-Serif" font-size="10.00">/BotController.h</text>
</a>
</g>
</g>
<!-- Node1&#45;&gt;Node25 -->
<g id="edge48" class="edge">
<title>Node1&#45;&gt;Node25</title>
<path fill="none" stroke="midnightblue" d="M686.03,-398.15C760.17,-384.65 875.42,-363.65 944.47,-351.07"/>
<polygon fill="midnightblue" stroke="midnightblue" points="945.52,-354.44 954.73,-349.2 944.27,-347.55 945.52,-354.44"/>
</g>
<!-- Node26 -->
<g id="node26" class="node">
<title>Node26</title>
<g id="a_node26"><a xlink:href="$_eagle_8h.html" xlink:title=" ">
<polygon fill="none" stroke="black" points="532,-330 532,-349 623,-349 623,-330 532,-330"/>
<text text-anchor="middle" x="577.5" y="-337" font-family="Helvetica,sans-Serif" font-size="10.00">include/Eagle.h</text>
</a>
</g>
</g>
<!-- Node1&#45;&gt;Node26 -->
<g id="edge55" class="edge">
<title>Node1&#45;&gt;Node26</title>
<path fill="none" stroke="midnightblue" d="M604.91,-391.36C599.31,-380.97 592.49,-368.32 587.05,-358.23"/>
<polygon fill="midnightblue" stroke="midnightblue" points="590,-356.32 582.18,-349.17 583.84,-359.64 590,-356.32"/>
</g>
<!-- Node27 -->
<g id="node27" class="node">
<title>Node27</title>
<g id="a_node27"><a xlink:href="$_clock_8h.html" xlink:title=" ">
<polygon fill="none" stroke="black" points="1196,-123.5 1196,-153.5 1297,-153.5 1297,-123.5 1196,-123.5"/>
<text text-anchor="start" x="1204" y="-141.5" font-family="Helvetica,sans-Serif" font-size="10.00">../core&#45;lib/include</text>
<text text-anchor="middle" x="1246.5" y="-130.5" font-family="Helvetica,sans-Serif" font-size="10.00">/Clock.h</text>
</a>
</g>
</g>
<!-- Node1&#45;&gt;Node27 -->
<g id="edge59" class="edge">
<title>Node1&#45;&gt;Node27</title>
<path fill="none" stroke="midnightblue" d="M686.43,-409.45C801.3,-405.81 1021.89,-393.85 1088.5,-355 1166.37,-309.59 1217.05,-208.96 1236.96,-163.1"/>
<polygon fill="midnightblue" stroke="midnightblue" points="1240.27,-164.26 1240.95,-153.68 1233.83,-161.53 1240.27,-164.26"/>
</g>
<!-- Node5 -->
<g id="node5" class="node">
<title>Node5</title>
<g id="a_node5"><a xlink:title=" ">
<polygon fill="none" stroke="#bfbfbf" points="969,-196 969,-215 1016,-215 1016,-196 969,-196"/>
<text text-anchor="middle" x="992.5" y="-203" font-family="Helvetica,sans-Serif" font-size="10.00">queue</text>
</a>
</g>
</g>
<!-- Node4&#45;&gt;Node5 -->
<g id="edge4" class="edge">
<title>Node4&#45;&gt;Node5</title>
<path fill="none" stroke="midnightblue" d="M706.32,-261.7C776.05,-248.25 899.49,-224.44 958.82,-213"/>
<polygon fill="midnightblue" stroke="midnightblue" points="959.63,-216.41 968.78,-211.07 958.3,-209.53 959.63,-216.41"/>
</g>
<!-- Node6 -->
<g id="node6" class="node">
<title>Node6</title>
<g id="a_node6"><a xlink:title=" ">
<polygon fill="none" stroke="#bfbfbf" points="814.5,-0.5 814.5,-19.5 872.5,-19.5 872.5,-0.5 814.5,-0.5"/>
<text text-anchor="middle" x="843.5" y="-7.5" font-family="Helvetica,sans-Serif" font-size="10.00">memory</text>
</a>
</g>
</g>
<!-- Node4&#45;&gt;Node6 -->
<g id="edge5" class="edge">
<title>Node4&#45;&gt;Node6</title>
<path fill="none" stroke="midnightblue" d="M604.87,-260.71C578.59,-253.1 547.3,-240.65 524.5,-221 467.5,-171.87 436.73,-112.44 486.5,-56 507.27,-32.45 715.66,-18.13 804.12,-13.07"/>
<polygon fill="midnightblue" stroke="midnightblue" points="804.51,-16.56 814.29,-12.5 804.11,-9.57 804.51,-16.56"/>
</g>
<!-- Node7&#45;&gt;Node6 -->
<g id="edge9" class="edge">
<title>Node7&#45;&gt;Node6</title>
<path fill="none" stroke="midnightblue" d="M446.86,-269.24C377.92,-264.99 260.04,-253.1 233.5,-221 224.72,-210.38 226.63,-201.95 233.5,-190 292.45,-87.43 351.3,-93.52 463.5,-56 582.76,-16.12 733.4,-10.61 803.82,-10.45"/>
<polygon fill="midnightblue" stroke="midnightblue" points="804.02,-13.95 814.02,-10.46 804.02,-6.95 804.02,-13.95"/>
</g>
<!-- Node8 -->
<g id="node8" class="node">
<title>Node8</title>
<g id="a_node8"><a xlink:title=" ">
<polygon fill="none" stroke="#bfbfbf" points="681,-196 681,-215 746,-215 746,-196 681,-196"/>
<text text-anchor="middle" x="713.5" y="-203" font-family="Helvetica,sans-Serif" font-size="10.00">exception</text>
</a>
</g>
</g>
<!-- Node7&#45;&gt;Node8 -->
<g id="edge7" class="edge">
<title>Node7&#45;&gt;Node8</title>
<path fill="none" stroke="midnightblue" d="M544.1,-257.48C583.33,-245.67 638.73,-229 675.35,-217.98"/>
<polygon fill="midnightblue" stroke="midnightblue" points="676.59,-221.26 685.16,-215.03 674.57,-214.56 676.59,-221.26"/>
</g>
<!-- Node9 -->
<g id="node9" class="node">
<title>Node9</title>
<g id="a_node9"><a xlink:title=" ">
<polygon fill="none" stroke="#bfbfbf" points="242.5,-196 242.5,-215 286.5,-215 286.5,-196 242.5,-196"/>
<text text-anchor="middle" x="264.5" y="-203" font-family="Helvetica,sans-Serif" font-size="10.00">string</text>
</a>
</g>
</g>
<!-- Node7&#45;&gt;Node9 -->
<g id="edge8" class="edge">
<title>Node7&#45;&gt;Node9</title>
<path fill="none" stroke="midnightblue" d="M446.9,-261.68C405.55,-252.99 345.92,-238.9 295.5,-221 293.88,-220.43 292.24,-219.8 290.59,-219.13"/>
<polygon fill="midnightblue" stroke="midnightblue" points="291.87,-215.87 281.31,-215.08 289.07,-222.29 291.87,-215.87"/>
</g>
<!-- Node10 -->
<g id="node10" class="node">
<title>Node10</title>
<g id="a_node10"><a xlink:title=" ">
<polygon fill="none" stroke="#bfbfbf" points="305,-196 305,-215 356,-215 356,-196 305,-196"/>
<text text-anchor="middle" x="330.5" y="-203" font-family="Helvetica,sans-Serif" font-size="10.00">variant</text>
</a>
</g>
</g>
<!-- Node7&#45;&gt;Node10 -->
<g id="edge10" class="edge">
<title>Node7&#45;&gt;Node10</title>
<path fill="none" stroke="midnightblue" d="M459.84,-257.41C433.38,-247.42 397.18,-233.62 365.5,-221 363.86,-220.35 362.18,-219.67 360.49,-218.99"/>
<polygon fill="midnightblue" stroke="midnightblue" points="361.4,-215.58 350.82,-215.03 358.75,-222.06 361.4,-215.58"/>
</g>
<!-- Node11 -->
<g id="node11" class="node">
<title>Node11</title>
<g id="a_node11"><a xlink:title=" ">
<polygon fill="none" stroke="#bfbfbf" points="374.5,-196 374.5,-215 434.5,-215 434.5,-196 374.5,-196"/>
<text text-anchor="middle" x="404.5" y="-203" font-family="Helvetica,sans-Serif" font-size="10.00">iostream</text>
</a>
</g>
</g>
<!-- Node7&#45;&gt;Node11 -->
<g id="edge11" class="edge">
<title>Node7&#45;&gt;Node11</title>
<path fill="none" stroke="midnightblue" d="M477.32,-257.4C461.87,-246.6 440.64,-231.76 425.08,-220.89"/>
<polygon fill="midnightblue" stroke="midnightblue" points="426.87,-217.87 416.67,-215.01 422.86,-223.6 426.87,-217.87"/>
</g>
<!-- Node12 -->
<g id="node12" class="node">
<title>Node12</title>
<g id="a_node12"><a xlink:title=" ">
<polygon fill="none" stroke="#bfbfbf" points="604.5,-129 604.5,-148 660.5,-148 660.5,-129 604.5,-129"/>
<text text-anchor="middle" x="632.5" y="-136" font-family="Helvetica,sans-Serif" font-size="10.00">optional</text>
</a>
</g>
</g>
<!-- Node7&#45;&gt;Node12 -->
<g id="edge12" class="edge">
<title>Node7&#45;&gt;Node12</title>
<path fill="none" stroke="midnightblue" d="M511.95,-257.37C537.34,-232.54 589.81,-181.24 616.36,-155.28"/>
<polygon fill="midnightblue" stroke="midnightblue" points="619,-157.59 623.71,-148.1 614.11,-152.59 619,-157.59"/>
</g>
<!-- Node13 -->
<g id="node13" class="node">
<title>Node13</title>
<g id="a_node13"><a xlink:href="$_entity_8h.html" xlink:title=" ">
<polygon fill="none" stroke="black" points="633.5,-56.5 633.5,-86.5 743.5,-86.5 743.5,-56.5 633.5,-56.5"/>
<text text-anchor="start" x="641.5" y="-74.5" font-family="Helvetica,sans-Serif" font-size="10.00">../../tank&#45;lib/include</text>
<text text-anchor="middle" x="688.5" y="-63.5" font-family="Helvetica,sans-Serif" font-size="10.00">/Entity.h</text>
</a>
</g>
</g>
<!-- Node7&#45;&gt;Node13 -->
<g id="edge13" class="edge">
<title>Node7&#45;&gt;Node13</title>
<path fill="none" stroke="midnightblue" d="M500.01,-257.18C505.83,-228.04 522.89,-161.39 562.5,-123 579.38,-106.64 602.23,-95.36 623.84,-87.69"/>
<polygon fill="midnightblue" stroke="midnightblue" points="624.96,-91.01 633.33,-84.52 622.74,-84.37 624.96,-91.01"/>
</g>
<!-- Node14 -->
<g id="node14" class="node">
<title>Node14</title>
<g id="a_node14"><a xlink:href="$_tank_8h.html" xlink:title=" ">
<polygon fill="none" stroke="black" points="764.5,-190.5 764.5,-220.5 874.5,-220.5 874.5,-190.5 764.5,-190.5"/>
<text text-anchor="start" x="772.5" y="-208.5" font-family="Helvetica,sans-Serif" font-size="10.00">../../tank&#45;lib/include</text>
<text text-anchor="middle" x="819.5" y="-197.5" font-family="Helvetica,sans-Serif" font-size="10.00">/Tank.h</text>
</a>
</g>
</g>
<!-- Node7&#45;&gt;Node14 -->
<g id="edge14" class="edge">
<title>Node7&#45;&gt;Node14</title>
<path fill="none" stroke="midnightblue" d="M548.02,-262.07C597.96,-252.64 676.8,-237.48 754.42,-221.2"/>
<polygon fill="midnightblue" stroke="midnightblue" points="755.3,-224.59 764.36,-219.1 753.86,-217.74 755.3,-224.59"/>
</g>
<!-- Node14&#45;&gt;Node6 -->
<g id="edge15" class="edge">
<title>Node14&#45;&gt;Node6</title>
<path fill="none" stroke="midnightblue" d="M822.67,-190.42C824.85,-180.32 827.67,-166.38 829.5,-154 836.03,-109.73 840.28,-57.29 842.24,-29.87"/>
<polygon fill="midnightblue" stroke="midnightblue" points="845.75,-29.96 842.94,-19.74 838.76,-29.48 845.75,-29.96"/>
</g>
<!-- Node14&#45;&gt;Node12 -->
<g id="edge16" class="edge">
<title>Node14&#45;&gt;Node12</title>
<path fill="none" stroke="midnightblue" d="M778.92,-190.4C745.39,-178.74 698.3,-162.37 666.67,-151.38"/>
<polygon fill="midnightblue" stroke="midnightblue" points="667.57,-147.98 656.97,-148.01 665.27,-154.6 667.57,-147.98"/>
</g>
<!-- Node14&#45;&gt;Node13 -->
<g id="edge20" class="edge">
<title>Node14&#45;&gt;Node13</title>
<path fill="none" stroke="midnightblue" d="M764.28,-190.9C743.73,-183.23 721.93,-171.55 707.5,-154 694.28,-137.92 689.91,-114.31 688.62,-96.64"/>
<polygon fill="midnightblue" stroke="midnightblue" points="692.11,-96.36 688.16,-86.52 685.12,-96.67 692.11,-96.36"/>
</g>
<!-- Node15 -->
<g id="node15" class="node">
<title>Node15</title>
<g id="a_node15"><a xlink:href="$_simple_subscriber_8h.html" xlink:title=" ">
<polygon fill="none" stroke="black" points="910,-56.5 910,-86.5 1023,-86.5 1023,-56.5 910,-56.5"/>
<text text-anchor="start" x="918" y="-74.5" font-family="Helvetica,sans-Serif" font-size="10.00">../../core&#45;lib/include</text>
<text text-anchor="middle" x="966.5" y="-63.5" font-family="Helvetica,sans-Serif" font-size="10.00">/SimpleSubscriber.h</text>
</a>
</g>
</g>
<!-- Node14&#45;&gt;Node15 -->
<g id="edge17" class="edge">
<title>Node14&#45;&gt;Node15</title>
<path fill="none" stroke="midnightblue" d="M835.23,-190.37C861.2,-167.05 913.17,-120.38 943.35,-93.29"/>
<polygon fill="midnightblue" stroke="midnightblue" points="945.78,-95.81 950.88,-86.52 941.1,-90.6 945.78,-95.81"/>
</g>
<!-- Node17 -->
<g id="node17" class="node">
<title>Node17</title>
<g id="a_node17"><a xlink:href="$_bot_8h.html" xlink:title=" ">
<polygon fill="none" stroke="black" points="716.5,-123.5 716.5,-153.5 820.5,-153.5 820.5,-123.5 716.5,-123.5"/>
<text text-anchor="start" x="724.5" y="-141.5" font-family="Helvetica,sans-Serif" font-size="10.00">../../bot&#45;lib/include</text>
<text text-anchor="middle" x="768.5" y="-130.5" font-family="Helvetica,sans-Serif" font-size="10.00">/Bot.h</text>
</a>
</g>
</g>
<!-- Node14&#45;&gt;Node17 -->
<g id="edge21" class="edge">
<title>Node14&#45;&gt;Node17</title>
<path fill="none" stroke="midnightblue" d="M808.43,-190.4C801.82,-181.96 793.27,-171.07 785.78,-161.52"/>
<polygon fill="midnightblue" stroke="midnightblue" points="788.47,-159.28 779.54,-153.58 782.96,-163.6 788.47,-159.28"/>
</g>
<!-- Node15&#45;&gt;Node6 -->
<g id="edge19" class="edge">
<title>Node15&#45;&gt;Node6</title>
<path fill="none" stroke="midnightblue" d="M937.35,-56.4C917.08,-46.59 890.26,-33.62 870.48,-24.05"/>
<polygon fill="midnightblue" stroke="midnightblue" points="871.92,-20.86 861.4,-19.66 868.88,-27.16 871.92,-20.86"/>
</g>
<!-- Node16 -->
<g id="node16" class="node">
<title>Node16</title>
<g id="a_node16"><a xlink:title=" ">
<polygon fill="none" stroke="#bfbfbf" points="1302,-0.5 1302,-19.5 1349,-19.5 1349,-0.5 1302,-0.5"/>
<text text-anchor="middle" x="1325.5" y="-7.5" font-family="Helvetica,sans-Serif" font-size="10.00">vector</text>
</a>
</g>
</g>
<!-- Node15&#45;&gt;Node16 -->
<g id="edge18" class="edge">
<title>Node15&#45;&gt;Node16</title>
<path fill="none" stroke="midnightblue" d="M1023.38,-61.07C1099.08,-48.53 1230.5,-26.75 1291.98,-16.56"/>
<polygon fill="midnightblue" stroke="midnightblue" points="1292.63,-20 1301.92,-14.91 1291.48,-13.09 1292.63,-20"/>
</g>
<!-- Node17&#45;&gt;Node13 -->
<g id="edge22" class="edge">
<title>Node17&#45;&gt;Node13</title>
<path fill="none" stroke="midnightblue" d="M751.14,-123.4C740.24,-114.54 725.99,-102.96 713.84,-93.09"/>
<polygon fill="midnightblue" stroke="midnightblue" points="715.79,-90.17 705.82,-86.58 711.38,-95.6 715.79,-90.17"/>
</g>
<!-- Node17&#45;&gt;Node15 -->
<g id="edge23" class="edge">
<title>Node17&#45;&gt;Node15</title>
<path fill="none" stroke="midnightblue" d="M811.46,-123.4C841.56,-113.52 881.96,-100.25 913.98,-89.74"/>
<polygon fill="midnightblue" stroke="midnightblue" points="915.21,-93.02 923.62,-86.58 913.03,-86.37 915.21,-93.02"/>
</g>
<!-- Node18&#45;&gt;Node4 -->
<g id="edge26" class="edge">
<title>Node18&#45;&gt;Node4</title>
<path fill="none" stroke="midnightblue" d="M740.28,-329.73C726.27,-320.44 703.69,-305.46 685.35,-293.3"/>
<polygon fill="midnightblue" stroke="midnightblue" points="687.01,-290.2 676.74,-287.59 683.14,-296.03 687.01,-290.2"/>
</g>
<!-- Node18&#45;&gt;Node6 -->
<g id="edge25" class="edge">
<title>Node18&#45;&gt;Node6</title>
<path fill="none" stroke="midnightblue" d="M751.46,-329.82C747.27,-313.64 736.28,-278.6 715.5,-257 691.25,-231.79 672.2,-243.6 645.5,-221 608.18,-189.41 585.58,-170.88 595.5,-123 602.08,-91.23 599.32,-76.47 624.5,-56 651.59,-33.98 748.76,-20.68 804.14,-14.73"/>
<polygon fill="midnightblue" stroke="midnightblue" points="804.71,-18.19 814.29,-13.67 803.98,-11.22 804.71,-18.19"/>
</g>
<!-- Node18&#45;&gt;Node14 -->
<g id="edge27" class="edge">
<title>Node18&#45;&gt;Node14</title>
<path fill="none" stroke="midnightblue" d="M757.3,-329.84C763.93,-314.85 778.17,-283.15 791.5,-257 796.18,-247.82 801.62,-237.86 806.45,-229.24"/>
<polygon fill="midnightblue" stroke="midnightblue" points="809.51,-230.93 811.39,-220.51 803.42,-227.49 809.51,-230.93"/>
</g>
<!-- Node19 -->
<g id="node19" class="node">
<title>Node19</title>
<g id="a_node19"><a xlink:href="$_entity_controller_8h.html" xlink:title=" ">
<polygon fill="none" stroke="black" points="800.5,-257.5 800.5,-287.5 910.5,-287.5 910.5,-257.5 800.5,-257.5"/>
<text text-anchor="start" x="808.5" y="-275.5" font-family="Helvetica,sans-Serif" font-size="10.00">../../tank&#45;lib/include</text>
<text text-anchor="middle" x="855.5" y="-264.5" font-family="Helvetica,sans-Serif" font-size="10.00">/EntityController.h</text>
</a>
</g>
</g>
<!-- Node18&#45;&gt;Node19 -->
<g id="edge28" class="edge">
<title>Node18&#45;&gt;Node19</title>
<path fill="none" stroke="midnightblue" d="M767.26,-329.73C781.97,-320.36 805.77,-305.19 824.95,-292.97"/>
<polygon fill="midnightblue" stroke="midnightblue" points="826.84,-295.91 833.39,-287.59 823.08,-290.01 826.84,-295.91"/>
</g>
<!-- Node18&#45;&gt;Node20 -->
<g id="edge33" class="edge">
<title>Node18&#45;&gt;Node20</title>
<path fill="none" stroke="midnightblue" d="M786.05,-329.95C819.82,-320.76 873.98,-305.16 919.5,-288 921.11,-287.39 922.75,-286.75 924.4,-286.07"/>
<polygon fill="midnightblue" stroke="midnightblue" points="925.94,-289.22 933.73,-282.05 923.16,-282.79 925.94,-289.22"/>
</g>
<!-- Node19&#45;&gt;Node6 -->
<g id="edge30" class="edge">
<title>Node19&#45;&gt;Node6</title>
<path fill="none" stroke="midnightblue" d="M865.94,-257.31C872.4,-247.63 880.09,-234.2 883.5,-221 901.6,-151.02 869,-65.96 852.38,-29.28"/>
<polygon fill="midnightblue" stroke="midnightblue" points="855.39,-27.47 847.98,-19.89 849.05,-30.43 855.39,-27.47"/>
</g>
<!-- Node19&#45;&gt;Node12 -->
<g id="edge31" class="edge">
<title>Node19&#45;&gt;Node12</title>
<path fill="none" stroke="midnightblue" d="M800.35,-261.46C753.89,-252.08 691.98,-237.14 672.5,-221 652.91,-204.77 642.12,-176.6 636.82,-158.01"/>
<polygon fill="midnightblue" stroke="midnightblue" points="640.15,-156.9 634.26,-148.09 633.37,-158.65 640.15,-156.9"/>
</g>
<!-- Node19&#45;&gt;Node14 -->
<g id="edge32" class="edge">
<title>Node19&#45;&gt;Node14</title>
<path fill="none" stroke="midnightblue" d="M847.69,-257.4C843.16,-249.22 837.35,-238.73 832.18,-229.39"/>
<polygon fill="midnightblue" stroke="midnightblue" points="835.2,-227.63 827.3,-220.58 829.08,-231.02 835.2,-227.63"/>
</g>
<!-- Node19&#45;&gt;Node16 -->
<g id="edge29" class="edge">
<title>Node19&#45;&gt;Node16</title>
<path fill="none" stroke="midnightblue" d="M868.5,-257.35C886.91,-238.35 922.6,-205.22 960.5,-190 1032.24,-161.19 1251.07,-207.88 1306.5,-154 1339.94,-121.5 1334.79,-60.62 1329.49,-29.84"/>
<polygon fill="midnightblue" stroke="midnightblue" points="1332.85,-28.8 1327.53,-19.64 1325.98,-30.12 1332.85,-28.8"/>
</g>
<!-- Node20&#45;&gt;Node5 -->
<g id="edge36" class="edge">
<title>Node20&#45;&gt;Node5</title>
<path fill="none" stroke="midnightblue" d="M957.03,-262.73C963.3,-252.79 973.68,-236.34 981.59,-223.79"/>
<polygon fill="midnightblue" stroke="midnightblue" points="984.68,-225.45 987.06,-215.13 978.76,-221.72 984.68,-225.45"/>
</g>
<!-- Node20&#45;&gt;Node8 -->
<g id="edge34" class="edge">
<title>Node20&#45;&gt;Node8</title>
<path fill="none" stroke="midnightblue" d="M934.49,-263C929.72,-260.83 924.48,-258.65 919.5,-257 848.68,-233.47 827.34,-241.21 755.5,-221 752.55,-220.17 749.51,-219.25 746.47,-218.28"/>
<polygon fill="midnightblue" stroke="midnightblue" points="747.49,-214.94 736.89,-215.12 745.29,-221.58 747.49,-214.94"/>
</g>
<!-- Node20&#45;&gt;Node14 -->
<g id="edge37" class="edge">
<title>Node20&#45;&gt;Node14</title>
<path fill="none" stroke="midnightblue" d="M933.97,-262.87C914.57,-253.31 882.71,-237.63 857.53,-225.22"/>
<polygon fill="midnightblue" stroke="midnightblue" points="858.76,-221.93 848.24,-220.65 855.66,-228.21 858.76,-221.93"/>
</g>
<!-- Node20&#45;&gt;Node16 -->
<g id="edge35" class="edge">
<title>Node20&#45;&gt;Node16</title>
<path fill="none" stroke="midnightblue" d="M974.7,-268.1C1051.39,-256.34 1294.41,-214.76 1339.5,-154 1367.04,-116.89 1347.39,-58.61 1334.43,-29.23"/>
<polygon fill="midnightblue" stroke="midnightblue" points="1337.44,-27.4 1330.05,-19.8 1331.09,-30.35 1337.44,-27.4"/>
</g>
<!-- Node21&#45;&gt;Node6 -->
<g id="edge40" class="edge">
<title>Node21&#45;&gt;Node6</title>
<path fill="none" stroke="midnightblue" d="M86.17,-262.97C82.89,-238.85 76.59,-168.94 105.5,-123 134.99,-76.15 157.94,-73.39 210.5,-56 321.55,-19.26 683.88,-12.51 804.24,-11.27"/>
<polygon fill="midnightblue" stroke="midnightblue" points="804.49,-14.77 814.46,-11.18 804.43,-7.77 804.49,-14.77"/>
</g>
<!-- Node22&#45;&gt;Node6 -->
<g id="edge42" class="edge">
<title>Node22&#45;&gt;Node6</title>
<path fill="none" stroke="midnightblue" d="M181.44,-128.88C191.93,-111.48 218.32,-72.43 252.5,-56 302.01,-32.2 680.09,-16.8 804.18,-12.34"/>
<polygon fill="midnightblue" stroke="midnightblue" points="804.5,-15.83 814.37,-11.98 804.25,-8.83 804.5,-15.83"/>
</g>
<!-- Node23&#45;&gt;Node13 -->
<g id="edge47" class="edge">
<title>Node23&#45;&gt;Node13</title>
<path fill="none" stroke="midnightblue" d="M1076.71,-129.98C996.82,-118.15 841.83,-95.2 753.78,-82.17"/>
<polygon fill="midnightblue" stroke="midnightblue" points="754.05,-78.67 743.64,-80.66 753.02,-85.59 754.05,-78.67"/>
</g>
<!-- Node24 -->
<g id="node24" class="node">
<title>Node24</title>
<g id="a_node24"><a xlink:href="$_simple_publisher_8h.html" xlink:title=" ">
<polygon fill="none" stroke="black" points="1079.5,-56.5 1079.5,-86.5 1189.5,-86.5 1189.5,-56.5 1079.5,-56.5"/>
<text text-anchor="start" x="1087.5" y="-74.5" font-family="Helvetica,sans-Serif" font-size="10.00">../../core&#45;lib/include</text>
<text text-anchor="middle" x="1134.5" y="-63.5" font-family="Helvetica,sans-Serif" font-size="10.00">/SimplePublisher.h</text>
</a>
</g>
</g>
<!-- Node23&#45;&gt;Node24 -->
<g id="edge44" class="edge">
<title>Node23&#45;&gt;Node24</title>
<path fill="none" stroke="midnightblue" d="M1129.02,-123.4C1129.86,-115.56 1130.94,-105.6 1131.91,-96.57"/>
<polygon fill="midnightblue" stroke="midnightblue" points="1135.39,-96.89 1132.98,-86.58 1128.43,-96.14 1135.39,-96.89"/>
</g>
<!-- Node24&#45;&gt;Node6 -->
<g id="edge45" class="edge">
<title>Node24&#45;&gt;Node6</title>
<path fill="none" stroke="midnightblue" d="M1079.15,-58.83C1074.53,-57.87 1069.94,-56.92 1065.5,-56 1001.5,-42.79 927.04,-27.77 882.67,-18.85"/>
<polygon fill="midnightblue" stroke="midnightblue" points="883.1,-15.37 872.6,-16.83 881.72,-22.23 883.1,-15.37"/>
</g>
<!-- Node24&#45;&gt;Node16 -->
<g id="edge46" class="edge">
<title>Node24&#45;&gt;Node16</title>
<path fill="none" stroke="midnightblue" d="M1179.76,-56.4C1214.16,-45.69 1260.7,-31.19 1291.84,-21.48"/>
<polygon fill="midnightblue" stroke="midnightblue" points="1293.27,-24.71 1301.78,-18.39 1291.19,-18.02 1293.27,-24.71"/>
</g>
<!-- Node25&#45;&gt;Node4 -->
<g id="edge53" class="edge">
<title>Node25&#45;&gt;Node4</title>
<path fill="none" stroke="midnightblue" d="M954.98,-329.6C892.92,-317.97 784.21,-297.61 716.24,-284.88"/>
<polygon fill="midnightblue" stroke="midnightblue" points="716.58,-281.38 706.1,-282.98 715.29,-288.26 716.58,-281.38"/>
</g>
<!-- Node25&#45;&gt;Node5 -->
<g id="edge51" class="edge">
<title>Node25&#45;&gt;Node5</title>
<path fill="none" stroke="midnightblue" d="M1001.43,-324.37C999.62,-300.5 995.96,-252.18 993.93,-225.41"/>
<polygon fill="midnightblue" stroke="midnightblue" points="997.4,-224.8 993.15,-215.1 990.42,-225.33 997.4,-224.8"/>
</g>
<!-- Node25&#45;&gt;Node6 -->
<g id="edge49" class="edge">
<title>Node25&#45;&gt;Node6</title>
<path fill="none" stroke="midnightblue" d="M1015.21,-324.17C1022.86,-314.62 1031.96,-301.42 1036.5,-288 1053.02,-239.15 1065.65,-95.49 1032.5,-56 1013.57,-33.45 932.56,-20.73 882.95,-14.92"/>
<polygon fill="midnightblue" stroke="midnightblue" points="883.2,-11.42 872.87,-13.78 882.42,-18.38 883.2,-11.42"/>
</g>
<!-- Node25&#45;&gt;Node7 -->
<g id="edge54" class="edge">
<title>Node25&#45;&gt;Node7</title>
<path fill="none" stroke="midnightblue" d="M954.95,-332.92C879.09,-323.95 726.01,-305.54 596.5,-288 584.07,-286.32 570.78,-284.43 558.1,-282.59"/>
<polygon fill="midnightblue" stroke="midnightblue" points="558.49,-279.11 548.09,-281.13 557.48,-286.03 558.49,-279.11"/>
</g>
<!-- Node25&#45;&gt;Node15 -->
<g id="edge52" class="edge">
<title>Node25&#45;&gt;Node15</title>
<path fill="none" stroke="midnightblue" d="M1008.26,-324.44C1018.34,-297.9 1037.05,-238.74 1025.5,-190 1017.17,-154.86 996.61,-118.28 982.11,-95.46"/>
<polygon fill="midnightblue" stroke="midnightblue" points="984.89,-93.32 976.51,-86.85 979.03,-97.14 984.89,-93.32"/>
</g>
<!-- Node25&#45;&gt;Node16 -->
<g id="edge50" class="edge">
<title>Node25&#45;&gt;Node16</title>
<path fill="none" stroke="midnightblue" d="M1050.11,-330.76C1131.53,-314.61 1294.99,-268.8 1359.5,-154 1380.84,-116.02 1375.92,-97.11 1361.5,-56 1357.71,-45.21 1350.13,-35.08 1342.9,-27.18"/>
<polygon fill="midnightblue" stroke="midnightblue" points="1345.17,-24.49 1335.66,-19.81 1340.17,-29.4 1345.17,-24.49"/>
</g>
<!-- Node26&#45;&gt;Node4 -->
<g id="edge57" class="edge">
<title>Node26&#45;&gt;Node4</title>
<path fill="none" stroke="midnightblue" d="M588.02,-329.73C598.86,-320.7 616.17,-306.27 630.54,-294.3"/>
<polygon fill="midnightblue" stroke="midnightblue" points="633.15,-296.68 638.59,-287.59 628.67,-291.3 633.15,-296.68"/>
</g>
<!-- Node26&#45;&gt;Node7 -->
<g id="edge58" class="edge">
<title>Node26&#45;&gt;Node7</title>
<path fill="none" stroke="midnightblue" d="M566.71,-329.73C555.48,-320.61 537.5,-306 522.69,-293.96"/>
<polygon fill="midnightblue" stroke="midnightblue" points="524.81,-291.18 514.84,-287.59 520.39,-296.61 524.81,-291.18"/>
</g>
<!-- Node26&#45;&gt;Node13 -->
<g id="edge56" class="edge">
<title>Node26&#45;&gt;Node13</title>
<path fill="none" stroke="midnightblue" d="M575.53,-329.77C569,-298.63 550.97,-191.22 595.5,-123 604.65,-108.99 619.06,-98.55 633.83,-90.92"/>
<polygon fill="midnightblue" stroke="midnightblue" points="635.52,-94 643.04,-86.53 632.5,-87.68 635.52,-94"/>
</g>
<!-- Node27&#45;&gt;Node6 -->
<g id="edge60" class="edge">
<title>Node27&#45;&gt;Node6</title>
<path fill="none" stroke="midnightblue" d="M1242.44,-123.25C1236.27,-104.46 1222.64,-71.89 1198.5,-56 1147.35,-22.32 964.44,-13.83 883.05,-11.7"/>
<polygon fill="midnightblue" stroke="midnightblue" points="882.8,-8.19 872.72,-11.45 882.63,-15.19 882.8,-8.19"/>
</g>
<!-- Node27&#45;&gt;Node24 -->
<g id="edge62" class="edge">
<title>Node27&#45;&gt;Node24</title>
<path fill="none" stroke="midnightblue" d="M1222.2,-123.4C1206.2,-114.11 1185.06,-101.84 1167.54,-91.67"/>
<polygon fill="midnightblue" stroke="midnightblue" points="1169.16,-88.57 1158.75,-86.58 1165.65,-94.62 1169.16,-88.57"/>
</g>
<!-- Node28 -->
<g id="node28" class="node">
<title>Node28</title>
<g id="a_node28"><a xlink:title=" ">
<polygon fill="none" stroke="#bfbfbf" points="1245.5,-62 1245.5,-81 1295.5,-81 1295.5,-62 1245.5,-62"/>
<text text-anchor="middle" x="1270.5" y="-69" font-family="Helvetica,sans-Serif" font-size="10.00">chrono</text>
</a>
</g>
</g>
<!-- Node27&#45;&gt;Node28 -->
<g id="edge61" class="edge">
<title>Node27&#45;&gt;Node28</title>
<path fill="none" stroke="midnightblue" d="M1251.71,-123.4C1255.23,-113.86 1259.91,-101.18 1263.72,-90.86"/>
<polygon fill="midnightblue" stroke="midnightblue" points="1267.11,-91.79 1267.29,-81.19 1260.54,-89.36 1267.11,-91.79"/>
</g>
</g>
</svg>
