<?xml version="1.0" encoding="UTF-8" standalone="no"?>
<!DOCTYPE svg PUBLIC "-//W3C//DTD SVG 1.1//EN"
 "http://www.w3.org/Graphics/SVG/1.1/DTD/svg11.dtd">
<!-- Generated by graphviz version 2.43.0 (0)
 -->
<!-- Title: /home/tomek/CLionProjects/proi/proi&#45;projekt/src/board&#45;lib/include/Board.h Pages: 1 -->
<svg width="366pt" height="173pt"
 viewBox="0.00 0.00 366.00 173.00" xmlns="http://www.w3.org/2000/svg" xmlns:xlink="http://www.w3.org/1999/xlink">
<g id="graph0" class="graph" transform="scale(1 1) rotate(0) translate(4 169)">
<title>/home/tomek/CLionProjects/proi/proi&#45;projekt/src/board&#45;lib/include/Board.h</title>
<!-- Node1 -->
<g id="node1" class="node">
<title>Node1</title>
<g id="a_node1"><a xlink:title=" ">
<polygon fill="#bfbfbf" stroke="black" points="57.5,-123.5 57.5,-164.5 208.5,-164.5 208.5,-123.5 57.5,-123.5"/>
<text text-anchor="start" x="65.5" y="-152.5" font-family="Helvetica,sans-Serif" font-size="10.00">/home/tomek/CLionProjects</text>
<text text-anchor="start" x="65.5" y="-141.5" font-family="Helvetica,sans-Serif" font-size="10.00">/proi/proi&#45;projekt/src</text>
<text text-anchor="middle" x="133" y="-130.5" font-family="Helvetica,sans-Serif" font-size="10.00">/board&#45;lib/include/Board.h</text>
</a>
</g>
</g>
<!-- Node2 -->
<g id="node2" class="node">
<title>Node2</title>
<g id="a_node2"><a xlink:title=" ">
<polygon fill="none" stroke="#bfbfbf" points="0,-62 0,-81 64,-81 64,-62 0,-62"/>
<text text-anchor="middle" x="32" y="-69" font-family="Helvetica,sans-Serif" font-size="10.00">execution</text>
</a>
</g>
</g>
<!-- Node1&#45;&gt;Node2 -->
<g id="edge1" class="edge">
<title>Node1&#45;&gt;Node2</title>
<path fill="none" stroke="midnightblue" d="M104.87,-123.36C88.43,-111.89 68.04,-97.65 53.01,-87.16"/>
<polygon fill="midnightblue" stroke="midnightblue" points="54.63,-84.03 44.43,-81.17 50.62,-89.77 54.63,-84.03"/>
</g>
<!-- Node3 -->
<g id="node3" class="node">
<title>Node3</title>
<g id="a_node3"><a xlink:title=" ">
<polygon fill="none" stroke="#bfbfbf" points="69,-0.5 69,-19.5 127,-19.5 127,-0.5 69,-0.5"/>
<text text-anchor="middle" x="98" y="-7.5" font-family="Helvetica,sans-Serif" font-size="10.00">memory</text>
</a>
</g>
</g>
<!-- Node1&#45;&gt;Node3 -->
<g id="edge2" class="edge">
<title>Node1&#45;&gt;Node3</title>
<path fill="none" stroke="midnightblue" d="M124.15,-123.38C119.66,-112.79 114.45,-99.38 111,-87 105.67,-67.89 102.16,-45.43 100.14,-29.91"/>
<polygon fill="midnightblue" stroke="midnightblue" points="103.56,-29.07 98.88,-19.56 96.61,-29.91 103.56,-29.07"/>
</g>
<!-- Node4 -->
<g id="node4" class="node">
<title>Node4</title>
<g id="a_node4"><a xlink:href="$_event_queue_8h.html" xlink:title=" ">
<polygon fill="none" stroke="black" points="120,-56.5 120,-86.5 230,-86.5 230,-56.5 120,-56.5"/>
<text text-anchor="start" x="128" y="-74.5" font-family="Helvetica,sans-Serif" font-size="10.00">../../core&#45;lib/include</text>
<text text-anchor="middle" x="175" y="-63.5" font-family="Helvetica,sans-Serif" font-size="10.00">/EventQueue.h</text>
</a>
</g>
</g>
<!-- Node1&#45;&gt;Node4 -->
<g id="edge3" class="edge">
<title>Node1&#45;&gt;Node4</title>
<path fill="none" stroke="midnightblue" d="M144.7,-123.36C149.82,-114.77 155.85,-104.64 161.19,-95.68"/>
<polygon fill="midnightblue" stroke="midnightblue" points="164.32,-97.27 166.43,-86.89 158.3,-93.69 164.32,-97.27"/>
</g>
<!-- Node6 -->
<g id="node6" class="node">
<title>Node6</title>
<g id="a_node6"><a xlink:href="$_tank_8h.html" xlink:title=" ">
<polygon fill="none" stroke="black" points="248,-56.5 248,-86.5 358,-86.5 358,-56.5 248,-56.5"/>
<text text-anchor="start" x="256" y="-74.5" font-family="Helvetica,sans-Serif" font-size="10.00">../../tank&#45;lib/include</text>
<text text-anchor="middle" x="303" y="-63.5" font-family="Helvetica,sans-Serif" font-size="10.00">/Tank.h</text>
</a>
</g>
</g>
<!-- Node1&#45;&gt;Node6 -->
<g id="edge6" class="edge">
<title>Node1&#45;&gt;Node6</title>
<path fill="none" stroke="midnightblue" d="M180.35,-123.36C205.25,-113.04 235.54,-100.48 259.79,-90.42"/>
<polygon fill="midnightblue" stroke="midnightblue" points="261.2,-93.62 269.1,-86.56 258.52,-87.16 261.2,-93.62"/>
</g>
<!-- Node4&#45;&gt;Node3 -->
<g id="edge5" class="edge">
<title>Node4&#45;&gt;Node3</title>
<path fill="none" stroke="midnightblue" d="M156.75,-56.4C144.87,-47.22 129.39,-35.26 117.31,-25.92"/>
<polygon fill="midnightblue" stroke="midnightblue" points="119.26,-23 109.2,-19.66 114.98,-28.54 119.26,-23"/>
</g>
<!-- Node5 -->
<g id="node5" class="node">
<title>Node5</title>
<g id="a_node5"><a xlink:title=" ">
<polygon fill="none" stroke="#bfbfbf" points="151.5,-0.5 151.5,-19.5 198.5,-19.5 198.5,-0.5 151.5,-0.5"/>
<text text-anchor="middle" x="175" y="-7.5" font-family="Helvetica,sans-Serif" font-size="10.00">queue</text>
</a>
</g>
</g>
<!-- Node4&#45;&gt;Node5 -->
<g id="edge4" class="edge">
<title>Node4&#45;&gt;Node5</title>
<path fill="none" stroke="midnightblue" d="M175,-56.4C175,-48.47 175,-38.46 175,-29.86"/>
<polygon fill="midnightblue" stroke="midnightblue" points="178.5,-29.66 175,-19.66 171.5,-29.66 178.5,-29.66"/>
</g>
</g>
</svg>
