<?xml version="1.0" encoding="UTF-8" standalone="no"?>
<!DOCTYPE svg PUBLIC "-//W3C//DTD SVG 1.1//EN"
 "http://www.w3.org/Graphics/SVG/1.1/DTD/svg11.dtd">
<!-- Generated by graphviz version 2.50.0 (0)
 -->
<!-- Title: /home/tomek/trash/battle&#45;city/src/lib/board&#45;lib/include/Board.h Pages: 1 -->
<svg width="950pt" height="206pt"
 viewBox="0.00 0.00 950.00 206.00" xmlns="http://www.w3.org/2000/svg" xmlns:xlink="http://www.w3.org/1999/xlink">
<g id="graph0" class="graph" transform="scale(1 1) rotate(0) translate(4 202)">
<title>/home/tomek/trash/battle&#45;city/src/lib/board&#45;lib/include/Board.h</title>
<!-- Node1 -->
<g id="node1" class="node">
<title>Node1</title>
<g id="a_node1"><a xlink:title=" ">
<polygon fill="#bfbfbf" stroke="black" points="112,-156.5 112,-197.5 253,-197.5 253,-156.5 112,-156.5"/>
<text text-anchor="start" x="120" y="-185.5" font-family="Helvetica,sans-Serif" font-size="10.00">/home/tomek/trash/battle</text>
<text text-anchor="start" x="120" y="-174.5" font-family="Helvetica,sans-Serif" font-size="10.00">&#45;city/src/lib/board&#45;lib</text>
<text text-anchor="middle" x="182.5" y="-163.5" font-family="Helvetica,sans-Serif" font-size="10.00">/include/Board.h</text>
</a>
</g>
</g>
<!-- Node2 -->
<g id="node2" class="node">
<title>Node2</title>
<g id="a_node2"><a xlink:href="$_board_8cpp.html" xlink:title=" ">
<polygon fill="none" stroke="black" points="13,-78.5 13,-119.5 154,-119.5 154,-78.5 13,-78.5"/>
<text text-anchor="start" x="21" y="-107.5" font-family="Helvetica,sans-Serif" font-size="10.00">/home/tomek/trash/battle</text>
<text text-anchor="start" x="21" y="-96.5" font-family="Helvetica,sans-Serif" font-size="10.00">&#45;city/src/lib/board&#45;lib</text>
<text text-anchor="middle" x="83.5" y="-85.5" font-family="Helvetica,sans-Serif" font-size="10.00">/Board.cpp</text>
</a>
</g>
</g>
<!-- Node1&#45;&gt;Node2 -->
<g id="edge1" class="edge">
<title>Node1&#45;&gt;Node2</title>
<path fill="none" stroke="midnightblue" d="M148.72,-150.06C135.68,-140.06 121.02,-128.8 108.91,-119.51"/>
<polygon fill="midnightblue" stroke="midnightblue" points="146.94,-153.11 157.01,-156.43 151.2,-147.56 146.94,-153.11"/>
</g>
<!-- Node3 -->
<g id="node3" class="node">
<title>Node3</title>
<g id="a_node3"><a xlink:href="$_active_event_handler_8cpp.html" xlink:title=" ">
<polygon fill="none" stroke="black" points="0,-0.5 0,-41.5 141,-41.5 141,-0.5 0,-0.5"/>
<text text-anchor="start" x="8" y="-29.5" font-family="Helvetica,sans-Serif" font-size="10.00">/home/tomek/trash/battle</text>
<text text-anchor="start" x="8" y="-18.5" font-family="Helvetica,sans-Serif" font-size="10.00">&#45;city/src/lib/game&#45;lib</text>
<text text-anchor="middle" x="70.5" y="-7.5" font-family="Helvetica,sans-Serif" font-size="10.00">/ActiveEventHandler.cpp</text>
</a>
</g>
</g>
<!-- Node1&#45;&gt;Node3 -->
<g id="edge2" class="edge">
<title>Node1&#45;&gt;Node3</title>
<path fill="none" stroke="midnightblue" d="M182.5,-145.97C181.13,-125.2 176.45,-97.84 162.5,-78 151.64,-62.55 135.03,-50.57 118.9,-41.74"/>
<polygon fill="midnightblue" stroke="midnightblue" points="179.01,-146.32 182.95,-156.15 186.01,-146.01 179.01,-146.32"/>
</g>
<!-- Node4 -->
<g id="node4" class="node">
<title>Node4</title>
<g id="a_node4"><a xlink:href="$_game_8h.html" xlink:title=" ">
<polygon fill="none" stroke="black" points="324,-78.5 324,-119.5 465,-119.5 465,-78.5 324,-78.5"/>
<text text-anchor="start" x="332" y="-107.5" font-family="Helvetica,sans-Serif" font-size="10.00">/home/tomek/trash/battle</text>
<text text-anchor="start" x="332" y="-96.5" font-family="Helvetica,sans-Serif" font-size="10.00">&#45;city/src/lib/game&#45;lib</text>
<text text-anchor="middle" x="394.5" y="-85.5" font-family="Helvetica,sans-Serif" font-size="10.00">/include/Game.h</text>
</a>
</g>
</g>
<!-- Node1&#45;&gt;Node4 -->
<g id="edge3" class="edge">
<title>Node1&#45;&gt;Node4</title>
<path fill="none" stroke="midnightblue" d="M246.58,-153.03C276.43,-142.33 311.56,-129.73 340.09,-119.51"/>
<polygon fill="midnightblue" stroke="midnightblue" points="245.33,-149.76 237.1,-156.43 247.69,-156.35 245.33,-149.76"/>
</g>
<!-- Node4&#45;&gt;Node3 -->
<g id="edge4" class="edge">
<title>Node4&#45;&gt;Node3</title>
<path fill="none" stroke="midnightblue" d="M314,-79.94C266.4,-69.15 204.95,-55.05 150.5,-42 147.44,-41.27 144.31,-40.51 141.15,-39.74"/>
<polygon fill="midnightblue" stroke="midnightblue" points="313.42,-83.39 323.94,-82.19 314.96,-76.57 313.42,-83.39"/>
</g>
<!-- Node5 -->
<g id="node5" class="node">
<title>Node5</title>
<g id="a_node5"><a xlink:href="$_finished_event_handler_8cpp.html" xlink:title=" ">
<polygon fill="none" stroke="black" points="159.5,-0.5 159.5,-41.5 305.5,-41.5 305.5,-0.5 159.5,-0.5"/>
<text text-anchor="start" x="167.5" y="-29.5" font-family="Helvetica,sans-Serif" font-size="10.00">/home/tomek/trash/battle</text>
<text text-anchor="start" x="167.5" y="-18.5" font-family="Helvetica,sans-Serif" font-size="10.00">&#45;city/src/lib/game&#45;lib</text>
<text text-anchor="middle" x="232.5" y="-7.5" font-family="Helvetica,sans-Serif" font-size="10.00">/FinishedEventHandler.cpp</text>
</a>
</g>
</g>
<!-- Node4&#45;&gt;Node5 -->
<g id="edge5" class="edge">
<title>Node4&#45;&gt;Node5</title>
<path fill="none" stroke="midnightblue" d="M343.45,-74.05C321.1,-63.57 295.22,-51.42 274.08,-41.51"/>
<polygon fill="midnightblue" stroke="midnightblue" points="342.24,-77.35 352.78,-78.43 345.21,-71.01 342.24,-77.35"/>
</g>
<!-- Node6 -->
<g id="node6" class="node">
<title>Node6</title>
<g id="a_node6"><a xlink:href="$_game_8cpp.html" xlink:title=" ">
<polygon fill="none" stroke="black" points="324,-0.5 324,-41.5 465,-41.5 465,-0.5 324,-0.5"/>
<text text-anchor="start" x="332" y="-29.5" font-family="Helvetica,sans-Serif" font-size="10.00">/home/tomek/trash/battle</text>
<text text-anchor="start" x="332" y="-18.5" font-family="Helvetica,sans-Serif" font-size="10.00">&#45;city/src/lib/game&#45;lib</text>
<text text-anchor="middle" x="394.5" y="-7.5" font-family="Helvetica,sans-Serif" font-size="10.00">/Game.cpp</text>
</a>
</g>
</g>
<!-- Node4&#45;&gt;Node6 -->
<g id="edge6" class="edge">
<title>Node4&#45;&gt;Node6</title>
<path fill="none" stroke="midnightblue" d="M394.5,-68.3C394.5,-59.3 394.5,-49.65 394.5,-41.51"/>
<polygon fill="midnightblue" stroke="midnightblue" points="391,-68.43 394.5,-78.43 398,-68.43 391,-68.43"/>
</g>
<!-- Node7 -->
<g id="node7" class="node">
<title>Node7</title>
<g id="a_node7"><a xlink:href="$_menu_event_handler_8cpp.html" xlink:title=" ">
<polygon fill="none" stroke="black" points="483,-0.5 483,-41.5 624,-41.5 624,-0.5 483,-0.5"/>
<text text-anchor="start" x="491" y="-29.5" font-family="Helvetica,sans-Serif" font-size="10.00">/home/tomek/trash/battle</text>
<text text-anchor="start" x="491" y="-18.5" font-family="Helvetica,sans-Serif" font-size="10.00">&#45;city/src/lib/game&#45;lib</text>
<text text-anchor="middle" x="553.5" y="-7.5" font-family="Helvetica,sans-Serif" font-size="10.00">/MenuEventHandler.cpp</text>
</a>
</g>
</g>
<!-- Node4&#45;&gt;Node7 -->
<g id="edge7" class="edge">
<title>Node4&#45;&gt;Node7</title>
<path fill="none" stroke="midnightblue" d="M444.61,-74.05C466.54,-63.57 491.94,-51.42 512.69,-41.51"/>
<polygon fill="midnightblue" stroke="midnightblue" points="442.96,-70.96 435.45,-78.43 445.98,-77.27 442.96,-70.96"/>
</g>
<!-- Node8 -->
<g id="node8" class="node">
<title>Node8</title>
<g id="a_node8"><a xlink:href="$_pause_event_handler_8cpp.html" xlink:title=" ">
<polygon fill="none" stroke="black" points="642,-0.5 642,-41.5 783,-41.5 783,-0.5 642,-0.5"/>
<text text-anchor="start" x="650" y="-29.5" font-family="Helvetica,sans-Serif" font-size="10.00">/home/tomek/trash/battle</text>
<text text-anchor="start" x="650" y="-18.5" font-family="Helvetica,sans-Serif" font-size="10.00">&#45;city/src/lib/game&#45;lib</text>
<text text-anchor="middle" x="712.5" y="-7.5" font-family="Helvetica,sans-Serif" font-size="10.00">/PauseEventHandler.cpp</text>
</a>
</g>
</g>
<!-- Node4&#45;&gt;Node8 -->
<g id="edge8" class="edge">
<title>Node4&#45;&gt;Node8</title>
<path fill="none" stroke="midnightblue" d="M475.16,-79.48C521.53,-68.73 580.85,-54.83 633.5,-42 636.25,-41.33 639.05,-40.64 641.88,-39.94"/>
<polygon fill="midnightblue" stroke="midnightblue" points="474.12,-76.12 465.17,-81.79 475.7,-82.94 474.12,-76.12"/>
</g>
<!-- Node9 -->
<g id="node9" class="node">
<title>Node9</title>
<g id="a_node9"><a xlink:href="$tanks_8cpp.html" xlink:title=" ">
<polygon fill="none" stroke="black" points="801,-6 801,-36 942,-36 942,-6 801,-6"/>
<text text-anchor="start" x="809" y="-24" font-family="Helvetica,sans-Serif" font-size="10.00">/home/tomek/trash/battle</text>
<text text-anchor="middle" x="871.5" y="-13" font-family="Helvetica,sans-Serif" font-size="10.00">&#45;city/src/tanks.cpp</text>
</a>
</g>
</g>
<!-- Node4&#45;&gt;Node9 -->
<g id="edge9" class="edge">
<title>Node4&#45;&gt;Node9</title>
<path fill="none" stroke="midnightblue" d="M475.44,-89.21C556.16,-79.84 683.5,-63.4 792.5,-42 801.25,-40.28 810.47,-38.2 819.41,-36.03"/>
<polygon fill="midnightblue" stroke="midnightblue" points="474.88,-85.75 465.34,-90.38 475.68,-92.71 474.88,-85.75"/>
</g>
</g>
</svg>
