<?xml version="1.0" encoding="UTF-8" standalone="no"?>
<!DOCTYPE svg PUBLIC "-//W3C//DTD SVG 1.1//EN"
 "http://www.w3.org/Graphics/SVG/1.1/DTD/svg11.dtd">
<!-- Generated by graphviz version 2.43.0 (0)
 -->
<!-- Title: /home/tomek/CLionProjects/proi/proi&#45;projekt/src/board&#45;lib/Board.cpp Pages: 1 -->
<svg width="783pt" height="240pt"
 viewBox="0.00 0.00 782.50 240.00" xmlns="http://www.w3.org/2000/svg" xmlns:xlink="http://www.w3.org/1999/xlink">
<g id="graph0" class="graph" transform="scale(1 1) rotate(0) translate(4 236)">
<title>/home/tomek/CLionProjects/proi/proi&#45;projekt/src/board&#45;lib/Board.cpp</title>
<!-- Node1 -->
<g id="node1" class="node">
<title>Node1</title>
<g id="a_node1"><a xlink:title=" ">
<polygon fill="#bfbfbf" stroke="black" points="182,-190.5 182,-231.5 333,-231.5 333,-190.5 182,-190.5"/>
<text text-anchor="start" x="190" y="-219.5" font-family="Helvetica,sans-Serif" font-size="10.00">/home/tomek/CLionProjects</text>
<text text-anchor="start" x="190" y="-208.5" font-family="Helvetica,sans-Serif" font-size="10.00">/proi/proi&#45;projekt/src</text>
<text text-anchor="middle" x="257.5" y="-197.5" font-family="Helvetica,sans-Serif" font-size="10.00">/board&#45;lib/Board.cpp</text>
</a>
</g>
</g>
<!-- Node2 -->
<g id="node2" class="node">
<title>Node2</title>
<g id="a_node2"><a xlink:title=" ">
<polygon fill="none" stroke="#bfbfbf" points="0,-129 0,-148 47,-148 47,-129 0,-129"/>
<text text-anchor="middle" x="23.5" y="-136" font-family="Helvetica,sans-Serif" font-size="10.00">cmath</text>
</a>
</g>
</g>
<!-- Node1&#45;&gt;Node2 -->
<g id="edge1" class="edge">
<title>Node1&#45;&gt;Node2</title>
<path fill="none" stroke="midnightblue" d="M181.78,-191.63C143.77,-181.72 97.27,-168.55 56.5,-154 54.84,-153.41 53.14,-152.77 51.44,-152.1"/>
<polygon fill="midnightblue" stroke="midnightblue" points="52.39,-148.71 41.81,-148.1 49.7,-155.17 52.39,-148.71"/>
</g>
<!-- Node3 -->
<g id="node3" class="node">
<title>Node3</title>
<g id="a_node3"><a xlink:href="$_event_queue_8h.html" xlink:title=" ">
<polygon fill="none" stroke="black" points="247,-56.5 247,-86.5 348,-86.5 348,-56.5 247,-56.5"/>
<text text-anchor="start" x="255" y="-74.5" font-family="Helvetica,sans-Serif" font-size="10.00">../core&#45;lib/include</text>
<text text-anchor="middle" x="297.5" y="-63.5" font-family="Helvetica,sans-Serif" font-size="10.00">/EventQueue.h</text>
</a>
</g>
</g>
<!-- Node1&#45;&gt;Node3 -->
<g id="edge2" class="edge">
<title>Node1&#45;&gt;Node3</title>
<path fill="none" stroke="midnightblue" d="M265.03,-190.47C269.01,-179.78 273.82,-166.26 277.5,-154 283.24,-134.89 288.57,-112.89 292.27,-96.57"/>
<polygon fill="midnightblue" stroke="midnightblue" points="295.7,-97.28 294.47,-86.75 288.87,-95.75 295.7,-97.28"/>
</g>
<!-- Node6 -->
<g id="node6" class="node">
<title>Node6</title>
<g id="a_node6"><a xlink:href="$_event_8h.html" xlink:title=" ">
<polygon fill="none" stroke="black" points="168,-123.5 168,-153.5 269,-153.5 269,-123.5 168,-123.5"/>
<text text-anchor="start" x="176" y="-141.5" font-family="Helvetica,sans-Serif" font-size="10.00">../core&#45;lib/include</text>
<text text-anchor="middle" x="218.5" y="-130.5" font-family="Helvetica,sans-Serif" font-size="10.00">/Event.h</text>
</a>
</g>
</g>
<!-- Node1&#45;&gt;Node6 -->
<g id="edge5" class="edge">
<title>Node1&#45;&gt;Node6</title>
<path fill="none" stroke="midnightblue" d="M246.64,-190.36C241.89,-181.77 236.28,-171.64 231.32,-162.68"/>
<polygon fill="midnightblue" stroke="midnightblue" points="234.36,-160.95 226.46,-153.89 228.24,-164.34 234.36,-160.95"/>
</g>
<!-- Node9 -->
<g id="node9" class="node">
<title>Node9</title>
<g id="a_node9"><a xlink:href="$_board_8h.html" xlink:title=" ">
<polygon fill="none" stroke="black" points="330.5,-129 330.5,-148 422.5,-148 422.5,-129 330.5,-129"/>
<text text-anchor="middle" x="376.5" y="-136" font-family="Helvetica,sans-Serif" font-size="10.00">include/Board.h</text>
</a>
</g>
</g>
<!-- Node1&#45;&gt;Node9 -->
<g id="edge9" class="edge">
<title>Node1&#45;&gt;Node9</title>
<path fill="none" stroke="midnightblue" d="M290.65,-190.36C310.56,-178.57 335.41,-163.85 353.24,-153.28"/>
<polygon fill="midnightblue" stroke="midnightblue" points="355.04,-156.28 361.86,-148.17 351.47,-150.26 355.04,-156.28"/>
</g>
<!-- Node12 -->
<g id="node12" class="node">
<title>Node12</title>
<g id="a_node12"><a xlink:href="$_grid_8h.html" xlink:title=" ">
<polygon fill="none" stroke="black" points="65.5,-129 65.5,-148 149.5,-148 149.5,-129 65.5,-129"/>
<text text-anchor="middle" x="107.5" y="-136" font-family="Helvetica,sans-Serif" font-size="10.00">include/Grid.h</text>
</a>
</g>
</g>
<!-- Node1&#45;&gt;Node12 -->
<g id="edge14" class="edge">
<title>Node1&#45;&gt;Node12</title>
<path fill="none" stroke="midnightblue" d="M215.72,-190.36C190.04,-178.29 157.86,-163.17 135.29,-152.56"/>
<polygon fill="midnightblue" stroke="midnightblue" points="136.49,-149.26 125.95,-148.17 133.52,-155.59 136.49,-149.26"/>
</g>
<!-- Node13 -->
<g id="node13" class="node">
<title>Node13</title>
<g id="a_node13"><a xlink:href="$_tank_controller_8h.html" xlink:title=" ">
<polygon fill="none" stroke="black" points="574,-123.5 574,-153.5 675,-153.5 675,-123.5 574,-123.5"/>
<text text-anchor="start" x="582" y="-141.5" font-family="Helvetica,sans-Serif" font-size="10.00">../tank&#45;lib/include</text>
<text text-anchor="middle" x="624.5" y="-130.5" font-family="Helvetica,sans-Serif" font-size="10.00">/TankController.h</text>
</a>
</g>
</g>
<!-- Node1&#45;&gt;Node13 -->
<g id="edge16" class="edge">
<title>Node1&#45;&gt;Node13</title>
<path fill="none" stroke="midnightblue" d="M333.1,-195.48C401.42,-182.35 500.68,-163.29 563.91,-151.14"/>
<polygon fill="midnightblue" stroke="midnightblue" points="564.58,-154.58 573.74,-149.25 563.26,-147.7 564.58,-154.58"/>
</g>
<!-- Node4 -->
<g id="node4" class="node">
<title>Node4</title>
<g id="a_node4"><a xlink:title=" ">
<polygon fill="none" stroke="#bfbfbf" points="274,-0.5 274,-19.5 321,-19.5 321,-0.5 274,-0.5"/>
<text text-anchor="middle" x="297.5" y="-7.5" font-family="Helvetica,sans-Serif" font-size="10.00">queue</text>
</a>
</g>
</g>
<!-- Node3&#45;&gt;Node4 -->
<g id="edge3" class="edge">
<title>Node3&#45;&gt;Node4</title>
<path fill="none" stroke="midnightblue" d="M297.5,-56.4C297.5,-48.47 297.5,-38.46 297.5,-29.86"/>
<polygon fill="midnightblue" stroke="midnightblue" points="301,-29.66 297.5,-19.66 294,-29.66 301,-29.66"/>
</g>
<!-- Node5 -->
<g id="node5" class="node">
<title>Node5</title>
<g id="a_node5"><a xlink:title=" ">
<polygon fill="none" stroke="#bfbfbf" points="343.5,-0.5 343.5,-19.5 401.5,-19.5 401.5,-0.5 343.5,-0.5"/>
<text text-anchor="middle" x="372.5" y="-7.5" font-family="Helvetica,sans-Serif" font-size="10.00">memory</text>
</a>
</g>
</g>
<!-- Node3&#45;&gt;Node5 -->
<g id="edge4" class="edge">
<title>Node3&#45;&gt;Node5</title>
<path fill="none" stroke="midnightblue" d="M315.27,-56.4C326.85,-47.22 341.92,-35.26 353.7,-25.92"/>
<polygon fill="midnightblue" stroke="midnightblue" points="355.93,-28.61 361.59,-19.66 351.58,-23.13 355.93,-28.61"/>
</g>
<!-- Node6&#45;&gt;Node5 -->
<g id="edge8" class="edge">
<title>Node6&#45;&gt;Node5</title>
<path fill="none" stroke="midnightblue" d="M217.86,-123.21C217.84,-105.27 220.57,-74.58 237.5,-56 250.56,-41.67 298.38,-27.99 333.41,-19.55"/>
<polygon fill="midnightblue" stroke="midnightblue" points="334.43,-22.91 343.36,-17.21 332.83,-16.09 334.43,-22.91"/>
</g>
<!-- Node7 -->
<g id="node7" class="node">
<title>Node7</title>
<g id="a_node7"><a xlink:title=" ">
<polygon fill="none" stroke="#bfbfbf" points="63,-62 63,-81 128,-81 128,-62 63,-62"/>
<text text-anchor="middle" x="95.5" y="-69" font-family="Helvetica,sans-Serif" font-size="10.00">exception</text>
</a>
</g>
</g>
<!-- Node6&#45;&gt;Node7 -->
<g id="edge6" class="edge">
<title>Node6&#45;&gt;Node7</title>
<path fill="none" stroke="midnightblue" d="M191.81,-123.4C170.61,-112.19 141.18,-96.64 120.45,-85.69"/>
<polygon fill="midnightblue" stroke="midnightblue" points="122.07,-82.58 111.6,-81.01 118.8,-88.77 122.07,-82.58"/>
</g>
<!-- Node8 -->
<g id="node8" class="node">
<title>Node8</title>
<g id="a_node8"><a xlink:title=" ">
<polygon fill="none" stroke="#bfbfbf" points="146.5,-62 146.5,-81 190.5,-81 190.5,-62 146.5,-62"/>
<text text-anchor="middle" x="168.5" y="-69" font-family="Helvetica,sans-Serif" font-size="10.00">string</text>
</a>
</g>
</g>
<!-- Node6&#45;&gt;Node8 -->
<g id="edge7" class="edge">
<title>Node6&#45;&gt;Node8</title>
<path fill="none" stroke="midnightblue" d="M207.65,-123.4C199.93,-113.36 189.53,-99.84 181.39,-89.25"/>
<polygon fill="midnightblue" stroke="midnightblue" points="184.06,-86.99 175.19,-81.19 178.51,-91.25 184.06,-86.99"/>
</g>
<!-- Node9&#45;&gt;Node3 -->
<g id="edge12" class="edge">
<title>Node9&#45;&gt;Node3</title>
<path fill="none" stroke="midnightblue" d="M365.85,-128.73C354.76,-119.61 337,-105 322.37,-92.96"/>
<polygon fill="midnightblue" stroke="midnightblue" points="324.57,-90.24 314.62,-86.59 320.12,-95.65 324.57,-90.24"/>
</g>
<!-- Node9&#45;&gt;Node5 -->
<g id="edge11" class="edge">
<title>Node9&#45;&gt;Node5</title>
<path fill="none" stroke="midnightblue" d="M376.23,-128.81C375.58,-108.49 373.97,-57.55 373.09,-29.78"/>
<polygon fill="midnightblue" stroke="midnightblue" points="376.59,-29.64 372.78,-19.76 369.59,-29.86 376.59,-29.64"/>
</g>
<!-- Node10 -->
<g id="node10" class="node">
<title>Node10</title>
<g id="a_node10"><a xlink:title=" ">
<polygon fill="none" stroke="#bfbfbf" points="404.5,-62 404.5,-81 468.5,-81 468.5,-62 404.5,-62"/>
<text text-anchor="middle" x="436.5" y="-69" font-family="Helvetica,sans-Serif" font-size="10.00">execution</text>
</a>
</g>
</g>
<!-- Node9&#45;&gt;Node10 -->
<g id="edge10" class="edge">
<title>Node9&#45;&gt;Node10</title>
<path fill="none" stroke="midnightblue" d="M384.59,-128.73C394.04,-118.5 409.86,-101.36 421.55,-88.69"/>
<polygon fill="midnightblue" stroke="midnightblue" points="424.33,-90.85 428.54,-81.13 419.18,-86.1 424.33,-90.85"/>
</g>
<!-- Node11 -->
<g id="node11" class="node">
<title>Node11</title>
<g id="a_node11"><a xlink:href="$_tank_8h.html" xlink:title=" ">
<polygon fill="none" stroke="black" points="486.5,-56.5 486.5,-86.5 596.5,-86.5 596.5,-56.5 486.5,-56.5"/>
<text text-anchor="start" x="494.5" y="-74.5" font-family="Helvetica,sans-Serif" font-size="10.00">../../tank&#45;lib/include</text>
<text text-anchor="middle" x="541.5" y="-63.5" font-family="Helvetica,sans-Serif" font-size="10.00">/Tank.h</text>
</a>
</g>
</g>
<!-- Node9&#45;&gt;Node11 -->
<g id="edge13" class="edge">
<title>Node9&#45;&gt;Node11</title>
<path fill="none" stroke="midnightblue" d="M398.41,-128.87C423.28,-119.07 464.51,-102.83 496.34,-90.29"/>
<polygon fill="midnightblue" stroke="midnightblue" points="497.87,-93.45 505.89,-86.53 495.3,-86.94 497.87,-93.45"/>
</g>
<!-- Node12&#45;&gt;Node7 -->
<g id="edge15" class="edge">
<title>Node12&#45;&gt;Node7</title>
<path fill="none" stroke="midnightblue" d="M105.88,-128.73C104.12,-119.18 101.24,-103.62 98.97,-91.28"/>
<polygon fill="midnightblue" stroke="midnightblue" points="102.35,-90.33 97.09,-81.13 95.47,-91.6 102.35,-90.33"/>
</g>
<!-- Node13&#45;&gt;Node5 -->
<g id="edge18" class="edge">
<title>Node13&#45;&gt;Node5</title>
<path fill="none" stroke="midnightblue" d="M625.5,-123.48C625.97,-105.24 623.82,-73.63 605.5,-56 578.34,-29.86 470.93,-18.09 411.9,-13.51"/>
<polygon fill="midnightblue" stroke="midnightblue" points="412.05,-10.01 401.81,-12.76 411.53,-17 412.05,-10.01"/>
</g>
<!-- Node13&#45;&gt;Node11 -->
<g id="edge20" class="edge">
<title>Node13&#45;&gt;Node11</title>
<path fill="none" stroke="midnightblue" d="M606.49,-123.4C595.07,-114.45 580.11,-102.74 567.42,-92.8"/>
<polygon fill="midnightblue" stroke="midnightblue" points="569.51,-89.99 559.47,-86.58 565.19,-95.5 569.51,-89.99"/>
</g>
<!-- Node14 -->
<g id="node14" class="node">
<title>Node14</title>
<g id="a_node14"><a xlink:title=" ">
<polygon fill="none" stroke="#bfbfbf" points="653,-62 653,-81 700,-81 700,-62 653,-62"/>
<text text-anchor="middle" x="676.5" y="-69" font-family="Helvetica,sans-Serif" font-size="10.00">vector</text>
</a>
</g>
</g>
<!-- Node13&#45;&gt;Node14 -->
<g id="edge17" class="edge">
<title>Node13&#45;&gt;Node14</title>
<path fill="none" stroke="midnightblue" d="M635.78,-123.4C643.81,-113.36 654.63,-99.84 663.1,-89.25"/>
<polygon fill="midnightblue" stroke="midnightblue" points="666.03,-91.19 669.54,-81.19 660.56,-86.82 666.03,-91.19"/>
</g>
<!-- Node15 -->
<g id="node15" class="node">
<title>Node15</title>
<g id="a_node15"><a xlink:title=" ">
<polygon fill="none" stroke="#bfbfbf" points="718.5,-62 718.5,-81 774.5,-81 774.5,-62 718.5,-62"/>
<text text-anchor="middle" x="746.5" y="-69" font-family="Helvetica,sans-Serif" font-size="10.00">optional</text>
</a>
</g>
</g>
<!-- Node13&#45;&gt;Node15 -->
<g id="edge19" class="edge">
<title>Node13&#45;&gt;Node15</title>
<path fill="none" stroke="midnightblue" d="M650.97,-123.4C671.9,-112.24 700.93,-96.78 721.47,-85.83"/>
<polygon fill="midnightblue" stroke="midnightblue" points="723.35,-88.8 730.53,-81.01 720.06,-82.62 723.35,-88.8"/>
</g>
</g>
</svg>
