<?xml version="1.0" encoding="UTF-8" standalone="no"?>
<!DOCTYPE svg PUBLIC "-//W3C//DTD SVG 1.1//EN"
 "http://www.w3.org/Graphics/SVG/1.1/DTD/svg11.dtd">
<!-- Generated by graphviz version 2.43.0 (0)
 -->
<!-- Title: /home/tomek/CLionProjects/proi/proi&#45;projekt/src/tank&#45;lib/include/Bullet.h Pages: 1 -->
<svg width="672pt" height="128pt"
 viewBox="0.00 0.00 672.00 128.00" xmlns="http://www.w3.org/2000/svg" xmlns:xlink="http://www.w3.org/1999/xlink">
<g id="graph0" class="graph" transform="scale(1 1) rotate(0) translate(4 124)">
<title>/home/tomek/CLionProjects/proi/proi&#45;projekt/src/tank&#45;lib/include/Bullet.h</title>
<!-- Node1 -->
<g id="node1" class="node">
<title>Node1</title>
<g id="a_node1"><a xlink:title=" ">
<polygon fill="#bfbfbf" stroke="black" points="255,-78.5 255,-119.5 406,-119.5 406,-78.5 255,-78.5"/>
<text text-anchor="start" x="263" y="-107.5" font-family="Helvetica,sans-Serif" font-size="10.00">/home/tomek/CLionProjects</text>
<text text-anchor="start" x="263" y="-96.5" font-family="Helvetica,sans-Serif" font-size="10.00">/proi/proi&#45;projekt/src</text>
<text text-anchor="middle" x="330.5" y="-85.5" font-family="Helvetica,sans-Serif" font-size="10.00">/tank&#45;lib/include/Bullet.h</text>
</a>
</g>
</g>
<!-- Node2 -->
<g id="node2" class="node">
<title>Node2</title>
<g id="a_node2"><a xlink:href="$_board_8cpp.html" xlink:title=" ">
<polygon fill="none" stroke="black" points="0,-0.5 0,-41.5 151,-41.5 151,-0.5 0,-0.5"/>
<text text-anchor="start" x="8" y="-29.5" font-family="Helvetica,sans-Serif" font-size="10.00">/home/tomek/CLionProjects</text>
<text text-anchor="start" x="8" y="-18.5" font-family="Helvetica,sans-Serif" font-size="10.00">/proi/proi&#45;projekt/src</text>
<text text-anchor="middle" x="75.5" y="-7.5" font-family="Helvetica,sans-Serif" font-size="10.00">/board&#45;lib/Board.cpp</text>
</a>
</g>
</g>
<!-- Node1&#45;&gt;Node2 -->
<g id="edge1" class="edge">
<title>Node1&#45;&gt;Node2</title>
<path fill="none" stroke="midnightblue" d="M254.81,-75.44C218.62,-64.66 175.71,-51.87 140.95,-41.51"/>
<polygon fill="midnightblue" stroke="midnightblue" points="254.25,-78.93 264.83,-78.43 256.25,-72.22 254.25,-78.93"/>
</g>
<!-- Node3 -->
<g id="node3" class="node">
<title>Node3</title>
<g id="a_node3"><a xlink:href="$_bullet_8cpp.html" xlink:title=" ">
<polygon fill="none" stroke="black" points="169,-0.5 169,-41.5 320,-41.5 320,-0.5 169,-0.5"/>
<text text-anchor="start" x="177" y="-29.5" font-family="Helvetica,sans-Serif" font-size="10.00">/home/tomek/CLionProjects</text>
<text text-anchor="start" x="177" y="-18.5" font-family="Helvetica,sans-Serif" font-size="10.00">/proi/proi&#45;projekt/src</text>
<text text-anchor="middle" x="244.5" y="-7.5" font-family="Helvetica,sans-Serif" font-size="10.00">/tank&#45;lib/Bullet.cpp</text>
</a>
</g>
</g>
<!-- Node1&#45;&gt;Node3 -->
<g id="edge2" class="edge">
<title>Node1&#45;&gt;Node3</title>
<path fill="none" stroke="midnightblue" d="M300.83,-71.78C289.59,-61.84 276.99,-50.72 266.57,-41.51"/>
<polygon fill="midnightblue" stroke="midnightblue" points="298.54,-74.43 308.35,-78.43 303.18,-69.18 298.54,-74.43"/>
</g>
<!-- Node4 -->
<g id="node4" class="node">
<title>Node4</title>
<g id="a_node4"><a xlink:href="$_entity_controller_8cpp.html" xlink:title=" ">
<polygon fill="none" stroke="black" points="338.5,-0.5 338.5,-41.5 494.5,-41.5 494.5,-0.5 338.5,-0.5"/>
<text text-anchor="start" x="346.5" y="-29.5" font-family="Helvetica,sans-Serif" font-size="10.00">/home/tomek/CLionProjects</text>
<text text-anchor="start" x="346.5" y="-18.5" font-family="Helvetica,sans-Serif" font-size="10.00">/proi/proi&#45;projekt/src</text>
<text text-anchor="middle" x="416.5" y="-7.5" font-family="Helvetica,sans-Serif" font-size="10.00">/tank&#45;lib/EntityController.cpp</text>
</a>
</g>
</g>
<!-- Node1&#45;&gt;Node4 -->
<g id="edge3" class="edge">
<title>Node1&#45;&gt;Node4</title>
<path fill="none" stroke="midnightblue" d="M360.17,-71.78C371.41,-61.84 384.01,-50.72 394.43,-41.51"/>
<polygon fill="midnightblue" stroke="midnightblue" points="357.82,-69.18 352.65,-78.43 362.46,-74.43 357.82,-69.18"/>
</g>
<!-- Node5 -->
<g id="node5" class="node">
<title>Node5</title>
<g id="a_node5"><a xlink:href="$_tank_8cpp.html" xlink:title=" ">
<polygon fill="none" stroke="black" points="513,-0.5 513,-41.5 664,-41.5 664,-0.5 513,-0.5"/>
<text text-anchor="start" x="521" y="-29.5" font-family="Helvetica,sans-Serif" font-size="10.00">/home/tomek/CLionProjects</text>
<text text-anchor="start" x="521" y="-18.5" font-family="Helvetica,sans-Serif" font-size="10.00">/proi/proi&#45;projekt/src</text>
<text text-anchor="middle" x="588.5" y="-7.5" font-family="Helvetica,sans-Serif" font-size="10.00">/tank&#45;lib/Tank.cpp</text>
</a>
</g>
</g>
<!-- Node1&#45;&gt;Node5 -->
<g id="edge4" class="edge">
<title>Node1&#45;&gt;Node5</title>
<path fill="none" stroke="midnightblue" d="M406.61,-75.58C443.33,-64.76 486.96,-51.91 522.28,-41.51"/>
<polygon fill="midnightblue" stroke="midnightblue" points="405.54,-72.24 396.94,-78.43 407.52,-78.96 405.54,-72.24"/>
</g>
</g>
</svg>
