<?xml version="1.0" encoding="UTF-8" standalone="no"?>
<!DOCTYPE svg PUBLIC "-//W3C//DTD SVG 1.1//EN"
 "http://www.w3.org/Graphics/SVG/1.1/DTD/svg11.dtd">
<!-- Generated by graphviz version 2.50.0 (0)
 -->
<!-- Title: /home/tomek/trash/battle&#45;city/src/lib/tank&#45;lib/include/Bullet.h Pages: 1 -->
<svg width="199pt" height="173pt"
 viewBox="0.00 0.00 198.50 173.00" xmlns="http://www.w3.org/2000/svg" xmlns:xlink="http://www.w3.org/1999/xlink">
<g id="graph0" class="graph" transform="scale(1 1) rotate(0) translate(4 169)">
<title>/home/tomek/trash/battle&#45;city/src/lib/tank&#45;lib/include/Bullet.h</title>
<!-- Node1 -->
<g id="node1" class="node">
<title>Node1</title>
<g id="a_node1"><a xlink:title=" ">
<polygon fill="#bfbfbf" stroke="black" points="43.5,-123.5 43.5,-164.5 184.5,-164.5 184.5,-123.5 43.5,-123.5"/>
<text text-anchor="start" x="51.5" y="-152.5" font-family="Helvetica,sans-Serif" font-size="10.00">/home/tomek/trash/battle</text>
<text text-anchor="start" x="51.5" y="-141.5" font-family="Helvetica,sans-Serif" font-size="10.00">&#45;city/src/lib/tank&#45;lib</text>
<text text-anchor="middle" x="114" y="-130.5" font-family="Helvetica,sans-Serif" font-size="10.00">/include/Bullet.h</text>
</a>
</g>
</g>
<!-- Node2 -->
<g id="node2" class="node">
<title>Node2</title>
<g id="a_node2"><a xlink:href="$_simple_publisher_8h.html" xlink:title=" ">
<polygon fill="none" stroke="black" points="9,-56.5 9,-86.5 119,-86.5 119,-56.5 9,-56.5"/>
<text text-anchor="start" x="17" y="-74.5" font-family="Helvetica,sans-Serif" font-size="10.00">../../core&#45;lib/include</text>
<text text-anchor="middle" x="64" y="-63.5" font-family="Helvetica,sans-Serif" font-size="10.00">/SimplePublisher.h</text>
</a>
</g>
</g>
<!-- Node1&#45;&gt;Node2 -->
<g id="edge1" class="edge">
<title>Node1&#45;&gt;Node2</title>
<path fill="none" stroke="midnightblue" d="M100.07,-123.36C93.85,-114.59 86.49,-104.21 80.04,-95.12"/>
<polygon fill="midnightblue" stroke="midnightblue" points="82.85,-93.02 74.21,-86.89 77.14,-97.07 82.85,-93.02"/>
</g>
<!-- Node5 -->
<g id="node5" class="node">
<title>Node5</title>
<g id="a_node5"><a xlink:href="$_entity_8h.html" xlink:title=" ">
<polygon fill="none" stroke="black" points="137.5,-62 137.5,-81 190.5,-81 190.5,-62 137.5,-62"/>
<text text-anchor="middle" x="164" y="-69" font-family="Helvetica,sans-Serif" font-size="10.00">Entity.h</text>
</a>
</g>
</g>
<!-- Node1&#45;&gt;Node5 -->
<g id="edge4" class="edge">
<title>Node1&#45;&gt;Node5</title>
<path fill="none" stroke="midnightblue" d="M127.93,-123.36C135.45,-112.76 144.65,-99.79 151.87,-89.6"/>
<polygon fill="midnightblue" stroke="midnightblue" points="154.92,-91.35 157.85,-81.17 149.21,-87.31 154.92,-91.35"/>
</g>
<!-- Node3 -->
<g id="node3" class="node">
<title>Node3</title>
<g id="a_node3"><a xlink:title=" ">
<polygon fill="none" stroke="#bfbfbf" points="0,-0.5 0,-19.5 58,-19.5 58,-0.5 0,-0.5"/>
<text text-anchor="middle" x="29" y="-7.5" font-family="Helvetica,sans-Serif" font-size="10.00">memory</text>
</a>
</g>
</g>
<!-- Node2&#45;&gt;Node3 -->
<g id="edge2" class="edge">
<title>Node2&#45;&gt;Node3</title>
<path fill="none" stroke="midnightblue" d="M55.71,-56.4C50.78,-48.02 44.49,-37.33 39.25,-28.42"/>
<polygon fill="midnightblue" stroke="midnightblue" points="42.18,-26.5 34.09,-19.66 36.15,-30.05 42.18,-26.5"/>
</g>
<!-- Node4 -->
<g id="node4" class="node">
<title>Node4</title>
<g id="a_node4"><a xlink:title=" ">
<polygon fill="none" stroke="#bfbfbf" points="76.5,-0.5 76.5,-19.5 123.5,-19.5 123.5,-0.5 76.5,-0.5"/>
<text text-anchor="middle" x="100" y="-7.5" font-family="Helvetica,sans-Serif" font-size="10.00">vector</text>
</a>
</g>
</g>
<!-- Node2&#45;&gt;Node4 -->
<g id="edge3" class="edge">
<title>Node2&#45;&gt;Node4</title>
<path fill="none" stroke="midnightblue" d="M72.53,-56.4C77.6,-48.02 84.07,-37.33 89.46,-28.42"/>
<polygon fill="midnightblue" stroke="midnightblue" points="92.58,-30.03 94.76,-19.66 86.59,-26.4 92.58,-30.03"/>
</g>
</g>
</svg>
