<?xml version="1.0" encoding="UTF-8" standalone="no"?>
<!DOCTYPE svg PUBLIC "-//W3C//DTD SVG 1.1//EN"
 "http://www.w3.org/Graphics/SVG/1.1/DTD/svg11.dtd">
<!-- Generated by graphviz version 2.50.0 (0)
 -->
<!-- Title: /home/tomek/trash/battle&#45;city/src/lib/core&#45;lib/include/Clock.h Pages: 1 -->
<svg width="226pt" height="162pt"
 viewBox="0.00 0.00 225.50 162.00" xmlns="http://www.w3.org/2000/svg" xmlns:xlink="http://www.w3.org/1999/xlink">
<g id="graph0" class="graph" transform="scale(1 1) rotate(0) translate(4 158)">
<title>/home/tomek/trash/battle&#45;city/src/lib/core&#45;lib/include/Clock.h</title>
<!-- Node1 -->
<g id="node1" class="node">
<title>Node1</title>
<g id="a_node1"><a xlink:title=" ">
<polygon fill="#bfbfbf" stroke="black" points="0,-112.5 0,-153.5 141,-153.5 141,-112.5 0,-112.5"/>
<text text-anchor="start" x="8" y="-141.5" font-family="Helvetica,sans-Serif" font-size="10.00">/home/tomek/trash/battle</text>
<text text-anchor="start" x="8" y="-130.5" font-family="Helvetica,sans-Serif" font-size="10.00">&#45;city/src/lib/core&#45;lib</text>
<text text-anchor="middle" x="70.5" y="-119.5" font-family="Helvetica,sans-Serif" font-size="10.00">/include/Clock.h</text>
</a>
</g>
</g>
<!-- Node2 -->
<g id="node2" class="node">
<title>Node2</title>
<g id="a_node2"><a xlink:title=" ">
<polygon fill="none" stroke="#bfbfbf" points="27.5,-0.5 27.5,-19.5 85.5,-19.5 85.5,-0.5 27.5,-0.5"/>
<text text-anchor="middle" x="56.5" y="-7.5" font-family="Helvetica,sans-Serif" font-size="10.00">memory</text>
</a>
</g>
</g>
<!-- Node1&#45;&gt;Node2 -->
<g id="edge1" class="edge">
<title>Node1&#45;&gt;Node2</title>
<path fill="none" stroke="midnightblue" d="M54.84,-112.25C47.75,-102.05 40.15,-89.03 36.5,-76 31.99,-59.87 38.62,-41.66 45.42,-28.63"/>
<polygon fill="midnightblue" stroke="midnightblue" points="48.55,-30.21 50.48,-19.79 42.48,-26.73 48.55,-30.21"/>
</g>
<!-- Node3 -->
<g id="node3" class="node">
<title>Node3</title>
<g id="a_node3"><a xlink:title=" ">
<polygon fill="none" stroke="#bfbfbf" points="45.5,-56.5 45.5,-75.5 95.5,-75.5 95.5,-56.5 45.5,-56.5"/>
<text text-anchor="middle" x="70.5" y="-63.5" font-family="Helvetica,sans-Serif" font-size="10.00">chrono</text>
</a>
</g>
</g>
<!-- Node1&#45;&gt;Node3 -->
<g id="edge2" class="edge">
<title>Node1&#45;&gt;Node3</title>
<path fill="none" stroke="midnightblue" d="M70.5,-112.5C70.5,-104.07 70.5,-94.24 70.5,-85.87"/>
<polygon fill="midnightblue" stroke="midnightblue" points="74,-85.65 70.5,-75.65 67,-85.65 74,-85.65"/>
</g>
<!-- Node4 -->
<g id="node4" class="node">
<title>Node4</title>
<g id="a_node4"><a xlink:href="$_simple_publisher_8h.html" xlink:title=" ">
<polygon fill="none" stroke="black" points="113.5,-56.5 113.5,-75.5 217.5,-75.5 217.5,-56.5 113.5,-56.5"/>
<text text-anchor="middle" x="165.5" y="-63.5" font-family="Helvetica,sans-Serif" font-size="10.00">SimplePublisher.h</text>
</a>
</g>
</g>
<!-- Node1&#45;&gt;Node4 -->
<g id="edge3" class="edge">
<title>Node1&#45;&gt;Node4</title>
<path fill="none" stroke="midnightblue" d="M99,-112.5C113.57,-102.53 130.99,-90.61 144.34,-81.48"/>
<polygon fill="midnightblue" stroke="midnightblue" points="146.58,-84.19 152.85,-75.65 142.62,-78.41 146.58,-84.19"/>
</g>
<!-- Node4&#45;&gt;Node2 -->
<g id="edge4" class="edge">
<title>Node4&#45;&gt;Node2</title>
<path fill="none" stroke="midnightblue" d="M147.99,-56.32C130.43,-47.62 103.17,-34.12 82.97,-24.11"/>
<polygon fill="midnightblue" stroke="midnightblue" points="84.48,-20.96 73.97,-19.65 81.38,-27.23 84.48,-20.96"/>
</g>
<!-- Node5 -->
<g id="node5" class="node">
<title>Node5</title>
<g id="a_node5"><a xlink:title=" ">
<polygon fill="none" stroke="#bfbfbf" points="142,-0.5 142,-19.5 189,-19.5 189,-0.5 142,-0.5"/>
<text text-anchor="middle" x="165.5" y="-7.5" font-family="Helvetica,sans-Serif" font-size="10.00">vector</text>
</a>
</g>
</g>
<!-- Node4&#45;&gt;Node5 -->
<g id="edge5" class="edge">
<title>Node4&#45;&gt;Node5</title>
<path fill="none" stroke="midnightblue" d="M165.5,-56.08C165.5,-49.01 165.5,-38.86 165.5,-29.99"/>
<polygon fill="midnightblue" stroke="midnightblue" points="169,-29.75 165.5,-19.75 162,-29.75 169,-29.75"/>
</g>
</g>
</svg>
