<?xml version="1.0" encoding="UTF-8" standalone="no"?>
<!DOCTYPE svg PUBLIC "-//W3C//DTD SVG 1.1//EN"
 "http://www.w3.org/Graphics/SVG/1.1/DTD/svg11.dtd">
<!-- Generated by graphviz version 2.43.0 (0)
 -->
<!-- Title: /home/tomek/CLionProjects/proi/proi&#45;projekt/src/core&#45;lib/include/Clock.h Pages: 1 -->
<svg width="231pt" height="162pt"
 viewBox="0.00 0.00 230.50 162.00" xmlns="http://www.w3.org/2000/svg" xmlns:xlink="http://www.w3.org/1999/xlink">
<g id="graph0" class="graph" transform="scale(1 1) setFacing(0) translate(4 158)">
<title>/home/tomek/CLionProjects/proi/proi&#45;projekt/src/core&#45;lib/include/Clock.h</title>
<!-- Node1 -->
<g id="node1" class="node">
<title>Node1</title>
<g id="a_node1"><a xlink:title=" ">
<polygon fill="#bfbfbf" stroke="black" points="0,-112.5 0,-153.5 151,-153.5 151,-112.5 0,-112.5"/>
<text text-anchor="start" x="8" y="-141.5" font-family="Helvetica,sans-Serif" font-size="10.00">/home/tomek/CLionProjects</text>
<text text-anchor="start" x="8" y="-130.5" font-family="Helvetica,sans-Serif" font-size="10.00">/proi/proi&#45;projekt/src</text>
<text text-anchor="middle" x="75.5" y="-119.5" font-family="Helvetica,sans-Serif" font-size="10.00">/core&#45;lib/include/Clock.h</text>
</a>
</g>
</g>
<!-- Node2 -->
<g id="node2" class="node">
<title>Node2</title>
<g id="a_node2"><a xlink:title=" ">
<polygon fill="none" stroke="#bfbfbf" points="32.5,-0.5 32.5,-19.5 90.5,-19.5 90.5,-0.5 32.5,-0.5"/>
<text text-anchor="middle" x="61.5" y="-7.5" font-family="Helvetica,sans-Serif" font-size="10.00">memory</text>
</a>
</g>
</g>
<!-- Node1&#45;&gt;Node2 -->
<g id="edge1" class="edge">
<title>Node1&#45;&gt;Node2</title>
<path fill="none" stroke="midnightblue" d="M59.84,-112.25C52.75,-102.05 45.15,-89.03 41.5,-76 36.99,-59.87 43.62,-41.66 50.42,-28.63"/>
<polygon fill="midnightblue" stroke="midnightblue" points="53.55,-30.21 55.48,-19.79 47.48,-26.73 53.55,-30.21"/>
</g>
<!-- Node3 -->
<g id="node3" class="node">
<title>Node3</title>
<g id="a_node3"><a xlink:title=" ">
<polygon fill="none" stroke="#bfbfbf" points="50.5,-56.5 50.5,-75.5 100.5,-75.5 100.5,-56.5 50.5,-56.5"/>
<text text-anchor="middle" x="75.5" y="-63.5" font-family="Helvetica,sans-Serif" font-size="10.00">chrono</text>
</a>
</g>
</g>
<!-- Node1&#45;&gt;Node3 -->
<g id="edge2" class="edge">
<title>Node1&#45;&gt;Node3</title>
<path fill="none" stroke="midnightblue" d="M75.5,-112.5C75.5,-104.07 75.5,-94.24 75.5,-85.87"/>
<polygon fill="midnightblue" stroke="midnightblue" points="79,-85.65 75.5,-75.65 72,-85.65 79,-85.65"/>
</g>
<!-- Node4 -->
<g id="node4" class="node">
<title>Node4</title>
<g id="a_node4"><a xlink:href="$_simple_publisher_8h.html" xlink:title=" ">
<polygon fill="none" stroke="black" points="118.5,-56.5 118.5,-75.5 222.5,-75.5 222.5,-56.5 118.5,-56.5"/>
<text text-anchor="middle" x="170.5" y="-63.5" font-family="Helvetica,sans-Serif" font-size="10.00">SimplePublisher.h</text>
</a>
</g>
</g>
<!-- Node1&#45;&gt;Node4 -->
<g id="edge3" class="edge">
<title>Node1&#45;&gt;Node4</title>
<path fill="none" stroke="midnightblue" d="M104,-112.5C118.57,-102.53 135.99,-90.61 149.34,-81.48"/>
<polygon fill="midnightblue" stroke="midnightblue" points="151.58,-84.19 157.85,-75.65 147.62,-78.41 151.58,-84.19"/>
</g>
<!-- Node4&#45;&gt;Node2 -->
<g id="edge4" class="edge">
<title>Node4&#45;&gt;Node2</title>
<path fill="none" stroke="midnightblue" d="M152.99,-56.32C135.43,-47.62 108.17,-34.12 87.97,-24.11"/>
<polygon fill="midnightblue" stroke="midnightblue" points="89.48,-20.96 78.97,-19.65 86.38,-27.23 89.48,-20.96"/>
</g>
<!-- Node5 -->
<g id="node5" class="node">
<title>Node5</title>
<g id="a_node5"><a xlink:title=" ">
<polygon fill="none" stroke="#bfbfbf" points="147,-0.5 147,-19.5 194,-19.5 194,-0.5 147,-0.5"/>
<text text-anchor="middle" x="170.5" y="-7.5" font-family="Helvetica,sans-Serif" font-size="10.00">vector</text>
</a>
</g>
</g>
<!-- Node4&#45;&gt;Node5 -->
<g id="edge5" class="edge">
<title>Node4&#45;&gt;Node5</title>
<path fill="none" stroke="midnightblue" d="M170.5,-56.08C170.5,-49.01 170.5,-38.86 170.5,-29.99"/>
<polygon fill="midnightblue" stroke="midnightblue" points="174,-29.75 170.5,-19.75 167,-29.75 174,-29.75"/>
</g>
</g>
</svg>
