<?xml version="1.0" encoding="UTF-8" standalone="no"?>
<!DOCTYPE svg PUBLIC "-//W3C//DTD SVG 1.1//EN"
 "http://www.w3.org/Graphics/SVG/1.1/DTD/svg11.dtd">
<!-- Generated by graphviz version 2.43.0 (0)
 -->
<!-- Title: /home/tomek/CLionProjects/proi/proi&#45;projekt/src/tank&#45;lib/include/EntityController.h Pages: 1 -->
<svg width="334pt" height="229pt"
 viewBox="0.00 0.00 333.82 229.00" xmlns="http://www.w3.org/2000/svg" xmlns:xlink="http://www.w3.org/1999/xlink">
<g id="graph0" class="graph" transform="scale(1 1) rotate(0) translate(4 225)">
<title>/home/tomek/CLionProjects/proi/proi&#45;projekt/src/tank&#45;lib/include/EntityController.h</title>
<!-- Node1 -->
<g id="node1" class="node">
<title>Node1</title>
<g id="a_node1"><a xlink:title=" ">
<polygon fill="#bfbfbf" stroke="black" points="25.93,-179.5 25.93,-220.5 208.93,-220.5 208.93,-179.5 25.93,-179.5"/>
<text text-anchor="start" x="33.93" y="-208.5" font-family="Helvetica,sans-Serif" font-size="10.00">/home/tomek/CLionProjects</text>
<text text-anchor="start" x="33.93" y="-197.5" font-family="Helvetica,sans-Serif" font-size="10.00">/proi/proi&#45;projekt/src</text>
<text text-anchor="middle" x="117.43" y="-186.5" font-family="Helvetica,sans-Serif" font-size="10.00">/tank&#45;lib/include/EntityController.h</text>
</a>
</g>
</g>
<!-- Node2 -->
<g id="node2" class="node">
<title>Node2</title>
<g id="a_node2"><a xlink:title=" ">
<polygon fill="none" stroke="#bfbfbf" points="41.93,-0.5 41.93,-19.5 88.93,-19.5 88.93,-0.5 41.93,-0.5"/>
<text text-anchor="middle" x="65.43" y="-7.5" font-family="Helvetica,sans-Serif" font-size="10.00">vector</text>
</a>
</g>
</g>
<!-- Node1&#45;&gt;Node2 -->
<g id="edge1" class="edge">
<title>Node1&#45;&gt;Node2</title>
<path fill="none" stroke="midnightblue" d="M87.03,-179.48C59.59,-159.87 21.06,-126.9 4.43,-87 -0.87,-74.28 -1.78,-68.3 4.43,-56 11.24,-42.52 24.2,-32.08 36.43,-24.67"/>
<polygon fill="midnightblue" stroke="midnightblue" points="38.5,-27.52 45.52,-19.59 35.09,-21.41 38.5,-27.52"/>
</g>
<!-- Node3 -->
<g id="node3" class="node">
<title>Node3</title>
<g id="a_node3"><a xlink:title=" ">
<polygon fill="none" stroke="#bfbfbf" points="200.43,-0.5 200.43,-19.5 258.43,-19.5 258.43,-0.5 200.43,-0.5"/>
<text text-anchor="middle" x="229.43" y="-7.5" font-family="Helvetica,sans-Serif" font-size="10.00">memory</text>
</a>
</g>
</g>
<!-- Node1&#45;&gt;Node3 -->
<g id="edge2" class="edge">
<title>Node1&#45;&gt;Node3</title>
<path fill="none" stroke="midnightblue" d="M190.58,-179.5C236.64,-163.01 292.5,-134.31 320.43,-87 327.43,-75.14 327.7,-67.7 320.43,-56 309.03,-37.64 287.67,-26.54 268.51,-19.97"/>
<polygon fill="midnightblue" stroke="midnightblue" points="269.34,-16.56 258.75,-16.92 267.26,-23.24 269.34,-16.56"/>
</g>
<!-- Node4 -->
<g id="node4" class="node">
<title>Node4</title>
<g id="a_node4"><a xlink:title=" ">
<polygon fill="none" stroke="#bfbfbf" points="13.43,-62 13.43,-81 69.43,-81 69.43,-62 13.43,-62"/>
<text text-anchor="middle" x="41.43" y="-69" font-family="Helvetica,sans-Serif" font-size="10.00">optional</text>
</a>
</g>
</g>
<!-- Node1&#45;&gt;Node4 -->
<g id="edge3" class="edge">
<title>Node1&#45;&gt;Node4</title>
<path fill="none" stroke="midnightblue" d="M105.56,-179.23C90.87,-154.79 66.1,-113.56 52.03,-90.14"/>
<polygon fill="midnightblue" stroke="midnightblue" points="54.86,-88.06 46.71,-81.29 48.86,-91.67 54.86,-88.06"/>
</g>
<!-- Node5 -->
<g id="node5" class="node">
<title>Node5</title>
<g id="a_node5"><a xlink:href="$_tank_8h.html" xlink:title=" ">
<polygon fill="none" stroke="black" points="120.43,-123.5 120.43,-142.5 168.43,-142.5 168.43,-123.5 120.43,-123.5"/>
<text text-anchor="middle" x="144.43" y="-130.5" font-family="Helvetica,sans-Serif" font-size="10.00">Tank.h</text>
</a>
</g>
</g>
<!-- Node1&#45;&gt;Node5 -->
<g id="edge4" class="edge">
<title>Node1&#45;&gt;Node5</title>
<path fill="none" stroke="midnightblue" d="M125.53,-179.5C129.15,-170.78 133.4,-160.56 136.94,-152.02"/>
<polygon fill="midnightblue" stroke="midnightblue" points="140.23,-153.23 140.84,-142.65 133.77,-150.54 140.23,-153.23"/>
</g>
<!-- Node5&#45;&gt;Node3 -->
<g id="edge5" class="edge">
<title>Node5&#45;&gt;Node3</title>
<path fill="none" stroke="midnightblue" d="M164.1,-123.42C179.01,-115.91 198.85,-103.61 210.43,-87 222.31,-69.96 226.78,-46.19 228.45,-29.8"/>
<polygon fill="midnightblue" stroke="midnightblue" points="231.94,-30.04 229.22,-19.8 224.96,-29.5 231.94,-30.04"/>
</g>
<!-- Node5&#45;&gt;Node4 -->
<g id="edge6" class="edge">
<title>Node5&#45;&gt;Node4</title>
<path fill="none" stroke="midnightblue" d="M129.67,-123.48C112.77,-113.71 84.85,-97.58 64.94,-86.08"/>
<polygon fill="midnightblue" stroke="midnightblue" points="66.57,-82.98 56.16,-81.01 63.07,-89.04 66.57,-82.98"/>
</g>
<!-- Node6 -->
<g id="node6" class="node">
<title>Node6</title>
<g id="a_node6"><a xlink:href="$_simple_subscriber_8h.html" xlink:title=" ">
<polygon fill="none" stroke="black" points="87.93,-56.5 87.93,-86.5 200.93,-86.5 200.93,-56.5 87.93,-56.5"/>
<text text-anchor="start" x="95.93" y="-74.5" font-family="Helvetica,sans-Serif" font-size="10.00">../../core&#45;lib/include</text>
<text text-anchor="middle" x="144.43" y="-63.5" font-family="Helvetica,sans-Serif" font-size="10.00">/SimpleSubscriber.h</text>
</a>
</g>
</g>
<!-- Node5&#45;&gt;Node6 -->
<g id="edge7" class="edge">
<title>Node5&#45;&gt;Node6</title>
<path fill="none" stroke="midnightblue" d="M144.43,-123.48C144.43,-116.47 144.43,-106.19 144.43,-96.7"/>
<polygon fill="midnightblue" stroke="midnightblue" points="147.93,-96.52 144.43,-86.52 140.93,-96.52 147.93,-96.52"/>
</g>
<!-- Node7 -->
<g id="node7" class="node">
<title>Node7</title>
<g id="a_node7"><a xlink:href="$_entity_8h.html" xlink:title=" ">
<polygon fill="none" stroke="black" points="257.93,-62 257.93,-81 310.93,-81 310.93,-62 257.93,-62"/>
<text text-anchor="middle" x="284.43" y="-69" font-family="Helvetica,sans-Serif" font-size="10.00">Entity.h</text>
</a>
</g>
</g>
<!-- Node5&#45;&gt;Node7 -->
<g id="edge10" class="edge">
<title>Node5&#45;&gt;Node7</title>
<path fill="none" stroke="midnightblue" d="M164.49,-123.48C188.19,-113.4 227.84,-96.55 255.01,-85"/>
<polygon fill="midnightblue" stroke="midnightblue" points="256.57,-88.14 264.41,-81.01 253.84,-81.7 256.57,-88.14"/>
</g>
<!-- Node6&#45;&gt;Node2 -->
<g id="edge8" class="edge">
<title>Node6&#45;&gt;Node2</title>
<path fill="none" stroke="midnightblue" d="M125.71,-56.4C113.52,-47.22 97.64,-35.26 85.24,-25.92"/>
<polygon fill="midnightblue" stroke="midnightblue" points="87.02,-22.88 76.93,-19.66 82.81,-28.47 87.02,-22.88"/>
</g>
<!-- Node6&#45;&gt;Node3 -->
<g id="edge9" class="edge">
<title>Node6&#45;&gt;Node3</title>
<path fill="none" stroke="midnightblue" d="M164.57,-56.4C177.82,-47.13 195.11,-35.03 208.51,-25.65"/>
<polygon fill="midnightblue" stroke="midnightblue" points="210.88,-28.26 217.06,-19.66 206.86,-22.53 210.88,-28.26"/>
</g>
</g>
</svg>
