<?xml version="1.0" encoding="UTF-8" standalone="no"?>
<!DOCTYPE svg PUBLIC "-//W3C//DTD SVG 1.1//EN"
 "http://www.w3.org/Graphics/SVG/1.1/DTD/svg11.dtd">
<!-- Generated by graphviz version 2.43.0 (0)
 -->
<!-- Title: /home/tomek/CLionProjects/proi/proi&#45;projekt/src/tank&#45;lib/EntityController.cpp Pages: 1 -->
<svg width="1023pt" height="430pt"
 viewBox="0.00 0.00 1022.50 430.00" xmlns="http://www.w3.org/2000/svg" xmlns:xlink="http://www.w3.org/1999/xlink">
<g id="graph0" class="graph" transform="scale(1 1) rotate(0) translate(4 426)">
<title>/home/tomek/CLionProjects/proi/proi&#45;projekt/src/tank&#45;lib/EntityController.cpp</title>
<!-- Node1 -->
<g id="node1" class="node">
<title>Node1</title>
<g id="a_node1"><a xlink:title=" ">
<polygon fill="#bfbfbf" stroke="black" points="304,-380.5 304,-421.5 460,-421.5 460,-380.5 304,-380.5"/>
<text text-anchor="start" x="312" y="-409.5" font-family="Helvetica,sans-Serif" font-size="10.00">/home/tomek/CLionProjects</text>
<text text-anchor="start" x="312" y="-398.5" font-family="Helvetica,sans-Serif" font-size="10.00">/proi/proi&#45;projekt/src</text>
<text text-anchor="middle" x="382" y="-387.5" font-family="Helvetica,sans-Serif" font-size="10.00">/tank&#45;lib/EntityController.cpp</text>
</a>
</g>
</g>
<!-- Node2 -->
<g id="node2" class="node">
<title>Node2</title>
<g id="a_node2"><a xlink:title=" ">
<polygon fill="none" stroke="#bfbfbf" points="234,-190.5 234,-209.5 278,-209.5 278,-190.5 234,-190.5"/>
<text text-anchor="middle" x="256" y="-197.5" font-family="Helvetica,sans-Serif" font-size="10.00">string</text>
</a>
</g>
</g>
<!-- Node1&#45;&gt;Node2 -->
<g id="edge1" class="edge">
<title>Node1&#45;&gt;Node2</title>
<path fill="none" stroke="midnightblue" d="M369.46,-380.19C344.77,-341.21 290.26,-255.11 266.94,-218.27"/>
<polygon fill="midnightblue" stroke="midnightblue" points="269.78,-216.22 261.47,-209.65 263.87,-219.97 269.78,-216.22"/>
</g>
<!-- Node3 -->
<g id="node3" class="node">
<title>Node3</title>
<g id="a_node3"><a xlink:title=" ">
<polygon fill="none" stroke="#bfbfbf" points="631,-0.5 631,-19.5 689,-19.5 689,-0.5 631,-0.5"/>
<text text-anchor="middle" x="660" y="-7.5" font-family="Helvetica,sans-Serif" font-size="10.00">memory</text>
</a>
</g>
</g>
<!-- Node1&#45;&gt;Node3 -->
<g id="edge2" class="edge">
<title>Node1&#45;&gt;Node3</title>
<path fill="none" stroke="midnightblue" d="M460.04,-397.52C542.28,-392.99 674.65,-380.17 783,-344 841.31,-324.53 872.79,-329.96 904,-277 956.37,-188.15 971.96,-219.08 767,-56 746.9,-40.01 720.28,-28.78 698.63,-21.54"/>
<polygon fill="midnightblue" stroke="midnightblue" points="699.66,-18.2 689.07,-18.5 697.53,-24.87 699.66,-18.2"/>
</g>
<!-- Node4 -->
<g id="node4" class="node">
<title>Node4</title>
<g id="a_node4"><a xlink:href="$_entity_controller_8h.html" xlink:title=" ">
<polygon fill="none" stroke="black" points="0,-252 0,-271 140,-271 140,-252 0,-252"/>
<text text-anchor="middle" x="70" y="-259" font-family="Helvetica,sans-Serif" font-size="10.00">include/EntityController.h</text>
</a>
</g>
</g>
<!-- Node1&#45;&gt;Node4 -->
<g id="edge3" class="edge">
<title>Node1&#45;&gt;Node4</title>
<path fill="none" stroke="midnightblue" d="M303.83,-391.22C257.98,-383.59 200.18,-369.56 154,-344 124.23,-327.52 97.46,-297.72 82.51,-279.08"/>
<polygon fill="midnightblue" stroke="midnightblue" points="85.24,-276.9 76.33,-271.17 79.72,-281.2 85.24,-276.9"/>
</g>
<!-- Node7 -->
<g id="node7" class="node">
<title>Node7</title>
<g id="a_node7"><a xlink:href="$_tank_8h.html" xlink:title=" ">
<polygon fill="none" stroke="black" points="92,-190.5 92,-209.5 140,-209.5 140,-190.5 92,-190.5"/>
<text text-anchor="middle" x="116" y="-197.5" font-family="Helvetica,sans-Serif" font-size="10.00">Tank.h</text>
</a>
</g>
</g>
<!-- Node1&#45;&gt;Node7 -->
<g id="edge17" class="edge">
<title>Node1&#45;&gt;Node7</title>
<path fill="none" stroke="midnightblue" d="M303.86,-392.38C266.29,-385.16 222.84,-371.16 192,-344 156.3,-312.57 172.76,-287.2 149,-246 143.31,-236.14 135.89,-225.85 129.53,-217.6"/>
<polygon fill="midnightblue" stroke="midnightblue" points="132.13,-215.24 123.17,-209.57 126.64,-219.59 132.13,-215.24"/>
</g>
<!-- Node11 -->
<g id="node11" class="node">
<title>Node11</title>
<g id="a_node11"><a xlink:href="$_bullet_8h.html" xlink:title=" ">
<polygon fill="none" stroke="black" points="531,-129 531,-148 623,-148 623,-129 531,-129"/>
<text text-anchor="middle" x="577" y="-136" font-family="Helvetica,sans-Serif" font-size="10.00">include/Bullet.h</text>
</a>
</g>
</g>
<!-- Node1&#45;&gt;Node11 -->
<g id="edge18" class="edge">
<title>Node1&#45;&gt;Node11</title>
<path fill="none" stroke="midnightblue" d="M348.18,-380.46C286.53,-342.48 167.31,-256.56 225,-190 244.07,-167.99 426.24,-150.99 520.73,-143.58"/>
<polygon fill="midnightblue" stroke="midnightblue" points="521.27,-147.04 530.97,-142.78 520.73,-140.06 521.27,-147.04"/>
</g>
<!-- Node13 -->
<g id="node13" class="node">
<title>Node13</title>
<g id="a_node13"><a xlink:href="$_event_queue_8h.html" xlink:title=" ">
<polygon fill="none" stroke="black" points="793.5,-246.5 793.5,-276.5 894.5,-276.5 894.5,-246.5 793.5,-246.5"/>
<text text-anchor="start" x="801.5" y="-264.5" font-family="Helvetica,sans-Serif" font-size="10.00">../core&#45;lib/include</text>
<text text-anchor="middle" x="844" y="-253.5" font-family="Helvetica,sans-Serif" font-size="10.00">/EventQueue.h</text>
</a>
</g>
</g>
<!-- Node1&#45;&gt;Node13 -->
<g id="edge23" class="edge">
<title>Node1&#45;&gt;Node13</title>
<path fill="none" stroke="midnightblue" d="M460.33,-399.92C536.45,-397.13 653.74,-385.55 746,-344 777.21,-329.94 806.48,-303.12 824.77,-284.09"/>
<polygon fill="midnightblue" stroke="midnightblue" points="827.39,-286.41 831.67,-276.72 822.28,-281.62 827.39,-286.41"/>
</g>
<!-- Node15 -->
<g id="node15" class="node">
<title>Node15</title>
<g id="a_node15"><a xlink:href="$_event_8h.html" xlink:title=" ">
<polygon fill="none" stroke="black" points="331.5,-246.5 331.5,-276.5 432.5,-276.5 432.5,-246.5 331.5,-246.5"/>
<text text-anchor="start" x="339.5" y="-264.5" font-family="Helvetica,sans-Serif" font-size="10.00">../core&#45;lib/include</text>
<text text-anchor="middle" x="382" y="-253.5" font-family="Helvetica,sans-Serif" font-size="10.00">/Event.h</text>
</a>
</g>
</g>
<!-- Node1&#45;&gt;Node15 -->
<g id="edge26" class="edge">
<title>Node1&#45;&gt;Node15</title>
<path fill="none" stroke="midnightblue" d="M382,-380.3C382,-355.63 382,-313.38 382,-286.75"/>
<polygon fill="midnightblue" stroke="midnightblue" points="385.5,-286.72 382,-276.72 378.5,-286.72 385.5,-286.72"/>
</g>
<!-- Node19 -->
<g id="node19" class="node">
<title>Node19</title>
<g id="a_node19"><a xlink:href="$_clock_8h.html" xlink:title=" ">
<polygon fill="none" stroke="black" points="913.5,-123.5 913.5,-153.5 1014.5,-153.5 1014.5,-123.5 913.5,-123.5"/>
<text text-anchor="start" x="921.5" y="-141.5" font-family="Helvetica,sans-Serif" font-size="10.00">../core&#45;lib/include</text>
<text text-anchor="middle" x="964" y="-130.5" font-family="Helvetica,sans-Serif" font-size="10.00">/Clock.h</text>
</a>
</g>
</g>
<!-- Node1&#45;&gt;Node19 -->
<g id="edge35" class="edge">
<title>Node1&#45;&gt;Node19</title>
<path fill="none" stroke="midnightblue" d="M460.2,-397.41C605.04,-391.84 903.46,-376.53 937,-344 985.94,-296.54 977.02,-206.58 969.24,-163.57"/>
<polygon fill="midnightblue" stroke="midnightblue" points="972.66,-162.85 967.32,-153.71 965.79,-164.19 972.66,-162.85"/>
</g>
<!-- Node21 -->
<g id="node21" class="node">
<title>Node21</title>
<g id="a_node21"><a xlink:href="$_bot_controller_8h.html" xlink:title=" ">
<polygon fill="none" stroke="black" points="641.5,-313.5 641.5,-343.5 736.5,-343.5 736.5,-313.5 641.5,-313.5"/>
<text text-anchor="start" x="649.5" y="-331.5" font-family="Helvetica,sans-Serif" font-size="10.00">../bot&#45;lib/include</text>
<text text-anchor="middle" x="689" y="-320.5" font-family="Helvetica,sans-Serif" font-size="10.00">/BotController.h</text>
</a>
</g>
</g>
<!-- Node1&#45;&gt;Node21 -->
<g id="edge39" class="edge">
<title>Node1&#45;&gt;Node21</title>
<path fill="none" stroke="midnightblue" d="M460.26,-382.03C513.5,-369.8 582.78,-353.89 631.09,-342.8"/>
<polygon fill="midnightblue" stroke="midnightblue" points="632.1,-346.16 641.06,-340.51 630.53,-339.34 632.1,-346.16"/>
</g>
<!-- Node4&#45;&gt;Node3 -->
<g id="edge5" class="edge">
<title>Node4&#45;&gt;Node3</title>
<path fill="none" stroke="midnightblue" d="M70.22,-251.67C71.58,-218.33 81.45,-99.84 153,-56 192.55,-31.77 508.31,-17.01 620.57,-12.49"/>
<polygon fill="midnightblue" stroke="midnightblue" points="620.93,-15.98 630.78,-12.08 620.65,-8.98 620.93,-15.98"/>
</g>
<!-- Node5 -->
<g id="node5" class="node">
<title>Node5</title>
<g id="a_node5"><a xlink:title=" ">
<polygon fill="none" stroke="#bfbfbf" points="379.5,-0.5 379.5,-19.5 426.5,-19.5 426.5,-0.5 379.5,-0.5"/>
<text text-anchor="middle" x="403" y="-7.5" font-family="Helvetica,sans-Serif" font-size="10.00">vector</text>
</a>
</g>
</g>
<!-- Node4&#45;&gt;Node5 -->
<g id="edge4" class="edge">
<title>Node4&#45;&gt;Node5</title>
<path fill="none" stroke="midnightblue" d="M62.41,-251.96C54.54,-242.48 42.74,-226.35 38,-210 18.93,-144.27 -7.34,-107.27 38,-56 59.8,-31.35 283.18,-17.22 369.35,-12.65"/>
<polygon fill="midnightblue" stroke="midnightblue" points="369.59,-16.14 379.39,-12.13 369.22,-9.15 369.59,-16.14"/>
</g>
<!-- Node6 -->
<g id="node6" class="node">
<title>Node6</title>
<g id="a_node6"><a xlink:title=" ">
<polygon fill="none" stroke="#bfbfbf" points="316,-129 316,-148 372,-148 372,-129 316,-129"/>
<text text-anchor="middle" x="344" y="-136" font-family="Helvetica,sans-Serif" font-size="10.00">optional</text>
</a>
</g>
</g>
<!-- Node4&#45;&gt;Node6 -->
<g id="edge6" class="edge">
<title>Node4&#45;&gt;Node6</title>
<path fill="none" stroke="midnightblue" d="M82.71,-251.96C104.39,-237.68 150.23,-208.66 192,-190 238.97,-169.02 253.24,-170.39 302,-154 304.58,-153.13 307.26,-152.23 309.94,-151.31"/>
<polygon fill="midnightblue" stroke="midnightblue" points="311.27,-154.56 319.59,-148 309,-147.93 311.27,-154.56"/>
</g>
<!-- Node4&#45;&gt;Node7 -->
<g id="edge7" class="edge">
<title>Node4&#45;&gt;Node7</title>
<path fill="none" stroke="midnightblue" d="M76.59,-251.98C83.49,-243.05 94.5,-228.81 103.13,-217.64"/>
<polygon fill="midnightblue" stroke="midnightblue" points="106.07,-219.56 109.42,-209.51 100.54,-215.28 106.07,-219.56"/>
</g>
<!-- Node7&#45;&gt;Node3 -->
<g id="edge8" class="edge">
<title>Node7&#45;&gt;Node3</title>
<path fill="none" stroke="midnightblue" d="M114.57,-190.22C112.6,-175.18 110.66,-144.08 124,-123 154.62,-74.63 179.77,-74.34 234,-56 305.15,-31.93 529.26,-17.83 620.63,-12.95"/>
<polygon fill="midnightblue" stroke="midnightblue" points="621.04,-16.43 630.84,-12.41 620.67,-9.44 621.04,-16.43"/>
</g>
<!-- Node7&#45;&gt;Node6 -->
<g id="edge9" class="edge">
<title>Node7&#45;&gt;Node6</title>
<path fill="none" stroke="midnightblue" d="M140.2,-193.21C188.77,-181.58 294.17,-156.29 302,-154 304.94,-153.14 307.98,-152.2 311.02,-151.22"/>
<polygon fill="midnightblue" stroke="midnightblue" points="312.2,-154.51 320.58,-148.03 309.99,-147.87 312.2,-154.51"/>
</g>
<!-- Node8 -->
<g id="node8" class="node">
<title>Node8</title>
<g id="a_node8"><a xlink:href="$_simple_subscriber_8h.html" xlink:title=" ">
<polygon fill="none" stroke="black" points="242.5,-56.5 242.5,-86.5 355.5,-86.5 355.5,-56.5 242.5,-56.5"/>
<text text-anchor="start" x="250.5" y="-74.5" font-family="Helvetica,sans-Serif" font-size="10.00">../../core&#45;lib/include</text>
<text text-anchor="middle" x="299" y="-63.5" font-family="Helvetica,sans-Serif" font-size="10.00">/SimpleSubscriber.h</text>
</a>
</g>
</g>
<!-- Node7&#45;&gt;Node8 -->
<g id="edge10" class="edge">
<title>Node7&#45;&gt;Node8</title>
<path fill="none" stroke="midnightblue" d="M117.14,-190.39C119.65,-174.75 127.13,-141.59 147,-123 170.35,-101.15 203.4,-88.74 232.71,-81.7"/>
<polygon fill="midnightblue" stroke="midnightblue" points="233.5,-85.11 242.49,-79.51 231.97,-78.28 233.5,-85.11"/>
</g>
<!-- Node9 -->
<g id="node9" class="node">
<title>Node9</title>
<g id="a_node9"><a xlink:href="$_entity_8h.html" xlink:title=" ">
<polygon fill="none" stroke="black" points="373.5,-62 373.5,-81 426.5,-81 426.5,-62 373.5,-62"/>
<text text-anchor="middle" x="400" y="-69" font-family="Helvetica,sans-Serif" font-size="10.00">Entity.h</text>
</a>
</g>
</g>
<!-- Node7&#45;&gt;Node9 -->
<g id="edge13" class="edge">
<title>Node7&#45;&gt;Node9</title>
<path fill="none" stroke="midnightblue" d="M140.21,-192.45C180.37,-181.49 257.49,-160.07 269,-154 288.28,-143.84 288.9,-135.14 307,-123 328.28,-108.73 353.97,-95.02 372.95,-85.5"/>
<polygon fill="midnightblue" stroke="midnightblue" points="374.53,-88.62 381.94,-81.05 371.43,-82.35 374.53,-88.62"/>
</g>
<!-- Node10 -->
<g id="node10" class="node">
<title>Node10</title>
<g id="a_node10"><a xlink:href="$_bot_8h.html" xlink:title=" ">
<polygon fill="none" stroke="black" points="156,-123.5 156,-153.5 260,-153.5 260,-123.5 156,-123.5"/>
<text text-anchor="start" x="164" y="-141.5" font-family="Helvetica,sans-Serif" font-size="10.00">../../bot&#45;lib/include</text>
<text text-anchor="middle" x="208" y="-130.5" font-family="Helvetica,sans-Serif" font-size="10.00">/Bot.h</text>
</a>
</g>
</g>
<!-- Node7&#45;&gt;Node10 -->
<g id="edge14" class="edge">
<title>Node7&#45;&gt;Node10</title>
<path fill="none" stroke="midnightblue" d="M129.18,-190.48C141.76,-182.34 161.16,-169.79 177.57,-159.18"/>
<polygon fill="midnightblue" stroke="midnightblue" points="179.82,-161.89 186.32,-153.52 176.02,-156.01 179.82,-161.89"/>
</g>
<!-- Node8&#45;&gt;Node3 -->
<g id="edge12" class="edge">
<title>Node8&#45;&gt;Node3</title>
<path fill="none" stroke="midnightblue" d="M355.83,-57.77C358.93,-57.15 362,-56.56 365,-56 456.11,-39.06 563.91,-23.82 620.61,-16.18"/>
<polygon fill="midnightblue" stroke="midnightblue" points="621.14,-19.64 630.58,-14.84 620.21,-12.7 621.14,-19.64"/>
</g>
<!-- Node8&#45;&gt;Node5 -->
<g id="edge11" class="edge">
<title>Node8&#45;&gt;Node5</title>
<path fill="none" stroke="midnightblue" d="M323.65,-56.4C340.32,-46.86 362.23,-34.32 378.81,-24.84"/>
<polygon fill="midnightblue" stroke="midnightblue" points="380.93,-27.66 387.87,-19.66 377.45,-21.59 380.93,-27.66"/>
</g>
<!-- Node10&#45;&gt;Node8 -->
<g id="edge16" class="edge">
<title>Node10&#45;&gt;Node8</title>
<path fill="none" stroke="midnightblue" d="M227.75,-123.4C240.39,-114.37 256.98,-102.51 270.97,-92.52"/>
<polygon fill="midnightblue" stroke="midnightblue" points="273.19,-95.24 279.29,-86.58 269.12,-89.54 273.19,-95.24"/>
</g>
<!-- Node10&#45;&gt;Node9 -->
<g id="edge15" class="edge">
<title>Node10&#45;&gt;Node9</title>
<path fill="none" stroke="midnightblue" d="M255.06,-123.46C286.42,-113.84 328.45,-100.42 365,-87 366.85,-86.32 368.75,-85.6 370.66,-84.86"/>
<polygon fill="midnightblue" stroke="midnightblue" points="372.14,-88.04 380.12,-81.06 369.54,-81.54 372.14,-88.04"/>
</g>
<!-- Node11&#45;&gt;Node9 -->
<g id="edge22" class="edge">
<title>Node11&#45;&gt;Node9</title>
<path fill="none" stroke="midnightblue" d="M553.5,-128.87C522.6,-117.52 468.14,-97.52 433.09,-84.65"/>
<polygon fill="midnightblue" stroke="midnightblue" points="433.91,-81.23 423.32,-81.06 431.5,-87.8 433.91,-81.23"/>
</g>
<!-- Node12 -->
<g id="node12" class="node">
<title>Node12</title>
<g id="a_node12"><a xlink:href="$_simple_publisher_8h.html" xlink:title=" ">
<polygon fill="none" stroke="black" points="522,-56.5 522,-86.5 632,-86.5 632,-56.5 522,-56.5"/>
<text text-anchor="start" x="530" y="-74.5" font-family="Helvetica,sans-Serif" font-size="10.00">../../core&#45;lib/include</text>
<text text-anchor="middle" x="577" y="-63.5" font-family="Helvetica,sans-Serif" font-size="10.00">/SimplePublisher.h</text>
</a>
</g>
</g>
<!-- Node11&#45;&gt;Node12 -->
<g id="edge19" class="edge">
<title>Node11&#45;&gt;Node12</title>
<path fill="none" stroke="midnightblue" d="M577,-128.73C577,-120.54 577,-107.92 577,-96.71"/>
<polygon fill="midnightblue" stroke="midnightblue" points="580.5,-96.59 577,-86.59 573.5,-96.59 580.5,-96.59"/>
</g>
<!-- Node12&#45;&gt;Node3 -->
<g id="edge20" class="edge">
<title>Node12&#45;&gt;Node3</title>
<path fill="none" stroke="midnightblue" d="M596.67,-56.4C609.6,-47.13 626.49,-35.03 639.57,-25.65"/>
<polygon fill="midnightblue" stroke="midnightblue" points="641.83,-28.33 647.92,-19.66 637.76,-22.64 641.83,-28.33"/>
</g>
<!-- Node12&#45;&gt;Node5 -->
<g id="edge21" class="edge">
<title>Node12&#45;&gt;Node5</title>
<path fill="none" stroke="midnightblue" d="M535.76,-56.4C505.51,-46.05 464.94,-32.18 436.64,-22.5"/>
<polygon fill="midnightblue" stroke="midnightblue" points="437.4,-19.07 426.81,-19.14 435.14,-25.69 437.4,-19.07"/>
</g>
<!-- Node13&#45;&gt;Node3 -->
<g id="edge25" class="edge">
<title>Node13&#45;&gt;Node3</title>
<path fill="none" stroke="midnightblue" d="M840.37,-246.44C830.39,-210.34 799.34,-113.18 741,-56 727.01,-42.29 708.01,-31.45 691.93,-23.84"/>
<polygon fill="midnightblue" stroke="midnightblue" points="692.92,-20.44 682.36,-19.52 690.04,-26.83 692.92,-20.44"/>
</g>
<!-- Node14 -->
<g id="node14" class="node">
<title>Node14</title>
<g id="a_node14"><a xlink:title=" ">
<polygon fill="none" stroke="#bfbfbf" points="762.5,-190.5 762.5,-209.5 809.5,-209.5 809.5,-190.5 762.5,-190.5"/>
<text text-anchor="middle" x="786" y="-197.5" font-family="Helvetica,sans-Serif" font-size="10.00">queue</text>
</a>
</g>
</g>
<!-- Node13&#45;&gt;Node14 -->
<g id="edge24" class="edge">
<title>Node13&#45;&gt;Node14</title>
<path fill="none" stroke="midnightblue" d="M830.25,-246.4C821.65,-237.58 810.55,-226.18 801.61,-217.02"/>
<polygon fill="midnightblue" stroke="midnightblue" points="803.93,-214.38 794.44,-209.66 798.91,-219.26 803.93,-214.38"/>
</g>
<!-- Node15&#45;&gt;Node2 -->
<g id="edge28" class="edge">
<title>Node15&#45;&gt;Node2</title>
<path fill="none" stroke="midnightblue" d="M352.14,-246.4C331.38,-236.59 303.9,-223.62 283.64,-214.05"/>
<polygon fill="midnightblue" stroke="midnightblue" points="284.87,-210.76 274.33,-209.66 281.88,-217.09 284.87,-210.76"/>
</g>
<!-- Node15&#45;&gt;Node3 -->
<g id="edge29" class="edge">
<title>Node15&#45;&gt;Node3</title>
<path fill="none" stroke="midnightblue" d="M381.79,-246.26C382.39,-230.1 386,-204.17 402,-190 479.46,-121.4 557.46,-225.76 632,-154 665.94,-121.33 665.32,-60.53 662.46,-29.8"/>
<polygon fill="midnightblue" stroke="midnightblue" points="665.91,-29.17 661.32,-19.62 658.95,-29.95 665.91,-29.17"/>
</g>
<!-- Node15&#45;&gt;Node6 -->
<g id="edge32" class="edge">
<title>Node15&#45;&gt;Node6</title>
<path fill="none" stroke="midnightblue" d="M360.7,-246.38C349.27,-237.46 336.27,-224.84 330,-210 322.8,-192.98 328.62,-172.07 334.79,-157.45"/>
<polygon fill="midnightblue" stroke="midnightblue" points="338.12,-158.62 339.18,-148.07 331.77,-155.65 338.12,-158.62"/>
</g>
<!-- Node15&#45;&gt;Node7 -->
<g id="edge34" class="edge">
<title>Node15&#45;&gt;Node7</title>
<path fill="none" stroke="midnightblue" d="M331.34,-249.17C278.09,-237.26 195.8,-218.85 149.9,-208.58"/>
<polygon fill="midnightblue" stroke="midnightblue" points="150.66,-205.17 140.14,-206.4 149.13,-212 150.66,-205.17"/>
</g>
<!-- Node15&#45;&gt;Node9 -->
<g id="edge33" class="edge">
<title>Node15&#45;&gt;Node9</title>
<path fill="none" stroke="midnightblue" d="M376.9,-246.13C373.63,-236.14 369.69,-222.44 368,-210 366.8,-201.19 366.47,-198.76 368,-190 370.93,-173.24 376.17,-170.31 381,-154 387.3,-132.72 392.85,-107.82 396.29,-91.19"/>
<polygon fill="midnightblue" stroke="midnightblue" points="399.77,-91.65 398.33,-81.15 392.91,-90.26 399.77,-91.65"/>
</g>
<!-- Node16 -->
<g id="node16" class="node">
<title>Node16</title>
<g id="a_node16"><a xlink:title=" ">
<polygon fill="none" stroke="#bfbfbf" points="410.5,-190.5 410.5,-209.5 475.5,-209.5 475.5,-190.5 410.5,-190.5"/>
<text text-anchor="middle" x="443" y="-197.5" font-family="Helvetica,sans-Serif" font-size="10.00">exception</text>
</a>
</g>
</g>
<!-- Node15&#45;&gt;Node16 -->
<g id="edge27" class="edge">
<title>Node15&#45;&gt;Node16</title>
<path fill="none" stroke="midnightblue" d="M396.46,-246.4C405.59,-237.49 417.42,-225.95 426.86,-216.74"/>
<polygon fill="midnightblue" stroke="midnightblue" points="429.41,-219.15 434.12,-209.66 424.52,-214.13 429.41,-219.15"/>
</g>
<!-- Node17 -->
<g id="node17" class="node">
<title>Node17</title>
<g id="a_node17"><a xlink:title=" ">
<polygon fill="none" stroke="#bfbfbf" points="493.5,-190.5 493.5,-209.5 544.5,-209.5 544.5,-190.5 493.5,-190.5"/>
<text text-anchor="middle" x="519" y="-197.5" font-family="Helvetica,sans-Serif" font-size="10.00">variant</text>
</a>
</g>
</g>
<!-- Node15&#45;&gt;Node17 -->
<g id="edge30" class="edge">
<title>Node15&#45;&gt;Node17</title>
<path fill="none" stroke="midnightblue" d="M414.47,-246.4C437.35,-236.46 467.73,-223.26 489.84,-213.66"/>
<polygon fill="midnightblue" stroke="midnightblue" points="491.29,-216.85 499.07,-209.66 488.5,-210.43 491.29,-216.85"/>
</g>
<!-- Node18 -->
<g id="node18" class="node">
<title>Node18</title>
<g id="a_node18"><a xlink:title=" ">
<polygon fill="none" stroke="#bfbfbf" points="563,-190.5 563,-209.5 623,-209.5 623,-190.5 563,-190.5"/>
<text text-anchor="middle" x="593" y="-197.5" font-family="Helvetica,sans-Serif" font-size="10.00">iostream</text>
</a>
</g>
</g>
<!-- Node15&#45;&gt;Node18 -->
<g id="edge31" class="edge">
<title>Node15&#45;&gt;Node18</title>
<path fill="none" stroke="midnightblue" d="M431.74,-246.47C468.77,-236.03 518.68,-221.96 553.12,-212.25"/>
<polygon fill="midnightblue" stroke="midnightblue" points="554.16,-215.59 562.83,-209.51 552.26,-208.85 554.16,-215.59"/>
</g>
<!-- Node19&#45;&gt;Node3 -->
<g id="edge36" class="edge">
<title>Node19&#45;&gt;Node3</title>
<path fill="none" stroke="midnightblue" d="M971.06,-123.22C978.79,-105.28 988.1,-74.59 972,-56 937.14,-15.75 775,-10.69 699.22,-10.58"/>
<polygon fill="midnightblue" stroke="midnightblue" points="699.12,-7.08 689.12,-10.59 699.13,-14.08 699.12,-7.08"/>
</g>
<!-- Node19&#45;&gt;Node12 -->
<g id="edge38" class="edge">
<title>Node19&#45;&gt;Node12</title>
<path fill="none" stroke="midnightblue" d="M913.41,-129C843.9,-117.33 718.8,-96.32 642.3,-83.47"/>
<polygon fill="midnightblue" stroke="midnightblue" points="642.74,-79.99 632.3,-81.79 641.58,-86.9 642.74,-79.99"/>
</g>
<!-- Node20 -->
<g id="node20" class="node">
<title>Node20</title>
<g id="a_node20"><a xlink:title=" ">
<polygon fill="none" stroke="#bfbfbf" points="913,-62 913,-81 963,-81 963,-62 913,-62"/>
<text text-anchor="middle" x="938" y="-69" font-family="Helvetica,sans-Serif" font-size="10.00">chrono</text>
</a>
</g>
</g>
<!-- Node19&#45;&gt;Node20 -->
<g id="edge37" class="edge">
<title>Node19&#45;&gt;Node20</title>
<path fill="none" stroke="midnightblue" d="M958.36,-123.4C954.51,-113.76 949.37,-100.91 945.21,-90.54"/>
<polygon fill="midnightblue" stroke="midnightblue" points="948.44,-89.18 941.48,-81.19 941.94,-91.78 948.44,-89.18"/>
</g>
<!-- Node21&#45;&gt;Node3 -->
<g id="edge40" class="edge">
<title>Node21&#45;&gt;Node3</title>
<path fill="none" stroke="midnightblue" d="M696.15,-313.5C707.16,-290.59 727,-243.42 727,-201 727,-201 727,-201 727,-137.5 727,-93.65 695.17,-50.15 675.39,-27.35"/>
<polygon fill="midnightblue" stroke="midnightblue" points="677.77,-24.77 668.49,-19.67 672.56,-29.44 677.77,-24.77"/>
</g>
<!-- Node21&#45;&gt;Node5 -->
<g id="edge41" class="edge">
<title>Node21&#45;&gt;Node5</title>
<path fill="none" stroke="midnightblue" d="M689.59,-313.43C690.34,-276.43 686.95,-175.66 632,-123 592.11,-84.77 562.77,-110.99 513,-87 478.08,-70.17 441.91,-42.96 420.98,-26.07"/>
<polygon fill="midnightblue" stroke="midnightblue" points="423.2,-23.36 413.24,-19.73 418.76,-28.77 423.2,-23.36"/>
</g>
<!-- Node21&#45;&gt;Node8 -->
<g id="edge43" class="edge">
<title>Node21&#45;&gt;Node8</title>
<path fill="none" stroke="midnightblue" d="M684.73,-313.16C675.08,-281.61 650.96,-207.56 632,-190 594.26,-155.05 570.61,-170.83 522,-154 460.85,-132.83 390.85,-106.98 345.84,-90.14"/>
<polygon fill="midnightblue" stroke="midnightblue" points="346.94,-86.82 336.34,-86.59 344.48,-93.37 346.94,-86.82"/>
</g>
<!-- Node21&#45;&gt;Node13 -->
<g id="edge44" class="edge">
<title>Node21&#45;&gt;Node13</title>
<path fill="none" stroke="midnightblue" d="M722.63,-313.4C745.58,-303.77 776.19,-290.94 800.92,-280.56"/>
<polygon fill="midnightblue" stroke="midnightblue" points="802.56,-283.67 810.43,-276.58 799.86,-277.22 802.56,-283.67"/>
</g>
<!-- Node21&#45;&gt;Node14 -->
<g id="edge42" class="edge">
<title>Node21&#45;&gt;Node14</title>
<path fill="none" stroke="midnightblue" d="M705.58,-313.48C716.39,-303.86 730.41,-290.44 741,-277 755.48,-258.62 768.68,-235.15 776.99,-219.19"/>
<polygon fill="midnightblue" stroke="midnightblue" points="780.29,-220.41 781.71,-209.91 774.05,-217.24 780.29,-220.41"/>
</g>
<!-- Node21&#45;&gt;Node15 -->
<g id="edge45" class="edge">
<title>Node21&#45;&gt;Node15</title>
<path fill="none" stroke="midnightblue" d="M641.37,-317.42C587.79,-306.07 500.68,-287.63 442.37,-275.28"/>
<polygon fill="midnightblue" stroke="midnightblue" points="443.06,-271.85 432.55,-273.2 441.61,-278.7 443.06,-271.85"/>
</g>
</g>
</svg>
