<?xml version="1.0" encoding="UTF-8" standalone="no"?>
<!DOCTYPE svg PUBLIC "-//W3C//DTD SVG 1.1//EN"
 "http://www.w3.org/Graphics/SVG/1.1/DTD/svg11.dtd">
<!-- Generated by graphviz version 2.43.0 (0)
 -->
<!-- Title: /home/tomek/CLionProjects/proi/proi&#45;projekt/src/tank&#45;lib/include/Entity.h Pages: 1 -->
<svg width="1224pt" height="440pt"
 viewBox="0.00 0.00 1224.00 440.00" xmlns="http://www.w3.org/2000/svg" xmlns:xlink="http://www.w3.org/1999/xlink">
<g id="graph0" class="graph" transform="scale(1 1) rotate(0) translate(4 436)">
<title>/home/tomek/CLionProjects/proi/proi&#45;projekt/src/tank&#45;lib/include/Entity.h</title>
<!-- Node1 -->
<g id="node1" class="node">
<title>Node1</title>
<g id="a_node1"><a xlink:title=" ">
<polygon fill="#bfbfbf" stroke="black" points="693,-390.5 693,-431.5 844,-431.5 844,-390.5 693,-390.5"/>
<text text-anchor="start" x="701" y="-419.5" font-family="Helvetica,sans-Serif" font-size="10.00">/home/tomek/CLionProjects</text>
<text text-anchor="start" x="701" y="-408.5" font-family="Helvetica,sans-Serif" font-size="10.00">/proi/proi&#45;projekt/src</text>
<text text-anchor="middle" x="768.5" y="-397.5" font-family="Helvetica,sans-Serif" font-size="10.00">/tank&#45;lib/include/Entity.h</text>
</a>
</g>
</g>
<!-- Node2 -->
<g id="node2" class="node">
<title>Node2</title>
<g id="a_node2"><a xlink:href="$_entity_8cpp.html" xlink:title=" ">
<polygon fill="none" stroke="black" points="524,-312.5 524,-353.5 675,-353.5 675,-312.5 524,-312.5"/>
<text text-anchor="start" x="532" y="-341.5" font-family="Helvetica,sans-Serif" font-size="10.00">/home/tomek/CLionProjects</text>
<text text-anchor="start" x="532" y="-330.5" font-family="Helvetica,sans-Serif" font-size="10.00">/proi/proi&#45;projekt/src</text>
<text text-anchor="middle" x="599.5" y="-319.5" font-family="Helvetica,sans-Serif" font-size="10.00">/tank&#45;lib/Entity.cpp</text>
</a>
</g>
</g>
<!-- Node1&#45;&gt;Node2 -->
<g id="edge1" class="edge">
<title>Node1&#45;&gt;Node2</title>
<path fill="none" stroke="midnightblue" d="M715.55,-386.19C692.17,-375.67 665.03,-363.47 642.87,-353.51"/>
<polygon fill="midnightblue" stroke="midnightblue" points="714.42,-389.52 724.98,-390.43 717.29,-383.13 714.42,-389.52"/>
</g>
<!-- Node3 -->
<g id="node3" class="node">
<title>Node3</title>
<g id="a_node3"><a xlink:href="$_bullet_8h.html" xlink:title=" ">
<polygon fill="none" stroke="black" points="906,-234.5 906,-275.5 1057,-275.5 1057,-234.5 906,-234.5"/>
<text text-anchor="start" x="914" y="-263.5" font-family="Helvetica,sans-Serif" font-size="10.00">/home/tomek/CLionProjects</text>
<text text-anchor="start" x="914" y="-252.5" font-family="Helvetica,sans-Serif" font-size="10.00">/proi/proi&#45;projekt/src</text>
<text text-anchor="middle" x="981.5" y="-241.5" font-family="Helvetica,sans-Serif" font-size="10.00">/tank&#45;lib/include/Bullet.h</text>
</a>
</g>
</g>
<!-- Node1&#45;&gt;Node3 -->
<g id="edge2" class="edge">
<title>Node1&#45;&gt;Node3</title>
<path fill="none" stroke="midnightblue" d="M808.24,-384.65C822.64,-375.25 838.95,-364.34 853.5,-354 890.23,-327.89 931.38,-295.86 956.87,-275.68"/>
<polygon fill="midnightblue" stroke="midnightblue" points="806.02,-381.92 799.54,-390.3 809.84,-387.79 806.02,-381.92"/>
</g>
<!-- Node9 -->
<g id="node9" class="node">
<title>Node9</title>
<g id="a_node9"><a xlink:href="$_tank_8h.html" xlink:title=" ">
<polygon fill="none" stroke="black" points="693,-312.5 693,-353.5 844,-353.5 844,-312.5 693,-312.5"/>
<text text-anchor="start" x="701" y="-341.5" font-family="Helvetica,sans-Serif" font-size="10.00">/home/tomek/CLionProjects</text>
<text text-anchor="start" x="701" y="-330.5" font-family="Helvetica,sans-Serif" font-size="10.00">/proi/proi&#45;projekt/src</text>
<text text-anchor="middle" x="768.5" y="-319.5" font-family="Helvetica,sans-Serif" font-size="10.00">/tank&#45;lib/include/Tank.h</text>
</a>
</g>
</g>
<!-- Node1&#45;&gt;Node9 -->
<g id="edge8" class="edge">
<title>Node1&#45;&gt;Node9</title>
<path fill="none" stroke="midnightblue" d="M768.5,-380.3C768.5,-371.3 768.5,-361.65 768.5,-353.51"/>
<polygon fill="midnightblue" stroke="midnightblue" points="765,-380.43 768.5,-390.43 772,-380.43 765,-380.43"/>
</g>
<!-- Node4 -->
<g id="node4" class="node">
<title>Node4</title>
<g id="a_node4"><a xlink:href="$_board_8cpp.html" xlink:title=" ">
<polygon fill="none" stroke="black" points="688,-78.5 688,-119.5 839,-119.5 839,-78.5 688,-78.5"/>
<text text-anchor="start" x="696" y="-107.5" font-family="Helvetica,sans-Serif" font-size="10.00">/home/tomek/CLionProjects</text>
<text text-anchor="start" x="696" y="-96.5" font-family="Helvetica,sans-Serif" font-size="10.00">/proi/proi&#45;projekt/src</text>
<text text-anchor="middle" x="763.5" y="-85.5" font-family="Helvetica,sans-Serif" font-size="10.00">/board&#45;lib/Board.cpp</text>
</a>
</g>
</g>
<!-- Node3&#45;&gt;Node4 -->
<g id="edge3" class="edge">
<title>Node3&#45;&gt;Node4</title>
<path fill="none" stroke="midnightblue" d="M989.52,-224.58C993.45,-203.3 994.55,-175.05 979.5,-156 961.97,-133.81 894.18,-118.72 839.16,-109.84"/>
<polygon fill="midnightblue" stroke="midnightblue" points="986.09,-223.89 987.43,-234.4 992.94,-225.35 986.09,-223.89"/>
</g>
<!-- Node5 -->
<g id="node5" class="node">
<title>Node5</title>
<g id="a_node5"><a xlink:href="$_active_event_handler_8cpp.html" xlink:title=" ">
<polygon fill="none" stroke="black" points="945.5,-0.5 945.5,-41.5 1127.5,-41.5 1127.5,-0.5 945.5,-0.5"/>
<text text-anchor="start" x="953.5" y="-29.5" font-family="Helvetica,sans-Serif" font-size="10.00">/home/tomek/CLionProjects</text>
<text text-anchor="start" x="953.5" y="-18.5" font-family="Helvetica,sans-Serif" font-size="10.00">/proi/proi&#45;projekt/src</text>
<text text-anchor="middle" x="1036.5" y="-7.5" font-family="Helvetica,sans-Serif" font-size="10.00">/game&#45;lib/ActiveEventHandler.cpp</text>
</a>
</g>
</g>
<!-- Node3&#45;&gt;Node5 -->
<g id="edge4" class="edge">
<title>Node3&#45;&gt;Node5</title>
<path fill="none" stroke="midnightblue" d="M991.5,-224.85C994.28,-216.26 997.17,-206.8 999.5,-198 1014.38,-141.86 1027.17,-74.39 1033.05,-41.69"/>
<polygon fill="midnightblue" stroke="midnightblue" points="988.14,-223.86 988.33,-234.45 994.79,-226.05 988.14,-223.86"/>
</g>
<!-- Node6 -->
<g id="node6" class="node">
<title>Node6</title>
<g id="a_node6"><a xlink:href="$_bullet_8cpp.html" xlink:title=" ">
<polygon fill="none" stroke="black" points="1065,-156.5 1065,-197.5 1216,-197.5 1216,-156.5 1065,-156.5"/>
<text text-anchor="start" x="1073" y="-185.5" font-family="Helvetica,sans-Serif" font-size="10.00">/home/tomek/CLionProjects</text>
<text text-anchor="start" x="1073" y="-174.5" font-family="Helvetica,sans-Serif" font-size="10.00">/proi/proi&#45;projekt/src</text>
<text text-anchor="middle" x="1140.5" y="-163.5" font-family="Helvetica,sans-Serif" font-size="10.00">/tank&#45;lib/Bullet.cpp</text>
</a>
</g>
</g>
<!-- Node3&#45;&gt;Node6 -->
<g id="edge5" class="edge">
<title>Node3&#45;&gt;Node6</title>
<path fill="none" stroke="midnightblue" d="M1031.61,-230.05C1053.54,-219.57 1078.94,-207.42 1099.69,-197.51"/>
<polygon fill="midnightblue" stroke="midnightblue" points="1029.96,-226.96 1022.45,-234.43 1032.98,-233.27 1029.96,-226.96"/>
</g>
<!-- Node7 -->
<g id="node7" class="node">
<title>Node7</title>
<g id="a_node7"><a xlink:href="$_entity_controller_8cpp.html" xlink:title=" ">
<polygon fill="none" stroke="black" points="606.5,-156.5 606.5,-197.5 762.5,-197.5 762.5,-156.5 606.5,-156.5"/>
<text text-anchor="start" x="614.5" y="-185.5" font-family="Helvetica,sans-Serif" font-size="10.00">/home/tomek/CLionProjects</text>
<text text-anchor="start" x="614.5" y="-174.5" font-family="Helvetica,sans-Serif" font-size="10.00">/proi/proi&#45;projekt/src</text>
<text text-anchor="middle" x="684.5" y="-163.5" font-family="Helvetica,sans-Serif" font-size="10.00">/tank&#45;lib/EntityController.cpp</text>
</a>
</g>
</g>
<!-- Node3&#45;&gt;Node7 -->
<g id="edge6" class="edge">
<title>Node3&#45;&gt;Node7</title>
<path fill="none" stroke="midnightblue" d="M895.98,-232.12C853.33,-221.2 802.17,-208.11 760.85,-197.54"/>
<polygon fill="midnightblue" stroke="midnightblue" points="895.23,-235.54 905.79,-234.63 896.97,-228.76 895.23,-235.54"/>
</g>
<!-- Node8 -->
<g id="node8" class="node">
<title>Node8</title>
<g id="a_node8"><a xlink:href="$_tank_8cpp.html" xlink:title=" ">
<polygon fill="none" stroke="black" points="819,-156.5 819,-197.5 970,-197.5 970,-156.5 819,-156.5"/>
<text text-anchor="start" x="827" y="-185.5" font-family="Helvetica,sans-Serif" font-size="10.00">/home/tomek/CLionProjects</text>
<text text-anchor="start" x="827" y="-174.5" font-family="Helvetica,sans-Serif" font-size="10.00">/proi/proi&#45;projekt/src</text>
<text text-anchor="middle" x="894.5" y="-163.5" font-family="Helvetica,sans-Serif" font-size="10.00">/tank&#45;lib/Tank.cpp</text>
</a>
</g>
</g>
<!-- Node3&#45;&gt;Node8 -->
<g id="edge7" class="edge">
<title>Node3&#45;&gt;Node8</title>
<path fill="none" stroke="midnightblue" d="M951.48,-227.78C940.11,-217.84 927.37,-206.72 916.83,-197.51"/>
<polygon fill="midnightblue" stroke="midnightblue" points="949.26,-230.49 959.1,-234.43 953.87,-225.21 949.26,-230.49"/>
</g>
<!-- Node9&#45;&gt;Node4 -->
<g id="edge9" class="edge">
<title>Node9&#45;&gt;Node4</title>
<path fill="none" stroke="midnightblue" d="M770.59,-302.41C772.69,-267.41 775.15,-207.38 771.5,-156 770.64,-143.85 768.73,-130.33 767,-119.62"/>
<polygon fill="midnightblue" stroke="midnightblue" points="767.09,-302.24 769.95,-312.44 774.08,-302.68 767.09,-302.24"/>
</g>
<!-- Node9&#45;&gt;Node7 -->
<g id="edge21" class="edge">
<title>Node9&#45;&gt;Node7</title>
<path fill="none" stroke="midnightblue" d="M754.95,-303.11C745.48,-283.39 732.29,-256.81 719.5,-234 712.6,-221.7 704.25,-208.29 697.44,-197.68"/>
<polygon fill="midnightblue" stroke="midnightblue" points="751.81,-304.67 759.28,-312.19 758.13,-301.66 751.81,-304.67"/>
</g>
<!-- Node9&#45;&gt;Node8 -->
<g id="edge22" class="edge">
<title>Node9&#45;&gt;Node8</title>
<path fill="none" stroke="midnightblue" d="M790.8,-304.75C815.88,-274.1 856,-225.05 878.27,-197.83"/>
<polygon fill="midnightblue" stroke="midnightblue" points="788.08,-302.54 784.46,-312.5 793.5,-306.97 788.08,-302.54"/>
</g>
<!-- Node10 -->
<g id="node10" class="node">
<title>Node10</title>
<g id="a_node10"><a xlink:href="$_board_8h.html" xlink:title=" ">
<polygon fill="none" stroke="black" points="399,-156.5 399,-197.5 550,-197.5 550,-156.5 399,-156.5"/>
<text text-anchor="start" x="407" y="-185.5" font-family="Helvetica,sans-Serif" font-size="10.00">/home/tomek/CLionProjects</text>
<text text-anchor="start" x="407" y="-174.5" font-family="Helvetica,sans-Serif" font-size="10.00">/proi/proi&#45;projekt/src</text>
<text text-anchor="middle" x="474.5" y="-163.5" font-family="Helvetica,sans-Serif" font-size="10.00">/board&#45;lib/include/Board.h</text>
</a>
</g>
</g>
<!-- Node9&#45;&gt;Node10 -->
<g id="edge10" class="edge">
<title>Node9&#45;&gt;Node10</title>
<path fill="none" stroke="midnightblue" d="M683.05,-311.86C607.61,-297.44 573.9,-322.06 517.5,-276 493.32,-256.26 482.36,-220.22 477.68,-197.78"/>
<polygon fill="midnightblue" stroke="midnightblue" points="682.46,-315.31 692.96,-313.93 683.89,-308.46 682.46,-315.31"/>
</g>
<!-- Node17 -->
<g id="node17" class="node">
<title>Node17</title>
<g id="a_node17"><a xlink:href="$_entity_controller_8h.html" xlink:title=" ">
<polygon fill="none" stroke="black" points="527,-234.5 527,-275.5 710,-275.5 710,-234.5 527,-234.5"/>
<text text-anchor="start" x="535" y="-263.5" font-family="Helvetica,sans-Serif" font-size="10.00">/home/tomek/CLionProjects</text>
<text text-anchor="start" x="535" y="-252.5" font-family="Helvetica,sans-Serif" font-size="10.00">/proi/proi&#45;projekt/src</text>
<text text-anchor="middle" x="618.5" y="-241.5" font-family="Helvetica,sans-Serif" font-size="10.00">/tank&#45;lib/include/EntityController.h</text>
</a>
</g>
</g>
<!-- Node9&#45;&gt;Node17 -->
<g id="edge23" class="edge">
<title>Node9&#45;&gt;Node17</title>
<path fill="none" stroke="midnightblue" d="M720.95,-307.91C700.33,-297.46 676.49,-285.38 657,-275.51"/>
<polygon fill="midnightblue" stroke="midnightblue" points="719.37,-311.03 729.87,-312.43 722.53,-304.79 719.37,-311.03"/>
</g>
<!-- Node10&#45;&gt;Node4 -->
<g id="edge11" class="edge">
<title>Node10&#45;&gt;Node4</title>
<path fill="none" stroke="midnightblue" d="M558.7,-153.86C600.05,-142.98 649.42,-130 689.33,-119.51"/>
<polygon fill="midnightblue" stroke="midnightblue" points="557.71,-150.5 548.92,-156.43 559.49,-157.27 557.71,-150.5"/>
</g>
<!-- Node10&#45;&gt;Node5 -->
<g id="edge12" class="edge">
<title>Node10&#45;&gt;Node5</title>
<path fill="none" stroke="midnightblue" d="M516.07,-151.43C556.44,-128.72 620.15,-95.87 679.5,-78 789.94,-44.74 822.79,-61.32 936.5,-42 939.38,-41.51 942.3,-41 945.25,-40.48"/>
<polygon fill="midnightblue" stroke="midnightblue" points="514.29,-148.42 507.32,-156.4 517.74,-154.5 514.29,-148.42"/>
</g>
<!-- Node11 -->
<g id="node11" class="node">
<title>Node11</title>
<g id="a_node11"><a xlink:href="$_game_8cpp.html" xlink:title=" ">
<polygon fill="none" stroke="black" points="0,-0.5 0,-41.5 151,-41.5 151,-0.5 0,-0.5"/>
<text text-anchor="start" x="8" y="-29.5" font-family="Helvetica,sans-Serif" font-size="10.00">/home/tomek/CLionProjects</text>
<text text-anchor="start" x="8" y="-18.5" font-family="Helvetica,sans-Serif" font-size="10.00">/proi/proi&#45;projekt/src</text>
<text text-anchor="middle" x="75.5" y="-7.5" font-family="Helvetica,sans-Serif" font-size="10.00">/game&#45;lib/Game.cpp</text>
</a>
</g>
</g>
<!-- Node10&#45;&gt;Node11 -->
<g id="edge13" class="edge">
<title>Node10&#45;&gt;Node11</title>
<path fill="none" stroke="midnightblue" d="M414.21,-152.73C335.69,-122.42 199.78,-69.97 126.25,-41.59"/>
<polygon fill="midnightblue" stroke="midnightblue" points="413.38,-156.16 423.97,-156.5 415.9,-149.63 413.38,-156.16"/>
</g>
<!-- Node12 -->
<g id="node12" class="node">
<title>Node12</title>
<g id="a_node12"><a xlink:href="$_game_8h.html" xlink:title=" ">
<polygon fill="none" stroke="black" points="399,-78.5 399,-119.5 550,-119.5 550,-78.5 399,-78.5"/>
<text text-anchor="start" x="407" y="-107.5" font-family="Helvetica,sans-Serif" font-size="10.00">/home/tomek/CLionProjects</text>
<text text-anchor="start" x="407" y="-96.5" font-family="Helvetica,sans-Serif" font-size="10.00">/proi/proi&#45;projekt/src</text>
<text text-anchor="middle" x="474.5" y="-85.5" font-family="Helvetica,sans-Serif" font-size="10.00">/game&#45;lib/include/Game.h</text>
</a>
</g>
</g>
<!-- Node10&#45;&gt;Node12 -->
<g id="edge14" class="edge">
<title>Node10&#45;&gt;Node12</title>
<path fill="none" stroke="midnightblue" d="M474.5,-146.3C474.5,-137.3 474.5,-127.65 474.5,-119.51"/>
<polygon fill="midnightblue" stroke="midnightblue" points="471,-146.43 474.5,-156.43 478,-146.43 471,-146.43"/>
</g>
<!-- Node12&#45;&gt;Node5 -->
<g id="edge15" class="edge">
<title>Node12&#45;&gt;Node5</title>
<path fill="none" stroke="midnightblue" d="M560.22,-85.73C579.39,-83.09 599.63,-80.38 618.5,-78 759.62,-60.21 795.97,-63.97 936.5,-42 939.39,-41.55 942.32,-41.07 945.27,-40.58"/>
<polygon fill="midnightblue" stroke="midnightblue" points="559.73,-82.27 550.31,-87.11 560.69,-89.2 559.73,-82.27"/>
</g>
<!-- Node12&#45;&gt;Node11 -->
<g id="edge17" class="edge">
<title>Node12&#45;&gt;Node11</title>
<path fill="none" stroke="midnightblue" d="M388.84,-84.02C325.58,-73.38 237.45,-57.9 160.5,-42 157.53,-41.39 154.51,-40.75 151.45,-40.09"/>
<polygon fill="midnightblue" stroke="midnightblue" points="388.34,-87.49 398.78,-85.69 389.49,-80.58 388.34,-87.49"/>
</g>
<!-- Node13 -->
<g id="node13" class="node">
<title>Node13</title>
<g id="a_node13"><a xlink:href="$_finished_event_handler_8cpp.html" xlink:title=" ">
<polygon fill="none" stroke="black" points="537.5,-0.5 537.5,-41.5 729.5,-41.5 729.5,-0.5 537.5,-0.5"/>
<text text-anchor="start" x="545.5" y="-29.5" font-family="Helvetica,sans-Serif" font-size="10.00">/home/tomek/CLionProjects</text>
<text text-anchor="start" x="545.5" y="-18.5" font-family="Helvetica,sans-Serif" font-size="10.00">/proi/proi&#45;projekt/src</text>
<text text-anchor="middle" x="633.5" y="-7.5" font-family="Helvetica,sans-Serif" font-size="10.00">/game&#45;lib/FinishedEventHandler.cpp</text>
</a>
</g>
</g>
<!-- Node12&#45;&gt;Node13 -->
<g id="edge16" class="edge">
<title>Node12&#45;&gt;Node13</title>
<path fill="none" stroke="midnightblue" d="M524.61,-74.05C546.54,-63.57 571.94,-51.42 592.69,-41.51"/>
<polygon fill="midnightblue" stroke="midnightblue" points="522.96,-70.96 515.45,-78.43 525.98,-77.27 522.96,-70.96"/>
</g>
<!-- Node14 -->
<g id="node14" class="node">
<title>Node14</title>
<g id="a_node14"><a xlink:href="$_menu_event_handler_8cpp.html" xlink:title=" ">
<polygon fill="none" stroke="black" points="748,-0.5 748,-41.5 927,-41.5 927,-0.5 748,-0.5"/>
<text text-anchor="start" x="756" y="-29.5" font-family="Helvetica,sans-Serif" font-size="10.00">/home/tomek/CLionProjects</text>
<text text-anchor="start" x="756" y="-18.5" font-family="Helvetica,sans-Serif" font-size="10.00">/proi/proi&#45;projekt/src</text>
<text text-anchor="middle" x="837.5" y="-7.5" font-family="Helvetica,sans-Serif" font-size="10.00">/game&#45;lib/MenuEventHandler.cpp</text>
</a>
</g>
</g>
<!-- Node12&#45;&gt;Node14 -->
<g id="edge18" class="edge">
<title>Node12&#45;&gt;Node14</title>
<path fill="none" stroke="midnightblue" d="M560.14,-80.07C616.64,-68.24 690.54,-52.77 747.84,-40.77"/>
<polygon fill="midnightblue" stroke="midnightblue" points="559.23,-76.69 550.15,-82.16 560.66,-83.54 559.23,-76.69"/>
</g>
<!-- Node15 -->
<g id="node15" class="node">
<title>Node15</title>
<g id="a_node15"><a xlink:href="$_pause_event_handler_8cpp.html" xlink:title=" ">
<polygon fill="none" stroke="black" points="169.5,-0.5 169.5,-41.5 349.5,-41.5 349.5,-0.5 169.5,-0.5"/>
<text text-anchor="start" x="177.5" y="-29.5" font-family="Helvetica,sans-Serif" font-size="10.00">/home/tomek/CLionProjects</text>
<text text-anchor="start" x="177.5" y="-18.5" font-family="Helvetica,sans-Serif" font-size="10.00">/proi/proi&#45;projekt/src</text>
<text text-anchor="middle" x="259.5" y="-7.5" font-family="Helvetica,sans-Serif" font-size="10.00">/game&#45;lib/PauseEventHandler.cpp</text>
</a>
</g>
</g>
<!-- Node12&#45;&gt;Node15 -->
<g id="edge19" class="edge">
<title>Node12&#45;&gt;Node15</title>
<path fill="none" stroke="midnightblue" d="M409.51,-75.03C379.24,-64.33 343.62,-51.73 314.68,-41.51"/>
<polygon fill="midnightblue" stroke="midnightblue" points="408.54,-78.4 419.13,-78.43 410.87,-71.8 408.54,-78.4"/>
</g>
<!-- Node16 -->
<g id="node16" class="node">
<title>Node16</title>
<g id="a_node16"><a xlink:href="$tanks_8cpp.html" xlink:title=" ">
<polygon fill="none" stroke="black" points="368,-0.5 368,-41.5 519,-41.5 519,-0.5 368,-0.5"/>
<text text-anchor="start" x="376" y="-29.5" font-family="Helvetica,sans-Serif" font-size="10.00">/home/tomek/CLionProjects</text>
<text text-anchor="start" x="376" y="-18.5" font-family="Helvetica,sans-Serif" font-size="10.00">/proi/proi&#45;projekt/src</text>
<text text-anchor="middle" x="443.5" y="-7.5" font-family="Helvetica,sans-Serif" font-size="10.00">/main/tanks.cpp</text>
</a>
</g>
</g>
<!-- Node12&#45;&gt;Node16 -->
<g id="edge20" class="edge">
<title>Node12&#45;&gt;Node16</title>
<path fill="none" stroke="midnightblue" d="M462.62,-68.88C458.89,-59.72 454.85,-49.83 451.46,-41.51"/>
<polygon fill="midnightblue" stroke="midnightblue" points="459.5,-70.49 466.52,-78.43 465.98,-67.85 459.5,-70.49"/>
</g>
<!-- Node17&#45;&gt;Node4 -->
<g id="edge24" class="edge">
<title>Node17&#45;&gt;Node4</title>
<path fill="none" stroke="midnightblue" d="M601.37,-225.43C591.25,-204.46 582.98,-176.22 597.5,-156 608.72,-140.37 649.38,-126.52 687.65,-116.5"/>
<polygon fill="midnightblue" stroke="midnightblue" points="598.37,-227.23 606.08,-234.49 604.58,-224.01 598.37,-227.23"/>
</g>
<!-- Node17&#45;&gt;Node7 -->
<g id="edge26" class="edge">
<title>Node17&#45;&gt;Node7</title>
<path fill="none" stroke="midnightblue" d="M642.27,-226.63C650.64,-216.99 659.87,-206.36 667.56,-197.51"/>
<polygon fill="midnightblue" stroke="midnightblue" points="639.41,-224.58 635.5,-234.43 644.7,-229.17 639.41,-224.58"/>
</g>
<!-- Node17&#45;&gt;Node10 -->
<g id="edge25" class="edge">
<title>Node17&#45;&gt;Node10</title>
<path fill="none" stroke="midnightblue" d="M572.32,-229.63C552.64,-219.24 530,-207.29 511.46,-197.51"/>
<polygon fill="midnightblue" stroke="midnightblue" points="570.94,-232.86 581.42,-234.43 574.21,-226.67 570.94,-232.86"/>
</g>
</g>
</svg>
