<?xml version="1.0" encoding="UTF-8" standalone="no"?>
<!DOCTYPE svg PUBLIC "-//W3C//DTD SVG 1.1//EN"
 "http://www.w3.org/Graphics/SVG/1.1/DTD/svg11.dtd">
<!-- Generated by graphviz version 2.43.0 (0)
 -->
<!-- Title: /home/tomek/CLionProjects/proi/proi&#45;projekt/src/core&#45;lib/include/EventHandler.h Pages: 1 -->
<svg width="353pt" height="274pt"
 viewBox="0.00 0.00 352.50 274.00" xmlns="http://www.w3.org/2000/svg" xmlns:xlink="http://www.w3.org/1999/xlink">
<g id="graph0" class="graph" transform="scale(1 1) rotate(0) translate(4 270)">
<title>/home/tomek/CLionProjects/proi/proi&#45;projekt/src/core&#45;lib/include/EventHandler.h</title>
<!-- Node1 -->
<g id="node1" class="node">
<title>Node1</title>
<g id="a_node1"><a xlink:title=" ">
<polygon fill="#bfbfbf" stroke="black" points="0,-224.5 0,-265.5 172,-265.5 172,-224.5 0,-224.5"/>
<text text-anchor="start" x="8" y="-253.5" font-family="Helvetica,sans-Serif" font-size="10.00">/home/tomek/CLionProjects</text>
<text text-anchor="start" x="8" y="-242.5" font-family="Helvetica,sans-Serif" font-size="10.00">/proi/proi&#45;projekt/src</text>
<text text-anchor="middle" x="86" y="-231.5" font-family="Helvetica,sans-Serif" font-size="10.00">/core&#45;lib/include/EventHandler.h</text>
</a>
</g>
</g>
<!-- Node2 -->
<g id="node2" class="node">
<title>Node2</title>
<g id="a_node2"><a xlink:title=" ">
<polygon fill="none" stroke="#bfbfbf" points="20,-0.5 20,-19.5 78,-19.5 78,-0.5 20,-0.5"/>
<text text-anchor="middle" x="49" y="-7.5" font-family="Helvetica,sans-Serif" font-size="10.00">memory</text>
</a>
</g>
</g>
<!-- Node1&#45;&gt;Node2 -->
<g id="edge1" class="edge">
<title>Node1&#45;&gt;Node2</title>
<path fill="none" stroke="midnightblue" d="M82.85,-224.13C75.79,-179.68 58.8,-72.73 51.94,-29.54"/>
<polygon fill="midnightblue" stroke="midnightblue" points="55.39,-28.91 50.36,-19.59 48.48,-30.01 55.39,-28.91"/>
</g>
<!-- Node3 -->
<g id="node3" class="node">
<title>Node3</title>
<g id="a_node3"><a xlink:href="$_event_8h.html" xlink:title=" ">
<polygon fill="none" stroke="black" points="94.5,-56.5 94.5,-75.5 147.5,-75.5 147.5,-56.5 94.5,-56.5"/>
<text text-anchor="middle" x="121" y="-63.5" font-family="Helvetica,sans-Serif" font-size="10.00">Event.h</text>
</a>
</g>
</g>
<!-- Node1&#45;&gt;Node3 -->
<g id="edge2" class="edge">
<title>Node1&#45;&gt;Node3</title>
<path fill="none" stroke="midnightblue" d="M89.88,-224.38C96.69,-189.93 110.71,-119.04 117.35,-85.44"/>
<polygon fill="midnightblue" stroke="midnightblue" points="120.8,-86.07 119.3,-75.58 113.93,-84.71 120.8,-86.07"/>
</g>
<!-- Node6 -->
<g id="node6" class="node">
<title>Node6</title>
<g id="a_node6"><a xlink:href="$_event_publisher_8h.html" xlink:title=" ">
<polygon fill="none" stroke="black" points="155,-168.5 155,-187.5 253,-187.5 253,-168.5 155,-168.5"/>
<text text-anchor="middle" x="204" y="-175.5" font-family="Helvetica,sans-Serif" font-size="10.00">EventPublisher.h</text>
</a>
</g>
</g>
<!-- Node1&#45;&gt;Node6 -->
<g id="edge6" class="edge">
<title>Node1&#45;&gt;Node6</title>
<path fill="none" stroke="midnightblue" d="M121.4,-224.5C140.02,-214.24 162.38,-201.93 179.14,-192.69"/>
<polygon fill="midnightblue" stroke="midnightblue" points="181.22,-195.54 188.29,-187.65 177.84,-189.41 181.22,-195.54"/>
</g>
<!-- Node3&#45;&gt;Node2 -->
<g id="edge5" class="edge">
<title>Node3&#45;&gt;Node2</title>
<path fill="none" stroke="midnightblue" d="M109.43,-56.32C98.58,-48.18 82.12,-35.84 69.12,-26.09"/>
<polygon fill="midnightblue" stroke="midnightblue" points="70.88,-23.03 60.78,-19.83 66.68,-28.63 70.88,-23.03"/>
</g>
<!-- Node4 -->
<g id="node4" class="node">
<title>Node4</title>
<g id="a_node4"><a xlink:title=" ">
<polygon fill="none" stroke="#bfbfbf" points="160.5,-0.5 160.5,-19.5 225.5,-19.5 225.5,-0.5 160.5,-0.5"/>
<text text-anchor="middle" x="193" y="-7.5" font-family="Helvetica,sans-Serif" font-size="10.00">exception</text>
</a>
</g>
</g>
<!-- Node3&#45;&gt;Node4 -->
<g id="edge3" class="edge">
<title>Node3&#45;&gt;Node4</title>
<path fill="none" stroke="midnightblue" d="M132.57,-56.32C143.42,-48.18 159.88,-35.84 172.88,-26.09"/>
<polygon fill="midnightblue" stroke="midnightblue" points="175.32,-28.63 181.22,-19.83 171.12,-23.03 175.32,-28.63"/>
</g>
<!-- Node5 -->
<g id="node5" class="node">
<title>Node5</title>
<g id="a_node5"><a xlink:title=" ">
<polygon fill="none" stroke="#bfbfbf" points="98,-0.5 98,-19.5 142,-19.5 142,-0.5 98,-0.5"/>
<text text-anchor="middle" x="120" y="-7.5" font-family="Helvetica,sans-Serif" font-size="10.00">string</text>
</a>
</g>
</g>
<!-- Node3&#45;&gt;Node5 -->
<g id="edge4" class="edge">
<title>Node3&#45;&gt;Node5</title>
<path fill="none" stroke="midnightblue" d="M120.83,-56.08C120.7,-49.01 120.52,-38.86 120.35,-29.99"/>
<polygon fill="midnightblue" stroke="midnightblue" points="123.85,-29.68 120.16,-19.75 116.85,-29.81 123.85,-29.68"/>
</g>
<!-- Node6&#45;&gt;Node3 -->
<g id="edge9" class="edge">
<title>Node6&#45;&gt;Node3</title>
<path fill="none" stroke="midnightblue" d="M187.27,-168.44C173.58,-160.65 154.64,-147.94 143,-132 132.91,-118.18 127.22,-99.41 124.16,-85.6"/>
<polygon fill="midnightblue" stroke="midnightblue" points="127.6,-84.91 122.25,-75.76 120.72,-86.25 127.6,-84.91"/>
</g>
<!-- Node7 -->
<g id="node7" class="node">
<title>Node7</title>
<g id="a_node7"><a xlink:title=" ">
<polygon fill="none" stroke="#bfbfbf" points="240,-56.5 240,-75.5 278,-75.5 278,-56.5 240,-56.5"/>
<text text-anchor="middle" x="259" y="-63.5" font-family="Helvetica,sans-Serif" font-size="10.00">map</text>
</a>
</g>
</g>
<!-- Node6&#45;&gt;Node7 -->
<g id="edge7" class="edge">
<title>Node6&#45;&gt;Node7</title>
<path fill="none" stroke="midnightblue" d="M223.91,-168.41C238.22,-161.04 256.46,-148.92 265,-132 272.34,-117.47 269.55,-98.79 265.7,-85.18"/>
<polygon fill="midnightblue" stroke="midnightblue" points="268.98,-83.96 262.54,-75.54 262.32,-86.13 268.98,-83.96"/>
</g>
<!-- Node8 -->
<g id="node8" class="node">
<title>Node8</title>
<g id="a_node8"><a xlink:title=" ">
<polygon fill="none" stroke="#bfbfbf" points="297.5,-56.5 297.5,-75.5 344.5,-75.5 344.5,-56.5 297.5,-56.5"/>
<text text-anchor="middle" x="321" y="-63.5" font-family="Helvetica,sans-Serif" font-size="10.00">vector</text>
</a>
</g>
</g>
<!-- Node6&#45;&gt;Node8 -->
<g id="edge8" class="edge">
<title>Node6&#45;&gt;Node8</title>
<path fill="none" stroke="midnightblue" d="M224.46,-168.44C241.12,-160.72 264.5,-148.13 281,-132 294.88,-118.44 305.97,-99.12 312.92,-85.07"/>
<polygon fill="midnightblue" stroke="midnightblue" points="316.13,-86.47 317.23,-75.93 309.8,-83.48 316.13,-86.47"/>
</g>
<!-- Node9 -->
<g id="node9" class="node">
<title>Node9</title>
<g id="a_node9"><a xlink:href="$_event_subscriber_8h.html" xlink:title=" ">
<polygon fill="none" stroke="black" points="152,-112.5 152,-131.5 256,-131.5 256,-112.5 152,-112.5"/>
<text text-anchor="middle" x="204" y="-119.5" font-family="Helvetica,sans-Serif" font-size="10.00">EventSubscriber.h</text>
</a>
</g>
</g>
<!-- Node6&#45;&gt;Node9 -->
<g id="edge10" class="edge">
<title>Node6&#45;&gt;Node9</title>
<path fill="none" stroke="midnightblue" d="M204,-168.08C204,-161.01 204,-150.86 204,-141.99"/>
<polygon fill="midnightblue" stroke="midnightblue" points="207.5,-141.75 204,-131.75 200.5,-141.75 207.5,-141.75"/>
</g>
<!-- Node9&#45;&gt;Node3 -->
<g id="edge14" class="edge">
<title>Node9&#45;&gt;Node3</title>
<path fill="none" stroke="midnightblue" d="M190.66,-112.32C177.84,-103.98 158.22,-91.21 143.06,-81.35"/>
<polygon fill="midnightblue" stroke="midnightblue" points="144.59,-78.17 134.3,-75.65 140.78,-84.04 144.59,-78.17"/>
</g>
<!-- Node9&#45;&gt;Node7 -->
<g id="edge11" class="edge">
<title>Node9&#45;&gt;Node7</title>
<path fill="none" stroke="midnightblue" d="M213.08,-112.08C221.17,-104.14 233.2,-92.34 242.91,-82.8"/>
<polygon fill="midnightblue" stroke="midnightblue" points="245.4,-85.25 250.09,-75.75 240.5,-80.26 245.4,-85.25"/>
</g>
<!-- Node9&#45;&gt;Node8 -->
<g id="edge12" class="edge">
<title>Node9&#45;&gt;Node8</title>
<path fill="none" stroke="midnightblue" d="M222.54,-112.44C241.62,-103.64 271.57,-89.81 293.44,-79.72"/>
<polygon fill="midnightblue" stroke="midnightblue" points="294.93,-82.88 302.55,-75.52 292,-76.53 294.93,-82.88"/>
</g>
<!-- Node10 -->
<g id="node10" class="node">
<title>Node10</title>
<g id="a_node10"><a xlink:title=" ">
<polygon fill="none" stroke="#bfbfbf" points="188,-56.5 188,-75.5 220,-75.5 220,-56.5 188,-56.5"/>
<text text-anchor="middle" x="204" y="-63.5" font-family="Helvetica,sans-Serif" font-size="10.00">list</text>
</a>
</g>
</g>
<!-- Node9&#45;&gt;Node10 -->
<g id="edge13" class="edge">
<title>Node9&#45;&gt;Node10</title>
<path fill="none" stroke="midnightblue" d="M204,-112.08C204,-105.01 204,-94.86 204,-85.99"/>
<polygon fill="midnightblue" stroke="midnightblue" points="207.5,-85.75 204,-75.75 200.5,-85.75 207.5,-85.75"/>
</g>
</g>
</svg>
