<?xml version="1.0" encoding="UTF-8" standalone="no"?>
<!DOCTYPE svg PUBLIC "-//W3C//DTD SVG 1.1//EN"
 "http://www.w3.org/Graphics/SVG/1.1/DTD/svg11.dtd">
<!-- Generated by graphviz version 2.43.0 (0)
 -->
<!-- Title: /home/tomek/CLionProjects/proi/proi&#45;projekt/src/core&#45;lib/EventHandler.cpp Pages: 1 -->
<svg width="342pt" height="330pt"
 viewBox="0.00 0.00 342.00 330.00" xmlns="http://www.w3.org/2000/svg" xmlns:xlink="http://www.w3.org/1999/xlink">
<g id="graph0" class="graph" transform="scale(1 1) rotate(0) translate(4 326)">
<title>/home/tomek/CLionProjects/proi/proi&#45;projekt/src/core&#45;lib/EventHandler.cpp</title>
<!-- Node1 -->
<g id="node1" class="node">
<title>Node1</title>
<g id="a_node1"><a xlink:title=" ">
<polygon fill="#bfbfbf" stroke="black" points="0,-280.5 0,-321.5 151,-321.5 151,-280.5 0,-280.5"/>
<text text-anchor="start" x="8" y="-309.5" font-family="Helvetica,sans-Serif" font-size="10.00">/home/tomek/CLionProjects</text>
<text text-anchor="start" x="8" y="-298.5" font-family="Helvetica,sans-Serif" font-size="10.00">/proi/proi&#45;projekt/src</text>
<text text-anchor="middle" x="75.5" y="-287.5" font-family="Helvetica,sans-Serif" font-size="10.00">/core&#45;lib/EventHandler.cpp</text>
</a>
</g>
</g>
<!-- Node2 -->
<g id="node2" class="node">
<title>Node2</title>
<g id="a_node2"><a xlink:href="$_event_handler_8h.html" xlink:title=" ">
<polygon fill="none" stroke="black" points="11,-224.5 11,-243.5 140,-243.5 140,-224.5 11,-224.5"/>
<text text-anchor="middle" x="75.5" y="-231.5" font-family="Helvetica,sans-Serif" font-size="10.00">include/EventHandler.h</text>
</a>
</g>
</g>
<!-- Node1&#45;&gt;Node2 -->
<g id="edge1" class="edge">
<title>Node1&#45;&gt;Node2</title>
<path fill="none" stroke="midnightblue" d="M75.5,-280.5C75.5,-272.07 75.5,-262.24 75.5,-253.87"/>
<polygon fill="midnightblue" stroke="midnightblue" points="79,-253.65 75.5,-243.65 72,-253.65 79,-253.65"/>
</g>
<!-- Node3 -->
<g id="node3" class="node">
<title>Node3</title>
<g id="a_node3"><a xlink:title=" ">
<polygon fill="none" stroke="#bfbfbf" points="5.5,-0.5 5.5,-19.5 63.5,-19.5 63.5,-0.5 5.5,-0.5"/>
<text text-anchor="middle" x="34.5" y="-7.5" font-family="Helvetica,sans-Serif" font-size="10.00">memory</text>
</a>
</g>
</g>
<!-- Node2&#45;&gt;Node3 -->
<g id="edge2" class="edge">
<title>Node2&#45;&gt;Node3</title>
<path fill="none" stroke="midnightblue" d="M73.89,-224.3C67.86,-191.63 46.48,-75.87 38,-29.96"/>
<polygon fill="midnightblue" stroke="midnightblue" points="41.4,-29.08 36.14,-19.88 34.52,-30.35 41.4,-29.08"/>
</g>
<!-- Node4 -->
<g id="node4" class="node">
<title>Node4</title>
<g id="a_node4"><a xlink:href="$_event_8h.html" xlink:title=" ">
<polygon fill="none" stroke="black" points="88,-56.5 88,-75.5 141,-75.5 141,-56.5 88,-56.5"/>
<text text-anchor="middle" x="114.5" y="-63.5" font-family="Helvetica,sans-Serif" font-size="10.00">Event.h</text>
</a>
</g>
</g>
<!-- Node2&#45;&gt;Node4 -->
<g id="edge3" class="edge">
<title>Node2&#45;&gt;Node4</title>
<path fill="none" stroke="midnightblue" d="M77.6,-224.08C83.74,-197.95 101.76,-121.21 110.14,-85.58"/>
<polygon fill="midnightblue" stroke="midnightblue" points="113.61,-86.1 112.49,-75.57 106.79,-84.5 113.61,-86.1"/>
</g>
<!-- Node8 -->
<g id="node8" class="node">
<title>Node8</title>
<g id="a_node8"><a xlink:href="$_event_publisher_8h.html" xlink:title=" ">
<polygon fill="none" stroke="black" points="144.5,-168.5 144.5,-187.5 242.5,-187.5 242.5,-168.5 144.5,-168.5"/>
<text text-anchor="middle" x="193.5" y="-175.5" font-family="Helvetica,sans-Serif" font-size="10.00">EventPublisher.h</text>
</a>
</g>
</g>
<!-- Node2&#45;&gt;Node8 -->
<g id="edge8" class="edge">
<title>Node2&#45;&gt;Node8</title>
<path fill="none" stroke="midnightblue" d="M94.2,-224.44C113.44,-215.64 143.65,-201.81 165.7,-191.72"/>
<polygon fill="midnightblue" stroke="midnightblue" points="167.25,-194.86 174.89,-187.52 164.34,-188.5 167.25,-194.86"/>
</g>
<!-- Node4&#45;&gt;Node3 -->
<g id="edge6" class="edge">
<title>Node4&#45;&gt;Node3</title>
<path fill="none" stroke="midnightblue" d="M101.65,-56.32C89.28,-47.98 70.37,-35.21 55.76,-25.35"/>
<polygon fill="midnightblue" stroke="midnightblue" points="57.57,-22.35 47.32,-19.65 53.65,-28.15 57.57,-22.35"/>
</g>
<!-- Node5 -->
<g id="node5" class="node">
<title>Node5</title>
<g id="a_node5"><a xlink:title=" ">
<polygon fill="none" stroke="#bfbfbf" points="82,-0.5 82,-19.5 147,-19.5 147,-0.5 82,-0.5"/>
<text text-anchor="middle" x="114.5" y="-7.5" font-family="Helvetica,sans-Serif" font-size="10.00">exception</text>
</a>
</g>
</g>
<!-- Node4&#45;&gt;Node5 -->
<g id="edge4" class="edge">
<title>Node4&#45;&gt;Node5</title>
<path fill="none" stroke="midnightblue" d="M114.5,-56.08C114.5,-49.01 114.5,-38.86 114.5,-29.99"/>
<polygon fill="midnightblue" stroke="midnightblue" points="118,-29.75 114.5,-19.75 111,-29.75 118,-29.75"/>
</g>
<!-- Node6 -->
<g id="node6" class="node">
<title>Node6</title>
<g id="a_node6"><a xlink:title=" ">
<polygon fill="none" stroke="#bfbfbf" points="165.5,-0.5 165.5,-19.5 209.5,-19.5 209.5,-0.5 165.5,-0.5"/>
<text text-anchor="middle" x="187.5" y="-7.5" font-family="Helvetica,sans-Serif" font-size="10.00">string</text>
</a>
</g>
</g>
<!-- Node4&#45;&gt;Node6 -->
<g id="edge5" class="edge">
<title>Node4&#45;&gt;Node6</title>
<path fill="none" stroke="midnightblue" d="M126.23,-56.32C137.34,-48.11 154.24,-35.6 167.48,-25.81"/>
<polygon fill="midnightblue" stroke="midnightblue" points="169.6,-28.59 175.56,-19.83 165.44,-22.97 169.6,-28.59"/>
</g>
<!-- Node7 -->
<g id="node7" class="node">
<title>Node7</title>
<g id="a_node7"><a xlink:title=" ">
<polygon fill="none" stroke="#bfbfbf" points="228,-0.5 228,-19.5 279,-19.5 279,-0.5 228,-0.5"/>
<text text-anchor="middle" x="253.5" y="-7.5" font-family="Helvetica,sans-Serif" font-size="10.00">variant</text>
</a>
</g>
</g>
<!-- Node4&#45;&gt;Node7 -->
<g id="edge7" class="edge">
<title>Node4&#45;&gt;Node7</title>
<path fill="none" stroke="midnightblue" d="M136.52,-56.44C159.6,-47.48 196.06,-33.31 222.14,-23.18"/>
<polygon fill="midnightblue" stroke="midnightblue" points="223.52,-26.4 231.58,-19.52 220.99,-19.88 223.52,-26.4"/>
</g>
<!-- Node8&#45;&gt;Node4 -->
<g id="edge11" class="edge">
<title>Node8&#45;&gt;Node4</title>
<path fill="none" stroke="midnightblue" d="M176.26,-168.45C162.46,-160.75 143.62,-148.15 132.5,-132 123.06,-118.28 118.56,-99.75 116.41,-85.99"/>
<polygon fill="midnightblue" stroke="midnightblue" points="119.85,-85.23 115.11,-75.75 112.9,-86.11 119.85,-85.23"/>
</g>
<!-- Node9 -->
<g id="node9" class="node">
<title>Node9</title>
<g id="a_node9"><a xlink:title=" ">
<polygon fill="none" stroke="#bfbfbf" points="229.5,-56.5 229.5,-75.5 267.5,-75.5 267.5,-56.5 229.5,-56.5"/>
<text text-anchor="middle" x="248.5" y="-63.5" font-family="Helvetica,sans-Serif" font-size="10.00">map</text>
</a>
</g>
</g>
<!-- Node8&#45;&gt;Node9 -->
<g id="edge9" class="edge">
<title>Node8&#45;&gt;Node9</title>
<path fill="none" stroke="midnightblue" d="M213.41,-168.41C227.72,-161.04 245.96,-148.92 254.5,-132 261.84,-117.47 259.05,-98.79 255.2,-85.18"/>
<polygon fill="midnightblue" stroke="midnightblue" points="258.48,-83.96 252.04,-75.54 251.82,-86.13 258.48,-83.96"/>
</g>
<!-- Node10 -->
<g id="node10" class="node">
<title>Node10</title>
<g id="a_node10"><a xlink:title=" ">
<polygon fill="none" stroke="#bfbfbf" points="287,-56.5 287,-75.5 334,-75.5 334,-56.5 287,-56.5"/>
<text text-anchor="middle" x="310.5" y="-63.5" font-family="Helvetica,sans-Serif" font-size="10.00">vector</text>
</a>
</g>
</g>
<!-- Node8&#45;&gt;Node10 -->
<g id="edge10" class="edge">
<title>Node8&#45;&gt;Node10</title>
<path fill="none" stroke="midnightblue" d="M213.96,-168.44C230.62,-160.72 254,-148.13 270.5,-132 284.38,-118.44 295.47,-99.12 302.42,-85.07"/>
<polygon fill="midnightblue" stroke="midnightblue" points="305.63,-86.47 306.73,-75.93 299.3,-83.48 305.63,-86.47"/>
</g>
<!-- Node11 -->
<g id="node11" class="node">
<title>Node11</title>
<g id="a_node11"><a xlink:href="$_event_subscriber_8h.html" xlink:title=" ">
<polygon fill="none" stroke="black" points="141.5,-112.5 141.5,-131.5 245.5,-131.5 245.5,-112.5 141.5,-112.5"/>
<text text-anchor="middle" x="193.5" y="-119.5" font-family="Helvetica,sans-Serif" font-size="10.00">EventSubscriber.h</text>
</a>
</g>
</g>
<!-- Node8&#45;&gt;Node11 -->
<g id="edge12" class="edge">
<title>Node8&#45;&gt;Node11</title>
<path fill="none" stroke="midnightblue" d="M193.5,-168.08C193.5,-161.01 193.5,-150.86 193.5,-141.99"/>
<polygon fill="midnightblue" stroke="midnightblue" points="197,-141.75 193.5,-131.75 190,-141.75 197,-141.75"/>
</g>
<!-- Node11&#45;&gt;Node4 -->
<g id="edge16" class="edge">
<title>Node11&#45;&gt;Node4</title>
<path fill="none" stroke="midnightblue" d="M180.81,-112.32C168.6,-103.98 149.92,-91.21 135.5,-81.35"/>
<polygon fill="midnightblue" stroke="midnightblue" points="137.39,-78.41 127.16,-75.65 133.44,-84.19 137.39,-78.41"/>
</g>
<!-- Node11&#45;&gt;Node9 -->
<g id="edge13" class="edge">
<title>Node11&#45;&gt;Node9</title>
<path fill="none" stroke="midnightblue" d="M202.58,-112.08C210.67,-104.14 222.7,-92.34 232.41,-82.8"/>
<polygon fill="midnightblue" stroke="midnightblue" points="234.9,-85.25 239.59,-75.75 230,-80.26 234.9,-85.25"/>
</g>
<!-- Node11&#45;&gt;Node10 -->
<g id="edge14" class="edge">
<title>Node11&#45;&gt;Node10</title>
<path fill="none" stroke="midnightblue" d="M212.04,-112.44C231.12,-103.64 261.07,-89.81 282.94,-79.72"/>
<polygon fill="midnightblue" stroke="midnightblue" points="284.43,-82.88 292.05,-75.52 281.5,-76.53 284.43,-82.88"/>
</g>
<!-- Node12 -->
<g id="node12" class="node">
<title>Node12</title>
<g id="a_node12"><a xlink:title=" ">
<polygon fill="none" stroke="#bfbfbf" points="177.5,-56.5 177.5,-75.5 209.5,-75.5 209.5,-56.5 177.5,-56.5"/>
<text text-anchor="middle" x="193.5" y="-63.5" font-family="Helvetica,sans-Serif" font-size="10.00">list</text>
</a>
</g>
</g>
<!-- Node11&#45;&gt;Node12 -->
<g id="edge15" class="edge">
<title>Node11&#45;&gt;Node12</title>
<path fill="none" stroke="midnightblue" d="M193.5,-112.08C193.5,-105.01 193.5,-94.86 193.5,-85.99"/>
<polygon fill="midnightblue" stroke="midnightblue" points="197,-85.75 193.5,-75.75 190,-85.75 197,-85.75"/>
</g>
</g>
</svg>
