<?xml version="1.0" encoding="UTF-8" standalone="no"?>
<!DOCTYPE svg PUBLIC "-//W3C//DTD SVG 1.1//EN"
 "http://www.w3.org/Graphics/SVG/1.1/DTD/svg11.dtd">
<!-- Generated by graphviz version 2.43.0 (0)
 -->
<!-- Title: /home/tomek/CLionProjects/proi/proi&#45;projekt/src/core&#45;lib/EventHandler.cpp Pages: 1 -->
<svg width="343pt" height="330pt"
 viewBox="0.00 0.00 342.50 330.00" xmlns="http://www.w3.org/2000/svg" xmlns:xlink="http://www.w3.org/1999/xlink">
<g id="graph0" class="graph" transform="scale(1 1) rotate(0) translate(4 326)">
<title>/home/tomek/CLionProjects/proi/proi&#45;projekt/src/core&#45;lib/EventHandler.cpp</title>
<!-- Node1 -->
<g id="node1" class="node">
<title>Node1</title>
<g id="a_node1"><a xlink:title=" ">
<polygon fill="#bfbfbf" stroke="black" points="10.5,-280.5 10.5,-321.5 161.5,-321.5 161.5,-280.5 10.5,-280.5"/>
<text text-anchor="start" x="18.5" y_="-309.5" font-family="Helvetica,sans-Serif" font-size="10.00">/home/tomek/CLionProjects</text>
<text text-anchor="start" x="18.5" y_="-298.5" font-family="Helvetica,sans-Serif" font-size="10.00">/proi/proi&#45;projekt/src</text>
<text text-anchor="middle" x="86" y_="-287.5" font-family="Helvetica,sans-Serif" font-size="10.00">/core&#45;lib/EventHandler.cpp</text>
</a>
</g>
</g>
<!-- Node2 -->
<g id="node2" class="node">
<title>Node2</title>
<g id="a_node2"><a xlink:href="$_event_handler_8h.html" xlink:title=" ">
<polygon fill="none" stroke="black" points="21.5,-224.5 21.5,-243.5 150.5,-243.5 150.5,-224.5 21.5,-224.5"/>
<text text-anchor="middle" x="86" y_="-231.5" font-family="Helvetica,sans-Serif" font-size="10.00">include/EventHandler.h</text>
</a>
</g>
</g>
<!-- Node1&#45;&gt;Node2 -->
<g id="edge1" class="edge">
<title>Node1&#45;&gt;Node2</title>
<path fill="none" stroke="midnightblue" d="M86,-280.5C86,-272.07 86,-262.24 86,-253.87"/>
<polygon fill="midnightblue" stroke="midnightblue" points="89.5,-253.65 86,-243.65 82.5,-253.65 89.5,-253.65"/>
</g>
<!-- Node3 -->
<g id="node3" class="node">
<title>Node3</title>
<g id="a_node3"><a xlink:title=" ">
<polygon fill="none" stroke="#bfbfbf" points="0,-168.5 0,-187.5 58,-187.5 58,-168.5 0,-168.5"/>
<text text-anchor="middle" x="29" y_="-175.5" font-family="Helvetica,sans-Serif" font-size="10.00">memory</text>
</a>
</g>
</g>
<!-- Node2&#45;&gt;Node3 -->
<g id="edge2" class="edge">
<title>Node2&#45;&gt;Node3</title>
<path fill="none" stroke="midnightblue" d="M76.84,-224.32C68.5,-216.42 55.97,-204.55 45.82,-194.94"/>
<polygon fill="midnightblue" stroke="midnightblue" points="47.99,-192.17 38.32,-187.83 43.18,-197.25 47.99,-192.17"/>
</g>
<!-- Node4 -->
<g id="node4" class="node">
<title>Node4</title>
<g id="a_node4"><a xlink:href="$_event_8h.html" xlink:title=" ">
<polygon fill="none" stroke="black" points="97.5,-56.5 97.5,-75.5 150.5,-75.5 150.5,-56.5 97.5,-56.5"/>
<text text-anchor="middle" x="124" y_="-63.5" font-family="Helvetica,sans-Serif" font-size="10.00">Event.h</text>
</a>
</g>
</g>
<!-- Node2&#45;&gt;Node4 -->
<g id="edge3" class="edge">
<title>Node2&#45;&gt;Node4</title>
<path fill="none" stroke="midnightblue" d="M88.04,-224.08C94.02,-197.95 111.59,-121.21 119.75,-85.58"/>
<polygon fill="midnightblue" stroke="midnightblue" points="123.22,-86.1 122.04,-75.57 116.4,-84.53 123.22,-86.1"/>
</g>
<!-- Node7 -->
<g id="node7" class="node">
<title>Node7</title>
<g id="a_node7"><a xlink:href="$_event_publisher_8h.html" xlink:title=" ">
<polygon fill="none" stroke="black" points="114,-168.5 114,-187.5 212,-187.5 212,-168.5 114,-168.5"/>
<text text-anchor="middle" x="163" y_="-175.5" font-family="Helvetica,sans-Serif" font-size="10.00">EventPublisher.h</text>
</a>
</g>
</g>
<!-- Node2&#45;&gt;Node7 -->
<g id="edge6" class="edge">
<title>Node2&#45;&gt;Node7</title>
<path fill="none" stroke="midnightblue" d="M98.37,-224.32C110.16,-216.06 128.13,-203.45 142.14,-193.63"/>
<polygon fill="midnightblue" stroke="midnightblue" points="144.48,-196.26 150.66,-187.65 140.46,-190.53 144.48,-196.26"/>
</g>
<!-- Node5 -->
<g id="node5" class="node">
<title>Node5</title>
<g id="a_node5"><a xlink:title=" ">
<polygon fill="none" stroke="#bfbfbf" points="55.5,-0.5 55.5,-19.5 120.5,-19.5 120.5,-0.5 55.5,-0.5"/>
<text text-anchor="middle" x="88" y_="-7.5" font-family="Helvetica,sans-Serif" font-size="10.00">exception</text>
</a>
</g>
</g>
<!-- Node4&#45;&gt;Node5 -->
<g id="edge4" class="edge">
<title>Node4&#45;&gt;Node5</title>
<path fill="none" stroke="midnightblue" d="M118.06,-56.08C113.02,-48.53 105.66,-37.49 99.49,-28.23"/>
<polygon fill="midnightblue" stroke="midnightblue" points="102.29,-26.13 93.83,-19.75 96.47,-30.01 102.29,-26.13"/>
</g>
<!-- Node6 -->
<g id="node6" class="node">
<title>Node6</title>
<g id="a_node6"><a xlink:title=" ">
<polygon fill="none" stroke="#bfbfbf" points="139,-0.5 139,-19.5 183,-19.5 183,-0.5 139,-0.5"/>
<text text-anchor="middle" x="161" y_="-7.5" font-family="Helvetica,sans-Serif" font-size="10.00">string</text>
</a>
</g>
</g>
<!-- Node4&#45;&gt;Node6 -->
<g id="edge5" class="edge">
<title>Node4&#45;&gt;Node6</title>
<path fill="none" stroke="midnightblue" d="M130.11,-56.08C135.28,-48.53 142.85,-37.49 149.19,-28.23"/>
<polygon fill="midnightblue" stroke="midnightblue" points="152.24,-29.98 155,-19.75 146.46,-26.02 152.24,-29.98"/>
</g>
<!-- Node7&#45;&gt;Node4 -->
<g id="edge9" class="edge">
<title>Node7&#45;&gt;Node4</title>
<path fill="none" stroke="midnightblue" d="M159.94,-168.37C153.62,-150.54 139,-109.3 130.48,-85.27"/>
<polygon fill="midnightblue" stroke="midnightblue" points="133.69,-83.85 127.05,-75.59 127.09,-86.19 133.69,-83.85"/>
</g>
<!-- Node8 -->
<g id="node8" class="node">
<title>Node8</title>
<g id="a_node8"><a xlink:title=" ">
<polygon fill="none" stroke="#bfbfbf" points="170,-56.5 170,-75.5 208,-75.5 208,-56.5 170,-56.5"/>
<text text-anchor="middle" x="189" y_="-63.5" font-family="Helvetica,sans-Serif" font-size="10.00">map</text>
</a>
</g>
</g>
<!-- Node7&#45;&gt;Node8 -->
<g id="edge7" class="edge">
<title>Node7&#45;&gt;Node8</title>
<path fill="none" stroke="midnightblue" d="M165.04,-168.37C169.24,-150.62 178.92,-109.67 184.6,-85.6"/>
<polygon fill="midnightblue" stroke="midnightblue" points="188.08,-86.13 186.97,-75.59 181.26,-84.52 188.08,-86.13"/>
</g>
<!-- Node9 -->
<g id="node9" class="node">
<title>Node9</title>
<g id="a_node9"><a xlink:title=" ">
<polygon fill="none" stroke="#bfbfbf" points="287.5,-56.5 287.5,-75.5 334.5,-75.5 334.5,-56.5 287.5,-56.5"/>
<text text-anchor="middle" x="311" y_="-63.5" font-family="Helvetica,sans-Serif" font-size="10.00">vector</text>
</a>
</g>
</g>
<!-- Node7&#45;&gt;Node9 -->
<g id="edge8" class="edge">
<title>Node7&#45;&gt;Node9</title>
<path fill="none" stroke="midnightblue" d="M212.2,-174.19C243.02,-169.7 280.95,-158.66 303,-132 313.52,-119.28 314.68,-100.08 313.72,-85.84"/>
<polygon fill="midnightblue" stroke="midnightblue" points="317.17,-85.27 312.62,-75.71 310.21,-86.03 317.17,-85.27"/>
</g>
<!-- Node10 -->
<g id="node10" class="node">
<title>Node10</title>
<g id="a_node10"><a xlink:href="$_event_subscriber_8h.html" xlink:title=" ">
<polygon fill="none" stroke="black" points="190,-112.5 190,-131.5 294,-131.5 294,-112.5 190,-112.5"/>
<text text-anchor="middle" x="242" y_="-119.5" font-family="Helvetica,sans-Serif" font-size="10.00">EventSubscriber.h</text>
</a>
</g>
</g>
<!-- Node7&#45;&gt;Node10 -->
<g id="edge10" class="edge">
<title>Node7&#45;&gt;Node10</title>
<path fill="none" stroke="midnightblue" d="M175.69,-168.32C187.9,-159.98 206.58,-147.21 221,-137.35"/>
<polygon fill="midnightblue" stroke="midnightblue" points="223.06,-140.19 229.34,-131.65 219.11,-134.41 223.06,-140.19"/>
</g>
<!-- Node10&#45;&gt;Node4 -->
<g id="edge14" class="edge">
<title>Node10&#45;&gt;Node4</title>
<path fill="none" stroke="midnightblue" d="M223.3,-112.44C204.06,-103.64 173.85,-89.81 151.8,-79.72"/>
<polygon fill="midnightblue" stroke="midnightblue" points="153.16,-76.5 142.61,-75.52 150.25,-82.86 153.16,-76.5"/>
</g>
<!-- Node10&#45;&gt;Node8 -->
<g id="edge11" class="edge">
<title>Node10&#45;&gt;Node8</title>
<path fill="none" stroke="midnightblue" d="M233.25,-112.08C225.53,-104.22 214.1,-92.57 204.78,-83.08"/>
<polygon fill="midnightblue" stroke="midnightblue" points="207.09,-80.44 197.59,-75.75 202.1,-85.34 207.09,-80.44"/>
</g>
<!-- Node10&#45;&gt;Node9 -->
<g id="edge12" class="edge">
<title>Node10&#45;&gt;Node9</title>
<path fill="none" stroke="midnightblue" d="M253.09,-112.32C263.49,-104.18 279.26,-91.84 291.72,-82.09"/>
<polygon fill="midnightblue" stroke="midnightblue" points="293.99,-84.75 299.71,-75.83 289.68,-79.24 293.99,-84.75"/>
</g>
<!-- Node11 -->
<g id="node11" class="node">
<title>Node11</title>
<g id="a_node11"><a xlink:title=" ">
<polygon fill="none" stroke="#bfbfbf" points="226,-56.5 226,-75.5 258,-75.5 258,-56.5 226,-56.5"/>
<text text-anchor="middle" x="242" y_="-63.5" font-family="Helvetica,sans-Serif" font-size="10.00">list</text>
</a>
</g>
</g>
<!-- Node10&#45;&gt;Node11 -->
<g id="edge13" class="edge">
<title>Node10&#45;&gt;Node11</title>
<path fill="none" stroke="midnightblue" d="M242,-112.08C242,-105.01 242,-94.86 242,-85.99"/>
<polygon fill="midnightblue" stroke="midnightblue" points="245.5,-85.75 242,-75.75 238.5,-85.75 245.5,-85.75"/>
</g>
</g>
</svg>
