<?xml version="1.0" encoding="UTF-8" standalone="no"?>
<!DOCTYPE svg PUBLIC "-//W3C//DTD SVG 1.1//EN"
 "http://www.w3.org/Graphics/SVG/1.1/DTD/svg11.dtd">
<!-- Generated by graphviz version 2.43.0 (0)
 -->
<!-- Title: /home/tomek/CLionProjects/proi/proi&#45;projekt/src/core&#45;lib/EventQueue.cpp Pages: 1 -->
<svg width="159pt" height="162pt"
 viewBox="0.00 0.00 159.00 162.00" xmlns="http://www.w3.org/2000/svg" xmlns:xlink="http://www.w3.org/1999/xlink">
<g id="graph0" class="graph" transform="scale(1 1) rotate(0) translate(4 158)">
<title>/home/tomek/CLionProjects/proi/proi&#45;projekt/src/core&#45;lib/EventQueue.cpp</title>
<!-- Node1 -->
<g id="node1" class="node">
<title>Node1</title>
<g id="a_node1"><a xlink:title=" ">
<polygon fill="#bfbfbf" stroke="black" points="0,-112.5 0,-153.5 151,-153.5 151,-112.5 0,-112.5"/>
<text text-anchor="start" x="8" y_="-141.5" font-family="Helvetica,sans-Serif" font-size="10.00">/home/tomek/CLionProjects</text>
<text text-anchor="start" x="8" y_="-130.5" font-family="Helvetica,sans-Serif" font-size="10.00">/proi/proi&#45;projekt/src</text>
<text text-anchor="middle" x="75.5" y_="-119.5" font-family="Helvetica,sans-Serif" font-size="10.00">/core&#45;lib/EventQueue.cpp</text>
</a>
</g>
</g>
<!-- Node2 -->
<g id="node2" class="node">
<title>Node2</title>
<g id="a_node2"><a xlink:href="$_event_queue_8h.html" xlink:title=" ">
<polygon fill="none" stroke="black" points="11,-56.5 11,-75.5 140,-75.5 140,-56.5 11,-56.5"/>
<text text-anchor="middle" x="75.5" y_="-63.5" font-family="Helvetica,sans-Serif" font-size="10.00">./include/EventQueue.h</text>
</a>
</g>
</g>
<!-- Node1&#45;&gt;Node2 -->
<g id="edge1" class="edge">
<title>Node1&#45;&gt;Node2</title>
<path fill="none" stroke="midnightblue" d="M75.5,-112.5C75.5,-104.07 75.5,-94.24 75.5,-85.87"/>
<polygon fill="midnightblue" stroke="midnightblue" points="79,-85.65 75.5,-75.65 72,-85.65 79,-85.65"/>
</g>
<!-- Node3 -->
<g id="node3" class="node">
<title>Node3</title>
<g id="a_node3"><a xlink:title=" ">
<polygon fill="none" stroke="#bfbfbf" points="17,-0.5 17,-19.5 64,-19.5 64,-0.5 17,-0.5"/>
<text text-anchor="middle" x="40.5" y_="-7.5" font-family="Helvetica,sans-Serif" font-size="10.00">queue</text>
</a>
</g>
</g>
<!-- Node2&#45;&gt;Node3 -->
<g id="edge2" class="edge">
<title>Node2&#45;&gt;Node3</title>
<path fill="none" stroke="midnightblue" d="M69.72,-56.08C64.83,-48.53 57.67,-37.49 51.67,-28.23"/>
<polygon fill="midnightblue" stroke="midnightblue" points="54.55,-26.24 46.17,-19.75 48.67,-30.05 54.55,-26.24"/>
</g>
<!-- Node4 -->
<g id="node4" class="node">
<title>Node4</title>
<g id="a_node4"><a xlink:title=" ">
<polygon fill="none" stroke="#bfbfbf" points="82.5,-0.5 82.5,-19.5 140.5,-19.5 140.5,-0.5 82.5,-0.5"/>
<text text-anchor="middle" x="111.5" y_="-7.5" font-family="Helvetica,sans-Serif" font-size="10.00">memory</text>
</a>
</g>
</g>
<!-- Node2&#45;&gt;Node4 -->
<g id="edge3" class="edge">
<title>Node2&#45;&gt;Node4</title>
<path fill="none" stroke="midnightblue" d="M81.44,-56.08C86.48,-48.53 93.84,-37.49 100.01,-28.23"/>
<polygon fill="midnightblue" stroke="midnightblue" points="103.03,-30.01 105.67,-19.75 97.21,-26.13 103.03,-30.01"/>
</g>
</g>
</svg>
