<?xml version="1.0" encoding="UTF-8" standalone="no"?>
<!DOCTYPE svg PUBLIC "-//W3C//DTD SVG 1.1//EN"
 "http://www.w3.org/Graphics/SVG/1.1/DTD/svg11.dtd">
<!-- Generated by graphviz version 2.43.0 (0)
 -->
<!-- Title: /home/tomek/CLionProjects/proi/proi&#45;projekt/src/core&#45;lib/include/EventSubscriber.h Pages: 1 -->
<svg width="519pt" height="363pt"
 viewBox="0.00 0.00 518.99 363.00" xmlns="http://www.w3.org/2000/svg" xmlns:xlink="http://www.w3.org/1999/xlink">
<g id="graph0" class="graph" transform="scale(1 1) rotate(0) translate(4 359)">
<title>/home/tomek/CLionProjects/proi/proi&#45;projekt/src/core&#45;lib/include/EventSubscriber.h</title>
<!-- Node1 -->
<g id="node1" class="node">
<title>Node1</title>
<g id="a_node1"><a xlink:title=" ">
<polygon fill="#bfbfbf" stroke="black" points="0,-313.5 0,-354.5 185,-354.5 185,-313.5 0,-313.5"/>
<text text-anchor="start" x="8" y="-342.5" font-family="Helvetica,sans-Serif" font-size="10.00">/home/tomek/CLionProjects</text>
<text text-anchor="start" x="8" y="-331.5" font-family="Helvetica,sans-Serif" font-size="10.00">/proi/proi&#45;projekt/src</text>
<text text-anchor="middle" x="92.5" y="-320.5" font-family="Helvetica,sans-Serif" font-size="10.00">/core&#45;lib/include/EventSubscriber.h</text>
</a>
</g>
</g>
<!-- Node2 -->
<g id="node2" class="node">
<title>Node2</title>
<g id="a_node2"><a xlink:title=" ">
<polygon fill="none" stroke="#bfbfbf" points="4.5,-257.5 4.5,-276.5 42.5,-276.5 42.5,-257.5 4.5,-257.5"/>
<text text-anchor="middle" x="23.5" y="-264.5" font-family="Helvetica,sans-Serif" font-size="10.00">map</text>
</a>
</g>
</g>
<!-- Node1&#45;&gt;Node2 -->
<g id="edge1" class="edge">
<title>Node1&#45;&gt;Node2</title>
<path fill="none" stroke="midnightblue" d="M71.8,-313.5C61.63,-303.92 49.54,-292.53 40,-283.54"/>
<polygon fill="midnightblue" stroke="midnightblue" points="42.36,-280.96 32.68,-276.65 37.56,-286.06 42.36,-280.96"/>
</g>
<!-- Node3 -->
<g id="node3" class="node">
<title>Node3</title>
<g id="a_node3"><a xlink:title=" ">
<polygon fill="none" stroke="#bfbfbf" points="184,-0.5 184,-19.5 231,-19.5 231,-0.5 184,-0.5"/>
<text text-anchor="middle" x="207.5" y="-7.5" font-family="Helvetica,sans-Serif" font-size="10.00">vector</text>
</a>
</g>
</g>
<!-- Node1&#45;&gt;Node3 -->
<g id="edge2" class="edge">
<title>Node1&#45;&gt;Node3</title>
<path fill="none" stroke="midnightblue" d="M86.95,-313.46C80.43,-288.77 70.5,-244.84 70.5,-206.5 70.5,-206.5 70.5,-206.5 70.5,-137.5 70.5,-80.56 135.18,-42.14 175.66,-23.68"/>
<polygon fill="midnightblue" stroke="midnightblue" points="177.13,-26.85 184.88,-19.62 174.31,-20.45 177.13,-26.85"/>
</g>
<!-- Node4 -->
<g id="node4" class="node">
<title>Node4</title>
<g id="a_node4"><a xlink:title=" ">
<polygon fill="none" stroke="#bfbfbf" points="98.5,-257.5 98.5,-276.5 130.5,-276.5 130.5,-257.5 98.5,-257.5"/>
<text text-anchor="middle" x="114.5" y="-264.5" font-family="Helvetica,sans-Serif" font-size="10.00">list</text>
</a>
</g>
</g>
<!-- Node1&#45;&gt;Node4 -->
<g id="edge3" class="edge">
<title>Node1&#45;&gt;Node4</title>
<path fill="none" stroke="midnightblue" d="M99.1,-313.5C102.02,-304.87 105.43,-294.79 108.3,-286.31"/>
<polygon fill="midnightblue" stroke="midnightblue" points="111.68,-287.25 111.57,-276.65 105.05,-285 111.68,-287.25"/>
</g>
<!-- Node5 -->
<g id="node5" class="node">
<title>Node5</title>
<g id="a_node5"><a xlink:href="$_event_8h.html" xlink:title=" ">
<polygon fill="none" stroke="black" points="252,-257.5 252,-276.5 305,-276.5 305,-257.5 252,-257.5"/>
<text text-anchor="middle" x="278.5" y="-264.5" font-family="Helvetica,sans-Serif" font-size="10.00">Event.h</text>
</a>
</g>
</g>
<!-- Node1&#45;&gt;Node5 -->
<g id="edge4" class="edge">
<title>Node1&#45;&gt;Node5</title>
<path fill="none" stroke="midnightblue" d="M148.31,-313.5C179.43,-302.62 217.2,-289.42 244.03,-280.05"/>
<polygon fill="midnightblue" stroke="midnightblue" points="245.46,-283.26 253.74,-276.65 243.15,-276.65 245.46,-283.26"/>
</g>
<!-- Node6 -->
<g id="node6" class="node">
<title>Node6</title>
<g id="a_node6"><a xlink:title=" ">
<polygon fill="none" stroke="#bfbfbf" points="352,-196 352,-215 417,-215 417,-196 352,-196"/>
<text text-anchor="middle" x="384.5" y="-203" font-family="Helvetica,sans-Serif" font-size="10.00">exception</text>
</a>
</g>
</g>
<!-- Node5&#45;&gt;Node6 -->
<g id="edge5" class="edge">
<title>Node5&#45;&gt;Node6</title>
<path fill="none" stroke="midnightblue" d="M293.69,-257.48C311.16,-247.67 340.08,-231.43 360.58,-219.92"/>
<polygon fill="midnightblue" stroke="midnightblue" points="362.33,-222.96 369.34,-215.01 358.91,-216.85 362.33,-222.96"/>
</g>
<!-- Node7 -->
<g id="node7" class="node">
<title>Node7</title>
<g id="a_node7"><a xlink:title=" ">
<polygon fill="none" stroke="#bfbfbf" points="435.5,-196 435.5,-215 479.5,-215 479.5,-196 435.5,-196"/>
<text text-anchor="middle" x="457.5" y="-203" font-family="Helvetica,sans-Serif" font-size="10.00">string</text>
</a>
</g>
</g>
<!-- Node5&#45;&gt;Node7 -->
<g id="edge6" class="edge">
<title>Node5&#45;&gt;Node7</title>
<path fill="none" stroke="midnightblue" d="M305.08,-259.15C335,-251.15 384.88,-236.97 426.5,-221 427.92,-220.45 429.37,-219.87 430.82,-219.27"/>
<polygon fill="midnightblue" stroke="midnightblue" points="432.58,-222.32 440.31,-215.07 429.75,-215.92 432.58,-222.32"/>
</g>
<!-- Node8 -->
<g id="node8" class="node">
<title>Node8</title>
<g id="a_node8"><a xlink:title=" ">
<polygon fill="none" stroke="#bfbfbf" points="441.5,-0.5 441.5,-19.5 499.5,-19.5 499.5,-0.5 441.5,-0.5"/>
<text text-anchor="middle" x="470.5" y="-7.5" font-family="Helvetica,sans-Serif" font-size="10.00">memory</text>
</a>
</g>
</g>
<!-- Node5&#45;&gt;Node8 -->
<g id="edge7" class="edge">
<title>Node5&#45;&gt;Node8</title>
<path fill="none" stroke="midnightblue" d="M305.07,-264.32C356.28,-260.48 465.6,-249.11 488.5,-221 534.54,-164.49 498.03,-68.77 479.56,-29.08"/>
<polygon fill="midnightblue" stroke="midnightblue" points="482.61,-27.34 475.12,-19.85 476.3,-30.38 482.61,-27.34"/>
</g>
<!-- Node9 -->
<g id="node9" class="node">
<title>Node9</title>
<g id="a_node9"><a xlink:title=" ">
<polygon fill="none" stroke="#bfbfbf" points="99,-196 99,-215 150,-215 150,-196 99,-196"/>
<text text-anchor="middle" x="124.5" y="-203" font-family="Helvetica,sans-Serif" font-size="10.00">variant</text>
</a>
</g>
</g>
<!-- Node5&#45;&gt;Node9 -->
<g id="edge8" class="edge">
<title>Node5&#45;&gt;Node9</title>
<path fill="none" stroke="midnightblue" d="M256.44,-257.48C230.13,-247.31 185.99,-230.26 156.08,-218.7"/>
<polygon fill="midnightblue" stroke="midnightblue" points="157.11,-215.35 146.52,-215.01 154.59,-221.88 157.11,-215.35"/>
</g>
<!-- Node10 -->
<g id="node10" class="node">
<title>Node10</title>
<g id="a_node10"><a xlink:href="$_entity_8h.html" xlink:title=" ">
<polygon fill="none" stroke="black" points="143.5,-56.5 143.5,-86.5 253.5,-86.5 253.5,-56.5 143.5,-56.5"/>
<text text-anchor="start" x="151.5" y="-74.5" font-family="Helvetica,sans-Serif" font-size="10.00">../../tank&#45;lib/include</text>
<text text-anchor="middle" x="198.5" y="-63.5" font-family="Helvetica,sans-Serif" font-size="10.00">/Entity.h</text>
</a>
</g>
</g>
<!-- Node5&#45;&gt;Node10 -->
<g id="edge9" class="edge">
<title>Node5&#45;&gt;Node10</title>
<path fill="none" stroke="midnightblue" d="M259.24,-257.39C244.68,-249.87 225.4,-237.57 214.5,-221 189.64,-183.21 191.23,-127.98 194.77,-96.61"/>
<polygon fill="midnightblue" stroke="midnightblue" points="198.25,-96.95 196.06,-86.58 191.31,-96.05 198.25,-96.95"/>
</g>
<!-- Node11 -->
<g id="node11" class="node">
<title>Node11</title>
<g id="a_node11"><a xlink:href="$_tank_8h.html" xlink:title=" ">
<polygon fill="none" stroke="black" points="223.5,-190.5 223.5,-220.5 333.5,-220.5 333.5,-190.5 223.5,-190.5"/>
<text text-anchor="start" x="231.5" y="-208.5" font-family="Helvetica,sans-Serif" font-size="10.00">../../tank&#45;lib/include</text>
<text text-anchor="middle" x="278.5" y="-197.5" font-family="Helvetica,sans-Serif" font-size="10.00">/Tank.h</text>
</a>
</g>
</g>
<!-- Node5&#45;&gt;Node11 -->
<g id="edge10" class="edge">
<title>Node5&#45;&gt;Node11</title>
<path fill="none" stroke="midnightblue" d="M278.5,-257.48C278.5,-250.47 278.5,-240.19 278.5,-230.7"/>
<polygon fill="midnightblue" stroke="midnightblue" points="282,-230.52 278.5,-220.52 275,-230.52 282,-230.52"/>
</g>
<!-- Node11&#45;&gt;Node8 -->
<g id="edge11" class="edge">
<title>Node11&#45;&gt;Node8</title>
<path fill="none" stroke="midnightblue" d="M333.89,-191.53C381.45,-179.88 443.58,-163.23 451.5,-154 481.73,-118.78 478.15,-59.61 473.87,-29.63"/>
<polygon fill="midnightblue" stroke="midnightblue" points="477.31,-28.99 472.26,-19.67 470.4,-30.1 477.31,-28.99"/>
</g>
<!-- Node11&#45;&gt;Node10 -->
<g id="edge16" class="edge">
<title>Node11&#45;&gt;Node10</title>
<path fill="none" stroke="midnightblue" d="M254.95,-190.47C242.01,-181.59 226.76,-168.96 217.5,-154 206.78,-136.67 202.1,-113.86 200.06,-96.78"/>
<polygon fill="midnightblue" stroke="midnightblue" points="203.52,-96.12 199.07,-86.5 196.55,-96.79 203.52,-96.12"/>
</g>
<!-- Node12 -->
<g id="node12" class="node">
<title>Node12</title>
<g id="a_node12"><a xlink:title=" ">
<polygon fill="none" stroke="#bfbfbf" points="386.5,-129 386.5,-148 442.5,-148 442.5,-129 386.5,-129"/>
<text text-anchor="middle" x="414.5" y="-136" font-family="Helvetica,sans-Serif" font-size="10.00">optional</text>
</a>
</g>
</g>
<!-- Node11&#45;&gt;Node12 -->
<g id="edge12" class="edge">
<title>Node11&#45;&gt;Node12</title>
<path fill="none" stroke="midnightblue" d="M308.01,-190.4C331.66,-179.09 364.58,-163.36 387.53,-152.39"/>
<polygon fill="midnightblue" stroke="midnightblue" points="389.19,-155.48 396.7,-148.01 386.17,-149.16 389.19,-155.48"/>
</g>
<!-- Node13 -->
<g id="node13" class="node">
<title>Node13</title>
<g id="a_node13"><a xlink:href="$_simple_subscriber_8h.html" xlink:title=" ">
<polygon fill="none" stroke="black" points="287,-56.5 287,-86.5 400,-86.5 400,-56.5 287,-56.5"/>
<text text-anchor="start" x="295" y="-74.5" font-family="Helvetica,sans-Serif" font-size="10.00">../../core&#45;lib/include</text>
<text text-anchor="middle" x="343.5" y="-63.5" font-family="Helvetica,sans-Serif" font-size="10.00">/SimpleSubscriber.h</text>
</a>
</g>
</g>
<!-- Node11&#45;&gt;Node13 -->
<g id="edge13" class="edge">
<title>Node11&#45;&gt;Node13</title>
<path fill="none" stroke="midnightblue" d="M304.03,-190.43C317.08,-181.77 331.81,-169.37 339.5,-154 348.34,-136.33 348.74,-113.73 347.27,-96.81"/>
<polygon fill="midnightblue" stroke="midnightblue" points="350.72,-96.16 346.1,-86.62 343.76,-96.96 350.72,-96.16"/>
</g>
<!-- Node14 -->
<g id="node14" class="node">
<title>Node14</title>
<g id="a_node14"><a xlink:href="$_bot_8h.html" xlink:title=" ">
<polygon fill="none" stroke="black" points="226.5,-123.5 226.5,-153.5 330.5,-153.5 330.5,-123.5 226.5,-123.5"/>
<text text-anchor="start" x="234.5" y="-141.5" font-family="Helvetica,sans-Serif" font-size="10.00">../../bot&#45;lib/include</text>
<text text-anchor="middle" x="278.5" y="-130.5" font-family="Helvetica,sans-Serif" font-size="10.00">/Bot.h</text>
</a>
</g>
</g>
<!-- Node11&#45;&gt;Node14 -->
<g id="edge17" class="edge">
<title>Node11&#45;&gt;Node14</title>
<path fill="none" stroke="midnightblue" d="M278.5,-190.4C278.5,-182.64 278.5,-172.81 278.5,-163.86"/>
<polygon fill="midnightblue" stroke="midnightblue" points="282,-163.58 278.5,-153.58 275,-163.58 282,-163.58"/>
</g>
<!-- Node13&#45;&gt;Node3 -->
<g id="edge14" class="edge">
<title>Node13&#45;&gt;Node3</title>
<path fill="none" stroke="midnightblue" d="M311.27,-56.4C288.66,-46.51 258.66,-33.38 236.74,-23.79"/>
<polygon fill="midnightblue" stroke="midnightblue" points="237.85,-20.46 227.29,-19.66 235.05,-26.87 237.85,-20.46"/>
</g>
<!-- Node13&#45;&gt;Node8 -->
<g id="edge15" class="edge">
<title>Node13&#45;&gt;Node8</title>
<path fill="none" stroke="midnightblue" d="M373.6,-56.4C394.62,-46.55 422.47,-33.5 442.92,-23.92"/>
<polygon fill="midnightblue" stroke="midnightblue" points="444.45,-27.07 452.02,-19.66 441.48,-20.73 444.45,-27.07"/>
</g>
<!-- Node14&#45;&gt;Node10 -->
<g id="edge18" class="edge">
<title>Node14&#45;&gt;Node10</title>
<path fill="none" stroke="midnightblue" d="M261.14,-123.4C250.24,-114.54 235.99,-102.96 223.84,-93.09"/>
<polygon fill="midnightblue" stroke="midnightblue" points="225.79,-90.17 215.82,-86.58 221.38,-95.6 225.79,-90.17"/>
</g>
<!-- Node14&#45;&gt;Node13 -->
<g id="edge19" class="edge">
<title>Node14&#45;&gt;Node13</title>
<path fill="none" stroke="midnightblue" d="M292.6,-123.4C301.29,-114.71 312.6,-103.4 322.34,-93.66"/>
<polygon fill="midnightblue" stroke="midnightblue" points="324.83,-96.12 329.42,-86.58 319.88,-91.17 324.83,-96.12"/>
</g>
</g>
</svg>
