<?xml version="1.0" encoding="UTF-8" standalone="no"?>
<!DOCTYPE svg PUBLIC "-//W3C//DTD SVG 1.1//EN"
 "http://www.w3.org/Graphics/SVG/1.1/DTD/svg11.dtd">
<!-- Generated by graphviz version 2.43.0 (0)
 -->
<!-- Title: /home/tomek/CLionProjects/proi/proi&#45;projekt/src/game&#45;lib/include/FinishedEventHandler.h Pages: 1 -->
<svg width="670pt" height="553pt"
 viewBox="0.00 0.00 670.00 553.00" xmlns="http://www.w3.org/2000/svg" xmlns:xlink="http://www.w3.org/1999/xlink">
<g id="graph0" class="graph" transform="scale(1 1) rotate(0) translate(4 549)">
<title>/home/tomek/CLionProjects/proi/proi&#45;projekt/src/game&#45;lib/include/FinishedEventHandler.h</title>
<!-- Node1 -->
<g id="node1" class="node">
<title>Node1</title>
<g id="a_node1"><a xlink:title=" ">
<polygon fill="#bfbfbf" stroke="black" points="82.5,-492.5 82.5,-544.5 255.5,-544.5 255.5,-492.5 82.5,-492.5"/>
<text text-anchor="start" x="90.5" y="-532.5" font-family="Helvetica,sans-Serif" font-size="10.00">/home/tomek/CLionProjects</text>
<text text-anchor="start" x="90.5" y="-521.5" font-family="Helvetica,sans-Serif" font-size="10.00">/proi/proi&#45;projekt/src</text>
<text text-anchor="start" x="90.5" y="-510.5" font-family="Helvetica,sans-Serif" font-size="10.00">/game&#45;lib/include/FinishedEvent</text>
<text text-anchor="middle" x="169" y="-499.5" font-family="Helvetica,sans-Serif" font-size="10.00">Handler.h</text>
</a>
</g>
</g>
<!-- Node2 -->
<g id="node2" class="node">
<title>Node2</title>
<g id="a_node2"><a xlink:title=" ">
<polygon fill="none" stroke="#bfbfbf" points="47,-0.5 47,-19.5 105,-19.5 105,-0.5 47,-0.5"/>
<text text-anchor="middle" x="76" y="-7.5" font-family="Helvetica,sans-Serif" font-size="10.00">memory</text>
</a>
</g>
</g>
<!-- Node1&#45;&gt;Node2 -->
<g id="edge1" class="edge">
<title>Node1&#45;&gt;Node2</title>
<path fill="none" stroke="midnightblue" d="M99.29,-492.4C52.73,-470.65 0,-434.09 0,-380 0,-380 0,-380 0,-137.5 0,-92.12 36.38,-48.98 58.8,-26.7"/>
<polygon fill="midnightblue" stroke="midnightblue" points="61.28,-29.18 66.06,-19.73 56.43,-24.13 61.28,-29.18"/>
</g>
<!-- Node3 -->
<g id="node3" class="node">
<title>Node3</title>
<g id="a_node3"><a xlink:href="$_event_handler_8h.html" xlink:title=" ">
<polygon fill="none" stroke="black" points="157,-425.5 157,-455.5 267,-455.5 267,-425.5 157,-425.5"/>
<text text-anchor="start" x="165" y="-443.5" font-family="Helvetica,sans-Serif" font-size="10.00">../../core&#45;lib/include</text>
<text text-anchor="middle" x="212" y="-432.5" font-family="Helvetica,sans-Serif" font-size="10.00">/EventHandler.h</text>
</a>
</g>
</g>
<!-- Node1&#45;&gt;Node3 -->
<g id="edge2" class="edge">
<title>Node1&#45;&gt;Node3</title>
<path fill="none" stroke="midnightblue" d="M183.32,-492.19C188.34,-483.31 193.96,-473.39 198.88,-464.69"/>
<polygon fill="midnightblue" stroke="midnightblue" points="202.01,-466.27 203.88,-455.85 195.91,-462.83 202.01,-466.27"/>
</g>
<!-- Node3&#45;&gt;Node2 -->
<g id="edge3" class="edge">
<title>Node3&#45;&gt;Node2</title>
<path fill="none" stroke="midnightblue" d="M156.95,-427.43C105.97,-412.63 38,-382.01 38,-324 38,-324 38,-324 38,-137.5 38,-97.35 55.78,-52.95 67.01,-28.89"/>
<polygon fill="midnightblue" stroke="midnightblue" points="70.29,-30.15 71.49,-19.63 63.99,-27.1 70.29,-30.15"/>
</g>
<!-- Node4 -->
<g id="node4" class="node">
<title>Node4</title>
<g id="a_node4"><a xlink:href="$_event_8h.html" xlink:title=" ">
<polygon fill="none" stroke="black" points="311.5,-257.5 311.5,-276.5 364.5,-276.5 364.5,-257.5 311.5,-257.5"/>
<text text-anchor="middle" x="338" y="-264.5" font-family="Helvetica,sans-Serif" font-size="10.00">Event.h</text>
</a>
</g>
</g>
<!-- Node3&#45;&gt;Node4 -->
<g id="edge4" class="edge">
<title>Node3&#45;&gt;Node4</title>
<path fill="none" stroke="midnightblue" d="M222.31,-425.47C245.3,-394.17 300.7,-318.76 325.56,-284.93"/>
<polygon fill="midnightblue" stroke="midnightblue" points="328.61,-286.69 331.71,-276.56 322.97,-282.55 328.61,-286.69"/>
</g>
<!-- Node14 -->
<g id="node14" class="node">
<title>Node14</title>
<g id="a_node14"><a xlink:href="$_event_publisher_8h.html" xlink:title=" ">
<polygon fill="none" stroke="black" points="447,-369.5 447,-388.5 545,-388.5 545,-369.5 447,-369.5"/>
<text text-anchor="middle" x="496" y="-376.5" font-family="Helvetica,sans-Serif" font-size="10.00">EventPublisher.h</text>
</a>
</g>
</g>
<!-- Node3&#45;&gt;Node14 -->
<g id="edge20" class="edge">
<title>Node3&#45;&gt;Node14</title>
<path fill="none" stroke="midnightblue" d="M267.09,-427.96C318.71,-417.14 395.2,-401.12 445.33,-390.62"/>
<polygon fill="midnightblue" stroke="midnightblue" points="446.23,-394 455.3,-388.53 444.79,-387.15 446.23,-394"/>
</g>
<!-- Node4&#45;&gt;Node2 -->
<g id="edge7" class="edge">
<title>Node4&#45;&gt;Node2</title>
<path fill="none" stroke="midnightblue" d="M311.07,-264.97C253.98,-262.2 123.68,-252.48 95,-221 45.87,-167.08 61.71,-69.87 71.15,-29.43"/>
<polygon fill="midnightblue" stroke="midnightblue" points="74.57,-30.16 73.58,-19.61 67.78,-28.47 74.57,-30.16"/>
</g>
<!-- Node5 -->
<g id="node5" class="node">
<title>Node5</title>
<g id="a_node5"><a xlink:title=" ">
<polygon fill="none" stroke="#bfbfbf" points="232.5,-196 232.5,-215 297.5,-215 297.5,-196 232.5,-196"/>
<text text-anchor="middle" x="265" y="-203" font-family="Helvetica,sans-Serif" font-size="10.00">exception</text>
</a>
</g>
</g>
<!-- Node4&#45;&gt;Node5 -->
<g id="edge5" class="edge">
<title>Node4&#45;&gt;Node5</title>
<path fill="none" stroke="midnightblue" d="M327.54,-257.48C316.05,-248.11 297.37,-232.88 283.41,-221.51"/>
<polygon fill="midnightblue" stroke="midnightblue" points="285.4,-218.61 275.44,-215.01 280.98,-224.04 285.4,-218.61"/>
</g>
<!-- Node6 -->
<g id="node6" class="node">
<title>Node6</title>
<g id="a_node6"><a xlink:title=" ">
<polygon fill="none" stroke="#bfbfbf" points="316,-196 316,-215 360,-215 360,-196 316,-196"/>
<text text-anchor="middle" x="338" y="-203" font-family="Helvetica,sans-Serif" font-size="10.00">string</text>
</a>
</g>
</g>
<!-- Node4&#45;&gt;Node6 -->
<g id="edge6" class="edge">
<title>Node4&#45;&gt;Node6</title>
<path fill="none" stroke="midnightblue" d="M338,-257.48C338,-249.08 338,-235.98 338,-225.16"/>
<polygon fill="midnightblue" stroke="midnightblue" points="341.5,-225.01 338,-215.01 334.5,-225.01 341.5,-225.01"/>
</g>
<!-- Node7 -->
<g id="node7" class="node">
<title>Node7</title>
<g id="a_node7"><a xlink:title=" ">
<polygon fill="none" stroke="#bfbfbf" points="378.5,-196 378.5,-215 429.5,-215 429.5,-196 378.5,-196"/>
<text text-anchor="middle" x="404" y="-203" font-family="Helvetica,sans-Serif" font-size="10.00">variant</text>
</a>
</g>
</g>
<!-- Node4&#45;&gt;Node7 -->
<g id="edge8" class="edge">
<title>Node4&#45;&gt;Node7</title>
<path fill="none" stroke="midnightblue" d="M347.46,-257.48C357.75,-248.2 374.42,-233.17 386.99,-221.83"/>
<polygon fill="midnightblue" stroke="midnightblue" points="389.48,-224.3 394.56,-215.01 384.79,-219.11 389.48,-224.3"/>
</g>
<!-- Node8 -->
<g id="node8" class="node">
<title>Node8</title>
<g id="a_node8"><a xlink:href="$_entity_8h.html" xlink:title=" ">
<polygon fill="none" stroke="black" points="274,-56.5 274,-86.5 384,-86.5 384,-56.5 274,-56.5"/>
<text text-anchor="start" x="282" y="-74.5" font-family="Helvetica,sans-Serif" font-size="10.00">../../tank&#45;lib/include</text>
<text text-anchor="middle" x="329" y="-63.5" font-family="Helvetica,sans-Serif" font-size="10.00">/Entity.h</text>
</a>
</g>
</g>
<!-- Node4&#45;&gt;Node8 -->
<g id="edge9" class="edge">
<title>Node4&#45;&gt;Node8</title>
<path fill="none" stroke="midnightblue" d="M364.73,-262.26C388.76,-257.33 422.69,-246.12 439,-221 446.5,-209.44 441.96,-203.46 439,-190 431.95,-157.96 429.58,-147.72 408,-123 397.02,-110.43 382.17,-99.82 368.3,-91.63"/>
<polygon fill="midnightblue" stroke="midnightblue" points="369.81,-88.46 359.38,-86.6 366.37,-94.56 369.81,-88.46"/>
</g>
<!-- Node9 -->
<g id="node9" class="node">
<title>Node9</title>
<g id="a_node9"><a xlink:href="$_tank_8h.html" xlink:title=" ">
<polygon fill="none" stroke="black" points="104,-190.5 104,-220.5 214,-220.5 214,-190.5 104,-190.5"/>
<text text-anchor="start" x="112" y="-208.5" font-family="Helvetica,sans-Serif" font-size="10.00">../../tank&#45;lib/include</text>
<text text-anchor="middle" x="159" y="-197.5" font-family="Helvetica,sans-Serif" font-size="10.00">/Tank.h</text>
</a>
</g>
</g>
<!-- Node4&#45;&gt;Node9 -->
<g id="edge10" class="edge">
<title>Node4&#45;&gt;Node9</title>
<path fill="none" stroke="midnightblue" d="M312.35,-257.48C285.96,-248.7 244.1,-234.79 210.78,-223.71"/>
<polygon fill="midnightblue" stroke="midnightblue" points="211.78,-220.36 201.19,-220.52 209.57,-227 211.78,-220.36"/>
</g>
<!-- Node9&#45;&gt;Node2 -->
<g id="edge11" class="edge">
<title>Node9&#45;&gt;Node2</title>
<path fill="none" stroke="midnightblue" d="M152.9,-190.27C138.05,-155.65 100.04,-67.06 83.68,-28.91"/>
<polygon fill="midnightblue" stroke="midnightblue" points="86.84,-27.39 79.68,-19.58 80.4,-30.15 86.84,-27.39"/>
</g>
<!-- Node9&#45;&gt;Node8 -->
<g id="edge16" class="edge">
<title>Node9&#45;&gt;Node8</title>
<path fill="none" stroke="midnightblue" d="M210.05,-190.4C243.48,-180.29 283.26,-166.35 296,-154 311.95,-138.55 320.43,-114.35 324.77,-96.32"/>
<polygon fill="midnightblue" stroke="midnightblue" points="328.2,-97.05 326.88,-86.54 321.35,-95.58 328.2,-97.05"/>
</g>
<!-- Node10 -->
<g id="node10" class="node">
<title>Node10</title>
<g id="a_node10"><a xlink:title=" ">
<polygon fill="none" stroke="#bfbfbf" points="343,-129 343,-148 399,-148 399,-129 343,-129"/>
<text text-anchor="middle" x="371" y="-136" font-family="Helvetica,sans-Serif" font-size="10.00">optional</text>
</a>
</g>
</g>
<!-- Node9&#45;&gt;Node10 -->
<g id="edge12" class="edge">
<title>Node9&#45;&gt;Node10</title>
<path fill="none" stroke="midnightblue" d="M208.27,-190.48C242.31,-180.65 288.54,-166.99 329,-154 331.6,-153.17 334.28,-152.29 336.97,-151.39"/>
<polygon fill="midnightblue" stroke="midnightblue" points="338.28,-154.64 346.63,-148.11 336.04,-148.01 338.28,-154.64"/>
</g>
<!-- Node11 -->
<g id="node11" class="node">
<title>Node11</title>
<g id="a_node11"><a xlink:href="$_simple_subscriber_8h.html" xlink:title=" ">
<polygon fill="none" stroke="black" points="142.5,-56.5 142.5,-86.5 255.5,-86.5 255.5,-56.5 142.5,-56.5"/>
<text text-anchor="start" x="150.5" y="-74.5" font-family="Helvetica,sans-Serif" font-size="10.00">../../core&#45;lib/include</text>
<text text-anchor="middle" x="199" y="-63.5" font-family="Helvetica,sans-Serif" font-size="10.00">/SimpleSubscriber.h</text>
</a>
</g>
</g>
<!-- Node9&#45;&gt;Node11 -->
<g id="edge13" class="edge">
<title>Node9&#45;&gt;Node11</title>
<path fill="none" stroke="midnightblue" d="M160.4,-190.36C162.3,-173.87 166.38,-145.94 174,-123 177.09,-113.69 181.6,-103.93 185.94,-95.49"/>
<polygon fill="midnightblue" stroke="midnightblue" points="189.05,-97.1 190.68,-86.63 182.87,-93.8 189.05,-97.1"/>
</g>
<!-- Node13 -->
<g id="node13" class="node">
<title>Node13</title>
<g id="a_node13"><a xlink:href="$_bot_8h.html" xlink:title=" ">
<polygon fill="none" stroke="black" points="183,-123.5 183,-153.5 287,-153.5 287,-123.5 183,-123.5"/>
<text text-anchor="start" x="191" y="-141.5" font-family="Helvetica,sans-Serif" font-size="10.00">../../bot&#45;lib/include</text>
<text text-anchor="middle" x="235" y="-130.5" font-family="Helvetica,sans-Serif" font-size="10.00">/Bot.h</text>
</a>
</g>
</g>
<!-- Node9&#45;&gt;Node13 -->
<g id="edge17" class="edge">
<title>Node9&#45;&gt;Node13</title>
<path fill="none" stroke="midnightblue" d="M175.49,-190.4C185.85,-181.54 199.38,-169.96 210.93,-160.09"/>
<polygon fill="midnightblue" stroke="midnightblue" points="213.22,-162.74 218.54,-153.58 208.67,-157.42 213.22,-162.74"/>
</g>
<!-- Node11&#45;&gt;Node2 -->
<g id="edge15" class="edge">
<title>Node11&#45;&gt;Node2</title>
<path fill="none" stroke="midnightblue" d="M169.85,-56.4C149.58,-46.59 122.76,-33.62 102.98,-24.05"/>
<polygon fill="midnightblue" stroke="midnightblue" points="104.42,-20.86 93.9,-19.66 101.38,-27.16 104.42,-20.86"/>
</g>
<!-- Node12 -->
<g id="node12" class="node">
<title>Node12</title>
<g id="a_node12"><a xlink:title=" ">
<polygon fill="none" stroke="#bfbfbf" points="472.5,-0.5 472.5,-19.5 519.5,-19.5 519.5,-0.5 472.5,-0.5"/>
<text text-anchor="middle" x="496" y="-7.5" font-family="Helvetica,sans-Serif" font-size="10.00">vector</text>
</a>
</g>
</g>
<!-- Node11&#45;&gt;Node12 -->
<g id="edge14" class="edge">
<title>Node11&#45;&gt;Node12</title>
<path fill="none" stroke="midnightblue" d="M255.51,-57.99C258.72,-57.31 261.9,-56.64 265,-56 335,-41.49 417.23,-25.8 462.26,-17.31"/>
<polygon fill="midnightblue" stroke="midnightblue" points="463.17,-20.7 472.35,-15.41 461.88,-13.82 463.17,-20.7"/>
</g>
<!-- Node13&#45;&gt;Node8 -->
<g id="edge18" class="edge">
<title>Node13&#45;&gt;Node8</title>
<path fill="none" stroke="midnightblue" d="M255.4,-123.4C268.45,-114.37 285.6,-102.51 300.05,-92.52"/>
<polygon fill="midnightblue" stroke="midnightblue" points="302.41,-95.14 308.64,-86.58 298.43,-89.39 302.41,-95.14"/>
</g>
<!-- Node13&#45;&gt;Node11 -->
<g id="edge19" class="edge">
<title>Node13&#45;&gt;Node11</title>
<path fill="none" stroke="midnightblue" d="M227.19,-123.4C222.66,-115.22 216.85,-104.73 211.68,-95.39"/>
<polygon fill="midnightblue" stroke="midnightblue" points="214.7,-93.63 206.8,-86.58 208.58,-97.02 214.7,-93.63"/>
</g>
<!-- Node14&#45;&gt;Node4 -->
<g id="edge23" class="edge">
<title>Node14&#45;&gt;Node4</title>
<path fill="none" stroke="midnightblue" d="M483.6,-369.37C456.6,-350.57 392.25,-305.77 358.88,-282.53"/>
<polygon fill="midnightblue" stroke="midnightblue" points="360.55,-279.43 350.34,-276.59 356.55,-285.18 360.55,-279.43"/>
</g>
<!-- Node14&#45;&gt;Node12 -->
<g id="edge22" class="edge">
<title>Node14&#45;&gt;Node12</title>
<path fill="none" stroke="midnightblue" d="M496,-369.44C496,-350.94 496,-305.81 496,-268 496,-268 496,-268 496,-137.5 496,-99.2 496,-54.38 496,-29.7"/>
<polygon fill="midnightblue" stroke="midnightblue" points="499.5,-29.59 496,-19.59 492.5,-29.59 499.5,-29.59"/>
</g>
<!-- Node15 -->
<g id="node15" class="node">
<title>Node15</title>
<g id="a_node15"><a xlink:title=" ">
<polygon fill="none" stroke="#bfbfbf" points="624,-257.5 624,-276.5 662,-276.5 662,-257.5 624,-257.5"/>
<text text-anchor="middle" x="643" y="-264.5" font-family="Helvetica,sans-Serif" font-size="10.00">map</text>
</a>
</g>
</g>
<!-- Node14&#45;&gt;Node15 -->
<g id="edge21" class="edge">
<title>Node14&#45;&gt;Node15</title>
<path fill="none" stroke="midnightblue" d="M545.13,-375.61C576.4,-371.32 615.03,-360.34 637,-333 647.31,-320.17 647.85,-300.99 646.39,-286.78"/>
<polygon fill="midnightblue" stroke="midnightblue" points="649.83,-286.08 644.94,-276.68 642.9,-287.07 649.83,-286.08"/>
</g>
<!-- Node16 -->
<g id="node16" class="node">
<title>Node16</title>
<g id="a_node16"><a xlink:href="$_event_subscriber_8h.html" xlink:title=" ">
<polygon fill="none" stroke="black" points="524,-313.5 524,-332.5 628,-332.5 628,-313.5 524,-313.5"/>
<text text-anchor="middle" x="576" y="-320.5" font-family="Helvetica,sans-Serif" font-size="10.00">EventSubscriber.h</text>
</a>
</g>
</g>
<!-- Node14&#45;&gt;Node16 -->
<g id="edge24" class="edge">
<title>Node14&#45;&gt;Node16</title>
<path fill="none" stroke="midnightblue" d="M508.85,-369.32C521.22,-360.98 540.13,-348.21 554.74,-338.35"/>
<polygon fill="midnightblue" stroke="midnightblue" points="556.85,-341.15 563.18,-332.65 552.93,-335.35 556.85,-341.15"/>
</g>
<!-- Node16&#45;&gt;Node4 -->
<g id="edge28" class="edge">
<title>Node16&#45;&gt;Node4</title>
<path fill="none" stroke="midnightblue" d="M538.29,-313.44C493.42,-303.26 419.01,-286.38 374.62,-276.31"/>
<polygon fill="midnightblue" stroke="midnightblue" points="375.35,-272.89 364.83,-274.09 373.8,-279.71 375.35,-272.89"/>
</g>
<!-- Node16&#45;&gt;Node12 -->
<g id="edge26" class="edge">
<title>Node16&#45;&gt;Node12</title>
<path fill="none" stroke="midnightblue" d="M570.51,-313.41C559.12,-294.74 534,-248.75 534,-206.5 534,-206.5 534,-206.5 534,-137.5 534,-97.35 516.22,-52.95 504.99,-28.89"/>
<polygon fill="midnightblue" stroke="midnightblue" points="508.01,-27.1 500.51,-19.63 501.71,-30.15 508.01,-27.1"/>
</g>
<!-- Node16&#45;&gt;Node15 -->
<g id="edge25" class="edge">
<title>Node16&#45;&gt;Node15</title>
<path fill="none" stroke="midnightblue" d="M586.76,-313.32C596.77,-305.26 611.89,-293.08 623.93,-283.37"/>
<polygon fill="midnightblue" stroke="midnightblue" points="626.45,-285.83 632.04,-276.83 622.06,-280.38 626.45,-285.83"/>
</g>
<!-- Node17 -->
<g id="node17" class="node">
<title>Node17</title>
<g id="a_node17"><a xlink:title=" ">
<polygon fill="none" stroke="#bfbfbf" points="562,-257.5 562,-276.5 594,-276.5 594,-257.5 562,-257.5"/>
<text text-anchor="middle" x="578" y="-264.5" font-family="Helvetica,sans-Serif" font-size="10.00">list</text>
</a>
</g>
</g>
<!-- Node16&#45;&gt;Node17 -->
<g id="edge27" class="edge">
<title>Node16&#45;&gt;Node17</title>
<path fill="none" stroke="midnightblue" d="M576.33,-313.08C576.59,-306.01 576.97,-295.86 577.3,-286.99"/>
<polygon fill="midnightblue" stroke="midnightblue" points="580.8,-286.87 577.68,-276.75 573.81,-286.61 580.8,-286.87"/>
</g>
</g>
</svg>
