<?xml version="1.0" encoding="UTF-8" standalone="no"?>
<!DOCTYPE svg PUBLIC "-//W3C//DTD SVG 1.1//EN"
 "http://www.w3.org/Graphics/SVG/1.1/DTD/svg11.dtd">
<!-- Generated by graphviz version 2.43.0 (0)
 -->
<!-- Title: /home/tomek/CLionProjects/proi/proi&#45;projekt/src/game&#45;lib/GameStatistics.cpp Pages: 1 -->
<svg width="466pt" height="229pt"
 viewBox="0.00 0.00 465.50 229.00" xmlns="http://www.w3.org/2000/svg" xmlns:xlink="http://www.w3.org/1999/xlink">
<g id="graph0" class="graph" transform="scale(1 1) rotate(0) translate(4 225)">
<title>/home/tomek/CLionProjects/proi/proi&#45;projekt/src/game&#45;lib/GameStatistics.cpp</title>
<!-- Node1 -->
<g id="node1" class="node">
<title>Node1</title>
<g id="a_node1"><a xlink:title=" ">
<polygon fill="#bfbfbf" stroke="black" points="26,-179.5 26,-220.5 187,-220.5 187,-179.5 26,-179.5"/>
<text text-anchor="start" x="34" y="-208.5" font-family="Helvetica,sans-Serif" font-size="10.00">/home/tomek/CLionProjects</text>
<text text-anchor="start" x="34" y="-197.5" font-family="Helvetica,sans-Serif" font-size="10.00">/proi/proi&#45;projekt/src</text>
<text text-anchor="middle" x="106.5" y="-186.5" font-family="Helvetica,sans-Serif" font-size="10.00">/game&#45;lib/GameStatistics.cpp</text>
</a>
</g>
</g>
<!-- Node2 -->
<g id="node2" class="node">
<title>Node2</title>
<g id="a_node2"><a xlink:title=" ">
<polygon fill="none" stroke="#bfbfbf" points="0,-62 0,-81 45,-81 45,-62 0,-62"/>
<text text-anchor="middle" x="22.5" y="-69" font-family="Helvetica,sans-Serif" font-size="10.00">utility</text>
</a>
</g>
</g>
<!-- Node1&#45;&gt;Node2 -->
<g id="edge1" class="edge">
<title>Node1&#45;&gt;Node2</title>
<path fill="none" stroke="midnightblue" d="M52.24,-179.42C36.26,-170.82 20.62,-158.96 11.5,-143 2.31,-126.92 7.61,-105.58 13.6,-90.6"/>
<polygon fill="midnightblue" stroke="midnightblue" points="16.83,-91.96 17.7,-81.4 10.44,-89.11 16.83,-91.96"/>
</g>
<!-- Node3 -->
<g id="node3" class="node">
<title>Node3</title>
<g id="a_node3"><a xlink:title=" ">
<polygon fill="none" stroke="#bfbfbf" points="20.5,-123.5 20.5,-142.5 80.5,-142.5 80.5,-123.5 20.5,-123.5"/>
<text text-anchor="middle" x="50.5" y="-130.5" font-family="Helvetica,sans-Serif" font-size="10.00">iostream</text>
</a>
</g>
</g>
<!-- Node1&#45;&gt;Node3 -->
<g id="edge2" class="edge">
<title>Node1&#45;&gt;Node3</title>
<path fill="none" stroke="midnightblue" d="M89.7,-179.5C81.69,-170.2 72.22,-159.21 64.59,-150.36"/>
<polygon fill="midnightblue" stroke="midnightblue" points="67.13,-147.94 57.95,-142.65 61.83,-152.51 67.13,-147.94"/>
</g>
<!-- Node4 -->
<g id="node4" class="node">
<title>Node4</title>
<g id="a_node4"><a xlink:href="$_game_statistics_8h.html" xlink:title=" ">
<polygon fill="none" stroke="black" points="244.5,-123.5 244.5,-142.5 382.5,-142.5 382.5,-123.5 244.5,-123.5"/>
<text text-anchor="middle" x="313.5" y="-130.5" font-family="Helvetica,sans-Serif" font-size="10.00">include/GameStatistics.h</text>
</a>
</g>
</g>
<!-- Node1&#45;&gt;Node4 -->
<g id="edge3" class="edge">
<title>Node1&#45;&gt;Node4</title>
<path fill="none" stroke="midnightblue" d="M168.61,-179.5C203.81,-168.44 246.66,-154.99 276.59,-145.59"/>
<polygon fill="midnightblue" stroke="midnightblue" points="277.73,-148.9 286.22,-142.57 275.63,-142.22 277.73,-148.9"/>
</g>
<!-- Node13 -->
<g id="node13" class="node">
<title>Node13</title>
<g id="a_node13"><a xlink:href="$_game_stats_i_o_8h.html" xlink:title=" ">
<polygon fill="none" stroke="black" points="98.5,-123.5 98.5,-142.5 226.5,-142.5 226.5,-123.5 98.5,-123.5"/>
<text text-anchor="middle" x="162.5" y="-130.5" font-family="Helvetica,sans-Serif" font-size="10.00">include/GameStatsIO.h</text>
</a>
</g>
</g>
<!-- Node1&#45;&gt;Node13 -->
<g id="edge13" class="edge">
<title>Node1&#45;&gt;Node13</title>
<path fill="none" stroke="midnightblue" d="M123.3,-179.5C131.31,-170.2 140.78,-159.21 148.41,-150.36"/>
<polygon fill="midnightblue" stroke="midnightblue" points="151.17,-152.51 155.05,-142.65 145.87,-147.94 151.17,-152.51"/>
</g>
<!-- Node5 -->
<g id="node5" class="node">
<title>Node5</title>
<g id="a_node5"><a xlink:title=" ">
<polygon fill="none" stroke="#bfbfbf" points="297.5,-62 297.5,-81 329.5,-81 329.5,-62 297.5,-62"/>
<text text-anchor="middle" x="313.5" y="-69" font-family="Helvetica,sans-Serif" font-size="10.00">list</text>
</a>
</g>
</g>
<!-- Node4&#45;&gt;Node5 -->
<g id="edge4" class="edge">
<title>Node4&#45;&gt;Node5</title>
<path fill="none" stroke="midnightblue" d="M313.5,-123.48C313.5,-115.08 313.5,-101.98 313.5,-91.16"/>
<polygon fill="midnightblue" stroke="midnightblue" points="317,-91.01 313.5,-81.01 310,-91.01 317,-91.01"/>
</g>
<!-- Node6 -->
<g id="node6" class="node">
<title>Node6</title>
<g id="a_node6"><a xlink:href="$_event_queue_8h.html" xlink:title=" ">
<polygon fill="none" stroke="black" points="347.5,-56.5 347.5,-86.5 457.5,-86.5 457.5,-56.5 347.5,-56.5"/>
<text text-anchor="start" x="355.5" y="-74.5" font-family="Helvetica,sans-Serif" font-size="10.00">../../core&#45;lib/include</text>
<text text-anchor="middle" x="402.5" y="-63.5" font-family="Helvetica,sans-Serif" font-size="10.00">/EventQueue.h</text>
</a>
</g>
</g>
<!-- Node4&#45;&gt;Node6 -->
<g id="edge5" class="edge">
<title>Node4&#45;&gt;Node6</title>
<path fill="none" stroke="midnightblue" d="M326.25,-123.48C338.42,-115.34 357.19,-102.79 373.06,-92.18"/>
<polygon fill="midnightblue" stroke="midnightblue" points="375.16,-94.99 381.52,-86.52 371.27,-89.17 375.16,-94.99"/>
</g>
<!-- Node9 -->
<g id="node9" class="node">
<title>Node9</title>
<g id="a_node9"><a xlink:href="$_event_8h.html" xlink:title=" ">
<polygon fill="none" stroke="black" points="131.5,-56.5 131.5,-86.5 241.5,-86.5 241.5,-56.5 131.5,-56.5"/>
<text text-anchor="start" x="139.5" y="-74.5" font-family="Helvetica,sans-Serif" font-size="10.00">../../core&#45;lib/include</text>
<text text-anchor="middle" x="186.5" y="-63.5" font-family="Helvetica,sans-Serif" font-size="10.00">/Event.h</text>
</a>
</g>
</g>
<!-- Node4&#45;&gt;Node9 -->
<g id="edge8" class="edge">
<title>Node4&#45;&gt;Node9</title>
<path fill="none" stroke="midnightblue" d="M295.3,-123.48C277.22,-115 248.91,-101.74 225.69,-90.86"/>
<polygon fill="midnightblue" stroke="midnightblue" points="226.97,-87.6 216.43,-86.52 224,-93.93 226.97,-87.6"/>
</g>
<!-- Node7 -->
<g id="node7" class="node">
<title>Node7</title>
<g id="a_node7"><a xlink:title=" ">
<polygon fill="none" stroke="#bfbfbf" points="379,-0.5 379,-19.5 426,-19.5 426,-0.5 379,-0.5"/>
<text text-anchor="middle" x="402.5" y="-7.5" font-family="Helvetica,sans-Serif" font-size="10.00">queue</text>
</a>
</g>
</g>
<!-- Node6&#45;&gt;Node7 -->
<g id="edge6" class="edge">
<title>Node6&#45;&gt;Node7</title>
<path fill="none" stroke="midnightblue" d="M402.5,-56.4C402.5,-48.47 402.5,-38.46 402.5,-29.86"/>
<polygon fill="midnightblue" stroke="midnightblue" points="406,-29.66 402.5,-19.66 399,-29.66 406,-29.66"/>
</g>
<!-- Node8 -->
<g id="node8" class="node">
<title>Node8</title>
<g id="a_node8"><a xlink:title=" ">
<polygon fill="none" stroke="#bfbfbf" points="296.5,-0.5 296.5,-19.5 354.5,-19.5 354.5,-0.5 296.5,-0.5"/>
<text text-anchor="middle" x="325.5" y="-7.5" font-family="Helvetica,sans-Serif" font-size="10.00">memory</text>
</a>
</g>
</g>
<!-- Node6&#45;&gt;Node8 -->
<g id="edge7" class="edge">
<title>Node6&#45;&gt;Node8</title>
<path fill="none" stroke="midnightblue" d="M384.25,-56.4C372.37,-47.22 356.89,-35.26 344.81,-25.92"/>
<polygon fill="midnightblue" stroke="midnightblue" points="346.76,-23 336.7,-19.66 342.48,-28.54 346.76,-23"/>
</g>
<!-- Node9&#45;&gt;Node8 -->
<g id="edge11" class="edge">
<title>Node9&#45;&gt;Node8</title>
<path fill="none" stroke="midnightblue" d="M219.44,-56.4C242.66,-46.46 273.49,-33.26 295.92,-23.66"/>
<polygon fill="midnightblue" stroke="midnightblue" points="297.46,-26.81 305.27,-19.66 294.7,-20.38 297.46,-26.81"/>
</g>
<!-- Node10 -->
<g id="node10" class="node">
<title>Node10</title>
<g id="a_node10"><a xlink:title=" ">
<polygon fill="none" stroke="#bfbfbf" points="213,-0.5 213,-19.5 278,-19.5 278,-0.5 213,-0.5"/>
<text text-anchor="middle" x="245.5" y="-7.5" font-family="Helvetica,sans-Serif" font-size="10.00">exception</text>
</a>
</g>
</g>
<!-- Node9&#45;&gt;Node10 -->
<g id="edge9" class="edge">
<title>Node9&#45;&gt;Node10</title>
<path fill="none" stroke="midnightblue" d="M200.48,-56.4C209.23,-47.58 220.53,-36.18 229.62,-27.02"/>
<polygon fill="midnightblue" stroke="midnightblue" points="232.36,-29.22 236.91,-19.66 227.39,-24.29 232.36,-29.22"/>
</g>
<!-- Node11 -->
<g id="node11" class="node">
<title>Node11</title>
<g id="a_node11"><a xlink:title=" ">
<polygon fill="none" stroke="#bfbfbf" points="81.5,-0.5 81.5,-19.5 125.5,-19.5 125.5,-0.5 81.5,-0.5"/>
<text text-anchor="middle" x="103.5" y="-7.5" font-family="Helvetica,sans-Serif" font-size="10.00">string</text>
</a>
</g>
</g>
<!-- Node9&#45;&gt;Node11 -->
<g id="edge10" class="edge">
<title>Node9&#45;&gt;Node11</title>
<path fill="none" stroke="midnightblue" d="M166.83,-56.4C153.9,-47.13 137.01,-35.03 123.93,-25.65"/>
<polygon fill="midnightblue" stroke="midnightblue" points="125.74,-22.64 115.58,-19.66 121.67,-28.33 125.74,-22.64"/>
</g>
<!-- Node12 -->
<g id="node12" class="node">
<title>Node12</title>
<g id="a_node12"><a xlink:title=" ">
<polygon fill="none" stroke="#bfbfbf" points="144,-0.5 144,-19.5 195,-19.5 195,-0.5 144,-0.5"/>
<text text-anchor="middle" x="169.5" y="-7.5" font-family="Helvetica,sans-Serif" font-size="10.00">variant</text>
</a>
</g>
</g>
<!-- Node9&#45;&gt;Node12 -->
<g id="edge12" class="edge">
<title>Node9&#45;&gt;Node12</title>
<path fill="none" stroke="midnightblue" d="M182.47,-56.4C180.15,-48.29 177.22,-38.01 174.72,-29.28"/>
<polygon fill="midnightblue" stroke="midnightblue" points="178.09,-28.31 171.97,-19.66 171.36,-30.23 178.09,-28.31"/>
</g>
<!-- Node13&#45;&gt;Node2 -->
<g id="edge16" class="edge">
<title>Node13&#45;&gt;Node2</title>
<path fill="none" stroke="midnightblue" d="M142.44,-123.48C118.74,-113.4 79.09,-96.55 51.92,-85"/>
<polygon fill="midnightblue" stroke="midnightblue" points="53.09,-81.7 42.52,-81.01 50.36,-88.14 53.09,-81.7"/>
</g>
<!-- Node13&#45;&gt;Node8 -->
<g id="edge14" class="edge">
<title>Node13&#45;&gt;Node8</title>
<path fill="none" stroke="midnightblue" d="M183.85,-123.39C202.38,-115.39 229.46,-102.42 250.5,-87 274.44,-69.46 297.77,-44.14 311.89,-27.62"/>
<polygon fill="midnightblue" stroke="midnightblue" points="314.64,-29.79 318.39,-19.88 309.28,-25.29 314.64,-29.79"/>
</g>
<!-- Node13&#45;&gt;Node11 -->
<g id="edge15" class="edge">
<title>Node13&#45;&gt;Node11</title>
<path fill="none" stroke="midnightblue" d="M152.44,-123.37C143.3,-114.98 130.11,-101.42 122.5,-87 113,-69 108.11,-46.07 105.69,-30.13"/>
<polygon fill="midnightblue" stroke="midnightblue" points="109.12,-29.37 104.34,-19.92 102.18,-30.3 109.12,-29.37"/>
</g>
</g>
</svg>
