<?xml version="1.0" encoding="UTF-8" standalone="no"?>
<!DOCTYPE svg PUBLIC "-//W3C//DTD SVG 1.1//EN"
 "http://www.w3.org/Graphics/SVG/1.1/DTD/svg11.dtd">
<!-- Generated by graphviz version 2.43.0 (0)
 -->
<!-- Title: /home/tomek/CLionProjects/proi/proi&#45;projekt/src/game&#45;lib/GameStatsIO.cpp Pages: 1 -->
<svg width="453pt" height="229pt"
 viewBox="0.00 0.00 452.50 229.00" xmlns="http://www.w3.org/2000/svg" xmlns:xlink="http://www.w3.org/1999/xlink">
<g id="graph0" class="graph" transform="scale(1 1) rotate(0) translate(4 225)">
<title>/home/tomek/CLionProjects/proi/proi&#45;projekt/src/game&#45;lib/GameStatsIO.cpp</title>
<!-- Node1 -->
<g id="node1" class="node">
<title>Node1</title>
<g id="a_node1"><a xlink:title=" ">
<polygon fill="#bfbfbf" stroke="black" points="111,-179.5 111,-220.5 262,-220.5 262,-179.5 111,-179.5"/>
<text text-anchor="start" x="119" y="-208.5" font-family="Helvetica,sans-Serif" font-size="10.00">/home/tomek/CLionProjects</text>
<text text-anchor="start" x="119" y="-197.5" font-family="Helvetica,sans-Serif" font-size="10.00">/proi/proi&#45;projekt/src</text>
<text text-anchor="middle" x="186.5" y="-186.5" font-family="Helvetica,sans-Serif" font-size="10.00">/game&#45;lib/GameStatsIO.cpp</text>
</a>
</g>
</g>
<!-- Node2 -->
<g id="node2" class="node">
<title>Node2</title>
<g id="a_node2"><a xlink:href="$_game_stats_i_o_8h.html" xlink:title=" ">
<polygon fill="none" stroke="black" points="10.5,-62 10.5,-81 138.5,-81 138.5,-62 10.5,-62"/>
<text text-anchor="middle" x="74.5" y="-69" font-family="Helvetica,sans-Serif" font-size="10.00">include/GameStatsIO.h</text>
</a>
</g>
</g>
<!-- Node1&#45;&gt;Node2 -->
<g id="edge1" class="edge">
<title>Node1&#45;&gt;Node2</title>
<path fill="none" stroke="midnightblue" d="M169,-179.23C146.97,-154.36 109.54,-112.08 89.02,-88.9"/>
<polygon fill="midnightblue" stroke="midnightblue" points="91.54,-86.46 82.29,-81.29 86.3,-91.1 91.54,-86.46"/>
</g>
<!-- Node6 -->
<g id="node6" class="node">
<title>Node6</title>
<g id="a_node6"><a xlink:href="$_game_statistics_8h.html" xlink:title=" ">
<polygon fill="none" stroke="black" points="186.5,-123.5 186.5,-142.5 324.5,-142.5 324.5,-123.5 186.5,-123.5"/>
<text text-anchor="middle" x="255.5" y="-130.5" font-family="Helvetica,sans-Serif" font-size="10.00">include/GameStatistics.h</text>
</a>
</g>
</g>
<!-- Node1&#45;&gt;Node6 -->
<g id="edge5" class="edge">
<title>Node1&#45;&gt;Node6</title>
<path fill="none" stroke="midnightblue" d="M207.2,-179.5C217.37,-169.92 229.46,-158.53 239,-149.54"/>
<polygon fill="midnightblue" stroke="midnightblue" points="241.44,-152.06 246.32,-142.65 236.64,-146.96 241.44,-152.06"/>
</g>
<!-- Node3 -->
<g id="node3" class="node">
<title>Node3</title>
<g id="a_node3"><a xlink:title=" ">
<polygon fill="none" stroke="#bfbfbf" points="278.5,-0.5 278.5,-19.5 336.5,-19.5 336.5,-0.5 278.5,-0.5"/>
<text text-anchor="middle" x="307.5" y="-7.5" font-family="Helvetica,sans-Serif" font-size="10.00">memory</text>
</a>
</g>
</g>
<!-- Node2&#45;&gt;Node3 -->
<g id="edge2" class="edge">
<title>Node2&#45;&gt;Node3</title>
<path fill="none" stroke="midnightblue" d="M107.88,-61.98C150.35,-51.13 223.56,-32.44 268.53,-20.95"/>
<polygon fill="midnightblue" stroke="midnightblue" points="269.41,-24.34 278.23,-18.47 267.67,-17.56 269.41,-24.34"/>
</g>
<!-- Node4 -->
<g id="node4" class="node">
<title>Node4</title>
<g id="a_node4"><a xlink:title=" ">
<polygon fill="none" stroke="#bfbfbf" points="63.5,-0.5 63.5,-19.5 107.5,-19.5 107.5,-0.5 63.5,-0.5"/>
<text text-anchor="middle" x="85.5" y="-7.5" font-family="Helvetica,sans-Serif" font-size="10.00">string</text>
</a>
</g>
</g>
<!-- Node2&#45;&gt;Node4 -->
<g id="edge3" class="edge">
<title>Node2&#45;&gt;Node4</title>
<path fill="none" stroke="midnightblue" d="M76.08,-61.98C77.63,-53.58 80.05,-40.48 82.05,-29.66"/>
<polygon fill="midnightblue" stroke="midnightblue" points="85.55,-29.98 83.93,-19.51 78.67,-28.71 85.55,-29.98"/>
</g>
<!-- Node5 -->
<g id="node5" class="node">
<title>Node5</title>
<g id="a_node5"><a xlink:title=" ">
<polygon fill="none" stroke="#bfbfbf" points="0,-0.5 0,-19.5 45,-19.5 45,-0.5 0,-0.5"/>
<text text-anchor="middle" x="22.5" y="-7.5" font-family="Helvetica,sans-Serif" font-size="10.00">utility</text>
</a>
</g>
</g>
<!-- Node2&#45;&gt;Node5 -->
<g id="edge4" class="edge">
<title>Node2&#45;&gt;Node5</title>
<path fill="none" stroke="midnightblue" d="M67.05,-61.98C59.17,-52.96 46.56,-38.52 36.76,-27.31"/>
<polygon fill="midnightblue" stroke="midnightblue" points="39.15,-24.74 29.94,-19.51 33.88,-29.34 39.15,-24.74"/>
</g>
<!-- Node7 -->
<g id="node7" class="node">
<title>Node7</title>
<g id="a_node7"><a xlink:title=" ">
<polygon fill="none" stroke="#bfbfbf" points="284.5,-62 284.5,-81 316.5,-81 316.5,-62 284.5,-62"/>
<text text-anchor="middle" x="300.5" y="-69" font-family="Helvetica,sans-Serif" font-size="10.00">list</text>
</a>
</g>
</g>
<!-- Node6&#45;&gt;Node7 -->
<g id="edge6" class="edge">
<title>Node6&#45;&gt;Node7</title>
<path fill="none" stroke="midnightblue" d="M261.95,-123.48C268.7,-114.55 279.47,-100.31 287.91,-89.14"/>
<polygon fill="midnightblue" stroke="midnightblue" points="290.82,-91.1 294.06,-81.01 285.24,-86.87 290.82,-91.1"/>
</g>
<!-- Node8 -->
<g id="node8" class="node">
<title>Node8</title>
<g id="a_node8"><a xlink:href="$_event_queue_8h.html" xlink:title=" ">
<polygon fill="none" stroke="black" points="334.5,-56.5 334.5,-86.5 444.5,-86.5 444.5,-56.5 334.5,-56.5"/>
<text text-anchor="start" x="342.5" y="-74.5" font-family="Helvetica,sans-Serif" font-size="10.00">../../core&#45;lib/include</text>
<text text-anchor="middle" x="389.5" y="-63.5" font-family="Helvetica,sans-Serif" font-size="10.00">/EventQueue.h</text>
</a>
</g>
</g>
<!-- Node6&#45;&gt;Node8 -->
<g id="edge7" class="edge">
<title>Node6&#45;&gt;Node8</title>
<path fill="none" stroke="midnightblue" d="M274.7,-123.48C293.87,-114.96 323.92,-101.62 348.47,-90.72"/>
<polygon fill="midnightblue" stroke="midnightblue" points="350.2,-93.78 357.92,-86.52 347.36,-87.38 350.2,-93.78"/>
</g>
<!-- Node10 -->
<g id="node10" class="node">
<title>Node10</title>
<g id="a_node10"><a xlink:href="$_event_8h.html" xlink:title=" ">
<polygon fill="none" stroke="black" points="156.5,-56.5 156.5,-86.5 266.5,-86.5 266.5,-56.5 156.5,-56.5"/>
<text text-anchor="start" x="164.5" y="-74.5" font-family="Helvetica,sans-Serif" font-size="10.00">../../core&#45;lib/include</text>
<text text-anchor="middle" x="211.5" y="-63.5" font-family="Helvetica,sans-Serif" font-size="10.00">/Event.h</text>
</a>
</g>
</g>
<!-- Node6&#45;&gt;Node10 -->
<g id="edge10" class="edge">
<title>Node6&#45;&gt;Node10</title>
<path fill="none" stroke="midnightblue" d="M249.2,-123.48C243.63,-115.94 235.26,-104.63 227.82,-94.57"/>
<polygon fill="midnightblue" stroke="midnightblue" points="230.63,-92.48 221.87,-86.52 225,-96.64 230.63,-92.48"/>
</g>
<!-- Node8&#45;&gt;Node3 -->
<g id="edge9" class="edge">
<title>Node8&#45;&gt;Node3</title>
<path fill="none" stroke="midnightblue" d="M370.07,-56.4C357.29,-47.13 340.61,-35.03 327.69,-25.65"/>
<polygon fill="midnightblue" stroke="midnightblue" points="329.58,-22.7 319.43,-19.66 325.47,-28.36 329.58,-22.7"/>
</g>
<!-- Node9 -->
<g id="node9" class="node">
<title>Node9</title>
<g id="a_node9"><a xlink:title=" ">
<polygon fill="none" stroke="#bfbfbf" points="366,-0.5 366,-19.5 413,-19.5 413,-0.5 366,-0.5"/>
<text text-anchor="middle" x="389.5" y="-7.5" font-family="Helvetica,sans-Serif" font-size="10.00">queue</text>
</a>
</g>
</g>
<!-- Node8&#45;&gt;Node9 -->
<g id="edge8" class="edge">
<title>Node8&#45;&gt;Node9</title>
<path fill="none" stroke="midnightblue" d="M389.5,-56.4C389.5,-48.47 389.5,-38.46 389.5,-29.86"/>
<polygon fill="midnightblue" stroke="midnightblue" points="393,-29.66 389.5,-19.66 386,-29.66 393,-29.66"/>
</g>
<!-- Node10&#45;&gt;Node3 -->
<g id="edge13" class="edge">
<title>Node10&#45;&gt;Node3</title>
<path fill="none" stroke="midnightblue" d="M234.25,-56.4C249.49,-46.95 269.49,-34.56 284.74,-25.11"/>
<polygon fill="midnightblue" stroke="midnightblue" points="286.88,-27.9 293.53,-19.66 283.19,-21.95 286.88,-27.9"/>
</g>
<!-- Node10&#45;&gt;Node4 -->
<g id="edge12" class="edge">
<title>Node10&#45;&gt;Node4</title>
<path fill="none" stroke="midnightblue" d="M181.64,-56.4C160.88,-46.59 133.4,-33.62 113.14,-24.05"/>
<polygon fill="midnightblue" stroke="midnightblue" points="114.37,-20.76 103.83,-19.66 111.38,-27.09 114.37,-20.76"/>
</g>
<!-- Node11 -->
<g id="node11" class="node">
<title>Node11</title>
<g id="a_node11"><a xlink:title=" ">
<polygon fill="none" stroke="#bfbfbf" points="195,-0.5 195,-19.5 260,-19.5 260,-0.5 195,-0.5"/>
<text text-anchor="middle" x="227.5" y="-7.5" font-family="Helvetica,sans-Serif" font-size="10.00">exception</text>
</a>
</g>
</g>
<!-- Node10&#45;&gt;Node11 -->
<g id="edge11" class="edge">
<title>Node10&#45;&gt;Node11</title>
<path fill="none" stroke="midnightblue" d="M215.29,-56.4C217.45,-48.38 220.18,-38.23 222.51,-29.57"/>
<polygon fill="midnightblue" stroke="midnightblue" points="225.95,-30.22 225.17,-19.66 219.2,-28.41 225.95,-30.22"/>
</g>
<!-- Node12 -->
<g id="node12" class="node">
<title>Node12</title>
<g id="a_node12"><a xlink:title=" ">
<polygon fill="none" stroke="#bfbfbf" points="126,-0.5 126,-19.5 177,-19.5 177,-0.5 126,-0.5"/>
<text text-anchor="middle" x="151.5" y="-7.5" font-family="Helvetica,sans-Serif" font-size="10.00">variant</text>
</a>
</g>
</g>
<!-- Node10&#45;&gt;Node12 -->
<g id="edge14" class="edge">
<title>Node10&#45;&gt;Node12</title>
<path fill="none" stroke="midnightblue" d="M197.28,-56.4C188.29,-47.49 176.66,-35.95 167.37,-26.74"/>
<polygon fill="midnightblue" stroke="midnightblue" points="169.8,-24.21 160.23,-19.66 164.87,-29.18 169.8,-24.21"/>
</g>
</g>
</svg>
