<?xml version="1.0" encoding="UTF-8" standalone="no"?>
<!DOCTYPE svg PUBLIC "-//W3C//DTD SVG 1.1//EN"
 "http://www.w3.org/Graphics/SVG/1.1/DTD/svg11.dtd">
<!-- Generated by graphviz version 2.43.0 (0)
 -->
<!-- Title: /home/tomek/CLionProjects/proi/proi&#45;projekt/src/game&#45;lib/include/GameState.h Pages: 1 -->
<svg width="405pt" height="397pt"
 viewBox="0.00 0.00 404.50 397.00" xmlns="http://www.w3.org/2000/svg" xmlns:xlink="http://www.w3.org/1999/xlink">
<g id="graph0" class="graph" transform="scale(1 1) rotate(0) translate(4 393)">
<title>/home/tomek/CLionProjects/proi/proi&#45;projekt/src/game&#45;lib/include/GameState.h</title>
<!-- Node1 -->
<g id="node1" class="node">
<title>Node1</title>
<g id="a_node1"><a xlink:title=" ">
<polygon fill="#bfbfbf" stroke="black" points="0,-347.5 0,-388.5 168,-388.5 168,-347.5 0,-347.5"/>
<text text-anchor="start" x="8" y_="-376.5" font-family="Helvetica,sans-Serif" font-size="10.00">/home/tomek/CLionProjects</text>
<text text-anchor="start" x="8" y_="-365.5" font-family="Helvetica,sans-Serif" font-size="10.00">/proi/proi&#45;projekt/src</text>
<text text-anchor="middle" x="84" y_="-354.5" font-family="Helvetica,sans-Serif" font-size="10.00">/game&#45;lib/include/GameState.h</text>
</a>
</g>
</g>
<!-- Node2 -->
<g id="node2" class="node">
<title>Node2</title>
<g id="a_node2"><a xlink:title=" ">
<polygon fill="none" stroke="#bfbfbf" points="49,-168.5 49,-187.5 107,-187.5 107,-168.5 49,-168.5"/>
<text text-anchor="middle" x="78" y_="-175.5" font-family="Helvetica,sans-Serif" font-size="10.00">memory</text>
</a>
</g>
</g>
<!-- Node1&#45;&gt;Node2 -->
<g id="edge1" class="edge">
<title>Node1&#45;&gt;Node2</title>
<path fill="none" stroke="midnightblue" d="M72.85,-347.48C67.51,-337.02 61.71,-323.7 59,-311 50.43,-270.78 62.9,-222.82 71.34,-197.23"/>
<polygon fill="midnightblue" stroke="midnightblue" points="74.67,-198.31 74.63,-187.72 68.05,-196.02 74.67,-198.31"/>
</g>
<!-- Node3 -->
<g id="node3" class="node">
<title>Node3</title>
<g id="a_node3"><a xlink:href="$_active_event_handler_8h.html" xlink:title=" ">
<polygon fill="none" stroke="black" points="68,-291.5 68,-310.5 190,-310.5 190,-291.5 68,-291.5"/>
<text text-anchor="middle" x="129" y_="-298.5" font-family="Helvetica,sans-Serif" font-size="10.00">ActiveEventHandler.h</text>
</a>
</g>
</g>
<!-- Node1&#45;&gt;Node3 -->
<g id="edge2" class="edge">
<title>Node1&#45;&gt;Node3</title>
<path fill="none" stroke="midnightblue" d="M97.5,-347.5C103.8,-338.39 111.23,-327.66 117.29,-318.91"/>
<polygon fill="midnightblue" stroke="midnightblue" points="120.2,-320.87 123.01,-310.65 114.44,-316.88 120.2,-320.87"/>
</g>
<!-- Node3&#45;&gt;Node2 -->
<g id="edge3" class="edge">
<title>Node3&#45;&gt;Node2</title>
<path fill="none" stroke="midnightblue" d="M121.31,-291.31C114.04,-282.67 103.34,-268.76 97,-255 88.49,-236.51 83.43,-213.66 80.7,-197.87"/>
<polygon fill="midnightblue" stroke="midnightblue" points="84.13,-197.12 79.11,-187.79 77.21,-198.21 84.13,-197.12"/>
</g>
<!-- Node4 -->
<g id="node4" class="node">
<title>Node4</title>
<g id="a_node4"><a xlink:href="$_event_handler_8h.html" xlink:title=" ">
<polygon fill="none" stroke="black" points="106,-224.5 106,-254.5 216,-254.5 216,-224.5 106,-224.5"/>
<text text-anchor="start" x="114" y_="-242.5" font-family="Helvetica,sans-Serif" font-size="10.00">../../core&#45;lib/include</text>
<text text-anchor="middle" x="161" y_="-231.5" font-family="Helvetica,sans-Serif" font-size="10.00">/EventHandler.h</text>
</a>
</g>
</g>
<!-- Node3&#45;&gt;Node4 -->
<g id="edge4" class="edge">
<title>Node3&#45;&gt;Node4</title>
<path fill="none" stroke="midnightblue" d="M133.58,-291.48C137.51,-284.17 143.36,-273.3 148.64,-263.47"/>
<polygon fill="midnightblue" stroke="midnightblue" points="151.8,-264.99 153.46,-254.52 145.64,-261.67 151.8,-264.99"/>
</g>
<!-- Node4&#45;&gt;Node2 -->
<g id="edge5" class="edge">
<title>Node4&#45;&gt;Node2</title>
<path fill="none" stroke="midnightblue" d="M141.33,-224.4C128.4,-215.13 111.51,-203.03 98.43,-193.65"/>
<polygon fill="midnightblue" stroke="midnightblue" points="100.24,-190.64 90.08,-187.66 96.17,-196.33 100.24,-190.64"/>
</g>
<!-- Node5 -->
<g id="node5" class="node">
<title>Node5</title>
<g id="a_node5"><a xlink:href="$_event_8h.html" xlink:title=" ">
<polygon fill="none" stroke="black" points="159.5,-56.5 159.5,-75.5 212.5,-75.5 212.5,-56.5 159.5,-56.5"/>
<text text-anchor="middle" x="186" y_="-63.5" font-family="Helvetica,sans-Serif" font-size="10.00">Event.h</text>
</a>
</g>
</g>
<!-- Node4&#45;&gt;Node5 -->
<g id="edge6" class="edge">
<title>Node4&#45;&gt;Node5</title>
<path fill="none" stroke="midnightblue" d="M161.78,-224.41C162.67,-210.14 164.35,-187.47 167,-168 170.95,-139.05 177.62,-105.8 181.91,-85.61"/>
<polygon fill="midnightblue" stroke="midnightblue" points="185.39,-86.11 184.08,-75.6 178.54,-84.63 185.39,-86.11"/>
</g>
<!-- Node8 -->
<g id="node8" class="node">
<title>Node8</title>
<g id="a_node8"><a xlink:href="$_event_publisher_8h.html" xlink:title=" ">
<polygon fill="none" stroke="black" points="176,-168.5 176,-187.5 274,-187.5 274,-168.5 176,-168.5"/>
<text text-anchor="middle" x="225" y_="-175.5" font-family="Helvetica,sans-Serif" font-size="10.00">EventPublisher.h</text>
</a>
</g>
</g>
<!-- Node4&#45;&gt;Node8 -->
<g id="edge9" class="edge">
<title>Node4&#45;&gt;Node8</title>
<path fill="none" stroke="midnightblue" d="M176.17,-224.4C185.75,-215.49 198.16,-203.95 208.07,-194.74"/>
<polygon fill="midnightblue" stroke="midnightblue" points="210.75,-197.03 215.69,-187.66 205.98,-191.9 210.75,-197.03"/>
</g>
<!-- Node6 -->
<g id="node6" class="node">
<title>Node6</title>
<g id="a_node6"><a xlink:title=" ">
<polygon fill="none" stroke="#bfbfbf" points="117.5,-0.5 117.5,-19.5 182.5,-19.5 182.5,-0.5 117.5,-0.5"/>
<text text-anchor="middle" x="150" y_="-7.5" font-family="Helvetica,sans-Serif" font-size="10.00">exception</text>
</a>
</g>
</g>
<!-- Node5&#45;&gt;Node6 -->
<g id="edge7" class="edge">
<title>Node5&#45;&gt;Node6</title>
<path fill="none" stroke="midnightblue" d="M180.06,-56.08C175.02,-48.53 167.66,-37.49 161.49,-28.23"/>
<polygon fill="midnightblue" stroke="midnightblue" points="164.29,-26.13 155.83,-19.75 158.47,-30.01 164.29,-26.13"/>
</g>
<!-- Node7 -->
<g id="node7" class="node">
<title>Node7</title>
<g id="a_node7"><a xlink:title=" ">
<polygon fill="none" stroke="#bfbfbf" points="201,-0.5 201,-19.5 245,-19.5 245,-0.5 201,-0.5"/>
<text text-anchor="middle" x="223" y_="-7.5" font-family="Helvetica,sans-Serif" font-size="10.00">string</text>
</a>
</g>
</g>
<!-- Node5&#45;&gt;Node7 -->
<g id="edge8" class="edge">
<title>Node5&#45;&gt;Node7</title>
<path fill="none" stroke="midnightblue" d="M192.11,-56.08C197.28,-48.53 204.85,-37.49 211.19,-28.23"/>
<polygon fill="midnightblue" stroke="midnightblue" points="214.24,-29.98 217,-19.75 208.46,-26.02 214.24,-29.98"/>
</g>
<!-- Node8&#45;&gt;Node5 -->
<g id="edge12" class="edge">
<title>Node8&#45;&gt;Node5</title>
<path fill="none" stroke="midnightblue" d="M221.94,-168.37C215.62,-150.54 201,-109.3 192.48,-85.27"/>
<polygon fill="midnightblue" stroke="midnightblue" points="195.69,-83.85 189.05,-75.59 189.09,-86.19 195.69,-83.85"/>
</g>
<!-- Node9 -->
<g id="node9" class="node">
<title>Node9</title>
<g id="a_node9"><a xlink:title=" ">
<polygon fill="none" stroke="#bfbfbf" points="232,-56.5 232,-75.5 270,-75.5 270,-56.5 232,-56.5"/>
<text text-anchor="middle" x="251" y_="-63.5" font-family="Helvetica,sans-Serif" font-size="10.00">map</text>
</a>
</g>
</g>
<!-- Node8&#45;&gt;Node9 -->
<g id="edge10" class="edge">
<title>Node8&#45;&gt;Node9</title>
<path fill="none" stroke="midnightblue" d="M227.04,-168.37C231.24,-150.62 240.92,-109.67 246.6,-85.6"/>
<polygon fill="midnightblue" stroke="midnightblue" points="250.08,-86.13 248.97,-75.59 243.26,-84.52 250.08,-86.13"/>
</g>
<!-- Node10 -->
<g id="node10" class="node">
<title>Node10</title>
<g id="a_node10"><a xlink:title=" ">
<polygon fill="none" stroke="#bfbfbf" points="349.5,-56.5 349.5,-75.5 396.5,-75.5 396.5,-56.5 349.5,-56.5"/>
<text text-anchor="middle" x="373" y_="-63.5" font-family="Helvetica,sans-Serif" font-size="10.00">vector</text>
</a>
</g>
</g>
<!-- Node8&#45;&gt;Node10 -->
<g id="edge11" class="edge">
<title>Node8&#45;&gt;Node10</title>
<path fill="none" stroke="midnightblue" d="M274.2,-174.19C305.02,-169.7 342.95,-158.66 365,-132 375.52,-119.28 376.68,-100.08 375.72,-85.84"/>
<polygon fill="midnightblue" stroke="midnightblue" points="379.17,-85.27 374.62,-75.71 372.21,-86.03 379.17,-85.27"/>
</g>
<!-- Node11 -->
<g id="node11" class="node">
<title>Node11</title>
<g id="a_node11"><a xlink:href="$_event_subscriber_8h.html" xlink:title=" ">
<polygon fill="none" stroke="black" points="252,-112.5 252,-131.5 356,-131.5 356,-112.5 252,-112.5"/>
<text text-anchor="middle" x="304" y_="-119.5" font-family="Helvetica,sans-Serif" font-size="10.00">EventSubscriber.h</text>
</a>
</g>
</g>
<!-- Node8&#45;&gt;Node11 -->
<g id="edge13" class="edge">
<title>Node8&#45;&gt;Node11</title>
<path fill="none" stroke="midnightblue" d="M237.69,-168.32C249.9,-159.98 268.58,-147.21 283,-137.35"/>
<polygon fill="midnightblue" stroke="midnightblue" points="285.06,-140.19 291.34,-131.65 281.11,-134.41 285.06,-140.19"/>
</g>
<!-- Node11&#45;&gt;Node5 -->
<g id="edge17" class="edge">
<title>Node11&#45;&gt;Node5</title>
<path fill="none" stroke="midnightblue" d="M285.3,-112.44C266.06,-103.64 235.85,-89.81 213.8,-79.72"/>
<polygon fill="midnightblue" stroke="midnightblue" points="215.16,-76.5 204.61,-75.52 212.25,-82.86 215.16,-76.5"/>
</g>
<!-- Node11&#45;&gt;Node9 -->
<g id="edge14" class="edge">
<title>Node11&#45;&gt;Node9</title>
<path fill="none" stroke="midnightblue" d="M295.25,-112.08C287.53,-104.22 276.1,-92.57 266.78,-83.08"/>
<polygon fill="midnightblue" stroke="midnightblue" points="269.09,-80.44 259.59,-75.75 264.1,-85.34 269.09,-80.44"/>
</g>
<!-- Node11&#45;&gt;Node10 -->
<g id="edge15" class="edge">
<title>Node11&#45;&gt;Node10</title>
<path fill="none" stroke="midnightblue" d="M315.09,-112.32C325.49,-104.18 341.26,-91.84 353.72,-82.09"/>
<polygon fill="midnightblue" stroke="midnightblue" points="355.99,-84.75 361.71,-75.83 351.68,-79.24 355.99,-84.75"/>
</g>
<!-- Node12 -->
<g id="node12" class="node">
<title>Node12</title>
<g id="a_node12"><a xlink:title=" ">
<polygon fill="none" stroke="#bfbfbf" points="288,-56.5 288,-75.5 320,-75.5 320,-56.5 288,-56.5"/>
<text text-anchor="middle" x="304" y_="-63.5" font-family="Helvetica,sans-Serif" font-size="10.00">list</text>
</a>
</g>
</g>
<!-- Node11&#45;&gt;Node12 -->
<g id="edge16" class="edge">
<title>Node11&#45;&gt;Node12</title>
<path fill="none" stroke="midnightblue" d="M304,-112.08C304,-105.01 304,-94.86 304,-85.99"/>
<polygon fill="midnightblue" stroke="midnightblue" points="307.5,-85.75 304,-75.75 300.5,-85.75 307.5,-85.75"/>
</g>
</g>
</svg>
