<?xml version="1.0" encoding="UTF-8" standalone="no"?>
<!DOCTYPE svg PUBLIC "-//W3C//DTD SVG 1.1//EN"
 "http://www.w3.org/Graphics/SVG/1.1/DTD/svg11.dtd">
<!-- Generated by graphviz version 2.50.0 (0)
 -->
<!-- Title: /home/tomek/trash/battle&#45;city/src/lib/game&#45;lib/include/GameState.h Pages: 1 -->
<svg width="2187pt" height="473pt"
 viewBox="0.00 0.00 2187.00 473.00" xmlns="http://www.w3.org/2000/svg" xmlns:xlink="http://www.w3.org/1999/xlink">
<g id="graph0" class="graph" transform="scale(1 1) rotate(0) translate(4 469)">
<title>/home/tomek/trash/battle&#45;city/src/lib/game&#45;lib/include/GameState.h</title>
<!-- Node1 -->
<g id="node1" class="node">
<title>Node1</title>
<g id="a_node1"><a xlink:title=" ">
<polygon fill="#bfbfbf" stroke="black" points="317,-423.5 317,-464.5 458,-464.5 458,-423.5 317,-423.5"/>
<text text-anchor="start" x="325" y="-452.5" font-family="Helvetica,sans-Serif" font-size="10.00">/home/tomek/trash/battle</text>
<text text-anchor="start" x="325" y="-441.5" font-family="Helvetica,sans-Serif" font-size="10.00">&#45;city/src/lib/game&#45;lib</text>
<text text-anchor="middle" x="387.5" y="-430.5" font-family="Helvetica,sans-Serif" font-size="10.00">/include/GameState.h</text>
</a>
</g>
</g>
<!-- Node2 -->
<g id="node2" class="node">
<title>Node2</title>
<g id="a_node2"><a xlink:href="$_game_8cpp.html" xlink:title=" ">
<polygon fill="none" stroke="black" points="0,-84 0,-125 141,-125 141,-84 0,-84"/>
<text text-anchor="start" x="8" y="-113" font-family="Helvetica,sans-Serif" font-size="10.00">/home/tomek/trash/battle</text>
<text text-anchor="start" x="8" y="-102" font-family="Helvetica,sans-Serif" font-size="10.00">&#45;city/src/lib/game&#45;lib</text>
<text text-anchor="middle" x="70.5" y="-91" font-family="Helvetica,sans-Serif" font-size="10.00">/Game.cpp</text>
</a>
</g>
</g>
<!-- Node1&#45;&gt;Node2 -->
<g id="edge1" class="edge">
<title>Node1&#45;&gt;Node2</title>
<path fill="none" stroke="midnightblue" d="M306.86,-434.34C242.88,-425.82 160.38,-410.62 136.5,-387 62.99,-314.28 65.05,-176.32 68.66,-125.2"/>
<polygon fill="midnightblue" stroke="midnightblue" points="306.59,-437.83 316.95,-435.65 307.49,-430.89 306.59,-437.83"/>
</g>
<!-- Node3 -->
<g id="node3" class="node">
<title>Node3</title>
<g id="a_node3"><a xlink:href="$_game_state_8cpp.html" xlink:title=" ">
<polygon fill="none" stroke="black" points="263,-262 263,-303 404,-303 404,-262 263,-262"/>
<text text-anchor="start" x="271" y="-291" font-family="Helvetica,sans-Serif" font-size="10.00">/home/tomek/trash/battle</text>
<text text-anchor="start" x="271" y="-280" font-family="Helvetica,sans-Serif" font-size="10.00">&#45;city/src/lib/game&#45;lib</text>
<text text-anchor="middle" x="333.5" y="-269" font-family="Helvetica,sans-Serif" font-size="10.00">/GameState.cpp</text>
</a>
</g>
</g>
<!-- Node1&#45;&gt;Node3 -->
<g id="edge2" class="edge">
<title>Node1&#45;&gt;Node3</title>
<path fill="none" stroke="midnightblue" d="M367.11,-414.98C361.64,-406.35 356.22,-396.6 352.5,-387 341.66,-359.07 336.91,-324.45 334.9,-303.17"/>
<polygon fill="midnightblue" stroke="midnightblue" points="364.31,-417.09 372.75,-423.5 370.15,-413.23 364.31,-417.09"/>
</g>
<!-- Node4 -->
<g id="node4" class="node">
<title>Node4</title>
<g id="a_node4"><a xlink:href="$_game_8h.html" xlink:title=" ">
<polygon fill="none" stroke="black" points="481,-173 481,-214 622,-214 622,-173 481,-173"/>
<text text-anchor="start" x="489" y="-202" font-family="Helvetica,sans-Serif" font-size="10.00">/home/tomek/trash/battle</text>
<text text-anchor="start" x="489" y="-191" font-family="Helvetica,sans-Serif" font-size="10.00">&#45;city/src/lib/game&#45;lib</text>
<text text-anchor="middle" x="551.5" y="-180" font-family="Helvetica,sans-Serif" font-size="10.00">/include/Game.h</text>
</a>
</g>
</g>
<!-- Node1&#45;&gt;Node4 -->
<g id="edge3" class="edge">
<title>Node1&#45;&gt;Node4</title>
<path fill="none" stroke="midnightblue" d="M467.8,-428.66C491.83,-420.41 515.92,-407.43 531.5,-387 570.94,-335.31 562.18,-251.78 555.56,-214.08"/>
<polygon fill="midnightblue" stroke="midnightblue" points="466.71,-425.33 458.24,-431.7 468.84,-432 466.71,-425.33"/>
</g>
<!-- Node10 -->
<g id="node10" class="node">
<title>Node10</title>
<g id="a_node10"><a xlink:href="$_menu_event_handler_8h.html" xlink:title=" ">
<polygon fill="none" stroke="black" points="146,-345.5 146,-386.5 305,-386.5 305,-345.5 146,-345.5"/>
<text text-anchor="start" x="154" y="-374.5" font-family="Helvetica,sans-Serif" font-size="10.00">/home/tomek/trash/battle</text>
<text text-anchor="start" x="154" y="-363.5" font-family="Helvetica,sans-Serif" font-size="10.00">&#45;city/src/lib/game&#45;lib</text>
<text text-anchor="middle" x="225.5" y="-352.5" font-family="Helvetica,sans-Serif" font-size="10.00">/include/MenuEventHandler.h</text>
</a>
</g>
</g>
<!-- Node1&#45;&gt;Node10 -->
<g id="edge10" class="edge">
<title>Node1&#45;&gt;Node10</title>
<path fill="none" stroke="midnightblue" d="M330.43,-419.19C307.34,-408.67 281.43,-396.47 261.1,-386.51"/>
<polygon fill="midnightblue" stroke="midnightblue" points="329.24,-422.49 339.79,-423.43 332.13,-416.11 329.24,-422.49"/>
</g>
<!-- Node11 -->
<g id="node11" class="node">
<title>Node11</title>
<g id="a_node11"><a xlink:href="$_pause_event_handler_8h.html" xlink:title=" ">
<polygon fill="none" stroke="black" points="362,-345.5 362,-386.5 523,-386.5 523,-345.5 362,-345.5"/>
<text text-anchor="start" x="370" y="-374.5" font-family="Helvetica,sans-Serif" font-size="10.00">/home/tomek/trash/battle</text>
<text text-anchor="start" x="370" y="-363.5" font-family="Helvetica,sans-Serif" font-size="10.00">&#45;city/src/lib/game&#45;lib</text>
<text text-anchor="middle" x="442.5" y="-352.5" font-family="Helvetica,sans-Serif" font-size="10.00">/include/PauseEventHandler.h</text>
</a>
</g>
</g>
<!-- Node1&#45;&gt;Node11 -->
<g id="edge14" class="edge">
<title>Node1&#45;&gt;Node11</title>
<path fill="none" stroke="midnightblue" d="M401.19,-415.05C407.64,-405.57 415.34,-395.18 422.4,-386.51"/>
<polygon fill="midnightblue" stroke="midnightblue" points="398.25,-413.15 395.68,-423.43 404.1,-417 398.25,-413.15"/>
</g>
<!-- Node12 -->
<g id="node12" class="node">
<title>Node12</title>
<g id="a_node12"><a xlink:href="$_window_8h.html" xlink:title=" ">
<polygon fill="none" stroke="black" points="934,-345.5 934,-386.5 1075,-386.5 1075,-345.5 934,-345.5"/>
<text text-anchor="start" x="942" y="-374.5" font-family="Helvetica,sans-Serif" font-size="10.00">/home/tomek/trash/battle</text>
<text text-anchor="start" x="942" y="-363.5" font-family="Helvetica,sans-Serif" font-size="10.00">&#45;city/src/lib/graphic&#45;lib</text>
<text text-anchor="middle" x="1004.5" y="-352.5" font-family="Helvetica,sans-Serif" font-size="10.00">/include/Window.h</text>
</a>
</g>
</g>
<!-- Node1&#45;&gt;Node12 -->
<g id="edge18" class="edge">
<title>Node1&#45;&gt;Node12</title>
<path fill="none" stroke="midnightblue" d="M468.28,-433.05C589.9,-418.07 818.07,-389.96 933.6,-375.73"/>
<polygon fill="midnightblue" stroke="midnightblue" points="467.77,-429.59 458.28,-434.28 468.63,-436.53 467.77,-429.59"/>
</g>
<!-- Node4&#45;&gt;Node2 -->
<g id="edge6" class="edge">
<title>Node4&#45;&gt;Node2</title>
<path fill="none" stroke="midnightblue" d="M470.55,-183.98C388.84,-174.49 259.38,-156.96 149.5,-131 142.35,-129.31 134.91,-127.28 127.58,-125.12"/>
<polygon fill="midnightblue" stroke="midnightblue" points="470.43,-187.49 480.76,-185.16 471.23,-180.54 470.43,-187.49"/>
</g>
<!-- Node5 -->
<g id="node5" class="node">
<title>Node5</title>
<g id="a_node5"><a xlink:href="$_active_event_handler_8cpp.html" xlink:title=" ">
<polygon fill="none" stroke="black" points="636,-84 636,-125 777,-125 777,-84 636,-84"/>
<text text-anchor="start" x="644" y="-113" font-family="Helvetica,sans-Serif" font-size="10.00">/home/tomek/trash/battle</text>
<text text-anchor="start" x="644" y="-102" font-family="Helvetica,sans-Serif" font-size="10.00">&#45;city/src/lib/game&#45;lib</text>
<text text-anchor="middle" x="706.5" y="-91" font-family="Helvetica,sans-Serif" font-size="10.00">/ActiveEventHandler.cpp</text>
</a>
</g>
</g>
<!-- Node4&#45;&gt;Node5 -->
<g id="edge4" class="edge">
<title>Node4&#45;&gt;Node5</title>
<path fill="none" stroke="midnightblue" d="M595.25,-167.94C619.4,-154.39 648.98,-137.79 671.56,-125.11"/>
<polygon fill="midnightblue" stroke="midnightblue" points="593.29,-165.03 586.29,-172.98 596.72,-171.13 593.29,-165.03"/>
</g>
<!-- Node6 -->
<g id="node6" class="node">
<title>Node6</title>
<g id="a_node6"><a xlink:href="$_finished_event_handler_8cpp.html" xlink:title=" ">
<polygon fill="none" stroke="black" points="795.5,-84 795.5,-125 941.5,-125 941.5,-84 795.5,-84"/>
<text text-anchor="start" x="803.5" y="-113" font-family="Helvetica,sans-Serif" font-size="10.00">/home/tomek/trash/battle</text>
<text text-anchor="start" x="803.5" y="-102" font-family="Helvetica,sans-Serif" font-size="10.00">&#45;city/src/lib/game&#45;lib</text>
<text text-anchor="middle" x="868.5" y="-91" font-family="Helvetica,sans-Serif" font-size="10.00">/FinishedEventHandler.cpp</text>
</a>
</g>
</g>
<!-- Node4&#45;&gt;Node6 -->
<g id="edge5" class="edge">
<title>Node4&#45;&gt;Node6</title>
<path fill="none" stroke="midnightblue" d="M631.86,-172.25C677.11,-160.63 734.6,-145.5 785.5,-131 792.02,-129.14 798.82,-127.15 805.59,-125.13"/>
<polygon fill="midnightblue" stroke="midnightblue" points="630.92,-168.88 622.1,-174.75 632.66,-175.66 630.92,-168.88"/>
</g>
<!-- Node7 -->
<g id="node7" class="node">
<title>Node7</title>
<g id="a_node7"><a xlink:href="$_menu_event_handler_8cpp.html" xlink:title=" ">
<polygon fill="none" stroke="black" points="159,-84 159,-125 300,-125 300,-84 159,-84"/>
<text text-anchor="start" x="167" y="-113" font-family="Helvetica,sans-Serif" font-size="10.00">/home/tomek/trash/battle</text>
<text text-anchor="start" x="167" y="-102" font-family="Helvetica,sans-Serif" font-size="10.00">&#45;city/src/lib/game&#45;lib</text>
<text text-anchor="middle" x="229.5" y="-91" font-family="Helvetica,sans-Serif" font-size="10.00">/MenuEventHandler.cpp</text>
</a>
</g>
</g>
<!-- Node4&#45;&gt;Node7 -->
<g id="edge7" class="edge">
<title>Node4&#45;&gt;Node7</title>
<path fill="none" stroke="midnightblue" d="M471.08,-173.52C423.58,-161.97 362.38,-146.5 308.5,-131 302.13,-129.17 295.5,-127.17 288.9,-125.13"/>
<polygon fill="midnightblue" stroke="midnightblue" points="470.45,-176.97 481,-175.93 472.1,-170.17 470.45,-176.97"/>
</g>
<!-- Node8 -->
<g id="node8" class="node">
<title>Node8</title>
<g id="a_node8"><a xlink:href="$_pause_event_handler_8cpp.html" xlink:title=" ">
<polygon fill="none" stroke="black" points="318,-84 318,-125 459,-125 459,-84 318,-84"/>
<text text-anchor="start" x="326" y="-113" font-family="Helvetica,sans-Serif" font-size="10.00">/home/tomek/trash/battle</text>
<text text-anchor="start" x="326" y="-102" font-family="Helvetica,sans-Serif" font-size="10.00">&#45;city/src/lib/game&#45;lib</text>
<text text-anchor="middle" x="388.5" y="-91" font-family="Helvetica,sans-Serif" font-size="10.00">/PauseEventHandler.cpp</text>
</a>
</g>
</g>
<!-- Node4&#45;&gt;Node8 -->
<g id="edge8" class="edge">
<title>Node4&#45;&gt;Node8</title>
<path fill="none" stroke="midnightblue" d="M505.83,-168.12C480.37,-154.54 449.1,-137.84 425.24,-125.11"/>
<polygon fill="midnightblue" stroke="midnightblue" points="504.45,-171.35 514.92,-172.98 507.75,-165.18 504.45,-171.35"/>
</g>
<!-- Node9 -->
<g id="node9" class="node">
<title>Node9</title>
<g id="a_node9"><a xlink:href="$tanks_8cpp.html" xlink:title=" ">
<polygon fill="none" stroke="black" points="477,-89.5 477,-119.5 618,-119.5 618,-89.5 477,-89.5"/>
<text text-anchor="start" x="485" y="-107.5" font-family="Helvetica,sans-Serif" font-size="10.00">/home/tomek/trash/battle</text>
<text text-anchor="middle" x="547.5" y="-96.5" font-family="Helvetica,sans-Serif" font-size="10.00">&#45;city/src/tanks.cpp</text>
</a>
</g>
</g>
<!-- Node4&#45;&gt;Node9 -->
<g id="edge9" class="edge">
<title>Node4&#45;&gt;Node9</title>
<path fill="none" stroke="midnightblue" d="M550.13,-162.69C549.46,-148.15 548.69,-131.36 548.15,-119.74"/>
<polygon fill="midnightblue" stroke="midnightblue" points="546.64,-162.93 550.59,-172.76 553.63,-162.61 546.64,-162.93"/>
</g>
<!-- Node10&#45;&gt;Node1 -->
<g id="edge12" class="edge">
<title>Node10&#45;&gt;Node1</title>
<path fill="none" stroke="midnightblue" d="M282.41,-390.74C305.49,-401.25 331.41,-413.46 351.77,-423.43"/>
<polygon fill="midnightblue" stroke="midnightblue" points="283.61,-387.44 273.06,-386.51 280.73,-393.82 283.61,-387.44"/>
</g>
<!-- Node10&#45;&gt;Node3 -->
<g id="edge11" class="edge">
<title>Node10&#45;&gt;Node3</title>
<path fill="none" stroke="midnightblue" d="M259.66,-339.22C275.13,-327.55 293.12,-313.97 307.47,-303.14"/>
<polygon fill="midnightblue" stroke="midnightblue" points="257.24,-336.66 251.37,-345.48 261.46,-342.25 257.24,-336.66"/>
</g>
<!-- Node10&#45;&gt;Node7 -->
<g id="edge13" class="edge">
<title>Node10&#45;&gt;Node7</title>
<path fill="none" stroke="midnightblue" d="M225.96,-335.29C226.78,-281.75 228.5,-170.44 229.2,-125.23"/>
<polygon fill="midnightblue" stroke="midnightblue" points="222.46,-335.44 225.8,-345.5 229.45,-335.55 222.46,-335.44"/>
</g>
<!-- Node11&#45;&gt;Node1 -->
<g id="edge16" class="edge">
<title>Node11&#45;&gt;Node1</title>
<path fill="none" stroke="midnightblue" d="M428.86,-394.88C422.41,-404.36 414.72,-414.74 407.65,-423.43"/>
<polygon fill="midnightblue" stroke="midnightblue" points="431.79,-396.78 434.37,-386.51 425.95,-392.94 431.79,-396.78"/>
</g>
<!-- Node11&#45;&gt;Node3 -->
<g id="edge15" class="edge">
<title>Node11&#45;&gt;Node3</title>
<path fill="none" stroke="midnightblue" d="M408.02,-339.22C392.41,-327.55 374.26,-313.97 359.77,-303.14"/>
<polygon fill="midnightblue" stroke="midnightblue" points="406.29,-342.29 416.39,-345.48 410.48,-336.69 406.29,-342.29"/>
</g>
<!-- Node11&#45;&gt;Node8 -->
<g id="edge17" class="edge">
<title>Node11&#45;&gt;Node8</title>
<path fill="none" stroke="midnightblue" d="M436.39,-335.63C425.27,-282.22 402.03,-170.54 392.61,-125.23"/>
<polygon fill="midnightblue" stroke="midnightblue" points="432.98,-336.42 438.44,-345.5 439.83,-334.99 432.98,-336.42"/>
</g>
<!-- Node12&#45;&gt;Node4 -->
<g id="edge19" class="edge">
<title>Node12&#45;&gt;Node4</title>
<path fill="none" stroke="midnightblue" d="M923.96,-352.44C875.34,-343.43 812.71,-329.27 759.5,-309 692.28,-283.39 620.06,-239.5 580.88,-214.14"/>
<polygon fill="midnightblue" stroke="midnightblue" points="923.34,-355.88 933.8,-354.22 924.59,-348.99 923.34,-355.88"/>
</g>
<!-- Node13 -->
<g id="node13" class="node">
<title>Node13</title>
<g id="a_node13"><a xlink:href="$_graphic_event_handler_8cpp.html" xlink:title=" ">
<polygon fill="none" stroke="black" points="808,-173 808,-214 951,-214 951,-173 808,-173"/>
<text text-anchor="start" x="816" y="-202" font-family="Helvetica,sans-Serif" font-size="10.00">/home/tomek/trash/battle</text>
<text text-anchor="start" x="816" y="-191" font-family="Helvetica,sans-Serif" font-size="10.00">&#45;city/src/lib/graphic&#45;lib</text>
<text text-anchor="middle" x="879.5" y="-180" font-family="Helvetica,sans-Serif" font-size="10.00">/GraphicEventHandler.cpp</text>
</a>
</g>
</g>
<!-- Node12&#45;&gt;Node13 -->
<g id="edge20" class="edge">
<title>Node12&#45;&gt;Node13</title>
<path fill="none" stroke="midnightblue" d="M992.75,-336.05C982.66,-313.08 966.71,-280.82 947.5,-256 935.42,-240.39 919.09,-225.47 905.46,-214.24"/>
<polygon fill="midnightblue" stroke="midnightblue" points="989.55,-337.46 996.71,-345.27 995.98,-334.7 989.55,-337.46"/>
</g>
<!-- Node14 -->
<g id="node14" class="node">
<title>Node14</title>
<g id="a_node14"><a xlink:href="$_active_state_graphic_8h.html" xlink:title=" ">
<polygon fill="none" stroke="black" points="1502,-256.5 1502,-308.5 1643,-308.5 1643,-256.5 1502,-256.5"/>
<text text-anchor="start" x="1510" y="-296.5" font-family="Helvetica,sans-Serif" font-size="10.00">/home/tomek/trash/battle</text>
<text text-anchor="start" x="1510" y="-285.5" font-family="Helvetica,sans-Serif" font-size="10.00">&#45;city/src/lib/graphic&#45;lib</text>
<text text-anchor="start" x="1510" y="-274.5" font-family="Helvetica,sans-Serif" font-size="10.00">/include/ActiveState_dir</text>
<text text-anchor="middle" x="1572.5" y="-263.5" font-family="Helvetica,sans-Serif" font-size="10.00">/ActiveStateGraphic.h</text>
</a>
</g>
</g>
<!-- Node12&#45;&gt;Node14 -->
<g id="edge21" class="edge">
<title>Node12&#45;&gt;Node14</title>
<path fill="none" stroke="midnightblue" d="M1085.17,-353.42C1196.56,-337.44 1395.68,-308.87 1501.63,-293.67"/>
<polygon fill="midnightblue" stroke="midnightblue" points="1084.4,-350 1075,-354.88 1085.4,-356.93 1084.4,-350"/>
</g>
<!-- Node18 -->
<g id="node18" class="node">
<title>Node18</title>
<g id="a_node18"><a xlink:href="$_window_8cpp.html" xlink:title=" ">
<polygon fill="none" stroke="black" points="1278,-84 1278,-125 1419,-125 1419,-84 1278,-84"/>
<text text-anchor="start" x="1286" y="-113" font-family="Helvetica,sans-Serif" font-size="10.00">/home/tomek/trash/battle</text>
<text text-anchor="start" x="1286" y="-102" font-family="Helvetica,sans-Serif" font-size="10.00">&#45;city/src/lib/graphic&#45;lib</text>
<text text-anchor="middle" x="1348.5" y="-91" font-family="Helvetica,sans-Serif" font-size="10.00">/Window.cpp</text>
</a>
</g>
</g>
<!-- Node12&#45;&gt;Node18 -->
<g id="edge47" class="edge">
<title>Node12&#45;&gt;Node18</title>
<path fill="none" stroke="midnightblue" d="M1085.4,-357.65C1156.49,-349.61 1252.91,-334.38 1281.5,-309 1336.29,-260.35 1346.43,-166.07 1348.2,-125.19"/>
<polygon fill="midnightblue" stroke="midnightblue" points="1084.67,-354.21 1075.11,-358.78 1085.44,-361.16 1084.67,-354.21"/>
</g>
<!-- Node25 -->
<g id="node25" class="node">
<title>Node25</title>
<g id="a_node25"><a xlink:href="$_graphic_event_handler_8h.html" xlink:title=" ">
<polygon fill="none" stroke="black" points="768.5,-262 768.5,-303 938.5,-303 938.5,-262 768.5,-262"/>
<text text-anchor="start" x="776.5" y="-291" font-family="Helvetica,sans-Serif" font-size="10.00">/home/tomek/trash/battle</text>
<text text-anchor="start" x="776.5" y="-280" font-family="Helvetica,sans-Serif" font-size="10.00">&#45;city/src/lib/graphic&#45;lib</text>
<text text-anchor="middle" x="853.5" y="-269" font-family="Helvetica,sans-Serif" font-size="10.00">/include/GraphicEventHandler.h</text>
</a>
</g>
</g>
<!-- Node12&#45;&gt;Node25 -->
<g id="edge36" class="edge">
<title>Node12&#45;&gt;Node25</title>
<path fill="none" stroke="midnightblue" d="M959.39,-340.65C937.1,-328.62 910.56,-314.3 889.63,-303"/>
<polygon fill="midnightblue" stroke="midnightblue" points="957.87,-343.81 968.33,-345.48 961.19,-337.65 957.87,-343.81"/>
</g>
<!-- Node26 -->
<g id="node26" class="node">
<title>Node26</title>
<g id="a_node26"><a xlink:href="$_menu_state_graphic_8h.html" xlink:title=" ">
<polygon fill="none" stroke="black" points="1033,-167.5 1033,-219.5 1174,-219.5 1174,-167.5 1033,-167.5"/>
<text text-anchor="start" x="1041" y="-207.5" font-family="Helvetica,sans-Serif" font-size="10.00">/home/tomek/trash/battle</text>
<text text-anchor="start" x="1041" y="-196.5" font-family="Helvetica,sans-Serif" font-size="10.00">&#45;city/src/lib/graphic&#45;lib</text>
<text text-anchor="start" x="1041" y="-185.5" font-family="Helvetica,sans-Serif" font-size="10.00">/include/StaticStates_dir</text>
<text text-anchor="middle" x="1103.5" y="-174.5" font-family="Helvetica,sans-Serif" font-size="10.00">/MenuStateGraphic.h</text>
</a>
</g>
</g>
<!-- Node12&#45;&gt;Node26 -->
<g id="edge39" class="edge">
<title>Node12&#45;&gt;Node26</title>
<path fill="none" stroke="midnightblue" d="M1021.11,-336.4C1040.08,-303.72 1070.83,-250.76 1088.92,-219.61"/>
<polygon fill="midnightblue" stroke="midnightblue" points="1017.85,-335.04 1015.86,-345.44 1023.9,-338.55 1017.85,-335.04"/>
</g>
<!-- Node27 -->
<g id="node27" class="node">
<title>Node27</title>
<g id="a_node27"><a xlink:href="$_menu_state_graphic_8cpp.html" xlink:title=" ">
<polygon fill="none" stroke="black" points="960,-84 960,-125 1101,-125 1101,-84 960,-84"/>
<text text-anchor="start" x="968" y="-113" font-family="Helvetica,sans-Serif" font-size="10.00">/home/tomek/trash/battle</text>
<text text-anchor="start" x="968" y="-102" font-family="Helvetica,sans-Serif" font-size="10.00">&#45;city/src/lib/graphic&#45;lib</text>
<text text-anchor="middle" x="1030.5" y="-91" font-family="Helvetica,sans-Serif" font-size="10.00">/MenuStateGraphic.cpp</text>
</a>
</g>
</g>
<!-- Node12&#45;&gt;Node27 -->
<g id="edge46" class="edge">
<title>Node12&#45;&gt;Node27</title>
<path fill="none" stroke="midnightblue" d="M1007.19,-335.24C1010.73,-296.49 1017.24,-226.65 1023.5,-167 1024.97,-153 1026.77,-137.22 1028.17,-125.16"/>
<polygon fill="midnightblue" stroke="midnightblue" points="1003.69,-335.04 1006.27,-345.32 1010.67,-335.67 1003.69,-335.04"/>
</g>
<!-- Node29 -->
<g id="node29" class="node">
<title>Node29</title>
<g id="a_node29"><a xlink:href="$_static_graphic_8h.html" xlink:title=" ">
<polygon fill="none" stroke="black" points="1132,-256.5 1132,-308.5 1273,-308.5 1273,-256.5 1132,-256.5"/>
<text text-anchor="start" x="1140" y="-296.5" font-family="Helvetica,sans-Serif" font-size="10.00">/home/tomek/trash/battle</text>
<text text-anchor="start" x="1140" y="-285.5" font-family="Helvetica,sans-Serif" font-size="10.00">&#45;city/src/lib/graphic&#45;lib</text>
<text text-anchor="start" x="1140" y="-274.5" font-family="Helvetica,sans-Serif" font-size="10.00">/include/StaticStates_dir</text>
<text text-anchor="middle" x="1202.5" y="-263.5" font-family="Helvetica,sans-Serif" font-size="10.00">/StaticGraphic.h</text>
</a>
</g>
</g>
<!-- Node12&#45;&gt;Node29 -->
<g id="edge42" class="edge">
<title>Node12&#45;&gt;Node29</title>
<path fill="none" stroke="midnightblue" d="M1061.32,-341.61C1086.43,-331.28 1116.01,-319.1 1141.58,-308.58"/>
<polygon fill="midnightblue" stroke="midnightblue" points="1059.84,-338.44 1051.93,-345.48 1062.51,-344.91 1059.84,-338.44"/>
</g>
<!-- Node15 -->
<g id="node15" class="node">
<title>Node15</title>
<g id="a_node15"><a xlink:href="$_active_state_graphic_8cpp.html" xlink:title=" ">
<polygon fill="none" stroke="black" points="1596,-84 1596,-125 1737,-125 1737,-84 1596,-84"/>
<text text-anchor="start" x="1604" y="-113" font-family="Helvetica,sans-Serif" font-size="10.00">/home/tomek/trash/battle</text>
<text text-anchor="start" x="1604" y="-102" font-family="Helvetica,sans-Serif" font-size="10.00">&#45;city/src/lib/graphic&#45;lib</text>
<text text-anchor="middle" x="1666.5" y="-91" font-family="Helvetica,sans-Serif" font-size="10.00">/ActiveStateGraphic.cpp</text>
</a>
</g>
</g>
<!-- Node14&#45;&gt;Node15 -->
<g id="edge22" class="edge">
<title>Node14&#45;&gt;Node15</title>
<path fill="none" stroke="midnightblue" d="M1590.9,-247.05C1610.31,-210.71 1640.22,-154.71 1655.97,-125.22"/>
<polygon fill="midnightblue" stroke="midnightblue" points="1587.59,-245.81 1585.97,-256.28 1593.77,-249.11 1587.59,-245.81"/>
</g>
<!-- Node16 -->
<g id="node16" class="node">
<title>Node16</title>
<g id="a_node16"><a xlink:href="$_board_graphic_8h.html" xlink:title=" ">
<polygon fill="none" stroke="black" points="1450.5,-167.5 1450.5,-219.5 1594.5,-219.5 1594.5,-167.5 1450.5,-167.5"/>
<text text-anchor="start" x="1458.5" y="-207.5" font-family="Helvetica,sans-Serif" font-size="10.00">/home/tomek/trash/battle</text>
<text text-anchor="start" x="1458.5" y="-196.5" font-family="Helvetica,sans-Serif" font-size="10.00">&#45;city/src/lib/graphic&#45;lib</text>
<text text-anchor="start" x="1458.5" y="-185.5" font-family="Helvetica,sans-Serif" font-size="10.00">/include/ActiveState_dir</text>
<text text-anchor="middle" x="1522.5" y="-174.5" font-family="Helvetica,sans-Serif" font-size="10.00">/Borad_dir/BoardGraphic.h</text>
</a>
</g>
</g>
<!-- Node14&#45;&gt;Node16 -->
<g id="edge23" class="edge">
<title>Node14&#45;&gt;Node16</title>
<path fill="none" stroke="midnightblue" d="M1553.04,-247.64C1547.68,-238.31 1541.95,-228.35 1536.93,-219.61"/>
<polygon fill="midnightblue" stroke="midnightblue" points="1550.02,-249.41 1558.04,-256.34 1556.09,-245.92 1550.02,-249.41"/>
</g>
<!-- Node19 -->
<g id="node19" class="node">
<title>Node19</title>
<g id="a_node19"><a xlink:href="$_frame_graphic_8h.html" xlink:title=" ">
<polygon fill="none" stroke="black" points="1764,-167.5 1764,-219.5 1913,-219.5 1913,-167.5 1764,-167.5"/>
<text text-anchor="start" x="1772" y="-207.5" font-family="Helvetica,sans-Serif" font-size="10.00">/home/tomek/trash/battle</text>
<text text-anchor="start" x="1772" y="-196.5" font-family="Helvetica,sans-Serif" font-size="10.00">&#45;city/src/lib/graphic&#45;lib</text>
<text text-anchor="start" x="1772" y="-185.5" font-family="Helvetica,sans-Serif" font-size="10.00">/include/ActiveState_dir</text>
<text text-anchor="middle" x="1838.5" y="-174.5" font-family="Helvetica,sans-Serif" font-size="10.00">/Frame_dir/FrameGraphic.h</text>
</a>
</g>
</g>
<!-- Node14&#45;&gt;Node19 -->
<g id="edge27" class="edge">
<title>Node14&#45;&gt;Node19</title>
<path fill="none" stroke="midnightblue" d="M1652.86,-255.22C1688.13,-243.68 1729.28,-230.22 1763.86,-218.91"/>
<polygon fill="midnightblue" stroke="midnightblue" points="1651.5,-251.98 1643.08,-258.41 1653.68,-258.63 1651.5,-251.98"/>
</g>
<!-- Node16&#45;&gt;Node15 -->
<g id="edge24" class="edge">
<title>Node16&#45;&gt;Node15</title>
<path fill="none" stroke="midnightblue" d="M1572.97,-162.01C1593.27,-149.74 1616.08,-135.96 1634.09,-125.08"/>
<polygon fill="midnightblue" stroke="midnightblue" points="1570.9,-159.17 1564.15,-167.34 1574.52,-165.16 1570.9,-159.17"/>
</g>
<!-- Node17 -->
<g id="node17" class="node">
<title>Node17</title>
<g id="a_node17"><a xlink:href="$_board_graphic_8cpp.html" xlink:title=" ">
<polygon fill="none" stroke="black" points="1437,-84 1437,-125 1578,-125 1578,-84 1437,-84"/>
<text text-anchor="start" x="1445" y="-113" font-family="Helvetica,sans-Serif" font-size="10.00">/home/tomek/trash/battle</text>
<text text-anchor="start" x="1445" y="-102" font-family="Helvetica,sans-Serif" font-size="10.00">&#45;city/src/lib/graphic&#45;lib</text>
<text text-anchor="middle" x="1507.5" y="-91" font-family="Helvetica,sans-Serif" font-size="10.00">/BoardGraphic.cpp</text>
</a>
</g>
</g>
<!-- Node16&#45;&gt;Node17 -->
<g id="edge25" class="edge">
<title>Node16&#45;&gt;Node17</title>
<path fill="none" stroke="midnightblue" d="M1516.41,-157.16C1514.52,-146.21 1512.51,-134.55 1510.88,-125.08"/>
<polygon fill="midnightblue" stroke="midnightblue" points="1513.01,-158.08 1518.16,-167.34 1519.91,-156.89 1513.01,-158.08"/>
</g>
<!-- Node16&#45;&gt;Node18 -->
<g id="edge26" class="edge">
<title>Node16&#45;&gt;Node18</title>
<path fill="none" stroke="midnightblue" d="M1463.16,-162.83C1438.23,-150.36 1409.92,-136.21 1387.66,-125.08"/>
<polygon fill="midnightblue" stroke="midnightblue" points="1461.66,-165.99 1472.17,-167.34 1464.79,-159.73 1461.66,-165.99"/>
</g>
<!-- Node19&#45;&gt;Node15 -->
<g id="edge28" class="edge">
<title>Node19&#45;&gt;Node15</title>
<path fill="none" stroke="midnightblue" d="M1779.52,-162.66C1754.95,-150.24 1727.11,-136.16 1705.21,-125.08"/>
<polygon fill="midnightblue" stroke="midnightblue" points="1778.25,-165.95 1788.75,-167.34 1781.41,-159.7 1778.25,-165.95"/>
</g>
<!-- Node20 -->
<g id="node20" class="node">
<title>Node20</title>
<g id="a_node20"><a xlink:href="$_frame_graphic_8cpp.html" xlink:title=" ">
<polygon fill="none" stroke="black" points="1879,-0.5 1879,-41.5 2020,-41.5 2020,-0.5 1879,-0.5"/>
<text text-anchor="start" x="1887" y="-29.5" font-family="Helvetica,sans-Serif" font-size="10.00">/home/tomek/trash/battle</text>
<text text-anchor="start" x="1887" y="-18.5" font-family="Helvetica,sans-Serif" font-size="10.00">&#45;city/src/lib/graphic&#45;lib</text>
<text text-anchor="middle" x="1949.5" y="-7.5" font-family="Helvetica,sans-Serif" font-size="10.00">/FrameGraphic.cpp</text>
</a>
</g>
</g>
<!-- Node19&#45;&gt;Node20 -->
<g id="edge29" class="edge">
<title>Node19&#45;&gt;Node20</title>
<path fill="none" stroke="midnightblue" d="M1900.11,-161.52C1911.77,-153.09 1922.74,-142.92 1930.5,-131 1948.21,-103.79 1950.82,-65.01 1950.54,-41.78"/>
<polygon fill="midnightblue" stroke="midnightblue" points="1897.83,-158.84 1891.52,-167.36 1901.76,-164.63 1897.83,-158.84"/>
</g>
<!-- Node21 -->
<g id="node21" class="node">
<title>Node21</title>
<g id="a_node21"><a xlink:href="$_bare_frame_graphic_8h.html" xlink:title=" ">
<polygon fill="none" stroke="black" points="1978,-78.5 1978,-130.5 2149,-130.5 2149,-78.5 1978,-78.5"/>
<text text-anchor="start" x="1986" y="-118.5" font-family="Helvetica,sans-Serif" font-size="10.00">/home/tomek/trash/battle</text>
<text text-anchor="start" x="1986" y="-107.5" font-family="Helvetica,sans-Serif" font-size="10.00">&#45;city/src/lib/graphic&#45;lib</text>
<text text-anchor="start" x="1986" y="-96.5" font-family="Helvetica,sans-Serif" font-size="10.00">/include/ActiveState_dir</text>
<text text-anchor="middle" x="2063.5" y="-85.5" font-family="Helvetica,sans-Serif" font-size="10.00">/Frame_dir/BareFrameGraphic.h</text>
</a>
</g>
</g>
<!-- Node19&#45;&gt;Node21 -->
<g id="edge30" class="edge">
<title>Node19&#45;&gt;Node21</title>
<path fill="none" stroke="midnightblue" d="M1912.94,-163.72C1940.7,-152.98 1971.97,-140.89 1998.79,-130.52"/>
<polygon fill="midnightblue" stroke="midnightblue" points="1911.34,-160.58 1903.28,-167.45 1913.87,-167.11 1911.34,-160.58"/>
</g>
<!-- Node23 -->
<g id="node23" class="node">
<title>Node23</title>
<g id="a_node23"><a xlink:href="$_game_info_graphic_8h.html" xlink:title=" ">
<polygon fill="none" stroke="black" points="1755.5,-78.5 1755.5,-130.5 1921.5,-130.5 1921.5,-78.5 1755.5,-78.5"/>
<text text-anchor="start" x="1763.5" y="-118.5" font-family="Helvetica,sans-Serif" font-size="10.00">/home/tomek/trash/battle</text>
<text text-anchor="start" x="1763.5" y="-107.5" font-family="Helvetica,sans-Serif" font-size="10.00">&#45;city/src/lib/graphic&#45;lib</text>
<text text-anchor="start" x="1763.5" y="-96.5" font-family="Helvetica,sans-Serif" font-size="10.00">/include/ActiveState_dir</text>
<text text-anchor="middle" x="1838.5" y="-85.5" font-family="Helvetica,sans-Serif" font-size="10.00">/Frame_dir/GameInfoGraphic.h</text>
</a>
</g>
</g>
<!-- Node19&#45;&gt;Node23 -->
<g id="edge33" class="edge">
<title>Node19&#45;&gt;Node23</title>
<path fill="none" stroke="midnightblue" d="M1838.5,-157.19C1838.5,-148.28 1838.5,-138.9 1838.5,-130.61"/>
<polygon fill="midnightblue" stroke="midnightblue" points="1835,-157.34 1838.5,-167.34 1842,-157.34 1835,-157.34"/>
</g>
<!-- Node21&#45;&gt;Node20 -->
<g id="edge32" class="edge">
<title>Node21&#45;&gt;Node20</title>
<path fill="none" stroke="midnightblue" d="M2020.05,-72.44C2005.63,-62.13 1989.99,-50.95 1977.1,-41.73"/>
<polygon fill="midnightblue" stroke="midnightblue" points="2018.2,-75.41 2028.37,-78.38 2022.27,-69.72 2018.2,-75.41"/>
</g>
<!-- Node22 -->
<g id="node22" class="node">
<title>Node22</title>
<g id="a_node22"><a xlink:href="$_bare_frame_graphic_8cpp.html" xlink:title=" ">
<polygon fill="none" stroke="black" points="2038,-0.5 2038,-41.5 2179,-41.5 2179,-0.5 2038,-0.5"/>
<text text-anchor="start" x="2046" y="-29.5" font-family="Helvetica,sans-Serif" font-size="10.00">/home/tomek/trash/battle</text>
<text text-anchor="start" x="2046" y="-18.5" font-family="Helvetica,sans-Serif" font-size="10.00">&#45;city/src/lib/graphic&#45;lib</text>
<text text-anchor="middle" x="2108.5" y="-7.5" font-family="Helvetica,sans-Serif" font-size="10.00">/BareFrameGraphic.cpp</text>
</a>
</g>
</g>
<!-- Node21&#45;&gt;Node22 -->
<g id="edge31" class="edge">
<title>Node21&#45;&gt;Node22</title>
<path fill="none" stroke="midnightblue" d="M2082.37,-69.32C2087.59,-59.87 2093.07,-49.94 2097.66,-41.63"/>
<polygon fill="midnightblue" stroke="midnightblue" points="2079.26,-67.71 2077.49,-78.16 2085.39,-71.1 2079.26,-67.71"/>
</g>
<!-- Node23&#45;&gt;Node20 -->
<g id="edge34" class="edge">
<title>Node23&#45;&gt;Node20</title>
<path fill="none" stroke="midnightblue" d="M1880.81,-72.44C1894.84,-62.13 1910.08,-50.95 1922.62,-41.73"/>
<polygon fill="midnightblue" stroke="midnightblue" points="1878.7,-69.64 1872.71,-78.38 1882.84,-75.29 1878.7,-69.64"/>
</g>
<!-- Node24 -->
<g id="node24" class="node">
<title>Node24</title>
<g id="a_node24"><a xlink:href="$_game_info_graphic_8cpp.html" xlink:title=" ">
<polygon fill="none" stroke="black" points="1720,-0.5 1720,-41.5 1861,-41.5 1861,-0.5 1720,-0.5"/>
<text text-anchor="start" x="1728" y="-29.5" font-family="Helvetica,sans-Serif" font-size="10.00">/home/tomek/trash/battle</text>
<text text-anchor="start" x="1728" y="-18.5" font-family="Helvetica,sans-Serif" font-size="10.00">&#45;city/src/lib/graphic&#45;lib</text>
<text text-anchor="middle" x="1790.5" y="-7.5" font-family="Helvetica,sans-Serif" font-size="10.00">/GameInfoGraphic.cpp</text>
</a>
</g>
</g>
<!-- Node23&#45;&gt;Node24 -->
<g id="edge35" class="edge">
<title>Node23&#45;&gt;Node24</title>
<path fill="none" stroke="midnightblue" d="M1818.37,-69.32C1812.8,-59.87 1806.96,-49.94 1802.06,-41.63"/>
<polygon fill="midnightblue" stroke="midnightblue" points="1815.48,-71.32 1823.58,-78.16 1821.52,-67.77 1815.48,-71.32"/>
</g>
<!-- Node25&#45;&gt;Node4 -->
<g id="edge37" class="edge">
<title>Node25&#45;&gt;Node4</title>
<path fill="none" stroke="midnightblue" d="M775.92,-259.15C727.5,-245.2 665.77,-227.42 619.31,-214.03"/>
<polygon fill="midnightblue" stroke="midnightblue" points="775.15,-262.57 785.73,-261.98 777.08,-255.84 775.15,-262.57"/>
</g>
<!-- Node25&#45;&gt;Node13 -->
<g id="edge38" class="edge">
<title>Node25&#45;&gt;Node13</title>
<path fill="none" stroke="midnightblue" d="M862.37,-251.81C866.09,-239.38 870.3,-225.27 873.62,-214.16"/>
<polygon fill="midnightblue" stroke="midnightblue" points="858.91,-251.17 859.4,-261.76 865.62,-253.18 858.91,-251.17"/>
</g>
<!-- Node26&#45;&gt;Node27 -->
<g id="edge40" class="edge">
<title>Node26&#45;&gt;Node27</title>
<path fill="none" stroke="midnightblue" d="M1075.82,-159.51C1066.08,-147.9 1055.45,-135.23 1046.93,-125.08"/>
<polygon fill="midnightblue" stroke="midnightblue" points="1073.28,-161.93 1082.39,-167.34 1078.64,-157.43 1073.28,-161.93"/>
</g>
<!-- Node28 -->
<g id="node28" class="node">
<title>Node28</title>
<g id="a_node28"><a xlink:href="$_static_graphic_8cpp.html" xlink:title=" ">
<polygon fill="none" stroke="black" points="1119,-84 1119,-125 1260,-125 1260,-84 1119,-84"/>
<text text-anchor="start" x="1127" y="-113" font-family="Helvetica,sans-Serif" font-size="10.00">/home/tomek/trash/battle</text>
<text text-anchor="start" x="1127" y="-102" font-family="Helvetica,sans-Serif" font-size="10.00">&#45;city/src/lib/graphic&#45;lib</text>
<text text-anchor="middle" x="1189.5" y="-91" font-family="Helvetica,sans-Serif" font-size="10.00">/StaticGraphic.cpp</text>
</a>
</g>
</g>
<!-- Node26&#45;&gt;Node28 -->
<g id="edge41" class="edge">
<title>Node26&#45;&gt;Node28</title>
<path fill="none" stroke="midnightblue" d="M1135.45,-160.18C1147.1,-148.39 1159.92,-135.43 1170.14,-125.08"/>
<polygon fill="midnightblue" stroke="midnightblue" points="1132.92,-157.76 1128.37,-167.34 1137.89,-162.68 1132.92,-157.76"/>
</g>
<!-- Node29&#45;&gt;Node18 -->
<g id="edge45" class="edge">
<title>Node29&#45;&gt;Node18</title>
<path fill="none" stroke="midnightblue" d="M1229.94,-248.43C1260.04,-212.14 1307.36,-155.09 1332.14,-125.22"/>
<polygon fill="midnightblue" stroke="midnightblue" points="1227.11,-246.35 1223.42,-256.28 1232.5,-250.82 1227.11,-246.35"/>
</g>
<!-- Node29&#45;&gt;Node26 -->
<g id="edge43" class="edge">
<title>Node29&#45;&gt;Node26</title>
<path fill="none" stroke="midnightblue" d="M1166.26,-249.65C1154.99,-239.75 1142.74,-228.98 1132.07,-219.61"/>
<polygon fill="midnightblue" stroke="midnightblue" points="1164.04,-252.36 1173.87,-256.34 1168.66,-247.11 1164.04,-252.36"/>
</g>
<!-- Node29&#45;&gt;Node28 -->
<g id="edge44" class="edge">
<title>Node29&#45;&gt;Node28</title>
<path fill="none" stroke="midnightblue" d="M1199.89,-246.11C1197.2,-209.76 1193.12,-154.46 1190.96,-125.22"/>
<polygon fill="midnightblue" stroke="midnightblue" points="1196.41,-246.57 1200.64,-256.28 1203.39,-246.05 1196.41,-246.57"/>
</g>
</g>
</svg>
