<?xml version="1.0" encoding="UTF-8" standalone="no"?>
<!DOCTYPE svg PUBLIC "-//W3C//DTD SVG 1.1//EN"
 "http://www.w3.org/Graphics/SVG/1.1/DTD/svg11.dtd">
<!-- Generated by graphviz version 2.43.0 (0)
 -->
<!-- Title: /home/tomek/CLionProjects/proi/proi&#45;projekt/src/game&#45;lib/include/GameState.h Pages: 1 -->
<svg width="1304pt" height="206pt"
 viewBox="0.00 0.00 1304.00 206.00" xmlns="http://www.w3.org/2000/svg" xmlns:xlink="http://www.w3.org/1999/xlink">
<g id="graph0" class="graph" transform="scale(1 1) rotate(0) translate(4 202)">
<title>/home/tomek/CLionProjects/proi/proi&#45;projekt/src/game&#45;lib/include/GameState.h</title>
<!-- Node1 -->
<g id="node1" class="node">
<title>Node1</title>
<g id="a_node1"><a xlink:title=" ">
<polygon fill="#bfbfbf" stroke="black" points="760.5,-156.5 760.5,-197.5 928.5,-197.5 928.5,-156.5 760.5,-156.5"/>
<text text-anchor="start" x="768.5" y="-185.5" font-family="Helvetica,sans-Serif" font-size="10.00">/home/tomek/CLionProjects</text>
<text text-anchor="start" x="768.5" y="-174.5" font-family="Helvetica,sans-Serif" font-size="10.00">/proi/proi&#45;projekt/src</text>
<text text-anchor="middle" x="844.5" y="-163.5" font-family="Helvetica,sans-Serif" font-size="10.00">/game&#45;lib/include/GameState.h</text>
</a>
</g>
</g>
<!-- Node2 -->
<g id="node2" class="node">
<title>Node2</title>
<g id="a_node2"><a xlink:href="$_game_8cpp.html" xlink:title=" ">
<polygon fill="none" stroke="black" points="0,-0.5 0,-41.5 151,-41.5 151,-0.5 0,-0.5"/>
<text text-anchor="start" x="8" y="-29.5" font-family="Helvetica,sans-Serif" font-size="10.00">/home/tomek/CLionProjects</text>
<text text-anchor="start" x="8" y="-18.5" font-family="Helvetica,sans-Serif" font-size="10.00">/proi/proi&#45;projekt/src</text>
<text text-anchor="middle" x="75.5" y="-7.5" font-family="Helvetica,sans-Serif" font-size="10.00">/game&#45;lib/Game.cpp</text>
</a>
</g>
</g>
<!-- Node1&#45;&gt;Node2 -->
<g id="edge1" class="edge">
<title>Node1&#45;&gt;Node2</title>
<path fill="none" stroke="midnightblue" d="M750.23,-158.69C618.1,-134.17 370.47,-87.25 160.5,-42 157.39,-41.33 154.21,-40.63 151.01,-39.92"/>
<polygon fill="midnightblue" stroke="midnightblue" points="749.85,-162.18 760.32,-160.56 751.12,-155.3 749.85,-162.18"/>
</g>
<!-- Node3 -->
<g id="node3" class="node">
<title>Node3</title>
<g id="a_node3"><a xlink:href="$_game_state_8cpp.html" xlink:title=" ">
<polygon fill="none" stroke="black" points="1145,-0.5 1145,-41.5 1296,-41.5 1296,-0.5 1145,-0.5"/>
<text text-anchor="start" x="1153" y="-29.5" font-family="Helvetica,sans-Serif" font-size="10.00">/home/tomek/CLionProjects</text>
<text text-anchor="start" x="1153" y="-18.5" font-family="Helvetica,sans-Serif" font-size="10.00">/proi/proi&#45;projekt/src</text>
<text text-anchor="middle" x="1220.5" y="-7.5" font-family="Helvetica,sans-Serif" font-size="10.00">/game&#45;lib/GameState.cpp</text>
</a>
</g>
</g>
<!-- Node1&#45;&gt;Node3 -->
<g id="edge2" class="edge">
<title>Node1&#45;&gt;Node3</title>
<path fill="none" stroke="midnightblue" d="M938.76,-170.72C1025.47,-164.07 1145.98,-149.68 1182.5,-120 1206.43,-100.55 1215.33,-64.07 1218.61,-41.52"/>
<polygon fill="midnightblue" stroke="midnightblue" points="938.34,-167.25 928.62,-171.48 938.86,-174.23 938.34,-167.25"/>
</g>
<!-- Node4 -->
<g id="node4" class="node">
<title>Node4</title>
<g id="a_node4"><a xlink:href="$_game_8h.html" xlink:title=" ">
<polygon fill="none" stroke="black" points="572,-78.5 572,-119.5 723,-119.5 723,-78.5 572,-78.5"/>
<text text-anchor="start" x="580" y="-107.5" font-family="Helvetica,sans-Serif" font-size="10.00">/home/tomek/CLionProjects</text>
<text text-anchor="start" x="580" y="-96.5" font-family="Helvetica,sans-Serif" font-size="10.00">/proi/proi&#45;projekt/src</text>
<text text-anchor="middle" x="647.5" y="-85.5" font-family="Helvetica,sans-Serif" font-size="10.00">/game&#45;lib/include/Game.h</text>
</a>
</g>
</g>
<!-- Node1&#45;&gt;Node4 -->
<g id="edge3" class="edge">
<title>Node1&#45;&gt;Node4</title>
<path fill="none" stroke="midnightblue" d="M784.23,-152.75C756.65,-142.11 724.34,-129.65 698.06,-119.51"/>
<polygon fill="midnightblue" stroke="midnightblue" points="783.18,-156.09 793.77,-156.43 785.7,-149.56 783.18,-156.09"/>
</g>
<!-- Node10 -->
<g id="node10" class="node">
<title>Node10</title>
<g id="a_node10"><a xlink:href="$_menu_event_handler_8h.html" xlink:title=" ">
<polygon fill="none" stroke="black" points="741.5,-78.5 741.5,-119.5 947.5,-119.5 947.5,-78.5 741.5,-78.5"/>
<text text-anchor="start" x="749.5" y="-107.5" font-family="Helvetica,sans-Serif" font-size="10.00">/home/tomek/CLionProjects</text>
<text text-anchor="start" x="749.5" y="-96.5" font-family="Helvetica,sans-Serif" font-size="10.00">/proi/proi&#45;projekt/src</text>
<text text-anchor="middle" x="844.5" y="-85.5" font-family="Helvetica,sans-Serif" font-size="10.00">/game&#45;lib/include/MenuEventHandler.h</text>
</a>
</g>
</g>
<!-- Node1&#45;&gt;Node10 -->
<g id="edge10" class="edge">
<title>Node1&#45;&gt;Node10</title>
<path fill="none" stroke="midnightblue" d="M837.9,-146.3C837.58,-137.3 837.78,-127.65 838.52,-119.51"/>
<polygon fill="midnightblue" stroke="midnightblue" points="834.41,-146.66 838.51,-156.43 841.4,-146.23 834.41,-146.66"/>
</g>
<!-- Node11 -->
<g id="node11" class="node">
<title>Node11</title>
<g id="a_node11"><a xlink:href="$_pause_event_handler_8h.html" xlink:title=" ">
<polygon fill="none" stroke="black" points="966,-78.5 966,-119.5 1173,-119.5 1173,-78.5 966,-78.5"/>
<text text-anchor="start" x="974" y="-107.5" font-family="Helvetica,sans-Serif" font-size="10.00">/home/tomek/CLionProjects</text>
<text text-anchor="start" x="974" y="-96.5" font-family="Helvetica,sans-Serif" font-size="10.00">/proi/proi&#45;projekt/src</text>
<text text-anchor="middle" x="1069.5" y="-85.5" font-family="Helvetica,sans-Serif" font-size="10.00">/game&#45;lib/include/PauseEventHandler.h</text>
</a>
</g>
</g>
<!-- Node1&#45;&gt;Node11 -->
<g id="edge14" class="edge">
<title>Node1&#45;&gt;Node11</title>
<path fill="none" stroke="midnightblue" d="M906.26,-153.03C937.19,-142.33 974.57,-129.73 1005.77,-119.51"/>
<polygon fill="midnightblue" stroke="midnightblue" points="904.75,-149.84 896.45,-156.43 907.05,-156.46 904.75,-149.84"/>
</g>
<!-- Node4&#45;&gt;Node2 -->
<g id="edge6" class="edge">
<title>Node4&#45;&gt;Node2</title>
<path fill="none" stroke="midnightblue" d="M561.49,-91.16C463.84,-82.7 299.98,-66.34 160.5,-42 157.51,-41.48 154.47,-40.92 151.41,-40.32"/>
<polygon fill="midnightblue" stroke="midnightblue" points="561.34,-94.66 571.61,-92.03 561.94,-87.69 561.34,-94.66"/>
</g>
<!-- Node5 -->
<g id="node5" class="node">
<title>Node5</title>
<g id="a_node5"><a xlink:href="$_active_event_handler_8cpp.html" xlink:title=" ">
<polygon fill="none" stroke="black" points="169.5,-0.5 169.5,-41.5 351.5,-41.5 351.5,-0.5 169.5,-0.5"/>
<text text-anchor="start" x="177.5" y="-29.5" font-family="Helvetica,sans-Serif" font-size="10.00">/home/tomek/CLionProjects</text>
<text text-anchor="start" x="177.5" y="-18.5" font-family="Helvetica,sans-Serif" font-size="10.00">/proi/proi&#45;projekt/src</text>
<text text-anchor="middle" x="260.5" y="-7.5" font-family="Helvetica,sans-Serif" font-size="10.00">/game&#45;lib/ActiveEventHandler.cpp</text>
</a>
</g>
</g>
<!-- Node4&#45;&gt;Node5 -->
<g id="edge4" class="edge">
<title>Node4&#45;&gt;Node5</title>
<path fill="none" stroke="midnightblue" d="M561.89,-81.4C504.82,-70.32 428.15,-55.37 360.5,-42 357.55,-41.42 354.55,-40.82 351.51,-40.22"/>
<polygon fill="midnightblue" stroke="midnightblue" points="561.46,-84.89 571.95,-83.36 562.8,-78.02 561.46,-84.89"/>
</g>
<!-- Node6 -->
<g id="node6" class="node">
<title>Node6</title>
<g id="a_node6"><a xlink:href="$_finished_event_handler_8cpp.html" xlink:title=" ">
<polygon fill="none" stroke="black" points="369.5,-0.5 369.5,-41.5 561.5,-41.5 561.5,-0.5 369.5,-0.5"/>
<text text-anchor="start" x="377.5" y="-29.5" font-family="Helvetica,sans-Serif" font-size="10.00">/home/tomek/CLionProjects</text>
<text text-anchor="start" x="377.5" y="-18.5" font-family="Helvetica,sans-Serif" font-size="10.00">/proi/proi&#45;projekt/src</text>
<text text-anchor="middle" x="465.5" y="-7.5" font-family="Helvetica,sans-Serif" font-size="10.00">/game&#45;lib/FinishedEventHandler.cpp</text>
</a>
</g>
</g>
<!-- Node4&#45;&gt;Node6 -->
<g id="edge5" class="edge">
<title>Node4&#45;&gt;Node6</title>
<path fill="none" stroke="midnightblue" d="M591.15,-74.47C565.82,-63.89 536.28,-51.56 512.21,-41.51"/>
<polygon fill="midnightblue" stroke="midnightblue" points="590.05,-77.8 600.63,-78.43 592.75,-71.34 590.05,-77.8"/>
</g>
<!-- Node7 -->
<g id="node7" class="node">
<title>Node7</title>
<g id="a_node7"><a xlink:href="$_menu_event_handler_8cpp.html" xlink:title=" ">
<polygon fill="none" stroke="black" points="749,-0.5 749,-41.5 928,-41.5 928,-0.5 749,-0.5"/>
<text text-anchor="start" x="757" y="-29.5" font-family="Helvetica,sans-Serif" font-size="10.00">/home/tomek/CLionProjects</text>
<text text-anchor="start" x="757" y="-18.5" font-family="Helvetica,sans-Serif" font-size="10.00">/proi/proi&#45;projekt/src</text>
<text text-anchor="middle" x="838.5" y="-7.5" font-family="Helvetica,sans-Serif" font-size="10.00">/game&#45;lib/MenuEventHandler.cpp</text>
</a>
</g>
</g>
<!-- Node4&#45;&gt;Node7 -->
<g id="edge7" class="edge">
<title>Node4&#45;&gt;Node7</title>
<path fill="none" stroke="midnightblue" d="M706.29,-74.61C732.95,-64 764.11,-51.6 789.48,-41.51"/>
<polygon fill="midnightblue" stroke="midnightblue" points="704.68,-71.48 696.69,-78.43 707.27,-77.98 704.68,-71.48"/>
</g>
<!-- Node8 -->
<g id="node8" class="node">
<title>Node8</title>
<g id="a_node8"><a xlink:href="$_pause_event_handler_8cpp.html" xlink:title=" ">
<polygon fill="none" stroke="black" points="946.5,-0.5 946.5,-41.5 1126.5,-41.5 1126.5,-0.5 946.5,-0.5"/>
<text text-anchor="start" x="954.5" y="-29.5" font-family="Helvetica,sans-Serif" font-size="10.00">/home/tomek/CLionProjects</text>
<text text-anchor="start" x="954.5" y="-18.5" font-family="Helvetica,sans-Serif" font-size="10.00">/proi/proi&#45;projekt/src</text>
<text text-anchor="middle" x="1036.5" y="-7.5" font-family="Helvetica,sans-Serif" font-size="10.00">/game&#45;lib/PauseEventHandler.cpp</text>
</a>
</g>
</g>
<!-- Node4&#45;&gt;Node8 -->
<g id="edge8" class="edge">
<title>Node4&#45;&gt;Node8</title>
<path fill="none" stroke="midnightblue" d="M733.37,-77.88C824.35,-59.4 849.11,-58.45 936.5,-42 939.72,-41.39 942.99,-40.77 946.3,-40.14"/>
<polygon fill="midnightblue" stroke="midnightblue" points="732.55,-74.47 723.45,-79.9 733.95,-81.33 732.55,-74.47"/>
</g>
<!-- Node9 -->
<g id="node9" class="node">
<title>Node9</title>
<g id="a_node9"><a xlink:href="$tanks_8cpp.html" xlink:title=" ">
<polygon fill="none" stroke="black" points="580,-0.5 580,-41.5 731,-41.5 731,-0.5 580,-0.5"/>
<text text-anchor="start" x="588" y="-29.5" font-family="Helvetica,sans-Serif" font-size="10.00">/home/tomek/CLionProjects</text>
<text text-anchor="start" x="588" y="-18.5" font-family="Helvetica,sans-Serif" font-size="10.00">/proi/proi&#45;projekt/src</text>
<text text-anchor="middle" x="655.5" y="-7.5" font-family="Helvetica,sans-Serif" font-size="10.00">/main/tanks.cpp</text>
</a>
</g>
</g>
<!-- Node4&#45;&gt;Node9 -->
<g id="edge9" class="edge">
<title>Node4&#45;&gt;Node9</title>
<path fill="none" stroke="midnightblue" d="M650.63,-68.3C651.57,-59.3 652.59,-49.65 653.45,-41.51"/>
<polygon fill="midnightblue" stroke="midnightblue" points="647.13,-68.12 649.56,-78.43 654.09,-68.85 647.13,-68.12"/>
</g>
<!-- Node10&#45;&gt;Node1 -->
<g id="edge13" class="edge">
<title>Node10&#45;&gt;Node1</title>
<path fill="none" stroke="midnightblue" d="M851.1,-129.63C851.42,-138.62 851.22,-148.27 850.49,-156.43"/>
<polygon fill="midnightblue" stroke="midnightblue" points="854.59,-129.27 850.48,-119.51 847.6,-129.7 854.59,-129.27"/>
</g>
<!-- Node10&#45;&gt;Node3 -->
<g id="edge11" class="edge">
<title>Node10&#45;&gt;Node3</title>
<path fill="none" stroke="midnightblue" d="M957.67,-77.34C1011.62,-67.2 1077.01,-54.5 1135.5,-42 1138.61,-41.33 1141.79,-40.64 1144.99,-39.94"/>
<polygon fill="midnightblue" stroke="midnightblue" points="956.92,-73.92 947.73,-79.2 958.21,-80.8 956.92,-73.92"/>
</g>
<!-- Node10&#45;&gt;Node7 -->
<g id="edge12" class="edge">
<title>Node10&#45;&gt;Node7</title>
<path fill="none" stroke="midnightblue" d="M842.15,-68.3C841.44,-59.3 840.68,-49.65 840.04,-41.51"/>
<polygon fill="midnightblue" stroke="midnightblue" points="838.68,-68.73 842.95,-78.43 845.66,-68.18 838.68,-68.73"/>
</g>
<!-- Node11&#45;&gt;Node1 -->
<g id="edge17" class="edge">
<title>Node11&#45;&gt;Node1</title>
<path fill="none" stroke="midnightblue" d="M1007.94,-122.9C977.04,-133.59 939.66,-146.19 908.43,-156.43"/>
<polygon fill="midnightblue" stroke="midnightblue" points="1009.44,-126.09 1017.74,-119.51 1007.14,-119.48 1009.44,-126.09"/>
</g>
<!-- Node11&#45;&gt;Node3 -->
<g id="edge15" class="edge">
<title>Node11&#45;&gt;Node3</title>
<path fill="none" stroke="midnightblue" d="M1117.37,-73.91C1138.13,-63.46 1162.13,-51.38 1181.75,-41.51"/>
<polygon fill="midnightblue" stroke="midnightblue" points="1115.75,-70.81 1108.39,-78.43 1118.89,-77.06 1115.75,-70.81"/>
</g>
<!-- Node11&#45;&gt;Node8 -->
<g id="edge16" class="edge">
<title>Node11&#45;&gt;Node8</title>
<path fill="none" stroke="midnightblue" d="M1056.98,-69.17C1052.97,-59.93 1048.62,-49.92 1044.97,-41.51"/>
<polygon fill="midnightblue" stroke="midnightblue" points="1053.81,-70.65 1061,-78.43 1060.23,-67.86 1053.81,-70.65"/>
</g>
</g>
</svg>
