<?xml version="1.0" encoding="UTF-8" standalone="no"?>
<!DOCTYPE svg PUBLIC "-//W3C//DTD SVG 1.1//EN"
 "http://www.w3.org/Graphics/SVG/1.1/DTD/svg11.dtd">
<!-- Generated by graphviz version 2.43.0 (0)
 -->
<!-- Title: /home/tomek/CLionProjects/proi/proi&#45;projekt/src/game&#45;lib/GameStatistics.cpp Pages: 1 -->
<svg width="457pt" height="229pt"
 viewBox="0.00 0.00 456.50 229.00" xmlns="http://www.w3.org/2000/svg" xmlns:xlink="http://www.w3.org/1999/xlink">
<g id="graph0" class="graph" transform="scale(1 1) rotate(0) translate(4 225)">
<title>/home/tomek/CLionProjects/proi/proi&#45;projekt/src/game&#45;lib/GameStatistics.cpp</title>
<!-- Node1 -->
<g id="node1" class="node">
<title>Node1</title>
<g id="a_node1"><a xlink:title=" ">
<polygon fill="#bfbfbf" stroke="black" points="217.5,-179.5 217.5,-220.5 378.5,-220.5 378.5,-179.5 217.5,-179.5"/>
<text text-anchor="start" x="225.5" y="-208.5" font-family="Helvetica,sans-Serif" font-size="10.00">/home/tomek/CLionProjects</text>
<text text-anchor="start" x="225.5" y="-197.5" font-family="Helvetica,sans-Serif" font-size="10.00">/proi/proi&#45;projekt/src</text>
<text text-anchor="middle" x="298" y="-186.5" font-family="Helvetica,sans-Serif" font-size="10.00">/game&#45;lib/GameStatistics.cpp</text>
</a>
</g>
</g>
<!-- Node2 -->
<g id="node2" class="node">
<title>Node2</title>
<g id="a_node2"><a xlink:title=" ">
<polygon fill="none" stroke="#bfbfbf" points="403.5,-62 403.5,-81 448.5,-81 448.5,-62 403.5,-62"/>
<text text-anchor="middle" x="426" y="-69" font-family="Helvetica,sans-Serif" font-size="10.00">utility</text>
</a>
</g>
</g>
<!-- Node1&#45;&gt;Node2 -->
<g id="edge1" class="edge">
<title>Node1&#45;&gt;Node2</title>
<path fill="none" stroke="midnightblue" d="M378.54,-180.65C397.57,-172.35 415.62,-160.35 427,-143 437.05,-127.68 435.01,-106.18 431.58,-90.96"/>
<polygon fill="midnightblue" stroke="midnightblue" points="434.93,-89.93 428.98,-81.16 428.16,-91.72 434.93,-89.93"/>
</g>
<!-- Node3 -->
<g id="node3" class="node">
<title>Node3</title>
<g id="a_node3"><a xlink:title=" ">
<polygon fill="none" stroke="#bfbfbf" points="212,-123.5 212,-142.5 272,-142.5 272,-123.5 212,-123.5"/>
<text text-anchor="middle" x="242" y="-130.5" font-family="Helvetica,sans-Serif" font-size="10.00">iostream</text>
</a>
</g>
</g>
<!-- Node1&#45;&gt;Node3 -->
<g id="edge2" class="edge">
<title>Node1&#45;&gt;Node3</title>
<path fill="none" stroke="midnightblue" d="M281.2,-179.5C273.19,-170.2 263.72,-159.21 256.09,-150.36"/>
<polygon fill="midnightblue" stroke="midnightblue" points="258.63,-147.94 249.45,-142.65 253.33,-152.51 258.63,-147.94"/>
</g>
<!-- Node4 -->
<g id="node4" class="node">
<title>Node4</title>
<g id="a_node4"><a xlink:href="$_game_statistics_8h.html" xlink:title=" ">
<polygon fill="none" stroke="black" points="56,-123.5 56,-142.5 194,-142.5 194,-123.5 56,-123.5"/>
<text text-anchor="middle" x="125" y="-130.5" font-family="Helvetica,sans-Serif" font-size="10.00">include/GameStatistics.h</text>
</a>
</g>
</g>
<!-- Node1&#45;&gt;Node4 -->
<g id="edge3" class="edge">
<title>Node1&#45;&gt;Node4</title>
<path fill="none" stroke="midnightblue" d="M246.09,-179.5C217.4,-168.72 182.63,-155.65 157.72,-146.29"/>
<polygon fill="midnightblue" stroke="midnightblue" points="158.62,-142.89 148.03,-142.65 156.16,-149.45 158.62,-142.89"/>
</g>
<!-- Node12 -->
<g id="node12" class="node">
<title>Node12</title>
<g id="a_node12"><a xlink:href="$_game_stats_i_o_8h.html" xlink:title=" ">
<polygon fill="none" stroke="black" points="290,-123.5 290,-142.5 418,-142.5 418,-123.5 290,-123.5"/>
<text text-anchor="middle" x="354" y="-130.5" font-family="Helvetica,sans-Serif" font-size="10.00">include/GameStatsIO.h</text>
</a>
</g>
</g>
<!-- Node1&#45;&gt;Node12 -->
<g id="edge12" class="edge">
<title>Node1&#45;&gt;Node12</title>
<path fill="none" stroke="midnightblue" d="M314.8,-179.5C322.81,-170.2 332.28,-159.21 339.91,-150.36"/>
<polygon fill="midnightblue" stroke="midnightblue" points="342.67,-152.51 346.55,-142.65 337.37,-147.94 342.67,-152.51"/>
</g>
<!-- Node5 -->
<g id="node5" class="node">
<title>Node5</title>
<g id="a_node5"><a xlink:title=" ">
<polygon fill="none" stroke="#bfbfbf" points="128,-62 128,-81 160,-81 160,-62 128,-62"/>
<text text-anchor="middle" x="144" y="-69" font-family="Helvetica,sans-Serif" font-size="10.00">list</text>
</a>
</g>
</g>
<!-- Node4&#45;&gt;Node5 -->
<g id="edge4" class="edge">
<title>Node4&#45;&gt;Node5</title>
<path fill="none" stroke="midnightblue" d="M127.72,-123.48C130.43,-114.99 134.67,-101.7 138.15,-90.82"/>
<polygon fill="midnightblue" stroke="midnightblue" points="141.57,-91.6 141.28,-81.01 134.91,-89.47 141.57,-91.6"/>
</g>
<!-- Node6 -->
<g id="node6" class="node">
<title>Node6</title>
<g id="a_node6"><a xlink:href="$_event_queue_8h.html" xlink:title=" ">
<polygon fill="none" stroke="black" points="0,-56.5 0,-86.5 110,-86.5 110,-56.5 0,-56.5"/>
<text text-anchor="start" x="8" y="-74.5" font-family="Helvetica,sans-Serif" font-size="10.00">../../core&#45;lib/include</text>
<text text-anchor="middle" x="55" y="-63.5" font-family="Helvetica,sans-Serif" font-size="10.00">/EventQueue.h</text>
</a>
</g>
</g>
<!-- Node4&#45;&gt;Node6 -->
<g id="edge5" class="edge">
<title>Node4&#45;&gt;Node6</title>
<path fill="none" stroke="midnightblue" d="M114.97,-123.48C105.67,-115.57 91.45,-103.48 79.2,-93.07"/>
<polygon fill="midnightblue" stroke="midnightblue" points="81.38,-90.33 71.5,-86.52 76.85,-95.67 81.38,-90.33"/>
</g>
<!-- Node9 -->
<g id="node9" class="node">
<title>Node9</title>
<g id="a_node9"><a xlink:href="$_event_8h.html" xlink:title=" ">
<polygon fill="none" stroke="black" points="216,-56.5 216,-86.5 326,-86.5 326,-56.5 216,-56.5"/>
<text text-anchor="start" x="224" y="-74.5" font-family="Helvetica,sans-Serif" font-size="10.00">../../core&#45;lib/include</text>
<text text-anchor="middle" x="271" y="-63.5" font-family="Helvetica,sans-Serif" font-size="10.00">/Event.h</text>
</a>
</g>
</g>
<!-- Node4&#45;&gt;Node9 -->
<g id="edge8" class="edge">
<title>Node4&#45;&gt;Node9</title>
<path fill="none" stroke="midnightblue" d="M145.92,-123.48C166.99,-114.89 200.13,-101.38 227.01,-90.43"/>
<polygon fill="midnightblue" stroke="midnightblue" points="228.65,-93.54 236.59,-86.52 226.01,-87.06 228.65,-93.54"/>
</g>
<!-- Node7 -->
<g id="node7" class="node">
<title>Node7</title>
<g id="a_node7"><a xlink:title=" ">
<polygon fill="none" stroke="#bfbfbf" points="31.5,-0.5 31.5,-19.5 78.5,-19.5 78.5,-0.5 31.5,-0.5"/>
<text text-anchor="middle" x="55" y="-7.5" font-family="Helvetica,sans-Serif" font-size="10.00">queue</text>
</a>
</g>
</g>
<!-- Node6&#45;&gt;Node7 -->
<g id="edge6" class="edge">
<title>Node6&#45;&gt;Node7</title>
<path fill="none" stroke="midnightblue" d="M55,-56.4C55,-48.47 55,-38.46 55,-29.86"/>
<polygon fill="midnightblue" stroke="midnightblue" points="58.5,-29.66 55,-19.66 51.5,-29.66 58.5,-29.66"/>
</g>
<!-- Node8 -->
<g id="node8" class="node">
<title>Node8</title>
<g id="a_node8"><a xlink:title=" ">
<polygon fill="none" stroke="#bfbfbf" points="159,-0.5 159,-19.5 217,-19.5 217,-0.5 159,-0.5"/>
<text text-anchor="middle" x="188" y="-7.5" font-family="Helvetica,sans-Serif" font-size="10.00">memory</text>
</a>
</g>
</g>
<!-- Node6&#45;&gt;Node8 -->
<g id="edge7" class="edge">
<title>Node6&#45;&gt;Node8</title>
<path fill="none" stroke="midnightblue" d="M86.52,-56.4C108.64,-46.51 137.97,-33.38 159.41,-23.79"/>
<polygon fill="midnightblue" stroke="midnightblue" points="160.95,-26.94 168.65,-19.66 158.09,-20.55 160.95,-26.94"/>
</g>
<!-- Node9&#45;&gt;Node8 -->
<g id="edge11" class="edge">
<title>Node9&#45;&gt;Node8</title>
<path fill="none" stroke="midnightblue" d="M251.33,-56.4C238.4,-47.13 221.51,-35.03 208.43,-25.65"/>
<polygon fill="midnightblue" stroke="midnightblue" points="210.24,-22.64 200.08,-19.66 206.17,-28.33 210.24,-22.64"/>
</g>
<!-- Node10 -->
<g id="node10" class="node">
<title>Node10</title>
<g id="a_node10"><a xlink:title=" ">
<polygon fill="none" stroke="#bfbfbf" points="238.5,-0.5 238.5,-19.5 303.5,-19.5 303.5,-0.5 238.5,-0.5"/>
<text text-anchor="middle" x="271" y="-7.5" font-family="Helvetica,sans-Serif" font-size="10.00">exception</text>
</a>
</g>
</g>
<!-- Node9&#45;&gt;Node10 -->
<g id="edge9" class="edge">
<title>Node9&#45;&gt;Node10</title>
<path fill="none" stroke="midnightblue" d="M271,-56.4C271,-48.47 271,-38.46 271,-29.86"/>
<polygon fill="midnightblue" stroke="midnightblue" points="274.5,-29.66 271,-19.66 267.5,-29.66 274.5,-29.66"/>
</g>
<!-- Node11 -->
<g id="node11" class="node">
<title>Node11</title>
<g id="a_node11"><a xlink:title=" ">
<polygon fill="none" stroke="#bfbfbf" points="327,-0.5 327,-19.5 371,-19.5 371,-0.5 327,-0.5"/>
<text text-anchor="middle" x="349" y="-7.5" font-family="Helvetica,sans-Serif" font-size="10.00">string</text>
</a>
</g>
</g>
<!-- Node9&#45;&gt;Node11 -->
<g id="edge10" class="edge">
<title>Node9&#45;&gt;Node11</title>
<path fill="none" stroke="midnightblue" d="M289.48,-56.4C301.52,-47.22 317.2,-35.26 329.44,-25.92"/>
<polygon fill="midnightblue" stroke="midnightblue" points="331.82,-28.51 337.65,-19.66 327.58,-22.94 331.82,-28.51"/>
</g>
<!-- Node12&#45;&gt;Node2 -->
<g id="edge15" class="edge">
<title>Node12&#45;&gt;Node2</title>
<path fill="none" stroke="midnightblue" d="M364.32,-123.48C375.65,-114.11 394.07,-98.88 407.84,-87.51"/>
<polygon fill="midnightblue" stroke="midnightblue" points="410.22,-90.08 415.7,-81.01 405.77,-84.68 410.22,-90.08"/>
</g>
<!-- Node12&#45;&gt;Node8 -->
<g id="edge13" class="edge">
<title>Node12&#45;&gt;Node8</title>
<path fill="none" stroke="midnightblue" d="M309.69,-123.44C271.8,-115.25 221.19,-101.95 207,-87 192.47,-71.69 188.57,-47.01 187.76,-29.95"/>
<polygon fill="midnightblue" stroke="midnightblue" points="191.25,-29.51 187.59,-19.57 184.25,-29.62 191.25,-29.51"/>
</g>
<!-- Node12&#45;&gt;Node11 -->
<g id="edge14" class="edge">
<title>Node12&#45;&gt;Node11</title>
<path fill="none" stroke="midnightblue" d="M353.64,-123.3C352.84,-103.85 350.88,-56.49 349.78,-29.9"/>
<polygon fill="midnightblue" stroke="midnightblue" points="353.27,-29.47 349.36,-19.62 346.27,-29.76 353.27,-29.47"/>
</g>
</g>
</svg>
