<?xml version="1.0" encoding="UTF-8" standalone="no"?>
<!DOCTYPE svg PUBLIC "-//W3C//DTD SVG 1.1//EN"
 "http://www.w3.org/Graphics/SVG/1.1/DTD/svg11.dtd">
<!-- Generated by graphviz version 2.43.0 (0)
 -->
<!-- Title: /home/tomek/CLionProjects/proi/proi&#45;projekt/src/game&#45;lib/include/GameStatistics.h Pages: 1 -->
<svg width="616pt" height="374pt"
 viewBox="0.00 0.00 615.52 374.00" xmlns="http://www.w3.org/2000/svg" xmlns:xlink="http://www.w3.org/1999/xlink">
<g id="graph0" class="graph" transform="scale(1 1) rotate(0) translate(4 370)">
<title>/home/tomek/CLionProjects/proi/proi&#45;projekt/src/game&#45;lib/include/GameStatistics.h</title>
<!-- Node1 -->
<g id="node1" class="node">
<title>Node1</title>
<g id="a_node1"><a xlink:title=" ">
<polygon fill="#bfbfbf" stroke="black" points="11,-324.5 11,-365.5 199,-365.5 199,-324.5 11,-324.5"/>
<text text-anchor="start" x="19" y="-353.5" font-family="Helvetica,sans-Serif" font-size="10.00">/home/tomek/CLionProjects</text>
<text text-anchor="start" x="19" y="-342.5" font-family="Helvetica,sans-Serif" font-size="10.00">/proi/proi&#45;projekt/src</text>
<text text-anchor="middle" x="105" y="-331.5" font-family="Helvetica,sans-Serif" font-size="10.00">/game&#45;lib/include/GameStatistics.h</text>
</a>
</g>
</g>
<!-- Node2 -->
<g id="node2" class="node">
<title>Node2</title>
<g id="a_node2"><a xlink:title=" ">
<polygon fill="none" stroke="#bfbfbf" points="0,-263 0,-282 32,-282 32,-263 0,-263"/>
<text text-anchor="middle" x="16" y="-270" font-family="Helvetica,sans-Serif" font-size="10.00">list</text>
</a>
</g>
</g>
<!-- Node1&#45;&gt;Node2 -->
<g id="edge1" class="edge">
<title>Node1&#45;&gt;Node2</title>
<path fill="none" stroke="midnightblue" d="M80.21,-324.36C65.86,-313 48.09,-298.92 34.89,-288.46"/>
<polygon fill="midnightblue" stroke="midnightblue" points="36.96,-285.64 26.95,-282.17 32.61,-291.13 36.96,-285.64"/>
</g>
<!-- Node3 -->
<g id="node3" class="node">
<title>Node3</title>
<g id="a_node3"><a xlink:href="$_event_queue_8h.html" xlink:title=" ">
<polygon fill="none" stroke="black" points="50,-257.5 50,-287.5 160,-287.5 160,-257.5 50,-257.5"/>
<text text-anchor="start" x="58" y="-275.5" font-family="Helvetica,sans-Serif" font-size="10.00">../../core&#45;lib/include</text>
<text text-anchor="middle" x="105" y="-264.5" font-family="Helvetica,sans-Serif" font-size="10.00">/EventQueue.h</text>
</a>
</g>
</g>
<!-- Node1&#45;&gt;Node3 -->
<g id="edge2" class="edge">
<title>Node1&#45;&gt;Node3</title>
<path fill="none" stroke="midnightblue" d="M105,-324.36C105,-316.23 105,-306.7 105,-298.11"/>
<polygon fill="midnightblue" stroke="midnightblue" points="108.5,-297.89 105,-287.89 101.5,-297.89 108.5,-297.89"/>
</g>
<!-- Node6 -->
<g id="node6" class="node">
<title>Node6</title>
<g id="a_node6"><a xlink:href="$_event_8h.html" xlink:title=" ">
<polygon fill="none" stroke="black" points="350,-257.5 350,-287.5 460,-287.5 460,-257.5 350,-257.5"/>
<text text-anchor="start" x="358" y="-275.5" font-family="Helvetica,sans-Serif" font-size="10.00">../../core&#45;lib/include</text>
<text text-anchor="middle" x="405" y="-264.5" font-family="Helvetica,sans-Serif" font-size="10.00">/Event.h</text>
</a>
</g>
</g>
<!-- Node1&#45;&gt;Node6 -->
<g id="edge5" class="edge">
<title>Node1&#45;&gt;Node6</title>
<path fill="none" stroke="midnightblue" d="M188.17,-324.46C236.05,-313.2 295.35,-299.27 339.83,-288.82"/>
<polygon fill="midnightblue" stroke="midnightblue" points="340.72,-292.2 349.65,-286.51 339.12,-285.39 340.72,-292.2"/>
</g>
<!-- Node4 -->
<g id="node4" class="node">
<title>Node4</title>
<g id="a_node4"><a xlink:title=" ">
<polygon fill="none" stroke="#bfbfbf" points="29.5,-196 29.5,-215 76.5,-215 76.5,-196 29.5,-196"/>
<text text-anchor="middle" x="53" y="-203" font-family="Helvetica,sans-Serif" font-size="10.00">queue</text>
</a>
</g>
</g>
<!-- Node3&#45;&gt;Node4 -->
<g id="edge3" class="edge">
<title>Node3&#45;&gt;Node4</title>
<path fill="none" stroke="midnightblue" d="M93.72,-257.4C85.69,-247.36 74.87,-233.84 66.4,-223.25"/>
<polygon fill="midnightblue" stroke="midnightblue" points="68.94,-220.82 59.96,-215.19 63.47,-225.19 68.94,-220.82"/>
</g>
<!-- Node5 -->
<g id="node5" class="node">
<title>Node5</title>
<g id="a_node5"><a xlink:title=" ">
<polygon fill="none" stroke="#bfbfbf" points="133,-0.5 133,-19.5 191,-19.5 191,-0.5 133,-0.5"/>
<text text-anchor="middle" x="162" y="-7.5" font-family="Helvetica,sans-Serif" font-size="10.00">memory</text>
</a>
</g>
</g>
<!-- Node3&#45;&gt;Node5 -->
<g id="edge4" class="edge">
<title>Node3&#45;&gt;Node5</title>
<path fill="none" stroke="midnightblue" d="M104.11,-257.29C102.42,-221.91 101.1,-127.55 129,-56 133.03,-45.66 140.06,-35.56 146.6,-27.56"/>
<polygon fill="midnightblue" stroke="midnightblue" points="149.44,-29.64 153.34,-19.79 144.15,-25.05 149.44,-29.64"/>
</g>
<!-- Node6&#45;&gt;Node5 -->
<g id="edge8" class="edge">
<title>Node6&#45;&gt;Node5</title>
<path fill="none" stroke="midnightblue" d="M349.83,-267.92C285.57,-262.47 185.22,-249.54 162,-221 116.27,-164.78 141.55,-69.26 155.14,-29.36"/>
<polygon fill="midnightblue" stroke="midnightblue" points="158.47,-30.46 158.52,-19.86 151.87,-28.11 158.47,-30.46"/>
</g>
<!-- Node7 -->
<g id="node7" class="node">
<title>Node7</title>
<g id="a_node7"><a xlink:title=" ">
<polygon fill="none" stroke="#bfbfbf" points="299.5,-196 299.5,-215 364.5,-215 364.5,-196 299.5,-196"/>
<text text-anchor="middle" x="332" y="-203" font-family="Helvetica,sans-Serif" font-size="10.00">exception</text>
</a>
</g>
</g>
<!-- Node6&#45;&gt;Node7 -->
<g id="edge6" class="edge">
<title>Node6&#45;&gt;Node7</title>
<path fill="none" stroke="midnightblue" d="M389.16,-257.4C377.44,-246.96 361.48,-232.75 349.41,-222"/>
<polygon fill="midnightblue" stroke="midnightblue" points="351.56,-219.23 341.76,-215.19 346.91,-224.46 351.56,-219.23"/>
</g>
<!-- Node8 -->
<g id="node8" class="node">
<title>Node8</title>
<g id="a_node8"><a xlink:title=" ">
<polygon fill="none" stroke="#bfbfbf" points="383,-196 383,-215 427,-215 427,-196 383,-196"/>
<text text-anchor="middle" x="405" y="-203" font-family="Helvetica,sans-Serif" font-size="10.00">string</text>
</a>
</g>
</g>
<!-- Node6&#45;&gt;Node8 -->
<g id="edge7" class="edge">
<title>Node6&#45;&gt;Node8</title>
<path fill="none" stroke="midnightblue" d="M405,-257.4C405,-248.06 405,-235.71 405,-225.52"/>
<polygon fill="midnightblue" stroke="midnightblue" points="408.5,-225.19 405,-215.19 401.5,-225.19 408.5,-225.19"/>
</g>
<!-- Node9 -->
<g id="node9" class="node">
<title>Node9</title>
<g id="a_node9"><a xlink:title=" ">
<polygon fill="none" stroke="#bfbfbf" points="445.5,-196 445.5,-215 496.5,-215 496.5,-196 445.5,-196"/>
<text text-anchor="middle" x="471" y="-203" font-family="Helvetica,sans-Serif" font-size="10.00">variant</text>
</a>
</g>
</g>
<!-- Node6&#45;&gt;Node9 -->
<g id="edge9" class="edge">
<title>Node6&#45;&gt;Node9</title>
<path fill="none" stroke="midnightblue" d="M419.32,-257.4C429.82,-247.06 444.07,-233.02 454.95,-222.31"/>
<polygon fill="midnightblue" stroke="midnightblue" points="457.5,-224.71 462.17,-215.19 452.59,-219.72 457.5,-224.71"/>
</g>
<!-- Node10 -->
<g id="node10" class="node">
<title>Node10</title>
<g id="a_node10"><a xlink:title=" ">
<polygon fill="none" stroke="#bfbfbf" points="515,-196 515,-215 575,-215 575,-196 515,-196"/>
<text text-anchor="middle" x="545" y="-203" font-family="Helvetica,sans-Serif" font-size="10.00">iostream</text>
</a>
</g>
</g>
<!-- Node6&#45;&gt;Node10 -->
<g id="edge10" class="edge">
<title>Node6&#45;&gt;Node10</title>
<path fill="none" stroke="midnightblue" d="M435.38,-257.4C459.83,-246.04 493.91,-230.22 517.55,-219.24"/>
<polygon fill="midnightblue" stroke="midnightblue" points="519.08,-222.39 526.68,-215.01 516.13,-216.04 519.08,-222.39"/>
</g>
<!-- Node11 -->
<g id="node11" class="node">
<title>Node11</title>
<g id="a_node11"><a xlink:title=" ">
<polygon fill="none" stroke="#bfbfbf" points="488,-129 488,-148 544,-148 544,-129 488,-129"/>
<text text-anchor="middle" x="516" y="-136" font-family="Helvetica,sans-Serif" font-size="10.00">optional</text>
</a>
</g>
</g>
<!-- Node6&#45;&gt;Node11 -->
<g id="edge11" class="edge">
<title>Node6&#45;&gt;Node11</title>
<path fill="none" stroke="midnightblue" d="M460,-263.36C506.87,-255.16 568.95,-240.89 584,-221 602.6,-196.42 567.86,-169.17 541.55,-153.23"/>
<polygon fill="midnightblue" stroke="midnightblue" points="543.09,-150.08 532.69,-148.08 539.58,-156.13 543.09,-150.08"/>
</g>
<!-- Node12 -->
<g id="node12" class="node">
<title>Node12</title>
<g id="a_node12"><a xlink:href="$_entity_8h.html" xlink:title=" ">
<polygon fill="none" stroke="black" points="341,-56.5 341,-86.5 451,-86.5 451,-56.5 341,-56.5"/>
<text text-anchor="start" x="349" y="-74.5" font-family="Helvetica,sans-Serif" font-size="10.00">../../tank&#45;lib/include</text>
<text text-anchor="middle" x="396" y="-63.5" font-family="Helvetica,sans-Serif" font-size="10.00">/Entity.h</text>
</a>
</g>
</g>
<!-- Node6&#45;&gt;Node12 -->
<g id="edge12" class="edge">
<title>Node6&#45;&gt;Node12</title>
<path fill="none" stroke="midnightblue" d="M460.44,-264.71C511.88,-257.14 582.98,-242.99 600,-221 629.23,-183.24 559.58,-127.85 553,-123 526.18,-103.24 491.31,-91.01 461.25,-83.54"/>
<polygon fill="midnightblue" stroke="midnightblue" points="461.79,-80.08 451.26,-81.19 460.19,-86.89 461.79,-80.08"/>
</g>
<!-- Node13 -->
<g id="node13" class="node">
<title>Node13</title>
<g id="a_node13"><a xlink:href="$_tank_8h.html" xlink:title=" ">
<polygon fill="none" stroke="black" points="171,-190.5 171,-220.5 281,-220.5 281,-190.5 171,-190.5"/>
<text text-anchor="start" x="179" y="-208.5" font-family="Helvetica,sans-Serif" font-size="10.00">../../tank&#45;lib/include</text>
<text text-anchor="middle" x="226" y="-197.5" font-family="Helvetica,sans-Serif" font-size="10.00">/Tank.h</text>
</a>
</g>
</g>
<!-- Node6&#45;&gt;Node13 -->
<g id="edge13" class="edge">
<title>Node6&#45;&gt;Node13</title>
<path fill="none" stroke="midnightblue" d="M366.16,-257.4C339.18,-247.6 303.06,-234.48 274.23,-224.02"/>
<polygon fill="midnightblue" stroke="midnightblue" points="275.36,-220.7 264.76,-220.58 272.97,-227.28 275.36,-220.7"/>
</g>
<!-- Node13&#45;&gt;Node5 -->
<g id="edge14" class="edge">
<title>Node13&#45;&gt;Node5</title>
<path fill="none" stroke="midnightblue" d="M221.29,-190.27C209.89,-155.8 180.79,-67.81 168.09,-29.4"/>
<polygon fill="midnightblue" stroke="midnightblue" points="171.3,-27.97 164.84,-19.58 164.65,-30.17 171.3,-27.97"/>
</g>
<!-- Node13&#45;&gt;Node11 -->
<g id="edge15" class="edge">
<title>Node13&#45;&gt;Node11</title>
<path fill="none" stroke="midnightblue" d="M281.23,-192.12C338.88,-179.2 427.76,-159.28 477.99,-148.02"/>
<polygon fill="midnightblue" stroke="midnightblue" points="478.81,-151.42 487.81,-145.82 477.28,-144.59 478.81,-151.42"/>
</g>
<!-- Node13&#45;&gt;Node12 -->
<g id="edge19" class="edge">
<title>Node13&#45;&gt;Node12</title>
<path fill="none" stroke="midnightblue" d="M279.81,-190.41C314.05,-180.48 354.28,-166.75 367,-154 382.36,-138.61 389.62,-114.56 393.03,-96.57"/>
<polygon fill="midnightblue" stroke="midnightblue" points="396.51,-96.97 394.66,-86.54 389.6,-95.84 396.51,-96.97"/>
</g>
<!-- Node14 -->
<g id="node14" class="node">
<title>Node14</title>
<g id="a_node14"><a xlink:href="$_simple_subscriber_8h.html" xlink:title=" ">
<polygon fill="none" stroke="black" points="209.5,-56.5 209.5,-86.5 322.5,-86.5 322.5,-56.5 209.5,-56.5"/>
<text text-anchor="start" x="217.5" y="-74.5" font-family="Helvetica,sans-Serif" font-size="10.00">../../core&#45;lib/include</text>
<text text-anchor="middle" x="266" y="-63.5" font-family="Helvetica,sans-Serif" font-size="10.00">/SimpleSubscriber.h</text>
</a>
</g>
</g>
<!-- Node13&#45;&gt;Node14 -->
<g id="edge16" class="edge">
<title>Node13&#45;&gt;Node14</title>
<path fill="none" stroke="midnightblue" d="M228.54,-190.47C231.67,-174.07 237.52,-146.23 245,-123 247.89,-114.04 251.69,-104.44 255.26,-96.04"/>
<polygon fill="midnightblue" stroke="midnightblue" points="258.48,-97.41 259.29,-86.85 252.07,-94.6 258.48,-97.41"/>
</g>
<!-- Node16 -->
<g id="node16" class="node">
<title>Node16</title>
<g id="a_node16"><a xlink:href="$_bot_8h.html" xlink:title=" ">
<polygon fill="none" stroke="black" points="254,-123.5 254,-153.5 358,-153.5 358,-123.5 254,-123.5"/>
<text text-anchor="start" x="262" y="-141.5" font-family="Helvetica,sans-Serif" font-size="10.00">../../bot&#45;lib/include</text>
<text text-anchor="middle" x="306" y="-130.5" font-family="Helvetica,sans-Serif" font-size="10.00">/Bot.h</text>
</a>
</g>
</g>
<!-- Node13&#45;&gt;Node16 -->
<g id="edge20" class="edge">
<title>Node13&#45;&gt;Node16</title>
<path fill="none" stroke="midnightblue" d="M243.36,-190.4C254.26,-181.54 268.51,-169.96 280.66,-160.09"/>
<polygon fill="midnightblue" stroke="midnightblue" points="283.12,-162.6 288.68,-153.58 278.71,-157.17 283.12,-162.6"/>
</g>
<!-- Node14&#45;&gt;Node5 -->
<g id="edge18" class="edge">
<title>Node14&#45;&gt;Node5</title>
<path fill="none" stroke="midnightblue" d="M241.35,-56.4C224.68,-46.86 202.77,-34.32 186.19,-24.84"/>
<polygon fill="midnightblue" stroke="midnightblue" points="187.55,-21.59 177.13,-19.66 184.07,-27.66 187.55,-21.59"/>
</g>
<!-- Node15 -->
<g id="node15" class="node">
<title>Node15</title>
<g id="a_node15"><a xlink:title=" ">
<polygon fill="none" stroke="#bfbfbf" points="242.5,-0.5 242.5,-19.5 289.5,-19.5 289.5,-0.5 242.5,-0.5"/>
<text text-anchor="middle" x="266" y="-7.5" font-family="Helvetica,sans-Serif" font-size="10.00">vector</text>
</a>
</g>
</g>
<!-- Node14&#45;&gt;Node15 -->
<g id="edge17" class="edge">
<title>Node14&#45;&gt;Node15</title>
<path fill="none" stroke="midnightblue" d="M266,-56.4C266,-48.47 266,-38.46 266,-29.86"/>
<polygon fill="midnightblue" stroke="midnightblue" points="269.5,-29.66 266,-19.66 262.5,-29.66 269.5,-29.66"/>
</g>
<!-- Node16&#45;&gt;Node12 -->
<g id="edge21" class="edge">
<title>Node16&#45;&gt;Node12</title>
<path fill="none" stroke="midnightblue" d="M325.53,-123.4C338.03,-114.37 354.44,-102.51 368.28,-92.52"/>
<polygon fill="midnightblue" stroke="midnightblue" points="370.45,-95.27 376.51,-86.58 366.35,-89.59 370.45,-95.27"/>
</g>
<!-- Node16&#45;&gt;Node14 -->
<g id="edge22" class="edge">
<title>Node16&#45;&gt;Node14</title>
<path fill="none" stroke="midnightblue" d="M297.32,-123.4C292.24,-115.13 285.7,-104.51 279.91,-95.1"/>
<polygon fill="midnightblue" stroke="midnightblue" points="282.88,-93.26 274.66,-86.58 276.92,-96.93 282.88,-93.26"/>
</g>
</g>
</svg>
