<?xml version="1.0" encoding="UTF-8" standalone="no"?>
<!DOCTYPE svg PUBLIC "-//W3C//DTD SVG 1.1//EN"
 "http://www.w3.org/Graphics/SVG/1.1/DTD/svg11.dtd">
<!-- Generated by graphviz version 2.50.0 (0)
 -->
<!-- Title: /home/tomek/trash/battle&#45;city/src/lib/game&#45;lib/include/GameStatsIO.h Pages: 1 -->
<svg width="950pt" height="206pt"
 viewBox="0.00 0.00 950.00 206.00" xmlns="http://www.w3.org/2000/svg" xmlns:xlink="http://www.w3.org/1999/xlink">
<g id="graph0" class="graph" transform="scale(1 1) rotate(0) translate(4 202)">
<title>/home/tomek/trash/battle&#45;city/src/lib/game&#45;lib/include/GameStatsIO.h</title>
<!-- Node1 -->
<g id="node1" class="node">
<title>Node1</title>
<g id="a_node1"><a xlink:title=" ">
<polygon fill="#bfbfbf" stroke="black" points="178,-156.5 178,-197.5 319,-197.5 319,-156.5 178,-156.5"/>
<text text-anchor="start" x="186" y="-185.5" font-family="Helvetica,sans-Serif" font-size="10.00">/home/tomek/trash/battle</text>
<text text-anchor="start" x="186" y="-174.5" font-family="Helvetica,sans-Serif" font-size="10.00">&#45;city/src/lib/game&#45;lib</text>
<text text-anchor="middle" x="248.5" y="-163.5" font-family="Helvetica,sans-Serif" font-size="10.00">/include/GameStatsIO.h</text>
</a>
</g>
</g>
<!-- Node2 -->
<g id="node2" class="node">
<title>Node2</title>
<g id="a_node2"><a xlink:href="$_game_8cpp.html" xlink:title=" ">
<polygon fill="none" stroke="black" points="0,-0.5 0,-41.5 141,-41.5 141,-0.5 0,-0.5"/>
<text text-anchor="start" x="8" y="-29.5" font-family="Helvetica,sans-Serif" font-size="10.00">/home/tomek/trash/battle</text>
<text text-anchor="start" x="8" y="-18.5" font-family="Helvetica,sans-Serif" font-size="10.00">&#45;city/src/lib/game&#45;lib</text>
<text text-anchor="middle" x="70.5" y="-7.5" font-family="Helvetica,sans-Serif" font-size="10.00">/Game.cpp</text>
</a>
</g>
</g>
<!-- Node1&#45;&gt;Node2 -->
<g id="edge1" class="edge">
<title>Node1&#45;&gt;Node2</title>
<path fill="none" stroke="midnightblue" d="M167.74,-164.54C139.22,-156.55 109.34,-142.99 89.5,-120 70.71,-98.22 68.3,-63.48 68.93,-41.74"/>
<polygon fill="midnightblue" stroke="midnightblue" points="167.19,-168.01 177.75,-167.14 168.95,-161.24 167.19,-168.01"/>
</g>
<!-- Node3 -->
<g id="node3" class="node">
<title>Node3</title>
<g id="a_node3"><a xlink:href="$_game_statistics_8cpp.html" xlink:title=" ">
<polygon fill="none" stroke="black" points="99,-78.5 99,-119.5 240,-119.5 240,-78.5 99,-78.5"/>
<text text-anchor="start" x="107" y="-107.5" font-family="Helvetica,sans-Serif" font-size="10.00">/home/tomek/trash/battle</text>
<text text-anchor="start" x="107" y="-96.5" font-family="Helvetica,sans-Serif" font-size="10.00">&#45;city/src/lib/game&#45;lib</text>
<text text-anchor="middle" x="169.5" y="-85.5" font-family="Helvetica,sans-Serif" font-size="10.00">/GameStatistics.cpp</text>
</a>
</g>
</g>
<!-- Node1&#45;&gt;Node3 -->
<g id="edge2" class="edge">
<title>Node1&#45;&gt;Node3</title>
<path fill="none" stroke="midnightblue" d="M220.95,-149.49C210.69,-139.63 199.26,-128.63 189.78,-119.51"/>
<polygon fill="midnightblue" stroke="midnightblue" points="218.52,-152.02 228.16,-156.43 223.38,-146.97 218.52,-152.02"/>
</g>
<!-- Node4 -->
<g id="node4" class="node">
<title>Node4</title>
<g id="a_node4"><a xlink:href="$_game_stats_i_o_8cpp.html" xlink:title=" ">
<polygon fill="none" stroke="black" points="258,-78.5 258,-119.5 399,-119.5 399,-78.5 258,-78.5"/>
<text text-anchor="start" x="266" y="-107.5" font-family="Helvetica,sans-Serif" font-size="10.00">/home/tomek/trash/battle</text>
<text text-anchor="start" x="266" y="-96.5" font-family="Helvetica,sans-Serif" font-size="10.00">&#45;city/src/lib/game&#45;lib</text>
<text text-anchor="middle" x="328.5" y="-85.5" font-family="Helvetica,sans-Serif" font-size="10.00">/GameStatsIO.cpp</text>
</a>
</g>
</g>
<!-- Node1&#45;&gt;Node4 -->
<g id="edge3" class="edge">
<title>Node1&#45;&gt;Node4</title>
<path fill="none" stroke="midnightblue" d="M276.4,-149.49C286.78,-139.63 298.37,-128.63 307.97,-119.51"/>
<polygon fill="midnightblue" stroke="midnightblue" points="273.94,-147 269.1,-156.43 278.76,-152.08 273.94,-147"/>
</g>
<!-- Node5 -->
<g id="node5" class="node">
<title>Node5</title>
<g id="a_node5"><a xlink:href="$_game_8h.html" xlink:title=" ">
<polygon fill="none" stroke="black" points="417,-78.5 417,-119.5 558,-119.5 558,-78.5 417,-78.5"/>
<text text-anchor="start" x="425" y="-107.5" font-family="Helvetica,sans-Serif" font-size="10.00">/home/tomek/trash/battle</text>
<text text-anchor="start" x="425" y="-96.5" font-family="Helvetica,sans-Serif" font-size="10.00">&#45;city/src/lib/game&#45;lib</text>
<text text-anchor="middle" x="487.5" y="-85.5" font-family="Helvetica,sans-Serif" font-size="10.00">/include/Game.h</text>
</a>
</g>
</g>
<!-- Node1&#45;&gt;Node5 -->
<g id="edge4" class="edge">
<title>Node1&#45;&gt;Node5</title>
<path fill="none" stroke="midnightblue" d="M319.87,-153.3C353.7,-142.55 393.71,-129.82 426.16,-119.51"/>
<polygon fill="midnightblue" stroke="midnightblue" points="318.52,-150.06 310.05,-156.43 320.64,-156.73 318.52,-150.06"/>
</g>
<!-- Node5&#45;&gt;Node2 -->
<g id="edge7" class="edge">
<title>Node5&#45;&gt;Node2</title>
<path fill="none" stroke="midnightblue" d="M407.03,-78.03C292.1,-56.36 260.01,-63.63 149.5,-42 146.72,-41.46 143.9,-40.88 141.05,-40.27"/>
<polygon fill="midnightblue" stroke="midnightblue" points="406.44,-81.48 416.92,-79.92 407.76,-74.6 406.44,-81.48"/>
</g>
<!-- Node6 -->
<g id="node6" class="node">
<title>Node6</title>
<g id="a_node6"><a xlink:href="$_active_event_handler_8cpp.html" xlink:title=" ">
<polygon fill="none" stroke="black" points="159,-0.5 159,-41.5 300,-41.5 300,-0.5 159,-0.5"/>
<text text-anchor="start" x="167" y="-29.5" font-family="Helvetica,sans-Serif" font-size="10.00">/home/tomek/trash/battle</text>
<text text-anchor="start" x="167" y="-18.5" font-family="Helvetica,sans-Serif" font-size="10.00">&#45;city/src/lib/game&#45;lib</text>
<text text-anchor="middle" x="229.5" y="-7.5" font-family="Helvetica,sans-Serif" font-size="10.00">/ActiveEventHandler.cpp</text>
</a>
</g>
</g>
<!-- Node5&#45;&gt;Node6 -->
<g id="edge5" class="edge">
<title>Node5&#45;&gt;Node6</title>
<path fill="none" stroke="midnightblue" d="M411.39,-75.58C374.67,-64.76 331.04,-51.91 295.72,-41.51"/>
<polygon fill="midnightblue" stroke="midnightblue" points="410.48,-78.96 421.06,-78.43 412.46,-72.24 410.48,-78.96"/>
</g>
<!-- Node7 -->
<g id="node7" class="node">
<title>Node7</title>
<g id="a_node7"><a xlink:href="$_finished_event_handler_8cpp.html" xlink:title=" ">
<polygon fill="none" stroke="black" points="318.5,-0.5 318.5,-41.5 464.5,-41.5 464.5,-0.5 318.5,-0.5"/>
<text text-anchor="start" x="326.5" y="-29.5" font-family="Helvetica,sans-Serif" font-size="10.00">/home/tomek/trash/battle</text>
<text text-anchor="start" x="326.5" y="-18.5" font-family="Helvetica,sans-Serif" font-size="10.00">&#45;city/src/lib/game&#45;lib</text>
<text text-anchor="middle" x="391.5" y="-7.5" font-family="Helvetica,sans-Serif" font-size="10.00">/FinishedEventHandler.cpp</text>
</a>
</g>
</g>
<!-- Node5&#45;&gt;Node7 -->
<g id="edge6" class="edge">
<title>Node5&#45;&gt;Node7</title>
<path fill="none" stroke="midnightblue" d="M454.74,-72.06C442.1,-62.06 427.88,-50.8 416.14,-41.51"/>
<polygon fill="midnightblue" stroke="midnightblue" points="452.76,-74.97 462.78,-78.43 457.11,-69.48 452.76,-74.97"/>
</g>
<!-- Node8 -->
<g id="node8" class="node">
<title>Node8</title>
<g id="a_node8"><a xlink:href="$_menu_event_handler_8cpp.html" xlink:title=" ">
<polygon fill="none" stroke="black" points="483,-0.5 483,-41.5 624,-41.5 624,-0.5 483,-0.5"/>
<text text-anchor="start" x="491" y="-29.5" font-family="Helvetica,sans-Serif" font-size="10.00">/home/tomek/trash/battle</text>
<text text-anchor="start" x="491" y="-18.5" font-family="Helvetica,sans-Serif" font-size="10.00">&#45;city/src/lib/game&#45;lib</text>
<text text-anchor="middle" x="553.5" y="-7.5" font-family="Helvetica,sans-Serif" font-size="10.00">/MenuEventHandler.cpp</text>
</a>
</g>
</g>
<!-- Node5&#45;&gt;Node8 -->
<g id="edge8" class="edge">
<title>Node5&#45;&gt;Node8</title>
<path fill="none" stroke="midnightblue" d="M511.27,-70.63C519.64,-60.99 528.87,-50.36 536.56,-41.51"/>
<polygon fill="midnightblue" stroke="midnightblue" points="508.41,-68.58 504.5,-78.43 513.7,-73.17 508.41,-68.58"/>
</g>
<!-- Node9 -->
<g id="node9" class="node">
<title>Node9</title>
<g id="a_node9"><a xlink:href="$_pause_event_handler_8cpp.html" xlink:title=" ">
<polygon fill="none" stroke="black" points="642,-0.5 642,-41.5 783,-41.5 783,-0.5 642,-0.5"/>
<text text-anchor="start" x="650" y="-29.5" font-family="Helvetica,sans-Serif" font-size="10.00">/home/tomek/trash/battle</text>
<text text-anchor="start" x="650" y="-18.5" font-family="Helvetica,sans-Serif" font-size="10.00">&#45;city/src/lib/game&#45;lib</text>
<text text-anchor="middle" x="712.5" y="-7.5" font-family="Helvetica,sans-Serif" font-size="10.00">/PauseEventHandler.cpp</text>
</a>
</g>
</g>
<!-- Node5&#45;&gt;Node9 -->
<g id="edge9" class="edge">
<title>Node5&#45;&gt;Node9</title>
<path fill="none" stroke="midnightblue" d="M555.1,-75.17C586.87,-64.44 624.34,-51.78 654.75,-41.51"/>
<polygon fill="midnightblue" stroke="midnightblue" points="553.8,-71.91 545.44,-78.43 556.04,-78.54 553.8,-71.91"/>
</g>
<!-- Node10 -->
<g id="node10" class="node">
<title>Node10</title>
<g id="a_node10"><a xlink:href="$tanks_8cpp.html" xlink:title=" ">
<polygon fill="none" stroke="black" points="801,-6 801,-36 942,-36 942,-6 801,-6"/>
<text text-anchor="start" x="809" y="-24" font-family="Helvetica,sans-Serif" font-size="10.00">/home/tomek/trash/battle</text>
<text text-anchor="middle" x="871.5" y="-13" font-family="Helvetica,sans-Serif" font-size="10.00">&#45;city/src/tanks.cpp</text>
</a>
</g>
</g>
<!-- Node5&#45;&gt;Node10 -->
<g id="edge10" class="edge">
<title>Node5&#45;&gt;Node10</title>
<path fill="none" stroke="midnightblue" d="M568.08,-84.71C629.74,-74.17 716.76,-58.52 792.5,-42 800.79,-40.19 809.54,-38.13 818.07,-36.04"/>
<polygon fill="midnightblue" stroke="midnightblue" points="567.3,-81.29 558.03,-86.42 568.47,-88.19 567.3,-81.29"/>
</g>
</g>
</svg>
