<?xml version="1.0" encoding="UTF-8" standalone="no"?>
<!DOCTYPE svg PUBLIC "-//W3C//DTD SVG 1.1//EN"
 "http://www.w3.org/Graphics/SVG/1.1/DTD/svg11.dtd">
<!-- Generated by graphviz version 2.43.0 (0)
 -->
<!-- Title: /home/tomek/CLionProjects/proi/proi&#45;projekt/src/board&#45;lib/GridBuilder.cpp Pages: 1 -->
<svg width="576pt" height="162pt"
 viewBox="0.00 0.00 576.00 162.00" xmlns="http://www.w3.org/2000/svg" xmlns:xlink="http://www.w3.org/1999/xlink">
<g id="graph0" class="graph" transform="scale(1 1) rotate(0) translate(4 158)">
<title>/home/tomek/CLionProjects/proi/proi&#45;projekt/src/board&#45;lib/GridBuilder.cpp</title>
<!-- Node1 -->
<g id="node1" class="node">
<title>Node1</title>
<g id="a_node1"><a xlink:title=" ">
<polygon fill="#bfbfbf" stroke="black" points="166.5,-112.5 166.5,-153.5 317.5,-153.5 317.5,-112.5 166.5,-112.5"/>
<text text-anchor="start" x="174.5" y="-141.5" font-family="Helvetica,sans-Serif" font-size="10.00">/home/tomek/CLionProjects</text>
<text text-anchor="start" x="174.5" y="-130.5" font-family="Helvetica,sans-Serif" font-size="10.00">/proi/proi&#45;projekt/src</text>
<text text-anchor="middle" x="242" y="-119.5" font-family="Helvetica,sans-Serif" font-size="10.00">/board&#45;lib/GridBuilder.cpp</text>
</a>
</g>
</g>
<!-- Node2 -->
<g id="node2" class="node">
<title>Node2</title>
<g id="a_node2"><a xlink:title=" ">
<polygon fill="none" stroke="#bfbfbf" points="0,-56.5 0,-75.5 56,-75.5 56,-56.5 0,-56.5"/>
<text text-anchor="middle" x="28" y="-63.5" font-family="Helvetica,sans-Serif" font-size="10.00">sstream</text>
</a>
</g>
</g>
<!-- Node1&#45;&gt;Node2 -->
<g id="edge1" class="edge">
<title>Node1&#45;&gt;Node2</title>
<path fill="none" stroke="midnightblue" d="M177.79,-112.5C141.4,-101.44 97.1,-87.99 66.16,-78.59"/>
<polygon fill="midnightblue" stroke="midnightblue" points="66.79,-75.12 56.21,-75.57 64.76,-81.82 66.79,-75.12"/>
</g>
<!-- Node3 -->
<g id="node3" class="node">
<title>Node3</title>
<g id="a_node3"><a xlink:title=" ">
<polygon fill="none" stroke="#bfbfbf" points="74,-56.5 74,-75.5 118,-75.5 118,-56.5 74,-56.5"/>
<text text-anchor="middle" x="96" y="-63.5" font-family="Helvetica,sans-Serif" font-size="10.00">string</text>
</a>
</g>
</g>
<!-- Node1&#45;&gt;Node3 -->
<g id="edge2" class="edge">
<title>Node1&#45;&gt;Node3</title>
<path fill="none" stroke="midnightblue" d="M198.2,-112.5C174.41,-101.91 145.68,-89.12 124.74,-79.8"/>
<polygon fill="midnightblue" stroke="midnightblue" points="125.99,-76.52 115.43,-75.65 123.15,-82.92 125.99,-76.52"/>
</g>
<!-- Node4 -->
<g id="node4" class="node">
<title>Node4</title>
<g id="a_node4"><a xlink:title=" ">
<polygon fill="none" stroke="#bfbfbf" points="136.5,-56.5 136.5,-75.5 191.5,-75.5 191.5,-56.5 136.5,-56.5"/>
<text text-anchor="middle" x="164" y="-63.5" font-family="Helvetica,sans-Serif" font-size="10.00">fstream</text>
</a>
</g>
</g>
<!-- Node1&#45;&gt;Node4 -->
<g id="edge3" class="edge">
<title>Node1&#45;&gt;Node4</title>
<path fill="none" stroke="midnightblue" d="M218.6,-112.5C206.98,-102.82 193.16,-91.3 182.33,-82.27"/>
<polygon fill="midnightblue" stroke="midnightblue" points="184.31,-79.37 174.38,-75.65 179.82,-84.74 184.31,-79.37"/>
</g>
<!-- Node5 -->
<g id="node5" class="node">
<title>Node5</title>
<g id="a_node5"><a xlink:title=" ">
<polygon fill="none" stroke="#bfbfbf" points="210,-56.5 210,-75.5 274,-75.5 274,-56.5 210,-56.5"/>
<text text-anchor="middle" x="242" y="-63.5" font-family="Helvetica,sans-Serif" font-size="10.00">algorithm</text>
</a>
</g>
</g>
<!-- Node1&#45;&gt;Node5 -->
<g id="edge4" class="edge">
<title>Node1&#45;&gt;Node5</title>
<path fill="none" stroke="midnightblue" d="M242,-112.5C242,-104.07 242,-94.24 242,-85.87"/>
<polygon fill="midnightblue" stroke="midnightblue" points="245.5,-85.65 242,-75.65 238.5,-85.65 245.5,-85.65"/>
</g>
<!-- Node6 -->
<g id="node6" class="node">
<title>Node6</title>
<g id="a_node6"><a xlink:title=" ">
<polygon fill="none" stroke="#bfbfbf" points="292,-56.5 292,-75.5 330,-75.5 330,-56.5 292,-56.5"/>
<text text-anchor="middle" x="311" y="-63.5" font-family="Helvetica,sans-Serif" font-size="10.00">map</text>
</a>
</g>
</g>
<!-- Node1&#45;&gt;Node6 -->
<g id="edge5" class="edge">
<title>Node1&#45;&gt;Node6</title>
<path fill="none" stroke="midnightblue" d="M262.7,-112.5C272.87,-102.92 284.96,-91.53 294.5,-82.54"/>
<polygon fill="midnightblue" stroke="midnightblue" points="296.94,-85.06 301.82,-75.65 292.14,-79.96 296.94,-85.06"/>
</g>
<!-- Node7 -->
<g id="node7" class="node">
<title>Node7</title>
<g id="a_node7"><a xlink:href="$_grid_builder_8h.html" xlink:title=" ">
<polygon fill="none" stroke="black" points="348,-56.5 348,-75.5 466,-75.5 466,-56.5 348,-56.5"/>
<text text-anchor="middle" x="407" y="-63.5" font-family="Helvetica,sans-Serif" font-size="10.00">include/GridBuilder.h</text>
</a>
</g>
</g>
<!-- Node1&#45;&gt;Node7 -->
<g id="edge6" class="edge">
<title>Node1&#45;&gt;Node7</title>
<path fill="none" stroke="midnightblue" d="M291.51,-112.5C318.75,-101.77 351.74,-88.77 375.47,-79.42"/>
<polygon fill="midnightblue" stroke="midnightblue" points="377.01,-82.57 385.04,-75.65 374.45,-76.06 377.01,-82.57"/>
</g>
<!-- Node9 -->
<g id="node9" class="node">
<title>Node9</title>
<g id="a_node9"><a xlink:href="$_grid_8h.html" xlink:title=" ">
<polygon fill="none" stroke="black" points="484,-56.5 484,-75.5 568,-75.5 568,-56.5 484,-56.5"/>
<text text-anchor="middle" x="526" y="-63.5" font-family="Helvetica,sans-Serif" font-size="10.00">include/Grid.h</text>
</a>
</g>
</g>
<!-- Node1&#45;&gt;Node9 -->
<g id="edge8" class="edge">
<title>Node1&#45;&gt;Node9</title>
<path fill="none" stroke="midnightblue" d="M317.73,-114.67C368.95,-102.94 435,-87.83 478.84,-77.79"/>
<polygon fill="midnightblue" stroke="midnightblue" points="479.7,-81.19 488.66,-75.55 478.13,-74.36 479.7,-81.19"/>
</g>
<!-- Node8 -->
<g id="node8" class="node">
<title>Node8</title>
<g id="a_node8"><a xlink:title=" ">
<polygon fill="none" stroke="#bfbfbf" points="378,-0.5 378,-19.5 436,-19.5 436,-0.5 378,-0.5"/>
<text text-anchor="middle" x="407" y="-7.5" font-family="Helvetica,sans-Serif" font-size="10.00">memory</text>
</a>
</g>
</g>
<!-- Node7&#45;&gt;Node8 -->
<g id="edge7" class="edge">
<title>Node7&#45;&gt;Node8</title>
<path fill="none" stroke="midnightblue" d="M407,-56.08C407,-49.01 407,-38.86 407,-29.99"/>
<polygon fill="midnightblue" stroke="midnightblue" points="410.5,-29.75 407,-19.75 403.5,-29.75 410.5,-29.75"/>
</g>
<!-- Node10 -->
<g id="node10" class="node">
<title>Node10</title>
<g id="a_node10"><a xlink:title=" ">
<polygon fill="none" stroke="#bfbfbf" points="493.5,-0.5 493.5,-19.5 558.5,-19.5 558.5,-0.5 493.5,-0.5"/>
<text text-anchor="middle" x="526" y="-7.5" font-family="Helvetica,sans-Serif" font-size="10.00">exception</text>
</a>
</g>
</g>
<!-- Node9&#45;&gt;Node10 -->
<g id="edge9" class="edge">
<title>Node9&#45;&gt;Node10</title>
<path fill="none" stroke="midnightblue" d="M526,-56.08C526,-49.01 526,-38.86 526,-29.99"/>
<polygon fill="midnightblue" stroke="midnightblue" points="529.5,-29.75 526,-19.75 522.5,-29.75 529.5,-29.75"/>
</g>
</g>
</svg>
