<?xml version="1.0" encoding="UTF-8" standalone="no"?>
<!DOCTYPE svg PUBLIC "-//W3C//DTD SVG 1.1//EN"
 "http://www.w3.org/Graphics/SVG/1.1/DTD/svg11.dtd">
<!-- Generated by graphviz version 2.43.0 (0)
 -->
<!-- Title: /home/tomek/CLionProjects/proi/proi&#45;projekt/src/board&#45;lib/GridBuilder.cpp Pages: 1 -->
<svg width="452pt" height="363pt"
 viewBox="0.00 0.00 452.47 363.00" xmlns="http://www.w3.org/2000/svg" xmlns:xlink="http://www.w3.org/1999/xlink">
<g id="graph0" class="graph" transform="scale(1 1) rotate(0) translate(4 359)">
<title>/home/tomek/CLionProjects/proi/proi&#45;projekt/src/board&#45;lib/GridBuilder.cpp</title>
<!-- Node1 -->
<g id="node1" class="node">
<title>Node1</title>
<g id="a_node1"><a xlink:title=" ">
<polygon fill="#bfbfbf" stroke="black" points="95.97,-313.5 95.97,-354.5 246.97,-354.5 246.97,-313.5 95.97,-313.5"/>
<text text-anchor="start" x="103.97" y="-342.5" font-family="Helvetica,sans-Serif" font-size="10.00">/home/tomek/CLionProjects</text>
<text text-anchor="start" x="103.97" y="-331.5" font-family="Helvetica,sans-Serif" font-size="10.00">/proi/proi&#45;projekt/src</text>
<text text-anchor="middle" x="171.47" y="-320.5" font-family="Helvetica,sans-Serif" font-size="10.00">/board&#45;lib/GridBuilder.cpp</text>
</a>
</g>
</g>
<!-- Node2 -->
<g id="node2" class="node">
<title>Node2</title>
<g id="a_node2"><a xlink:title=" ">
<polygon fill="none" stroke="#bfbfbf" points="16.47,-257.5 16.47,-276.5 60.47,-276.5 60.47,-257.5 16.47,-257.5"/>
<text text-anchor="middle" x="38.47" y="-264.5" font-family="Helvetica,sans-Serif" font-size="10.00">string</text>
</a>
</g>
</g>
<!-- Node1&#45;&gt;Node2 -->
<g id="edge1" class="edge">
<title>Node1&#45;&gt;Node2</title>
<path fill="none" stroke="midnightblue" d="M131.57,-313.5C110.1,-303.01 84.2,-290.35 65.18,-281.05"/>
<polygon fill="midnightblue" stroke="midnightblue" points="66.7,-277.9 56.18,-276.65 63.62,-284.19 66.7,-277.9"/>
</g>
<!-- Node3 -->
<g id="node3" class="node">
<title>Node3</title>
<g id="a_node3"><a xlink:title=" ">
<polygon fill="none" stroke="#bfbfbf" points="78.97,-257.5 78.97,-276.5 133.97,-276.5 133.97,-257.5 78.97,-257.5"/>
<text text-anchor="middle" x="106.47" y="-264.5" font-family="Helvetica,sans-Serif" font-size="10.00">fstream</text>
</a>
</g>
</g>
<!-- Node1&#45;&gt;Node3 -->
<g id="edge2" class="edge">
<title>Node1&#45;&gt;Node3</title>
<path fill="none" stroke="midnightblue" d="M151.97,-313.5C142.48,-304.01 131.23,-292.76 122.29,-283.81"/>
<polygon fill="midnightblue" stroke="midnightblue" points="124.67,-281.25 115.12,-276.65 119.72,-286.2 124.67,-281.25"/>
</g>
<!-- Node4 -->
<g id="node4" class="node">
<title>Node4</title>
<g id="a_node4"><a xlink:title=" ">
<polygon fill="none" stroke="#bfbfbf" points="152.47,-257.5 152.47,-276.5 190.47,-276.5 190.47,-257.5 152.47,-257.5"/>
<text text-anchor="middle" x="171.47" y="-264.5" font-family="Helvetica,sans-Serif" font-size="10.00">map</text>
</a>
</g>
</g>
<!-- Node1&#45;&gt;Node4 -->
<g id="edge3" class="edge">
<title>Node1&#45;&gt;Node4</title>
<path fill="none" stroke="midnightblue" d="M171.47,-313.5C171.47,-305.07 171.47,-295.24 171.47,-286.87"/>
<polygon fill="midnightblue" stroke="midnightblue" points="174.97,-286.65 171.47,-276.65 167.97,-286.65 174.97,-286.65"/>
</g>
<!-- Node5 -->
<g id="node5" class="node">
<title>Node5</title>
<g id="a_node5"><a xlink:href="$_grid_builder_8h.html" xlink:title=" ">
<polygon fill="none" stroke="black" points="326.47,-129 326.47,-148 444.47,-148 444.47,-129 326.47,-129"/>
<text text-anchor="middle" x="385.47" y="-136" font-family="Helvetica,sans-Serif" font-size="10.00">include/GridBuilder.h</text>
</a>
</g>
</g>
<!-- Node1&#45;&gt;Node5 -->
<g id="edge4" class="edge">
<title>Node1&#45;&gt;Node5</title>
<path fill="none" stroke="midnightblue" d="M238.35,-313.47C282.9,-296.66 338.27,-267.59 366.47,-221 378.26,-201.53 382.74,-175.36 384.43,-157.99"/>
<polygon fill="midnightblue" stroke="midnightblue" points="387.93,-158.24 385.2,-148 380.95,-157.71 387.93,-158.24"/>
</g>
<!-- Node7 -->
<g id="node7" class="node">
<title>Node7</title>
<g id="a_node7"><a xlink:href="$_grid_8h.html" xlink:title=" ">
<polygon fill="none" stroke="black" points="208.47,-257.5 208.47,-276.5 292.47,-276.5 292.47,-257.5 208.47,-257.5"/>
<text text-anchor="middle" x="250.47" y="-264.5" font-family="Helvetica,sans-Serif" font-size="10.00">include/Grid.h</text>
</a>
</g>
</g>
<!-- Node1&#45;&gt;Node7 -->
<g id="edge6" class="edge">
<title>Node1&#45;&gt;Node7</title>
<path fill="none" stroke="midnightblue" d="M195.17,-313.5C207.05,-303.72 221.22,-292.07 232.23,-283.01"/>
<polygon fill="midnightblue" stroke="midnightblue" points="234.46,-285.71 239.96,-276.65 230.01,-280.3 234.46,-285.71"/>
</g>
<!-- Node6 -->
<g id="node6" class="node">
<title>Node6</title>
<g id="a_node6"><a xlink:title=" ">
<polygon fill="none" stroke="#bfbfbf" points="195.47,-0.5 195.47,-19.5 253.47,-19.5 253.47,-0.5 195.47,-0.5"/>
<text text-anchor="middle" x="224.47" y="-7.5" font-family="Helvetica,sans-Serif" font-size="10.00">memory</text>
</a>
</g>
</g>
<!-- Node5&#45;&gt;Node6 -->
<g id="edge5" class="edge">
<title>Node5&#45;&gt;Node6</title>
<path fill="none" stroke="midnightblue" d="M374.41,-128.81C347.41,-107.59 277.88,-52.96 243.84,-26.22"/>
<polygon fill="midnightblue" stroke="midnightblue" points="245.64,-23.18 235.62,-19.76 241.32,-28.69 245.64,-23.18"/>
</g>
<!-- Node8 -->
<g id="node8" class="node">
<title>Node8</title>
<g id="a_node8"><a xlink:title=" ">
<polygon fill="none" stroke="#bfbfbf" points="291.97,-196 291.97,-215 356.97,-215 356.97,-196 291.97,-196"/>
<text text-anchor="middle" x="324.47" y="-203" font-family="Helvetica,sans-Serif" font-size="10.00">exception</text>
</a>
</g>
</g>
<!-- Node7&#45;&gt;Node8 -->
<g id="edge7" class="edge">
<title>Node7&#45;&gt;Node8</title>
<path fill="none" stroke="midnightblue" d="M261.07,-257.48C272.72,-248.11 291.66,-232.88 305.81,-221.51"/>
<polygon fill="midnightblue" stroke="midnightblue" points="308.29,-224 313.89,-215.01 303.9,-218.55 308.29,-224"/>
</g>
<!-- Node9 -->
<g id="node9" class="node">
<title>Node9</title>
<g id="a_node9"><a xlink:title=" ">
<polygon fill="none" stroke="#bfbfbf" points="2.97,-0.5 2.97,-19.5 49.97,-19.5 49.97,-0.5 2.97,-0.5"/>
<text text-anchor="middle" x="26.47" y="-7.5" font-family="Helvetica,sans-Serif" font-size="10.00">vector</text>
</a>
</g>
</g>
<!-- Node7&#45;&gt;Node9 -->
<g id="edge8" class="edge">
<title>Node7&#45;&gt;Node9</title>
<path fill="none" stroke="midnightblue" d="M208.83,-257.44C167.95,-248.49 108.98,-233.98 89.47,-221 30.35,-181.67 18.99,-156.06 2.47,-87 -0.73,-73.6 -0.87,-69.37 2.47,-56 4.91,-46.25 9.91,-36.29 14.72,-28.23"/>
<polygon fill="midnightblue" stroke="midnightblue" points="17.69,-30.08 20.11,-19.77 11.78,-26.32 17.69,-30.08"/>
</g>
<!-- Node10 -->
<g id="node10" class="node">
<title>Node10</title>
<g id="a_node10"><a xlink:title=" ">
<polygon fill="none" stroke="#bfbfbf" points="226.97,-196 226.97,-215 273.97,-215 273.97,-196 226.97,-196"/>
<text text-anchor="middle" x="250.47" y="-203" font-family="Helvetica,sans-Serif" font-size="10.00">queue</text>
</a>
</g>
</g>
<!-- Node7&#45;&gt;Node10 -->
<g id="edge9" class="edge">
<title>Node7&#45;&gt;Node10</title>
<path fill="none" stroke="midnightblue" d="M250.47,-257.48C250.47,-249.08 250.47,-235.98 250.47,-225.16"/>
<polygon fill="midnightblue" stroke="midnightblue" points="253.97,-225.01 250.47,-215.01 246.97,-225.01 253.97,-225.01"/>
</g>
<!-- Node11 -->
<g id="node11" class="node">
<title>Node11</title>
<g id="a_node11"><a xlink:href="$_tank_8h.html" xlink:title=" ">
<polygon fill="none" stroke="black" points="98.47,-190.5 98.47,-220.5 208.47,-220.5 208.47,-190.5 98.47,-190.5"/>
<text text-anchor="start" x="106.47" y="-208.5" font-family="Helvetica,sans-Serif" font-size="10.00">../../tank&#45;lib/include</text>
<text text-anchor="middle" x="153.47" y="-197.5" font-family="Helvetica,sans-Serif" font-size="10.00">/Tank.h</text>
</a>
</g>
</g>
<!-- Node7&#45;&gt;Node11 -->
<g id="edge10" class="edge">
<title>Node7&#45;&gt;Node11</title>
<path fill="none" stroke="midnightblue" d="M236.57,-257.48C223.19,-249.27 202.47,-236.56 185.07,-225.88"/>
<polygon fill="midnightblue" stroke="midnightblue" points="186.69,-222.77 176.33,-220.52 183.03,-228.74 186.69,-222.77"/>
</g>
<!-- Node11&#45;&gt;Node6 -->
<g id="edge11" class="edge">
<title>Node11&#45;&gt;Node6</title>
<path fill="none" stroke="midnightblue" d="M162.6,-190.3C168.73,-180.39 176.71,-166.71 182.47,-154 201.83,-111.34 214.81,-57.49 220.76,-29.62"/>
<polygon fill="midnightblue" stroke="midnightblue" points="224.22,-30.18 222.81,-19.68 217.36,-28.76 224.22,-30.18"/>
</g>
<!-- Node12 -->
<g id="node12" class="node">
<title>Node12</title>
<g id="a_node12"><a xlink:title=" ">
<polygon fill="none" stroke="#bfbfbf" points="252.47,-129 252.47,-148 308.47,-148 308.47,-129 252.47,-129"/>
<text text-anchor="middle" x="280.47" y="-136" font-family="Helvetica,sans-Serif" font-size="10.00">optional</text>
</a>
</g>
</g>
<!-- Node11&#45;&gt;Node12 -->
<g id="edge12" class="edge">
<title>Node11&#45;&gt;Node12</title>
<path fill="none" stroke="midnightblue" d="M181.03,-190.4C202.92,-179.19 233.3,-163.64 254.71,-152.69"/>
<polygon fill="midnightblue" stroke="midnightblue" points="256.54,-155.68 263.85,-148.01 253.35,-149.45 256.54,-155.68"/>
</g>
<!-- Node13 -->
<g id="node13" class="node">
<title>Node13</title>
<g id="a_node13"><a xlink:href="$_simple_subscriber_8h.html" xlink:title=" ">
<polygon fill="none" stroke="black" points="11.97,-56.5 11.97,-86.5 124.97,-86.5 124.97,-56.5 11.97,-56.5"/>
<text text-anchor="start" x="19.97" y="-74.5" font-family="Helvetica,sans-Serif" font-size="10.00">../../core&#45;lib/include</text>
<text text-anchor="middle" x="68.47" y="-63.5" font-family="Helvetica,sans-Serif" font-size="10.00">/SimpleSubscriber.h</text>
</a>
</g>
</g>
<!-- Node11&#45;&gt;Node13 -->
<g id="edge13" class="edge">
<title>Node11&#45;&gt;Node13</title>
<path fill="none" stroke="midnightblue" d="M98.39,-192.08C78.18,-184.57 57.36,-172.69 45.47,-154 34.15,-136.21 42.74,-112.77 52.48,-95.59"/>
<polygon fill="midnightblue" stroke="midnightblue" points="55.64,-97.13 57.89,-86.77 49.67,-93.47 55.64,-97.13"/>
</g>
<!-- Node14 -->
<g id="node14" class="node">
<title>Node14</title>
<g id="a_node14"><a xlink:href="$_entity_8h.html" xlink:title=" ">
<polygon fill="none" stroke="black" points="142.97,-62 142.97,-81 195.97,-81 195.97,-62 142.97,-62"/>
<text text-anchor="middle" x="169.47" y="-69" font-family="Helvetica,sans-Serif" font-size="10.00">Entity.h</text>
</a>
</g>
</g>
<!-- Node11&#45;&gt;Node14 -->
<g id="edge16" class="edge">
<title>Node11&#45;&gt;Node14</title>
<path fill="none" stroke="midnightblue" d="M158.48,-190.12C161.7,-180.12 165.63,-166.42 167.47,-154 170.65,-132.62 170.75,-107.73 170.31,-91.14"/>
<polygon fill="midnightblue" stroke="midnightblue" points="173.81,-90.99 169.95,-81.13 166.81,-91.24 173.81,-90.99"/>
</g>
<!-- Node15 -->
<g id="node15" class="node">
<title>Node15</title>
<g id="a_node15"><a xlink:href="$_bot_8h.html" xlink:title=" ">
<polygon fill="none" stroke="black" points="54.47,-123.5 54.47,-153.5 158.47,-153.5 158.47,-123.5 54.47,-123.5"/>
<text text-anchor="start" x="62.47" y="-141.5" font-family="Helvetica,sans-Serif" font-size="10.00">../../bot&#45;lib/include</text>
<text text-anchor="middle" x="106.47" y="-130.5" font-family="Helvetica,sans-Serif" font-size="10.00">/Bot.h</text>
</a>
</g>
</g>
<!-- Node11&#45;&gt;Node15 -->
<g id="edge17" class="edge">
<title>Node11&#45;&gt;Node15</title>
<path fill="none" stroke="midnightblue" d="M143.27,-190.4C137.24,-182.05 129.46,-171.29 122.6,-161.81"/>
<polygon fill="midnightblue" stroke="midnightblue" points="125.35,-159.63 116.65,-153.58 119.67,-163.73 125.35,-159.63"/>
</g>
<!-- Node13&#45;&gt;Node6 -->
<g id="edge15" class="edge">
<title>Node13&#45;&gt;Node6</title>
<path fill="none" stroke="midnightblue" d="M105.44,-56.4C131.85,-46.33 167.03,-32.91 192.28,-23.28"/>
<polygon fill="midnightblue" stroke="midnightblue" points="193.68,-26.49 201.77,-19.66 191.18,-19.95 193.68,-26.49"/>
</g>
<!-- Node13&#45;&gt;Node9 -->
<g id="edge14" class="edge">
<title>Node13&#45;&gt;Node9</title>
<path fill="none" stroke="midnightblue" d="M58.52,-56.4C52.48,-47.84 44.73,-36.87 38.37,-27.86"/>
<polygon fill="midnightblue" stroke="midnightblue" points="41.21,-25.81 32.58,-19.66 35.49,-29.85 41.21,-25.81"/>
</g>
<!-- Node15&#45;&gt;Node13 -->
<g id="edge19" class="edge">
<title>Node15&#45;&gt;Node13</title>
<path fill="none" stroke="midnightblue" d="M98.23,-123.4C93.45,-115.22 87.31,-104.73 81.86,-95.39"/>
<polygon fill="midnightblue" stroke="midnightblue" points="84.77,-93.44 76.7,-86.58 78.73,-96.98 84.77,-93.44"/>
</g>
<!-- Node15&#45;&gt;Node14 -->
<g id="edge18" class="edge">
<title>Node15&#45;&gt;Node14</title>
<path fill="none" stroke="midnightblue" d="M120.14,-123.4C130.06,-113.16 143.5,-99.3 153.85,-88.62"/>
<polygon fill="midnightblue" stroke="midnightblue" points="156.6,-90.81 161.05,-81.19 151.57,-85.94 156.6,-90.81"/>
</g>
</g>
</svg>
