<?xml version="1.0" encoding="UTF-8" standalone="no"?>
<!DOCTYPE svg PUBLIC "-//W3C//DTD SVG 1.1//EN"
 "http://www.w3.org/Graphics/SVG/1.1/DTD/svg11.dtd">
<!-- Generated by graphviz version 2.43.0 (0)
 -->
<!-- Title: /home/tomek/CLionProjects/proi/proi&#45;projekt/src/game&#45;lib/KeyboardController.cpp Pages: 1 -->
<svg width="575pt" height="240pt"
 viewBox="0.00 0.00 575.00 240.00" xmlns="http://www.w3.org/2000/svg" xmlns:xlink="http://www.w3.org/1999/xlink">
<g id="graph0" class="graph" transform="scale(1 1) setFacing(0) translate(4 236)">
<title>/home/tomek/CLionProjects/proi/proi&#45;projekt/src/game&#45;lib/KeyboardController.cpp</title>
<!-- Node1 -->
<g id="node1" class="node">
<title>Node1</title>
<g id="a_node1"><a xlink:title=" ">
<polygon fill="#bfbfbf" stroke="black" points="206,-190.5 206,-231.5 385,-231.5 385,-190.5 206,-190.5"/>
<text text-anchor="start" x="214" y="-219.5" font-family="Helvetica,sans-Serif" font-size="10.00">/home/tomek/CLionProjects</text>
<text text-anchor="start" x="214" y="-208.5" font-family="Helvetica,sans-Serif" font-size="10.00">/proi/proi&#45;projekt/src</text>
<text text-anchor="middle" x="295.5" y="-197.5" font-family="Helvetica,sans-Serif" font-size="10.00">/game&#45;lib/KeyboardController.cpp</text>
</a>
</g>
</g>
<!-- Node2 -->
<g id="node2" class="node">
<title>Node2</title>
<g id="a_node2"><a xlink:title=" ">
<polygon fill="none" stroke="#bfbfbf" points="21,-129 21,-148 126,-148 126,-129 21,-129"/>
<text text-anchor="middle" x="73.5" y="-136" font-family="Helvetica,sans-Serif" font-size="10.00">SFML/Window.hpp</text>
</a>
</g>
</g>
<!-- Node1&#45;&gt;Node2 -->
<g id="edge1" class="edge">
<title>Node1&#45;&gt;Node2</title>
<path fill="none" stroke="midnightblue" d="M233.96,-190.46C194.18,-177.83 143.77,-161.81 110.16,-151.14"/>
<polygon fill="midnightblue" stroke="midnightblue" points="110.9,-147.7 100.31,-148.01 108.78,-154.38 110.9,-147.7"/>
</g>
<!-- Node3 -->
<g id="node3" class="node">
<title>Node3</title>
<g id="a_node3"><a xlink:href="$_keyboard_controller_8h.html" xlink:title=" ">
<polygon fill="none" stroke="black" points="144,-129 144,-148 301,-148 301,-129 144,-129"/>
<text text-anchor="middle" x="222.5" y="-136" font-family="Helvetica,sans-Serif" font-size="10.00">include/KeyboardController.h</text>
</a>
</g>
</g>
<!-- Node1&#45;&gt;Node3 -->
<g id="edge2" class="edge">
<title>Node1&#45;&gt;Node3</title>
<path fill="none" stroke="midnightblue" d="M275.17,-190.36C263.74,-179.32 249.65,-165.72 238.93,-155.37"/>
<polygon fill="midnightblue" stroke="midnightblue" points="241.11,-152.6 231.48,-148.17 236.24,-157.64 241.11,-152.6"/>
</g>
<!-- Node8 -->
<g id="node8" class="node">
<title>Node8</title>
<g id="a_node8"><a xlink:href="$_event_8h.html" xlink:title=" ">
<polygon fill="none" stroke="black" points="319,-123.5 319,-153.5 420,-153.5 420,-123.5 319,-123.5"/>
<text text-anchor="start" x="327" y="-141.5" font-family="Helvetica,sans-Serif" font-size="10.00">../core&#45;lib/include</text>
<text text-anchor="middle" x="369.5" y="-130.5" font-family="Helvetica,sans-Serif" font-size="10.00">/Event.h</text>
</a>
</g>
</g>
<!-- Node1&#45;&gt;Node8 -->
<g id="edge8" class="edge">
<title>Node1&#45;&gt;Node8</title>
<path fill="none" stroke="midnightblue" d="M316.11,-190.36C325.7,-181.23 337.12,-170.35 346.93,-161"/>
<polygon fill="midnightblue" stroke="midnightblue" points="349.57,-163.32 354.39,-153.89 344.74,-158.26 349.57,-163.32"/>
</g>
<!-- Node11 -->
<g id="node11" class="node">
<title>Node11</title>
<g id="a_node11"><a xlink:href="$_event_queue_8h.html" xlink:title=" ">
<polygon fill="none" stroke="black" points="441,-123.5 441,-153.5 542,-153.5 542,-123.5 441,-123.5"/>
<text text-anchor="start" x="449" y="-141.5" font-family="Helvetica,sans-Serif" font-size="10.00">../core&#45;lib/include</text>
<text text-anchor="middle" x="491.5" y="-130.5" font-family="Helvetica,sans-Serif" font-size="10.00">/EventQueue.h</text>
</a>
</g>
</g>
<!-- Node1&#45;&gt;Node11 -->
<g id="edge12" class="edge">
<title>Node1&#45;&gt;Node11</title>
<path fill="none" stroke="midnightblue" d="M349.84,-190.46C378.92,-179.99 414.46,-167.21 442.66,-157.07"/>
<polygon fill="midnightblue" stroke="midnightblue" points="444.08,-160.27 452.31,-153.6 441.71,-153.69 444.08,-160.27"/>
</g>
<!-- Node4 -->
<g id="node4" class="node">
<title>Node4</title>
<g id="a_node4"><a xlink:title=" ">
<polygon fill="none" stroke="#bfbfbf" points="226.5,-0.5 226.5,-19.5 284.5,-19.5 284.5,-0.5 226.5,-0.5"/>
<text text-anchor="middle" x="255.5" y="-7.5" font-family="Helvetica,sans-Serif" font-size="10.00">memory</text>
</a>
</g>
</g>
<!-- Node3&#45;&gt;Node4 -->
<g id="edge3" class="edge">
<title>Node3&#45;&gt;Node4</title>
<path fill="none" stroke="midnightblue" d="M204.89,-128.87C189.98,-120.48 169.62,-106.18 160.5,-87 154.59,-74.56 153.13,-67.64 160.5,-56 172.83,-36.52 196.12,-25.31 216.56,-18.95"/>
<polygon fill="midnightblue" stroke="midnightblue" points="217.63,-22.28 226.3,-16.2 215.73,-15.54 217.63,-22.28"/>
</g>
<!-- Node5 -->
<g id="node5" class="node">
<title>Node5</title>
<g id="a_node5"><a xlink:title=" ">
<polygon fill="none" stroke="#bfbfbf" points="169.5,-62 169.5,-81 279.5,-81 279.5,-62 169.5,-62"/>
<text text-anchor="middle" x="224.5" y="-69" font-family="Helvetica,sans-Serif" font-size="10.00">SFML/Graphics.hpp</text>
</a>
</g>
</g>
<!-- Node3&#45;&gt;Node5 -->
<g id="edge4" class="edge">
<title>Node3&#45;&gt;Node5</title>
<path fill="none" stroke="midnightblue" d="M222.77,-128.73C223.06,-119.18 223.54,-103.62 223.92,-91.28"/>
<polygon fill="midnightblue" stroke="midnightblue" points="227.43,-91.23 224.23,-81.13 220.43,-91.01 227.43,-91.23"/>
</g>
<!-- Node6 -->
<g id="node6" class="node">
<title>Node6</title>
<g id="a_node6"><a xlink:href="$_simple_subscriber_8h.html" xlink:title=" ">
<polygon fill="none" stroke="black" points="0,-56.5 0,-86.5 113,-86.5 113,-56.5 0,-56.5"/>
<text text-anchor="start" x="8" y="-74.5" font-family="Helvetica,sans-Serif" font-size="10.00">../../core&#45;lib/include</text>
<text text-anchor="middle" x="56.5" y="-63.5" font-family="Helvetica,sans-Serif" font-size="10.00">/SimpleSubscriber.h</text>
</a>
</g>
</g>
<!-- Node3&#45;&gt;Node6 -->
<g id="edge5" class="edge">
<title>Node3&#45;&gt;Node6</title>
<path fill="none" stroke="midnightblue" d="M200.46,-128.87C175.44,-119.07 133.96,-102.83 101.93,-90.29"/>
<polygon fill="midnightblue" stroke="midnightblue" points="102.91,-86.92 92.33,-86.53 100.36,-93.43 102.91,-86.92"/>
</g>
<!-- Node6&#45;&gt;Node4 -->
<g id="edge7" class="edge">
<title>Node6&#45;&gt;Node4</title>
<path fill="none" stroke="midnightblue" d="M103.41,-56.47C138.19,-46.08 185,-32.08 217.47,-22.37"/>
<polygon fill="midnightblue" stroke="midnightblue" points="218.47,-25.72 227.05,-19.51 216.47,-19.02 218.47,-25.72"/>
</g>
<!-- Node7 -->
<g id="node7" class="node">
<title>Node7</title>
<g id="a_node7"><a xlink:title=" ">
<polygon fill="none" stroke="#bfbfbf" points="33,-0.5 33,-19.5 80,-19.5 80,-0.5 33,-0.5"/>
<text text-anchor="middle" x="56.5" y="-7.5" font-family="Helvetica,sans-Serif" font-size="10.00">vector</text>
</a>
</g>
</g>
<!-- Node6&#45;&gt;Node7 -->
<g id="edge6" class="edge">
<title>Node6&#45;&gt;Node7</title>
<path fill="none" stroke="midnightblue" d="M56.5,-56.4C56.5,-48.47 56.5,-38.46 56.5,-29.86"/>
<polygon fill="midnightblue" stroke="midnightblue" points="60,-29.66 56.5,-19.66 53,-29.66 60,-29.66"/>
</g>
<!-- Node8&#45;&gt;Node4 -->
<g id="edge11" class="edge">
<title>Node8&#45;&gt;Node4</title>
<path fill="none" stroke="midnightblue" d="M369.77,-123.22C369.37,-105.56 366.19,-75.45 350.5,-56 336.39,-38.5 313.86,-27.42 294.28,-20.64"/>
<polygon fill="midnightblue" stroke="midnightblue" points="295.26,-17.28 284.67,-17.56 293.12,-23.94 295.26,-17.28"/>
</g>
<!-- Node9 -->
<g id="node9" class="node">
<title>Node9</title>
<g id="a_node9"><a xlink:title=" ">
<polygon fill="none" stroke="#bfbfbf" points="398,-62 398,-81 463,-81 463,-62 398,-62"/>
<text text-anchor="middle" x="430.5" y="-69" font-family="Helvetica,sans-Serif" font-size="10.00">exception</text>
</a>
</g>
</g>
<!-- Node8&#45;&gt;Node9 -->
<g id="edge9" class="edge">
<title>Node8&#45;&gt;Node9</title>
<path fill="none" stroke="midnightblue" d="M382.74,-123.4C392.34,-113.16 405.35,-99.3 415.37,-88.62"/>
<polygon fill="midnightblue" stroke="midnightblue" points="418.05,-90.88 422.34,-81.19 412.95,-86.09 418.05,-90.88"/>
</g>
<!-- Node10 -->
<g id="node10" class="node">
<title>Node10</title>
<g id="a_node10"><a xlink:title=" ">
<polygon fill="none" stroke="#bfbfbf" points="297.5,-62 297.5,-81 341.5,-81 341.5,-62 297.5,-62"/>
<text text-anchor="middle" x="319.5" y="-69" font-family="Helvetica,sans-Serif" font-size="10.00">string</text>
</a>
</g>
</g>
<!-- Node8&#45;&gt;Node10 -->
<g id="edge10" class="edge">
<title>Node8&#45;&gt;Node10</title>
<path fill="none" stroke="midnightblue" d="M358.65,-123.4C350.93,-113.36 340.53,-99.84 332.39,-89.25"/>
<polygon fill="midnightblue" stroke="midnightblue" points="335.06,-86.99 326.19,-81.19 329.51,-91.25 335.06,-86.99"/>
</g>
<!-- Node11&#45;&gt;Node4 -->
<g id="edge14" class="edge">
<title>Node11&#45;&gt;Node4</title>
<path fill="none" stroke="midnightblue" d="M492.47,-123.21C492.87,-104.96 490.59,-73.65 472.5,-56 447.73,-31.83 350.61,-19.41 295.05,-14.16"/>
<polygon fill="midnightblue" stroke="midnightblue" points="295.14,-10.65 284.86,-13.23 294.5,-17.62 295.14,-10.65"/>
</g>
<!-- Node12 -->
<g id="node12" class="node">
<title>Node12</title>
<g id="a_node12"><a xlink:title=" ">
<polygon fill="none" stroke="#bfbfbf" points="520,-62 520,-81 567,-81 567,-62 520,-62"/>
<text text-anchor="middle" x="543.5" y="-69" font-family="Helvetica,sans-Serif" font-size="10.00">queue</text>
</a>
</g>
</g>
<!-- Node11&#45;&gt;Node12 -->
<g id="edge13" class="edge">
<title>Node11&#45;&gt;Node12</title>
<path fill="none" stroke="midnightblue" d="M502.78,-123.4C510.81,-113.36 521.63,-99.84 530.1,-89.25"/>
<polygon fill="midnightblue" stroke="midnightblue" points="533.03,-91.19 536.54,-81.19 527.56,-86.82 533.03,-91.19"/>
</g>
</g>
</svg>
