<?xml version="1.0" encoding="UTF-8" standalone="no"?>
<!DOCTYPE svg PUBLIC "-//W3C//DTD SVG 1.1//EN"
 "http://www.w3.org/Graphics/SVG/1.1/DTD/svg11.dtd">
<!-- Generated by graphviz version 2.43.0 (0)
 -->
<!-- Title: /home/tomek/CLionProjects/proi/proi&#45;projekt/src/game&#45;lib/include/Menu.h Pages: 1 -->
<svg width="490pt" height="374pt"
 viewBox="0.00 0.00 490.33 374.00" xmlns="http://www.w3.org/2000/svg" xmlns:xlink="http://www.w3.org/1999/xlink">
<g id="graph0" class="graph" transform="scale(1 1) rotate(0) translate(4 370)">
<title>/home/tomek/CLionProjects/proi/proi&#45;projekt/src/game&#45;lib/include/Menu.h</title>
<!-- Node1 -->
<g id="node1" class="node">
<title>Node1</title>
<g id="a_node1"><a xlink:title=" ">
<polygon fill="#bfbfbf" stroke="black" points="113,-324.5 113,-365.5 264,-365.5 264,-324.5 113,-324.5"/>
<text text-anchor="start" x="121" y="-353.5" font-family="Helvetica,sans-Serif" font-size="10.00">/home/tomek/CLionProjects</text>
<text text-anchor="start" x="121" y="-342.5" font-family="Helvetica,sans-Serif" font-size="10.00">/proi/proi&#45;projekt/src</text>
<text text-anchor="middle" x="188.5" y="-331.5" font-family="Helvetica,sans-Serif" font-size="10.00">/game&#45;lib/include/Menu.h</text>
</a>
</g>
</g>
<!-- Node2 -->
<g id="node2" class="node">
<title>Node2</title>
<g id="a_node2"><a xlink:href="$_event_queue_8h.html" xlink:title=" ">
<polygon fill="none" stroke="black" points="20.5,-257.5 20.5,-287.5 130.5,-287.5 130.5,-257.5 20.5,-257.5"/>
<text text-anchor="start" x="28.5" y="-275.5" font-family="Helvetica,sans-Serif" font-size="10.00">../../core&#45;lib/include</text>
<text text-anchor="middle" x="75.5" y="-264.5" font-family="Helvetica,sans-Serif" font-size="10.00">/EventQueue.h</text>
</a>
</g>
</g>
<!-- Node1&#45;&gt;Node2 -->
<g id="edge1" class="edge">
<title>Node1&#45;&gt;Node2</title>
<path fill="none" stroke="midnightblue" d="M157.02,-324.36C141.41,-314.62 122.6,-302.89 106.99,-293.15"/>
<polygon fill="midnightblue" stroke="midnightblue" points="108.55,-289.99 98.21,-287.67 104.84,-295.93 108.55,-289.99"/>
</g>
<!-- Node5 -->
<g id="node5" class="node">
<title>Node5</title>
<g id="a_node5"><a xlink:href="$_event_8h.html" xlink:title=" ">
<polygon fill="none" stroke="black" points="247.5,-257.5 247.5,-287.5 357.5,-287.5 357.5,-257.5 247.5,-257.5"/>
<text text-anchor="start" x="255.5" y="-275.5" font-family="Helvetica,sans-Serif" font-size="10.00">../../core&#45;lib/include</text>
<text text-anchor="middle" x="302.5" y="-264.5" font-family="Helvetica,sans-Serif" font-size="10.00">/Event.h</text>
</a>
</g>
</g>
<!-- Node1&#45;&gt;Node5 -->
<g id="edge4" class="edge">
<title>Node1&#45;&gt;Node5</title>
<path fill="none" stroke="midnightblue" d="M220.26,-324.36C236.01,-314.62 254.98,-302.89 270.73,-293.15"/>
<polygon fill="midnightblue" stroke="midnightblue" points="272.92,-295.91 279.59,-287.67 269.24,-289.95 272.92,-295.91"/>
</g>
<!-- Node3 -->
<g id="node3" class="node">
<title>Node3</title>
<g id="a_node3"><a xlink:title=" ">
<polygon fill="none" stroke="#bfbfbf" points="0,-196 0,-215 47,-215 47,-196 0,-196"/>
<text text-anchor="middle" x="23.5" y="-203" font-family="Helvetica,sans-Serif" font-size="10.00">queue</text>
</a>
</g>
</g>
<!-- Node2&#45;&gt;Node3 -->
<g id="edge2" class="edge">
<title>Node2&#45;&gt;Node3</title>
<path fill="none" stroke="midnightblue" d="M64.22,-257.4C56.19,-247.36 45.37,-233.84 36.9,-223.25"/>
<polygon fill="midnightblue" stroke="midnightblue" points="39.44,-220.82 30.46,-215.19 33.97,-225.19 39.44,-220.82"/>
</g>
<!-- Node4 -->
<g id="node4" class="node">
<title>Node4</title>
<g id="a_node4"><a xlink:title=" ">
<polygon fill="none" stroke="#bfbfbf" points="103.5,-0.5 103.5,-19.5 161.5,-19.5 161.5,-0.5 103.5,-0.5"/>
<text text-anchor="middle" x="132.5" y="-7.5" font-family="Helvetica,sans-Serif" font-size="10.00">memory</text>
</a>
</g>
</g>
<!-- Node2&#45;&gt;Node4 -->
<g id="edge3" class="edge">
<title>Node2&#45;&gt;Node4</title>
<path fill="none" stroke="midnightblue" d="M74.61,-257.29C72.92,-221.91 71.6,-127.55 99.5,-56 103.53,-45.66 110.56,-35.56 117.1,-27.56"/>
<polygon fill="midnightblue" stroke="midnightblue" points="119.94,-29.64 123.84,-19.79 114.65,-25.05 119.94,-29.64"/>
</g>
<!-- Node5&#45;&gt;Node4 -->
<g id="edge7" class="edge">
<title>Node5&#45;&gt;Node4</title>
<path fill="none" stroke="midnightblue" d="M247.18,-262.39C203.05,-253.85 146.4,-239.63 132.5,-221 89.25,-163.04 113.02,-68.83 125.92,-29.33"/>
<polygon fill="midnightblue" stroke="midnightblue" points="129.28,-30.32 129.21,-19.72 122.66,-28.05 129.28,-30.32"/>
</g>
<!-- Node6 -->
<g id="node6" class="node">
<title>Node6</title>
<g id="a_node6"><a xlink:title=" ">
<polygon fill="none" stroke="#bfbfbf" points="270,-196 270,-215 335,-215 335,-196 270,-196"/>
<text text-anchor="middle" x="302.5" y="-203" font-family="Helvetica,sans-Serif" font-size="10.00">exception</text>
</a>
</g>
</g>
<!-- Node5&#45;&gt;Node6 -->
<g id="edge5" class="edge">
<title>Node5&#45;&gt;Node6</title>
<path fill="none" stroke="midnightblue" d="M302.5,-257.4C302.5,-248.06 302.5,-235.71 302.5,-225.52"/>
<polygon fill="midnightblue" stroke="midnightblue" points="306,-225.19 302.5,-215.19 299,-225.19 306,-225.19"/>
</g>
<!-- Node7 -->
<g id="node7" class="node">
<title>Node7</title>
<g id="a_node7"><a xlink:title=" ">
<polygon fill="none" stroke="#bfbfbf" points="353.5,-196 353.5,-215 397.5,-215 397.5,-196 353.5,-196"/>
<text text-anchor="middle" x="375.5" y="-203" font-family="Helvetica,sans-Serif" font-size="10.00">string</text>
</a>
</g>
</g>
<!-- Node5&#45;&gt;Node7 -->
<g id="edge6" class="edge">
<title>Node5&#45;&gt;Node7</title>
<path fill="none" stroke="midnightblue" d="M318.34,-257.4C330.06,-246.96 346.02,-232.75 358.09,-222"/>
<polygon fill="midnightblue" stroke="midnightblue" points="360.59,-224.46 365.74,-215.19 355.94,-219.23 360.59,-224.46"/>
</g>
<!-- Node8 -->
<g id="node8" class="node">
<title>Node8</title>
<g id="a_node8"><a xlink:title=" ">
<polygon fill="none" stroke="#bfbfbf" points="416,-196 416,-215 467,-215 467,-196 416,-196"/>
<text text-anchor="middle" x="441.5" y="-203" font-family="Helvetica,sans-Serif" font-size="10.00">variant</text>
</a>
</g>
</g>
<!-- Node5&#45;&gt;Node8 -->
<g id="edge8" class="edge">
<title>Node5&#45;&gt;Node8</title>
<path fill="none" stroke="midnightblue" d="M332.66,-257.4C356.94,-246.04 390.78,-230.22 414.25,-219.24"/>
<polygon fill="midnightblue" stroke="midnightblue" points="415.73,-222.41 423.31,-215.01 412.77,-216.07 415.73,-222.41"/>
</g>
<!-- Node9 -->
<g id="node9" class="node">
<title>Node9</title>
<g id="a_node9"><a xlink:href="$_entity_8h.html" xlink:title=" ">
<polygon fill="none" stroke="black" points="311.5,-56.5 311.5,-86.5 421.5,-86.5 421.5,-56.5 311.5,-56.5"/>
<text text-anchor="start" x="319.5" y="-74.5" font-family="Helvetica,sans-Serif" font-size="10.00">../../tank&#45;lib/include</text>
<text text-anchor="middle" x="366.5" y="-63.5" font-family="Helvetica,sans-Serif" font-size="10.00">/Entity.h</text>
</a>
</g>
</g>
<!-- Node5&#45;&gt;Node9 -->
<g id="edge9" class="edge">
<title>Node5&#45;&gt;Node9</title>
<path fill="none" stroke="midnightblue" d="M357.76,-262.82C403.11,-254.43 462.1,-240.18 476.5,-221 497.89,-192.52 451.52,-128.79 446.5,-123 435.55,-110.38 420.68,-99.81 406.72,-91.66"/>
<polygon fill="midnightblue" stroke="midnightblue" points="408.17,-88.47 397.73,-86.66 404.77,-94.58 408.17,-88.47"/>
</g>
<!-- Node10 -->
<g id="node10" class="node">
<title>Node10</title>
<g id="a_node10"><a xlink:href="$_tank_8h.html" xlink:title=" ">
<polygon fill="none" stroke="black" points="141.5,-190.5 141.5,-220.5 251.5,-220.5 251.5,-190.5 141.5,-190.5"/>
<text text-anchor="start" x="149.5" y="-208.5" font-family="Helvetica,sans-Serif" font-size="10.00">../../tank&#45;lib/include</text>
<text text-anchor="middle" x="196.5" y="-197.5" font-family="Helvetica,sans-Serif" font-size="10.00">/Tank.h</text>
</a>
</g>
</g>
<!-- Node5&#45;&gt;Node10 -->
<g id="edge10" class="edge">
<title>Node5&#45;&gt;Node10</title>
<path fill="none" stroke="midnightblue" d="M279.5,-257.4C264.5,-248.2 244.71,-236.07 228.23,-225.95"/>
<polygon fill="midnightblue" stroke="midnightblue" points="229.81,-222.82 219.46,-220.58 226.15,-228.79 229.81,-222.82"/>
</g>
<!-- Node10&#45;&gt;Node4 -->
<g id="edge11" class="edge">
<title>Node10&#45;&gt;Node4</title>
<path fill="none" stroke="midnightblue" d="M191.79,-190.27C180.39,-155.8 151.29,-67.81 138.59,-29.4"/>
<polygon fill="midnightblue" stroke="midnightblue" points="141.8,-27.97 135.34,-19.58 135.15,-30.17 141.8,-27.97"/>
</g>
<!-- Node10&#45;&gt;Node9 -->
<g id="edge16" class="edge">
<title>Node10&#45;&gt;Node9</title>
<path fill="none" stroke="midnightblue" d="M247.96,-190.48C281.65,-180.41 321.73,-166.48 334.5,-154 350.24,-138.62 358.41,-114.57 362.54,-96.58"/>
<polygon fill="midnightblue" stroke="midnightblue" points="366.02,-97.04 364.58,-86.54 359.16,-95.64 366.02,-97.04"/>
</g>
<!-- Node11 -->
<g id="node11" class="node">
<title>Node11</title>
<g id="a_node11"><a xlink:title=" ">
<polygon fill="none" stroke="#bfbfbf" points="381.5,-129 381.5,-148 437.5,-148 437.5,-129 381.5,-129"/>
<text text-anchor="middle" x="409.5" y="-136" font-family="Helvetica,sans-Serif" font-size="10.00">optional</text>
</a>
</g>
</g>
<!-- Node10&#45;&gt;Node11 -->
<g id="edge12" class="edge">
<title>Node10&#45;&gt;Node11</title>
<path fill="none" stroke="midnightblue" d="M246.44,-190.4C280.64,-180.58 326.96,-166.98 367.5,-154 370.1,-153.17 372.78,-152.29 375.47,-151.39"/>
<polygon fill="midnightblue" stroke="midnightblue" points="376.78,-154.64 385.13,-148.12 374.54,-148.01 376.78,-154.64"/>
</g>
<!-- Node12 -->
<g id="node12" class="node">
<title>Node12</title>
<g id="a_node12"><a xlink:href="$_simple_subscriber_8h.html" xlink:title=" ">
<polygon fill="none" stroke="black" points="180,-56.5 180,-86.5 293,-86.5 293,-56.5 180,-56.5"/>
<text text-anchor="start" x="188" y="-74.5" font-family="Helvetica,sans-Serif" font-size="10.00">../../core&#45;lib/include</text>
<text text-anchor="middle" x="236.5" y="-63.5" font-family="Helvetica,sans-Serif" font-size="10.00">/SimpleSubscriber.h</text>
</a>
</g>
</g>
<!-- Node10&#45;&gt;Node12 -->
<g id="edge13" class="edge">
<title>Node10&#45;&gt;Node12</title>
<path fill="none" stroke="midnightblue" d="M198.18,-190.38C200.39,-173.91 204.91,-146 212.5,-123 215.52,-113.86 219.8,-104.22 223.91,-95.84"/>
<polygon fill="midnightblue" stroke="midnightblue" points="227.15,-97.19 228.58,-86.69 220.92,-94.01 227.15,-97.19"/>
</g>
<!-- Node14 -->
<g id="node14" class="node">
<title>Node14</title>
<g id="a_node14"><a xlink:href="$_bot_8h.html" xlink:title=" ">
<polygon fill="none" stroke="black" points="221.5,-123.5 221.5,-153.5 325.5,-153.5 325.5,-123.5 221.5,-123.5"/>
<text text-anchor="start" x="229.5" y="-141.5" font-family="Helvetica,sans-Serif" font-size="10.00">../../bot&#45;lib/include</text>
<text text-anchor="middle" x="273.5" y="-130.5" font-family="Helvetica,sans-Serif" font-size="10.00">/Bot.h</text>
</a>
</g>
</g>
<!-- Node10&#45;&gt;Node14 -->
<g id="edge17" class="edge">
<title>Node10&#45;&gt;Node14</title>
<path fill="none" stroke="midnightblue" d="M213.21,-190.4C223.7,-181.54 237.42,-169.96 249.11,-160.09"/>
<polygon fill="midnightblue" stroke="midnightblue" points="251.44,-162.7 256.82,-153.58 246.93,-157.35 251.44,-162.7"/>
</g>
<!-- Node12&#45;&gt;Node4 -->
<g id="edge15" class="edge">
<title>Node12&#45;&gt;Node4</title>
<path fill="none" stroke="midnightblue" d="M211.85,-56.4C195.18,-46.86 173.27,-34.32 156.69,-24.84"/>
<polygon fill="midnightblue" stroke="midnightblue" points="158.05,-21.59 147.63,-19.66 154.57,-27.66 158.05,-21.59"/>
</g>
<!-- Node13 -->
<g id="node13" class="node">
<title>Node13</title>
<g id="a_node13"><a xlink:title=" ">
<polygon fill="none" stroke="#bfbfbf" points="213,-0.5 213,-19.5 260,-19.5 260,-0.5 213,-0.5"/>
<text text-anchor="middle" x="236.5" y="-7.5" font-family="Helvetica,sans-Serif" font-size="10.00">vector</text>
</a>
</g>
</g>
<!-- Node12&#45;&gt;Node13 -->
<g id="edge14" class="edge">
<title>Node12&#45;&gt;Node13</title>
<path fill="none" stroke="midnightblue" d="M236.5,-56.4C236.5,-48.47 236.5,-38.46 236.5,-29.86"/>
<polygon fill="midnightblue" stroke="midnightblue" points="240,-29.66 236.5,-19.66 233,-29.66 240,-29.66"/>
</g>
<!-- Node14&#45;&gt;Node9 -->
<g id="edge18" class="edge">
<title>Node14&#45;&gt;Node9</title>
<path fill="none" stroke="midnightblue" d="M293.68,-123.4C306.6,-114.37 323.56,-102.51 337.86,-92.52"/>
<polygon fill="midnightblue" stroke="midnightblue" points="340.17,-95.17 346.36,-86.58 336.16,-89.44 340.17,-95.17"/>
</g>
<!-- Node14&#45;&gt;Node12 -->
<g id="edge19" class="edge">
<title>Node14&#45;&gt;Node12</title>
<path fill="none" stroke="midnightblue" d="M265.47,-123.4C260.82,-115.22 254.84,-104.73 249.53,-95.39"/>
<polygon fill="midnightblue" stroke="midnightblue" points="252.5,-93.54 244.51,-86.58 246.42,-97 252.5,-93.54"/>
</g>
</g>
</svg>
