<?xml version="1.0" encoding="UTF-8" standalone="no"?>
<!DOCTYPE svg PUBLIC "-//W3C//DTD SVG 1.1//EN"
 "http://www.w3.org/Graphics/SVG/1.1/DTD/svg11.dtd">
<!-- Generated by graphviz version 2.43.0 (0)
 -->
<!-- Title: /home/tomek/CLionProjects/proi/proi&#45;projekt/src/game&#45;lib/include/MenuEventHandler.h Pages: 1 -->
<svg width="652pt" height="464pt"
 viewBox="0.00 0.00 651.57 464.00" xmlns="http://www.w3.org/2000/svg" xmlns:xlink="http://www.w3.org/1999/xlink">
<g id="graph0" class="graph" transform="scale(1 1) rotate(0) translate(4 460)">
<title>/home/tomek/CLionProjects/proi/proi&#45;projekt/src/game&#45;lib/include/MenuEventHandler.h</title>
<!-- Node1 -->
<g id="node1" class="node">
<title>Node1</title>
<g id="a_node1"><a xlink:title=" ">
<polygon fill="#bfbfbf" stroke="black" points="216,-414.5 216,-455.5 422,-455.5 422,-414.5 216,-414.5"/>
<text text-anchor="start" x="224" y="-443.5" font-family="Helvetica,sans-Serif" font-size="10.00">/home/tomek/CLionProjects</text>
<text text-anchor="start" x="224" y="-432.5" font-family="Helvetica,sans-Serif" font-size="10.00">/proi/proi&#45;projekt/src</text>
<text text-anchor="middle" x="319" y="-421.5" font-family="Helvetica,sans-Serif" font-size="10.00">/game&#45;lib/include/MenuEventHandler.h</text>
</a>
</g>
</g>
<!-- Node2 -->
<g id="node2" class="node">
<title>Node2</title>
<g id="a_node2"><a xlink:title=" ">
<polygon fill="none" stroke="#bfbfbf" points="359,-0.5 359,-19.5 417,-19.5 417,-0.5 359,-0.5"/>
<text text-anchor="middle" x="388" y="-7.5" font-family="Helvetica,sans-Serif" font-size="10.00">memory</text>
</a>
</g>
</g>
<!-- Node1&#45;&gt;Node2 -->
<g id="edge1" class="edge">
<title>Node1&#45;&gt;Node2</title>
<path fill="none" stroke="midnightblue" d="M422.09,-415.74C516.62,-395.97 642,-360.76 642,-313 642,-313 642,-313 642,-132 642,-97.18 648.3,-79.92 623,-56 595.31,-29.81 486.59,-18.05 427.22,-13.48"/>
<polygon fill="midnightblue" stroke="midnightblue" points="427.32,-9.98 417.09,-12.74 426.81,-16.96 427.32,-9.98"/>
</g>
<!-- Node3 -->
<g id="node3" class="node">
<title>Node3</title>
<g id="a_node3"><a xlink:href="$_event_handler_8h.html" xlink:title=" ">
<polygon fill="none" stroke="black" points="295,-235.5 295,-265.5 405,-265.5 405,-235.5 295,-235.5"/>
<text text-anchor="start" x="303" y="-253.5" font-family="Helvetica,sans-Serif" font-size="10.00">../../core&#45;lib/include</text>
<text text-anchor="middle" x="350" y="-242.5" font-family="Helvetica,sans-Serif" font-size="10.00">/EventHandler.h</text>
</a>
</g>
</g>
<!-- Node1&#45;&gt;Node3 -->
<g id="edge2" class="edge">
<title>Node1&#45;&gt;Node3</title>
<path fill="none" stroke="midnightblue" d="M323.92,-414.3C329.32,-392.02 337.9,-354.61 343,-322 345.4,-306.66 347.13,-289.3 348.28,-275.65"/>
<polygon fill="midnightblue" stroke="midnightblue" points="351.77,-275.85 349.07,-265.6 344.79,-275.3 351.77,-275.85"/>
</g>
<!-- Node13 -->
<g id="node13" class="node">
<title>Node13</title>
<g id="a_node13"><a xlink:href="$_game_state_8h.html" xlink:title=" ">
<polygon fill="none" stroke="black" points="235,-358.5 235,-377.5 315,-377.5 315,-358.5 235,-358.5"/>
<text text-anchor="middle" x="275" y="-365.5" font-family="Helvetica,sans-Serif" font-size="10.00">GameState.h</text>
</a>
</g>
</g>
<!-- Node1&#45;&gt;Node13 -->
<g id="edge18" class="edge">
<title>Node1&#45;&gt;Node13</title>
<path fill="none" stroke="midnightblue" d="M299.55,-414.5C292.86,-405.68 285.91,-395.34 280.92,-386.74"/>
<polygon fill="midnightblue" stroke="midnightblue" points="283.87,-384.84 276.09,-377.65 277.69,-388.13 283.87,-384.84"/>
</g>
<!-- Node3&#45;&gt;Node2 -->
<g id="edge3" class="edge">
<title>Node3&#45;&gt;Node2</title>
<path fill="none" stroke="midnightblue" d="M352.26,-235.29C358.79,-194.35 377.64,-76.05 385,-29.83"/>
<polygon fill="midnightblue" stroke="midnightblue" points="388.46,-30.37 386.57,-19.95 381.54,-29.27 388.46,-30.37"/>
</g>
<!-- Node4 -->
<g id="node4" class="node">
<title>Node4</title>
<g id="a_node4"><a xlink:href="$_event_8h.html" xlink:title=" ">
<polygon fill="none" stroke="black" points="291.5,-62 291.5,-81 344.5,-81 344.5,-62 291.5,-62"/>
<text text-anchor="middle" x="318" y="-69" font-family="Helvetica,sans-Serif" font-size="10.00">Event.h</text>
</a>
</g>
</g>
<!-- Node3&#45;&gt;Node4 -->
<g id="edge4" class="edge">
<title>Node3&#45;&gt;Node4</title>
<path fill="none" stroke="midnightblue" d="M347.44,-235.31C341.71,-203.63 327.87,-127.11 321.42,-91.42"/>
<polygon fill="midnightblue" stroke="midnightblue" points="324.83,-90.59 319.6,-81.37 317.94,-91.84 324.83,-90.59"/>
</g>
<!-- Node8 -->
<g id="node8" class="node">
<title>Node8</title>
<g id="a_node8"><a xlink:href="$_event_publisher_8h.html" xlink:title=" ">
<polygon fill="none" stroke="black" points="183,-179.5 183,-198.5 281,-198.5 281,-179.5 183,-179.5"/>
<text text-anchor="middle" x="232" y="-186.5" font-family="Helvetica,sans-Serif" font-size="10.00">EventPublisher.h</text>
</a>
</g>
</g>
<!-- Node3&#45;&gt;Node8 -->
<g id="edge9" class="edge">
<title>Node3&#45;&gt;Node8</title>
<path fill="none" stroke="midnightblue" d="M322.04,-235.4C302.68,-225.64 277.09,-212.74 258.14,-203.18"/>
<polygon fill="midnightblue" stroke="midnightblue" points="259.67,-200.04 249.17,-198.66 256.52,-206.29 259.67,-200.04"/>
</g>
<!-- Node4&#45;&gt;Node2 -->
<g id="edge7" class="edge">
<title>Node4&#45;&gt;Node2</title>
<path fill="none" stroke="midnightblue" d="M328.03,-61.98C339.05,-52.61 356.96,-37.38 370.34,-26.01"/>
<polygon fill="midnightblue" stroke="midnightblue" points="372.64,-28.65 377.99,-19.51 368.1,-23.32 372.64,-28.65"/>
</g>
<!-- Node5 -->
<g id="node5" class="node">
<title>Node5</title>
<g id="a_node5"><a xlink:title=" ">
<polygon fill="none" stroke="#bfbfbf" points="213.5,-0.5 213.5,-19.5 278.5,-19.5 278.5,-0.5 213.5,-0.5"/>
<text text-anchor="middle" x="246" y="-7.5" font-family="Helvetica,sans-Serif" font-size="10.00">exception</text>
</a>
</g>
</g>
<!-- Node4&#45;&gt;Node5 -->
<g id="edge5" class="edge">
<title>Node4&#45;&gt;Node5</title>
<path fill="none" stroke="midnightblue" d="M307.68,-61.98C296.35,-52.61 277.93,-37.38 264.16,-26.01"/>
<polygon fill="midnightblue" stroke="midnightblue" points="266.23,-23.18 256.3,-19.51 261.78,-28.58 266.23,-23.18"/>
</g>
<!-- Node6 -->
<g id="node6" class="node">
<title>Node6</title>
<g id="a_node6"><a xlink:title=" ">
<polygon fill="none" stroke="#bfbfbf" points="297,-0.5 297,-19.5 341,-19.5 341,-0.5 297,-0.5"/>
<text text-anchor="middle" x="319" y="-7.5" font-family="Helvetica,sans-Serif" font-size="10.00">string</text>
</a>
</g>
</g>
<!-- Node4&#45;&gt;Node6 -->
<g id="edge6" class="edge">
<title>Node4&#45;&gt;Node6</title>
<path fill="none" stroke="midnightblue" d="M318.14,-61.98C318.28,-53.58 318.5,-40.48 318.69,-29.66"/>
<polygon fill="midnightblue" stroke="midnightblue" points="322.19,-29.57 318.86,-19.51 315.19,-29.45 322.19,-29.57"/>
</g>
<!-- Node7 -->
<g id="node7" class="node">
<title>Node7</title>
<g id="a_node7"><a xlink:title=" ">
<polygon fill="none" stroke="#bfbfbf" points="144.5,-0.5 144.5,-19.5 195.5,-19.5 195.5,-0.5 144.5,-0.5"/>
<text text-anchor="middle" x="170" y="-7.5" font-family="Helvetica,sans-Serif" font-size="10.00">variant</text>
</a>
</g>
</g>
<!-- Node4&#45;&gt;Node7 -->
<g id="edge8" class="edge">
<title>Node4&#45;&gt;Node7</title>
<path fill="none" stroke="midnightblue" d="M296.8,-61.98C271.63,-51.86 229.46,-34.9 200.72,-23.35"/>
<polygon fill="midnightblue" stroke="midnightblue" points="201.75,-19.99 191.17,-19.51 199.14,-26.49 201.75,-19.99"/>
</g>
<!-- Node8&#45;&gt;Node4 -->
<g id="edge12" class="edge">
<title>Node8&#45;&gt;Node4</title>
<path fill="none" stroke="midnightblue" d="M248.67,-179.4C262.32,-171.58 281.24,-158.86 293,-143 304.46,-127.54 311.03,-106.35 314.53,-91.25"/>
<polygon fill="midnightblue" stroke="midnightblue" points="318.04,-91.58 316.64,-81.08 311.18,-90.16 318.04,-91.58"/>
</g>
<!-- Node9 -->
<g id="node9" class="node">
<title>Node9</title>
<g id="a_node9"><a xlink:title=" ">
<polygon fill="none" stroke="#bfbfbf" points="105,-62 105,-81 143,-81 143,-62 105,-62"/>
<text text-anchor="middle" x="124" y="-69" font-family="Helvetica,sans-Serif" font-size="10.00">map</text>
</a>
</g>
</g>
<!-- Node8&#45;&gt;Node9 -->
<g id="edge10" class="edge">
<title>Node8&#45;&gt;Node9</title>
<path fill="none" stroke="midnightblue" d="M214.43,-179.38C199.63,-171.47 178.59,-158.62 164,-143 149.49,-127.46 138.17,-105.7 131.33,-90.48"/>
<polygon fill="midnightblue" stroke="midnightblue" points="134.49,-88.95 127.33,-81.14 128.05,-91.71 134.49,-88.95"/>
</g>
<!-- Node10 -->
<g id="node10" class="node">
<title>Node10</title>
<g id="a_node10"><a xlink:title=" ">
<polygon fill="none" stroke="#bfbfbf" points="169.5,-62 169.5,-81 216.5,-81 216.5,-62 169.5,-62"/>
<text text-anchor="middle" x="193" y="-69" font-family="Helvetica,sans-Serif" font-size="10.00">vector</text>
</a>
</g>
</g>
<!-- Node8&#45;&gt;Node10 -->
<g id="edge11" class="edge">
<title>Node8&#45;&gt;Node10</title>
<path fill="none" stroke="midnightblue" d="M212.09,-179.41C197.78,-172.04 179.54,-159.92 171,-143 162.28,-125.72 171.49,-104.31 180.52,-89.65"/>
<polygon fill="midnightblue" stroke="midnightblue" points="183.59,-91.35 186.23,-81.1 177.77,-87.46 183.59,-91.35"/>
</g>
<!-- Node11 -->
<g id="node11" class="node">
<title>Node11</title>
<g id="a_node11"><a xlink:href="$_event_subscriber_8h.html" xlink:title=" ">
<polygon fill="none" stroke="black" points="180,-123.5 180,-142.5 284,-142.5 284,-123.5 180,-123.5"/>
<text text-anchor="middle" x="232" y="-130.5" font-family="Helvetica,sans-Serif" font-size="10.00">EventSubscriber.h</text>
</a>
</g>
</g>
<!-- Node8&#45;&gt;Node11 -->
<g id="edge13" class="edge">
<title>Node8&#45;&gt;Node11</title>
<path fill="none" stroke="midnightblue" d="M232,-179.08C232,-172.01 232,-161.86 232,-152.99"/>
<polygon fill="midnightblue" stroke="midnightblue" points="235.5,-152.75 232,-142.75 228.5,-152.75 235.5,-152.75"/>
</g>
<!-- Node11&#45;&gt;Node4 -->
<g id="edge17" class="edge">
<title>Node11&#45;&gt;Node4</title>
<path fill="none" stroke="midnightblue" d="M244.32,-123.48C258.12,-113.93 280.7,-98.31 297.23,-86.87"/>
<polygon fill="midnightblue" stroke="midnightblue" points="299.47,-89.58 305.7,-81.01 295.49,-83.82 299.47,-89.58"/>
</g>
<!-- Node11&#45;&gt;Node9 -->
<g id="edge14" class="edge">
<title>Node11&#45;&gt;Node9</title>
<path fill="none" stroke="midnightblue" d="M216.53,-123.48C198.72,-113.67 169.26,-97.43 148.37,-85.92"/>
<polygon fill="midnightblue" stroke="midnightblue" points="149.89,-82.77 139.45,-81.01 146.51,-88.9 149.89,-82.77"/>
</g>
<!-- Node11&#45;&gt;Node10 -->
<g id="edge15" class="edge">
<title>Node11&#45;&gt;Node10</title>
<path fill="none" stroke="midnightblue" d="M226.41,-123.48C220.62,-114.64 211.41,-100.59 204.13,-89.48"/>
<polygon fill="midnightblue" stroke="midnightblue" points="206.99,-87.45 198.58,-81.01 201.13,-91.29 206.99,-87.45"/>
</g>
<!-- Node12 -->
<g id="node12" class="node">
<title>Node12</title>
<g id="a_node12"><a xlink:title=" ">
<polygon fill="none" stroke="#bfbfbf" points="239,-62 239,-81 271,-81 271,-62 239,-62"/>
<text text-anchor="middle" x="255" y="-69" font-family="Helvetica,sans-Serif" font-size="10.00">list</text>
</a>
</g>
</g>
<!-- Node11&#45;&gt;Node12 -->
<g id="edge16" class="edge">
<title>Node11&#45;&gt;Node12</title>
<path fill="none" stroke="midnightblue" d="M235.3,-123.48C238.61,-114.9 243.82,-101.43 248.05,-90.48"/>
<polygon fill="midnightblue" stroke="midnightblue" points="251.37,-91.6 251.71,-81.01 244.84,-89.07 251.37,-91.6"/>
</g>
<!-- Node13&#45;&gt;Node1 -->
<g id="edge30" class="edge">
<title>Node13&#45;&gt;Node1</title>
<path fill="none" stroke="midnightblue" d="M285.62,-377.65C292.06,-384.89 299.98,-395.64 306.61,-405.81"/>
<polygon fill="midnightblue" stroke="midnightblue" points="303.78,-407.87 312.04,-414.5 309.71,-404.16 303.78,-407.87"/>
</g>
<!-- Node13&#45;&gt;Node2 -->
<g id="edge19" class="edge">
<title>Node13&#45;&gt;Node2</title>
<path fill="none" stroke="midnightblue" d="M234.72,-367.64C158.33,-366.53 0,-352.09 0,-251.5 0,-251.5 0,-251.5 0,-132 0,-93.62 9.24,-77.54 41,-56 95.86,-18.78 267.06,-30.86 348.65,-19.86"/>
<polygon fill="midnightblue" stroke="midnightblue" points="349.27,-23.31 358.61,-18.32 348.19,-16.39 349.27,-23.31"/>
</g>
<!-- Node14 -->
<g id="node14" class="node">
<title>Node14</title>
<g id="a_node14"><a xlink:href="$_active_event_handler_8h.html" xlink:title=" ">
<polygon fill="none" stroke="black" points="405,-302.5 405,-321.5 527,-321.5 527,-302.5 405,-302.5"/>
<text text-anchor="middle" x="466" y="-309.5" font-family="Helvetica,sans-Serif" font-size="10.00">ActiveEventHandler.h</text>
</a>
</g>
</g>
<!-- Node13&#45;&gt;Node14 -->
<g id="edge20" class="edge">
<title>Node13&#45;&gt;Node14</title>
<path fill="none" stroke="midnightblue" d="M305.26,-358.44C337.96,-349.2 390.18,-334.44 426.18,-324.26"/>
<polygon fill="midnightblue" stroke="midnightblue" points="427.21,-327.61 435.88,-321.52 425.3,-320.87 427.21,-327.61"/>
</g>
<!-- Node18 -->
<g id="node18" class="node">
<title>Node18</title>
<g id="a_node18"><a xlink:href="$_pause_event_handler_8h.html" xlink:title=" ">
<polygon fill="none" stroke="black" points="215.5,-302.5 215.5,-321.5 334.5,-321.5 334.5,-302.5 215.5,-302.5"/>
<text text-anchor="middle" x="275" y="-309.5" font-family="Helvetica,sans-Serif" font-size="10.00">PauseEventHandler.h</text>
</a>
</g>
</g>
<!-- Node13&#45;&gt;Node18 -->
<g id="edge31" class="edge">
<title>Node13&#45;&gt;Node18</title>
<path fill="none" stroke="midnightblue" d="M269.83,-358.08C268.32,-350.93 267.89,-340.64 268.54,-331.69"/>
<polygon fill="midnightblue" stroke="midnightblue" points="272.02,-332.13 269.87,-321.75 265.08,-331.2 272.02,-332.13"/>
</g>
<!-- Node19 -->
<g id="node19" class="node">
<title>Node19</title>
<g id="a_node19"><a xlink:href="$_finished_event_handler_8h.html" xlink:title=" ">
<polygon fill="none" stroke="black" points="66.5,-302.5 66.5,-321.5 197.5,-321.5 197.5,-302.5 66.5,-302.5"/>
<text text-anchor="middle" x="132" y="-309.5" font-family="Helvetica,sans-Serif" font-size="10.00">FinishedEventHandler.h</text>
</a>
</g>
</g>
<!-- Node13&#45;&gt;Node19 -->
<g id="edge35" class="edge">
<title>Node13&#45;&gt;Node19</title>
<path fill="none" stroke="midnightblue" d="M252.34,-358.44C228.6,-349.48 191.09,-335.31 164.26,-325.18"/>
<polygon fill="midnightblue" stroke="midnightblue" points="165.14,-321.77 154.55,-321.52 162.67,-328.32 165.14,-321.77"/>
</g>
<!-- Node14&#45;&gt;Node2 -->
<g id="edge21" class="edge">
<title>Node14&#45;&gt;Node2</title>
<path fill="none" stroke="midnightblue" d="M473.08,-302.44C494.64,-275.27 556.22,-188.84 525,-123 512.74,-97.14 445.74,-49.58 410.18,-25.62"/>
<polygon fill="midnightblue" stroke="midnightblue" points="411.73,-22.44 401.47,-19.79 407.84,-28.26 411.73,-22.44"/>
</g>
<!-- Node14&#45;&gt;Node3 -->
<g id="edge22" class="edge">
<title>Node14&#45;&gt;Node3</title>
<path fill="none" stroke="midnightblue" d="M449.38,-302.48C433.01,-294.08 407.46,-280.97 386.37,-270.15"/>
<polygon fill="midnightblue" stroke="midnightblue" points="387.83,-266.97 377.34,-265.52 384.64,-273.2 387.83,-266.97"/>
</g>
<!-- Node15 -->
<g id="node15" class="node">
<title>Node15</title>
<g id="a_node15"><a xlink:href="$_event_queue_8h.html" xlink:title=" ">
<polygon fill="none" stroke="black" points="504,-56.5 504,-86.5 614,-86.5 614,-56.5 504,-56.5"/>
<text text-anchor="start" x="512" y="-74.5" font-family="Helvetica,sans-Serif" font-size="10.00">../../core&#45;lib/include</text>
<text text-anchor="middle" x="559" y="-63.5" font-family="Helvetica,sans-Serif" font-size="10.00">/EventQueue.h</text>
</a>
</g>
</g>
<!-- Node14&#45;&gt;Node15 -->
<g id="edge23" class="edge">
<title>Node14&#45;&gt;Node15</title>
<path fill="none" stroke="midnightblue" d="M504.33,-302.5C523.97,-295.99 546.18,-284.82 558,-266 591.14,-213.2 576.76,-135.28 566.34,-96.4"/>
<polygon fill="midnightblue" stroke="midnightblue" points="569.64,-95.19 563.55,-86.52 562.9,-97.09 569.64,-95.19"/>
</g>
<!-- Node17 -->
<g id="node17" class="node">
<title>Node17</title>
<g id="a_node17"><a xlink:href="$_game_statistics_8h.html" xlink:title=" ">
<polygon fill="none" stroke="black" points="416,-123.5 416,-142.5 516,-142.5 516,-123.5 416,-123.5"/>
<text text-anchor="middle" x="466" y="-130.5" font-family="Helvetica,sans-Serif" font-size="10.00">GameStatistics.h</text>
</a>
</g>
</g>
<!-- Node14&#45;&gt;Node17 -->
<g id="edge26" class="edge">
<title>Node14&#45;&gt;Node17</title>
<path fill="none" stroke="midnightblue" d="M466,-302.46C466,-275.43 466,-191.24 466,-153.11"/>
<polygon fill="midnightblue" stroke="midnightblue" points="469.5,-152.87 466,-142.87 462.5,-152.87 469.5,-152.87"/>
</g>
<!-- Node15&#45;&gt;Node2 -->
<g id="edge25" class="edge">
<title>Node15&#45;&gt;Node2</title>
<path fill="none" stroke="midnightblue" d="M518.48,-56.4C489.27,-46.24 450.28,-32.67 422.55,-23.02"/>
<polygon fill="midnightblue" stroke="midnightblue" points="423.48,-19.64 412.88,-19.66 421.18,-26.25 423.48,-19.64"/>
</g>
<!-- Node16 -->
<g id="node16" class="node">
<title>Node16</title>
<g id="a_node16"><a xlink:title=" ">
<polygon fill="none" stroke="#bfbfbf" points="535.5,-0.5 535.5,-19.5 582.5,-19.5 582.5,-0.5 535.5,-0.5"/>
<text text-anchor="middle" x="559" y="-7.5" font-family="Helvetica,sans-Serif" font-size="10.00">queue</text>
</a>
</g>
</g>
<!-- Node15&#45;&gt;Node16 -->
<g id="edge24" class="edge">
<title>Node15&#45;&gt;Node16</title>
<path fill="none" stroke="midnightblue" d="M559,-56.4C559,-48.47 559,-38.46 559,-29.86"/>
<polygon fill="midnightblue" stroke="midnightblue" points="562.5,-29.66 559,-19.66 555.5,-29.66 562.5,-29.66"/>
</g>
<!-- Node17&#45;&gt;Node4 -->
<g id="edge29" class="edge">
<title>Node17&#45;&gt;Node4</title>
<path fill="none" stroke="midnightblue" d="M444.8,-123.48C419.63,-113.36 377.46,-96.4 348.72,-84.85"/>
<polygon fill="midnightblue" stroke="midnightblue" points="349.75,-81.49 339.17,-81.01 347.14,-87.99 349.75,-81.49"/>
</g>
<!-- Node17&#45;&gt;Node12 -->
<g id="edge27" class="edge">
<title>Node17&#45;&gt;Node12</title>
<path fill="none" stroke="midnightblue" d="M416.55,-123.44C378.91,-116.08 326.21,-103.96 282,-87 280.8,-86.54 279.58,-86.04 278.37,-85.5"/>
<polygon fill="midnightblue" stroke="midnightblue" points="279.77,-82.29 269.25,-81.02 276.68,-88.58 279.77,-82.29"/>
</g>
<!-- Node17&#45;&gt;Node15 -->
<g id="edge28" class="edge">
<title>Node17&#45;&gt;Node15</title>
<path fill="none" stroke="midnightblue" d="M479.32,-123.48C492.04,-115.34 511.65,-102.79 528.24,-92.18"/>
<polygon fill="midnightblue" stroke="midnightblue" points="530.54,-94.86 537.08,-86.52 526.77,-88.96 530.54,-94.86"/>
</g>
<!-- Node18&#45;&gt;Node2 -->
<g id="edge32" class="edge">
<title>Node18&#45;&gt;Node2</title>
<path fill="none" stroke="midnightblue" d="M222.72,-302.48C163.75,-289.54 76,-258.74 76,-190 76,-190 76,-190 76,-132 76,-97.07 69.91,-79.22 96,-56 136.51,-19.96 279.08,-29.48 348.51,-19.88"/>
<polygon fill="midnightblue" stroke="midnightblue" points="349.29,-23.3 358.6,-18.24 348.17,-16.39 349.29,-23.3"/>
</g>
<!-- Node18&#45;&gt;Node3 -->
<g id="edge33" class="edge">
<title>Node18&#45;&gt;Node3</title>
<path fill="none" stroke="midnightblue" d="M285.75,-302.48C295.81,-294.49 311.23,-282.25 324.45,-271.77"/>
<polygon fill="midnightblue" stroke="midnightblue" points="326.67,-274.48 332.32,-265.52 322.31,-269 326.67,-274.48"/>
</g>
<!-- Node18&#45;&gt;Node13 -->
<g id="edge34" class="edge">
<title>Node18&#45;&gt;Node13</title>
<path fill="none" stroke="midnightblue" d="M280.13,-321.75C281.66,-328.86 282.1,-339.14 281.47,-348.1"/>
<polygon fill="midnightblue" stroke="midnightblue" points="277.99,-347.71 280.17,-358.08 284.93,-348.62 277.99,-347.71"/>
</g>
<!-- Node19&#45;&gt;Node2 -->
<g id="edge36" class="edge">
<title>Node19&#45;&gt;Node2</title>
<path fill="none" stroke="midnightblue" d="M118.53,-302.5C92.54,-284.93 38,-241.87 38,-190 38,-190 38,-190 38,-132 38,-94.81 43.04,-78.04 73,-56 120.76,-20.87 274.27,-30.19 348.65,-19.87"/>
<polygon fill="midnightblue" stroke="midnightblue" points="349.28,-23.32 358.6,-18.28 348.18,-16.4 349.28,-23.32"/>
</g>
<!-- Node19&#45;&gt;Node3 -->
<g id="edge37" class="edge">
<title>Node19&#45;&gt;Node3</title>
<path fill="none" stroke="midnightblue" d="M163.23,-302.48C195.86,-293.57 247.89,-279.37 288.76,-268.22"/>
<polygon fill="midnightblue" stroke="midnightblue" points="289.9,-271.53 298.62,-265.52 288.05,-264.78 289.9,-271.53"/>
</g>
</g>
</svg>
