<?xml version="1.0" encoding="UTF-8" standalone="no"?>
<!DOCTYPE svg PUBLIC "-//W3C//DTD SVG 1.1//EN"
 "http://www.w3.org/Graphics/SVG/1.1/DTD/svg11.dtd">
<!-- Generated by graphviz version 2.43.0 (0)
 -->
<!-- Title: /home/tomek/CLionProjects/proi/proi&#45;projekt/src/game&#45;lib/Menu.cpp Pages: 1 -->
<svg width="347pt" height="229pt"
 viewBox="0.00 0.00 347.00 229.00" xmlns="http://www.w3.org/2000/svg" xmlns:xlink="http://www.w3.org/1999/xlink">
<g id="graph0" class="graph" transform="scale(1 1) rotate(0) translate(4 225)">
<title>/home/tomek/CLionProjects/proi/proi&#45;projekt/src/game&#45;lib/Menu.cpp</title>
<!-- Node1 -->
<g id="node1" class="node">
<title>Node1</title>
<g id="a_node1"><a xlink:title=" ">
<polygon fill="#bfbfbf" stroke="black" points="56,-179.5 56,-220.5 207,-220.5 207,-179.5 56,-179.5"/>
<text text-anchor="start" x="64" y="-208.5" font-family="Helvetica,sans-Serif" font-size="10.00">/home/tomek/CLionProjects</text>
<text text-anchor="start" x="64" y="-197.5" font-family="Helvetica,sans-Serif" font-size="10.00">/proi/proi&#45;projekt/src</text>
<text text-anchor="middle" x="131.5" y="-186.5" font-family="Helvetica,sans-Serif" font-size="10.00">/game&#45;lib/Menu.cpp</text>
</a>
</g>
</g>
<!-- Node2 -->
<g id="node2" class="node">
<title>Node2</title>
<g id="a_node2"><a xlink:href="$_menu_8h.html" xlink:title=" ">
<polygon fill="none" stroke="black" points="86,-123.5 86,-142.5 177,-142.5 177,-123.5 86,-123.5"/>
<text text-anchor="middle" x="131.5" y="-130.5" font-family="Helvetica,sans-Serif" font-size="10.00">include/Menu.h</text>
</a>
</g>
</g>
<!-- Node1&#45;&gt;Node2 -->
<g id="edge1" class="edge">
<title>Node1&#45;&gt;Node2</title>
<path fill="none" stroke="midnightblue" d="M131.5,-179.5C131.5,-171.07 131.5,-161.24 131.5,-152.87"/>
<polygon fill="midnightblue" stroke="midnightblue" points="135,-152.65 131.5,-142.65 128,-152.65 135,-152.65"/>
</g>
<!-- Node3 -->
<g id="node3" class="node">
<title>Node3</title>
<g id="a_node3"><a xlink:href="$_event_queue_8h.html" xlink:title=" ">
<polygon fill="none" stroke="black" points="12.5,-56.5 12.5,-86.5 122.5,-86.5 122.5,-56.5 12.5,-56.5"/>
<text text-anchor="start" x="20.5" y="-74.5" font-family="Helvetica,sans-Serif" font-size="10.00">../../core&#45;lib/include</text>
<text text-anchor="middle" x="67.5" y="-63.5" font-family="Helvetica,sans-Serif" font-size="10.00">/EventQueue.h</text>
</a>
</g>
</g>
<!-- Node1&#45;&gt;Node3 -->
<g id="edge10" class="edge">
<title>Node1&#45;&gt;Node3</title>
<path fill="none" stroke="midnightblue" d="M105.77,-179.33C94.93,-169.61 83.28,-156.98 76.5,-143 69.62,-128.81 67.36,-111.21 66.83,-97.15"/>
<polygon fill="midnightblue" stroke="midnightblue" points="70.33,-96.72 66.72,-86.76 63.33,-96.8 70.33,-96.72"/>
</g>
<!-- Node6 -->
<g id="node6" class="node">
<title>Node6</title>
<g id="a_node6"><a xlink:href="$_event_8h.html" xlink:title=" ">
<polygon fill="none" stroke="black" points="145.5,-56.5 145.5,-86.5 255.5,-86.5 255.5,-56.5 145.5,-56.5"/>
<text text-anchor="start" x="153.5" y="-74.5" font-family="Helvetica,sans-Serif" font-size="10.00">../../core&#45;lib/include</text>
<text text-anchor="middle" x="200.5" y="-63.5" font-family="Helvetica,sans-Serif" font-size="10.00">/Event.h</text>
</a>
</g>
</g>
<!-- Node1&#45;&gt;Node6 -->
<g id="edge11" class="edge">
<title>Node1&#45;&gt;Node6</title>
<path fill="none" stroke="midnightblue" d="M156.51,-179.36C167.33,-169.56 179.18,-156.86 186.5,-143 194.07,-128.67 197.57,-110.73 199.17,-96.54"/>
<polygon fill="midnightblue" stroke="midnightblue" points="202.66,-96.8 200.06,-86.53 195.69,-96.18 202.66,-96.8"/>
</g>
<!-- Node2&#45;&gt;Node3 -->
<g id="edge2" class="edge">
<title>Node2&#45;&gt;Node3</title>
<path fill="none" stroke="midnightblue" d="M122.33,-123.48C113.91,-115.64 101.08,-103.71 89.94,-93.37"/>
<polygon fill="midnightblue" stroke="midnightblue" points="92.29,-90.77 82.58,-86.52 87.52,-95.9 92.29,-90.77"/>
</g>
<!-- Node2&#45;&gt;Node6 -->
<g id="edge5" class="edge">
<title>Node2&#45;&gt;Node6</title>
<path fill="none" stroke="midnightblue" d="M141.39,-123.48C150.56,-115.57 164.57,-103.48 176.65,-93.07"/>
<polygon fill="midnightblue" stroke="midnightblue" points="178.95,-95.7 184.24,-86.52 174.38,-90.4 178.95,-95.7"/>
</g>
<!-- Node4 -->
<g id="node4" class="node">
<title>Node4</title>
<g id="a_node4"><a xlink:title=" ">
<polygon fill="none" stroke="#bfbfbf" points="0,-0.5 0,-19.5 47,-19.5 47,-0.5 0,-0.5"/>
<text text-anchor="middle" x="23.5" y="-7.5" font-family="Helvetica,sans-Serif" font-size="10.00">queue</text>
</a>
</g>
</g>
<!-- Node3&#45;&gt;Node4 -->
<g id="edge3" class="edge">
<title>Node3&#45;&gt;Node4</title>
<path fill="none" stroke="midnightblue" d="M57.07,-56.4C50.74,-47.84 42.63,-36.87 35.97,-27.86"/>
<polygon fill="midnightblue" stroke="midnightblue" points="38.66,-25.62 29.9,-19.66 33.03,-29.78 38.66,-25.62"/>
</g>
<!-- Node5 -->
<g id="node5" class="node">
<title>Node5</title>
<g id="a_node5"><a xlink:title=" ">
<polygon fill="none" stroke="#bfbfbf" points="65.5,-0.5 65.5,-19.5 123.5,-19.5 123.5,-0.5 65.5,-0.5"/>
<text text-anchor="middle" x="94.5" y="-7.5" font-family="Helvetica,sans-Serif" font-size="10.00">memory</text>
</a>
</g>
</g>
<!-- Node3&#45;&gt;Node5 -->
<g id="edge4" class="edge">
<title>Node3&#45;&gt;Node5</title>
<path fill="none" stroke="midnightblue" d="M73.9,-56.4C77.62,-48.2 82.35,-37.78 86.33,-28.99"/>
<polygon fill="midnightblue" stroke="midnightblue" points="89.63,-30.21 90.57,-19.66 83.25,-27.32 89.63,-30.21"/>
</g>
<!-- Node6&#45;&gt;Node5 -->
<g id="edge8" class="edge">
<title>Node6&#45;&gt;Node5</title>
<path fill="none" stroke="midnightblue" d="M175.38,-56.4C158.23,-46.77 135.64,-34.09 118.69,-24.58"/>
<polygon fill="midnightblue" stroke="midnightblue" points="120.36,-21.5 109.92,-19.66 116.93,-27.6 120.36,-21.5"/>
</g>
<!-- Node7 -->
<g id="node7" class="node">
<title>Node7</title>
<g id="a_node7"><a xlink:title=" ">
<polygon fill="none" stroke="#bfbfbf" points="142,-0.5 142,-19.5 207,-19.5 207,-0.5 142,-0.5"/>
<text text-anchor="middle" x="174.5" y="-7.5" font-family="Helvetica,sans-Serif" font-size="10.00">exception</text>
</a>
</g>
</g>
<!-- Node6&#45;&gt;Node7 -->
<g id="edge6" class="edge">
<title>Node6&#45;&gt;Node7</title>
<path fill="none" stroke="midnightblue" d="M194.34,-56.4C190.76,-48.2 186.2,-37.78 182.36,-28.99"/>
<polygon fill="midnightblue" stroke="midnightblue" points="185.49,-27.42 178.28,-19.66 179.08,-30.22 185.49,-27.42"/>
</g>
<!-- Node8 -->
<g id="node8" class="node">
<title>Node8</title>
<g id="a_node8"><a xlink:title=" ">
<polygon fill="none" stroke="#bfbfbf" points="225.5,-0.5 225.5,-19.5 269.5,-19.5 269.5,-0.5 225.5,-0.5"/>
<text text-anchor="middle" x="247.5" y="-7.5" font-family="Helvetica,sans-Serif" font-size="10.00">string</text>
</a>
</g>
</g>
<!-- Node6&#45;&gt;Node8 -->
<g id="edge7" class="edge">
<title>Node6&#45;&gt;Node8</title>
<path fill="none" stroke="midnightblue" d="M211.64,-56.4C218.47,-47.75 227.24,-36.64 234.41,-27.58"/>
<polygon fill="midnightblue" stroke="midnightblue" points="237.21,-29.67 240.66,-19.66 231.72,-25.34 237.21,-29.67"/>
</g>
<!-- Node9 -->
<g id="node9" class="node">
<title>Node9</title>
<g id="a_node9"><a xlink:title=" ">
<polygon fill="none" stroke="#bfbfbf" points="288,-0.5 288,-19.5 339,-19.5 339,-0.5 288,-0.5"/>
<text text-anchor="middle" x="313.5" y="-7.5" font-family="Helvetica,sans-Serif" font-size="10.00">variant</text>
</a>
</g>
</g>
<!-- Node6&#45;&gt;Node9 -->
<g id="edge9" class="edge">
<title>Node6&#45;&gt;Node9</title>
<path fill="none" stroke="midnightblue" d="M227.28,-56.4C245.56,-46.77 269.65,-34.09 287.71,-24.58"/>
<polygon fill="midnightblue" stroke="midnightblue" points="289.84,-27.41 297.06,-19.66 286.58,-21.22 289.84,-27.41"/>
</g>
</g>
</svg>
