<?xml version="1.0" encoding="UTF-8" standalone="no"?>
<!DOCTYPE svg PUBLIC "-//W3C//DTD SVG 1.1//EN"
 "http://www.w3.org/Graphics/SVG/1.1/DTD/svg11.dtd">
<!-- Generated by graphviz version 2.43.0 (0)
 -->
<!-- Title: /home/tomek/CLionProjects/proi/proi&#45;projekt/src/game&#45;lib/include/Menu.h Pages: 1 -->
<svg width="347pt" height="173pt"
 viewBox="0.00 0.00 347.00 173.00" xmlns="http://www.w3.org/2000/svg" xmlns:xlink="http://www.w3.org/1999/xlink">
<g id="graph0" class="graph" transform="scale(1 1) rotate(0) translate(4 169)">
<title>/home/tomek/CLionProjects/proi/proi&#45;projekt/src/game&#45;lib/include/Menu.h</title>
<!-- Node1 -->
<g id="node1" class="node">
<title>Node1</title>
<g id="a_node1"><a xlink:title=" ">
<polygon fill="#bfbfbf" stroke="black" points="59,-123.5 59,-164.5 210,-164.5 210,-123.5 59,-123.5"/>
<text text-anchor="start" x="67" y="-152.5" font-family="Helvetica,sans-Serif" font-size="10.00">/home/tomek/CLionProjects</text>
<text text-anchor="start" x="67" y="-141.5" font-family="Helvetica,sans-Serif" font-size="10.00">/proi/proi&#45;projekt/src</text>
<text text-anchor="middle" x="134.5" y="-130.5" font-family="Helvetica,sans-Serif" font-size="10.00">/game&#45;lib/include/Menu.h</text>
</a>
</g>
</g>
<!-- Node2 -->
<g id="node2" class="node">
<title>Node2</title>
<g id="a_node2"><a xlink:href="$_event_queue_8h.html" xlink:title=" ">
<polygon fill="none" stroke="black" points="15.5,-56.5 15.5,-86.5 125.5,-86.5 125.5,-56.5 15.5,-56.5"/>
<text text-anchor="start" x="23.5" y="-74.5" font-family="Helvetica,sans-Serif" font-size="10.00">../../core&#45;lib/include</text>
<text text-anchor="middle" x="70.5" y="-63.5" font-family="Helvetica,sans-Serif" font-size="10.00">/EventQueue.h</text>
</a>
</g>
</g>
<!-- Node1&#45;&gt;Node2 -->
<g id="edge1" class="edge">
<title>Node1&#45;&gt;Node2</title>
<path fill="none" stroke="midnightblue" d="M116.67,-123.36C108.55,-114.41 98.9,-103.78 90.52,-94.56"/>
<polygon fill="midnightblue" stroke="midnightblue" points="92.88,-91.94 83.56,-86.89 87.69,-96.65 92.88,-91.94"/>
</g>
<!-- Node5 -->
<g id="node5" class="node">
<title>Node5</title>
<g id="a_node5"><a xlink:href="$_event_8h.html" xlink:title=" ">
<polygon fill="none" stroke="black" points="143.5,-56.5 143.5,-86.5 253.5,-86.5 253.5,-56.5 143.5,-56.5"/>
<text text-anchor="start" x="151.5" y="-74.5" font-family="Helvetica,sans-Serif" font-size="10.00">../../core&#45;lib/include</text>
<text text-anchor="middle" x="198.5" y="-63.5" font-family="Helvetica,sans-Serif" font-size="10.00">/Event.h</text>
</a>
</g>
</g>
<!-- Node1&#45;&gt;Node5 -->
<g id="edge4" class="edge">
<title>Node1&#45;&gt;Node5</title>
<path fill="none" stroke="midnightblue" d="M152.33,-123.36C160.45,-114.41 170.1,-103.78 178.48,-94.56"/>
<polygon fill="midnightblue" stroke="midnightblue" points="181.31,-96.65 185.44,-86.89 176.12,-91.94 181.31,-96.65"/>
</g>
<!-- Node3 -->
<g id="node3" class="node">
<title>Node3</title>
<g id="a_node3"><a xlink:title=" ">
<polygon fill="none" stroke="#bfbfbf" points="0,-0.5 0,-19.5 47,-19.5 47,-0.5 0,-0.5"/>
<text text-anchor="middle" x="23.5" y="-7.5" font-family="Helvetica,sans-Serif" font-size="10.00">queue</text>
</a>
</g>
</g>
<!-- Node2&#45;&gt;Node3 -->
<g id="edge2" class="edge">
<title>Node2&#45;&gt;Node3</title>
<path fill="none" stroke="midnightblue" d="M59.36,-56.4C52.53,-47.75 43.76,-36.64 36.59,-27.58"/>
<polygon fill="midnightblue" stroke="midnightblue" points="39.28,-25.34 30.34,-19.66 33.79,-29.67 39.28,-25.34"/>
</g>
<!-- Node4 -->
<g id="node4" class="node">
<title>Node4</title>
<g id="a_node4"><a xlink:title=" ">
<polygon fill="none" stroke="#bfbfbf" points="65.5,-0.5 65.5,-19.5 123.5,-19.5 123.5,-0.5 65.5,-0.5"/>
<text text-anchor="middle" x="94.5" y="-7.5" font-family="Helvetica,sans-Serif" font-size="10.00">memory</text>
</a>
</g>
</g>
<!-- Node2&#45;&gt;Node4 -->
<g id="edge3" class="edge">
<title>Node2&#45;&gt;Node4</title>
<path fill="none" stroke="midnightblue" d="M76.19,-56.4C79.5,-48.2 83.7,-37.78 87.24,-28.99"/>
<polygon fill="midnightblue" stroke="midnightblue" points="90.51,-30.24 91.01,-19.66 84.02,-27.62 90.51,-30.24"/>
</g>
<!-- Node5&#45;&gt;Node4 -->
<g id="edge7" class="edge">
<title>Node5&#45;&gt;Node4</title>
<path fill="none" stroke="midnightblue" d="M173.85,-56.4C157.18,-46.86 135.27,-34.32 118.69,-24.84"/>
<polygon fill="midnightblue" stroke="midnightblue" points="120.05,-21.59 109.63,-19.66 116.57,-27.66 120.05,-21.59"/>
</g>
<!-- Node6 -->
<g id="node6" class="node">
<title>Node6</title>
<g id="a_node6"><a xlink:title=" ">
<polygon fill="none" stroke="#bfbfbf" points="142,-0.5 142,-19.5 207,-19.5 207,-0.5 142,-0.5"/>
<text text-anchor="middle" x="174.5" y="-7.5" font-family="Helvetica,sans-Serif" font-size="10.00">exception</text>
</a>
</g>
</g>
<!-- Node5&#45;&gt;Node6 -->
<g id="edge5" class="edge">
<title>Node5&#45;&gt;Node6</title>
<path fill="none" stroke="midnightblue" d="M192.81,-56.4C189.5,-48.2 185.3,-37.78 181.76,-28.99"/>
<polygon fill="midnightblue" stroke="midnightblue" points="184.98,-27.62 177.99,-19.66 178.49,-30.24 184.98,-27.62"/>
</g>
<!-- Node7 -->
<g id="node7" class="node">
<title>Node7</title>
<g id="a_node7"><a xlink:title=" ">
<polygon fill="none" stroke="#bfbfbf" points="225.5,-0.5 225.5,-19.5 269.5,-19.5 269.5,-0.5 225.5,-0.5"/>
<text text-anchor="middle" x="247.5" y="-7.5" font-family="Helvetica,sans-Serif" font-size="10.00">string</text>
</a>
</g>
</g>
<!-- Node5&#45;&gt;Node7 -->
<g id="edge6" class="edge">
<title>Node5&#45;&gt;Node7</title>
<path fill="none" stroke="midnightblue" d="M210.11,-56.4C217.23,-47.75 226.38,-36.64 233.85,-27.58"/>
<polygon fill="midnightblue" stroke="midnightblue" points="236.71,-29.6 240.37,-19.66 231.31,-25.15 236.71,-29.6"/>
</g>
<!-- Node8 -->
<g id="node8" class="node">
<title>Node8</title>
<g id="a_node8"><a xlink:title=" ">
<polygon fill="none" stroke="#bfbfbf" points="288,-0.5 288,-19.5 339,-19.5 339,-0.5 288,-0.5"/>
<text text-anchor="middle" x="313.5" y="-7.5" font-family="Helvetica,sans-Serif" font-size="10.00">variant</text>
</a>
</g>
</g>
<!-- Node5&#45;&gt;Node8 -->
<g id="edge8" class="edge">
<title>Node5&#45;&gt;Node8</title>
<path fill="none" stroke="midnightblue" d="M225.75,-56.4C244.53,-46.68 269.33,-33.86 287.77,-24.31"/>
<polygon fill="midnightblue" stroke="midnightblue" points="289.49,-27.36 296.77,-19.66 286.28,-21.14 289.49,-27.36"/>
</g>
</g>
</svg>
