<?xml version="1.0" encoding="UTF-8" standalone="no"?>
<!DOCTYPE svg PUBLIC "-//W3C//DTD SVG 1.1//EN"
 "http://www.w3.org/Graphics/SVG/1.1/DTD/svg11.dtd">
<!-- Generated by graphviz version 2.43.0 (0)
 -->
<!-- Title: /home/tomek/CLionProjects/proi/proi&#45;projekt/src/core&#45;lib/include/ObserverExceptions.h Pages: 1 -->
<svg width="212pt" height="106pt"
 viewBox="0.00 0.00 212.00 106.00" xmlns="http://www.w3.org/2000/svg" xmlns:xlink="http://www.w3.org/1999/xlink">
<g id="graph0" class="graph" transform="scale(1 1) rotate(0) translate(4 102)">
<title>/home/tomek/CLionProjects/proi/proi&#45;projekt/src/core&#45;lib/include/ObserverExceptions.h</title>
<!-- Node1 -->
<g id="node1" class="node">
<title>Node1</title>
<g id="a_node1"><a xlink:title=" ">
<polygon fill="#bfbfbf" stroke="black" points="0,-56.5 0,-97.5 204,-97.5 204,-56.5 0,-56.5"/>
<text text-anchor="start" x="8" y_="-85.5" font-family="Helvetica,sans-Serif" font-size="10.00">/home/tomek/CLionProjects</text>
<text text-anchor="start" x="8" y_="-74.5" font-family="Helvetica,sans-Serif" font-size="10.00">/proi/proi&#45;projekt/src</text>
<text text-anchor="middle" x="102" y_="-63.5" font-family="Helvetica,sans-Serif" font-size="10.00">/core&#45;lib/include/ObserverExceptions.h</text>
</a>
</g>
</g>
<!-- Node2 -->
<g id="node2" class="node">
<title>Node2</title>
<g id="a_node2"><a xlink:title=" ">
<polygon fill="none" stroke="#bfbfbf" points="33.5,-0.5 33.5,-19.5 98.5,-19.5 98.5,-0.5 33.5,-0.5"/>
<text text-anchor="middle" x="66" y_="-7.5" font-family="Helvetica,sans-Serif" font-size="10.00">exception</text>
</a>
</g>
</g>
<!-- Node1&#45;&gt;Node2 -->
<g id="edge1" class="edge">
<title>Node1&#45;&gt;Node2</title>
<path fill="none" stroke="midnightblue" d="M91.2,-56.5C86.26,-47.59 80.46,-37.11 75.67,-28.46"/>
<polygon fill="midnightblue" stroke="midnightblue" points="78.7,-26.7 70.79,-19.65 72.58,-30.1 78.7,-26.7"/>
</g>
<!-- Node3 -->
<g id="node3" class="node">
<title>Node3</title>
<g id="a_node3"><a xlink:title=" ">
<polygon fill="none" stroke="#bfbfbf" points="117,-0.5 117,-19.5 161,-19.5 161,-0.5 117,-0.5"/>
<text text-anchor="middle" x="139" y_="-7.5" font-family="Helvetica,sans-Serif" font-size="10.00">string</text>
</a>
</g>
</g>
<!-- Node1&#45;&gt;Node3 -->
<g id="edge2" class="edge">
<title>Node1&#45;&gt;Node3</title>
<path fill="none" stroke="midnightblue" d="M113.1,-56.5C118.17,-47.59 124.14,-37.11 129.06,-28.46"/>
<polygon fill="midnightblue" stroke="midnightblue" points="132.17,-30.07 134.07,-19.65 126.09,-26.61 132.17,-30.07"/>
</g>
</g>
</svg>
