<?xml version="1.0" encoding="UTF-8" standalone="no"?>
<!DOCTYPE svg PUBLIC "-//W3C//DTD SVG 1.1//EN"
 "http://www.w3.org/Graphics/SVG/1.1/DTD/svg11.dtd">
<!-- Generated by graphviz version 2.43.0 (0)
 -->
<!-- Title: /home/tomek/CLionProjects/proi/proi&#45;projekt/src/core&#45;lib/ObserverExceptions.cpp Pages: 1 -->
<svg width="237pt" height="162pt"
 viewBox="0.00 0.00 237.00 162.00" xmlns="http://www.w3.org/2000/svg" xmlns:xlink="http://www.w3.org/1999/xlink">
<g id="graph0" class="graph" transform="scale(1 1) rotate(0) translate(4 158)">
<title>/home/tomek/CLionProjects/proi/proi&#45;projekt/src/core&#45;lib/ObserverExceptions.cpp</title>
<!-- Node1 -->
<g id="node1" class="node">
<title>Node1</title>
<g id="a_node1"><a xlink:title=" ">
<polygon fill="#bfbfbf" stroke="black" points="52,-112.5 52,-153.5 229,-153.5 229,-112.5 52,-112.5"/>
<text text-anchor="start" x="60" y_="-141.5" font-family="Helvetica,sans-Serif" font-size="10.00">/home/tomek/CLionProjects</text>
<text text-anchor="start" x="60" y_="-130.5" font-family="Helvetica,sans-Serif" font-size="10.00">/proi/proi&#45;projekt/src</text>
<text text-anchor="middle" x="140.5" y_="-119.5" font-family="Helvetica,sans-Serif" font-size="10.00">/core&#45;lib/ObserverExceptions.cpp</text>
</a>
</g>
</g>
<!-- Node2 -->
<g id="node2" class="node">
<title>Node2</title>
<g id="a_node2"><a xlink:href="$_observer_exceptions_8h.html" xlink:title=" ">
<polygon fill="none" stroke="black" points="0,-56.5 0,-75.5 161,-75.5 161,-56.5 0,-56.5"/>
<text text-anchor="middle" x="80.5" y_="-63.5" font-family="Helvetica,sans-Serif" font-size="10.00">include/ObserverExceptions.h</text>
</a>
</g>
</g>
<!-- Node1&#45;&gt;Node2 -->
<g id="edge1" class="edge">
<title>Node1&#45;&gt;Node2</title>
<path fill="none" stroke="midnightblue" d="M122.5,-112.5C113.83,-103.11 103.56,-91.98 95.35,-83.08"/>
<polygon fill="midnightblue" stroke="midnightblue" points="97.84,-80.63 88.49,-75.65 92.7,-85.37 97.84,-80.63"/>
</g>
<!-- Node5 -->
<g id="node5" class="node">
<title>Node5</title>
<g id="a_node5"><a xlink:title=" ">
<polygon fill="none" stroke="#bfbfbf" points="179,-56.5 179,-75.5 224,-75.5 224,-56.5 179,-56.5"/>
<text text-anchor="middle" x="201.5" y_="-63.5" font-family="Helvetica,sans-Serif" font-size="10.00">utility</text>
</a>
</g>
</g>
<!-- Node1&#45;&gt;Node5 -->
<g id="edge4" class="edge">
<title>Node1&#45;&gt;Node5</title>
<path fill="none" stroke="midnightblue" d="M158.8,-112.5C167.61,-103.11 178.05,-91.98 186.41,-83.08"/>
<polygon fill="midnightblue" stroke="midnightblue" points="189.09,-85.34 193.38,-75.65 183.98,-80.55 189.09,-85.34"/>
</g>
<!-- Node3 -->
<g id="node3" class="node">
<title>Node3</title>
<g id="a_node3"><a xlink:title=" ">
<polygon fill="none" stroke="#bfbfbf" points="12,-0.5 12,-19.5 77,-19.5 77,-0.5 12,-0.5"/>
<text text-anchor="middle" x="44.5" y_="-7.5" font-family="Helvetica,sans-Serif" font-size="10.00">exception</text>
</a>
</g>
</g>
<!-- Node2&#45;&gt;Node3 -->
<g id="edge2" class="edge">
<title>Node2&#45;&gt;Node3</title>
<path fill="none" stroke="midnightblue" d="M74.56,-56.08C69.52,-48.53 62.16,-37.49 55.99,-28.23"/>
<polygon fill="midnightblue" stroke="midnightblue" points="58.79,-26.13 50.33,-19.75 52.97,-30.01 58.79,-26.13"/>
</g>
<!-- Node4 -->
<g id="node4" class="node">
<title>Node4</title>
<g id="a_node4"><a xlink:title=" ">
<polygon fill="none" stroke="#bfbfbf" points="95.5,-0.5 95.5,-19.5 139.5,-19.5 139.5,-0.5 95.5,-0.5"/>
<text text-anchor="middle" x="117.5" y_="-7.5" font-family="Helvetica,sans-Serif" font-size="10.00">string</text>
</a>
</g>
</g>
<!-- Node2&#45;&gt;Node4 -->
<g id="edge3" class="edge">
<title>Node2&#45;&gt;Node4</title>
<path fill="none" stroke="midnightblue" d="M86.61,-56.08C91.78,-48.53 99.35,-37.49 105.69,-28.23"/>
<polygon fill="midnightblue" stroke="midnightblue" points="108.74,-29.98 111.5,-19.75 102.96,-26.02 108.74,-29.98"/>
</g>
</g>
</svg>
