<?xml version="1.0" encoding="UTF-8" standalone="no"?>
<!DOCTYPE svg PUBLIC "-//W3C//DTD SVG 1.1//EN"
 "http://www.w3.org/Graphics/SVG/1.1/DTD/svg11.dtd">
<!-- Generated by graphviz version 2.50.0 (0)
 -->
<!-- Title: /home/tomek/trash/battle&#45;city/src/lib/core&#45;lib/SimplePublisher.cpp Pages: 1 -->
<svg width="616pt" height="162pt"
 viewBox="0.00 0.00 615.50 162.00" xmlns="http://www.w3.org/2000/svg" xmlns:xlink="http://www.w3.org/1999/xlink">
<g id="graph0" class="graph" transform="scale(1 1) rotate(0) translate(4 158)">
<title>/home/tomek/trash/battle&#45;city/src/lib/core&#45;lib/SimplePublisher.cpp</title>
<!-- Node1 -->
<g id="node1" class="node">
<title>Node1</title>
<g id="a_node1"><a xlink:title=" ">
<polygon fill="#bfbfbf" stroke="black" points="123.5,-112.5 123.5,-153.5 264.5,-153.5 264.5,-112.5 123.5,-112.5"/>
<text text-anchor="start" x="131.5" y="-141.5" font-family="Helvetica,sans-Serif" font-size="10.00">/home/tomek/trash/battle</text>
<text text-anchor="start" x="131.5" y="-130.5" font-family="Helvetica,sans-Serif" font-size="10.00">&#45;city/src/lib/core&#45;lib</text>
<text text-anchor="middle" x="194" y="-119.5" font-family="Helvetica,sans-Serif" font-size="10.00">/SimplePublisher.cpp</text>
</a>
</g>
</g>
<!-- Node2 -->
<g id="node2" class="node">
<title>Node2</title>
<g id="a_node2"><a xlink:title=" ">
<polygon fill="none" stroke="#bfbfbf" points="0,-56.5 0,-75.5 64,-75.5 64,-56.5 0,-56.5"/>
<text text-anchor="middle" x="32" y="-63.5" font-family="Helvetica,sans-Serif" font-size="10.00">algorithm</text>
</a>
</g>
</g>
<!-- Node1&#45;&gt;Node2 -->
<g id="edge1" class="edge">
<title>Node1&#45;&gt;Node2</title>
<path fill="none" stroke="midnightblue" d="M145.39,-112.5C118.65,-101.77 86.26,-88.77 62.95,-79.42"/>
<polygon fill="midnightblue" stroke="midnightblue" points="64.15,-76.13 53.56,-75.65 61.54,-82.62 64.15,-76.13"/>
</g>
<!-- Node3 -->
<g id="node3" class="node">
<title>Node3</title>
<g id="a_node3"><a xlink:title=" ">
<polygon fill="none" stroke="#bfbfbf" points="170.5,-0.5 170.5,-19.5 217.5,-19.5 217.5,-0.5 170.5,-0.5"/>
<text text-anchor="middle" x="194" y="-7.5" font-family="Helvetica,sans-Serif" font-size="10.00">vector</text>
</a>
</g>
</g>
<!-- Node1&#45;&gt;Node3 -->
<g id="edge2" class="edge">
<title>Node1&#45;&gt;Node3</title>
<path fill="none" stroke="midnightblue" d="M147.14,-112.46C121.5,-98.71 97.46,-78.75 111,-56 121.75,-37.94 142.56,-26.68 160.66,-19.94"/>
<polygon fill="midnightblue" stroke="midnightblue" points="162,-23.18 170.35,-16.65 159.75,-16.55 162,-23.18"/>
</g>
<!-- Node4 -->
<g id="node4" class="node">
<title>Node4</title>
<g id="a_node4"><a xlink:href="$_simple_publisher_8h.html" xlink:title=" ">
<polygon fill="none" stroke="black" points="286,-56.5 286,-75.5 428,-75.5 428,-56.5 286,-56.5"/>
<text text-anchor="middle" x="357" y="-63.5" font-family="Helvetica,sans-Serif" font-size="10.00">include/SimplePublisher.h</text>
</a>
</g>
</g>
<!-- Node1&#45;&gt;Node4 -->
<g id="edge3" class="edge">
<title>Node1&#45;&gt;Node4</title>
<path fill="none" stroke="midnightblue" d="M242.91,-112.5C269.82,-101.77 302.41,-88.77 325.86,-79.42"/>
<polygon fill="midnightblue" stroke="midnightblue" points="327.31,-82.61 335.3,-75.65 324.72,-76.11 327.31,-82.61"/>
</g>
<!-- Node6 -->
<g id="node6" class="node">
<title>Node6</title>
<g id="a_node6"><a xlink:href="$_simple_subscriber_8h.html" xlink:title=" ">
<polygon fill="none" stroke="black" points="120,-56.5 120,-75.5 268,-75.5 268,-56.5 120,-56.5"/>
<text text-anchor="middle" x="194" y="-63.5" font-family="Helvetica,sans-Serif" font-size="10.00">include/SimpleSubscriber.h</text>
</a>
</g>
</g>
<!-- Node1&#45;&gt;Node6 -->
<g id="edge6" class="edge">
<title>Node1&#45;&gt;Node6</title>
<path fill="none" stroke="midnightblue" d="M194,-112.5C194,-104.07 194,-94.24 194,-85.87"/>
<polygon fill="midnightblue" stroke="midnightblue" points="197.5,-85.65 194,-75.65 190.5,-85.65 197.5,-85.65"/>
</g>
<!-- Node7 -->
<g id="node7" class="node">
<title>Node7</title>
<g id="a_node7"><a xlink:href="$_observer_exceptions_8h.html" xlink:title=" ">
<polygon fill="none" stroke="black" points="446.5,-56.5 446.5,-75.5 607.5,-75.5 607.5,-56.5 446.5,-56.5"/>
<text text-anchor="middle" x="527" y="-63.5" font-family="Helvetica,sans-Serif" font-size="10.00">include/ObserverExceptions.h</text>
</a>
</g>
</g>
<!-- Node1&#45;&gt;Node7 -->
<g id="edge9" class="edge">
<title>Node1&#45;&gt;Node7</title>
<path fill="none" stroke="midnightblue" d="M264.62,-118.22C326.94,-106.05 416.43,-88.58 473.13,-77.52"/>
<polygon fill="midnightblue" stroke="midnightblue" points="473.83,-80.94 482.97,-75.59 472.49,-74.07 473.83,-80.94"/>
</g>
<!-- Node4&#45;&gt;Node3 -->
<g id="edge5" class="edge">
<title>Node4&#45;&gt;Node3</title>
<path fill="none" stroke="midnightblue" d="M331.17,-56.44C303.11,-47.15 258.17,-32.26 227.43,-22.07"/>
<polygon fill="midnightblue" stroke="midnightblue" points="228.18,-18.64 217.59,-18.82 225.98,-25.28 228.18,-18.64"/>
</g>
<!-- Node5 -->
<g id="node5" class="node">
<title>Node5</title>
<g id="a_node5"><a xlink:title=" ">
<polygon fill="none" stroke="#bfbfbf" points="282,-0.5 282,-19.5 340,-19.5 340,-0.5 282,-0.5"/>
<text text-anchor="middle" x="311" y="-7.5" font-family="Helvetica,sans-Serif" font-size="10.00">memory</text>
</a>
</g>
</g>
<!-- Node4&#45;&gt;Node5 -->
<g id="edge4" class="edge">
<title>Node4&#45;&gt;Node5</title>
<path fill="none" stroke="midnightblue" d="M349.4,-56.08C342.77,-48.3 332.98,-36.8 324.94,-27.37"/>
<polygon fill="midnightblue" stroke="midnightblue" points="327.6,-25.09 318.45,-19.75 322.27,-29.63 327.6,-25.09"/>
</g>
<!-- Node6&#45;&gt;Node3 -->
<g id="edge7" class="edge">
<title>Node6&#45;&gt;Node3</title>
<path fill="none" stroke="midnightblue" d="M194,-56.08C194,-49.01 194,-38.86 194,-29.99"/>
<polygon fill="midnightblue" stroke="midnightblue" points="197.5,-29.75 194,-19.75 190.5,-29.75 197.5,-29.75"/>
</g>
<!-- Node6&#45;&gt;Node5 -->
<g id="edge8" class="edge">
<title>Node6&#45;&gt;Node5</title>
<path fill="none" stroke="midnightblue" d="M212.54,-56.44C231.62,-47.64 261.57,-33.81 283.44,-23.72"/>
<polygon fill="midnightblue" stroke="midnightblue" points="284.93,-26.88 292.55,-19.52 282,-20.53 284.93,-26.88"/>
</g>
<!-- Node8 -->
<g id="node8" class="node">
<title>Node8</title>
<g id="a_node8"><a xlink:title=" ">
<polygon fill="none" stroke="#bfbfbf" points="457.5,-0.5 457.5,-19.5 522.5,-19.5 522.5,-0.5 457.5,-0.5"/>
<text text-anchor="middle" x="490" y="-7.5" font-family="Helvetica,sans-Serif" font-size="10.00">exception</text>
</a>
</g>
</g>
<!-- Node7&#45;&gt;Node8 -->
<g id="edge10" class="edge">
<title>Node7&#45;&gt;Node8</title>
<path fill="none" stroke="midnightblue" d="M520.89,-56.08C515.72,-48.53 508.15,-37.49 501.81,-28.23"/>
<polygon fill="midnightblue" stroke="midnightblue" points="504.54,-26.02 496,-19.75 498.76,-29.98 504.54,-26.02"/>
</g>
<!-- Node9 -->
<g id="node9" class="node">
<title>Node9</title>
<g id="a_node9"><a xlink:title=" ">
<polygon fill="none" stroke="#bfbfbf" points="541,-0.5 541,-19.5 585,-19.5 585,-0.5 541,-0.5"/>
<text text-anchor="middle" x="563" y="-7.5" font-family="Helvetica,sans-Serif" font-size="10.00">string</text>
</a>
</g>
</g>
<!-- Node7&#45;&gt;Node9 -->
<g id="edge11" class="edge">
<title>Node7&#45;&gt;Node9</title>
<path fill="none" stroke="midnightblue" d="M532.94,-56.08C537.98,-48.53 545.34,-37.49 551.51,-28.23"/>
<polygon fill="midnightblue" stroke="midnightblue" points="554.53,-30.01 557.17,-19.75 548.71,-26.13 554.53,-30.01"/>
</g>
</g>
</svg>
