<?xml version="1.0" encoding="UTF-8" standalone="no"?>
<!DOCTYPE svg PUBLIC "-//W3C//DTD SVG 1.1//EN"
 "http://www.w3.org/Graphics/SVG/1.1/DTD/svg11.dtd">
<!-- Generated by graphviz version 2.50.0 (0)
 -->
<!-- Title: /home/tomek/trash/battle&#45;city/src/lib/core&#45;lib/include/SingletonExceptions.h Pages: 1 -->
<svg width="519pt" height="128pt"
 viewBox="0.00 0.00 518.50 128.00" xmlns="http://www.w3.org/2000/svg" xmlns:xlink="http://www.w3.org/1999/xlink">
<g id="graph0" class="graph" transform="scale(1 1) rotate(0) translate(4 124)">
<title>/home/tomek/trash/battle&#45;city/src/lib/core&#45;lib/include/SingletonExceptions.h</title>
<!-- Node1 -->
<g id="node1" class="node">
<title>Node1</title>
<g id="a_node1"><a xlink:title=" ">
<polygon fill="#bfbfbf" stroke="black" points="198,-78.5 198,-119.5 364,-119.5 364,-78.5 198,-78.5"/>
<text text-anchor="start" x="206" y="-107.5" font-family="Helvetica,sans-Serif" font-size="10.00">/home/tomek/trash/battle</text>
<text text-anchor="start" x="206" y="-96.5" font-family="Helvetica,sans-Serif" font-size="10.00">&#45;city/src/lib/core&#45;lib</text>
<text text-anchor="middle" x="281" y="-85.5" font-family="Helvetica,sans-Serif" font-size="10.00">/include/SingletonExceptions.h</text>
</a>
</g>
</g>
<!-- Node2 -->
<g id="node2" class="node">
<title>Node2</title>
<g id="a_node2"><a xlink:href="$_bot_controller_8cpp.html" xlink:title=" ">
<polygon fill="none" stroke="black" points="0,-6 0,-36 192,-36 192,-6 0,-6"/>
<text text-anchor="start" x="8" y="-24" font-family="Helvetica,sans-Serif" font-size="10.00">/home/tomek/trash/battle</text>
<text text-anchor="middle" x="96" y="-13" font-family="Helvetica,sans-Serif" font-size="10.00">&#45;city/src/lib/bot&#45;lib/BotController.cpp</text>
</a>
</g>
</g>
<!-- Node1&#45;&gt;Node2 -->
<g id="edge1" class="edge">
<title>Node1&#45;&gt;Node2</title>
<path fill="none" stroke="midnightblue" d="M224.06,-74.61C193.41,-62.02 156.61,-46.9 130.34,-36.11"/>
<polygon fill="midnightblue" stroke="midnightblue" points="222.78,-77.87 233.36,-78.43 225.44,-71.39 222.78,-77.87"/>
</g>
<!-- Node3 -->
<g id="node3" class="node">
<title>Node3</title>
<g id="a_node3"><a xlink:href="$_clock_8cpp.html" xlink:title=" ">
<polygon fill="none" stroke="black" points="210.5,-0.5 210.5,-41.5 351.5,-41.5 351.5,-0.5 210.5,-0.5"/>
<text text-anchor="start" x="218.5" y="-29.5" font-family="Helvetica,sans-Serif" font-size="10.00">/home/tomek/trash/battle</text>
<text text-anchor="start" x="218.5" y="-18.5" font-family="Helvetica,sans-Serif" font-size="10.00">&#45;city/src/lib/core&#45;lib</text>
<text text-anchor="middle" x="281" y="-7.5" font-family="Helvetica,sans-Serif" font-size="10.00">/Clock.cpp</text>
</a>
</g>
</g>
<!-- Node1&#45;&gt;Node3 -->
<g id="edge2" class="edge">
<title>Node1&#45;&gt;Node3</title>
<path fill="none" stroke="midnightblue" d="M281,-68.3C281,-59.3 281,-49.65 281,-41.51"/>
<polygon fill="midnightblue" stroke="midnightblue" points="277.5,-68.43 281,-78.43 284.5,-68.43 277.5,-68.43"/>
</g>
<!-- Node4 -->
<g id="node4" class="node">
<title>Node4</title>
<g id="a_node4"><a xlink:href="$_singleton_exceptions_8cpp.html" xlink:title=" ">
<polygon fill="none" stroke="black" points="369.5,-0.5 369.5,-41.5 510.5,-41.5 510.5,-0.5 369.5,-0.5"/>
<text text-anchor="start" x="377.5" y="-29.5" font-family="Helvetica,sans-Serif" font-size="10.00">/home/tomek/trash/battle</text>
<text text-anchor="start" x="377.5" y="-18.5" font-family="Helvetica,sans-Serif" font-size="10.00">&#45;city/src/lib/core&#45;lib</text>
<text text-anchor="middle" x="440" y="-7.5" font-family="Helvetica,sans-Serif" font-size="10.00">/SingletonExceptions.cpp</text>
</a>
</g>
</g>
<!-- Node1&#45;&gt;Node4 -->
<g id="edge3" class="edge">
<title>Node1&#45;&gt;Node4</title>
<path fill="none" stroke="midnightblue" d="M331.11,-74.05C353.04,-63.57 378.44,-51.42 399.19,-41.51"/>
<polygon fill="midnightblue" stroke="midnightblue" points="329.46,-70.96 321.95,-78.43 332.48,-77.27 329.46,-70.96"/>
</g>
</g>
</svg>
