<?xml version="1.0" encoding="UTF-8" standalone="no"?>
<!DOCTYPE svg PUBLIC "-//W3C//DTD SVG 1.1//EN"
 "http://www.w3.org/Graphics/SVG/1.1/DTD/svg11.dtd">
<!-- Generated by graphviz version 2.43.0 (0)
 -->
<!-- Title: /home/tomek/CLionProjects/proi/proi&#45;projekt/src/graphic&#45;lib/include/StaticStates_dir/StaticGraphic.h Pages: 1 -->
<svg width="1364pt" height="743pt"
 viewBox="0.00 0.00 1364.00 743.00" xmlns="http://www.w3.org/2000/svg" xmlns:xlink="http://www.w3.org/1999/xlink">
<g id="graph0" class="graph" transform="scale(1 1) rotate(0) translate(4 739)">
<title>/home/tomek/CLionProjects/proi/proi&#45;projekt/src/graphic&#45;lib/include/StaticStates_dir/StaticGraphic.h</title>
<!-- Node1 -->
<g id="node1" class="node">
<title>Node1</title>
<g id="a_node1"><a xlink:title=" ">
<polygon fill="#bfbfbf" stroke="black" points="491.5,-682.5 491.5,-734.5 662.5,-734.5 662.5,-682.5 491.5,-682.5"/>
<text text-anchor="start" x="499.5" y="-722.5" font-family="Helvetica,sans-Serif" font-size="10.00">/home/tomek/CLionProjects</text>
<text text-anchor="start" x="499.5" y="-711.5" font-family="Helvetica,sans-Serif" font-size="10.00">/proi/proi&#45;projekt/src</text>
<text text-anchor="start" x="499.5" y="-700.5" font-family="Helvetica,sans-Serif" font-size="10.00">/graphic&#45;lib/include/StaticStates</text>
<text text-anchor="middle" x="577" y="-689.5" font-family="Helvetica,sans-Serif" font-size="10.00">_dir/StaticGraphic.h</text>
</a>
</g>
</g>
<!-- Node2 -->
<g id="node2" class="node">
<title>Node2</title>
<g id="a_node2"><a xlink:href="$_window_8h.html" xlink:title=" ">
<polygon fill="none" stroke="black" points="508.5,-626.5 508.5,-645.5 581.5,-645.5 581.5,-626.5 508.5,-626.5"/>
<text text-anchor="middle" x="545" y="-633.5" font-family="Helvetica,sans-Serif" font-size="10.00">../Window.h</text>
</a>
</g>
</g>
<!-- Node1&#45;&gt;Node2 -->
<g id="edge1" class="edge">
<title>Node1&#45;&gt;Node2</title>
<path fill="none" stroke="midnightblue" d="M565.63,-682.45C561.49,-673.33 556.9,-663.22 553.1,-654.85"/>
<polygon fill="midnightblue" stroke="midnightblue" points="556.27,-653.35 548.95,-645.7 549.89,-656.25 556.27,-653.35"/>
</g>
<!-- Node9 -->
<g id="node9" class="node">
<title>Node9</title>
<g id="a_node9"><a xlink:title=" ">
<polygon fill="none" stroke="#bfbfbf" points="1124.5,-565 1124.5,-584 1217.5,-584 1217.5,-565 1124.5,-565"/>
<text text-anchor="middle" x="1171" y="-572" font-family="Helvetica,sans-Serif" font-size="10.00">unordered_map</text>
</a>
</g>
</g>
<!-- Node1&#45;&gt;Node9 -->
<g id="edge72" class="edge">
<title>Node1&#45;&gt;Node9</title>
<path fill="none" stroke="midnightblue" d="M662.95,-689.01C768.38,-666.22 952.52,-626.07 1110,-590 1115.04,-588.84 1120.32,-587.62 1125.56,-586.39"/>
<polygon fill="midnightblue" stroke="midnightblue" points="1126.61,-589.74 1135.54,-584.03 1125,-582.92 1126.61,-589.74"/>
</g>
<!-- Node3 -->
<g id="node3" class="node">
<title>Node3</title>
<g id="a_node3"><a xlink:href="$_abstract_window_8h.html" xlink:title=" ">
<polygon fill="none" stroke="black" points="1086,-263 1086,-282 1190,-282 1190,-263 1086,-263"/>
<text text-anchor="middle" x="1138" y="-270" font-family="Helvetica,sans-Serif" font-size="10.00">AbstractWindow.h</text>
</a>
</g>
</g>
<!-- Node2&#45;&gt;Node3 -->
<g id="edge2" class="edge">
<title>Node2&#45;&gt;Node3</title>
<path fill="none" stroke="midnightblue" d="M581.58,-634.8C704.64,-633.16 1096,-619.65 1096,-514 1096,-514 1096,-514 1096,-389 1096,-352.36 1114.89,-312.91 1127.34,-290.91"/>
<polygon fill="midnightblue" stroke="midnightblue" points="1130.47,-292.49 1132.51,-282.09 1124.43,-288.95 1130.47,-292.49"/>
</g>
<!-- Node2&#45;&gt;Node9 -->
<g id="edge8" class="edge">
<title>Node2&#45;&gt;Node9</title>
<path fill="none" stroke="midnightblue" d="M581.58,-634.03C671.85,-631.23 912.2,-621.2 1110,-590 1116.28,-589.01 1122.87,-587.72 1129.3,-586.31"/>
<polygon fill="midnightblue" stroke="midnightblue" points="1130.25,-589.68 1139.21,-584.03 1128.68,-582.86 1130.25,-589.68"/>
</g>
<!-- Node10 -->
<g id="node10" class="node">
<title>Node10</title>
<g id="a_node10"><a xlink:href="$_entity_8h.html" xlink:title=" ">
<polygon fill="none" stroke="black" points="280,-56.5 280,-86.5 390,-86.5 390,-56.5 280,-56.5"/>
<text text-anchor="start" x="288" y="-74.5" font-family="Helvetica,sans-Serif" font-size="10.00">../../tank&#45;lib/include</text>
<text text-anchor="middle" x="335" y="-63.5" font-family="Helvetica,sans-Serif" font-size="10.00">/Entity.h</text>
</a>
</g>
</g>
<!-- Node2&#45;&gt;Node10 -->
<g id="edge9" class="edge">
<title>Node2&#45;&gt;Node10</title>
<path fill="none" stroke="midnightblue" d="M508.47,-633.91C423.21,-630.88 213.6,-620.46 151,-590 108.33,-569.24 76,-561.46 76,-514 76,-514 76,-514 76,-271.5 76,-227.3 96.72,-215.24 133,-190 185.03,-153.8 217.98,-188.74 271,-154 293.53,-139.24 311.59,-113.87 322.71,-95.35"/>
<polygon fill="midnightblue" stroke="midnightblue" points="325.78,-97.04 327.74,-86.63 319.71,-93.54 325.78,-97.04"/>
</g>
<!-- Node11 -->
<g id="node11" class="node">
<title>Node11</title>
<g id="a_node11"><a xlink:href="$_grid_8h.html" xlink:title=" ">
<polygon fill="none" stroke="black" points="108,-257.5 108,-287.5 224,-287.5 224,-257.5 108,-257.5"/>
<text text-anchor="start" x="116" y="-275.5" font-family="Helvetica,sans-Serif" font-size="10.00">../../board&#45;lib/include</text>
<text text-anchor="middle" x="166" y="-264.5" font-family="Helvetica,sans-Serif" font-size="10.00">/Grid.h</text>
</a>
</g>
</g>
<!-- Node2&#45;&gt;Node11 -->
<g id="edge10" class="edge">
<title>Node2&#45;&gt;Node11</title>
<path fill="none" stroke="midnightblue" d="M508.44,-635.4C425.41,-635.56 225.96,-631.49 176,-590 148.75,-567.37 152,-549.42 152,-514 152,-514 152,-514 152,-389 152,-357.26 157.27,-320.98 161.35,-297.68"/>
<polygon fill="midnightblue" stroke="midnightblue" points="164.82,-298.12 163.17,-287.66 157.94,-296.87 164.82,-298.12"/>
</g>
<!-- Node14 -->
<g id="node14" class="node">
<title>Node14</title>
<g id="a_node14"><a xlink:href="$_tank_8h.html" xlink:title=" ">
<polygon fill="none" stroke="black" points="368,-190.5 368,-220.5 478,-220.5 478,-190.5 368,-190.5"/>
<text text-anchor="start" x="376" y="-208.5" font-family="Helvetica,sans-Serif" font-size="10.00">../../tank&#45;lib/include</text>
<text text-anchor="middle" x="423" y="-197.5" font-family="Helvetica,sans-Serif" font-size="10.00">/Tank.h</text>
</a>
</g>
</g>
<!-- Node2&#45;&gt;Node14 -->
<g id="edge24" class="edge">
<title>Node2&#45;&gt;Node14</title>
<path fill="none" stroke="midnightblue" d="M508.23,-635.72C430.59,-635.14 257,-621.79 257,-514 257,-514 257,-514 257,-333 257,-298.18 252.46,-282.65 276,-257 297.05,-234.06 328.99,-221.54 357.73,-214.7"/>
<polygon fill="midnightblue" stroke="midnightblue" points="358.72,-218.07 367.74,-212.52 357.22,-211.23 358.72,-218.07"/>
</g>
<!-- Node18 -->
<g id="node18" class="node">
<title>Node18</title>
<g id="a_node18"><a xlink:href="$_bullet_8h.html" xlink:title=" ">
<polygon fill="none" stroke="black" points="152,-123.5 152,-153.5 262,-153.5 262,-123.5 152,-123.5"/>
<text text-anchor="start" x="160" y="-141.5" font-family="Helvetica,sans-Serif" font-size="10.00">../../tank&#45;lib/include</text>
<text text-anchor="middle" x="207" y="-130.5" font-family="Helvetica,sans-Serif" font-size="10.00">/Bullet.h</text>
</a>
</g>
</g>
<!-- Node2&#45;&gt;Node18 -->
<g id="edge25" class="edge">
<title>Node2&#45;&gt;Node18</title>
<path fill="none" stroke="midnightblue" d="M508.05,-635.8C453.02,-635.53 347.59,-629.31 269,-590 225.43,-568.2 190,-562.72 190,-514 190,-514 190,-514 190,-450.5 190,-355.46 76.89,-349.43 99,-257 106.77,-224.52 110.96,-215.09 133,-190 143.68,-177.85 157.89,-167.23 171.01,-158.92"/>
<polygon fill="midnightblue" stroke="midnightblue" points="173.13,-161.72 179.85,-153.53 169.49,-155.74 173.13,-161.72"/>
</g>
<!-- Node20 -->
<g id="node20" class="node">
<title>Node20</title>
<g id="a_node20"><a xlink:href="$_game_state_8h.html" xlink:title=" ">
<polygon fill="none" stroke="black" points="775,-559.5 775,-589.5 891,-589.5 891,-559.5 775,-559.5"/>
<text text-anchor="start" x="783" y="-577.5" font-family="Helvetica,sans-Serif" font-size="10.00">../../game&#45;lib/include</text>
<text text-anchor="middle" x="833" y="-566.5" font-family="Helvetica,sans-Serif" font-size="10.00">/GameState.h</text>
</a>
</g>
</g>
<!-- Node2&#45;&gt;Node20 -->
<g id="edge30" class="edge">
<title>Node2&#45;&gt;Node20</title>
<path fill="none" stroke="midnightblue" d="M581.77,-627.4C627.76,-617.9 707.42,-601.44 764.72,-589.61"/>
<polygon fill="midnightblue" stroke="midnightblue" points="765.7,-592.98 774.79,-587.53 764.29,-586.12 765.7,-592.98"/>
</g>
<!-- Node4 -->
<g id="node4" class="node">
<title>Node4</title>
<g id="a_node4"><a xlink:title=" ">
<polygon fill="none" stroke="#bfbfbf" points="1252,-196 1252,-215 1356,-215 1356,-196 1252,-196"/>
<text text-anchor="middle" x="1304" y="-203" font-family="Helvetica,sans-Serif" font-size="10.00">SFML/System.hpp</text>
</a>
</g>
</g>
<!-- Node3&#45;&gt;Node4 -->
<g id="edge3" class="edge">
<title>Node3&#45;&gt;Node4</title>
<path fill="none" stroke="midnightblue" d="M1160.04,-262.87C1188.9,-251.57 1239.65,-231.7 1272.54,-218.82"/>
<polygon fill="midnightblue" stroke="midnightblue" points="1274.09,-221.97 1282.13,-215.06 1271.54,-215.45 1274.09,-221.97"/>
</g>
<!-- Node5 -->
<g id="node5" class="node">
<title>Node5</title>
<g id="a_node5"><a xlink:title=" ">
<polygon fill="none" stroke="#bfbfbf" points="1124,-196 1124,-215 1234,-215 1234,-196 1124,-196"/>
<text text-anchor="middle" x="1179" y="-203" font-family="Helvetica,sans-Serif" font-size="10.00">SFML/Graphics.hpp</text>
</a>
</g>
</g>
<!-- Node3&#45;&gt;Node5 -->
<g id="edge4" class="edge">
<title>Node3&#45;&gt;Node5</title>
<path fill="none" stroke="midnightblue" d="M1143.53,-262.73C1149.8,-252.79 1160.18,-236.34 1168.09,-223.79"/>
<polygon fill="midnightblue" stroke="midnightblue" points="1171.18,-225.45 1173.56,-215.13 1165.26,-221.72 1171.18,-225.45"/>
</g>
<!-- Node6 -->
<g id="node6" class="node">
<title>Node6</title>
<g id="a_node6"><a xlink:title=" ">
<polygon fill="none" stroke="#bfbfbf" points="894,-196 894,-215 954,-215 954,-196 894,-196"/>
<text text-anchor="middle" x="924" y="-203" font-family="Helvetica,sans-Serif" font-size="10.00">iostream</text>
</a>
</g>
</g>
<!-- Node3&#45;&gt;Node6 -->
<g id="edge5" class="edge">
<title>Node3&#45;&gt;Node6</title>
<path fill="none" stroke="midnightblue" d="M1108.13,-262.92C1074.12,-253.08 1016.92,-236.32 968,-221 965.1,-220.09 962.1,-219.14 959.09,-218.17"/>
<polygon fill="midnightblue" stroke="midnightblue" points="960.14,-214.83 949.55,-215.06 957.98,-221.49 960.14,-214.83"/>
</g>
<!-- Node7 -->
<g id="node7" class="node">
<title>Node7</title>
<g id="a_node7"><a xlink:title=" ">
<polygon fill="none" stroke="#bfbfbf" points="142.5,-0.5 142.5,-19.5 189.5,-19.5 189.5,-0.5 142.5,-0.5"/>
<text text-anchor="middle" x="166" y="-7.5" font-family="Helvetica,sans-Serif" font-size="10.00">vector</text>
</a>
</g>
</g>
<!-- Node3&#45;&gt;Node7 -->
<g id="edge6" class="edge">
<title>Node3&#45;&gt;Node7</title>
<path fill="none" stroke="midnightblue" d="M1121.42,-262.89C1090.72,-247.13 1022.68,-213.17 963,-190 777.97,-118.17 731.01,-97.9 537,-56 414.45,-29.53 265.52,-17.38 199.86,-13.01"/>
<polygon fill="midnightblue" stroke="midnightblue" points="199.89,-9.51 189.69,-12.36 199.44,-16.49 199.89,-9.51"/>
</g>
<!-- Node8 -->
<g id="node8" class="node">
<title>Node8</title>
<g id="a_node8"><a xlink:title=" ">
<polygon fill="none" stroke="#bfbfbf" points="761,-0.5 761,-19.5 819,-19.5 819,-0.5 761,-0.5"/>
<text text-anchor="middle" x="790" y="-7.5" font-family="Helvetica,sans-Serif" font-size="10.00">memory</text>
</a>
</g>
</g>
<!-- Node3&#45;&gt;Node8 -->
<g id="edge7" class="edge">
<title>Node3&#45;&gt;Node8</title>
<path fill="none" stroke="midnightblue" d="M1133.45,-262.75C1128.43,-252.83 1120.35,-236.07 1115,-221 1089.64,-149.58 1128.11,-106.93 1072,-56 1037.08,-24.31 898.34,-14.87 829.36,-12.11"/>
<polygon fill="midnightblue" stroke="midnightblue" points="829.43,-8.61 819.31,-11.73 829.17,-15.6 829.43,-8.61"/>
</g>
<!-- Node11&#45;&gt;Node7 -->
<g id="edge12" class="edge">
<title>Node11&#45;&gt;Node7</title>
<path fill="none" stroke="midnightblue" d="M155.48,-257.48C148.44,-247.64 139.35,-233.98 133,-221 119.17,-192.72 115.18,-185.05 110,-154 102.83,-111.04 91.17,-95.28 110,-56 116.25,-42.95 128.34,-32.49 139.68,-24.95"/>
<polygon fill="midnightblue" stroke="midnightblue" points="141.81,-27.75 148.5,-19.54 138.15,-21.79 141.81,-27.75"/>
</g>
<!-- Node12 -->
<g id="node12" class="node">
<title>Node12</title>
<g id="a_node12"><a xlink:title=" ">
<polygon fill="none" stroke="#bfbfbf" points="246.5,-196 246.5,-215 311.5,-215 311.5,-196 246.5,-196"/>
<text text-anchor="middle" x="279" y="-203" font-family="Helvetica,sans-Serif" font-size="10.00">exception</text>
</a>
</g>
</g>
<!-- Node11&#45;&gt;Node12 -->
<g id="edge11" class="edge">
<title>Node11&#45;&gt;Node12</title>
<path fill="none" stroke="midnightblue" d="M190.52,-257.4C209.73,-246.34 236.3,-231.06 255.3,-220.13"/>
<polygon fill="midnightblue" stroke="midnightblue" points="257.29,-223.03 264.21,-215.01 253.8,-216.96 257.29,-223.03"/>
</g>
<!-- Node13 -->
<g id="node13" class="node">
<title>Node13</title>
<g id="a_node13"><a xlink:title=" ">
<polygon fill="none" stroke="#bfbfbf" points="142.5,-196 142.5,-215 189.5,-215 189.5,-196 142.5,-196"/>
<text text-anchor="middle" x="166" y="-203" font-family="Helvetica,sans-Serif" font-size="10.00">queue</text>
</a>
</g>
</g>
<!-- Node11&#45;&gt;Node13 -->
<g id="edge13" class="edge">
<title>Node11&#45;&gt;Node13</title>
<path fill="none" stroke="midnightblue" d="M166,-257.4C166,-248.06 166,-235.71 166,-225.52"/>
<polygon fill="midnightblue" stroke="midnightblue" points="169.5,-225.19 166,-215.19 162.5,-225.19 169.5,-225.19"/>
</g>
<!-- Node11&#45;&gt;Node14 -->
<g id="edge14" class="edge">
<title>Node11&#45;&gt;Node14</title>
<path fill="none" stroke="midnightblue" d="M221.45,-257.48C261.48,-247.35 315.66,-233.65 357.77,-223"/>
<polygon fill="midnightblue" stroke="midnightblue" points="358.81,-226.34 367.65,-220.5 357.1,-219.56 358.81,-226.34"/>
</g>
<!-- Node14&#45;&gt;Node8 -->
<g id="edge15" class="edge">
<title>Node14&#45;&gt;Node8</title>
<path fill="none" stroke="midnightblue" d="M454.15,-190.45C474.46,-180.92 501.31,-167.62 524,-154 588.5,-115.29 595.2,-90.59 662,-56 690.53,-41.23 724.99,-29.42 750.97,-21.62"/>
<polygon fill="midnightblue" stroke="midnightblue" points="752.22,-24.9 760.83,-18.72 750.25,-18.18 752.22,-24.9"/>
</g>
<!-- Node14&#45;&gt;Node10 -->
<g id="edge20" class="edge">
<title>Node14&#45;&gt;Node10</title>
<path fill="none" stroke="midnightblue" d="M411.65,-190.18C403.9,-180.21 393.52,-166.52 385,-154 371.88,-134.73 358.11,-112.07 348.35,-95.55"/>
<polygon fill="midnightblue" stroke="midnightblue" points="351.18,-93.45 343.1,-86.6 345.14,-96.99 351.18,-93.45"/>
</g>
<!-- Node15 -->
<g id="node15" class="node">
<title>Node15</title>
<g id="a_node15"><a xlink:title=" ">
<polygon fill="none" stroke="#bfbfbf" points="592,-129 592,-148 648,-148 648,-129 592,-129"/>
<text text-anchor="middle" x="620" y="-136" font-family="Helvetica,sans-Serif" font-size="10.00">optional</text>
</a>
</g>
</g>
<!-- Node14&#45;&gt;Node15 -->
<g id="edge16" class="edge">
<title>Node14&#45;&gt;Node15</title>
<path fill="none" stroke="midnightblue" d="M466.83,-190.45C497.91,-180.43 540.57,-166.56 578,-154 580.58,-153.13 583.26,-152.23 585.94,-151.31"/>
<polygon fill="midnightblue" stroke="midnightblue" points="587.27,-154.56 595.59,-148.01 585,-147.94 587.27,-154.56"/>
</g>
<!-- Node16 -->
<g id="node16" class="node">
<title>Node16</title>
<g id="a_node16"><a xlink:href="$_simple_subscriber_8h.html" xlink:title=" ">
<polygon fill="none" stroke="black" points="415.5,-56.5 415.5,-86.5 528.5,-86.5 528.5,-56.5 415.5,-56.5"/>
<text text-anchor="start" x="423.5" y="-74.5" font-family="Helvetica,sans-Serif" font-size="10.00">../../core&#45;lib/include</text>
<text text-anchor="middle" x="472" y="-63.5" font-family="Helvetica,sans-Serif" font-size="10.00">/SimpleSubscriber.h</text>
</a>
</g>
</g>
<!-- Node14&#45;&gt;Node16 -->
<g id="edge17" class="edge">
<title>Node14&#45;&gt;Node16</title>
<path fill="none" stroke="midnightblue" d="M463.49,-190.5C480.06,-182.54 497.53,-170.74 507,-154 517.85,-134.82 505.64,-111.63 492.76,-94.89"/>
<polygon fill="midnightblue" stroke="midnightblue" points="495.14,-92.28 486.08,-86.79 489.74,-96.73 495.14,-92.28"/>
</g>
<!-- Node17 -->
<g id="node17" class="node">
<title>Node17</title>
<g id="a_node17"><a xlink:href="$_bot_8h.html" xlink:title=" ">
<polygon fill="none" stroke="black" points="394,-123.5 394,-153.5 498,-153.5 498,-123.5 394,-123.5"/>
<text text-anchor="start" x="402" y="-141.5" font-family="Helvetica,sans-Serif" font-size="10.00">../../bot&#45;lib/include</text>
<text text-anchor="middle" x="446" y="-130.5" font-family="Helvetica,sans-Serif" font-size="10.00">/Bot.h</text>
</a>
</g>
</g>
<!-- Node14&#45;&gt;Node17 -->
<g id="edge21" class="edge">
<title>Node14&#45;&gt;Node17</title>
<path fill="none" stroke="midnightblue" d="M427.99,-190.4C430.79,-182.47 434.37,-172.38 437.59,-163.27"/>
<polygon fill="midnightblue" stroke="midnightblue" points="440.98,-164.17 441.02,-153.58 434.38,-161.84 440.98,-164.17"/>
</g>
<!-- Node16&#45;&gt;Node7 -->
<g id="edge18" class="edge">
<title>Node16&#45;&gt;Node7</title>
<path fill="none" stroke="midnightblue" d="M415.41,-59.23C409.87,-58.13 404.33,-57.04 399,-56 328.11,-42.11 245.02,-26.14 199.7,-17.45"/>
<polygon fill="midnightblue" stroke="midnightblue" points="200.3,-14 189.82,-15.56 198.99,-20.88 200.3,-14"/>
</g>
<!-- Node16&#45;&gt;Node8 -->
<g id="edge19" class="edge">
<title>Node16&#45;&gt;Node8</title>
<path fill="none" stroke="midnightblue" d="M528.85,-59.86C592.8,-47.9 694.96,-28.78 750.66,-18.36"/>
<polygon fill="midnightblue" stroke="midnightblue" points="751.64,-21.74 760.83,-16.46 750.36,-14.86 751.64,-21.74"/>
</g>
<!-- Node17&#45;&gt;Node10 -->
<g id="edge22" class="edge">
<title>Node17&#45;&gt;Node10</title>
<path fill="none" stroke="midnightblue" d="M421.91,-123.4C406.06,-114.11 385.11,-101.84 367.74,-91.67"/>
<polygon fill="midnightblue" stroke="midnightblue" points="369.44,-88.61 359.04,-86.58 365.9,-94.65 369.44,-88.61"/>
</g>
<!-- Node17&#45;&gt;Node16 -->
<g id="edge23" class="edge">
<title>Node17&#45;&gt;Node16</title>
<path fill="none" stroke="midnightblue" d="M451.64,-123.4C454.84,-115.39 458.94,-105.16 462.61,-95.98"/>
<polygon fill="midnightblue" stroke="midnightblue" points="465.91,-97.16 466.37,-86.58 459.41,-94.56 465.91,-97.16"/>
</g>
<!-- Node18&#45;&gt;Node10 -->
<g id="edge29" class="edge">
<title>Node18&#45;&gt;Node10</title>
<path fill="none" stroke="midnightblue" d="M234.77,-123.4C253.39,-113.94 278.11,-101.39 298.34,-91.12"/>
<polygon fill="midnightblue" stroke="midnightblue" points="299.95,-94.23 307.28,-86.58 296.78,-87.98 299.95,-94.23"/>
</g>
<!-- Node19 -->
<g id="node19" class="node">
<title>Node19</title>
<g id="a_node19"><a xlink:href="$_simple_publisher_8h.html" xlink:title=" ">
<polygon fill="none" stroke="black" points="152,-56.5 152,-86.5 262,-86.5 262,-56.5 152,-56.5"/>
<text text-anchor="start" x="160" y="-74.5" font-family="Helvetica,sans-Serif" font-size="10.00">../../core&#45;lib/include</text>
<text text-anchor="middle" x="207" y="-63.5" font-family="Helvetica,sans-Serif" font-size="10.00">/SimplePublisher.h</text>
</a>
</g>
</g>
<!-- Node18&#45;&gt;Node19 -->
<g id="edge26" class="edge">
<title>Node18&#45;&gt;Node19</title>
<path fill="none" stroke="midnightblue" d="M207,-123.4C207,-115.64 207,-105.81 207,-96.86"/>
<polygon fill="midnightblue" stroke="midnightblue" points="210.5,-96.58 207,-86.58 203.5,-96.58 210.5,-96.58"/>
</g>
<!-- Node19&#45;&gt;Node7 -->
<g id="edge28" class="edge">
<title>Node19&#45;&gt;Node7</title>
<path fill="none" stroke="midnightblue" d="M197.28,-56.4C191.45,-47.93 183.98,-37.1 177.81,-28.14"/>
<polygon fill="midnightblue" stroke="midnightblue" points="180.52,-25.91 171.97,-19.66 174.76,-29.88 180.52,-25.91"/>
</g>
<!-- Node19&#45;&gt;Node8 -->
<g id="edge27" class="edge">
<title>Node19&#45;&gt;Node8</title>
<path fill="none" stroke="midnightblue" d="M262.07,-57.52C265.08,-56.97 268.07,-56.46 271,-56 448.79,-28.28 663.7,-16.47 750.65,-12.58"/>
<polygon fill="midnightblue" stroke="midnightblue" points="751.02,-16.07 760.85,-12.13 750.71,-9.07 751.02,-16.07"/>
</g>
<!-- Node20&#45;&gt;Node8 -->
<g id="edge31" class="edge">
<title>Node20&#45;&gt;Node8</title>
<path fill="none" stroke="midnightblue" d="M891.05,-565.94C944.37,-557.85 1018.16,-543.37 1039,-523 1062.21,-500.32 1058,-484.95 1058,-452.5 1058,-452.5 1058,-452.5 1058,-137.5 1058,-37.71 904.15,-16.51 829.59,-12.1"/>
<polygon fill="midnightblue" stroke="midnightblue" points="829.36,-8.59 819.19,-11.57 829,-15.58 829.36,-8.59"/>
</g>
<!-- Node21 -->
<g id="node21" class="node">
<title>Node21</title>
<g id="a_node21"><a xlink:href="$_active_event_handler_8h.html" xlink:title=" ">
<polygon fill="none" stroke="black" points="484,-503.5 484,-522.5 606,-522.5 606,-503.5 484,-503.5"/>
<text text-anchor="middle" x="545" y="-510.5" font-family="Helvetica,sans-Serif" font-size="10.00">ActiveEventHandler.h</text>
</a>
</g>
</g>
<!-- Node20&#45;&gt;Node21 -->
<g id="edge32" class="edge">
<title>Node20&#45;&gt;Node21</title>
<path fill="none" stroke="midnightblue" d="M774.72,-561.46C722.44,-550.66 646.45,-534.96 596.4,-524.62"/>
<polygon fill="midnightblue" stroke="midnightblue" points="596.94,-521.16 586.44,-522.56 595.52,-528.01 596.94,-521.16"/>
</g>
<!-- Node32 -->
<g id="node32" class="node">
<title>Node32</title>
<g id="a_node32"><a xlink:href="$_menu_event_handler_8h.html" xlink:title=" ">
<polygon fill="none" stroke="black" points="774,-503.5 774,-522.5 892,-522.5 892,-503.5 774,-503.5"/>
<text text-anchor="middle" x="833" y="-510.5" font-family="Helvetica,sans-Serif" font-size="10.00">MenuEventHandler.h</text>
</a>
</g>
</g>
<!-- Node20&#45;&gt;Node32 -->
<g id="edge61" class="edge">
<title>Node20&#45;&gt;Node32</title>
<path fill="none" stroke="midnightblue" d="M827.16,-559.4C826.13,-551.38 825.97,-541.23 826.69,-532.57"/>
<polygon fill="midnightblue" stroke="midnightblue" points="830.16,-533.04 828.07,-522.66 823.23,-532.08 830.16,-533.04"/>
</g>
<!-- Node33 -->
<g id="node33" class="node">
<title>Node33</title>
<g id="a_node33"><a xlink:href="$_pause_event_handler_8h.html" xlink:title=" ">
<polygon fill="none" stroke="black" points="910.5,-503.5 910.5,-522.5 1029.5,-522.5 1029.5,-503.5 910.5,-503.5"/>
<text text-anchor="middle" x="970" y="-510.5" font-family="Helvetica,sans-Serif" font-size="10.00">PauseEventHandler.h</text>
</a>
</g>
</g>
<!-- Node20&#45;&gt;Node33 -->
<g id="edge65" class="edge">
<title>Node20&#45;&gt;Node33</title>
<path fill="none" stroke="midnightblue" d="M859.63,-559.4C881.43,-549.37 912.23,-536.03 935.83,-526.4"/>
<polygon fill="midnightblue" stroke="midnightblue" points="937.17,-529.64 945.14,-522.66 934.55,-523.15 937.17,-529.64"/>
</g>
<!-- Node34 -->
<g id="node34" class="node">
<title>Node34</title>
<g id="a_node34"><a xlink:href="$_finished_event_handler_8h.html" xlink:title=" ">
<polygon fill="none" stroke="black" points="624.5,-503.5 624.5,-522.5 755.5,-522.5 755.5,-503.5 624.5,-503.5"/>
<text text-anchor="middle" x="690" y="-510.5" font-family="Helvetica,sans-Serif" font-size="10.00">FinishedEventHandler.h</text>
</a>
</g>
</g>
<!-- Node20&#45;&gt;Node34 -->
<g id="edge69" class="edge">
<title>Node20&#45;&gt;Node34</title>
<path fill="none" stroke="midnightblue" d="M799.11,-559.4C775.12,-549.42 743.23,-536.15 720.12,-526.53"/>
<polygon fill="midnightblue" stroke="midnightblue" points="721.39,-523.27 710.81,-522.66 718.7,-529.73 721.39,-523.27"/>
</g>
<!-- Node21&#45;&gt;Node8 -->
<g id="edge33" class="edge">
<title>Node21&#45;&gt;Node8</title>
<path fill="none" stroke="midnightblue" d="M561.59,-503.4C610.71,-476.6 752,-389.46 752,-273.5 752,-273.5 752,-273.5 752,-137.5 752,-97.35 769.78,-52.95 781.01,-28.89"/>
<polygon fill="midnightblue" stroke="midnightblue" points="784.29,-30.15 785.49,-19.63 777.99,-27.1 784.29,-30.15"/>
</g>
<!-- Node22 -->
<g id="node22" class="node">
<title>Node22</title>
<g id="a_node22"><a xlink:href="$_event_handler_8h.html" xlink:title=" ">
<polygon fill="none" stroke="black" points="675,-436.5 675,-466.5 785,-466.5 785,-436.5 675,-436.5"/>
<text text-anchor="start" x="683" y="-454.5" font-family="Helvetica,sans-Serif" font-size="10.00">../../core&#45;lib/include</text>
<text text-anchor="middle" x="730" y="-443.5" font-family="Helvetica,sans-Serif" font-size="10.00">/EventHandler.h</text>
</a>
</g>
</g>
<!-- Node21&#45;&gt;Node22 -->
<g id="edge34" class="edge">
<title>Node21&#45;&gt;Node22</title>
<path fill="none" stroke="midnightblue" d="M571.51,-503.48C598.79,-494.7 642.05,-480.79 676.48,-469.71"/>
<polygon fill="midnightblue" stroke="midnightblue" points="677.95,-472.92 686.4,-466.52 675.81,-466.25 677.95,-472.92"/>
</g>
<!-- Node30 -->
<g id="node30" class="node">
<title>Node30</title>
<g id="a_node30"><a xlink:href="$_event_queue_8h.html" xlink:title=" ">
<polygon fill="none" stroke="black" points="285,-257.5 285,-287.5 395,-287.5 395,-257.5 285,-257.5"/>
<text text-anchor="start" x="293" y="-275.5" font-family="Helvetica,sans-Serif" font-size="10.00">../../core&#45;lib/include</text>
<text text-anchor="middle" x="340" y="-264.5" font-family="Helvetica,sans-Serif" font-size="10.00">/EventQueue.h</text>
</a>
</g>
</g>
<!-- Node21&#45;&gt;Node30 -->
<g id="edge54" class="edge">
<title>Node21&#45;&gt;Node30</title>
<path fill="none" stroke="midnightblue" d="M530.73,-503.46C495.6,-481.65 404.5,-420.22 359,-344 350.56,-329.86 345.79,-311.92 343.15,-297.68"/>
<polygon fill="midnightblue" stroke="midnightblue" points="346.57,-296.93 341.51,-287.63 339.66,-298.06 346.57,-296.93"/>
</g>
<!-- Node31 -->
<g id="node31" class="node">
<title>Node31</title>
<g id="a_node31"><a xlink:href="$_game_statistics_8h.html" xlink:title=" ">
<polygon fill="none" stroke="black" points="368,-324.5 368,-343.5 468,-343.5 468,-324.5 368,-324.5"/>
<text text-anchor="middle" x="418" y="-331.5" font-family="Helvetica,sans-Serif" font-size="10.00">GameStatistics.h</text>
</a>
</g>
</g>
<!-- Node21&#45;&gt;Node31 -->
<g id="edge57" class="edge">
<title>Node21&#45;&gt;Node31</title>
<path fill="none" stroke="midnightblue" d="M538.87,-503.46C519.14,-475.96 456.97,-389.32 430.33,-352.18"/>
<polygon fill="midnightblue" stroke="midnightblue" points="433.04,-349.95 424.36,-343.87 427.35,-354.03 433.04,-349.95"/>
</g>
<!-- Node22&#45;&gt;Node8 -->
<g id="edge35" class="edge">
<title>Node22&#45;&gt;Node8</title>
<path fill="none" stroke="midnightblue" d="M736.19,-436.34C756.74,-388.43 822.45,-227.62 842,-87 843.9,-73.35 847.73,-68.53 842,-56 836.22,-43.36 824.95,-32.91 814.37,-25.27"/>
<polygon fill="midnightblue" stroke="midnightblue" points="816.04,-22.18 805.78,-19.53 812.15,-28 816.04,-22.18"/>
</g>
<!-- Node23 -->
<g id="node23" class="node">
<title>Node23</title>
<g id="a_node23"><a xlink:href="$_event_8h.html" xlink:title=" ">
<polygon fill="none" stroke="black" points="541.5,-263 541.5,-282 594.5,-282 594.5,-263 541.5,-263"/>
<text text-anchor="middle" x="568" y="-270" font-family="Helvetica,sans-Serif" font-size="10.00">Event.h</text>
</a>
</g>
</g>
<!-- Node22&#45;&gt;Node23 -->
<g id="edge36" class="edge">
<title>Node22&#45;&gt;Node23</title>
<path fill="none" stroke="midnightblue" d="M717.29,-436.41C696.15,-413 652.37,-364.63 615,-324 604.36,-312.43 592.27,-299.45 583.02,-289.55"/>
<polygon fill="midnightblue" stroke="midnightblue" points="585.4,-286.96 576.01,-282.05 580.29,-291.74 585.4,-286.96"/>
</g>
<!-- Node26 -->
<g id="node26" class="node">
<title>Node26</title>
<g id="a_node26"><a xlink:href="$_event_publisher_8h.html" xlink:title=" ">
<polygon fill="none" stroke="black" points="550,-380.5 550,-399.5 648,-399.5 648,-380.5 550,-380.5"/>
<text text-anchor="middle" x="599" y="-387.5" font-family="Helvetica,sans-Serif" font-size="10.00">EventPublisher.h</text>
</a>
</g>
</g>
<!-- Node22&#45;&gt;Node26 -->
<g id="edge45" class="edge">
<title>Node22&#45;&gt;Node26</title>
<path fill="none" stroke="midnightblue" d="M698.95,-436.4C677.27,-426.55 648.54,-413.5 627.45,-403.92"/>
<polygon fill="midnightblue" stroke="midnightblue" points="628.61,-400.61 618.06,-399.66 625.72,-406.98 628.61,-400.61"/>
</g>
<!-- Node23&#45;&gt;Node6 -->
<g id="edge41" class="edge">
<title>Node23&#45;&gt;Node6</title>
<path fill="none" stroke="midnightblue" d="M593.99,-262.97C601.08,-260.83 608.79,-258.67 616,-257 710.86,-235 824.32,-219 883.52,-211.42"/>
<polygon fill="midnightblue" stroke="midnightblue" points="884.1,-214.87 893.58,-210.15 883.22,-207.93 884.1,-214.87"/>
</g>
<!-- Node23&#45;&gt;Node8 -->
<g id="edge39" class="edge">
<title>Node23&#45;&gt;Node8</title>
<path fill="none" stroke="midnightblue" d="M593.06,-262.91C628.02,-250.72 687.93,-229 695,-221 745.18,-164.21 697.99,-120.36 738,-56 745.48,-43.96 757.21,-33.41 767.64,-25.55"/>
<polygon fill="midnightblue" stroke="midnightblue" points="769.86,-28.27 775.97,-19.62 765.8,-22.57 769.86,-28.27"/>
</g>
<!-- Node23&#45;&gt;Node10 -->
<g id="edge43" class="edge">
<title>Node23&#45;&gt;Node10</title>
<path fill="none" stroke="midnightblue" d="M541.4,-266.76C487.93,-257.01 371.46,-234.46 359,-221 327.6,-187.08 328.14,-129.08 331.47,-96.51"/>
<polygon fill="midnightblue" stroke="midnightblue" points="334.96,-96.86 332.67,-86.51 328.01,-96.03 334.96,-96.86"/>
</g>
<!-- Node23&#45;&gt;Node12 -->
<g id="edge37" class="edge">
<title>Node23&#45;&gt;Node12</title>
<path fill="none" stroke="midnightblue" d="M541.31,-266.78C496.52,-258.66 403.51,-241 326,-221 322.4,-220.07 318.66,-219.04 314.94,-217.96"/>
<polygon fill="midnightblue" stroke="midnightblue" points="315.81,-214.57 305.23,-215.07 313.81,-221.28 315.81,-214.57"/>
</g>
<!-- Node23&#45;&gt;Node14 -->
<g id="edge44" class="edge">
<title>Node23&#45;&gt;Node14</title>
<path fill="none" stroke="midnightblue" d="M548.75,-262.87C527.18,-253.2 491.59,-237.25 463.77,-224.78"/>
<polygon fill="midnightblue" stroke="midnightblue" points="464.85,-221.42 454.29,-220.53 461.99,-227.81 464.85,-221.42"/>
</g>
<!-- Node23&#45;&gt;Node15 -->
<g id="edge42" class="edge">
<title>Node23&#45;&gt;Node15</title>
<path fill="none" stroke="midnightblue" d="M564.97,-262.94C560.05,-247.56 551.95,-214.56 563,-190 569.77,-174.96 583.47,-162.59 595.75,-153.86"/>
<polygon fill="midnightblue" stroke="midnightblue" points="597.93,-156.61 604.31,-148.15 594.05,-150.78 597.93,-156.61"/>
</g>
<!-- Node24 -->
<g id="node24" class="node">
<title>Node24</title>
<g id="a_node24"><a xlink:title=" ">
<polygon fill="none" stroke="#bfbfbf" points="642,-196 642,-215 686,-215 686,-196 642,-196"/>
<text text-anchor="middle" x="664" y="-203" font-family="Helvetica,sans-Serif" font-size="10.00">string</text>
</a>
</g>
</g>
<!-- Node23&#45;&gt;Node24 -->
<g id="edge38" class="edge">
<title>Node23&#45;&gt;Node24</title>
<path fill="none" stroke="midnightblue" d="M580.95,-262.73C596.85,-251.96 624.05,-233.55 642.97,-220.74"/>
<polygon fill="midnightblue" stroke="midnightblue" points="644.94,-223.63 651.26,-215.13 641.02,-217.84 644.94,-223.63"/>
</g>
<!-- Node25 -->
<g id="node25" class="node">
<title>Node25</title>
<g id="a_node25"><a xlink:title=" ">
<polygon fill="none" stroke="#bfbfbf" points="572.5,-196 572.5,-215 623.5,-215 623.5,-196 572.5,-196"/>
<text text-anchor="middle" x="598" y="-203" font-family="Helvetica,sans-Serif" font-size="10.00">variant</text>
</a>
</g>
</g>
<!-- Node23&#45;&gt;Node25 -->
<g id="edge40" class="edge">
<title>Node23&#45;&gt;Node25</title>
<path fill="none" stroke="midnightblue" d="M572.05,-262.73C576.54,-252.99 583.93,-236.98 589.68,-224.53"/>
<polygon fill="midnightblue" stroke="midnightblue" points="593.01,-225.67 594.02,-215.13 586.65,-222.74 593.01,-225.67"/>
</g>
<!-- Node26&#45;&gt;Node7 -->
<g id="edge47" class="edge">
<title>Node26&#45;&gt;Node7</title>
<path fill="none" stroke="midnightblue" d="M549.98,-384.73C406.92,-371.6 0,-329.37 0,-273.5 0,-273.5 0,-273.5 0,-137.5 0,-71.54 83.95,-35.42 132.45,-20.06"/>
<polygon fill="midnightblue" stroke="midnightblue" points="133.66,-23.34 142.22,-17.09 131.63,-16.65 133.66,-23.34"/>
</g>
<!-- Node26&#45;&gt;Node23 -->
<g id="edge48" class="edge">
<title>Node26&#45;&gt;Node23</title>
<path fill="none" stroke="midnightblue" d="M600.46,-380.38C602.28,-367.74 604.52,-343.55 599,-324 595.52,-311.7 588.12,-299.44 581.42,-290.08"/>
<polygon fill="midnightblue" stroke="midnightblue" points="584.19,-287.94 575.36,-282.09 578.61,-292.17 584.19,-287.94"/>
</g>
<!-- Node27 -->
<g id="node27" class="node">
<title>Node27</title>
<g id="a_node27"><a xlink:title=" ">
<polygon fill="none" stroke="#bfbfbf" points="625,-263 625,-282 663,-282 663,-263 625,-263"/>
<text text-anchor="middle" x="644" y="-270" font-family="Helvetica,sans-Serif" font-size="10.00">map</text>
</a>
</g>
</g>
<!-- Node26&#45;&gt;Node27 -->
<g id="edge46" class="edge">
<title>Node26&#45;&gt;Node27</title>
<path fill="none" stroke="midnightblue" d="M602.38,-380.32C609.68,-361.59 627.03,-317.05 636.87,-291.79"/>
<polygon fill="midnightblue" stroke="midnightblue" points="640.21,-292.87 640.58,-282.28 633.69,-290.33 640.21,-292.87"/>
</g>
<!-- Node28 -->
<g id="node28" class="node">
<title>Node28</title>
<g id="a_node28"><a xlink:href="$_event_subscriber_8h.html" xlink:title=" ">
<polygon fill="none" stroke="black" points="486,-324.5 486,-343.5 590,-343.5 590,-324.5 486,-324.5"/>
<text text-anchor="middle" x="538" y="-331.5" font-family="Helvetica,sans-Serif" font-size="10.00">EventSubscriber.h</text>
</a>
</g>
</g>
<!-- Node26&#45;&gt;Node28 -->
<g id="edge49" class="edge">
<title>Node26&#45;&gt;Node28</title>
<path fill="none" stroke="midnightblue" d="M589.2,-380.32C580.18,-372.34 566.59,-360.31 555.68,-350.65"/>
<polygon fill="midnightblue" stroke="midnightblue" points="557.79,-347.84 547.98,-343.83 553.15,-353.08 557.79,-347.84"/>
</g>
<!-- Node28&#45;&gt;Node7 -->
<g id="edge51" class="edge">
<title>Node28&#45;&gt;Node7</title>
<path fill="none" stroke="midnightblue" d="M531.25,-324.2C518.25,-307.96 488,-273.42 454,-257 365.97,-214.48 326.35,-260.69 237,-221 216.76,-212.01 215.95,-202.97 198,-190 174.32,-172.89 156.89,-179.7 143,-154 122.29,-115.69 132.81,-98.35 143,-56 145.31,-46.42 150.02,-36.58 154.58,-28.56"/>
<polygon fill="midnightblue" stroke="midnightblue" points="157.69,-30.17 159.9,-19.81 151.71,-26.54 157.69,-30.17"/>
</g>
<!-- Node28&#45;&gt;Node23 -->
<g id="edge53" class="edge">
<title>Node28&#45;&gt;Node23</title>
<path fill="none" stroke="midnightblue" d="M542.3,-324.48C546.66,-315.82 553.56,-302.15 559.1,-291.15"/>
<polygon fill="midnightblue" stroke="midnightblue" points="562.33,-292.51 563.71,-282.01 556.08,-289.36 562.33,-292.51"/>
</g>
<!-- Node28&#45;&gt;Node27 -->
<g id="edge50" class="edge">
<title>Node28&#45;&gt;Node27</title>
<path fill="none" stroke="midnightblue" d="M553.19,-324.48C570.66,-314.67 599.58,-298.43 620.08,-286.92"/>
<polygon fill="midnightblue" stroke="midnightblue" points="621.83,-289.96 628.84,-282.01 618.41,-283.85 621.83,-289.96"/>
</g>
<!-- Node29 -->
<g id="node29" class="node">
<title>Node29</title>
<g id="a_node29"><a xlink:title=" ">
<polygon fill="none" stroke="#bfbfbf" points="413,-263 413,-282 445,-282 445,-263 413,-263"/>
<text text-anchor="middle" x="429" y="-270" font-family="Helvetica,sans-Serif" font-size="10.00">list</text>
</a>
</g>
</g>
<!-- Node28&#45;&gt;Node29 -->
<g id="edge52" class="edge">
<title>Node28&#45;&gt;Node29</title>
<path fill="none" stroke="midnightblue" d="M522.38,-324.48C504.41,-314.67 474.68,-298.43 453.59,-286.92"/>
<polygon fill="midnightblue" stroke="midnightblue" points="455.04,-283.73 444.59,-282.01 451.69,-289.87 455.04,-283.73"/>
</g>
<!-- Node30&#45;&gt;Node8 -->
<g id="edge56" class="edge">
<title>Node30&#45;&gt;Node8</title>
<path fill="none" stroke="midnightblue" d="M383,-257.44C412.43,-247.64 452.26,-234.04 487,-221 521.15,-208.18 529.08,-203.41 563,-190 604.6,-173.55 622.19,-182.1 657,-154 697.48,-121.33 684.2,-92.77 721,-56 733.49,-43.51 749.99,-32.6 763.72,-24.65"/>
<polygon fill="midnightblue" stroke="midnightblue" points="765.68,-27.57 772.7,-19.64 762.26,-21.46 765.68,-27.57"/>
</g>
<!-- Node30&#45;&gt;Node13 -->
<g id="edge55" class="edge">
<title>Node30&#45;&gt;Node13</title>
<path fill="none" stroke="midnightblue" d="M301.86,-257.44C274.58,-247.36 237,-233.42 204,-221 202.12,-220.29 200.18,-219.56 198.23,-218.82"/>
<polygon fill="midnightblue" stroke="midnightblue" points="199.08,-215.4 188.49,-215.12 196.6,-221.94 199.08,-215.4"/>
</g>
<!-- Node31&#45;&gt;Node23 -->
<g id="edge60" class="edge">
<title>Node31&#45;&gt;Node23</title>
<path fill="none" stroke="midnightblue" d="M439.49,-324.48C465.11,-314.31 508.11,-297.26 537.24,-285.7"/>
<polygon fill="midnightblue" stroke="midnightblue" points="538.54,-288.95 546.55,-282.01 535.96,-282.44 538.54,-288.95"/>
</g>
<!-- Node31&#45;&gt;Node29 -->
<g id="edge58" class="edge">
<title>Node31&#45;&gt;Node29</title>
<path fill="none" stroke="midnightblue" d="M419.58,-324.48C421.13,-316.08 423.55,-302.98 425.55,-292.16"/>
<polygon fill="midnightblue" stroke="midnightblue" points="429.05,-292.48 427.43,-282.01 422.17,-291.21 429.05,-292.48"/>
</g>
<!-- Node31&#45;&gt;Node30 -->
<g id="edge59" class="edge">
<title>Node31&#45;&gt;Node30</title>
<path fill="none" stroke="midnightblue" d="M406.82,-324.48C396.36,-316.49 380.32,-304.25 366.57,-293.77"/>
<polygon fill="midnightblue" stroke="midnightblue" points="368.46,-290.81 358.38,-287.52 364.21,-296.37 368.46,-290.81"/>
</g>
<!-- Node32&#45;&gt;Node8 -->
<g id="edge62" class="edge">
<title>Node32&#45;&gt;Node8</title>
<path fill="none" stroke="midnightblue" d="M837.05,-503.41C845.86,-483.9 866,-434.55 866,-391 866,-391 866,-391 866,-271.5 866,-175.66 904.93,-139.57 858,-56 850.06,-41.86 835.61,-31.36 822.06,-24.08"/>
<polygon fill="midnightblue" stroke="midnightblue" points="823.44,-20.85 812.92,-19.55 820.33,-27.13 823.44,-20.85"/>
</g>
<!-- Node32&#45;&gt;Node20 -->
<g id="edge64" class="edge">
<title>Node32&#45;&gt;Node20</title>
<path fill="none" stroke="midnightblue" d="M837.93,-522.66C839.43,-529.65 840.01,-539.86 839.64,-549.29"/>
<polygon fill="midnightblue" stroke="midnightblue" points="836.14,-549.15 838.84,-559.4 843.12,-549.71 836.14,-549.15"/>
</g>
<!-- Node32&#45;&gt;Node22 -->
<g id="edge63" class="edge">
<title>Node32&#45;&gt;Node22</title>
<path fill="none" stroke="midnightblue" d="M818.24,-503.48C803.9,-495.19 781.63,-482.32 763.05,-471.59"/>
<polygon fill="midnightblue" stroke="midnightblue" points="764.68,-468.49 754.28,-466.52 761.18,-474.56 764.68,-468.49"/>
</g>
<!-- Node33&#45;&gt;Node8 -->
<g id="edge66" class="edge">
<title>Node33&#45;&gt;Node8</title>
<path fill="none" stroke="midnightblue" d="M976.33,-503.4C989.79,-484.26 1020,-436.23 1020,-391 1020,-391 1020,-391 1020,-137.5 1020,-51.42 894.78,-23.5 829.13,-14.77"/>
<polygon fill="midnightblue" stroke="midnightblue" points="829.48,-11.29 819.13,-13.53 828.62,-18.24 829.48,-11.29"/>
</g>
<!-- Node33&#45;&gt;Node20 -->
<g id="edge68" class="edge">
<title>Node33&#45;&gt;Node20</title>
<path fill="none" stroke="midnightblue" d="M954.99,-522.66C937.09,-531.23 906.7,-544.63 880.67,-555.52"/>
<polygon fill="midnightblue" stroke="midnightblue" points="879.2,-552.33 871.31,-559.4 881.88,-558.8 879.2,-552.33"/>
</g>
<!-- Node33&#45;&gt;Node22 -->
<g id="edge67" class="edge">
<title>Node33&#45;&gt;Node22</title>
<path fill="none" stroke="midnightblue" d="M935.61,-503.48C899.03,-494.4 840.28,-479.84 794.93,-468.6"/>
<polygon fill="midnightblue" stroke="midnightblue" points="795.73,-465.19 785.18,-466.18 794.04,-471.98 795.73,-465.19"/>
</g>
<!-- Node34&#45;&gt;Node8 -->
<g id="edge70" class="edge">
<title>Node34&#45;&gt;Node8</title>
<path fill="none" stroke="midnightblue" d="M738.05,-503.46C758.94,-497.1 781.47,-486.07 794,-467 801.56,-455.48 794.17,-449.78 794,-436 793.11,-363.76 790,-345.74 790,-273.5 790,-273.5 790,-273.5 790,-204.5 790,-140.51 790,-64.63 790,-29.97"/>
<polygon fill="midnightblue" stroke="midnightblue" points="793.5,-29.87 790,-19.87 786.5,-29.87 793.5,-29.87"/>
</g>
<!-- Node34&#45;&gt;Node22 -->
<g id="edge71" class="edge">
<title>Node34&#45;&gt;Node22</title>
<path fill="none" stroke="midnightblue" d="M695.73,-503.48C700.74,-496.02 708.25,-484.85 714.96,-474.87"/>
<polygon fill="midnightblue" stroke="midnightblue" points="717.9,-476.77 720.57,-466.52 712.09,-472.87 717.9,-476.77"/>
</g>
</g>
</svg>
