<?xml version="1.0" encoding="UTF-8" standalone="no"?>
<!DOCTYPE svg PUBLIC "-//W3C//DTD SVG 1.1//EN"
 "http://www.w3.org/Graphics/SVG/1.1/DTD/svg11.dtd">
<!-- Generated by graphviz version 2.43.0 (0)
 -->
<!-- Title: /home/tomek/CLionProjects/proi/proi&#45;projekt/src/tank&#45;lib/Tank.cpp Pages: 1 -->
<svg width="393pt" height="296pt"
 viewBox="0.00 0.00 392.76 296.00" xmlns="http://www.w3.org/2000/svg" xmlns:xlink="http://www.w3.org/1999/xlink">
<g id="graph0" class="graph" transform="scale(1 1) rotate(0) translate(4 292)">
<title>/home/tomek/CLionProjects/proi/proi&#45;projekt/src/tank&#45;lib/Tank.cpp</title>
<!-- Node1 -->
<g id="node1" class="node">
<title>Node1</title>
<g id="a_node1"><a xlink:title=" ">
<polygon fill="#bfbfbf" stroke="black" points="77.96,-246.5 77.96,-287.5 228.96,-287.5 228.96,-246.5 77.96,-246.5"/>
<text text-anchor="start" x="85.96" y="-275.5" font-family="Helvetica,sans-Serif" font-size="10.00">/home/tomek/CLionProjects</text>
<text text-anchor="start" x="85.96" y="-264.5" font-family="Helvetica,sans-Serif" font-size="10.00">/proi/proi&#45;projekt/src</text>
<text text-anchor="middle" x="153.46" y="-253.5" font-family="Helvetica,sans-Serif" font-size="10.00">/tank&#45;lib/Tank.cpp</text>
</a>
</g>
</g>
<!-- Node2 -->
<g id="node2" class="node">
<title>Node2</title>
<g id="a_node2"><a xlink:href="$_simple_subscriber_8h.html" xlink:title=" ">
<polygon fill="none" stroke="black" points="246.96,-56.5 246.96,-86.5 359.96,-86.5 359.96,-56.5 246.96,-56.5"/>
<text text-anchor="start" x="254.96" y="-74.5" font-family="Helvetica,sans-Serif" font-size="10.00">../core&#45;lib/include</text>
<text text-anchor="middle" x="303.46" y="-63.5" font-family="Helvetica,sans-Serif" font-size="10.00">/SimpleSubscriber.h</text>
</a>
</g>
</g>
<!-- Node1&#45;&gt;Node2 -->
<g id="edge1" class="edge">
<title>Node1&#45;&gt;Node2</title>
<path fill="none" stroke="midnightblue" d="M229.04,-249.63C278.58,-234.3 338.75,-205.71 364.46,-154 370.6,-141.66 370.33,-135.47 364.46,-123 358.74,-110.83 348.48,-100.58 337.99,-92.57"/>
<polygon fill="midnightblue" stroke="midnightblue" points="339.79,-89.56 329.6,-86.63 335.74,-95.27 339.79,-89.56"/>
</g>
<!-- Node5 -->
<g id="node5" class="node">
<title>Node5</title>
<g id="a_node5"><a xlink:href="$_simple_publisher_8h.html" xlink:title=" ">
<polygon fill="none" stroke="black" points="5.96,-56.5 5.96,-86.5 112.96,-86.5 112.96,-56.5 5.96,-56.5"/>
<text text-anchor="start" x="13.96" y="-74.5" font-family="Helvetica,sans-Serif" font-size="10.00">../core&#45;lib/include</text>
<text text-anchor="middle" x="59.46" y="-63.5" font-family="Helvetica,sans-Serif" font-size="10.00">/SimplePublisher.h</text>
</a>
</g>
</g>
<!-- Node1&#45;&gt;Node5 -->
<g id="edge4" class="edge">
<title>Node1&#45;&gt;Node5</title>
<path fill="none" stroke="midnightblue" d="M108.78,-246.45C73.26,-228.21 26.08,-197.28 4.46,-154 -1.69,-141.67 -1.08,-135.61 4.46,-123 9.64,-111.22 19.06,-100.99 28.67,-92.87"/>
<polygon fill="midnightblue" stroke="midnightblue" points="30.99,-95.5 36.69,-86.56 26.66,-90 30.99,-95.5"/>
</g>
<!-- Node6 -->
<g id="node6" class="node">
<title>Node6</title>
<g id="a_node6"><a xlink:href="$_tank_8h.html" xlink:title=" ">
<polygon fill="none" stroke="black" points="195.46,-190.5 195.46,-209.5 281.46,-209.5 281.46,-190.5 195.46,-190.5"/>
<text text-anchor="middle" x="238.46" y="-197.5" font-family="Helvetica,sans-Serif" font-size="10.00">include/Tank.h</text>
</a>
</g>
</g>
<!-- Node1&#45;&gt;Node6 -->
<g id="edge7" class="edge">
<title>Node1&#45;&gt;Node6</title>
<path fill="none" stroke="midnightblue" d="M178.97,-246.5C191.87,-236.63 207.28,-224.84 219.19,-215.74"/>
<polygon fill="midnightblue" stroke="midnightblue" points="221.33,-218.51 227.15,-209.65 217.08,-212.95 221.33,-218.51"/>
</g>
<!-- Node10 -->
<g id="node10" class="node">
<title>Node10</title>
<g id="a_node10"><a xlink:href="$_bullet_8h.html" xlink:title=" ">
<polygon fill="none" stroke="black" points="13.46,-129 13.46,-148 105.46,-148 105.46,-129 13.46,-129"/>
<text text-anchor="middle" x="59.46" y="-136" font-family="Helvetica,sans-Serif" font-size="10.00">include/Bullet.h</text>
</a>
</g>
</g>
<!-- Node1&#45;&gt;Node10 -->
<g id="edge15" class="edge">
<title>Node1&#45;&gt;Node10</title>
<path fill="none" stroke="midnightblue" d="M138.78,-246.23C120.45,-221.57 89.42,-179.82 72.11,-156.52"/>
<polygon fill="midnightblue" stroke="midnightblue" points="74.77,-154.23 66,-148.29 69.15,-158.41 74.77,-154.23"/>
</g>
<!-- Node3 -->
<g id="node3" class="node">
<title>Node3</title>
<g id="a_node3"><a xlink:title=" ">
<polygon fill="none" stroke="#bfbfbf" points="130.96,-0.5 130.96,-19.5 177.96,-19.5 177.96,-0.5 130.96,-0.5"/>
<text text-anchor="middle" x="154.46" y="-7.5" font-family="Helvetica,sans-Serif" font-size="10.00">vector</text>
</a>
</g>
</g>
<!-- Node2&#45;&gt;Node3 -->
<g id="edge2" class="edge">
<title>Node2&#45;&gt;Node3</title>
<path fill="none" stroke="midnightblue" d="M268.15,-56.4C243.04,-46.37 209.63,-33.03 185.53,-23.4"/>
<polygon fill="midnightblue" stroke="midnightblue" points="186.73,-20.12 176.14,-19.66 184.13,-26.62 186.73,-20.12"/>
</g>
<!-- Node4 -->
<g id="node4" class="node">
<title>Node4</title>
<g id="a_node4"><a xlink:title=" ">
<polygon fill="none" stroke="#bfbfbf" points="274.46,-0.5 274.46,-19.5 332.46,-19.5 332.46,-0.5 274.46,-0.5"/>
<text text-anchor="middle" x="303.46" y="-7.5" font-family="Helvetica,sans-Serif" font-size="10.00">memory</text>
</a>
</g>
</g>
<!-- Node2&#45;&gt;Node4 -->
<g id="edge3" class="edge">
<title>Node2&#45;&gt;Node4</title>
<path fill="none" stroke="midnightblue" d="M303.46,-56.4C303.46,-48.47 303.46,-38.46 303.46,-29.86"/>
<polygon fill="midnightblue" stroke="midnightblue" points="306.96,-29.66 303.46,-19.66 299.96,-29.66 306.96,-29.66"/>
</g>
<!-- Node5&#45;&gt;Node3 -->
<g id="edge6" class="edge">
<title>Node5&#45;&gt;Node3</title>
<path fill="none" stroke="midnightblue" d="M81.98,-56.4C97.06,-46.95 116.85,-34.56 131.94,-25.11"/>
<polygon fill="midnightblue" stroke="midnightblue" points="134.02,-27.93 140.64,-19.66 130.31,-22 134.02,-27.93"/>
</g>
<!-- Node5&#45;&gt;Node4 -->
<g id="edge5" class="edge">
<title>Node5&#45;&gt;Node4</title>
<path fill="none" stroke="midnightblue" d="M113.01,-57.44C158.79,-46.28 223.59,-30.48 264.56,-20.49"/>
<polygon fill="midnightblue" stroke="midnightblue" points="265.55,-23.85 274.43,-18.08 263.89,-17.05 265.55,-23.85"/>
</g>
<!-- Node6&#45;&gt;Node2 -->
<g id="edge10" class="edge">
<title>Node6&#45;&gt;Node2</title>
<path fill="none" stroke="midnightblue" d="M281.59,-193.15C305.6,-187.44 333.57,-176.18 348.46,-154 361.59,-134.45 345.2,-110.76 328.64,-93.97"/>
<polygon fill="midnightblue" stroke="midnightblue" points="330.77,-91.16 321.12,-86.78 325.93,-96.22 330.77,-91.16"/>
</g>
<!-- Node6&#45;&gt;Node4 -->
<g id="edge8" class="edge">
<title>Node6&#45;&gt;Node4</title>
<path fill="none" stroke="midnightblue" d="M281.71,-195.38C309.94,-190.58 345.04,-179.5 364.46,-154 390.9,-119.31 389.84,-94.56 369.46,-56 362.04,-41.95 348.04,-31.47 334.84,-24.17"/>
<polygon fill="midnightblue" stroke="midnightblue" points="336.42,-21.04 325.92,-19.62 333.24,-27.28 336.42,-21.04"/>
</g>
<!-- Node7 -->
<g id="node7" class="node">
<title>Node7</title>
<g id="a_node7"><a xlink:title=" ">
<polygon fill="none" stroke="#bfbfbf" points="161.46,-129 161.46,-148 217.46,-148 217.46,-129 161.46,-129"/>
<text text-anchor="middle" x="189.46" y="-136" font-family="Helvetica,sans-Serif" font-size="10.00">optional</text>
</a>
</g>
</g>
<!-- Node6&#45;&gt;Node7 -->
<g id="edge9" class="edge">
<title>Node6&#45;&gt;Node7</title>
<path fill="none" stroke="midnightblue" d="M231.44,-190.48C224.02,-181.46 212.13,-167.02 202.9,-155.81"/>
<polygon fill="midnightblue" stroke="midnightblue" points="205.53,-153.5 196.47,-148.01 200.13,-157.95 205.53,-153.5"/>
</g>
<!-- Node8 -->
<g id="node8" class="node">
<title>Node8</title>
<g id="a_node8"><a xlink:href="$_entity_8h.html" xlink:title=" ">
<polygon fill="none" stroke="black" points="130.96,-62 130.96,-81 183.96,-81 183.96,-62 130.96,-62"/>
<text text-anchor="middle" x="157.46" y="-69" font-family="Helvetica,sans-Serif" font-size="10.00">Entity.h</text>
</a>
</g>
</g>
<!-- Node6&#45;&gt;Node8 -->
<g id="edge11" class="edge">
<title>Node6&#45;&gt;Node8</title>
<path fill="none" stroke="midnightblue" d="M204.28,-190.49C185.47,-183.88 163.72,-172.6 152.46,-154 140.85,-134.82 145.5,-108.23 150.74,-90.71"/>
<polygon fill="midnightblue" stroke="midnightblue" points="154.1,-91.71 153.95,-81.11 147.46,-89.49 154.1,-91.71"/>
</g>
<!-- Node9 -->
<g id="node9" class="node">
<title>Node9</title>
<g id="a_node9"><a xlink:href="$_bot_8h.html" xlink:title=" ">
<polygon fill="none" stroke="black" points="235.46,-123.5 235.46,-153.5 339.46,-153.5 339.46,-123.5 235.46,-123.5"/>
<text text-anchor="start" x="243.46" y="-141.5" font-family="Helvetica,sans-Serif" font-size="10.00">../../bot&#45;lib/include</text>
<text text-anchor="middle" x="287.46" y="-130.5" font-family="Helvetica,sans-Serif" font-size="10.00">/Bot.h</text>
</a>
</g>
</g>
<!-- Node6&#45;&gt;Node9 -->
<g id="edge12" class="edge">
<title>Node6&#45;&gt;Node9</title>
<path fill="none" stroke="midnightblue" d="M245.48,-190.48C251.75,-182.87 261.19,-171.4 269.54,-161.26"/>
<polygon fill="midnightblue" stroke="midnightblue" points="272.26,-163.47 275.91,-153.52 266.86,-159.02 272.26,-163.47"/>
</g>
<!-- Node9&#45;&gt;Node2 -->
<g id="edge14" class="edge">
<title>Node9&#45;&gt;Node2</title>
<path fill="none" stroke="midnightblue" d="M290.93,-123.4C292.86,-115.56 295.32,-105.6 297.54,-96.57"/>
<polygon fill="midnightblue" stroke="midnightblue" points="301.01,-97.12 300,-86.58 294.21,-95.45 301.01,-97.12"/>
</g>
<!-- Node9&#45;&gt;Node8 -->
<g id="edge13" class="edge">
<title>Node9&#45;&gt;Node8</title>
<path fill="none" stroke="midnightblue" d="M259.26,-123.4C236.75,-112.14 205.47,-96.5 183.54,-85.54"/>
<polygon fill="midnightblue" stroke="midnightblue" points="184.99,-82.35 174.48,-81.01 181.86,-88.61 184.99,-82.35"/>
</g>
<!-- Node10&#45;&gt;Node5 -->
<g id="edge16" class="edge">
<title>Node10&#45;&gt;Node5</title>
<path fill="none" stroke="midnightblue" d="M59.46,-128.73C59.46,-120.54 59.46,-107.92 59.46,-96.71"/>
<polygon fill="midnightblue" stroke="midnightblue" points="62.96,-96.59 59.46,-86.59 55.96,-96.59 62.96,-96.59"/>
</g>
<!-- Node10&#45;&gt;Node8 -->
<g id="edge17" class="edge">
<title>Node10&#45;&gt;Node8</title>
<path fill="none" stroke="midnightblue" d="M72.68,-128.73C88.92,-117.96 116.68,-99.55 135.99,-86.74"/>
<polygon fill="midnightblue" stroke="midnightblue" points="138.06,-89.57 144.46,-81.13 134.19,-83.74 138.06,-89.57"/>
</g>
</g>
</svg>
