<?xml version="1.0" encoding="UTF-8" standalone="no"?>
<!DOCTYPE svg PUBLIC "-//W3C//DTD SVG 1.1//EN"
 "http://www.w3.org/Graphics/SVG/1.1/DTD/svg11.dtd">
<!-- Generated by graphviz version 2.50.0 (0)
 -->
<!-- Title: /home/tomek/trash/battle&#45;city/src/lib/tank&#45;lib/include/Tank.h Pages: 1 -->
<svg width="285pt" height="240pt"
 viewBox="0.00 0.00 284.50 240.00" xmlns="http://www.w3.org/2000/svg" xmlns:xlink="http://www.w3.org/1999/xlink">
<g id="graph0" class="graph" transform="scale(1 1) rotate(0) translate(4 236)">
<title>/home/tomek/trash/battle&#45;city/src/lib/tank&#45;lib/include/Tank.h</title>
<!-- Node1 -->
<g id="node1" class="node">
<title>Node1</title>
<g id="a_node1"><a xlink:title=" ">
<polygon fill="#bfbfbf" stroke="black" points="49.5,-190.5 49.5,-231.5 190.5,-231.5 190.5,-190.5 49.5,-190.5"/>
<text text-anchor="start" x="57.5" y="-219.5" font-family="Helvetica,sans-Serif" font-size="10.00">/home/tomek/trash/battle</text>
<text text-anchor="start" x="57.5" y="-208.5" font-family="Helvetica,sans-Serif" font-size="10.00">&#45;city/src/lib/tank&#45;lib</text>
<text text-anchor="middle" x="120" y="-197.5" font-family="Helvetica,sans-Serif" font-size="10.00">/include/Tank.h</text>
</a>
</g>
</g>
<!-- Node2 -->
<g id="node2" class="node">
<title>Node2</title>
<g id="a_node2"><a xlink:title=" ">
<polygon fill="none" stroke="#bfbfbf" points="0,-0.5 0,-19.5 58,-19.5 58,-0.5 0,-0.5"/>
<text text-anchor="middle" x="29" y="-7.5" font-family="Helvetica,sans-Serif" font-size="10.00">memory</text>
</a>
</g>
</g>
<!-- Node1&#45;&gt;Node2 -->
<g id="edge1" class="edge">
<title>Node1&#45;&gt;Node2</title>
<path fill="none" stroke="midnightblue" d="M67.35,-190.45C51.53,-181.81 35.99,-169.92 27,-154 4.68,-114.5 15.24,-58.53 23.12,-29.72"/>
<polygon fill="midnightblue" stroke="midnightblue" points="26.57,-30.37 26.03,-19.79 19.86,-28.41 26.57,-30.37"/>
</g>
<!-- Node3 -->
<g id="node3" class="node">
<title>Node3</title>
<g id="a_node3"><a xlink:title=" ">
<polygon fill="none" stroke="#bfbfbf" points="36,-129 36,-148 92,-148 92,-129 36,-129"/>
<text text-anchor="middle" x="64" y="-136" font-family="Helvetica,sans-Serif" font-size="10.00">optional</text>
</a>
</g>
</g>
<!-- Node1&#45;&gt;Node3 -->
<g id="edge2" class="edge">
<title>Node1&#45;&gt;Node3</title>
<path fill="none" stroke="midnightblue" d="M104.4,-190.36C95.89,-179.65 85.46,-166.52 77.34,-156.29"/>
<polygon fill="midnightblue" stroke="midnightblue" points="79.85,-153.83 70.89,-148.17 74.37,-158.18 79.85,-153.83"/>
</g>
<!-- Node4 -->
<g id="node4" class="node">
<title>Node4</title>
<g id="a_node4"><a xlink:href="$_simple_subscriber_8h.html" xlink:title=" ">
<polygon fill="none" stroke="black" points="63.5,-56.5 63.5,-86.5 176.5,-86.5 176.5,-56.5 63.5,-56.5"/>
<text text-anchor="start" x="71.5" y="-74.5" font-family="Helvetica,sans-Serif" font-size="10.00">../../core&#45;lib/include</text>
<text text-anchor="middle" x="120" y="-63.5" font-family="Helvetica,sans-Serif" font-size="10.00">/SimpleSubscriber.h</text>
</a>
</g>
</g>
<!-- Node1&#45;&gt;Node4 -->
<g id="edge3" class="edge">
<title>Node1&#45;&gt;Node4</title>
<path fill="none" stroke="midnightblue" d="M120,-190.3C120,-165.63 120,-123.38 120,-96.75"/>
<polygon fill="midnightblue" stroke="midnightblue" points="123.5,-96.72 120,-86.72 116.5,-96.72 123.5,-96.72"/>
</g>
<!-- Node6 -->
<g id="node6" class="node">
<title>Node6</title>
<g id="a_node6"><a xlink:href="$_entity_8h.html" xlink:title=" ">
<polygon fill="none" stroke="black" points="223.5,-62 223.5,-81 276.5,-81 276.5,-62 223.5,-62"/>
<text text-anchor="middle" x="250" y="-69" font-family="Helvetica,sans-Serif" font-size="10.00">Entity.h</text>
</a>
</g>
</g>
<!-- Node1&#45;&gt;Node6 -->
<g id="edge6" class="edge">
<title>Node1&#45;&gt;Node6</title>
<path fill="none" stroke="midnightblue" d="M190.5,-199.2C217.18,-191.31 244.95,-177.64 261,-154 273.8,-135.14 266.36,-108.1 258.94,-90.42"/>
<polygon fill="midnightblue" stroke="midnightblue" points="262.08,-88.87 254.73,-81.23 255.71,-91.78 262.08,-88.87"/>
</g>
<!-- Node7 -->
<g id="node7" class="node">
<title>Node7</title>
<g id="a_node7"><a xlink:href="$_bot_8h.html" xlink:title=" ">
<polygon fill="none" stroke="black" points="148,-123.5 148,-153.5 252,-153.5 252,-123.5 148,-123.5"/>
<text text-anchor="start" x="156" y="-141.5" font-family="Helvetica,sans-Serif" font-size="10.00">../../bot&#45;lib/include</text>
<text text-anchor="middle" x="200" y="-130.5" font-family="Helvetica,sans-Serif" font-size="10.00">/Bot.h</text>
</a>
</g>
</g>
<!-- Node1&#45;&gt;Node7 -->
<g id="edge7" class="edge">
<title>Node1&#45;&gt;Node7</title>
<path fill="none" stroke="midnightblue" d="M142.28,-190.36C152.82,-181.08 165.41,-169.98 176.14,-160.52"/>
<polygon fill="midnightblue" stroke="midnightblue" points="178.73,-162.91 183.92,-153.67 174.1,-157.66 178.73,-162.91"/>
</g>
<!-- Node4&#45;&gt;Node2 -->
<g id="edge5" class="edge">
<title>Node4&#45;&gt;Node2</title>
<path fill="none" stroke="midnightblue" d="M98.43,-56.4C84.12,-47.04 65.39,-34.79 50.99,-25.38"/>
<polygon fill="midnightblue" stroke="midnightblue" points="52.53,-22.2 42.24,-19.66 48.7,-28.06 52.53,-22.2"/>
</g>
<!-- Node5 -->
<g id="node5" class="node">
<title>Node5</title>
<g id="a_node5"><a xlink:title=" ">
<polygon fill="none" stroke="#bfbfbf" points="96.5,-0.5 96.5,-19.5 143.5,-19.5 143.5,-0.5 96.5,-0.5"/>
<text text-anchor="middle" x="120" y="-7.5" font-family="Helvetica,sans-Serif" font-size="10.00">vector</text>
</a>
</g>
</g>
<!-- Node4&#45;&gt;Node5 -->
<g id="edge4" class="edge">
<title>Node4&#45;&gt;Node5</title>
<path fill="none" stroke="midnightblue" d="M120,-56.4C120,-48.47 120,-38.46 120,-29.86"/>
<polygon fill="midnightblue" stroke="midnightblue" points="123.5,-29.66 120,-19.66 116.5,-29.66 123.5,-29.66"/>
</g>
<!-- Node7&#45;&gt;Node4 -->
<g id="edge9" class="edge">
<title>Node7&#45;&gt;Node4</title>
<path fill="none" stroke="midnightblue" d="M182.64,-123.4C171.74,-114.54 157.49,-102.96 145.34,-93.09"/>
<polygon fill="midnightblue" stroke="midnightblue" points="147.29,-90.17 137.32,-86.58 142.88,-95.6 147.29,-90.17"/>
</g>
<!-- Node7&#45;&gt;Node6 -->
<g id="edge8" class="edge">
<title>Node7&#45;&gt;Node6</title>
<path fill="none" stroke="midnightblue" d="M210.85,-123.4C218.57,-113.36 228.97,-99.84 237.11,-89.25"/>
<polygon fill="midnightblue" stroke="midnightblue" points="239.99,-91.25 243.31,-81.19 234.44,-86.99 239.99,-91.25"/>
</g>
</g>
</svg>
