<?xml version="1.0" encoding="UTF-8" standalone="no"?>
<!DOCTYPE svg PUBLIC "-//W3C//DTD SVG 1.1//EN"
 "http://www.w3.org/Graphics/SVG/1.1/DTD/svg11.dtd">
<!-- Generated by graphviz version 2.43.0 (0)
 -->
<!-- Title: /home/tomek/CLionProjects/proi/proi&#45;projekt/src/graphic&#45;lib/include/TextureLoadingError.h Pages: 1 -->
<svg width="1315pt" height="139pt"
 viewBox="0.00 0.00 1314.50 139.00" xmlns="http://www.w3.org/2000/svg" xmlns:xlink="http://www.w3.org/1999/xlink">
<g id="graph0" class="graph" transform="scale(1 1) rotate(0) translate(4 135)">
<title>/home/tomek/CLionProjects/proi/proi&#45;projekt/src/graphic&#45;lib/include/TextureLoadingError.h</title>
<!-- Node1 -->
<g id="node1" class="node">
<title>Node1</title>
<g id="a_node1"><a xlink:title=" ">
<polygon fill="#bfbfbf" stroke="black" points="559.5,-78.5 559.5,-130.5 746.5,-130.5 746.5,-78.5 559.5,-78.5"/>
<text text-anchor="start" x="567.5" y="-118.5" font-family="Helvetica,sans-Serif" font-size="10.00">/home/tomek/CLionProjects</text>
<text text-anchor="start" x="567.5" y="-107.5" font-family="Helvetica,sans-Serif" font-size="10.00">/proi/proi&#45;projekt/src</text>
<text text-anchor="start" x="567.5" y="-96.5" font-family="Helvetica,sans-Serif" font-size="10.00">/graphic&#45;lib/include/TextureLoading</text>
<text text-anchor="middle" x="653" y="-85.5" font-family="Helvetica,sans-Serif" font-size="10.00">Error.h</text>
</a>
</g>
</g>
<!-- Node2 -->
<g id="node2" class="node">
<title>Node2</title>
<g id="a_node2"><a xlink:href="$_bullets_graphic_8cpp.html" xlink:title=" ">
<polygon fill="none" stroke="black" points="0,-0.5 0,-41.5 166,-41.5 166,-0.5 0,-0.5"/>
<text text-anchor="start" x="8" y="-29.5" font-family="Helvetica,sans-Serif" font-size="10.00">/home/tomek/CLionProjects</text>
<text text-anchor="start" x="8" y="-18.5" font-family="Helvetica,sans-Serif" font-size="10.00">/proi/proi&#45;projekt/src</text>
<text text-anchor="middle" x="83" y="-7.5" font-family="Helvetica,sans-Serif" font-size="10.00">/graphic&#45;lib/BulletsGraphic.cpp</text>
</a>
</g>
</g>
<!-- Node1&#45;&gt;Node2 -->
<g id="edge1" class="edge">
<title>Node1&#45;&gt;Node2</title>
<path fill="none" stroke="midnightblue" d="M549.11,-92.74C452.02,-82.07 303.21,-64.14 175,-42 172.1,-41.5 169.15,-40.97 166.18,-40.42"/>
<polygon fill="midnightblue" stroke="midnightblue" points="548.9,-96.24 559.22,-93.85 549.66,-89.28 548.9,-96.24"/>
</g>
<!-- Node3 -->
<g id="node3" class="node">
<title>Node3</title>
<g id="a_node3"><a xlink:href="$_eagle_graphic_8cpp.html" xlink:title=" ">
<polygon fill="none" stroke="black" points="184.5,-0.5 184.5,-41.5 343.5,-41.5 343.5,-0.5 184.5,-0.5"/>
<text text-anchor="start" x="192.5" y="-29.5" font-family="Helvetica,sans-Serif" font-size="10.00">/home/tomek/CLionProjects</text>
<text text-anchor="start" x="192.5" y="-18.5" font-family="Helvetica,sans-Serif" font-size="10.00">/proi/proi&#45;projekt/src</text>
<text text-anchor="middle" x="264" y="-7.5" font-family="Helvetica,sans-Serif" font-size="10.00">/graphic&#45;lib/EagleGraphic.cpp</text>
</a>
</g>
</g>
<!-- Node1&#45;&gt;Node3 -->
<g id="edge2" class="edge">
<title>Node1&#45;&gt;Node3</title>
<path fill="none" stroke="midnightblue" d="M549.45,-82.77C491.6,-71.07 418.23,-56.01 353,-42 349.9,-41.33 346.75,-40.65 343.56,-39.96"/>
<polygon fill="midnightblue" stroke="midnightblue" points="548.83,-86.22 559.33,-84.77 550.22,-79.36 548.83,-86.22"/>
</g>
<!-- Node4 -->
<g id="node4" class="node">
<title>Node4</title>
<g id="a_node4"><a xlink:href="$_game_info_graphic_8cpp.html" xlink:title=" ">
<polygon fill="none" stroke="black" points="362,-0.5 362,-41.5 542,-41.5 542,-0.5 362,-0.5"/>
<text text-anchor="start" x="370" y="-29.5" font-family="Helvetica,sans-Serif" font-size="10.00">/home/tomek/CLionProjects</text>
<text text-anchor="start" x="370" y="-18.5" font-family="Helvetica,sans-Serif" font-size="10.00">/proi/proi&#45;projekt/src</text>
<text text-anchor="middle" x="452" y="-7.5" font-family="Helvetica,sans-Serif" font-size="10.00">/graphic&#45;lib/GameInfoGraphic.cpp</text>
</a>
</g>
</g>
<!-- Node1&#45;&gt;Node4 -->
<g id="edge3" class="edge">
<title>Node1&#45;&gt;Node4</title>
<path fill="none" stroke="midnightblue" d="M581.89,-74.67C554.81,-63.69 524.61,-51.44 500.15,-41.52"/>
<polygon fill="midnightblue" stroke="midnightblue" points="580.75,-77.98 591.33,-78.49 583.38,-71.49 580.75,-77.98"/>
</g>
<!-- Node5 -->
<g id="node5" class="node">
<title>Node5</title>
<g id="a_node5"><a xlink:href="$_menu_state_graphic_8cpp.html" xlink:title=" ">
<polygon fill="none" stroke="black" points="560.5,-0.5 560.5,-41.5 745.5,-41.5 745.5,-0.5 560.5,-0.5"/>
<text text-anchor="start" x="568.5" y="-29.5" font-family="Helvetica,sans-Serif" font-size="10.00">/home/tomek/CLionProjects</text>
<text text-anchor="start" x="568.5" y="-18.5" font-family="Helvetica,sans-Serif" font-size="10.00">/proi/proi&#45;projekt/src</text>
<text text-anchor="middle" x="653" y="-7.5" font-family="Helvetica,sans-Serif" font-size="10.00">/graphic&#45;lib/MenuStateGraphic.cpp</text>
</a>
</g>
</g>
<!-- Node1&#45;&gt;Node5 -->
<g id="edge4" class="edge">
<title>Node1&#45;&gt;Node5</title>
<path fill="none" stroke="midnightblue" d="M653,-68.15C653,-59.05 653,-49.6 653,-41.63"/>
<polygon fill="midnightblue" stroke="midnightblue" points="649.5,-68.16 653,-78.16 656.5,-68.16 649.5,-68.16"/>
</g>
<!-- Node6 -->
<g id="node6" class="node">
<title>Node6</title>
<g id="a_node6"><a xlink:href="$_tanks_graphic_8cpp.html" xlink:title=" ">
<polygon fill="none" stroke="black" points="764,-0.5 764,-41.5 924,-41.5 924,-0.5 764,-0.5"/>
<text text-anchor="start" x="772" y="-29.5" font-family="Helvetica,sans-Serif" font-size="10.00">/home/tomek/CLionProjects</text>
<text text-anchor="start" x="772" y="-18.5" font-family="Helvetica,sans-Serif" font-size="10.00">/proi/proi&#45;projekt/src</text>
<text text-anchor="middle" x="844" y="-7.5" font-family="Helvetica,sans-Serif" font-size="10.00">/graphic&#45;lib/TanksGraphic.cpp</text>
</a>
</g>
</g>
<!-- Node1&#45;&gt;Node6 -->
<g id="edge5" class="edge">
<title>Node1&#45;&gt;Node6</title>
<path fill="none" stroke="midnightblue" d="M720.91,-74.52C746.55,-63.58 775.1,-51.4 798.24,-41.52"/>
<polygon fill="midnightblue" stroke="midnightblue" points="719.43,-71.35 711.6,-78.49 722.18,-77.79 719.43,-71.35"/>
</g>
<!-- Node7 -->
<g id="node7" class="node">
<title>Node7</title>
<g id="a_node7"><a xlink:href="$_texture_loading_error_8cpp.html" xlink:title=" ">
<polygon fill="none" stroke="black" points="942.5,-0.5 942.5,-41.5 1133.5,-41.5 1133.5,-0.5 942.5,-0.5"/>
<text text-anchor="start" x="950.5" y="-29.5" font-family="Helvetica,sans-Serif" font-size="10.00">/home/tomek/CLionProjects</text>
<text text-anchor="start" x="950.5" y="-18.5" font-family="Helvetica,sans-Serif" font-size="10.00">/proi/proi&#45;projekt/src</text>
<text text-anchor="middle" x="1038" y="-7.5" font-family="Helvetica,sans-Serif" font-size="10.00">/graphic&#45;lib/TextureLoadingError.cpp</text>
</a>
</g>
</g>
<!-- Node1&#45;&gt;Node7 -->
<g id="edge6" class="edge">
<title>Node1&#45;&gt;Node7</title>
<path fill="none" stroke="midnightblue" d="M756.76,-81.54C815.62,-69.07 888.67,-53.61 945.56,-41.57"/>
<polygon fill="midnightblue" stroke="midnightblue" points="755.75,-78.17 746.69,-83.67 757.2,-85.02 755.75,-78.17"/>
</g>
<!-- Node8 -->
<g id="node8" class="node">
<title>Node8</title>
<g id="a_node8"><a xlink:href="$_tiles_graphic_8cpp.html" xlink:title=" ">
<polygon fill="none" stroke="black" points="1151.5,-0.5 1151.5,-41.5 1306.5,-41.5 1306.5,-0.5 1151.5,-0.5"/>
<text text-anchor="start" x="1159.5" y="-29.5" font-family="Helvetica,sans-Serif" font-size="10.00">/home/tomek/CLionProjects</text>
<text text-anchor="start" x="1159.5" y="-18.5" font-family="Helvetica,sans-Serif" font-size="10.00">/proi/proi&#45;projekt/src</text>
<text text-anchor="middle" x="1229" y="-7.5" font-family="Helvetica,sans-Serif" font-size="10.00">/graphic&#45;lib/TilesGraphic.cpp</text>
</a>
</g>
</g>
<!-- Node1&#45;&gt;Node8 -->
<g id="edge7" class="edge">
<title>Node1&#45;&gt;Node8</title>
<path fill="none" stroke="midnightblue" d="M756.97,-93.61C856.48,-83.4 1010.6,-65.64 1143,-42 1145.72,-41.52 1148.48,-41 1151.26,-40.46"/>
<polygon fill="midnightblue" stroke="midnightblue" points="756.51,-90.14 746.92,-94.63 757.22,-97.1 756.51,-90.14"/>
</g>
</g>
</svg>
