<?xml version="1.0" encoding="UTF-8" standalone="no"?>
<!DOCTYPE svg PUBLIC "-//W3C//DTD SVG 1.1//EN"
 "http://www.w3.org/Graphics/SVG/1.1/DTD/svg11.dtd">
<!-- Generated by graphviz version 2.43.0 (0)
 -->
<!-- Title: KeyboardController Pages: 1 -->
<svg width="616pt" height="733pt"
 viewBox="0.00 0.00 615.50 733.00" xmlns="http://www.w3.org/2000/svg" xmlns:xlink="http://www.w3.org/1999/xlink">
<g id="graph0" class="graph" transform="scale(1 1) rotate(0) translate(4 729)">
<title>KeyboardController</title>
<!-- Node1 -->
<g id="node1" class="node">
<title>Node1</title>
<g id="a_node1"><a xlink:title=" ">
<polygon fill="#bfbfbf" stroke="black" points="179.5,-0.5 179.5,-134.5 341.5,-134.5 341.5,-0.5 179.5,-0.5"/>
<text text-anchor="middle" x="260.5" y="-122.5" font-family="Helvetica,sans-Serif" font-size="10.00">KeyboardController</text>
<polyline fill="none" stroke="black" points="179.5,-115.5 341.5,-115.5 "/>
<text text-anchor="middle" x="260.5" y="-103.5" font-family="Helvetica,sans-Serif" font-size="10.00"> </text>
<polyline fill="none" stroke="black" points="179.5,-96.5 341.5,-96.5 "/>
<text text-anchor="start" x="187.5" y="-84.5" font-family="Helvetica,sans-Serif" font-size="10.00">+ KeyboardController</text>
<text text-anchor="start" x="187.5" y="-73.5" font-family="Helvetica,sans-Serif" font-size="10.00">()=delete</text>
<text text-anchor="start" x="187.5" y="-62.5" font-family="Helvetica,sans-Serif" font-size="10.00">+ KeyboardController</text>
<text text-anchor="start" x="187.5" y="-51.5" font-family="Helvetica,sans-Serif" font-size="10.00">(sf::RenderWindow *window)</text>
<text text-anchor="start" x="187.5" y="-40.5" font-family="Helvetica,sans-Serif" font-size="10.00">+ void notify(SimplePublisher</text>
<text text-anchor="start" x="187.5" y="-29.5" font-family="Helvetica,sans-Serif" font-size="10.00"> *pub) override</text>
<text text-anchor="start" x="187.5" y="-18.5" font-family="Helvetica,sans-Serif" font-size="10.00">+ void fetchKeyboardEvent</text>
<text text-anchor="start" x="187.5" y="-7.5" font-family="Helvetica,sans-Serif" font-size="10.00">() const</text>
</a>
</g>
</g>
<!-- Node2 -->
<g id="node2" class="node">
<title>Node2</title>
<g id="a_node2"><a xlink:href="$class_simple_subscriber.html" xlink:title=" ">
<polygon fill="none" stroke="black" points="0,-193.5 0,-360.5 193,-360.5 193,-193.5 0,-193.5"/>
<text text-anchor="middle" x="96.5" y="-348.5" font-family="Helvetica,sans-Serif" font-size="10.00">SimpleSubscriber</text>
<polyline fill="none" stroke="black" points="0,-341.5 193,-341.5 "/>
<text text-anchor="middle" x="96.5" y="-329.5" font-family="Helvetica,sans-Serif" font-size="10.00"> </text>
<polyline fill="none" stroke="black" points="0,-322.5 193,-322.5 "/>
<text text-anchor="start" x="8" y="-310.5" font-family="Helvetica,sans-Serif" font-size="10.00">+ ~SimpleSubscriber()</text>
<text text-anchor="start" x="8" y="-299.5" font-family="Helvetica,sans-Serif" font-size="10.00">+ void subscribe(SimplePublisher</text>
<text text-anchor="start" x="8" y="-288.5" font-family="Helvetica,sans-Serif" font-size="10.00"> *pub)</text>
<text text-anchor="start" x="8" y="-277.5" font-family="Helvetica,sans-Serif" font-size="10.00">+ void unsubscribe(SimplePublisher</text>
<text text-anchor="start" x="8" y="-266.5" font-family="Helvetica,sans-Serif" font-size="10.00"> *pub)</text>
<text text-anchor="start" x="8" y="-255.5" font-family="Helvetica,sans-Serif" font-size="10.00">+ void removeDeletedSubject</text>
<text text-anchor="start" x="8" y="-244.5" font-family="Helvetica,sans-Serif" font-size="10.00">(SimplePublisher *pub)</text>
<text text-anchor="start" x="8" y="-233.5" font-family="Helvetica,sans-Serif" font-size="10.00">+ virtual void notify</text>
<text text-anchor="start" x="8" y="-222.5" font-family="Helvetica,sans-Serif" font-size="10.00">(SimplePublisher *pub)=0</text>
<text text-anchor="start" x="8" y="-211.5" font-family="Helvetica,sans-Serif" font-size="10.00"># SimpleSubscriber()</text>
<text text-anchor="start" x="8" y="-200.5" font-family="Helvetica,sans-Serif" font-size="10.00">=default</text>
</a>
</g>
</g>
<!-- Node2&#45;&gt;Node1 -->
<g id="edge1" class="edge">
<title>Node2&#45;&gt;Node1</title>
<path fill="none" stroke="midnightblue" d="M168.35,-185.09C181.79,-168.09 195.6,-150.61 208.31,-134.54"/>
<polygon fill="none" stroke="midnightblue" points="165.24,-183.38 161.79,-193.39 170.74,-187.72 165.24,-183.38"/>
</g>
<!-- Node3 -->
<g id="node3" class="node">
<title>Node3</title>
<g id="a_node3"><a xlink:title=" ">
<polygon fill="none" stroke="black" points="18,-485.5 18,-542.5 175,-542.5 175,-485.5 18,-485.5"/>
<text text-anchor="middle" x="96.5" y="-530.5" font-family="Helvetica,sans-Serif" font-size="10.00">vector&lt; SimplePublisher * &gt;</text>
<polyline fill="none" stroke="black" points="18,-523.5 175,-523.5 "/>
<text text-anchor="middle" x="96.5" y="-511.5" font-family="Helvetica,sans-Serif" font-size="10.00"> </text>
<polyline fill="none" stroke="black" points="18,-504.5 175,-504.5 "/>
<text text-anchor="middle" x="96.5" y="-492.5" font-family="Helvetica,sans-Serif" font-size="10.00"> </text>
</a>
</g>
</g>
<!-- Node3&#45;&gt;Node2 -->
<g id="edge2" class="edge">
<title>Node3&#45;&gt;Node2</title>
<path fill="none" stroke="#404040" d="M96.5,-485.12C96.5,-457.35 96.5,-413.14 96.5,-372.68"/>
<polygon fill="none" stroke="#404040" points="96.5,-372.54 92.5,-366.54 96.5,-360.54 100.5,-366.54 96.5,-372.54"/>
<text text-anchor="middle" x="152" y="-393" font-family="Helvetica,sans-Serif" font-size="10.00"> #subscribedSubjects_</text>
</g>
<!-- Node4 -->
<g id="node4" class="node">
<title>Node4</title>
<g id="a_node4"><a xlink:title=" ">
<polygon fill="none" stroke="black" points="211.5,-248.5 211.5,-305.5 309.5,-305.5 309.5,-248.5 211.5,-248.5"/>
<text text-anchor="middle" x="260.5" y="-293.5" font-family="Helvetica,sans-Serif" font-size="10.00">RenderWindow *</text>
<polyline fill="none" stroke="black" points="211.5,-286.5 309.5,-286.5 "/>
<text text-anchor="middle" x="260.5" y="-274.5" font-family="Helvetica,sans-Serif" font-size="10.00"> </text>
<polyline fill="none" stroke="black" points="211.5,-267.5 309.5,-267.5 "/>
<text text-anchor="middle" x="260.5" y="-255.5" font-family="Helvetica,sans-Serif" font-size="10.00"> </text>
</a>
</g>
</g>
<!-- Node4&#45;&gt;Node1 -->
<g id="edge3" class="edge">
<title>Node4&#45;&gt;Node1</title>
<path fill="none" stroke="#404040" d="M260.5,-248.45C260.5,-222.61 260.5,-182.72 260.5,-147.06"/>
<polygon fill="none" stroke="#404040" points="260.5,-146.65 256.5,-140.65 260.5,-134.65 264.5,-140.65 260.5,-146.65"/>
<text text-anchor="middle" x="288" y="-156" font-family="Helvetica,sans-Serif" font-size="10.00"> +window_</text>
</g>
<!-- Node5 -->
<g id="node5" class="node">
<title>Node5</title>
<g id="a_node5"><a xlink:href="$class_event_queue.html" xlink:title=" ">
<polygon fill="none" stroke="black" points="327.5,-182.5 327.5,-371.5 477.5,-371.5 477.5,-182.5 327.5,-182.5"/>
<text text-anchor="middle" x="402.5" y="-359.5" font-family="Helvetica,sans-Serif" font-size="10.00">EventQueue&lt; Event &gt;</text>
<polyline fill="none" stroke="black" points="327.5,-352.5 477.5,-352.5 "/>
<text text-anchor="middle" x="402.5" y="-340.5" font-family="Helvetica,sans-Serif" font-size="10.00"> </text>
<polyline fill="none" stroke="black" points="327.5,-333.5 477.5,-333.5 "/>
<text text-anchor="start" x="335.5" y="-321.5" font-family="Helvetica,sans-Serif" font-size="10.00">+ EventQueue(EventQueue</text>
<text text-anchor="start" x="335.5" y="-310.5" font-family="Helvetica,sans-Serif" font-size="10.00"> &amp;)=delete</text>
<text text-anchor="start" x="335.5" y="-299.5" font-family="Helvetica,sans-Serif" font-size="10.00">+ bool operator=(const</text>
<text text-anchor="start" x="335.5" y="-288.5" font-family="Helvetica,sans-Serif" font-size="10.00"> EventQueue &amp;)=delete</text>
<text text-anchor="start" x="335.5" y="-277.5" font-family="Helvetica,sans-Serif" font-size="10.00">+ void registerEvent</text>
<text text-anchor="start" x="335.5" y="-266.5" font-family="Helvetica,sans-Serif" font-size="10.00">(std::unique_ptr&lt; Event</text>
<text text-anchor="start" x="335.5" y="-255.5" font-family="Helvetica,sans-Serif" font-size="10.00"> &gt; event)</text>
<text text-anchor="start" x="335.5" y="-244.5" font-family="Helvetica,sans-Serif" font-size="10.00">+ std::unique_ptr&lt; Event</text>
<text text-anchor="start" x="335.5" y="-233.5" font-family="Helvetica,sans-Serif" font-size="10.00"> &gt; pop()</text>
<text text-anchor="start" x="335.5" y="-222.5" font-family="Helvetica,sans-Serif" font-size="10.00">+ bool isEmpty()</text>
<text text-anchor="start" x="335.5" y="-211.5" font-family="Helvetica,sans-Serif" font-size="10.00">+ static EventQueue *</text>
<text text-anchor="start" x="335.5" y="-200.5" font-family="Helvetica,sans-Serif" font-size="10.00"> instance()</text>
<text text-anchor="start" x="335.5" y="-189.5" font-family="Helvetica,sans-Serif" font-size="10.00">&#45; EventQueue()=default</text>
</a>
</g>
</g>
<!-- Node5&#45;&gt;Node1 -->
<g id="edge4" class="edge">
<title>Node5&#45;&gt;Node1</title>
<path fill="none" stroke="#404040" d="M339.44,-182.21C332.73,-172.33 325.99,-162.45 319.5,-153 317.66,-150.33 315.79,-147.61 313.9,-144.86"/>
<polygon fill="none" stroke="#404040" points="313.8,-144.72 307.1,-142.06 306.98,-134.85 313.68,-137.51 313.8,-144.72"/>
<text text-anchor="middle" x="364.5" y="-156" font-family="Helvetica,sans-Serif" font-size="10.00"> +eventQueue_</text>
</g>
<!-- Node6 -->
<g id="node6" class="node">
<title>Node6</title>
<g id="a_node6"><a xlink:href="$classstd_1_1queue_3_01std_1_1unique__ptr_3_01_event_01_4_01_4.html" xlink:title=" ">
<polygon fill="none" stroke="black" points="254.5,-480 254.5,-548 366.5,-548 366.5,-480 254.5,-480"/>
<text text-anchor="start" x="262.5" y="-536" font-family="Helvetica,sans-Serif" font-size="10.00">queue&lt; std::unique</text>
<text text-anchor="middle" x="310.5" y="-525" font-family="Helvetica,sans-Serif" font-size="10.00">_ptr&lt; Event &gt; &gt;</text>
<polyline fill="none" stroke="black" points="254.5,-518 366.5,-518 "/>
<text text-anchor="middle" x="310.5" y="-506" font-family="Helvetica,sans-Serif" font-size="10.00"> </text>
<polyline fill="none" stroke="black" points="254.5,-499 366.5,-499 "/>
<text text-anchor="middle" x="310.5" y="-487" font-family="Helvetica,sans-Serif" font-size="10.00"> </text>
</a>
</g>
</g>
<!-- Node6&#45;&gt;Node5 -->
<g id="edge5" class="edge">
<title>Node6&#45;&gt;Node5</title>
<path fill="none" stroke="#404040" d="M315.32,-479.84C319.62,-454.63 327.05,-419.39 338.5,-390 339.42,-387.64 340.39,-385.26 341.39,-382.88"/>
<polygon fill="none" stroke="#404040" points="341.47,-382.71 340.25,-375.6 346.34,-371.74 347.56,-378.85 341.47,-382.71"/>
<text text-anchor="middle" x="363.5" y="-393" font-family="Helvetica,sans-Serif" font-size="10.00"> #events_</text>
</g>
<!-- Node7 -->
<g id="node7" class="node">
<title>Node7</title>
<g id="a_node7"><a xlink:title=" ">
<polygon fill="none" stroke="black" points="327.5,-662 327.5,-719 477.5,-719 477.5,-662 327.5,-662"/>
<text text-anchor="middle" x="402.5" y="-707" font-family="Helvetica,sans-Serif" font-size="10.00">unique_ptr&lt; EventQueue &gt;</text>
<polyline fill="none" stroke="black" points="327.5,-700 477.5,-700 "/>
<text text-anchor="middle" x="402.5" y="-688" font-family="Helvetica,sans-Serif" font-size="10.00"> </text>
<polyline fill="none" stroke="black" points="327.5,-681 477.5,-681 "/>
<text text-anchor="middle" x="402.5" y="-669" font-family="Helvetica,sans-Serif" font-size="10.00"> </text>
</a>
</g>
</g>
<!-- Node7&#45;&gt;Node5 -->
<g id="edge6" class="edge">
<title>Node7&#45;&gt;Node5</title>
<path fill="none" stroke="#404040" d="M402.5,-661.86C402.5,-605.93 402.5,-476.73 402.5,-383.66"/>
<polygon fill="none" stroke="#404040" points="402.5,-383.64 398.5,-377.64 402.5,-371.64 406.5,-377.64 402.5,-383.64"/>
<text text-anchor="middle" x="420" y="-511.5" font-family="Helvetica,sans-Serif" font-size="10.00"> #self_</text>
</g>
<!-- Node8 -->
<g id="node8" class="node">
<title>Node8</title>
<g id="a_node8"><a xlink:href="$class_event_queue.html" xlink:title="Singleton class wrapper for std::queue&lt;E&gt;.">
<polygon fill="none" stroke="black" points="455.5,-419.5 455.5,-608.5 605.5,-608.5 605.5,-419.5 455.5,-419.5"/>
<text text-anchor="middle" x="530.5" y="-596.5" font-family="Helvetica,sans-Serif" font-size="10.00">EventQueue&lt; E &gt;</text>
<polyline fill="none" stroke="black" points="455.5,-589.5 605.5,-589.5 "/>
<text text-anchor="middle" x="530.5" y="-577.5" font-family="Helvetica,sans-Serif" font-size="10.00"> </text>
<polyline fill="none" stroke="black" points="455.5,-570.5 605.5,-570.5 "/>
<text text-anchor="start" x="463.5" y="-558.5" font-family="Helvetica,sans-Serif" font-size="10.00">+ EventQueue(EventQueue</text>
<text text-anchor="start" x="463.5" y="-547.5" font-family="Helvetica,sans-Serif" font-size="10.00"> &amp;)=delete</text>
<text text-anchor="start" x="463.5" y="-536.5" font-family="Helvetica,sans-Serif" font-size="10.00">+ bool operator=(const</text>
<text text-anchor="start" x="463.5" y="-525.5" font-family="Helvetica,sans-Serif" font-size="10.00"> EventQueue &amp;)=delete</text>
<text text-anchor="start" x="463.5" y="-514.5" font-family="Helvetica,sans-Serif" font-size="10.00">+ void registerEvent</text>
<text text-anchor="start" x="463.5" y="-503.5" font-family="Helvetica,sans-Serif" font-size="10.00">(std::unique_ptr&lt; E</text>
<text text-anchor="start" x="463.5" y="-492.5" font-family="Helvetica,sans-Serif" font-size="10.00"> &gt; event)</text>
<text text-anchor="start" x="463.5" y="-481.5" font-family="Helvetica,sans-Serif" font-size="10.00">+ std::unique_ptr&lt; E</text>
<text text-anchor="start" x="463.5" y="-470.5" font-family="Helvetica,sans-Serif" font-size="10.00"> &gt; pop()</text>
<text text-anchor="start" x="463.5" y="-459.5" font-family="Helvetica,sans-Serif" font-size="10.00">+ bool isEmpty()</text>
<text text-anchor="start" x="463.5" y="-448.5" font-family="Helvetica,sans-Serif" font-size="10.00">+ static EventQueue *</text>
<text text-anchor="start" x="463.5" y="-437.5" font-family="Helvetica,sans-Serif" font-size="10.00"> instance()</text>
<text text-anchor="start" x="463.5" y="-426.5" font-family="Helvetica,sans-Serif" font-size="10.00">&#45; EventQueue()=default</text>
</a>
</g>
</g>
<!-- Node7&#45;&gt;Node8 -->
<g id="edge9" class="edge">
<title>Node7&#45;&gt;Node8</title>
<path fill="none" stroke="#404040" d="M422.78,-661.85C431.71,-649.67 442.82,-634.53 454.48,-618.63"/>
<polygon fill="none" stroke="#404040" points="454.7,-618.34 455.02,-611.13 461.8,-608.66 461.47,-615.86 454.7,-618.34"/>
<text text-anchor="middle" x="466" y="-630" font-family="Helvetica,sans-Serif" font-size="10.00"> #self_</text>
</g>
<!-- Node8&#45;&gt;Node5 -->
<g id="edge7" class="edge">
<title>Node8&#45;&gt;Node5</title>
<path fill="none" stroke="orange" d="M474.69,-410.54C467.64,-397.6 460.46,-384.41 453.49,-371.62"/>
<polygon fill="orange" stroke="orange" points="471.69,-412.34 479.54,-419.45 477.83,-408.99 471.69,-412.34"/>
<text text-anchor="middle" x="493.5" y="-393" font-family="Helvetica,sans-Serif" font-size="10.00"> &lt; Event &gt;</text>
</g>
<!-- Node9 -->
<g id="node9" class="node">
<title>Node9</title>
<g id="a_node9"><a xlink:title=" ">
<polygon fill="none" stroke="black" points="495.5,-656.5 495.5,-724.5 607.5,-724.5 607.5,-656.5 495.5,-656.5"/>
<text text-anchor="start" x="503.5" y="-712.5" font-family="Helvetica,sans-Serif" font-size="10.00">queue&lt; std::unique</text>
<text text-anchor="middle" x="551.5" y="-701.5" font-family="Helvetica,sans-Serif" font-size="10.00">_ptr&lt; E &gt; &gt;</text>
<polyline fill="none" stroke="black" points="495.5,-694.5 607.5,-694.5 "/>
<text text-anchor="middle" x="551.5" y="-682.5" font-family="Helvetica,sans-Serif" font-size="10.00"> </text>
<polyline fill="none" stroke="black" points="495.5,-675.5 607.5,-675.5 "/>
<text text-anchor="middle" x="551.5" y="-663.5" font-family="Helvetica,sans-Serif" font-size="10.00"> </text>
</a>
</g>
</g>
<!-- Node9&#45;&gt;Node8 -->
<g id="edge8" class="edge">
<title>Node9&#45;&gt;Node8</title>
<path fill="none" stroke="#404040" d="M547.5,-656.27C546.25,-645.85 544.79,-633.74 543.27,-621.08"/>
<polygon fill="none" stroke="#404040" points="543.22,-620.71 538.53,-615.23 541.79,-608.8 546.48,-614.28 543.22,-620.71"/>
<text text-anchor="middle" x="570.5" y="-630" font-family="Helvetica,sans-Serif" font-size="10.00"> #events_</text>
</g>
</g>
</svg>
