<?xml version="1.0" encoding="UTF-8" standalone="no"?>
<!DOCTYPE svg PUBLIC "-//W3C//DTD SVG 1.1//EN"
 "http://www.w3.org/Graphics/SVG/1.1/DTD/svg11.dtd">
<!-- Generated by graphviz version 2.43.0 (0)
 -->
<!-- Title: FastTank Pages: 1 -->
<svg width="507pt" height="870pt"
 viewBox="0.00 0.00 507.00 870.00" xmlns="http://www.w3.org/2000/svg" xmlns:xlink="http://www.w3.org/1999/xlink">
<g id="graph0" class="graph" transform="scale(1 1) rotate(0) translate(4 866)">
<title>FastTank</title>
<!-- Node1 -->
<g id="node1" class="node">
<title>Node1</title>
<g id="a_node1"><a xlink:title=" ">
<polygon fill="#bfbfbf" stroke="black" points="137.5,-0.5 137.5,-90.5 253.5,-90.5 253.5,-0.5 137.5,-0.5"/>
<text text-anchor="middle" x="195.5" y="-78.5" font-family="Helvetica,sans-Serif" font-size="10.00">FastTank</text>
<polyline fill="none" stroke="black" points="137.5,-71.5 253.5,-71.5 "/>
<text text-anchor="middle" x="195.5" y="-59.5" font-family="Helvetica,sans-Serif" font-size="10.00"> </text>
<polyline fill="none" stroke="black" points="137.5,-52.5 253.5,-52.5 "/>
<text text-anchor="start" x="145.5" y="-40.5" font-family="Helvetica,sans-Serif" font-size="10.00">+ FastTank()=delete</text>
<text text-anchor="start" x="145.5" y="-29.5" font-family="Helvetica,sans-Serif" font-size="10.00">+ FastTank(float x,</text>
<text text-anchor="start" x="145.5" y="-18.5" font-family="Helvetica,sans-Serif" font-size="10.00"> float y, Direction</text>
<text text-anchor="start" x="145.5" y="-7.5" font-family="Helvetica,sans-Serif" font-size="10.00"> facing=North)</text>
</a>
</g>
</g>
<!-- Node2 -->
<g id="node2" class="node">
<title>Node2</title>
<g id="a_node2"><a xlink:href="$class_tank.html" xlink:title="Base class for tank representation.">
<polygon fill="none" stroke="black" points="15,-127.5 15,-558.5 184,-558.5 184,-127.5 15,-127.5"/>
<text text-anchor="middle" x="99.5" y="-546.5" font-family="Helvetica,sans-Serif" font-size="10.00">Tank</text>
<polyline fill="none" stroke="black" points="15,-539.5 184,-539.5 "/>
<text text-anchor="start" x="23" y="-527.5" font-family="Helvetica,sans-Serif" font-size="10.00"># TankType type_</text>
<text text-anchor="start" x="23" y="-516.5" font-family="Helvetica,sans-Serif" font-size="10.00"># unsigned int lives_</text>
<text text-anchor="start" x="23" y="-505.5" font-family="Helvetica,sans-Serif" font-size="10.00"># bool moving_</text>
<text text-anchor="start" x="23" y="-494.5" font-family="Helvetica,sans-Serif" font-size="10.00"># unsigned int points_</text>
<text text-anchor="start" x="23" y="-483.5" font-family="Helvetica,sans-Serif" font-size="10.00"># float bulletSpeed_</text>
<polyline fill="none" stroke="black" points="15,-476.5 184,-476.5 "/>
<text text-anchor="start" x="23" y="-464.5" font-family="Helvetica,sans-Serif" font-size="10.00">+ void setFacing(Direction</text>
<text text-anchor="start" x="23" y="-453.5" font-family="Helvetica,sans-Serif" font-size="10.00"> direction)</text>
<text text-anchor="start" x="23" y="-442.5" font-family="Helvetica,sans-Serif" font-size="10.00">+ bool move() override</text>
<text text-anchor="start" x="23" y="-431.5" font-family="Helvetica,sans-Serif" font-size="10.00">+ bool moveBack() override</text>
<text text-anchor="start" x="23" y="-420.5" font-family="Helvetica,sans-Serif" font-size="10.00">+ void deltaLives(int</text>
<text text-anchor="start" x="23" y="-409.5" font-family="Helvetica,sans-Serif" font-size="10.00"> delta_l)</text>
<text text-anchor="start" x="23" y="-398.5" font-family="Helvetica,sans-Serif" font-size="10.00">+ TankType getType()</text>
<text text-anchor="start" x="23" y="-387.5" font-family="Helvetica,sans-Serif" font-size="10.00"> const</text>
<text text-anchor="start" x="23" y="-376.5" font-family="Helvetica,sans-Serif" font-size="10.00">+ unsigned int getLives</text>
<text text-anchor="start" x="23" y="-365.5" font-family="Helvetica,sans-Serif" font-size="10.00">() const</text>
<text text-anchor="start" x="23" y="-354.5" font-family="Helvetica,sans-Serif" font-size="10.00">+ void setMoving(bool</text>
<text text-anchor="start" x="23" y="-343.5" font-family="Helvetica,sans-Serif" font-size="10.00"> isMoving)</text>
<text text-anchor="start" x="23" y="-332.5" font-family="Helvetica,sans-Serif" font-size="10.00">+ bool isMoving() const</text>
<text text-anchor="start" x="23" y="-321.5" font-family="Helvetica,sans-Serif" font-size="10.00">+ unsigned int getPoints</text>
<text text-anchor="start" x="23" y="-310.5" font-family="Helvetica,sans-Serif" font-size="10.00">() const</text>
<text text-anchor="start" x="23" y="-299.5" font-family="Helvetica,sans-Serif" font-size="10.00">+ void setX(float x)</text>
<text text-anchor="start" x="23" y="-288.5" font-family="Helvetica,sans-Serif" font-size="10.00">+ void setY(float y)</text>
<text text-anchor="start" x="23" y="-277.5" font-family="Helvetica,sans-Serif" font-size="10.00">+ void offsetInCurrentDirection</text>
<text text-anchor="start" x="23" y="-266.5" font-family="Helvetica,sans-Serif" font-size="10.00">(float offset)</text>
<text text-anchor="start" x="23" y="-255.5" font-family="Helvetica,sans-Serif" font-size="10.00">+ std::optional&lt; std</text>
<text text-anchor="start" x="23" y="-244.5" font-family="Helvetica,sans-Serif" font-size="10.00">::shared_ptr&lt; Bullet</text>
<text text-anchor="start" x="23" y="-233.5" font-family="Helvetica,sans-Serif" font-size="10.00"> &gt; &gt; createBullet()</text>
<text text-anchor="start" x="23" y="-222.5" font-family="Helvetica,sans-Serif" font-size="10.00">+ void notify(SimplePublisher</text>
<text text-anchor="start" x="23" y="-211.5" font-family="Helvetica,sans-Serif" font-size="10.00"> *pub) override</text>
<text text-anchor="start" x="23" y="-200.5" font-family="Helvetica,sans-Serif" font-size="10.00">+ std::optional&lt; Bullet</text>
<text text-anchor="start" x="23" y="-189.5" font-family="Helvetica,sans-Serif" font-size="10.00"> * &gt; getBullet()</text>
<text text-anchor="start" x="23" y="-178.5" font-family="Helvetica,sans-Serif" font-size="10.00"># Tank(TankType type,</text>
<text text-anchor="start" x="23" y="-167.5" font-family="Helvetica,sans-Serif" font-size="10.00"> float x, float y, float</text>
<text text-anchor="start" x="23" y="-156.5" font-family="Helvetica,sans-Serif" font-size="10.00"> speed, float bulletSpeed,</text>
<text text-anchor="start" x="23" y="-145.5" font-family="Helvetica,sans-Serif" font-size="10.00"> unsigned int lives, Direction</text>
<text text-anchor="start" x="23" y="-134.5" font-family="Helvetica,sans-Serif" font-size="10.00"> direction, unsigned int points)</text>
</a>
</g>
</g>
<!-- Node2&#45;&gt;Node1 -->
<g id="edge1" class="edge">
<title>Node2&#45;&gt;Node1</title>
<path fill="none" stroke="midnightblue" d="M172.44,-117.49C175.54,-107.92 178.46,-98.95 181.1,-90.82"/>
<polygon fill="none" stroke="midnightblue" points="169.03,-116.65 169.27,-127.25 175.69,-118.82 169.03,-116.65"/>
</g>
<!-- Node3 -->
<g id="node3" class="node">
<title>Node3</title>
<g id="a_node3"><a xlink:href="$class_entity.html" xlink:title=" ">
<polygon fill="none" stroke="black" points="211.5,-595.5 211.5,-861.5 371.5,-861.5 371.5,-595.5 211.5,-595.5"/>
<text text-anchor="middle" x="291.5" y="-849.5" font-family="Helvetica,sans-Serif" font-size="10.00">Entity</text>
<polyline fill="none" stroke="black" points="211.5,-842.5 371.5,-842.5 "/>
<text text-anchor="start" x="219.5" y="-830.5" font-family="Helvetica,sans-Serif" font-size="10.00"># float x_</text>
<text text-anchor="start" x="219.5" y="-819.5" font-family="Helvetica,sans-Serif" font-size="10.00"># float y_</text>
<text text-anchor="start" x="219.5" y="-808.5" font-family="Helvetica,sans-Serif" font-size="10.00"># float size_x_</text>
<text text-anchor="start" x="219.5" y="-797.5" font-family="Helvetica,sans-Serif" font-size="10.00"># float size_y_</text>
<text text-anchor="start" x="219.5" y="-786.5" font-family="Helvetica,sans-Serif" font-size="10.00"># float speed_</text>
<text text-anchor="start" x="219.5" y="-775.5" font-family="Helvetica,sans-Serif" font-size="10.00"># Direction facing_</text>
<polyline fill="none" stroke="black" points="211.5,-768.5 371.5,-768.5 "/>
<text text-anchor="start" x="219.5" y="-756.5" font-family="Helvetica,sans-Serif" font-size="10.00">+ virtual ~Entity()=default</text>
<text text-anchor="start" x="219.5" y="-745.5" font-family="Helvetica,sans-Serif" font-size="10.00">+ virtual bool move()=0</text>
<text text-anchor="start" x="219.5" y="-734.5" font-family="Helvetica,sans-Serif" font-size="10.00">+ virtual bool moveBack()=0</text>
<text text-anchor="start" x="219.5" y="-723.5" font-family="Helvetica,sans-Serif" font-size="10.00">+ float getX() const</text>
<text text-anchor="start" x="219.5" y="-712.5" font-family="Helvetica,sans-Serif" font-size="10.00">+ float getY() const</text>
<text text-anchor="start" x="219.5" y="-701.5" font-family="Helvetica,sans-Serif" font-size="10.00">+ float getSpeed() const</text>
<text text-anchor="start" x="219.5" y="-690.5" font-family="Helvetica,sans-Serif" font-size="10.00">+ Direction getFacing</text>
<text text-anchor="start" x="219.5" y="-679.5" font-family="Helvetica,sans-Serif" font-size="10.00">() const</text>
<text text-anchor="start" x="219.5" y="-668.5" font-family="Helvetica,sans-Serif" font-size="10.00">+ float getSizeX() const</text>
<text text-anchor="start" x="219.5" y="-657.5" font-family="Helvetica,sans-Serif" font-size="10.00">+ float getSizeY() const</text>
<text text-anchor="start" x="219.5" y="-646.5" font-family="Helvetica,sans-Serif" font-size="10.00"># Entity()=default</text>
<text text-anchor="start" x="219.5" y="-635.5" font-family="Helvetica,sans-Serif" font-size="10.00"># Entity(float x, float</text>
<text text-anchor="start" x="219.5" y="-624.5" font-family="Helvetica,sans-Serif" font-size="10.00"> y, float sizeX, float</text>
<text text-anchor="start" x="219.5" y="-613.5" font-family="Helvetica,sans-Serif" font-size="10.00"> sizeY, float speed, Direction</text>
<text text-anchor="start" x="219.5" y="-602.5" font-family="Helvetica,sans-Serif" font-size="10.00"> facing)</text>
</a>
</g>
</g>
<!-- Node3&#45;&gt;Node2 -->
<g id="edge2" class="edge">
<title>Node3&#45;&gt;Node2</title>
<path fill="none" stroke="midnightblue" d="M207.93,-586.51C202.93,-577.26 198.08,-568.03 193.5,-559 190.37,-552.82 187.24,-546.52 184.12,-540.13"/>
<polygon fill="none" stroke="midnightblue" points="204.9,-588.27 212.76,-595.38 211.05,-584.92 204.9,-588.27"/>
</g>
<!-- Node5 -->
<g id="node5" class="node">
<title>Node5</title>
<g id="a_node5"><a xlink:href="$class_bot.html" xlink:title=" ">
<polygon fill="none" stroke="black" points="202,-254 202,-432 381,-432 381,-254 202,-254"/>
<text text-anchor="middle" x="291.5" y="-420" font-family="Helvetica,sans-Serif" font-size="10.00">Bot</text>
<polyline fill="none" stroke="black" points="202,-413 381,-413 "/>
<text text-anchor="start" x="210" y="-401" font-family="Helvetica,sans-Serif" font-size="10.00"># unsigned int maxDecision</text>
<text text-anchor="start" x="210" y="-390" font-family="Helvetica,sans-Serif" font-size="10.00">Cooldown</text>
<text text-anchor="start" x="210" y="-379" font-family="Helvetica,sans-Serif" font-size="10.00"># unsigned int decisionCooldown</text>
<text text-anchor="start" x="210" y="-368" font-family="Helvetica,sans-Serif" font-size="10.00"># BotController * botController</text>
<polyline fill="none" stroke="black" points="202,-361 381,-361 "/>
<text text-anchor="start" x="210" y="-349" font-family="Helvetica,sans-Serif" font-size="10.00">+ ~Bot() override</text>
<text text-anchor="start" x="210" y="-338" font-family="Helvetica,sans-Serif" font-size="10.00">+ void notify(SimplePublisher</text>
<text text-anchor="start" x="210" y="-327" font-family="Helvetica,sans-Serif" font-size="10.00"> *pub) override</text>
<text text-anchor="start" x="210" y="-316" font-family="Helvetica,sans-Serif" font-size="10.00">+ void requestDecision()</text>
<text text-anchor="start" x="210" y="-305" font-family="Helvetica,sans-Serif" font-size="10.00"># Bot()=default</text>
<text text-anchor="start" x="210" y="-294" font-family="Helvetica,sans-Serif" font-size="10.00"># Bot(float x, float</text>
<text text-anchor="start" x="210" y="-283" font-family="Helvetica,sans-Serif" font-size="10.00"> y, float sizeX, float</text>
<text text-anchor="start" x="210" y="-272" font-family="Helvetica,sans-Serif" font-size="10.00"> sizeY, float speed, Direction</text>
<text text-anchor="start" x="210" y="-261" font-family="Helvetica,sans-Serif" font-size="10.00"> facing)</text>
</a>
</g>
</g>
<!-- Node3&#45;&gt;Node5 -->
<g id="edge5" class="edge">
<title>Node3&#45;&gt;Node5</title>
<path fill="none" stroke="midnightblue" d="M291.5,-585.06C291.5,-533.76 291.5,-477.4 291.5,-432.09"/>
<polygon fill="none" stroke="midnightblue" points="288,-585.25 291.5,-595.25 295,-585.25 288,-585.25"/>
</g>
<!-- Node4 -->
<g id="node4" class="node">
<title>Node4</title>
<g id="a_node4"><a xlink:href="$class_simple_subscriber.html" xlink:title=" ">
<polygon fill="none" stroke="black" points="0,-639.5 0,-817.5 193,-817.5 193,-639.5 0,-639.5"/>
<text text-anchor="middle" x="96.5" y="-805.5" font-family="Helvetica,sans-Serif" font-size="10.00">SimpleSubscriber</text>
<polyline fill="none" stroke="black" points="0,-798.5 193,-798.5 "/>
<text text-anchor="start" x="8" y="-786.5" font-family="Helvetica,sans-Serif" font-size="10.00"># std::vector&lt; SimplePublisher</text>
<text text-anchor="start" x="8" y="-775.5" font-family="Helvetica,sans-Serif" font-size="10.00"> * &gt; subscribedSubjects_</text>
<polyline fill="none" stroke="black" points="0,-768.5 193,-768.5 "/>
<text text-anchor="start" x="8" y="-756.5" font-family="Helvetica,sans-Serif" font-size="10.00">+ ~SimpleSubscriber()</text>
<text text-anchor="start" x="8" y="-745.5" font-family="Helvetica,sans-Serif" font-size="10.00">+ void subscribe(SimplePublisher</text>
<text text-anchor="start" x="8" y="-734.5" font-family="Helvetica,sans-Serif" font-size="10.00"> *pub)</text>
<text text-anchor="start" x="8" y="-723.5" font-family="Helvetica,sans-Serif" font-size="10.00">+ void unsubscribe(SimplePublisher</text>
<text text-anchor="start" x="8" y="-712.5" font-family="Helvetica,sans-Serif" font-size="10.00"> *pub)</text>
<text text-anchor="start" x="8" y="-701.5" font-family="Helvetica,sans-Serif" font-size="10.00">+ void removeDeletedSubject</text>
<text text-anchor="start" x="8" y="-690.5" font-family="Helvetica,sans-Serif" font-size="10.00">(SimplePublisher *pub)</text>
<text text-anchor="start" x="8" y="-679.5" font-family="Helvetica,sans-Serif" font-size="10.00">+ virtual void notify</text>
<text text-anchor="start" x="8" y="-668.5" font-family="Helvetica,sans-Serif" font-size="10.00">(SimplePublisher *pub)=0</text>
<text text-anchor="start" x="8" y="-657.5" font-family="Helvetica,sans-Serif" font-size="10.00"># SimpleSubscriber()</text>
<text text-anchor="start" x="8" y="-646.5" font-family="Helvetica,sans-Serif" font-size="10.00">=default</text>
</a>
</g>
</g>
<!-- Node4&#45;&gt;Node2 -->
<g id="edge3" class="edge">
<title>Node4&#45;&gt;Node2</title>
<path fill="none" stroke="midnightblue" d="M97.27,-628.84C97.44,-607.02 97.63,-583.09 97.82,-558.65"/>
<polygon fill="none" stroke="midnightblue" points="93.77,-629.01 97.19,-639.04 100.77,-629.06 93.77,-629.01"/>
</g>
<!-- Node4&#45;&gt;Node5 -->
<g id="edge6" class="edge">
<title>Node4&#45;&gt;Node5</title>
<path fill="none" stroke="midnightblue" d="M153.77,-630.3C166.89,-607.14 180.49,-582.37 192.5,-559 213.63,-517.88 235.31,-471.38 252.97,-432.17"/>
<polygon fill="none" stroke="midnightblue" points="150.67,-628.67 148.77,-639.09 156.76,-632.13 150.67,-628.67"/>
</g>
<!-- Node5&#45;&gt;Node1 -->
<g id="edge4" class="edge">
<title>Node5&#45;&gt;Node1</title>
<path fill="none" stroke="midnightblue" d="M259.72,-244.17C242.87,-192.31 223,-131.14 209.87,-90.73"/>
<polygon fill="none" stroke="midnightblue" points="256.41,-245.31 262.83,-253.74 263.07,-243.15 256.41,-245.31"/>
</g>
<!-- Node6 -->
<g id="node6" class="node">
<title>Node6</title>
<g id="a_node6"><a xlink:title=" ">
<polygon fill="none" stroke="black" points="390,-694.5 390,-762.5 499,-762.5 499,-694.5 390,-694.5"/>
<text text-anchor="start" x="398" y="-750.5" font-family="Helvetica,sans-Serif" font-size="10.00">std::enable_shared</text>
<text text-anchor="middle" x="444.5" y="-739.5" font-family="Helvetica,sans-Serif" font-size="10.00">_from_this&lt; Bot &gt;</text>
<polyline fill="none" stroke="black" points="390,-732.5 499,-732.5 "/>
<text text-anchor="middle" x="444.5" y="-720.5" font-family="Helvetica,sans-Serif" font-size="10.00"> </text>
<polyline fill="none" stroke="black" points="390,-713.5 499,-713.5 "/>
<text text-anchor="middle" x="444.5" y="-701.5" font-family="Helvetica,sans-Serif" font-size="10.00"> </text>
</a>
</g>
</g>
<!-- Node6&#45;&gt;Node5 -->
<g id="edge7" class="edge">
<title>Node6&#45;&gt;Node5</title>
<path fill="none" stroke="midnightblue" d="M427.48,-684.83C403.26,-624.14 358.31,-511.47 326.74,-432.33"/>
<polygon fill="none" stroke="midnightblue" points="424.37,-686.48 431.32,-694.47 430.87,-683.89 424.37,-686.48"/>
</g>
</g>
</svg>
