<?xml version="1.0" encoding="UTF-8" standalone="no"?>
<!DOCTYPE svg PUBLIC "-//W3C//DTD SVG 1.1//EN"
 "http://www.w3.org/Graphics/SVG/1.1/DTD/svg11.dtd">
<!-- Generated by graphviz version 2.43.0 (0)
 -->
<!-- Title: GameStatistics Pages: 1 -->
<svg width="516pt" height="942pt"
 viewBox="0.00 0.00 515.50 942.00" xmlns="http://www.w3.org/2000/svg" xmlns:xlink="http://www.w3.org/1999/xlink">
<g id="graph0" class="graph" transform="scale(1 1) rotate(0) translate(4 938)">
<title>GameStatistics</title>
<!-- Node1 -->
<g id="node1" class="node">
<title>Node1</title>
<g id="a_node1"><a xlink:title=" ">
<polygon fill="#bfbfbf" stroke="black" points="77.5,-0.5 77.5,-277.5 227.5,-277.5 227.5,-0.5 77.5,-0.5"/>
<text text-anchor="middle" x="152.5" y="-265.5" font-family="Helvetica,sans-Serif" font-size="10.00">GameStatistics</text>
<polyline fill="none" stroke="black" points="77.5,-258.5 227.5,-258.5 "/>
<text text-anchor="middle" x="152.5" y="-246.5" font-family="Helvetica,sans-Serif" font-size="10.00"> </text>
<polyline fill="none" stroke="black" points="77.5,-239.5 227.5,-239.5 "/>
<text text-anchor="start" x="85.5" y="-227.5" font-family="Helvetica,sans-Serif" font-size="10.00">+ GameStatistics(unsigned</text>
<text text-anchor="start" x="85.5" y="-216.5" font-family="Helvetica,sans-Serif" font-size="10.00"> int startPoints, unsigned</text>
<text text-anchor="start" x="85.5" y="-205.5" font-family="Helvetica,sans-Serif" font-size="10.00"> int startLevel, unsigned</text>
<text text-anchor="start" x="85.5" y="-194.5" font-family="Helvetica,sans-Serif" font-size="10.00"> int startLives)</text>
<text text-anchor="start" x="85.5" y="-183.5" font-family="Helvetica,sans-Serif" font-size="10.00">+ unsigned int getPoints</text>
<text text-anchor="start" x="85.5" y="-172.5" font-family="Helvetica,sans-Serif" font-size="10.00">() const</text>
<text text-anchor="start" x="85.5" y="-161.5" font-family="Helvetica,sans-Serif" font-size="10.00">+ void setPoints(unsigned</text>
<text text-anchor="start" x="85.5" y="-150.5" font-family="Helvetica,sans-Serif" font-size="10.00"> int pts)</text>
<text text-anchor="start" x="85.5" y="-139.5" font-family="Helvetica,sans-Serif" font-size="10.00">+ void addPoints(unsigned</text>
<text text-anchor="start" x="85.5" y="-128.5" font-family="Helvetica,sans-Serif" font-size="10.00"> int pts)</text>
<text text-anchor="start" x="85.5" y="-117.5" font-family="Helvetica,sans-Serif" font-size="10.00">+ unsigned int getLevel</text>
<text text-anchor="start" x="85.5" y="-106.5" font-family="Helvetica,sans-Serif" font-size="10.00">() const</text>
<text text-anchor="start" x="85.5" y="-95.5" font-family="Helvetica,sans-Serif" font-size="10.00">+ void setLevel(unsigned</text>
<text text-anchor="start" x="85.5" y="-84.5" font-family="Helvetica,sans-Serif" font-size="10.00"> int level)</text>
<text text-anchor="start" x="85.5" y="-73.5" font-family="Helvetica,sans-Serif" font-size="10.00">+ unsigned int getLives</text>
<text text-anchor="start" x="85.5" y="-62.5" font-family="Helvetica,sans-Serif" font-size="10.00">() const</text>
<text text-anchor="start" x="85.5" y="-51.5" font-family="Helvetica,sans-Serif" font-size="10.00">+ void setLives(unsigned</text>
<text text-anchor="start" x="85.5" y="-40.5" font-family="Helvetica,sans-Serif" font-size="10.00"> int lives)</text>
<text text-anchor="start" x="85.5" y="-29.5" font-family="Helvetica,sans-Serif" font-size="10.00">+ void decrementLives</text>
<text text-anchor="start" x="85.5" y="-18.5" font-family="Helvetica,sans-Serif" font-size="10.00">(unsigned int deltaLives)</text>
<text text-anchor="start" x="85.5" y="-7.5" font-family="Helvetica,sans-Serif" font-size="10.00">+ void resetStats()</text>
</a>
</g>
</g>
<!-- Node2 -->
<g id="node2" class="node">
<title>Node2</title>
<g id="a_node2"><a xlink:title=" ">
<polygon fill="none" stroke="black" points="0,-424.5 0,-481.5 77,-481.5 77,-424.5 0,-424.5"/>
<text text-anchor="middle" x="38.5" y="-469.5" font-family="Helvetica,sans-Serif" font-size="10.00">unsigned int</text>
<polyline fill="none" stroke="black" points="0,-462.5 77,-462.5 "/>
<text text-anchor="middle" x="38.5" y="-450.5" font-family="Helvetica,sans-Serif" font-size="10.00"> </text>
<polyline fill="none" stroke="black" points="0,-443.5 77,-443.5 "/>
<text text-anchor="middle" x="38.5" y="-431.5" font-family="Helvetica,sans-Serif" font-size="10.00"> </text>
</a>
</g>
</g>
<!-- Node2&#45;&gt;Node1 -->
<g id="edge1" class="edge">
<title>Node2&#45;&gt;Node1</title>
<path fill="none" stroke="#404040" d="M48.62,-424.31C59.94,-393.33 79.18,-340.68 98.04,-289.04"/>
<polygon fill="none" stroke="#404040" points="98.07,-288.97 96.37,-281.97 102.19,-277.7 103.88,-284.71 98.07,-288.97"/>
<text text-anchor="middle" x="115.5" y="-321" font-family="Helvetica,sans-Serif" font-size="10.00"> &#45;level_</text>
<text text-anchor="middle" x="115.5" y="-310" font-family="Helvetica,sans-Serif" font-size="10.00">&#45;lives_</text>
<text text-anchor="middle" x="115.5" y="-299" font-family="Helvetica,sans-Serif" font-size="10.00">&#45;points_</text>
</g>
<!-- Node3 -->
<g id="node3" class="node">
<title>Node3</title>
<g id="a_node3"><a xlink:title=" ">
<polygon fill="none" stroke="black" points="95.5,-424.5 95.5,-481.5 209.5,-481.5 209.5,-424.5 95.5,-424.5"/>
<text text-anchor="middle" x="152.5" y="-469.5" font-family="Helvetica,sans-Serif" font-size="10.00">list&lt; unsigned int &gt;</text>
<polyline fill="none" stroke="black" points="95.5,-462.5 209.5,-462.5 "/>
<text text-anchor="middle" x="152.5" y="-450.5" font-family="Helvetica,sans-Serif" font-size="10.00"> </text>
<polyline fill="none" stroke="black" points="95.5,-443.5 209.5,-443.5 "/>
<text text-anchor="middle" x="152.5" y="-431.5" font-family="Helvetica,sans-Serif" font-size="10.00"> </text>
</a>
</g>
</g>
<!-- Node3&#45;&gt;Node1 -->
<g id="edge2" class="edge">
<title>Node3&#45;&gt;Node1</title>
<path fill="none" stroke="#404040" d="M152.5,-424.31C152.5,-393.52 152.5,-341.34 152.5,-290.02"/>
<polygon fill="none" stroke="#404040" points="152.5,-289.7 148.5,-283.7 152.5,-277.7 156.5,-283.7 152.5,-289.7"/>
<text text-anchor="middle" x="186" y="-310" font-family="Helvetica,sans-Serif" font-size="10.00"> &#45;scoreboard_</text>
</g>
<!-- Node4 -->
<g id="node4" class="node">
<title>Node4</title>
<g id="a_node4"><a xlink:href="$class_event_queue.html" xlink:title=" ">
<polygon fill="none" stroke="black" points="227.5,-347.5 227.5,-558.5 377.5,-558.5 377.5,-347.5 227.5,-347.5"/>
<text text-anchor="middle" x="302.5" y="-546.5" font-family="Helvetica,sans-Serif" font-size="10.00">EventQueue&lt; Event &gt;</text>
<polyline fill="none" stroke="black" points="227.5,-539.5 377.5,-539.5 "/>
<text text-anchor="middle" x="302.5" y="-527.5" font-family="Helvetica,sans-Serif" font-size="10.00"> </text>
<polyline fill="none" stroke="black" points="227.5,-520.5 377.5,-520.5 "/>
<text text-anchor="start" x="235.5" y="-508.5" font-family="Helvetica,sans-Serif" font-size="10.00">+ EventQueue(EventQueue</text>
<text text-anchor="start" x="235.5" y="-497.5" font-family="Helvetica,sans-Serif" font-size="10.00"> &amp;)=delete</text>
<text text-anchor="start" x="235.5" y="-486.5" font-family="Helvetica,sans-Serif" font-size="10.00">+ bool operator=(const</text>
<text text-anchor="start" x="235.5" y="-475.5" font-family="Helvetica,sans-Serif" font-size="10.00"> EventQueue &amp;)=delete</text>
<text text-anchor="start" x="235.5" y="-464.5" font-family="Helvetica,sans-Serif" font-size="10.00">+ void registerEvent</text>
<text text-anchor="start" x="235.5" y="-453.5" font-family="Helvetica,sans-Serif" font-size="10.00">(std::unique_ptr&lt; Event</text>
<text text-anchor="start" x="235.5" y="-442.5" font-family="Helvetica,sans-Serif" font-size="10.00"> &gt; event)</text>
<text text-anchor="start" x="235.5" y="-431.5" font-family="Helvetica,sans-Serif" font-size="10.00">+ std::unique_ptr&lt; Event</text>
<text text-anchor="start" x="235.5" y="-420.5" font-family="Helvetica,sans-Serif" font-size="10.00"> &gt; pop()</text>
<text text-anchor="start" x="235.5" y="-409.5" font-family="Helvetica,sans-Serif" font-size="10.00">+ bool isEmpty()</text>
<text text-anchor="start" x="235.5" y="-398.5" font-family="Helvetica,sans-Serif" font-size="10.00">+ unsigned int size()</text>
<text text-anchor="start" x="235.5" y="-387.5" font-family="Helvetica,sans-Serif" font-size="10.00">+ void clear()</text>
<text text-anchor="start" x="235.5" y="-376.5" font-family="Helvetica,sans-Serif" font-size="10.00">+ static EventQueue *</text>
<text text-anchor="start" x="235.5" y="-365.5" font-family="Helvetica,sans-Serif" font-size="10.00"> instance()</text>
<text text-anchor="start" x="235.5" y="-354.5" font-family="Helvetica,sans-Serif" font-size="10.00">&#45; EventQueue()=default</text>
</a>
</g>
</g>
<!-- Node4&#45;&gt;Node1 -->
<g id="edge3" class="edge">
<title>Node4&#45;&gt;Node1</title>
<path fill="none" stroke="#404040" d="M252.13,-347.24C243.09,-328.42 233.5,-308.48 223.99,-288.7"/>
<polygon fill="none" stroke="#404040" points="223.92,-288.55 217.71,-284.87 218.72,-277.73 224.92,-281.41 223.92,-288.55"/>
<text text-anchor="middle" x="277.5" y="-310" font-family="Helvetica,sans-Serif" font-size="10.00"> &#45;eventQueue_</text>
</g>
<!-- Node5 -->
<g id="node5" class="node">
<title>Node5</title>
<g id="a_node5"><a xlink:href="$classstd_1_1queue_3_01std_1_1unique__ptr_3_01_event_01_4_01_4.html" xlink:title=" ">
<polygon fill="none" stroke="black" points="154.5,-678 154.5,-746 266.5,-746 266.5,-678 154.5,-678"/>
<text text-anchor="start" x="162.5" y="-734" font-family="Helvetica,sans-Serif" font-size="10.00">queue&lt; std::unique</text>
<text text-anchor="middle" x="210.5" y="-723" font-family="Helvetica,sans-Serif" font-size="10.00">_ptr&lt; Event &gt; &gt;</text>
<polyline fill="none" stroke="black" points="154.5,-716 266.5,-716 "/>
<text text-anchor="middle" x="210.5" y="-704" font-family="Helvetica,sans-Serif" font-size="10.00"> </text>
<polyline fill="none" stroke="black" points="154.5,-697 266.5,-697 "/>
<text text-anchor="middle" x="210.5" y="-685" font-family="Helvetica,sans-Serif" font-size="10.00"> </text>
</a>
</g>
</g>
<!-- Node5&#45;&gt;Node4 -->
<g id="edge4" class="edge">
<title>Node5&#45;&gt;Node4</title>
<path fill="none" stroke="#404040" d="M214.85,-677.82C219.06,-650.27 226.59,-610.35 238.5,-577 239.3,-574.75 240.14,-572.48 241.01,-570.21"/>
<polygon fill="none" stroke="#404040" points="241.11,-569.97 239.64,-562.91 245.59,-558.83 247.06,-565.89 241.11,-569.97"/>
<text text-anchor="middle" x="263.5" y="-580" font-family="Helvetica,sans-Serif" font-size="10.00"> #events_</text>
</g>
<!-- Node6 -->
<g id="node6" class="node">
<title>Node6</title>
<g id="a_node6"><a xlink:title=" ">
<polygon fill="none" stroke="black" points="227.5,-871 227.5,-928 377.5,-928 377.5,-871 227.5,-871"/>
<text text-anchor="middle" x="302.5" y="-916" font-family="Helvetica,sans-Serif" font-size="10.00">unique_ptr&lt; EventQueue &gt;</text>
<polyline fill="none" stroke="black" points="227.5,-909 377.5,-909 "/>
<text text-anchor="middle" x="302.5" y="-897" font-family="Helvetica,sans-Serif" font-size="10.00"> </text>
<polyline fill="none" stroke="black" points="227.5,-890 377.5,-890 "/>
<text text-anchor="middle" x="302.5" y="-878" font-family="Helvetica,sans-Serif" font-size="10.00"> </text>
</a>
</g>
</g>
<!-- Node6&#45;&gt;Node4 -->
<g id="edge5" class="edge">
<title>Node6&#45;&gt;Node4</title>
<path fill="none" stroke="#404040" d="M302.5,-870.69C302.5,-811.98 302.5,-672.4 302.5,-570.93"/>
<polygon fill="none" stroke="#404040" points="302.5,-570.75 298.5,-564.75 302.5,-558.75 306.5,-564.75 302.5,-570.75"/>
<text text-anchor="middle" x="320" y="-709.5" font-family="Helvetica,sans-Serif" font-size="10.00"> #self_</text>
</g>
<!-- Node7 -->
<g id="node7" class="node">
<title>Node7</title>
<g id="a_node7"><a xlink:href="$class_event_queue.html" xlink:title="Singleton class wrapper for std::queue&lt;E&gt;.">
<polygon fill="none" stroke="black" points="355.5,-606.5 355.5,-817.5 505.5,-817.5 505.5,-606.5 355.5,-606.5"/>
<text text-anchor="middle" x="430.5" y="-805.5" font-family="Helvetica,sans-Serif" font-size="10.00">EventQueue&lt; E &gt;</text>
<polyline fill="none" stroke="black" points="355.5,-798.5 505.5,-798.5 "/>
<text text-anchor="middle" x="430.5" y="-786.5" font-family="Helvetica,sans-Serif" font-size="10.00"> </text>
<polyline fill="none" stroke="black" points="355.5,-779.5 505.5,-779.5 "/>
<text text-anchor="start" x="363.5" y="-767.5" font-family="Helvetica,sans-Serif" font-size="10.00">+ EventQueue(EventQueue</text>
<text text-anchor="start" x="363.5" y="-756.5" font-family="Helvetica,sans-Serif" font-size="10.00"> &amp;)=delete</text>
<text text-anchor="start" x="363.5" y="-745.5" font-family="Helvetica,sans-Serif" font-size="10.00">+ bool operator=(const</text>
<text text-anchor="start" x="363.5" y="-734.5" font-family="Helvetica,sans-Serif" font-size="10.00"> EventQueue &amp;)=delete</text>
<text text-anchor="start" x="363.5" y="-723.5" font-family="Helvetica,sans-Serif" font-size="10.00">+ void registerEvent</text>
<text text-anchor="start" x="363.5" y="-712.5" font-family="Helvetica,sans-Serif" font-size="10.00">(std::unique_ptr&lt; E</text>
<text text-anchor="start" x="363.5" y="-701.5" font-family="Helvetica,sans-Serif" font-size="10.00"> &gt; event)</text>
<text text-anchor="start" x="363.5" y="-690.5" font-family="Helvetica,sans-Serif" font-size="10.00">+ std::unique_ptr&lt; E</text>
<text text-anchor="start" x="363.5" y="-679.5" font-family="Helvetica,sans-Serif" font-size="10.00"> &gt; pop()</text>
<text text-anchor="start" x="363.5" y="-668.5" font-family="Helvetica,sans-Serif" font-size="10.00">+ bool isEmpty()</text>
<text text-anchor="start" x="363.5" y="-657.5" font-family="Helvetica,sans-Serif" font-size="10.00">+ unsigned int size()</text>
<text text-anchor="start" x="363.5" y="-646.5" font-family="Helvetica,sans-Serif" font-size="10.00">+ void clear()</text>
<text text-anchor="start" x="363.5" y="-635.5" font-family="Helvetica,sans-Serif" font-size="10.00">+ static EventQueue *</text>
<text text-anchor="start" x="363.5" y="-624.5" font-family="Helvetica,sans-Serif" font-size="10.00"> instance()</text>
<text text-anchor="start" x="363.5" y="-613.5" font-family="Helvetica,sans-Serif" font-size="10.00">&#45; EventQueue()=default</text>
</a>
</g>
</g>
<!-- Node6&#45;&gt;Node7 -->
<g id="edge8" class="edge">
<title>Node6&#45;&gt;Node7</title>
<path fill="none" stroke="#404040" d="M321.66,-870.73C329.98,-858.68 340.33,-843.68 351.31,-827.77"/>
<polygon fill="none" stroke="#404040" points="351.4,-827.64 351.51,-820.43 358.21,-817.76 358.1,-824.97 351.4,-827.64"/>
<text text-anchor="middle" x="362" y="-839" font-family="Helvetica,sans-Serif" font-size="10.00"> #self_</text>
</g>
<!-- Node7&#45;&gt;Node4 -->
<g id="edge6" class="edge">
<title>Node7&#45;&gt;Node4</title>
<path fill="none" stroke="orange" d="M373.83,-597.22C367.47,-584.46 361.02,-571.5 354.72,-558.86"/>
<polygon fill="orange" stroke="orange" points="370.85,-599.08 378.44,-606.47 377.11,-595.96 370.85,-599.08"/>
<text text-anchor="middle" x="393.5" y="-580" font-family="Helvetica,sans-Serif" font-size="10.00"> &lt; Event &gt;</text>
</g>
<!-- Node8 -->
<g id="node8" class="node">
<title>Node8</title>
<g id="a_node8"><a xlink:title=" ">
<polygon fill="none" stroke="black" points="395.5,-865.5 395.5,-933.5 507.5,-933.5 507.5,-865.5 395.5,-865.5"/>
<text text-anchor="start" x="403.5" y="-921.5" font-family="Helvetica,sans-Serif" font-size="10.00">queue&lt; std::unique</text>
<text text-anchor="middle" x="451.5" y="-910.5" font-family="Helvetica,sans-Serif" font-size="10.00">_ptr&lt; E &gt; &gt;</text>
<polyline fill="none" stroke="black" points="395.5,-903.5 507.5,-903.5 "/>
<text text-anchor="middle" x="451.5" y="-891.5" font-family="Helvetica,sans-Serif" font-size="10.00"> </text>
<polyline fill="none" stroke="black" points="395.5,-884.5 507.5,-884.5 "/>
<text text-anchor="middle" x="451.5" y="-872.5" font-family="Helvetica,sans-Serif" font-size="10.00"> </text>
</a>
</g>
</g>
<!-- Node8&#45;&gt;Node7 -->
<g id="edge7" class="edge">
<title>Node8&#45;&gt;Node7</title>
<path fill="none" stroke="#404040" d="M447.75,-865.34C446.56,-854.88 445.18,-842.68 443.72,-829.81"/>
<polygon fill="none" stroke="#404040" points="443.72,-829.77 439.07,-824.25 442.37,-817.84 447.02,-823.36 443.72,-829.77"/>
<text text-anchor="middle" x="470.5" y="-839" font-family="Helvetica,sans-Serif" font-size="10.00"> #events_</text>
</g>
</g>
</svg>
