<?xml version="1.0" encoding="UTF-8" standalone="no"?>
<!DOCTYPE svg PUBLIC "-//W3C//DTD SVG 1.1//EN"
 "http://www.w3.org/Graphics/SVG/1.1/DTD/svg11.dtd">
<!-- Generated by graphviz version 2.43.0 (0)
 -->
<!-- Title: TankController Pages: 1 -->
<svg width="525pt" height="920pt"
 viewBox="0.00 0.00 525.00 920.00" xmlns="http://www.w3.org/2000/svg" xmlns:xlink="http://www.w3.org/1999/xlink">
<g id="graph0" class="graph" transform="scale(1 1) rotate(0) translate(4 916)">
<title>TankController</title>
<!-- Node1 -->
<g id="node1" class="node">
<title>Node1</title>
<g id="a_node1"><a xlink:title=" ">
<polygon fill="#bfbfbf" stroke="black" points="216,-0.5 216,-299.5 380,-299.5 380,-0.5 216,-0.5"/>
<text text-anchor="middle" x="298" y="-287.5" font-family="Helvetica,sans-Serif" font-size="10.00">TankController</text>
<polyline fill="none" stroke="black" points="216,-280.5 380,-280.5 "/>
<text text-anchor="middle" x="298" y="-268.5" font-family="Helvetica,sans-Serif" font-size="10.00"> </text>
<polyline fill="none" stroke="black" points="216,-261.5 380,-261.5 "/>
<text text-anchor="start" x="224" y="-249.5" font-family="Helvetica,sans-Serif" font-size="10.00">+ TankController()</text>
<text text-anchor="start" x="224" y="-238.5" font-family="Helvetica,sans-Serif" font-size="10.00">+ Tank * spawnTank(unsigned</text>
<text text-anchor="start" x="224" y="-227.5" font-family="Helvetica,sans-Serif" font-size="10.00"> int x, unsigned int y,</text>
<text text-anchor="start" x="224" y="-216.5" font-family="Helvetica,sans-Serif" font-size="10.00"> Tank::TankType type)</text>
<text text-anchor="start" x="224" y="-205.5" font-family="Helvetica,sans-Serif" font-size="10.00">+ void hitTank(Tank *target,</text>
<text text-anchor="start" x="224" y="-194.5" font-family="Helvetica,sans-Serif" font-size="10.00"> unsigned int damage=1)</text>
<text text-anchor="start" x="224" y="-183.5" font-family="Helvetica,sans-Serif" font-size="10.00">+ void killTank(Tank</text>
<text text-anchor="start" x="224" y="-172.5" font-family="Helvetica,sans-Serif" font-size="10.00"> *target)</text>
<text text-anchor="start" x="224" y="-161.5" font-family="Helvetica,sans-Serif" font-size="10.00">+ void removeTank(Tank</text>
<text text-anchor="start" x="224" y="-150.5" font-family="Helvetica,sans-Serif" font-size="10.00"> *target)</text>
<text text-anchor="start" x="224" y="-139.5" font-family="Helvetica,sans-Serif" font-size="10.00">+ void moveAllTanks()</text>
<text text-anchor="start" x="224" y="-128.5" font-family="Helvetica,sans-Serif" font-size="10.00">+ void moveTank(Tank</text>
<text text-anchor="start" x="224" y="-117.5" font-family="Helvetica,sans-Serif" font-size="10.00"> *target)</text>
<text text-anchor="start" x="224" y="-106.5" font-family="Helvetica,sans-Serif" font-size="10.00">+ void setTankMoving</text>
<text text-anchor="start" x="224" y="-95.5" font-family="Helvetica,sans-Serif" font-size="10.00">(Tank *target, bool</text>
<text text-anchor="start" x="224" y="-84.5" font-family="Helvetica,sans-Serif" font-size="10.00"> isMoving)</text>
<text text-anchor="start" x="224" y="-73.5" font-family="Helvetica,sans-Serif" font-size="10.00">+ void setTankDirection</text>
<text text-anchor="start" x="224" y="-62.5" font-family="Helvetica,sans-Serif" font-size="10.00">(Tank *target, Direction</text>
<text text-anchor="start" x="224" y="-51.5" font-family="Helvetica,sans-Serif" font-size="10.00"> direction)</text>
<text text-anchor="start" x="224" y="-40.5" font-family="Helvetica,sans-Serif" font-size="10.00">+ std::optional&lt; Tank</text>
<text text-anchor="start" x="224" y="-29.5" font-family="Helvetica,sans-Serif" font-size="10.00"> * &gt; getTankAtPosition</text>
<text text-anchor="start" x="224" y="-18.5" font-family="Helvetica,sans-Serif" font-size="10.00">(float x, float y)</text>
<text text-anchor="start" x="224" y="-7.5" font-family="Helvetica,sans-Serif" font-size="10.00">+ PlayerTank * getPlayer()</text>
</a>
</g>
</g>
<!-- Node2 -->
<g id="node2" class="node">
<title>Node2</title>
<g id="a_node2"><a xlink:href="$class_event_queue.html" xlink:title=" ">
<polygon fill="none" stroke="black" points="73,-347.5 73,-547.5 223,-547.5 223,-347.5 73,-347.5"/>
<text text-anchor="middle" x="148" y="-535.5" font-family="Helvetica,sans-Serif" font-size="10.00">EventQueue&lt; Event &gt;</text>
<polyline fill="none" stroke="black" points="73,-528.5 223,-528.5 "/>
<text text-anchor="middle" x="148" y="-516.5" font-family="Helvetica,sans-Serif" font-size="10.00"> </text>
<polyline fill="none" stroke="black" points="73,-509.5 223,-509.5 "/>
<text text-anchor="start" x="81" y="-497.5" font-family="Helvetica,sans-Serif" font-size="10.00">+ EventQueue(EventQueue</text>
<text text-anchor="start" x="81" y="-486.5" font-family="Helvetica,sans-Serif" font-size="10.00"> &amp;)=delete</text>
<text text-anchor="start" x="81" y="-475.5" font-family="Helvetica,sans-Serif" font-size="10.00">+ bool operator=(const</text>
<text text-anchor="start" x="81" y="-464.5" font-family="Helvetica,sans-Serif" font-size="10.00"> EventQueue &amp;)=delete</text>
<text text-anchor="start" x="81" y="-453.5" font-family="Helvetica,sans-Serif" font-size="10.00">+ void registerEvent</text>
<text text-anchor="start" x="81" y="-442.5" font-family="Helvetica,sans-Serif" font-size="10.00">(std::unique_ptr&lt; Event</text>
<text text-anchor="start" x="81" y="-431.5" font-family="Helvetica,sans-Serif" font-size="10.00"> &gt; event)</text>
<text text-anchor="start" x="81" y="-420.5" font-family="Helvetica,sans-Serif" font-size="10.00">+ std::unique_ptr&lt; Event</text>
<text text-anchor="start" x="81" y="-409.5" font-family="Helvetica,sans-Serif" font-size="10.00"> &gt; pop()</text>
<text text-anchor="start" x="81" y="-398.5" font-family="Helvetica,sans-Serif" font-size="10.00">+ bool isEmpty()</text>
<text text-anchor="start" x="81" y="-387.5" font-family="Helvetica,sans-Serif" font-size="10.00">+ void clear()</text>
<text text-anchor="start" x="81" y="-376.5" font-family="Helvetica,sans-Serif" font-size="10.00">+ static EventQueue *</text>
<text text-anchor="start" x="81" y="-365.5" font-family="Helvetica,sans-Serif" font-size="10.00"> instance()</text>
<text text-anchor="start" x="81" y="-354.5" font-family="Helvetica,sans-Serif" font-size="10.00">&#45; EventQueue()=default</text>
</a>
</g>
</g>
<!-- Node2&#45;&gt;Node1 -->
<g id="edge1" class="edge">
<title>Node2&#45;&gt;Node1</title>
<path fill="none" stroke="#404040" d="M198.37,-347.28C204.39,-335.41 210.65,-323.08 216.97,-310.63"/>
<polygon fill="none" stroke="#404040" points="217.1,-310.37 216.25,-303.21 222.53,-299.67 223.38,-306.83 217.1,-310.37"/>
<text text-anchor="middle" x="248" y="-321" font-family="Helvetica,sans-Serif" font-size="10.00"> #eventQueue_</text>
</g>
<!-- Node3 -->
<g id="node3" class="node">
<title>Node3</title>
<g id="a_node3"><a xlink:href="$classstd_1_1queue_3_01std_1_1unique__ptr_3_01_event_01_4_01_4.html" xlink:title=" ">
<polygon fill="none" stroke="black" points="0,-661.5 0,-729.5 112,-729.5 112,-661.5 0,-661.5"/>
<text text-anchor="start" x="8" y="-717.5" font-family="Helvetica,sans-Serif" font-size="10.00">queue&lt; std::unique</text>
<text text-anchor="middle" x="56" y="-706.5" font-family="Helvetica,sans-Serif" font-size="10.00">_ptr&lt; Event &gt; &gt;</text>
<polyline fill="none" stroke="black" points="0,-699.5 112,-699.5 "/>
<text text-anchor="middle" x="56" y="-687.5" font-family="Helvetica,sans-Serif" font-size="10.00"> </text>
<polyline fill="none" stroke="black" points="0,-680.5 112,-680.5 "/>
<text text-anchor="middle" x="56" y="-668.5" font-family="Helvetica,sans-Serif" font-size="10.00"> </text>
</a>
</g>
</g>
<!-- Node3&#45;&gt;Node2 -->
<g id="edge2" class="edge">
<title>Node3&#45;&gt;Node2</title>
<path fill="none" stroke="#404040" d="M60.58,-661.29C64.84,-634.9 72.32,-597.34 84,-566 84.89,-563.62 85.82,-561.23 86.78,-558.83"/>
<polygon fill="none" stroke="#404040" points="86.86,-558.64 85.51,-551.56 91.53,-547.59 92.88,-554.67 86.86,-558.64"/>
<text text-anchor="middle" x="109" y="-569" font-family="Helvetica,sans-Serif" font-size="10.00"> #events_</text>
</g>
<!-- Node4 -->
<g id="node4" class="node">
<title>Node4</title>
<g id="a_node4"><a xlink:title=" ">
<polygon fill="none" stroke="black" points="73,-849 73,-906 223,-906 223,-849 73,-849"/>
<text text-anchor="middle" x="148" y="-894" font-family="Helvetica,sans-Serif" font-size="10.00">unique_ptr&lt; EventQueue &gt;</text>
<polyline fill="none" stroke="black" points="73,-887 223,-887 "/>
<text text-anchor="middle" x="148" y="-875" font-family="Helvetica,sans-Serif" font-size="10.00"> </text>
<polyline fill="none" stroke="black" points="73,-868 223,-868 "/>
<text text-anchor="middle" x="148" y="-856" font-family="Helvetica,sans-Serif" font-size="10.00"> </text>
</a>
</g>
</g>
<!-- Node4&#45;&gt;Node2 -->
<g id="edge3" class="edge">
<title>Node4&#45;&gt;Node2</title>
<path fill="none" stroke="#404040" d="M148,-848.75C148,-791.46 148,-657.34 148,-560.11"/>
<polygon fill="none" stroke="#404040" points="148,-559.85 144,-553.85 148,-547.85 152,-553.85 148,-559.85"/>
<text text-anchor="middle" x="165.5" y="-693" font-family="Helvetica,sans-Serif" font-size="10.00"> #self_</text>
</g>
<!-- Node5 -->
<g id="node5" class="node">
<title>Node5</title>
<g id="a_node5"><a xlink:href="$class_event_queue.html" xlink:title="Singleton class wrapper for std::queue&lt;E&gt;.">
<polygon fill="none" stroke="black" points="201,-595.5 201,-795.5 351,-795.5 351,-595.5 201,-595.5"/>
<text text-anchor="middle" x="276" y="-783.5" font-family="Helvetica,sans-Serif" font-size="10.00">EventQueue&lt; E &gt;</text>
<polyline fill="none" stroke="black" points="201,-776.5 351,-776.5 "/>
<text text-anchor="middle" x="276" y="-764.5" font-family="Helvetica,sans-Serif" font-size="10.00"> </text>
<polyline fill="none" stroke="black" points="201,-757.5 351,-757.5 "/>
<text text-anchor="start" x="209" y="-745.5" font-family="Helvetica,sans-Serif" font-size="10.00">+ EventQueue(EventQueue</text>
<text text-anchor="start" x="209" y="-734.5" font-family="Helvetica,sans-Serif" font-size="10.00"> &amp;)=delete</text>
<text text-anchor="start" x="209" y="-723.5" font-family="Helvetica,sans-Serif" font-size="10.00">+ bool operator=(const</text>
<text text-anchor="start" x="209" y="-712.5" font-family="Helvetica,sans-Serif" font-size="10.00"> EventQueue &amp;)=delete</text>
<text text-anchor="start" x="209" y="-701.5" font-family="Helvetica,sans-Serif" font-size="10.00">+ void registerEvent</text>
<text text-anchor="start" x="209" y="-690.5" font-family="Helvetica,sans-Serif" font-size="10.00">(std::unique_ptr&lt; E</text>
<text text-anchor="start" x="209" y="-679.5" font-family="Helvetica,sans-Serif" font-size="10.00"> &gt; event)</text>
<text text-anchor="start" x="209" y="-668.5" font-family="Helvetica,sans-Serif" font-size="10.00">+ std::unique_ptr&lt; E</text>
<text text-anchor="start" x="209" y="-657.5" font-family="Helvetica,sans-Serif" font-size="10.00"> &gt; pop()</text>
<text text-anchor="start" x="209" y="-646.5" font-family="Helvetica,sans-Serif" font-size="10.00">+ bool isEmpty()</text>
<text text-anchor="start" x="209" y="-635.5" font-family="Helvetica,sans-Serif" font-size="10.00">+ void clear()</text>
<text text-anchor="start" x="209" y="-624.5" font-family="Helvetica,sans-Serif" font-size="10.00">+ static EventQueue *</text>
<text text-anchor="start" x="209" y="-613.5" font-family="Helvetica,sans-Serif" font-size="10.00"> instance()</text>
<text text-anchor="start" x="209" y="-602.5" font-family="Helvetica,sans-Serif" font-size="10.00">&#45; EventQueue()=default</text>
</a>
</g>
</g>
<!-- Node4&#45;&gt;Node5 -->
<g id="edge6" class="edge">
<title>Node4&#45;&gt;Node5</title>
<path fill="none" stroke="#404040" d="M167.72,-848.77C176.31,-836.68 187,-821.66 198.28,-805.79"/>
<polygon fill="none" stroke="#404040" points="198.41,-805.6 198.63,-798.4 205.37,-795.82 205.15,-803.03 198.41,-805.6"/>
<text text-anchor="middle" x="207.5" y="-817" font-family="Helvetica,sans-Serif" font-size="10.00"> #self_</text>
</g>
<!-- Node5&#45;&gt;Node2 -->
<g id="edge4" class="edge">
<title>Node5&#45;&gt;Node2</title>
<path fill="none" stroke="orange" d="M219.52,-585.96C212.92,-573.27 206.21,-560.37 199.68,-547.82"/>
<polygon fill="orange" stroke="orange" points="216.59,-587.9 224.31,-595.15 222.8,-584.66 216.59,-587.9"/>
<text text-anchor="middle" x="239" y="-569" font-family="Helvetica,sans-Serif" font-size="10.00"> &lt; Event &gt;</text>
</g>
<!-- Node6 -->
<g id="node6" class="node">
<title>Node6</title>
<g id="a_node6"><a xlink:title=" ">
<polygon fill="none" stroke="black" points="241,-843.5 241,-911.5 353,-911.5 353,-843.5 241,-843.5"/>
<text text-anchor="start" x="249" y="-899.5" font-family="Helvetica,sans-Serif" font-size="10.00">queue&lt; std::unique</text>
<text text-anchor="middle" x="297" y="-888.5" font-family="Helvetica,sans-Serif" font-size="10.00">_ptr&lt; E &gt; &gt;</text>
<polyline fill="none" stroke="black" points="241,-881.5 353,-881.5 "/>
<text text-anchor="middle" x="297" y="-869.5" font-family="Helvetica,sans-Serif" font-size="10.00"> </text>
<polyline fill="none" stroke="black" points="241,-862.5 353,-862.5 "/>
<text text-anchor="middle" x="297" y="-850.5" font-family="Helvetica,sans-Serif" font-size="10.00"> </text>
</a>
</g>
</g>
<!-- Node6&#45;&gt;Node5 -->
<g id="edge5" class="edge">
<title>Node6&#45;&gt;Node5</title>
<path fill="none" stroke="#404040" d="M293.15,-843.49C291.92,-832.92 290.47,-820.57 288.96,-807.6"/>
<polygon fill="none" stroke="#404040" points="288.95,-807.47 284.28,-801.97 287.56,-795.55 292.22,-801.05 288.95,-807.47"/>
<text text-anchor="middle" x="315" y="-817" font-family="Helvetica,sans-Serif" font-size="10.00"> #events_</text>
</g>
<!-- Node7 -->
<g id="node7" class="node">
<title>Node7</title>
<g id="a_node7"><a xlink:title=" ">
<polygon fill="none" stroke="black" points="241.5,-413.5 241.5,-481.5 354.5,-481.5 354.5,-413.5 241.5,-413.5"/>
<text text-anchor="start" x="249.5" y="-469.5" font-family="Helvetica,sans-Serif" font-size="10.00">vector&lt; std::unique</text>
<text text-anchor="middle" x="298" y="-458.5" font-family="Helvetica,sans-Serif" font-size="10.00">_ptr&lt; Tank &gt; &gt;</text>
<polyline fill="none" stroke="black" points="241.5,-451.5 354.5,-451.5 "/>
<text text-anchor="middle" x="298" y="-439.5" font-family="Helvetica,sans-Serif" font-size="10.00"> </text>
<polyline fill="none" stroke="black" points="241.5,-432.5 354.5,-432.5 "/>
<text text-anchor="middle" x="298" y="-420.5" font-family="Helvetica,sans-Serif" font-size="10.00"> </text>
</a>
</g>
</g>
<!-- Node7&#45;&gt;Node1 -->
<g id="edge7" class="edge">
<title>Node7&#45;&gt;Node1</title>
<path fill="none" stroke="#404040" d="M298,-413.46C298,-387.87 298,-350.36 298,-311.65"/>
<polygon fill="none" stroke="#404040" points="298,-311.62 294,-305.62 298,-299.62 302,-305.62 298,-311.62"/>
<text text-anchor="middle" x="320" y="-321" font-family="Helvetica,sans-Serif" font-size="10.00"> #tanks_</text>
</g>
<!-- Node8 -->
<g id="node8" class="node">
<title>Node8</title>
<g id="a_node8"><a xlink:title=" ">
<polygon fill="none" stroke="black" points="373,-419 373,-476 517,-476 517,-419 373,-419"/>
<text text-anchor="middle" x="445" y="-464" font-family="Helvetica,sans-Serif" font-size="10.00">unique_ptr&lt; PlayerTank &gt;</text>
<polyline fill="none" stroke="black" points="373,-457 517,-457 "/>
<text text-anchor="middle" x="445" y="-445" font-family="Helvetica,sans-Serif" font-size="10.00"> </text>
<polyline fill="none" stroke="black" points="373,-438 517,-438 "/>
<text text-anchor="middle" x="445" y="-426" font-family="Helvetica,sans-Serif" font-size="10.00"> </text>
</a>
</g>
</g>
<!-- Node8&#45;&gt;Node1 -->
<g id="edge8" class="edge">
<title>Node8&#45;&gt;Node1</title>
<path fill="none" stroke="#404040" d="M431.3,-418.97C418.52,-393.26 398.33,-352.68 377.49,-310.79"/>
<polygon fill="none" stroke="#404040" points="377.38,-310.58 371.13,-306.99 372.04,-299.83 378.29,-303.43 377.38,-310.58"/>
<text text-anchor="middle" x="408" y="-321" font-family="Helvetica,sans-Serif" font-size="10.00"> #player_</text>
</g>
</g>
</svg>
