<?xml version="1.0" encoding="UTF-8" standalone="no"?>
<!DOCTYPE svg PUBLIC "-//W3C//DTD SVG 1.1//EN"
 "http://www.w3.org/Graphics/SVG/1.1/DTD/svg11.dtd">
<!-- Generated by graphviz version 2.43.0 (0)
 -->
<!-- Title: BotController Pages: 1 -->
<svg width="1135pt" height="1107pt"
 viewBox="0.00 0.00 1134.50 1107.00" xmlns="http://www.w3.org/2000/svg" xmlns:xlink="http://www.w3.org/1999/xlink">
<g id="graph0" class="graph" transform="scale(1 1) rotate(0) translate(4 1103)">
<title>BotController</title>
<!-- Node1 -->
<g id="node1" class="node">
<title>Node1</title>
<g id="a_node1"><a xlink:title=" ">
<polygon fill="#bfbfbf" stroke="black" points="410.5,-0.5 410.5,-409.5 592.5,-409.5 592.5,-0.5 410.5,-0.5"/>
<text text-anchor="middle" x="501.5" y="-397.5" font-family="Helvetica,sans-Serif" font-size="10.00">BotController</text>
<polyline fill="none" stroke="black" points="410.5,-390.5 592.5,-390.5 "/>
<text text-anchor="middle" x="501.5" y="-378.5" font-family="Helvetica,sans-Serif" font-size="10.00"> </text>
<polyline fill="none" stroke="black" points="410.5,-371.5 592.5,-371.5 "/>
<text text-anchor="start" x="418.5" y="-359.5" font-family="Helvetica,sans-Serif" font-size="10.00">+ BotController()=delete</text>
<text text-anchor="start" x="418.5" y="-348.5" font-family="Helvetica,sans-Serif" font-size="10.00">+ BotController &amp; operator</text>
<text text-anchor="start" x="418.5" y="-337.5" font-family="Helvetica,sans-Serif" font-size="10.00">=(const BotController &amp;other)</text>
<text text-anchor="start" x="418.5" y="-326.5" font-family="Helvetica,sans-Serif" font-size="10.00">=delete</text>
<text text-anchor="start" x="418.5" y="-315.5" font-family="Helvetica,sans-Serif" font-size="10.00">+ void makeBotDecision</text>
<text text-anchor="start" x="418.5" y="-304.5" font-family="Helvetica,sans-Serif" font-size="10.00">(const std::shared_ptr</text>
<text text-anchor="start" x="418.5" y="-293.5" font-family="Helvetica,sans-Serif" font-size="10.00">&lt; Bot &gt; &amp;bot)</text>
<text text-anchor="start" x="418.5" y="-282.5" font-family="Helvetica,sans-Serif" font-size="10.00">+ void registerBot()</text>
<text text-anchor="start" x="418.5" y="-271.5" font-family="Helvetica,sans-Serif" font-size="10.00">+ void deregisterBot()</text>
<text text-anchor="start" x="418.5" y="-260.5" font-family="Helvetica,sans-Serif" font-size="10.00">+ void deregisterAllBots()</text>
<text text-anchor="start" x="418.5" y="-249.5" font-family="Helvetica,sans-Serif" font-size="10.00">+ unsigned int getRegistered</text>
<text text-anchor="start" x="418.5" y="-238.5" font-family="Helvetica,sans-Serif" font-size="10.00">BotsCount() const</text>
<text text-anchor="start" x="418.5" y="-227.5" font-family="Helvetica,sans-Serif" font-size="10.00">+ void notify(SimplePublisher</text>
<text text-anchor="start" x="418.5" y="-216.5" font-family="Helvetica,sans-Serif" font-size="10.00"> *pub) override</text>
<text text-anchor="start" x="418.5" y="-205.5" font-family="Helvetica,sans-Serif" font-size="10.00">+ void setSpawnpoints</text>
<text text-anchor="start" x="418.5" y="-194.5" font-family="Helvetica,sans-Serif" font-size="10.00">(const std::vector&lt;</text>
<text text-anchor="start" x="418.5" y="-183.5" font-family="Helvetica,sans-Serif" font-size="10.00"> std::pair&lt; unsigned</text>
<text text-anchor="start" x="418.5" y="-172.5" font-family="Helvetica,sans-Serif" font-size="10.00"> int, unsigned int &gt; &gt;</text>
<text text-anchor="start" x="418.5" y="-161.5" font-family="Helvetica,sans-Serif" font-size="10.00"> &amp;spawnpoints)</text>
<text text-anchor="start" x="418.5" y="-150.5" font-family="Helvetica,sans-Serif" font-size="10.00">+ void setTypes(const</text>
<text text-anchor="start" x="418.5" y="-139.5" font-family="Helvetica,sans-Serif" font-size="10.00"> std::queue&lt; Tank::TankType</text>
<text text-anchor="start" x="418.5" y="-128.5" font-family="Helvetica,sans-Serif" font-size="10.00"> &gt; &amp;types)</text>
<text text-anchor="start" x="418.5" y="-117.5" font-family="Helvetica,sans-Serif" font-size="10.00">+ void setCounting(bool</text>
<text text-anchor="start" x="418.5" y="-106.5" font-family="Helvetica,sans-Serif" font-size="10.00"> counting)</text>
<text text-anchor="start" x="418.5" y="-95.5" font-family="Helvetica,sans-Serif" font-size="10.00">+ static BotController</text>
<text text-anchor="start" x="418.5" y="-84.5" font-family="Helvetica,sans-Serif" font-size="10.00"> * instance()</text>
<text text-anchor="start" x="418.5" y="-73.5" font-family="Helvetica,sans-Serif" font-size="10.00">+ static void initialize</text>
<text text-anchor="start" x="418.5" y="-62.5" font-family="Helvetica,sans-Serif" font-size="10.00">(unsigned int maxRegisteredBots,</text>
<text text-anchor="start" x="418.5" y="-51.5" font-family="Helvetica,sans-Serif" font-size="10.00"> unsigned int spawnCooldown)</text>
<text text-anchor="start" x="418.5" y="-40.5" font-family="Helvetica,sans-Serif" font-size="10.00"># BotController(unsigned</text>
<text text-anchor="start" x="418.5" y="-29.5" font-family="Helvetica,sans-Serif" font-size="10.00"> int n_maxRegisteredBots,</text>
<text text-anchor="start" x="418.5" y="-18.5" font-family="Helvetica,sans-Serif" font-size="10.00"> unsigned int n_spawnCooldown)</text>
<text text-anchor="start" x="418.5" y="-7.5" font-family="Helvetica,sans-Serif" font-size="10.00"># void requestSpawnBot()</text>
</a>
</g>
</g>
<!-- Node2 -->
<g id="node2" class="node">
<title>Node2</title>
<g id="a_node2"><a xlink:href="$class_simple_subscriber.html" xlink:title=" ">
<polygon fill="none" stroke="black" points="0,-534.5 0,-701.5 193,-701.5 193,-534.5 0,-534.5"/>
<text text-anchor="middle" x="96.5" y="-689.5" font-family="Helvetica,sans-Serif" font-size="10.00">SimpleSubscriber</text>
<polyline fill="none" stroke="black" points="0,-682.5 193,-682.5 "/>
<text text-anchor="middle" x="96.5" y="-670.5" font-family="Helvetica,sans-Serif" font-size="10.00"> </text>
<polyline fill="none" stroke="black" points="0,-663.5 193,-663.5 "/>
<text text-anchor="start" x="8" y="-651.5" font-family="Helvetica,sans-Serif" font-size="10.00">+ ~SimpleSubscriber()</text>
<text text-anchor="start" x="8" y="-640.5" font-family="Helvetica,sans-Serif" font-size="10.00">+ void subscribe(SimplePublisher</text>
<text text-anchor="start" x="8" y="-629.5" font-family="Helvetica,sans-Serif" font-size="10.00"> *pub)</text>
<text text-anchor="start" x="8" y="-618.5" font-family="Helvetica,sans-Serif" font-size="10.00">+ void unsubscribe(SimplePublisher</text>
<text text-anchor="start" x="8" y="-607.5" font-family="Helvetica,sans-Serif" font-size="10.00"> *pub)</text>
<text text-anchor="start" x="8" y="-596.5" font-family="Helvetica,sans-Serif" font-size="10.00">+ void removeDeletedSubject</text>
<text text-anchor="start" x="8" y="-585.5" font-family="Helvetica,sans-Serif" font-size="10.00">(SimplePublisher *pub)</text>
<text text-anchor="start" x="8" y="-574.5" font-family="Helvetica,sans-Serif" font-size="10.00">+ virtual void notify</text>
<text text-anchor="start" x="8" y="-563.5" font-family="Helvetica,sans-Serif" font-size="10.00">(SimplePublisher *pub)=0</text>
<text text-anchor="start" x="8" y="-552.5" font-family="Helvetica,sans-Serif" font-size="10.00"># SimpleSubscriber()</text>
<text text-anchor="start" x="8" y="-541.5" font-family="Helvetica,sans-Serif" font-size="10.00">=default</text>
</a>
</g>
</g>
<!-- Node2&#45;&gt;Node1 -->
<g id="edge1" class="edge">
<title>Node2&#45;&gt;Node1</title>
<path fill="none" stroke="midnightblue" d="M185.16,-527.02C251.86,-459.34 342.96,-366.89 410.27,-298.58"/>
<polygon fill="none" stroke="midnightblue" points="182.5,-524.74 177.97,-534.32 187.48,-529.66 182.5,-524.74"/>
</g>
<!-- Node3 -->
<g id="node3" class="node">
<title>Node3</title>
<g id="a_node3"><a xlink:title=" ">
<polygon fill="none" stroke="black" points="18,-848.5 18,-905.5 175,-905.5 175,-848.5 18,-848.5"/>
<text text-anchor="middle" x="96.5" y="-893.5" font-family="Helvetica,sans-Serif" font-size="10.00">vector&lt; SimplePublisher * &gt;</text>
<polyline fill="none" stroke="black" points="18,-886.5 175,-886.5 "/>
<text text-anchor="middle" x="96.5" y="-874.5" font-family="Helvetica,sans-Serif" font-size="10.00"> </text>
<polyline fill="none" stroke="black" points="18,-867.5 175,-867.5 "/>
<text text-anchor="middle" x="96.5" y="-855.5" font-family="Helvetica,sans-Serif" font-size="10.00"> </text>
</a>
</g>
</g>
<!-- Node3&#45;&gt;Node2 -->
<g id="edge2" class="edge">
<title>Node3&#45;&gt;Node2</title>
<path fill="none" stroke="#404040" d="M96.5,-848.5C96.5,-816.44 96.5,-761.75 96.5,-713.79"/>
<polygon fill="none" stroke="#404040" points="96.5,-713.76 92.5,-707.76 96.5,-701.76 100.5,-707.76 96.5,-713.76"/>
<text text-anchor="middle" x="152" y="-745" font-family="Helvetica,sans-Serif" font-size="10.00"> #subscribedSubjects_</text>
</g>
<!-- Node4 -->
<g id="node4" class="node">
<title>Node4</title>
<g id="a_node4"><a xlink:title=" ">
<polygon fill="none" stroke="black" points="211.5,-578.5 211.5,-657.5 341.5,-657.5 341.5,-578.5 211.5,-578.5"/>
<text text-anchor="start" x="219.5" y="-645.5" font-family="Helvetica,sans-Serif" font-size="10.00">vector&lt; std::pair&lt;</text>
<text text-anchor="start" x="219.5" y="-634.5" font-family="Helvetica,sans-Serif" font-size="10.00"> unsigned int, unsigned</text>
<text text-anchor="middle" x="276.5" y="-623.5" font-family="Helvetica,sans-Serif" font-size="10.00"> int &gt; &gt;</text>
<polyline fill="none" stroke="black" points="211.5,-616.5 341.5,-616.5 "/>
<text text-anchor="middle" x="276.5" y="-604.5" font-family="Helvetica,sans-Serif" font-size="10.00"> </text>
<polyline fill="none" stroke="black" points="211.5,-597.5 341.5,-597.5 "/>
<text text-anchor="middle" x="276.5" y="-585.5" font-family="Helvetica,sans-Serif" font-size="10.00"> </text>
</a>
</g>
</g>
<!-- Node4&#45;&gt;Node1 -->
<g id="edge3" class="edge">
<title>Node4&#45;&gt;Node1</title>
<path fill="none" stroke="#404040" d="M289.94,-578.36C304.05,-539.45 327.86,-478.16 354.5,-428 369.21,-400.31 386.44,-371.7 403.83,-344.61"/>
<polygon fill="none" stroke="#404040" points="403.98,-344.38 403.88,-337.17 410.5,-334.31 410.59,-341.52 403.98,-344.38"/>
<text text-anchor="middle" x="394" y="-458.5" font-family="Helvetica,sans-Serif" font-size="10.00"> #spawnpoints_</text>
</g>
<!-- Node5 -->
<g id="node5" class="node">
<title>Node5</title>
<g id="a_node5"><a xlink:title=" ">
<polygon fill="none" stroke="black" points="360,-589.5 360,-646.5 503,-646.5 503,-589.5 360,-589.5"/>
<text text-anchor="middle" x="431.5" y="-634.5" font-family="Helvetica,sans-Serif" font-size="10.00">queue&lt; Tank::TankType &gt;</text>
<polyline fill="none" stroke="black" points="360,-627.5 503,-627.5 "/>
<text text-anchor="middle" x="431.5" y="-615.5" font-family="Helvetica,sans-Serif" font-size="10.00"> </text>
<polyline fill="none" stroke="black" points="360,-608.5 503,-608.5 "/>
<text text-anchor="middle" x="431.5" y="-596.5" font-family="Helvetica,sans-Serif" font-size="10.00"> </text>
</a>
</g>
</g>
<!-- Node5&#45;&gt;Node1 -->
<g id="edge4" class="edge">
<title>Node5&#45;&gt;Node1</title>
<path fill="none" stroke="#404040" d="M431.83,-589.28C432.62,-552.28 435.33,-484.82 444.5,-428 444.85,-425.81 445.22,-423.61 445.59,-421.41"/>
<polygon fill="none" stroke="#404040" points="445.6,-421.35 442.72,-414.74 447.7,-409.54 450.59,-416.14 445.6,-421.35"/>
<text text-anchor="middle" x="466.5" y="-458.5" font-family="Helvetica,sans-Serif" font-size="10.00"> #types_</text>
</g>
<!-- Node6 -->
<g id="node6" class="node">
<title>Node6</title>
<g id="a_node6"><a xlink:title=" ">
<polygon fill="none" stroke="black" points="521,-589.5 521,-646.5 598,-646.5 598,-589.5 521,-589.5"/>
<text text-anchor="middle" x="559.5" y="-634.5" font-family="Helvetica,sans-Serif" font-size="10.00">unsigned int</text>
<polyline fill="none" stroke="black" points="521,-627.5 598,-627.5 "/>
<text text-anchor="middle" x="559.5" y="-615.5" font-family="Helvetica,sans-Serif" font-size="10.00"> </text>
<polyline fill="none" stroke="black" points="521,-608.5 598,-608.5 "/>
<text text-anchor="middle" x="559.5" y="-596.5" font-family="Helvetica,sans-Serif" font-size="10.00"> </text>
</a>
</g>
</g>
<!-- Node6&#45;&gt;Node1 -->
<g id="edge5" class="edge">
<title>Node6&#45;&gt;Node1</title>
<path fill="none" stroke="#404040" d="M547.13,-589.24C537.59,-568 523.96,-538.04 511.5,-512 507.64,-503.93 504.57,-502.7 502.5,-494 496.98,-470.8 493.48,-446.25 491.45,-421.65"/>
<polygon fill="none" stroke="#404040" points="491.44,-421.55 487.01,-415.86 490.56,-409.58 494.99,-415.27 491.44,-421.55"/>
<text text-anchor="start" x="502.5" y="-486" font-family="Helvetica,sans-Serif" font-size="10.00"> #maxRegisteredBots</text>
<text text-anchor="middle" x="558" y="-475" font-family="Helvetica,sans-Serif" font-size="10.00">_</text>
<text text-anchor="middle" x="558" y="-464" font-family="Helvetica,sans-Serif" font-size="10.00">#maxSpawnCooldown</text>
<text text-anchor="start" x="502.5" y="-453" font-family="Helvetica,sans-Serif" font-size="10.00">#registeredBots</text>
<text text-anchor="middle" x="558" y="-442" font-family="Helvetica,sans-Serif" font-size="10.00">_</text>
<text text-anchor="middle" x="558" y="-431" font-family="Helvetica,sans-Serif" font-size="10.00">#spawnCooldown</text>
</g>
<!-- Node7 -->
<g id="node7" class="node">
<title>Node7</title>
<g id="a_node7"><a xlink:title=" ">
<polygon fill="none" stroke="black" points="616.5,-589.5 616.5,-646.5 654.5,-646.5 654.5,-589.5 616.5,-589.5"/>
<text text-anchor="middle" x="635.5" y="-634.5" font-family="Helvetica,sans-Serif" font-size="10.00">bool</text>
<polyline fill="none" stroke="black" points="616.5,-627.5 654.5,-627.5 "/>
<text text-anchor="middle" x="635.5" y="-615.5" font-family="Helvetica,sans-Serif" font-size="10.00"> </text>
<polyline fill="none" stroke="black" points="616.5,-608.5 654.5,-608.5 "/>
<text text-anchor="middle" x="635.5" y="-596.5" font-family="Helvetica,sans-Serif" font-size="10.00"> </text>
</a>
</g>
</g>
<!-- Node7&#45;&gt;Node1 -->
<g id="edge6" class="edge">
<title>Node7&#45;&gt;Node1</title>
<path fill="none" stroke="#404040" d="M635.29,-589.48C634.34,-552.14 630.21,-483.69 613.5,-428 608.93,-412.78 603.36,-397.34 597.17,-382.07"/>
<polygon fill="none" stroke="#404040" points="597.17,-382.07 591.17,-378.06 592.56,-370.99 598.56,-374.99 597.17,-382.07"/>
<text text-anchor="middle" x="654.5" y="-458.5" font-family="Helvetica,sans-Serif" font-size="10.00"> #counting</text>
</g>
<!-- Node8 -->
<g id="node8" class="node">
<title>Node8</title>
<g id="a_node8"><a xlink:title=" ">
<polygon fill="none" stroke="black" points="673,-589.5 673,-646.5 828,-646.5 828,-589.5 673,-589.5"/>
<text text-anchor="middle" x="750.5" y="-634.5" font-family="Helvetica,sans-Serif" font-size="10.00">unique_ptr&lt; BotController &gt;</text>
<polyline fill="none" stroke="black" points="673,-627.5 828,-627.5 "/>
<text text-anchor="middle" x="750.5" y="-615.5" font-family="Helvetica,sans-Serif" font-size="10.00"> </text>
<polyline fill="none" stroke="black" points="673,-608.5 828,-608.5 "/>
<text text-anchor="middle" x="750.5" y="-596.5" font-family="Helvetica,sans-Serif" font-size="10.00"> </text>
</a>
</g>
</g>
<!-- Node8&#45;&gt;Node1 -->
<g id="edge7" class="edge">
<title>Node8&#45;&gt;Node1</title>
<path fill="none" stroke="#404040" d="M744.34,-589.41C735.13,-551.4 715.57,-481.55 685.5,-428 662.21,-386.53 630.87,-345.26 600.65,-309.76"/>
<polygon fill="none" stroke="#404040" points="600.41,-309.48 593.47,-307.54 592.59,-300.39 599.53,-302.33 600.41,-309.48"/>
<text text-anchor="middle" x="733" y="-458.5" font-family="Helvetica,sans-Serif" font-size="10.00"> #self_</text>
</g>
<!-- Node9 -->
<g id="node9" class="node">
<title>Node9</title>
<g id="a_node9"><a xlink:href="$class_event_queue.html" xlink:title=" ">
<polygon fill="none" stroke="black" points="846.5,-512.5 846.5,-723.5 996.5,-723.5 996.5,-512.5 846.5,-512.5"/>
<text text-anchor="middle" x="921.5" y="-711.5" font-family="Helvetica,sans-Serif" font-size="10.00">EventQueue&lt; Event &gt;</text>
<polyline fill="none" stroke="black" points="846.5,-704.5 996.5,-704.5 "/>
<text text-anchor="middle" x="921.5" y="-692.5" font-family="Helvetica,sans-Serif" font-size="10.00"> </text>
<polyline fill="none" stroke="black" points="846.5,-685.5 996.5,-685.5 "/>
<text text-anchor="start" x="854.5" y="-673.5" font-family="Helvetica,sans-Serif" font-size="10.00">+ EventQueue(EventQueue</text>
<text text-anchor="start" x="854.5" y="-662.5" font-family="Helvetica,sans-Serif" font-size="10.00"> &amp;)=delete</text>
<text text-anchor="start" x="854.5" y="-651.5" font-family="Helvetica,sans-Serif" font-size="10.00">+ bool operator=(const</text>
<text text-anchor="start" x="854.5" y="-640.5" font-family="Helvetica,sans-Serif" font-size="10.00"> EventQueue &amp;)=delete</text>
<text text-anchor="start" x="854.5" y="-629.5" font-family="Helvetica,sans-Serif" font-size="10.00">+ void registerEvent</text>
<text text-anchor="start" x="854.5" y="-618.5" font-family="Helvetica,sans-Serif" font-size="10.00">(std::unique_ptr&lt; Event</text>
<text text-anchor="start" x="854.5" y="-607.5" font-family="Helvetica,sans-Serif" font-size="10.00"> &gt; event)</text>
<text text-anchor="start" x="854.5" y="-596.5" font-family="Helvetica,sans-Serif" font-size="10.00">+ std::unique_ptr&lt; Event</text>
<text text-anchor="start" x="854.5" y="-585.5" font-family="Helvetica,sans-Serif" font-size="10.00"> &gt; pop()</text>
<text text-anchor="start" x="854.5" y="-574.5" font-family="Helvetica,sans-Serif" font-size="10.00">+ bool isEmpty()</text>
<text text-anchor="start" x="854.5" y="-563.5" font-family="Helvetica,sans-Serif" font-size="10.00">+ unsigned int size()</text>
<text text-anchor="start" x="854.5" y="-552.5" font-family="Helvetica,sans-Serif" font-size="10.00">+ void clear()</text>
<text text-anchor="start" x="854.5" y="-541.5" font-family="Helvetica,sans-Serif" font-size="10.00">+ static EventQueue *</text>
<text text-anchor="start" x="854.5" y="-530.5" font-family="Helvetica,sans-Serif" font-size="10.00"> instance()</text>
<text text-anchor="start" x="854.5" y="-519.5" font-family="Helvetica,sans-Serif" font-size="10.00">&#45; EventQueue()=default</text>
</a>
</g>
</g>
<!-- Node9&#45;&gt;Node1 -->
<g id="edge8" class="edge">
<title>Node9&#45;&gt;Node1</title>
<path fill="none" stroke="#404040" d="M846.4,-523.31C843.08,-519.46 839.77,-515.68 836.5,-512 763.73,-430.18 671.21,-346.99 601.85,-288.05"/>
<polygon fill="none" stroke="#404040" points="601.81,-288.01 594.65,-287.19 592.65,-280.26 599.82,-281.08 601.81,-288.01"/>
<text text-anchor="middle" x="858.5" y="-458.5" font-family="Helvetica,sans-Serif" font-size="10.00"> #eventQueue_</text>
</g>
<!-- Node10 -->
<g id="node10" class="node">
<title>Node10</title>
<g id="a_node10"><a xlink:href="$classstd_1_1queue_3_01std_1_1unique__ptr_3_01_event_01_4_01_4.html" xlink:title=" ">
<polygon fill="none" stroke="black" points="773.5,-843 773.5,-911 885.5,-911 885.5,-843 773.5,-843"/>
<text text-anchor="start" x="781.5" y="-899" font-family="Helvetica,sans-Serif" font-size="10.00">queue&lt; std::unique</text>
<text text-anchor="middle" x="829.5" y="-888" font-family="Helvetica,sans-Serif" font-size="10.00">_ptr&lt; Event &gt; &gt;</text>
<polyline fill="none" stroke="black" points="773.5,-881 885.5,-881 "/>
<text text-anchor="middle" x="829.5" y="-869" font-family="Helvetica,sans-Serif" font-size="10.00"> </text>
<polyline fill="none" stroke="black" points="773.5,-862 885.5,-862 "/>
<text text-anchor="middle" x="829.5" y="-850" font-family="Helvetica,sans-Serif" font-size="10.00"> </text>
</a>
</g>
</g>
<!-- Node10&#45;&gt;Node9 -->
<g id="edge9" class="edge">
<title>Node10&#45;&gt;Node9</title>
<path fill="none" stroke="#404040" d="M833.85,-842.82C838.06,-815.27 845.59,-775.35 857.5,-742 858.3,-739.75 859.14,-737.48 860.01,-735.21"/>
<polygon fill="none" stroke="#404040" points="860.11,-734.97 858.64,-727.91 864.59,-723.83 866.06,-730.89 860.11,-734.97"/>
<text text-anchor="middle" x="882.5" y="-745" font-family="Helvetica,sans-Serif" font-size="10.00"> #events_</text>
</g>
<!-- Node11 -->
<g id="node11" class="node">
<title>Node11</title>
<g id="a_node11"><a xlink:title=" ">
<polygon fill="none" stroke="black" points="846.5,-1036 846.5,-1093 996.5,-1093 996.5,-1036 846.5,-1036"/>
<text text-anchor="middle" x="921.5" y="-1081" font-family="Helvetica,sans-Serif" font-size="10.00">unique_ptr&lt; EventQueue &gt;</text>
<polyline fill="none" stroke="black" points="846.5,-1074 996.5,-1074 "/>
<text text-anchor="middle" x="921.5" y="-1062" font-family="Helvetica,sans-Serif" font-size="10.00"> </text>
<polyline fill="none" stroke="black" points="846.5,-1055 996.5,-1055 "/>
<text text-anchor="middle" x="921.5" y="-1043" font-family="Helvetica,sans-Serif" font-size="10.00"> </text>
</a>
</g>
</g>
<!-- Node11&#45;&gt;Node9 -->
<g id="edge10" class="edge">
<title>Node11&#45;&gt;Node9</title>
<path fill="none" stroke="#404040" d="M921.5,-1035.69C921.5,-976.98 921.5,-837.4 921.5,-735.93"/>
<polygon fill="none" stroke="#404040" points="921.5,-735.75 917.5,-729.75 921.5,-723.75 925.5,-729.75 921.5,-735.75"/>
<text text-anchor="middle" x="939" y="-874.5" font-family="Helvetica,sans-Serif" font-size="10.00"> #self_</text>
</g>
<!-- Node12 -->
<g id="node12" class="node">
<title>Node12</title>
<g id="a_node12"><a xlink:href="$class_event_queue.html" xlink:title="Singleton class wrapper for std::queue&lt;E&gt;.">
<polygon fill="none" stroke="black" points="974.5,-771.5 974.5,-982.5 1124.5,-982.5 1124.5,-771.5 974.5,-771.5"/>
<text text-anchor="middle" x="1049.5" y="-970.5" font-family="Helvetica,sans-Serif" font-size="10.00">EventQueue&lt; E &gt;</text>
<polyline fill="none" stroke="black" points="974.5,-963.5 1124.5,-963.5 "/>
<text text-anchor="middle" x="1049.5" y="-951.5" font-family="Helvetica,sans-Serif" font-size="10.00"> </text>
<polyline fill="none" stroke="black" points="974.5,-944.5 1124.5,-944.5 "/>
<text text-anchor="start" x="982.5" y="-932.5" font-family="Helvetica,sans-Serif" font-size="10.00">+ EventQueue(EventQueue</text>
<text text-anchor="start" x="982.5" y="-921.5" font-family="Helvetica,sans-Serif" font-size="10.00"> &amp;)=delete</text>
<text text-anchor="start" x="982.5" y="-910.5" font-family="Helvetica,sans-Serif" font-size="10.00">+ bool operator=(const</text>
<text text-anchor="start" x="982.5" y="-899.5" font-family="Helvetica,sans-Serif" font-size="10.00"> EventQueue &amp;)=delete</text>
<text text-anchor="start" x="982.5" y="-888.5" font-family="Helvetica,sans-Serif" font-size="10.00">+ void registerEvent</text>
<text text-anchor="start" x="982.5" y="-877.5" font-family="Helvetica,sans-Serif" font-size="10.00">(std::unique_ptr&lt; E</text>
<text text-anchor="start" x="982.5" y="-866.5" font-family="Helvetica,sans-Serif" font-size="10.00"> &gt; event)</text>
<text text-anchor="start" x="982.5" y="-855.5" font-family="Helvetica,sans-Serif" font-size="10.00">+ std::unique_ptr&lt; E</text>
<text text-anchor="start" x="982.5" y="-844.5" font-family="Helvetica,sans-Serif" font-size="10.00"> &gt; pop()</text>
<text text-anchor="start" x="982.5" y="-833.5" font-family="Helvetica,sans-Serif" font-size="10.00">+ bool isEmpty()</text>
<text text-anchor="start" x="982.5" y="-822.5" font-family="Helvetica,sans-Serif" font-size="10.00">+ unsigned int size()</text>
<text text-anchor="start" x="982.5" y="-811.5" font-family="Helvetica,sans-Serif" font-size="10.00">+ void clear()</text>
<text text-anchor="start" x="982.5" y="-800.5" font-family="Helvetica,sans-Serif" font-size="10.00">+ static EventQueue *</text>
<text text-anchor="start" x="982.5" y="-789.5" font-family="Helvetica,sans-Serif" font-size="10.00"> instance()</text>
<text text-anchor="start" x="982.5" y="-778.5" font-family="Helvetica,sans-Serif" font-size="10.00">&#45; EventQueue()=default</text>
</a>
</g>
</g>
<!-- Node11&#45;&gt;Node12 -->
<g id="edge13" class="edge">
<title>Node11&#45;&gt;Node12</title>
<path fill="none" stroke="#404040" d="M940.66,-1035.73C948.98,-1023.68 959.33,-1008.68 970.31,-992.77"/>
<polygon fill="none" stroke="#404040" points="970.4,-992.64 970.51,-985.43 977.21,-982.76 977.1,-989.97 970.4,-992.64"/>
<text text-anchor="middle" x="981" y="-1004" font-family="Helvetica,sans-Serif" font-size="10.00"> #self_</text>
</g>
<!-- Node12&#45;&gt;Node9 -->
<g id="edge11" class="edge">
<title>Node12&#45;&gt;Node9</title>
<path fill="none" stroke="orange" d="M992.83,-762.22C986.47,-749.46 980.02,-736.5 973.72,-723.86"/>
<polygon fill="orange" stroke="orange" points="989.85,-764.08 997.44,-771.47 996.11,-760.96 989.85,-764.08"/>
<text text-anchor="middle" x="1012.5" y="-745" font-family="Helvetica,sans-Serif" font-size="10.00"> &lt; Event &gt;</text>
</g>
<!-- Node13 -->
<g id="node13" class="node">
<title>Node13</title>
<g id="a_node13"><a xlink:title=" ">
<polygon fill="none" stroke="black" points="1014.5,-1030.5 1014.5,-1098.5 1126.5,-1098.5 1126.5,-1030.5 1014.5,-1030.5"/>
<text text-anchor="start" x="1022.5" y="-1086.5" font-family="Helvetica,sans-Serif" font-size="10.00">queue&lt; std::unique</text>
<text text-anchor="middle" x="1070.5" y="-1075.5" font-family="Helvetica,sans-Serif" font-size="10.00">_ptr&lt; E &gt; &gt;</text>
<polyline fill="none" stroke="black" points="1014.5,-1068.5 1126.5,-1068.5 "/>
<text text-anchor="middle" x="1070.5" y="-1056.5" font-family="Helvetica,sans-Serif" font-size="10.00"> </text>
<polyline fill="none" stroke="black" points="1014.5,-1049.5 1126.5,-1049.5 "/>
<text text-anchor="middle" x="1070.5" y="-1037.5" font-family="Helvetica,sans-Serif" font-size="10.00"> </text>
</a>
</g>
</g>
<!-- Node13&#45;&gt;Node12 -->
<g id="edge12" class="edge">
<title>Node13&#45;&gt;Node12</title>
<path fill="none" stroke="#404040" d="M1066.75,-1030.34C1065.56,-1019.88 1064.18,-1007.68 1062.72,-994.81"/>
<polygon fill="none" stroke="#404040" points="1062.72,-994.77 1058.07,-989.25 1061.37,-982.84 1066.02,-988.36 1062.72,-994.77"/>
<text text-anchor="middle" x="1089.5" y="-1004" font-family="Helvetica,sans-Serif" font-size="10.00"> #events_</text>
</g>
</g>
</svg>
