<?xml version="1.0" encoding="UTF-8" standalone="no"?>
<!DOCTYPE svg PUBLIC "-//W3C//DTD SVG 1.1//EN"
 "http://www.w3.org/Graphics/SVG/1.1/DTD/svg11.dtd">
<!-- Generated by graphviz version 2.50.0 (0)
 -->
<!-- Title: GameInfoGraphic Pages: 1 -->
<svg width="574pt" height="623pt"
 viewBox="0.00 0.00 574.00 623.00" xmlns="http://www.w3.org/2000/svg" xmlns:xlink="http://www.w3.org/1999/xlink">
<g id="graph0" class="graph" transform="scale(1 1) rotate(0) translate(4 619)">
<title>GameInfoGraphic</title>
<!-- Node1 -->
<g id="node1" class="node">
<title>Node1</title>
<g id="a_node1"><a xlink:title="Class responsible for writing game state info on the frame.">
<polygon fill="#bfbfbf" stroke="black" points="291,-0.5 291,-167.5 462,-167.5 462,-0.5 291,-0.5"/>
<text text-anchor="middle" x="376.5" y="-155.5" font-family="Helvetica,sans-Serif" font-size="10.00">GameInfoGraphic</text>
<polyline fill="none" stroke="black" points="291,-148.5 462,-148.5 "/>
<text text-anchor="middle" x="376.5" y="-136.5" font-family="Helvetica,sans-Serif" font-size="10.00"> </text>
<polyline fill="none" stroke="black" points="291,-129.5 462,-129.5 "/>
<text text-anchor="start" x="299" y="-117.5" font-family="Helvetica,sans-Serif" font-size="10.00">+ virtual void render</text>
<text text-anchor="start" x="299" y="-106.5" font-family="Helvetica,sans-Serif" font-size="10.00">() override</text>
<text text-anchor="start" x="299" y="-95.5" font-family="Helvetica,sans-Serif" font-size="10.00">+ GameInfoGraphic(const</text>
<text text-anchor="start" x="299" y="-84.5" font-family="Helvetica,sans-Serif" font-size="10.00"> WindowView &amp;windowView,</text>
<text text-anchor="start" x="299" y="-73.5" font-family="Helvetica,sans-Serif" font-size="10.00"> const FrameGraphic::GameInfo</text>
<text text-anchor="start" x="299" y="-62.5" font-family="Helvetica,sans-Serif" font-size="10.00"> &amp;gameInfo)</text>
<text text-anchor="start" x="299" y="-51.5" font-family="Helvetica,sans-Serif" font-size="10.00">&#45; void loadFont()</text>
<text text-anchor="start" x="299" y="-40.5" font-family="Helvetica,sans-Serif" font-size="10.00">&#45; void renderText(std</text>
<text text-anchor="start" x="299" y="-29.5" font-family="Helvetica,sans-Serif" font-size="10.00">::string rednerText,</text>
<text text-anchor="start" x="299" y="-18.5" font-family="Helvetica,sans-Serif" font-size="10.00"> float leftOffset, float</text>
<text text-anchor="start" x="299" y="-7.5" font-family="Helvetica,sans-Serif" font-size="10.00"> topOffset)</text>
</a>
</g>
</g>
<!-- Node2 -->
<g id="node2" class="node">
<title>Node2</title>
<g id="a_node2"><a xlink:href="$class_abstract_window.html" xlink:title="Contains main SFML functions.">
<polygon fill="none" stroke="black" points="155.5,-215.5 155.5,-338.5 313.5,-338.5 313.5,-215.5 155.5,-215.5"/>
<text text-anchor="middle" x="234.5" y="-326.5" font-family="Helvetica,sans-Serif" font-size="10.00">AbstractWindow</text>
<polyline fill="none" stroke="black" points="155.5,-319.5 313.5,-319.5 "/>
<text text-anchor="middle" x="234.5" y="-307.5" font-family="Helvetica,sans-Serif" font-size="10.00"> </text>
<polyline fill="none" stroke="black" points="155.5,-300.5 313.5,-300.5 "/>
<text text-anchor="start" x="163.5" y="-288.5" font-family="Helvetica,sans-Serif" font-size="10.00">+ sf::RenderWindow *</text>
<text text-anchor="start" x="163.5" y="-277.5" font-family="Helvetica,sans-Serif" font-size="10.00"> getWindow()</text>
<text text-anchor="start" x="163.5" y="-266.5" font-family="Helvetica,sans-Serif" font-size="10.00">+ virtual void render()=0</text>
<text text-anchor="start" x="163.5" y="-255.5" font-family="Helvetica,sans-Serif" font-size="10.00">+ AbstractWindow()</text>
<text text-anchor="start" x="163.5" y="-244.5" font-family="Helvetica,sans-Serif" font-size="10.00">+ AbstractWindow(const</text>
<text text-anchor="start" x="163.5" y="-233.5" font-family="Helvetica,sans-Serif" font-size="10.00"> WindowView &amp;windowView)</text>
<text text-anchor="start" x="163.5" y="-222.5" font-family="Helvetica,sans-Serif" font-size="10.00">+ virtual ~AbstractWindow()</text>
</a>
</g>
</g>
<!-- Node2&#45;&gt;Node1 -->
<g id="edge1" class="edge">
<title>Node2&#45;&gt;Node1</title>
<path fill="none" stroke="midnightblue" d="M285.8,-207C295.32,-194.19 305.36,-180.69 315.14,-167.53"/>
<polygon fill="none" stroke="midnightblue" points="282.78,-205.19 279.62,-215.3 288.4,-209.37 282.78,-205.19"/>
</g>
<!-- Node3 -->
<g id="node3" class="node">
<title>Node3</title>
<g id="a_node3"><a xlink:title=" ">
<polygon fill="none" stroke="#bfbfbf" points="0,-425 0,-482 65,-482 65,-425 0,-425"/>
<text text-anchor="middle" x="32.5" y="-470" font-family="Helvetica,sans-Serif" font-size="10.00">const uint</text>
<polyline fill="none" stroke="#bfbfbf" points="0,-463 65,-463 "/>
<text text-anchor="middle" x="32.5" y="-451" font-family="Helvetica,sans-Serif" font-size="10.00"> </text>
<polyline fill="none" stroke="#bfbfbf" points="0,-444 65,-444 "/>
<text text-anchor="middle" x="32.5" y="-432" font-family="Helvetica,sans-Serif" font-size="10.00"> </text>
</a>
</g>
</g>
<!-- Node3&#45;&gt;Node2 -->
<g id="edge2" class="edge">
<title>Node3&#45;&gt;Node2</title>
<path fill="none" stroke="#404040" d="M45.48,-424.82C56.17,-404.23 72.9,-376.45 93.5,-357 108.51,-342.83 126.54,-330.28 144.61,-319.59"/>
<polygon fill="none" stroke="#404040" points="144.81,-319.47 148.03,-313.02 155.23,-313.51 152.01,-319.97 144.81,-319.47"/>
<text text-anchor="middle" x="143.5" y="-376.5" font-family="Helvetica,sans-Serif" font-size="10.00"> #WINDOW_HEIGHT</text>
<text text-anchor="middle" x="143.5" y="-365.5" font-family="Helvetica,sans-Serif" font-size="10.00">#WINDOW_WIDTH</text>
</g>
<!-- Node4 -->
<g id="node4" class="node">
<title>Node4</title>
<g id="a_node4"><a xlink:href="$struct_window_view.html" xlink:title="Struct that contains the sf::RenderWindow nad offset of elements to render.">
<polygon fill="none" stroke="black" points="83.5,-408.5 83.5,-498.5 265.5,-498.5 265.5,-408.5 83.5,-408.5"/>
<text text-anchor="middle" x="174.5" y="-486.5" font-family="Helvetica,sans-Serif" font-size="10.00">WindowView</text>
<polyline fill="none" stroke="black" points="83.5,-479.5 265.5,-479.5 "/>
<text text-anchor="middle" x="174.5" y="-467.5" font-family="Helvetica,sans-Serif" font-size="10.00"> </text>
<polyline fill="none" stroke="black" points="83.5,-460.5 265.5,-460.5 "/>
<text text-anchor="start" x="91.5" y="-448.5" font-family="Helvetica,sans-Serif" font-size="10.00">+ WindowView(sf::RenderWindow</text>
<text text-anchor="start" x="91.5" y="-437.5" font-family="Helvetica,sans-Serif" font-size="10.00"> *window, float topOffset,</text>
<text text-anchor="start" x="91.5" y="-426.5" font-family="Helvetica,sans-Serif" font-size="10.00"> float leftOffset)</text>
<text text-anchor="start" x="91.5" y="-415.5" font-family="Helvetica,sans-Serif" font-size="10.00">+ WindowView()</text>
</a>
</g>
</g>
<!-- Node4&#45;&gt;Node2 -->
<g id="edge3" class="edge">
<title>Node4&#45;&gt;Node2</title>
<path fill="none" stroke="#404040" d="M189.64,-408.47C195.71,-390.83 202.86,-370.03 209.64,-350.29"/>
<polygon fill="none" stroke="#404040" points="209.68,-350.17 207.85,-343.2 213.59,-338.82 215.42,-345.8 209.68,-350.17"/>
<text text-anchor="middle" x="243" y="-371" font-family="Helvetica,sans-Serif" font-size="10.00"> #windowView</text>
</g>
<!-- Node5 -->
<g id="node5" class="node">
<title>Node5</title>
<g id="a_node5"><a xlink:title=" ">
<polygon fill="none" stroke="#bfbfbf" points="82.5,-557.5 82.5,-614.5 180.5,-614.5 180.5,-557.5 82.5,-557.5"/>
<text text-anchor="middle" x="131.5" y="-602.5" font-family="Helvetica,sans-Serif" font-size="10.00">RenderWindow *</text>
<polyline fill="none" stroke="#bfbfbf" points="82.5,-595.5 180.5,-595.5 "/>
<text text-anchor="middle" x="131.5" y="-583.5" font-family="Helvetica,sans-Serif" font-size="10.00"> </text>
<polyline fill="none" stroke="#bfbfbf" points="82.5,-576.5 180.5,-576.5 "/>
<text text-anchor="middle" x="131.5" y="-564.5" font-family="Helvetica,sans-Serif" font-size="10.00"> </text>
</a>
</g>
</g>
<!-- Node5&#45;&gt;Node4 -->
<g id="edge4" class="edge">
<title>Node5&#45;&gt;Node4</title>
<path fill="none" stroke="#404040" d="M136.3,-557.19C138.79,-544.74 142.21,-529.97 146.5,-517 147.24,-514.76 148.04,-512.48 148.87,-510.2"/>
<polygon fill="none" stroke="#404040" points="148.97,-509.96 147.42,-502.92 153.33,-498.79 154.88,-505.83 148.97,-509.96"/>
<text text-anchor="middle" x="171" y="-525.5" font-family="Helvetica,sans-Serif" font-size="10.00"> +window</text>
</g>
<!-- Node6 -->
<g id="node6" class="node">
<title>Node6</title>
<g id="a_node6"><a xlink:title=" ">
<polygon fill="none" stroke="#bfbfbf" points="198.5,-557.5 198.5,-614.5 236.5,-614.5 236.5,-557.5 198.5,-557.5"/>
<text text-anchor="middle" x="217.5" y="-602.5" font-family="Helvetica,sans-Serif" font-size="10.00">float</text>
<polyline fill="none" stroke="#bfbfbf" points="198.5,-595.5 236.5,-595.5 "/>
<text text-anchor="middle" x="217.5" y="-583.5" font-family="Helvetica,sans-Serif" font-size="10.00"> </text>
<polyline fill="none" stroke="#bfbfbf" points="198.5,-576.5 236.5,-576.5 "/>
<text text-anchor="middle" x="217.5" y="-564.5" font-family="Helvetica,sans-Serif" font-size="10.00"> </text>
</a>
</g>
</g>
<!-- Node6&#45;&gt;Node4 -->
<g id="edge5" class="edge">
<title>Node6&#45;&gt;Node4</title>
<path fill="none" stroke="#404040" d="M208.58,-557.19C204.61,-544.86 199.85,-530.2 195.5,-517 194.76,-514.76 194,-512.47 193.24,-510.16"/>
<polygon fill="none" stroke="#404040" points="193.15,-509.91 187.46,-505.48 189.36,-498.53 195.05,-502.96 193.15,-509.91"/>
<text text-anchor="middle" x="231" y="-531" font-family="Helvetica,sans-Serif" font-size="10.00"> +leftOffset</text>
<text text-anchor="middle" x="231" y="-520" font-family="Helvetica,sans-Serif" font-size="10.00">+topOffset</text>
</g>
<!-- Node7 -->
<g id="node7" class="node">
<title>Node7</title>
<g id="a_node7"><a xlink:title=" ">
<polygon fill="none" stroke="#bfbfbf" points="284,-419.5 284,-487.5 433,-487.5 433,-419.5 284,-419.5"/>
<text text-anchor="start" x="292" y="-475.5" font-family="Helvetica,sans-Serif" font-size="10.00">vector&lt; std::shared</text>
<text text-anchor="middle" x="358.5" y="-464.5" font-family="Helvetica,sans-Serif" font-size="10.00">_ptr&lt; AbstractWindow &gt; &gt;</text>
<polyline fill="none" stroke="#bfbfbf" points="284,-457.5 433,-457.5 "/>
<text text-anchor="middle" x="358.5" y="-445.5" font-family="Helvetica,sans-Serif" font-size="10.00"> </text>
<polyline fill="none" stroke="#bfbfbf" points="284,-438.5 433,-438.5 "/>
<text text-anchor="middle" x="358.5" y="-426.5" font-family="Helvetica,sans-Serif" font-size="10.00"> </text>
</a>
</g>
</g>
<!-- Node7&#45;&gt;Node2 -->
<g id="edge6" class="edge">
<title>Node7&#45;&gt;Node2</title>
<path fill="none" stroke="#404040" d="M334.88,-419.27C320.68,-399.28 302.04,-373.05 284.69,-348.63"/>
<polygon fill="none" stroke="#404040" points="284.56,-348.44 277.82,-345.87 277.6,-338.66 284.34,-341.23 284.56,-348.44"/>
<text text-anchor="middle" x="337" y="-371" font-family="Helvetica,sans-Serif" font-size="10.00"> #children</text>
</g>
<!-- Node8 -->
<g id="node8" class="node">
<title>Node8</title>
<g id="a_node8"><a xlink:title=" ">
<polygon fill="none" stroke="#bfbfbf" points="357.5,-248.5 357.5,-305.5 395.5,-305.5 395.5,-248.5 357.5,-248.5"/>
<text text-anchor="middle" x="376.5" y="-293.5" font-family="Helvetica,sans-Serif" font-size="10.00">Font</text>
<polyline fill="none" stroke="#bfbfbf" points="357.5,-286.5 395.5,-286.5 "/>
<text text-anchor="middle" x="376.5" y="-274.5" font-family="Helvetica,sans-Serif" font-size="10.00"> </text>
<polyline fill="none" stroke="#bfbfbf" points="357.5,-267.5 395.5,-267.5 "/>
<text text-anchor="middle" x="376.5" y="-255.5" font-family="Helvetica,sans-Serif" font-size="10.00"> </text>
</a>
</g>
</g>
<!-- Node8&#45;&gt;Node1 -->
<g id="edge7" class="edge">
<title>Node8&#45;&gt;Node1</title>
<path fill="none" stroke="#404040" d="M376.5,-248.23C376.5,-230 376.5,-204.99 376.5,-180.02"/>
<polygon fill="none" stroke="#404040" points="376.5,-179.8 372.5,-173.8 376.5,-167.8 380.5,-173.8 376.5,-179.8"/>
<text text-anchor="middle" x="390" y="-189" font-family="Helvetica,sans-Serif" font-size="10.00"> &#45;font</text>
</g>
<!-- Node9 -->
<g id="node9" class="node">
<title>Node9</title>
<g id="a_node9"><a xlink:href="$struct_frame_graphic_1_1_game_info.html" xlink:title="Struct contains pointers for GameInfoGraphic class.">
<polygon fill="none" stroke="black" points="427,-248.5 427,-305.5 566,-305.5 566,-248.5 427,-248.5"/>
<text text-anchor="middle" x="496.5" y="-293.5" font-family="Helvetica,sans-Serif" font-size="10.00">FrameGraphic::GameInfo</text>
<polyline fill="none" stroke="black" points="427,-286.5 566,-286.5 "/>
<text text-anchor="middle" x="496.5" y="-274.5" font-family="Helvetica,sans-Serif" font-size="10.00"> </text>
<polyline fill="none" stroke="black" points="427,-267.5 566,-267.5 "/>
<text text-anchor="middle" x="496.5" y="-255.5" font-family="Helvetica,sans-Serif" font-size="10.00"> </text>
</a>
</g>
</g>
<!-- Node9&#45;&gt;Node1 -->
<g id="edge8" class="edge">
<title>Node9&#45;&gt;Node1</title>
<path fill="none" stroke="#404040" d="M479.05,-248.23C467.29,-229.5 451.03,-203.62 434.92,-177.98"/>
<polygon fill="none" stroke="#404040" points="434.91,-177.96 428.33,-175.01 428.52,-167.8 435.1,-170.75 434.91,-177.96"/>
<text text-anchor="middle" x="470.5" y="-189" font-family="Helvetica,sans-Serif" font-size="10.00"> &#45;gameInfo</text>
</g>
<!-- Node10 -->
<g id="node10" class="node">
<title>Node10</title>
<g id="a_node10"><a xlink:title=" ">
<polygon fill="none" stroke="#bfbfbf" points="451.5,-425 451.5,-482 555.5,-482 555.5,-425 451.5,-425"/>
<text text-anchor="middle" x="503.5" y="-470" font-family="Helvetica,sans-Serif" font-size="10.00">shared_ptr&lt; int &gt;</text>
<polyline fill="none" stroke="#bfbfbf" points="451.5,-463 555.5,-463 "/>
<text text-anchor="middle" x="503.5" y="-451" font-family="Helvetica,sans-Serif" font-size="10.00"> </text>
<polyline fill="none" stroke="#bfbfbf" points="451.5,-444 555.5,-444 "/>
<text text-anchor="middle" x="503.5" y="-432" font-family="Helvetica,sans-Serif" font-size="10.00"> </text>
</a>
</g>
</g>
<!-- Node10&#45;&gt;Node9 -->
<g id="edge9" class="edge">
<title>Node10&#45;&gt;Node9</title>
<path fill="none" stroke="#404040" d="M502.39,-424.85C501.23,-396 499.41,-350.51 498.1,-317.8"/>
<polygon fill="none" stroke="#404040" points="498.09,-317.51 493.85,-311.68 497.6,-305.52 501.84,-311.36 498.09,-317.51"/>
<text text-anchor="middle" x="533" y="-382" font-family="Helvetica,sans-Serif" font-size="10.00"> +level</text>
<text text-anchor="middle" x="533" y="-371" font-family="Helvetica,sans-Serif" font-size="10.00">+playerLives</text>
<text text-anchor="middle" x="533" y="-360" font-family="Helvetica,sans-Serif" font-size="10.00">+points</text>
</g>
</g>
</svg>
