<?xml version="1.0" encoding="UTF-8" standalone="no"?>
<!DOCTYPE svg PUBLIC "-//W3C//DTD SVG 1.1//EN"
 "http://www.w3.org/Graphics/SVG/1.1/DTD/svg11.dtd">
<!-- Generated by graphviz version 2.43.0 (0)
 -->
<!-- Title: EventQueue&lt; E &gt; Pages: 1 -->
<svg width="288pt" height="325pt"
 viewBox="0.00 0.00 288.00 325.00" xmlns="http://www.w3.org/2000/svg" xmlns:xlink="http://www.w3.org/1999/xlink">
<g id="graph0" class="graph" transform="scale(1 1) rotate(0) translate(4 321)">
<title>EventQueue&lt; E &gt;</title>
<!-- Node1 -->
<g id="node1" class="node">
<title>Node1</title>
<g id="a_node1"><a xlink:title="Singleton class wrapper for std::queue&lt;E&gt;.">
<polygon fill="#bfbfbf" stroke="black" points="55,-0.5 55,-200.5 205,-200.5 205,-0.5 55,-0.5"/>
<text text-anchor="middle" x="130" y="-188.5" font-family="Helvetica,sans-Serif" font-size="10.00">EventQueue&lt; E &gt;</text>
<polyline fill="none" stroke="black" points="55,-181.5 205,-181.5 "/>
<text text-anchor="middle" x="130" y="-169.5" font-family="Helvetica,sans-Serif" font-size="10.00"> </text>
<polyline fill="none" stroke="black" points="55,-162.5 205,-162.5 "/>
<text text-anchor="start" x="63" y="-150.5" font-family="Helvetica,sans-Serif" font-size="10.00">+ EventQueue(EventQueue</text>
<text text-anchor="start" x="63" y="-139.5" font-family="Helvetica,sans-Serif" font-size="10.00"> &amp;)=delete</text>
<text text-anchor="start" x="63" y="-128.5" font-family="Helvetica,sans-Serif" font-size="10.00">+ bool operator=(const</text>
<text text-anchor="start" x="63" y="-117.5" font-family="Helvetica,sans-Serif" font-size="10.00"> EventQueue &amp;)=delete</text>
<text text-anchor="start" x="63" y="-106.5" font-family="Helvetica,sans-Serif" font-size="10.00">+ void registerEvent</text>
<text text-anchor="start" x="63" y="-95.5" font-family="Helvetica,sans-Serif" font-size="10.00">(std::unique_ptr&lt; E</text>
<text text-anchor="start" x="63" y="-84.5" font-family="Helvetica,sans-Serif" font-size="10.00"> &gt; event)</text>
<text text-anchor="start" x="63" y="-73.5" font-family="Helvetica,sans-Serif" font-size="10.00">+ std::unique_ptr&lt; E</text>
<text text-anchor="start" x="63" y="-62.5" font-family="Helvetica,sans-Serif" font-size="10.00"> &gt; pop()</text>
<text text-anchor="start" x="63" y="-51.5" font-family="Helvetica,sans-Serif" font-size="10.00">+ bool isEmpty()</text>
<text text-anchor="start" x="63" y="-40.5" font-family="Helvetica,sans-Serif" font-size="10.00">+ void clear()</text>
<text text-anchor="start" x="63" y="-29.5" font-family="Helvetica,sans-Serif" font-size="10.00">+ static EventQueue *</text>
<text text-anchor="start" x="63" y="-18.5" font-family="Helvetica,sans-Serif" font-size="10.00"> instance()</text>
<text text-anchor="start" x="63" y="-7.5" font-family="Helvetica,sans-Serif" font-size="10.00">&#45; EventQueue()=default</text>
</a>
</g>
</g>
<!-- Node2 -->
<g id="node2" class="node">
<title>Node2</title>
<g id="a_node2"><a xlink:title=" ">
<polygon fill="none" stroke="black" points="0,-248.5 0,-316.5 112,-316.5 112,-248.5 0,-248.5"/>
<text text-anchor="start" x="8" y="-304.5" font-family="Helvetica,sans-Serif" font-size="10.00">queue&lt; std::unique</text>
<text text-anchor="middle" x="56" y="-293.5" font-family="Helvetica,sans-Serif" font-size="10.00">_ptr&lt; E &gt; &gt;</text>
<polyline fill="none" stroke="black" points="0,-286.5 112,-286.5 "/>
<text text-anchor="middle" x="56" y="-274.5" font-family="Helvetica,sans-Serif" font-size="10.00"> </text>
<polyline fill="none" stroke="black" points="0,-267.5 112,-267.5 "/>
<text text-anchor="middle" x="56" y="-255.5" font-family="Helvetica,sans-Serif" font-size="10.00"> </text>
</a>
</g>
</g>
<!-- Node2&#45;&gt;Node1 -->
<g id="edge1" class="edge">
<title>Node2&#45;&gt;Node1</title>
<path fill="none" stroke="#404040" d="M69.57,-248.49C74.01,-237.7 79.2,-225.06 84.65,-211.81"/>
<polygon fill="none" stroke="#404040" points="84.72,-211.65 83.3,-204.58 89.28,-200.55 90.7,-207.62 84.72,-211.65"/>
<text text-anchor="middle" x="105" y="-222" font-family="Helvetica,sans-Serif" font-size="10.00"> #events_</text>
</g>
<!-- Node3 -->
<g id="node3" class="node">
<title>Node3</title>
<g id="a_node3"><a xlink:title=" ">
<polygon fill="none" stroke="black" points="130,-254 130,-311 280,-311 280,-254 130,-254"/>
<text text-anchor="middle" x="205" y="-299" font-family="Helvetica,sans-Serif" font-size="10.00">unique_ptr&lt; EventQueue &gt;</text>
<polyline fill="none" stroke="black" points="130,-292 280,-292 "/>
<text text-anchor="middle" x="205" y="-280" font-family="Helvetica,sans-Serif" font-size="10.00"> </text>
<polyline fill="none" stroke="black" points="130,-273 280,-273 "/>
<text text-anchor="middle" x="205" y="-261" font-family="Helvetica,sans-Serif" font-size="10.00"> </text>
</a>
</g>
</g>
<!-- Node3&#45;&gt;Node1 -->
<g id="edge2" class="edge">
<title>Node3&#45;&gt;Node1</title>
<path fill="none" stroke="#404040" d="M193.45,-253.77C188.55,-242.02 182.5,-227.51 176.1,-212.14"/>
<polygon fill="none" stroke="#404040" points="176,-211.9 170,-207.9 171.39,-200.82 177.39,-204.82 176,-211.9"/>
<text text-anchor="middle" x="199.5" y="-222" font-family="Helvetica,sans-Serif" font-size="10.00"> #self_</text>
</g>
</g>
</svg>
