<?xml version="1.0" encoding="UTF-8" standalone="no"?>
<!DOCTYPE svg PUBLIC "-//W3C//DTD SVG 1.1//EN"
 "http://www.w3.org/Graphics/SVG/1.1/DTD/svg11.dtd">
<!-- Generated by graphviz version 2.43.0 (0)
 -->
<!-- Title: Tank Pages: 1 -->
<svg width="702pt" height="859pt"
 viewBox="0.00 0.00 702.00 859.00" xmlns="http://www.w3.org/2000/svg" xmlns:xlink="http://www.w3.org/1999/xlink">
<g id="graph0" class="graph" transform="scale(1 1) rotate(0) translate(4 855)">
<title>Tank</title>
<!-- Node1 -->
<g id="node1" class="node">
<title>Node1</title>
<g id="a_node1"><a xlink:title="Base class for tank representation.">
<polygon fill="#bfbfbf" stroke="black" points="260,-138.5 260,-547.5 429,-547.5 429,-138.5 260,-138.5"/>
<text text-anchor="middle" x="344.5" y="-535.5" font-family="Helvetica,sans-Serif" font-size="10.00">Tank</text>
<polyline fill="none" stroke="black" points="260,-528.5 429,-528.5 "/>
<text text-anchor="start" x="268" y="-516.5" font-family="Helvetica,sans-Serif" font-size="10.00"># TankType type_</text>
<text text-anchor="start" x="268" y="-505.5" font-family="Helvetica,sans-Serif" font-size="10.00"># unsigned int lives_</text>
<text text-anchor="start" x="268" y="-494.5" font-family="Helvetica,sans-Serif" font-size="10.00"># bool moving_</text>
<text text-anchor="start" x="268" y="-483.5" font-family="Helvetica,sans-Serif" font-size="10.00"># unsigned int points_</text>
<text text-anchor="start" x="268" y="-472.5" font-family="Helvetica,sans-Serif" font-size="10.00"># float bulletSpeed_</text>
<polyline fill="none" stroke="black" points="260,-465.5 429,-465.5 "/>
<text text-anchor="start" x="268" y="-453.5" font-family="Helvetica,sans-Serif" font-size="10.00">+ void setFacing(Direction</text>
<text text-anchor="start" x="268" y="-442.5" font-family="Helvetica,sans-Serif" font-size="10.00"> direction)</text>
<text text-anchor="start" x="268" y="-431.5" font-family="Helvetica,sans-Serif" font-size="10.00">+ bool move() override</text>
<text text-anchor="start" x="268" y="-420.5" font-family="Helvetica,sans-Serif" font-size="10.00">+ bool moveBack() override</text>
<text text-anchor="start" x="268" y="-409.5" font-family="Helvetica,sans-Serif" font-size="10.00">+ void deltaLives(int</text>
<text text-anchor="start" x="268" y="-398.5" font-family="Helvetica,sans-Serif" font-size="10.00"> delta_l)</text>
<text text-anchor="start" x="268" y="-387.5" font-family="Helvetica,sans-Serif" font-size="10.00">+ TankType getType()</text>
<text text-anchor="start" x="268" y="-376.5" font-family="Helvetica,sans-Serif" font-size="10.00"> const</text>
<text text-anchor="start" x="268" y="-365.5" font-family="Helvetica,sans-Serif" font-size="10.00">+ unsigned int getLives</text>
<text text-anchor="start" x="268" y="-354.5" font-family="Helvetica,sans-Serif" font-size="10.00">() const</text>
<text text-anchor="start" x="268" y="-343.5" font-family="Helvetica,sans-Serif" font-size="10.00">+ void setMoving(bool</text>
<text text-anchor="start" x="268" y="-332.5" font-family="Helvetica,sans-Serif" font-size="10.00"> isMoving)</text>
<text text-anchor="start" x="268" y="-321.5" font-family="Helvetica,sans-Serif" font-size="10.00">+ bool isMoving() const</text>
<text text-anchor="start" x="268" y="-310.5" font-family="Helvetica,sans-Serif" font-size="10.00">+ unsigned int getPoints</text>
<text text-anchor="start" x="268" y="-299.5" font-family="Helvetica,sans-Serif" font-size="10.00">() const</text>
<text text-anchor="start" x="268" y="-288.5" font-family="Helvetica,sans-Serif" font-size="10.00">+ void setX(float x)</text>
<text text-anchor="start" x="268" y="-277.5" font-family="Helvetica,sans-Serif" font-size="10.00">+ void setY(float y)</text>
<text text-anchor="start" x="268" y="-266.5" font-family="Helvetica,sans-Serif" font-size="10.00">+ void offsetInCurrentDirection</text>
<text text-anchor="start" x="268" y="-255.5" font-family="Helvetica,sans-Serif" font-size="10.00">(float offset)</text>
<text text-anchor="start" x="268" y="-244.5" font-family="Helvetica,sans-Serif" font-size="10.00">+ std::optional&lt; std</text>
<text text-anchor="start" x="268" y="-233.5" font-family="Helvetica,sans-Serif" font-size="10.00">::unique_ptr&lt; Bullet</text>
<text text-anchor="start" x="268" y="-222.5" font-family="Helvetica,sans-Serif" font-size="10.00"> &gt; &gt; createBullet()</text>
<text text-anchor="start" x="268" y="-211.5" font-family="Helvetica,sans-Serif" font-size="10.00">+ void notify(SimplePublisher</text>
<text text-anchor="start" x="268" y="-200.5" font-family="Helvetica,sans-Serif" font-size="10.00"> *pub) override</text>
<text text-anchor="start" x="268" y="-189.5" font-family="Helvetica,sans-Serif" font-size="10.00"># Tank(TankType type,</text>
<text text-anchor="start" x="268" y="-178.5" font-family="Helvetica,sans-Serif" font-size="10.00"> float x, float y, float</text>
<text text-anchor="start" x="268" y="-167.5" font-family="Helvetica,sans-Serif" font-size="10.00"> speed, float bulletSpeed,</text>
<text text-anchor="start" x="268" y="-156.5" font-family="Helvetica,sans-Serif" font-size="10.00"> unsigned int lives, Direction</text>
<text text-anchor="start" x="268" y="-145.5" font-family="Helvetica,sans-Serif" font-size="10.00"> direction, unsigned int points)</text>
</a>
</g>
</g>
<!-- Node4 -->
<g id="node4" class="node">
<title>Node4</title>
<g id="a_node4"><a xlink:href="$class_armor_tank.html" xlink:title=" ">
<polygon fill="none" stroke="black" points="0,-6 0,-96 127,-96 127,-6 0,-6"/>
<text text-anchor="middle" x="63.5" y="-84" font-family="Helvetica,sans-Serif" font-size="10.00">ArmorTank</text>
<polyline fill="none" stroke="black" points="0,-77 127,-77 "/>
<text text-anchor="middle" x="63.5" y="-65" font-family="Helvetica,sans-Serif" font-size="10.00"> </text>
<polyline fill="none" stroke="black" points="0,-58 127,-58 "/>
<text text-anchor="start" x="8" y="-46" font-family="Helvetica,sans-Serif" font-size="10.00">+ ArmorTank()=delete</text>
<text text-anchor="start" x="8" y="-35" font-family="Helvetica,sans-Serif" font-size="10.00">+ ArmorTank(float x,</text>
<text text-anchor="start" x="8" y="-24" font-family="Helvetica,sans-Serif" font-size="10.00"> float y, Direction</text>
<text text-anchor="start" x="8" y="-13" font-family="Helvetica,sans-Serif" font-size="10.00"> facing=North)</text>
</a>
</g>
</g>
<!-- Node1&#45;&gt;Node4 -->
<g id="edge3" class="edge">
<title>Node1&#45;&gt;Node4</title>
<path fill="none" stroke="midnightblue" d="M252.62,-247.18C203.45,-196.44 145.22,-136.34 106.49,-96.37"/>
<polygon fill="none" stroke="midnightblue" points="250.34,-249.85 259.81,-254.6 255.36,-244.98 250.34,-249.85"/>
</g>
<!-- Node5 -->
<g id="node5" class="node">
<title>Node5</title>
<g id="a_node5"><a xlink:href="$class_basic_tank.html" xlink:title=" ">
<polygon fill="none" stroke="black" points="145,-6 145,-96 268,-96 268,-6 145,-6"/>
<text text-anchor="middle" x="206.5" y="-84" font-family="Helvetica,sans-Serif" font-size="10.00">BasicTank</text>
<polyline fill="none" stroke="black" points="145,-77 268,-77 "/>
<text text-anchor="middle" x="206.5" y="-65" font-family="Helvetica,sans-Serif" font-size="10.00"> </text>
<polyline fill="none" stroke="black" points="145,-58 268,-58 "/>
<text text-anchor="start" x="153" y="-46" font-family="Helvetica,sans-Serif" font-size="10.00">+ BasicTank()=delete</text>
<text text-anchor="start" x="153" y="-35" font-family="Helvetica,sans-Serif" font-size="10.00">+ BasicTank(float x,</text>
<text text-anchor="start" x="153" y="-24" font-family="Helvetica,sans-Serif" font-size="10.00"> float y, Direction</text>
<text text-anchor="start" x="153" y="-13" font-family="Helvetica,sans-Serif" font-size="10.00"> facing=North)</text>
</a>
</g>
</g>
<!-- Node1&#45;&gt;Node5 -->
<g id="edge4" class="edge">
<title>Node1&#45;&gt;Node5</title>
<path fill="none" stroke="midnightblue" d="M255.55,-155.07C245.22,-133.36 235.54,-113.02 227.55,-96.23"/>
<polygon fill="none" stroke="midnightblue" points="252.4,-156.6 259.85,-164.12 258.72,-153.59 252.4,-156.6"/>
</g>
<!-- Node6 -->
<g id="node6" class="node">
<title>Node6</title>
<g id="a_node6"><a xlink:href="$class_fast_tank.html" xlink:title=" ">
<polygon fill="none" stroke="black" points="286.5,-6 286.5,-96 402.5,-96 402.5,-6 286.5,-6"/>
<text text-anchor="middle" x="344.5" y="-84" font-family="Helvetica,sans-Serif" font-size="10.00">FastTank</text>
<polyline fill="none" stroke="black" points="286.5,-77 402.5,-77 "/>
<text text-anchor="middle" x="344.5" y="-65" font-family="Helvetica,sans-Serif" font-size="10.00"> </text>
<polyline fill="none" stroke="black" points="286.5,-58 402.5,-58 "/>
<text text-anchor="start" x="294.5" y="-46" font-family="Helvetica,sans-Serif" font-size="10.00">+ FastTank()=delete</text>
<text text-anchor="start" x="294.5" y="-35" font-family="Helvetica,sans-Serif" font-size="10.00">+ FastTank(float x,</text>
<text text-anchor="start" x="294.5" y="-24" font-family="Helvetica,sans-Serif" font-size="10.00"> float y, Direction</text>
<text text-anchor="start" x="294.5" y="-13" font-family="Helvetica,sans-Serif" font-size="10.00"> facing=North)</text>
</a>
</g>
</g>
<!-- Node1&#45;&gt;Node6 -->
<g id="edge5" class="edge">
<title>Node1&#45;&gt;Node6</title>
<path fill="none" stroke="midnightblue" d="M344.5,-128C344.5,-116.56 344.5,-105.88 344.5,-96.34"/>
<polygon fill="none" stroke="midnightblue" points="341,-128.22 344.5,-138.22 348,-128.22 341,-128.22"/>
</g>
<!-- Node7 -->
<g id="node7" class="node">
<title>Node7</title>
<g id="a_node7"><a xlink:href="$class_player_tank.html" xlink:title=" ">
<polygon fill="none" stroke="black" points="420.5,-0.5 420.5,-101.5 548.5,-101.5 548.5,-0.5 420.5,-0.5"/>
<text text-anchor="middle" x="484.5" y="-89.5" font-family="Helvetica,sans-Serif" font-size="10.00">PlayerTank</text>
<polyline fill="none" stroke="black" points="420.5,-82.5 548.5,-82.5 "/>
<text text-anchor="middle" x="484.5" y="-70.5" font-family="Helvetica,sans-Serif" font-size="10.00"> </text>
<polyline fill="none" stroke="black" points="420.5,-63.5 548.5,-63.5 "/>
<text text-anchor="start" x="428.5" y="-51.5" font-family="Helvetica,sans-Serif" font-size="10.00">+ PlayerTank()=delete</text>
<text text-anchor="start" x="428.5" y="-40.5" font-family="Helvetica,sans-Serif" font-size="10.00">+ PlayerTank(float x,</text>
<text text-anchor="start" x="428.5" y="-29.5" font-family="Helvetica,sans-Serif" font-size="10.00"> float y, unsigned int</text>
<text text-anchor="start" x="428.5" y="-18.5" font-family="Helvetica,sans-Serif" font-size="10.00"> lives, Direction facing</text>
<text text-anchor="start" x="428.5" y="-7.5" font-family="Helvetica,sans-Serif" font-size="10.00">=North)</text>
</a>
</g>
</g>
<!-- Node1&#45;&gt;Node7 -->
<g id="edge6" class="edge">
<title>Node1&#45;&gt;Node7</title>
<path fill="none" stroke="midnightblue" d="M433.57,-157.5C443.41,-137.12 452.71,-117.86 460.59,-101.52"/>
<polygon fill="none" stroke="midnightblue" points="430.36,-156.09 429.17,-166.62 436.67,-159.13 430.36,-156.09"/>
</g>
<!-- Node8 -->
<g id="node8" class="node">
<title>Node8</title>
<g id="a_node8"><a xlink:href="$class_power_tank.html" xlink:title=" ">
<polygon fill="none" stroke="black" points="567,-6 567,-96 694,-96 694,-6 567,-6"/>
<text text-anchor="middle" x="630.5" y="-84" font-family="Helvetica,sans-Serif" font-size="10.00">PowerTank</text>
<polyline fill="none" stroke="black" points="567,-77 694,-77 "/>
<text text-anchor="middle" x="630.5" y="-65" font-family="Helvetica,sans-Serif" font-size="10.00"> </text>
<polyline fill="none" stroke="black" points="567,-58 694,-58 "/>
<text text-anchor="start" x="575" y="-46" font-family="Helvetica,sans-Serif" font-size="10.00">+ PowerTank()=delete</text>
<text text-anchor="start" x="575" y="-35" font-family="Helvetica,sans-Serif" font-size="10.00">+ PowerTank(float x,</text>
<text text-anchor="start" x="575" y="-24" font-family="Helvetica,sans-Serif" font-size="10.00"> float y, Direction</text>
<text text-anchor="start" x="575" y="-13" font-family="Helvetica,sans-Serif" font-size="10.00"> facing=North)</text>
</a>
</g>
</g>
<!-- Node1&#45;&gt;Node8 -->
<g id="edge7" class="edge">
<title>Node1&#45;&gt;Node8</title>
<path fill="none" stroke="midnightblue" d="M436.21,-249C486.76,-197.75 547.17,-136.5 587.06,-96.05"/>
<polygon fill="none" stroke="midnightblue" points="433.68,-246.59 429.15,-256.17 438.66,-251.51 433.68,-246.59"/>
</g>
<!-- Node2 -->
<g id="node2" class="node">
<title>Node2</title>
<g id="a_node2"><a xlink:href="$class_entity.html" xlink:title=" ">
<polygon fill="none" stroke="black" points="167.5,-584.5 167.5,-850.5 327.5,-850.5 327.5,-584.5 167.5,-584.5"/>
<text text-anchor="middle" x="247.5" y="-838.5" font-family="Helvetica,sans-Serif" font-size="10.00">Entity</text>
<polyline fill="none" stroke="black" points="167.5,-831.5 327.5,-831.5 "/>
<text text-anchor="start" x="175.5" y="-819.5" font-family="Helvetica,sans-Serif" font-size="10.00"># float x_</text>
<text text-anchor="start" x="175.5" y="-808.5" font-family="Helvetica,sans-Serif" font-size="10.00"># float y_</text>
<text text-anchor="start" x="175.5" y="-797.5" font-family="Helvetica,sans-Serif" font-size="10.00"># float size_x_</text>
<text text-anchor="start" x="175.5" y="-786.5" font-family="Helvetica,sans-Serif" font-size="10.00"># float size_y_</text>
<text text-anchor="start" x="175.5" y="-775.5" font-family="Helvetica,sans-Serif" font-size="10.00"># float speed_</text>
<text text-anchor="start" x="175.5" y="-764.5" font-family="Helvetica,sans-Serif" font-size="10.00"># Direction facing_</text>
<polyline fill="none" stroke="black" points="167.5,-757.5 327.5,-757.5 "/>
<text text-anchor="start" x="175.5" y="-745.5" font-family="Helvetica,sans-Serif" font-size="10.00">+ virtual ~Entity()=default</text>
<text text-anchor="start" x="175.5" y="-734.5" font-family="Helvetica,sans-Serif" font-size="10.00">+ virtual bool move()=0</text>
<text text-anchor="start" x="175.5" y="-723.5" font-family="Helvetica,sans-Serif" font-size="10.00">+ virtual bool moveBack()=0</text>
<text text-anchor="start" x="175.5" y="-712.5" font-family="Helvetica,sans-Serif" font-size="10.00">+ float getX() const</text>
<text text-anchor="start" x="175.5" y="-701.5" font-family="Helvetica,sans-Serif" font-size="10.00">+ float getY() const</text>
<text text-anchor="start" x="175.5" y="-690.5" font-family="Helvetica,sans-Serif" font-size="10.00">+ float getSpeed() const</text>
<text text-anchor="start" x="175.5" y="-679.5" font-family="Helvetica,sans-Serif" font-size="10.00">+ Direction getFacing</text>
<text text-anchor="start" x="175.5" y="-668.5" font-family="Helvetica,sans-Serif" font-size="10.00">() const</text>
<text text-anchor="start" x="175.5" y="-657.5" font-family="Helvetica,sans-Serif" font-size="10.00">+ float getSizeX() const</text>
<text text-anchor="start" x="175.5" y="-646.5" font-family="Helvetica,sans-Serif" font-size="10.00">+ float getSizeY() const</text>
<text text-anchor="start" x="175.5" y="-635.5" font-family="Helvetica,sans-Serif" font-size="10.00"># Entity()=default</text>
<text text-anchor="start" x="175.5" y="-624.5" font-family="Helvetica,sans-Serif" font-size="10.00"># Entity(float x, float</text>
<text text-anchor="start" x="175.5" y="-613.5" font-family="Helvetica,sans-Serif" font-size="10.00"> y, float sizeX, float</text>
<text text-anchor="start" x="175.5" y="-602.5" font-family="Helvetica,sans-Serif" font-size="10.00"> sizeY, float speed, Direction</text>
<text text-anchor="start" x="175.5" y="-591.5" font-family="Helvetica,sans-Serif" font-size="10.00"> facing)</text>
</a>
</g>
</g>
<!-- Node2&#45;&gt;Node1 -->
<g id="edge1" class="edge">
<title>Node2&#45;&gt;Node1</title>
<path fill="none" stroke="midnightblue" d="M284.49,-574.45C286.8,-565.59 289.14,-556.59 291.5,-547.53"/>
<polygon fill="none" stroke="midnightblue" points="281.04,-573.82 281.9,-584.38 287.81,-575.59 281.04,-573.82"/>
</g>
<!-- Node3 -->
<g id="node3" class="node">
<title>Node3</title>
<g id="a_node3"><a xlink:href="$class_simple_subscriber.html" xlink:title=" ">
<polygon fill="none" stroke="black" points="346,-628.5 346,-806.5 539,-806.5 539,-628.5 346,-628.5"/>
<text text-anchor="middle" x="442.5" y="-794.5" font-family="Helvetica,sans-Serif" font-size="10.00">SimpleSubscriber</text>
<polyline fill="none" stroke="black" points="346,-787.5 539,-787.5 "/>
<text text-anchor="start" x="354" y="-775.5" font-family="Helvetica,sans-Serif" font-size="10.00"># std::vector&lt; SimplePublisher</text>
<text text-anchor="start" x="354" y="-764.5" font-family="Helvetica,sans-Serif" font-size="10.00"> * &gt; subscribedSubjects_</text>
<polyline fill="none" stroke="black" points="346,-757.5 539,-757.5 "/>
<text text-anchor="start" x="354" y="-745.5" font-family="Helvetica,sans-Serif" font-size="10.00">+ ~SimpleSubscriber()</text>
<text text-anchor="start" x="354" y="-734.5" font-family="Helvetica,sans-Serif" font-size="10.00">+ void subscribe(SimplePublisher</text>
<text text-anchor="start" x="354" y="-723.5" font-family="Helvetica,sans-Serif" font-size="10.00"> *pub)</text>
<text text-anchor="start" x="354" y="-712.5" font-family="Helvetica,sans-Serif" font-size="10.00">+ void unsubscribe(SimplePublisher</text>
<text text-anchor="start" x="354" y="-701.5" font-family="Helvetica,sans-Serif" font-size="10.00"> *pub)</text>
<text text-anchor="start" x="354" y="-690.5" font-family="Helvetica,sans-Serif" font-size="10.00">+ void removeDeletedSubject</text>
<text text-anchor="start" x="354" y="-679.5" font-family="Helvetica,sans-Serif" font-size="10.00">(SimplePublisher *pub)</text>
<text text-anchor="start" x="354" y="-668.5" font-family="Helvetica,sans-Serif" font-size="10.00">+ virtual void notify</text>
<text text-anchor="start" x="354" y="-657.5" font-family="Helvetica,sans-Serif" font-size="10.00">(SimplePublisher *pub)=0</text>
<text text-anchor="start" x="354" y="-646.5" font-family="Helvetica,sans-Serif" font-size="10.00"># SimpleSubscriber()</text>
<text text-anchor="start" x="354" y="-635.5" font-family="Helvetica,sans-Serif" font-size="10.00">=default</text>
</a>
</g>
</g>
<!-- Node3&#45;&gt;Node1 -->
<g id="edge2" class="edge">
<title>Node3&#45;&gt;Node1</title>
<path fill="none" stroke="midnightblue" d="M416.66,-618.29C410.88,-596.33 404.55,-572.25 398.11,-547.76"/>
<polygon fill="none" stroke="midnightblue" points="413.35,-619.44 419.28,-628.22 420.12,-617.66 413.35,-619.44"/>
</g>
</g>
</svg>
