<?xml version="1.0" encoding="UTF-8" standalone="no"?>
<!DOCTYPE svg PUBLIC "-//W3C//DTD SVG 1.1//EN"
 "http://www.w3.org/Graphics/SVG/1.1/DTD/svg11.dtd">
<!-- Generated by graphviz version 2.50.0 (0)
 -->
<!-- Title: TanksGraphic Pages: 1 -->
<svg width="1045pt" height="722pt"
 viewBox="0.00 0.00 1045.00 722.00" xmlns="http://www.w3.org/2000/svg" xmlns:xlink="http://www.w3.org/1999/xlink">
<g id="graph0" class="graph" transform="scale(1 1) rotate(0) translate(4 718)">
<title>TanksGraphic</title>
<!-- Node1 -->
<g id="node1" class="node">
<title>Node1</title>
<g id="a_node1"><a xlink:title="Class responsible for tanks updates and render.">
<polygon fill="#bfbfbf" stroke="black" points="492.5,-0.5 492.5,-277.5 660.5,-277.5 660.5,-0.5 492.5,-0.5"/>
<text text-anchor="middle" x="576.5" y="-265.5" font-family="Helvetica,sans-Serif" font-size="10.00">TanksGraphic</text>
<polyline fill="none" stroke="black" points="492.5,-258.5 660.5,-258.5 "/>
<text text-anchor="middle" x="576.5" y="-246.5" font-family="Helvetica,sans-Serif" font-size="10.00"> </text>
<polyline fill="none" stroke="black" points="492.5,-239.5 660.5,-239.5 "/>
<text text-anchor="start" x="500.5" y="-227.5" font-family="Helvetica,sans-Serif" font-size="10.00">+ virtual void render</text>
<text text-anchor="start" x="500.5" y="-216.5" font-family="Helvetica,sans-Serif" font-size="10.00">() override</text>
<text text-anchor="start" x="500.5" y="-205.5" font-family="Helvetica,sans-Serif" font-size="10.00">+ std::vector&lt; std::shared</text>
<text text-anchor="start" x="500.5" y="-194.5" font-family="Helvetica,sans-Serif" font-size="10.00">_ptr&lt; Tank &gt; &gt; * getTanks</text>
<text text-anchor="start" x="500.5" y="-183.5" font-family="Helvetica,sans-Serif" font-size="10.00">() const</text>
<text text-anchor="start" x="500.5" y="-172.5" font-family="Helvetica,sans-Serif" font-size="10.00">+ std::vector&lt; RenderObject</text>
<text text-anchor="start" x="500.5" y="-161.5" font-family="Helvetica,sans-Serif" font-size="10.00"> &gt; getRenderTanks()</text>
<text text-anchor="start" x="500.5" y="-150.5" font-family="Helvetica,sans-Serif" font-size="10.00">+ TanksGraphic(const</text>
<text text-anchor="start" x="500.5" y="-139.5" font-family="Helvetica,sans-Serif" font-size="10.00"> WindowView &amp;windowView,</text>
<text text-anchor="start" x="500.5" y="-128.5" font-family="Helvetica,sans-Serif" font-size="10.00"> std::shared_ptr&lt; std::</text>
<text text-anchor="start" x="500.5" y="-117.5" font-family="Helvetica,sans-Serif" font-size="10.00">vector&lt; std::shared_ptr</text>
<text text-anchor="start" x="500.5" y="-106.5" font-family="Helvetica,sans-Serif" font-size="10.00">&lt; Tank &gt;&gt;&gt; tanks, std::shared</text>
<text text-anchor="start" x="500.5" y="-95.5" font-family="Helvetica,sans-Serif" font-size="10.00">_ptr&lt; std::queue&lt; sf::Sprite</text>
<text text-anchor="start" x="500.5" y="-84.5" font-family="Helvetica,sans-Serif" font-size="10.00"> &gt;&gt; specialQueue)</text>
<text text-anchor="start" x="500.5" y="-73.5" font-family="Helvetica,sans-Serif" font-size="10.00"># void setTankRotation</text>
<text text-anchor="start" x="500.5" y="-62.5" font-family="Helvetica,sans-Serif" font-size="10.00">(sf::Sprite &amp;sprite,</text>
<text text-anchor="start" x="500.5" y="-51.5" font-family="Helvetica,sans-Serif" font-size="10.00"> float angle)</text>
<text text-anchor="start" x="500.5" y="-40.5" font-family="Helvetica,sans-Serif" font-size="10.00"># void makeRenderTanks()</text>
<text text-anchor="start" x="500.5" y="-29.5" font-family="Helvetica,sans-Serif" font-size="10.00"># void loadTextures()</text>
<text text-anchor="start" x="500.5" y="-18.5" font-family="Helvetica,sans-Serif" font-size="10.00"># float getAngle(Direction</text>
<text text-anchor="start" x="500.5" y="-7.5" font-family="Helvetica,sans-Serif" font-size="10.00"> direction) const</text>
</a>
</g>
</g>
<!-- Node2 -->
<g id="node2" class="node">
<title>Node2</title>
<g id="a_node2"><a xlink:href="$class_abstract_window.html" xlink:title="Contains main SFML functions.">
<polygon fill="none" stroke="black" points="95.5,-325.5 95.5,-448.5 253.5,-448.5 253.5,-325.5 95.5,-325.5"/>
<text text-anchor="middle" x="174.5" y="-436.5" font-family="Helvetica,sans-Serif" font-size="10.00">AbstractWindow</text>
<polyline fill="none" stroke="black" points="95.5,-429.5 253.5,-429.5 "/>
<text text-anchor="middle" x="174.5" y="-417.5" font-family="Helvetica,sans-Serif" font-size="10.00"> </text>
<polyline fill="none" stroke="black" points="95.5,-410.5 253.5,-410.5 "/>
<text text-anchor="start" x="103.5" y="-398.5" font-family="Helvetica,sans-Serif" font-size="10.00">+ sf::RenderWindow *</text>
<text text-anchor="start" x="103.5" y="-387.5" font-family="Helvetica,sans-Serif" font-size="10.00"> getWindow()</text>
<text text-anchor="start" x="103.5" y="-376.5" font-family="Helvetica,sans-Serif" font-size="10.00">+ virtual void render()=0</text>
<text text-anchor="start" x="103.5" y="-365.5" font-family="Helvetica,sans-Serif" font-size="10.00">+ AbstractWindow()</text>
<text text-anchor="start" x="103.5" y="-354.5" font-family="Helvetica,sans-Serif" font-size="10.00">+ AbstractWindow(const</text>
<text text-anchor="start" x="103.5" y="-343.5" font-family="Helvetica,sans-Serif" font-size="10.00"> WindowView &amp;windowView)</text>
<text text-anchor="start" x="103.5" y="-332.5" font-family="Helvetica,sans-Serif" font-size="10.00">+ virtual ~AbstractWindow()</text>
</a>
</g>
</g>
<!-- Node2&#45;&gt;Node1 -->
<g id="edge1" class="edge">
<title>Node2&#45;&gt;Node1</title>
<path fill="none" stroke="midnightblue" d="M262.24,-325.17C262.32,-325.11 262.41,-325.06 262.5,-325 338.98,-276.06 428.38,-223.86 492.19,-187.43"/>
<polygon fill="none" stroke="midnightblue" points="260.44,-322.16 253.95,-330.54 264.24,-328.04 260.44,-322.16"/>
</g>
<!-- Node3 -->
<g id="node3" class="node">
<title>Node3</title>
<g id="a_node3"><a xlink:title=" ">
<polygon fill="none" stroke="#bfbfbf" points="0,-524 0,-581 65,-581 65,-524 0,-524"/>
<text text-anchor="middle" x="32.5" y="-569" font-family="Helvetica,sans-Serif" font-size="10.00">const uint</text>
<polyline fill="none" stroke="#bfbfbf" points="0,-562 65,-562 "/>
<text text-anchor="middle" x="32.5" y="-550" font-family="Helvetica,sans-Serif" font-size="10.00"> </text>
<polyline fill="none" stroke="#bfbfbf" points="0,-543 65,-543 "/>
<text text-anchor="middle" x="32.5" y="-531" font-family="Helvetica,sans-Serif" font-size="10.00"> </text>
</a>
</g>
</g>
<!-- Node3&#45;&gt;Node2 -->
<g id="edge2" class="edge">
<title>Node3&#45;&gt;Node2</title>
<path fill="none" stroke="#404040" d="M41.02,-523.71C47.3,-506.23 57.08,-483.87 70.5,-467 75.27,-461 80.59,-455.21 86.24,-449.68"/>
<polygon fill="none" stroke="#404040" points="86.56,-449.38 88.23,-442.36 95.35,-441.2 93.68,-448.22 86.56,-449.38"/>
<text text-anchor="middle" x="120.5" y="-481" font-family="Helvetica,sans-Serif" font-size="10.00"> #WINDOW_HEIGHT</text>
<text text-anchor="middle" x="120.5" y="-470" font-family="Helvetica,sans-Serif" font-size="10.00">#WINDOW_WIDTH</text>
</g>
<!-- Node4 -->
<g id="node4" class="node">
<title>Node4</title>
<g id="a_node4"><a xlink:href="$struct_window_view.html" xlink:title="Struct that contains the sf::RenderWindow nad offset of elements to render.">
<polygon fill="none" stroke="black" points="83.5,-507.5 83.5,-597.5 265.5,-597.5 265.5,-507.5 83.5,-507.5"/>
<text text-anchor="middle" x="174.5" y="-585.5" font-family="Helvetica,sans-Serif" font-size="10.00">WindowView</text>
<polyline fill="none" stroke="black" points="83.5,-578.5 265.5,-578.5 "/>
<text text-anchor="middle" x="174.5" y="-566.5" font-family="Helvetica,sans-Serif" font-size="10.00"> </text>
<polyline fill="none" stroke="black" points="83.5,-559.5 265.5,-559.5 "/>
<text text-anchor="start" x="91.5" y="-547.5" font-family="Helvetica,sans-Serif" font-size="10.00">+ WindowView(sf::RenderWindow</text>
<text text-anchor="start" x="91.5" y="-536.5" font-family="Helvetica,sans-Serif" font-size="10.00"> *window, float topOffset,</text>
<text text-anchor="start" x="91.5" y="-525.5" font-family="Helvetica,sans-Serif" font-size="10.00"> float leftOffset)</text>
<text text-anchor="start" x="91.5" y="-514.5" font-family="Helvetica,sans-Serif" font-size="10.00">+ WindowView()</text>
</a>
</g>
</g>
<!-- Node4&#45;&gt;Node2 -->
<g id="edge3" class="edge">
<title>Node4&#45;&gt;Node2</title>
<path fill="none" stroke="#404040" d="M174.5,-507.25C174.5,-492.86 174.5,-476.49 174.5,-460.58"/>
<polygon fill="none" stroke="#404040" points="174.5,-460.55 170.5,-454.55 174.5,-448.55 178.5,-454.55 174.5,-460.55"/>
<text text-anchor="middle" x="211" y="-475.5" font-family="Helvetica,sans-Serif" font-size="10.00"> #windowView</text>
</g>
<!-- Node5 -->
<g id="node5" class="node">
<title>Node5</title>
<g id="a_node5"><a xlink:title=" ">
<polygon fill="none" stroke="#bfbfbf" points="82.5,-656.5 82.5,-713.5 180.5,-713.5 180.5,-656.5 82.5,-656.5"/>
<text text-anchor="middle" x="131.5" y="-701.5" font-family="Helvetica,sans-Serif" font-size="10.00">RenderWindow *</text>
<polyline fill="none" stroke="#bfbfbf" points="82.5,-694.5 180.5,-694.5 "/>
<text text-anchor="middle" x="131.5" y="-682.5" font-family="Helvetica,sans-Serif" font-size="10.00"> </text>
<polyline fill="none" stroke="#bfbfbf" points="82.5,-675.5 180.5,-675.5 "/>
<text text-anchor="middle" x="131.5" y="-663.5" font-family="Helvetica,sans-Serif" font-size="10.00"> </text>
</a>
</g>
</g>
<!-- Node5&#45;&gt;Node4 -->
<g id="edge4" class="edge">
<title>Node5&#45;&gt;Node4</title>
<path fill="none" stroke="#404040" d="M136.3,-656.19C138.79,-643.74 142.21,-628.97 146.5,-616 147.24,-613.76 148.04,-611.48 148.87,-609.2"/>
<polygon fill="none" stroke="#404040" points="148.97,-608.96 147.42,-601.92 153.33,-597.79 154.88,-604.83 148.97,-608.96"/>
<text text-anchor="middle" x="171" y="-624.5" font-family="Helvetica,sans-Serif" font-size="10.00"> +window</text>
</g>
<!-- Node6 -->
<g id="node6" class="node">
<title>Node6</title>
<g id="a_node6"><a xlink:title=" ">
<polygon fill="none" stroke="#bfbfbf" points="198.5,-656.5 198.5,-713.5 236.5,-713.5 236.5,-656.5 198.5,-656.5"/>
<text text-anchor="middle" x="217.5" y="-701.5" font-family="Helvetica,sans-Serif" font-size="10.00">float</text>
<polyline fill="none" stroke="#bfbfbf" points="198.5,-694.5 236.5,-694.5 "/>
<text text-anchor="middle" x="217.5" y="-682.5" font-family="Helvetica,sans-Serif" font-size="10.00"> </text>
<polyline fill="none" stroke="#bfbfbf" points="198.5,-675.5 236.5,-675.5 "/>
<text text-anchor="middle" x="217.5" y="-663.5" font-family="Helvetica,sans-Serif" font-size="10.00"> </text>
</a>
</g>
</g>
<!-- Node6&#45;&gt;Node4 -->
<g id="edge5" class="edge">
<title>Node6&#45;&gt;Node4</title>
<path fill="none" stroke="#404040" d="M208.58,-656.19C204.61,-643.86 199.85,-629.2 195.5,-616 194.76,-613.76 194,-611.47 193.24,-609.16"/>
<polygon fill="none" stroke="#404040" points="193.15,-608.91 187.46,-604.48 189.36,-597.53 195.05,-601.96 193.15,-608.91"/>
<text text-anchor="middle" x="231" y="-630" font-family="Helvetica,sans-Serif" font-size="10.00"> +leftOffset</text>
<text text-anchor="middle" x="231" y="-619" font-family="Helvetica,sans-Serif" font-size="10.00">+topOffset</text>
</g>
<!-- Node7 -->
<g id="node7" class="node">
<title>Node7</title>
<g id="a_node7"><a xlink:title=" ">
<polygon fill="none" stroke="#bfbfbf" points="284,-518.5 284,-586.5 433,-586.5 433,-518.5 284,-518.5"/>
<text text-anchor="start" x="292" y="-574.5" font-family="Helvetica,sans-Serif" font-size="10.00">vector&lt; std::shared</text>
<text text-anchor="middle" x="358.5" y="-563.5" font-family="Helvetica,sans-Serif" font-size="10.00">_ptr&lt; AbstractWindow &gt; &gt;</text>
<polyline fill="none" stroke="#bfbfbf" points="284,-556.5 433,-556.5 "/>
<text text-anchor="middle" x="358.5" y="-544.5" font-family="Helvetica,sans-Serif" font-size="10.00"> </text>
<polyline fill="none" stroke="#bfbfbf" points="284,-537.5 433,-537.5 "/>
<text text-anchor="middle" x="358.5" y="-525.5" font-family="Helvetica,sans-Serif" font-size="10.00"> </text>
</a>
</g>
</g>
<!-- Node7&#45;&gt;Node2 -->
<g id="edge6" class="edge">
<title>Node7&#45;&gt;Node2</title>
<path fill="none" stroke="#404040" d="M321.26,-518.41C301.34,-500.71 276.02,-478.21 252.05,-456.91"/>
<polygon fill="none" stroke="#404040" points="251.91,-456.79 244.77,-455.79 242.94,-448.82 250.08,-449.81 251.91,-456.79"/>
<text text-anchor="middle" x="309" y="-475.5" font-family="Helvetica,sans-Serif" font-size="10.00"> #children</text>
</g>
<!-- Node8 -->
<g id="node8" class="node">
<title>Node8</title>
<g id="a_node8"><a xlink:title=" ">
<polygon fill="none" stroke="#bfbfbf" points="271.5,-353 271.5,-421 405.5,-421 405.5,-353 271.5,-353"/>
<text text-anchor="start" x="279.5" y="-409" font-family="Helvetica,sans-Serif" font-size="10.00">unordered_map&lt; Tank</text>
<text text-anchor="middle" x="338.5" y="-398" font-family="Helvetica,sans-Serif" font-size="10.00">::TankType, std::string &gt;</text>
<polyline fill="none" stroke="#bfbfbf" points="271.5,-391 405.5,-391 "/>
<text text-anchor="middle" x="338.5" y="-379" font-family="Helvetica,sans-Serif" font-size="10.00"> </text>
<polyline fill="none" stroke="#bfbfbf" points="271.5,-372 405.5,-372 "/>
<text text-anchor="middle" x="338.5" y="-360" font-family="Helvetica,sans-Serif" font-size="10.00"> </text>
</a>
</g>
</g>
<!-- Node8&#45;&gt;Node1 -->
<g id="edge7" class="edge">
<title>Node8&#45;&gt;Node1</title>
<path fill="none" stroke="#404040" d="M370.6,-352.82C399.62,-322.83 443.8,-277.16 483.81,-235.8"/>
<polygon fill="none" stroke="#404040" points="483.93,-235.68 485.23,-228.58 492.28,-227.05 490.98,-234.15 483.93,-235.68"/>
<text text-anchor="middle" x="450" y="-299" font-family="Helvetica,sans-Serif" font-size="10.00"> #pathMap</text>
</g>
<!-- Node9 -->
<g id="node9" class="node">
<title>Node9</title>
<g id="a_node9"><a xlink:title=" ">
<polygon fill="none" stroke="#bfbfbf" points="424,-353 424,-421 559,-421 559,-353 424,-353"/>
<text text-anchor="start" x="432" y="-409" font-family="Helvetica,sans-Serif" font-size="10.00">unordered_map&lt; Tank</text>
<text text-anchor="middle" x="491.5" y="-398" font-family="Helvetica,sans-Serif" font-size="10.00">::TankType, sf::Texture &gt;</text>
<polyline fill="none" stroke="#bfbfbf" points="424,-391 559,-391 "/>
<text text-anchor="middle" x="491.5" y="-379" font-family="Helvetica,sans-Serif" font-size="10.00"> </text>
<polyline fill="none" stroke="#bfbfbf" points="424,-372 559,-372 "/>
<text text-anchor="middle" x="491.5" y="-360" font-family="Helvetica,sans-Serif" font-size="10.00"> </text>
</a>
</g>
</g>
<!-- Node9&#45;&gt;Node1 -->
<g id="edge8" class="edge">
<title>Node9&#45;&gt;Node1</title>
<path fill="none" stroke="#404040" d="M502.96,-352.82C508.95,-335.5 516.74,-312.95 525.01,-289.03"/>
<polygon fill="none" stroke="#404040" points="525.05,-288.91 523.22,-281.94 528.96,-277.57 530.79,-284.55 525.05,-288.91"/>
<text text-anchor="middle" x="555.5" y="-299" font-family="Helvetica,sans-Serif" font-size="10.00"> #textureMap</text>
</g>
<!-- Node10 -->
<g id="node10" class="node">
<title>Node10</title>
<g id="a_node10"><a xlink:title=" ">
<polygon fill="none" stroke="#bfbfbf" points="577.5,-353 577.5,-421 745.5,-421 745.5,-353 577.5,-353"/>
<text text-anchor="start" x="585.5" y="-409" font-family="Helvetica,sans-Serif" font-size="10.00">shared_ptr&lt; std::vector</text>
<text text-anchor="middle" x="661.5" y="-398" font-family="Helvetica,sans-Serif" font-size="10.00">&lt; std::shared_ptr&lt; Tank &gt; &gt; &gt;</text>
<polyline fill="none" stroke="#bfbfbf" points="577.5,-391 745.5,-391 "/>
<text text-anchor="middle" x="661.5" y="-379" font-family="Helvetica,sans-Serif" font-size="10.00"> </text>
<polyline fill="none" stroke="#bfbfbf" points="577.5,-372 745.5,-372 "/>
<text text-anchor="middle" x="661.5" y="-360" font-family="Helvetica,sans-Serif" font-size="10.00"> </text>
</a>
</g>
</g>
<!-- Node10&#45;&gt;Node1 -->
<g id="edge9" class="edge">
<title>Node10&#45;&gt;Node1</title>
<path fill="none" stroke="#404040" d="M650.04,-352.82C644.05,-335.5 636.26,-312.95 627.99,-289.03"/>
<polygon fill="none" stroke="#404040" points="627.95,-288.91 622.21,-284.55 624.04,-277.57 629.78,-281.94 627.95,-288.91"/>
<text text-anchor="middle" x="653" y="-299" font-family="Helvetica,sans-Serif" font-size="10.00"> #tanks</text>
</g>
<!-- Node11 -->
<g id="node11" class="node">
<title>Node11</title>
<g id="a_node11"><a xlink:title=" ">
<polygon fill="none" stroke="#bfbfbf" points="763.5,-353 763.5,-421 887.5,-421 887.5,-353 763.5,-353"/>
<text text-anchor="start" x="771.5" y="-409" font-family="Helvetica,sans-Serif" font-size="10.00">vector&lt; TanksGraphic</text>
<text text-anchor="middle" x="825.5" y="-398" font-family="Helvetica,sans-Serif" font-size="10.00">::RenderObject &gt;</text>
<polyline fill="none" stroke="#bfbfbf" points="763.5,-391 887.5,-391 "/>
<text text-anchor="middle" x="825.5" y="-379" font-family="Helvetica,sans-Serif" font-size="10.00"> </text>
<polyline fill="none" stroke="#bfbfbf" points="763.5,-372 887.5,-372 "/>
<text text-anchor="middle" x="825.5" y="-360" font-family="Helvetica,sans-Serif" font-size="10.00"> </text>
</a>
</g>
</g>
<!-- Node11&#45;&gt;Node1 -->
<g id="edge10" class="edge">
<title>Node11&#45;&gt;Node1</title>
<path fill="none" stroke="#404040" d="M791.92,-352.82C760.56,-321.84 712.28,-274.15 669.37,-231.75"/>
<polygon fill="none" stroke="#404040" points="669.12,-231.51 662.04,-230.14 660.59,-223.07 667.67,-224.45 669.12,-231.51"/>
<text text-anchor="middle" x="780" y="-299" font-family="Helvetica,sans-Serif" font-size="10.00"> #renderTanks</text>
</g>
<!-- Node12 -->
<g id="node12" class="node">
<title>Node12</title>
<g id="a_node12"><a xlink:title=" ">
<polygon fill="none" stroke="#bfbfbf" points="906,-353 906,-421 1037,-421 1037,-353 906,-353"/>
<text text-anchor="start" x="914" y="-409" font-family="Helvetica,sans-Serif" font-size="10.00">shared_ptr&lt; std::queue</text>
<text text-anchor="middle" x="971.5" y="-398" font-family="Helvetica,sans-Serif" font-size="10.00">&lt; sf::Sprite &gt; &gt;</text>
<polyline fill="none" stroke="#bfbfbf" points="906,-391 1037,-391 "/>
<text text-anchor="middle" x="971.5" y="-379" font-family="Helvetica,sans-Serif" font-size="10.00"> </text>
<polyline fill="none" stroke="#bfbfbf" points="906,-372 1037,-372 "/>
<text text-anchor="middle" x="971.5" y="-360" font-family="Helvetica,sans-Serif" font-size="10.00"> </text>
</a>
</g>
</g>
<!-- Node12&#45;&gt;Node1 -->
<g id="edge11" class="edge">
<title>Node12&#45;&gt;Node1</title>
<path fill="none" stroke="#404040" d="M933.09,-352.81C921.61,-343.43 908.8,-333.48 896.5,-325 823.55,-274.72 736.21,-224.86 671.22,-189.6"/>
<polygon fill="none" stroke="#404040" points="671.14,-189.55 663.96,-190.22 660.58,-183.85 667.76,-183.18 671.14,-189.55"/>
<text text-anchor="middle" x="901.5" y="-299" font-family="Helvetica,sans-Serif" font-size="10.00"> #specialQueue</text>
</g>
</g>
</svg>
