<?xml version="1.0" encoding="UTF-8" standalone="no"?>
<!DOCTYPE svg PUBLIC "-//W3C//DTD SVG 1.1//EN"
 "http://www.w3.org/Graphics/SVG/1.1/DTD/svg11.dtd">
<!-- Generated by graphviz version 2.43.0 (0)
 -->
<!-- Title: GameStatistics Pages: 1 -->
<svg width="516pt" height="920pt"
 viewBox="0.00 0.00 515.50 920.00" xmlns="http://www.w3.org/2000/svg" xmlns:xlink="http://www.w3.org/1999/xlink">
<g id="graph0" class="graph" transform="scale(1 1) rotate(0) translate(4 916)">
<title>GameStatistics</title>
<!-- Node1 -->
<g id="node1" class="node">
<title>Node1</title>
<g id="a_node1"><a xlink:title=" ">
<polygon fill="#bfbfbf" stroke="black" points="77.5,-0.5 77.5,-255.5 227.5,-255.5 227.5,-0.5 77.5,-0.5"/>
<text text-anchor="middle" x="152.5" y="-243.5" font-family="Helvetica,sans-Serif" font-size="10.00">GameStatistics</text>
<polyline fill="none" stroke="black" points="77.5,-236.5 227.5,-236.5 "/>
<text text-anchor="middle" x="152.5" y="-224.5" font-family="Helvetica,sans-Serif" font-size="10.00"> </text>
<polyline fill="none" stroke="black" points="77.5,-217.5 227.5,-217.5 "/>
<text text-anchor="start" x="85.5" y="-205.5" font-family="Helvetica,sans-Serif" font-size="10.00">+ GameStatistics(unsigned</text>
<text text-anchor="start" x="85.5" y="-194.5" font-family="Helvetica,sans-Serif" font-size="10.00"> int startPoints, unsigned</text>
<text text-anchor="start" x="85.5" y="-183.5" font-family="Helvetica,sans-Serif" font-size="10.00"> int startLevel, unsigned</text>
<text text-anchor="start" x="85.5" y="-172.5" font-family="Helvetica,sans-Serif" font-size="10.00"> int startLives)</text>
<text text-anchor="start" x="85.5" y="-161.5" font-family="Helvetica,sans-Serif" font-size="10.00">+ unsigned int getPoints</text>
<text text-anchor="start" x="85.5" y="-150.5" font-family="Helvetica,sans-Serif" font-size="10.00">() const</text>
<text text-anchor="start" x="85.5" y="-139.5" font-family="Helvetica,sans-Serif" font-size="10.00">+ void setPoints(unsigned</text>
<text text-anchor="start" x="85.5" y="-128.5" font-family="Helvetica,sans-Serif" font-size="10.00"> int pts)</text>
<text text-anchor="start" x="85.5" y="-117.5" font-family="Helvetica,sans-Serif" font-size="10.00">+ void addPoints(unsigned</text>
<text text-anchor="start" x="85.5" y="-106.5" font-family="Helvetica,sans-Serif" font-size="10.00"> int pts)</text>
<text text-anchor="start" x="85.5" y="-95.5" font-family="Helvetica,sans-Serif" font-size="10.00">+ unsigned int getLevel</text>
<text text-anchor="start" x="85.5" y="-84.5" font-family="Helvetica,sans-Serif" font-size="10.00">() const</text>
<text text-anchor="start" x="85.5" y="-73.5" font-family="Helvetica,sans-Serif" font-size="10.00">+ void setLevel(unsigned</text>
<text text-anchor="start" x="85.5" y="-62.5" font-family="Helvetica,sans-Serif" font-size="10.00"> int level)</text>
<text text-anchor="start" x="85.5" y="-51.5" font-family="Helvetica,sans-Serif" font-size="10.00">+ unsigned int getLives</text>
<text text-anchor="start" x="85.5" y="-40.5" font-family="Helvetica,sans-Serif" font-size="10.00">() const</text>
<text text-anchor="start" x="85.5" y="-29.5" font-family="Helvetica,sans-Serif" font-size="10.00">+ void setLives(unsigned</text>
<text text-anchor="start" x="85.5" y="-18.5" font-family="Helvetica,sans-Serif" font-size="10.00"> int lives)</text>
<text text-anchor="start" x="85.5" y="-7.5" font-family="Helvetica,sans-Serif" font-size="10.00">+ void resetStats()</text>
</a>
</g>
</g>
<!-- Node2 -->
<g id="node2" class="node">
<title>Node2</title>
<g id="a_node2"><a xlink:title=" ">
<polygon fill="none" stroke="black" points="0,-402.5 0,-459.5 77,-459.5 77,-402.5 0,-402.5"/>
<text text-anchor="middle" x="38.5" y="-447.5" font-family="Helvetica,sans-Serif" font-size="10.00">unsigned int</text>
<polyline fill="none" stroke="black" points="0,-440.5 77,-440.5 "/>
<text text-anchor="middle" x="38.5" y="-428.5" font-family="Helvetica,sans-Serif" font-size="10.00"> </text>
<polyline fill="none" stroke="black" points="0,-421.5 77,-421.5 "/>
<text text-anchor="middle" x="38.5" y="-409.5" font-family="Helvetica,sans-Serif" font-size="10.00"> </text>
</a>
</g>
</g>
<!-- Node2&#45;&gt;Node1 -->
<g id="edge1" class="edge">
<title>Node2&#45;&gt;Node1</title>
<path fill="none" stroke="#404040" d="M48.92,-402.49C60.72,-371.33 80.85,-318.19 100.23,-267"/>
<polygon fill="none" stroke="#404040" points="100.24,-267 98.62,-259.97 104.49,-255.77 106.1,-262.8 100.24,-267"/>
<text text-anchor="middle" x="115.5" y="-299" font-family="Helvetica,sans-Serif" font-size="10.00"> &#45;level_</text>
<text text-anchor="middle" x="115.5" y="-288" font-family="Helvetica,sans-Serif" font-size="10.00">&#45;lives_</text>
<text text-anchor="middle" x="115.5" y="-277" font-family="Helvetica,sans-Serif" font-size="10.00">&#45;points_</text>
</g>
<!-- Node3 -->
<g id="node3" class="node">
<title>Node3</title>
<g id="a_node3"><a xlink:title=" ">
<polygon fill="none" stroke="black" points="95.5,-402.5 95.5,-459.5 209.5,-459.5 209.5,-402.5 95.5,-402.5"/>
<text text-anchor="middle" x="152.5" y="-447.5" font-family="Helvetica,sans-Serif" font-size="10.00">list&lt; unsigned int &gt;</text>
<polyline fill="none" stroke="black" points="95.5,-440.5 209.5,-440.5 "/>
<text text-anchor="middle" x="152.5" y="-428.5" font-family="Helvetica,sans-Serif" font-size="10.00"> </text>
<polyline fill="none" stroke="black" points="95.5,-421.5 209.5,-421.5 "/>
<text text-anchor="middle" x="152.5" y="-409.5" font-family="Helvetica,sans-Serif" font-size="10.00"> </text>
</a>
</g>
</g>
<!-- Node3&#45;&gt;Node1 -->
<g id="edge2" class="edge">
<title>Node3&#45;&gt;Node1</title>
<path fill="none" stroke="#404040" d="M152.5,-402.49C152.5,-371.52 152.5,-318.86 152.5,-267.97"/>
<polygon fill="none" stroke="#404040" points="152.5,-267.77 148.5,-261.77 152.5,-255.77 156.5,-261.77 152.5,-267.77"/>
<text text-anchor="middle" x="186" y="-288" font-family="Helvetica,sans-Serif" font-size="10.00"> &#45;scoreboard_</text>
</g>
<!-- Node4 -->
<g id="node4" class="node">
<title>Node4</title>
<g id="a_node4"><a xlink:href="$class_event_queue.html" xlink:title=" ">
<polygon fill="none" stroke="black" points="227.5,-325.5 227.5,-536.5 377.5,-536.5 377.5,-325.5 227.5,-325.5"/>
<text text-anchor="middle" x="302.5" y="-524.5" font-family="Helvetica,sans-Serif" font-size="10.00">EventQueue&lt; Event &gt;</text>
<polyline fill="none" stroke="black" points="227.5,-517.5 377.5,-517.5 "/>
<text text-anchor="middle" x="302.5" y="-505.5" font-family="Helvetica,sans-Serif" font-size="10.00"> </text>
<polyline fill="none" stroke="black" points="227.5,-498.5 377.5,-498.5 "/>
<text text-anchor="start" x="235.5" y="-486.5" font-family="Helvetica,sans-Serif" font-size="10.00">+ EventQueue(EventQueue</text>
<text text-anchor="start" x="235.5" y="-475.5" font-family="Helvetica,sans-Serif" font-size="10.00"> &amp;)=delete</text>
<text text-anchor="start" x="235.5" y="-464.5" font-family="Helvetica,sans-Serif" font-size="10.00">+ bool operator=(const</text>
<text text-anchor="start" x="235.5" y="-453.5" font-family="Helvetica,sans-Serif" font-size="10.00"> EventQueue &amp;)=delete</text>
<text text-anchor="start" x="235.5" y="-442.5" font-family="Helvetica,sans-Serif" font-size="10.00">+ void registerEvent</text>
<text text-anchor="start" x="235.5" y="-431.5" font-family="Helvetica,sans-Serif" font-size="10.00">(std::unique_ptr&lt; Event</text>
<text text-anchor="start" x="235.5" y="-420.5" font-family="Helvetica,sans-Serif" font-size="10.00"> &gt; event)</text>
<text text-anchor="start" x="235.5" y="-409.5" font-family="Helvetica,sans-Serif" font-size="10.00">+ std::unique_ptr&lt; Event</text>
<text text-anchor="start" x="235.5" y="-398.5" font-family="Helvetica,sans-Serif" font-size="10.00"> &gt; pop()</text>
<text text-anchor="start" x="235.5" y="-387.5" font-family="Helvetica,sans-Serif" font-size="10.00">+ bool isEmpty()</text>
<text text-anchor="start" x="235.5" y="-376.5" font-family="Helvetica,sans-Serif" font-size="10.00">+ unsigned int size()</text>
<text text-anchor="start" x="235.5" y="-365.5" font-family="Helvetica,sans-Serif" font-size="10.00">+ void clear()</text>
<text text-anchor="start" x="235.5" y="-354.5" font-family="Helvetica,sans-Serif" font-size="10.00">+ static EventQueue *</text>
<text text-anchor="start" x="235.5" y="-343.5" font-family="Helvetica,sans-Serif" font-size="10.00"> instance()</text>
<text text-anchor="start" x="235.5" y="-332.5" font-family="Helvetica,sans-Serif" font-size="10.00">&#45; EventQueue()=default</text>
</a>
</g>
</g>
<!-- Node4&#45;&gt;Node1 -->
<g id="edge3" class="edge">
<title>Node4&#45;&gt;Node1</title>
<path fill="none" stroke="#404040" d="M250.25,-325.15C240.83,-306.25 230.89,-286.29 221.09,-266.63"/>
<polygon fill="none" stroke="#404040" points="221.02,-266.49 214.76,-262.9 215.66,-255.75 221.92,-259.33 221.02,-266.49"/>
<text text-anchor="middle" x="277.5" y="-288" font-family="Helvetica,sans-Serif" font-size="10.00"> &#45;eventQueue_</text>
</g>
<!-- Node5 -->
<g id="node5" class="node">
<title>Node5</title>
<g id="a_node5"><a xlink:href="$classstd_1_1queue_3_01std_1_1unique__ptr_3_01_event_01_4_01_4.html" xlink:title=" ">
<polygon fill="none" stroke="black" points="154.5,-656 154.5,-724 266.5,-724 266.5,-656 154.5,-656"/>
<text text-anchor="start" x="162.5" y="-712" font-family="Helvetica,sans-Serif" font-size="10.00">queue&lt; std::unique</text>
<text text-anchor="middle" x="210.5" y="-701" font-family="Helvetica,sans-Serif" font-size="10.00">_ptr&lt; Event &gt; &gt;</text>
<polyline fill="none" stroke="black" points="154.5,-694 266.5,-694 "/>
<text text-anchor="middle" x="210.5" y="-682" font-family="Helvetica,sans-Serif" font-size="10.00"> </text>
<polyline fill="none" stroke="black" points="154.5,-675 266.5,-675 "/>
<text text-anchor="middle" x="210.5" y="-663" font-family="Helvetica,sans-Serif" font-size="10.00"> </text>
</a>
</g>
</g>
<!-- Node5&#45;&gt;Node4 -->
<g id="edge4" class="edge">
<title>Node5&#45;&gt;Node4</title>
<path fill="none" stroke="#404040" d="M214.85,-655.82C219.06,-628.27 226.59,-588.35 238.5,-555 239.3,-552.75 240.14,-550.48 241.01,-548.21"/>
<polygon fill="none" stroke="#404040" points="241.11,-547.97 239.64,-540.91 245.59,-536.83 247.06,-543.89 241.11,-547.97"/>
<text text-anchor="middle" x="263.5" y="-558" font-family="Helvetica,sans-Serif" font-size="10.00"> #events_</text>
</g>
<!-- Node6 -->
<g id="node6" class="node">
<title>Node6</title>
<g id="a_node6"><a xlink:title=" ">
<polygon fill="none" stroke="black" points="227.5,-849 227.5,-906 377.5,-906 377.5,-849 227.5,-849"/>
<text text-anchor="middle" x="302.5" y="-894" font-family="Helvetica,sans-Serif" font-size="10.00">unique_ptr&lt; EventQueue &gt;</text>
<polyline fill="none" stroke="black" points="227.5,-887 377.5,-887 "/>
<text text-anchor="middle" x="302.5" y="-875" font-family="Helvetica,sans-Serif" font-size="10.00"> </text>
<polyline fill="none" stroke="black" points="227.5,-868 377.5,-868 "/>
<text text-anchor="middle" x="302.5" y="-856" font-family="Helvetica,sans-Serif" font-size="10.00"> </text>
</a>
</g>
</g>
<!-- Node6&#45;&gt;Node4 -->
<g id="edge5" class="edge">
<title>Node6&#45;&gt;Node4</title>
<path fill="none" stroke="#404040" d="M302.5,-848.69C302.5,-789.98 302.5,-650.4 302.5,-548.93"/>
<polygon fill="none" stroke="#404040" points="302.5,-548.75 298.5,-542.75 302.5,-536.75 306.5,-542.75 302.5,-548.75"/>
<text text-anchor="middle" x="320" y="-687.5" font-family="Helvetica,sans-Serif" font-size="10.00"> #self_</text>
</g>
<!-- Node7 -->
<g id="node7" class="node">
<title>Node7</title>
<g id="a_node7"><a xlink:href="$class_event_queue.html" xlink:title="Singleton class wrapper for std::queue&lt;E&gt;.">
<polygon fill="none" stroke="black" points="355.5,-584.5 355.5,-795.5 505.5,-795.5 505.5,-584.5 355.5,-584.5"/>
<text text-anchor="middle" x="430.5" y="-783.5" font-family="Helvetica,sans-Serif" font-size="10.00">EventQueue&lt; E &gt;</text>
<polyline fill="none" stroke="black" points="355.5,-776.5 505.5,-776.5 "/>
<text text-anchor="middle" x="430.5" y="-764.5" font-family="Helvetica,sans-Serif" font-size="10.00"> </text>
<polyline fill="none" stroke="black" points="355.5,-757.5 505.5,-757.5 "/>
<text text-anchor="start" x="363.5" y="-745.5" font-family="Helvetica,sans-Serif" font-size="10.00">+ EventQueue(EventQueue</text>
<text text-anchor="start" x="363.5" y="-734.5" font-family="Helvetica,sans-Serif" font-size="10.00"> &amp;)=delete</text>
<text text-anchor="start" x="363.5" y="-723.5" font-family="Helvetica,sans-Serif" font-size="10.00">+ bool operator=(const</text>
<text text-anchor="start" x="363.5" y="-712.5" font-family="Helvetica,sans-Serif" font-size="10.00"> EventQueue &amp;)=delete</text>
<text text-anchor="start" x="363.5" y="-701.5" font-family="Helvetica,sans-Serif" font-size="10.00">+ void registerEvent</text>
<text text-anchor="start" x="363.5" y="-690.5" font-family="Helvetica,sans-Serif" font-size="10.00">(std::unique_ptr&lt; E</text>
<text text-anchor="start" x="363.5" y="-679.5" font-family="Helvetica,sans-Serif" font-size="10.00"> &gt; event)</text>
<text text-anchor="start" x="363.5" y="-668.5" font-family="Helvetica,sans-Serif" font-size="10.00">+ std::unique_ptr&lt; E</text>
<text text-anchor="start" x="363.5" y="-657.5" font-family="Helvetica,sans-Serif" font-size="10.00"> &gt; pop()</text>
<text text-anchor="start" x="363.5" y="-646.5" font-family="Helvetica,sans-Serif" font-size="10.00">+ bool isEmpty()</text>
<text text-anchor="start" x="363.5" y="-635.5" font-family="Helvetica,sans-Serif" font-size="10.00">+ unsigned int size()</text>
<text text-anchor="start" x="363.5" y="-624.5" font-family="Helvetica,sans-Serif" font-size="10.00">+ void clear()</text>
<text text-anchor="start" x="363.5" y="-613.5" font-family="Helvetica,sans-Serif" font-size="10.00">+ static EventQueue *</text>
<text text-anchor="start" x="363.5" y="-602.5" font-family="Helvetica,sans-Serif" font-size="10.00"> instance()</text>
<text text-anchor="start" x="363.5" y="-591.5" font-family="Helvetica,sans-Serif" font-size="10.00">&#45; EventQueue()=default</text>
</a>
</g>
</g>
<!-- Node6&#45;&gt;Node7 -->
<g id="edge8" class="edge">
<title>Node6&#45;&gt;Node7</title>
<path fill="none" stroke="#404040" d="M321.66,-848.73C329.98,-836.68 340.33,-821.68 351.31,-805.77"/>
<polygon fill="none" stroke="#404040" points="351.4,-805.64 351.51,-798.43 358.21,-795.76 358.1,-802.97 351.4,-805.64"/>
<text text-anchor="middle" x="362" y="-817" font-family="Helvetica,sans-Serif" font-size="10.00"> #self_</text>
</g>
<!-- Node7&#45;&gt;Node4 -->
<g id="edge6" class="edge">
<title>Node7&#45;&gt;Node4</title>
<path fill="none" stroke="orange" d="M373.83,-575.22C367.47,-562.46 361.02,-549.5 354.72,-536.86"/>
<polygon fill="orange" stroke="orange" points="370.85,-577.08 378.44,-584.47 377.11,-573.96 370.85,-577.08"/>
<text text-anchor="middle" x="393.5" y="-558" font-family="Helvetica,sans-Serif" font-size="10.00"> &lt; Event &gt;</text>
</g>
<!-- Node8 -->
<g id="node8" class="node">
<title>Node8</title>
<g id="a_node8"><a xlink:title=" ">
<polygon fill="none" stroke="black" points="395.5,-843.5 395.5,-911.5 507.5,-911.5 507.5,-843.5 395.5,-843.5"/>
<text text-anchor="start" x="403.5" y="-899.5" font-family="Helvetica,sans-Serif" font-size="10.00">queue&lt; std::unique</text>
<text text-anchor="middle" x="451.5" y="-888.5" font-family="Helvetica,sans-Serif" font-size="10.00">_ptr&lt; E &gt; &gt;</text>
<polyline fill="none" stroke="black" points="395.5,-881.5 507.5,-881.5 "/>
<text text-anchor="middle" x="451.5" y="-869.5" font-family="Helvetica,sans-Serif" font-size="10.00"> </text>
<polyline fill="none" stroke="black" points="395.5,-862.5 507.5,-862.5 "/>
<text text-anchor="middle" x="451.5" y="-850.5" font-family="Helvetica,sans-Serif" font-size="10.00"> </text>
</a>
</g>
</g>
<!-- Node8&#45;&gt;Node7 -->
<g id="edge7" class="edge">
<title>Node8&#45;&gt;Node7</title>
<path fill="none" stroke="#404040" d="M447.75,-843.34C446.56,-832.88 445.18,-820.68 443.72,-807.81"/>
<polygon fill="none" stroke="#404040" points="443.72,-807.77 439.07,-802.25 442.37,-795.84 447.02,-801.36 443.72,-807.77"/>
<text text-anchor="middle" x="470.5" y="-817" font-family="Helvetica,sans-Serif" font-size="10.00"> #events_</text>
</g>
</g>
</svg>
