<?xml version="1.0" encoding="UTF-8" standalone="no"?>
<!DOCTYPE svg PUBLIC "-//W3C//DTD SVG 1.1//EN"
 "http://www.w3.org/Graphics/SVG/1.1/DTD/svg11.dtd">
<!-- Generated by graphviz version 2.43.0 (0)
 -->
<!-- Title: PauseGameState Pages: 1 -->
<svg width="1844pt" height="975pt"
 viewBox="0.00 0.00 1844.00 975.00" xmlns="http://www.w3.org/2000/svg" xmlns:xlink="http://www.w3.org/1999/xlink">
<g id="graph0" class="graph" transform="scale(1 1) rotate(0) translate(4 971)">
<title>PauseGameState</title>
<!-- Node1 -->
<g id="node1" class="node">
<title>Node1</title>
<g id="a_node1"><a xlink:title=" ">
<polygon fill="#bfbfbf" stroke="black" points="1668,-105 1668,-195 1826,-195 1826,-105 1668,-105"/>
<text text-anchor="middle" x="1747" y="-183" font-family="Helvetica,sans-Serif" font-size="10.00">PauseGameState</text>
<polyline fill="none" stroke="black" points="1668,-176 1826,-176 "/>
<text text-anchor="middle" x="1747" y="-164" font-family="Helvetica,sans-Serif" font-size="10.00"> </text>
<polyline fill="none" stroke="black" points="1668,-157 1826,-157 "/>
<text text-anchor="start" x="1676" y="-145" font-family="Helvetica,sans-Serif" font-size="10.00">+ Menu * get_menu()</text>
<text text-anchor="start" x="1676" y="-134" font-family="Helvetica,sans-Serif" font-size="10.00">+ PauseGameState()=delete</text>
<text text-anchor="start" x="1676" y="-123" font-family="Helvetica,sans-Serif" font-size="10.00">+ PauseGameState(Game</text>
<text text-anchor="start" x="1676" y="-112" font-family="Helvetica,sans-Serif" font-size="10.00"> *game)</text>
</a>
</g>
</g>
<!-- Node2 -->
<g id="node2" class="node">
<title>Node2</title>
<g id="a_node2"><a xlink:href="$class_game_state.html" xlink:title=" ">
<polygon fill="none" stroke="black" points="1560.5,-419 1560.5,-553 1699.5,-553 1699.5,-419 1560.5,-419"/>
<text text-anchor="middle" x="1630" y="-541" font-family="Helvetica,sans-Serif" font-size="10.00">GameState</text>
<polyline fill="none" stroke="black" points="1560.5,-534 1699.5,-534 "/>
<text text-anchor="middle" x="1630" y="-522" font-family="Helvetica,sans-Serif" font-size="10.00"> </text>
<polyline fill="none" stroke="black" points="1560.5,-515 1699.5,-515 "/>
<text text-anchor="start" x="1568.5" y="-503" font-family="Helvetica,sans-Serif" font-size="10.00">+ virtual ~GameState</text>
<text text-anchor="start" x="1568.5" y="-492" font-family="Helvetica,sans-Serif" font-size="10.00">()=default</text>
<text text-anchor="start" x="1568.5" y="-481" font-family="Helvetica,sans-Serif" font-size="10.00">+ PublisherEventHandler</text>
<text text-anchor="start" x="1568.5" y="-470" font-family="Helvetica,sans-Serif" font-size="10.00"> * getEventHandler()</text>
<text text-anchor="start" x="1568.5" y="-459" font-family="Helvetica,sans-Serif" font-size="10.00"># GameState(Game *n</text>
<text text-anchor="start" x="1568.5" y="-448" font-family="Helvetica,sans-Serif" font-size="10.00">_game, std::unique_ptr</text>
<text text-anchor="start" x="1568.5" y="-437" font-family="Helvetica,sans-Serif" font-size="10.00">&lt; PublisherEventHandler</text>
<text text-anchor="start" x="1568.5" y="-426" font-family="Helvetica,sans-Serif" font-size="10.00"> &gt; n_eventHandler)</text>
</a>
</g>
</g>
<!-- Node2&#45;&gt;Node1 -->
<g id="edge1" class="edge">
<title>Node2&#45;&gt;Node1</title>
<path fill="none" stroke="midnightblue" d="M1661.07,-409.34C1667.21,-393.76 1673.46,-377.4 1679,-362 1699.53,-304.96 1720.53,-238.24 1733.66,-195.34"/>
<polygon fill="none" stroke="midnightblue" points="1657.7,-408.34 1657.27,-418.92 1664.21,-410.92 1657.7,-408.34"/>
</g>
<!-- Node4 -->
<g id="node4" class="node">
<title>Node4</title>
<g id="a_node4"><a xlink:href="$class_game.html" xlink:title=" ">
<polygon fill="none" stroke="black" points="788,-0.5 788,-299.5 952,-299.5 952,-0.5 788,-0.5"/>
<text text-anchor="middle" x="870" y="-287.5" font-family="Helvetica,sans-Serif" font-size="10.00">Game</text>
<polyline fill="none" stroke="black" points="788,-280.5 952,-280.5 "/>
<text text-anchor="middle" x="870" y="-268.5" font-family="Helvetica,sans-Serif" font-size="10.00"> </text>
<polyline fill="none" stroke="black" points="788,-261.5 952,-261.5 "/>
<text text-anchor="start" x="796" y="-249.5" font-family="Helvetica,sans-Serif" font-size="10.00">+ Game()=delete</text>
<text text-anchor="start" x="796" y="-238.5" font-family="Helvetica,sans-Serif" font-size="10.00">+ Game(unsigned int</text>
<text text-anchor="start" x="796" y="-227.5" font-family="Helvetica,sans-Serif" font-size="10.00"> clockFreq)</text>
<text text-anchor="start" x="796" y="-216.5" font-family="Helvetica,sans-Serif" font-size="10.00">+ void run()</text>
<text text-anchor="start" x="796" y="-205.5" font-family="Helvetica,sans-Serif" font-size="10.00">+ void setActiveState()</text>
<text text-anchor="start" x="796" y="-194.5" font-family="Helvetica,sans-Serif" font-size="10.00">+ void setFinishedState()</text>
<text text-anchor="start" x="796" y="-183.5" font-family="Helvetica,sans-Serif" font-size="10.00">+ void setPauseState()</text>
<text text-anchor="start" x="796" y="-172.5" font-family="Helvetica,sans-Serif" font-size="10.00">+ void setMenuState()</text>
<text text-anchor="start" x="796" y="-161.5" font-family="Helvetica,sans-Serif" font-size="10.00">+ void quit()</text>
<text text-anchor="start" x="796" y="-150.5" font-family="Helvetica,sans-Serif" font-size="10.00">+ GameState * getState()</text>
<text text-anchor="start" x="796" y="-139.5" font-family="Helvetica,sans-Serif" font-size="10.00">+ GameStatistics * getStats()</text>
<text text-anchor="start" x="796" y="-128.5" font-family="Helvetica,sans-Serif" font-size="10.00">+ Board * getBoard()</text>
<text text-anchor="start" x="796" y="-117.5" font-family="Helvetica,sans-Serif" font-size="10.00">+ void start()</text>
<text text-anchor="start" x="796" y="-106.5" font-family="Helvetica,sans-Serif" font-size="10.00">+ void end()</text>
<text text-anchor="start" x="796" y="-95.5" font-family="Helvetica,sans-Serif" font-size="10.00"># void setup()</text>
<text text-anchor="start" x="796" y="-84.5" font-family="Helvetica,sans-Serif" font-size="10.00"># void initStates()</text>
<text text-anchor="start" x="796" y="-73.5" font-family="Helvetica,sans-Serif" font-size="10.00"># void initComponents()</text>
<text text-anchor="start" x="796" y="-62.5" font-family="Helvetica,sans-Serif" font-size="10.00"># void initScoreboard()</text>
<text text-anchor="start" x="796" y="-51.5" font-family="Helvetica,sans-Serif" font-size="10.00"># void initUI()</text>
<text text-anchor="start" x="796" y="-40.5" font-family="Helvetica,sans-Serif" font-size="10.00"># void reset()</text>
<text text-anchor="start" x="796" y="-29.5" font-family="Helvetica,sans-Serif" font-size="10.00"># void prepareLevel(unsigned</text>
<text text-anchor="start" x="796" y="-18.5" font-family="Helvetica,sans-Serif" font-size="10.00"> int levelNum)</text>
<text text-anchor="start" x="796" y="-7.5" font-family="Helvetica,sans-Serif" font-size="10.00"># void redrawUI()</text>
</a>
</g>
</g>
<!-- Node2&#45;&gt;Node4 -->
<g id="edge5" class="edge">
<title>Node2&#45;&gt;Node4</title>
<path fill="none" stroke="#404040" d="M1590.18,-418.71C1565.3,-383.16 1530.02,-341.88 1488,-318 1318.39,-221.62 1090.82,-178.9 964.52,-161.56"/>
<polygon fill="none" stroke="#404040" points="964.14,-161.51 957.66,-164.67 952.25,-159.91 958.73,-156.75 964.14,-161.51"/>
<text text-anchor="middle" x="1560" y="-337.5" font-family="Helvetica,sans-Serif" font-size="10.00"> #state_</text>
</g>
<!-- Node3 -->
<g id="node3" class="node">
<title>Node3</title>
<g id="a_node3"><a xlink:title=" ">
<polygon fill="none" stroke="black" points="1554,-711 1554,-779 1706,-779 1706,-711 1554,-711"/>
<text text-anchor="start" x="1562" y="-767" font-family="Helvetica,sans-Serif" font-size="10.00">unique_ptr&lt; PublisherEvent</text>
<text text-anchor="middle" x="1630" y="-756" font-family="Helvetica,sans-Serif" font-size="10.00">Handler &gt;</text>
<polyline fill="none" stroke="black" points="1554,-749 1706,-749 "/>
<text text-anchor="middle" x="1630" y="-737" font-family="Helvetica,sans-Serif" font-size="10.00"> </text>
<polyline fill="none" stroke="black" points="1554,-730 1706,-730 "/>
<text text-anchor="middle" x="1630" y="-718" font-family="Helvetica,sans-Serif" font-size="10.00"> </text>
</a>
</g>
</g>
<!-- Node3&#45;&gt;Node2 -->
<g id="edge2" class="edge">
<title>Node3&#45;&gt;Node2</title>
<path fill="none" stroke="#404040" d="M1630,-710.93C1630,-674.31 1630,-614 1630,-565.2"/>
<polygon fill="none" stroke="#404040" points="1630,-565.06 1626,-559.06 1630,-553.06 1634,-559.06 1630,-565.06"/>
<text text-anchor="middle" x="1671.5" y="-613" font-family="Helvetica,sans-Serif" font-size="10.00"> #eventHandler_</text>
</g>
<!-- Node4&#45;&gt;Node2 -->
<g id="edge3" class="edge">
<title>Node4&#45;&gt;Node2</title>
<path fill="none" stroke="#404040" d="M952.33,-157.98C1125.81,-174.45 1520.23,-221.81 1608,-318 1620,-331.15 1625.56,-369.56 1628.09,-406.23"/>
<polygon fill="none" stroke="#404040" points="1628.11,-406.58 1632.47,-412.33 1628.84,-418.56 1624.49,-412.81 1628.11,-406.58"/>
<text text-anchor="middle" x="1645.5" y="-337.5" font-family="Helvetica,sans-Serif" font-size="10.00"> #game_</text>
</g>
<!-- Node5 -->
<g id="node5" class="node">
<title>Node5</title>
<g id="a_node5"><a xlink:title=" ">
<polygon fill="none" stroke="black" points="0,-457.5 0,-514.5 146,-514.5 146,-457.5 0,-457.5"/>
<text text-anchor="middle" x="73" y="-502.5" font-family="Helvetica,sans-Serif" font-size="10.00">unique_ptr&lt; GameState &gt;</text>
<polyline fill="none" stroke="black" points="0,-495.5 146,-495.5 "/>
<text text-anchor="middle" x="73" y="-483.5" font-family="Helvetica,sans-Serif" font-size="10.00"> </text>
<polyline fill="none" stroke="black" points="0,-476.5 146,-476.5 "/>
<text text-anchor="middle" x="73" y="-464.5" font-family="Helvetica,sans-Serif" font-size="10.00"> </text>
</a>
</g>
</g>
<!-- Node5&#45;&gt;Node4 -->
<g id="edge4" class="edge">
<title>Node5&#45;&gt;Node4</title>
<path fill="none" stroke="#404040" d="M90.27,-457.49C116.11,-419 168.73,-350.17 233,-318 413.39,-227.73 647.7,-182.56 775.92,-163.21"/>
<polygon fill="none" stroke="#404040" points="776.13,-163.18 781.47,-158.34 788,-161.41 782.65,-166.25 776.13,-163.18"/>
<text text-anchor="middle" x="274" y="-354" font-family="Helvetica,sans-Serif" font-size="10.00"> #active_state_</text>
<text text-anchor="middle" x="274" y="-343" font-family="Helvetica,sans-Serif" font-size="10.00">#finished_state_</text>
<text text-anchor="middle" x="274" y="-332" font-family="Helvetica,sans-Serif" font-size="10.00">#menu_state_</text>
<text text-anchor="middle" x="274" y="-321" font-family="Helvetica,sans-Serif" font-size="10.00">#pause_state_</text>
</g>
<!-- Node6 -->
<g id="node6" class="node">
<title>Node6</title>
<g id="a_node6"><a xlink:title=" ">
<polygon fill="none" stroke="black" points="164.5,-457.5 164.5,-514.5 283.5,-514.5 283.5,-457.5 164.5,-457.5"/>
<text text-anchor="middle" x="224" y="-502.5" font-family="Helvetica,sans-Serif" font-size="10.00">unique_ptr&lt; Board &gt;</text>
<polyline fill="none" stroke="black" points="164.5,-495.5 283.5,-495.5 "/>
<text text-anchor="middle" x="224" y="-483.5" font-family="Helvetica,sans-Serif" font-size="10.00"> </text>
<polyline fill="none" stroke="black" points="164.5,-476.5 283.5,-476.5 "/>
<text text-anchor="middle" x="224" y="-464.5" font-family="Helvetica,sans-Serif" font-size="10.00"> </text>
</a>
</g>
</g>
<!-- Node6&#45;&gt;Node4 -->
<g id="edge6" class="edge">
<title>Node6&#45;&gt;Node4</title>
<path fill="none" stroke="#404040" d="M236.21,-457.08C247.66,-433.74 266.79,-400.98 292,-380 436.93,-259.4 653.2,-196.76 775.96,-169.13"/>
<polygon fill="none" stroke="#404040" points="776.19,-169.08 781.19,-163.88 787.91,-166.49 782.92,-171.69 776.19,-169.08"/>
<text text-anchor="middle" x="397.5" y="-337.5" font-family="Helvetica,sans-Serif" font-size="10.00"> #board_</text>
</g>
<!-- Node7 -->
<g id="node7" class="node">
<title>Node7</title>
<g id="a_node7"><a xlink:title=" ">
<polygon fill="none" stroke="black" points="301.5,-457.5 301.5,-514.5 466.5,-514.5 466.5,-457.5 301.5,-457.5"/>
<text text-anchor="middle" x="384" y="-502.5" font-family="Helvetica,sans-Serif" font-size="10.00">unique_ptr&lt; GameStatistics &gt;</text>
<polyline fill="none" stroke="black" points="301.5,-495.5 466.5,-495.5 "/>
<text text-anchor="middle" x="384" y="-483.5" font-family="Helvetica,sans-Serif" font-size="10.00"> </text>
<polyline fill="none" stroke="black" points="301.5,-476.5 466.5,-476.5 "/>
<text text-anchor="middle" x="384" y="-464.5" font-family="Helvetica,sans-Serif" font-size="10.00"> </text>
</a>
</g>
</g>
<!-- Node7&#45;&gt;Node4 -->
<g id="edge7" class="edge">
<title>Node7&#45;&gt;Node4</title>
<path fill="none" stroke="#404040" d="M407.73,-457.17C425.97,-435.9 451.87,-405.91 475,-380 499.93,-352.08 502.05,-340.45 532,-318 607.69,-261.27 705.64,-215.37 776.6,-186.15"/>
<polygon fill="none" stroke="#404040" points="776.63,-186.14 780.68,-180.17 787.74,-181.61 783.7,-187.58 776.63,-186.14"/>
<text text-anchor="middle" x="567" y="-337.5" font-family="Helvetica,sans-Serif" font-size="10.00"> #gameStats_</text>
</g>
<!-- Node8 -->
<g id="node8" class="node">
<title>Node8</title>
<g id="a_node8"><a xlink:title=" ">
<polygon fill="none" stroke="black" points="484.5,-457.5 484.5,-514.5 639.5,-514.5 639.5,-457.5 484.5,-457.5"/>
<text text-anchor="middle" x="562" y="-502.5" font-family="Helvetica,sans-Serif" font-size="10.00">unique_ptr&lt; GameStatsIO &gt;</text>
<polyline fill="none" stroke="black" points="484.5,-495.5 639.5,-495.5 "/>
<text text-anchor="middle" x="562" y="-483.5" font-family="Helvetica,sans-Serif" font-size="10.00"> </text>
<polyline fill="none" stroke="black" points="484.5,-476.5 639.5,-476.5 "/>
<text text-anchor="middle" x="562" y="-464.5" font-family="Helvetica,sans-Serif" font-size="10.00"> </text>
</a>
</g>
</g>
<!-- Node8&#45;&gt;Node4 -->
<g id="edge8" class="edge">
<title>Node8&#45;&gt;Node4</title>
<path fill="none" stroke="#404040" d="M568.47,-457.38C577.8,-422.09 597.79,-360.48 632,-318 671.45,-269.01 728.88,-228.15 777.44,-199.1"/>
<polygon fill="none" stroke="#404040" points="777.64,-198.99 780.78,-192.5 787.98,-192.9 784.84,-199.39 777.64,-198.99"/>
<text text-anchor="middle" x="672" y="-337.5" font-family="Helvetica,sans-Serif" font-size="10.00"> #gameStatsIO_</text>
</g>
<!-- Node9 -->
<g id="node9" class="node">
<title>Node9</title>
<g id="a_node9"><a xlink:title=" ">
<polygon fill="none" stroke="black" points="658,-457.5 658,-514.5 696,-514.5 696,-457.5 658,-457.5"/>
<text text-anchor="middle" x="677" y="-502.5" font-family="Helvetica,sans-Serif" font-size="10.00">bool</text>
<polyline fill="none" stroke="black" points="658,-495.5 696,-495.5 "/>
<text text-anchor="middle" x="677" y="-483.5" font-family="Helvetica,sans-Serif" font-size="10.00"> </text>
<polyline fill="none" stroke="black" points="658,-476.5 696,-476.5 "/>
<text text-anchor="middle" x="677" y="-464.5" font-family="Helvetica,sans-Serif" font-size="10.00"> </text>
</a>
</g>
</g>
<!-- Node9&#45;&gt;Node4 -->
<g id="edge9" class="edge">
<title>Node9&#45;&gt;Node4</title>
<path fill="none" stroke="#404040" d="M681.53,-457.29C685.76,-435.54 693.21,-404.89 705,-380 725.08,-337.62 753.2,-294.93 780.55,-258.07"/>
<polygon fill="none" stroke="#404040" points="780.66,-257.94 781.06,-250.74 787.86,-248.34 787.46,-255.54 780.66,-257.94"/>
<text text-anchor="middle" x="766" y="-337.5" font-family="Helvetica,sans-Serif" font-size="10.00"> #running_</text>
</g>
<!-- Node10 -->
<g id="node10" class="node">
<title>Node10</title>
<g id="a_node10"><a xlink:href="$class_clock.html" xlink:title="Represents an externally controlled clock running at a given frequency.">
<polygon fill="none" stroke="black" points="714.5,-397 714.5,-575 859.5,-575 859.5,-397 714.5,-397"/>
<text text-anchor="middle" x="787" y="-563" font-family="Helvetica,sans-Serif" font-size="10.00">Clock</text>
<polyline fill="none" stroke="black" points="714.5,-556 859.5,-556 "/>
<text text-anchor="middle" x="787" y="-544" font-family="Helvetica,sans-Serif" font-size="10.00"> </text>
<polyline fill="none" stroke="black" points="714.5,-537 859.5,-537 "/>
<text text-anchor="start" x="722.5" y="-525" font-family="Helvetica,sans-Serif" font-size="10.00">+ Clock()=delete</text>
<text text-anchor="start" x="722.5" y="-514" font-family="Helvetica,sans-Serif" font-size="10.00">+ Clock(const Clock</text>
<text text-anchor="start" x="722.5" y="-503" font-family="Helvetica,sans-Serif" font-size="10.00"> &amp;)=delete</text>
<text text-anchor="start" x="722.5" y="-492" font-family="Helvetica,sans-Serif" font-size="10.00">+ Clock operator=(const</text>
<text text-anchor="start" x="722.5" y="-481" font-family="Helvetica,sans-Serif" font-size="10.00"> Clock &amp;)=delete</text>
<text text-anchor="start" x="722.5" y="-470" font-family="Helvetica,sans-Serif" font-size="10.00">+ void tick()</text>
<text text-anchor="start" x="722.5" y="-459" font-family="Helvetica,sans-Serif" font-size="10.00">+ void sleep()</text>
<text text-anchor="start" x="722.5" y="-448" font-family="Helvetica,sans-Serif" font-size="10.00">+ static void initialize</text>
<text text-anchor="start" x="722.5" y="-437" font-family="Helvetica,sans-Serif" font-size="10.00">(unsigned int frequency)</text>
<text text-anchor="start" x="722.5" y="-426" font-family="Helvetica,sans-Serif" font-size="10.00">+ static Clock * instance()</text>
<text text-anchor="start" x="722.5" y="-415" font-family="Helvetica,sans-Serif" font-size="10.00">&#45; Clock(unsigned int</text>
<text text-anchor="start" x="722.5" y="-404" font-family="Helvetica,sans-Serif" font-size="10.00"> frequency)</text>
</a>
</g>
</g>
<!-- Node10&#45;&gt;Node4 -->
<g id="edge10" class="edge">
<title>Node10&#45;&gt;Node4</title>
<path fill="none" stroke="#404040" d="M808.92,-396.81C815.45,-370.53 822.81,-340.88 830.12,-311.5"/>
<polygon fill="none" stroke="#404040" points="830.12,-311.46 827.69,-304.68 833.02,-299.82 835.45,-306.6 830.12,-311.46"/>
<text text-anchor="middle" x="850.5" y="-337.5" font-family="Helvetica,sans-Serif" font-size="10.00"> #clock_</text>
</g>
<!-- Node11 -->
<g id="node11" class="node">
<title>Node11</title>
<g id="a_node11"><a xlink:href="$class_simple_publisher.html" xlink:title=" ">
<polygon fill="none" stroke="black" points="315,-645 315,-845 493,-845 493,-645 315,-645"/>
<text text-anchor="middle" x="404" y="-833" font-family="Helvetica,sans-Serif" font-size="10.00">SimplePublisher</text>
<polyline fill="none" stroke="black" points="315,-826 493,-826 "/>
<text text-anchor="middle" x="404" y="-814" font-family="Helvetica,sans-Serif" font-size="10.00"> </text>
<polyline fill="none" stroke="black" points="315,-807 493,-807 "/>
<text text-anchor="start" x="323" y="-795" font-family="Helvetica,sans-Serif" font-size="10.00">+ ~SimplePublisher()</text>
<text text-anchor="start" x="323" y="-784" font-family="Helvetica,sans-Serif" font-size="10.00">+ virtual void notifySubscribers()</text>
<text text-anchor="start" x="323" y="-773" font-family="Helvetica,sans-Serif" font-size="10.00">+ void attachSubscriber</text>
<text text-anchor="start" x="323" y="-762" font-family="Helvetica,sans-Serif" font-size="10.00">(SimpleSubscriber *)</text>
<text text-anchor="start" x="323" y="-751" font-family="Helvetica,sans-Serif" font-size="10.00">+ void detachSubscriber</text>
<text text-anchor="start" x="323" y="-740" font-family="Helvetica,sans-Serif" font-size="10.00">(SimpleSubscriber *)</text>
<text text-anchor="start" x="323" y="-729" font-family="Helvetica,sans-Serif" font-size="10.00">+ bool operator==(const</text>
<text text-anchor="start" x="323" y="-718" font-family="Helvetica,sans-Serif" font-size="10.00"> SimplePublisher &amp;rhs)</text>
<text text-anchor="start" x="323" y="-707" font-family="Helvetica,sans-Serif" font-size="10.00"> const</text>
<text text-anchor="start" x="323" y="-696" font-family="Helvetica,sans-Serif" font-size="10.00">+ bool operator!=(const</text>
<text text-anchor="start" x="323" y="-685" font-family="Helvetica,sans-Serif" font-size="10.00"> SimplePublisher &amp;rhs)</text>
<text text-anchor="start" x="323" y="-674" font-family="Helvetica,sans-Serif" font-size="10.00"> const</text>
<text text-anchor="start" x="323" y="-663" font-family="Helvetica,sans-Serif" font-size="10.00"># SimplePublisher()</text>
<text text-anchor="start" x="323" y="-652" font-family="Helvetica,sans-Serif" font-size="10.00">=default</text>
</a>
</g>
</g>
<!-- Node11&#45;&gt;Node10 -->
<g id="edge11" class="edge">
<title>Node11&#45;&gt;Node10</title>
<path fill="none" stroke="midnightblue" d="M501.41,-639.34C501.61,-639.23 501.8,-639.11 502,-639 582.2,-592.69 626.92,-641.79 705,-592 712.51,-587.21 719.61,-581.49 726.27,-575.22"/>
<polygon fill="none" stroke="midnightblue" points="499.33,-636.51 492.73,-644.8 503.06,-642.44 499.33,-636.51"/>
</g>
<!-- Node12 -->
<g id="node12" class="node">
<title>Node12</title>
<g id="a_node12"><a xlink:title=" ">
<polygon fill="none" stroke="black" points="322.5,-904 322.5,-961 485.5,-961 485.5,-904 322.5,-904"/>
<text text-anchor="middle" x="404" y="-949" font-family="Helvetica,sans-Serif" font-size="10.00">vector&lt; SimpleSubscriber * &gt;</text>
<polyline fill="none" stroke="black" points="322.5,-942 485.5,-942 "/>
<text text-anchor="middle" x="404" y="-930" font-family="Helvetica,sans-Serif" font-size="10.00"> </text>
<polyline fill="none" stroke="black" points="322.5,-923 485.5,-923 "/>
<text text-anchor="middle" x="404" y="-911" font-family="Helvetica,sans-Serif" font-size="10.00"> </text>
</a>
</g>
</g>
<!-- Node12&#45;&gt;Node11 -->
<g id="edge12" class="edge">
<title>Node12&#45;&gt;Node11</title>
<path fill="none" stroke="#404040" d="M404,-903.73C404,-890.75 404,-874.37 404,-857.1"/>
<polygon fill="none" stroke="#404040" points="404,-857.04 400,-851.04 404,-845.04 408,-851.04 404,-857.04"/>
<text text-anchor="middle" x="440.5" y="-872" font-family="Helvetica,sans-Serif" font-size="10.00"> #subscribers_</text>
</g>
<!-- Node13 -->
<g id="node13" class="node">
<title>Node13</title>
<g id="a_node13"><a xlink:title=" ">
<polygon fill="none" stroke="black" points="511,-711 511,-779 645,-779 645,-711 511,-711"/>
<text text-anchor="start" x="519" y="-767" font-family="Helvetica,sans-Serif" font-size="10.00">time_point&lt; std::chrono</text>
<text text-anchor="middle" x="578" y="-756" font-family="Helvetica,sans-Serif" font-size="10.00">::steady_clock &gt;</text>
<polyline fill="none" stroke="black" points="511,-749 645,-749 "/>
<text text-anchor="middle" x="578" y="-737" font-family="Helvetica,sans-Serif" font-size="10.00"> </text>
<polyline fill="none" stroke="black" points="511,-730 645,-730 "/>
<text text-anchor="middle" x="578" y="-718" font-family="Helvetica,sans-Serif" font-size="10.00"> </text>
</a>
</g>
</g>
<!-- Node13&#45;&gt;Node10 -->
<g id="edge13" class="edge">
<title>Node13&#45;&gt;Node10</title>
<path fill="none" stroke="#404040" d="M599.68,-710.55C614.09,-689.26 633.97,-661.54 654,-639 674.47,-615.96 684.11,-614.67 705,-592 707.24,-589.57 709.48,-587.09 711.72,-584.56"/>
<polygon fill="none" stroke="#404040" points="711.94,-584.32 712.85,-577.16 719.81,-575.26 718.89,-582.41 711.94,-584.32"/>
<text text-anchor="middle" x="713" y="-613" font-family="Helvetica,sans-Serif" font-size="10.00"> &#45;last_tick_</text>
</g>
<!-- Node14 -->
<g id="node14" class="node">
<title>Node14</title>
<g id="a_node14"><a xlink:title=" ">
<polygon fill="none" stroke="black" points="663,-716.5 663,-773.5 743,-773.5 743,-716.5 663,-716.5"/>
<text text-anchor="middle" x="703" y="-761.5" font-family="Helvetica,sans-Serif" font-size="10.00">nanoseconds</text>
<polyline fill="none" stroke="black" points="663,-754.5 743,-754.5 "/>
<text text-anchor="middle" x="703" y="-742.5" font-family="Helvetica,sans-Serif" font-size="10.00"> </text>
<polyline fill="none" stroke="black" points="663,-735.5 743,-735.5 "/>
<text text-anchor="middle" x="703" y="-723.5" font-family="Helvetica,sans-Serif" font-size="10.00"> </text>
</a>
</g>
</g>
<!-- Node14&#45;&gt;Node10 -->
<g id="edge14" class="edge">
<title>Node14&#45;&gt;Node10</title>
<path fill="none" stroke="#404040" d="M711.99,-716.5C722.12,-685.51 739.16,-633.37 754.44,-586.61"/>
<polygon fill="none" stroke="#404040" points="754.46,-586.57 752.52,-579.62 758.18,-575.16 760.12,-582.11 754.46,-586.57"/>
<text text-anchor="middle" x="770" y="-613" font-family="Helvetica,sans-Serif" font-size="10.00"> &#45;interval_</text>
</g>
<!-- Node15 -->
<g id="node15" class="node">
<title>Node15</title>
<g id="a_node15"><a xlink:title=" ">
<polygon fill="none" stroke="black" points="761,-716.5 761,-773.5 879,-773.5 879,-716.5 761,-716.5"/>
<text text-anchor="middle" x="820" y="-761.5" font-family="Helvetica,sans-Serif" font-size="10.00">unique_ptr&lt; Clock &gt;</text>
<polyline fill="none" stroke="black" points="761,-754.5 879,-754.5 "/>
<text text-anchor="middle" x="820" y="-742.5" font-family="Helvetica,sans-Serif" font-size="10.00"> </text>
<polyline fill="none" stroke="black" points="761,-735.5 879,-735.5 "/>
<text text-anchor="middle" x="820" y="-723.5" font-family="Helvetica,sans-Serif" font-size="10.00"> </text>
</a>
</g>
</g>
<!-- Node15&#45;&gt;Node10 -->
<g id="edge15" class="edge">
<title>Node15&#45;&gt;Node10</title>
<path fill="none" stroke="#404040" d="M816.47,-716.5C812.51,-685.64 805.85,-633.81 799.87,-587.2"/>
<polygon fill="none" stroke="#404040" points="799.85,-587.07 795.12,-581.62 798.32,-575.16 803.05,-580.61 799.85,-587.07"/>
<text text-anchor="middle" x="819.5" y="-613" font-family="Helvetica,sans-Serif" font-size="10.00"> &#45;self_</text>
</g>
<!-- Node16 -->
<g id="node16" class="node">
<title>Node16</title>
<g id="a_node16"><a xlink:href="$class_event_queue.html" xlink:title=" ">
<polygon fill="none" stroke="black" points="878,-380.5 878,-591.5 1028,-591.5 1028,-380.5 878,-380.5"/>
<text text-anchor="middle" x="953" y="-579.5" font-family="Helvetica,sans-Serif" font-size="10.00">EventQueue&lt; Event &gt;</text>
<polyline fill="none" stroke="black" points="878,-572.5 1028,-572.5 "/>
<text text-anchor="middle" x="953" y="-560.5" font-family="Helvetica,sans-Serif" font-size="10.00"> </text>
<polyline fill="none" stroke="black" points="878,-553.5 1028,-553.5 "/>
<text text-anchor="start" x="886" y="-541.5" font-family="Helvetica,sans-Serif" font-size="10.00">+ EventQueue(EventQueue</text>
<text text-anchor="start" x="886" y="-530.5" font-family="Helvetica,sans-Serif" font-size="10.00"> &amp;)=delete</text>
<text text-anchor="start" x="886" y="-519.5" font-family="Helvetica,sans-Serif" font-size="10.00">+ bool operator=(const</text>
<text text-anchor="start" x="886" y="-508.5" font-family="Helvetica,sans-Serif" font-size="10.00"> EventQueue &amp;)=delete</text>
<text text-anchor="start" x="886" y="-497.5" font-family="Helvetica,sans-Serif" font-size="10.00">+ void registerEvent</text>
<text text-anchor="start" x="886" y="-486.5" font-family="Helvetica,sans-Serif" font-size="10.00">(std::unique_ptr&lt; Event</text>
<text text-anchor="start" x="886" y="-475.5" font-family="Helvetica,sans-Serif" font-size="10.00"> &gt; event)</text>
<text text-anchor="start" x="886" y="-464.5" font-family="Helvetica,sans-Serif" font-size="10.00">+ std::unique_ptr&lt; Event</text>
<text text-anchor="start" x="886" y="-453.5" font-family="Helvetica,sans-Serif" font-size="10.00"> &gt; pop()</text>
<text text-anchor="start" x="886" y="-442.5" font-family="Helvetica,sans-Serif" font-size="10.00">+ bool isEmpty()</text>
<text text-anchor="start" x="886" y="-431.5" font-family="Helvetica,sans-Serif" font-size="10.00">+ unsigned int size()</text>
<text text-anchor="start" x="886" y="-420.5" font-family="Helvetica,sans-Serif" font-size="10.00">+ void clear()</text>
<text text-anchor="start" x="886" y="-409.5" font-family="Helvetica,sans-Serif" font-size="10.00">+ static EventQueue *</text>
<text text-anchor="start" x="886" y="-398.5" font-family="Helvetica,sans-Serif" font-size="10.00"> instance()</text>
<text text-anchor="start" x="886" y="-387.5" font-family="Helvetica,sans-Serif" font-size="10.00">&#45; EventQueue()=default</text>
</a>
</g>
</g>
<!-- Node16&#45;&gt;Node4 -->
<g id="edge16" class="edge">
<title>Node16&#45;&gt;Node4</title>
<path fill="none" stroke="#404040" d="M926.97,-380.24C921.54,-358.39 915.69,-334.88 909.9,-311.54"/>
<polygon fill="none" stroke="#404040" points="909.86,-311.38 904.53,-306.52 906.96,-299.74 912.29,-304.59 909.86,-311.38"/>
<text text-anchor="middle" x="959" y="-337.5" font-family="Helvetica,sans-Serif" font-size="10.00"> #eventQueue_</text>
</g>
<!-- Node17 -->
<g id="node17" class="node">
<title>Node17</title>
<g id="a_node17"><a xlink:href="$classstd_1_1queue_3_01std_1_1unique__ptr_3_01_event_01_4_01_4.html" xlink:title=" ">
<polygon fill="none" stroke="black" points="897,-711 897,-779 1009,-779 1009,-711 897,-711"/>
<text text-anchor="start" x="905" y="-767" font-family="Helvetica,sans-Serif" font-size="10.00">queue&lt; std::unique</text>
<text text-anchor="middle" x="953" y="-756" font-family="Helvetica,sans-Serif" font-size="10.00">_ptr&lt; Event &gt; &gt;</text>
<polyline fill="none" stroke="black" points="897,-749 1009,-749 "/>
<text text-anchor="middle" x="953" y="-737" font-family="Helvetica,sans-Serif" font-size="10.00"> </text>
<polyline fill="none" stroke="black" points="897,-730 1009,-730 "/>
<text text-anchor="middle" x="953" y="-718" font-family="Helvetica,sans-Serif" font-size="10.00"> </text>
</a>
</g>
</g>
<!-- Node17&#45;&gt;Node16 -->
<g id="edge17" class="edge">
<title>Node17&#45;&gt;Node16</title>
<path fill="none" stroke="#404040" d="M953,-710.93C953,-683.53 953,-642.87 953,-603.69"/>
<polygon fill="none" stroke="#404040" points="953,-603.6 949,-597.6 953,-591.6 957,-597.6 953,-603.6"/>
<text text-anchor="middle" x="978" y="-613" font-family="Helvetica,sans-Serif" font-size="10.00"> #events_</text>
</g>
<!-- Node18 -->
<g id="node18" class="node">
<title>Node18</title>
<g id="a_node18"><a xlink:title=" ">
<polygon fill="none" stroke="black" points="970,-904 970,-961 1120,-961 1120,-904 970,-904"/>
<text text-anchor="middle" x="1045" y="-949" font-family="Helvetica,sans-Serif" font-size="10.00">unique_ptr&lt; EventQueue &gt;</text>
<polyline fill="none" stroke="black" points="970,-942 1120,-942 "/>
<text text-anchor="middle" x="1045" y="-930" font-family="Helvetica,sans-Serif" font-size="10.00"> </text>
<polyline fill="none" stroke="black" points="970,-923 1120,-923 "/>
<text text-anchor="middle" x="1045" y="-911" font-family="Helvetica,sans-Serif" font-size="10.00"> </text>
</a>
</g>
</g>
<!-- Node18&#45;&gt;Node16 -->
<g id="edge18" class="edge">
<title>Node18&#45;&gt;Node16</title>
<path fill="none" stroke="#404040" d="M1044.92,-903.68C1044.22,-851.23 1040.06,-734.4 1018,-639 1014.89,-625.57 1012.22,-622.76 1007,-610 1006.03,-607.64 1005.05,-605.26 1004.06,-602.85"/>
<polygon fill="none" stroke="#404040" points="1003.95,-602.6 997.95,-598.6 999.32,-591.52 1005.33,-595.52 1003.95,-602.6"/>
<text text-anchor="middle" x="1060.5" y="-742.5" font-family="Helvetica,sans-Serif" font-size="10.00"> #self_</text>
</g>
<!-- Node19 -->
<g id="node19" class="node">
<title>Node19</title>
<g id="a_node19"><a xlink:href="$class_event_queue.html" xlink:title="Singleton class wrapper for std::queue&lt;E&gt;.">
<polygon fill="none" stroke="black" points="1098,-639.5 1098,-850.5 1248,-850.5 1248,-639.5 1098,-639.5"/>
<text text-anchor="middle" x="1173" y="-838.5" font-family="Helvetica,sans-Serif" font-size="10.00">EventQueue&lt; E &gt;</text>
<polyline fill="none" stroke="black" points="1098,-831.5 1248,-831.5 "/>
<text text-anchor="middle" x="1173" y="-819.5" font-family="Helvetica,sans-Serif" font-size="10.00"> </text>
<polyline fill="none" stroke="black" points="1098,-812.5 1248,-812.5 "/>
<text text-anchor="start" x="1106" y="-800.5" font-family="Helvetica,sans-Serif" font-size="10.00">+ EventQueue(EventQueue</text>
<text text-anchor="start" x="1106" y="-789.5" font-family="Helvetica,sans-Serif" font-size="10.00"> &amp;)=delete</text>
<text text-anchor="start" x="1106" y="-778.5" font-family="Helvetica,sans-Serif" font-size="10.00">+ bool operator=(const</text>
<text text-anchor="start" x="1106" y="-767.5" font-family="Helvetica,sans-Serif" font-size="10.00"> EventQueue &amp;)=delete</text>
<text text-anchor="start" x="1106" y="-756.5" font-family="Helvetica,sans-Serif" font-size="10.00">+ void registerEvent</text>
<text text-anchor="start" x="1106" y="-745.5" font-family="Helvetica,sans-Serif" font-size="10.00">(std::unique_ptr&lt; E</text>
<text text-anchor="start" x="1106" y="-734.5" font-family="Helvetica,sans-Serif" font-size="10.00"> &gt; event)</text>
<text text-anchor="start" x="1106" y="-723.5" font-family="Helvetica,sans-Serif" font-size="10.00">+ std::unique_ptr&lt; E</text>
<text text-anchor="start" x="1106" y="-712.5" font-family="Helvetica,sans-Serif" font-size="10.00"> &gt; pop()</text>
<text text-anchor="start" x="1106" y="-701.5" font-family="Helvetica,sans-Serif" font-size="10.00">+ bool isEmpty()</text>
<text text-anchor="start" x="1106" y="-690.5" font-family="Helvetica,sans-Serif" font-size="10.00">+ unsigned int size()</text>
<text text-anchor="start" x="1106" y="-679.5" font-family="Helvetica,sans-Serif" font-size="10.00">+ void clear()</text>
<text text-anchor="start" x="1106" y="-668.5" font-family="Helvetica,sans-Serif" font-size="10.00">+ static EventQueue *</text>
<text text-anchor="start" x="1106" y="-657.5" font-family="Helvetica,sans-Serif" font-size="10.00"> instance()</text>
<text text-anchor="start" x="1106" y="-646.5" font-family="Helvetica,sans-Serif" font-size="10.00">&#45; EventQueue()=default</text>
</a>
</g>
</g>
<!-- Node18&#45;&gt;Node19 -->
<g id="edge21" class="edge">
<title>Node18&#45;&gt;Node19</title>
<path fill="none" stroke="#404040" d="M1064.16,-903.73C1072.48,-891.68 1082.83,-876.68 1093.81,-860.77"/>
<polygon fill="none" stroke="#404040" points="1093.9,-860.64 1094.01,-853.43 1100.71,-850.76 1100.6,-857.97 1093.9,-860.64"/>
<text text-anchor="middle" x="1103.5" y="-872" font-family="Helvetica,sans-Serif" font-size="10.00"> #self_</text>
</g>
<!-- Node19&#45;&gt;Node16 -->
<g id="edge19" class="edge">
<title>Node19&#45;&gt;Node16</title>
<path fill="none" stroke="orange" d="M1091.09,-643.49C1080.61,-631.9 1069.77,-620.49 1059,-610 1049.95,-601.18 1045.88,-600.98 1037,-592 1034.05,-589.01 1031.09,-585.93 1028.15,-582.77"/>
<polygon fill="orange" stroke="orange" points="1088.65,-646.01 1097.93,-651.13 1093.87,-641.34 1088.65,-646.01"/>
<text text-anchor="middle" x="1096" y="-613" font-family="Helvetica,sans-Serif" font-size="10.00"> &lt; Event &gt;</text>
</g>
<!-- Node20 -->
<g id="node20" class="node">
<title>Node20</title>
<g id="a_node20"><a xlink:title=" ">
<polygon fill="none" stroke="black" points="1138,-898.5 1138,-966.5 1250,-966.5 1250,-898.5 1138,-898.5"/>
<text text-anchor="start" x="1146" y="-954.5" font-family="Helvetica,sans-Serif" font-size="10.00">queue&lt; std::unique</text>
<text text-anchor="middle" x="1194" y="-943.5" font-family="Helvetica,sans-Serif" font-size="10.00">_ptr&lt; E &gt; &gt;</text>
<polyline fill="none" stroke="black" points="1138,-936.5 1250,-936.5 "/>
<text text-anchor="middle" x="1194" y="-924.5" font-family="Helvetica,sans-Serif" font-size="10.00"> </text>
<polyline fill="none" stroke="black" points="1138,-917.5 1250,-917.5 "/>
<text text-anchor="middle" x="1194" y="-905.5" font-family="Helvetica,sans-Serif" font-size="10.00"> </text>
</a>
</g>
</g>
<!-- Node20&#45;&gt;Node19 -->
<g id="edge20" class="edge">
<title>Node20&#45;&gt;Node19</title>
<path fill="none" stroke="#404040" d="M1190.25,-898.34C1189.06,-887.88 1187.68,-875.68 1186.22,-862.81"/>
<polygon fill="none" stroke="#404040" points="1186.22,-862.77 1181.57,-857.25 1184.87,-850.84 1189.52,-856.36 1186.22,-862.77"/>
<text text-anchor="middle" x="1212" y="-872" font-family="Helvetica,sans-Serif" font-size="10.00"> #events_</text>
</g>
<!-- Node21 -->
<g id="node21" class="node">
<title>Node21</title>
<g id="a_node21"><a xlink:title=" ">
<polygon fill="none" stroke="black" points="1046,-457.5 1046,-514.5 1176,-514.5 1176,-457.5 1046,-457.5"/>
<text text-anchor="middle" x="1111" y="-502.5" font-family="Helvetica,sans-Serif" font-size="10.00">unique_ptr&lt; Window &gt;</text>
<polyline fill="none" stroke="black" points="1046,-495.5 1176,-495.5 "/>
<text text-anchor="middle" x="1111" y="-483.5" font-family="Helvetica,sans-Serif" font-size="10.00"> </text>
<polyline fill="none" stroke="black" points="1046,-476.5 1176,-476.5 "/>
<text text-anchor="middle" x="1111" y="-464.5" font-family="Helvetica,sans-Serif" font-size="10.00"> </text>
</a>
</g>
</g>
<!-- Node21&#45;&gt;Node4 -->
<g id="edge22" class="edge">
<title>Node21&#45;&gt;Node4</title>
<path fill="none" stroke="#404040" d="M1093.77,-457.34C1072.67,-423.83 1035.48,-365.9 1001,-318 987.89,-299.79 973.61,-280.79 959.46,-262.42"/>
<polygon fill="none" stroke="#404040" points="959.41,-262.36 952.58,-260.07 952.07,-252.87 958.91,-255.17 959.41,-262.36"/>
<text text-anchor="middle" x="1056.5" y="-337.5" font-family="Helvetica,sans-Serif" font-size="10.00"> #window_</text>
</g>
<!-- Node22 -->
<g id="node22" class="node">
<title>Node22</title>
<g id="a_node22"><a xlink:title=" ">
<polygon fill="none" stroke="black" points="1194.5,-457.5 1194.5,-514.5 1379.5,-514.5 1379.5,-457.5 1194.5,-457.5"/>
<text text-anchor="middle" x="1287" y="-502.5" font-family="Helvetica,sans-Serif" font-size="10.00">unique_ptr&lt; KeyboardController &gt;</text>
<polyline fill="none" stroke="black" points="1194.5,-495.5 1379.5,-495.5 "/>
<text text-anchor="middle" x="1287" y="-483.5" font-family="Helvetica,sans-Serif" font-size="10.00"> </text>
<polyline fill="none" stroke="black" points="1194.5,-476.5 1379.5,-476.5 "/>
<text text-anchor="middle" x="1287" y="-464.5" font-family="Helvetica,sans-Serif" font-size="10.00"> </text>
</a>
</g>
</g>
<!-- Node22&#45;&gt;Node4 -->
<g id="edge23" class="edge">
<title>Node22&#45;&gt;Node4</title>
<path fill="none" stroke="#404040" d="M1262.62,-457.41C1242.67,-435.46 1213.23,-404.47 1185,-380 1113.84,-318.31 1026.85,-255.95 962.34,-211.92"/>
<polygon fill="none" stroke="#404040" points="962.1,-211.76 954.89,-211.69 952.18,-205.01 959.39,-205.08 962.1,-211.76"/>
<text text-anchor="middle" x="1215" y="-337.5" font-family="Helvetica,sans-Serif" font-size="10.00"> #keyboardController_</text>
</g>
<!-- Node23 -->
<g id="node23" class="node">
<title>Node23</title>
<g id="a_node23"><a xlink:title=" ">
<polygon fill="none" stroke="black" points="1397.5,-452 1397.5,-520 1542.5,-520 1542.5,-452 1397.5,-452"/>
<text text-anchor="start" x="1405.5" y="-508" font-family="Helvetica,sans-Serif" font-size="10.00">unique_ptr&lt; GraphicEvent</text>
<text text-anchor="middle" x="1470" y="-497" font-family="Helvetica,sans-Serif" font-size="10.00">Handler &gt;</text>
<polyline fill="none" stroke="black" points="1397.5,-490 1542.5,-490 "/>
<text text-anchor="middle" x="1470" y="-478" font-family="Helvetica,sans-Serif" font-size="10.00"> </text>
<polyline fill="none" stroke="black" points="1397.5,-471 1542.5,-471 "/>
<text text-anchor="middle" x="1470" y="-459" font-family="Helvetica,sans-Serif" font-size="10.00"> </text>
</a>
</g>
</g>
<!-- Node23&#45;&gt;Node4 -->
<g id="edge24" class="edge">
<title>Node23&#45;&gt;Node4</title>
<path fill="none" stroke="#404040" d="M1449.67,-451.75C1434.86,-429.47 1413.22,-400.57 1389,-380 1261.71,-271.89 1075.34,-206.53 964,-174.71"/>
<polygon fill="none" stroke="#404040" points="963.68,-174.63 956.82,-176.85 952.13,-171.37 958.99,-169.15 963.68,-174.63"/>
<text text-anchor="middle" x="1424.5" y="-337.5" font-family="Helvetica,sans-Serif" font-size="10.00"> #graphicEventHandler_</text>
</g>
<!-- Node24 -->
<g id="node24" class="node">
<title>Node24</title>
<g id="a_node24"><a xlink:title=" ">
<polygon fill="none" stroke="black" points="1718,-457.5 1718,-514.5 1836,-514.5 1836,-457.5 1718,-457.5"/>
<text text-anchor="middle" x="1777" y="-502.5" font-family="Helvetica,sans-Serif" font-size="10.00">unique_ptr&lt; Menu &gt;</text>
<polyline fill="none" stroke="black" points="1718,-495.5 1836,-495.5 "/>
<text text-anchor="middle" x="1777" y="-483.5" font-family="Helvetica,sans-Serif" font-size="10.00"> </text>
<polyline fill="none" stroke="black" points="1718,-476.5 1836,-476.5 "/>
<text text-anchor="middle" x="1777" y="-464.5" font-family="Helvetica,sans-Serif" font-size="10.00"> </text>
</a>
</g>
</g>
<!-- Node24&#45;&gt;Node1 -->
<g id="edge25" class="edge">
<title>Node24&#45;&gt;Node1</title>
<path fill="none" stroke="#404040" d="M1774.52,-457.38C1769.6,-402.64 1758.54,-279.43 1752.03,-207.03"/>
<polygon fill="none" stroke="#404040" points="1752.03,-206.95 1747.5,-201.33 1750.95,-195 1755.47,-200.62 1752.03,-206.95"/>
<text text-anchor="middle" x="1785" y="-337.5" font-family="Helvetica,sans-Serif" font-size="10.00"> &#45;menu_</text>
</g>
</g>
</svg>
