<?xml version="1.0" encoding="UTF-8" standalone="no"?>
<!DOCTYPE svg PUBLIC "-//W3C//DTD SVG 1.1//EN"
 "http://www.w3.org/Graphics/SVG/1.1/DTD/svg11.dtd">
<!-- Generated by graphviz version 2.43.0 (0)
 -->
<!-- Title: Event Pages: 1 -->
<svg width="951pt" height="1444pt"
 viewBox="0.00 0.00 951.00 1444.00" xmlns="http://www.w3.org/2000/svg" xmlns:xlink="http://www.w3.org/1999/xlink">
<g id="graph0" class="graph" transform="scale(1 1) rotate(0) translate(4 1440)">
<title>Event</title>
<!-- Node1 -->
<g id="node1" class="node">
<title>Node1</title>
<g id="a_node1"><a xlink:title="Represents a single event of type Event::EventType.">
<polygon fill="#bfbfbf" stroke="black" points="315,-0.5 315,-178.5 475,-178.5 475,-0.5 315,-0.5"/>
<text text-anchor="middle" x="395" y="-166.5" font-family="Helvetica,sans-Serif" font-size="10.00">Event</text>
<polyline fill="none" stroke="black" points="315,-159.5 475,-159.5 "/>
<text text-anchor="middle" x="395" y="-147.5" font-family="Helvetica,sans-Serif" font-size="10.00"> </text>
<polyline fill="none" stroke="black" points="315,-140.5 475,-140.5 "/>
<text text-anchor="start" x="323" y="-128.5" font-family="Helvetica,sans-Serif" font-size="10.00">+ Event(EventType, unsigned</text>
<text text-anchor="start" x="323" y="-117.5" font-family="Helvetica,sans-Serif" font-size="10.00"> int ui1)</text>
<text text-anchor="start" x="323" y="-106.5" font-family="Helvetica,sans-Serif" font-size="10.00">+ Event(EventType)</text>
<text text-anchor="start" x="323" y="-95.5" font-family="Helvetica,sans-Serif" font-size="10.00">+ Event(EventType e,</text>
<text text-anchor="start" x="323" y="-84.5" font-family="Helvetica,sans-Serif" font-size="10.00"> Tank *tank)</text>
<text text-anchor="start" x="323" y="-73.5" font-family="Helvetica,sans-Serif" font-size="10.00">+ Event(EventType e,</text>
<text text-anchor="start" x="323" y="-62.5" font-family="Helvetica,sans-Serif" font-size="10.00"> unsigned int x, unsigned</text>
<text text-anchor="start" x="323" y="-51.5" font-family="Helvetica,sans-Serif" font-size="10.00"> int y, Grid *grid)</text>
<text text-anchor="start" x="323" y="-40.5" font-family="Helvetica,sans-Serif" font-size="10.00">+ Event(EventType e,</text>
<text text-anchor="start" x="323" y="-29.5" font-family="Helvetica,sans-Serif" font-size="10.00"> unsigned int levelNumber,</text>
<text text-anchor="start" x="323" y="-18.5" font-family="Helvetica,sans-Serif" font-size="10.00"> Grid *grid)</text>
<text text-anchor="start" x="323" y="-7.5" font-family="Helvetica,sans-Serif" font-size="10.00">+ Event()=delete</text>
</a>
</g>
</g>
<!-- Node2 -->
<g id="node2" class="node">
<title>Node2</title>
<g id="a_node2"><a xlink:title=" ">
<polygon fill="none" stroke="black" points="333.5,-226.5 333.5,-283.5 400.5,-283.5 400.5,-226.5 333.5,-226.5"/>
<text text-anchor="middle" x="367" y="-271.5" font-family="Helvetica,sans-Serif" font-size="10.00">EventType</text>
<polyline fill="none" stroke="black" points="333.5,-264.5 400.5,-264.5 "/>
<text text-anchor="middle" x="367" y="-252.5" font-family="Helvetica,sans-Serif" font-size="10.00"> </text>
<polyline fill="none" stroke="black" points="333.5,-245.5 400.5,-245.5 "/>
<text text-anchor="middle" x="367" y="-233.5" font-family="Helvetica,sans-Serif" font-size="10.00"> </text>
</a>
</g>
</g>
<!-- Node2&#45;&gt;Node1 -->
<g id="edge1" class="edge">
<title>Node2&#45;&gt;Node1</title>
<path fill="none" stroke="#404040" d="M371.75,-226.26C373.51,-216.01 375.61,-203.7 377.83,-190.74"/>
<polygon fill="none" stroke="#404040" points="377.87,-190.53 374.94,-183.94 379.9,-178.7 382.83,-185.29 377.87,-190.53"/>
<text text-anchor="middle" x="393" y="-200" font-family="Helvetica,sans-Serif" font-size="10.00"> +type</text>
</g>
<!-- Node3 -->
<g id="node3" class="node">
<title>Node3</title>
<g id="a_node3"><a xlink:href="$union_event_1_1info__u.html" xlink:title=" ">
<polygon fill="none" stroke="black" points="419,-226.5 419,-283.5 499,-283.5 499,-226.5 419,-226.5"/>
<text text-anchor="middle" x="459" y="-271.5" font-family="Helvetica,sans-Serif" font-size="10.00">Event::info_u</text>
<polyline fill="none" stroke="black" points="419,-264.5 499,-264.5 "/>
<text text-anchor="middle" x="459" y="-252.5" font-family="Helvetica,sans-Serif" font-size="10.00"> </text>
<polyline fill="none" stroke="black" points="419,-245.5 499,-245.5 "/>
<text text-anchor="start" x="427" y="-233.5" font-family="Helvetica,sans-Serif" font-size="10.00">+ ~info_u()</text>
</a>
</g>
</g>
<!-- Node3&#45;&gt;Node1 -->
<g id="edge2" class="edge">
<title>Node3&#45;&gt;Node1</title>
<path fill="none" stroke="#404040" d="M448.14,-226.26C444.05,-215.8 439.12,-203.2 433.93,-189.95"/>
<polygon fill="none" stroke="#404040" points="433.9,-189.87 427.99,-185.74 429.52,-178.7 435.44,-182.83 433.9,-189.87"/>
<text text-anchor="middle" x="455.5" y="-200" font-family="Helvetica,sans-Serif" font-size="10.00"> +info</text>
</g>
<!-- Node4 -->
<g id="node4" class="node">
<title>Node4</title>
<g id="a_node4"><a xlink:href="$struct_event_1_1_key_event_info.html" xlink:title=" ">
<polygon fill="none" stroke="black" points="366.5,-585 366.5,-642 481.5,-642 481.5,-585 366.5,-585"/>
<text text-anchor="middle" x="424" y="-630" font-family="Helvetica,sans-Serif" font-size="10.00">Event::KeyEventInfo</text>
<polyline fill="none" stroke="black" points="366.5,-623 481.5,-623 "/>
<text text-anchor="middle" x="424" y="-611" font-family="Helvetica,sans-Serif" font-size="10.00"> </text>
<polyline fill="none" stroke="black" points="366.5,-604 481.5,-604 "/>
<text text-anchor="middle" x="424" y="-592" font-family="Helvetica,sans-Serif" font-size="10.00"> </text>
</a>
</g>
</g>
<!-- Node4&#45;&gt;Node3 -->
<g id="edge3" class="edge">
<title>Node4&#45;&gt;Node3</title>
<path fill="none" stroke="#404040" d="M422.38,-584.65C419.99,-533.79 417.45,-422.68 434,-331 436.15,-319.07 439.8,-306.45 443.65,-295.03"/>
<polygon fill="none" stroke="#404040" points="443.67,-294.95 441.9,-287.96 447.68,-283.64 449.45,-290.63 443.67,-294.95"/>
<text text-anchor="middle" x="458" y="-357.5" font-family="Helvetica,sans-Serif" font-size="10.00"> +keyInfo</text>
</g>
<!-- Node5 -->
<g id="node5" class="node">
<title>Node5</title>
<g id="a_node5"><a xlink:title=" ">
<polygon fill="none" stroke="black" points="495.5,-943 495.5,-1000 572.5,-1000 572.5,-943 495.5,-943"/>
<text text-anchor="middle" x="534" y="-988" font-family="Helvetica,sans-Serif" font-size="10.00">unsigned int</text>
<polyline fill="none" stroke="black" points="495.5,-981 572.5,-981 "/>
<text text-anchor="middle" x="534" y="-969" font-family="Helvetica,sans-Serif" font-size="10.00"> </text>
<polyline fill="none" stroke="black" points="495.5,-962 572.5,-962 "/>
<text text-anchor="middle" x="534" y="-950" font-family="Helvetica,sans-Serif" font-size="10.00"> </text>
</a>
</g>
</g>
<!-- Node5&#45;&gt;Node4 -->
<g id="edge4" class="edge">
<title>Node5&#45;&gt;Node4</title>
<path fill="none" stroke="#404040" d="M514.28,-942.91C498.81,-919.92 477.94,-885.77 466,-853 441.49,-785.73 431,-702.43 426.73,-654.19"/>
<polygon fill="none" stroke="#404040" points="426.72,-654.09 422.24,-648.44 425.73,-642.13 430.21,-647.78 426.72,-654.09"/>
<text text-anchor="middle" x="493" y="-828.5" font-family="Helvetica,sans-Serif" font-size="10.00"> +keyCode</text>
</g>
<!-- Node8 -->
<g id="node8" class="node">
<title>Node8</title>
<g id="a_node8"><a xlink:href="$class_tank.html" xlink:title="Base class for tank representation.">
<polygon fill="none" stroke="black" points="143.5,-436.5 143.5,-790.5 312.5,-790.5 312.5,-436.5 143.5,-436.5"/>
<text text-anchor="middle" x="228" y="-778.5" font-family="Helvetica,sans-Serif" font-size="10.00">Tank</text>
<polyline fill="none" stroke="black" points="143.5,-771.5 312.5,-771.5 "/>
<text text-anchor="middle" x="228" y="-759.5" font-family="Helvetica,sans-Serif" font-size="10.00"> </text>
<polyline fill="none" stroke="black" points="143.5,-752.5 312.5,-752.5 "/>
<text text-anchor="start" x="151.5" y="-740.5" font-family="Helvetica,sans-Serif" font-size="10.00">+ virtual ~Tank()=default</text>
<text text-anchor="start" x="151.5" y="-729.5" font-family="Helvetica,sans-Serif" font-size="10.00">+ void setFacing(Direction</text>
<text text-anchor="start" x="151.5" y="-718.5" font-family="Helvetica,sans-Serif" font-size="10.00"> direction)</text>
<text text-anchor="start" x="151.5" y="-707.5" font-family="Helvetica,sans-Serif" font-size="10.00">+ void move()</text>
<text text-anchor="start" x="151.5" y="-696.5" font-family="Helvetica,sans-Serif" font-size="10.00">+ void deltaLives(int</text>
<text text-anchor="start" x="151.5" y="-685.5" font-family="Helvetica,sans-Serif" font-size="10.00"> delta_l)</text>
<text text-anchor="start" x="151.5" y="-674.5" font-family="Helvetica,sans-Serif" font-size="10.00">+ TankType getType()</text>
<text text-anchor="start" x="151.5" y="-663.5" font-family="Helvetica,sans-Serif" font-size="10.00"> const</text>
<text text-anchor="start" x="151.5" y="-652.5" font-family="Helvetica,sans-Serif" font-size="10.00">+ float getX() const</text>
<text text-anchor="start" x="151.5" y="-641.5" font-family="Helvetica,sans-Serif" font-size="10.00">+ float getY() const</text>
<text text-anchor="start" x="151.5" y="-630.5" font-family="Helvetica,sans-Serif" font-size="10.00">+ unsigned int getLives</text>
<text text-anchor="start" x="151.5" y="-619.5" font-family="Helvetica,sans-Serif" font-size="10.00">() const</text>
<text text-anchor="start" x="151.5" y="-608.5" font-family="Helvetica,sans-Serif" font-size="10.00">+ float getTankSpeed</text>
<text text-anchor="start" x="151.5" y="-597.5" font-family="Helvetica,sans-Serif" font-size="10.00">() const</text>
<text text-anchor="start" x="151.5" y="-586.5" font-family="Helvetica,sans-Serif" font-size="10.00">+ void setMoving(bool</text>
<text text-anchor="start" x="151.5" y="-575.5" font-family="Helvetica,sans-Serif" font-size="10.00"> isMoving)</text>
<text text-anchor="start" x="151.5" y="-564.5" font-family="Helvetica,sans-Serif" font-size="10.00">+ bool isMoving() const</text>
<text text-anchor="start" x="151.5" y="-553.5" font-family="Helvetica,sans-Serif" font-size="10.00">+ float getBulletSpeed</text>
<text text-anchor="start" x="151.5" y="-542.5" font-family="Helvetica,sans-Serif" font-size="10.00">() const</text>
<text text-anchor="start" x="151.5" y="-531.5" font-family="Helvetica,sans-Serif" font-size="10.00">+ Direction getFacing</text>
<text text-anchor="start" x="151.5" y="-520.5" font-family="Helvetica,sans-Serif" font-size="10.00">() const</text>
<text text-anchor="start" x="151.5" y="-509.5" font-family="Helvetica,sans-Serif" font-size="10.00">+ unsigned int getPoints</text>
<text text-anchor="start" x="151.5" y="-498.5" font-family="Helvetica,sans-Serif" font-size="10.00">() const</text>
<text text-anchor="start" x="151.5" y="-487.5" font-family="Helvetica,sans-Serif" font-size="10.00">+ void setX(float x)</text>
<text text-anchor="start" x="151.5" y="-476.5" font-family="Helvetica,sans-Serif" font-size="10.00">+ void setY(float y)</text>
<text text-anchor="start" x="151.5" y="-465.5" font-family="Helvetica,sans-Serif" font-size="10.00">+ void offsetInCurrentDirection</text>
<text text-anchor="start" x="151.5" y="-454.5" font-family="Helvetica,sans-Serif" font-size="10.00">(float offset)</text>
<text text-anchor="start" x="151.5" y="-443.5" font-family="Helvetica,sans-Serif" font-size="10.00"># Tank()=default</text>
</a>
</g>
</g>
<!-- Node5&#45;&gt;Node8 -->
<g id="edge10" class="edge">
<title>Node5&#45;&gt;Node8</title>
<path fill="none" stroke="#404040" d="M499.93,-942.97C472.91,-920.3 435.01,-886.53 406,-853 390.51,-835.1 391.1,-827.23 376,-809 368.78,-800.29 365.38,-799.58 358,-791 345.36,-776.3 332.61,-760.47 320.29,-744.53"/>
<polygon fill="none" stroke="#404040" points="319.98,-744.12 313.15,-741.8 312.67,-734.6 319.5,-736.93 319.98,-744.12"/>
<text text-anchor="middle" x="428" y="-834" font-family="Helvetica,sans-Serif" font-size="10.00"> #lives_</text>
<text text-anchor="middle" x="428" y="-823" font-family="Helvetica,sans-Serif" font-size="10.00">#points_</text>
</g>
<!-- Node13 -->
<g id="node13" class="node">
<title>Node13</title>
<g id="a_node13"><a xlink:href="$struct_event_1_1_tile_info.html" xlink:title=" ">
<polygon fill="none" stroke="black" points="490.5,-331.5 490.5,-388.5 577.5,-388.5 577.5,-331.5 490.5,-331.5"/>
<text text-anchor="middle" x="534" y="-376.5" font-family="Helvetica,sans-Serif" font-size="10.00">Event::TileInfo</text>
<polyline fill="none" stroke="black" points="490.5,-369.5 577.5,-369.5 "/>
<text text-anchor="middle" x="534" y="-357.5" font-family="Helvetica,sans-Serif" font-size="10.00"> </text>
<polyline fill="none" stroke="black" points="490.5,-350.5 577.5,-350.5 "/>
<text text-anchor="middle" x="534" y="-338.5" font-family="Helvetica,sans-Serif" font-size="10.00"> </text>
</a>
</g>
</g>
<!-- Node5&#45;&gt;Node13 -->
<g id="edge14" class="edge">
<title>Node5&#45;&gt;Node13</title>
<path fill="none" stroke="#404040" d="M534,-942.73C534,-844.85 534,-515.65 534,-400.88"/>
<polygon fill="none" stroke="#404040" points="534,-400.59 530,-394.59 534,-388.59 538,-394.59 534,-400.59"/>
<text text-anchor="middle" x="553.5" y="-616.5" font-family="Helvetica,sans-Serif" font-size="10.00"> +tile_x</text>
<text text-anchor="middle" x="553.5" y="-605.5" font-family="Helvetica,sans-Serif" font-size="10.00">+tile_y</text>
</g>
<!-- Node14 -->
<g id="node14" class="node">
<title>Node14</title>
<g id="a_node14"><a xlink:href="$class_grid.html" xlink:title="Represents a grid of tiles.">
<polygon fill="none" stroke="black" points="704,-524.5 704,-702.5 872,-702.5 872,-524.5 704,-524.5"/>
<text text-anchor="middle" x="788" y="-690.5" font-family="Helvetica,sans-Serif" font-size="10.00">Grid</text>
<polyline fill="none" stroke="black" points="704,-683.5 872,-683.5 "/>
<text text-anchor="middle" x="788" y="-671.5" font-family="Helvetica,sans-Serif" font-size="10.00"> </text>
<polyline fill="none" stroke="black" points="704,-664.5 872,-664.5 "/>
<text text-anchor="start" x="712" y="-652.5" font-family="Helvetica,sans-Serif" font-size="10.00">+ Grid()</text>
<text text-anchor="start" x="712" y="-641.5" font-family="Helvetica,sans-Serif" font-size="10.00">+ TileType getTileAtPosition</text>
<text text-anchor="start" x="712" y="-630.5" font-family="Helvetica,sans-Serif" font-size="10.00">(unsigned int x, unsigned int y)</text>
<text text-anchor="start" x="712" y="-619.5" font-family="Helvetica,sans-Serif" font-size="10.00">+ void setTile(unsigned</text>
<text text-anchor="start" x="712" y="-608.5" font-family="Helvetica,sans-Serif" font-size="10.00"> int x, unsigned int</text>
<text text-anchor="start" x="712" y="-597.5" font-family="Helvetica,sans-Serif" font-size="10.00"> y, TileType newTile)</text>
<text text-anchor="start" x="712" y="-586.5" font-family="Helvetica,sans-Serif" font-size="10.00">+ void deleteTile(unsigned</text>
<text text-anchor="start" x="712" y="-575.5" font-family="Helvetica,sans-Serif" font-size="10.00"> int x, unsigned int y)</text>
<text text-anchor="start" x="712" y="-564.5" font-family="Helvetica,sans-Serif" font-size="10.00">+ unsigned int getSizeX</text>
<text text-anchor="start" x="712" y="-553.5" font-family="Helvetica,sans-Serif" font-size="10.00">() const</text>
<text text-anchor="start" x="712" y="-542.5" font-family="Helvetica,sans-Serif" font-size="10.00">+ unsigned int getSizeY</text>
<text text-anchor="start" x="712" y="-531.5" font-family="Helvetica,sans-Serif" font-size="10.00">() const</text>
</a>
</g>
</g>
<!-- Node5&#45;&gt;Node14 -->
<g id="edge16" class="edge">
<title>Node5&#45;&gt;Node14</title>
<path fill="none" stroke="#404040" d="M561.35,-942.8C594.15,-908.78 649.72,-848.48 690,-791 706.97,-766.78 723.4,-739.35 737.8,-713.46"/>
<polygon fill="none" stroke="#404040" points="737.85,-713.38 737.24,-706.19 743.63,-702.86 744.25,-710.05 737.85,-713.38"/>
<text text-anchor="middle" x="695.5" y="-834" font-family="Helvetica,sans-Serif" font-size="10.00"> #size_x</text>
<text text-anchor="middle" x="695.5" y="-823" font-family="Helvetica,sans-Serif" font-size="10.00">#size_y</text>
</g>
<!-- Node21 -->
<g id="node21" class="node">
<title>Node21</title>
<g id="a_node21"><a xlink:href="$struct_event_1_1_level_info.html" xlink:title=" ">
<polygon fill="none" stroke="black" points="595.5,-331.5 595.5,-388.5 690.5,-388.5 690.5,-331.5 595.5,-331.5"/>
<text text-anchor="middle" x="643" y="-376.5" font-family="Helvetica,sans-Serif" font-size="10.00">Event::LevelInfo</text>
<polyline fill="none" stroke="black" points="595.5,-369.5 690.5,-369.5 "/>
<text text-anchor="middle" x="643" y="-357.5" font-family="Helvetica,sans-Serif" font-size="10.00"> </text>
<polyline fill="none" stroke="black" points="595.5,-350.5 690.5,-350.5 "/>
<text text-anchor="middle" x="643" y="-338.5" font-family="Helvetica,sans-Serif" font-size="10.00"> </text>
</a>
</g>
</g>
<!-- Node5&#45;&gt;Node21 -->
<g id="edge25" class="edge">
<title>Node5&#45;&gt;Node21</title>
<path fill="none" stroke="#404040" d="M541.7,-942.73C551.19,-907.63 567.25,-845.25 577,-791 605.11,-634.58 587.02,-591.47 620,-436 622.47,-424.36 625.93,-411.92 629.43,-400.6"/>
<polygon fill="none" stroke="#404040" points="629.53,-400.26 627.54,-393.33 633.18,-388.83 635.17,-395.76 629.53,-400.26"/>
<text text-anchor="middle" x="657.5" y="-611" font-family="Helvetica,sans-Serif" font-size="10.00"> +levelNumber</text>
</g>
<!-- Node6 -->
<g id="node6" class="node">
<title>Node6</title>
<g id="a_node6"><a xlink:title=" ">
<polygon fill="none" stroke="black" points="313.5,-943 313.5,-1000 378.5,-1000 378.5,-943 313.5,-943"/>
<text text-anchor="middle" x="346" y="-988" font-family="Helvetica,sans-Serif" font-size="10.00">KeyAction</text>
<polyline fill="none" stroke="black" points="313.5,-981 378.5,-981 "/>
<text text-anchor="middle" x="346" y="-969" font-family="Helvetica,sans-Serif" font-size="10.00"> </text>
<polyline fill="none" stroke="black" points="313.5,-962 378.5,-962 "/>
<text text-anchor="middle" x="346" y="-950" font-family="Helvetica,sans-Serif" font-size="10.00"> </text>
</a>
</g>
</g>
<!-- Node6&#45;&gt;Node4 -->
<g id="edge5" class="edge">
<title>Node6&#45;&gt;Node4</title>
<path fill="none" stroke="#404040" d="M339.12,-942.72C332.19,-910.27 323.84,-855.13 334,-809 346.67,-751.45 378.11,-690.67 400.24,-652.68"/>
<polygon fill="none" stroke="#404040" points="400.38,-652.45 400,-645.24 406.5,-642.12 406.88,-649.32 400.38,-652.45"/>
<text text-anchor="middle" x="355" y="-828.5" font-family="Helvetica,sans-Serif" font-size="10.00"> +action</text>
</g>
<!-- Node7 -->
<g id="node7" class="node">
<title>Node7</title>
<g id="a_node7"><a xlink:href="$struct_event_1_1_tank_info.html" xlink:title=" ">
<polygon fill="none" stroke="black" points="277,-331.5 277,-388.5 369,-388.5 369,-331.5 277,-331.5"/>
<text text-anchor="middle" x="323" y="-376.5" font-family="Helvetica,sans-Serif" font-size="10.00">Event::TankInfo</text>
<polyline fill="none" stroke="black" points="277,-369.5 369,-369.5 "/>
<text text-anchor="middle" x="323" y="-357.5" font-family="Helvetica,sans-Serif" font-size="10.00"> </text>
<polyline fill="none" stroke="black" points="277,-350.5 369,-350.5 "/>
<text text-anchor="middle" x="323" y="-338.5" font-family="Helvetica,sans-Serif" font-size="10.00"> </text>
</a>
</g>
</g>
<!-- Node7&#45;&gt;Node3 -->
<g id="edge6" class="edge">
<title>Node7&#45;&gt;Node3</title>
<path fill="none" stroke="#404040" d="M334.92,-331.46C340.61,-321.02 348.31,-309.78 358,-302 374.61,-288.66 384.84,-292.57 407.83,-284.27"/>
<polygon fill="none" stroke="#404040" points="407.84,-284.26 411.86,-278.27 418.93,-279.68 414.92,-285.67 407.84,-284.26"/>
<text text-anchor="middle" x="384" y="-305" font-family="Helvetica,sans-Serif" font-size="10.00"> +tankInfo</text>
</g>
<!-- Node8&#45;&gt;Node7 -->
<g id="edge7" class="edge">
<title>Node8&#45;&gt;Node7</title>
<path fill="none" stroke="#404040" d="M294.5,-436.46C299.53,-423.14 304.22,-410.73 308.28,-399.97"/>
<polygon fill="none" stroke="#404040" points="308.35,-399.79 306.73,-392.76 312.59,-388.56 314.21,-395.59 308.35,-399.79"/>
<text text-anchor="middle" x="321" y="-410" font-family="Helvetica,sans-Serif" font-size="10.00"> +tank</text>
</g>
<!-- Node9 -->
<g id="node9" class="node">
<title>Node9</title>
<g id="a_node9"><a xlink:title=" ">
<polygon fill="none" stroke="black" points="233,-943 233,-1000 295,-1000 295,-943 233,-943"/>
<text text-anchor="middle" x="264" y="-988" font-family="Helvetica,sans-Serif" font-size="10.00">TankType</text>
<polyline fill="none" stroke="black" points="233,-981 295,-981 "/>
<text text-anchor="middle" x="264" y="-969" font-family="Helvetica,sans-Serif" font-size="10.00"> </text>
<polyline fill="none" stroke="black" points="233,-962 295,-962 "/>
<text text-anchor="middle" x="264" y="-950" font-family="Helvetica,sans-Serif" font-size="10.00"> </text>
</a>
</g>
</g>
<!-- Node9&#45;&gt;Node8 -->
<g id="edge8" class="edge">
<title>Node9&#45;&gt;Node8</title>
<path fill="none" stroke="#404040" d="M261.21,-942.86C258.04,-911.58 252.6,-857.79 247.03,-802.68"/>
<polygon fill="none" stroke="#404040" points="247.01,-802.48 242.43,-796.91 245.8,-790.54 250.39,-796.11 247.01,-802.48"/>
<text text-anchor="middle" x="270.5" y="-828.5" font-family="Helvetica,sans-Serif" font-size="10.00"> #type_</text>
</g>
<!-- Node10 -->
<g id="node10" class="node">
<title>Node10</title>
<g id="a_node10"><a xlink:title=" ">
<polygon fill="none" stroke="black" points="0,-943 0,-1000 38,-1000 38,-943 0,-943"/>
<text text-anchor="middle" x="19" y="-988" font-family="Helvetica,sans-Serif" font-size="10.00">float</text>
<polyline fill="none" stroke="black" points="0,-981 38,-981 "/>
<text text-anchor="middle" x="19" y="-969" font-family="Helvetica,sans-Serif" font-size="10.00"> </text>
<polyline fill="none" stroke="black" points="0,-962 38,-962 "/>
<text text-anchor="middle" x="19" y="-950" font-family="Helvetica,sans-Serif" font-size="10.00"> </text>
</a>
</g>
</g>
<!-- Node10&#45;&gt;Node8 -->
<g id="edge9" class="edge">
<title>Node10&#45;&gt;Node8</title>
<path fill="none" stroke="#404040" d="M19.08,-942.74C20.21,-909.33 25.5,-852.34 47,-809 68.27,-766.14 102.02,-726.08 134.64,-693.58"/>
<polygon fill="none" stroke="#404040" points="134.78,-693.45 136.26,-686.4 143.35,-685.06 141.86,-692.11 134.78,-693.45"/>
<text text-anchor="middle" x="86.5" y="-845" font-family="Helvetica,sans-Serif" font-size="10.00"> #bullet_speed_</text>
<text text-anchor="middle" x="86.5" y="-834" font-family="Helvetica,sans-Serif" font-size="10.00">#tank_speed_</text>
<text text-anchor="middle" x="86.5" y="-823" font-family="Helvetica,sans-Serif" font-size="10.00">#x_</text>
<text text-anchor="middle" x="86.5" y="-812" font-family="Helvetica,sans-Serif" font-size="10.00">#y_</text>
</g>
<!-- Node11 -->
<g id="node11" class="node">
<title>Node11</title>
<g id="a_node11"><a xlink:title=" ">
<polygon fill="none" stroke="black" points="90.5,-943 90.5,-1000 151.5,-1000 151.5,-943 90.5,-943"/>
<text text-anchor="middle" x="121" y="-988" font-family="Helvetica,sans-Serif" font-size="10.00">Direction</text>
<polyline fill="none" stroke="black" points="90.5,-981 151.5,-981 "/>
<text text-anchor="middle" x="121" y="-969" font-family="Helvetica,sans-Serif" font-size="10.00"> </text>
<polyline fill="none" stroke="black" points="90.5,-962 151.5,-962 "/>
<text text-anchor="middle" x="121" y="-950" font-family="Helvetica,sans-Serif" font-size="10.00"> </text>
</a>
</g>
</g>
<!-- Node11&#45;&gt;Node8 -->
<g id="edge11" class="edge">
<title>Node11&#45;&gt;Node8</title>
<path fill="none" stroke="#404040" d="M121.43,-942.85C122.53,-910.28 126.32,-854.81 139,-809 139.63,-806.72 140.29,-804.43 140.96,-802.14"/>
<polygon fill="none" stroke="#404040" points="140.98,-802.09 138.93,-795.18 144.53,-790.63 146.57,-797.55 140.98,-802.09"/>
<text text-anchor="middle" x="162.5" y="-828.5" font-family="Helvetica,sans-Serif" font-size="10.00"> #facing_</text>
</g>
<!-- Node12 -->
<g id="node12" class="node">
<title>Node12</title>
<g id="a_node12"><a xlink:title=" ">
<polygon fill="none" stroke="black" points="172,-943 172,-1000 210,-1000 210,-943 172,-943"/>
<text text-anchor="middle" x="191" y="-988" font-family="Helvetica,sans-Serif" font-size="10.00">bool</text>
<polyline fill="none" stroke="black" points="172,-981 210,-981 "/>
<text text-anchor="middle" x="191" y="-969" font-family="Helvetica,sans-Serif" font-size="10.00"> </text>
<polyline fill="none" stroke="black" points="172,-962 210,-962 "/>
<text text-anchor="middle" x="191" y="-950" font-family="Helvetica,sans-Serif" font-size="10.00"> </text>
</a>
</g>
</g>
<!-- Node12&#45;&gt;Node8 -->
<g id="edge12" class="edge">
<title>Node12&#45;&gt;Node8</title>
<path fill="none" stroke="#404040" d="M190.7,-942.96C190.46,-919.15 190.13,-883.8 190,-853 189.92,-833.44 188.12,-828.46 190,-809 190.2,-806.91 190.42,-804.81 190.64,-802.7"/>
<polygon fill="none" stroke="#404040" points="190.67,-802.45 187.39,-796.03 192.05,-790.53 195.33,-796.95 190.67,-802.45"/>
<text text-anchor="middle" x="217" y="-828.5" font-family="Helvetica,sans-Serif" font-size="10.00"> #moving_</text>
</g>
<!-- Node13&#45;&gt;Node3 -->
<g id="edge13" class="edge">
<title>Node13&#45;&gt;Node3</title>
<path fill="none" stroke="#404040" d="M513.9,-331.4C505.41,-319.74 495.39,-305.98 486.25,-293.42"/>
<polygon fill="none" stroke="#404040" points="486.22,-293.38 479.45,-290.88 479.15,-283.68 485.92,-286.17 486.22,-293.38"/>
<text text-anchor="middle" x="521" y="-305" font-family="Helvetica,sans-Serif" font-size="10.00"> +tileInfo</text>
</g>
<!-- Node14&#45;&gt;Node13 -->
<g id="edge15" class="edge">
<title>Node14&#45;&gt;Node13</title>
<path fill="none" stroke="#404040" d="M754.68,-524.06C739.11,-492.65 717.78,-459.33 690,-436 671.27,-420.27 660.36,-427.91 638,-418 621.48,-410.68 604.07,-401.68 588.32,-393.01"/>
<polygon fill="none" stroke="#404040" points="588.18,-392.94 580.99,-393.51 577.71,-387.09 584.89,-386.52 588.18,-392.94"/>
<text text-anchor="middle" x="653.5" y="-410" font-family="Helvetica,sans-Serif" font-size="10.00"> +grid</text>
</g>
<!-- Node14&#45;&gt;Node21 -->
<g id="edge26" class="edge">
<title>Node14&#45;&gt;Node21</title>
<path fill="none" stroke="#404040" d="M740.31,-524.45C724.6,-496.04 706.84,-464.52 690,-436 682.82,-423.84 674.74,-410.75 667.33,-398.96"/>
<polygon fill="none" stroke="#404040" points="667.17,-398.71 660.59,-395.78 660.76,-388.57 667.35,-391.5 667.17,-398.71"/>
<text text-anchor="middle" x="693.5" y="-410" font-family="Helvetica,sans-Serif" font-size="10.00"> +grid</text>
</g>
<!-- Node15 -->
<g id="node15" class="node">
<title>Node15</title>
<g id="a_node15"><a xlink:title=" ">
<polygon fill="none" stroke="black" points="849.5,-943 849.5,-1000 906.5,-1000 906.5,-943 849.5,-943"/>
<text text-anchor="middle" x="878" y="-988" font-family="Helvetica,sans-Serif" font-size="10.00">TileType</text>
<polyline fill="none" stroke="black" points="849.5,-981 906.5,-981 "/>
<text text-anchor="middle" x="878" y="-969" font-family="Helvetica,sans-Serif" font-size="10.00"> </text>
<polyline fill="none" stroke="black" points="849.5,-962 906.5,-962 "/>
<text text-anchor="middle" x="878" y="-950" font-family="Helvetica,sans-Serif" font-size="10.00"> </text>
</a>
</g>
</g>
<!-- Node15&#45;&gt;Node14 -->
<g id="edge17" class="edge">
<title>Node15&#45;&gt;Node14</title>
<path fill="none" stroke="#404040" d="M874.38,-942.83C869.88,-910.48 861.37,-855.44 850,-809 842.41,-778 832.49,-744.75 822.81,-714.66"/>
<polygon fill="none" stroke="#404040" points="822.69,-714.27 817.03,-709.8 818.98,-702.85 824.64,-707.32 822.69,-714.27"/>
<text text-anchor="middle" x="874.5" y="-828.5" font-family="Helvetica,sans-Serif" font-size="10.00"> #grid</text>
</g>
<!-- Node16 -->
<g id="node16" class="node">
<title>Node16</title>
<g id="a_node16"><a xlink:href="$class_event_queue.html" xlink:title=" ">
<polygon fill="none" stroke="black" points="682,-871.5 682,-1071.5 832,-1071.5 832,-871.5 682,-871.5"/>
<text text-anchor="middle" x="757" y="-1059.5" font-family="Helvetica,sans-Serif" font-size="10.00">EventQueue&lt; Event &gt;</text>
<polyline fill="none" stroke="black" points="682,-1052.5 832,-1052.5 "/>
<text text-anchor="middle" x="757" y="-1040.5" font-family="Helvetica,sans-Serif" font-size="10.00"> </text>
<polyline fill="none" stroke="black" points="682,-1033.5 832,-1033.5 "/>
<text text-anchor="start" x="690" y="-1021.5" font-family="Helvetica,sans-Serif" font-size="10.00">+ EventQueue(EventQueue</text>
<text text-anchor="start" x="690" y="-1010.5" font-family="Helvetica,sans-Serif" font-size="10.00"> &amp;)=delete</text>
<text text-anchor="start" x="690" y="-999.5" font-family="Helvetica,sans-Serif" font-size="10.00">+ bool operator=(const</text>
<text text-anchor="start" x="690" y="-988.5" font-family="Helvetica,sans-Serif" font-size="10.00"> EventQueue &amp;)=delete</text>
<text text-anchor="start" x="690" y="-977.5" font-family="Helvetica,sans-Serif" font-size="10.00">+ void registerEvent</text>
<text text-anchor="start" x="690" y="-966.5" font-family="Helvetica,sans-Serif" font-size="10.00">(std::unique_ptr&lt; Event</text>
<text text-anchor="start" x="690" y="-955.5" font-family="Helvetica,sans-Serif" font-size="10.00"> &gt; event)</text>
<text text-anchor="start" x="690" y="-944.5" font-family="Helvetica,sans-Serif" font-size="10.00">+ std::unique_ptr&lt; Event</text>
<text text-anchor="start" x="690" y="-933.5" font-family="Helvetica,sans-Serif" font-size="10.00"> &gt; pop()</text>
<text text-anchor="start" x="690" y="-922.5" font-family="Helvetica,sans-Serif" font-size="10.00">+ bool isEmpty()</text>
<text text-anchor="start" x="690" y="-911.5" font-family="Helvetica,sans-Serif" font-size="10.00">+ void clear()</text>
<text text-anchor="start" x="690" y="-900.5" font-family="Helvetica,sans-Serif" font-size="10.00">+ static EventQueue *</text>
<text text-anchor="start" x="690" y="-889.5" font-family="Helvetica,sans-Serif" font-size="10.00"> instance()</text>
<text text-anchor="start" x="690" y="-878.5" font-family="Helvetica,sans-Serif" font-size="10.00">&#45; EventQueue()=default</text>
</a>
</g>
</g>
<!-- Node16&#45;&gt;Node14 -->
<g id="edge18" class="edge">
<title>Node16&#45;&gt;Node14</title>
<path fill="none" stroke="#404040" d="M765.64,-871.33C769.89,-822.5 775,-763.73 779.27,-714.75"/>
<polygon fill="none" stroke="#404040" points="779.29,-714.47 775.83,-708.15 780.34,-702.52 783.8,-708.84 779.29,-714.47"/>
<text text-anchor="middle" x="808" y="-828.5" font-family="Helvetica,sans-Serif" font-size="10.00"> #eventQueue_</text>
</g>
<!-- Node17 -->
<g id="node17" class="node">
<title>Node17</title>
<g id="a_node17"><a xlink:href="$classstd_1_1queue_3_01std_1_1unique__ptr_3_01_event_01_4_01_4.html" xlink:title=" ">
<polygon fill="none" stroke="black" points="552,-1185.5 552,-1253.5 664,-1253.5 664,-1185.5 552,-1185.5"/>
<text text-anchor="start" x="560" y="-1241.5" font-family="Helvetica,sans-Serif" font-size="10.00">queue&lt; std::unique</text>
<text text-anchor="middle" x="608" y="-1230.5" font-family="Helvetica,sans-Serif" font-size="10.00">_ptr&lt; Event &gt; &gt;</text>
<polyline fill="none" stroke="black" points="552,-1223.5 664,-1223.5 "/>
<text text-anchor="middle" x="608" y="-1211.5" font-family="Helvetica,sans-Serif" font-size="10.00"> </text>
<polyline fill="none" stroke="black" points="552,-1204.5 664,-1204.5 "/>
<text text-anchor="middle" x="608" y="-1192.5" font-family="Helvetica,sans-Serif" font-size="10.00"> </text>
</a>
</g>
</g>
<!-- Node17&#45;&gt;Node16 -->
<g id="edge19" class="edge">
<title>Node17&#45;&gt;Node16</title>
<path fill="none" stroke="#404040" d="M628.09,-1185.32C644.25,-1158.65 667.91,-1119.59 690.56,-1082.19"/>
<polygon fill="none" stroke="#404040" points="690.7,-1081.96 690.39,-1074.75 696.92,-1071.69 697.23,-1078.9 690.7,-1081.96"/>
<text text-anchor="middle" x="707" y="-1093" font-family="Helvetica,sans-Serif" font-size="10.00"> #events_</text>
</g>
<!-- Node18 -->
<g id="node18" class="node">
<title>Node18</title>
<g id="a_node18"><a xlink:title=" ">
<polygon fill="none" stroke="black" points="793,-1373 793,-1430 943,-1430 943,-1373 793,-1373"/>
<text text-anchor="middle" x="868" y="-1418" font-family="Helvetica,sans-Serif" font-size="10.00">unique_ptr&lt; EventQueue &gt;</text>
<polyline fill="none" stroke="black" points="793,-1411 943,-1411 "/>
<text text-anchor="middle" x="868" y="-1399" font-family="Helvetica,sans-Serif" font-size="10.00"> </text>
<polyline fill="none" stroke="black" points="793,-1392 943,-1392 "/>
<text text-anchor="middle" x="868" y="-1380" font-family="Helvetica,sans-Serif" font-size="10.00"> </text>
</a>
</g>
</g>
<!-- Node18&#45;&gt;Node16 -->
<g id="edge20" class="edge">
<title>Node18&#45;&gt;Node16</title>
<path fill="none" stroke="#404040" d="M869.15,-1372.96C870.48,-1321.67 869.51,-1208.59 841,-1119 837.12,-1106.81 832.12,-1094.52 826.5,-1082.51"/>
<polygon fill="none" stroke="#404040" points="826.43,-1082.37 820.21,-1078.72 821.17,-1071.58 827.4,-1075.22 826.43,-1082.37"/>
<text text-anchor="middle" x="886.5" y="-1217" font-family="Helvetica,sans-Serif" font-size="10.00"> #self_</text>
</g>
<!-- Node19 -->
<g id="node19" class="node">
<title>Node19</title>
<g id="a_node19"><a xlink:href="$class_event_queue.html" xlink:title="Singleton class wrapper for std::queue&lt;E&gt;.">
<polygon fill="none" stroke="black" points="682,-1119.5 682,-1319.5 832,-1319.5 832,-1119.5 682,-1119.5"/>
<text text-anchor="middle" x="757" y="-1307.5" font-family="Helvetica,sans-Serif" font-size="10.00">EventQueue&lt; E &gt;</text>
<polyline fill="none" stroke="black" points="682,-1300.5 832,-1300.5 "/>
<text text-anchor="middle" x="757" y="-1288.5" font-family="Helvetica,sans-Serif" font-size="10.00"> </text>
<polyline fill="none" stroke="black" points="682,-1281.5 832,-1281.5 "/>
<text text-anchor="start" x="690" y="-1269.5" font-family="Helvetica,sans-Serif" font-size="10.00">+ EventQueue(EventQueue</text>
<text text-anchor="start" x="690" y="-1258.5" font-family="Helvetica,sans-Serif" font-size="10.00"> &amp;)=delete</text>
<text text-anchor="start" x="690" y="-1247.5" font-family="Helvetica,sans-Serif" font-size="10.00">+ bool operator=(const</text>
<text text-anchor="start" x="690" y="-1236.5" font-family="Helvetica,sans-Serif" font-size="10.00"> EventQueue &amp;)=delete</text>
<text text-anchor="start" x="690" y="-1225.5" font-family="Helvetica,sans-Serif" font-size="10.00">+ void registerEvent</text>
<text text-anchor="start" x="690" y="-1214.5" font-family="Helvetica,sans-Serif" font-size="10.00">(std::unique_ptr&lt; E</text>
<text text-anchor="start" x="690" y="-1203.5" font-family="Helvetica,sans-Serif" font-size="10.00"> &gt; event)</text>
<text text-anchor="start" x="690" y="-1192.5" font-family="Helvetica,sans-Serif" font-size="10.00">+ std::unique_ptr&lt; E</text>
<text text-anchor="start" x="690" y="-1181.5" font-family="Helvetica,sans-Serif" font-size="10.00"> &gt; pop()</text>
<text text-anchor="start" x="690" y="-1170.5" font-family="Helvetica,sans-Serif" font-size="10.00">+ bool isEmpty()</text>
<text text-anchor="start" x="690" y="-1159.5" font-family="Helvetica,sans-Serif" font-size="10.00">+ void clear()</text>
<text text-anchor="start" x="690" y="-1148.5" font-family="Helvetica,sans-Serif" font-size="10.00">+ static EventQueue *</text>
<text text-anchor="start" x="690" y="-1137.5" font-family="Helvetica,sans-Serif" font-size="10.00"> instance()</text>
<text text-anchor="start" x="690" y="-1126.5" font-family="Helvetica,sans-Serif" font-size="10.00">&#45; EventQueue()=default</text>
</a>
</g>
</g>
<!-- Node18&#45;&gt;Node19 -->
<g id="edge23" class="edge">
<title>Node18&#45;&gt;Node19</title>
<path fill="none" stroke="#404040" d="M838.58,-1372.73C831.68,-1365.4 824.69,-1357.22 819,-1349 814.94,-1343.13 811.01,-1336.95 807.22,-1330.6"/>
<polygon fill="none" stroke="#404040" points="806.99,-1330.2 800.53,-1327 801.01,-1319.8 807.47,-1323.01 806.99,-1330.2"/>
<text text-anchor="middle" x="836.5" y="-1341" font-family="Helvetica,sans-Serif" font-size="10.00"> #self_</text>
</g>
<!-- Node19&#45;&gt;Node16 -->
<g id="edge21" class="edge">
<title>Node19&#45;&gt;Node16</title>
<path fill="none" stroke="orange" d="M757,-1108.85C757,-1096.52 757,-1084.01 757,-1071.82"/>
<polygon fill="orange" stroke="orange" points="753.5,-1109.15 757,-1119.15 760.5,-1109.15 753.5,-1109.15"/>
<text text-anchor="middle" x="784" y="-1093" font-family="Helvetica,sans-Serif" font-size="10.00"> &lt; Event &gt;</text>
</g>
<!-- Node20 -->
<g id="node20" class="node">
<title>Node20</title>
<g id="a_node20"><a xlink:title=" ">
<polygon fill="none" stroke="black" points="663,-1367.5 663,-1435.5 775,-1435.5 775,-1367.5 663,-1367.5"/>
<text text-anchor="start" x="671" y="-1423.5" font-family="Helvetica,sans-Serif" font-size="10.00">queue&lt; std::unique</text>
<text text-anchor="middle" x="719" y="-1412.5" font-family="Helvetica,sans-Serif" font-size="10.00">_ptr&lt; E &gt; &gt;</text>
<polyline fill="none" stroke="black" points="663,-1405.5 775,-1405.5 "/>
<text text-anchor="middle" x="719" y="-1393.5" font-family="Helvetica,sans-Serif" font-size="10.00"> </text>
<polyline fill="none" stroke="black" points="663,-1386.5 775,-1386.5 "/>
<text text-anchor="middle" x="719" y="-1374.5" font-family="Helvetica,sans-Serif" font-size="10.00"> </text>
</a>
</g>
</g>
<!-- Node20&#45;&gt;Node19 -->
<g id="edge22" class="edge">
<title>Node20&#45;&gt;Node19</title>
<path fill="none" stroke="#404040" d="M725.97,-1367.49C728.2,-1356.92 730.81,-1344.57 733.55,-1331.6"/>
<polygon fill="none" stroke="#404040" points="733.61,-1331.29 730.94,-1324.59 736.09,-1319.55 738.76,-1326.25 733.61,-1331.29"/>
<text text-anchor="middle" x="756" y="-1341" font-family="Helvetica,sans-Serif" font-size="10.00"> #events_</text>
</g>
<!-- Node21&#45;&gt;Node3 -->
<g id="edge24" class="edge">
<title>Node21&#45;&gt;Node3</title>
<path fill="none" stroke="#404040" d="M598.4,-331.45C582.61,-321.9 564.63,-311.27 548,-302 535.78,-295.19 522.45,-288.11 509.92,-281.61"/>
<polygon fill="none" stroke="#404040" points="509.83,-281.57 502.66,-282.38 499.16,-276.07 506.33,-275.26 509.83,-281.57"/>
<text text-anchor="middle" x="593.5" y="-305" font-family="Helvetica,sans-Serif" font-size="10.00"> +levelInfo</text>
</g>
</g>
</svg>
