<?xml version="1.0" encoding="UTF-8" standalone="no"?>
<!DOCTYPE svg PUBLIC "-//W3C//DTD SVG 1.1//EN"
 "http://www.w3.org/Graphics/SVG/1.1/DTD/svg11.dtd">
<!-- Generated by graphviz version 2.50.0 (0)
 -->
<!-- Title: Clock Pages: 1 -->
<svg width="572pt" height="540pt"
 viewBox="0.00 0.00 572.00 540.00" xmlns="http://www.w3.org/2000/svg" xmlns:xlink="http://www.w3.org/1999/xlink">
<g id="graph0" class="graph" transform="scale(1 1) rotate(0) translate(4 536)">
<title>Clock</title>
<!-- Node1 -->
<g id="node1" class="node">
<title>Node1</title>
<g id="a_node1"><a xlink:title="Represents an externally controlled clock running at a given frequency.">
<polygon fill="#bfbfbf" stroke="black" points="221.5,-0.5 221.5,-178.5 366.5,-178.5 366.5,-0.5 221.5,-0.5"/>
<text text-anchor="middle" x="294" y="-166.5" font-family="Helvetica,sans-Serif" font-size="10.00">Clock</text>
<polyline fill="none" stroke="black" points="221.5,-159.5 366.5,-159.5 "/>
<text text-anchor="middle" x="294" y="-147.5" font-family="Helvetica,sans-Serif" font-size="10.00"> </text>
<polyline fill="none" stroke="black" points="221.5,-140.5 366.5,-140.5 "/>
<text text-anchor="start" x="229.5" y="-128.5" font-family="Helvetica,sans-Serif" font-size="10.00">+ Clock()=delete</text>
<text text-anchor="start" x="229.5" y="-117.5" font-family="Helvetica,sans-Serif" font-size="10.00">+ Clock(const Clock</text>
<text text-anchor="start" x="229.5" y="-106.5" font-family="Helvetica,sans-Serif" font-size="10.00"> &amp;)=delete</text>
<text text-anchor="start" x="229.5" y="-95.5" font-family="Helvetica,sans-Serif" font-size="10.00">+ Clock operator=(const</text>
<text text-anchor="start" x="229.5" y="-84.5" font-family="Helvetica,sans-Serif" font-size="10.00"> Clock &amp;)=delete</text>
<text text-anchor="start" x="229.5" y="-73.5" font-family="Helvetica,sans-Serif" font-size="10.00">+ void tick()</text>
<text text-anchor="start" x="229.5" y="-62.5" font-family="Helvetica,sans-Serif" font-size="10.00">+ void sleep()</text>
<text text-anchor="start" x="229.5" y="-51.5" font-family="Helvetica,sans-Serif" font-size="10.00">+ static void initialize</text>
<text text-anchor="start" x="229.5" y="-40.5" font-family="Helvetica,sans-Serif" font-size="10.00">(unsigned int frequency)</text>
<text text-anchor="start" x="229.5" y="-29.5" font-family="Helvetica,sans-Serif" font-size="10.00">+ static Clock * instance()</text>
<text text-anchor="start" x="229.5" y="-18.5" font-family="Helvetica,sans-Serif" font-size="10.00">&#45; Clock(unsigned int</text>
<text text-anchor="start" x="229.5" y="-7.5" font-family="Helvetica,sans-Serif" font-size="10.00"> frequency)</text>
</a>
</g>
</g>
<!-- Node2 -->
<g id="node2" class="node">
<title>Node2</title>
<g id="a_node2"><a xlink:href="$class_simple_publisher.html" xlink:title=" ">
<polygon fill="none" stroke="black" points="0,-226.5 0,-426.5 178,-426.5 178,-226.5 0,-226.5"/>
<text text-anchor="middle" x="89" y="-414.5" font-family="Helvetica,sans-Serif" font-size="10.00">SimplePublisher</text>
<polyline fill="none" stroke="black" points="0,-407.5 178,-407.5 "/>
<text text-anchor="middle" x="89" y="-395.5" font-family="Helvetica,sans-Serif" font-size="10.00"> </text>
<polyline fill="none" stroke="black" points="0,-388.5 178,-388.5 "/>
<text text-anchor="start" x="8" y="-376.5" font-family="Helvetica,sans-Serif" font-size="10.00">+ ~SimplePublisher()</text>
<text text-anchor="start" x="8" y="-365.5" font-family="Helvetica,sans-Serif" font-size="10.00">+ virtual void notifySubscribers()</text>
<text text-anchor="start" x="8" y="-354.5" font-family="Helvetica,sans-Serif" font-size="10.00">+ void attachSubscriber</text>
<text text-anchor="start" x="8" y="-343.5" font-family="Helvetica,sans-Serif" font-size="10.00">(SimpleSubscriber *)</text>
<text text-anchor="start" x="8" y="-332.5" font-family="Helvetica,sans-Serif" font-size="10.00">+ void detachSubscriber</text>
<text text-anchor="start" x="8" y="-321.5" font-family="Helvetica,sans-Serif" font-size="10.00">(SimpleSubscriber *)</text>
<text text-anchor="start" x="8" y="-310.5" font-family="Helvetica,sans-Serif" font-size="10.00">+ bool operator==(const</text>
<text text-anchor="start" x="8" y="-299.5" font-family="Helvetica,sans-Serif" font-size="10.00"> SimplePublisher &amp;rhs)</text>
<text text-anchor="start" x="8" y="-288.5" font-family="Helvetica,sans-Serif" font-size="10.00"> const</text>
<text text-anchor="start" x="8" y="-277.5" font-family="Helvetica,sans-Serif" font-size="10.00">+ bool operator!=(const</text>
<text text-anchor="start" x="8" y="-266.5" font-family="Helvetica,sans-Serif" font-size="10.00"> SimplePublisher &amp;rhs)</text>
<text text-anchor="start" x="8" y="-255.5" font-family="Helvetica,sans-Serif" font-size="10.00"> const</text>
<text text-anchor="start" x="8" y="-244.5" font-family="Helvetica,sans-Serif" font-size="10.00"># SimplePublisher()</text>
<text text-anchor="start" x="8" y="-233.5" font-family="Helvetica,sans-Serif" font-size="10.00">=default</text>
</a>
</g>
</g>
<!-- Node2&#45;&gt;Node1 -->
<g id="edge1" class="edge">
<title>Node2&#45;&gt;Node1</title>
<path fill="none" stroke="midnightblue" d="M182.43,-218.39C195.46,-203.46 208.69,-188.3 221.26,-173.89"/>
<polygon fill="none" stroke="midnightblue" points="179.58,-216.34 175.64,-226.18 184.85,-220.94 179.58,-216.34"/>
</g>
<!-- Node3 -->
<g id="node3" class="node">
<title>Node3</title>
<g id="a_node3"><a xlink:title=" ">
<polygon fill="none" stroke="#bfbfbf" points="7.5,-474.5 7.5,-531.5 170.5,-531.5 170.5,-474.5 7.5,-474.5"/>
<text text-anchor="middle" x="89" y="-519.5" font-family="Helvetica,sans-Serif" font-size="10.00">vector&lt; SimpleSubscriber * &gt;</text>
<polyline fill="none" stroke="#bfbfbf" points="7.5,-512.5 170.5,-512.5 "/>
<text text-anchor="middle" x="89" y="-500.5" font-family="Helvetica,sans-Serif" font-size="10.00"> </text>
<polyline fill="none" stroke="#bfbfbf" points="7.5,-493.5 170.5,-493.5 "/>
<text text-anchor="middle" x="89" y="-481.5" font-family="Helvetica,sans-Serif" font-size="10.00"> </text>
</a>
</g>
</g>
<!-- Node3&#45;&gt;Node2 -->
<g id="edge2" class="edge">
<title>Node3&#45;&gt;Node2</title>
<path fill="none" stroke="#404040" d="M89,-474.35C89,-464.2 89,-451.98 89,-438.98"/>
<polygon fill="none" stroke="#404040" points="89,-438.87 85,-432.87 89,-426.87 93,-432.87 89,-438.87"/>
<text text-anchor="middle" x="125.5" y="-448" font-family="Helvetica,sans-Serif" font-size="10.00"> #subscribers_</text>
</g>
<!-- Node4 -->
<g id="node4" class="node">
<title>Node4</title>
<g id="a_node4"><a xlink:title=" ">
<polygon fill="none" stroke="#bfbfbf" points="196,-298 196,-355 276,-355 276,-298 196,-298"/>
<text text-anchor="middle" x="236" y="-343" font-family="Helvetica,sans-Serif" font-size="10.00">nanoseconds</text>
<polyline fill="none" stroke="#bfbfbf" points="196,-336 276,-336 "/>
<text text-anchor="middle" x="236" y="-324" font-family="Helvetica,sans-Serif" font-size="10.00"> </text>
<polyline fill="none" stroke="#bfbfbf" points="196,-317 276,-317 "/>
<text text-anchor="middle" x="236" y="-305" font-family="Helvetica,sans-Serif" font-size="10.00"> </text>
</a>
</g>
</g>
<!-- Node4&#45;&gt;Node1 -->
<g id="edge3" class="edge">
<title>Node4&#45;&gt;Node1</title>
<path fill="none" stroke="#404040" d="M242.88,-297.62C249.45,-271.01 259.74,-229.3 269.38,-190.26"/>
<polygon fill="none" stroke="#404040" points="269.4,-190.18 266.95,-183.39 272.27,-178.52 274.72,-185.31 269.4,-190.18"/>
<text text-anchor="middle" x="292" y="-200" font-family="Helvetica,sans-Serif" font-size="10.00"> &#45;interval_</text>
</g>
<!-- Node5 -->
<g id="node5" class="node">
<title>Node5</title>
<g id="a_node5"><a xlink:title=" ">
<polygon fill="none" stroke="#bfbfbf" points="294,-298 294,-355 412,-355 412,-298 294,-298"/>
<text text-anchor="middle" x="353" y="-343" font-family="Helvetica,sans-Serif" font-size="10.00">unique_ptr&lt; Clock &gt;</text>
<polyline fill="none" stroke="#bfbfbf" points="294,-336 412,-336 "/>
<text text-anchor="middle" x="353" y="-324" font-family="Helvetica,sans-Serif" font-size="10.00"> </text>
<polyline fill="none" stroke="#bfbfbf" points="294,-317 412,-317 "/>
<text text-anchor="middle" x="353" y="-305" font-family="Helvetica,sans-Serif" font-size="10.00"> </text>
</a>
</g>
</g>
<!-- Node5&#45;&gt;Node1 -->
<g id="edge4" class="edge">
<title>Node5&#45;&gt;Node1</title>
<path fill="none" stroke="#404040" d="M346.17,-297.92C339.71,-271.89 329.74,-231.78 321,-197 320.46,-194.84 319.91,-192.65 319.35,-190.45"/>
<polygon fill="none" stroke="#404040" points="319.28,-190.17 313.94,-185.33 316.35,-178.54 321.7,-183.38 319.28,-190.17"/>
<text text-anchor="middle" x="339.5" y="-200" font-family="Helvetica,sans-Serif" font-size="10.00"> &#45;self_</text>
</g>
<!-- Node6 -->
<g id="node6" class="node">
<title>Node6</title>
<g id="a_node6"><a xlink:title=" ">
<polygon fill="none" stroke="#bfbfbf" points="430,-292.5 430,-360.5 564,-360.5 564,-292.5 430,-292.5"/>
<text text-anchor="start" x="438" y="-348.5" font-family="Helvetica,sans-Serif" font-size="10.00">time_point&lt; std::chrono</text>
<text text-anchor="middle" x="497" y="-337.5" font-family="Helvetica,sans-Serif" font-size="10.00">::steady_clock &gt;</text>
<polyline fill="none" stroke="#bfbfbf" points="430,-330.5 564,-330.5 "/>
<text text-anchor="middle" x="497" y="-318.5" font-family="Helvetica,sans-Serif" font-size="10.00"> </text>
<polyline fill="none" stroke="#bfbfbf" points="430,-311.5 564,-311.5 "/>
<text text-anchor="middle" x="497" y="-299.5" font-family="Helvetica,sans-Serif" font-size="10.00"> </text>
</a>
</g>
</g>
<!-- Node6&#45;&gt;Node1 -->
<g id="edge5" class="edge">
<title>Node6&#45;&gt;Node1</title>
<path fill="none" stroke="#404040" d="M472.82,-292.13C458.28,-272.5 439.12,-247.4 421,-226 406.58,-208.98 390.68,-191.26 375.15,-174.46"/>
<polygon fill="none" stroke="#404040" points="374.75,-174.03 367.73,-172.35 366.58,-165.24 373.59,-166.91 374.75,-174.03"/>
<text text-anchor="middle" x="431" y="-200" font-family="Helvetica,sans-Serif" font-size="10.00"> &#45;last_tick_</text>
</g>
</g>
</svg>
