<?xml version="1.0" encoding="UTF-8" standalone="no"?>
<!DOCTYPE svg PUBLIC "-//W3C//DTD SVG 1.1//EN"
 "http://www.w3.org/Graphics/SVG/1.1/DTD/svg11.dtd">
<!-- Generated by graphviz version 2.43.0 (0)
 -->
<!-- Title: PlayerTank Pages: 1 -->
<svg width="342pt" height="574pt"
 viewBox="0.00 0.00 342.00 574.00" xmlns="http://www.w3.org/2000/svg" xmlns:xlink="http://www.w3.org/1999/xlink">
<g id="graph0" class="graph" transform="scale(1 1) rotate(0) translate(4 570)">
<title>PlayerTank</title>
<!-- Node1 -->
<g id="node1" class="node">
<title>Node1</title>
<g id="a_node1"><a xlink:title=" ">
<polygon fill="#bfbfbf" stroke="black" points="88,-0.5 88,-101.5 224,-101.5 224,-0.5 88,-0.5"/>
<text text-anchor="middle" x="156" y="-89.5" font-family="Helvetica,sans-Serif" font-size="10.00">PlayerTank</text>
<polyline fill="none" stroke="black" points="88,-82.5 224,-82.5 "/>
<text text-anchor="middle" x="156" y="-70.5" font-family="Helvetica,sans-Serif" font-size="10.00"> </text>
<polyline fill="none" stroke="black" points="88,-63.5 224,-63.5 "/>
<text text-anchor="start" x="96" y="-51.5" font-family="Helvetica,sans-Serif" font-size="10.00">+ PlayerTank()=delete</text>
<text text-anchor="start" x="96" y="-40.5" font-family="Helvetica,sans-Serif" font-size="10.00">+ PlayerTank(unsigned</text>
<text text-anchor="start" x="96" y="-29.5" font-family="Helvetica,sans-Serif" font-size="10.00"> int x, unsigned int</text>
<text text-anchor="start" x="96" y="-18.5" font-family="Helvetica,sans-Serif" font-size="10.00"> y, unsigned int lives,</text>
<text text-anchor="start" x="96" y="-7.5" font-family="Helvetica,sans-Serif" font-size="10.00"> Direction facing=North)</text>
</a>
</g>
</g>
<!-- Node2 -->
<g id="node2" class="node">
<title>Node2</title>
<g id="a_node2"><a xlink:href="$class_tank.html" xlink:title="Base class for tank representation.">
<polygon fill="none" stroke="black" points="83,-139.5 83,-427.5 229,-427.5 229,-139.5 83,-139.5"/>
<text text-anchor="middle" x="156" y="-415.5" font-family="Helvetica,sans-Serif" font-size="10.00">Tank</text>
<polyline fill="none" stroke="black" points="83,-408.5 229,-408.5 "/>
<text text-anchor="middle" x="156" y="-396.5" font-family="Helvetica,sans-Serif" font-size="10.00"> </text>
<polyline fill="none" stroke="black" points="83,-389.5 229,-389.5 "/>
<text text-anchor="start" x="91" y="-377.5" font-family="Helvetica,sans-Serif" font-size="10.00">+ virtual ~Tank()=default</text>
<text text-anchor="start" x="91" y="-366.5" font-family="Helvetica,sans-Serif" font-size="10.00">+ void moveX(int delta_x)</text>
<text text-anchor="start" x="91" y="-355.5" font-family="Helvetica,sans-Serif" font-size="10.00">+ void moveY(int delta_y)</text>
<text text-anchor="start" x="91" y="-344.5" font-family="Helvetica,sans-Serif" font-size="10.00">+ void deltaLives(int</text>
<text text-anchor="start" x="91" y="-333.5" font-family="Helvetica,sans-Serif" font-size="10.00"> delta_l)</text>
<text text-anchor="start" x="91" y="-322.5" font-family="Helvetica,sans-Serif" font-size="10.00">+ TankType getType()</text>
<text text-anchor="start" x="91" y="-311.5" font-family="Helvetica,sans-Serif" font-size="10.00"> const</text>
<text text-anchor="start" x="91" y="-300.5" font-family="Helvetica,sans-Serif" font-size="10.00">+ unsigned int getX()</text>
<text text-anchor="start" x="91" y="-289.5" font-family="Helvetica,sans-Serif" font-size="10.00"> const</text>
<text text-anchor="start" x="91" y="-278.5" font-family="Helvetica,sans-Serif" font-size="10.00">+ unsigned int getY()</text>
<text text-anchor="start" x="91" y="-267.5" font-family="Helvetica,sans-Serif" font-size="10.00"> const</text>
<text text-anchor="start" x="91" y="-256.5" font-family="Helvetica,sans-Serif" font-size="10.00">+ unsigned int getLives</text>
<text text-anchor="start" x="91" y="-245.5" font-family="Helvetica,sans-Serif" font-size="10.00">() const</text>
<text text-anchor="start" x="91" y="-234.5" font-family="Helvetica,sans-Serif" font-size="10.00">+ double getTankSpeed</text>
<text text-anchor="start" x="91" y="-223.5" font-family="Helvetica,sans-Serif" font-size="10.00">() const</text>
<text text-anchor="start" x="91" y="-212.5" font-family="Helvetica,sans-Serif" font-size="10.00">+ double getBulletSpeed</text>
<text text-anchor="start" x="91" y="-201.5" font-family="Helvetica,sans-Serif" font-size="10.00">() const</text>
<text text-anchor="start" x="91" y="-190.5" font-family="Helvetica,sans-Serif" font-size="10.00">+ Direction getFacing</text>
<text text-anchor="start" x="91" y="-179.5" font-family="Helvetica,sans-Serif" font-size="10.00">() const</text>
<text text-anchor="start" x="91" y="-168.5" font-family="Helvetica,sans-Serif" font-size="10.00">+ unsigned int getPoints</text>
<text text-anchor="start" x="91" y="-157.5" font-family="Helvetica,sans-Serif" font-size="10.00">() const</text>
<text text-anchor="start" x="91" y="-146.5" font-family="Helvetica,sans-Serif" font-size="10.00"># Tank()=default</text>
</a>
</g>
</g>
<!-- Node2&#45;&gt;Node1 -->
<g id="edge1" class="edge">
<title>Node2&#45;&gt;Node1</title>
<path fill="none" stroke="midnightblue" d="M156,-129.22C156,-119.51 156,-110.21 156,-101.64"/>
<polygon fill="none" stroke="midnightblue" points="152.5,-129.47 156,-139.47 159.5,-129.47 152.5,-129.47"/>
</g>
<!-- Node3 -->
<g id="node3" class="node">
<title>Node3</title>
<g id="a_node3"><a xlink:title=" ">
<polygon fill="none" stroke="black" points="0,-508.5 0,-565.5 62,-565.5 62,-508.5 0,-508.5"/>
<text text-anchor="middle" x="31" y="-553.5" font-family="Helvetica,sans-Serif" font-size="10.00">TankType</text>
<polyline fill="none" stroke="black" points="0,-546.5 62,-546.5 "/>
<text text-anchor="middle" x="31" y="-534.5" font-family="Helvetica,sans-Serif" font-size="10.00"> </text>
<polyline fill="none" stroke="black" points="0,-527.5 62,-527.5 "/>
<text text-anchor="middle" x="31" y="-515.5" font-family="Helvetica,sans-Serif" font-size="10.00"> </text>
</a>
</g>
</g>
<!-- Node3&#45;&gt;Node2 -->
<g id="edge2" class="edge">
<title>Node3&#45;&gt;Node2</title>
<path fill="none" stroke="#404040" d="M44.85,-508.12C53.81,-490.12 66.24,-465.1 79.56,-438.29"/>
<polygon fill="none" stroke="#404040" points="79.57,-438.28 78.66,-431.12 84.91,-427.53 85.82,-434.69 79.57,-438.28"/>
<text text-anchor="middle" x="94.5" y="-465.5" font-family="Helvetica,sans-Serif" font-size="10.00"> #type_</text>
</g>
<!-- Node4 -->
<g id="node4" class="node">
<title>Node4</title>
<g id="a_node4"><a xlink:title=" ">
<polygon fill="none" stroke="black" points="80.5,-508.5 80.5,-565.5 157.5,-565.5 157.5,-508.5 80.5,-508.5"/>
<text text-anchor="middle" x="119" y="-553.5" font-family="Helvetica,sans-Serif" font-size="10.00">unsigned int</text>
<polyline fill="none" stroke="black" points="80.5,-546.5 157.5,-546.5 "/>
<text text-anchor="middle" x="119" y="-534.5" font-family="Helvetica,sans-Serif" font-size="10.00"> </text>
<polyline fill="none" stroke="black" points="80.5,-527.5 157.5,-527.5 "/>
<text text-anchor="middle" x="119" y="-515.5" font-family="Helvetica,sans-Serif" font-size="10.00"> </text>
</a>
</g>
</g>
<!-- Node4&#45;&gt;Node2 -->
<g id="edge3" class="edge">
<title>Node4&#45;&gt;Node2</title>
<path fill="none" stroke="#404040" d="M120.82,-508.36C122.15,-490.52 124.21,-466.83 127,-446 127.27,-443.96 127.55,-441.91 127.84,-439.85"/>
<polygon fill="none" stroke="#404040" points="127.85,-439.81 124.75,-433.3 129.56,-427.93 132.66,-434.44 127.85,-439.81"/>
<text text-anchor="middle" x="149" y="-482" font-family="Helvetica,sans-Serif" font-size="10.00"> #lives_</text>
<text text-anchor="middle" x="149" y="-471" font-family="Helvetica,sans-Serif" font-size="10.00">#points_</text>
<text text-anchor="middle" x="149" y="-460" font-family="Helvetica,sans-Serif" font-size="10.00">#x_</text>
<text text-anchor="middle" x="149" y="-449" font-family="Helvetica,sans-Serif" font-size="10.00">#y_</text>
</g>
<!-- Node5 -->
<g id="node5" class="node">
<title>Node5</title>
<g id="a_node5"><a xlink:title=" ">
<polygon fill="none" stroke="black" points="176,-508.5 176,-565.5 226,-565.5 226,-508.5 176,-508.5"/>
<text text-anchor="middle" x="201" y="-553.5" font-family="Helvetica,sans-Serif" font-size="10.00">double</text>
<polyline fill="none" stroke="black" points="176,-546.5 226,-546.5 "/>
<text text-anchor="middle" x="201" y="-534.5" font-family="Helvetica,sans-Serif" font-size="10.00"> </text>
<polyline fill="none" stroke="black" points="176,-527.5 226,-527.5 "/>
<text text-anchor="middle" x="201" y="-515.5" font-family="Helvetica,sans-Serif" font-size="10.00"> </text>
</a>
</g>
</g>
<!-- Node5&#45;&gt;Node2 -->
<g id="edge4" class="edge">
<title>Node5&#45;&gt;Node2</title>
<path fill="none" stroke="#404040" d="M196.01,-508.12C192.83,-490.35 188.43,-465.76 183.71,-439.36"/>
<polygon fill="none" stroke="#404040" points="183.71,-439.34 178.71,-434.14 181.59,-427.53 186.59,-432.73 183.71,-439.34"/>
<text text-anchor="middle" x="231.5" y="-471" font-family="Helvetica,sans-Serif" font-size="10.00"> #bullet_speed_</text>
<text text-anchor="middle" x="231.5" y="-460" font-family="Helvetica,sans-Serif" font-size="10.00">#tank_speed_</text>
</g>
<!-- Node6 -->
<g id="node6" class="node">
<title>Node6</title>
<g id="a_node6"><a xlink:title=" ">
<polygon fill="none" stroke="black" points="264.5,-508.5 264.5,-565.5 325.5,-565.5 325.5,-508.5 264.5,-508.5"/>
<text text-anchor="middle" x="295" y="-553.5" font-family="Helvetica,sans-Serif" font-size="10.00">Direction</text>
<polyline fill="none" stroke="black" points="264.5,-546.5 325.5,-546.5 "/>
<text text-anchor="middle" x="295" y="-534.5" font-family="Helvetica,sans-Serif" font-size="10.00"> </text>
<polyline fill="none" stroke="black" points="264.5,-527.5 325.5,-527.5 "/>
<text text-anchor="middle" x="295" y="-515.5" font-family="Helvetica,sans-Serif" font-size="10.00"> </text>
</a>
</g>
</g>
<!-- Node6&#45;&gt;Node2 -->
<g id="edge5" class="edge">
<title>Node6&#45;&gt;Node2</title>
<path fill="none" stroke="#404040" d="M291.09,-508.3C287.82,-490.01 282.19,-465.85 273,-446 262.99,-424.36 249.9,-402.68 236.11,-382.54"/>
<polygon fill="none" stroke="#404040" points="235.94,-382.31 229.23,-379.68 229.07,-372.47 235.78,-375.1 235.94,-382.31"/>
<text text-anchor="middle" x="310.5" y="-465.5" font-family="Helvetica,sans-Serif" font-size="10.00"> #facing_</text>
</g>
</g>
</svg>
