<?xml version="1.0" encoding="UTF-8" standalone="no"?>
<!DOCTYPE svg PUBLIC "-//W3C//DTD SVG 1.1//EN"
 "http://www.w3.org/Graphics/SVG/1.1/DTD/svg11.dtd">
<!-- Generated by graphviz version 2.43.0 (0)
 -->
<!-- Title: StaticGraphic Pages: 1 -->
<svg width="932pt" height="645pt"
 viewBox="0.00 0.00 932.00 645.00" xmlns="http://www.w3.org/2000/svg" xmlns:xlink="http://www.w3.org/1999/xlink">
<g id="graph0" class="graph" transform="scale(1 1) rotate(0) translate(4 641)">
<title>StaticGraphic</title>
<!-- Node1 -->
<g id="node1" class="node">
<title>Node1</title>
<g id="a_node1"><a xlink:title="Class responsible for static graphic settings.">
<polygon fill="#bfbfbf" stroke="black" points="384.5,-0.5 384.5,-178.5 570.5,-178.5 570.5,-0.5 384.5,-0.5"/>
<text text-anchor="middle" x="477.5" y="-166.5" font-family="Helvetica,sans-Serif" font-size="10.00">StaticGraphic</text>
<polyline fill="none" stroke="black" points="384.5,-159.5 570.5,-159.5 "/>
<text text-anchor="middle" x="477.5" y="-147.5" font-family="Helvetica,sans-Serif" font-size="10.00"> </text>
<polyline fill="none" stroke="black" points="384.5,-140.5 570.5,-140.5 "/>
<text text-anchor="start" x="392.5" y="-128.5" font-family="Helvetica,sans-Serif" font-size="10.00">+ StaticGraphic(const</text>
<text text-anchor="start" x="392.5" y="-117.5" font-family="Helvetica,sans-Serif" font-size="10.00"> WindowView &amp;windowView,</text>
<text text-anchor="start" x="392.5" y="-106.5" font-family="Helvetica,sans-Serif" font-size="10.00"> const Window::StaticStatePointers</text>
<text text-anchor="start" x="392.5" y="-95.5" font-family="Helvetica,sans-Serif" font-size="10.00"> &amp;staticPointers)</text>
<text text-anchor="start" x="392.5" y="-84.5" font-family="Helvetica,sans-Serif" font-size="10.00">+ void constructComposite()</text>
<text text-anchor="start" x="392.5" y="-73.5" font-family="Helvetica,sans-Serif" font-size="10.00">+ virtual void render</text>
<text text-anchor="start" x="392.5" y="-62.5" font-family="Helvetica,sans-Serif" font-size="10.00">() override</text>
<text text-anchor="start" x="392.5" y="-51.5" font-family="Helvetica,sans-Serif" font-size="10.00">+ const std::vector&lt;</text>
<text text-anchor="start" x="392.5" y="-40.5" font-family="Helvetica,sans-Serif" font-size="10.00"> std::shared_ptr&lt; Abstract</text>
<text text-anchor="start" x="392.5" y="-29.5" font-family="Helvetica,sans-Serif" font-size="10.00">Window &gt; &gt; &amp; getChildren()</text>
<text text-anchor="start" x="392.5" y="-18.5" font-family="Helvetica,sans-Serif" font-size="10.00"># void setMenuView()</text>
<text text-anchor="start" x="392.5" y="-7.5" font-family="Helvetica,sans-Serif" font-size="10.00"># void calculateButtonsPos()</text>
</a>
</g>
</g>
<!-- Node2 -->
<g id="node2" class="node">
<title>Node2</title>
<g id="a_node2"><a xlink:href="$class_abstract_window.html" xlink:title="Contains main SFML functions.">
<polygon fill="none" stroke="black" points="113.5,-226.5 113.5,-349.5 271.5,-349.5 271.5,-226.5 113.5,-226.5"/>
<text text-anchor="middle" x="192.5" y="-337.5" font-family="Helvetica,sans-Serif" font-size="10.00">AbstractWindow</text>
<polyline fill="none" stroke="black" points="113.5,-330.5 271.5,-330.5 "/>
<text text-anchor="middle" x="192.5" y="-318.5" font-family="Helvetica,sans-Serif" font-size="10.00"> </text>
<polyline fill="none" stroke="black" points="113.5,-311.5 271.5,-311.5 "/>
<text text-anchor="start" x="121.5" y="-299.5" font-family="Helvetica,sans-Serif" font-size="10.00">+ sf::RenderWindow *</text>
<text text-anchor="start" x="121.5" y="-288.5" font-family="Helvetica,sans-Serif" font-size="10.00"> getWindow()</text>
<text text-anchor="start" x="121.5" y="-277.5" font-family="Helvetica,sans-Serif" font-size="10.00">+ virtual void render()=0</text>
<text text-anchor="start" x="121.5" y="-266.5" font-family="Helvetica,sans-Serif" font-size="10.00">+ AbstractWindow()</text>
<text text-anchor="start" x="121.5" y="-255.5" font-family="Helvetica,sans-Serif" font-size="10.00">+ AbstractWindow(const</text>
<text text-anchor="start" x="121.5" y="-244.5" font-family="Helvetica,sans-Serif" font-size="10.00"> WindowView &amp;windowView)</text>
<text text-anchor="start" x="121.5" y="-233.5" font-family="Helvetica,sans-Serif" font-size="10.00">+ virtual ~AbstractWindow()</text>
</a>
</g>
</g>
<!-- Node2&#45;&gt;Node1 -->
<g id="edge1" class="edge">
<title>Node2&#45;&gt;Node1</title>
<path fill="none" stroke="midnightblue" d="M279.83,-226.79C312.96,-203.95 350.8,-177.86 384.44,-154.66"/>
<polygon fill="none" stroke="midnightblue" points="277.76,-223.97 271.51,-232.52 281.73,-229.73 277.76,-223.97"/>
</g>
<!-- Node3 -->
<g id="node3" class="node">
<title>Node3</title>
<g id="a_node3"><a xlink:title=" ">
<polygon fill="none" stroke="black" points="0,-447 0,-504 65,-504 65,-447 0,-447"/>
<text text-anchor="middle" x="32.5" y="-492" font-family="Helvetica,sans-Serif" font-size="10.00">const uint</text>
<polyline fill="none" stroke="black" points="0,-485 65,-485 "/>
<text text-anchor="middle" x="32.5" y="-473" font-family="Helvetica,sans-Serif" font-size="10.00"> </text>
<polyline fill="none" stroke="black" points="0,-466 65,-466 "/>
<text text-anchor="middle" x="32.5" y="-454" font-family="Helvetica,sans-Serif" font-size="10.00"> </text>
</a>
</g>
</g>
<!-- Node3&#45;&gt;Node2 -->
<g id="edge2" class="edge">
<title>Node3&#45;&gt;Node2</title>
<path fill="none" stroke="#404040" d="M33.75,-446.63C36.05,-423.55 42.38,-390.92 59.5,-368 71.08,-352.5 86.68,-339.46 103.11,-328.74"/>
<polygon fill="none" stroke="#404040" points="103.22,-328.67 106.22,-322.11 113.42,-322.36 110.43,-328.91 103.22,-328.67"/>
<text text-anchor="middle" x="109.5" y="-393" font-family="Helvetica,sans-Serif" font-size="10.00"> #WINDOW_HEIGHT</text>
<text text-anchor="middle" x="109.5" y="-382" font-family="Helvetica,sans-Serif" font-size="10.00">#WINDOW_WIDTH</text>
</g>
<!-- Node4 -->
<g id="node4" class="node">
<title>Node4</title>
<g id="a_node4"><a xlink:href="$struct_window_view.html" xlink:title="Struct that contains the sf::RenderWindow nad offset of elements to render.">
<polygon fill="none" stroke="black" points="250.5,-430.5 250.5,-520.5 432.5,-520.5 432.5,-430.5 250.5,-430.5"/>
<text text-anchor="middle" x="341.5" y="-508.5" font-family="Helvetica,sans-Serif" font-size="10.00">WindowView</text>
<polyline fill="none" stroke="black" points="250.5,-501.5 432.5,-501.5 "/>
<text text-anchor="middle" x="341.5" y="-489.5" font-family="Helvetica,sans-Serif" font-size="10.00"> </text>
<polyline fill="none" stroke="black" points="250.5,-482.5 432.5,-482.5 "/>
<text text-anchor="start" x="258.5" y="-470.5" font-family="Helvetica,sans-Serif" font-size="10.00">+ WindowView(sf::RenderWindow</text>
<text text-anchor="start" x="258.5" y="-459.5" font-family="Helvetica,sans-Serif" font-size="10.00"> *window, float topOffset,</text>
<text text-anchor="start" x="258.5" y="-448.5" font-family="Helvetica,sans-Serif" font-size="10.00"> float leftOffset)</text>
<text text-anchor="start" x="258.5" y="-437.5" font-family="Helvetica,sans-Serif" font-size="10.00">+ WindowView()</text>
</a>
</g>
</g>
<!-- Node4&#45;&gt;Node1 -->
<g id="edge13" class="edge">
<title>Node4&#45;&gt;Node1</title>
<path fill="none" stroke="#404040" d="M340.36,-430.09C340.59,-378.95 345.71,-293.35 373.5,-226 378.71,-213.38 385.4,-200.93 392.88,-188.98"/>
<polygon fill="none" stroke="#404040" points="393.08,-188.67 393.01,-181.45 399.64,-178.61 399.71,-185.82 393.08,-188.67"/>
<text text-anchor="middle" x="423.5" y="-291" font-family="Helvetica,sans-Serif" font-size="10.00"> #finishedStateView</text>
<text text-anchor="middle" x="423.5" y="-280" font-family="Helvetica,sans-Serif" font-size="10.00">#menuStatesView</text>
</g>
<!-- Node4&#45;&gt;Node2 -->
<g id="edge3" class="edge">
<title>Node4&#45;&gt;Node2</title>
<path fill="none" stroke="#404040" d="M273.14,-430.46C266.43,-424.69 260.06,-418.5 254.5,-412 241.57,-396.87 230.49,-378.58 221.43,-360.78"/>
<polygon fill="none" stroke="#404040" points="221.33,-360.57 215.1,-356.94 216.05,-349.79 222.28,-353.42 221.33,-360.57"/>
<text text-anchor="middle" x="291" y="-387.5" font-family="Helvetica,sans-Serif" font-size="10.00"> #windowView</text>
</g>
<!-- Node5 -->
<g id="node5" class="node">
<title>Node5</title>
<g id="a_node5"><a xlink:title=" ">
<polygon fill="none" stroke="black" points="249.5,-579.5 249.5,-636.5 347.5,-636.5 347.5,-579.5 249.5,-579.5"/>
<text text-anchor="middle" x="298.5" y="-624.5" font-family="Helvetica,sans-Serif" font-size="10.00">RenderWindow *</text>
<polyline fill="none" stroke="black" points="249.5,-617.5 347.5,-617.5 "/>
<text text-anchor="middle" x="298.5" y="-605.5" font-family="Helvetica,sans-Serif" font-size="10.00"> </text>
<polyline fill="none" stroke="black" points="249.5,-598.5 347.5,-598.5 "/>
<text text-anchor="middle" x="298.5" y="-586.5" font-family="Helvetica,sans-Serif" font-size="10.00"> </text>
</a>
</g>
</g>
<!-- Node5&#45;&gt;Node4 -->
<g id="edge4" class="edge">
<title>Node5&#45;&gt;Node4</title>
<path fill="none" stroke="#404040" d="M303.3,-579.19C305.79,-566.74 309.21,-551.97 313.5,-539 314.24,-536.76 315.04,-534.48 315.87,-532.2"/>
<polygon fill="none" stroke="#404040" points="315.97,-531.96 314.42,-524.92 320.33,-520.79 321.88,-527.83 315.97,-531.96"/>
<text text-anchor="middle" x="338" y="-547.5" font-family="Helvetica,sans-Serif" font-size="10.00"> +window</text>
</g>
<!-- Node6 -->
<g id="node6" class="node">
<title>Node6</title>
<g id="a_node6"><a xlink:title=" ">
<polygon fill="none" stroke="black" points="365.5,-579.5 365.5,-636.5 403.5,-636.5 403.5,-579.5 365.5,-579.5"/>
<text text-anchor="middle" x="384.5" y="-624.5" font-family="Helvetica,sans-Serif" font-size="10.00">float</text>
<polyline fill="none" stroke="black" points="365.5,-617.5 403.5,-617.5 "/>
<text text-anchor="middle" x="384.5" y="-605.5" font-family="Helvetica,sans-Serif" font-size="10.00"> </text>
<polyline fill="none" stroke="black" points="365.5,-598.5 403.5,-598.5 "/>
<text text-anchor="middle" x="384.5" y="-586.5" font-family="Helvetica,sans-Serif" font-size="10.00"> </text>
</a>
</g>
</g>
<!-- Node6&#45;&gt;Node4 -->
<g id="edge5" class="edge">
<title>Node6&#45;&gt;Node4</title>
<path fill="none" stroke="#404040" d="M375.58,-579.19C371.61,-566.86 366.85,-552.2 362.5,-539 361.76,-536.76 361,-534.47 360.24,-532.16"/>
<polygon fill="none" stroke="#404040" points="360.15,-531.91 354.46,-527.48 356.36,-520.53 362.05,-524.96 360.15,-531.91"/>
<text text-anchor="middle" x="398" y="-553" font-family="Helvetica,sans-Serif" font-size="10.00"> +leftOffset</text>
<text text-anchor="middle" x="398" y="-542" font-family="Helvetica,sans-Serif" font-size="10.00">+topOffset</text>
</g>
<!-- Node7 -->
<g id="node7" class="node">
<title>Node7</title>
<g id="a_node7"><a xlink:title=" ">
<polygon fill="none" stroke="black" points="83,-441.5 83,-509.5 232,-509.5 232,-441.5 83,-441.5"/>
<text text-anchor="start" x="91" y="-497.5" font-family="Helvetica,sans-Serif" font-size="10.00">vector&lt; std::shared</text>
<text text-anchor="middle" x="157.5" y="-486.5" font-family="Helvetica,sans-Serif" font-size="10.00">_ptr&lt; AbstractWindow &gt; &gt;</text>
<polyline fill="none" stroke="black" points="83,-479.5 232,-479.5 "/>
<text text-anchor="middle" x="157.5" y="-467.5" font-family="Helvetica,sans-Serif" font-size="10.00"> </text>
<polyline fill="none" stroke="black" points="83,-460.5 232,-460.5 "/>
<text text-anchor="middle" x="157.5" y="-448.5" font-family="Helvetica,sans-Serif" font-size="10.00"> </text>
</a>
</g>
</g>
<!-- Node7&#45;&gt;Node2 -->
<g id="edge6" class="edge">
<title>Node7&#45;&gt;Node2</title>
<path fill="none" stroke="#404040" d="M159.78,-441.17C161.59,-420.06 164.64,-392.26 169.5,-368 169.93,-365.84 170.4,-363.64 170.89,-361.44"/>
<polygon fill="none" stroke="#404040" points="170.94,-361.22 168.45,-354.46 173.74,-349.55 176.23,-356.32 170.94,-361.22"/>
<text text-anchor="middle" x="195" y="-387.5" font-family="Helvetica,sans-Serif" font-size="10.00"> #children</text>
</g>
<!-- Node8 -->
<g id="node8" class="node">
<title>Node8</title>
<g id="a_node8"><a xlink:href="$struct_window_1_1_static_state_pointers.html" xlink:title="Stores MenuState pointers.">
<polygon fill="none" stroke="black" points="560.5,-259.5 560.5,-316.5 714.5,-316.5 714.5,-259.5 560.5,-259.5"/>
<text text-anchor="middle" x="637.5" y="-304.5" font-family="Helvetica,sans-Serif" font-size="10.00">Window::StaticStatePointers</text>
<polyline fill="none" stroke="black" points="560.5,-297.5 714.5,-297.5 "/>
<text text-anchor="middle" x="637.5" y="-285.5" font-family="Helvetica,sans-Serif" font-size="10.00"> </text>
<polyline fill="none" stroke="black" points="560.5,-278.5 714.5,-278.5 "/>
<text text-anchor="middle" x="637.5" y="-266.5" font-family="Helvetica,sans-Serif" font-size="10.00"> </text>
</a>
</g>
</g>
<!-- Node8&#45;&gt;Node1 -->
<g id="edge7" class="edge">
<title>Node8&#45;&gt;Node1</title>
<path fill="none" stroke="#404040" d="M614.92,-259.26C599.57,-240.42 578.27,-214.26 557.02,-188.16"/>
<polygon fill="none" stroke="#404040" points="556.78,-187.86 549.89,-185.74 549.2,-178.56 556.09,-180.68 556.78,-187.86"/>
<text text-anchor="middle" x="612" y="-200" font-family="Helvetica,sans-Serif" font-size="10.00"> #staticPointers</text>
</g>
<!-- Node9 -->
<g id="node9" class="node">
<title>Node9</title>
<g id="a_node9"><a xlink:title=" ">
<polygon fill="none" stroke="black" points="450.5,-441.5 450.5,-509.5 584.5,-509.5 584.5,-441.5 450.5,-441.5"/>
<text text-anchor="start" x="458.5" y="-497.5" font-family="Helvetica,sans-Serif" font-size="10.00">shared_ptr&lt; Window</text>
<text text-anchor="middle" x="517.5" y="-486.5" font-family="Helvetica,sans-Serif" font-size="10.00">::GameStateGraphic * &gt;</text>
<polyline fill="none" stroke="black" points="450.5,-479.5 584.5,-479.5 "/>
<text text-anchor="middle" x="517.5" y="-467.5" font-family="Helvetica,sans-Serif" font-size="10.00"> </text>
<polyline fill="none" stroke="black" points="450.5,-460.5 584.5,-460.5 "/>
<text text-anchor="middle" x="517.5" y="-448.5" font-family="Helvetica,sans-Serif" font-size="10.00"> </text>
</a>
</g>
</g>
<!-- Node9&#45;&gt;Node1 -->
<g id="edge10" class="edge">
<title>Node9&#45;&gt;Node1</title>
<path fill="none" stroke="#404040" d="M507.22,-441.32C500.01,-416.45 490.91,-381.43 486.5,-350 479.17,-297.73 476.66,-239 476.1,-190.64"/>
<polygon fill="none" stroke="#404040" points="476.1,-190.58 472.05,-184.62 476,-178.58 480.05,-184.55 476.1,-190.58"/>
<text text-anchor="middle" x="519" y="-285.5" font-family="Helvetica,sans-Serif" font-size="10.00"> #gameState</text>
</g>
<!-- Node9&#45;&gt;Node8 -->
<g id="edge8" class="edge">
<title>Node9&#45;&gt;Node8</title>
<path fill="none" stroke="#404040" d="M534.32,-441.12C545.5,-419.74 560.94,-391.67 576.5,-368 585.76,-353.92 596.78,-339.15 606.89,-326.23"/>
<polygon fill="none" stroke="#404040" points="606.95,-326.16 607.54,-318.97 614.4,-316.76 613.81,-323.94 606.95,-326.16"/>
<text text-anchor="middle" x="609" y="-387.5" font-family="Helvetica,sans-Serif" font-size="10.00"> +gameState</text>
</g>
<!-- Node10 -->
<g id="node10" class="node">
<title>Node10</title>
<g id="a_node10"><a xlink:title=" ">
<polygon fill="none" stroke="black" points="602.5,-447 602.5,-504 706.5,-504 706.5,-447 602.5,-447"/>
<text text-anchor="middle" x="654.5" y="-492" font-family="Helvetica,sans-Serif" font-size="10.00">shared_ptr&lt; int &gt;</text>
<polyline fill="none" stroke="black" points="602.5,-485 706.5,-485 "/>
<text text-anchor="middle" x="654.5" y="-473" font-family="Helvetica,sans-Serif" font-size="10.00"> </text>
<polyline fill="none" stroke="black" points="602.5,-466 706.5,-466 "/>
<text text-anchor="middle" x="654.5" y="-454" font-family="Helvetica,sans-Serif" font-size="10.00"> </text>
</a>
</g>
</g>
<!-- Node10&#45;&gt;Node8 -->
<g id="edge9" class="edge">
<title>Node10&#45;&gt;Node8</title>
<path fill="none" stroke="#404040" d="M651.95,-446.73C649.09,-415.49 644.42,-364.5 641.16,-328.98"/>
<polygon fill="none" stroke="#404040" points="641.13,-328.61 636.6,-323 640.03,-316.66 644.57,-322.27 641.13,-328.61"/>
<text text-anchor="middle" x="678" y="-393" font-family="Helvetica,sans-Serif" font-size="10.00"> +menuPos</text>
<text text-anchor="middle" x="678" y="-382" font-family="Helvetica,sans-Serif" font-size="10.00">+points</text>
</g>
<!-- Node11 -->
<g id="node11" class="node">
<title>Node11</title>
<g id="a_node11"><a xlink:href="$struct_static_graphic_1_1_buttons_position_menu.html" xlink:title="Struct containing children&#39;s buttons setup.">
<polygon fill="none" stroke="black" points="733,-259.5 733,-316.5 924,-316.5 924,-259.5 733,-259.5"/>
<text text-anchor="middle" x="828.5" y="-304.5" font-family="Helvetica,sans-Serif" font-size="10.00">StaticGraphic::ButtonsPositionMenu</text>
<polyline fill="none" stroke="black" points="733,-297.5 924,-297.5 "/>
<text text-anchor="middle" x="828.5" y="-285.5" font-family="Helvetica,sans-Serif" font-size="10.00"> </text>
<polyline fill="none" stroke="black" points="733,-278.5 924,-278.5 "/>
<text text-anchor="middle" x="828.5" y="-266.5" font-family="Helvetica,sans-Serif" font-size="10.00"> </text>
</a>
</g>
</g>
<!-- Node11&#45;&gt;Node1 -->
<g id="edge11" class="edge">
<title>Node11&#45;&gt;Node1</title>
<path fill="none" stroke="#404040" d="M781.59,-259.44C763.49,-248.89 742.58,-236.8 723.5,-226 677.04,-199.72 625.33,-171.13 581.36,-147.02"/>
<polygon fill="none" stroke="#404040" points="581.17,-146.92 573.99,-147.55 570.65,-141.15 577.83,-140.53 581.17,-146.92"/>
<text text-anchor="middle" x="734.5" y="-200" font-family="Helvetica,sans-Serif" font-size="10.00"> #buttonsPosition</text>
</g>
<!-- Node12 -->
<g id="node12" class="node">
<title>Node12</title>
<g id="a_node12"><a xlink:title=" ">
<polygon fill="none" stroke="black" points="800,-447 800,-504 857,-504 857,-447 800,-447"/>
<text text-anchor="middle" x="828.5" y="-492" font-family="Helvetica,sans-Serif" font-size="10.00">Vector2f</text>
<polyline fill="none" stroke="black" points="800,-485 857,-485 "/>
<text text-anchor="middle" x="828.5" y="-473" font-family="Helvetica,sans-Serif" font-size="10.00"> </text>
<polyline fill="none" stroke="black" points="800,-466 857,-466 "/>
<text text-anchor="middle" x="828.5" y="-454" font-family="Helvetica,sans-Serif" font-size="10.00"> </text>
</a>
</g>
</g>
<!-- Node12&#45;&gt;Node11 -->
<g id="edge12" class="edge">
<title>Node12&#45;&gt;Node11</title>
<path fill="none" stroke="#404040" d="M828.5,-446.73C828.5,-415.49 828.5,-364.5 828.5,-328.98"/>
<polygon fill="none" stroke="#404040" points="828.5,-328.66 824.5,-322.66 828.5,-316.66 832.5,-322.66 828.5,-328.66"/>
<text text-anchor="middle" x="862" y="-404" font-family="Helvetica,sans-Serif" font-size="10.00"> +button1Pos</text>
<text text-anchor="middle" x="862" y="-393" font-family="Helvetica,sans-Serif" font-size="10.00">+button1Size</text>
<text text-anchor="middle" x="862" y="-382" font-family="Helvetica,sans-Serif" font-size="10.00">+button2Pos</text>
<text text-anchor="middle" x="862" y="-371" font-family="Helvetica,sans-Serif" font-size="10.00">+button2Size</text>
</g>
</g>
</svg>
