<?xml version="1.0" encoding="UTF-8" standalone="no"?>
<!DOCTYPE svg PUBLIC "-//W3C//DTD SVG 1.1//EN"
 "http://www.w3.org/Graphics/SVG/1.1/DTD/svg11.dtd">
<!-- Generated by graphviz version 2.43.0 (0)
 -->
<!-- Title: PublisherEventHandler Pages: 1 -->
<svg width="756pt" height="790pt"
 viewBox="0.00 0.00 756.00 790.00" xmlns="http://www.w3.org/2000/svg" xmlns:xlink="http://www.w3.org/1999/xlink">
<g id="graph0" class="graph" transform="scale(1 1) rotate(0) translate(4 786)">
<title>PublisherEventHandler</title>
<!-- Node1 -->
<g id="node1" class="node">
<title>Node1</title>
<g id="a_node1"><a xlink:title="Extended EventHandler for Event class events with publisher capabilities.">
<polygon fill="#bfbfbf" stroke="black" points="306.5,-205.5 306.5,-339.5 458.5,-339.5 458.5,-205.5 306.5,-205.5"/>
<text text-anchor="middle" x="382.5" y="-327.5" font-family="Helvetica,sans-Serif" font-size="10.00">PublisherEventHandler</text>
<polyline fill="none" stroke="black" points="306.5,-320.5 458.5,-320.5 "/>
<text text-anchor="middle" x="382.5" y="-308.5" font-family="Helvetica,sans-Serif" font-size="10.00"> </text>
<polyline fill="none" stroke="black" points="306.5,-301.5 458.5,-301.5 "/>
<text text-anchor="start" x="314.5" y="-289.5" font-family="Helvetica,sans-Serif" font-size="10.00">+ void handleEvent(std</text>
<text text-anchor="start" x="314.5" y="-278.5" font-family="Helvetica,sans-Serif" font-size="10.00">::unique_ptr&lt; Event &gt;</text>
<text text-anchor="start" x="314.5" y="-267.5" font-family="Helvetica,sans-Serif" font-size="10.00"> event) override</text>
<text text-anchor="start" x="314.5" y="-256.5" font-family="Helvetica,sans-Serif" font-size="10.00">+ virtual void processEvent</text>
<text text-anchor="start" x="314.5" y="-245.5" font-family="Helvetica,sans-Serif" font-size="10.00">(std::unique_ptr&lt; Event</text>
<text text-anchor="start" x="314.5" y="-234.5" font-family="Helvetica,sans-Serif" font-size="10.00"> &gt; event)=0</text>
<text text-anchor="start" x="314.5" y="-223.5" font-family="Helvetica,sans-Serif" font-size="10.00"># PublisherEventHandler</text>
<text text-anchor="start" x="314.5" y="-212.5" font-family="Helvetica,sans-Serif" font-size="10.00">()=default</text>
</a>
</g>
</g>
<!-- Node5 -->
<g id="node5" class="node">
<title>Node5</title>
<g id="a_node5"><a xlink:href="$class_active_event_handler.html" xlink:title=" ">
<polygon fill="none" stroke="black" points="0,-0.5 0,-167.5 177,-167.5 177,-0.5 0,-0.5"/>
<text text-anchor="middle" x="88.5" y="-155.5" font-family="Helvetica,sans-Serif" font-size="10.00">ActiveEventHandler</text>
<polyline fill="none" stroke="black" points="0,-148.5 177,-148.5 "/>
<text text-anchor="start" x="8" y="-136.5" font-family="Helvetica,sans-Serif" font-size="10.00">&#45; Game * game_</text>
<text text-anchor="start" x="8" y="-125.5" font-family="Helvetica,sans-Serif" font-size="10.00">&#45; ActiveGameState * state_</text>
<text text-anchor="start" x="8" y="-114.5" font-family="Helvetica,sans-Serif" font-size="10.00">&#45; EventQueue&lt; Event &gt;</text>
<text text-anchor="start" x="8" y="-103.5" font-family="Helvetica,sans-Serif" font-size="10.00"> * eventQueue_</text>
<polyline fill="none" stroke="black" points="0,-96.5 177,-96.5 "/>
<text text-anchor="start" x="8" y="-84.5" font-family="Helvetica,sans-Serif" font-size="10.00">+ ActiveEventHandler</text>
<text text-anchor="start" x="8" y="-73.5" font-family="Helvetica,sans-Serif" font-size="10.00">()=delete</text>
<text text-anchor="start" x="8" y="-62.5" font-family="Helvetica,sans-Serif" font-size="10.00">+ ActiveEventHandler</text>
<text text-anchor="start" x="8" y="-51.5" font-family="Helvetica,sans-Serif" font-size="10.00">(Game *game, ActiveGameState</text>
<text text-anchor="start" x="8" y="-40.5" font-family="Helvetica,sans-Serif" font-size="10.00"> *state)</text>
<text text-anchor="start" x="8" y="-29.5" font-family="Helvetica,sans-Serif" font-size="10.00">+ void processEvent(std</text>
<text text-anchor="start" x="8" y="-18.5" font-family="Helvetica,sans-Serif" font-size="10.00">::unique_ptr&lt; Event &gt;</text>
<text text-anchor="start" x="8" y="-7.5" font-family="Helvetica,sans-Serif" font-size="10.00"> event) override</text>
</a>
</g>
</g>
<!-- Node1&#45;&gt;Node5 -->
<g id="edge4" class="edge">
<title>Node1&#45;&gt;Node5</title>
<path fill="none" stroke="midnightblue" d="M296.94,-231.8C261.42,-214 220.43,-191.68 185.5,-168 182.75,-166.13 179.99,-164.2 177.22,-162.22"/>
<polygon fill="none" stroke="midnightblue" points="295.81,-235.15 306.32,-236.47 298.93,-228.88 295.81,-235.15"/>
</g>
<!-- Node6 -->
<g id="node6" class="node">
<title>Node6</title>
<g id="a_node6"><a xlink:href="$class_finished_event_handler.html" xlink:title=" ">
<polygon fill="none" stroke="black" points="195,-6 195,-162 382,-162 382,-6 195,-6"/>
<text text-anchor="middle" x="288.5" y="-150" font-family="Helvetica,sans-Serif" font-size="10.00">FinishedEventHandler</text>
<polyline fill="none" stroke="black" points="195,-143 382,-143 "/>
<text text-anchor="start" x="203" y="-131" font-family="Helvetica,sans-Serif" font-size="10.00">&#45; Game * game_</text>
<text text-anchor="start" x="203" y="-120" font-family="Helvetica,sans-Serif" font-size="10.00">&#45; FinishedGameState *</text>
<text text-anchor="start" x="203" y="-109" font-family="Helvetica,sans-Serif" font-size="10.00"> state_</text>
<polyline fill="none" stroke="black" points="195,-102 382,-102 "/>
<text text-anchor="start" x="203" y="-90" font-family="Helvetica,sans-Serif" font-size="10.00">+ FinishedEventHandler</text>
<text text-anchor="start" x="203" y="-79" font-family="Helvetica,sans-Serif" font-size="10.00">()=delete</text>
<text text-anchor="start" x="203" y="-68" font-family="Helvetica,sans-Serif" font-size="10.00">+ FinishedEventHandler</text>
<text text-anchor="start" x="203" y="-57" font-family="Helvetica,sans-Serif" font-size="10.00">(Game *game, FinishedGameState</text>
<text text-anchor="start" x="203" y="-46" font-family="Helvetica,sans-Serif" font-size="10.00"> *state)</text>
<text text-anchor="start" x="203" y="-35" font-family="Helvetica,sans-Serif" font-size="10.00">+ void processEvent(std</text>
<text text-anchor="start" x="203" y="-24" font-family="Helvetica,sans-Serif" font-size="10.00">::unique_ptr&lt; Event &gt;</text>
<text text-anchor="start" x="203" y="-13" font-family="Helvetica,sans-Serif" font-size="10.00"> event) override</text>
</a>
</g>
</g>
<!-- Node1&#45;&gt;Node6 -->
<g id="edge5" class="edge">
<title>Node1&#45;&gt;Node6</title>
<path fill="none" stroke="midnightblue" d="M344.69,-196.49C338.98,-185.16 333.09,-173.46 327.35,-162.09"/>
<polygon fill="none" stroke="midnightblue" points="341.6,-198.13 349.23,-205.48 347.85,-194.98 341.6,-198.13"/>
</g>
<!-- Node7 -->
<g id="node7" class="node">
<title>Node7</title>
<g id="a_node7"><a xlink:href="$class_menu_event_handler.html" xlink:title=" ">
<polygon fill="none" stroke="black" points="400.5,-11.5 400.5,-156.5 554.5,-156.5 554.5,-11.5 400.5,-11.5"/>
<text text-anchor="middle" x="477.5" y="-144.5" font-family="Helvetica,sans-Serif" font-size="10.00">MenuEventHandler</text>
<polyline fill="none" stroke="black" points="400.5,-137.5 554.5,-137.5 "/>
<text text-anchor="start" x="408.5" y="-125.5" font-family="Helvetica,sans-Serif" font-size="10.00">&#45; Game * game_</text>
<text text-anchor="start" x="408.5" y="-114.5" font-family="Helvetica,sans-Serif" font-size="10.00">&#45; MenuGameState * state_</text>
<polyline fill="none" stroke="black" points="400.5,-107.5 554.5,-107.5 "/>
<text text-anchor="start" x="408.5" y="-95.5" font-family="Helvetica,sans-Serif" font-size="10.00">+ MenuEventHandler()</text>
<text text-anchor="start" x="408.5" y="-84.5" font-family="Helvetica,sans-Serif" font-size="10.00">=delete</text>
<text text-anchor="start" x="408.5" y="-73.5" font-family="Helvetica,sans-Serif" font-size="10.00">+ MenuEventHandler(Game</text>
<text text-anchor="start" x="408.5" y="-62.5" font-family="Helvetica,sans-Serif" font-size="10.00"> *game, MenuGameState</text>
<text text-anchor="start" x="408.5" y="-51.5" font-family="Helvetica,sans-Serif" font-size="10.00"> *state)</text>
<text text-anchor="start" x="408.5" y="-40.5" font-family="Helvetica,sans-Serif" font-size="10.00">+ void processEvent(std</text>
<text text-anchor="start" x="408.5" y="-29.5" font-family="Helvetica,sans-Serif" font-size="10.00">::unique_ptr&lt; Event &gt;</text>
<text text-anchor="start" x="408.5" y="-18.5" font-family="Helvetica,sans-Serif" font-size="10.00"> event) override</text>
</a>
</g>
</g>
<!-- Node1&#45;&gt;Node7 -->
<g id="edge6" class="edge">
<title>Node1&#45;&gt;Node7</title>
<path fill="none" stroke="midnightblue" d="M420.72,-196.48C427.41,-183.33 434.37,-169.68 441.01,-156.63"/>
<polygon fill="none" stroke="midnightblue" points="417.55,-194.99 416.13,-205.48 423.78,-198.16 417.55,-194.99"/>
</g>
<!-- Node8 -->
<g id="node8" class="node">
<title>Node8</title>
<g id="a_node8"><a xlink:href="$class_pause_event_handler.html" xlink:title=" ">
<polygon fill="none" stroke="black" points="573,-11.5 573,-156.5 748,-156.5 748,-11.5 573,-11.5"/>
<text text-anchor="middle" x="660.5" y="-144.5" font-family="Helvetica,sans-Serif" font-size="10.00">PauseEventHandler</text>
<polyline fill="none" stroke="black" points="573,-137.5 748,-137.5 "/>
<text text-anchor="start" x="581" y="-125.5" font-family="Helvetica,sans-Serif" font-size="10.00">&#45; Game * game_</text>
<text text-anchor="start" x="581" y="-114.5" font-family="Helvetica,sans-Serif" font-size="10.00">&#45; PauseGameState * state_</text>
<polyline fill="none" stroke="black" points="573,-107.5 748,-107.5 "/>
<text text-anchor="start" x="581" y="-95.5" font-family="Helvetica,sans-Serif" font-size="10.00">+ PauseEventHandler</text>
<text text-anchor="start" x="581" y="-84.5" font-family="Helvetica,sans-Serif" font-size="10.00">()=delete</text>
<text text-anchor="start" x="581" y="-73.5" font-family="Helvetica,sans-Serif" font-size="10.00">+ PauseEventHandler</text>
<text text-anchor="start" x="581" y="-62.5" font-family="Helvetica,sans-Serif" font-size="10.00">(Game *game, PauseGameState</text>
<text text-anchor="start" x="581" y="-51.5" font-family="Helvetica,sans-Serif" font-size="10.00"> *state)</text>
<text text-anchor="start" x="581" y="-40.5" font-family="Helvetica,sans-Serif" font-size="10.00">+ void processEvent(std</text>
<text text-anchor="start" x="581" y="-29.5" font-family="Helvetica,sans-Serif" font-size="10.00">::unique_ptr&lt; Event &gt;</text>
<text text-anchor="start" x="581" y="-18.5" font-family="Helvetica,sans-Serif" font-size="10.00"> event) override</text>
</a>
</g>
</g>
<!-- Node1&#45;&gt;Node8 -->
<g id="edge7" class="edge">
<title>Node1&#45;&gt;Node8</title>
<path fill="none" stroke="midnightblue" d="M467.9,-227.02C498.8,-209.8 533.47,-189.15 563.5,-168 568.66,-164.36 573.88,-160.51 579.07,-156.53"/>
<polygon fill="none" stroke="midnightblue" points="465.92,-224.11 458.86,-232.01 469.31,-230.24 465.92,-224.11"/>
</g>
<!-- Node2 -->
<g id="node2" class="node">
<title>Node2</title>
<g id="a_node2"><a xlink:href="$class_event_publisher.html" xlink:title=" ">
<polygon fill="none" stroke="black" points="286,-377.5 286,-654.5 455,-654.5 455,-377.5 286,-377.5"/>
<text text-anchor="middle" x="370.5" y="-642.5" font-family="Helvetica,sans-Serif" font-size="10.00">EventPublisher</text>
<polyline fill="none" stroke="black" points="286,-635.5 455,-635.5 "/>
<text text-anchor="start" x="294" y="-623.5" font-family="Helvetica,sans-Serif" font-size="10.00"># std::map&lt; Event::EventType,</text>
<text text-anchor="start" x="294" y="-612.5" font-family="Helvetica,sans-Serif" font-size="10.00"> std::list&lt; EventSubscriber</text>
<text text-anchor="start" x="294" y="-601.5" font-family="Helvetica,sans-Serif" font-size="10.00"> * &gt; &gt; event_subscribers_</text>
<polyline fill="none" stroke="black" points="286,-594.5 455,-594.5 "/>
<text text-anchor="start" x="294" y="-582.5" font-family="Helvetica,sans-Serif" font-size="10.00">+ ~EventPublisher()</text>
<text text-anchor="start" x="294" y="-571.5" font-family="Helvetica,sans-Serif" font-size="10.00">+ virtual void notifyEvent</text>
<text text-anchor="start" x="294" y="-560.5" font-family="Helvetica,sans-Serif" font-size="10.00">Subscribers(Event::EventType</text>
<text text-anchor="start" x="294" y="-549.5" font-family="Helvetica,sans-Serif" font-size="10.00"> eventType)</text>
<text text-anchor="start" x="294" y="-538.5" font-family="Helvetica,sans-Serif" font-size="10.00">+ void attachEventSubscriber</text>
<text text-anchor="start" x="294" y="-527.5" font-family="Helvetica,sans-Serif" font-size="10.00">(EventSubscriber *sub, Event</text>
<text text-anchor="start" x="294" y="-516.5" font-family="Helvetica,sans-Serif" font-size="10.00">::EventType eventType)</text>
<text text-anchor="start" x="294" y="-505.5" font-family="Helvetica,sans-Serif" font-size="10.00">+ void detachEventSubscriber</text>
<text text-anchor="start" x="294" y="-494.5" font-family="Helvetica,sans-Serif" font-size="10.00">(EventSubscriber *sub, Event</text>
<text text-anchor="start" x="294" y="-483.5" font-family="Helvetica,sans-Serif" font-size="10.00">::EventType eventType)</text>
<text text-anchor="start" x="294" y="-472.5" font-family="Helvetica,sans-Serif" font-size="10.00">+ bool operator==(const</text>
<text text-anchor="start" x="294" y="-461.5" font-family="Helvetica,sans-Serif" font-size="10.00"> EventPublisher &amp;rhs)</text>
<text text-anchor="start" x="294" y="-450.5" font-family="Helvetica,sans-Serif" font-size="10.00"> const</text>
<text text-anchor="start" x="294" y="-439.5" font-family="Helvetica,sans-Serif" font-size="10.00">+ bool operator!=(const</text>
<text text-anchor="start" x="294" y="-428.5" font-family="Helvetica,sans-Serif" font-size="10.00"> EventPublisher &amp;rhs)</text>
<text text-anchor="start" x="294" y="-417.5" font-family="Helvetica,sans-Serif" font-size="10.00"> const</text>
<text text-anchor="start" x="294" y="-406.5" font-family="Helvetica,sans-Serif" font-size="10.00"># EventPublisher()=default</text>
<text text-anchor="start" x="294" y="-395.5" font-family="Helvetica,sans-Serif" font-size="10.00">&#45; void ensureEntryExists</text>
<text text-anchor="start" x="294" y="-384.5" font-family="Helvetica,sans-Serif" font-size="10.00">(Event::EventType eventType)</text>
</a>
</g>
</g>
<!-- Node2&#45;&gt;Node1 -->
<g id="edge1" class="edge">
<title>Node2&#45;&gt;Node1</title>
<path fill="none" stroke="midnightblue" d="M377.84,-367.31C378.31,-357.77 378.77,-348.47 379.21,-339.66"/>
<polygon fill="none" stroke="midnightblue" points="374.34,-367.16 377.34,-377.32 381.33,-367.51 374.34,-367.16"/>
</g>
<!-- Node3 -->
<g id="node3" class="node">
<title>Node3</title>
<g id="a_node3"><a xlink:href="$class_event_handler.html" xlink:title=" ">
<polygon fill="none" stroke="black" points="473,-471 473,-561 620,-561 620,-471 473,-471"/>
<text text-anchor="middle" x="546.5" y="-549" font-family="Helvetica,sans-Serif" font-size="10.00">EventHandler&lt; Event &gt;</text>
<polyline fill="none" stroke="black" points="473,-542 620,-542 "/>
<text text-anchor="middle" x="546.5" y="-530" font-family="Helvetica,sans-Serif" font-size="10.00"> </text>
<polyline fill="none" stroke="black" points="473,-523 620,-523 "/>
<text text-anchor="start" x="481" y="-511" font-family="Helvetica,sans-Serif" font-size="10.00">+ virtual void handleEvent</text>
<text text-anchor="start" x="481" y="-500" font-family="Helvetica,sans-Serif" font-size="10.00">(std::unique_ptr&lt; Event</text>
<text text-anchor="start" x="481" y="-489" font-family="Helvetica,sans-Serif" font-size="10.00"> &gt; event)=0</text>
<text text-anchor="start" x="481" y="-478" font-family="Helvetica,sans-Serif" font-size="10.00"># EventHandler()=default</text>
</a>
</g>
</g>
<!-- Node3&#45;&gt;Node1 -->
<g id="edge2" class="edge">
<title>Node3&#45;&gt;Node1</title>
<path fill="none" stroke="midnightblue" d="M516.65,-461.97C501.47,-435.9 482.29,-404.3 463.5,-377 455.03,-364.69 445.59,-351.9 436.23,-339.69"/>
<polygon fill="none" stroke="midnightblue" points="513.81,-464.04 521.85,-470.94 519.87,-460.54 513.81,-464.04"/>
</g>
<!-- Node4 -->
<g id="node4" class="node">
<title>Node4</title>
<g id="a_node4"><a xlink:href="$class_event_handler.html" xlink:title=" ">
<polygon fill="none" stroke="black" points="461.5,-702.5 461.5,-781.5 631.5,-781.5 631.5,-702.5 461.5,-702.5"/>
<text text-anchor="middle" x="546.5" y="-769.5" font-family="Helvetica,sans-Serif" font-size="10.00">EventHandler&lt; E &gt;</text>
<polyline fill="none" stroke="black" points="461.5,-762.5 631.5,-762.5 "/>
<text text-anchor="middle" x="546.5" y="-750.5" font-family="Helvetica,sans-Serif" font-size="10.00"> </text>
<polyline fill="none" stroke="black" points="461.5,-743.5 631.5,-743.5 "/>
<text text-anchor="start" x="469.5" y="-731.5" font-family="Helvetica,sans-Serif" font-size="10.00">+ virtual void handleEvent</text>
<text text-anchor="start" x="469.5" y="-720.5" font-family="Helvetica,sans-Serif" font-size="10.00">(std::unique_ptr&lt; E &gt; event)=0</text>
<text text-anchor="start" x="469.5" y="-709.5" font-family="Helvetica,sans-Serif" font-size="10.00"># EventHandler()=default</text>
</a>
</g>
</g>
<!-- Node4&#45;&gt;Node3 -->
<g id="edge3" class="edge">
<title>Node4&#45;&gt;Node3</title>
<path fill="none" stroke="orange" d="M546.5,-692.41C546.5,-653.36 546.5,-598.97 546.5,-561.14"/>
<polygon fill="orange" stroke="orange" points="543,-692.49 546.5,-702.49 550,-692.49 543,-692.49"/>
<text text-anchor="middle" x="573.5" y="-676" font-family="Helvetica,sans-Serif" font-size="10.00"> &lt; Event &gt;</text>
</g>
</g>
</svg>
