<?xml version="1.0" encoding="UTF-8" standalone="no"?>
<!DOCTYPE svg PUBLIC "-//W3C//DTD SVG 1.1//EN"
 "http://www.w3.org/Graphics/SVG/1.1/DTD/svg11.dtd">
<!-- Generated by graphviz version 2.43.0 (0)
 -->
<!-- Title: EntityController Pages: 1 -->
<svg width="525pt" height="1305pt"
 viewBox="0.00 0.00 525.00 1305.00" xmlns="http://www.w3.org/2000/svg" xmlns:xlink="http://www.w3.org/1999/xlink">
<g id="graph0" class="graph" transform="scale(1 1) rotate(0) translate(4 1301)">
<title>EntityController</title>
<!-- Node1 -->
<g id="node1" class="node">
<title>Node1</title>
<g id="a_node1"><a xlink:title="Aggregates and manipulates Entity objects.">
<polygon fill="#bfbfbf" stroke="black" points="207,-0.5 207,-662.5 389,-662.5 389,-0.5 207,-0.5"/>
<text text-anchor="middle" x="298" y="-650.5" font-family="Helvetica,sans-Serif" font-size="10.00">EntityController</text>
<polyline fill="none" stroke="black" points="207,-643.5 389,-643.5 "/>
<text text-anchor="middle" x="298" y="-631.5" font-family="Helvetica,sans-Serif" font-size="10.00"> </text>
<polyline fill="none" stroke="black" points="207,-624.5 389,-624.5 "/>
<text text-anchor="start" x="215" y="-612.5" font-family="Helvetica,sans-Serif" font-size="10.00">+ EntityController()</text>
<text text-anchor="start" x="215" y="-601.5" font-family="Helvetica,sans-Serif" font-size="10.00">+ std::shared_ptr&lt; Tank</text>
<text text-anchor="start" x="215" y="-590.5" font-family="Helvetica,sans-Serif" font-size="10.00"> &gt; createTank(unsigned</text>
<text text-anchor="start" x="215" y="-579.5" font-family="Helvetica,sans-Serif" font-size="10.00"> int x, unsigned int y,</text>
<text text-anchor="start" x="215" y="-568.5" font-family="Helvetica,sans-Serif" font-size="10.00"> Tank::TankType type, Direction</text>
<text text-anchor="start" x="215" y="-557.5" font-family="Helvetica,sans-Serif" font-size="10.00"> facing=North)</text>
<text text-anchor="start" x="215" y="-546.5" font-family="Helvetica,sans-Serif" font-size="10.00">+ void hitTank(std::shared</text>
<text text-anchor="start" x="215" y="-535.5" font-family="Helvetica,sans-Serif" font-size="10.00">_ptr&lt; Tank &gt; target, unsigned</text>
<text text-anchor="start" x="215" y="-524.5" font-family="Helvetica,sans-Serif" font-size="10.00"> int damage=1)</text>
<text text-anchor="start" x="215" y="-513.5" font-family="Helvetica,sans-Serif" font-size="10.00">+ void killTank(std::</text>
<text text-anchor="start" x="215" y="-502.5" font-family="Helvetica,sans-Serif" font-size="10.00">shared_ptr&lt; Tank &gt; tank)</text>
<text text-anchor="start" x="215" y="-491.5" font-family="Helvetica,sans-Serif" font-size="10.00">+ void removeEntity(std</text>
<text text-anchor="start" x="215" y="-480.5" font-family="Helvetica,sans-Serif" font-size="10.00">::shared_ptr&lt; Entity</text>
<text text-anchor="start" x="215" y="-469.5" font-family="Helvetica,sans-Serif" font-size="10.00"> &gt; entity)</text>
<text text-anchor="start" x="215" y="-458.5" font-family="Helvetica,sans-Serif" font-size="10.00">+ void moveAllEntities()</text>
<text text-anchor="start" x="215" y="-447.5" font-family="Helvetica,sans-Serif" font-size="10.00">+ bool moveEntity(std</text>
<text text-anchor="start" x="215" y="-436.5" font-family="Helvetica,sans-Serif" font-size="10.00">::shared_ptr&lt; Entity</text>
<text text-anchor="start" x="215" y="-425.5" font-family="Helvetica,sans-Serif" font-size="10.00"> &gt; target)</text>
<text text-anchor="start" x="215" y="-414.5" font-family="Helvetica,sans-Serif" font-size="10.00">+ void setTankMoving</text>
<text text-anchor="start" x="215" y="-403.5" font-family="Helvetica,sans-Serif" font-size="10.00">(const std::shared_ptr</text>
<text text-anchor="start" x="215" y="-392.5" font-family="Helvetica,sans-Serif" font-size="10.00">&lt; Tank &gt; &amp;target, bool</text>
<text text-anchor="start" x="215" y="-381.5" font-family="Helvetica,sans-Serif" font-size="10.00"> isMoving)</text>
<text text-anchor="start" x="215" y="-370.5" font-family="Helvetica,sans-Serif" font-size="10.00">+ void setTankDirection</text>
<text text-anchor="start" x="215" y="-359.5" font-family="Helvetica,sans-Serif" font-size="10.00">(const std::shared_ptr</text>
<text text-anchor="start" x="215" y="-348.5" font-family="Helvetica,sans-Serif" font-size="10.00">&lt; Tank &gt; &amp;target, Direction</text>
<text text-anchor="start" x="215" y="-337.5" font-family="Helvetica,sans-Serif" font-size="10.00"> direction)</text>
<text text-anchor="start" x="215" y="-326.5" font-family="Helvetica,sans-Serif" font-size="10.00">+ std::optional&lt; std</text>
<text text-anchor="start" x="215" y="-315.5" font-family="Helvetica,sans-Serif" font-size="10.00">::shared_ptr&lt; Entity</text>
<text text-anchor="start" x="215" y="-304.5" font-family="Helvetica,sans-Serif" font-size="10.00"> &gt; &gt; findEntityAtPosition</text>
<text text-anchor="start" x="215" y="-293.5" font-family="Helvetica,sans-Serif" font-size="10.00">(float x, float y, std::</text>
<text text-anchor="start" x="215" y="-282.5" font-family="Helvetica,sans-Serif" font-size="10.00">optional&lt; std::shared_ptr</text>
<text text-anchor="start" x="215" y="-271.5" font-family="Helvetica,sans-Serif" font-size="10.00">&lt; Entity &gt; &gt; ignored=std::</text>
<text text-anchor="start" x="215" y="-260.5" font-family="Helvetica,sans-Serif" font-size="10.00">nullopt)</text>
<text text-anchor="start" x="215" y="-249.5" font-family="Helvetica,sans-Serif" font-size="10.00">+ std::shared_ptr&lt; PlayerTank</text>
<text text-anchor="start" x="215" y="-238.5" font-family="Helvetica,sans-Serif" font-size="10.00"> &gt; getPlayer()</text>
<text text-anchor="start" x="215" y="-227.5" font-family="Helvetica,sans-Serif" font-size="10.00">+ std::shared_ptr&lt; PlayerTank</text>
<text text-anchor="start" x="215" y="-216.5" font-family="Helvetica,sans-Serif" font-size="10.00"> &gt; addEntity(const std::</text>
<text text-anchor="start" x="215" y="-205.5" font-family="Helvetica,sans-Serif" font-size="10.00">shared_ptr&lt; PlayerTank &gt;</text>
<text text-anchor="start" x="215" y="-194.5" font-family="Helvetica,sans-Serif" font-size="10.00"> &amp;playerTank)</text>
<text text-anchor="start" x="215" y="-183.5" font-family="Helvetica,sans-Serif" font-size="10.00">+ std::shared_ptr&lt; Tank</text>
<text text-anchor="start" x="215" y="-172.5" font-family="Helvetica,sans-Serif" font-size="10.00"> &gt; addEntity(std::shared</text>
<text text-anchor="start" x="215" y="-161.5" font-family="Helvetica,sans-Serif" font-size="10.00">_ptr&lt; Tank &gt; newTank)</text>
<text text-anchor="start" x="215" y="-150.5" font-family="Helvetica,sans-Serif" font-size="10.00">+ std::shared_ptr&lt; Bullet</text>
<text text-anchor="start" x="215" y="-139.5" font-family="Helvetica,sans-Serif" font-size="10.00"> &gt; addEntity(std::shared</text>
<text text-anchor="start" x="215" y="-128.5" font-family="Helvetica,sans-Serif" font-size="10.00">_ptr&lt; Bullet &gt; newBullet)</text>
<text text-anchor="start" x="215" y="-117.5" font-family="Helvetica,sans-Serif" font-size="10.00">+ std::shared_ptr&lt; Entity</text>
<text text-anchor="start" x="215" y="-106.5" font-family="Helvetica,sans-Serif" font-size="10.00"> &gt; addEntity(std::shared</text>
<text text-anchor="start" x="215" y="-95.5" font-family="Helvetica,sans-Serif" font-size="10.00">_ptr&lt; Entity &gt; newEntity)</text>
<text text-anchor="start" x="215" y="-84.5" font-family="Helvetica,sans-Serif" font-size="10.00">+ std::optional&lt; std</text>
<text text-anchor="start" x="215" y="-73.5" font-family="Helvetica,sans-Serif" font-size="10.00">::shared_ptr&lt; Entity</text>
<text text-anchor="start" x="215" y="-62.5" font-family="Helvetica,sans-Serif" font-size="10.00"> &gt; &gt; checkEntityCollisions</text>
<text text-anchor="start" x="215" y="-51.5" font-family="Helvetica,sans-Serif" font-size="10.00">(const std::shared_ptr&lt; Entity</text>
<text text-anchor="start" x="215" y="-40.5" font-family="Helvetica,sans-Serif" font-size="10.00"> &gt; &amp;target)</text>
<text text-anchor="start" x="215" y="-29.5" font-family="Helvetica,sans-Serif" font-size="10.00">+ std::vector&lt; std::shared</text>
<text text-anchor="start" x="215" y="-18.5" font-family="Helvetica,sans-Serif" font-size="10.00">_ptr&lt; Entity &gt; &gt; * getAllEntities()</text>
<text text-anchor="start" x="215" y="-7.5" font-family="Helvetica,sans-Serif" font-size="10.00">+ void clear()</text>
</a>
</g>
</g>
<!-- Node2 -->
<g id="node2" class="node">
<title>Node2</title>
<g id="a_node2"><a xlink:href="$class_event_queue.html" xlink:title=" ">
<polygon fill="none" stroke="black" points="73,-710.5 73,-921.5 223,-921.5 223,-710.5 73,-710.5"/>
<text text-anchor="middle" x="148" y="-909.5" font-family="Helvetica,sans-Serif" font-size="10.00">EventQueue&lt; Event &gt;</text>
<polyline fill="none" stroke="black" points="73,-902.5 223,-902.5 "/>
<text text-anchor="middle" x="148" y="-890.5" font-family="Helvetica,sans-Serif" font-size="10.00"> </text>
<polyline fill="none" stroke="black" points="73,-883.5 223,-883.5 "/>
<text text-anchor="start" x="81" y="-871.5" font-family="Helvetica,sans-Serif" font-size="10.00">+ EventQueue(EventQueue</text>
<text text-anchor="start" x="81" y="-860.5" font-family="Helvetica,sans-Serif" font-size="10.00"> &amp;)=delete</text>
<text text-anchor="start" x="81" y="-849.5" font-family="Helvetica,sans-Serif" font-size="10.00">+ bool operator=(const</text>
<text text-anchor="start" x="81" y="-838.5" font-family="Helvetica,sans-Serif" font-size="10.00"> EventQueue &amp;)=delete</text>
<text text-anchor="start" x="81" y="-827.5" font-family="Helvetica,sans-Serif" font-size="10.00">+ void registerEvent</text>
<text text-anchor="start" x="81" y="-816.5" font-family="Helvetica,sans-Serif" font-size="10.00">(std::unique_ptr&lt; Event</text>
<text text-anchor="start" x="81" y="-805.5" font-family="Helvetica,sans-Serif" font-size="10.00"> &gt; event)</text>
<text text-anchor="start" x="81" y="-794.5" font-family="Helvetica,sans-Serif" font-size="10.00">+ std::unique_ptr&lt; Event</text>
<text text-anchor="start" x="81" y="-783.5" font-family="Helvetica,sans-Serif" font-size="10.00"> &gt; pop()</text>
<text text-anchor="start" x="81" y="-772.5" font-family="Helvetica,sans-Serif" font-size="10.00">+ bool isEmpty()</text>
<text text-anchor="start" x="81" y="-761.5" font-family="Helvetica,sans-Serif" font-size="10.00">+ unsigned int size()</text>
<text text-anchor="start" x="81" y="-750.5" font-family="Helvetica,sans-Serif" font-size="10.00">+ void clear()</text>
<text text-anchor="start" x="81" y="-739.5" font-family="Helvetica,sans-Serif" font-size="10.00">+ static EventQueue *</text>
<text text-anchor="start" x="81" y="-728.5" font-family="Helvetica,sans-Serif" font-size="10.00"> instance()</text>
<text text-anchor="start" x="81" y="-717.5" font-family="Helvetica,sans-Serif" font-size="10.00">&#45; EventQueue()=default</text>
</a>
</g>
</g>
<!-- Node2&#45;&gt;Node1 -->
<g id="edge1" class="edge">
<title>Node2&#45;&gt;Node1</title>
<path fill="none" stroke="#404040" d="M180.55,-710.3C187.53,-687.85 195.24,-663.04 203.28,-637.19"/>
<polygon fill="none" stroke="#404040" points="203.3,-637.11 201.26,-630.19 206.87,-625.65 208.9,-632.57 203.3,-637.11"/>
<text text-anchor="middle" x="227" y="-684" font-family="Helvetica,sans-Serif" font-size="10.00"> #eventQueue_</text>
</g>
<!-- Node3 -->
<g id="node3" class="node">
<title>Node3</title>
<g id="a_node3"><a xlink:href="$classstd_1_1queue_3_01std_1_1unique__ptr_3_01_event_01_4_01_4.html" xlink:title=" ">
<polygon fill="none" stroke="black" points="0,-1041 0,-1109 112,-1109 112,-1041 0,-1041"/>
<text text-anchor="start" x="8" y="-1097" font-family="Helvetica,sans-Serif" font-size="10.00">queue&lt; std::unique</text>
<text text-anchor="middle" x="56" y="-1086" font-family="Helvetica,sans-Serif" font-size="10.00">_ptr&lt; Event &gt; &gt;</text>
<polyline fill="none" stroke="black" points="0,-1079 112,-1079 "/>
<text text-anchor="middle" x="56" y="-1067" font-family="Helvetica,sans-Serif" font-size="10.00"> </text>
<polyline fill="none" stroke="black" points="0,-1060 112,-1060 "/>
<text text-anchor="middle" x="56" y="-1048" font-family="Helvetica,sans-Serif" font-size="10.00"> </text>
</a>
</g>
</g>
<!-- Node3&#45;&gt;Node2 -->
<g id="edge2" class="edge">
<title>Node3&#45;&gt;Node2</title>
<path fill="none" stroke="#404040" d="M60.35,-1040.82C64.56,-1013.27 72.09,-973.35 84,-940 84.8,-937.75 85.64,-935.48 86.51,-933.21"/>
<polygon fill="none" stroke="#404040" points="86.61,-932.97 85.14,-925.91 91.09,-921.83 92.56,-928.89 86.61,-932.97"/>
<text text-anchor="middle" x="109" y="-943" font-family="Helvetica,sans-Serif" font-size="10.00"> #events_</text>
</g>
<!-- Node4 -->
<g id="node4" class="node">
<title>Node4</title>
<g id="a_node4"><a xlink:title=" ">
<polygon fill="none" stroke="black" points="73,-1234 73,-1291 223,-1291 223,-1234 73,-1234"/>
<text text-anchor="middle" x="148" y="-1279" font-family="Helvetica,sans-Serif" font-size="10.00">unique_ptr&lt; EventQueue &gt;</text>
<polyline fill="none" stroke="black" points="73,-1272 223,-1272 "/>
<text text-anchor="middle" x="148" y="-1260" font-family="Helvetica,sans-Serif" font-size="10.00"> </text>
<polyline fill="none" stroke="black" points="73,-1253 223,-1253 "/>
<text text-anchor="middle" x="148" y="-1241" font-family="Helvetica,sans-Serif" font-size="10.00"> </text>
</a>
</g>
</g>
<!-- Node4&#45;&gt;Node2 -->
<g id="edge3" class="edge">
<title>Node4&#45;&gt;Node2</title>
<path fill="none" stroke="#404040" d="M148,-1233.69C148,-1174.98 148,-1035.4 148,-933.93"/>
<polygon fill="none" stroke="#404040" points="148,-933.75 144,-927.75 148,-921.75 152,-927.75 148,-933.75"/>
<text text-anchor="middle" x="165.5" y="-1072.5" font-family="Helvetica,sans-Serif" font-size="10.00"> #self_</text>
</g>
<!-- Node5 -->
<g id="node5" class="node">
<title>Node5</title>
<g id="a_node5"><a xlink:href="$class_event_queue.html" xlink:title="Singleton class wrapper for std::queue&lt;E&gt;.">
<polygon fill="none" stroke="black" points="201,-969.5 201,-1180.5 351,-1180.5 351,-969.5 201,-969.5"/>
<text text-anchor="middle" x="276" y="-1168.5" font-family="Helvetica,sans-Serif" font-size="10.00">EventQueue&lt; E &gt;</text>
<polyline fill="none" stroke="black" points="201,-1161.5 351,-1161.5 "/>
<text text-anchor="middle" x="276" y="-1149.5" font-family="Helvetica,sans-Serif" font-size="10.00"> </text>
<polyline fill="none" stroke="black" points="201,-1142.5 351,-1142.5 "/>
<text text-anchor="start" x="209" y="-1130.5" font-family="Helvetica,sans-Serif" font-size="10.00">+ EventQueue(EventQueue</text>
<text text-anchor="start" x="209" y="-1119.5" font-family="Helvetica,sans-Serif" font-size="10.00"> &amp;)=delete</text>
<text text-anchor="start" x="209" y="-1108.5" font-family="Helvetica,sans-Serif" font-size="10.00">+ bool operator=(const</text>
<text text-anchor="start" x="209" y="-1097.5" font-family="Helvetica,sans-Serif" font-size="10.00"> EventQueue &amp;)=delete</text>
<text text-anchor="start" x="209" y="-1086.5" font-family="Helvetica,sans-Serif" font-size="10.00">+ void registerEvent</text>
<text text-anchor="start" x="209" y="-1075.5" font-family="Helvetica,sans-Serif" font-size="10.00">(std::unique_ptr&lt; E</text>
<text text-anchor="start" x="209" y="-1064.5" font-family="Helvetica,sans-Serif" font-size="10.00"> &gt; event)</text>
<text text-anchor="start" x="209" y="-1053.5" font-family="Helvetica,sans-Serif" font-size="10.00">+ std::unique_ptr&lt; E</text>
<text text-anchor="start" x="209" y="-1042.5" font-family="Helvetica,sans-Serif" font-size="10.00"> &gt; pop()</text>
<text text-anchor="start" x="209" y="-1031.5" font-family="Helvetica,sans-Serif" font-size="10.00">+ bool isEmpty()</text>
<text text-anchor="start" x="209" y="-1020.5" font-family="Helvetica,sans-Serif" font-size="10.00">+ unsigned int size()</text>
<text text-anchor="start" x="209" y="-1009.5" font-family="Helvetica,sans-Serif" font-size="10.00">+ void clear()</text>
<text text-anchor="start" x="209" y="-998.5" font-family="Helvetica,sans-Serif" font-size="10.00">+ static EventQueue *</text>
<text text-anchor="start" x="209" y="-987.5" font-family="Helvetica,sans-Serif" font-size="10.00"> instance()</text>
<text text-anchor="start" x="209" y="-976.5" font-family="Helvetica,sans-Serif" font-size="10.00">&#45; EventQueue()=default</text>
</a>
</g>
</g>
<!-- Node4&#45;&gt;Node5 -->
<g id="edge6" class="edge">
<title>Node4&#45;&gt;Node5</title>
<path fill="none" stroke="#404040" d="M167.16,-1233.73C175.48,-1221.68 185.83,-1206.68 196.81,-1190.77"/>
<polygon fill="none" stroke="#404040" points="196.9,-1190.64 197.01,-1183.43 203.71,-1180.76 203.6,-1187.97 196.9,-1190.64"/>
<text text-anchor="middle" x="207.5" y="-1202" font-family="Helvetica,sans-Serif" font-size="10.00"> #self_</text>
</g>
<!-- Node5&#45;&gt;Node2 -->
<g id="edge4" class="edge">
<title>Node5&#45;&gt;Node2</title>
<path fill="none" stroke="orange" d="M219.33,-960.22C212.97,-947.46 206.52,-934.5 200.22,-921.86"/>
<polygon fill="orange" stroke="orange" points="216.35,-962.08 223.94,-969.47 222.61,-958.96 216.35,-962.08"/>
<text text-anchor="middle" x="239" y="-943" font-family="Helvetica,sans-Serif" font-size="10.00"> &lt; Event &gt;</text>
</g>
<!-- Node6 -->
<g id="node6" class="node">
<title>Node6</title>
<g id="a_node6"><a xlink:title=" ">
<polygon fill="none" stroke="black" points="241,-1228.5 241,-1296.5 353,-1296.5 353,-1228.5 241,-1228.5"/>
<text text-anchor="start" x="249" y="-1284.5" font-family="Helvetica,sans-Serif" font-size="10.00">queue&lt; std::unique</text>
<text text-anchor="middle" x="297" y="-1273.5" font-family="Helvetica,sans-Serif" font-size="10.00">_ptr&lt; E &gt; &gt;</text>
<polyline fill="none" stroke="black" points="241,-1266.5 353,-1266.5 "/>
<text text-anchor="middle" x="297" y="-1254.5" font-family="Helvetica,sans-Serif" font-size="10.00"> </text>
<polyline fill="none" stroke="black" points="241,-1247.5 353,-1247.5 "/>
<text text-anchor="middle" x="297" y="-1235.5" font-family="Helvetica,sans-Serif" font-size="10.00"> </text>
</a>
</g>
</g>
<!-- Node6&#45;&gt;Node5 -->
<g id="edge5" class="edge">
<title>Node6&#45;&gt;Node5</title>
<path fill="none" stroke="#404040" d="M293.25,-1228.34C292.06,-1217.88 290.68,-1205.68 289.22,-1192.81"/>
<polygon fill="none" stroke="#404040" points="289.22,-1192.77 284.57,-1187.25 287.87,-1180.84 292.52,-1186.36 289.22,-1192.77"/>
<text text-anchor="middle" x="315" y="-1202" font-family="Helvetica,sans-Serif" font-size="10.00"> #events_</text>
</g>
<!-- Node7 -->
<g id="node7" class="node">
<title>Node7</title>
<g id="a_node7"><a xlink:title=" ">
<polygon fill="none" stroke="black" points="241.5,-782 241.5,-850 354.5,-850 354.5,-782 241.5,-782"/>
<text text-anchor="start" x="249.5" y="-838" font-family="Helvetica,sans-Serif" font-size="10.00">vector&lt; std::shared</text>
<text text-anchor="middle" x="298" y="-827" font-family="Helvetica,sans-Serif" font-size="10.00">_ptr&lt; Entity &gt; &gt;</text>
<polyline fill="none" stroke="black" points="241.5,-820 354.5,-820 "/>
<text text-anchor="middle" x="298" y="-808" font-family="Helvetica,sans-Serif" font-size="10.00"> </text>
<polyline fill="none" stroke="black" points="241.5,-801 354.5,-801 "/>
<text text-anchor="middle" x="298" y="-789" font-family="Helvetica,sans-Serif" font-size="10.00"> </text>
</a>
</g>
</g>
<!-- Node7&#45;&gt;Node1 -->
<g id="edge7" class="edge">
<title>Node7&#45;&gt;Node1</title>
<path fill="none" stroke="#404040" d="M298,-781.84C298,-756.34 298,-718.18 298,-674.68"/>
<polygon fill="none" stroke="#404040" points="298,-674.59 294,-668.59 298,-662.59 302,-668.59 298,-674.59"/>
<text text-anchor="middle" x="325" y="-684" font-family="Helvetica,sans-Serif" font-size="10.00"> #entities_</text>
</g>
<!-- Node8 -->
<g id="node8" class="node">
<title>Node8</title>
<g id="a_node8"><a xlink:title=" ">
<polygon fill="none" stroke="black" points="373,-787.5 373,-844.5 517,-844.5 517,-787.5 373,-787.5"/>
<text text-anchor="middle" x="445" y="-832.5" font-family="Helvetica,sans-Serif" font-size="10.00">shared_ptr&lt; PlayerTank &gt;</text>
<polyline fill="none" stroke="black" points="373,-825.5 517,-825.5 "/>
<text text-anchor="middle" x="445" y="-813.5" font-family="Helvetica,sans-Serif" font-size="10.00"> </text>
<polyline fill="none" stroke="black" points="373,-806.5 517,-806.5 "/>
<text text-anchor="middle" x="445" y="-794.5" font-family="Helvetica,sans-Serif" font-size="10.00"> </text>
</a>
</g>
</g>
<!-- Node8&#45;&gt;Node1 -->
<g id="edge8" class="edge">
<title>Node8&#45;&gt;Node1</title>
<path fill="none" stroke="#404040" d="M436.57,-787.33C427.15,-756.43 410.83,-702.84 392.61,-643.05"/>
<polygon fill="none" stroke="#404040" points="392.57,-642.9 386.99,-638.32 389.07,-631.42 394.64,-635.99 392.57,-642.9"/>
<text text-anchor="middle" x="429" y="-684" font-family="Helvetica,sans-Serif" font-size="10.00"> #player_</text>
</g>
</g>
</svg>
