<?xml version="1.0" encoding="UTF-8" standalone="no"?>
<!DOCTYPE svg PUBLIC "-//W3C//DTD SVG 1.1//EN"
 "http://www.w3.org/Graphics/SVG/1.1/DTD/svg11.dtd">
<!-- Generated by graphviz version 2.43.0 (0)
 -->
<!-- Title: ActiveEventHandler Pages: 1 -->
<svg width="354pt" height="746pt"
 viewBox="0.00 0.00 353.50 746.00" xmlns="http://www.w3.org/2000/svg" xmlns:xlink="http://www.w3.org/1999/xlink">
<g id="graph0" class="graph" transform="scale(1 1) rotate(0) translate(4 742)">
<title>ActiveEventHandler</title>
<!-- Node1 -->
<g id="node1" class="node">
<title>Node1</title>
<g id="a_node1"><a xlink:title=" ">
<polygon fill="#bfbfbf" stroke="black" points="66.5,-0.5 66.5,-123.5 202.5,-123.5 202.5,-0.5 66.5,-0.5"/>
<text text-anchor="middle" x="134.5" y="-111.5" font-family="Helvetica,sans-Serif" font-size="10.00">ActiveEventHandler</text>
<polyline fill="none" stroke="black" points="66.5,-104.5 202.5,-104.5 "/>
<text text-anchor="start" x="74.5" y="-92.5" font-family="Helvetica,sans-Serif" font-size="10.00">&#45; Game * game_</text>
<polyline fill="none" stroke="black" points="66.5,-85.5 202.5,-85.5 "/>
<text text-anchor="start" x="74.5" y="-73.5" font-family="Helvetica,sans-Serif" font-size="10.00">+ ActiveEventHandler</text>
<text text-anchor="start" x="74.5" y="-62.5" font-family="Helvetica,sans-Serif" font-size="10.00">()=delete</text>
<text text-anchor="start" x="74.5" y="-51.5" font-family="Helvetica,sans-Serif" font-size="10.00">+ ActiveEventHandler</text>
<text text-anchor="start" x="74.5" y="-40.5" font-family="Helvetica,sans-Serif" font-size="10.00">(Game *game)</text>
<text text-anchor="start" x="74.5" y="-29.5" font-family="Helvetica,sans-Serif" font-size="10.00">+ void processEvent(std</text>
<text text-anchor="start" x="74.5" y="-18.5" font-family="Helvetica,sans-Serif" font-size="10.00">::unique_ptr&lt; Event &gt;</text>
<text text-anchor="start" x="74.5" y="-7.5" font-family="Helvetica,sans-Serif" font-size="10.00"> event) override</text>
</a>
</g>
</g>
<!-- Node2 -->
<g id="node2" class="node">
<title>Node2</title>
<g id="a_node2"><a xlink:href="$class_publisher_event_handler.html" xlink:title="Extended EventHandler for Event class events with publisher capabilities.">
<polygon fill="none" stroke="black" points="58.5,-161.5 58.5,-295.5 210.5,-295.5 210.5,-161.5 58.5,-161.5"/>
<text text-anchor="middle" x="134.5" y="-283.5" font-family="Helvetica,sans-Serif" font-size="10.00">PublisherEventHandler</text>
<polyline fill="none" stroke="black" points="58.5,-276.5 210.5,-276.5 "/>
<text text-anchor="middle" x="134.5" y="-264.5" font-family="Helvetica,sans-Serif" font-size="10.00"> </text>
<polyline fill="none" stroke="black" points="58.5,-257.5 210.5,-257.5 "/>
<text text-anchor="start" x="66.5" y="-245.5" font-family="Helvetica,sans-Serif" font-size="10.00">+ void handleEvent(std</text>
<text text-anchor="start" x="66.5" y="-234.5" font-family="Helvetica,sans-Serif" font-size="10.00">::unique_ptr&lt; Event &gt;</text>
<text text-anchor="start" x="66.5" y="-223.5" font-family="Helvetica,sans-Serif" font-size="10.00"> event) override</text>
<text text-anchor="start" x="66.5" y="-212.5" font-family="Helvetica,sans-Serif" font-size="10.00">+ virtual void processEvent</text>
<text text-anchor="start" x="66.5" y="-201.5" font-family="Helvetica,sans-Serif" font-size="10.00">(std::unique_ptr&lt; Event</text>
<text text-anchor="start" x="66.5" y="-190.5" font-family="Helvetica,sans-Serif" font-size="10.00"> &gt; event)=0</text>
<text text-anchor="start" x="66.5" y="-179.5" font-family="Helvetica,sans-Serif" font-size="10.00"># PublisherEventHandler</text>
<text text-anchor="start" x="66.5" y="-168.5" font-family="Helvetica,sans-Serif" font-size="10.00">()=default</text>
</a>
</g>
</g>
<!-- Node2&#45;&gt;Node1 -->
<g id="edge1" class="edge">
<title>Node2&#45;&gt;Node1</title>
<path fill="none" stroke="midnightblue" d="M134.5,-150.81C134.5,-141.67 134.5,-132.44 134.5,-123.57"/>
<polygon fill="none" stroke="midnightblue" points="131,-151.07 134.5,-161.07 138,-151.07 131,-151.07"/>
</g>
<!-- Node3 -->
<g id="node3" class="node">
<title>Node3</title>
<g id="a_node3"><a xlink:href="$class_event_publisher.html" xlink:title=" ">
<polygon fill="none" stroke="black" points="0,-333.5 0,-610.5 169,-610.5 169,-333.5 0,-333.5"/>
<text text-anchor="middle" x="84.5" y="-598.5" font-family="Helvetica,sans-Serif" font-size="10.00">EventPublisher</text>
<polyline fill="none" stroke="black" points="0,-591.5 169,-591.5 "/>
<text text-anchor="start" x="8" y="-579.5" font-family="Helvetica,sans-Serif" font-size="10.00"># std::map&lt; Event::EventType,</text>
<text text-anchor="start" x="8" y="-568.5" font-family="Helvetica,sans-Serif" font-size="10.00"> std::list&lt; EventSubscriber</text>
<text text-anchor="start" x="8" y="-557.5" font-family="Helvetica,sans-Serif" font-size="10.00"> * &gt; &gt; event_subscribers_</text>
<polyline fill="none" stroke="black" points="0,-550.5 169,-550.5 "/>
<text text-anchor="start" x="8" y="-538.5" font-family="Helvetica,sans-Serif" font-size="10.00">+ ~EventPublisher()</text>
<text text-anchor="start" x="8" y="-527.5" font-family="Helvetica,sans-Serif" font-size="10.00">+ virtual void notifyEvent</text>
<text text-anchor="start" x="8" y="-516.5" font-family="Helvetica,sans-Serif" font-size="10.00">Subscribers(Event::EventType</text>
<text text-anchor="start" x="8" y="-505.5" font-family="Helvetica,sans-Serif" font-size="10.00"> eventType)</text>
<text text-anchor="start" x="8" y="-494.5" font-family="Helvetica,sans-Serif" font-size="10.00">+ void attachEventSubscriber</text>
<text text-anchor="start" x="8" y="-483.5" font-family="Helvetica,sans-Serif" font-size="10.00">(EventSubscriber *sub, Event</text>
<text text-anchor="start" x="8" y="-472.5" font-family="Helvetica,sans-Serif" font-size="10.00">::EventType eventType)</text>
<text text-anchor="start" x="8" y="-461.5" font-family="Helvetica,sans-Serif" font-size="10.00">+ void detachEventSubscriber</text>
<text text-anchor="start" x="8" y="-450.5" font-family="Helvetica,sans-Serif" font-size="10.00">(EventSubscriber *sub, Event</text>
<text text-anchor="start" x="8" y="-439.5" font-family="Helvetica,sans-Serif" font-size="10.00">::EventType eventType)</text>
<text text-anchor="start" x="8" y="-428.5" font-family="Helvetica,sans-Serif" font-size="10.00">+ bool operator==(const</text>
<text text-anchor="start" x="8" y="-417.5" font-family="Helvetica,sans-Serif" font-size="10.00"> EventPublisher &amp;rhs)</text>
<text text-anchor="start" x="8" y="-406.5" font-family="Helvetica,sans-Serif" font-size="10.00"> const</text>
<text text-anchor="start" x="8" y="-395.5" font-family="Helvetica,sans-Serif" font-size="10.00">+ bool operator!=(const</text>
<text text-anchor="start" x="8" y="-384.5" font-family="Helvetica,sans-Serif" font-size="10.00"> EventPublisher &amp;rhs)</text>
<text text-anchor="start" x="8" y="-373.5" font-family="Helvetica,sans-Serif" font-size="10.00"> const</text>
<text text-anchor="start" x="8" y="-362.5" font-family="Helvetica,sans-Serif" font-size="10.00"># EventPublisher()=default</text>
<text text-anchor="start" x="8" y="-351.5" font-family="Helvetica,sans-Serif" font-size="10.00">&#45; void ensureEntryExists</text>
<text text-anchor="start" x="8" y="-340.5" font-family="Helvetica,sans-Serif" font-size="10.00">(Event::EventType eventType)</text>
</a>
</g>
</g>
<!-- Node3&#45;&gt;Node2 -->
<g id="edge2" class="edge">
<title>Node3&#45;&gt;Node2</title>
<path fill="none" stroke="midnightblue" d="M115.08,-323.31C117.05,-313.77 118.98,-304.47 120.8,-295.66"/>
<polygon fill="none" stroke="midnightblue" points="111.61,-322.82 113.01,-333.32 118.46,-324.24 111.61,-322.82"/>
</g>
<!-- Node4 -->
<g id="node4" class="node">
<title>Node4</title>
<g id="a_node4"><a xlink:href="$class_event_handler.html" xlink:title=" ">
<polygon fill="none" stroke="black" points="187,-427 187,-517 334,-517 334,-427 187,-427"/>
<text text-anchor="middle" x="260.5" y="-505" font-family="Helvetica,sans-Serif" font-size="10.00">EventHandler&lt; Event &gt;</text>
<polyline fill="none" stroke="black" points="187,-498 334,-498 "/>
<text text-anchor="middle" x="260.5" y="-486" font-family="Helvetica,sans-Serif" font-size="10.00"> </text>
<polyline fill="none" stroke="black" points="187,-479 334,-479 "/>
<text text-anchor="start" x="195" y="-467" font-family="Helvetica,sans-Serif" font-size="10.00">+ virtual void handleEvent</text>
<text text-anchor="start" x="195" y="-456" font-family="Helvetica,sans-Serif" font-size="10.00">(std::unique_ptr&lt; Event</text>
<text text-anchor="start" x="195" y="-445" font-family="Helvetica,sans-Serif" font-size="10.00"> &gt; event)=0</text>
<text text-anchor="start" x="195" y="-434" font-family="Helvetica,sans-Serif" font-size="10.00"># EventHandler()=default</text>
</a>
</g>
</g>
<!-- Node4&#45;&gt;Node2 -->
<g id="edge3" class="edge">
<title>Node4&#45;&gt;Node2</title>
<path fill="none" stroke="midnightblue" d="M232.9,-418.09C214.09,-382.05 189.06,-334.08 168.95,-295.53"/>
<polygon fill="none" stroke="midnightblue" points="229.81,-419.74 237.54,-426.99 236.01,-416.5 229.81,-419.74"/>
</g>
<!-- Node5 -->
<g id="node5" class="node">
<title>Node5</title>
<g id="a_node5"><a xlink:href="$class_event_handler.html" xlink:title=" ">
<polygon fill="none" stroke="black" points="175.5,-658.5 175.5,-737.5 345.5,-737.5 345.5,-658.5 175.5,-658.5"/>
<text text-anchor="middle" x="260.5" y="-725.5" font-family="Helvetica,sans-Serif" font-size="10.00">EventHandler&lt; E &gt;</text>
<polyline fill="none" stroke="black" points="175.5,-718.5 345.5,-718.5 "/>
<text text-anchor="middle" x="260.5" y="-706.5" font-family="Helvetica,sans-Serif" font-size="10.00"> </text>
<polyline fill="none" stroke="black" points="175.5,-699.5 345.5,-699.5 "/>
<text text-anchor="start" x="183.5" y="-687.5" font-family="Helvetica,sans-Serif" font-size="10.00">+ virtual void handleEvent</text>
<text text-anchor="start" x="183.5" y="-676.5" font-family="Helvetica,sans-Serif" font-size="10.00">(std::unique_ptr&lt; E &gt; event)=0</text>
<text text-anchor="start" x="183.5" y="-665.5" font-family="Helvetica,sans-Serif" font-size="10.00"># EventHandler()=default</text>
</a>
</g>
</g>
<!-- Node5&#45;&gt;Node4 -->
<g id="edge4" class="edge">
<title>Node5&#45;&gt;Node4</title>
<path fill="none" stroke="orange" d="M260.5,-648.41C260.5,-609.36 260.5,-554.97 260.5,-517.14"/>
<polygon fill="orange" stroke="orange" points="257,-648.49 260.5,-658.49 264,-648.49 257,-648.49"/>
<text text-anchor="middle" x="287.5" y="-632" font-family="Helvetica,sans-Serif" font-size="10.00"> &lt; Event &gt;</text>
</g>
</g>
</svg>
