<?xml version="1.0" encoding="UTF-8" standalone="no"?>
<!DOCTYPE svg PUBLIC "-//W3C//DTD SVG 1.1//EN"
 "http://www.w3.org/Graphics/SVG/1.1/DTD/svg11.dtd">
<!-- Generated by graphviz version 2.50.0 (0)
 -->
<!-- Title: Window Pages: 1 -->
<svg width="1595pt" height="799pt"
 viewBox="0.00 0.00 1594.50 799.00" xmlns="http://www.w3.org/2000/svg" xmlns:xlink="http://www.w3.org/1999/xlink">
<g id="graph0" class="graph" transform="scale(1 1) rotate(0) translate(4 795)">
<title>Window</title>
<!-- Node1 -->
<g id="node1" class="node">
<title>Node1</title>
<g id="a_node1"><a xlink:title="Contains main SFML functions.">
<polygon fill="#bfbfbf" stroke="black" points="733,-0.5 733,-343.5 917,-343.5 917,-0.5 733,-0.5"/>
<text text-anchor="middle" x="825" y="-331.5" font-family="Helvetica,sans-Serif" font-size="10.00">Window</text>
<polyline fill="none" stroke="black" points="733,-324.5 917,-324.5 "/>
<text text-anchor="middle" x="825" y="-312.5" font-family="Helvetica,sans-Serif" font-size="10.00"> </text>
<polyline fill="none" stroke="black" points="733,-305.5 917,-305.5 "/>
<text text-anchor="start" x="741" y="-293.5" font-family="Helvetica,sans-Serif" font-size="10.00">+ Window()</text>
<text text-anchor="start" x="741" y="-282.5" font-family="Helvetica,sans-Serif" font-size="10.00">+ void selectgameState</text>
<text text-anchor="start" x="741" y="-271.5" font-family="Helvetica,sans-Serif" font-size="10.00">(GameState *gmaeState)</text>
<text text-anchor="start" x="741" y="-260.5" font-family="Helvetica,sans-Serif" font-size="10.00">+ void initiateActiveState</text>
<text text-anchor="start" x="741" y="-249.5" font-family="Helvetica,sans-Serif" font-size="10.00">Pointers()</text>
<text text-anchor="start" x="741" y="-238.5" font-family="Helvetica,sans-Serif" font-size="10.00">+ void initateStaticStatePointers()</text>
<text text-anchor="start" x="741" y="-227.5" font-family="Helvetica,sans-Serif" font-size="10.00">+ void fetchMenuStatePointers</text>
<text text-anchor="start" x="741" y="-216.5" font-family="Helvetica,sans-Serif" font-size="10.00">(int selected)</text>
<text text-anchor="start" x="741" y="-205.5" font-family="Helvetica,sans-Serif" font-size="10.00">+ virtual void render</text>
<text text-anchor="start" x="741" y="-194.5" font-family="Helvetica,sans-Serif" font-size="10.00">() override</text>
<text text-anchor="start" x="741" y="-183.5" font-family="Helvetica,sans-Serif" font-size="10.00">+ void addEntity(std</text>
<text text-anchor="start" x="741" y="-172.5" font-family="Helvetica,sans-Serif" font-size="10.00">::shared_ptr&lt; Entity &gt; e)</text>
<text text-anchor="start" x="741" y="-161.5" font-family="Helvetica,sans-Serif" font-size="10.00">+ void removeEntity(std</text>
<text text-anchor="start" x="741" y="-150.5" font-family="Helvetica,sans-Serif" font-size="10.00">::shared_ptr&lt; Entity &gt; e)</text>
<text text-anchor="start" x="741" y="-139.5" font-family="Helvetica,sans-Serif" font-size="10.00">+ void loadLevel(Grid</text>
<text text-anchor="start" x="741" y="-128.5" font-family="Helvetica,sans-Serif" font-size="10.00"> *grid, int levelNumber,</text>
<text text-anchor="start" x="741" y="-117.5" font-family="Helvetica,sans-Serif" font-size="10.00"> std::pair&lt; uint, uint</text>
<text text-anchor="start" x="741" y="-106.5" font-family="Helvetica,sans-Serif" font-size="10.00"> &gt; eaglePos)</text>
<text text-anchor="start" x="741" y="-95.5" font-family="Helvetica,sans-Serif" font-size="10.00">+ void loadStats(int</text>
<text text-anchor="start" x="741" y="-84.5" font-family="Helvetica,sans-Serif" font-size="10.00"> playerLives, int points)</text>
<text text-anchor="start" x="741" y="-73.5" font-family="Helvetica,sans-Serif" font-size="10.00">+ void changeMenuPos</text>
<text text-anchor="start" x="741" y="-62.5" font-family="Helvetica,sans-Serif" font-size="10.00">(uint menuPos)</text>
<text text-anchor="start" x="741" y="-51.5" font-family="Helvetica,sans-Serif" font-size="10.00">+ std::string checkEntityType</text>
<text text-anchor="start" x="741" y="-40.5" font-family="Helvetica,sans-Serif" font-size="10.00">(std::shared_ptr&lt; Entity &gt; e)</text>
<text text-anchor="start" x="741" y="-29.5" font-family="Helvetica,sans-Serif" font-size="10.00">+ void gameWon()</text>
<text text-anchor="start" x="741" y="-18.5" font-family="Helvetica,sans-Serif" font-size="10.00"># void conscructComposit()</text>
<text text-anchor="start" x="741" y="-7.5" font-family="Helvetica,sans-Serif" font-size="10.00"># bool instanceOf(T *ptr)</text>
</a>
</g>
</g>
<!-- Node2 -->
<g id="node2" class="node">
<title>Node2</title>
<g id="a_node2"><a xlink:href="$class_abstract_window.html" xlink:title="Contains main SFML functions.">
<polygon fill="none" stroke="black" points="197,-391.5 197,-514.5 355,-514.5 355,-391.5 197,-391.5"/>
<text text-anchor="middle" x="276" y="-502.5" font-family="Helvetica,sans-Serif" font-size="10.00">AbstractWindow</text>
<polyline fill="none" stroke="black" points="197,-495.5 355,-495.5 "/>
<text text-anchor="middle" x="276" y="-483.5" font-family="Helvetica,sans-Serif" font-size="10.00"> </text>
<polyline fill="none" stroke="black" points="197,-476.5 355,-476.5 "/>
<text text-anchor="start" x="205" y="-464.5" font-family="Helvetica,sans-Serif" font-size="10.00">+ sf::RenderWindow *</text>
<text text-anchor="start" x="205" y="-453.5" font-family="Helvetica,sans-Serif" font-size="10.00"> getWindow()</text>
<text text-anchor="start" x="205" y="-442.5" font-family="Helvetica,sans-Serif" font-size="10.00">+ virtual void render()=0</text>
<text text-anchor="start" x="205" y="-431.5" font-family="Helvetica,sans-Serif" font-size="10.00">+ AbstractWindow()</text>
<text text-anchor="start" x="205" y="-420.5" font-family="Helvetica,sans-Serif" font-size="10.00">+ AbstractWindow(const</text>
<text text-anchor="start" x="205" y="-409.5" font-family="Helvetica,sans-Serif" font-size="10.00"> WindowView &amp;windowView)</text>
<text text-anchor="start" x="205" y="-398.5" font-family="Helvetica,sans-Serif" font-size="10.00">+ virtual ~AbstractWindow()</text>
</a>
</g>
</g>
<!-- Node2&#45;&gt;Node1 -->
<g id="edge1" class="edge">
<title>Node2&#45;&gt;Node1</title>
<path fill="none" stroke="midnightblue" d="M363.73,-391.16C363.82,-391.1 363.91,-391.05 364,-391 487.42,-319.69 637.93,-251.85 732.65,-211.32"/>
<polygon fill="none" stroke="midnightblue" points="362.05,-388.08 355.24,-396.2 365.63,-394.1 362.05,-388.08"/>
</g>
<!-- Node3 -->
<g id="node3" class="node">
<title>Node3</title>
<g id="a_node3"><a xlink:title=" ">
<polygon fill="none" stroke="#bfbfbf" points="368.5,-601 368.5,-658 433.5,-658 433.5,-601 368.5,-601"/>
<text text-anchor="middle" x="401" y="-646" font-family="Helvetica,sans-Serif" font-size="10.00">const uint</text>
<polyline fill="none" stroke="#bfbfbf" points="368.5,-639 433.5,-639 "/>
<text text-anchor="middle" x="401" y="-627" font-family="Helvetica,sans-Serif" font-size="10.00"> </text>
<polyline fill="none" stroke="#bfbfbf" points="368.5,-620 433.5,-620 "/>
<text text-anchor="middle" x="401" y="-608" font-family="Helvetica,sans-Serif" font-size="10.00"> </text>
</a>
</g>
</g>
<!-- Node3&#45;&gt;Node2 -->
<g id="edge2" class="edge">
<title>Node3&#45;&gt;Node2</title>
<path fill="none" stroke="#404040" d="M381.19,-600.85C366.54,-580.4 345.9,-551.58 326.77,-524.88"/>
<polygon fill="none" stroke="#404040" points="326.52,-524.53 319.77,-521.98 319.53,-514.77 326.28,-517.32 326.52,-524.53"/>
<text text-anchor="middle" x="404" y="-552.5" font-family="Helvetica,sans-Serif" font-size="10.00"> #WINDOW_HEIGHT</text>
<text text-anchor="middle" x="404" y="-541.5" font-family="Helvetica,sans-Serif" font-size="10.00">#WINDOW_WIDTH</text>
</g>
<!-- Node4 -->
<g id="node4" class="node">
<title>Node4</title>
<g id="a_node4"><a xlink:href="$struct_window_view.html" xlink:title="Struct that contains the sf::RenderWindow nad offset of elements to render.">
<polygon fill="none" stroke="black" points="1,-584.5 1,-674.5 183,-674.5 183,-584.5 1,-584.5"/>
<text text-anchor="middle" x="92" y="-662.5" font-family="Helvetica,sans-Serif" font-size="10.00">WindowView</text>
<polyline fill="none" stroke="black" points="1,-655.5 183,-655.5 "/>
<text text-anchor="middle" x="92" y="-643.5" font-family="Helvetica,sans-Serif" font-size="10.00"> </text>
<polyline fill="none" stroke="black" points="1,-636.5 183,-636.5 "/>
<text text-anchor="start" x="9" y="-624.5" font-family="Helvetica,sans-Serif" font-size="10.00">+ WindowView(sf::RenderWindow</text>
<text text-anchor="start" x="9" y="-613.5" font-family="Helvetica,sans-Serif" font-size="10.00"> *window, float topOffset,</text>
<text text-anchor="start" x="9" y="-602.5" font-family="Helvetica,sans-Serif" font-size="10.00"> float leftOffset)</text>
<text text-anchor="start" x="9" y="-591.5" font-family="Helvetica,sans-Serif" font-size="10.00">+ WindowView()</text>
</a>
</g>
</g>
<!-- Node4&#45;&gt;Node2 -->
<g id="edge3" class="edge">
<title>Node4&#45;&gt;Node2</title>
<path fill="none" stroke="#404040" d="M138.43,-584.47C157.99,-565.92 181.22,-543.89 202.97,-523.26"/>
<polygon fill="none" stroke="#404040" points="203.16,-523.08 204.76,-516.05 211.86,-514.82 210.26,-521.86 203.16,-523.08"/>
<text text-anchor="middle" x="226.5" y="-547" font-family="Helvetica,sans-Serif" font-size="10.00"> #windowView</text>
</g>
<!-- Node5 -->
<g id="node5" class="node">
<title>Node5</title>
<g id="a_node5"><a xlink:title=" ">
<polygon fill="none" stroke="#bfbfbf" points="0,-733.5 0,-790.5 98,-790.5 98,-733.5 0,-733.5"/>
<text text-anchor="middle" x="49" y="-778.5" font-family="Helvetica,sans-Serif" font-size="10.00">RenderWindow *</text>
<polyline fill="none" stroke="#bfbfbf" points="0,-771.5 98,-771.5 "/>
<text text-anchor="middle" x="49" y="-759.5" font-family="Helvetica,sans-Serif" font-size="10.00"> </text>
<polyline fill="none" stroke="#bfbfbf" points="0,-752.5 98,-752.5 "/>
<text text-anchor="middle" x="49" y="-740.5" font-family="Helvetica,sans-Serif" font-size="10.00"> </text>
</a>
</g>
</g>
<!-- Node5&#45;&gt;Node4 -->
<g id="edge4" class="edge">
<title>Node5&#45;&gt;Node4</title>
<path fill="none" stroke="#404040" d="M53.8,-733.19C56.29,-720.74 59.71,-705.97 64,-693 64.74,-690.76 65.54,-688.48 66.37,-686.2"/>
<polygon fill="none" stroke="#404040" points="66.47,-685.96 64.92,-678.92 70.83,-674.79 72.38,-681.83 66.47,-685.96"/>
<text text-anchor="middle" x="88.5" y="-701.5" font-family="Helvetica,sans-Serif" font-size="10.00"> +window</text>
</g>
<!-- Node6 -->
<g id="node6" class="node">
<title>Node6</title>
<g id="a_node6"><a xlink:title=" ">
<polygon fill="none" stroke="#bfbfbf" points="116,-733.5 116,-790.5 154,-790.5 154,-733.5 116,-733.5"/>
<text text-anchor="middle" x="135" y="-778.5" font-family="Helvetica,sans-Serif" font-size="10.00">float</text>
<polyline fill="none" stroke="#bfbfbf" points="116,-771.5 154,-771.5 "/>
<text text-anchor="middle" x="135" y="-759.5" font-family="Helvetica,sans-Serif" font-size="10.00"> </text>
<polyline fill="none" stroke="#bfbfbf" points="116,-752.5 154,-752.5 "/>
<text text-anchor="middle" x="135" y="-740.5" font-family="Helvetica,sans-Serif" font-size="10.00"> </text>
</a>
</g>
</g>
<!-- Node6&#45;&gt;Node4 -->
<g id="edge5" class="edge">
<title>Node6&#45;&gt;Node4</title>
<path fill="none" stroke="#404040" d="M126.08,-733.19C122.11,-720.86 117.35,-706.2 113,-693 112.26,-690.76 111.5,-688.47 110.74,-686.16"/>
<polygon fill="none" stroke="#404040" points="110.65,-685.91 104.96,-681.48 106.86,-674.53 112.55,-678.96 110.65,-685.91"/>
<text text-anchor="middle" x="148.5" y="-707" font-family="Helvetica,sans-Serif" font-size="10.00"> +leftOffset</text>
<text text-anchor="middle" x="148.5" y="-696" font-family="Helvetica,sans-Serif" font-size="10.00">+topOffset</text>
</g>
<!-- Node7 -->
<g id="node7" class="node">
<title>Node7</title>
<g id="a_node7"><a xlink:title=" ">
<polygon fill="none" stroke="#bfbfbf" points="201.5,-595.5 201.5,-663.5 350.5,-663.5 350.5,-595.5 201.5,-595.5"/>
<text text-anchor="start" x="209.5" y="-651.5" font-family="Helvetica,sans-Serif" font-size="10.00">vector&lt; std::shared</text>
<text text-anchor="middle" x="276" y="-640.5" font-family="Helvetica,sans-Serif" font-size="10.00">_ptr&lt; AbstractWindow &gt; &gt;</text>
<polyline fill="none" stroke="#bfbfbf" points="201.5,-633.5 350.5,-633.5 "/>
<text text-anchor="middle" x="276" y="-621.5" font-family="Helvetica,sans-Serif" font-size="10.00"> </text>
<polyline fill="none" stroke="#bfbfbf" points="201.5,-614.5 350.5,-614.5 "/>
<text text-anchor="middle" x="276" y="-602.5" font-family="Helvetica,sans-Serif" font-size="10.00"> </text>
</a>
</g>
</g>
<!-- Node7&#45;&gt;Node2 -->
<g id="edge6" class="edge">
<title>Node7&#45;&gt;Node2</title>
<path fill="none" stroke="#404040" d="M276,-595.27C276,-575.9 276,-550.68 276,-526.91"/>
<polygon fill="none" stroke="#404040" points="276,-526.66 272,-520.66 276,-514.66 280,-520.66 276,-526.66"/>
<text text-anchor="middle" x="301.5" y="-547" font-family="Helvetica,sans-Serif" font-size="10.00"> #children</text>
</g>
<!-- Node8 -->
<g id="node8" class="node">
<title>Node8</title>
<g id="a_node8"><a xlink:title=" ">
<polygon fill="none" stroke="#bfbfbf" points="373.5,-424.5 373.5,-481.5 552.5,-481.5 552.5,-424.5 373.5,-424.5"/>
<text text-anchor="middle" x="463" y="-469.5" font-family="Helvetica,sans-Serif" font-size="10.00">unique_ptr&lt; sf::RenderWindow &gt;</text>
<polyline fill="none" stroke="#bfbfbf" points="373.5,-462.5 552.5,-462.5 "/>
<text text-anchor="middle" x="463" y="-450.5" font-family="Helvetica,sans-Serif" font-size="10.00"> </text>
<polyline fill="none" stroke="#bfbfbf" points="373.5,-443.5 552.5,-443.5 "/>
<text text-anchor="middle" x="463" y="-431.5" font-family="Helvetica,sans-Serif" font-size="10.00"> </text>
</a>
</g>
</g>
<!-- Node8&#45;&gt;Node1 -->
<g id="edge7" class="edge">
<title>Node8&#45;&gt;Node1</title>
<path fill="none" stroke="#404040" d="M498.7,-424.48C550.45,-384.6 648.3,-309.18 723.41,-251.3"/>
<polygon fill="none" stroke="#404040" points="723.41,-251.3 725.72,-244.47 732.92,-243.97 730.61,-250.8 723.41,-251.3"/>
<text text-anchor="middle" x="594.5" y="-365" font-family="Helvetica,sans-Serif" font-size="10.00"> #window</text>
</g>
<!-- Node9 -->
<g id="node9" class="node">
<title>Node9</title>
<g id="a_node9"><a xlink:title=" ">
<polygon fill="none" stroke="#bfbfbf" points="570.5,-413.5 570.5,-492.5 729.5,-492.5 729.5,-413.5 570.5,-413.5"/>
<text text-anchor="start" x="578.5" y="-480.5" font-family="Helvetica,sans-Serif" font-size="10.00">unordered_map&lt; GameState</text>
<text text-anchor="start" x="578.5" y="-469.5" font-family="Helvetica,sans-Serif" font-size="10.00">Graphic, std::shared_ptr</text>
<text text-anchor="middle" x="650" y="-458.5" font-family="Helvetica,sans-Serif" font-size="10.00">&lt; AbstractWindow &gt; &gt;</text>
<polyline fill="none" stroke="#bfbfbf" points="570.5,-451.5 729.5,-451.5 "/>
<text text-anchor="middle" x="650" y="-439.5" font-family="Helvetica,sans-Serif" font-size="10.00"> </text>
<polyline fill="none" stroke="#bfbfbf" points="570.5,-432.5 729.5,-432.5 "/>
<text text-anchor="middle" x="650" y="-420.5" font-family="Helvetica,sans-Serif" font-size="10.00"> </text>
</a>
</g>
</g>
<!-- Node9&#45;&gt;Node1 -->
<g id="edge8" class="edge">
<title>Node9&#45;&gt;Node1</title>
<path fill="none" stroke="#404040" d="M674.15,-413.5C688.18,-391.14 706.88,-361.31 726.34,-330.3"/>
<polygon fill="none" stroke="#404040" points="726.58,-329.91 726.38,-322.7 732.96,-319.74 733.16,-326.95 726.58,-329.91"/>
<text text-anchor="middle" x="740" y="-365" font-family="Helvetica,sans-Serif" font-size="10.00"> #children_map</text>
</g>
<!-- Node10 -->
<g id="node10" class="node">
<title>Node10</title>
<g id="a_node10"><a xlink:href="$struct_window_1_1_active_state_pointers.html" xlink:title="Stores given ActiveState pointers.">
<polygon fill="none" stroke="black" points="920.5,-424.5 920.5,-481.5 1077.5,-481.5 1077.5,-424.5 920.5,-424.5"/>
<text text-anchor="middle" x="999" y="-469.5" font-family="Helvetica,sans-Serif" font-size="10.00">Window::ActiveStatePointers</text>
<polyline fill="none" stroke="black" points="920.5,-462.5 1077.5,-462.5 "/>
<text text-anchor="middle" x="999" y="-450.5" font-family="Helvetica,sans-Serif" font-size="10.00"> </text>
<polyline fill="none" stroke="black" points="920.5,-443.5 1077.5,-443.5 "/>
<text text-anchor="middle" x="999" y="-431.5" font-family="Helvetica,sans-Serif" font-size="10.00"> </text>
</a>
</g>
</g>
<!-- Node10&#45;&gt;Node1 -->
<g id="edge9" class="edge">
<title>Node10&#45;&gt;Node1</title>
<path fill="none" stroke="#404040" d="M981.84,-424.48C967.58,-401.61 946.02,-367.06 923.43,-330.82"/>
<polygon fill="none" stroke="#404040" points="923.38,-330.75 916.81,-327.77 917.03,-320.56 923.6,-323.54 923.38,-330.75"/>
<text text-anchor="middle" x="1000.5" y="-365" font-family="Helvetica,sans-Serif" font-size="10.00"> #activeStatePointers</text>
</g>
<!-- Node11 -->
<g id="node11" class="node">
<title>Node11</title>
<g id="a_node11"><a xlink:title=" ">
<polygon fill="none" stroke="#bfbfbf" points="803,-601 803,-658 907,-658 907,-601 803,-601"/>
<text text-anchor="middle" x="855" y="-646" font-family="Helvetica,sans-Serif" font-size="10.00">shared_ptr&lt; int &gt;</text>
<polyline fill="none" stroke="#bfbfbf" points="803,-639 907,-639 "/>
<text text-anchor="middle" x="855" y="-627" font-family="Helvetica,sans-Serif" font-size="10.00"> </text>
<polyline fill="none" stroke="#bfbfbf" points="803,-620 907,-620 "/>
<text text-anchor="middle" x="855" y="-608" font-family="Helvetica,sans-Serif" font-size="10.00"> </text>
</a>
</g>
</g>
<!-- Node11&#45;&gt;Node10 -->
<g id="edge10" class="edge">
<title>Node11&#45;&gt;Node10</title>
<path fill="none" stroke="#404040" d="M875.58,-600.96C890.18,-581.67 910.39,-555.45 929,-533 940.58,-519.04 953.66,-504.06 965.36,-490.94"/>
<polygon fill="none" stroke="#404040" points="965.59,-490.7 966.61,-483.56 973.6,-481.76 972.57,-488.9 965.59,-490.7"/>
<text text-anchor="middle" x="961.5" y="-558" font-family="Helvetica,sans-Serif" font-size="10.00"> +level</text>
<text text-anchor="middle" x="961.5" y="-547" font-family="Helvetica,sans-Serif" font-size="10.00">+playerLives</text>
<text text-anchor="middle" x="961.5" y="-536" font-family="Helvetica,sans-Serif" font-size="10.00">+points</text>
</g>
<!-- Node16 -->
<g id="node16" class="node">
<title>Node16</title>
<g id="a_node16"><a xlink:href="$struct_window_1_1_static_state_pointers.html" xlink:title="Stores MenuState pointers.">
<polygon fill="none" stroke="black" points="748,-424.5 748,-481.5 902,-481.5 902,-424.5 748,-424.5"/>
<text text-anchor="middle" x="825" y="-469.5" font-family="Helvetica,sans-Serif" font-size="10.00">Window::StaticStatePointers</text>
<polyline fill="none" stroke="black" points="748,-462.5 902,-462.5 "/>
<text text-anchor="middle" x="825" y="-450.5" font-family="Helvetica,sans-Serif" font-size="10.00"> </text>
<polyline fill="none" stroke="black" points="748,-443.5 902,-443.5 "/>
<text text-anchor="middle" x="825" y="-431.5" font-family="Helvetica,sans-Serif" font-size="10.00"> </text>
</a>
</g>
</g>
<!-- Node11&#45;&gt;Node16 -->
<g id="edge16" class="edge">
<title>Node11&#45;&gt;Node16</title>
<path fill="none" stroke="#404040" d="M841.61,-600.82C837.08,-590.18 832.54,-577.77 830,-566 824.92,-542.46 823.58,-515.52 823.56,-493.95"/>
<polygon fill="none" stroke="#404040" points="823.56,-493.95 819.62,-487.91 823.67,-481.95 827.61,-487.99 823.56,-493.95"/>
<text text-anchor="middle" x="858.5" y="-552.5" font-family="Helvetica,sans-Serif" font-size="10.00"> +menuPos</text>
<text text-anchor="middle" x="858.5" y="-541.5" font-family="Helvetica,sans-Serif" font-size="10.00">+points</text>
</g>
<!-- Node12 -->
<g id="node12" class="node">
<title>Node12</title>
<g id="a_node12"><a xlink:title=" ">
<polygon fill="none" stroke="#bfbfbf" points="1467.5,-601 1467.5,-658 1586.5,-658 1586.5,-601 1467.5,-601"/>
<text text-anchor="middle" x="1527" y="-646" font-family="Helvetica,sans-Serif" font-size="10.00">shared_ptr&lt; Grid * &gt;</text>
<polyline fill="none" stroke="#bfbfbf" points="1467.5,-639 1586.5,-639 "/>
<text text-anchor="middle" x="1527" y="-627" font-family="Helvetica,sans-Serif" font-size="10.00"> </text>
<polyline fill="none" stroke="#bfbfbf" points="1467.5,-620 1586.5,-620 "/>
<text text-anchor="middle" x="1527" y="-608" font-family="Helvetica,sans-Serif" font-size="10.00"> </text>
</a>
</g>
</g>
<!-- Node12&#45;&gt;Node10 -->
<g id="edge11" class="edge">
<title>Node12&#45;&gt;Node10</title>
<path fill="none" stroke="#404040" d="M1488.75,-600.95C1479.04,-594.77 1468.4,-588.67 1458,-584 1380.98,-549.39 1358.01,-548.42 1275,-533 1192.47,-517.67 1165.83,-543.84 1087,-515 1070.56,-508.99 1054.32,-499.14 1040.34,-489.11"/>
<polygon fill="none" stroke="#404040" points="1040.2,-489 1033,-488.61 1030.59,-481.81 1037.79,-482.2 1040.2,-489"/>
<text text-anchor="middle" x="1429.5" y="-547" font-family="Helvetica,sans-Serif" font-size="10.00"> +tiles</text>
</g>
<!-- Node13 -->
<g id="node13" class="node">
<title>Node13</title>
<g id="a_node13"><a xlink:title=" ">
<polygon fill="none" stroke="#bfbfbf" points="925,-601 925,-658 1071,-658 1071,-601 925,-601"/>
<text text-anchor="middle" x="998" y="-646" font-family="Helvetica,sans-Serif" font-size="10.00">shared_ptr&lt; sf::Vector2f &gt;</text>
<polyline fill="none" stroke="#bfbfbf" points="925,-639 1071,-639 "/>
<text text-anchor="middle" x="998" y="-627" font-family="Helvetica,sans-Serif" font-size="10.00"> </text>
<polyline fill="none" stroke="#bfbfbf" points="925,-620 1071,-620 "/>
<text text-anchor="middle" x="998" y="-608" font-family="Helvetica,sans-Serif" font-size="10.00"> </text>
</a>
</g>
</g>
<!-- Node13&#45;&gt;Node10 -->
<g id="edge12" class="edge">
<title>Node13&#45;&gt;Node10</title>
<path fill="none" stroke="#404040" d="M998.16,-600.85C998.32,-572 998.58,-526.51 998.77,-493.8"/>
<polygon fill="none" stroke="#404040" points="998.77,-493.52 994.81,-487.5 998.84,-481.52 1002.81,-487.54 998.77,-493.52"/>
<text text-anchor="middle" x="1026" y="-547" font-family="Helvetica,sans-Serif" font-size="10.00"> +eaglePos</text>
</g>
<!-- Node14 -->
<g id="node14" class="node">
<title>Node14</title>
<g id="a_node14"><a xlink:title=" ">
<polygon fill="none" stroke="#bfbfbf" points="1089,-595.5 1089,-663.5 1263,-663.5 1263,-595.5 1089,-595.5"/>
<text text-anchor="start" x="1097" y="-651.5" font-family="Helvetica,sans-Serif" font-size="10.00">shared_ptr&lt; std::vector</text>
<text text-anchor="middle" x="1176" y="-640.5" font-family="Helvetica,sans-Serif" font-size="10.00">&lt; std::shared_ptr&lt; Bullet &gt; &gt; &gt;</text>
<polyline fill="none" stroke="#bfbfbf" points="1089,-633.5 1263,-633.5 "/>
<text text-anchor="middle" x="1176" y="-621.5" font-family="Helvetica,sans-Serif" font-size="10.00"> </text>
<polyline fill="none" stroke="#bfbfbf" points="1089,-614.5 1263,-614.5 "/>
<text text-anchor="middle" x="1176" y="-602.5" font-family="Helvetica,sans-Serif" font-size="10.00"> </text>
</a>
</g>
</g>
<!-- Node14&#45;&gt;Node10 -->
<g id="edge13" class="edge">
<title>Node14&#45;&gt;Node10</title>
<path fill="none" stroke="#404040" d="M1142.29,-595.27C1111.89,-565.3 1067.27,-521.31 1035.92,-490.4"/>
<polygon fill="none" stroke="#404040" points="1035.59,-490.08 1028.51,-488.71 1027.05,-481.65 1034.13,-483.02 1035.59,-490.08"/>
<text text-anchor="middle" x="1130.5" y="-547" font-family="Helvetica,sans-Serif" font-size="10.00"> +bullets</text>
</g>
<!-- Node15 -->
<g id="node15" class="node">
<title>Node15</title>
<g id="a_node15"><a xlink:title=" ">
<polygon fill="none" stroke="#bfbfbf" points="1281,-595.5 1281,-663.5 1449,-663.5 1449,-595.5 1281,-595.5"/>
<text text-anchor="start" x="1289" y="-651.5" font-family="Helvetica,sans-Serif" font-size="10.00">shared_ptr&lt; std::vector</text>
<text text-anchor="middle" x="1365" y="-640.5" font-family="Helvetica,sans-Serif" font-size="10.00">&lt; std::shared_ptr&lt; Tank &gt; &gt; &gt;</text>
<polyline fill="none" stroke="#bfbfbf" points="1281,-633.5 1449,-633.5 "/>
<text text-anchor="middle" x="1365" y="-621.5" font-family="Helvetica,sans-Serif" font-size="10.00"> </text>
<polyline fill="none" stroke="#bfbfbf" points="1281,-614.5 1449,-614.5 "/>
<text text-anchor="middle" x="1365" y="-602.5" font-family="Helvetica,sans-Serif" font-size="10.00"> </text>
</a>
</g>
</g>
<!-- Node15&#45;&gt;Node10 -->
<g id="edge14" class="edge">
<title>Node15&#45;&gt;Node10</title>
<path fill="none" stroke="#404040" d="M1296.54,-595.47C1288.29,-591.57 1279.97,-587.67 1272,-584 1221.22,-560.6 1209.81,-551.36 1157,-533 1126.66,-522.45 1116.21,-528.36 1087,-515 1071.78,-508.04 1056.38,-498.43 1042.8,-488.89"/>
<polygon fill="none" stroke="#404040" points="1042.54,-488.7 1035.33,-488.42 1032.82,-481.66 1040.02,-481.94 1042.54,-488.7"/>
<text text-anchor="middle" x="1251.5" y="-547" font-family="Helvetica,sans-Serif" font-size="10.00"> +tanks</text>
</g>
<!-- Node16&#45;&gt;Node1 -->
<g id="edge15" class="edge">
<title>Node16&#45;&gt;Node1</title>
<path fill="none" stroke="#404040" d="M825,-424.48C825,-406.94 825,-382.52 825,-355.74"/>
<polygon fill="none" stroke="#404040" points="825,-355.71 821,-349.71 825,-343.71 829,-349.71 825,-355.71"/>
<text text-anchor="middle" x="879.5" y="-365" font-family="Helvetica,sans-Serif" font-size="10.00"> #staticStatesPointers</text>
</g>
<!-- Node17 -->
<g id="node17" class="node">
<title>Node17</title>
<g id="a_node17"><a xlink:title=" ">
<polygon fill="none" stroke="#bfbfbf" points="521,-601 521,-658 633,-658 633,-601 521,-601"/>
<text text-anchor="middle" x="577" y="-646" font-family="Helvetica,sans-Serif" font-size="10.00">shared_ptr&lt; bool &gt;</text>
<polyline fill="none" stroke="#bfbfbf" points="521,-639 633,-639 "/>
<text text-anchor="middle" x="577" y="-627" font-family="Helvetica,sans-Serif" font-size="10.00"> </text>
<polyline fill="none" stroke="#bfbfbf" points="521,-620 633,-620 "/>
<text text-anchor="middle" x="577" y="-608" font-family="Helvetica,sans-Serif" font-size="10.00"> </text>
</a>
</g>
</g>
<!-- Node17&#45;&gt;Node16 -->
<g id="edge17" class="edge">
<title>Node17&#45;&gt;Node16</title>
<path fill="none" stroke="#404040" d="M598.42,-600.76C616.4,-579.29 643.92,-550.38 674,-533 699.96,-518 711.92,-527.86 739,-515 753.89,-507.93 768.94,-498.28 782.21,-488.75"/>
<polygon fill="none" stroke="#404040" points="782.32,-488.67 784.76,-481.88 791.96,-481.53 789.52,-488.31 782.32,-488.67"/>
<text text-anchor="middle" x="704.5" y="-547" font-family="Helvetica,sans-Serif" font-size="10.00"> +gameWon</text>
</g>
<!-- Node18 -->
<g id="node18" class="node">
<title>Node18</title>
<g id="a_node18"><a xlink:title=" ">
<polygon fill="none" stroke="#bfbfbf" points="651,-595.5 651,-663.5 785,-663.5 785,-595.5 651,-595.5"/>
<text text-anchor="start" x="659" y="-651.5" font-family="Helvetica,sans-Serif" font-size="10.00">shared_ptr&lt; Window</text>
<text text-anchor="middle" x="718" y="-640.5" font-family="Helvetica,sans-Serif" font-size="10.00">::GameStateGraphic * &gt;</text>
<polyline fill="none" stroke="#bfbfbf" points="651,-633.5 785,-633.5 "/>
<text text-anchor="middle" x="718" y="-621.5" font-family="Helvetica,sans-Serif" font-size="10.00"> </text>
<polyline fill="none" stroke="#bfbfbf" points="651,-614.5 785,-614.5 "/>
<text text-anchor="middle" x="718" y="-602.5" font-family="Helvetica,sans-Serif" font-size="10.00"> </text>
</a>
</g>
</g>
<!-- Node18&#45;&gt;Node16 -->
<g id="edge18" class="edge">
<title>Node18&#45;&gt;Node16</title>
<path fill="none" stroke="#404040" d="M728.07,-595.37C734.59,-576.37 744.09,-552.49 756,-533 765.09,-518.12 777.03,-503.32 788.42,-490.62"/>
<polygon fill="none" stroke="#404040" points="788.44,-490.6 789.57,-483.47 796.57,-481.77 795.45,-488.89 788.44,-490.6"/>
<text text-anchor="middle" x="788.5" y="-547" font-family="Helvetica,sans-Serif" font-size="10.00"> +gameState</text>
</g>
<!-- Node19 -->
<g id="node19" class="node">
<title>Node19</title>
<g id="a_node19"><a xlink:title=" ">
<polygon fill="none" stroke="#bfbfbf" points="1095.5,-424.5 1095.5,-481.5 1166.5,-481.5 1166.5,-424.5 1095.5,-424.5"/>
<text text-anchor="middle" x="1131" y="-469.5" font-family="Helvetica,sans-Serif" font-size="10.00">VideoMode</text>
<polyline fill="none" stroke="#bfbfbf" points="1095.5,-462.5 1166.5,-462.5 "/>
<text text-anchor="middle" x="1131" y="-450.5" font-family="Helvetica,sans-Serif" font-size="10.00"> </text>
<polyline fill="none" stroke="#bfbfbf" points="1095.5,-443.5 1166.5,-443.5 "/>
<text text-anchor="middle" x="1131" y="-431.5" font-family="Helvetica,sans-Serif" font-size="10.00"> </text>
</a>
</g>
</g>
<!-- Node19&#45;&gt;Node1 -->
<g id="edge19" class="edge">
<title>Node19&#45;&gt;Node1</title>
<path fill="none" stroke="#404040" d="M1112.41,-424.27C1104.89,-413.58 1095.89,-401.44 1087,-391 1040.25,-336.07 978.62,-284.03 926.88,-244.57"/>
<polygon fill="none" stroke="#404040" points="926.58,-244.34 919.38,-243.92 917.01,-237.11 924.2,-237.53 926.58,-244.34"/>
<text text-anchor="middle" x="1101" y="-365" font-family="Helvetica,sans-Serif" font-size="10.00"> #videoMode</text>
</g>
<!-- Node20 -->
<g id="node20" class="node">
<title>Node20</title>
<g id="a_node20"><a xlink:title=" ">
<polygon fill="none" stroke="#bfbfbf" points="1184.5,-424.5 1184.5,-481.5 1293.5,-481.5 1293.5,-424.5 1184.5,-424.5"/>
<text text-anchor="middle" x="1239" y="-469.5" font-family="Helvetica,sans-Serif" font-size="10.00">GameStateGraphic</text>
<polyline fill="none" stroke="#bfbfbf" points="1184.5,-462.5 1293.5,-462.5 "/>
<text text-anchor="middle" x="1239" y="-450.5" font-family="Helvetica,sans-Serif" font-size="10.00"> </text>
<polyline fill="none" stroke="#bfbfbf" points="1184.5,-443.5 1293.5,-443.5 "/>
<text text-anchor="middle" x="1239" y="-431.5" font-family="Helvetica,sans-Serif" font-size="10.00"> </text>
</a>
</g>
</g>
<!-- Node20&#45;&gt;Node1 -->
<g id="edge20" class="edge">
<title>Node20&#45;&gt;Node1</title>
<path fill="none" stroke="#404040" d="M1211.75,-424.25C1200.89,-413.56 1188.12,-401.43 1176,-391 1099.43,-325.11 1000.89,-265.74 927.72,-225.66"/>
<polygon fill="none" stroke="#404040" points="927.65,-225.63 920.47,-226.27 917.11,-219.89 924.29,-219.24 927.65,-225.63"/>
<text text-anchor="middle" x="1182.5" y="-365" font-family="Helvetica,sans-Serif" font-size="10.00"> #gameState</text>
</g>
</g>
</svg>
