<?xml version="1.0" encoding="UTF-8" standalone="no"?>
<!DOCTYPE svg PUBLIC "-//W3C//DTD SVG 1.1//EN"
 "http://www.w3.org/Graphics/SVG/1.1/DTD/svg11.dtd">
<!-- Generated by graphviz version 2.43.0 (0)
 -->
<!-- Title: EntityController Pages: 1 -->
<svg width="525pt" height="1283pt"
 viewBox="0.00 0.00 525.00 1283.00" xmlns="http://www.w3.org/2000/svg" xmlns:xlink="http://www.w3.org/1999/xlink">
<g id="graph0" class="graph" transform="scale(1 1) rotate(0) translate(4 1279)">
<title>EntityController</title>
<!-- Node1 -->
<g id="node1" class="node">
<title>Node1</title>
<g id="a_node1"><a xlink:title="Aggregates and manipulates Entity objects.">
<polygon fill="#bfbfbf" stroke="black" points="207,-0.5 207,-640.5 389,-640.5 389,-0.5 207,-0.5"/>
<text text-anchor="middle" x="298" y="-628.5" font-family="Helvetica,sans-Serif" font-size="10.00">EntityController</text>
<polyline fill="none" stroke="black" points="207,-621.5 389,-621.5 "/>
<text text-anchor="middle" x="298" y="-609.5" font-family="Helvetica,sans-Serif" font-size="10.00"> </text>
<polyline fill="none" stroke="black" points="207,-602.5 389,-602.5 "/>
<text text-anchor="start" x="215" y="-590.5" font-family="Helvetica,sans-Serif" font-size="10.00">+ EntityController()</text>
<text text-anchor="start" x="215" y="-579.5" font-family="Helvetica,sans-Serif" font-size="10.00">+ std::shared_ptr&lt; Tank</text>
<text text-anchor="start" x="215" y="-568.5" font-family="Helvetica,sans-Serif" font-size="10.00"> &gt; createTank(unsigned</text>
<text text-anchor="start" x="215" y="-557.5" font-family="Helvetica,sans-Serif" font-size="10.00"> int x, unsigned int y,</text>
<text text-anchor="start" x="215" y="-546.5" font-family="Helvetica,sans-Serif" font-size="10.00"> Tank::TankType type, Direction</text>
<text text-anchor="start" x="215" y="-535.5" font-family="Helvetica,sans-Serif" font-size="10.00"> facing=North)</text>
<text text-anchor="start" x="215" y="-524.5" font-family="Helvetica,sans-Serif" font-size="10.00">+ void hitTank(std::shared</text>
<text text-anchor="start" x="215" y="-513.5" font-family="Helvetica,sans-Serif" font-size="10.00">_ptr&lt; Tank &gt; target, unsigned</text>
<text text-anchor="start" x="215" y="-502.5" font-family="Helvetica,sans-Serif" font-size="10.00"> int damage=1)</text>
<text text-anchor="start" x="215" y="-491.5" font-family="Helvetica,sans-Serif" font-size="10.00">+ void killTank(std::</text>
<text text-anchor="start" x="215" y="-480.5" font-family="Helvetica,sans-Serif" font-size="10.00">shared_ptr&lt; Tank &gt; tank)</text>
<text text-anchor="start" x="215" y="-469.5" font-family="Helvetica,sans-Serif" font-size="10.00">+ void removeEntity(std</text>
<text text-anchor="start" x="215" y="-458.5" font-family="Helvetica,sans-Serif" font-size="10.00">::shared_ptr&lt; Entity</text>
<text text-anchor="start" x="215" y="-447.5" font-family="Helvetica,sans-Serif" font-size="10.00"> &gt; entity)</text>
<text text-anchor="start" x="215" y="-436.5" font-family="Helvetica,sans-Serif" font-size="10.00">+ void moveAllEntities()</text>
<text text-anchor="start" x="215" y="-425.5" font-family="Helvetica,sans-Serif" font-size="10.00">+ void moveEntity(std</text>
<text text-anchor="start" x="215" y="-414.5" font-family="Helvetica,sans-Serif" font-size="10.00">::shared_ptr&lt; Entity</text>
<text text-anchor="start" x="215" y="-403.5" font-family="Helvetica,sans-Serif" font-size="10.00"> &gt; target)</text>
<text text-anchor="start" x="215" y="-392.5" font-family="Helvetica,sans-Serif" font-size="10.00">+ void setTankMoving</text>
<text text-anchor="start" x="215" y="-381.5" font-family="Helvetica,sans-Serif" font-size="10.00">(const std::shared_ptr</text>
<text text-anchor="start" x="215" y="-370.5" font-family="Helvetica,sans-Serif" font-size="10.00">&lt; Tank &gt; &amp;target, bool</text>
<text text-anchor="start" x="215" y="-359.5" font-family="Helvetica,sans-Serif" font-size="10.00"> isMoving)</text>
<text text-anchor="start" x="215" y="-348.5" font-family="Helvetica,sans-Serif" font-size="10.00">+ void setTankDirection</text>
<text text-anchor="start" x="215" y="-337.5" font-family="Helvetica,sans-Serif" font-size="10.00">(const std::shared_ptr</text>
<text text-anchor="start" x="215" y="-326.5" font-family="Helvetica,sans-Serif" font-size="10.00">&lt; Tank &gt; &amp;target, Direction</text>
<text text-anchor="start" x="215" y="-315.5" font-family="Helvetica,sans-Serif" font-size="10.00"> direction)</text>
<text text-anchor="start" x="215" y="-304.5" font-family="Helvetica,sans-Serif" font-size="10.00">+ std::optional&lt; std</text>
<text text-anchor="start" x="215" y="-293.5" font-family="Helvetica,sans-Serif" font-size="10.00">::shared_ptr&lt; Entity</text>
<text text-anchor="start" x="215" y="-282.5" font-family="Helvetica,sans-Serif" font-size="10.00"> &gt; &gt; findEntityAtPosition</text>
<text text-anchor="start" x="215" y="-271.5" font-family="Helvetica,sans-Serif" font-size="10.00">(float x, float y, std::</text>
<text text-anchor="start" x="215" y="-260.5" font-family="Helvetica,sans-Serif" font-size="10.00">optional&lt; std::shared_ptr</text>
<text text-anchor="start" x="215" y="-249.5" font-family="Helvetica,sans-Serif" font-size="10.00">&lt; Entity &gt; &gt; ignored=std::</text>
<text text-anchor="start" x="215" y="-238.5" font-family="Helvetica,sans-Serif" font-size="10.00">nullopt)</text>
<text text-anchor="start" x="215" y="-227.5" font-family="Helvetica,sans-Serif" font-size="10.00">+ std::shared_ptr&lt; PlayerTank</text>
<text text-anchor="start" x="215" y="-216.5" font-family="Helvetica,sans-Serif" font-size="10.00"> &gt; getPlayer()</text>
<text text-anchor="start" x="215" y="-205.5" font-family="Helvetica,sans-Serif" font-size="10.00">+ std::shared_ptr&lt; PlayerTank</text>
<text text-anchor="start" x="215" y="-194.5" font-family="Helvetica,sans-Serif" font-size="10.00"> &gt; addEntity(const std::</text>
<text text-anchor="start" x="215" y="-183.5" font-family="Helvetica,sans-Serif" font-size="10.00">shared_ptr&lt; PlayerTank &gt;</text>
<text text-anchor="start" x="215" y="-172.5" font-family="Helvetica,sans-Serif" font-size="10.00"> &amp;playerTank)</text>
<text text-anchor="start" x="215" y="-161.5" font-family="Helvetica,sans-Serif" font-size="10.00">+ std::shared_ptr&lt; Tank</text>
<text text-anchor="start" x="215" y="-150.5" font-family="Helvetica,sans-Serif" font-size="10.00"> &gt; addEntity(std::shared</text>
<text text-anchor="start" x="215" y="-139.5" font-family="Helvetica,sans-Serif" font-size="10.00">_ptr&lt; Tank &gt; newTank)</text>
<text text-anchor="start" x="215" y="-128.5" font-family="Helvetica,sans-Serif" font-size="10.00">+ std::shared_ptr&lt; Bullet</text>
<text text-anchor="start" x="215" y="-117.5" font-family="Helvetica,sans-Serif" font-size="10.00"> &gt; addEntity(std::shared</text>
<text text-anchor="start" x="215" y="-106.5" font-family="Helvetica,sans-Serif" font-size="10.00">_ptr&lt; Bullet &gt; newBullet)</text>
<text text-anchor="start" x="215" y="-95.5" font-family="Helvetica,sans-Serif" font-size="10.00">+ std::shared_ptr&lt; Entity</text>
<text text-anchor="start" x="215" y="-84.5" font-family="Helvetica,sans-Serif" font-size="10.00"> &gt; addEntity(std::shared</text>
<text text-anchor="start" x="215" y="-73.5" font-family="Helvetica,sans-Serif" font-size="10.00">_ptr&lt; Entity &gt; newEntity)</text>
<text text-anchor="start" x="215" y="-62.5" font-family="Helvetica,sans-Serif" font-size="10.00">+ bool checkEntityCollisions</text>
<text text-anchor="start" x="215" y="-51.5" font-family="Helvetica,sans-Serif" font-size="10.00">(const std::shared_ptr&lt;</text>
<text text-anchor="start" x="215" y="-40.5" font-family="Helvetica,sans-Serif" font-size="10.00"> Entity &gt; &amp;target)</text>
<text text-anchor="start" x="215" y="-29.5" font-family="Helvetica,sans-Serif" font-size="10.00">+ std::vector&lt; std::shared</text>
<text text-anchor="start" x="215" y="-18.5" font-family="Helvetica,sans-Serif" font-size="10.00">_ptr&lt; Entity &gt; &gt; * getAllEntities()</text>
<text text-anchor="start" x="215" y="-7.5" font-family="Helvetica,sans-Serif" font-size="10.00">+ void clear()</text>
</a>
</g>
</g>
<!-- Node2 -->
<g id="node2" class="node">
<title>Node2</title>
<g id="a_node2"><a xlink:href="$class_event_queue.html" xlink:title=" ">
<polygon fill="none" stroke="black" points="73,-688.5 73,-899.5 223,-899.5 223,-688.5 73,-688.5"/>
<text text-anchor="middle" x="148" y="-887.5" font-family="Helvetica,sans-Serif" font-size="10.00">EventQueue&lt; Event &gt;</text>
<polyline fill="none" stroke="black" points="73,-880.5 223,-880.5 "/>
<text text-anchor="middle" x="148" y="-868.5" font-family="Helvetica,sans-Serif" font-size="10.00"> </text>
<polyline fill="none" stroke="black" points="73,-861.5 223,-861.5 "/>
<text text-anchor="start" x="81" y="-849.5" font-family="Helvetica,sans-Serif" font-size="10.00">+ EventQueue(EventQueue</text>
<text text-anchor="start" x="81" y="-838.5" font-family="Helvetica,sans-Serif" font-size="10.00"> &amp;)=delete</text>
<text text-anchor="start" x="81" y="-827.5" font-family="Helvetica,sans-Serif" font-size="10.00">+ bool operator=(const</text>
<text text-anchor="start" x="81" y="-816.5" font-family="Helvetica,sans-Serif" font-size="10.00"> EventQueue &amp;)=delete</text>
<text text-anchor="start" x="81" y="-805.5" font-family="Helvetica,sans-Serif" font-size="10.00">+ void registerEvent</text>
<text text-anchor="start" x="81" y="-794.5" font-family="Helvetica,sans-Serif" font-size="10.00">(std::unique_ptr&lt; Event</text>
<text text-anchor="start" x="81" y="-783.5" font-family="Helvetica,sans-Serif" font-size="10.00"> &gt; event)</text>
<text text-anchor="start" x="81" y="-772.5" font-family="Helvetica,sans-Serif" font-size="10.00">+ std::unique_ptr&lt; Event</text>
<text text-anchor="start" x="81" y="-761.5" font-family="Helvetica,sans-Serif" font-size="10.00"> &gt; pop()</text>
<text text-anchor="start" x="81" y="-750.5" font-family="Helvetica,sans-Serif" font-size="10.00">+ bool isEmpty()</text>
<text text-anchor="start" x="81" y="-739.5" font-family="Helvetica,sans-Serif" font-size="10.00">+ unsigned int size()</text>
<text text-anchor="start" x="81" y="-728.5" font-family="Helvetica,sans-Serif" font-size="10.00">+ void clear()</text>
<text text-anchor="start" x="81" y="-717.5" font-family="Helvetica,sans-Serif" font-size="10.00">+ static EventQueue *</text>
<text text-anchor="start" x="81" y="-706.5" font-family="Helvetica,sans-Serif" font-size="10.00"> instance()</text>
<text text-anchor="start" x="81" y="-695.5" font-family="Helvetica,sans-Serif" font-size="10.00">&#45; EventQueue()=default</text>
</a>
</g>
</g>
<!-- Node2&#45;&gt;Node1 -->
<g id="edge1" class="edge">
<title>Node2&#45;&gt;Node1</title>
<path fill="none" stroke="#404040" d="M181.29,-688.36C188.07,-667.05 195.52,-643.64 203.27,-619.28"/>
<polygon fill="none" stroke="#404040" points="203.33,-619.07 201.34,-612.14 206.97,-607.63 208.96,-614.56 203.33,-619.07"/>
<text text-anchor="middle" x="227" y="-662" font-family="Helvetica,sans-Serif" font-size="10.00"> #eventQueue_</text>
</g>
<!-- Node3 -->
<g id="node3" class="node">
<title>Node3</title>
<g id="a_node3"><a xlink:href="$classstd_1_1queue_3_01std_1_1unique__ptr_3_01_event_01_4_01_4.html" xlink:title=" ">
<polygon fill="none" stroke="black" points="0,-1019 0,-1087 112,-1087 112,-1019 0,-1019"/>
<text text-anchor="start" x="8" y="-1075" font-family="Helvetica,sans-Serif" font-size="10.00">queue&lt; std::unique</text>
<text text-anchor="middle" x="56" y="-1064" font-family="Helvetica,sans-Serif" font-size="10.00">_ptr&lt; Event &gt; &gt;</text>
<polyline fill="none" stroke="black" points="0,-1057 112,-1057 "/>
<text text-anchor="middle" x="56" y="-1045" font-family="Helvetica,sans-Serif" font-size="10.00"> </text>
<polyline fill="none" stroke="black" points="0,-1038 112,-1038 "/>
<text text-anchor="middle" x="56" y="-1026" font-family="Helvetica,sans-Serif" font-size="10.00"> </text>
</a>
</g>
</g>
<!-- Node3&#45;&gt;Node2 -->
<g id="edge2" class="edge">
<title>Node3&#45;&gt;Node2</title>
<path fill="none" stroke="#404040" d="M60.35,-1018.82C64.56,-991.27 72.09,-951.35 84,-918 84.8,-915.75 85.64,-913.48 86.51,-911.21"/>
<polygon fill="none" stroke="#404040" points="86.61,-910.97 85.14,-903.91 91.09,-899.83 92.56,-906.89 86.61,-910.97"/>
<text text-anchor="middle" x="109" y="-921" font-family="Helvetica,sans-Serif" font-size="10.00"> #events_</text>
</g>
<!-- Node4 -->
<g id="node4" class="node">
<title>Node4</title>
<g id="a_node4"><a xlink:title=" ">
<polygon fill="none" stroke="black" points="73,-1212 73,-1269 223,-1269 223,-1212 73,-1212"/>
<text text-anchor="middle" x="148" y="-1257" font-family="Helvetica,sans-Serif" font-size="10.00">unique_ptr&lt; EventQueue &gt;</text>
<polyline fill="none" stroke="black" points="73,-1250 223,-1250 "/>
<text text-anchor="middle" x="148" y="-1238" font-family="Helvetica,sans-Serif" font-size="10.00"> </text>
<polyline fill="none" stroke="black" points="73,-1231 223,-1231 "/>
<text text-anchor="middle" x="148" y="-1219" font-family="Helvetica,sans-Serif" font-size="10.00"> </text>
</a>
</g>
</g>
<!-- Node4&#45;&gt;Node2 -->
<g id="edge3" class="edge">
<title>Node4&#45;&gt;Node2</title>
<path fill="none" stroke="#404040" d="M148,-1211.69C148,-1152.98 148,-1013.4 148,-911.93"/>
<polygon fill="none" stroke="#404040" points="148,-911.75 144,-905.75 148,-899.75 152,-905.75 148,-911.75"/>
<text text-anchor="middle" x="165.5" y="-1050.5" font-family="Helvetica,sans-Serif" font-size="10.00"> #self_</text>
</g>
<!-- Node5 -->
<g id="node5" class="node">
<title>Node5</title>
<g id="a_node5"><a xlink:href="$class_event_queue.html" xlink:title="Singleton class wrapper for std::queue&lt;E&gt;.">
<polygon fill="none" stroke="black" points="201,-947.5 201,-1158.5 351,-1158.5 351,-947.5 201,-947.5"/>
<text text-anchor="middle" x="276" y="-1146.5" font-family="Helvetica,sans-Serif" font-size="10.00">EventQueue&lt; E &gt;</text>
<polyline fill="none" stroke="black" points="201,-1139.5 351,-1139.5 "/>
<text text-anchor="middle" x="276" y="-1127.5" font-family="Helvetica,sans-Serif" font-size="10.00"> </text>
<polyline fill="none" stroke="black" points="201,-1120.5 351,-1120.5 "/>
<text text-anchor="start" x="209" y="-1108.5" font-family="Helvetica,sans-Serif" font-size="10.00">+ EventQueue(EventQueue</text>
<text text-anchor="start" x="209" y="-1097.5" font-family="Helvetica,sans-Serif" font-size="10.00"> &amp;)=delete</text>
<text text-anchor="start" x="209" y="-1086.5" font-family="Helvetica,sans-Serif" font-size="10.00">+ bool operator=(const</text>
<text text-anchor="start" x="209" y="-1075.5" font-family="Helvetica,sans-Serif" font-size="10.00"> EventQueue &amp;)=delete</text>
<text text-anchor="start" x="209" y="-1064.5" font-family="Helvetica,sans-Serif" font-size="10.00">+ void registerEvent</text>
<text text-anchor="start" x="209" y="-1053.5" font-family="Helvetica,sans-Serif" font-size="10.00">(std::unique_ptr&lt; E</text>
<text text-anchor="start" x="209" y="-1042.5" font-family="Helvetica,sans-Serif" font-size="10.00"> &gt; event)</text>
<text text-anchor="start" x="209" y="-1031.5" font-family="Helvetica,sans-Serif" font-size="10.00">+ std::unique_ptr&lt; E</text>
<text text-anchor="start" x="209" y="-1020.5" font-family="Helvetica,sans-Serif" font-size="10.00"> &gt; pop()</text>
<text text-anchor="start" x="209" y="-1009.5" font-family="Helvetica,sans-Serif" font-size="10.00">+ bool isEmpty()</text>
<text text-anchor="start" x="209" y="-998.5" font-family="Helvetica,sans-Serif" font-size="10.00">+ unsigned int size()</text>
<text text-anchor="start" x="209" y="-987.5" font-family="Helvetica,sans-Serif" font-size="10.00">+ void clear()</text>
<text text-anchor="start" x="209" y="-976.5" font-family="Helvetica,sans-Serif" font-size="10.00">+ static EventQueue *</text>
<text text-anchor="start" x="209" y="-965.5" font-family="Helvetica,sans-Serif" font-size="10.00"> instance()</text>
<text text-anchor="start" x="209" y="-954.5" font-family="Helvetica,sans-Serif" font-size="10.00">&#45; EventQueue()=default</text>
</a>
</g>
</g>
<!-- Node4&#45;&gt;Node5 -->
<g id="edge6" class="edge">
<title>Node4&#45;&gt;Node5</title>
<path fill="none" stroke="#404040" d="M167.16,-1211.73C175.48,-1199.68 185.83,-1184.68 196.81,-1168.77"/>
<polygon fill="none" stroke="#404040" points="196.9,-1168.64 197.01,-1161.43 203.71,-1158.76 203.6,-1165.97 196.9,-1168.64"/>
<text text-anchor="middle" x="207.5" y="-1180" font-family="Helvetica,sans-Serif" font-size="10.00"> #self_</text>
</g>
<!-- Node5&#45;&gt;Node2 -->
<g id="edge4" class="edge">
<title>Node5&#45;&gt;Node2</title>
<path fill="none" stroke="orange" d="M219.33,-938.22C212.97,-925.46 206.52,-912.5 200.22,-899.86"/>
<polygon fill="orange" stroke="orange" points="216.35,-940.08 223.94,-947.47 222.61,-936.96 216.35,-940.08"/>
<text text-anchor="middle" x="239" y="-921" font-family="Helvetica,sans-Serif" font-size="10.00"> &lt; Event &gt;</text>
</g>
<!-- Node6 -->
<g id="node6" class="node">
<title>Node6</title>
<g id="a_node6"><a xlink:title=" ">
<polygon fill="none" stroke="black" points="241,-1206.5 241,-1274.5 353,-1274.5 353,-1206.5 241,-1206.5"/>
<text text-anchor="start" x="249" y="-1262.5" font-family="Helvetica,sans-Serif" font-size="10.00">queue&lt; std::unique</text>
<text text-anchor="middle" x="297" y="-1251.5" font-family="Helvetica,sans-Serif" font-size="10.00">_ptr&lt; E &gt; &gt;</text>
<polyline fill="none" stroke="black" points="241,-1244.5 353,-1244.5 "/>
<text text-anchor="middle" x="297" y="-1232.5" font-family="Helvetica,sans-Serif" font-size="10.00"> </text>
<polyline fill="none" stroke="black" points="241,-1225.5 353,-1225.5 "/>
<text text-anchor="middle" x="297" y="-1213.5" font-family="Helvetica,sans-Serif" font-size="10.00"> </text>
</a>
</g>
</g>
<!-- Node6&#45;&gt;Node5 -->
<g id="edge5" class="edge">
<title>Node6&#45;&gt;Node5</title>
<path fill="none" stroke="#404040" d="M293.25,-1206.34C292.06,-1195.88 290.68,-1183.68 289.22,-1170.81"/>
<polygon fill="none" stroke="#404040" points="289.22,-1170.77 284.57,-1165.25 287.87,-1158.84 292.52,-1164.36 289.22,-1170.77"/>
<text text-anchor="middle" x="315" y="-1180" font-family="Helvetica,sans-Serif" font-size="10.00"> #events_</text>
</g>
<!-- Node7 -->
<g id="node7" class="node">
<title>Node7</title>
<g id="a_node7"><a xlink:title=" ">
<polygon fill="none" stroke="black" points="241.5,-760 241.5,-828 354.5,-828 354.5,-760 241.5,-760"/>
<text text-anchor="start" x="249.5" y="-816" font-family="Helvetica,sans-Serif" font-size="10.00">vector&lt; std::shared</text>
<text text-anchor="middle" x="298" y="-805" font-family="Helvetica,sans-Serif" font-size="10.00">_ptr&lt; Entity &gt; &gt;</text>
<polyline fill="none" stroke="black" points="241.5,-798 354.5,-798 "/>
<text text-anchor="middle" x="298" y="-786" font-family="Helvetica,sans-Serif" font-size="10.00"> </text>
<polyline fill="none" stroke="black" points="241.5,-779 354.5,-779 "/>
<text text-anchor="middle" x="298" y="-767" font-family="Helvetica,sans-Serif" font-size="10.00"> </text>
</a>
</g>
</g>
<!-- Node7&#45;&gt;Node1 -->
<g id="edge7" class="edge">
<title>Node7&#45;&gt;Node1</title>
<path fill="none" stroke="#404040" d="M298,-759.85C298,-734.31 298,-696.1 298,-652.71"/>
<polygon fill="none" stroke="#404040" points="298,-652.65 294,-646.65 298,-640.65 302,-646.65 298,-652.65"/>
<text text-anchor="middle" x="325" y="-662" font-family="Helvetica,sans-Serif" font-size="10.00"> #entities_</text>
</g>
<!-- Node8 -->
<g id="node8" class="node">
<title>Node8</title>
<g id="a_node8"><a xlink:title=" ">
<polygon fill="none" stroke="black" points="373,-765.5 373,-822.5 517,-822.5 517,-765.5 373,-765.5"/>
<text text-anchor="middle" x="445" y="-810.5" font-family="Helvetica,sans-Serif" font-size="10.00">shared_ptr&lt; PlayerTank &gt;</text>
<polyline fill="none" stroke="black" points="373,-803.5 517,-803.5 "/>
<text text-anchor="middle" x="445" y="-791.5" font-family="Helvetica,sans-Serif" font-size="10.00"> </text>
<polyline fill="none" stroke="black" points="373,-784.5 517,-784.5 "/>
<text text-anchor="middle" x="445" y="-772.5" font-family="Helvetica,sans-Serif" font-size="10.00"> </text>
</a>
</g>
</g>
<!-- Node8&#45;&gt;Node1 -->
<g id="edge8" class="edge">
<title>Node8&#45;&gt;Node1</title>
<path fill="none" stroke="#404040" d="M436.35,-765.27C426.92,-735.01 410.73,-683.09 392.69,-625.2"/>
<polygon fill="none" stroke="#404040" points="392.62,-625.01 387.02,-620.47 389.05,-613.55 394.66,-618.09 392.62,-625.01"/>
<text text-anchor="middle" x="429" y="-662" font-family="Helvetica,sans-Serif" font-size="10.00"> #player_</text>
</g>
</g>
</svg>
