<?xml version="1.0" encoding="UTF-8" standalone="no"?>
<!DOCTYPE svg PUBLIC "-//W3C//DTD SVG 1.1//EN"
 "http://www.w3.org/Graphics/SVG/1.1/DTD/svg11.dtd">
<!-- Generated by graphviz version 2.50.0 (0)
 -->
<!-- Title: Game Pages: 1 -->
<svg width="1609pt" height="1190pt"
 viewBox="0.00 0.00 1608.50 1190.00" xmlns="http://www.w3.org/2000/svg" xmlns:xlink="http://www.w3.org/1999/xlink">
<g id="graph0" class="graph" transform="scale(1 1) rotate(0) translate(4 1186)">
<title>Game</title>
<!-- Node1 -->
<g id="node1" class="node">
<title>Node1</title>
<g id="a_node1"><a xlink:title=" ">
<polygon fill="#bfbfbf" stroke="black" points="767.5,-182.5 767.5,-481.5 931.5,-481.5 931.5,-182.5 767.5,-182.5"/>
<text text-anchor="middle" x="849.5" y="-469.5" font-family="Helvetica,sans-Serif" font-size="10.00">Game</text>
<polyline fill="none" stroke="black" points="767.5,-462.5 931.5,-462.5 "/>
<text text-anchor="middle" x="849.5" y="-450.5" font-family="Helvetica,sans-Serif" font-size="10.00"> </text>
<polyline fill="none" stroke="black" points="767.5,-443.5 931.5,-443.5 "/>
<text text-anchor="start" x="775.5" y="-431.5" font-family="Helvetica,sans-Serif" font-size="10.00">+ Game()=delete</text>
<text text-anchor="start" x="775.5" y="-420.5" font-family="Helvetica,sans-Serif" font-size="10.00">+ Game(unsigned int</text>
<text text-anchor="start" x="775.5" y="-409.5" font-family="Helvetica,sans-Serif" font-size="10.00"> clockFreq)</text>
<text text-anchor="start" x="775.5" y="-398.5" font-family="Helvetica,sans-Serif" font-size="10.00">+ void run()</text>
<text text-anchor="start" x="775.5" y="-387.5" font-family="Helvetica,sans-Serif" font-size="10.00">+ void setActiveState()</text>
<text text-anchor="start" x="775.5" y="-376.5" font-family="Helvetica,sans-Serif" font-size="10.00">+ void setFinishedState()</text>
<text text-anchor="start" x="775.5" y="-365.5" font-family="Helvetica,sans-Serif" font-size="10.00">+ void setPauseState()</text>
<text text-anchor="start" x="775.5" y="-354.5" font-family="Helvetica,sans-Serif" font-size="10.00">+ void setMenuState()</text>
<text text-anchor="start" x="775.5" y="-343.5" font-family="Helvetica,sans-Serif" font-size="10.00">+ void quit()</text>
<text text-anchor="start" x="775.5" y="-332.5" font-family="Helvetica,sans-Serif" font-size="10.00">+ GameState * getState()</text>
<text text-anchor="start" x="775.5" y="-321.5" font-family="Helvetica,sans-Serif" font-size="10.00">+ GameStatistics * getStats()</text>
<text text-anchor="start" x="775.5" y="-310.5" font-family="Helvetica,sans-Serif" font-size="10.00">+ Board * getBoard()</text>
<text text-anchor="start" x="775.5" y="-299.5" font-family="Helvetica,sans-Serif" font-size="10.00">+ void start()</text>
<text text-anchor="start" x="775.5" y="-288.5" font-family="Helvetica,sans-Serif" font-size="10.00">+ void end()</text>
<text text-anchor="start" x="775.5" y="-277.5" font-family="Helvetica,sans-Serif" font-size="10.00"># void setup()</text>
<text text-anchor="start" x="775.5" y="-266.5" font-family="Helvetica,sans-Serif" font-size="10.00"># void initStates()</text>
<text text-anchor="start" x="775.5" y="-255.5" font-family="Helvetica,sans-Serif" font-size="10.00"># void initComponents()</text>
<text text-anchor="start" x="775.5" y="-244.5" font-family="Helvetica,sans-Serif" font-size="10.00"># void initScoreboard()</text>
<text text-anchor="start" x="775.5" y="-233.5" font-family="Helvetica,sans-Serif" font-size="10.00"># void initUI()</text>
<text text-anchor="start" x="775.5" y="-222.5" font-family="Helvetica,sans-Serif" font-size="10.00"># void reset()</text>
<text text-anchor="start" x="775.5" y="-211.5" font-family="Helvetica,sans-Serif" font-size="10.00"># void prepareLevel(unsigned</text>
<text text-anchor="start" x="775.5" y="-200.5" font-family="Helvetica,sans-Serif" font-size="10.00"> int levelNum)</text>
<text text-anchor="start" x="775.5" y="-189.5" font-family="Helvetica,sans-Serif" font-size="10.00"># void redrawUI()</text>
</a>
</g>
</g>
<!-- Node20 -->
<g id="node20" class="node">
<title>Node20</title>
<g id="a_node20"><a xlink:href="$class_game_state.html" xlink:title=" ">
<polygon fill="none" stroke="black" points="712,-0.5 712,-134.5 851,-134.5 851,-0.5 712,-0.5"/>
<text text-anchor="middle" x="781.5" y="-122.5" font-family="Helvetica,sans-Serif" font-size="10.00">GameState</text>
<polyline fill="none" stroke="black" points="712,-115.5 851,-115.5 "/>
<text text-anchor="middle" x="781.5" y="-103.5" font-family="Helvetica,sans-Serif" font-size="10.00"> </text>
<polyline fill="none" stroke="black" points="712,-96.5 851,-96.5 "/>
<text text-anchor="start" x="720" y="-84.5" font-family="Helvetica,sans-Serif" font-size="10.00">+ virtual ~GameState</text>
<text text-anchor="start" x="720" y="-73.5" font-family="Helvetica,sans-Serif" font-size="10.00">()=default</text>
<text text-anchor="start" x="720" y="-62.5" font-family="Helvetica,sans-Serif" font-size="10.00">+ PublisherEventHandler</text>
<text text-anchor="start" x="720" y="-51.5" font-family="Helvetica,sans-Serif" font-size="10.00"> * getEventHandler()</text>
<text text-anchor="start" x="720" y="-40.5" font-family="Helvetica,sans-Serif" font-size="10.00"># GameState(Game *n</text>
<text text-anchor="start" x="720" y="-29.5" font-family="Helvetica,sans-Serif" font-size="10.00">_game, std::unique_ptr</text>
<text text-anchor="start" x="720" y="-18.5" font-family="Helvetica,sans-Serif" font-size="10.00">&lt; PublisherEventHandler</text>
<text text-anchor="start" x="720" y="-7.5" font-family="Helvetica,sans-Serif" font-size="10.00"> &gt; n_eventHandler)</text>
</a>
</g>
</g>
<!-- Node1&#45;&gt;Node20 -->
<g id="edge20" class="edge">
<title>Node1&#45;&gt;Node20</title>
<path fill="none" stroke="#404040" d="M782.81,-182.17C781.18,-176.09 779.73,-170.02 778.5,-164 777.36,-158.4 776.58,-152.58 776.09,-146.7"/>
<polygon fill="none" stroke="#404040" points="776.08,-146.58 771.77,-140.8 775.45,-134.6 779.76,-140.38 776.08,-146.58"/>
<text text-anchor="middle" x="801" y="-156" font-family="Helvetica,sans-Serif" font-size="10.00"> #game_</text>
</g>
<!-- Node2 -->
<g id="node2" class="node">
<title>Node2</title>
<g id="a_node2"><a xlink:title=" ">
<polygon fill="none" stroke="#bfbfbf" points="0,-656 0,-713 185,-713 185,-656 0,-656"/>
<text text-anchor="middle" x="92.5" y="-701" font-family="Helvetica,sans-Serif" font-size="10.00">unique_ptr&lt; KeyboardController &gt;</text>
<polyline fill="none" stroke="#bfbfbf" points="0,-694 185,-694 "/>
<text text-anchor="middle" x="92.5" y="-682" font-family="Helvetica,sans-Serif" font-size="10.00"> </text>
<polyline fill="none" stroke="#bfbfbf" points="0,-675 185,-675 "/>
<text text-anchor="middle" x="92.5" y="-663" font-family="Helvetica,sans-Serif" font-size="10.00"> </text>
</a>
</g>
</g>
<!-- Node2&#45;&gt;Node1 -->
<g id="edge1" class="edge">
<title>Node2&#45;&gt;Node1</title>
<path fill="none" stroke="#404040" d="M106.44,-655.82C129.73,-613.04 181.05,-532.43 251.5,-500 300.15,-477.6 670.16,-507.2 756.17,-480.92"/>
<polygon fill="none" stroke="#404040" points="756.19,-480.91 760.19,-474.92 767.27,-476.31 763.26,-482.31 756.19,-480.91"/>
<text text-anchor="middle" x="306.5" y="-519.5" font-family="Helvetica,sans-Serif" font-size="10.00"> #keyboardController_</text>
</g>
<!-- Node3 -->
<g id="node3" class="node">
<title>Node3</title>
<g id="a_node3"><a xlink:title=" ">
<polygon fill="none" stroke="#bfbfbf" points="203.5,-656 203.5,-713 333.5,-713 333.5,-656 203.5,-656"/>
<text text-anchor="middle" x="268.5" y="-701" font-family="Helvetica,sans-Serif" font-size="10.00">unique_ptr&lt; Window &gt;</text>
<polyline fill="none" stroke="#bfbfbf" points="203.5,-694 333.5,-694 "/>
<text text-anchor="middle" x="268.5" y="-682" font-family="Helvetica,sans-Serif" font-size="10.00"> </text>
<polyline fill="none" stroke="#bfbfbf" points="203.5,-675 333.5,-675 "/>
<text text-anchor="middle" x="268.5" y="-663" font-family="Helvetica,sans-Serif" font-size="10.00"> </text>
</a>
</g>
</g>
<!-- Node3&#45;&gt;Node1 -->
<g id="edge2" class="edge">
<title>Node3&#45;&gt;Node1</title>
<path fill="none" stroke="#404040" d="M279.84,-655.8C291.99,-628.95 313.51,-588.49 342.5,-562 388.57,-519.89 408.18,-516.02 468.5,-500 527.61,-484.3 685.33,-512.09 756.21,-481.82"/>
<polygon fill="none" stroke="#404040" points="756.52,-481.66 760.04,-475.37 767.2,-476.2 763.68,-482.49 756.52,-481.66"/>
<text text-anchor="middle" x="496" y="-519.5" font-family="Helvetica,sans-Serif" font-size="10.00"> #window_</text>
</g>
<!-- Node4 -->
<g id="node4" class="node">
<title>Node4</title>
<g id="a_node4"><a xlink:title=" ">
<polygon fill="none" stroke="#bfbfbf" points="352,-656 352,-713 517,-713 517,-656 352,-656"/>
<text text-anchor="middle" x="434.5" y="-701" font-family="Helvetica,sans-Serif" font-size="10.00">unique_ptr&lt; GameStatistics &gt;</text>
<polyline fill="none" stroke="#bfbfbf" points="352,-694 517,-694 "/>
<text text-anchor="middle" x="434.5" y="-682" font-family="Helvetica,sans-Serif" font-size="10.00"> </text>
<polyline fill="none" stroke="#bfbfbf" points="352,-675 517,-675 "/>
<text text-anchor="middle" x="434.5" y="-663" font-family="Helvetica,sans-Serif" font-size="10.00"> </text>
</a>
</g>
</g>
<!-- Node4&#45;&gt;Node1 -->
<g id="edge3" class="edge">
<title>Node4&#45;&gt;Node1</title>
<path fill="none" stroke="#404040" d="M447.39,-655.81C468.82,-613.41 516.19,-533.76 583.5,-500 649.98,-466.65 688.48,-518.18 756.72,-482.04"/>
<polygon fill="none" stroke="#404040" points="757.11,-481.82 760.27,-475.34 767.47,-475.76 764.3,-482.24 757.11,-481.82"/>
<text text-anchor="middle" x="618.5" y="-519.5" font-family="Helvetica,sans-Serif" font-size="10.00"> #gameStats_</text>
</g>
<!-- Node5 -->
<g id="node5" class="node">
<title>Node5</title>
<g id="a_node5"><a xlink:title=" ">
<polygon fill="none" stroke="#bfbfbf" points="535.5,-656 535.5,-713 681.5,-713 681.5,-656 535.5,-656"/>
<text text-anchor="middle" x="608.5" y="-701" font-family="Helvetica,sans-Serif" font-size="10.00">unique_ptr&lt; GameState &gt;</text>
<polyline fill="none" stroke="#bfbfbf" points="535.5,-694 681.5,-694 "/>
<text text-anchor="middle" x="608.5" y="-682" font-family="Helvetica,sans-Serif" font-size="10.00"> </text>
<polyline fill="none" stroke="#bfbfbf" points="535.5,-675 681.5,-675 "/>
<text text-anchor="middle" x="608.5" y="-663" font-family="Helvetica,sans-Serif" font-size="10.00"> </text>
</a>
</g>
</g>
<!-- Node5&#45;&gt;Node1 -->
<g id="edge4" class="edge">
<title>Node5&#45;&gt;Node1</title>
<path fill="none" stroke="#404040" d="M613.53,-655.71C622.3,-615.37 644.29,-540.93 692.5,-500 713.23,-482.4 730.24,-496.5 757.33,-481.44"/>
<polygon fill="none" stroke="#404040" points="757.35,-481.42 760.14,-474.77 767.35,-474.79 764.56,-481.44 757.35,-481.42"/>
<text text-anchor="middle" x="733.5" y="-536" font-family="Helvetica,sans-Serif" font-size="10.00"> #active_state_</text>
<text text-anchor="middle" x="733.5" y="-525" font-family="Helvetica,sans-Serif" font-size="10.00">#finished_state_</text>
<text text-anchor="middle" x="733.5" y="-514" font-family="Helvetica,sans-Serif" font-size="10.00">#menu_state_</text>
<text text-anchor="middle" x="733.5" y="-503" font-family="Helvetica,sans-Serif" font-size="10.00">#pause_state_</text>
</g>
<!-- Node6 -->
<g id="node6" class="node">
<title>Node6</title>
<g id="a_node6"><a xlink:title=" ">
<polygon fill="none" stroke="#bfbfbf" points="700,-650.5 700,-718.5 845,-718.5 845,-650.5 700,-650.5"/>
<text text-anchor="start" x="708" y="-706.5" font-family="Helvetica,sans-Serif" font-size="10.00">unique_ptr&lt; GraphicEvent</text>
<text text-anchor="middle" x="772.5" y="-695.5" font-family="Helvetica,sans-Serif" font-size="10.00">Handler &gt;</text>
<polyline fill="none" stroke="#bfbfbf" points="700,-688.5 845,-688.5 "/>
<text text-anchor="middle" x="772.5" y="-676.5" font-family="Helvetica,sans-Serif" font-size="10.00"> </text>
<polyline fill="none" stroke="#bfbfbf" points="700,-669.5 845,-669.5 "/>
<text text-anchor="middle" x="772.5" y="-657.5" font-family="Helvetica,sans-Serif" font-size="10.00"> </text>
</a>
</g>
</g>
<!-- Node6&#45;&gt;Node1 -->
<g id="edge5" class="edge">
<title>Node6&#45;&gt;Node1</title>
<path fill="none" stroke="#404040" d="M771.93,-650.26C771.97,-613.18 774.05,-551.6 785.5,-500 785.98,-497.82 786.49,-495.63 787.02,-493.44"/>
<polygon fill="none" stroke="#404040" points="787.06,-493.27 784.68,-486.46 790.04,-481.64 792.43,-488.45 787.06,-493.27"/>
<text text-anchor="middle" x="845" y="-519.5" font-family="Helvetica,sans-Serif" font-size="10.00"> #graphicEventHandler_</text>
</g>
<!-- Node7 -->
<g id="node7" class="node">
<title>Node7</title>
<g id="a_node7"><a xlink:href="$class_event_queue.html" xlink:title=" ">
<polygon fill="none" stroke="black" points="863.5,-562.5 863.5,-806.5 1013.5,-806.5 1013.5,-562.5 863.5,-562.5"/>
<text text-anchor="middle" x="938.5" y="-794.5" font-family="Helvetica,sans-Serif" font-size="10.00">EventQueue&lt; Event &gt;</text>
<polyline fill="none" stroke="black" points="863.5,-787.5 1013.5,-787.5 "/>
<text text-anchor="start" x="871.5" y="-775.5" font-family="Helvetica,sans-Serif" font-size="10.00"># std::queue&lt; std::unique</text>
<text text-anchor="start" x="871.5" y="-764.5" font-family="Helvetica,sans-Serif" font-size="10.00">_ptr&lt; Event &gt; &gt; events_</text>
<text text-anchor="start" x="871.5" y="-753.5" font-family="Helvetica,sans-Serif" font-size="10.00"># static std::unique</text>
<text text-anchor="start" x="871.5" y="-742.5" font-family="Helvetica,sans-Serif" font-size="10.00">_ptr&lt; EventQueue &gt; self_</text>
<polyline fill="none" stroke="black" points="863.5,-735.5 1013.5,-735.5 "/>
<text text-anchor="start" x="871.5" y="-723.5" font-family="Helvetica,sans-Serif" font-size="10.00">+ EventQueue(EventQueue</text>
<text text-anchor="start" x="871.5" y="-712.5" font-family="Helvetica,sans-Serif" font-size="10.00"> &amp;)=delete</text>
<text text-anchor="start" x="871.5" y="-701.5" font-family="Helvetica,sans-Serif" font-size="10.00">+ bool operator=(const</text>
<text text-anchor="start" x="871.5" y="-690.5" font-family="Helvetica,sans-Serif" font-size="10.00"> EventQueue &amp;)=delete</text>
<text text-anchor="start" x="871.5" y="-679.5" font-family="Helvetica,sans-Serif" font-size="10.00">+ void registerEvent</text>
<text text-anchor="start" x="871.5" y="-668.5" font-family="Helvetica,sans-Serif" font-size="10.00">(std::unique_ptr&lt; Event</text>
<text text-anchor="start" x="871.5" y="-657.5" font-family="Helvetica,sans-Serif" font-size="10.00"> &gt; event)</text>
<text text-anchor="start" x="871.5" y="-646.5" font-family="Helvetica,sans-Serif" font-size="10.00">+ std::unique_ptr&lt; Event</text>
<text text-anchor="start" x="871.5" y="-635.5" font-family="Helvetica,sans-Serif" font-size="10.00"> &gt; pop()</text>
<text text-anchor="start" x="871.5" y="-624.5" font-family="Helvetica,sans-Serif" font-size="10.00">+ bool isEmpty()</text>
<text text-anchor="start" x="871.5" y="-613.5" font-family="Helvetica,sans-Serif" font-size="10.00">+ unsigned int size()</text>
<text text-anchor="start" x="871.5" y="-602.5" font-family="Helvetica,sans-Serif" font-size="10.00">+ void clear()</text>
<text text-anchor="start" x="871.5" y="-591.5" font-family="Helvetica,sans-Serif" font-size="10.00">+ static EventQueue *</text>
<text text-anchor="start" x="871.5" y="-580.5" font-family="Helvetica,sans-Serif" font-size="10.00"> instance()</text>
<text text-anchor="start" x="871.5" y="-569.5" font-family="Helvetica,sans-Serif" font-size="10.00">&#45; EventQueue()=default</text>
</a>
</g>
</g>
<!-- Node7&#45;&gt;Node1 -->
<g id="edge6" class="edge">
<title>Node7&#45;&gt;Node1</title>
<path fill="none" stroke="#404040" d="M918.4,-562.08C914.27,-541.26 909.6,-519.93 904.5,-500 903.94,-497.82 903.37,-495.63 902.79,-493.43"/>
<polygon fill="none" stroke="#404040" points="902.71,-493.15 897.27,-488.41 899.56,-481.57 904.99,-486.31 902.71,-493.15"/>
<text text-anchor="middle" x="951.5" y="-519.5" font-family="Helvetica,sans-Serif" font-size="10.00"> #eventQueue_</text>
</g>
<!-- Node8 -->
<g id="node8" class="node">
<title>Node8</title>
<g id="a_node8"><a xlink:href="$class_event_queue.html" xlink:title="Singleton class wrapper for std::queue&lt;E&gt;.">
<polygon fill="none" stroke="black" points="863.5,-854.5 863.5,-1065.5 1013.5,-1065.5 1013.5,-854.5 863.5,-854.5"/>
<text text-anchor="middle" x="938.5" y="-1053.5" font-family="Helvetica,sans-Serif" font-size="10.00">EventQueue&lt; E &gt;</text>
<polyline fill="none" stroke="black" points="863.5,-1046.5 1013.5,-1046.5 "/>
<text text-anchor="middle" x="938.5" y="-1034.5" font-family="Helvetica,sans-Serif" font-size="10.00"> </text>
<polyline fill="none" stroke="black" points="863.5,-1027.5 1013.5,-1027.5 "/>
<text text-anchor="start" x="871.5" y="-1015.5" font-family="Helvetica,sans-Serif" font-size="10.00">+ EventQueue(EventQueue</text>
<text text-anchor="start" x="871.5" y="-1004.5" font-family="Helvetica,sans-Serif" font-size="10.00"> &amp;)=delete</text>
<text text-anchor="start" x="871.5" y="-993.5" font-family="Helvetica,sans-Serif" font-size="10.00">+ bool operator=(const</text>
<text text-anchor="start" x="871.5" y="-982.5" font-family="Helvetica,sans-Serif" font-size="10.00"> EventQueue &amp;)=delete</text>
<text text-anchor="start" x="871.5" y="-971.5" font-family="Helvetica,sans-Serif" font-size="10.00">+ void registerEvent</text>
<text text-anchor="start" x="871.5" y="-960.5" font-family="Helvetica,sans-Serif" font-size="10.00">(std::unique_ptr&lt; E</text>
<text text-anchor="start" x="871.5" y="-949.5" font-family="Helvetica,sans-Serif" font-size="10.00"> &gt; event)</text>
<text text-anchor="start" x="871.5" y="-938.5" font-family="Helvetica,sans-Serif" font-size="10.00">+ std::unique_ptr&lt; E</text>
<text text-anchor="start" x="871.5" y="-927.5" font-family="Helvetica,sans-Serif" font-size="10.00"> &gt; pop()</text>
<text text-anchor="start" x="871.5" y="-916.5" font-family="Helvetica,sans-Serif" font-size="10.00">+ bool isEmpty()</text>
<text text-anchor="start" x="871.5" y="-905.5" font-family="Helvetica,sans-Serif" font-size="10.00">+ unsigned int size()</text>
<text text-anchor="start" x="871.5" y="-894.5" font-family="Helvetica,sans-Serif" font-size="10.00">+ void clear()</text>
<text text-anchor="start" x="871.5" y="-883.5" font-family="Helvetica,sans-Serif" font-size="10.00">+ static EventQueue *</text>
<text text-anchor="start" x="871.5" y="-872.5" font-family="Helvetica,sans-Serif" font-size="10.00"> instance()</text>
<text text-anchor="start" x="871.5" y="-861.5" font-family="Helvetica,sans-Serif" font-size="10.00">&#45; EventQueue()=default</text>
</a>
</g>
</g>
<!-- Node8&#45;&gt;Node7 -->
<g id="edge7" class="edge">
<title>Node8&#45;&gt;Node7</title>
<path fill="none" stroke="orange" d="M938.5,-844.16C938.5,-831.86 938.5,-819.31 938.5,-806.94"/>
<polygon fill="orange" stroke="orange" points="935,-844.43 938.5,-854.43 942,-844.43 935,-844.43"/>
<text text-anchor="middle" x="965.5" y="-828" font-family="Helvetica,sans-Serif" font-size="10.00"> &lt; Event &gt;</text>
</g>
<!-- Node9 -->
<g id="node9" class="node">
<title>Node9</title>
<g id="a_node9"><a xlink:title=" ">
<polygon fill="none" stroke="#bfbfbf" points="742.5,-1113.5 742.5,-1181.5 854.5,-1181.5 854.5,-1113.5 742.5,-1113.5"/>
<text text-anchor="start" x="750.5" y="-1169.5" font-family="Helvetica,sans-Serif" font-size="10.00">queue&lt; std::unique</text>
<text text-anchor="middle" x="798.5" y="-1158.5" font-family="Helvetica,sans-Serif" font-size="10.00">_ptr&lt; E &gt; &gt;</text>
<polyline fill="none" stroke="#bfbfbf" points="742.5,-1151.5 854.5,-1151.5 "/>
<text text-anchor="middle" x="798.5" y="-1139.5" font-family="Helvetica,sans-Serif" font-size="10.00"> </text>
<polyline fill="none" stroke="#bfbfbf" points="742.5,-1132.5 854.5,-1132.5 "/>
<text text-anchor="middle" x="798.5" y="-1120.5" font-family="Helvetica,sans-Serif" font-size="10.00"> </text>
</a>
</g>
</g>
<!-- Node9&#45;&gt;Node8 -->
<g id="edge8" class="edge">
<title>Node9&#45;&gt;Node8</title>
<path fill="none" stroke="#404040" d="M823.53,-1113.34C832.91,-1100.91 844.16,-1086.01 855.89,-1070.46"/>
<polygon fill="none" stroke="#404040" points="856.02,-1070.29 856.44,-1063.09 863.25,-1060.71 862.83,-1067.91 856.02,-1070.29"/>
<text text-anchor="middle" x="868.5" y="-1087" font-family="Helvetica,sans-Serif" font-size="10.00"> #events_</text>
</g>
<!-- Node10 -->
<g id="node10" class="node">
<title>Node10</title>
<g id="a_node10"><a xlink:title=" ">
<polygon fill="none" stroke="#bfbfbf" points="872.5,-1119 872.5,-1176 1022.5,-1176 1022.5,-1119 872.5,-1119"/>
<text text-anchor="middle" x="947.5" y="-1164" font-family="Helvetica,sans-Serif" font-size="10.00">unique_ptr&lt; EventQueue &gt;</text>
<polyline fill="none" stroke="#bfbfbf" points="872.5,-1157 1022.5,-1157 "/>
<text text-anchor="middle" x="947.5" y="-1145" font-family="Helvetica,sans-Serif" font-size="10.00"> </text>
<polyline fill="none" stroke="#bfbfbf" points="872.5,-1138 1022.5,-1138 "/>
<text text-anchor="middle" x="947.5" y="-1126" font-family="Helvetica,sans-Serif" font-size="10.00"> </text>
</a>
</g>
</g>
<!-- Node10&#45;&gt;Node8 -->
<g id="edge9" class="edge">
<title>Node10&#45;&gt;Node8</title>
<path fill="none" stroke="#404040" d="M946.15,-1118.73C945.6,-1107.24 944.91,-1093.09 944.18,-1078.01"/>
<polygon fill="none" stroke="#404040" points="944.16,-1077.75 939.88,-1071.95 943.58,-1065.76 947.87,-1071.56 944.16,-1077.75"/>
<text text-anchor="middle" x="962" y="-1087" font-family="Helvetica,sans-Serif" font-size="10.00"> #self_</text>
</g>
<!-- Node11 -->
<g id="node11" class="node">
<title>Node11</title>
<g id="a_node11"><a xlink:title=" ">
<polygon fill="none" stroke="#bfbfbf" points="1032,-656 1032,-713 1187,-713 1187,-656 1032,-656"/>
<text text-anchor="middle" x="1109.5" y="-701" font-family="Helvetica,sans-Serif" font-size="10.00">unique_ptr&lt; GameStatsIO &gt;</text>
<polyline fill="none" stroke="#bfbfbf" points="1032,-694 1187,-694 "/>
<text text-anchor="middle" x="1109.5" y="-682" font-family="Helvetica,sans-Serif" font-size="10.00"> </text>
<polyline fill="none" stroke="#bfbfbf" points="1032,-675 1187,-675 "/>
<text text-anchor="middle" x="1109.5" y="-663" font-family="Helvetica,sans-Serif" font-size="10.00"> </text>
</a>
</g>
</g>
<!-- Node11&#45;&gt;Node1 -->
<g id="edge10" class="edge">
<title>Node11&#45;&gt;Node1</title>
<path fill="none" stroke="#404040" d="M1093.8,-655.93C1072.55,-619.29 1032.76,-553 993.5,-500 976.85,-477.53 957.97,-454.28 939.5,-432.53"/>
<polygon fill="none" stroke="#404040" points="939.41,-432.42 932.47,-430.46 931.61,-423.3 938.55,-425.26 939.41,-432.42"/>
<text text-anchor="middle" x="1063.5" y="-519.5" font-family="Helvetica,sans-Serif" font-size="10.00"> #gameStatsIO_</text>
</g>
<!-- Node12 -->
<g id="node12" class="node">
<title>Node12</title>
<g id="a_node12"><a xlink:href="$class_clock.html" xlink:title="Represents an externally controlled clock running at a given frequency.">
<polygon fill="none" stroke="black" points="1205,-595.5 1205,-773.5 1350,-773.5 1350,-595.5 1205,-595.5"/>
<text text-anchor="middle" x="1277.5" y="-761.5" font-family="Helvetica,sans-Serif" font-size="10.00">Clock</text>
<polyline fill="none" stroke="black" points="1205,-754.5 1350,-754.5 "/>
<text text-anchor="middle" x="1277.5" y="-742.5" font-family="Helvetica,sans-Serif" font-size="10.00"> </text>
<polyline fill="none" stroke="black" points="1205,-735.5 1350,-735.5 "/>
<text text-anchor="start" x="1213" y="-723.5" font-family="Helvetica,sans-Serif" font-size="10.00">+ Clock()=delete</text>
<text text-anchor="start" x="1213" y="-712.5" font-family="Helvetica,sans-Serif" font-size="10.00">+ Clock(const Clock</text>
<text text-anchor="start" x="1213" y="-701.5" font-family="Helvetica,sans-Serif" font-size="10.00"> &amp;)=delete</text>
<text text-anchor="start" x="1213" y="-690.5" font-family="Helvetica,sans-Serif" font-size="10.00">+ Clock operator=(const</text>
<text text-anchor="start" x="1213" y="-679.5" font-family="Helvetica,sans-Serif" font-size="10.00"> Clock &amp;)=delete</text>
<text text-anchor="start" x="1213" y="-668.5" font-family="Helvetica,sans-Serif" font-size="10.00">+ void tick()</text>
<text text-anchor="start" x="1213" y="-657.5" font-family="Helvetica,sans-Serif" font-size="10.00">+ void sleep()</text>
<text text-anchor="start" x="1213" y="-646.5" font-family="Helvetica,sans-Serif" font-size="10.00">+ static void initialize</text>
<text text-anchor="start" x="1213" y="-635.5" font-family="Helvetica,sans-Serif" font-size="10.00">(unsigned int frequency)</text>
<text text-anchor="start" x="1213" y="-624.5" font-family="Helvetica,sans-Serif" font-size="10.00">+ static Clock * instance()</text>
<text text-anchor="start" x="1213" y="-613.5" font-family="Helvetica,sans-Serif" font-size="10.00">&#45; Clock(unsigned int</text>
<text text-anchor="start" x="1213" y="-602.5" font-family="Helvetica,sans-Serif" font-size="10.00"> frequency)</text>
</a>
</g>
</g>
<!-- Node12&#45;&gt;Node1 -->
<g id="edge11" class="edge">
<title>Node12&#45;&gt;Node1</title>
<path fill="none" stroke="#404040" d="M1224.62,-595.47C1215.9,-583.66 1206.44,-572.14 1196.5,-562 1121.63,-485.59 1017.15,-420.89 942.43,-379.97"/>
<polygon fill="none" stroke="#404040" points="942.18,-379.83 934.99,-380.48 931.63,-374.1 938.81,-373.45 942.18,-379.83"/>
<text text-anchor="middle" x="1193" y="-519.5" font-family="Helvetica,sans-Serif" font-size="10.00"> #clock_</text>
</g>
<!-- Node13 -->
<g id="node13" class="node">
<title>Node13</title>
<g id="a_node13"><a xlink:href="$class_simple_publisher.html" xlink:title=" ">
<polygon fill="none" stroke="black" points="1036.5,-860 1036.5,-1060 1214.5,-1060 1214.5,-860 1036.5,-860"/>
<text text-anchor="middle" x="1125.5" y="-1048" font-family="Helvetica,sans-Serif" font-size="10.00">SimplePublisher</text>
<polyline fill="none" stroke="black" points="1036.5,-1041 1214.5,-1041 "/>
<text text-anchor="middle" x="1125.5" y="-1029" font-family="Helvetica,sans-Serif" font-size="10.00"> </text>
<polyline fill="none" stroke="black" points="1036.5,-1022 1214.5,-1022 "/>
<text text-anchor="start" x="1044.5" y="-1010" font-family="Helvetica,sans-Serif" font-size="10.00">+ ~SimplePublisher()</text>
<text text-anchor="start" x="1044.5" y="-999" font-family="Helvetica,sans-Serif" font-size="10.00">+ virtual void notifySubscribers()</text>
<text text-anchor="start" x="1044.5" y="-988" font-family="Helvetica,sans-Serif" font-size="10.00">+ void attachSubscriber</text>
<text text-anchor="start" x="1044.5" y="-977" font-family="Helvetica,sans-Serif" font-size="10.00">(SimpleSubscriber *)</text>
<text text-anchor="start" x="1044.5" y="-966" font-family="Helvetica,sans-Serif" font-size="10.00">+ void detachSubscriber</text>
<text text-anchor="start" x="1044.5" y="-955" font-family="Helvetica,sans-Serif" font-size="10.00">(SimpleSubscriber *)</text>
<text text-anchor="start" x="1044.5" y="-944" font-family="Helvetica,sans-Serif" font-size="10.00">+ bool operator==(const</text>
<text text-anchor="start" x="1044.5" y="-933" font-family="Helvetica,sans-Serif" font-size="10.00"> SimplePublisher &amp;rhs)</text>
<text text-anchor="start" x="1044.5" y="-922" font-family="Helvetica,sans-Serif" font-size="10.00"> const</text>
<text text-anchor="start" x="1044.5" y="-911" font-family="Helvetica,sans-Serif" font-size="10.00">+ bool operator!=(const</text>
<text text-anchor="start" x="1044.5" y="-900" font-family="Helvetica,sans-Serif" font-size="10.00"> SimplePublisher &amp;rhs)</text>
<text text-anchor="start" x="1044.5" y="-889" font-family="Helvetica,sans-Serif" font-size="10.00"> const</text>
<text text-anchor="start" x="1044.5" y="-878" font-family="Helvetica,sans-Serif" font-size="10.00"># SimplePublisher()</text>
<text text-anchor="start" x="1044.5" y="-867" font-family="Helvetica,sans-Serif" font-size="10.00">=default</text>
</a>
</g>
</g>
<!-- Node13&#45;&gt;Node12 -->
<g id="edge12" class="edge">
<title>Node13&#45;&gt;Node12</title>
<path fill="none" stroke="midnightblue" d="M1185.58,-850.9C1199.77,-825.36 1214.74,-798.42 1228.39,-773.87"/>
<polygon fill="none" stroke="midnightblue" points="1182.39,-849.43 1180.59,-859.87 1188.51,-852.83 1182.39,-849.43"/>
</g>
<!-- Node14 -->
<g id="node14" class="node">
<title>Node14</title>
<g id="a_node14"><a xlink:title=" ">
<polygon fill="none" stroke="#bfbfbf" points="1044,-1119 1044,-1176 1207,-1176 1207,-1119 1044,-1119"/>
<text text-anchor="middle" x="1125.5" y="-1164" font-family="Helvetica,sans-Serif" font-size="10.00">vector&lt; SimpleSubscriber * &gt;</text>
<polyline fill="none" stroke="#bfbfbf" points="1044,-1157 1207,-1157 "/>
<text text-anchor="middle" x="1125.5" y="-1145" font-family="Helvetica,sans-Serif" font-size="10.00"> </text>
<polyline fill="none" stroke="#bfbfbf" points="1044,-1138 1207,-1138 "/>
<text text-anchor="middle" x="1125.5" y="-1126" font-family="Helvetica,sans-Serif" font-size="10.00"> </text>
</a>
</g>
</g>
<!-- Node14&#45;&gt;Node13 -->
<g id="edge13" class="edge">
<title>Node14&#45;&gt;Node13</title>
<path fill="none" stroke="#404040" d="M1125.5,-1118.73C1125.5,-1105.75 1125.5,-1089.37 1125.5,-1072.1"/>
<polygon fill="none" stroke="#404040" points="1125.5,-1072.04 1121.5,-1066.04 1125.5,-1060.04 1129.5,-1066.04 1125.5,-1072.04"/>
<text text-anchor="middle" x="1162" y="-1087" font-family="Helvetica,sans-Serif" font-size="10.00"> #subscribers_</text>
</g>
<!-- Node15 -->
<g id="node15" class="node">
<title>Node15</title>
<g id="a_node15"><a xlink:title=" ">
<polygon fill="none" stroke="#bfbfbf" points="1232.5,-931.5 1232.5,-988.5 1312.5,-988.5 1312.5,-931.5 1232.5,-931.5"/>
<text text-anchor="middle" x="1272.5" y="-976.5" font-family="Helvetica,sans-Serif" font-size="10.00">nanoseconds</text>
<polyline fill="none" stroke="#bfbfbf" points="1232.5,-969.5 1312.5,-969.5 "/>
<text text-anchor="middle" x="1272.5" y="-957.5" font-family="Helvetica,sans-Serif" font-size="10.00"> </text>
<polyline fill="none" stroke="#bfbfbf" points="1232.5,-950.5 1312.5,-950.5 "/>
<text text-anchor="middle" x="1272.5" y="-938.5" font-family="Helvetica,sans-Serif" font-size="10.00"> </text>
</a>
</g>
</g>
<!-- Node15&#45;&gt;Node12 -->
<g id="edge14" class="edge">
<title>Node15&#45;&gt;Node12</title>
<path fill="none" stroke="#404040" d="M1273.01,-931.27C1273.63,-897.32 1274.71,-837.95 1275.66,-786.06"/>
<polygon fill="none" stroke="#404040" points="1275.67,-785.74 1271.78,-779.67 1275.89,-773.74 1279.78,-779.81 1275.67,-785.74"/>
<text text-anchor="middle" x="1299.5" y="-828" font-family="Helvetica,sans-Serif" font-size="10.00"> &#45;interval_</text>
</g>
<!-- Node16 -->
<g id="node16" class="node">
<title>Node16</title>
<g id="a_node16"><a xlink:title=" ">
<polygon fill="none" stroke="#bfbfbf" points="1330.5,-931.5 1330.5,-988.5 1448.5,-988.5 1448.5,-931.5 1330.5,-931.5"/>
<text text-anchor="middle" x="1389.5" y="-976.5" font-family="Helvetica,sans-Serif" font-size="10.00">unique_ptr&lt; Clock &gt;</text>
<polyline fill="none" stroke="#bfbfbf" points="1330.5,-969.5 1448.5,-969.5 "/>
<text text-anchor="middle" x="1389.5" y="-957.5" font-family="Helvetica,sans-Serif" font-size="10.00"> </text>
<polyline fill="none" stroke="#bfbfbf" points="1330.5,-950.5 1448.5,-950.5 "/>
<text text-anchor="middle" x="1389.5" y="-938.5" font-family="Helvetica,sans-Serif" font-size="10.00"> </text>
</a>
</g>
</g>
<!-- Node16&#45;&gt;Node12 -->
<g id="edge15" class="edge">
<title>Node16&#45;&gt;Node12</title>
<path fill="none" stroke="#404040" d="M1378.14,-931.27C1364.16,-897.11 1339.62,-837.19 1318.28,-785.07"/>
<polygon fill="none" stroke="#404040" points="1318.18,-784.84 1312.21,-780.81 1313.63,-773.74 1319.61,-777.78 1318.18,-784.84"/>
<text text-anchor="middle" x="1352" y="-828" font-family="Helvetica,sans-Serif" font-size="10.00"> &#45;self_</text>
</g>
<!-- Node17 -->
<g id="node17" class="node">
<title>Node17</title>
<g id="a_node17"><a xlink:title=" ">
<polygon fill="none" stroke="#bfbfbf" points="1466.5,-926 1466.5,-994 1600.5,-994 1600.5,-926 1466.5,-926"/>
<text text-anchor="start" x="1474.5" y="-982" font-family="Helvetica,sans-Serif" font-size="10.00">time_point&lt; std::chrono</text>
<text text-anchor="middle" x="1533.5" y="-971" font-family="Helvetica,sans-Serif" font-size="10.00">::steady_clock &gt;</text>
<polyline fill="none" stroke="#bfbfbf" points="1466.5,-964 1600.5,-964 "/>
<text text-anchor="middle" x="1533.5" y="-952" font-family="Helvetica,sans-Serif" font-size="10.00"> </text>
<polyline fill="none" stroke="#bfbfbf" points="1466.5,-945 1600.5,-945 "/>
<text text-anchor="middle" x="1533.5" y="-933" font-family="Helvetica,sans-Serif" font-size="10.00"> </text>
</a>
</g>
</g>
<!-- Node17&#45;&gt;Node12 -->
<g id="edge16" class="edge">
<title>Node17&#45;&gt;Node12</title>
<path fill="none" stroke="#404040" d="M1515.43,-925.81C1501.85,-903.28 1481.51,-874.05 1457.5,-854 1420.42,-823.04 1396.07,-838.57 1359.5,-807 1351.3,-799.92 1343.55,-791.83 1336.34,-783.26"/>
<polygon fill="none" stroke="#404040" points="1336.25,-783.15 1329.38,-780.99 1328.73,-773.81 1335.61,-775.97 1336.25,-783.15"/>
<text text-anchor="middle" x="1451.5" y="-828" font-family="Helvetica,sans-Serif" font-size="10.00"> &#45;last_tick_</text>
</g>
<!-- Node18 -->
<g id="node18" class="node">
<title>Node18</title>
<g id="a_node18"><a xlink:title=" ">
<polygon fill="none" stroke="#bfbfbf" points="1368.5,-656 1368.5,-713 1406.5,-713 1406.5,-656 1368.5,-656"/>
<text text-anchor="middle" x="1387.5" y="-701" font-family="Helvetica,sans-Serif" font-size="10.00">bool</text>
<polyline fill="none" stroke="#bfbfbf" points="1368.5,-694 1406.5,-694 "/>
<text text-anchor="middle" x="1387.5" y="-682" font-family="Helvetica,sans-Serif" font-size="10.00"> </text>
<polyline fill="none" stroke="#bfbfbf" points="1368.5,-675 1406.5,-675 "/>
<text text-anchor="middle" x="1387.5" y="-663" font-family="Helvetica,sans-Serif" font-size="10.00"> </text>
</a>
</g>
</g>
<!-- Node18&#45;&gt;Node1 -->
<g id="edge17" class="edge">
<title>Node18&#45;&gt;Node1</title>
<path fill="none" stroke="#404040" d="M1387.9,-655.84C1386.86,-629.02 1381.35,-588.6 1359.5,-562 1253.45,-432.88 1059.39,-373.86 943.65,-349.05"/>
<polygon fill="none" stroke="#404040" points="943.41,-349 936.72,-351.69 931.67,-346.54 938.36,-343.86 943.41,-349"/>
<text text-anchor="middle" x="1366.5" y="-519.5" font-family="Helvetica,sans-Serif" font-size="10.00"> #running_</text>
</g>
<!-- Node19 -->
<g id="node19" class="node">
<title>Node19</title>
<g id="a_node19"><a xlink:title=" ">
<polygon fill="none" stroke="#bfbfbf" points="1425,-656 1425,-713 1544,-713 1544,-656 1425,-656"/>
<text text-anchor="middle" x="1484.5" y="-701" font-family="Helvetica,sans-Serif" font-size="10.00">unique_ptr&lt; Board &gt;</text>
<polyline fill="none" stroke="#bfbfbf" points="1425,-694 1544,-694 "/>
<text text-anchor="middle" x="1484.5" y="-682" font-family="Helvetica,sans-Serif" font-size="10.00"> </text>
<polyline fill="none" stroke="#bfbfbf" points="1425,-675 1544,-675 "/>
<text text-anchor="middle" x="1484.5" y="-663" font-family="Helvetica,sans-Serif" font-size="10.00"> </text>
</a>
</g>
</g>
<!-- Node19&#45;&gt;Node1 -->
<g id="edge18" class="edge">
<title>Node19&#45;&gt;Node1</title>
<path fill="none" stroke="#404040" d="M1478.83,-655.88C1469.17,-615.75 1445.68,-541.58 1397.5,-500 1267.32,-387.67 1063.05,-350.89 944.12,-338.86"/>
<polygon fill="none" stroke="#404040" points="943.77,-338.82 937.41,-342.23 931.83,-337.67 938.18,-334.26 943.77,-338.82"/>
<text text-anchor="middle" x="1455" y="-519.5" font-family="Helvetica,sans-Serif" font-size="10.00"> #board_</text>
</g>
<!-- Node20&#45;&gt;Node1 -->
<g id="edge19" class="edge">
<title>Node20&#45;&gt;Node1</title>
<path fill="none" stroke="#404040" d="M820.54,-134.82C823.18,-140.85 825.56,-146.96 827.5,-153 829.36,-158.78 831.06,-164.71 832.62,-170.74"/>
<polygon fill="none" stroke="#404040" points="832.62,-170.77 837.92,-175.67 835.44,-182.44 830.15,-177.55 832.62,-170.77"/>
<text text-anchor="middle" x="850.5" y="-156" font-family="Helvetica,sans-Serif" font-size="10.00"> #state_</text>
</g>
<!-- Node21 -->
<g id="node21" class="node">
<title>Node21</title>
<g id="a_node21"><a xlink:title=" ">
<polygon fill="none" stroke="#bfbfbf" points="597.5,-298 597.5,-366 749.5,-366 749.5,-298 597.5,-298"/>
<text text-anchor="start" x="605.5" y="-354" font-family="Helvetica,sans-Serif" font-size="10.00">unique_ptr&lt; PublisherEvent</text>
<text text-anchor="middle" x="673.5" y="-343" font-family="Helvetica,sans-Serif" font-size="10.00">Handler &gt;</text>
<polyline fill="none" stroke="#bfbfbf" points="597.5,-336 749.5,-336 "/>
<text text-anchor="middle" x="673.5" y="-324" font-family="Helvetica,sans-Serif" font-size="10.00"> </text>
<polyline fill="none" stroke="#bfbfbf" points="597.5,-317 749.5,-317 "/>
<text text-anchor="middle" x="673.5" y="-305" font-family="Helvetica,sans-Serif" font-size="10.00"> </text>
</a>
</g>
</g>
<!-- Node21&#45;&gt;Node20 -->
<g id="edge21" class="edge">
<title>Node21&#45;&gt;Node20</title>
<path fill="none" stroke="#404040" d="M669.61,-297.93C666.74,-260.68 666.62,-199.32 689.5,-153 693.4,-145.11 698.37,-137.6 703.97,-130.55"/>
<polygon fill="none" stroke="#404040" points="704.16,-130.33 705.03,-123.17 711.97,-121.22 711.1,-128.38 704.16,-130.33"/>
<text text-anchor="middle" x="731" y="-156" font-family="Helvetica,sans-Serif" font-size="10.00"> #eventHandler_</text>
</g>
</g>
</svg>
