<?xml version="1.0" encoding="UTF-8" standalone="no"?>
<!DOCTYPE svg PUBLIC "-//W3C//DTD SVG 1.1//EN"
 "http://www.w3.org/Graphics/SVG/1.1/DTD/svg11.dtd">
<!-- Generated by graphviz version 2.43.0 (0)
 -->
<!-- Title: EventHandler&lt; E &gt; Pages: 1 -->
<svg width="766pt" height="636pt"
 viewBox="0.00 0.00 766.00 636.00" xmlns="http://www.w3.org/2000/svg" xmlns:xlink="http://www.w3.org/1999/xlink">
<g id="graph0" class="graph" transform="scale(1 1) rotate(0) translate(4 632)">
<title>EventHandler&lt; E &gt;</title>
<!-- Node1 -->
<g id="node1" class="node">
<title>Node1</title>
<g id="a_node1"><a xlink:title=" ">
<polygon fill="#bfbfbf" stroke="black" points="300.5,-537.5 300.5,-627.5 470.5,-627.5 470.5,-537.5 300.5,-537.5"/>
<text text-anchor="middle" x="385.5" y="-615.5" font-family="Helvetica,sans-Serif" font-size="10.00">EventHandler&lt; E &gt;</text>
<polyline fill="none" stroke="black" points="300.5,-608.5 470.5,-608.5 "/>
<text text-anchor="middle" x="385.5" y="-596.5" font-family="Helvetica,sans-Serif" font-size="10.00"> </text>
<polyline fill="none" stroke="black" points="300.5,-589.5 470.5,-589.5 "/>
<text text-anchor="start" x="308.5" y="-577.5" font-family="Helvetica,sans-Serif" font-size="10.00">+ virtual std::unique</text>
<text text-anchor="start" x="308.5" y="-566.5" font-family="Helvetica,sans-Serif" font-size="10.00">_ptr&lt; Event &gt; handleEvent</text>
<text text-anchor="start" x="308.5" y="-555.5" font-family="Helvetica,sans-Serif" font-size="10.00">(std::unique_ptr&lt; E &gt; event)=0</text>
<text text-anchor="start" x="308.5" y="-544.5" font-family="Helvetica,sans-Serif" font-size="10.00"># EventHandler()=default</text>
</a>
</g>
</g>
<!-- Node2 -->
<g id="node2" class="node">
<title>Node2</title>
<g id="a_node2"><a xlink:href="$class_event_handler.html" xlink:title=" ">
<polygon fill="none" stroke="black" points="311,-388.5 311,-489.5 460,-489.5 460,-388.5 311,-388.5"/>
<text text-anchor="middle" x="385.5" y="-477.5" font-family="Helvetica,sans-Serif" font-size="10.00">EventHandler&lt; Event &gt;</text>
<polyline fill="none" stroke="black" points="311,-470.5 460,-470.5 "/>
<text text-anchor="middle" x="385.5" y="-458.5" font-family="Helvetica,sans-Serif" font-size="10.00"> </text>
<polyline fill="none" stroke="black" points="311,-451.5 460,-451.5 "/>
<text text-anchor="start" x="319" y="-439.5" font-family="Helvetica,sans-Serif" font-size="10.00">+ virtual std::unique</text>
<text text-anchor="start" x="319" y="-428.5" font-family="Helvetica,sans-Serif" font-size="10.00">_ptr&lt; Event &gt; handleEvent</text>
<text text-anchor="start" x="319" y="-417.5" font-family="Helvetica,sans-Serif" font-size="10.00">(std::unique_ptr&lt; Event</text>
<text text-anchor="start" x="319" y="-406.5" font-family="Helvetica,sans-Serif" font-size="10.00"> &gt; event)=0</text>
<text text-anchor="start" x="319" y="-395.5" font-family="Helvetica,sans-Serif" font-size="10.00"># EventHandler()=default</text>
</a>
</g>
</g>
<!-- Node1&#45;&gt;Node2 -->
<g id="edge1" class="edge">
<title>Node1&#45;&gt;Node2</title>
<path fill="none" stroke="orange" d="M385.5,-526.99C385.5,-514.7 385.5,-501.72 385.5,-489.64"/>
<polygon fill="orange" stroke="orange" points="382,-527.12 385.5,-537.12 389,-527.12 382,-527.12"/>
<text text-anchor="middle" x="412.5" y="-511" font-family="Helvetica,sans-Serif" font-size="10.00"> &lt; Event &gt;</text>
</g>
<!-- Node3 -->
<g id="node3" class="node">
<title>Node3</title>
<g id="a_node3"><a xlink:href="$class_publisher_event_handler.html" xlink:title="Extended EventHandler for Event class events with publisher capabilities.">
<polygon fill="none" stroke="black" points="303.5,-205.5 303.5,-350.5 467.5,-350.5 467.5,-205.5 303.5,-205.5"/>
<text text-anchor="middle" x="385.5" y="-338.5" font-family="Helvetica,sans-Serif" font-size="10.00">PublisherEventHandler</text>
<polyline fill="none" stroke="black" points="303.5,-331.5 467.5,-331.5 "/>
<text text-anchor="middle" x="385.5" y="-319.5" font-family="Helvetica,sans-Serif" font-size="10.00"> </text>
<polyline fill="none" stroke="black" points="303.5,-312.5 467.5,-312.5 "/>
<text text-anchor="start" x="311.5" y="-300.5" font-family="Helvetica,sans-Serif" font-size="10.00">+ std::unique_ptr&lt; Event</text>
<text text-anchor="start" x="311.5" y="-289.5" font-family="Helvetica,sans-Serif" font-size="10.00"> &gt; handleEvent(std::unique</text>
<text text-anchor="start" x="311.5" y="-278.5" font-family="Helvetica,sans-Serif" font-size="10.00">_ptr&lt; Event &gt; event) override</text>
<text text-anchor="start" x="311.5" y="-267.5" font-family="Helvetica,sans-Serif" font-size="10.00">+ virtual std::unique</text>
<text text-anchor="start" x="311.5" y="-256.5" font-family="Helvetica,sans-Serif" font-size="10.00">_ptr&lt; Event &gt; processEvent</text>
<text text-anchor="start" x="311.5" y="-245.5" font-family="Helvetica,sans-Serif" font-size="10.00">(std::unique_ptr&lt; Event</text>
<text text-anchor="start" x="311.5" y="-234.5" font-family="Helvetica,sans-Serif" font-size="10.00"> &gt; event)=0</text>
<text text-anchor="start" x="311.5" y="-223.5" font-family="Helvetica,sans-Serif" font-size="10.00"># PublisherEventHandler</text>
<text text-anchor="start" x="311.5" y="-212.5" font-family="Helvetica,sans-Serif" font-size="10.00">()=default</text>
</a>
</g>
</g>
<!-- Node2&#45;&gt;Node3 -->
<g id="edge2" class="edge">
<title>Node2&#45;&gt;Node3</title>
<path fill="none" stroke="midnightblue" d="M385.5,-377.84C385.5,-368.92 385.5,-359.66 385.5,-350.53"/>
<polygon fill="none" stroke="midnightblue" points="382,-378.13 385.5,-388.13 389,-378.13 382,-378.13"/>
</g>
<!-- Node4 -->
<g id="node4" class="node">
<title>Node4</title>
<g id="a_node4"><a xlink:href="$class_active_event_handler.html" xlink:title=" ">
<polygon fill="none" stroke="black" points="0,-0.5 0,-167.5 177,-167.5 177,-0.5 0,-0.5"/>
<text text-anchor="middle" x="88.5" y="-155.5" font-family="Helvetica,sans-Serif" font-size="10.00">ActiveEventHandler</text>
<polyline fill="none" stroke="black" points="0,-148.5 177,-148.5 "/>
<text text-anchor="start" x="8" y="-136.5" font-family="Helvetica,sans-Serif" font-size="10.00">&#45; Game * game_</text>
<text text-anchor="start" x="8" y="-125.5" font-family="Helvetica,sans-Serif" font-size="10.00">&#45; ActiveGameState * state_</text>
<text text-anchor="start" x="8" y="-114.5" font-family="Helvetica,sans-Serif" font-size="10.00">&#45; EventQueue&lt; Event &gt;</text>
<text text-anchor="start" x="8" y="-103.5" font-family="Helvetica,sans-Serif" font-size="10.00"> * eventQueue_</text>
<polyline fill="none" stroke="black" points="0,-96.5 177,-96.5 "/>
<text text-anchor="start" x="8" y="-84.5" font-family="Helvetica,sans-Serif" font-size="10.00">+ ActiveEventHandler</text>
<text text-anchor="start" x="8" y="-73.5" font-family="Helvetica,sans-Serif" font-size="10.00">()=delete</text>
<text text-anchor="start" x="8" y="-62.5" font-family="Helvetica,sans-Serif" font-size="10.00">+ ActiveEventHandler</text>
<text text-anchor="start" x="8" y="-51.5" font-family="Helvetica,sans-Serif" font-size="10.00">(Game *game, ActiveGameState</text>
<text text-anchor="start" x="8" y="-40.5" font-family="Helvetica,sans-Serif" font-size="10.00"> *state)</text>
<text text-anchor="start" x="8" y="-29.5" font-family="Helvetica,sans-Serif" font-size="10.00">+ std::unique_ptr&lt; Event</text>
<text text-anchor="start" x="8" y="-18.5" font-family="Helvetica,sans-Serif" font-size="10.00"> &gt; processEvent(std::unique</text>
<text text-anchor="start" x="8" y="-7.5" font-family="Helvetica,sans-Serif" font-size="10.00">_ptr&lt; Event &gt; event) override</text>
</a>
</g>
</g>
<!-- Node3&#45;&gt;Node4 -->
<g id="edge3" class="edge">
<title>Node3&#45;&gt;Node4</title>
<path fill="none" stroke="midnightblue" d="M294.17,-232.37C259.21,-213.98 219.57,-191.48 185.5,-168 182.76,-166.11 180.01,-164.16 177.26,-162.16"/>
<polygon fill="none" stroke="midnightblue" points="292.94,-235.68 303.42,-237.21 296.18,-229.47 292.94,-235.68"/>
</g>
<!-- Node5 -->
<g id="node5" class="node">
<title>Node5</title>
<g id="a_node5"><a xlink:href="$class_finished_event_handler.html" xlink:title=" ">
<polygon fill="none" stroke="black" points="195,-6 195,-162 382,-162 382,-6 195,-6"/>
<text text-anchor="middle" x="288.5" y="-150" font-family="Helvetica,sans-Serif" font-size="10.00">FinishedEventHandler</text>
<polyline fill="none" stroke="black" points="195,-143 382,-143 "/>
<text text-anchor="start" x="203" y="-131" font-family="Helvetica,sans-Serif" font-size="10.00">&#45; Game * game_</text>
<text text-anchor="start" x="203" y="-120" font-family="Helvetica,sans-Serif" font-size="10.00">&#45; FinishedGameState *</text>
<text text-anchor="start" x="203" y="-109" font-family="Helvetica,sans-Serif" font-size="10.00"> state_</text>
<polyline fill="none" stroke="black" points="195,-102 382,-102 "/>
<text text-anchor="start" x="203" y="-90" font-family="Helvetica,sans-Serif" font-size="10.00">+ FinishedEventHandler</text>
<text text-anchor="start" x="203" y="-79" font-family="Helvetica,sans-Serif" font-size="10.00">()=delete</text>
<text text-anchor="start" x="203" y="-68" font-family="Helvetica,sans-Serif" font-size="10.00">+ FinishedEventHandler</text>
<text text-anchor="start" x="203" y="-57" font-family="Helvetica,sans-Serif" font-size="10.00">(Game *game, FinishedGameState</text>
<text text-anchor="start" x="203" y="-46" font-family="Helvetica,sans-Serif" font-size="10.00"> *state)</text>
<text text-anchor="start" x="203" y="-35" font-family="Helvetica,sans-Serif" font-size="10.00">+ std::unique_ptr&lt; Event</text>
<text text-anchor="start" x="203" y="-24" font-family="Helvetica,sans-Serif" font-size="10.00"> &gt; processEvent(std::unique</text>
<text text-anchor="start" x="203" y="-13" font-family="Helvetica,sans-Serif" font-size="10.00">_ptr&lt; Event &gt; event) override</text>
</a>
</g>
</g>
<!-- Node3&#45;&gt;Node5 -->
<g id="edge4" class="edge">
<title>Node3&#45;&gt;Node5</title>
<path fill="none" stroke="midnightblue" d="M344.7,-196.25C339,-184.95 333.15,-173.37 327.47,-162.15"/>
<polygon fill="none" stroke="midnightblue" points="341.61,-197.89 349.24,-205.23 347.86,-194.73 341.61,-197.89"/>
</g>
<!-- Node6 -->
<g id="node6" class="node">
<title>Node6</title>
<g id="a_node6"><a xlink:href="$class_menu_event_handler.html" xlink:title=" ">
<polygon fill="none" stroke="black" points="400.5,-11.5 400.5,-156.5 564.5,-156.5 564.5,-11.5 400.5,-11.5"/>
<text text-anchor="middle" x="482.5" y="-144.5" font-family="Helvetica,sans-Serif" font-size="10.00">MenuEventHandler</text>
<polyline fill="none" stroke="black" points="400.5,-137.5 564.5,-137.5 "/>
<text text-anchor="start" x="408.5" y="-125.5" font-family="Helvetica,sans-Serif" font-size="10.00">&#45; Game * game_</text>
<text text-anchor="start" x="408.5" y="-114.5" font-family="Helvetica,sans-Serif" font-size="10.00">&#45; MenuGameState * state_</text>
<polyline fill="none" stroke="black" points="400.5,-107.5 564.5,-107.5 "/>
<text text-anchor="start" x="408.5" y="-95.5" font-family="Helvetica,sans-Serif" font-size="10.00">+ MenuEventHandler()</text>
<text text-anchor="start" x="408.5" y="-84.5" font-family="Helvetica,sans-Serif" font-size="10.00">=delete</text>
<text text-anchor="start" x="408.5" y="-73.5" font-family="Helvetica,sans-Serif" font-size="10.00">+ MenuEventHandler(Game</text>
<text text-anchor="start" x="408.5" y="-62.5" font-family="Helvetica,sans-Serif" font-size="10.00"> *game, MenuGameState</text>
<text text-anchor="start" x="408.5" y="-51.5" font-family="Helvetica,sans-Serif" font-size="10.00"> *state)</text>
<text text-anchor="start" x="408.5" y="-40.5" font-family="Helvetica,sans-Serif" font-size="10.00">+ std::unique_ptr&lt; Event</text>
<text text-anchor="start" x="408.5" y="-29.5" font-family="Helvetica,sans-Serif" font-size="10.00"> &gt; processEvent(std::unique</text>
<text text-anchor="start" x="408.5" y="-18.5" font-family="Helvetica,sans-Serif" font-size="10.00">_ptr&lt; Event &gt; event) override</text>
</a>
</g>
</g>
<!-- Node3&#45;&gt;Node6 -->
<g id="edge5" class="edge">
<title>Node3&#45;&gt;Node6</title>
<path fill="none" stroke="midnightblue" d="M426.31,-196.22C432.94,-183.09 439.77,-169.57 446.29,-156.68"/>
<polygon fill="none" stroke="midnightblue" points="423.14,-194.73 421.76,-205.23 429.39,-197.89 423.14,-194.73"/>
</g>
<!-- Node7 -->
<g id="node7" class="node">
<title>Node7</title>
<g id="a_node7"><a xlink:href="$class_pause_event_handler.html" xlink:title=" ">
<polygon fill="none" stroke="black" points="583,-11.5 583,-156.5 758,-156.5 758,-11.5 583,-11.5"/>
<text text-anchor="middle" x="670.5" y="-144.5" font-family="Helvetica,sans-Serif" font-size="10.00">PauseEventHandler</text>
<polyline fill="none" stroke="black" points="583,-137.5 758,-137.5 "/>
<text text-anchor="start" x="591" y="-125.5" font-family="Helvetica,sans-Serif" font-size="10.00">&#45; Game * game_</text>
<text text-anchor="start" x="591" y="-114.5" font-family="Helvetica,sans-Serif" font-size="10.00">&#45; PauseGameState * state_</text>
<polyline fill="none" stroke="black" points="583,-107.5 758,-107.5 "/>
<text text-anchor="start" x="591" y="-95.5" font-family="Helvetica,sans-Serif" font-size="10.00">+ PauseEventHandler</text>
<text text-anchor="start" x="591" y="-84.5" font-family="Helvetica,sans-Serif" font-size="10.00">()=delete</text>
<text text-anchor="start" x="591" y="-73.5" font-family="Helvetica,sans-Serif" font-size="10.00">+ PauseEventHandler</text>
<text text-anchor="start" x="591" y="-62.5" font-family="Helvetica,sans-Serif" font-size="10.00">(Game *game, PauseGameState</text>
<text text-anchor="start" x="591" y="-51.5" font-family="Helvetica,sans-Serif" font-size="10.00"> *state)</text>
<text text-anchor="start" x="591" y="-40.5" font-family="Helvetica,sans-Serif" font-size="10.00">+ std::unique_ptr&lt; Event</text>
<text text-anchor="start" x="591" y="-29.5" font-family="Helvetica,sans-Serif" font-size="10.00"> &gt; processEvent(std::unique</text>
<text text-anchor="start" x="591" y="-18.5" font-family="Helvetica,sans-Serif" font-size="10.00">_ptr&lt; Event &gt; event) override</text>
</a>
</g>
</g>
<!-- Node3&#45;&gt;Node7 -->
<g id="edge6" class="edge">
<title>Node3&#45;&gt;Node7</title>
<path fill="none" stroke="midnightblue" d="M476.35,-228.76C507.88,-210.87 542.97,-189.64 573.5,-168 578.56,-164.41 583.68,-160.61 588.78,-156.7"/>
<polygon fill="none" stroke="midnightblue" points="474.55,-225.76 467.55,-233.72 477.98,-231.86 474.55,-225.76"/>
</g>
</g>
</svg>
