<?xml version="1.0" encoding="UTF-8" standalone="no"?>
<!DOCTYPE svg PUBLIC "-//W3C//DTD SVG 1.1//EN"
 "http://www.w3.org/Graphics/SVG/1.1/DTD/svg11.dtd">
<!-- Generated by graphviz version 2.43.0 (0)
 -->
<!-- Title: /home/tomek/CLionProjects/proi/proi&#45;projekt/src/game&#45;lib Pages: 1 -->
<svg width="122pt" height="247pt"
 viewBox="0.00 0.00 122.00 247.00" xmlns="http://www.w3.org/2000/svg" xmlns:xlink="http://www.w3.org/1999/xlink">
<g id="graph0" class="graph" transform="scale(1 1) rotate(0) translate(4 243)">
<title>/home/tomek/CLionProjects/proi/proi&#45;projekt/src/game&#45;lib</title>
<g id="clust1" class="cluster">
<title>clusterdir_68267d1309a1af8e8297ef4c3efbcdba</title>
<g id="a_clust1"><a xlink:href="dir_68267d1309a1af8e8297ef4c3efbcdba.html" xlink:title="src">
<polygon fill="#edf0f7" stroke="#404040" stroke-dasharray="5,2" points="8,-8 8,-231 106,-231 106,-8 8,-8"/>
<text text-anchor="middle" x="57" y="-219" font-family="Helvetica,sans-Serif" font-size="10.00">src</text>
</a>
</g>
</g>
<g id="clust2" class="cluster">
<title>clusterdir_ababdeb7394d8224d3e296f78088442b</title>
<g id="a_clust2"><a xlink:href="dir_ababdeb7394d8224d3e296f78088442b.html">
<polygon fill="#edf0f7" stroke="#404040" stroke-width="2" points="16,-80 16,-204 92,-204 92,-80 16,-80"/>
</a>
</g>
</g>
<!-- dir_dd008488fb0da8829e2acca19721471d -->
<g id="node1" class="node">
<title>dir_dd008488fb0da8829e2acca19721471d</title>
<g id="a_node1"><a xlink:href="dir_dd008488fb0da8829e2acca19721471d.html" xlink:title="core&#45;lib">
<polygon fill="#a2b4d6" stroke="red" points="88,-52 34,-52 34,-16 88,-16 88,-52"/>
<text text-anchor="middle" x="61" y="-31.5" font-family="Helvetica,sans-Serif" font-size="10.00">core&#45;lib</text>
</a>
</g>
</g>
<!-- dir_ababdeb7394d8224d3e296f78088442b -->
<g id="node2" class="node">
<title>dir_ababdeb7394d8224d3e296f78088442b</title>
<text text-anchor="middle" x="54" y="-175.5" font-family="Helvetica,sans-Serif" font-size="10.00">game&#45;lib</text>
</g>
<!-- dir_ababdeb7394d8224d3e296f78088442b&#45;&gt;dir_dd008488fb0da8829e2acca19721471d -->
<g id="edge2" class="edge">
<title>dir_ababdeb7394d8224d3e296f78088442b&#45;&gt;dir_dd008488fb0da8829e2acca19721471d</title>
<path fill="none" stroke="black" d="M68.33,-159.57C75.45,-149.76 83.31,-136.92 87,-124 92.38,-105.2 92.06,-98.89 87,-80 85.25,-73.48 82.31,-66.93 79.01,-60.92"/>
<polygon fill="black" stroke="black" points="81.81,-58.78 73.67,-52.01 75.81,-62.38 81.81,-58.78"/>
<g id="a_edge2&#45;headlabel"><a xlink:href="dir_000001_000000.html" xlink:title="7">
<text text-anchor="middle" x="86.09" y="-57.91" font-family="Helvetica,sans-Serif" font-size="10.00">7</text>
</a>
</g>
</g>
<!-- dir_810fd887183ef9ca5ceb867dba4c2553 -->
<g id="node3" class="node">
<title>dir_810fd887183ef9ca5ceb867dba4c2553</title>
<g id="a_node3"><a xlink:href="dir_810fd887183ef9ca5ceb867dba4c2553.html" xlink:title="include">
<polygon fill="#a2b4d6" stroke="#404040" points="78,-124 24,-124 24,-88 78,-88 78,-124"/>
<text text-anchor="middle" x="51" y="-103.5" font-family="Helvetica,sans-Serif" font-size="10.00">include</text>
</a>
</g>
</g>
<!-- dir_ababdeb7394d8224d3e296f78088442b&#45;&gt;dir_810fd887183ef9ca5ceb867dba4c2553 -->
<g id="edge1" class="edge">
<title>dir_ababdeb7394d8224d3e296f78088442b&#45;&gt;dir_810fd887183ef9ca5ceb867dba4c2553</title>
<path fill="none" stroke="black" d="M53.26,-159.7C52.93,-151.98 52.53,-142.71 52.16,-134.11"/>
<polygon fill="black" stroke="black" points="55.66,-133.95 51.73,-124.1 48.66,-134.25 55.66,-133.95"/>
<g id="a_edge1&#45;headlabel"><a xlink:href="dir_000001_000003.html" xlink:title="7">
<text text-anchor="middle" x="58.65" y="-134.92" font-family="Helvetica,sans-Serif" font-size="10.00">7</text>
</a>
</g>
</g>
<!-- dir_810fd887183ef9ca5ceb867dba4c2553&#45;&gt;dir_dd008488fb0da8829e2acca19721471d -->
<g id="edge3" class="edge">
<title>dir_810fd887183ef9ca5ceb867dba4c2553&#45;&gt;dir_dd008488fb0da8829e2acca19721471d</title>
<path fill="none" stroke="black" d="M53.47,-87.7C54.57,-79.98 55.9,-70.71 57.13,-62.11"/>
<polygon fill="black" stroke="black" points="60.61,-62.5 58.56,-52.1 53.68,-61.51 60.61,-62.5"/>
<g id="a_edge3&#45;headlabel"><a xlink:href="dir_000003_000000.html" xlink:title="2">
<text text-anchor="middle" x="62.91" y="-63.96" font-family="Helvetica,sans-Serif" font-size="10.00">2</text>
</a>
</g>
</g>
</g>
</svg>
