<?xml version="1.0" encoding="UTF-8" standalone="no"?>
<!DOCTYPE svg PUBLIC "-//W3C//DTD SVG 1.1//EN"
 "http://www.w3.org/Graphics/SVG/1.1/DTD/svg11.dtd">
<!-- Generated by graphviz version 2.50.0 (0)
 -->
<!-- Title: /home/tomek/trash/battle&#45;city/src/lib/graphic&#45;lib/include/ActiveState_dir Pages: 1 -->
<svg width="312pt" height="231pt"
 viewBox="0.00 0.00 312.00 231.00" xmlns="http://www.w3.org/2000/svg" xmlns:xlink="http://www.w3.org/1999/xlink">
<g id="graph0" class="graph" transform="scale(1 1) rotate(0) translate(4 227)">
<title>/home/tomek/trash/battle&#45;city/src/lib/graphic&#45;lib/include/ActiveState_dir</title>
<g id="clust1" class="cluster">
<title>clusterdir_67afff38c45da67f918987aad249e145</title>
<g id="a_clust1"><a xlink:href="dir_67afff38c45da67f918987aad249e145.html" xlink:title="include">
<polygon fill="#ddddee" stroke="black" points="8,-128 8,-215 296,-215 296,-128 8,-128"/>
<text text-anchor="middle" x="152" y="-203" font-family="Helvetica,sans-Serif" font-size="10.00">include</text>
</a>
</g>
</g>
<g id="clust2" class="cluster">
<title>clusterdir_2c0b321710d117dd78fed4de137cdb54</title>
<g id="a_clust2"><a xlink:href="dir_2c0b321710d117dd78fed4de137cdb54.html">
<polygon fill="#eeeeff" stroke="black" points="16,-136 16,-188 288,-188 288,-136 16,-136"/>
</a>
</g>
</g>
<!-- dir_2c0b321710d117dd78fed4de137cdb54 -->
<g id="node1" class="node">
<title>dir_2c0b321710d117dd78fed4de137cdb54</title>
<text text-anchor="middle" x="234" y="-159.5" font-family="Helvetica,sans-Serif" font-size="10.00">ActiveState_dir</text>
</g>
<!-- dir_fecee7a0e513af7f903fc2dd6776cbe0 -->
<g id="node2" class="node">
<title>dir_fecee7a0e513af7f903fc2dd6776cbe0</title>
<g id="a_node2"><a xlink:href="dir_fecee7a0e513af7f903fc2dd6776cbe0.html" xlink:title="Borad_dir">
<polygon fill="white" stroke="black" points="170.5,-180 107.5,-180 107.5,-144 170.5,-144 170.5,-180"/>
<text text-anchor="middle" x="139" y="-159.5" font-family="Helvetica,sans-Serif" font-size="10.00">Borad_dir</text>
</a>
</g>
</g>
<!-- dir_e1f35f9bd0e5733c0b6830a2848b421d -->
<g id="node4" class="node">
<title>dir_e1f35f9bd0e5733c0b6830a2848b421d</title>
<g id="a_node4"><a xlink:href="dir_e1f35f9bd0e5733c0b6830a2848b421d.html" xlink:title="tank&#45;lib">
<polygon fill="none" stroke="red" points="166,-36 112,-36 112,0 166,0 166,-36"/>
<text text-anchor="middle" x="139" y="-15.5" font-family="Helvetica,sans-Serif" font-size="10.00">tank&#45;lib</text>
</a>
</g>
</g>
<!-- dir_fecee7a0e513af7f903fc2dd6776cbe0&#45;&gt;dir_e1f35f9bd0e5733c0b6830a2848b421d -->
<g id="edge2" class="edge">
<title>dir_fecee7a0e513af7f903fc2dd6776cbe0&#45;&gt;dir_e1f35f9bd0e5733c0b6830a2848b421d</title>
<path fill="none" stroke="black" d="M134.94,-143.93C132.69,-133.6 130.13,-120.12 129,-108 127.51,-92.07 127.51,-87.93 129,-72 129.8,-63.48 131.3,-54.28 132.9,-45.99"/>
<polygon fill="black" stroke="black" points="136.36,-46.57 134.94,-36.07 129.5,-45.16 136.36,-46.57"/>
<g id="a_edge2&#45;headlabel"><a xlink:href="dir_000013_000016.html" xlink:title="3">
<text text-anchor="middle" x="138.41" y="-48.16" font-family="Helvetica,sans-Serif" font-size="10.00">3</text>
</a>
</g>
</g>
<!-- dir_cacc18bc85170f9fa04943c8ab019291 -->
<g id="node5" class="node">
<title>dir_cacc18bc85170f9fa04943c8ab019291</title>
<g id="a_node5"><a xlink:href="dir_cacc18bc85170f9fa04943c8ab019291.html" xlink:title="board&#45;lib">
<polygon fill="none" stroke="red" points="198,-108 138,-108 138,-72 198,-72 198,-108"/>
<text text-anchor="middle" x="168" y="-87.5" font-family="Helvetica,sans-Serif" font-size="10.00">board&#45;lib</text>
</a>
</g>
</g>
<!-- dir_fecee7a0e513af7f903fc2dd6776cbe0&#45;&gt;dir_cacc18bc85170f9fa04943c8ab019291 -->
<g id="edge1" class="edge">
<title>dir_fecee7a0e513af7f903fc2dd6776cbe0&#45;&gt;dir_cacc18bc85170f9fa04943c8ab019291</title>
<path fill="none" stroke="black" d="M146.17,-143.7C149.43,-135.81 153.37,-126.3 157,-117.55"/>
<polygon fill="black" stroke="black" points="160.32,-118.68 160.91,-108.1 153.85,-116 160.32,-118.68"/>
<g id="a_edge1&#45;headlabel"><a xlink:href="dir_000013_000002.html" xlink:title="2">
<text text-anchor="middle" x="161.57" y="-120.59" font-family="Helvetica,sans-Serif" font-size="10.00">2</text>
</a>
</g>
</g>
<!-- dir_373af9de6050c3be8466dddc47cd6f2b -->
<g id="node3" class="node">
<title>dir_373af9de6050c3be8466dddc47cd6f2b</title>
<g id="a_node3"><a xlink:href="dir_373af9de6050c3be8466dddc47cd6f2b.html" xlink:title="Frame_dir">
<polygon fill="white" stroke="black" points="89.5,-180 24.5,-180 24.5,-144 89.5,-144 89.5,-180"/>
<text text-anchor="middle" x="57" y="-159.5" font-family="Helvetica,sans-Serif" font-size="10.00">Frame_dir</text>
</a>
</g>
</g>
<!-- dir_cacc18bc85170f9fa04943c8ab019291&#45;&gt;dir_e1f35f9bd0e5733c0b6830a2848b421d -->
<g id="edge3" class="edge">
<title>dir_cacc18bc85170f9fa04943c8ab019291&#45;&gt;dir_e1f35f9bd0e5733c0b6830a2848b421d</title>
<path fill="none" stroke="black" d="M160.83,-71.7C157.57,-63.81 153.63,-54.3 150,-45.55"/>
<polygon fill="black" stroke="black" points="153.15,-44 146.09,-36.1 146.68,-46.68 153.15,-44"/>
<g id="a_edge3&#45;headlabel"><a xlink:href="dir_000002_000016.html" xlink:title="5">
<text text-anchor="middle" x="157.15" y="-43.74" font-family="Helvetica,sans-Serif" font-size="10.00">5</text>
</a>
</g>
</g>
</g>
</svg>
