<?xml version="1.0" encoding="UTF-8" standalone="no"?>
<!DOCTYPE svg PUBLIC "-//W3C//DTD SVG 1.1//EN"
 "http://www.w3.org/Graphics/SVG/1.1/DTD/svg11.dtd">
<!-- Generated by graphviz version 2.50.0 (0)
 -->
<!-- Title: /home/tomek/trash/battle&#45;city/src/lib/bot&#45;lib/include Pages: 1 -->
<svg width="106pt" height="223pt"
 viewBox="0.00 0.00 106.00 223.00" xmlns="http://www.w3.org/2000/svg" xmlns:xlink="http://www.w3.org/1999/xlink">
<g id="graph0" class="graph" transform="scale(1 1) rotate(0) translate(4 219)">
<title>/home/tomek/trash/battle&#45;city/src/lib/bot&#45;lib/include</title>
<g id="clust1" class="cluster">
<title>clusterdir_38ffd869ea1e3ea20201c988a7100f97</title>
<g id="a_clust1"><a xlink:href="dir_38ffd869ea1e3ea20201c988a7100f97.html" xlink:title="bot&#45;lib">
<polygon fill="#ddddee" stroke="black" points="20,-136 20,-207 90,-207 90,-136 20,-136"/>
<text text-anchor="middle" x="55" y="-195" font-family="Helvetica,sans-Serif" font-size="10.00">bot&#45;lib</text>
</a>
</g>
</g>
<!-- dir_1db1145fe26e22a51dbec9ac9ee9e8aa -->
<g id="node1" class="node">
<title>dir_1db1145fe26e22a51dbec9ac9ee9e8aa</title>
<g id="a_node1"><a xlink:href="dir_1db1145fe26e22a51dbec9ac9ee9e8aa.html" xlink:title="include">
<polygon fill="#eeeeff" stroke="black" points="82,-180 28,-180 28,-144 82,-144 82,-180"/>
<text text-anchor="middle" x="55" y="-159.5" font-family="Helvetica,sans-Serif" font-size="10.00">include</text>
</a>
</g>
</g>
<!-- dir_23789bfc1eecc7b2a8e34646554d91fc -->
<g id="node2" class="node">
<title>dir_23789bfc1eecc7b2a8e34646554d91fc</title>
<g id="a_node2"><a xlink:href="dir_23789bfc1eecc7b2a8e34646554d91fc.html" xlink:title="core&#45;lib">
<polygon fill="none" stroke="red" points="54,-108 0,-108 0,-72 54,-72 54,-108"/>
<text text-anchor="middle" x="27" y="-87.5" font-family="Helvetica,sans-Serif" font-size="10.00">core&#45;lib</text>
</a>
</g>
</g>
<!-- dir_1db1145fe26e22a51dbec9ac9ee9e8aa&#45;&gt;dir_23789bfc1eecc7b2a8e34646554d91fc -->
<g id="edge1" class="edge">
<title>dir_1db1145fe26e22a51dbec9ac9ee9e8aa&#45;&gt;dir_23789bfc1eecc7b2a8e34646554d91fc</title>
<path fill="none" stroke="black" d="M48.08,-143.7C44.93,-135.81 41.12,-126.3 37.62,-117.55"/>
<polygon fill="black" stroke="black" points="40.81,-116.09 33.84,-108.1 34.31,-118.69 40.81,-116.09"/>
<g id="a_edge1&#45;headlabel"><a xlink:href="dir_000005_000006.html" xlink:title="4">
<text text-anchor="middle" x="44.78" y="-115.87" font-family="Helvetica,sans-Serif" font-size="10.00">4</text>
</a>
</g>
</g>
<!-- dir_e1f35f9bd0e5733c0b6830a2848b421d -->
<g id="node3" class="node">
<title>dir_e1f35f9bd0e5733c0b6830a2848b421d</title>
<g id="a_node3"><a xlink:href="dir_e1f35f9bd0e5733c0b6830a2848b421d.html" xlink:title="tank&#45;lib">
<polygon fill="none" stroke="red" points="54,-36 0,-36 0,0 54,0 54,-36"/>
<text text-anchor="middle" x="27" y="-15.5" font-family="Helvetica,sans-Serif" font-size="10.00">tank&#45;lib</text>
</a>
</g>
</g>
<!-- dir_1db1145fe26e22a51dbec9ac9ee9e8aa&#45;&gt;dir_e1f35f9bd0e5733c0b6830a2848b421d -->
<g id="edge2" class="edge">
<title>dir_1db1145fe26e22a51dbec9ac9ee9e8aa&#45;&gt;dir_e1f35f9bd0e5733c0b6830a2848b421d</title>
<path fill="none" stroke="black" d="M60.34,-143.87C65.16,-125.64 70.43,-96.17 63,-72 59.99,-62.22 54.49,-52.62 48.68,-44.33"/>
<polygon fill="black" stroke="black" points="51.41,-42.13 42.61,-36.23 45.81,-46.33 51.41,-42.13"/>
<g id="a_edge2&#45;headlabel"><a xlink:href="dir_000005_000016.html" xlink:title="1">
<text text-anchor="middle" x="55.83" y="-40.8" font-family="Helvetica,sans-Serif" font-size="10.00">1</text>
</a>
</g>
</g>
<!-- dir_23789bfc1eecc7b2a8e34646554d91fc&#45;&gt;dir_e1f35f9bd0e5733c0b6830a2848b421d -->
<g id="edge3" class="edge">
<title>dir_23789bfc1eecc7b2a8e34646554d91fc&#45;&gt;dir_e1f35f9bd0e5733c0b6830a2848b421d</title>
<path fill="none" stroke="black" d="M21.08,-71.7C20.29,-63.98 20.06,-54.71 20.4,-46.11"/>
<polygon fill="black" stroke="black" points="23.9,-46.32 21.1,-36.1 16.92,-45.84 23.9,-46.32"/>
<g id="a_edge3&#45;headlabel"><a xlink:href="dir_000006_000016.html" xlink:title="2">
<text text-anchor="middle" x="26.48" y="-47.61" font-family="Helvetica,sans-Serif" font-size="10.00">2</text>
</a>
</g>
</g>
<!-- dir_e1f35f9bd0e5733c0b6830a2848b421d&#45;&gt;dir_23789bfc1eecc7b2a8e34646554d91fc -->
<g id="edge4" class="edge">
<title>dir_e1f35f9bd0e5733c0b6830a2848b421d&#45;&gt;dir_23789bfc1eecc7b2a8e34646554d91fc</title>
<path fill="none" stroke="black" d="M32.9,-36.1C33.7,-43.79 33.94,-53.05 33.6,-61.67"/>
<polygon fill="black" stroke="black" points="30.11,-61.48 32.92,-71.7 37.09,-61.96 30.11,-61.48"/>
<g id="a_edge4&#45;headlabel"><a xlink:href="dir_000016_000006.html" xlink:title="9">
<text text-anchor="middle" x="27.52" y="-55.2" font-family="Helvetica,sans-Serif" font-size="10.00">9</text>
</a>
</g>
</g>
</g>
</svg>
