<?xml version="1.0" encoding="UTF-8" standalone="no"?>
<!DOCTYPE svg PUBLIC "-//W3C//DTD SVG 1.1//EN"
 "http://www.w3.org/Graphics/SVG/1.1/DTD/svg11.dtd">
<!-- Generated by graphviz version 2.43.0 (0)
 -->
<!-- Title: /home/tomek/CLionProjects/proi/proi&#45;projekt/src/board&#45;lib Pages: 1 -->
<svg width="166pt" height="247pt"
 viewBox="0.00 0.00 166.00 247.00" xmlns="http://www.w3.org/2000/svg" xmlns:xlink="http://www.w3.org/1999/xlink">
<g id="graph0" class="graph" transform="scale(1 1) rotate(0) translate(4 243)">
<title>/home/tomek/CLionProjects/proi/proi&#45;projekt/src/board&#45;lib</title>
<g id="clust1" class="cluster">
<title>clusterdir_68267d1309a1af8e8297ef4c3efbcdba</title>
<g id="a_clust1"><a xlink:href="dir_68267d1309a1af8e8297ef4c3efbcdba.html" xlink:title="src">
<polygon fill="#edf0f7" stroke="#404040" stroke-dasharray="5,2" points="8,-8 8,-231 150,-231 150,-8 8,-8"/>
<text text-anchor="middle" x="79" y="-219" font-family="Helvetica,sans-Serif" font-size="10.00">src</text>
</a>
</g>
</g>
<g id="clust2" class="cluster">
<title>clusterdir_f9968d1aa079c8b4e4a8682b301a0233</title>
<g id="a_clust2"><a xlink:href="dir_f9968d1aa079c8b4e4a8682b301a0233.html">
<polygon fill="#edf0f7" stroke="#404040" stroke-width="2" points="41,-80 41,-204 117,-204 117,-80 41,-80"/>
</a>
</g>
</g>
<!-- dir_09862807db2014add90ed94978e55931 -->
<g id="node1" class="node">
<title>dir_09862807db2014add90ed94978e55931</title>
<g id="a_node1"><a xlink:href="dir_09862807db2014add90ed94978e55931.html" xlink:title="tank&#45;lib">
<polygon fill="#a2b4d6" stroke="red" points="70,-52 16,-52 16,-16 70,-16 70,-52"/>
<text text-anchor="middle" x="43" y="-31.5" font-family="Helvetica,sans-Serif" font-size="10.00">tank&#45;lib</text>
</a>
</g>
</g>
<!-- dir_dd008488fb0da8829e2acca19721471d -->
<g id="node2" class="node">
<title>dir_dd008488fb0da8829e2acca19721471d</title>
<g id="a_node2"><a xlink:href="dir_dd008488fb0da8829e2acca19721471d.html" xlink:title="core&#45;lib">
<polygon fill="#a2b4d6" stroke="red" points="142,-52 88,-52 88,-16 142,-16 142,-52"/>
<text text-anchor="middle" x="115" y="-31.5" font-family="Helvetica,sans-Serif" font-size="10.00">core&#45;lib</text>
</a>
</g>
</g>
<!-- dir_f9968d1aa079c8b4e4a8682b301a0233 -->
<g id="node3" class="node">
<title>dir_f9968d1aa079c8b4e4a8682b301a0233</title>
<text text-anchor="middle" x="79" y="-175.5" font-family="Helvetica,sans-Serif" font-size="10.00">board&#45;lib</text>
</g>
<!-- dir_f9968d1aa079c8b4e4a8682b301a0233&#45;&gt;dir_09862807db2014add90ed94978e55931 -->
<g id="edge1" class="edge">
<title>dir_f9968d1aa079c8b4e4a8682b301a0233&#45;&gt;dir_09862807db2014add90ed94978e55931</title>
<path fill="none" stroke="black" d="M63.39,-159.77C55.63,-150.03 47.05,-137.18 43,-124 36.84,-103.97 37.21,-80.18 38.91,-62.24"/>
<polygon fill="black" stroke="black" points="42.41,-62.51 40.07,-52.17 35.45,-61.71 42.41,-62.51"/>
<g id="a_edge1&#45;headlabel"><a xlink:href="dir_000000_000009.html" xlink:title="5">
<text text-anchor="middle" x="44.82" y="-63.9" font-family="Helvetica,sans-Serif" font-size="10.00">5</text>
</a>
</g>
</g>
<!-- dir_f9968d1aa079c8b4e4a8682b301a0233&#45;&gt;dir_dd008488fb0da8829e2acca19721471d -->
<g id="edge3" class="edge">
<title>dir_f9968d1aa079c8b4e4a8682b301a0233&#45;&gt;dir_dd008488fb0da8829e2acca19721471d</title>
<path fill="none" stroke="black" d="M94.61,-159.77C102.37,-150.03 110.95,-137.18 115,-124 121.16,-103.97 120.79,-80.18 119.09,-62.24"/>
<polygon fill="black" stroke="black" points="122.55,-61.71 117.93,-52.17 115.59,-62.51 122.55,-61.71"/>
<g id="a_edge3&#45;headlabel"><a xlink:href="dir_000000_000001.html" xlink:title="5">
<text text-anchor="middle" x="125.78" y="-62.46" font-family="Helvetica,sans-Serif" font-size="10.00">5</text>
</a>
</g>
</g>
<!-- dir_c91517fa00d073924f540ca24de4254b -->
<g id="node4" class="node">
<title>dir_c91517fa00d073924f540ca24de4254b</title>
<g id="a_node4"><a xlink:href="dir_c91517fa00d073924f540ca24de4254b.html" xlink:title="include">
<polygon fill="#a2b4d6" stroke="#404040" points="106,-124 52,-124 52,-88 106,-88 106,-124"/>
<text text-anchor="middle" x="79" y="-103.5" font-family="Helvetica,sans-Serif" font-size="10.00">include</text>
</a>
</g>
</g>
<!-- dir_f9968d1aa079c8b4e4a8682b301a0233&#45;&gt;dir_c91517fa00d073924f540ca24de4254b -->
<g id="edge2" class="edge">
<title>dir_f9968d1aa079c8b4e4a8682b301a0233&#45;&gt;dir_c91517fa00d073924f540ca24de4254b</title>
<path fill="none" stroke="black" d="M79,-159.7C79,-151.98 79,-142.71 79,-134.11"/>
<polygon fill="black" stroke="black" points="82.5,-134.1 79,-124.1 75.5,-134.1 82.5,-134.1"/>
<g id="a_edge2&#45;headlabel"><a xlink:href="dir_000000_000003.html" xlink:title="9">
<text text-anchor="middle" x="85.34" y="-135.2" font-family="Helvetica,sans-Serif" font-size="10.00">9</text>
</a>
</g>
</g>
<!-- dir_c91517fa00d073924f540ca24de4254b&#45;&gt;dir_09862807db2014add90ed94978e55931 -->
<g id="edge4" class="edge">
<title>dir_c91517fa00d073924f540ca24de4254b&#45;&gt;dir_09862807db2014add90ed94978e55931</title>
<path fill="none" stroke="black" d="M70.1,-87.7C66,-79.73 61.05,-70.1 56.51,-61.26"/>
<polygon fill="black" stroke="black" points="59.48,-59.4 51.8,-52.1 53.26,-62.6 59.48,-59.4"/>
<g id="a_edge4&#45;headlabel"><a xlink:href="dir_000003_000009.html" xlink:title="2">
<text text-anchor="middle" x="63.65" y="-58.79" font-family="Helvetica,sans-Serif" font-size="10.00">2</text>
</a>
</g>
</g>
<!-- dir_c91517fa00d073924f540ca24de4254b&#45;&gt;dir_dd008488fb0da8829e2acca19721471d -->
<g id="edge5" class="edge">
<title>dir_c91517fa00d073924f540ca24de4254b&#45;&gt;dir_dd008488fb0da8829e2acca19721471d</title>
<path fill="none" stroke="black" d="M87.9,-87.7C92,-79.73 96.95,-70.1 101.49,-61.26"/>
<polygon fill="black" stroke="black" points="104.74,-62.6 106.2,-52.1 98.52,-59.4 104.74,-62.6"/>
<g id="a_edge5&#45;headlabel"><a xlink:href="dir_000003_000001.html" xlink:title="1">
<text text-anchor="middle" x="105.62" y="-64.59" font-family="Helvetica,sans-Serif" font-size="10.00">1</text>
</a>
</g>
</g>
</g>
</svg>
