<?xml version="1.0" encoding="UTF-8" standalone="no"?>
<!DOCTYPE svg PUBLIC "-//W3C//DTD SVG 1.1//EN"
 "http://www.w3.org/Graphics/SVG/1.1/DTD/svg11.dtd">
<!-- Generated by graphviz version 2.43.0 (0)
 -->
<!-- Title: Event::CollisionInfo Pages: 1 -->
<svg width="257pt" height="215pt"
 viewBox="0.00 0.00 257.00 215.00" xmlns="http://www.w3.org/2000/svg" xmlns:xlink="http://www.w3.org/1999/xlink">
<g id="graph0" class="graph" transform="scale(1 1) rotate(0) translate(4 211)">
<title>Event::CollisionInfo</title>
<!-- Node1 -->
<g id="node1" class="node">
<title>Node1</title>
<g id="a_node1"><a xlink:title=" ">
<polygon fill="#bfbfbf" stroke="black" points="69,-0.5 69,-57.5 180,-57.5 180,-0.5 69,-0.5"/>
<text text-anchor="middle" x="124.5" y="-45.5" font-family="Helvetica,sans-Serif" font-size="10.00">Event::CollisionInfo</text>
<polyline fill="none" stroke="black" points="69,-38.5 180,-38.5 "/>
<text text-anchor="middle" x="124.5" y="-26.5" font-family="Helvetica,sans-Serif" font-size="10.00"> </text>
<polyline fill="none" stroke="black" points="69,-19.5 180,-19.5 "/>
<text text-anchor="middle" x="124.5" y="-7.5" font-family="Helvetica,sans-Serif" font-size="10.00"> </text>
</a>
</g>
</g>
<!-- Node2 -->
<g id="node2" class="node">
<title>Node2</title>
<g id="a_node2"><a xlink:title=" ">
<polygon fill="none" stroke="black" points="0,-116.5 0,-206.5 249,-206.5 249,-116.5 0,-116.5"/>
<text text-anchor="start" x="8" y="-194.5" font-family="Helvetica,sans-Serif" font-size="10.00">variant&lt; PlayerTankCollision</text>
<text text-anchor="start" x="8" y="-183.5" font-family="Helvetica,sans-Serif" font-size="10.00">Info, EnemyTankCollisionInfo,</text>
<text text-anchor="start" x="8" y="-172.5" font-family="Helvetica,sans-Serif" font-size="10.00"> FriendlyBulletCollisionInfo,</text>
<text text-anchor="middle" x="124.5" y="-161.5" font-family="Helvetica,sans-Serif" font-size="10.00"> EnemyBulletCollisionInfo, BoardCollisionInfo &gt;</text>
<polyline fill="none" stroke="black" points="0,-154.5 249,-154.5 "/>
<text text-anchor="middle" x="124.5" y="-142.5" font-family="Helvetica,sans-Serif" font-size="10.00"> </text>
<polyline fill="none" stroke="black" points="0,-135.5 249,-135.5 "/>
<text text-anchor="middle" x="124.5" y="-123.5" font-family="Helvetica,sans-Serif" font-size="10.00"> </text>
</a>
</g>
</g>
<!-- Node2&#45;&gt;Node1 -->
<g id="edge1" class="edge">
<title>Node2&#45;&gt;Node1</title>
<path fill="none" stroke="#404040" d="M124.5,-116.32C124.5,-101.33 124.5,-84.69 124.5,-70.05"/>
<polygon fill="none" stroke="#404040" points="124.5,-69.79 120.5,-63.79 124.5,-57.79 128.5,-63.79 124.5,-69.79"/>
<text text-anchor="middle" x="154" y="-90" font-family="Helvetica,sans-Serif" font-size="10.00"> +member1</text>
<text text-anchor="middle" x="154" y="-79" font-family="Helvetica,sans-Serif" font-size="10.00">+member2</text>
</g>
</g>
</svg>
