<?xml version="1.0" encoding="UTF-8" standalone="no"?>
<!DOCTYPE svg PUBLIC "-//W3C//DTD SVG 1.1//EN"
 "http://www.w3.org/Graphics/SVG/1.1/DTD/svg11.dtd">
<!-- Generated by graphviz version 2.43.0 (0)
 -->
<!-- Title: Event::TankInfo Pages: 1 -->
<svg width="395pt" height="606pt"
 viewBox="0.00 0.00 395.00 606.00" xmlns="http://www.w3.org/2000/svg" xmlns:xlink="http://www.w3.org/1999/xlink">
<g id="graph0" class="graph" transform="scale(1 1) rotate(0) translate(4 602)">
<title>Event::TankInfo</title>
<!-- Node1 -->
<g id="node1" class="node">
<title>Node1</title>
<g id="a_node1"><a xlink:title=" ">
<polygon fill="#bfbfbf" stroke="black" points="155,-0.5 155,-57.5 247,-57.5 247,-0.5 155,-0.5"/>
<text text-anchor="middle" x="201" y="-45.5" font-family="Helvetica,sans-Serif" font-size="10.00">Event::TankInfo</text>
<polyline fill="none" stroke="black" points="155,-38.5 247,-38.5 "/>
<text text-anchor="middle" x="201" y="-26.5" font-family="Helvetica,sans-Serif" font-size="10.00"> </text>
<polyline fill="none" stroke="black" points="155,-19.5 247,-19.5 "/>
<text text-anchor="middle" x="201" y="-7.5" font-family="Helvetica,sans-Serif" font-size="10.00"> </text>
</a>
</g>
</g>
<!-- Node2 -->
<g id="node2" class="node">
<title>Node2</title>
<g id="a_node2"><a xlink:href="$class_tank.html" xlink:title="Base class for tank representation.">
<polygon fill="none" stroke="black" points="116.5,-105.5 116.5,-459.5 285.5,-459.5 285.5,-105.5 116.5,-105.5"/>
<text text-anchor="middle" x="201" y="-447.5" font-family="Helvetica,sans-Serif" font-size="10.00">Tank</text>
<polyline fill="none" stroke="black" points="116.5,-440.5 285.5,-440.5 "/>
<text text-anchor="middle" x="201" y="-428.5" font-family="Helvetica,sans-Serif" font-size="10.00"> </text>
<polyline fill="none" stroke="black" points="116.5,-421.5 285.5,-421.5 "/>
<text text-anchor="start" x="124.5" y="-409.5" font-family="Helvetica,sans-Serif" font-size="10.00">+ virtual ~Tank()=default</text>
<text text-anchor="start" x="124.5" y="-398.5" font-family="Helvetica,sans-Serif" font-size="10.00">+ void setFacing(Direction</text>
<text text-anchor="start" x="124.5" y="-387.5" font-family="Helvetica,sans-Serif" font-size="10.00"> direction)</text>
<text text-anchor="start" x="124.5" y="-376.5" font-family="Helvetica,sans-Serif" font-size="10.00">+ void move()</text>
<text text-anchor="start" x="124.5" y="-365.5" font-family="Helvetica,sans-Serif" font-size="10.00">+ void deltaLives(int</text>
<text text-anchor="start" x="124.5" y="-354.5" font-family="Helvetica,sans-Serif" font-size="10.00"> delta_l)</text>
<text text-anchor="start" x="124.5" y="-343.5" font-family="Helvetica,sans-Serif" font-size="10.00">+ TankType getType()</text>
<text text-anchor="start" x="124.5" y="-332.5" font-family="Helvetica,sans-Serif" font-size="10.00"> const</text>
<text text-anchor="start" x="124.5" y="-321.5" font-family="Helvetica,sans-Serif" font-size="10.00">+ float getX() const</text>
<text text-anchor="start" x="124.5" y="-310.5" font-family="Helvetica,sans-Serif" font-size="10.00">+ float getY() const</text>
<text text-anchor="start" x="124.5" y="-299.5" font-family="Helvetica,sans-Serif" font-size="10.00">+ unsigned int getLives</text>
<text text-anchor="start" x="124.5" y="-288.5" font-family="Helvetica,sans-Serif" font-size="10.00">() const</text>
<text text-anchor="start" x="124.5" y="-277.5" font-family="Helvetica,sans-Serif" font-size="10.00">+ float getTankSpeed</text>
<text text-anchor="start" x="124.5" y="-266.5" font-family="Helvetica,sans-Serif" font-size="10.00">() const</text>
<text text-anchor="start" x="124.5" y="-255.5" font-family="Helvetica,sans-Serif" font-size="10.00">+ void setMoving(bool</text>
<text text-anchor="start" x="124.5" y="-244.5" font-family="Helvetica,sans-Serif" font-size="10.00"> isMoving)</text>
<text text-anchor="start" x="124.5" y="-233.5" font-family="Helvetica,sans-Serif" font-size="10.00">+ bool isMoving() const</text>
<text text-anchor="start" x="124.5" y="-222.5" font-family="Helvetica,sans-Serif" font-size="10.00">+ float getBulletSpeed</text>
<text text-anchor="start" x="124.5" y="-211.5" font-family="Helvetica,sans-Serif" font-size="10.00">() const</text>
<text text-anchor="start" x="124.5" y="-200.5" font-family="Helvetica,sans-Serif" font-size="10.00">+ Direction getFacing</text>
<text text-anchor="start" x="124.5" y="-189.5" font-family="Helvetica,sans-Serif" font-size="10.00">() const</text>
<text text-anchor="start" x="124.5" y="-178.5" font-family="Helvetica,sans-Serif" font-size="10.00">+ unsigned int getPoints</text>
<text text-anchor="start" x="124.5" y="-167.5" font-family="Helvetica,sans-Serif" font-size="10.00">() const</text>
<text text-anchor="start" x="124.5" y="-156.5" font-family="Helvetica,sans-Serif" font-size="10.00">+ void setX(float x)</text>
<text text-anchor="start" x="124.5" y="-145.5" font-family="Helvetica,sans-Serif" font-size="10.00">+ void setY(float y)</text>
<text text-anchor="start" x="124.5" y="-134.5" font-family="Helvetica,sans-Serif" font-size="10.00">+ void offsetInCurrentDirection</text>
<text text-anchor="start" x="124.5" y="-123.5" font-family="Helvetica,sans-Serif" font-size="10.00">(float offset)</text>
<text text-anchor="start" x="124.5" y="-112.5" font-family="Helvetica,sans-Serif" font-size="10.00"># Tank()=default</text>
</a>
</g>
</g>
<!-- Node2&#45;&gt;Node1 -->
<g id="edge1" class="edge">
<title>Node2&#45;&gt;Node1</title>
<path fill="none" stroke="#404040" d="M201,-105.46C201,-92.43 201,-80.26 201,-69.66"/>
<polygon fill="none" stroke="#404040" points="201,-69.56 197,-63.56 201,-57.56 205,-63.56 201,-69.56"/>
<text text-anchor="middle" x="218" y="-79" font-family="Helvetica,sans-Serif" font-size="10.00"> +tank</text>
</g>
<!-- Node3 -->
<g id="node3" class="node">
<title>Node3</title>
<g id="a_node3"><a xlink:title=" ">
<polygon fill="none" stroke="black" points="0,-540.5 0,-597.5 62,-597.5 62,-540.5 0,-540.5"/>
<text text-anchor="middle" x="31" y="-585.5" font-family="Helvetica,sans-Serif" font-size="10.00">TankType</text>
<polyline fill="none" stroke="black" points="0,-578.5 62,-578.5 "/>
<text text-anchor="middle" x="31" y="-566.5" font-family="Helvetica,sans-Serif" font-size="10.00"> </text>
<polyline fill="none" stroke="black" points="0,-559.5 62,-559.5 "/>
<text text-anchor="middle" x="31" y="-547.5" font-family="Helvetica,sans-Serif" font-size="10.00"> </text>
</a>
</g>
</g>
<!-- Node3&#45;&gt;Node2 -->
<g id="edge2" class="edge">
<title>Node3&#45;&gt;Node2</title>
<path fill="none" stroke="#404040" d="M36.71,-540.3C41.1,-522.01 48.1,-497.85 58,-478 72.18,-449.57 90.51,-420.92 109.28,-394.67"/>
<polygon fill="none" stroke="#404040" points="109.44,-394.45 109.72,-387.24 116.48,-384.73 116.2,-391.94 109.44,-394.45"/>
<text text-anchor="middle" x="77.5" y="-497.5" font-family="Helvetica,sans-Serif" font-size="10.00"> #type_</text>
</g>
<!-- Node4 -->
<g id="node4" class="node">
<title>Node4</title>
<g id="a_node4"><a xlink:title=" ">
<polygon fill="none" stroke="black" points="80,-540.5 80,-597.5 118,-597.5 118,-540.5 80,-540.5"/>
<text text-anchor="middle" x="99" y="-585.5" font-family="Helvetica,sans-Serif" font-size="10.00">float</text>
<polyline fill="none" stroke="black" points="80,-578.5 118,-578.5 "/>
<text text-anchor="middle" x="99" y="-566.5" font-family="Helvetica,sans-Serif" font-size="10.00"> </text>
<polyline fill="none" stroke="black" points="80,-559.5 118,-559.5 "/>
<text text-anchor="middle" x="99" y="-547.5" font-family="Helvetica,sans-Serif" font-size="10.00"> </text>
</a>
</g>
</g>
<!-- Node4&#45;&gt;Node2 -->
<g id="edge3" class="edge">
<title>Node4&#45;&gt;Node2</title>
<path fill="none" stroke="#404040" d="M100.12,-540.38C101.4,-522.34 104.14,-498.43 110,-478 110.86,-475.02 111.75,-472.03 112.68,-469.03"/>
<polygon fill="none" stroke="#404040" points="112.74,-468.85 110.8,-461.91 116.46,-457.44 118.4,-464.38 112.74,-468.85"/>
<text text-anchor="middle" x="149.5" y="-514" font-family="Helvetica,sans-Serif" font-size="10.00"> #bullet_speed_</text>
<text text-anchor="middle" x="149.5" y="-503" font-family="Helvetica,sans-Serif" font-size="10.00">#tank_speed_</text>
<text text-anchor="middle" x="149.5" y="-492" font-family="Helvetica,sans-Serif" font-size="10.00">#x_</text>
<text text-anchor="middle" x="149.5" y="-481" font-family="Helvetica,sans-Serif" font-size="10.00">#y_</text>
</g>
<!-- Node5 -->
<g id="node5" class="node">
<title>Node5</title>
<g id="a_node5"><a xlink:title=" ">
<polygon fill="none" stroke="black" points="153.5,-540.5 153.5,-597.5 230.5,-597.5 230.5,-540.5 153.5,-540.5"/>
<text text-anchor="middle" x="192" y="-585.5" font-family="Helvetica,sans-Serif" font-size="10.00">unsigned int</text>
<polyline fill="none" stroke="black" points="153.5,-578.5 230.5,-578.5 "/>
<text text-anchor="middle" x="192" y="-566.5" font-family="Helvetica,sans-Serif" font-size="10.00"> </text>
<polyline fill="none" stroke="black" points="153.5,-559.5 230.5,-559.5 "/>
<text text-anchor="middle" x="192" y="-547.5" font-family="Helvetica,sans-Serif" font-size="10.00"> </text>
</a>
</g>
</g>
<!-- Node5&#45;&gt;Node2 -->
<g id="edge4" class="edge">
<title>Node5&#45;&gt;Node2</title>
<path fill="none" stroke="#404040" d="M192.87,-540.46C193.42,-522.97 194.19,-498.63 195.04,-471.84"/>
<polygon fill="none" stroke="#404040" points="195.04,-471.79 191.24,-465.67 195.42,-459.8 199.23,-465.92 195.04,-471.79"/>
<text text-anchor="middle" x="216" y="-503" font-family="Helvetica,sans-Serif" font-size="10.00"> #lives_</text>
<text text-anchor="middle" x="216" y="-492" font-family="Helvetica,sans-Serif" font-size="10.00">#points_</text>
</g>
<!-- Node6 -->
<g id="node6" class="node">
<title>Node6</title>
<g id="a_node6"><a xlink:title=" ">
<polygon fill="none" stroke="black" points="248.5,-540.5 248.5,-597.5 309.5,-597.5 309.5,-540.5 248.5,-540.5"/>
<text text-anchor="middle" x="279" y="-585.5" font-family="Helvetica,sans-Serif" font-size="10.00">Direction</text>
<polyline fill="none" stroke="black" points="248.5,-578.5 309.5,-578.5 "/>
<text text-anchor="middle" x="279" y="-566.5" font-family="Helvetica,sans-Serif" font-size="10.00"> </text>
<polyline fill="none" stroke="black" points="248.5,-559.5 309.5,-559.5 "/>
<text text-anchor="middle" x="279" y="-547.5" font-family="Helvetica,sans-Serif" font-size="10.00"> </text>
</a>
</g>
</g>
<!-- Node6&#45;&gt;Node2 -->
<g id="edge5" class="edge">
<title>Node6&#45;&gt;Node2</title>
<path fill="none" stroke="#404040" d="M271.45,-540.46C266.63,-522.89 259.92,-498.41 252.54,-471.48"/>
<polygon fill="none" stroke="#404040" points="252.51,-471.37 247.06,-466.64 249.33,-459.8 254.78,-464.52 252.51,-471.37"/>
<text text-anchor="middle" x="288.5" y="-497.5" font-family="Helvetica,sans-Serif" font-size="10.00"> #facing_</text>
</g>
<!-- Node7 -->
<g id="node7" class="node">
<title>Node7</title>
<g id="a_node7"><a xlink:title=" ">
<polygon fill="none" stroke="black" points="329,-540.5 329,-597.5 367,-597.5 367,-540.5 329,-540.5"/>
<text text-anchor="middle" x="348" y="-585.5" font-family="Helvetica,sans-Serif" font-size="10.00">bool</text>
<polyline fill="none" stroke="black" points="329,-578.5 367,-578.5 "/>
<text text-anchor="middle" x="348" y="-566.5" font-family="Helvetica,sans-Serif" font-size="10.00"> </text>
<polyline fill="none" stroke="black" points="329,-559.5 367,-559.5 "/>
<text text-anchor="middle" x="348" y="-547.5" font-family="Helvetica,sans-Serif" font-size="10.00"> </text>
</a>
</g>
</g>
<!-- Node7&#45;&gt;Node2 -->
<g id="edge6" class="edge">
<title>Node7&#45;&gt;Node2</title>
<path fill="none" stroke="#404040" d="M339.67,-540.28C333.87,-522.2 325.49,-498.28 316,-478 308.53,-462.04 300.14,-445.7 291.39,-429.59"/>
<polygon fill="none" stroke="#404040" points="291.37,-429.57 284.98,-426.24 285.59,-419.05 291.99,-422.38 291.37,-429.57"/>
<text text-anchor="middle" x="360" y="-497.5" font-family="Helvetica,sans-Serif" font-size="10.00"> #moving_</text>
</g>
</g>
</svg>
