<?xml version="1.0" encoding="UTF-8" standalone="no"?>
<!DOCTYPE svg PUBLIC "-//W3C//DTD SVG 1.1//EN"
 "http://www.w3.org/Graphics/SVG/1.1/DTD/svg11.dtd">
<!-- Generated by graphviz version 2.50.0 (0)
 -->
<!-- Title: Event::KeyEventInfo Pages: 1 -->
<svg width="168pt" height="171pt"
 viewBox="0.00 0.00 168.00 171.00" xmlns="http://www.w3.org/2000/svg" xmlns:xlink="http://www.w3.org/1999/xlink">
<g id="graph0" class="graph" transform="scale(1 1) rotate(0) translate(4 167)">
<title>Event::KeyEventInfo</title>
<!-- Node1 -->
<g id="node1" class="node">
<title>Node1</title>
<g id="a_node1"><a xlink:title=" ">
<polygon fill="#bfbfbf" stroke="black" points="19,-0.5 19,-57.5 134,-57.5 134,-0.5 19,-0.5"/>
<text text-anchor="middle" x="76.5" y="-45.5" font-family="Helvetica,sans-Serif" font-size="10.00">Event::KeyEventInfo</text>
<polyline fill="none" stroke="black" points="19,-38.5 134,-38.5 "/>
<text text-anchor="middle" x="76.5" y="-26.5" font-family="Helvetica,sans-Serif" font-size="10.00"> </text>
<polyline fill="none" stroke="black" points="19,-19.5 134,-19.5 "/>
<text text-anchor="middle" x="76.5" y="-7.5" font-family="Helvetica,sans-Serif" font-size="10.00"> </text>
</a>
</g>
</g>
<!-- Node2 -->
<g id="node2" class="node">
<title>Node2</title>
<g id="a_node2"><a xlink:title=" ">
<polygon fill="none" stroke="#bfbfbf" points="0,-105.5 0,-162.5 65,-162.5 65,-105.5 0,-105.5"/>
<text text-anchor="middle" x="32.5" y="-150.5" font-family="Helvetica,sans-Serif" font-size="10.00">KeyAction</text>
<polyline fill="none" stroke="#bfbfbf" points="0,-143.5 65,-143.5 "/>
<text text-anchor="middle" x="32.5" y="-131.5" font-family="Helvetica,sans-Serif" font-size="10.00"> </text>
<polyline fill="none" stroke="#bfbfbf" points="0,-124.5 65,-124.5 "/>
<text text-anchor="middle" x="32.5" y="-112.5" font-family="Helvetica,sans-Serif" font-size="10.00"> </text>
</a>
</g>
</g>
<!-- Node2&#45;&gt;Node1 -->
<g id="edge1" class="edge">
<title>Node2&#45;&gt;Node1</title>
<path fill="none" stroke="#404040" d="M44.29,-105.4C49.08,-94.2 54.69,-81.06 59.87,-68.92"/>
<polygon fill="none" stroke="#404040" points="59.96,-68.71 58.64,-61.62 64.68,-57.68 66,-64.77 59.96,-68.71"/>
<text text-anchor="middle" x="77.5" y="-79" font-family="Helvetica,sans-Serif" font-size="10.00"> +action</text>
</g>
<!-- Node3 -->
<g id="node3" class="node">
<title>Node3</title>
<g id="a_node3"><a xlink:title=" ">
<polygon fill="none" stroke="#bfbfbf" points="83,-105.5 83,-162.5 160,-162.5 160,-105.5 83,-105.5"/>
<text text-anchor="middle" x="121.5" y="-150.5" font-family="Helvetica,sans-Serif" font-size="10.00">unsigned int</text>
<polyline fill="none" stroke="#bfbfbf" points="83,-143.5 160,-143.5 "/>
<text text-anchor="middle" x="121.5" y="-131.5" font-family="Helvetica,sans-Serif" font-size="10.00"> </text>
<polyline fill="none" stroke="#bfbfbf" points="83,-124.5 160,-124.5 "/>
<text text-anchor="middle" x="121.5" y="-112.5" font-family="Helvetica,sans-Serif" font-size="10.00"> </text>
</a>
</g>
</g>
<!-- Node3&#45;&gt;Node1 -->
<g id="edge2" class="edge">
<title>Node3&#45;&gt;Node1</title>
<path fill="none" stroke="#404040" d="M111.39,-105.24C107.82,-95.87 103.66,-85.41 99.5,-76 98.42,-73.54 97.27,-71.03 96.09,-68.51"/>
<polygon fill="none" stroke="#404040" points="96.01,-68.34 89.8,-64.67 90.8,-57.53 97.01,-61.2 96.01,-68.34"/>
<text text-anchor="middle" x="130.5" y="-79" font-family="Helvetica,sans-Serif" font-size="10.00"> +keyCode</text>
</g>
</g>
</svg>
