<?xml version="1.0" encoding="UTF-8" standalone="no"?>
<!DOCTYPE svg PUBLIC "-//W3C//DTD SVG 1.1//EN"
 "http://www.w3.org/Graphics/SVG/1.1/DTD/svg11.dtd">
<!-- Generated by graphviz version 2.50.0 (0)
 -->
<!-- Title: Event::SpawnDecisionInfo Pages: 1 -->
<svg width="245pt" height="182pt"
 viewBox="0.00 0.00 244.50 182.00" xmlns="http://www.w3.org/2000/svg" xmlns:xlink="http://www.w3.org/1999/xlink">
<g id="graph0" class="graph" transform="scale(1 1) rotate(0) translate(4 178)">
<title>Event::SpawnDecisionInfo</title>
<!-- Node1 -->
<g id="node1" class="node">
<title>Node1</title>
<g id="a_node1"><a xlink:title=" ">
<polygon fill="#bfbfbf" stroke="black" points="46,-0.5 46,-57.5 189,-57.5 189,-0.5 46,-0.5"/>
<text text-anchor="middle" x="117.5" y="-45.5" font-family="Helvetica,sans-Serif" font-size="10.00">Event::SpawnDecisionInfo</text>
<polyline fill="none" stroke="black" points="46,-38.5 189,-38.5 "/>
<text text-anchor="middle" x="117.5" y="-26.5" font-family="Helvetica,sans-Serif" font-size="10.00"> </text>
<polyline fill="none" stroke="black" points="46,-19.5 189,-19.5 "/>
<text text-anchor="middle" x="117.5" y="-7.5" font-family="Helvetica,sans-Serif" font-size="10.00"> </text>
</a>
</g>
</g>
<!-- Node2 -->
<g id="node2" class="node">
<title>Node2</title>
<g id="a_node2"><a xlink:title=" ">
<polygon fill="none" stroke="#bfbfbf" points="0,-116.5 0,-173.5 61,-173.5 61,-116.5 0,-116.5"/>
<text text-anchor="middle" x="30.5" y="-161.5" font-family="Helvetica,sans-Serif" font-size="10.00">Direction</text>
<polyline fill="none" stroke="#bfbfbf" points="0,-154.5 61,-154.5 "/>
<text text-anchor="middle" x="30.5" y="-142.5" font-family="Helvetica,sans-Serif" font-size="10.00"> </text>
<polyline fill="none" stroke="#bfbfbf" points="0,-135.5 61,-135.5 "/>
<text text-anchor="middle" x="30.5" y="-123.5" font-family="Helvetica,sans-Serif" font-size="10.00"> </text>
</a>
</g>
</g>
<!-- Node2&#45;&gt;Node1 -->
<g id="edge1" class="edge">
<title>Node2&#45;&gt;Node1</title>
<path fill="none" stroke="#404040" d="M38.19,-116.48C42.73,-103.38 49.39,-88 58.5,-76 61.17,-72.48 64.17,-69.09 67.37,-65.85"/>
<polygon fill="none" stroke="#404040" points="67.41,-65.81 69.09,-58.8 76.2,-57.64 74.53,-64.66 67.41,-65.81"/>
<text text-anchor="middle" x="86" y="-84.5" font-family="Helvetica,sans-Serif" font-size="10.00"> +direction</text>
</g>
<!-- Node3 -->
<g id="node3" class="node">
<title>Node3</title>
<g id="a_node3"><a xlink:title=" ">
<polygon fill="none" stroke="#bfbfbf" points="79,-116.5 79,-173.5 156,-173.5 156,-116.5 79,-116.5"/>
<text text-anchor="middle" x="117.5" y="-161.5" font-family="Helvetica,sans-Serif" font-size="10.00">unsigned int</text>
<polyline fill="none" stroke="#bfbfbf" points="79,-154.5 156,-154.5 "/>
<text text-anchor="middle" x="117.5" y="-142.5" font-family="Helvetica,sans-Serif" font-size="10.00"> </text>
<polyline fill="none" stroke="#bfbfbf" points="79,-135.5 156,-135.5 "/>
<text text-anchor="middle" x="117.5" y="-123.5" font-family="Helvetica,sans-Serif" font-size="10.00"> </text>
</a>
</g>
</g>
<!-- Node3&#45;&gt;Node1 -->
<g id="edge2" class="edge">
<title>Node3&#45;&gt;Node1</title>
<path fill="none" stroke="#404040" d="M117.5,-116.4C117.5,-102.5 117.5,-85.39 117.5,-70.07"/>
<polygon fill="none" stroke="#404040" points="117.5,-69.74 113.5,-63.74 117.5,-57.74 121.5,-63.74 117.5,-69.74"/>
<text text-anchor="middle" x="126.5" y="-90" font-family="Helvetica,sans-Serif" font-size="10.00"> +x</text>
<text text-anchor="middle" x="126.5" y="-79" font-family="Helvetica,sans-Serif" font-size="10.00">+y</text>
</g>
<!-- Node4 -->
<g id="node4" class="node">
<title>Node4</title>
<g id="a_node4"><a xlink:title=" ">
<polygon fill="none" stroke="#bfbfbf" points="174.5,-116.5 174.5,-173.5 236.5,-173.5 236.5,-116.5 174.5,-116.5"/>
<text text-anchor="middle" x="205.5" y="-161.5" font-family="Helvetica,sans-Serif" font-size="10.00">TankType</text>
<polyline fill="none" stroke="#bfbfbf" points="174.5,-154.5 236.5,-154.5 "/>
<text text-anchor="middle" x="205.5" y="-142.5" font-family="Helvetica,sans-Serif" font-size="10.00"> </text>
<polyline fill="none" stroke="#bfbfbf" points="174.5,-135.5 236.5,-135.5 "/>
<text text-anchor="middle" x="205.5" y="-123.5" font-family="Helvetica,sans-Serif" font-size="10.00"> </text>
</a>
</g>
</g>
<!-- Node4&#45;&gt;Node1 -->
<g id="edge3" class="edge">
<title>Node4&#45;&gt;Node1</title>
<path fill="none" stroke="#404040" d="M184.2,-116.4C172.82,-101.67 158.66,-83.33 146.32,-67.34"/>
<polygon fill="none" stroke="#404040" points="146.24,-67.24 139.41,-64.93 138.91,-57.74 145.74,-60.04 146.24,-67.24"/>
<text text-anchor="middle" x="185.5" y="-84.5" font-family="Helvetica,sans-Serif" font-size="10.00"> +type</text>
</g>
</g>
</svg>
