<?xml version="1.0" encoding="UTF-8" standalone="no"?>
<!DOCTYPE svg PUBLIC "-//W3C//DTD SVG 1.1//EN"
 "http://www.w3.org/Graphics/SVG/1.1/DTD/svg11.dtd">
<!-- Generated by graphviz version 2.43.0 (0)
 -->
<!-- Title: Event::EntityInfo Pages: 1 -->
<svg width="127pt" height="171pt"
 viewBox="0.00 0.00 127.00 171.00" xmlns="http://www.w3.org/2000/svg" xmlns:xlink="http://www.w3.org/1999/xlink">
<g id="graph0" class="graph" transform="scale(1 1) rotate(0) translate(4 167)">
<title>Event::EntityInfo</title>
<!-- Node1 -->
<g id="node1" class="node">
<title>Node1</title>
<g id="a_node1"><a xlink:title=" ">
<polygon fill="#bfbfbf" stroke="black" points="10.5,-0.5 10.5,-57.5 108.5,-57.5 108.5,-0.5 10.5,-0.5"/>
<text text-anchor="middle" x="59.5" y="-45.5" font-family="Helvetica,sans-Serif" font-size="10.00">Event::EntityInfo</text>
<polyline fill="none" stroke="black" points="10.5,-38.5 108.5,-38.5 "/>
<text text-anchor="middle" x="59.5" y="-26.5" font-family="Helvetica,sans-Serif" font-size="10.00"> </text>
<polyline fill="none" stroke="black" points="10.5,-19.5 108.5,-19.5 "/>
<text text-anchor="middle" x="59.5" y="-7.5" font-family="Helvetica,sans-Serif" font-size="10.00"> </text>
</a>
</g>
</g>
<!-- Node2 -->
<g id="node2" class="node">
<title>Node2</title>
<g id="a_node2"><a xlink:title=" ">
<polygon fill="none" stroke="black" points="0,-105.5 0,-162.5 119,-162.5 119,-105.5 0,-105.5"/>
<text text-anchor="middle" x="59.5" y="-150.5" font-family="Helvetica,sans-Serif" font-size="10.00">shared_ptr&lt; Entity &gt;</text>
<polyline fill="none" stroke="black" points="0,-143.5 119,-143.5 "/>
<text text-anchor="middle" x="59.5" y="-131.5" font-family="Helvetica,sans-Serif" font-size="10.00"> </text>
<polyline fill="none" stroke="black" points="0,-124.5 119,-124.5 "/>
<text text-anchor="middle" x="59.5" y="-112.5" font-family="Helvetica,sans-Serif" font-size="10.00"> </text>
</a>
</g>
</g>
<!-- Node2&#45;&gt;Node1 -->
<g id="edge1" class="edge">
<title>Node2&#45;&gt;Node1</title>
<path fill="none" stroke="#404040" d="M59.5,-105.4C59.5,-94.55 59.5,-81.87 59.5,-70.05"/>
<polygon fill="none" stroke="#404040" points="59.5,-69.68 55.5,-63.68 59.5,-57.68 63.5,-63.68 59.5,-69.68"/>
<text text-anchor="middle" x="79.5" y="-79" font-family="Helvetica,sans-Serif" font-size="10.00"> +entity</text>
</g>
</g>
</svg>
