<?xml version="1.0" encoding="UTF-8" standalone="no"?>
<!DOCTYPE svg PUBLIC "-//W3C//DTD SVG 1.1//EN"
 "http://www.w3.org/Graphics/SVG/1.1/DTD/svg11.dtd">
<!-- Generated by graphviz version 2.43.0 (0)
 -->
<!-- Title: Event::BoardCollisionInfo Pages: 1 -->
<svg width="518pt" height="937pt"
 viewBox="0.00 0.00 518.00 937.00" xmlns="http://www.w3.org/2000/svg" xmlns:xlink="http://www.w3.org/1999/xlink">
<g id="graph0" class="graph" transform="scale(1 1) rotate(0) translate(4 933)">
<title>Event::BoardCollisionInfo</title>
<!-- Node1 -->
<g id="node1" class="node">
<title>Node1</title>
<g id="a_node1"><a xlink:title=" ">
<polygon fill="#bfbfbf" stroke="black" points="0,-0.5 0,-57.5 140,-57.5 140,-0.5 0,-0.5"/>
<text text-anchor="middle" x="70" y="-45.5" font-family="Helvetica,sans-Serif" font-size="10.00">Event::BoardCollisionInfo</text>
<polyline fill="none" stroke="black" points="0,-38.5 140,-38.5 "/>
<text text-anchor="middle" x="70" y="-26.5" font-family="Helvetica,sans-Serif" font-size="10.00"> </text>
<polyline fill="none" stroke="black" points="0,-19.5 140,-19.5 "/>
<text text-anchor="middle" x="70" y="-7.5" font-family="Helvetica,sans-Serif" font-size="10.00"> </text>
</a>
</g>
</g>
<!-- Node2 -->
<g id="node2" class="node">
<title>Node2</title>
<g id="a_node2"><a xlink:title=" ">
<polygon fill="none" stroke="black" points="53.5,-419.5 53.5,-476.5 130.5,-476.5 130.5,-419.5 53.5,-419.5"/>
<text text-anchor="middle" x="92" y="-464.5" font-family="Helvetica,sans-Serif" font-size="10.00">unsigned int</text>
<polyline fill="none" stroke="black" points="53.5,-457.5 130.5,-457.5 "/>
<text text-anchor="middle" x="92" y="-445.5" font-family="Helvetica,sans-Serif" font-size="10.00"> </text>
<polyline fill="none" stroke="black" points="53.5,-438.5 130.5,-438.5 "/>
<text text-anchor="middle" x="92" y="-426.5" font-family="Helvetica,sans-Serif" font-size="10.00"> </text>
</a>
</g>
</g>
<!-- Node2&#45;&gt;Node1 -->
<g id="edge1" class="edge">
<title>Node2&#45;&gt;Node1</title>
<path fill="none" stroke="#404040" d="M85.52,-419.22C78.34,-386.94 67.23,-331.96 63,-284 56.01,-204.75 59.3,-184.47 63,-105 63.53,-93.61 64.51,-81.28 65.57,-69.97"/>
<polygon fill="none" stroke="#404040" points="65.6,-69.68 62.22,-63.31 66.79,-57.74 70.18,-64.1 65.6,-69.68"/>
<text text-anchor="middle" x="82.5" y="-197.5" font-family="Helvetica,sans-Serif" font-size="10.00"> +tile_x</text>
<text text-anchor="middle" x="82.5" y="-186.5" font-family="Helvetica,sans-Serif" font-size="10.00">+tile_y</text>
</g>
<!-- Node3 -->
<g id="node3" class="node">
<title>Node3</title>
<g id="a_node3"><a xlink:href="$class_grid.html" xlink:title="Represents a grid of tiles.">
<polygon fill="none" stroke="black" points="111,-105.5 111,-283.5 279,-283.5 279,-105.5 111,-105.5"/>
<text text-anchor="middle" x="195" y="-271.5" font-family="Helvetica,sans-Serif" font-size="10.00">Grid</text>
<polyline fill="none" stroke="black" points="111,-264.5 279,-264.5 "/>
<text text-anchor="middle" x="195" y="-252.5" font-family="Helvetica,sans-Serif" font-size="10.00"> </text>
<polyline fill="none" stroke="black" points="111,-245.5 279,-245.5 "/>
<text text-anchor="start" x="119" y="-233.5" font-family="Helvetica,sans-Serif" font-size="10.00">+ Grid()</text>
<text text-anchor="start" x="119" y="-222.5" font-family="Helvetica,sans-Serif" font-size="10.00">+ TileType getTileAtPosition</text>
<text text-anchor="start" x="119" y="-211.5" font-family="Helvetica,sans-Serif" font-size="10.00">(unsigned int x, unsigned int y)</text>
<text text-anchor="start" x="119" y="-200.5" font-family="Helvetica,sans-Serif" font-size="10.00">+ void setTile(unsigned</text>
<text text-anchor="start" x="119" y="-189.5" font-family="Helvetica,sans-Serif" font-size="10.00"> int x, unsigned int</text>
<text text-anchor="start" x="119" y="-178.5" font-family="Helvetica,sans-Serif" font-size="10.00"> y, TileType newTile)</text>
<text text-anchor="start" x="119" y="-167.5" font-family="Helvetica,sans-Serif" font-size="10.00">+ void deleteTile(unsigned</text>
<text text-anchor="start" x="119" y="-156.5" font-family="Helvetica,sans-Serif" font-size="10.00"> int x, unsigned int y)</text>
<text text-anchor="start" x="119" y="-145.5" font-family="Helvetica,sans-Serif" font-size="10.00">+ unsigned int getSizeX</text>
<text text-anchor="start" x="119" y="-134.5" font-family="Helvetica,sans-Serif" font-size="10.00">() const</text>
<text text-anchor="start" x="119" y="-123.5" font-family="Helvetica,sans-Serif" font-size="10.00">+ unsigned int getSizeY</text>
<text text-anchor="start" x="119" y="-112.5" font-family="Helvetica,sans-Serif" font-size="10.00">() const</text>
</a>
</g>
</g>
<!-- Node2&#45;&gt;Node3 -->
<g id="edge3" class="edge">
<title>Node2&#45;&gt;Node3</title>
<path fill="none" stroke="#404040" d="M100.66,-419.38C110.13,-389.94 126.21,-342.13 143,-302 143.98,-299.66 144.98,-297.31 146.01,-294.94"/>
<polygon fill="none" stroke="#404040" points="146.09,-294.74 144.86,-287.64 150.94,-283.76 152.17,-290.87 146.09,-294.74"/>
<text text-anchor="middle" x="164.5" y="-316" font-family="Helvetica,sans-Serif" font-size="10.00"> #size_x</text>
<text text-anchor="middle" x="164.5" y="-305" font-family="Helvetica,sans-Serif" font-size="10.00">#size_y</text>
</g>
<!-- Node3&#45;&gt;Node1 -->
<g id="edge2" class="edge">
<title>Node3&#45;&gt;Node1</title>
<path fill="none" stroke="#404040" d="M127.38,-105.05C117.23,-91.78 107.27,-78.75 98.57,-67.37"/>
<polygon fill="none" stroke="#404040" points="98.56,-67.36 91.74,-65.02 91.27,-57.82 98.09,-60.16 98.56,-67.36"/>
<text text-anchor="middle" x="126.5" y="-79" font-family="Helvetica,sans-Serif" font-size="10.00"> +grid</text>
</g>
<!-- Node4 -->
<g id="node4" class="node">
<title>Node4</title>
<g id="a_node4"><a xlink:title=" ">
<polygon fill="none" stroke="black" points="155.5,-419.5 155.5,-476.5 212.5,-476.5 212.5,-419.5 155.5,-419.5"/>
<text text-anchor="middle" x="184" y="-464.5" font-family="Helvetica,sans-Serif" font-size="10.00">TileType</text>
<polyline fill="none" stroke="black" points="155.5,-457.5 212.5,-457.5 "/>
<text text-anchor="middle" x="184" y="-445.5" font-family="Helvetica,sans-Serif" font-size="10.00"> </text>
<polyline fill="none" stroke="black" points="155.5,-438.5 212.5,-438.5 "/>
<text text-anchor="middle" x="184" y="-426.5" font-family="Helvetica,sans-Serif" font-size="10.00"> </text>
</a>
</g>
</g>
<!-- Node4&#45;&gt;Node3 -->
<g id="edge4" class="edge">
<title>Node4&#45;&gt;Node3</title>
<path fill="none" stroke="#404040" d="M185.22,-419.12C186.52,-389.31 188.67,-340.28 190.62,-295.72"/>
<polygon fill="none" stroke="#404040" points="190.62,-295.58 186.89,-289.42 191.15,-283.6 194.88,-289.77 190.62,-295.58"/>
<text text-anchor="middle" x="206.5" y="-310.5" font-family="Helvetica,sans-Serif" font-size="10.00"> #grid</text>
</g>
<!-- Node5 -->
<g id="node5" class="node">
<title>Node5</title>
<g id="a_node5"><a xlink:href="$class_event_queue.html" xlink:title=" ">
<polygon fill="none" stroke="black" points="230,-342.5 230,-553.5 380,-553.5 380,-342.5 230,-342.5"/>
<text text-anchor="middle" x="305" y="-541.5" font-family="Helvetica,sans-Serif" font-size="10.00">EventQueue&lt; Event &gt;</text>
<polyline fill="none" stroke="black" points="230,-534.5 380,-534.5 "/>
<text text-anchor="middle" x="305" y="-522.5" font-family="Helvetica,sans-Serif" font-size="10.00"> </text>
<polyline fill="none" stroke="black" points="230,-515.5 380,-515.5 "/>
<text text-anchor="start" x="238" y="-503.5" font-family="Helvetica,sans-Serif" font-size="10.00">+ EventQueue(EventQueue</text>
<text text-anchor="start" x="238" y="-492.5" font-family="Helvetica,sans-Serif" font-size="10.00"> &amp;)=delete</text>
<text text-anchor="start" x="238" y="-481.5" font-family="Helvetica,sans-Serif" font-size="10.00">+ bool operator=(const</text>
<text text-anchor="start" x="238" y="-470.5" font-family="Helvetica,sans-Serif" font-size="10.00"> EventQueue &amp;)=delete</text>
<text text-anchor="start" x="238" y="-459.5" font-family="Helvetica,sans-Serif" font-size="10.00">+ void registerEvent</text>
<text text-anchor="start" x="238" y="-448.5" font-family="Helvetica,sans-Serif" font-size="10.00">(std::unique_ptr&lt; Event</text>
<text text-anchor="start" x="238" y="-437.5" font-family="Helvetica,sans-Serif" font-size="10.00"> &gt; event)</text>
<text text-anchor="start" x="238" y="-426.5" font-family="Helvetica,sans-Serif" font-size="10.00">+ std::unique_ptr&lt; Event</text>
<text text-anchor="start" x="238" y="-415.5" font-family="Helvetica,sans-Serif" font-size="10.00"> &gt; pop()</text>
<text text-anchor="start" x="238" y="-404.5" font-family="Helvetica,sans-Serif" font-size="10.00">+ bool isEmpty()</text>
<text text-anchor="start" x="238" y="-393.5" font-family="Helvetica,sans-Serif" font-size="10.00">+ unsigned int size()</text>
<text text-anchor="start" x="238" y="-382.5" font-family="Helvetica,sans-Serif" font-size="10.00">+ void clear()</text>
<text text-anchor="start" x="238" y="-371.5" font-family="Helvetica,sans-Serif" font-size="10.00">+ static EventQueue *</text>
<text text-anchor="start" x="238" y="-360.5" font-family="Helvetica,sans-Serif" font-size="10.00"> instance()</text>
<text text-anchor="start" x="238" y="-349.5" font-family="Helvetica,sans-Serif" font-size="10.00">&#45; EventQueue()=default</text>
</a>
</g>
</g>
<!-- Node5&#45;&gt;Node3 -->
<g id="edge5" class="edge">
<title>Node5&#45;&gt;Node3</title>
<path fill="none" stroke="#404040" d="M259.15,-342.16C252.32,-326.54 245.29,-310.48 238.51,-294.98"/>
<polygon fill="none" stroke="#404040" points="238.43,-294.8 232.36,-290.9 233.62,-283.8 239.69,-287.7 238.43,-294.8"/>
<text text-anchor="middle" x="288" y="-310.5" font-family="Helvetica,sans-Serif" font-size="10.00"> #eventQueue_</text>
</g>
<!-- Node6 -->
<g id="node6" class="node">
<title>Node6</title>
<g id="a_node6"><a xlink:href="$classstd_1_1queue_3_01std_1_1unique__ptr_3_01_event_01_4_01_4.html" xlink:title=" ">
<polygon fill="none" stroke="black" points="157,-673 157,-741 269,-741 269,-673 157,-673"/>
<text text-anchor="start" x="165" y="-729" font-family="Helvetica,sans-Serif" font-size="10.00">queue&lt; std::unique</text>
<text text-anchor="middle" x="213" y="-718" font-family="Helvetica,sans-Serif" font-size="10.00">_ptr&lt; Event &gt; &gt;</text>
<polyline fill="none" stroke="black" points="157,-711 269,-711 "/>
<text text-anchor="middle" x="213" y="-699" font-family="Helvetica,sans-Serif" font-size="10.00"> </text>
<polyline fill="none" stroke="black" points="157,-692 269,-692 "/>
<text text-anchor="middle" x="213" y="-680" font-family="Helvetica,sans-Serif" font-size="10.00"> </text>
</a>
</g>
</g>
<!-- Node6&#45;&gt;Node5 -->
<g id="edge6" class="edge">
<title>Node6&#45;&gt;Node5</title>
<path fill="none" stroke="#404040" d="M217.35,-672.82C221.56,-645.27 229.09,-605.35 241,-572 241.8,-569.75 242.64,-567.48 243.51,-565.21"/>
<polygon fill="none" stroke="#404040" points="243.61,-564.97 242.14,-557.91 248.09,-553.83 249.56,-560.89 243.61,-564.97"/>
<text text-anchor="middle" x="266" y="-575" font-family="Helvetica,sans-Serif" font-size="10.00"> #events_</text>
</g>
<!-- Node7 -->
<g id="node7" class="node">
<title>Node7</title>
<g id="a_node7"><a xlink:title=" ">
<polygon fill="none" stroke="black" points="230,-866 230,-923 380,-923 380,-866 230,-866"/>
<text text-anchor="middle" x="305" y="-911" font-family="Helvetica,sans-Serif" font-size="10.00">unique_ptr&lt; EventQueue &gt;</text>
<polyline fill="none" stroke="black" points="230,-904 380,-904 "/>
<text text-anchor="middle" x="305" y="-892" font-family="Helvetica,sans-Serif" font-size="10.00"> </text>
<polyline fill="none" stroke="black" points="230,-885 380,-885 "/>
<text text-anchor="middle" x="305" y="-873" font-family="Helvetica,sans-Serif" font-size="10.00"> </text>
</a>
</g>
</g>
<!-- Node7&#45;&gt;Node5 -->
<g id="edge7" class="edge">
<title>Node7&#45;&gt;Node5</title>
<path fill="none" stroke="#404040" d="M305,-865.69C305,-806.98 305,-667.4 305,-565.93"/>
<polygon fill="none" stroke="#404040" points="305,-565.75 301,-559.75 305,-553.75 309,-559.75 305,-565.75"/>
<text text-anchor="middle" x="322.5" y="-704.5" font-family="Helvetica,sans-Serif" font-size="10.00"> #self_</text>
</g>
<!-- Node8 -->
<g id="node8" class="node">
<title>Node8</title>
<g id="a_node8"><a xlink:href="$class_event_queue.html" xlink:title="Singleton class wrapper for std::queue&lt;E&gt;.">
<polygon fill="none" stroke="black" points="358,-601.5 358,-812.5 508,-812.5 508,-601.5 358,-601.5"/>
<text text-anchor="middle" x="433" y="-800.5" font-family="Helvetica,sans-Serif" font-size="10.00">EventQueue&lt; E &gt;</text>
<polyline fill="none" stroke="black" points="358,-793.5 508,-793.5 "/>
<text text-anchor="middle" x="433" y="-781.5" font-family="Helvetica,sans-Serif" font-size="10.00"> </text>
<polyline fill="none" stroke="black" points="358,-774.5 508,-774.5 "/>
<text text-anchor="start" x="366" y="-762.5" font-family="Helvetica,sans-Serif" font-size="10.00">+ EventQueue(EventQueue</text>
<text text-anchor="start" x="366" y="-751.5" font-family="Helvetica,sans-Serif" font-size="10.00"> &amp;)=delete</text>
<text text-anchor="start" x="366" y="-740.5" font-family="Helvetica,sans-Serif" font-size="10.00">+ bool operator=(const</text>
<text text-anchor="start" x="366" y="-729.5" font-family="Helvetica,sans-Serif" font-size="10.00"> EventQueue &amp;)=delete</text>
<text text-anchor="start" x="366" y="-718.5" font-family="Helvetica,sans-Serif" font-size="10.00">+ void registerEvent</text>
<text text-anchor="start" x="366" y="-707.5" font-family="Helvetica,sans-Serif" font-size="10.00">(std::unique_ptr&lt; E</text>
<text text-anchor="start" x="366" y="-696.5" font-family="Helvetica,sans-Serif" font-size="10.00"> &gt; event)</text>
<text text-anchor="start" x="366" y="-685.5" font-family="Helvetica,sans-Serif" font-size="10.00">+ std::unique_ptr&lt; E</text>
<text text-anchor="start" x="366" y="-674.5" font-family="Helvetica,sans-Serif" font-size="10.00"> &gt; pop()</text>
<text text-anchor="start" x="366" y="-663.5" font-family="Helvetica,sans-Serif" font-size="10.00">+ bool isEmpty()</text>
<text text-anchor="start" x="366" y="-652.5" font-family="Helvetica,sans-Serif" font-size="10.00">+ unsigned int size()</text>
<text text-anchor="start" x="366" y="-641.5" font-family="Helvetica,sans-Serif" font-size="10.00">+ void clear()</text>
<text text-anchor="start" x="366" y="-630.5" font-family="Helvetica,sans-Serif" font-size="10.00">+ static EventQueue *</text>
<text text-anchor="start" x="366" y="-619.5" font-family="Helvetica,sans-Serif" font-size="10.00"> instance()</text>
<text text-anchor="start" x="366" y="-608.5" font-family="Helvetica,sans-Serif" font-size="10.00">&#45; EventQueue()=default</text>
</a>
</g>
</g>
<!-- Node7&#45;&gt;Node8 -->
<g id="edge10" class="edge">
<title>Node7&#45;&gt;Node8</title>
<path fill="none" stroke="#404040" d="M324.16,-865.73C332.48,-853.68 342.83,-838.68 353.81,-822.77"/>
<polygon fill="none" stroke="#404040" points="353.9,-822.64 354.01,-815.43 360.71,-812.76 360.6,-819.97 353.9,-822.64"/>
<text text-anchor="middle" x="364.5" y="-834" font-family="Helvetica,sans-Serif" font-size="10.00"> #self_</text>
</g>
<!-- Node8&#45;&gt;Node5 -->
<g id="edge8" class="edge">
<title>Node8&#45;&gt;Node5</title>
<path fill="none" stroke="orange" d="M376.33,-592.22C369.97,-579.46 363.52,-566.5 357.22,-553.86"/>
<polygon fill="orange" stroke="orange" points="373.35,-594.08 380.94,-601.47 379.61,-590.96 373.35,-594.08"/>
<text text-anchor="middle" x="396" y="-575" font-family="Helvetica,sans-Serif" font-size="10.00"> &lt; Event &gt;</text>
</g>
<!-- Node9 -->
<g id="node9" class="node">
<title>Node9</title>
<g id="a_node9"><a xlink:title=" ">
<polygon fill="none" stroke="black" points="398,-860.5 398,-928.5 510,-928.5 510,-860.5 398,-860.5"/>
<text text-anchor="start" x="406" y="-916.5" font-family="Helvetica,sans-Serif" font-size="10.00">queue&lt; std::unique</text>
<text text-anchor="middle" x="454" y="-905.5" font-family="Helvetica,sans-Serif" font-size="10.00">_ptr&lt; E &gt; &gt;</text>
<polyline fill="none" stroke="black" points="398,-898.5 510,-898.5 "/>
<text text-anchor="middle" x="454" y="-886.5" font-family="Helvetica,sans-Serif" font-size="10.00"> </text>
<polyline fill="none" stroke="black" points="398,-879.5 510,-879.5 "/>
<text text-anchor="middle" x="454" y="-867.5" font-family="Helvetica,sans-Serif" font-size="10.00"> </text>
</a>
</g>
</g>
<!-- Node9&#45;&gt;Node8 -->
<g id="edge9" class="edge">
<title>Node9&#45;&gt;Node8</title>
<path fill="none" stroke="#404040" d="M450.25,-860.34C449.06,-849.88 447.68,-837.68 446.22,-824.81"/>
<polygon fill="none" stroke="#404040" points="446.22,-824.77 441.57,-819.25 444.87,-812.84 449.52,-818.36 446.22,-824.77"/>
<text text-anchor="middle" x="473" y="-834" font-family="Helvetica,sans-Serif" font-size="10.00"> #events_</text>
</g>
</g>
</svg>
