<?xml version="1.0" encoding="UTF-8" standalone="no"?>
<!DOCTYPE svg PUBLIC "-//W3C//DTD SVG 1.1//EN"
 "http://www.w3.org/Graphics/SVG/1.1/DTD/svg11.dtd">
<!-- Generated by graphviz version 2.43.0 (0)
 -->
<!-- Title: /home/tomek/CLionProjects/proi/proi&#45;projekt/src/graphic&#45;lib/include/AbstractWindow.h Pages: 1 -->
<svg width="2754pt" height="484pt"
 viewBox="0.00 0.00 2753.50 484.00" xmlns="http://www.w3.org/2000/svg" xmlns:xlink="http://www.w3.org/1999/xlink">
<g id="graph0" class="graph" transform="scale(1 1) rotate(0) translate(4 480)">
<title>/home/tomek/CLionProjects/proi/proi&#45;projekt/src/graphic&#45;lib/include/AbstractWindow.h</title>
<!-- Node1 -->
<g id="node1" class="node">
<title>Node1</title>
<g id="a_node1"><a xlink:title=" ">
<polygon fill="#bfbfbf" stroke="black" points="786.5,-434.5 786.5,-475.5 986.5,-475.5 986.5,-434.5 786.5,-434.5"/>
<text text-anchor="start" x="794.5" y="-463.5" font-family="Helvetica,sans-Serif" font-size="10.00">/home/tomek/CLionProjects</text>
<text text-anchor="start" x="794.5" y="-452.5" font-family="Helvetica,sans-Serif" font-size="10.00">/proi/proi&#45;projekt/src</text>
<text text-anchor="middle" x="886.5" y="-441.5" font-family="Helvetica,sans-Serif" font-size="10.00">/graphic&#45;lib/include/AbstractWindow.h</text>
</a>
</g>
</g>
<!-- Node2 -->
<g id="node2" class="node">
<title>Node2</title>
<g id="a_node2"><a xlink:href="_abstract_window_8cpp.html" target="_top" xlink:title=" ">
<polygon fill="none" stroke="black" points="0,-351 0,-392 173,-392 173,-351 0,-351"/>
<text text-anchor="start" x="8" y="-380" font-family="Helvetica,sans-Serif" font-size="10.00">/home/tomek/CLionProjects</text>
<text text-anchor="start" x="8" y="-369" font-family="Helvetica,sans-Serif" font-size="10.00">/proi/proi&#45;projekt/src</text>
<text text-anchor="middle" x="86.5" y="-358" font-family="Helvetica,sans-Serif" font-size="10.00">/graphic&#45;lib/AbstractWindow.cpp</text>
</a>
</g>
</g>
<!-- Node1&#45;&gt;Node2 -->
<g id="edge1" class="edge">
<title>Node1&#45;&gt;Node2</title>
<path fill="none" stroke="midnightblue" d="M775.99,-451.47C636.52,-446.84 389.7,-433.9 181.5,-398 172.24,-396.4 162.58,-394.32 153.11,-392.02"/>
<polygon fill="midnightblue" stroke="midnightblue" points="776.15,-454.97 786.25,-451.8 776.37,-447.98 776.15,-454.97"/>
</g>
<!-- Node3 -->
<g id="node3" class="node">
<title>Node3</title>
<g id="a_node3"><a xlink:href="_bullets_graphic_8h.html" target="_top" xlink:title=" ">
<polygon fill="none" stroke="black" points="191,-345.5 191,-397.5 360,-397.5 360,-345.5 191,-345.5"/>
<text text-anchor="start" x="199" y="-385.5" font-family="Helvetica,sans-Serif" font-size="10.00">/home/tomek/CLionProjects</text>
<text text-anchor="start" x="199" y="-374.5" font-family="Helvetica,sans-Serif" font-size="10.00">/proi/proi&#45;projekt/src</text>
<text text-anchor="start" x="199" y="-363.5" font-family="Helvetica,sans-Serif" font-size="10.00">/graphic&#45;lib/include/ActiveState</text>
<text text-anchor="middle" x="275.5" y="-352.5" font-family="Helvetica,sans-Serif" font-size="10.00">_dir/Borad_dir/BulletsGraphic.h</text>
</a>
</g>
</g>
<!-- Node1&#45;&gt;Node3 -->
<g id="edge2" class="edge">
<title>Node1&#45;&gt;Node3</title>
<path fill="none" stroke="midnightblue" d="M776.25,-445.79C673.56,-437.19 516.46,-421.62 381.5,-398 374.51,-396.78 367.29,-395.36 360.06,-393.84"/>
<polygon fill="midnightblue" stroke="midnightblue" points="776.07,-449.29 786.32,-446.62 776.65,-442.31 776.07,-449.29"/>
</g>
<!-- Node6 -->
<g id="node6" class="node">
<title>Node6</title>
<g id="a_node6"><a xlink:href="_eagle_graphic_8h.html" target="_top" xlink:title=" ">
<polygon fill="none" stroke="black" points="391,-345.5 391,-397.5 560,-397.5 560,-345.5 391,-345.5"/>
<text text-anchor="start" x="399" y="-385.5" font-family="Helvetica,sans-Serif" font-size="10.00">/home/tomek/CLionProjects</text>
<text text-anchor="start" x="399" y="-374.5" font-family="Helvetica,sans-Serif" font-size="10.00">/proi/proi&#45;projekt/src</text>
<text text-anchor="start" x="399" y="-363.5" font-family="Helvetica,sans-Serif" font-size="10.00">/graphic&#45;lib/include/ActiveState</text>
<text text-anchor="middle" x="475.5" y="-352.5" font-family="Helvetica,sans-Serif" font-size="10.00">_dir/Borad_dir/EagleGraphic.h</text>
</a>
</g>
</g>
<!-- Node1&#45;&gt;Node6 -->
<g id="edge5" class="edge">
<title>Node1&#45;&gt;Node6</title>
<path fill="none" stroke="midnightblue" d="M776.37,-437.2C714.92,-427.18 637.15,-413.42 568.5,-398 565.72,-397.38 562.9,-396.72 560.06,-396.05"/>
<polygon fill="midnightblue" stroke="midnightblue" points="776.05,-440.7 786.48,-438.84 777.17,-433.79 776.05,-440.7"/>
</g>
<!-- Node8 -->
<g id="node8" class="node">
<title>Node8</title>
<g id="a_node8"><a xlink:href="_tanks_graphic_8h.html" target="_top" xlink:title=" ">
<polygon fill="none" stroke="black" points="578,-345.5 578,-397.5 747,-397.5 747,-345.5 578,-345.5"/>
<text text-anchor="start" x="586" y="-385.5" font-family="Helvetica,sans-Serif" font-size="10.00">/home/tomek/CLionProjects</text>
<text text-anchor="start" x="586" y="-374.5" font-family="Helvetica,sans-Serif" font-size="10.00">/proi/proi&#45;projekt/src</text>
<text text-anchor="start" x="586" y="-363.5" font-family="Helvetica,sans-Serif" font-size="10.00">/graphic&#45;lib/include/ActiveState</text>
<text text-anchor="middle" x="662.5" y="-352.5" font-family="Helvetica,sans-Serif" font-size="10.00">_dir/Borad_dir/TanksGraphic.h</text>
</a>
</g>
</g>
<!-- Node1&#45;&gt;Node8 -->
<g id="edge8" class="edge">
<title>Node1&#45;&gt;Node8</title>
<path fill="none" stroke="midnightblue" d="M823.35,-431.02C794.69,-420.6 760.74,-408.24 731.42,-397.58"/>
<polygon fill="midnightblue" stroke="midnightblue" points="822.25,-434.35 832.85,-434.48 824.65,-427.77 822.25,-434.35"/>
</g>
<!-- Node10 -->
<g id="node10" class="node">
<title>Node10</title>
<g id="a_node10"><a xlink:href="_tiles_graphic_8h.html" target="_top" xlink:title=" ">
<polygon fill="none" stroke="black" points="802,-345.5 802,-397.5 971,-397.5 971,-345.5 802,-345.5"/>
<text text-anchor="start" x="810" y="-385.5" font-family="Helvetica,sans-Serif" font-size="10.00">/home/tomek/CLionProjects</text>
<text text-anchor="start" x="810" y="-374.5" font-family="Helvetica,sans-Serif" font-size="10.00">/proi/proi&#45;projekt/src</text>
<text text-anchor="start" x="810" y="-363.5" font-family="Helvetica,sans-Serif" font-size="10.00">/graphic&#45;lib/include/ActiveState</text>
<text text-anchor="middle" x="886.5" y="-352.5" font-family="Helvetica,sans-Serif" font-size="10.00">_dir/Borad_dir/TilesGraphic.h</text>
</a>
</g>
</g>
<!-- Node1&#45;&gt;Node10 -->
<g id="edge11" class="edge">
<title>Node1&#45;&gt;Node10</title>
<path fill="none" stroke="midnightblue" d="M886.5,-424.12C886.5,-415.41 886.5,-405.99 886.5,-397.61"/>
<polygon fill="midnightblue" stroke="midnightblue" points="883,-424.27 886.5,-434.27 890,-424.27 883,-424.27"/>
</g>
<!-- Node12 -->
<g id="node12" class="node">
<title>Node12</title>
<g id="a_node12"><a xlink:href="_game_info_graphic_8h.html" target="_top" xlink:title=" ">
<polygon fill="none" stroke="black" points="2493.5,-78.5 2493.5,-130.5 2677.5,-130.5 2677.5,-78.5 2493.5,-78.5"/>
<text text-anchor="start" x="2501.5" y="-118.5" font-family="Helvetica,sans-Serif" font-size="10.00">/home/tomek/CLionProjects</text>
<text text-anchor="start" x="2501.5" y="-107.5" font-family="Helvetica,sans-Serif" font-size="10.00">/proi/proi&#45;projekt/src</text>
<text text-anchor="start" x="2501.5" y="-96.5" font-family="Helvetica,sans-Serif" font-size="10.00">/graphic&#45;lib/include/ActiveState</text>
<text text-anchor="middle" x="2585.5" y="-85.5" font-family="Helvetica,sans-Serif" font-size="10.00">_dir/Frame_dir/GameInfoGraphic.h</text>
</a>
</g>
</g>
<!-- Node1&#45;&gt;Node12 -->
<g id="edge14" class="edge">
<title>Node1&#45;&gt;Node12</title>
<path fill="none" stroke="midnightblue" d="M996.67,-448.65C1138.54,-441.03 1392.55,-424.9 1608.5,-398 1839.87,-369.18 1898.22,-361.03 2125.5,-309 2265.23,-277.02 2307.43,-284.38 2435.5,-220 2483.07,-196.09 2530.68,-156.4 2559.12,-130.6"/>
<polygon fill="midnightblue" stroke="midnightblue" points="996.45,-445.16 986.65,-449.18 996.83,-452.15 996.45,-445.16"/>
</g>
<!-- Node15 -->
<g id="node15" class="node">
<title>Node15</title>
<g id="a_node15"><a xlink:href="_graphic_event_handler_8h.html" target="_top" xlink:title=" ">
<polygon fill="none" stroke="black" points="966.5,-256.5 966.5,-308.5 1144.5,-308.5 1144.5,-256.5 966.5,-256.5"/>
<text text-anchor="start" x="974.5" y="-296.5" font-family="Helvetica,sans-Serif" font-size="10.00">/home/tomek/CLionProjects</text>
<text text-anchor="start" x="974.5" y="-285.5" font-family="Helvetica,sans-Serif" font-size="10.00">/proi/proi&#45;projekt/src</text>
<text text-anchor="start" x="974.5" y="-274.5" font-family="Helvetica,sans-Serif" font-size="10.00">/graphic&#45;lib/include/GraphicEvent</text>
<text text-anchor="middle" x="1055.5" y="-263.5" font-family="Helvetica,sans-Serif" font-size="10.00">Handler.h</text>
</a>
</g>
</g>
<!-- Node1&#45;&gt;Node15 -->
<g id="edge17" class="edge">
<title>Node1&#45;&gt;Node15</title>
<path fill="none" stroke="midnightblue" d="M936.71,-429.24C951.46,-420.57 966.98,-409.98 979.5,-398 1007.08,-371.61 1029.87,-333.48 1043.09,-308.59"/>
<polygon fill="midnightblue" stroke="midnightblue" points="934.63,-426.39 927.66,-434.38 938.09,-432.48 934.63,-426.39"/>
</g>
<!-- Node24 -->
<g id="node24" class="node">
<title>Node24</title>
<g id="a_node24"><a xlink:href="_menu_state_graphic_8h.html" target="_top" xlink:title=" ">
<polygon fill="none" stroke="black" points="1518,-167.5 1518,-219.5 1689,-219.5 1689,-167.5 1518,-167.5"/>
<text text-anchor="start" x="1526" y="-207.5" font-family="Helvetica,sans-Serif" font-size="10.00">/home/tomek/CLionProjects</text>
<text text-anchor="start" x="1526" y="-196.5" font-family="Helvetica,sans-Serif" font-size="10.00">/proi/proi&#45;projekt/src</text>
<text text-anchor="start" x="1526" y="-185.5" font-family="Helvetica,sans-Serif" font-size="10.00">/graphic&#45;lib/include/StaticStates</text>
<text text-anchor="middle" x="1603.5" y="-174.5" font-family="Helvetica,sans-Serif" font-size="10.00">_dir/MenuStateGraphic.h</text>
</a>
</g>
</g>
<!-- Node1&#45;&gt;Node24 -->
<g id="edge26" class="edge">
<title>Node1&#45;&gt;Node24</title>
<path fill="none" stroke="midnightblue" d="M996.82,-452.58C1181.58,-449.1 1537.5,-437.33 1578.5,-398 1626.92,-351.55 1617.59,-263.17 1609.3,-219.79"/>
<polygon fill="midnightblue" stroke="midnightblue" points="996.73,-449.08 986.8,-452.76 996.86,-456.08 996.73,-449.08"/>
</g>
<!-- Node27 -->
<g id="node27" class="node">
<title>Node27</title>
<g id="a_node27"><a xlink:href="_window_8h.html" target="_top" xlink:title=" ">
<polygon fill="none" stroke="black" points="1409.5,-351 1409.5,-392 1569.5,-392 1569.5,-351 1409.5,-351"/>
<text text-anchor="start" x="1417.5" y="-380" font-family="Helvetica,sans-Serif" font-size="10.00">/home/tomek/CLionProjects</text>
<text text-anchor="start" x="1417.5" y="-369" font-family="Helvetica,sans-Serif" font-size="10.00">/proi/proi&#45;projekt/src</text>
<text text-anchor="middle" x="1489.5" y="-358" font-family="Helvetica,sans-Serif" font-size="10.00">/graphic&#45;lib/include/Window.h</text>
</a>
</g>
</g>
<!-- Node1&#45;&gt;Node27 -->
<g id="edge29" class="edge">
<title>Node1&#45;&gt;Node27</title>
<path fill="none" stroke="midnightblue" d="M997,-439.06C1116.28,-422.94 1303.34,-397.66 1409.29,-383.34"/>
<polygon fill="midnightblue" stroke="midnightblue" points="996.19,-435.64 986.75,-440.45 997.13,-442.58 996.19,-435.64"/>
</g>
<!-- Node4 -->
<g id="node4" class="node">
<title>Node4</title>
<g id="a_node4"><a xlink:href="_board_graphic_8cpp.html" target="_top" xlink:title=" ">
<polygon fill="none" stroke="black" points="166,-84 166,-125 327,-125 327,-84 166,-84"/>
<text text-anchor="start" x="174" y="-113" font-family="Helvetica,sans-Serif" font-size="10.00">/home/tomek/CLionProjects</text>
<text text-anchor="start" x="174" y="-102" font-family="Helvetica,sans-Serif" font-size="10.00">/proi/proi&#45;projekt/src</text>
<text text-anchor="middle" x="246.5" y="-91" font-family="Helvetica,sans-Serif" font-size="10.00">/graphic&#45;lib/BoardGraphic.cpp</text>
</a>
</g>
</g>
<!-- Node3&#45;&gt;Node4 -->
<g id="edge3" class="edge">
<title>Node3&#45;&gt;Node4</title>
<path fill="none" stroke="midnightblue" d="M271.6,-334.83C265.4,-278.25 253.54,-169.79 248.67,-125.29"/>
<polygon fill="midnightblue" stroke="midnightblue" points="268.15,-335.53 272.72,-345.09 275.11,-334.77 268.15,-335.53"/>
</g>
<!-- Node5 -->
<g id="node5" class="node">
<title>Node5</title>
<g id="a_node5"><a xlink:href="_bullets_graphic_8cpp.html" target="_top" xlink:title=" ">
<polygon fill="none" stroke="black" points="74.5,-262 74.5,-303 240.5,-303 240.5,-262 74.5,-262"/>
<text text-anchor="start" x="82.5" y="-291" font-family="Helvetica,sans-Serif" font-size="10.00">/home/tomek/CLionProjects</text>
<text text-anchor="start" x="82.5" y="-280" font-family="Helvetica,sans-Serif" font-size="10.00">/proi/proi&#45;projekt/src</text>
<text text-anchor="middle" x="157.5" y="-269" font-family="Helvetica,sans-Serif" font-size="10.00">/graphic&#45;lib/BulletsGraphic.cpp</text>
</a>
</g>
</g>
<!-- Node3&#45;&gt;Node5 -->
<g id="edge4" class="edge">
<title>Node3&#45;&gt;Node5</title>
<path fill="none" stroke="midnightblue" d="M233.02,-339.18C216.67,-327.13 198.49,-313.72 184.06,-303.08"/>
<polygon fill="midnightblue" stroke="midnightblue" points="231.24,-342.22 241.37,-345.34 235.4,-336.58 231.24,-342.22"/>
</g>
<!-- Node6&#45;&gt;Node4 -->
<g id="edge6" class="edge">
<title>Node6&#45;&gt;Node4</title>
<path fill="none" stroke="midnightblue" d="M479.15,-335.34C479.96,-311.38 477.6,-279.82 463.5,-256 425.44,-191.69 347.87,-148.26 296.54,-125.19"/>
<polygon fill="midnightblue" stroke="midnightblue" points="475.65,-335.25 478.61,-345.42 482.64,-335.62 475.65,-335.25"/>
</g>
<!-- Node7 -->
<g id="node7" class="node">
<title>Node7</title>
<g id="a_node7"><a xlink:href="_eagle_graphic_8cpp.html" target="_top" xlink:title=" ">
<polygon fill="none" stroke="black" points="296,-262 296,-303 455,-303 455,-262 296,-262"/>
<text text-anchor="start" x="304" y="-291" font-family="Helvetica,sans-Serif" font-size="10.00">/home/tomek/CLionProjects</text>
<text text-anchor="start" x="304" y="-280" font-family="Helvetica,sans-Serif" font-size="10.00">/proi/proi&#45;projekt/src</text>
<text text-anchor="middle" x="375.5" y="-269" font-family="Helvetica,sans-Serif" font-size="10.00">/graphic&#45;lib/EagleGraphic.cpp</text>
</a>
</g>
</g>
<!-- Node6&#45;&gt;Node7 -->
<g id="edge7" class="edge">
<title>Node6&#45;&gt;Node7</title>
<path fill="none" stroke="midnightblue" d="M438.74,-338.51C425.08,-326.64 410.01,-313.53 398.01,-303.08"/>
<polygon fill="midnightblue" stroke="midnightblue" points="436.73,-341.41 446.58,-345.34 441.33,-336.13 436.73,-341.41"/>
</g>
<!-- Node8&#45;&gt;Node4 -->
<g id="edge9" class="edge">
<title>Node8&#45;&gt;Node4</title>
<path fill="none" stroke="midnightblue" d="M596.41,-340.63C579.4,-331.58 561.64,-320.86 546.5,-309 479.84,-256.8 489.79,-214.2 419.5,-167 401.37,-154.83 353.1,-138.07 312.14,-125.12"/>
<polygon fill="midnightblue" stroke="midnightblue" points="595.28,-343.98 605.77,-345.48 598.5,-337.76 595.28,-343.98"/>
</g>
<!-- Node9 -->
<g id="node9" class="node">
<title>Node9</title>
<g id="a_node9"><a xlink:href="_tanks_graphic_8cpp.html" target="_top" xlink:title=" ">
<polygon fill="none" stroke="black" points="555.5,-262 555.5,-303 715.5,-303 715.5,-262 555.5,-262"/>
<text text-anchor="start" x="563.5" y="-291" font-family="Helvetica,sans-Serif" font-size="10.00">/home/tomek/CLionProjects</text>
<text text-anchor="start" x="563.5" y="-280" font-family="Helvetica,sans-Serif" font-size="10.00">/proi/proi&#45;projekt/src</text>
<text text-anchor="middle" x="635.5" y="-269" font-family="Helvetica,sans-Serif" font-size="10.00">/graphic&#45;lib/TanksGraphic.cpp</text>
</a>
</g>
</g>
<!-- Node8&#45;&gt;Node9 -->
<g id="edge10" class="edge">
<title>Node8&#45;&gt;Node9</title>
<path fill="none" stroke="midnightblue" d="M651.64,-335.49C648.21,-324.45 644.55,-312.65 641.58,-303.08"/>
<polygon fill="midnightblue" stroke="midnightblue" points="648.38,-336.82 654.69,-345.34 655.07,-334.75 648.38,-336.82"/>
</g>
<!-- Node10&#45;&gt;Node4 -->
<g id="edge12" class="edge">
<title>Node10&#45;&gt;Node4</title>
<path fill="none" stroke="midnightblue" d="M901.63,-335.84C909.91,-310.99 915.26,-278.14 897.5,-256 737.41,-56.39 583.49,-194.05 335.5,-131 328.18,-129.14 320.55,-127.1 312.96,-125.02"/>
<polygon fill="midnightblue" stroke="midnightblue" points="898.33,-334.67 898.23,-345.26 904.92,-337.04 898.33,-334.67"/>
</g>
<!-- Node11 -->
<g id="node11" class="node">
<title>Node11</title>
<g id="a_node11"><a xlink:href="_tiles_graphic_8cpp.html" target="_top" xlink:title=" ">
<polygon fill="none" stroke="black" points="734,-262 734,-303 889,-303 889,-262 734,-262"/>
<text text-anchor="start" x="742" y="-291" font-family="Helvetica,sans-Serif" font-size="10.00">/home/tomek/CLionProjects</text>
<text text-anchor="start" x="742" y="-280" font-family="Helvetica,sans-Serif" font-size="10.00">/proi/proi&#45;projekt/src</text>
<text text-anchor="middle" x="811.5" y="-269" font-family="Helvetica,sans-Serif" font-size="10.00">/graphic&#45;lib/TilesGraphic.cpp</text>
</a>
</g>
</g>
<!-- Node10&#45;&gt;Node11 -->
<g id="edge13" class="edge">
<title>Node10&#45;&gt;Node11</title>
<path fill="none" stroke="midnightblue" d="M858.06,-337.51C848.06,-325.9 837.13,-313.23 828.38,-303.08"/>
<polygon fill="midnightblue" stroke="midnightblue" points="855.63,-340.05 864.81,-345.34 860.93,-335.48 855.63,-340.05"/>
</g>
<!-- Node13 -->
<g id="node13" class="node">
<title>Node13</title>
<g id="a_node13"><a xlink:href="_frame_graphic_8cpp.html" target="_top" xlink:title=" ">
<polygon fill="none" stroke="black" points="2384,-0.5 2384,-41.5 2547,-41.5 2547,-0.5 2384,-0.5"/>
<text text-anchor="start" x="2392" y="-29.5" font-family="Helvetica,sans-Serif" font-size="10.00">/home/tomek/CLionProjects</text>
<text text-anchor="start" x="2392" y="-18.5" font-family="Helvetica,sans-Serif" font-size="10.00">/proi/proi&#45;projekt/src</text>
<text text-anchor="middle" x="2465.5" y="-7.5" font-family="Helvetica,sans-Serif" font-size="10.00">/graphic&#45;lib/FrameGraphic.cpp</text>
</a>
</g>
</g>
<!-- Node12&#45;&gt;Node13 -->
<g id="edge15" class="edge">
<title>Node12&#45;&gt;Node13</title>
<path fill="none" stroke="midnightblue" d="M2540.19,-72.73C2524.9,-62.34 2508.25,-51.03 2494.56,-41.73"/>
<polygon fill="midnightblue" stroke="midnightblue" points="2538.28,-75.66 2548.52,-78.38 2542.21,-69.87 2538.28,-75.66"/>
</g>
<!-- Node14 -->
<g id="node14" class="node">
<title>Node14</title>
<g id="a_node14"><a xlink:href="_game_info_graphic_8cpp.html" target="_top" xlink:title=" ">
<polygon fill="none" stroke="black" points="2565.5,-0.5 2565.5,-41.5 2745.5,-41.5 2745.5,-0.5 2565.5,-0.5"/>
<text text-anchor="start" x="2573.5" y="-29.5" font-family="Helvetica,sans-Serif" font-size="10.00">/home/tomek/CLionProjects</text>
<text text-anchor="start" x="2573.5" y="-18.5" font-family="Helvetica,sans-Serif" font-size="10.00">/proi/proi&#45;projekt/src</text>
<text text-anchor="middle" x="2655.5" y="-7.5" font-family="Helvetica,sans-Serif" font-size="10.00">/graphic&#45;lib/GameInfoGraphic.cpp</text>
</a>
</g>
</g>
<!-- Node12&#45;&gt;Node14 -->
<g id="edge16" class="edge">
<title>Node12&#45;&gt;Node14</title>
<path fill="none" stroke="midnightblue" d="M2613.86,-70.48C2622.27,-60.69 2631.21,-50.28 2638.64,-41.63"/>
<polygon fill="midnightblue" stroke="midnightblue" points="2611.13,-68.29 2607.26,-78.16 2616.44,-72.85 2611.13,-68.29"/>
</g>
<!-- Node16 -->
<g id="node16" class="node">
<title>Node16</title>
<g id="a_node16"><a xlink:href="_game_8h.html" target="_top" xlink:title=" ">
<polygon fill="none" stroke="black" points="955,-173 955,-214 1106,-214 1106,-173 955,-173"/>
<text text-anchor="start" x="963" y="-202" font-family="Helvetica,sans-Serif" font-size="10.00">/home/tomek/CLionProjects</text>
<text text-anchor="start" x="963" y="-191" font-family="Helvetica,sans-Serif" font-size="10.00">/proi/proi&#45;projekt/src</text>
<text text-anchor="middle" x="1030.5" y="-180" font-family="Helvetica,sans-Serif" font-size="10.00">/game&#45;lib/include/Game.h</text>
</a>
</g>
</g>
<!-- Node15&#45;&gt;Node16 -->
<g id="edge18" class="edge">
<title>Node15&#45;&gt;Node16</title>
<path fill="none" stroke="midnightblue" d="M1045.44,-246.49C1042.27,-235.45 1038.88,-223.65 1036.13,-214.08"/>
<polygon fill="midnightblue" stroke="midnightblue" points="1042.14,-247.69 1048.27,-256.34 1048.87,-245.76 1042.14,-247.69"/>
</g>
<!-- Node23 -->
<g id="node23" class="node">
<title>Node23</title>
<g id="a_node23"><a xlink:href="_graphic_event_handler_8cpp.html" target="_top" xlink:title=" ">
<polygon fill="none" stroke="black" points="1231,-173 1231,-214 1428,-214 1428,-173 1231,-173"/>
<text text-anchor="start" x="1239" y="-202" font-family="Helvetica,sans-Serif" font-size="10.00">/home/tomek/CLionProjects</text>
<text text-anchor="start" x="1239" y="-191" font-family="Helvetica,sans-Serif" font-size="10.00">/proi/proi&#45;projekt/src</text>
<text text-anchor="middle" x="1329.5" y="-180" font-family="Helvetica,sans-Serif" font-size="10.00">/graphic&#45;lib/GraphicEventHandler.cpp</text>
</a>
</g>
</g>
<!-- Node15&#45;&gt;Node23 -->
<g id="edge25" class="edge">
<title>Node15&#45;&gt;Node23</title>
<path fill="none" stroke="midnightblue" d="M1143.96,-253.41C1184.33,-240.59 1231.15,-225.73 1267.66,-214.13"/>
<polygon fill="midnightblue" stroke="midnightblue" points="1142.86,-250.09 1134.38,-256.45 1144.97,-256.76 1142.86,-250.09"/>
</g>
<!-- Node17 -->
<g id="node17" class="node">
<title>Node17</title>
<g id="a_node17"><a xlink:href="_active_event_handler_8cpp.html" target="_top" xlink:title=" ">
<polygon fill="none" stroke="black" points="1289.5,-84 1289.5,-125 1471.5,-125 1471.5,-84 1289.5,-84"/>
<text text-anchor="start" x="1297.5" y="-113" font-family="Helvetica,sans-Serif" font-size="10.00">/home/tomek/CLionProjects</text>
<text text-anchor="start" x="1297.5" y="-102" font-family="Helvetica,sans-Serif" font-size="10.00">/proi/proi&#45;projekt/src</text>
<text text-anchor="middle" x="1380.5" y="-91" font-family="Helvetica,sans-Serif" font-size="10.00">/game&#45;lib/ActiveEventHandler.cpp</text>
</a>
</g>
</g>
<!-- Node16&#45;&gt;Node17 -->
<g id="edge19" class="edge">
<title>Node16&#45;&gt;Node17</title>
<path fill="none" stroke="midnightblue" d="M1116,-171.5C1164.06,-159.66 1225.14,-144.58 1279.5,-131 1287.22,-129.07 1295.27,-127.05 1303.31,-125.03"/>
<polygon fill="midnightblue" stroke="midnightblue" points="1115.13,-168.11 1106.26,-173.9 1116.81,-174.9 1115.13,-168.11"/>
</g>
<!-- Node18 -->
<g id="node18" class="node">
<title>Node18</title>
<g id="a_node18"><a xlink:href="_finished_event_handler_8cpp.html" target="_top" xlink:title=" ">
<polygon fill="none" stroke="black" points="711.5,-84 711.5,-125 903.5,-125 903.5,-84 711.5,-84"/>
<text text-anchor="start" x="719.5" y="-113" font-family="Helvetica,sans-Serif" font-size="10.00">/home/tomek/CLionProjects</text>
<text text-anchor="start" x="719.5" y="-102" font-family="Helvetica,sans-Serif" font-size="10.00">/proi/proi&#45;projekt/src</text>
<text text-anchor="middle" x="807.5" y="-91" font-family="Helvetica,sans-Serif" font-size="10.00">/game&#45;lib/FinishedEventHandler.cpp</text>
</a>
</g>
</g>
<!-- Node16&#45;&gt;Node18 -->
<g id="edge20" class="edge">
<title>Node16&#45;&gt;Node18</title>
<path fill="none" stroke="midnightblue" d="M970.75,-169.19C935.45,-155.42 891.26,-138.18 857.76,-125.11"/>
<polygon fill="midnightblue" stroke="midnightblue" points="969.87,-172.6 980.45,-172.98 972.41,-166.08 969.87,-172.6"/>
</g>
<!-- Node19 -->
<g id="node19" class="node">
<title>Node19</title>
<g id="a_node19"><a xlink:href="_game_8cpp.html" target="_top" xlink:title=" ">
<polygon fill="none" stroke="black" points="345,-84 345,-125 496,-125 496,-84 345,-84"/>
<text text-anchor="start" x="353" y="-113" font-family="Helvetica,sans-Serif" font-size="10.00">/home/tomek/CLionProjects</text>
<text text-anchor="start" x="353" y="-102" font-family="Helvetica,sans-Serif" font-size="10.00">/proi/proi&#45;projekt/src</text>
<text text-anchor="middle" x="420.5" y="-91" font-family="Helvetica,sans-Serif" font-size="10.00">/game&#45;lib/Game.cpp</text>
</a>
</g>
</g>
<!-- Node16&#45;&gt;Node19 -->
<g id="edge21" class="edge">
<title>Node16&#45;&gt;Node19</title>
<path fill="none" stroke="midnightblue" d="M950.65,-170.71C944.2,-169.33 937.76,-168.06 931.5,-167 743.73,-135.14 691.54,-166.86 504.5,-131 496.27,-129.42 487.7,-127.34 479.31,-125.06"/>
<polygon fill="midnightblue" stroke="midnightblue" points="950.25,-174.21 960.78,-172.98 951.78,-167.38 950.25,-174.21"/>
</g>
<!-- Node20 -->
<g id="node20" class="node">
<title>Node20</title>
<g id="a_node20"><a xlink:href="_menu_event_handler_8cpp.html" target="_top" xlink:title=" ">
<polygon fill="none" stroke="black" points="514,-84 514,-125 693,-125 693,-84 514,-84"/>
<text text-anchor="start" x="522" y="-113" font-family="Helvetica,sans-Serif" font-size="10.00">/home/tomek/CLionProjects</text>
<text text-anchor="start" x="522" y="-102" font-family="Helvetica,sans-Serif" font-size="10.00">/proi/proi&#45;projekt/src</text>
<text text-anchor="middle" x="603.5" y="-91" font-family="Helvetica,sans-Serif" font-size="10.00">/game&#45;lib/MenuEventHandler.cpp</text>
</a>
</g>
</g>
<!-- Node16&#45;&gt;Node20 -->
<g id="edge22" class="edge">
<title>Node16&#45;&gt;Node20</title>
<path fill="none" stroke="midnightblue" d="M947.96,-170.61C942.4,-169.33 936.88,-168.11 931.5,-167 830.61,-146.13 803.39,-151.87 702.5,-131 693.9,-129.22 684.92,-127.18 676.03,-125.03"/>
<polygon fill="midnightblue" stroke="midnightblue" points="947.43,-174.08 957.97,-172.97 949.04,-167.27 947.43,-174.08"/>
</g>
<!-- Node21 -->
<g id="node21" class="node">
<title>Node21</title>
<g id="a_node21"><a xlink:href="_pause_event_handler_8cpp.html" target="_top" xlink:title=" ">
<polygon fill="none" stroke="black" points="921.5,-84 921.5,-125 1101.5,-125 1101.5,-84 921.5,-84"/>
<text text-anchor="start" x="929.5" y="-113" font-family="Helvetica,sans-Serif" font-size="10.00">/home/tomek/CLionProjects</text>
<text text-anchor="start" x="929.5" y="-102" font-family="Helvetica,sans-Serif" font-size="10.00">/proi/proi&#45;projekt/src</text>
<text text-anchor="middle" x="1011.5" y="-91" font-family="Helvetica,sans-Serif" font-size="10.00">/game&#45;lib/PauseEventHandler.cpp</text>
</a>
</g>
</g>
<!-- Node16&#45;&gt;Node21 -->
<g id="edge23" class="edge">
<title>Node16&#45;&gt;Node21</title>
<path fill="none" stroke="midnightblue" d="M1024.02,-162.81C1021.3,-150.38 1018.22,-136.27 1015.79,-125.16"/>
<polygon fill="midnightblue" stroke="midnightblue" points="1020.64,-163.74 1026.19,-172.76 1027.47,-162.24 1020.64,-163.74"/>
</g>
<!-- Node22 -->
<g id="node22" class="node">
<title>Node22</title>
<g id="a_node22"><a xlink:href="tanks_8cpp.html" target="_top" xlink:title=" ">
<polygon fill="none" stroke="black" points="1120,-84 1120,-125 1271,-125 1271,-84 1120,-84"/>
<text text-anchor="start" x="1128" y="-113" font-family="Helvetica,sans-Serif" font-size="10.00">/home/tomek/CLionProjects</text>
<text text-anchor="start" x="1128" y="-102" font-family="Helvetica,sans-Serif" font-size="10.00">/proi/proi&#45;projekt/src</text>
<text text-anchor="middle" x="1195.5" y="-91" font-family="Helvetica,sans-Serif" font-size="10.00">/main/tanks.cpp</text>
</a>
</g>
</g>
<!-- Node16&#45;&gt;Node22 -->
<g id="edge24" class="edge">
<title>Node16&#45;&gt;Node22</title>
<path fill="none" stroke="midnightblue" d="M1076.39,-168.3C1102.22,-154.68 1134.05,-137.9 1158.31,-125.11"/>
<polygon fill="midnightblue" stroke="midnightblue" points="1074.74,-165.22 1067.53,-172.98 1078.01,-171.41 1074.74,-165.22"/>
</g>
<!-- Node25 -->
<g id="node25" class="node">
<title>Node25</title>
<g id="a_node25"><a xlink:href="_menu_state_graphic_8cpp.html" target="_top" xlink:title=" ">
<polygon fill="none" stroke="black" points="1490,-84 1490,-125 1675,-125 1675,-84 1490,-84"/>
<text text-anchor="start" x="1498" y="-113" font-family="Helvetica,sans-Serif" font-size="10.00">/home/tomek/CLionProjects</text>
<text text-anchor="start" x="1498" y="-102" font-family="Helvetica,sans-Serif" font-size="10.00">/proi/proi&#45;projekt/src</text>
<text text-anchor="middle" x="1582.5" y="-91" font-family="Helvetica,sans-Serif" font-size="10.00">/graphic&#45;lib/MenuStateGraphic.cpp</text>
</a>
</g>
</g>
<!-- Node24&#45;&gt;Node25 -->
<g id="edge27" class="edge">
<title>Node24&#45;&gt;Node25</title>
<path fill="none" stroke="midnightblue" d="M1595.05,-157.49C1592.38,-146.45 1589.54,-134.65 1587.23,-125.08"/>
<polygon fill="midnightblue" stroke="midnightblue" points="1591.68,-158.44 1597.43,-167.34 1598.48,-156.79 1591.68,-158.44"/>
</g>
<!-- Node26 -->
<g id="node26" class="node">
<title>Node26</title>
<g id="a_node26"><a xlink:href="_static_graphic_8cpp.html" target="_top" xlink:title=" ">
<polygon fill="none" stroke="black" points="1693.5,-84 1693.5,-125 1853.5,-125 1853.5,-84 1693.5,-84"/>
<text text-anchor="start" x="1701.5" y="-113" font-family="Helvetica,sans-Serif" font-size="10.00">/home/tomek/CLionProjects</text>
<text text-anchor="start" x="1701.5" y="-102" font-family="Helvetica,sans-Serif" font-size="10.00">/proi/proi&#45;projekt/src</text>
<text text-anchor="middle" x="1773.5" y="-91" font-family="Helvetica,sans-Serif" font-size="10.00">/graphic&#45;lib/StaticGraphic.cpp</text>
</a>
</g>
</g>
<!-- Node24&#45;&gt;Node26 -->
<g id="edge28" class="edge">
<title>Node24&#45;&gt;Node26</title>
<path fill="none" stroke="midnightblue" d="M1661.8,-162.66C1686.08,-150.24 1713.59,-136.16 1735.24,-125.08"/>
<polygon fill="midnightblue" stroke="midnightblue" points="1659.98,-159.66 1652.67,-167.34 1663.17,-165.9 1659.98,-159.66"/>
</g>
<!-- Node27&#45;&gt;Node15 -->
<g id="edge47" class="edge">
<title>Node27&#45;&gt;Node15</title>
<path fill="none" stroke="midnightblue" d="M1399.53,-352.47C1324.9,-337.5 1219.33,-316.34 1144.87,-301.41"/>
<polygon fill="midnightblue" stroke="midnightblue" points="1398.9,-355.91 1409.39,-354.44 1400.27,-349.04 1398.9,-355.91"/>
</g>
<!-- Node27&#45;&gt;Node16 -->
<g id="edge30" class="edge">
<title>Node27&#45;&gt;Node16</title>
<path fill="none" stroke="midnightblue" d="M1429.26,-347.4C1338.17,-312.47 1166.97,-246.83 1081.6,-214.09"/>
<polygon fill="midnightblue" stroke="midnightblue" points="1428.03,-350.68 1438.63,-350.99 1430.54,-344.14 1428.03,-350.68"/>
</g>
<!-- Node27&#45;&gt;Node23 -->
<g id="edge31" class="edge">
<title>Node27&#45;&gt;Node23</title>
<path fill="none" stroke="midnightblue" d="M1464.82,-343.36C1432.33,-307.61 1375.96,-245.6 1347.31,-214.09"/>
<polygon fill="midnightblue" stroke="midnightblue" points="1462.45,-345.95 1471.77,-350.99 1467.63,-341.24 1462.45,-345.95"/>
</g>
<!-- Node27&#45;&gt;Node24 -->
<g id="edge48" class="edge">
<title>Node27&#45;&gt;Node24</title>
<path fill="none" stroke="midnightblue" d="M1507.64,-342.5C1529.54,-308.68 1566.06,-252.3 1587.14,-219.76"/>
<polygon fill="midnightblue" stroke="midnightblue" points="1504.63,-340.7 1502.14,-350.99 1510.51,-344.5 1504.63,-340.7"/>
</g>
<!-- Node27&#45;&gt;Node25 -->
<g id="edge32" class="edge">
<title>Node27&#45;&gt;Node25</title>
<path fill="none" stroke="midnightblue" d="M1485.51,-340.9C1481.36,-299.43 1479.04,-222.87 1508.5,-167 1517.54,-149.86 1533.58,-135.63 1548.42,-125.18"/>
<polygon fill="midnightblue" stroke="midnightblue" points="1482.04,-341.34 1486.62,-350.89 1489,-340.57 1482.04,-341.34"/>
</g>
<!-- Node28 -->
<g id="node28" class="node">
<title>Node28</title>
<g id="a_node28"><a xlink:href="_window_8cpp.html" target="_top" xlink:title=" ">
<polygon fill="none" stroke="black" points="1872,-84 1872,-125 2023,-125 2023,-84 1872,-84"/>
<text text-anchor="start" x="1880" y="-113" font-family="Helvetica,sans-Serif" font-size="10.00">/home/tomek/CLionProjects</text>
<text text-anchor="start" x="1880" y="-102" font-family="Helvetica,sans-Serif" font-size="10.00">/proi/proi&#45;projekt/src</text>
<text text-anchor="middle" x="1947.5" y="-91" font-family="Helvetica,sans-Serif" font-size="10.00">/graphic&#45;lib/Window.cpp</text>
</a>
</g>
</g>
<!-- Node27&#45;&gt;Node28 -->
<g id="edge33" class="edge">
<title>Node27&#45;&gt;Node28</title>
<path fill="none" stroke="midnightblue" d="M1579.91,-363.15C1663.59,-354.66 1780.22,-337.99 1815.5,-309 1868.05,-265.83 1832.28,-221.84 1872.5,-167 1884.55,-150.57 1901.96,-135.93 1916.98,-125.06"/>
<polygon fill="midnightblue" stroke="midnightblue" points="1579.48,-359.68 1569.88,-364.15 1580.17,-366.64 1579.48,-359.68"/>
</g>
<!-- Node29 -->
<g id="node29" class="node">
<title>Node29</title>
<g id="a_node29"><a xlink:href="_active_state_graphic_8h.html" target="_top" xlink:title=" ">
<polygon fill="none" stroke="black" points="1948,-256.5 1948,-308.5 2117,-308.5 2117,-256.5 1948,-256.5"/>
<text text-anchor="start" x="1956" y="-296.5" font-family="Helvetica,sans-Serif" font-size="10.00">/home/tomek/CLionProjects</text>
<text text-anchor="start" x="1956" y="-285.5" font-family="Helvetica,sans-Serif" font-size="10.00">/proi/proi&#45;projekt/src</text>
<text text-anchor="start" x="1956" y="-274.5" font-family="Helvetica,sans-Serif" font-size="10.00">/graphic&#45;lib/include/ActiveState</text>
<text text-anchor="middle" x="2032.5" y="-263.5" font-family="Helvetica,sans-Serif" font-size="10.00">_dir/ActiveStateGraphic.h</text>
</a>
</g>
</g>
<!-- Node27&#45;&gt;Node29 -->
<g id="edge34" class="edge">
<title>Node27&#45;&gt;Node29</title>
<path fill="none" stroke="midnightblue" d="M1579.62,-356.06C1681.91,-339.67 1847.49,-313.14 1947.57,-297.11"/>
<polygon fill="midnightblue" stroke="midnightblue" points="1578.94,-352.62 1569.62,-357.66 1580.05,-359.54 1578.94,-352.62"/>
</g>
<!-- Node35 -->
<g id="node35" class="node">
<title>Node35</title>
<g id="a_node35"><a xlink:href="_static_graphic_8h.html" target="_top" xlink:title=" ">
<polygon fill="none" stroke="black" points="1636,-256.5 1636,-308.5 1807,-308.5 1807,-256.5 1636,-256.5"/>
<text text-anchor="start" x="1644" y="-296.5" font-family="Helvetica,sans-Serif" font-size="10.00">/home/tomek/CLionProjects</text>
<text text-anchor="start" x="1644" y="-285.5" font-family="Helvetica,sans-Serif" font-size="10.00">/proi/proi&#45;projekt/src</text>
<text text-anchor="start" x="1644" y="-274.5" font-family="Helvetica,sans-Serif" font-size="10.00">/graphic&#45;lib/include/StaticStates</text>
<text text-anchor="middle" x="1721.5" y="-263.5" font-family="Helvetica,sans-Serif" font-size="10.00">_dir/StaticGraphic.h</text>
</a>
</g>
</g>
<!-- Node27&#45;&gt;Node35 -->
<g id="edge49" class="edge">
<title>Node27&#45;&gt;Node35</title>
<path fill="none" stroke="midnightblue" d="M1551.22,-347.36C1583.09,-335.4 1622.02,-320.81 1654.61,-308.58"/>
<polygon fill="midnightblue" stroke="midnightblue" points="1549.7,-344.19 1541.57,-350.98 1552.16,-350.74 1549.7,-344.19"/>
</g>
<!-- Node30 -->
<g id="node30" class="node">
<title>Node30</title>
<g id="a_node30"><a xlink:href="_active_state_graphic_8cpp.html" target="_top" xlink:title=" ">
<polygon fill="none" stroke="black" points="2041.5,-84 2041.5,-125 2229.5,-125 2229.5,-84 2041.5,-84"/>
<text text-anchor="start" x="2049.5" y="-113" font-family="Helvetica,sans-Serif" font-size="10.00">/home/tomek/CLionProjects</text>
<text text-anchor="start" x="2049.5" y="-102" font-family="Helvetica,sans-Serif" font-size="10.00">/proi/proi&#45;projekt/src</text>
<text text-anchor="middle" x="2135.5" y="-91" font-family="Helvetica,sans-Serif" font-size="10.00">/graphic&#45;lib/ActiveStateGraphic.cpp</text>
</a>
</g>
</g>
<!-- Node29&#45;&gt;Node30 -->
<g id="edge35" class="edge">
<title>Node29&#45;&gt;Node30</title>
<path fill="none" stroke="midnightblue" d="M2052.39,-247.51C2073.65,-211.18 2106.63,-154.84 2123.96,-125.22"/>
<polygon fill="midnightblue" stroke="midnightblue" points="2049.29,-245.88 2047.26,-256.28 2055.33,-249.42 2049.29,-245.88"/>
</g>
<!-- Node31 -->
<g id="node31" class="node">
<title>Node31</title>
<g id="a_node31"><a xlink:href="_board_graphic_8h.html" target="_top" xlink:title=" ">
<polygon fill="none" stroke="black" points="1882,-167.5 1882,-219.5 2051,-219.5 2051,-167.5 1882,-167.5"/>
<text text-anchor="start" x="1890" y="-207.5" font-family="Helvetica,sans-Serif" font-size="10.00">/home/tomek/CLionProjects</text>
<text text-anchor="start" x="1890" y="-196.5" font-family="Helvetica,sans-Serif" font-size="10.00">/proi/proi&#45;projekt/src</text>
<text text-anchor="start" x="1890" y="-185.5" font-family="Helvetica,sans-Serif" font-size="10.00">/graphic&#45;lib/include/ActiveState</text>
<text text-anchor="middle" x="1966.5" y="-174.5" font-family="Helvetica,sans-Serif" font-size="10.00">_dir/Borad_dir/BoardGraphic.h</text>
</a>
</g>
</g>
<!-- Node29&#45;&gt;Node31 -->
<g id="edge36" class="edge">
<title>Node29&#45;&gt;Node31</title>
<path fill="none" stroke="midnightblue" d="M2007.25,-248.22C2000.04,-238.72 1992.32,-228.53 1985.55,-219.61"/>
<polygon fill="midnightblue" stroke="midnightblue" points="2004.58,-250.48 2013.41,-256.34 2010.15,-246.25 2004.58,-250.48"/>
</g>
<!-- Node32 -->
<g id="node32" class="node">
<title>Node32</title>
<g id="a_node32"><a xlink:href="_frame_graphic_8h.html" target="_top" xlink:title=" ">
<polygon fill="none" stroke="black" points="2258,-167.5 2258,-219.5 2427,-219.5 2427,-167.5 2258,-167.5"/>
<text text-anchor="start" x="2266" y="-207.5" font-family="Helvetica,sans-Serif" font-size="10.00">/home/tomek/CLionProjects</text>
<text text-anchor="start" x="2266" y="-196.5" font-family="Helvetica,sans-Serif" font-size="10.00">/proi/proi&#45;projekt/src</text>
<text text-anchor="start" x="2266" y="-185.5" font-family="Helvetica,sans-Serif" font-size="10.00">/graphic&#45;lib/include/ActiveState</text>
<text text-anchor="middle" x="2342.5" y="-174.5" font-family="Helvetica,sans-Serif" font-size="10.00">_dir/Frame_dir/FrameGraphic.h</text>
</a>
</g>
</g>
<!-- Node29&#45;&gt;Node32 -->
<g id="edge40" class="edge">
<title>Node29&#45;&gt;Node32</title>
<path fill="none" stroke="midnightblue" d="M2127.1,-254.95C2168.8,-243.25 2217.41,-229.61 2257.89,-218.24"/>
<polygon fill="midnightblue" stroke="midnightblue" points="2125.89,-251.65 2117.21,-257.73 2127.78,-258.39 2125.89,-251.65"/>
</g>
<!-- Node31&#45;&gt;Node4 -->
<g id="edge38" class="edge">
<title>Node31&#45;&gt;Node4</title>
<path fill="none" stroke="midnightblue" d="M1871.7,-181.92C1820.23,-176.58 1755.45,-170.51 1697.5,-167 1395.28,-148.7 634.75,-177.06 335.5,-131 326.29,-129.58 316.68,-127.5 307.33,-125.12"/>
<polygon fill="midnightblue" stroke="midnightblue" points="1871.5,-185.42 1881.81,-182.98 1872.23,-178.46 1871.5,-185.42"/>
</g>
<!-- Node31&#45;&gt;Node28 -->
<g id="edge39" class="edge">
<title>Node31&#45;&gt;Node28</title>
<path fill="none" stroke="midnightblue" d="M1958.85,-157.49C1956.44,-146.45 1953.87,-134.65 1951.78,-125.08"/>
<polygon fill="midnightblue" stroke="midnightblue" points="1955.45,-158.31 1961,-167.34 1962.29,-156.82 1955.45,-158.31"/>
</g>
<!-- Node31&#45;&gt;Node30 -->
<g id="edge37" class="edge">
<title>Node31&#45;&gt;Node30</title>
<path fill="none" stroke="midnightblue" d="M2024.46,-162.66C2048.59,-150.24 2075.94,-136.16 2097.46,-125.08"/>
<polygon fill="midnightblue" stroke="midnightblue" points="2022.67,-159.65 2015.38,-167.34 2025.87,-165.87 2022.67,-159.65"/>
</g>
<!-- Node32&#45;&gt;Node12 -->
<g id="edge46" class="edge">
<title>Node32&#45;&gt;Node12</title>
<path fill="none" stroke="midnightblue" d="M2422.11,-164C2452.29,-153.19 2486.4,-140.98 2515.61,-130.52"/>
<polygon fill="midnightblue" stroke="midnightblue" points="2420.69,-160.79 2412.46,-167.45 2423.05,-167.38 2420.69,-160.79"/>
</g>
<!-- Node32&#45;&gt;Node13 -->
<g id="edge42" class="edge">
<title>Node32&#45;&gt;Node13</title>
<path fill="none" stroke="midnightblue" d="M2412.43,-161.91C2425.09,-153.54 2436.96,-143.3 2445.5,-131 2464.16,-104.14 2466.85,-64.88 2466.56,-41.54"/>
<polygon fill="midnightblue" stroke="midnightblue" points="2410.23,-159.16 2403.58,-167.41 2413.92,-165.11 2410.23,-159.16"/>
</g>
<!-- Node32&#45;&gt;Node30 -->
<g id="edge41" class="edge">
<title>Node32&#45;&gt;Node30</title>
<path fill="none" stroke="midnightblue" d="M2273.35,-163.43C2243.39,-150.84 2209.1,-136.43 2182.21,-125.13"/>
<polygon fill="midnightblue" stroke="midnightblue" points="2272.33,-166.8 2282.9,-167.45 2275.04,-160.35 2272.33,-166.8"/>
</g>
<!-- Node33 -->
<g id="node33" class="node">
<title>Node33</title>
<g id="a_node33"><a xlink:href="_bare_frame_graphic_8h.html" target="_top" xlink:title=" ">
<polygon fill="none" stroke="black" points="2248,-78.5 2248,-130.5 2437,-130.5 2437,-78.5 2248,-78.5"/>
<text text-anchor="start" x="2256" y="-118.5" font-family="Helvetica,sans-Serif" font-size="10.00">/home/tomek/CLionProjects</text>
<text text-anchor="start" x="2256" y="-107.5" font-family="Helvetica,sans-Serif" font-size="10.00">/proi/proi&#45;projekt/src</text>
<text text-anchor="start" x="2256" y="-96.5" font-family="Helvetica,sans-Serif" font-size="10.00">/graphic&#45;lib/include/ActiveState</text>
<text text-anchor="middle" x="2342.5" y="-85.5" font-family="Helvetica,sans-Serif" font-size="10.00">_dir/Frame_dir/BareFrameGraphic.h</text>
</a>
</g>
</g>
<!-- Node32&#45;&gt;Node33 -->
<g id="edge43" class="edge">
<title>Node32&#45;&gt;Node33</title>
<path fill="none" stroke="midnightblue" d="M2342.5,-157.19C2342.5,-148.28 2342.5,-138.9 2342.5,-130.61"/>
<polygon fill="midnightblue" stroke="midnightblue" points="2339,-157.34 2342.5,-167.34 2346,-157.34 2339,-157.34"/>
</g>
<!-- Node33&#45;&gt;Node13 -->
<g id="edge45" class="edge">
<title>Node33&#45;&gt;Node13</title>
<path fill="none" stroke="midnightblue" d="M2388.94,-72.73C2404.62,-62.34 2421.69,-51.03 2435.72,-41.73"/>
<polygon fill="midnightblue" stroke="midnightblue" points="2386.81,-69.94 2380.41,-78.38 2390.68,-75.78 2386.81,-69.94"/>
</g>
<!-- Node34 -->
<g id="node34" class="node">
<title>Node34</title>
<g id="a_node34"><a xlink:href="_bare_frame_graphic_8cpp.html" target="_top" xlink:title=" ">
<polygon fill="none" stroke="black" points="2181,-0.5 2181,-41.5 2366,-41.5 2366,-0.5 2181,-0.5"/>
<text text-anchor="start" x="2189" y="-29.5" font-family="Helvetica,sans-Serif" font-size="10.00">/home/tomek/CLionProjects</text>
<text text-anchor="start" x="2189" y="-18.5" font-family="Helvetica,sans-Serif" font-size="10.00">/proi/proi&#45;projekt/src</text>
<text text-anchor="middle" x="2273.5" y="-7.5" font-family="Helvetica,sans-Serif" font-size="10.00">/graphic&#45;lib/BareFrameGraphic.cpp</text>
</a>
</g>
</g>
<!-- Node33&#45;&gt;Node34 -->
<g id="edge44" class="edge">
<title>Node33&#45;&gt;Node34</title>
<path fill="none" stroke="midnightblue" d="M2314.55,-70.48C2306.26,-60.69 2297.44,-50.28 2290.12,-41.63"/>
<polygon fill="midnightblue" stroke="midnightblue" points="2311.91,-72.79 2321.05,-78.16 2317.26,-68.27 2311.91,-72.79"/>
</g>
<!-- Node35&#45;&gt;Node24 -->
<g id="edge52" class="edge">
<title>Node35&#45;&gt;Node24</title>
<path fill="none" stroke="midnightblue" d="M1679.07,-250.22C1665.43,-240.16 1650.51,-229.16 1637.55,-219.61"/>
<polygon fill="midnightblue" stroke="midnightblue" points="1677.24,-253.22 1687.37,-256.34 1681.4,-247.58 1677.24,-253.22"/>
</g>
<!-- Node35&#45;&gt;Node26 -->
<g id="edge50" class="edge">
<title>Node35&#45;&gt;Node26</title>
<path fill="none" stroke="midnightblue" d="M1731.82,-246.58C1742.56,-210.23 1759,-154.59 1767.67,-125.22"/>
<polygon fill="midnightblue" stroke="midnightblue" points="1728.43,-245.7 1728.95,-256.28 1735.14,-247.69 1728.43,-245.7"/>
</g>
<!-- Node35&#45;&gt;Node28 -->
<g id="edge51" class="edge">
<title>Node35&#45;&gt;Node28</title>
<path fill="none" stroke="midnightblue" d="M1746.23,-248.24C1765.76,-223.59 1794.77,-190.37 1825.5,-167 1847.78,-150.06 1875.44,-135.67 1898.79,-125.08"/>
<polygon fill="midnightblue" stroke="midnightblue" points="1743.37,-246.21 1739.98,-256.24 1748.89,-250.52 1743.37,-246.21"/>
</g>
</g>
</svg>
