<?xml version="1.0" encoding="UTF-8" standalone="no"?>
<!DOCTYPE svg PUBLIC "-//W3C//DTD SVG 1.1//EN"
 "http://www.w3.org/Graphics/SVG/1.1/DTD/svg11.dtd">
<!-- Generated by graphviz version 2.50.0 (0)
 -->
<!-- Title: /home/tomek/trash/battle&#45;city/src/lib/graphic&#45;lib/include/AbstractWindow.h Pages: 1 -->
<svg width="2601pt" height="484pt"
 viewBox="0.00 0.00 2600.50 484.00" xmlns="http://www.w3.org/2000/svg" xmlns:xlink="http://www.w3.org/1999/xlink">
<g id="graph0" class="graph" transform="scale(1 1) rotate(0) translate(4 480)">
<title>/home/tomek/trash/battle&#45;city/src/lib/graphic&#45;lib/include/AbstractWindow.h</title>
<!-- Node1 -->
<g id="node1" class="node">
<title>Node1</title>
<g id="a_node1"><a xlink:title=" ">
<polygon fill="#bfbfbf" stroke="black" points="667.5,-434.5 667.5,-475.5 813.5,-475.5 813.5,-434.5 667.5,-434.5"/>
<text text-anchor="start" x="675.5" y="-463.5" font-family="Helvetica,sans-Serif" font-size="10.00">/home/tomek/trash/battle</text>
<text text-anchor="start" x="675.5" y="-452.5" font-family="Helvetica,sans-Serif" font-size="10.00">&#45;city/src/lib/graphic&#45;lib</text>
<text text-anchor="middle" x="740.5" y="-441.5" font-family="Helvetica,sans-Serif" font-size="10.00">/include/AbstractWindow.h</text>
</a>
</g>
</g>
<!-- Node2 -->
<g id="node2" class="node">
<title>Node2</title>
<g id="a_node2"><a xlink:href="_abstract_window_8cpp.html" target="_top" xlink:title=" ">
<polygon fill="none" stroke="black" points="0,-351 0,-392 141,-392 141,-351 0,-351"/>
<text text-anchor="start" x="8" y="-380" font-family="Helvetica,sans-Serif" font-size="10.00">/home/tomek/trash/battle</text>
<text text-anchor="start" x="8" y="-369" font-family="Helvetica,sans-Serif" font-size="10.00">&#45;city/src/lib/graphic&#45;lib</text>
<text text-anchor="middle" x="70.5" y="-358" font-family="Helvetica,sans-Serif" font-size="10.00">/AbstractWindow.cpp</text>
</a>
</g>
</g>
<!-- Node1&#45;&gt;Node2 -->
<g id="edge1" class="edge">
<title>Node1&#45;&gt;Node2</title>
<path fill="none" stroke="midnightblue" d="M657.26,-451.81C542.08,-447.5 328.07,-434.82 149.5,-398 141.74,-396.4 133.66,-394.31 125.77,-392.01"/>
<polygon fill="midnightblue" stroke="midnightblue" points="657.3,-455.31 667.42,-452.18 657.55,-448.32 657.3,-455.31"/>
</g>
<!-- Node3 -->
<g id="node3" class="node">
<title>Node3</title>
<g id="a_node3"><a xlink:href="_bullets_graphic_8h.html" target="_top" xlink:title=" ">
<polygon fill="none" stroke="black" points="159,-345.5 159,-397.5 308,-397.5 308,-345.5 159,-345.5"/>
<text text-anchor="start" x="167" y="-385.5" font-family="Helvetica,sans-Serif" font-size="10.00">/home/tomek/trash/battle</text>
<text text-anchor="start" x="167" y="-374.5" font-family="Helvetica,sans-Serif" font-size="10.00">&#45;city/src/lib/graphic&#45;lib</text>
<text text-anchor="start" x="167" y="-363.5" font-family="Helvetica,sans-Serif" font-size="10.00">/include/ActiveState_dir</text>
<text text-anchor="middle" x="233.5" y="-352.5" font-family="Helvetica,sans-Serif" font-size="10.00">/Borad_dir/BulletsGraphic.h</text>
</a>
</g>
</g>
<!-- Node1&#45;&gt;Node3 -->
<g id="edge2" class="edge">
<title>Node1&#45;&gt;Node3</title>
<path fill="none" stroke="midnightblue" d="M657.16,-446.56C572.16,-438.11 436.75,-422.26 321.5,-398 317.14,-397.08 312.68,-396.06 308.2,-394.97"/>
<polygon fill="midnightblue" stroke="midnightblue" points="656.98,-450.06 667.27,-447.55 657.66,-443.09 656.98,-450.06"/>
</g>
<!-- Node6 -->
<g id="node6" class="node">
<title>Node6</title>
<g id="a_node6"><a xlink:href="_eagle_graphic_8h.html" target="_top" xlink:title=" ">
<polygon fill="none" stroke="black" points="331,-345.5 331,-397.5 474,-397.5 474,-345.5 331,-345.5"/>
<text text-anchor="start" x="339" y="-385.5" font-family="Helvetica,sans-Serif" font-size="10.00">/home/tomek/trash/battle</text>
<text text-anchor="start" x="339" y="-374.5" font-family="Helvetica,sans-Serif" font-size="10.00">&#45;city/src/lib/graphic&#45;lib</text>
<text text-anchor="start" x="339" y="-363.5" font-family="Helvetica,sans-Serif" font-size="10.00">/include/ActiveState_dir</text>
<text text-anchor="middle" x="402.5" y="-352.5" font-family="Helvetica,sans-Serif" font-size="10.00">/Borad_dir/EagleGraphic.h</text>
</a>
</g>
</g>
<!-- Node1&#45;&gt;Node6 -->
<g id="edge5" class="edge">
<title>Node1&#45;&gt;Node6</title>
<path fill="none" stroke="midnightblue" d="M657.54,-438.08C606.72,-427.81 540.51,-413.5 482.5,-398 479.82,-397.28 477.1,-396.54 474.36,-395.76"/>
<polygon fill="midnightblue" stroke="midnightblue" points="657,-441.54 667.49,-440.08 658.38,-434.67 657,-441.54"/>
</g>
<!-- Node8 -->
<g id="node8" class="node">
<title>Node8</title>
<g id="a_node8"><a xlink:href="_tanks_graphic_8h.html" target="_top" xlink:title=" ">
<polygon fill="none" stroke="black" points="669,-345.5 669,-397.5 812,-397.5 812,-345.5 669,-345.5"/>
<text text-anchor="start" x="677" y="-385.5" font-family="Helvetica,sans-Serif" font-size="10.00">/home/tomek/trash/battle</text>
<text text-anchor="start" x="677" y="-374.5" font-family="Helvetica,sans-Serif" font-size="10.00">&#45;city/src/lib/graphic&#45;lib</text>
<text text-anchor="start" x="677" y="-363.5" font-family="Helvetica,sans-Serif" font-size="10.00">/include/ActiveState_dir</text>
<text text-anchor="middle" x="740.5" y="-352.5" font-family="Helvetica,sans-Serif" font-size="10.00">/Borad_dir/TanksGraphic.h</text>
</a>
</g>
</g>
<!-- Node1&#45;&gt;Node8 -->
<g id="edge8" class="edge">
<title>Node1&#45;&gt;Node8</title>
<path fill="none" stroke="midnightblue" d="M740.5,-424.12C740.5,-415.41 740.5,-405.99 740.5,-397.61"/>
<polygon fill="midnightblue" stroke="midnightblue" points="737,-424.27 740.5,-434.27 744,-424.27 737,-424.27"/>
</g>
<!-- Node10 -->
<g id="node10" class="node">
<title>Node10</title>
<g id="a_node10"><a xlink:href="_tiles_graphic_8h.html" target="_top" xlink:title=" ">
<polygon fill="none" stroke="black" points="492,-345.5 492,-397.5 633,-397.5 633,-345.5 492,-345.5"/>
<text text-anchor="start" x="500" y="-385.5" font-family="Helvetica,sans-Serif" font-size="10.00">/home/tomek/trash/battle</text>
<text text-anchor="start" x="500" y="-374.5" font-family="Helvetica,sans-Serif" font-size="10.00">&#45;city/src/lib/graphic&#45;lib</text>
<text text-anchor="start" x="500" y="-363.5" font-family="Helvetica,sans-Serif" font-size="10.00">/include/ActiveState_dir</text>
<text text-anchor="middle" x="562.5" y="-352.5" font-family="Helvetica,sans-Serif" font-size="10.00">/Borad_dir/TilesGraphic.h</text>
</a>
</g>
</g>
<!-- Node1&#45;&gt;Node10 -->
<g id="edge11" class="edge">
<title>Node1&#45;&gt;Node10</title>
<path fill="none" stroke="midnightblue" d="M688.53,-430.2C666.14,-419.95 639.95,-407.96 617.27,-397.58"/>
<polygon fill="midnightblue" stroke="midnightblue" points="687.32,-433.5 697.86,-434.48 690.23,-427.13 687.32,-433.5"/>
</g>
<!-- Node12 -->
<g id="node12" class="node">
<title>Node12</title>
<g id="a_node12"><a xlink:href="_game_info_graphic_8h.html" target="_top" xlink:title=" ">
<polygon fill="none" stroke="black" points="603.5,-78.5 603.5,-130.5 769.5,-130.5 769.5,-78.5 603.5,-78.5"/>
<text text-anchor="start" x="611.5" y="-118.5" font-family="Helvetica,sans-Serif" font-size="10.00">/home/tomek/trash/battle</text>
<text text-anchor="start" x="611.5" y="-107.5" font-family="Helvetica,sans-Serif" font-size="10.00">&#45;city/src/lib/graphic&#45;lib</text>
<text text-anchor="start" x="611.5" y="-96.5" font-family="Helvetica,sans-Serif" font-size="10.00">/include/ActiveState_dir</text>
<text text-anchor="middle" x="686.5" y="-85.5" font-family="Helvetica,sans-Serif" font-size="10.00">/Frame_dir/GameInfoGraphic.h</text>
</a>
</g>
</g>
<!-- Node1&#45;&gt;Node12 -->
<g id="edge14" class="edge">
<title>Node1&#45;&gt;Node12</title>
<path fill="none" stroke="midnightblue" d="M791.87,-428.91C803.34,-420.73 814.01,-410.46 820.5,-398 832.44,-375.08 812.14,-262.17 809.5,-256 787.87,-205.43 743.92,-158.24 714.84,-130.63"/>
<polygon fill="midnightblue" stroke="midnightblue" points="789.83,-426.06 783.43,-434.5 793.7,-431.89 789.83,-426.06"/>
</g>
<!-- Node15 -->
<g id="node15" class="node">
<title>Node15</title>
<g id="a_node15"><a xlink:href="_graphic_event_handler_8h.html" target="_top" xlink:title=" ">
<polygon fill="none" stroke="black" points="1656.5,-262 1656.5,-303 1826.5,-303 1826.5,-262 1656.5,-262"/>
<text text-anchor="start" x="1664.5" y="-291" font-family="Helvetica,sans-Serif" font-size="10.00">/home/tomek/trash/battle</text>
<text text-anchor="start" x="1664.5" y="-280" font-family="Helvetica,sans-Serif" font-size="10.00">&#45;city/src/lib/graphic&#45;lib</text>
<text text-anchor="middle" x="1741.5" y="-269" font-family="Helvetica,sans-Serif" font-size="10.00">/include/GraphicEventHandler.h</text>
</a>
</g>
</g>
<!-- Node1&#45;&gt;Node15 -->
<g id="edge17" class="edge">
<title>Node1&#45;&gt;Node15</title>
<path fill="none" stroke="midnightblue" d="M823.8,-452.2C1031.23,-447.23 1559.42,-431.42 1631.5,-398 1676.02,-377.36 1711.81,-330.07 1729.49,-303.16"/>
<polygon fill="midnightblue" stroke="midnightblue" points="823.49,-448.7 813.57,-452.44 823.65,-455.7 823.49,-448.7"/>
</g>
<!-- Node24 -->
<g id="node24" class="node">
<title>Node24</title>
<g id="a_node24"><a xlink:href="_menu_state_graphic_8h.html" target="_top" xlink:title=" ">
<polygon fill="none" stroke="black" points="1383,-167.5 1383,-219.5 1524,-219.5 1524,-167.5 1383,-167.5"/>
<text text-anchor="start" x="1391" y="-207.5" font-family="Helvetica,sans-Serif" font-size="10.00">/home/tomek/trash/battle</text>
<text text-anchor="start" x="1391" y="-196.5" font-family="Helvetica,sans-Serif" font-size="10.00">&#45;city/src/lib/graphic&#45;lib</text>
<text text-anchor="start" x="1391" y="-185.5" font-family="Helvetica,sans-Serif" font-size="10.00">/include/StaticStates_dir</text>
<text text-anchor="middle" x="1453.5" y="-174.5" font-family="Helvetica,sans-Serif" font-size="10.00">/MenuStateGraphic.h</text>
</a>
</g>
</g>
<!-- Node1&#45;&gt;Node24 -->
<g id="edge26" class="edge">
<title>Node1&#45;&gt;Node24</title>
<path fill="none" stroke="midnightblue" d="M823.62,-448.06C988.85,-434.49 1349.85,-395.49 1433.5,-309 1456.23,-285.5 1458.2,-245.89 1456.58,-219.97"/>
<polygon fill="midnightblue" stroke="midnightblue" points="823.19,-444.58 813.51,-448.88 823.76,-451.56 823.19,-444.58"/>
</g>
<!-- Node27 -->
<g id="node27" class="node">
<title>Node27</title>
<g id="a_node27"><a xlink:href="_window_8h.html" target="_top" xlink:title=" ">
<polygon fill="none" stroke="black" points="1482,-351 1482,-392 1623,-392 1623,-351 1482,-351"/>
<text text-anchor="start" x="1490" y="-380" font-family="Helvetica,sans-Serif" font-size="10.00">/home/tomek/trash/battle</text>
<text text-anchor="start" x="1490" y="-369" font-family="Helvetica,sans-Serif" font-size="10.00">&#45;city/src/lib/graphic&#45;lib</text>
<text text-anchor="middle" x="1552.5" y="-358" font-family="Helvetica,sans-Serif" font-size="10.00">/include/Window.h</text>
</a>
</g>
</g>
<!-- Node1&#45;&gt;Node27 -->
<g id="edge29" class="edge">
<title>Node1&#45;&gt;Node27</title>
<path fill="none" stroke="midnightblue" d="M824,-453.37C959.97,-451.04 1237.2,-440.9 1467.5,-398 1475.83,-396.45 1484.5,-394.39 1492.99,-392.1"/>
<polygon fill="midnightblue" stroke="midnightblue" points="823.6,-449.87 813.66,-453.53 823.72,-456.87 823.6,-449.87"/>
</g>
<!-- Node4 -->
<g id="node4" class="node">
<title>Node4</title>
<g id="a_node4"><a xlink:href="_board_graphic_8cpp.html" target="_top" xlink:title=" ">
<polygon fill="none" stroke="black" points="384,-84 384,-125 525,-125 525,-84 384,-84"/>
<text text-anchor="start" x="392" y="-113" font-family="Helvetica,sans-Serif" font-size="10.00">/home/tomek/trash/battle</text>
<text text-anchor="start" x="392" y="-102" font-family="Helvetica,sans-Serif" font-size="10.00">&#45;city/src/lib/graphic&#45;lib</text>
<text text-anchor="middle" x="454.5" y="-91" font-family="Helvetica,sans-Serif" font-size="10.00">/BoardGraphic.cpp</text>
</a>
</g>
</g>
<!-- Node3&#45;&gt;Node4 -->
<g id="edge3" class="edge">
<title>Node3&#45;&gt;Node4</title>
<path fill="none" stroke="midnightblue" d="M226.86,-335.11C224.21,-311.32 224.38,-280.03 237.5,-256 273.09,-190.81 350.53,-147.86 402.61,-125.1"/>
<polygon fill="midnightblue" stroke="midnightblue" points="223.41,-335.68 228.19,-345.14 230.35,-334.76 223.41,-335.68"/>
</g>
<!-- Node5 -->
<g id="node5" class="node">
<title>Node5</title>
<g id="a_node5"><a xlink:href="_bullets_graphic_8cpp.html" target="_top" xlink:title=" ">
<polygon fill="none" stroke="black" points="49,-262 49,-303 190,-303 190,-262 49,-262"/>
<text text-anchor="start" x="57" y="-291" font-family="Helvetica,sans-Serif" font-size="10.00">/home/tomek/trash/battle</text>
<text text-anchor="start" x="57" y="-280" font-family="Helvetica,sans-Serif" font-size="10.00">&#45;city/src/lib/graphic&#45;lib</text>
<text text-anchor="middle" x="119.5" y="-269" font-family="Helvetica,sans-Serif" font-size="10.00">/BulletsGraphic.cpp</text>
</a>
</g>
</g>
<!-- Node3&#45;&gt;Node5 -->
<g id="edge4" class="edge">
<title>Node3&#45;&gt;Node5</title>
<path fill="none" stroke="midnightblue" d="M192.46,-339.18C176.67,-327.13 159.1,-313.72 145.16,-303.08"/>
<polygon fill="midnightblue" stroke="midnightblue" points="190.45,-342.05 200.53,-345.34 194.7,-336.49 190.45,-342.05"/>
</g>
<!-- Node6&#45;&gt;Node4 -->
<g id="edge6" class="edge">
<title>Node6&#45;&gt;Node4</title>
<path fill="none" stroke="midnightblue" d="M408.62,-335.44C415.8,-294.82 428.3,-225.92 440.5,-167 443.41,-152.95 447.01,-137.18 449.83,-125.12"/>
<polygon fill="midnightblue" stroke="midnightblue" points="405.15,-334.92 406.86,-345.37 412.05,-336.13 405.15,-334.92"/>
</g>
<!-- Node7 -->
<g id="node7" class="node">
<title>Node7</title>
<g id="a_node7"><a xlink:href="_eagle_graphic_8cpp.html" target="_top" xlink:title=" ">
<polygon fill="none" stroke="black" points="247,-262 247,-303 388,-303 388,-262 247,-262"/>
<text text-anchor="start" x="255" y="-291" font-family="Helvetica,sans-Serif" font-size="10.00">/home/tomek/trash/battle</text>
<text text-anchor="start" x="255" y="-280" font-family="Helvetica,sans-Serif" font-size="10.00">&#45;city/src/lib/graphic&#45;lib</text>
<text text-anchor="middle" x="317.5" y="-269" font-family="Helvetica,sans-Serif" font-size="10.00">/EagleGraphic.cpp</text>
</a>
</g>
</g>
<!-- Node6&#45;&gt;Node7 -->
<g id="edge7" class="edge">
<title>Node6&#45;&gt;Node7</title>
<path fill="none" stroke="midnightblue" d="M370.92,-338.18C359.41,-326.39 346.74,-313.43 336.63,-303.08"/>
<polygon fill="midnightblue" stroke="midnightblue" points="368.42,-340.63 377.91,-345.34 373.43,-335.74 368.42,-340.63"/>
</g>
<!-- Node8&#45;&gt;Node4 -->
<g id="edge9" class="edge">
<title>Node8&#45;&gt;Node4</title>
<path fill="none" stroke="midnightblue" d="M774.84,-337.43C781.65,-328.88 787.83,-319.18 791.5,-309 799.49,-286.84 804.32,-275.76 791.5,-256 760.29,-207.89 607.97,-153.48 519.15,-125.1"/>
<polygon fill="midnightblue" stroke="midnightblue" points="772,-335.37 768.18,-345.26 777.33,-339.91 772,-335.37"/>
</g>
<!-- Node9 -->
<g id="node9" class="node">
<title>Node9</title>
<g id="a_node9"><a xlink:href="_tanks_graphic_8cpp.html" target="_top" xlink:title=" ">
<polygon fill="none" stroke="black" points="642,-262 642,-303 783,-303 783,-262 642,-262"/>
<text text-anchor="start" x="650" y="-291" font-family="Helvetica,sans-Serif" font-size="10.00">/home/tomek/trash/battle</text>
<text text-anchor="start" x="650" y="-280" font-family="Helvetica,sans-Serif" font-size="10.00">&#45;city/src/lib/graphic&#45;lib</text>
<text text-anchor="middle" x="712.5" y="-269" font-family="Helvetica,sans-Serif" font-size="10.00">/TanksGraphic.cpp</text>
</a>
</g>
</g>
<!-- Node8&#45;&gt;Node9 -->
<g id="edge10" class="edge">
<title>Node8&#45;&gt;Node9</title>
<path fill="none" stroke="midnightblue" d="M729.23,-335.49C725.68,-324.45 721.88,-312.65 718.8,-303.08"/>
<polygon fill="midnightblue" stroke="midnightblue" points="726.01,-336.89 732.4,-345.34 732.67,-334.74 726.01,-336.89"/>
</g>
<!-- Node10&#45;&gt;Node4 -->
<g id="edge12" class="edge">
<title>Node10&#45;&gt;Node4</title>
<path fill="none" stroke="midnightblue" d="M502.17,-339.64C490.93,-331.2 480.52,-321 473.5,-309 438.72,-249.59 445.74,-163.36 451.18,-125.07"/>
<polygon fill="midnightblue" stroke="midnightblue" points="500.28,-342.59 510.47,-345.48 504.3,-336.86 500.28,-342.59"/>
</g>
<!-- Node11 -->
<g id="node11" class="node">
<title>Node11</title>
<g id="a_node11"><a xlink:href="_tiles_graphic_8cpp.html" target="_top" xlink:title=" ">
<polygon fill="none" stroke="black" points="483,-262 483,-303 624,-303 624,-262 483,-262"/>
<text text-anchor="start" x="491" y="-291" font-family="Helvetica,sans-Serif" font-size="10.00">/home/tomek/trash/battle</text>
<text text-anchor="start" x="491" y="-280" font-family="Helvetica,sans-Serif" font-size="10.00">&#45;city/src/lib/graphic&#45;lib</text>
<text text-anchor="middle" x="553.5" y="-269" font-family="Helvetica,sans-Serif" font-size="10.00">/TilesGraphic.cpp</text>
</a>
</g>
</g>
<!-- Node10&#45;&gt;Node11 -->
<g id="edge13" class="edge">
<title>Node10&#45;&gt;Node11</title>
<path fill="none" stroke="midnightblue" d="M558.84,-335.16C557.71,-324.21 556.51,-312.55 555.53,-303.08"/>
<polygon fill="midnightblue" stroke="midnightblue" points="555.39,-335.75 559.9,-345.34 562.35,-335.03 555.39,-335.75"/>
</g>
<!-- Node13 -->
<g id="node13" class="node">
<title>Node13</title>
<g id="a_node13"><a xlink:href="_frame_graphic_8cpp.html" target="_top" xlink:title=" ">
<polygon fill="none" stroke="black" points="727,-0.5 727,-41.5 868,-41.5 868,-0.5 727,-0.5"/>
<text text-anchor="start" x="735" y="-29.5" font-family="Helvetica,sans-Serif" font-size="10.00">/home/tomek/trash/battle</text>
<text text-anchor="start" x="735" y="-18.5" font-family="Helvetica,sans-Serif" font-size="10.00">&#45;city/src/lib/graphic&#45;lib</text>
<text text-anchor="middle" x="797.5" y="-7.5" font-family="Helvetica,sans-Serif" font-size="10.00">/FrameGraphic.cpp</text>
</a>
</g>
</g>
<!-- Node12&#45;&gt;Node13 -->
<g id="edge15" class="edge">
<title>Node12&#45;&gt;Node13</title>
<path fill="none" stroke="midnightblue" d="M728.81,-72.44C742.84,-62.13 758.08,-50.95 770.62,-41.73"/>
<polygon fill="midnightblue" stroke="midnightblue" points="726.7,-69.64 720.71,-78.38 730.84,-75.29 726.7,-69.64"/>
</g>
<!-- Node14 -->
<g id="node14" class="node">
<title>Node14</title>
<g id="a_node14"><a xlink:href="_game_info_graphic_8cpp.html" target="_top" xlink:title=" ">
<polygon fill="none" stroke="black" points="568,-0.5 568,-41.5 709,-41.5 709,-0.5 568,-0.5"/>
<text text-anchor="start" x="576" y="-29.5" font-family="Helvetica,sans-Serif" font-size="10.00">/home/tomek/trash/battle</text>
<text text-anchor="start" x="576" y="-18.5" font-family="Helvetica,sans-Serif" font-size="10.00">&#45;city/src/lib/graphic&#45;lib</text>
<text text-anchor="middle" x="638.5" y="-7.5" font-family="Helvetica,sans-Serif" font-size="10.00">/GameInfoGraphic.cpp</text>
</a>
</g>
</g>
<!-- Node12&#45;&gt;Node14 -->
<g id="edge16" class="edge">
<title>Node12&#45;&gt;Node14</title>
<path fill="none" stroke="midnightblue" d="M666.37,-69.32C660.8,-59.87 654.96,-49.94 650.06,-41.63"/>
<polygon fill="midnightblue" stroke="midnightblue" points="663.48,-71.32 671.58,-78.16 669.52,-67.77 663.48,-71.32"/>
</g>
<!-- Node16 -->
<g id="node16" class="node">
<title>Node16</title>
<g id="a_node16"><a xlink:href="_game_8h.html" target="_top" xlink:title=" ">
<polygon fill="none" stroke="black" points="1835,-173 1835,-214 1976,-214 1976,-173 1835,-173"/>
<text text-anchor="start" x="1843" y="-202" font-family="Helvetica,sans-Serif" font-size="10.00">/home/tomek/trash/battle</text>
<text text-anchor="start" x="1843" y="-191" font-family="Helvetica,sans-Serif" font-size="10.00">&#45;city/src/lib/game&#45;lib</text>
<text text-anchor="middle" x="1905.5" y="-180" font-family="Helvetica,sans-Serif" font-size="10.00">/include/Game.h</text>
</a>
</g>
</g>
<!-- Node15&#45;&gt;Node16 -->
<g id="edge18" class="edge">
<title>Node15&#45;&gt;Node16</title>
<path fill="none" stroke="midnightblue" d="M1787.45,-257.12C1813.06,-243.54 1844.53,-226.84 1868.53,-214.11"/>
<polygon fill="midnightblue" stroke="midnightblue" points="1785.5,-254.2 1778.3,-261.98 1788.78,-260.38 1785.5,-254.2"/>
</g>
<!-- Node23 -->
<g id="node23" class="node">
<title>Node23</title>
<g id="a_node23"><a xlink:href="_graphic_event_handler_8cpp.html" target="_top" xlink:title=" ">
<polygon fill="none" stroke="black" points="1645,-173 1645,-214 1788,-214 1788,-173 1645,-173"/>
<text text-anchor="start" x="1653" y="-202" font-family="Helvetica,sans-Serif" font-size="10.00">/home/tomek/trash/battle</text>
<text text-anchor="start" x="1653" y="-191" font-family="Helvetica,sans-Serif" font-size="10.00">&#45;city/src/lib/graphic&#45;lib</text>
<text text-anchor="middle" x="1716.5" y="-180" font-family="Helvetica,sans-Serif" font-size="10.00">/GraphicEventHandler.cpp</text>
</a>
</g>
</g>
<!-- Node15&#45;&gt;Node23 -->
<g id="edge25" class="edge">
<title>Node15&#45;&gt;Node23</title>
<path fill="none" stroke="midnightblue" d="M1732.97,-251.81C1729.4,-239.38 1725.34,-225.27 1722.15,-214.16"/>
<polygon fill="midnightblue" stroke="midnightblue" points="1729.7,-253.11 1735.83,-261.76 1736.43,-251.18 1729.7,-253.11"/>
</g>
<!-- Node17 -->
<g id="node17" class="node">
<title>Node17</title>
<g id="a_node17"><a xlink:href="_active_event_handler_8cpp.html" target="_top" xlink:title=" ">
<polygon fill="none" stroke="black" points="2287,-84 2287,-125 2428,-125 2428,-84 2287,-84"/>
<text text-anchor="start" x="2295" y="-113" font-family="Helvetica,sans-Serif" font-size="10.00">/home/tomek/trash/battle</text>
<text text-anchor="start" x="2295" y="-102" font-family="Helvetica,sans-Serif" font-size="10.00">&#45;city/src/lib/game&#45;lib</text>
<text text-anchor="middle" x="2357.5" y="-91" font-family="Helvetica,sans-Serif" font-size="10.00">/ActiveEventHandler.cpp</text>
</a>
</g>
</g>
<!-- Node16&#45;&gt;Node17 -->
<g id="edge19" class="edge">
<title>Node16&#45;&gt;Node17</title>
<path fill="none" stroke="midnightblue" d="M1986.24,-182.72C2062.26,-172.68 2179,-155.12 2278.5,-131 2285.64,-129.27 2293.08,-127.21 2300.4,-125.04"/>
<polygon fill="midnightblue" stroke="midnightblue" points="1985.71,-179.26 1976.25,-184.03 1986.62,-186.2 1985.71,-179.26"/>
</g>
<!-- Node18 -->
<g id="node18" class="node">
<title>Node18</title>
<g id="a_node18"><a xlink:href="_finished_event_handler_8cpp.html" target="_top" xlink:title=" ">
<polygon fill="none" stroke="black" points="2446.5,-84 2446.5,-125 2592.5,-125 2592.5,-84 2446.5,-84"/>
<text text-anchor="start" x="2454.5" y="-113" font-family="Helvetica,sans-Serif" font-size="10.00">/home/tomek/trash/battle</text>
<text text-anchor="start" x="2454.5" y="-102" font-family="Helvetica,sans-Serif" font-size="10.00">&#45;city/src/lib/game&#45;lib</text>
<text text-anchor="middle" x="2519.5" y="-91" font-family="Helvetica,sans-Serif" font-size="10.00">/FinishedEventHandler.cpp</text>
</a>
</g>
</g>
<!-- Node16&#45;&gt;Node18 -->
<g id="edge20" class="edge">
<title>Node16&#45;&gt;Node18</title>
<path fill="none" stroke="midnightblue" d="M1986.52,-187.85C2091.47,-180.74 2279.7,-164.35 2437.5,-131 2445.23,-129.37 2453.28,-127.32 2461.17,-125.09"/>
<polygon fill="midnightblue" stroke="midnightblue" points="1986.06,-184.37 1976.31,-188.52 1986.52,-191.35 1986.06,-184.37"/>
</g>
<!-- Node19 -->
<g id="node19" class="node">
<title>Node19</title>
<g id="a_node19"><a xlink:href="_game_8cpp.html" target="_top" xlink:title=" ">
<polygon fill="none" stroke="black" points="1651,-84 1651,-125 1792,-125 1792,-84 1651,-84"/>
<text text-anchor="start" x="1659" y="-113" font-family="Helvetica,sans-Serif" font-size="10.00">/home/tomek/trash/battle</text>
<text text-anchor="start" x="1659" y="-102" font-family="Helvetica,sans-Serif" font-size="10.00">&#45;city/src/lib/game&#45;lib</text>
<text text-anchor="middle" x="1721.5" y="-91" font-family="Helvetica,sans-Serif" font-size="10.00">/Game.cpp</text>
</a>
</g>
</g>
<!-- Node16&#45;&gt;Node19 -->
<g id="edge21" class="edge">
<title>Node16&#45;&gt;Node19</title>
<path fill="none" stroke="midnightblue" d="M1855.08,-168.66C1826.14,-154.98 1790.26,-138.01 1762.97,-125.11"/>
<polygon fill="midnightblue" stroke="midnightblue" points="1853.67,-171.87 1864.21,-172.98 1856.66,-165.54 1853.67,-171.87"/>
</g>
<!-- Node20 -->
<g id="node20" class="node">
<title>Node20</title>
<g id="a_node20"><a xlink:href="_menu_event_handler_8cpp.html" target="_top" xlink:title=" ">
<polygon fill="none" stroke="black" points="1810,-84 1810,-125 1951,-125 1951,-84 1810,-84"/>
<text text-anchor="start" x="1818" y="-113" font-family="Helvetica,sans-Serif" font-size="10.00">/home/tomek/trash/battle</text>
<text text-anchor="start" x="1818" y="-102" font-family="Helvetica,sans-Serif" font-size="10.00">&#45;city/src/lib/game&#45;lib</text>
<text text-anchor="middle" x="1880.5" y="-91" font-family="Helvetica,sans-Serif" font-size="10.00">/MenuEventHandler.cpp</text>
</a>
</g>
</g>
<!-- Node16&#45;&gt;Node20 -->
<g id="edge22" class="edge">
<title>Node16&#45;&gt;Node20</title>
<path fill="none" stroke="midnightblue" d="M1896.97,-162.81C1893.4,-150.38 1889.34,-136.27 1886.15,-125.16"/>
<polygon fill="midnightblue" stroke="midnightblue" points="1893.7,-164.11 1899.83,-172.76 1900.43,-162.18 1893.7,-164.11"/>
</g>
<!-- Node21 -->
<g id="node21" class="node">
<title>Node21</title>
<g id="a_node21"><a xlink:href="_pause_event_handler_8cpp.html" target="_top" xlink:title=" ">
<polygon fill="none" stroke="black" points="1969,-84 1969,-125 2110,-125 2110,-84 1969,-84"/>
<text text-anchor="start" x="1977" y="-113" font-family="Helvetica,sans-Serif" font-size="10.00">/home/tomek/trash/battle</text>
<text text-anchor="start" x="1977" y="-102" font-family="Helvetica,sans-Serif" font-size="10.00">&#45;city/src/lib/game&#45;lib</text>
<text text-anchor="middle" x="2039.5" y="-91" font-family="Helvetica,sans-Serif" font-size="10.00">/PauseEventHandler.cpp</text>
</a>
</g>
</g>
<!-- Node16&#45;&gt;Node21 -->
<g id="edge23" class="edge">
<title>Node16&#45;&gt;Node21</title>
<path fill="none" stroke="midnightblue" d="M1944.12,-167.43C1964.76,-154.02 1989.82,-137.76 2009.06,-125.26"/>
<polygon fill="midnightblue" stroke="midnightblue" points="1942.05,-164.59 1935.57,-172.98 1945.87,-170.47 1942.05,-164.59"/>
</g>
<!-- Node22 -->
<g id="node22" class="node">
<title>Node22</title>
<g id="a_node22"><a xlink:href="tanks_8cpp.html" target="_top" xlink:title=" ">
<polygon fill="none" stroke="black" points="2128,-89.5 2128,-119.5 2269,-119.5 2269,-89.5 2128,-89.5"/>
<text text-anchor="start" x="2136" y="-107.5" font-family="Helvetica,sans-Serif" font-size="10.00">/home/tomek/trash/battle</text>
<text text-anchor="middle" x="2198.5" y="-96.5" font-family="Helvetica,sans-Serif" font-size="10.00">&#45;city/src/tanks.cpp</text>
</a>
</g>
</g>
<!-- Node16&#45;&gt;Node22 -->
<g id="edge24" class="edge">
<title>Node16&#45;&gt;Node22</title>
<path fill="none" stroke="midnightblue" d="M1985.32,-170.22C2025.64,-158.8 2075.26,-144.49 2119.5,-131 2131.36,-127.38 2144.16,-123.32 2155.94,-119.52"/>
<polygon fill="midnightblue" stroke="midnightblue" points="1984.21,-166.9 1975.54,-172.99 1986.12,-173.64 1984.21,-166.9"/>
</g>
<!-- Node25 -->
<g id="node25" class="node">
<title>Node25</title>
<g id="a_node25"><a xlink:href="_menu_state_graphic_8cpp.html" target="_top" xlink:title=" ">
<polygon fill="none" stroke="black" points="1492,-84 1492,-125 1633,-125 1633,-84 1492,-84"/>
<text text-anchor="start" x="1500" y="-113" font-family="Helvetica,sans-Serif" font-size="10.00">/home/tomek/trash/battle</text>
<text text-anchor="start" x="1500" y="-102" font-family="Helvetica,sans-Serif" font-size="10.00">&#45;city/src/lib/graphic&#45;lib</text>
<text text-anchor="middle" x="1562.5" y="-91" font-family="Helvetica,sans-Serif" font-size="10.00">/MenuStateGraphic.cpp</text>
</a>
</g>
</g>
<!-- Node24&#45;&gt;Node25 -->
<g id="edge27" class="edge">
<title>Node24&#45;&gt;Node25</title>
<path fill="none" stroke="midnightblue" d="M1493.16,-160.85C1508.15,-148.88 1524.76,-135.62 1537.97,-125.08"/>
<polygon fill="midnightblue" stroke="midnightblue" points="1490.66,-158.36 1485.03,-167.34 1495.03,-163.83 1490.66,-158.36"/>
</g>
<!-- Node26 -->
<g id="node26" class="node">
<title>Node26</title>
<g id="a_node26"><a xlink:href="_static_graphic_8cpp.html" target="_top" xlink:title=" ">
<polygon fill="none" stroke="black" points="1333,-84 1333,-125 1474,-125 1474,-84 1333,-84"/>
<text text-anchor="start" x="1341" y="-113" font-family="Helvetica,sans-Serif" font-size="10.00">/home/tomek/trash/battle</text>
<text text-anchor="start" x="1341" y="-102" font-family="Helvetica,sans-Serif" font-size="10.00">&#45;city/src/lib/graphic&#45;lib</text>
<text text-anchor="middle" x="1403.5" y="-91" font-family="Helvetica,sans-Serif" font-size="10.00">/StaticGraphic.cpp</text>
</a>
</g>
</g>
<!-- Node24&#45;&gt;Node26 -->
<g id="edge28" class="edge">
<title>Node24&#45;&gt;Node26</title>
<path fill="none" stroke="midnightblue" d="M1433.96,-158.51C1427.45,-147.17 1420.42,-134.94 1414.75,-125.08"/>
<polygon fill="midnightblue" stroke="midnightblue" points="1431.02,-160.41 1439.04,-167.34 1437.09,-156.92 1431.02,-160.41"/>
</g>
<!-- Node27&#45;&gt;Node15 -->
<g id="edge45" class="edge">
<title>Node27&#45;&gt;Node15</title>
<path fill="none" stroke="midnightblue" d="M1604.29,-346.66C1634.01,-332.98 1670.87,-316.01 1698.9,-303.11"/>
<polygon fill="midnightblue" stroke="midnightblue" points="1602.54,-343.61 1594.92,-350.98 1605.46,-349.97 1602.54,-343.61"/>
</g>
<!-- Node27&#45;&gt;Node16 -->
<g id="edge30" class="edge">
<title>Node27&#45;&gt;Node16</title>
<path fill="none" stroke="midnightblue" d="M1580.26,-343.55C1590.49,-333.11 1601.91,-320.84 1611.5,-309 1629.42,-286.87 1624.06,-272.17 1647.5,-256 1648.49,-255.32 1758.64,-229.2 1834.67,-211.22"/>
<polygon fill="midnightblue" stroke="midnightblue" points="1577.63,-341.23 1573.06,-350.79 1582.59,-346.16 1577.63,-341.23"/>
</g>
<!-- Node27&#45;&gt;Node23 -->
<g id="edge31" class="edge">
<title>Node27&#45;&gt;Node23</title>
<path fill="none" stroke="midnightblue" d="M1563.17,-341.39C1573.4,-316.48 1590.8,-280.83 1614.5,-256 1630.99,-238.73 1653.37,-224.52 1672.96,-214.13"/>
<polygon fill="midnightblue" stroke="midnightblue" points="1559.91,-340.1 1559.47,-350.69 1566.42,-342.69 1559.91,-340.1"/>
</g>
<!-- Node27&#45;&gt;Node24 -->
<g id="edge46" class="edge">
<title>Node27&#45;&gt;Node24</title>
<path fill="none" stroke="midnightblue" d="M1536.51,-342.07C1517.46,-308.2 1485.93,-252.16 1467.71,-219.76"/>
<polygon fill="midnightblue" stroke="midnightblue" points="1533.57,-343.99 1541.53,-350.99 1539.67,-340.56 1533.57,-343.99"/>
</g>
<!-- Node27&#45;&gt;Node25 -->
<g id="edge51" class="edge">
<title>Node27&#45;&gt;Node25</title>
<path fill="none" stroke="midnightblue" d="M1553.63,-340.48C1555.7,-285.78 1560.02,-171.31 1561.75,-125.29"/>
<polygon fill="midnightblue" stroke="midnightblue" points="1550.13,-340.46 1553.25,-350.58 1557.13,-340.72 1550.13,-340.46"/>
</g>
<!-- Node28 -->
<g id="node28" class="node">
<title>Node28</title>
<g id="a_node28"><a xlink:href="_active_state_graphic_8h.html" target="_top" xlink:title=" ">
<polygon fill="none" stroke="black" points="1035,-256.5 1035,-308.5 1176,-308.5 1176,-256.5 1035,-256.5"/>
<text text-anchor="start" x="1043" y="-296.5" font-family="Helvetica,sans-Serif" font-size="10.00">/home/tomek/trash/battle</text>
<text text-anchor="start" x="1043" y="-285.5" font-family="Helvetica,sans-Serif" font-size="10.00">&#45;city/src/lib/graphic&#45;lib</text>
<text text-anchor="start" x="1043" y="-274.5" font-family="Helvetica,sans-Serif" font-size="10.00">/include/ActiveState_dir</text>
<text text-anchor="middle" x="1105.5" y="-263.5" font-family="Helvetica,sans-Serif" font-size="10.00">/ActiveStateGraphic.h</text>
</a>
</g>
</g>
<!-- Node27&#45;&gt;Node28 -->
<g id="edge32" class="edge">
<title>Node27&#45;&gt;Node28</title>
<path fill="none" stroke="midnightblue" d="M1471.63,-354.76C1387.39,-338.36 1256.69,-312.93 1176.37,-297.29"/>
<polygon fill="midnightblue" stroke="midnightblue" points="1471.19,-358.24 1481.67,-356.71 1472.52,-351.37 1471.19,-358.24"/>
</g>
<!-- Node31 -->
<g id="node31" class="node">
<title>Node31</title>
<g id="a_node31"><a xlink:href="_window_8cpp.html" target="_top" xlink:title=" ">
<polygon fill="none" stroke="black" points="1174,-84 1174,-125 1315,-125 1315,-84 1174,-84"/>
<text text-anchor="start" x="1182" y="-113" font-family="Helvetica,sans-Serif" font-size="10.00">/home/tomek/trash/battle</text>
<text text-anchor="start" x="1182" y="-102" font-family="Helvetica,sans-Serif" font-size="10.00">&#45;city/src/lib/graphic&#45;lib</text>
<text text-anchor="middle" x="1244.5" y="-91" font-family="Helvetica,sans-Serif" font-size="10.00">/Window.cpp</text>
</a>
</g>
</g>
<!-- Node27&#45;&gt;Node31 -->
<g id="edge52" class="edge">
<title>Node27&#45;&gt;Node31</title>
<path fill="none" stroke="midnightblue" d="M1471.95,-362.78C1399.65,-354.12 1300.96,-337.42 1274.5,-309 1249.92,-282.6 1245.45,-171.16 1244.66,-125.32"/>
<polygon fill="midnightblue" stroke="midnightblue" points="1471.62,-366.27 1481.96,-363.95 1472.43,-359.31 1471.62,-366.27"/>
</g>
<!-- Node35 -->
<g id="node35" class="node">
<title>Node35</title>
<g id="a_node35"><a xlink:href="_static_graphic_8h.html" target="_top" xlink:title=" ">
<polygon fill="none" stroke="black" points="1284,-256.5 1284,-308.5 1425,-308.5 1425,-256.5 1284,-256.5"/>
<text text-anchor="start" x="1292" y="-296.5" font-family="Helvetica,sans-Serif" font-size="10.00">/home/tomek/trash/battle</text>
<text text-anchor="start" x="1292" y="-285.5" font-family="Helvetica,sans-Serif" font-size="10.00">&#45;city/src/lib/graphic&#45;lib</text>
<text text-anchor="start" x="1292" y="-274.5" font-family="Helvetica,sans-Serif" font-size="10.00">/include/StaticStates_dir</text>
<text text-anchor="middle" x="1354.5" y="-263.5" font-family="Helvetica,sans-Serif" font-size="10.00">/StaticGraphic.h</text>
</a>
</g>
</g>
<!-- Node27&#45;&gt;Node35 -->
<g id="edge47" class="edge">
<title>Node27&#45;&gt;Node35</title>
<path fill="none" stroke="midnightblue" d="M1498.77,-346.89C1471.77,-335.03 1439.04,-320.65 1411.59,-308.58"/>
<polygon fill="midnightblue" stroke="midnightblue" points="1497.5,-350.16 1508.06,-350.98 1500.32,-343.75 1497.5,-350.16"/>
</g>
<!-- Node29 -->
<g id="node29" class="node">
<title>Node29</title>
<g id="a_node29"><a xlink:href="_active_state_graphic_8cpp.html" target="_top" xlink:title=" ">
<polygon fill="none" stroke="black" points="1015,-84 1015,-125 1156,-125 1156,-84 1015,-84"/>
<text text-anchor="start" x="1023" y="-113" font-family="Helvetica,sans-Serif" font-size="10.00">/home/tomek/trash/battle</text>
<text text-anchor="start" x="1023" y="-102" font-family="Helvetica,sans-Serif" font-size="10.00">&#45;city/src/lib/graphic&#45;lib</text>
<text text-anchor="middle" x="1085.5" y="-91" font-family="Helvetica,sans-Serif" font-size="10.00">/ActiveStateGraphic.cpp</text>
</a>
</g>
</g>
<!-- Node28&#45;&gt;Node29 -->
<g id="edge33" class="edge">
<title>Node28&#45;&gt;Node29</title>
<path fill="none" stroke="midnightblue" d="M1084.84,-247.47C1080.57,-238.81 1076.71,-229.31 1074.5,-220 1066.74,-187.36 1073.9,-148.25 1079.74,-125.22"/>
<polygon fill="midnightblue" stroke="midnightblue" points="1081.82,-249.26 1089.56,-256.5 1088.02,-246.01 1081.82,-249.26"/>
</g>
<!-- Node30 -->
<g id="node30" class="node">
<title>Node30</title>
<g id="a_node30"><a xlink:href="_board_graphic_8h.html" target="_top" xlink:title=" ">
<polygon fill="none" stroke="black" points="1083.5,-167.5 1083.5,-219.5 1227.5,-219.5 1227.5,-167.5 1083.5,-167.5"/>
<text text-anchor="start" x="1091.5" y="-207.5" font-family="Helvetica,sans-Serif" font-size="10.00">/home/tomek/trash/battle</text>
<text text-anchor="start" x="1091.5" y="-196.5" font-family="Helvetica,sans-Serif" font-size="10.00">&#45;city/src/lib/graphic&#45;lib</text>
<text text-anchor="start" x="1091.5" y="-185.5" font-family="Helvetica,sans-Serif" font-size="10.00">/include/ActiveState_dir</text>
<text text-anchor="middle" x="1155.5" y="-174.5" font-family="Helvetica,sans-Serif" font-size="10.00">/Borad_dir/BoardGraphic.h</text>
</a>
</g>
</g>
<!-- Node28&#45;&gt;Node30 -->
<g id="edge34" class="edge">
<title>Node28&#45;&gt;Node30</title>
<path fill="none" stroke="midnightblue" d="M1124.96,-247.64C1130.32,-238.31 1136.05,-228.35 1141.07,-219.61"/>
<polygon fill="midnightblue" stroke="midnightblue" points="1121.91,-245.92 1119.96,-256.34 1127.98,-249.41 1121.91,-245.92"/>
</g>
<!-- Node32 -->
<g id="node32" class="node">
<title>Node32</title>
<g id="a_node32"><a xlink:href="_frame_graphic_8h.html" target="_top" xlink:title=" ">
<polygon fill="none" stroke="black" points="878,-167.5 878,-219.5 1027,-219.5 1027,-167.5 878,-167.5"/>
<text text-anchor="start" x="886" y="-207.5" font-family="Helvetica,sans-Serif" font-size="10.00">/home/tomek/trash/battle</text>
<text text-anchor="start" x="886" y="-196.5" font-family="Helvetica,sans-Serif" font-size="10.00">&#45;city/src/lib/graphic&#45;lib</text>
<text text-anchor="start" x="886" y="-185.5" font-family="Helvetica,sans-Serif" font-size="10.00">/include/ActiveState_dir</text>
<text text-anchor="middle" x="952.5" y="-174.5" font-family="Helvetica,sans-Serif" font-size="10.00">/Frame_dir/FrameGraphic.h</text>
</a>
</g>
</g>
<!-- Node28&#45;&gt;Node32 -->
<g id="edge38" class="edge">
<title>Node28&#45;&gt;Node32</title>
<path fill="none" stroke="midnightblue" d="M1052.48,-251.35C1034.27,-241 1014.09,-229.52 996.65,-219.61"/>
<polygon fill="midnightblue" stroke="midnightblue" points="1050.82,-254.44 1061.25,-256.34 1054.28,-248.35 1050.82,-254.44"/>
</g>
<!-- Node30&#45;&gt;Node4 -->
<g id="edge36" class="edge">
<title>Node30&#45;&gt;Node4</title>
<path fill="none" stroke="midnightblue" d="M1073.38,-173.6C1060.74,-171.11 1047.81,-168.8 1035.5,-167 840.92,-138.5 789.47,-156.65 594.5,-131 571.84,-128.02 547.28,-123.86 525.15,-119.77"/>
<polygon fill="midnightblue" stroke="midnightblue" points="1072.94,-177.08 1083.43,-175.62 1074.32,-170.22 1072.94,-177.08"/>
</g>
<!-- Node30&#45;&gt;Node29 -->
<g id="edge35" class="edge">
<title>Node30&#45;&gt;Node29</title>
<path fill="none" stroke="midnightblue" d="M1128.96,-159.51C1119.62,-147.9 1109.42,-135.23 1101.26,-125.08"/>
<polygon fill="midnightblue" stroke="midnightblue" points="1126.26,-161.74 1135.25,-167.34 1131.71,-157.35 1126.26,-161.74"/>
</g>
<!-- Node30&#45;&gt;Node31 -->
<g id="edge37" class="edge">
<title>Node30&#45;&gt;Node31</title>
<path fill="none" stroke="midnightblue" d="M1188.56,-160.18C1200.62,-148.39 1213.88,-135.43 1224.47,-125.08"/>
<polygon fill="midnightblue" stroke="midnightblue" points="1185.95,-157.84 1181.24,-167.34 1190.84,-162.85 1185.95,-157.84"/>
</g>
<!-- Node32&#45;&gt;Node12 -->
<g id="edge44" class="edge">
<title>Node32&#45;&gt;Node12</title>
<path fill="none" stroke="midnightblue" d="M867.89,-164.83C834.25,-153.83 795.84,-141.26 763.05,-130.54"/>
<polygon fill="midnightblue" stroke="midnightblue" points="867.1,-168.25 877.7,-168.03 869.28,-161.6 867.1,-168.25"/>
</g>
<!-- Node32&#45;&gt;Node13 -->
<g id="edge40" class="edge">
<title>Node32&#45;&gt;Node13</title>
<path fill="none" stroke="midnightblue" d="M871.86,-163.43C847.21,-153.01 824.49,-141.31 816.5,-131 796.5,-105.19 794.68,-65.59 795.72,-41.9"/>
<polygon fill="midnightblue" stroke="midnightblue" points="870.79,-166.77 881.37,-167.35 873.46,-160.3 870.79,-166.77"/>
</g>
<!-- Node32&#45;&gt;Node29 -->
<g id="edge39" class="edge">
<title>Node32&#45;&gt;Node29</title>
<path fill="none" stroke="midnightblue" d="M999.37,-161.84C1018.05,-149.62 1039,-135.92 1055.56,-125.08"/>
<polygon fill="midnightblue" stroke="midnightblue" points="997.42,-158.93 990.97,-167.34 1001.25,-164.79 997.42,-158.93"/>
</g>
<!-- Node33 -->
<g id="node33" class="node">
<title>Node33</title>
<g id="a_node33"><a xlink:href="_bare_frame_graphic_8h.html" target="_top" xlink:title=" ">
<polygon fill="none" stroke="black" points="826,-78.5 826,-130.5 997,-130.5 997,-78.5 826,-78.5"/>
<text text-anchor="start" x="834" y="-118.5" font-family="Helvetica,sans-Serif" font-size="10.00">/home/tomek/trash/battle</text>
<text text-anchor="start" x="834" y="-107.5" font-family="Helvetica,sans-Serif" font-size="10.00">&#45;city/src/lib/graphic&#45;lib</text>
<text text-anchor="start" x="834" y="-96.5" font-family="Helvetica,sans-Serif" font-size="10.00">/include/ActiveState_dir</text>
<text text-anchor="middle" x="911.5" y="-85.5" font-family="Helvetica,sans-Serif" font-size="10.00">/Frame_dir/BareFrameGraphic.h</text>
</a>
</g>
</g>
<!-- Node32&#45;&gt;Node33 -->
<g id="edge41" class="edge">
<title>Node32&#45;&gt;Node33</title>
<path fill="none" stroke="midnightblue" d="M936.27,-158.06C931.95,-148.9 927.37,-139.17 923.33,-130.61"/>
<polygon fill="midnightblue" stroke="midnightblue" points="933.21,-159.78 940.64,-167.34 939.54,-156.8 933.21,-159.78"/>
</g>
<!-- Node33&#45;&gt;Node13 -->
<g id="edge43" class="edge">
<title>Node33&#45;&gt;Node13</title>
<path fill="none" stroke="midnightblue" d="M868.05,-72.44C853.63,-62.13 837.99,-50.95 825.1,-41.73"/>
<polygon fill="midnightblue" stroke="midnightblue" points="866.2,-75.41 876.37,-78.38 870.27,-69.72 866.2,-75.41"/>
</g>
<!-- Node34 -->
<g id="node34" class="node">
<title>Node34</title>
<g id="a_node34"><a xlink:href="_bare_frame_graphic_8cpp.html" target="_top" xlink:title=" ">
<polygon fill="none" stroke="black" points="886,-0.5 886,-41.5 1027,-41.5 1027,-0.5 886,-0.5"/>
<text text-anchor="start" x="894" y="-29.5" font-family="Helvetica,sans-Serif" font-size="10.00">/home/tomek/trash/battle</text>
<text text-anchor="start" x="894" y="-18.5" font-family="Helvetica,sans-Serif" font-size="10.00">&#45;city/src/lib/graphic&#45;lib</text>
<text text-anchor="middle" x="956.5" y="-7.5" font-family="Helvetica,sans-Serif" font-size="10.00">/BareFrameGraphic.cpp</text>
</a>
</g>
</g>
<!-- Node33&#45;&gt;Node34 -->
<g id="edge42" class="edge">
<title>Node33&#45;&gt;Node34</title>
<path fill="none" stroke="midnightblue" d="M930.37,-69.32C935.59,-59.87 941.07,-49.94 945.66,-41.63"/>
<polygon fill="midnightblue" stroke="midnightblue" points="927.26,-67.71 925.49,-78.16 933.39,-71.1 927.26,-67.71"/>
</g>
<!-- Node35&#45;&gt;Node24 -->
<g id="edge48" class="edge">
<title>Node35&#45;&gt;Node24</title>
<path fill="none" stroke="midnightblue" d="M1390.74,-249.65C1402.01,-239.75 1414.26,-228.98 1424.93,-219.61"/>
<polygon fill="midnightblue" stroke="midnightblue" points="1388.34,-247.11 1383.13,-256.34 1392.96,-252.36 1388.34,-247.11"/>
</g>
<!-- Node35&#45;&gt;Node26 -->
<g id="edge49" class="edge">
<title>Node35&#45;&gt;Node26</title>
<path fill="none" stroke="midnightblue" d="M1357.66,-246.45C1360.37,-223.46 1365.21,-192.97 1373.5,-167 1378.16,-152.4 1385.74,-136.9 1392.12,-125.11"/>
<polygon fill="midnightblue" stroke="midnightblue" points="1354.17,-246.12 1356.55,-256.44 1361.13,-246.89 1354.17,-246.12"/>
</g>
<!-- Node35&#45;&gt;Node31 -->
<g id="edge50" class="edge">
<title>Node35&#45;&gt;Node31</title>
<path fill="none" stroke="midnightblue" d="M1333.26,-247.51C1310.55,-211.18 1275.34,-154.84 1256.83,-125.22"/>
<polygon fill="midnightblue" stroke="midnightblue" points="1330.47,-249.66 1338.74,-256.28 1336.41,-245.95 1330.47,-249.66"/>
</g>
</g>
</svg>
