<?xml version="1.0" encoding="UTF-8" standalone="no"?>
<!DOCTYPE svg PUBLIC "-//W3C//DTD SVG 1.1//EN"
 "http://www.w3.org/Graphics/SVG/1.1/DTD/svg11.dtd">
<!-- Generated by graphviz version 2.43.0 (0)
 -->
<!-- Title: /home/tomek/CLionProjects/proi/proi&#45;projekt/src/graphic&#45;lib/include/ActiveState_dir/ActiveStateGraphic.h Pages: 1 -->
<!--zoomable 317 -->
<svg id="main" version="1.1" xmlns="http://www.w3.org/2000/svg" xmlns:xlink="http://www.w3.org/1999/xlink" xml:space="preserve" onload="init(evt)">
<style type="text/css"><![CDATA[
.edge:hover path { stroke: red; }
.edge:hover polygon { stroke: red; fill: red; }
]]></style>
<script type="text/javascript"><![CDATA[
var edges = document.getElementsByTagName('g');
if (edges && edges.length) {
  for (var i=0;i<edges.length;i++) {
    if (edges[i].id.substr(0,4)=='edge') {
      edges[i].setAttribute('class','edge');
    }
  }
}
]]></script>
        <defs>
                <circle id="rim" cx="0" cy="0" r="7"/>
                <circle id="rim2" cx="0" cy="0" r="3.5"/>
                <g id="zoomPlus">
                        <use xlink:href="#rim" fill="#404040">
                                <set attributeName="fill" to="#808080" begin="zoomplus.mouseover" end="zoomplus.mouseout"/>
                        </use>
                        <path d="M-4,0h8M0,-4v8" fill="none" stroke="white" stroke-width="1.5" pointer-events="none"/>
                </g>
                <g id="zoomMin">
                        <use xlink:href="#rim" fill="#404040">
                                <set attributeName="fill" to="#808080" begin="zoomminus.mouseover" end="zoomminus.mouseout"/>
                        </use>
                        <path d="M-4,0h8" fill="none" stroke="white" stroke-width="1.5" pointer-events="none"/>
                </g>
                <g id="dirArrow">
                        <path fill="none" stroke="white" stroke-width="1.5" d="M0,-3.0v7 M-2.5,-0.5L0,-3.0L2.5,-0.5"/>
                </g>
               <g id="resetDef">
                       <use xlink:href="#rim2" fill="#404040">
                               <set attributeName="fill" to="#808080" begin="reset.mouseover" end="reset.mouseout"/>
                       </use>
               </g>
        </defs>

<script type="text/javascript">
var viewWidth = 1061;
var viewHeight = 317;
var sectionId = 'dynsection-1';
</script>
<script xlink:href="svgpan.js"/>
<svg id="graph" class="graph">
<g id="viewport">
<title>/home/tomek/CLionProjects/proi/proi&#45;projekt/src/graphic&#45;lib/include/ActiveState_dir/ActiveStateGraphic.h</title>
<!-- Node1 -->
<g id="node1" class="node">
<title>Node1</title>
<g id="a_node1"><a xlink:title=" ">
<polygon fill="#bfbfbf" stroke="black" points="358,-256.5 358,-308.5 527,-308.5 527,-256.5 358,-256.5"/>
<text text-anchor="start" x="366" y="-296.5" font-family="Helvetica,sans-Serif" font-size="10.00">/home/tomek/CLionProjects</text>
<text text-anchor="start" x="366" y="-285.5" font-family="Helvetica,sans-Serif" font-size="10.00">/proi/proi&#45;projekt/src</text>
<text text-anchor="start" x="366" y="-274.5" font-family="Helvetica,sans-Serif" font-size="10.00">/graphic&#45;lib/include/ActiveState</text>
<text text-anchor="middle" x="442.5" y="-263.5" font-family="Helvetica,sans-Serif" font-size="10.00">_dir/ActiveStateGraphic.h</text>
</a>
</g>
</g>
<!-- Node2 -->
<g id="node2" class="node">
<title>Node2</title>
<g id="a_node2"><a xlink:href="_active_state_graphic_8cpp.html" target="_top" xlink:title=" ">
<polygon fill="none" stroke="black" points="348.5,-84 348.5,-125 536.5,-125 536.5,-84 348.5,-84"/>
<text text-anchor="start" x="356.5" y="-113" font-family="Helvetica,sans-Serif" font-size="10.00">/home/tomek/CLionProjects</text>
<text text-anchor="start" x="356.5" y="-102" font-family="Helvetica,sans-Serif" font-size="10.00">/proi/proi&#45;projekt/src</text>
<text text-anchor="middle" x="442.5" y="-91" font-family="Helvetica,sans-Serif" font-size="10.00">/graphic&#45;lib/ActiveStateGraphic.cpp</text>
</a>
</g>
</g>
<!-- Node1&#45;&gt;Node2 -->
<g id="edge1" class="edge">
<title>Node1&#45;&gt;Node2</title>
<path fill="none" stroke="midnightblue" d="M442.5,-246.11C442.5,-209.76 442.5,-154.46 442.5,-125.22"/>
<polygon fill="midnightblue" stroke="midnightblue" points="439,-246.28 442.5,-256.28 446,-246.28 439,-246.28"/>
</g>
<!-- Node3 -->
<g id="node3" class="node">
<title>Node3</title>
<g id="a_node3"><a xlink:href="_board_graphic_8h.html" target="_top" xlink:title=" ">
<polygon fill="none" stroke="black" points="208,-167.5 208,-219.5 377,-219.5 377,-167.5 208,-167.5"/>
<text text-anchor="start" x="216" y="-207.5" font-family="Helvetica,sans-Serif" font-size="10.00">/home/tomek/CLionProjects</text>
<text text-anchor="start" x="216" y="-196.5" font-family="Helvetica,sans-Serif" font-size="10.00">/proi/proi&#45;projekt/src</text>
<text text-anchor="start" x="216" y="-185.5" font-family="Helvetica,sans-Serif" font-size="10.00">/graphic&#45;lib/include/ActiveState</text>
<text text-anchor="middle" x="292.5" y="-174.5" font-family="Helvetica,sans-Serif" font-size="10.00">_dir/Borad_dir/BoardGraphic.h</text>
</a>
</g>
</g>
<!-- Node1&#45;&gt;Node3 -->
<g id="edge2" class="edge">
<title>Node1&#45;&gt;Node3</title>
<path fill="none" stroke="midnightblue" d="M390.04,-251.07C372.31,-240.79 352.73,-229.43 335.79,-219.61"/>
<polygon fill="midnightblue" stroke="midnightblue" points="388.71,-254.35 399.11,-256.34 392.22,-248.29 388.71,-254.35"/>
</g>
<!-- Node6 -->
<g id="node6" class="node">
<title>Node6</title>
<g id="a_node6"><a xlink:href="_frame_graphic_8h.html" target="_top" xlink:title=" ">
<polygon fill="none" stroke="black" points="565,-167.5 565,-219.5 734,-219.5 734,-167.5 565,-167.5"/>
<text text-anchor="start" x="573" y="-207.5" font-family="Helvetica,sans-Serif" font-size="10.00">/home/tomek/CLionProjects</text>
<text text-anchor="start" x="573" y="-196.5" font-family="Helvetica,sans-Serif" font-size="10.00">/proi/proi&#45;projekt/src</text>
<text text-anchor="start" x="573" y="-185.5" font-family="Helvetica,sans-Serif" font-size="10.00">/graphic&#45;lib/include/ActiveState</text>
<text text-anchor="middle" x="649.5" y="-174.5" font-family="Helvetica,sans-Serif" font-size="10.00">_dir/Frame_dir/FrameGraphic.h</text>
</a>
</g>
</g>
<!-- Node1&#45;&gt;Node6 -->
<g id="edge6" class="edge">
<title>Node1&#45;&gt;Node6</title>
<path fill="none" stroke="midnightblue" d="M511.32,-252.58C536.78,-241.88 565.4,-229.85 589.97,-219.52"/>
<polygon fill="midnightblue" stroke="midnightblue" points="509.96,-249.35 502.1,-256.45 512.67,-255.8 509.96,-249.35"/>
</g>
<!-- Node3&#45;&gt;Node2 -->
<g id="edge3" class="edge">
<title>Node3&#45;&gt;Node2</title>
<path fill="none" stroke="midnightblue" d="M344.79,-162.17C366,-149.87 389.89,-136.01 408.74,-125.08"/>
<polygon fill="midnightblue" stroke="midnightblue" points="342.78,-159.29 335.89,-167.34 346.29,-165.35 342.78,-159.29"/>
</g>
<!-- Node4 -->
<g id="node4" class="node">
<title>Node4</title>
<g id="a_node4"><a xlink:href="_board_graphic_8cpp.html" target="_top" xlink:title=" ">
<polygon fill="none" stroke="black" points="0,-84 0,-125 161,-125 161,-84 0,-84"/>
<text text-anchor="start" x="8" y="-113" font-family="Helvetica,sans-Serif" font-size="10.00">/home/tomek/CLionProjects</text>
<text text-anchor="start" x="8" y="-102" font-family="Helvetica,sans-Serif" font-size="10.00">/proi/proi&#45;projekt/src</text>
<text text-anchor="middle" x="80.5" y="-91" font-family="Helvetica,sans-Serif" font-size="10.00">/graphic&#45;lib/BoardGraphic.cpp</text>
</a>
</g>
</g>
<!-- Node3&#45;&gt;Node4 -->
<g id="edge4" class="edge">
<title>Node3&#45;&gt;Node4</title>
<path fill="none" stroke="midnightblue" d="M222.07,-163.6C191.3,-150.97 156,-136.48 128.34,-125.13"/>
<polygon fill="midnightblue" stroke="midnightblue" points="220.89,-166.89 231.47,-167.45 223.54,-160.42 220.89,-166.89"/>
</g>
<!-- Node5 -->
<g id="node5" class="node">
<title>Node5</title>
<g id="a_node5"><a xlink:href="_window_8cpp.html" target="_top" xlink:title=" ">
<polygon fill="none" stroke="black" points="179,-84 179,-125 330,-125 330,-84 179,-84"/>
<text text-anchor="start" x="187" y="-113" font-family="Helvetica,sans-Serif" font-size="10.00">/home/tomek/CLionProjects</text>
<text text-anchor="start" x="187" y="-102" font-family="Helvetica,sans-Serif" font-size="10.00">/proi/proi&#45;projekt/src</text>
<text text-anchor="middle" x="254.5" y="-91" font-family="Helvetica,sans-Serif" font-size="10.00">/graphic&#45;lib/Window.cpp</text>
</a>
</g>
</g>
<!-- Node3&#45;&gt;Node5 -->
<g id="edge5" class="edge">
<title>Node3&#45;&gt;Node5</title>
<path fill="none" stroke="midnightblue" d="M277.5,-158.17C272.6,-146.93 267.32,-134.84 263.05,-125.08"/>
<polygon fill="midnightblue" stroke="midnightblue" points="274.3,-159.57 281.51,-167.34 280.71,-156.77 274.3,-159.57"/>
</g>
<!-- Node6&#45;&gt;Node2 -->
<g id="edge7" class="edge">
<title>Node6&#45;&gt;Node2</title>
<path fill="none" stroke="midnightblue" d="M580.35,-163.43C550.39,-150.84 516.1,-136.43 489.21,-125.13"/>
<polygon fill="midnightblue" stroke="midnightblue" points="579.33,-166.8 589.9,-167.45 582.04,-160.35 579.33,-166.8"/>
</g>
<!-- Node7 -->
<g id="node7" class="node">
<title>Node7</title>
<g id="a_node7"><a xlink:href="_frame_graphic_8cpp.html" target="_top" xlink:title=" ">
<polygon fill="none" stroke="black" points="691,-0.5 691,-41.5 854,-41.5 854,-0.5 691,-0.5"/>
<text text-anchor="start" x="699" y="-29.5" font-family="Helvetica,sans-Serif" font-size="10.00">/home/tomek/CLionProjects</text>
<text text-anchor="start" x="699" y="-18.5" font-family="Helvetica,sans-Serif" font-size="10.00">/proi/proi&#45;projekt/src</text>
<text text-anchor="middle" x="772.5" y="-7.5" font-family="Helvetica,sans-Serif" font-size="10.00">/graphic&#45;lib/FrameGraphic.cpp</text>
</a>
</g>
</g>
<!-- Node6&#45;&gt;Node7 -->
<g id="edge8" class="edge">
<title>Node6&#45;&gt;Node7</title>
<path fill="none" stroke="midnightblue" d="M720.04,-162.18C732.87,-153.78 744.89,-143.46 753.5,-131 772.06,-104.13 774.35,-64.88 773.79,-41.54"/>
<polygon fill="midnightblue" stroke="midnightblue" points="718.2,-159.2 711.52,-167.43 721.87,-165.16 718.2,-159.2"/>
</g>
<!-- Node8 -->
<g id="node8" class="node">
<title>Node8</title>
<g id="a_node8"><a xlink:href="_bare_frame_graphic_8h.html" target="_top" xlink:title=" ">
<polygon fill="none" stroke="black" points="555,-78.5 555,-130.5 744,-130.5 744,-78.5 555,-78.5"/>
<text text-anchor="start" x="563" y="-118.5" font-family="Helvetica,sans-Serif" font-size="10.00">/home/tomek/CLionProjects</text>
<text text-anchor="start" x="563" y="-107.5" font-family="Helvetica,sans-Serif" font-size="10.00">/proi/proi&#45;projekt/src</text>
<text text-anchor="start" x="563" y="-96.5" font-family="Helvetica,sans-Serif" font-size="10.00">/graphic&#45;lib/include/ActiveState</text>
<text text-anchor="middle" x="649.5" y="-85.5" font-family="Helvetica,sans-Serif" font-size="10.00">_dir/Frame_dir/BareFrameGraphic.h</text>
</a>
</g>
</g>
<!-- Node6&#45;&gt;Node8 -->
<g id="edge9" class="edge">
<title>Node6&#45;&gt;Node8</title>
<path fill="none" stroke="midnightblue" d="M649.5,-157.19C649.5,-148.28 649.5,-138.9 649.5,-130.61"/>
<polygon fill="midnightblue" stroke="midnightblue" points="646,-157.34 649.5,-167.34 653,-157.34 646,-157.34"/>
</g>
<!-- Node10 -->
<g id="node10" class="node">
<title>Node10</title>
<g id="a_node10"><a xlink:href="_game_info_graphic_8h.html" target="_top" xlink:title=" ">
<polygon fill="none" stroke="black" points="800.5,-78.5 800.5,-130.5 984.5,-130.5 984.5,-78.5 800.5,-78.5"/>
<text text-anchor="start" x="808.5" y="-118.5" font-family="Helvetica,sans-Serif" font-size="10.00">/home/tomek/CLionProjects</text>
<text text-anchor="start" x="808.5" y="-107.5" font-family="Helvetica,sans-Serif" font-size="10.00">/proi/proi&#45;projekt/src</text>
<text text-anchor="start" x="808.5" y="-96.5" font-family="Helvetica,sans-Serif" font-size="10.00">/graphic&#45;lib/include/ActiveState</text>
<text text-anchor="middle" x="892.5" y="-85.5" font-family="Helvetica,sans-Serif" font-size="10.00">_dir/Frame_dir/GameInfoGraphic.h</text>
</a>
</g>
</g>
<!-- Node6&#45;&gt;Node10 -->
<g id="edge12" class="edge">
<title>Node6&#45;&gt;Node10</title>
<path fill="none" stroke="midnightblue" d="M729.11,-164C759.29,-153.19 793.4,-140.98 822.61,-130.52"/>
<polygon fill="midnightblue" stroke="midnightblue" points="727.69,-160.79 719.46,-167.45 730.05,-167.38 727.69,-160.79"/>
</g>
<!-- Node8&#45;&gt;Node7 -->
<g id="edge11" class="edge">
<title>Node8&#45;&gt;Node7</title>
<path fill="none" stroke="midnightblue" d="M695.94,-72.73C711.62,-62.34 728.69,-51.03 742.72,-41.73"/>
<polygon fill="midnightblue" stroke="midnightblue" points="693.81,-69.94 687.41,-78.38 697.68,-75.78 693.81,-69.94"/>
</g>
<!-- Node9 -->
<g id="node9" class="node">
<title>Node9</title>
<g id="a_node9"><a xlink:href="_bare_frame_graphic_8cpp.html" target="_top" xlink:title=" ">
<polygon fill="none" stroke="black" points="488,-0.5 488,-41.5 673,-41.5 673,-0.5 488,-0.5"/>
<text text-anchor="start" x="496" y="-29.5" font-family="Helvetica,sans-Serif" font-size="10.00">/home/tomek/CLionProjects</text>
<text text-anchor="start" x="496" y="-18.5" font-family="Helvetica,sans-Serif" font-size="10.00">/proi/proi&#45;projekt/src</text>
<text text-anchor="middle" x="580.5" y="-7.5" font-family="Helvetica,sans-Serif" font-size="10.00">/graphic&#45;lib/BareFrameGraphic.cpp</text>
</a>
</g>
</g>
<!-- Node8&#45;&gt;Node9 -->
<g id="edge10" class="edge">
<title>Node8&#45;&gt;Node9</title>
<path fill="none" stroke="midnightblue" d="M621.55,-70.48C613.26,-60.69 604.44,-50.28 597.12,-41.63"/>
<polygon fill="midnightblue" stroke="midnightblue" points="618.91,-72.79 628.05,-78.16 624.26,-68.27 618.91,-72.79"/>
</g>
<!-- Node10&#45;&gt;Node7 -->
<g id="edge13" class="edge">
<title>Node10&#45;&gt;Node7</title>
<path fill="none" stroke="midnightblue" d="M847.19,-72.73C831.9,-62.34 815.25,-51.03 801.56,-41.73"/>
<polygon fill="midnightblue" stroke="midnightblue" points="845.28,-75.66 855.52,-78.38 849.21,-69.87 845.28,-75.66"/>
</g>
<!-- Node11 -->
<g id="node11" class="node">
<title>Node11</title>
<g id="a_node11"><a xlink:href="_game_info_graphic_8cpp.html" target="_top" xlink:title=" ">
<polygon fill="none" stroke="black" points="872.5,-0.5 872.5,-41.5 1052.5,-41.5 1052.5,-0.5 872.5,-0.5"/>
<text text-anchor="start" x="880.5" y="-29.5" font-family="Helvetica,sans-Serif" font-size="10.00">/home/tomek/CLionProjects</text>
<text text-anchor="start" x="880.5" y="-18.5" font-family="Helvetica,sans-Serif" font-size="10.00">/proi/proi&#45;projekt/src</text>
<text text-anchor="middle" x="962.5" y="-7.5" font-family="Helvetica,sans-Serif" font-size="10.00">/graphic&#45;lib/GameInfoGraphic.cpp</text>
</a>
</g>
</g>
<!-- Node10&#45;&gt;Node11 -->
<g id="edge14" class="edge">
<title>Node10&#45;&gt;Node11</title>
<path fill="none" stroke="midnightblue" d="M920.86,-70.48C929.27,-60.69 938.21,-50.28 945.64,-41.63"/>
<polygon fill="midnightblue" stroke="midnightblue" points="918.13,-68.29 914.26,-78.16 923.44,-72.85 918.13,-68.29"/>
</g>
</g>
</svg>
        <g id="navigator" transform="translate(0 0)" fill="#404254">
                <rect fill="#f2f5e9" fill-opacity="0.5" stroke="#606060" stroke-width=".5" x="0" y="0" width="60" height="60"/>
                <use id="zoomplus" xlink:href="#zoomPlus" x="17" y="9" onmousedown="handleZoom(evt,'in')"/>
                <use id="zoomminus" xlink:href="#zoomMin" x="42" y="9" onmousedown="handleZoom(evt,'out')"/>
                <use id="reset" xlink:href="#resetDef" x="30" y="36" onmousedown="handleReset()"/>
                <g id="arrowUp" xlink:href="#dirArrow" transform="translate(30 24)" onmousedown="handlePan(0,-1)">
                  <use xlink:href="#rim" fill="#404040">
                        <set attributeName="fill" to="#808080" begin="arrowUp.mouseover" end="arrowUp.mouseout"/>
                  </use>
                  <path fill="none" stroke="white" stroke-width="1.5" d="M0,-3.0v7 M-2.5,-0.5L0,-3.0L2.5,-0.5"/>
                </g>
                <g id="arrowRight" xlink:href="#dirArrow" transform="rotate(90) translate(36 -43)" onmousedown="handlePan(1,0)">
                  <use xlink:href="#rim" fill="#404040">
                        <set attributeName="fill" to="#808080" begin="arrowRight.mouseover" end="arrowRight.mouseout"/>
                  </use>
                  <path fill="none" stroke="white" stroke-width="1.5" d="M0,-3.0v7 M-2.5,-0.5L0,-3.0L2.5,-0.5"/>
                </g>
                <g id="arrowDown" xlink:href="#dirArrow" transform="rotate(180) translate(-30 -48)" onmousedown="handlePan(0,1)">
                  <use xlink:href="#rim" fill="#404040">
                        <set attributeName="fill" to="#808080" begin="arrowDown.mouseover" end="arrowDown.mouseout"/>
                  </use>
                  <path fill="none" stroke="white" stroke-width="1.5" d="M0,-3.0v7 M-2.5,-0.5L0,-3.0L2.5,-0.5"/>
                </g>
                <g id="arrowLeft" xlink:href="#dirArrow" transform="rotate(270) translate(-36 17)" onmousedown="handlePan(-1,0)">
                  <use xlink:href="#rim" fill="#404040">
                        <set attributeName="fill" to="#808080" begin="arrowLeft.mouseover" end="arrowLeft.mouseout"/>
                  </use>
                  <path fill="none" stroke="white" stroke-width="1.5" d="M0,-3.0v7 M-2.5,-0.5L0,-3.0L2.5,-0.5"/>
                </g>
        </g>
        <svg viewBox="0 0 15 15" width="100%" height="30px" preserveAspectRatio="xMaxYMin meet">
         <g id="arrow_out" transform="scale(0.3 0.3)">
          <a xlink:href="_active_state_graphic_8h__dep__incl_org.svg" target="_base">
           <rect id="button" ry="5" rx="5" y="6" x="6" height="38" width="38"
                fill="#f2f5e9" fill-opacity="0.5" stroke="#606060" stroke-width="1.0"/>
           <path id="arrow"
             d="M 11.500037,31.436501 C 11.940474,20.09759 22.043105,11.32322 32.158766,21.979434 L 37.068811,17.246167 C 37.068811,17.246167 37.088388,32 37.088388,32 L 22.160133,31.978069 C 22.160133,31.978069 26.997745,27.140456 26.997745,27.140456 C 18.528582,18.264221 13.291696,25.230495 11.500037,31.436501 z"
             style="fill:#404040;"/>
          </a>
         </g>
        </svg>
</svg>
