<?xml version="1.0" encoding="UTF-8" standalone="no"?>
<!DOCTYPE svg PUBLIC "-//W3C//DTD SVG 1.1//EN"
 "http://www.w3.org/Graphics/SVG/1.1/DTD/svg11.dtd">
<!-- Generated by graphviz version 2.43.0 (0)
 -->
<!-- Title: /home/tomek/CLionProjects/proi/proi&#45;projekt/src/graphic&#45;lib/include/ActiveState_dir/Frame_dir/BareFrameGraphic.h Pages: 1 -->
<!--zoomable 855 -->
<svg id="main" version="1.1" xmlns="http://www.w3.org/2000/svg" xmlns:xlink="http://www.w3.org/1999/xlink" xml:space="preserve" onload="init(evt)">
<style type="text/css"><![CDATA[
.edge:hover path { stroke: red; }
.edge:hover polygon { stroke: red; fill: red; }
]]></style>
<script type="text/javascript"><![CDATA[
var edges = document.getElementsByTagName('g');
if (edges && edges.length) {
  for (var i=0;i<edges.length;i++) {
    if (edges[i].id.substr(0,4)=='edge') {
      edges[i].setAttribute('class','edge');
    }
  }
}
]]></script>
        <defs>
                <circle id="rim" cx="0" cy="0" r="7"/>
                <circle id="rim2" cx="0" cy="0" r="3.5"/>
                <g id="zoomPlus">
                        <use xlink:href="#rim" target="_top" fill="#404040">
                                <set attributeName="fill" to="#808080" begin="zoomplus.mouseover" end="zoomplus.mouseout"/>
                        </use>
                        <path d="M-4,0h8M0,-4v8" fill="none" stroke="white" stroke-width="1.5" pointer-events="none"/>
                </g>
                <g id="zoomMin">
                        <use xlink:href="#rim" target="_top" fill="#404040">
                                <set attributeName="fill" to="#808080" begin="zoomminus.mouseover" end="zoomminus.mouseout"/>
                        </use>
                        <path d="M-4,0h8" fill="none" stroke="white" stroke-width="1.5" pointer-events="none"/>
                </g>
                <g id="dirArrow">
                        <path fill="none" stroke="white" stroke-width="1.5" d="M0,-3.0v7 M-2.5,-0.5L0,-3.0L2.5,-0.5"/>
                </g>
               <g id="resetDef">
                       <use xlink:href="#rim2" target="_top" fill="#404040">
                               <set attributeName="fill" to="#808080" begin="reset.mouseover" end="reset.mouseout"/>
                       </use>
               </g>
        </defs>

<script type="text/javascript">
var viewWidth = 1355;
var viewHeight = 855;
var sectionId = 'dynsection-0';
</script>
<script xlink:href="svgpan.js" target="_top"/>
<svg id="graph" class="graph">
<g id="viewport">
<title>/home/tomek/CLionProjects/proi/proi&#45;projekt/src/graphic&#45;lib/include/ActiveState_dir/Frame_dir/BareFrameGraphic.h</title>
<!-- Node1 -->
<g id="node1" class="node">
<title>Node1</title>
<g id="a_node1"><a xlink:title=" ">
<polygon fill="#bfbfbf" stroke="black" points="827.55,-794.5 827.55,-846.5 1016.55,-846.5 1016.55,-794.5 827.55,-794.5"/>
<text text-anchor="start" x="835.55" y="-834.5" font-family="Helvetica,sans-Serif" font-size="10.00">/home/tomek/CLionProjects</text>
<text text-anchor="start" x="835.55" y="-823.5" font-family="Helvetica,sans-Serif" font-size="10.00">/proi/proi&#45;projekt/src</text>
<text text-anchor="start" x="835.55" y="-812.5" font-family="Helvetica,sans-Serif" font-size="10.00">/graphic&#45;lib/include/ActiveState</text>
<text text-anchor="middle" x="922.05" y="-801.5" font-family="Helvetica,sans-Serif" font-size="10.00">_dir/Frame_dir/BareFrameGraphic.h</text>
</a>
</g>
</g>
<!-- Node2 -->
<g id="node2" class="node">
<title>Node2</title>
<g id="a_node2"><a xlink:title=" ">
<polygon fill="none" stroke="#bfbfbf" points="630.05,-503.5 630.05,-522.5 734.05,-522.5 734.05,-503.5 630.05,-503.5"/>
<text text-anchor="middle" x="682.05" y="-510.5" font-family="Helvetica,sans-Serif" font-size="10.00">SFML/System.hpp</text>
</a>
</g>
</g>
<!-- Node1&#45;&gt;Node2 -->
<g id="edge1" class="edge">
<title>Node1&#45;&gt;Node2</title>
<path fill="none" stroke="midnightblue" d="M827.43,-797.93C775.3,-779.84 721.05,-747.84 721.05,-693 721.05,-693 721.05,-693 721.05,-635 721.05,-596.55 702.99,-554.39 691.45,-531.38"/>
<polygon fill="midnightblue" stroke="midnightblue" points="694.55,-529.76 686.83,-522.5 688.34,-532.99 694.55,-529.76"/>
</g>
<!-- Node3 -->
<g id="node3" class="node">
<title>Node3</title>
<g id="a_node3"><a xlink:title=" ">
<polygon fill="none" stroke="#bfbfbf" points="867.05,-503.5 867.05,-522.5 977.05,-522.5 977.05,-503.5 867.05,-503.5"/>
<text text-anchor="middle" x="922.05" y="-510.5" font-family="Helvetica,sans-Serif" font-size="10.00">SFML/Graphics.hpp</text>
</a>
</g>
</g>
<!-- Node1&#45;&gt;Node3 -->
<g id="edge2" class="edge">
<title>Node1&#45;&gt;Node3</title>
<path fill="none" stroke="midnightblue" d="M922.05,-794.3C922.05,-768.77 922.05,-728.14 922.05,-693 922.05,-693 922.05,-693 922.05,-635 922.05,-598.71 922.05,-556.31 922.05,-532.56"/>
<polygon fill="midnightblue" stroke="midnightblue" points="925.55,-532.51 922.05,-522.51 918.55,-532.51 925.55,-532.51"/>
</g>
<!-- Node4 -->
<g id="node4" class="node">
<title>Node4</title>
<g id="a_node4"><a xlink:title=" ">
<polygon fill="none" stroke="#bfbfbf" points="470.05,-196 470.05,-215 530.05,-215 530.05,-196 470.05,-196"/>
<text text-anchor="middle" x="500.05" y="-203" font-family="Helvetica,sans-Serif" font-size="10.00">iostream</text>
</a>
</g>
</g>
<!-- Node1&#45;&gt;Node4 -->
<g id="edge3" class="edge">
<title>Node1&#45;&gt;Node4</title>
<path fill="none" stroke="midnightblue" d="M827.34,-801.11C732.98,-780.01 602.05,-741.91 602.05,-693 602.05,-693 602.05,-693 602.05,-573.5 602.05,-541.05 592.43,-534.07 583.05,-503 553.92,-406.53 533.89,-386.15 511.05,-288 506.11,-266.76 503.14,-241.85 501.56,-225.21"/>
<polygon fill="midnightblue" stroke="midnightblue" points="505.04,-224.82 500.68,-215.16 498.07,-225.43 505.04,-224.82"/>
</g>
<!-- Node5 -->
<g id="node5" class="node">
<title>Node5</title>
<g id="a_node5"><a xlink:title=" ">
<polygon fill="none" stroke="#bfbfbf" points="1209.55,-0.5 1209.55,-19.5 1256.55,-19.5 1256.55,-0.5 1209.55,-0.5"/>
<text text-anchor="middle" x="1233.05" y="-7.5" font-family="Helvetica,sans-Serif" font-size="10.00">vector</text>
</a>
</g>
</g>
<!-- Node1&#45;&gt;Node5 -->
<g id="edge4" class="edge">
<title>Node1&#45;&gt;Node5</title>
<path fill="none" stroke="midnightblue" d="M1016.63,-810.48C1141.87,-795.86 1347.05,-761.47 1347.05,-693 1347.05,-693 1347.05,-693 1347.05,-137.5 1347.05,-85.07 1292.35,-44.58 1258.73,-24.64"/>
<polygon fill="midnightblue" stroke="midnightblue" points="1260.29,-21.5 1249.87,-19.57 1256.81,-27.58 1260.29,-21.5"/>
</g>
<!-- Node6 -->
<g id="node6" class="node">
<title>Node6</title>
<g id="a_node6"><a xlink:href="_frame_graphic_8h.html" target="_top" target="_top" xlink:title=" ">
<polygon fill="none" stroke="black" points="966.05,-738.5 966.05,-757.5 1060.05,-757.5 1060.05,-738.5 966.05,-738.5"/>
<text text-anchor="middle" x="1013.05" y="-745.5" font-family="Helvetica,sans-Serif" font-size="10.00">FrameGraphic.h</text>
</a>
</g>
</g>
<!-- Node1&#45;&gt;Node6 -->
<g id="edge5" class="edge">
<title>Node1&#45;&gt;Node6</title>
<path fill="none" stroke="midnightblue" d="M954.39,-794.45C967.58,-784.23 982.38,-772.76 993.82,-763.9"/>
<polygon fill="midnightblue" stroke="midnightblue" points="996.06,-766.59 1001.82,-757.7 991.78,-761.05 996.06,-766.59"/>
</g>
<!-- Node7 -->
<g id="node7" class="node">
<title>Node7</title>
<g id="a_node7"><a xlink:href="_active_state_graphic_8h.html" target="_top" target="_top" xlink:title=" ">
<polygon fill="none" stroke="black" points="957.05,-682.5 957.05,-701.5 1085.05,-701.5 1085.05,-682.5 957.05,-682.5"/>
<text text-anchor="middle" x="1021.05" y="-689.5" font-family="Helvetica,sans-Serif" font-size="10.00">../ActiveStateGraphic.h</text>
</a>
</g>
</g>
<!-- Node6&#45;&gt;Node7 -->
<g id="edge6" class="edge">
<title>Node6&#45;&gt;Node7</title>
<path fill="none" stroke="midnightblue" d="M1014.37,-738.08C1015.43,-730.93 1016.95,-720.64 1018.28,-711.69"/>
<polygon fill="midnightblue" stroke="midnightblue" points="1021.75,-712.16 1019.75,-701.75 1014.82,-711.13 1021.75,-712.16"/>
</g>
<!-- Node8 -->
<g id="node8" class="node">
<title>Node8</title>
<g id="a_node8"><a xlink:href="_window_8h.html" target="_top" target="_top" xlink:title=" ">
<polygon fill="none" stroke="black" points="998.55,-626.5 998.55,-645.5 1071.55,-645.5 1071.55,-626.5 998.55,-626.5"/>
<text text-anchor="middle" x="1035.05" y="-633.5" font-family="Helvetica,sans-Serif" font-size="10.00">../Window.h</text>
</a>
</g>
</g>
<!-- Node7&#45;&gt;Node8 -->
<g id="edge7" class="edge">
<title>Node7&#45;&gt;Node8</title>
<path fill="none" stroke="midnightblue" d="M1023.36,-682.08C1025.22,-674.93 1027.88,-664.64 1030.2,-655.69"/>
<polygon fill="midnightblue" stroke="midnightblue" points="1033.66,-656.31 1032.78,-645.75 1026.88,-654.55 1033.66,-656.31"/>
</g>
<!-- Node9 -->
<g id="node9" class="node">
<title>Node9</title>
<g id="a_node9"><a xlink:href="_abstract_window_8h.html" target="_top" target="_top" xlink:title=" ">
<polygon fill="none" stroke="black" points="768.05,-565 768.05,-584 872.05,-584 872.05,-565 768.05,-565"/>
<text text-anchor="middle" x="820.05" y="-572" font-family="Helvetica,sans-Serif" font-size="10.00">AbstractWindow.h</text>
</a>
</g>
</g>
<!-- Node8&#45;&gt;Node9 -->
<g id="edge8" class="edge">
<title>Node8&#45;&gt;Node9</title>
<path fill="none" stroke="midnightblue" d="M1004.24,-626.48C966.49,-616.03 902.39,-598.29 860.64,-586.73"/>
<polygon fill="midnightblue" stroke="midnightblue" points="861.37,-583.3 850.8,-584.01 859.5,-590.05 861.37,-583.3"/>
</g>
<!-- Node11 -->
<g id="node11" class="node">
<title>Node11</title>
<g id="a_node11"><a xlink:title=" ">
<polygon fill="none" stroke="#bfbfbf" points="1109.55,-565 1109.55,-584 1202.55,-584 1202.55,-565 1109.55,-565"/>
<text text-anchor="middle" x="1156.05" y="-572" font-family="Helvetica,sans-Serif" font-size="10.00">unordered_map</text>
</a>
</g>
</g>
<!-- Node8&#45;&gt;Node11 -->
<g id="edge14" class="edge">
<title>Node8&#45;&gt;Node11</title>
<path fill="none" stroke="midnightblue" d="M1052.38,-626.48C1072.6,-616.53 1106.24,-599.99 1129.69,-588.46"/>
<polygon fill="midnightblue" stroke="midnightblue" points="1131.32,-591.56 1138.74,-584.01 1128.23,-585.28 1131.32,-591.56"/>
</g>
<!-- Node12 -->
<g id="node12" class="node">
<title>Node12</title>
<g id="a_node12"><a xlink:href="_entity_8h.html" target="_top" target="_top" xlink:title=" ">
<polygon fill="none" stroke="black" points="922.05,-56.5 922.05,-86.5 1032.05,-86.5 1032.05,-56.5 922.05,-56.5"/>
<text text-anchor="start" x="930.05" y="-74.5" font-family="Helvetica,sans-Serif" font-size="10.00">../../tank&#45;lib/include</text>
<text text-anchor="middle" x="977.05" y="-63.5" font-family="Helvetica,sans-Serif" font-size="10.00">/Entity.h</text>
</a>
</g>
</g>
<!-- Node8&#45;&gt;Node12 -->
<g id="edge15" class="edge">
<title>Node8&#45;&gt;Node12</title>
<path fill="none" stroke="midnightblue" d="M1071.88,-630.91C1118.56,-624.89 1195.02,-611.9 1212.05,-590 1220.51,-579.12 1213.21,-572.73 1212.05,-559 1195.55,-363.15 1267.28,-271.09 1138.05,-123 1131.26,-115.22 1083.1,-100.69 1041.2,-89.2"/>
<polygon fill="midnightblue" stroke="midnightblue" points="1042.12,-85.82 1031.55,-86.58 1040.28,-92.58 1042.12,-85.82"/>
</g>
<!-- Node13 -->
<g id="node13" class="node">
<title>Node13</title>
<g id="a_node13"><a xlink:href="_grid_8h.html" target="_top" target="_top" xlink:title=" ">
<polygon fill="none" stroke="black" points="975.05,-257.5 975.05,-287.5 1091.05,-287.5 1091.05,-257.5 975.05,-257.5"/>
<text text-anchor="start" x="983.05" y="-275.5" font-family="Helvetica,sans-Serif" font-size="10.00">../../board&#45;lib/include</text>
<text text-anchor="middle" x="1033.05" y="-264.5" font-family="Helvetica,sans-Serif" font-size="10.00">/Grid.h</text>
</a>
</g>
</g>
<!-- Node8&#45;&gt;Node13 -->
<g id="edge16" class="edge">
<title>Node8&#45;&gt;Node13</title>
<path fill="none" stroke="midnightblue" d="M1036.03,-626.21C1038.17,-606.27 1043.05,-556.11 1043.05,-514 1043.05,-514 1043.05,-514 1043.05,-389 1043.05,-357.38 1039.28,-321.06 1036.37,-297.73"/>
<polygon fill="midnightblue" stroke="midnightblue" points="1039.83,-297.16 1035.07,-287.69 1032.89,-298.06 1039.83,-297.16"/>
</g>
<!-- Node16 -->
<g id="node16" class="node">
<title>Node16</title>
<g id="a_node16"><a xlink:href="_tank_8h.html" target="_top" target="_top" xlink:title=" ">
<polygon fill="none" stroke="black" points="794.05,-190.5 794.05,-220.5 904.05,-220.5 904.05,-190.5 794.05,-190.5"/>
<text text-anchor="start" x="802.05" y="-208.5" font-family="Helvetica,sans-Serif" font-size="10.00">../../tank&#45;lib/include</text>
<text text-anchor="middle" x="849.05" y="-197.5" font-family="Helvetica,sans-Serif" font-size="10.00">/Tank.h</text>
</a>
</g>
</g>
<!-- Node8&#45;&gt;Node16 -->
<g id="edge30" class="edge">
<title>Node8&#45;&gt;Node16</title>
<path fill="none" stroke="midnightblue" d="M1034.5,-626.4C1031.34,-582.78 1012.22,-383.09 921.05,-257 912.04,-244.53 898.96,-234.06 886.43,-225.94"/>
<polygon fill="midnightblue" stroke="midnightblue" points="888.24,-222.94 877.89,-220.7 884.58,-228.91 888.24,-222.94"/>
</g>
<!-- Node20 -->
<g id="node20" class="node">
<title>Node20</title>
<g id="a_node20"><a xlink:href="_bullet_8h.html" target="_top" target="_top" xlink:title=" ">
<polygon fill="none" stroke="black" points="1019.05,-123.5 1019.05,-153.5 1129.05,-153.5 1129.05,-123.5 1019.05,-123.5"/>
<text text-anchor="start" x="1027.05" y="-141.5" font-family="Helvetica,sans-Serif" font-size="10.00">../../tank&#45;lib/include</text>
<text text-anchor="middle" x="1074.05" y="-130.5" font-family="Helvetica,sans-Serif" font-size="10.00">/Bullet.h</text>
</a>
</g>
</g>
<!-- Node8&#45;&gt;Node20 -->
<g id="edge31" class="edge">
<title>Node8&#45;&gt;Node20</title>
<path fill="none" stroke="midnightblue" d="M1040.56,-626.08C1059.25,-594.95 1119.05,-487.77 1119.05,-391 1119.05,-391 1119.05,-391 1119.05,-271.5 1119.05,-234.31 1112.88,-224.91 1100.05,-190 1096.64,-180.72 1091.91,-170.96 1087.42,-162.53"/>
<polygon fill="midnightblue" stroke="midnightblue" points="1090.43,-160.73 1082.54,-153.66 1084.29,-164.1 1090.43,-160.73"/>
</g>
<!-- Node22 -->
<g id="node22" class="node">
<title>Node22</title>
<g id="a_node22"><a xlink:href="_game_state_8h.html" target="_top" target="_top" xlink:title=" ">
<polygon fill="none" stroke="black" points="167.05,-559.5 167.05,-589.5 283.05,-589.5 283.05,-559.5 167.05,-559.5"/>
<text text-anchor="start" x="175.05" y="-577.5" font-family="Helvetica,sans-Serif" font-size="10.00">../../game&#45;lib/include</text>
<text text-anchor="middle" x="225.05" y="-566.5" font-family="Helvetica,sans-Serif" font-size="10.00">/GameState.h</text>
</a>
</g>
</g>
<!-- Node8&#45;&gt;Node22 -->
<g id="edge36" class="edge">
<title>Node8&#45;&gt;Node22</title>
<path fill="none" stroke="midnightblue" d="M998.41,-632.31C872.71,-623.08 457.74,-592.59 293.16,-580.5"/>
<polygon fill="midnightblue" stroke="midnightblue" points="293.39,-577.01 283.16,-579.77 292.88,-583.99 293.39,-577.01"/>
</g>
<!-- Node9&#45;&gt;Node2 -->
<g id="edge9" class="edge">
<title>Node9&#45;&gt;Node2</title>
<path fill="none" stroke="midnightblue" d="M800.28,-564.98C776.91,-554.9 737.83,-538.05 711.05,-526.5"/>
<polygon fill="midnightblue" stroke="midnightblue" points="712.35,-523.25 701.78,-522.51 709.58,-529.68 712.35,-523.25"/>
</g>
<!-- Node9&#45;&gt;Node3 -->
<g id="edge10" class="edge">
<title>Node9&#45;&gt;Node3</title>
<path fill="none" stroke="midnightblue" d="M834.66,-564.98C851.4,-555.21 879.05,-539.08 898.77,-527.58"/>
<polygon fill="midnightblue" stroke="midnightblue" points="900.59,-530.57 907.46,-522.51 897.06,-524.52 900.59,-530.57"/>
</g>
<!-- Node9&#45;&gt;Node4 -->
<g id="edge11" class="edge">
<title>Node9&#45;&gt;Node4</title>
<path fill="none" stroke="midnightblue" d="M816.34,-564.72C809.91,-550.33 795.49,-521.5 776.05,-503 759,-486.78 607.11,-417.2 591.05,-400 541.68,-347.13 514.75,-262.65 504.7,-225.3"/>
<polygon fill="midnightblue" stroke="midnightblue" points="508,-224.12 502.11,-215.31 501.23,-225.87 508,-224.12"/>
</g>
<!-- Node9&#45;&gt;Node5 -->
<g id="edge12" class="edge">
<title>Node9&#45;&gt;Node5</title>
<path fill="none" stroke="midnightblue" d="M822.98,-564.73C828.13,-550.36 840.02,-521.55 858.05,-503 1025.23,-330.98 1309.05,-446.38 1309.05,-206.5 1309.05,-206.5 1309.05,-206.5 1309.05,-137.5 1309.05,-92.12 1272.67,-48.98 1250.25,-26.7"/>
<polygon fill="midnightblue" stroke="midnightblue" points="1252.62,-24.13 1242.98,-19.73 1247.77,-29.18 1252.62,-24.13"/>
</g>
<!-- Node10 -->
<g id="node10" class="node">
<title>Node10</title>
<g id="a_node10"><a xlink:title=" ">
<polygon fill="none" stroke="#bfbfbf" points="394.05,-0.5 394.05,-19.5 452.05,-19.5 452.05,-0.5 394.05,-0.5"/>
<text text-anchor="middle" x="423.05" y="-7.5" font-family="Helvetica,sans-Serif" font-size="10.00">memory</text>
</a>
</g>
</g>
<!-- Node9&#45;&gt;Node10 -->
<g id="edge13" class="edge">
<title>Node9&#45;&gt;Node10</title>
<path fill="none" stroke="midnightblue" d="M812.34,-564.57C799.34,-549.97 771.66,-520.83 743.05,-503 705.78,-479.78 688.75,-489.51 651.05,-467 611.52,-443.4 602.1,-434.88 572.05,-400 510.94,-329.09 494.64,-308.37 461.05,-221 447.53,-185.85 431.52,-74.09 425.5,-29.56"/>
<polygon fill="midnightblue" stroke="midnightblue" points="428.96,-29.01 424.16,-19.56 422.02,-29.94 428.96,-29.01"/>
</g>
<!-- Node13&#45;&gt;Node5 -->
<g id="edge18" class="edge">
<title>Node13&#45;&gt;Node5</title>
<path fill="none" stroke="midnightblue" d="M1055.81,-257.38C1069.61,-248.12 1087.02,-235.14 1100.05,-221 1157.8,-158.35 1205.58,-67.43 1224.42,-29.11"/>
<polygon fill="midnightblue" stroke="midnightblue" points="1227.74,-30.28 1228.95,-19.76 1221.44,-27.23 1227.74,-30.28"/>
</g>
<!-- Node14 -->
<g id="node14" class="node">
<title>Node14</title>
<g id="a_node14"><a xlink:title=" ">
<polygon fill="none" stroke="#bfbfbf" points="960.55,-196 960.55,-215 1025.55,-215 1025.55,-196 960.55,-196"/>
<text text-anchor="middle" x="993.05" y="-203" font-family="Helvetica,sans-Serif" font-size="10.00">exception</text>
</a>
</g>
</g>
<!-- Node13&#45;&gt;Node14 -->
<g id="edge17" class="edge">
<title>Node13&#45;&gt;Node14</title>
<path fill="none" stroke="midnightblue" d="M1024.37,-257.4C1018.32,-247.56 1010.2,-234.38 1003.75,-223.89"/>
<polygon fill="midnightblue" stroke="midnightblue" points="1006.62,-221.88 998.4,-215.19 1000.66,-225.55 1006.62,-221.88"/>
</g>
<!-- Node15 -->
<g id="node15" class="node">
<title>Node15</title>
<g id="a_node15"><a xlink:title=" ">
<polygon fill="none" stroke="#bfbfbf" points="1043.55,-196 1043.55,-215 1090.55,-215 1090.55,-196 1043.55,-196"/>
<text text-anchor="middle" x="1067.05" y="-203" font-family="Helvetica,sans-Serif" font-size="10.00">queue</text>
</a>
</g>
</g>
<!-- Node13&#45;&gt;Node15 -->
<g id="edge19" class="edge">
<title>Node13&#45;&gt;Node15</title>
<path fill="none" stroke="midnightblue" d="M1040.43,-257.4C1045.52,-247.66 1052.33,-234.65 1057.78,-224.21"/>
<polygon fill="midnightblue" stroke="midnightblue" points="1060.97,-225.68 1062.5,-215.19 1054.76,-222.43 1060.97,-225.68"/>
</g>
<!-- Node13&#45;&gt;Node16 -->
<g id="edge20" class="edge">
<title>Node13&#45;&gt;Node16</title>
<path fill="none" stroke="midnightblue" d="M993.12,-257.4C965.39,-247.6 928.26,-234.48 898.63,-224.02"/>
<polygon fill="midnightblue" stroke="midnightblue" points="899.49,-220.61 888.9,-220.58 897.16,-227.21 899.49,-220.61"/>
</g>
<!-- Node16&#45;&gt;Node10 -->
<g id="edge21" class="edge">
<title>Node16&#45;&gt;Node10</title>
<path fill="none" stroke="midnightblue" d="M835.66,-190.37C806.36,-160.39 733.09,-90.34 657.05,-56 592.73,-26.95 510.22,-16.64 462.32,-12.99"/>
<polygon fill="midnightblue" stroke="midnightblue" points="462.3,-9.47 452.07,-12.27 461.81,-16.46 462.3,-9.47"/>
</g>
<!-- Node16&#45;&gt;Node12 -->
<g id="edge26" class="edge">
<title>Node16&#45;&gt;Node12</title>
<path fill="none" stroke="midnightblue" d="M881.84,-190.37C898.98,-181.76 919.38,-169.43 934.05,-154 949.9,-137.33 961.51,-113.68 968.64,-96.14"/>
<polygon fill="midnightblue" stroke="midnightblue" points="971.98,-97.21 972.32,-86.62 965.45,-94.69 971.98,-97.21"/>
</g>
<!-- Node17 -->
<g id="node17" class="node">
<title>Node17</title>
<g id="a_node17"><a xlink:title=" ">
<polygon fill="none" stroke="#bfbfbf" points="671.05,-129 671.05,-148 727.05,-148 727.05,-129 671.05,-129"/>
<text text-anchor="middle" x="699.05" y="-136" font-family="Helvetica,sans-Serif" font-size="10.00">optional</text>
</a>
</g>
</g>
<!-- Node16&#45;&gt;Node17 -->
<g id="edge22" class="edge">
<title>Node16&#45;&gt;Node17</title>
<path fill="none" stroke="midnightblue" d="M816.5,-190.4C790.18,-178.99 753.46,-163.08 728.12,-152.1"/>
<polygon fill="midnightblue" stroke="midnightblue" points="729.25,-148.77 718.68,-148.01 726.46,-155.19 729.25,-148.77"/>
</g>
<!-- Node18 -->
<g id="node18" class="node">
<title>Node18</title>
<g id="a_node18"><a xlink:href="_simple_subscriber_8h.html" target="_top" target="_top" xlink:title=" ">
<polygon fill="none" stroke="black" points="787.55,-56.5 787.55,-86.5 900.55,-86.5 900.55,-56.5 787.55,-56.5"/>
<text text-anchor="start" x="795.55" y="-74.5" font-family="Helvetica,sans-Serif" font-size="10.00">../../core&#45;lib/include</text>
<text text-anchor="middle" x="844.05" y="-63.5" font-family="Helvetica,sans-Serif" font-size="10.00">/SimpleSubscriber.h</text>
</a>
</g>
</g>
<!-- Node16&#45;&gt;Node18 -->
<g id="edge23" class="edge">
<title>Node16&#45;&gt;Node18</title>
<path fill="none" stroke="midnightblue" d="M834.93,-190.46C826.5,-181.03 816.58,-167.84 812.05,-154 807.76,-140.91 808.21,-136.23 812.05,-123 814.89,-113.19 820.28,-103.46 825.83,-95.2"/>
<polygon fill="midnightblue" stroke="midnightblue" points="828.82,-97.04 831.81,-86.88 823.14,-92.95 828.82,-97.04"/>
</g>
<!-- Node19 -->
<g id="node19" class="node">
<title>Node19</title>
<g id="a_node19"><a xlink:href="_bot_8h.html" target="_top" target="_top" xlink:title=" ">
<polygon fill="none" stroke="black" points="821.05,-123.5 821.05,-153.5 925.05,-153.5 925.05,-123.5 821.05,-123.5"/>
<text text-anchor="start" x="829.05" y="-141.5" font-family="Helvetica,sans-Serif" font-size="10.00">../../bot&#45;lib/include</text>
<text text-anchor="middle" x="873.05" y="-130.5" font-family="Helvetica,sans-Serif" font-size="10.00">/Bot.h</text>
</a>
</g>
</g>
<!-- Node16&#45;&gt;Node19 -->
<g id="edge27" class="edge">
<title>Node16&#45;&gt;Node19</title>
<path fill="none" stroke="midnightblue" d="M854.26,-190.4C857.21,-182.39 860.99,-172.16 864.38,-162.98"/>
<polygon fill="midnightblue" stroke="midnightblue" points="867.67,-164.17 867.85,-153.58 861.1,-161.75 867.67,-164.17"/>
</g>
<!-- Node18&#45;&gt;Node5 -->
<g id="edge24" class="edge">
<title>Node18&#45;&gt;Node5</title>
<path fill="none" stroke="midnightblue" d="M900.85,-58.25C904.97,-57.46 909.07,-56.7 913.05,-56 1016.83,-37.82 1140.57,-22.09 1199.12,-15.01"/>
<polygon fill="midnightblue" stroke="midnightblue" points="1199.77,-18.46 1209.28,-13.79 1198.93,-11.51 1199.77,-18.46"/>
</g>
<!-- Node18&#45;&gt;Node10 -->
<g id="edge25" class="edge">
<title>Node18&#45;&gt;Node10</title>
<path fill="none" stroke="midnightblue" d="M787.19,-59.13C781.08,-58.02 774.94,-56.95 769.05,-56 658.3,-38.11 526.72,-22.55 462.4,-15.32"/>
<polygon fill="midnightblue" stroke="midnightblue" points="462.63,-11.82 452.3,-14.19 461.85,-18.78 462.63,-11.82"/>
</g>
<!-- Node19&#45;&gt;Node12 -->
<g id="edge28" class="edge">
<title>Node19&#45;&gt;Node12</title>
<path fill="none" stroke="midnightblue" d="M895.62,-123.4C910.33,-114.2 929.74,-102.07 945.92,-91.95"/>
<polygon fill="midnightblue" stroke="midnightblue" points="947.9,-94.84 954.53,-86.58 944.19,-88.91 947.9,-94.84"/>
</g>
<!-- Node19&#45;&gt;Node18 -->
<g id="edge29" class="edge">
<title>Node19&#45;&gt;Node18</title>
<path fill="none" stroke="midnightblue" d="M866.76,-123.4C863.18,-115.39 858.62,-105.16 854.52,-95.98"/>
<polygon fill="midnightblue" stroke="midnightblue" points="857.6,-94.28 850.33,-86.58 851.21,-97.13 857.6,-94.28"/>
</g>
<!-- Node20&#45;&gt;Node12 -->
<g id="edge35" class="edge">
<title>Node20&#45;&gt;Node12</title>
<path fill="none" stroke="midnightblue" d="M1053,-123.4C1039.4,-114.28 1021.5,-102.29 1006.5,-92.24"/>
<polygon fill="midnightblue" stroke="midnightblue" points="1008.31,-89.24 998.06,-86.58 1004.41,-95.05 1008.31,-89.24"/>
</g>
<!-- Node21 -->
<g id="node21" class="node">
<title>Node21</title>
<g id="a_node21"><a xlink:href="_simple_publisher_8h.html" target="_top" target="_top" xlink:title=" ">
<polygon fill="none" stroke="black" points="1050.05,-56.5 1050.05,-86.5 1160.05,-86.5 1160.05,-56.5 1050.05,-56.5"/>
<text text-anchor="start" x="1058.05" y="-74.5" font-family="Helvetica,sans-Serif" font-size="10.00">../../core&#45;lib/include</text>
<text text-anchor="middle" x="1105.05" y="-63.5" font-family="Helvetica,sans-Serif" font-size="10.00">/SimplePublisher.h</text>
</a>
</g>
</g>
<!-- Node20&#45;&gt;Node21 -->
<g id="edge32" class="edge">
<title>Node20&#45;&gt;Node21</title>
<path fill="none" stroke="midnightblue" d="M1080.78,-123.4C1084.63,-115.3 1089.58,-104.94 1093.99,-95.69"/>
<polygon fill="midnightblue" stroke="midnightblue" points="1097.19,-97.11 1098.34,-86.58 1090.87,-94.1 1097.19,-97.11"/>
</g>
<!-- Node21&#45;&gt;Node5 -->
<g id="edge34" class="edge">
<title>Node21&#45;&gt;Node5</title>
<path fill="none" stroke="midnightblue" d="M1135.38,-56.4C1156.57,-46.55 1184.64,-33.5 1205.25,-23.92"/>
<polygon fill="midnightblue" stroke="midnightblue" points="1206.83,-27.05 1214.42,-19.66 1203.88,-20.7 1206.83,-27.05"/>
</g>
<!-- Node21&#45;&gt;Node10 -->
<g id="edge33" class="edge">
<title>Node21&#45;&gt;Node10</title>
<path fill="none" stroke="midnightblue" d="M1049.99,-57.47C1046.97,-56.93 1043.98,-56.44 1041.05,-56 823.92,-23.68 560.26,-14.29 462.22,-11.81"/>
<polygon fill="midnightblue" stroke="midnightblue" points="462.26,-8.31 452.18,-11.57 462.09,-15.31 462.26,-8.31"/>
</g>
<!-- Node22&#45;&gt;Node10 -->
<g id="edge37" class="edge">
<title>Node22&#45;&gt;Node10</title>
<path fill="none" stroke="midnightblue" d="M167.02,-565.87C113.98,-557.74 40.75,-543.25 20.05,-523 -3.15,-500.3 1.05,-484.95 1.05,-452.5 1.05,-452.5 1.05,-452.5 1.05,-137.5 1.05,-58.01 279.26,-24.21 383.9,-14.3"/>
<polygon fill="midnightblue" stroke="midnightblue" points="384.41,-17.77 394.04,-13.37 383.76,-10.8 384.41,-17.77"/>
</g>
<!-- Node23 -->
<g id="node23" class="node">
<title>Node23</title>
<g id="a_node23"><a xlink:href="_active_event_handler_8h.html" target="_top" target="_top" xlink:title=" ">
<polygon fill="none" stroke="black" points="452.05,-503.5 452.05,-522.5 574.05,-522.5 574.05,-503.5 452.05,-503.5"/>
<text text-anchor="middle" x="513.05" y="-510.5" font-family="Helvetica,sans-Serif" font-size="10.00">ActiveEventHandler.h</text>
</a>
</g>
</g>
<!-- Node22&#45;&gt;Node23 -->
<g id="edge38" class="edge">
<title>Node22&#45;&gt;Node23</title>
<path fill="none" stroke="midnightblue" d="M283.33,-561.46C335.61,-550.66 411.6,-534.96 461.65,-524.62"/>
<polygon fill="midnightblue" stroke="midnightblue" points="462.53,-528.01 471.61,-522.56 461.11,-521.16 462.53,-528.01"/>
</g>
<!-- Node34 -->
<g id="node34" class="node">
<title>Node34</title>
<g id="a_node34"><a xlink:href="_menu_event_handler_8h.html" target="_top" target="_top" xlink:title=" ">
<polygon fill="none" stroke="black" points="29.05,-503.5 29.05,-522.5 147.05,-522.5 147.05,-503.5 29.05,-503.5"/>
<text text-anchor="middle" x="88.05" y="-510.5" font-family="Helvetica,sans-Serif" font-size="10.00">MenuEventHandler.h</text>
</a>
</g>
</g>
<!-- Node22&#45;&gt;Node34 -->
<g id="edge67" class="edge">
<title>Node22&#45;&gt;Node34</title>
<path fill="none" stroke="midnightblue" d="M186.74,-559.4C162.8,-549.55 132.81,-536.5 112.12,-526.92"/>
<polygon fill="midnightblue" stroke="midnightblue" points="113.59,-523.75 103.05,-522.66 110.61,-530.08 113.59,-523.75"/>
</g>
<!-- Node35 -->
<g id="node35" class="node">
<title>Node35</title>
<g id="a_node35"><a xlink:href="_pause_event_handler_8h.html" target="_top" target="_top" xlink:title=" ">
<polygon fill="none" stroke="black" points="165.55,-503.5 165.55,-522.5 284.55,-522.5 284.55,-503.5 165.55,-503.5"/>
<text text-anchor="middle" x="225.05" y="-510.5" font-family="Helvetica,sans-Serif" font-size="10.00">PauseEventHandler.h</text>
</a>
</g>
</g>
<!-- Node22&#45;&gt;Node35 -->
<g id="edge71" class="edge">
<title>Node22&#45;&gt;Node35</title>
<path fill="none" stroke="midnightblue" d="M219.21,-559.4C218.18,-551.38 218.02,-541.23 218.74,-532.57"/>
<polygon fill="midnightblue" stroke="midnightblue" points="222.21,-533.04 220.12,-522.66 215.28,-532.08 222.21,-533.04"/>
</g>
<!-- Node36 -->
<g id="node36" class="node">
<title>Node36</title>
<g id="a_node36"><a xlink:href="_finished_event_handler_8h.html" target="_top" target="_top" xlink:title=" ">
<polygon fill="none" stroke="black" points="302.55,-503.5 302.55,-522.5 433.55,-522.5 433.55,-503.5 302.55,-503.5"/>
<text text-anchor="middle" x="368.05" y="-510.5" font-family="Helvetica,sans-Serif" font-size="10.00">FinishedEventHandler.h</text>
</a>
</g>
</g>
<!-- Node22&#45;&gt;Node36 -->
<g id="edge75" class="edge">
<title>Node22&#45;&gt;Node36</title>
<path fill="none" stroke="midnightblue" d="M258.94,-559.4C282.93,-549.42 314.82,-536.15 337.93,-526.53"/>
<polygon fill="midnightblue" stroke="midnightblue" points="339.35,-529.73 347.24,-522.66 336.66,-523.27 339.35,-529.73"/>
</g>
<!-- Node23&#45;&gt;Node10 -->
<g id="edge39" class="edge">
<title>Node23&#45;&gt;Node10</title>
<path fill="none" stroke="midnightblue" d="M508.55,-503.17C496.27,-478.62 461.94,-407.23 445.05,-344 414.05,-227.93 418.83,-81.43 421.77,-29.93"/>
<polygon fill="midnightblue" stroke="midnightblue" points="425.28,-29.89 422.41,-19.69 418.29,-29.45 425.28,-29.89"/>
</g>
<!-- Node24 -->
<g id="node24" class="node">
<title>Node24</title>
<g id="a_node24"><a xlink:href="_event_handler_8h.html" target="_top" target="_top" xlink:title=" ">
<polygon fill="none" stroke="black" points="312.05,-436.5 312.05,-466.5 422.05,-466.5 422.05,-436.5 312.05,-436.5"/>
<text text-anchor="start" x="320.05" y="-454.5" font-family="Helvetica,sans-Serif" font-size="10.00">../../core&#45;lib/include</text>
<text text-anchor="middle" x="367.05" y="-443.5" font-family="Helvetica,sans-Serif" font-size="10.00">/EventHandler.h</text>
</a>
</g>
</g>
<!-- Node23&#45;&gt;Node24 -->
<g id="edge40" class="edge">
<title>Node23&#45;&gt;Node24</title>
<path fill="none" stroke="midnightblue" d="M492.13,-503.48C471.06,-494.89 437.92,-481.38 411.04,-470.43"/>
<polygon fill="midnightblue" stroke="midnightblue" points="412.04,-467.06 401.46,-466.52 409.4,-473.54 412.04,-467.06"/>
</g>
<!-- Node32 -->
<g id="node32" class="node">
<title>Node32</title>
<g id="a_node32"><a xlink:href="_event_queue_8h.html" target="_top" target="_top" xlink:title=" ">
<polygon fill="none" stroke="black" points="802.05,-257.5 802.05,-287.5 912.05,-287.5 912.05,-257.5 802.05,-257.5"/>
<text text-anchor="start" x="810.05" y="-275.5" font-family="Helvetica,sans-Serif" font-size="10.00">../../core&#45;lib/include</text>
<text text-anchor="middle" x="857.05" y="-264.5" font-family="Helvetica,sans-Serif" font-size="10.00">/EventQueue.h</text>
</a>
</g>
</g>
<!-- Node23&#45;&gt;Node32 -->
<g id="edge60" class="edge">
<title>Node23&#45;&gt;Node32</title>
<path fill="none" stroke="midnightblue" d="M574.31,-506.71C665.75,-495.11 834.97,-458.48 908.05,-344 919.08,-326.71 904.07,-307.93 887.53,-294.1"/>
<polygon fill="midnightblue" stroke="midnightblue" points="889.43,-291.14 879.39,-287.74 885.11,-296.66 889.43,-291.14"/>
</g>
<!-- Node33 -->
<g id="node33" class="node">
<title>Node33</title>
<g id="a_node33"><a xlink:href="_game_statistics_8h.html" target="_top" target="_top" xlink:title=" ">
<polygon fill="none" stroke="black" points="799.05,-324.5 799.05,-343.5 899.05,-343.5 899.05,-324.5 799.05,-324.5"/>
<text text-anchor="middle" x="849.05" y="-331.5" font-family="Helvetica,sans-Serif" font-size="10.00">GameStatistics.h</text>
</a>
</g>
</g>
<!-- Node23&#45;&gt;Node33 -->
<g id="edge63" class="edge">
<title>Node23&#45;&gt;Node33</title>
<path fill="none" stroke="midnightblue" d="M529.25,-503.46C583.36,-474.96 758.02,-382.95 823.73,-348.34"/>
<polygon fill="midnightblue" stroke="midnightblue" points="825.4,-351.42 832.61,-343.66 822.13,-345.22 825.4,-351.42"/>
</g>
<!-- Node24&#45;&gt;Node10 -->
<g id="edge41" class="edge">
<title>Node24&#45;&gt;Node10</title>
<path fill="none" stroke="midnightblue" d="M366.85,-436.28C366.55,-414.48 366.05,-371.5 366.05,-335 366.05,-335 366.05,-335 366.05,-137.5 366.05,-99.74 373.3,-89.84 390.05,-56 395.03,-45.93 402.28,-35.74 408.71,-27.61"/>
<polygon fill="midnightblue" stroke="midnightblue" points="411.57,-29.65 415.23,-19.7 406.17,-25.2 411.57,-29.65"/>
</g>
<!-- Node25 -->
<g id="node25" class="node">
<title>Node25</title>
<g id="a_node25"><a xlink:href="_event_8h.html" target="_top" target="_top" xlink:title=" ">
<polygon fill="none" stroke="black" points="653.55,-263 653.55,-282 706.55,-282 706.55,-263 653.55,-263"/>
<text text-anchor="middle" x="680.05" y="-270" font-family="Helvetica,sans-Serif" font-size="10.00">Event.h</text>
</a>
</g>
</g>
<!-- Node24&#45;&gt;Node25 -->
<g id="edge42" class="edge">
<title>Node24&#45;&gt;Node25</title>
<path fill="none" stroke="midnightblue" d="M391.87,-436.46C450.63,-403.24 597.66,-320.09 655.82,-287.2"/>
<polygon fill="midnightblue" stroke="midnightblue" points="657.69,-290.16 664.67,-282.19 654.25,-284.07 657.69,-290.16"/>
</g>
<!-- Node28 -->
<g id="node28" class="node">
<title>Node28</title>
<g id="a_node28"><a xlink:href="_event_publisher_8h.html" target="_top" target="_top" xlink:title=" ">
<polygon fill="none" stroke="black" points="600.05,-380.5 600.05,-399.5 698.05,-399.5 698.05,-380.5 600.05,-380.5"/>
<text text-anchor="middle" x="649.05" y="-387.5" font-family="Helvetica,sans-Serif" font-size="10.00">EventPublisher.h</text>
</a>
</g>
</g>
<!-- Node24&#45;&gt;Node28 -->
<g id="edge51" class="edge">
<title>Node24&#45;&gt;Node28</title>
<path fill="none" stroke="midnightblue" d="M422.09,-438.89C473.38,-428.07 549.19,-412.07 598.86,-401.59"/>
<polygon fill="midnightblue" stroke="midnightblue" points="599.67,-405 608.73,-399.51 598.22,-398.15 599.67,-405"/>
</g>
<!-- Node25&#45;&gt;Node4 -->
<g id="edge47" class="edge">
<title>Node25&#45;&gt;Node4</title>
<path fill="none" stroke="midnightblue" d="M656.15,-262.87C624.59,-251.47 568.87,-231.35 533.24,-218.49"/>
<polygon fill="midnightblue" stroke="midnightblue" points="534.36,-215.17 523.76,-215.06 531.98,-221.75 534.36,-215.17"/>
</g>
<!-- Node25&#45;&gt;Node10 -->
<g id="edge45" class="edge">
<title>Node25&#45;&gt;Node10</title>
<path fill="none" stroke="midnightblue" d="M654.36,-262.89C632.22,-254.59 600.26,-240.43 577.05,-221 576.91,-220.88 472.04,-77.83 435.46,-27.93"/>
<polygon fill="midnightblue" stroke="midnightblue" points="438.2,-25.75 429.46,-19.75 432.55,-29.88 438.2,-25.75"/>
</g>
<!-- Node25&#45;&gt;Node12 -->
<g id="edge49" class="edge">
<title>Node25&#45;&gt;Node12</title>
<path fill="none" stroke="midnightblue" d="M706.67,-263.49C714.49,-261.25 723.08,-258.92 731.05,-257 811.22,-237.71 844.18,-266.34 913.05,-221 955.15,-193.28 969.68,-131.38 974.6,-96.9"/>
<polygon fill="midnightblue" stroke="midnightblue" points="978.1,-97.1 975.88,-86.74 971.16,-96.22 978.1,-97.1"/>
</g>
<!-- Node25&#45;&gt;Node14 -->
<g id="edge43" class="edge">
<title>Node25&#45;&gt;Node14</title>
<path fill="none" stroke="midnightblue" d="M706.64,-263.34C714.46,-261.1 723.06,-258.8 731.05,-257 825.57,-235.72 851.77,-243.33 946.05,-221 949.87,-220.1 953.83,-219.05 957.76,-217.94"/>
<polygon fill="midnightblue" stroke="midnightblue" points="958.76,-221.29 967.36,-215.1 956.78,-214.58 958.76,-221.29"/>
</g>
<!-- Node25&#45;&gt;Node16 -->
<g id="edge50" class="edge">
<title>Node25&#45;&gt;Node16</title>
<path fill="none" stroke="midnightblue" d="M702.49,-262.87C728.07,-253.03 770.56,-236.69 803.22,-224.13"/>
<polygon fill="midnightblue" stroke="midnightblue" points="804.5,-227.38 812.58,-220.53 801.99,-220.85 804.5,-227.38"/>
</g>
<!-- Node25&#45;&gt;Node17 -->
<g id="edge48" class="edge">
<title>Node25&#45;&gt;Node17</title>
<path fill="none" stroke="midnightblue" d="M686.7,-262.79C693.6,-253.17 703.93,-236.92 708.05,-221 713.55,-199.75 709.15,-174.52 704.79,-157.83"/>
<polygon fill="midnightblue" stroke="midnightblue" points="708.16,-156.86 702.03,-148.21 701.43,-158.79 708.16,-156.86"/>
</g>
<!-- Node26 -->
<g id="node26" class="node">
<title>Node26</title>
<g id="a_node26"><a xlink:title=" ">
<polygon fill="none" stroke="#bfbfbf" points="586.05,-196 586.05,-215 630.05,-215 630.05,-196 586.05,-196"/>
<text text-anchor="middle" x="608.05" y="-203" font-family="Helvetica,sans-Serif" font-size="10.00">string</text>
</a>
</g>
</g>
<!-- Node25&#45;&gt;Node26 -->
<g id="edge44" class="edge">
<title>Node25&#45;&gt;Node26</title>
<path fill="none" stroke="midnightblue" d="M670.34,-262.73C658.79,-252.31 639.3,-234.71 625.19,-221.97"/>
<polygon fill="midnightblue" stroke="midnightblue" points="627.37,-219.23 617.6,-215.13 622.68,-224.43 627.37,-219.23"/>
</g>
<!-- Node27 -->
<g id="node27" class="node">
<title>Node27</title>
<g id="a_node27"><a xlink:title=" ">
<polygon fill="none" stroke="#bfbfbf" points="648.55,-196 648.55,-215 699.55,-215 699.55,-196 648.55,-196"/>
<text text-anchor="middle" x="674.05" y="-203" font-family="Helvetica,sans-Serif" font-size="10.00">variant</text>
</a>
</g>
</g>
<!-- Node25&#45;&gt;Node27 -->
<g id="edge46" class="edge">
<title>Node25&#45;&gt;Node27</title>
<path fill="none" stroke="midnightblue" d="M679.24,-262.73C678.36,-253.18 676.92,-237.62 675.78,-225.28"/>
<polygon fill="midnightblue" stroke="midnightblue" points="679.25,-224.76 674.84,-215.13 672.28,-225.41 679.25,-224.76"/>
</g>
<!-- Node28&#45;&gt;Node5 -->
<g id="edge53" class="edge">
<title>Node28&#45;&gt;Node5</title>
<path fill="none" stroke="midnightblue" d="M698.12,-385.23C844.99,-372.61 1271.05,-325.72 1271.05,-206.5 1271.05,-206.5 1271.05,-206.5 1271.05,-137.5 1271.05,-97.35 1253.27,-52.95 1242.04,-28.89"/>
<polygon fill="midnightblue" stroke="midnightblue" points="1245.06,-27.1 1237.56,-19.63 1238.76,-30.15 1245.06,-27.1"/>
</g>
<!-- Node28&#45;&gt;Node25 -->
<g id="edge54" class="edge">
<title>Node28&#45;&gt;Node25</title>
<path fill="none" stroke="midnightblue" d="M651.38,-380.32C656.38,-361.67 668.25,-317.44 675.05,-292.13"/>
<polygon fill="midnightblue" stroke="midnightblue" points="678.48,-292.85 677.69,-282.28 671.72,-291.03 678.48,-292.85"/>
</g>
<!-- Node29 -->
<g id="node29" class="node">
<title>Node29</title>
<g id="a_node29"><a xlink:title=" ">
<polygon fill="none" stroke="#bfbfbf" points="583.05,-263 583.05,-282 621.05,-282 621.05,-263 583.05,-263"/>
<text text-anchor="middle" x="602.05" y="-270" font-family="Helvetica,sans-Serif" font-size="10.00">map</text>
</a>
</g>
</g>
<!-- Node28&#45;&gt;Node29 -->
<g id="edge52" class="edge">
<title>Node28&#45;&gt;Node29</title>
<path fill="none" stroke="midnightblue" d="M645.52,-380.32C637.89,-361.59 619.77,-317.05 609.49,-291.79"/>
<polygon fill="midnightblue" stroke="midnightblue" points="612.63,-290.23 605.62,-282.28 606.15,-292.86 612.63,-290.23"/>
</g>
<!-- Node30 -->
<g id="node30" class="node">
<title>Node30</title>
<g id="a_node30"><a xlink:href="_event_subscriber_8h.html" target="_top" target="_top" xlink:title=" ">
<polygon fill="none" stroke="black" points="677.05,-324.5 677.05,-343.5 781.05,-343.5 781.05,-324.5 677.05,-324.5"/>
<text text-anchor="middle" x="729.05" y="-331.5" font-family="Helvetica,sans-Serif" font-size="10.00">EventSubscriber.h</text>
</a>
</g>
</g>
<!-- Node28&#45;&gt;Node30 -->
<g id="edge55" class="edge">
<title>Node28&#45;&gt;Node30</title>
<path fill="none" stroke="midnightblue" d="M661.9,-380.32C674.26,-371.98 693.18,-359.21 707.79,-349.35"/>
<polygon fill="midnightblue" stroke="midnightblue" points="709.9,-352.15 716.23,-343.65 705.98,-346.35 709.9,-352.15"/>
</g>
<!-- Node30&#45;&gt;Node5 -->
<g id="edge57" class="edge">
<title>Node30&#45;&gt;Node5</title>
<path fill="none" stroke="midnightblue" d="M781.28,-325.19C784.24,-324.78 787.18,-324.38 790.05,-324 891.02,-310.69 1233.05,-308.35 1233.05,-206.5 1233.05,-206.5 1233.05,-206.5 1233.05,-137.5 1233.05,-99.2 1233.05,-54.38 1233.05,-29.7"/>
<polygon fill="midnightblue" stroke="midnightblue" points="1236.55,-29.59 1233.05,-19.59 1229.55,-29.59 1236.55,-29.59"/>
</g>
<!-- Node30&#45;&gt;Node25 -->
<g id="edge59" class="edge">
<title>Node30&#45;&gt;Node25</title>
<path fill="none" stroke="midnightblue" d="M722.03,-324.48C714.61,-315.46 702.72,-301.02 693.48,-289.81"/>
<polygon fill="midnightblue" stroke="midnightblue" points="696.11,-287.5 687.06,-282.01 690.71,-291.95 696.11,-287.5"/>
</g>
<!-- Node30&#45;&gt;Node29 -->
<g id="edge56" class="edge">
<title>Node30&#45;&gt;Node29</title>
<path fill="none" stroke="midnightblue" d="M710.85,-324.48C689.54,-314.49 654.02,-297.85 629.39,-286.31"/>
<polygon fill="midnightblue" stroke="midnightblue" points="630.75,-283.08 620.21,-282.01 627.78,-289.42 630.75,-283.08"/>
</g>
<!-- Node31 -->
<g id="node31" class="node">
<title>Node31</title>
<g id="a_node31"><a xlink:title=" ">
<polygon fill="none" stroke="#bfbfbf" points="740.05,-263 740.05,-282 772.05,-282 772.05,-263 740.05,-263"/>
<text text-anchor="middle" x="756.05" y="-270" font-family="Helvetica,sans-Serif" font-size="10.00">list</text>
</a>
</g>
</g>
<!-- Node30&#45;&gt;Node31 -->
<g id="edge58" class="edge">
<title>Node30&#45;&gt;Node31</title>
<path fill="none" stroke="midnightblue" d="M732.92,-324.48C736.85,-315.82 743.05,-302.15 748.04,-291.15"/>
<polygon fill="midnightblue" stroke="midnightblue" points="751.24,-292.56 752.19,-282.01 744.87,-289.67 751.24,-292.56"/>
</g>
<!-- Node32&#45;&gt;Node10 -->
<g id="edge62" class="edge">
<title>Node32&#45;&gt;Node10</title>
<path fill="none" stroke="midnightblue" d="M833.71,-257.49C758.24,-212.19 521.28,-69.96 446.15,-24.86"/>
<polygon fill="midnightblue" stroke="midnightblue" points="447.79,-21.77 437.42,-19.63 444.19,-27.77 447.79,-21.77"/>
</g>
<!-- Node32&#45;&gt;Node15 -->
<g id="edge61" class="edge">
<title>Node32&#45;&gt;Node15</title>
<path fill="none" stroke="midnightblue" d="M912.26,-258.11C947.75,-248.94 994.63,-235.8 1035.05,-221 1036.66,-220.41 1038.31,-219.77 1039.96,-219.11"/>
<polygon fill="midnightblue" stroke="midnightblue" points="1041.49,-222.26 1049.3,-215.11 1038.73,-215.83 1041.49,-222.26"/>
</g>
<!-- Node33&#45;&gt;Node25 -->
<g id="edge66" class="edge">
<title>Node33&#45;&gt;Node25</title>
<path fill="none" stroke="midnightblue" d="M824.84,-324.48C795.72,-314.22 746.68,-296.96 713.85,-285.4"/>
<polygon fill="midnightblue" stroke="midnightblue" points="714.81,-282.03 704.22,-282.01 712.49,-288.63 714.81,-282.03"/>
</g>
<!-- Node33&#45;&gt;Node31 -->
<g id="edge64" class="edge">
<title>Node33&#45;&gt;Node31</title>
<path fill="none" stroke="midnightblue" d="M835.72,-324.48C820.67,-314.84 795.93,-299.02 778.01,-287.55"/>
<polygon fill="midnightblue" stroke="midnightblue" points="779.66,-284.45 769.35,-282.01 775.89,-290.35 779.66,-284.45"/>
</g>
<!-- Node33&#45;&gt;Node32 -->
<g id="edge65" class="edge">
<title>Node33&#45;&gt;Node32</title>
<path fill="none" stroke="midnightblue" d="M850.19,-324.48C851.14,-317.47 852.52,-307.19 853.8,-297.7"/>
<polygon fill="midnightblue" stroke="midnightblue" points="857.3,-297.9 855.16,-287.52 850.36,-296.97 857.3,-297.9"/>
</g>
<!-- Node34&#45;&gt;Node10 -->
<g id="edge68" class="edge">
<title>Node34&#45;&gt;Node10</title>
<path fill="none" stroke="midnightblue" d="M95.89,-503.33C112.16,-484.42 148.05,-437.43 148.05,-391 148.05,-391 148.05,-391 148.05,-137.5 148.05,-34.98 307.73,-15.25 383.74,-11.67"/>
<polygon fill="midnightblue" stroke="midnightblue" points="384.03,-15.16 393.88,-11.26 383.75,-8.16 384.03,-15.16"/>
</g>
<!-- Node34&#45;&gt;Node22 -->
<g id="edge70" class="edge">
<title>Node34&#45;&gt;Node22</title>
<path fill="none" stroke="midnightblue" d="M112.91,-522.66C134.32,-531.16 165.24,-544.39 189.26,-555.23"/>
<polygon fill="midnightblue" stroke="midnightblue" points="187.87,-558.44 198.42,-559.4 190.77,-552.07 187.87,-558.44"/>
</g>
<!-- Node34&#45;&gt;Node24 -->
<g id="edge69" class="edge">
<title>Node34&#45;&gt;Node24</title>
<path fill="none" stroke="midnightblue" d="M128.02,-503.48C173.48,-493.78 248.37,-477.81 302.22,-466.33"/>
<polygon fill="midnightblue" stroke="midnightblue" points="302.96,-469.75 312.01,-464.24 301.5,-462.9 302.96,-469.75"/>
</g>
<!-- Node35&#45;&gt;Node10 -->
<g id="edge72" class="edge">
<title>Node35&#45;&gt;Node10</title>
<path fill="none" stroke="midnightblue" d="M226.4,-503.22C229.33,-483.31 236.05,-433.19 236.05,-391 236.05,-391 236.05,-391 236.05,-137.5 236.05,-66.65 329.27,-32.79 384.07,-19"/>
<polygon fill="midnightblue" stroke="midnightblue" points="384.93,-22.4 393.83,-16.66 383.29,-15.59 384.93,-22.4"/>
</g>
<!-- Node35&#45;&gt;Node22 -->
<g id="edge74" class="edge">
<title>Node35&#45;&gt;Node22</title>
<path fill="none" stroke="midnightblue" d="M229.98,-522.66C231.48,-529.65 232.06,-539.86 231.69,-549.29"/>
<polygon fill="midnightblue" stroke="midnightblue" points="228.19,-549.15 230.89,-559.4 235.17,-549.71 228.19,-549.15"/>
</g>
<!-- Node35&#45;&gt;Node24 -->
<g id="edge73" class="edge">
<title>Node35&#45;&gt;Node24</title>
<path fill="none" stroke="midnightblue" d="M245.39,-503.48C265.88,-494.89 298.12,-481.38 324.26,-470.43"/>
<polygon fill="midnightblue" stroke="midnightblue" points="325.71,-473.62 333.58,-466.52 323.01,-467.16 325.71,-473.62"/>
</g>
<!-- Node36&#45;&gt;Node10 -->
<g id="edge76" class="edge">
<title>Node36&#45;&gt;Node10</title>
<path fill="none" stroke="midnightblue" d="M348.97,-503.5C334.25,-495.97 314.53,-483.59 303.05,-467 283.24,-438.36 284.05,-425.82 284.05,-391 284.05,-391 284.05,-391 284.05,-137.5 284.05,-80.11 349.67,-41.86 390.74,-23.55"/>
<polygon fill="midnightblue" stroke="midnightblue" points="392.29,-26.69 400.1,-19.53 389.53,-20.26 392.29,-26.69"/>
</g>
<!-- Node36&#45;&gt;Node24 -->
<g id="edge77" class="edge">
<title>Node36&#45;&gt;Node24</title>
<path fill="none" stroke="midnightblue" d="M367.91,-503.48C367.79,-496.47 367.61,-486.19 367.46,-476.7"/>
<polygon fill="midnightblue" stroke="midnightblue" points="370.95,-476.46 367.28,-466.52 363.95,-476.58 370.95,-476.46"/>
</g>
</g>
</svg>
        <g id="navigator" transform="translate(0 0)" fill="#404254">
                <rect fill="#f2f5e9" fill-opacity="0.5" stroke="#606060" stroke-width=".5" x="0" y="0" width="60" height="60"/>
                <use id="zoomplus" xlink:href="#zoomPlus" target="_top" x="17" y="9" onmousedown="handleZoom(evt,'in')"/>
                <use id="zoomminus" xlink:href="#zoomMin" target="_top" x="42" y="9" onmousedown="handleZoom(evt,'out')"/>
                <use id="reset" xlink:href="#resetDef" target="_top" x="30" y="36" onmousedown="handleReset()"/>
                <g id="arrowUp" xlink:href="#dirArrow" target="_top" transform="translate(30 24)" onmousedown="handlePan(0,-1)">
                  <use xlink:href="#rim" target="_top" fill="#404040">
                        <set attributeName="fill" to="#808080" begin="arrowUp.mouseover" end="arrowUp.mouseout"/>
                  </use>
                  <path fill="none" stroke="white" stroke-width="1.5" d="M0,-3.0v7 M-2.5,-0.5L0,-3.0L2.5,-0.5"/>
                </g>
                <g id="arrowRight" xlink:href="#dirArrow" target="_top" transform="rotate(90) translate(36 -43)" onmousedown="handlePan(1,0)">
                  <use xlink:href="#rim" target="_top" fill="#404040">
                        <set attributeName="fill" to="#808080" begin="arrowRight.mouseover" end="arrowRight.mouseout"/>
                  </use>
                  <path fill="none" stroke="white" stroke-width="1.5" d="M0,-3.0v7 M-2.5,-0.5L0,-3.0L2.5,-0.5"/>
                </g>
                <g id="arrowDown" xlink:href="#dirArrow" target="_top" transform="rotate(180) translate(-30 -48)" onmousedown="handlePan(0,1)">
                  <use xlink:href="#rim" target="_top" fill="#404040">
                        <set attributeName="fill" to="#808080" begin="arrowDown.mouseover" end="arrowDown.mouseout"/>
                  </use>
                  <path fill="none" stroke="white" stroke-width="1.5" d="M0,-3.0v7 M-2.5,-0.5L0,-3.0L2.5,-0.5"/>
                </g>
                <g id="arrowLeft" xlink:href="#dirArrow" target="_top" transform="rotate(270) translate(-36 17)" onmousedown="handlePan(-1,0)">
                  <use xlink:href="#rim" target="_top" fill="#404040">
                        <set attributeName="fill" to="#808080" begin="arrowLeft.mouseover" end="arrowLeft.mouseout"/>
                  </use>
                  <path fill="none" stroke="white" stroke-width="1.5" d="M0,-3.0v7 M-2.5,-0.5L0,-3.0L2.5,-0.5"/>
                </g>
        </g>
        <svg viewBox="0 0 15 15" width="100%" height="30px" preserveAspectRatio="xMaxYMin meet">
         <g id="arrow_out" transform="scale(0.3 0.3)">
          <a xlink:href="_bare_frame_graphic_8h__incl_org.svg" target="_top" target="_base">
           <rect id="button" ry="5" rx="5" y="6" x="6" height="38" width="38"
                fill="#f2f5e9" fill-opacity="0.5" stroke="#606060" stroke-width="1.0"/>
           <path id="arrow"
             d="M 11.500037,31.436501 C 11.940474,20.09759 22.043105,11.32322 32.158766,21.979434 L 37.068811,17.246167 C 37.068811,17.246167 37.088388,32 37.088388,32 L 22.160133,31.978069 C 22.160133,31.978069 26.997745,27.140456 26.997745,27.140456 C 18.528582,18.264221 13.291696,25.230495 11.500037,31.436501 z"
             style="fill:#404040;"/>
          </a>
         </g>
        </svg>
</svg>
