<?xml version="1.0" encoding="UTF-8" standalone="no"?>
<!DOCTYPE svg PUBLIC "-//W3C//DTD SVG 1.1//EN"
 "http://www.w3.org/Graphics/SVG/1.1/DTD/svg11.dtd">
<!-- Generated by graphviz version 2.43.0 (0)
 -->
<!-- Title: /home/tomek/CLionProjects/proi/proi&#45;projekt/src/board&#45;lib/Board.cpp Pages: 1 -->
<!--zoomable 441 -->
<svg id="main" version="1.1" xmlns="http://www.w3.org/2000/svg" xmlns:xlink="http://www.w3.org/1999/xlink" xml:space="preserve" onload="init(evt)">
<style type="text/css"><![CDATA[
.edge:hover path { stroke: red; }
.edge:hover polygon { stroke: red; fill: red; }
]]></style>
<script type="text/javascript"><![CDATA[
var edges = document.getElementsByTagName('g');
if (edges && edges.length) {
  for (var i=0;i<edges.length;i++) {
    if (edges[i].id.substr(0,4)=='edge') {
      edges[i].setAttribute('class','edge');
    }
  }
}
]]></script>
        <defs>
                <circle id="rim" cx="0" cy="0" r="7"/>
                <circle id="rim2" cx="0" cy="0" r="3.5"/>
                <g id="zoomPlus">
                        <use xlink:href="#rim" fill="#404040">
                                <set attributeName="fill" to="#808080" begin="zoomplus.mouseover" end="zoomplus.mouseout"/>
                        </use>
                        <path d="M-4,0h8M0,-4v8" fill="none" stroke="white" stroke-width="1.5" pointer-events="none"/>
                </g>
                <g id="zoomMin">
                        <use xlink:href="#rim" fill="#404040">
                                <set attributeName="fill" to="#808080" begin="zoomminus.mouseover" end="zoomminus.mouseout"/>
                        </use>
                        <path d="M-4,0h8" fill="none" stroke="white" stroke-width="1.5" pointer-events="none"/>
                </g>
                <g id="dirArrow">
                        <path fill="none" stroke="white" stroke-width="1.5" d="M0,-3.0v7 M-2.5,-0.5L0,-3.0L2.5,-0.5"/>
                </g>
               <g id="resetDef">
                       <use xlink:href="#rim2" fill="#404040">
                               <set attributeName="fill" to="#808080" begin="reset.mouseover" end="reset.mouseout"/>
                       </use>
               </g>
        </defs>

<script type="text/javascript">
var viewWidth = 1226;
var viewHeight = 441;
var sectionId = 'dynsection-0';
</script>
<script xlink:href="svgpan.js"/>
<svg id="graph" class="graph">
<g id="viewport">
<title>/home/tomek/CLionProjects/proi/proi&#45;projekt/src/board&#45;lib/Board.cpp</title>
<!-- Node1 -->
<g id="node1" class="node">
<title>Node1</title>
<g id="a_node1"><a xlink:title=" ">
<polygon fill="#bfbfbf" stroke="black" points="450.5,-391.5 450.5,-432.5 601.5,-432.5 601.5,-391.5 450.5,-391.5"/>
<text text-anchor="start" x="458.5" y="-420.5" font-family="Helvetica,sans-Serif" font-size="10.00">/home/tomek/CLionProjects</text>
<text text-anchor="start" x="458.5" y="-409.5" font-family="Helvetica,sans-Serif" font-size="10.00">/proi/proi&#45;projekt/src</text>
<text text-anchor="middle" x="526" y="-398.5" font-family="Helvetica,sans-Serif" font-size="10.00">/board&#45;lib/Board.cpp</text>
</a>
</g>
</g>
<!-- Node2 -->
<g id="node2" class="node">
<title>Node2</title>
<g id="a_node2"><a xlink:title=" ">
<polygon fill="none" stroke="#bfbfbf" points="33.5,-330 33.5,-349 80.5,-349 80.5,-330 33.5,-330"/>
<text text-anchor="middle" x="57" y="-337" font-family="Helvetica,sans-Serif" font-size="10.00">cmath</text>
</a>
</g>
</g>
<!-- Node1&#45;&gt;Node2 -->
<g id="edge1" class="edge">
<title>Node1&#45;&gt;Node2</title>
<path fill="none" stroke="midnightblue" d="M450.25,-406.57C363.37,-400.24 217.19,-385.79 95,-355 92.18,-354.29 89.27,-353.43 86.4,-352.49"/>
<polygon fill="midnightblue" stroke="midnightblue" points="87.43,-349.14 76.83,-349.08 85.07,-355.73 87.43,-349.14"/>
</g>
<!-- Node3 -->
<g id="node3" class="node">
<title>Node3</title>
<g id="a_node3"><a xlink:href="_event_queue_8h.html" target="_top" xlink:title=" ">
<polygon fill="none" stroke="black" points="496.5,-257.5 496.5,-287.5 597.5,-287.5 597.5,-257.5 496.5,-257.5"/>
<text text-anchor="start" x="504.5" y="-275.5" font-family="Helvetica,sans-Serif" font-size="10.00">../core&#45;lib/include</text>
<text text-anchor="middle" x="547" y="-264.5" font-family="Helvetica,sans-Serif" font-size="10.00">/EventQueue.h</text>
</a>
</g>
</g>
<!-- Node1&#45;&gt;Node3 -->
<g id="edge2" class="edge">
<title>Node1&#45;&gt;Node3</title>
<path fill="none" stroke="midnightblue" d="M529.01,-391.3C532.78,-366.63 539.23,-324.38 543.3,-297.75"/>
<polygon fill="midnightblue" stroke="midnightblue" points="546.78,-298.13 544.83,-287.72 539.86,-297.07 546.78,-298.13"/>
</g>
<!-- Node6 -->
<g id="node6" class="node">
<title>Node6</title>
<g id="a_node6"><a xlink:href="_event_8h.html" target="_top" xlink:title=" ">
<polygon fill="none" stroke="black" points="377.5,-257.5 377.5,-287.5 478.5,-287.5 478.5,-257.5 377.5,-257.5"/>
<text text-anchor="start" x="385.5" y="-275.5" font-family="Helvetica,sans-Serif" font-size="10.00">../core&#45;lib/include</text>
<text text-anchor="middle" x="428" y="-264.5" font-family="Helvetica,sans-Serif" font-size="10.00">/Event.h</text>
</a>
</g>
</g>
<!-- Node1&#45;&gt;Node6 -->
<g id="edge5" class="edge">
<title>Node1&#45;&gt;Node6</title>
<path fill="none" stroke="midnightblue" d="M518.66,-391.17C511.29,-372.73 498.77,-345.03 483,-324 474.86,-313.14 464.18,-302.72 454.4,-294.19"/>
<polygon fill="midnightblue" stroke="midnightblue" points="456.37,-291.28 446.47,-287.51 451.86,-296.63 456.37,-291.28"/>
</g>
<!-- Node10 -->
<g id="node10" class="node">
<title>Node10</title>
<g id="a_node10"><a xlink:title=" ">
<polygon fill="none" stroke="#bfbfbf" points="213,-196 213,-215 273,-215 273,-196 213,-196"/>
<text text-anchor="middle" x="243" y="-203" font-family="Helvetica,sans-Serif" font-size="10.00">iostream</text>
</a>
</g>
</g>
<!-- Node1&#45;&gt;Node10 -->
<g id="edge62" class="edge">
<title>Node1&#45;&gt;Node10</title>
<path fill="none" stroke="midnightblue" d="M450.53,-391.4C424.91,-382.67 396.97,-370.73 374,-355 320.25,-318.19 274.3,-254.51 254.05,-223.91"/>
<polygon fill="midnightblue" stroke="midnightblue" points="256.78,-221.69 248.4,-215.21 250.91,-225.5 256.78,-221.69"/>
</g>
<!-- Node17 -->
<g id="node17" class="node">
<title>Node17</title>
<g id="a_node17"><a xlink:href="_board_8h.html" target="_top" xlink:title=" ">
<polygon fill="none" stroke="black" points="599,-330 599,-349 691,-349 691,-330 599,-330"/>
<text text-anchor="middle" x="645" y="-337" font-family="Helvetica,sans-Serif" font-size="10.00">include/Board.h</text>
</a>
</g>
</g>
<!-- Node1&#45;&gt;Node17 -->
<g id="edge23" class="edge">
<title>Node1&#45;&gt;Node17</title>
<path fill="none" stroke="midnightblue" d="M559.15,-391.36C579.06,-379.57 603.91,-364.85 621.74,-354.28"/>
<polygon fill="midnightblue" stroke="midnightblue" points="623.54,-357.28 630.36,-349.17 619.97,-351.26 623.54,-357.28"/>
</g>
<!-- Node19 -->
<g id="node19" class="node">
<title>Node19</title>
<g id="a_node19"><a xlink:href="_grid_8h.html" target="_top" xlink:title=" ">
<polygon fill="none" stroke="black" points="864,-263 864,-282 910,-282 910,-263 864,-263"/>
<text text-anchor="middle" x="887" y="-270" font-family="Helvetica,sans-Serif" font-size="10.00">Grid.h</text>
</a>
</g>
</g>
<!-- Node1&#45;&gt;Node19 -->
<g id="edge37" class="edge">
<title>Node1&#45;&gt;Node19</title>
<path fill="none" stroke="midnightblue" d="M592.22,-391.39C624.93,-381.27 664.82,-368.29 700,-355 757.69,-333.21 823.42,-303.35 859.56,-286.49"/>
<polygon fill="midnightblue" stroke="midnightblue" points="861.36,-289.51 868.93,-282.09 858.39,-283.17 861.36,-289.51"/>
</g>
<!-- Node20 -->
<g id="node20" class="node">
<title>Node20</title>
<g id="a_node20"><a xlink:href="_grid_builder_8h.html" target="_top" xlink:title=" ">
<polygon fill="none" stroke="black" points="0,-263 0,-282 118,-282 118,-263 0,-263"/>
<text text-anchor="middle" x="59" y="-270" font-family="Helvetica,sans-Serif" font-size="10.00">include/GridBuilder.h</text>
</a>
</g>
</g>
<!-- Node1&#45;&gt;Node20 -->
<g id="edge38" class="edge">
<title>Node1&#45;&gt;Node20</title>
<path fill="none" stroke="midnightblue" d="M450.13,-406.31C351.77,-399.18 186.51,-383.37 133,-355 104.83,-340.06 81.95,-309.99 69.43,-290.84"/>
<polygon fill="midnightblue" stroke="midnightblue" points="72.28,-288.8 63.99,-282.2 66.36,-292.53 72.28,-288.8"/>
</g>
<!-- Node21 -->
<g id="node21" class="node">
<title>Node21</title>
<g id="a_node21"><a xlink:href="_tile_manager_8h.html" target="_top" xlink:title=" ">
<polygon fill="none" stroke="black" points="85,-129 85,-148 209,-148 209,-129 85,-129"/>
<text text-anchor="middle" x="147" y="-136" font-family="Helvetica,sans-Serif" font-size="10.00">include/TileManager.h</text>
</a>
</g>
</g>
<!-- Node1&#45;&gt;Node21 -->
<g id="edge40" class="edge">
<title>Node1&#45;&gt;Node21</title>
<path fill="none" stroke="midnightblue" d="M450.44,-400.99C378.72,-387.54 272.82,-356.8 210,-288 175,-249.67 157.66,-189.01 150.75,-158.44"/>
<polygon fill="midnightblue" stroke="midnightblue" points="154.1,-157.36 148.6,-148.31 147.25,-158.82 154.1,-157.36"/>
</g>
<!-- Node22 -->
<g id="node22" class="node">
<title>Node22</title>
<g id="a_node22"><a xlink:href="_bullet_8h.html" target="_top" xlink:title=" ">
<polygon fill="none" stroke="black" points="923.5,-123.5 923.5,-153.5 1024.5,-153.5 1024.5,-123.5 923.5,-123.5"/>
<text text-anchor="start" x="931.5" y="-141.5" font-family="Helvetica,sans-Serif" font-size="10.00">../tank&#45;lib/include</text>
<text text-anchor="middle" x="974" y="-130.5" font-family="Helvetica,sans-Serif" font-size="10.00">/Bullet.h</text>
</a>
</g>
</g>
<!-- Node1&#45;&gt;Node22 -->
<g id="edge42" class="edge">
<title>Node1&#45;&gt;Node22</title>
<path fill="none" stroke="midnightblue" d="M601.95,-409.88C722.31,-406.88 950.31,-395.81 1019,-355 1084.55,-316.05 1104.84,-255.62 1066,-190 1057.78,-176.11 1044.23,-165.78 1030.02,-158.22"/>
<polygon fill="midnightblue" stroke="midnightblue" points="1031.17,-154.88 1020.64,-153.64 1028.09,-161.17 1031.17,-154.88"/>
</g>
<!-- Node24 -->
<g id="node24" class="node">
<title>Node24</title>
<g id="a_node24"><a xlink:href="_bot_controller_8h.html" target="_top" xlink:title=" ">
<polygon fill="none" stroke="black" points="914.5,-324.5 914.5,-354.5 1009.5,-354.5 1009.5,-324.5 914.5,-324.5"/>
<text text-anchor="start" x="922.5" y="-342.5" font-family="Helvetica,sans-Serif" font-size="10.00">../bot&#45;lib/include</text>
<text text-anchor="middle" x="962" y="-331.5" font-family="Helvetica,sans-Serif" font-size="10.00">/BotController.h</text>
</a>
</g>
</g>
<!-- Node1&#45;&gt;Node24 -->
<g id="edge47" class="edge">
<title>Node1&#45;&gt;Node24</title>
<path fill="none" stroke="midnightblue" d="M601.95,-398.72C688.11,-384.79 826.7,-362.38 904.41,-349.81"/>
<polygon fill="midnightblue" stroke="midnightblue" points="905.18,-353.23 914.5,-348.18 904.07,-346.32 905.18,-353.23"/>
</g>
<!-- Node25 -->
<g id="node25" class="node">
<title>Node25</title>
<g id="a_node25"><a xlink:href="_eagle_8h.html" target="_top" xlink:title=" ">
<polygon fill="none" stroke="black" points="383.5,-330 383.5,-349 474.5,-349 474.5,-330 383.5,-330"/>
<text text-anchor="middle" x="429" y="-337" font-family="Helvetica,sans-Serif" font-size="10.00">include/Eagle.h</text>
</a>
</g>
</g>
<!-- Node1&#45;&gt;Node25 -->
<g id="edge54" class="edge">
<title>Node1&#45;&gt;Node25</title>
<path fill="none" stroke="midnightblue" d="M498.98,-391.36C483.2,-379.89 463.61,-365.65 449.17,-355.16"/>
<polygon fill="midnightblue" stroke="midnightblue" points="451.08,-352.22 440.93,-349.17 446.97,-357.88 451.08,-352.22"/>
</g>
<!-- Node26 -->
<g id="node26" class="node">
<title>Node26</title>
<g id="a_node26"><a xlink:href="_clock_8h.html" target="_top" xlink:title=" ">
<polygon fill="none" stroke="black" points="1042.5,-123.5 1042.5,-153.5 1143.5,-153.5 1143.5,-123.5 1042.5,-123.5"/>
<text text-anchor="start" x="1050.5" y="-141.5" font-family="Helvetica,sans-Serif" font-size="10.00">../core&#45;lib/include</text>
<text text-anchor="middle" x="1093" y="-130.5" font-family="Helvetica,sans-Serif" font-size="10.00">/Clock.h</text>
</a>
</g>
</g>
<!-- Node1&#45;&gt;Node26 -->
<g id="edge58" class="edge">
<title>Node1&#45;&gt;Node26</title>
<path fill="none" stroke="midnightblue" d="M601.72,-410.69C728.72,-408.9 978.03,-399.61 1052,-355 1115.69,-316.59 1106.07,-211.37 1097.92,-163.63"/>
<polygon fill="midnightblue" stroke="midnightblue" points="1101.33,-162.78 1096.08,-153.58 1094.44,-164.05 1101.33,-162.78"/>
</g>
<!-- Node4 -->
<g id="node4" class="node">
<title>Node4</title>
<g id="a_node4"><a xlink:title=" ">
<polygon fill="none" stroke="#bfbfbf" points="938.5,-196 938.5,-215 985.5,-215 985.5,-196 938.5,-196"/>
<text text-anchor="middle" x="962" y="-203" font-family="Helvetica,sans-Serif" font-size="10.00">queue</text>
</a>
</g>
</g>
<!-- Node3&#45;&gt;Node4 -->
<g id="edge3" class="edge">
<title>Node3&#45;&gt;Node4</title>
<path fill="none" stroke="midnightblue" d="M597.64,-265.66C694.38,-254.39 898.68,-229.95 930,-221 931.94,-220.45 933.9,-219.8 935.86,-219.08"/>
<polygon fill="midnightblue" stroke="midnightblue" points="937.51,-222.19 945.41,-215.13 934.83,-215.72 937.51,-222.19"/>
</g>
<!-- Node5 -->
<g id="node5" class="node">
<title>Node5</title>
<g id="a_node5"><a xlink:title=" ">
<polygon fill="none" stroke="#bfbfbf" points="592,-0.5 592,-19.5 650,-19.5 650,-0.5 592,-0.5"/>
<text text-anchor="middle" x="621" y="-7.5" font-family="Helvetica,sans-Serif" font-size="10.00">memory</text>
</a>
</g>
</g>
<!-- Node3&#45;&gt;Node5 -->
<g id="edge4" class="edge">
<title>Node3&#45;&gt;Node5</title>
<path fill="none" stroke="midnightblue" d="M530.18,-257.39C496.82,-229.22 424.95,-167.53 419,-154 401.48,-114.13 391.76,-89.98 419,-56 439.02,-31.03 528.97,-19.02 581.85,-14.03"/>
<polygon fill="midnightblue" stroke="midnightblue" points="582.26,-17.51 591.9,-13.12 581.63,-10.53 582.26,-17.51"/>
</g>
<!-- Node6&#45;&gt;Node5 -->
<g id="edge8" class="edge">
<title>Node6&#45;&gt;Node5</title>
<path fill="none" stroke="midnightblue" d="M377.43,-260.69C355.87,-253.31 332.78,-241.08 320,-221 281.03,-159.76 317.54,-114.46 400,-56 428.73,-35.63 526.23,-21.67 581.65,-15.16"/>
<polygon fill="midnightblue" stroke="midnightblue" points="582.27,-18.62 591.81,-14 581.47,-11.66 582.27,-18.62"/>
</g>
<!-- Node7 -->
<g id="node7" class="node">
<title>Node7</title>
<g id="a_node7"><a xlink:title=" ">
<polygon fill="none" stroke="#bfbfbf" points="855.5,-196 855.5,-215 920.5,-215 920.5,-196 855.5,-196"/>
<text text-anchor="middle" x="888" y="-203" font-family="Helvetica,sans-Serif" font-size="10.00">exception</text>
</a>
</g>
</g>
<!-- Node6&#45;&gt;Node7 -->
<g id="edge6" class="edge">
<title>Node6&#45;&gt;Node7</title>
<path fill="none" stroke="midnightblue" d="M478.77,-258.63C481.55,-258.05 484.3,-257.5 487,-257 504.47,-253.76 745.4,-224.03 845.19,-211.76"/>
<polygon fill="midnightblue" stroke="midnightblue" points="845.74,-215.22 855.24,-210.52 844.88,-208.27 845.74,-215.22"/>
</g>
<!-- Node8 -->
<g id="node8" class="node">
<title>Node8</title>
<g id="a_node8"><a xlink:title=" ">
<polygon fill="none" stroke="#bfbfbf" points="399,-196 399,-215 443,-215 443,-196 399,-196"/>
<text text-anchor="middle" x="421" y="-203" font-family="Helvetica,sans-Serif" font-size="10.00">string</text>
</a>
</g>
</g>
<!-- Node6&#45;&gt;Node8 -->
<g id="edge7" class="edge">
<title>Node6&#45;&gt;Node8</title>
<path fill="none" stroke="midnightblue" d="M426.48,-257.4C425.47,-247.96 424.12,-235.45 423.01,-225.19"/>
<polygon fill="midnightblue" stroke="midnightblue" points="426.49,-224.76 421.94,-215.19 419.53,-225.51 426.49,-224.76"/>
</g>
<!-- Node9 -->
<g id="node9" class="node">
<title>Node9</title>
<g id="a_node9"><a xlink:title=" ">
<polygon fill="none" stroke="#bfbfbf" points="329.5,-196 329.5,-215 380.5,-215 380.5,-196 329.5,-196"/>
<text text-anchor="middle" x="355" y="-203" font-family="Helvetica,sans-Serif" font-size="10.00">variant</text>
</a>
</g>
</g>
<!-- Node6&#45;&gt;Node9 -->
<g id="edge9" class="edge">
<title>Node6&#45;&gt;Node9</title>
<path fill="none" stroke="midnightblue" d="M412.16,-257.4C400.44,-246.96 384.48,-232.75 372.41,-222"/>
<polygon fill="midnightblue" stroke="midnightblue" points="374.56,-219.23 364.76,-215.19 369.91,-224.46 374.56,-219.23"/>
</g>
<!-- Node6&#45;&gt;Node10 -->
<g id="edge10" class="edge">
<title>Node6&#45;&gt;Node10</title>
<path fill="none" stroke="midnightblue" d="M387.86,-257.4C354.68,-245.74 308.1,-229.37 276.8,-218.38"/>
<polygon fill="midnightblue" stroke="midnightblue" points="277.81,-215.02 267.21,-215.01 275.49,-221.62 277.81,-215.02"/>
</g>
<!-- Node11 -->
<g id="node11" class="node">
<title>Node11</title>
<g id="a_node11"><a xlink:title=" ">
<polygon fill="none" stroke="#bfbfbf" points="499,-129 499,-148 555,-148 555,-129 499,-129"/>
<text text-anchor="middle" x="527" y="-136" font-family="Helvetica,sans-Serif" font-size="10.00">optional</text>
</a>
</g>
</g>
<!-- Node6&#45;&gt;Node11 -->
<g id="edge11" class="edge">
<title>Node6&#45;&gt;Node11</title>
<path fill="none" stroke="midnightblue" d="M447.36,-257.34C459.24,-247.97 474.21,-234.88 485,-221 500.37,-201.23 512.71,-174.97 519.94,-157.67"/>
<polygon fill="midnightblue" stroke="midnightblue" points="523.27,-158.78 523.77,-148.2 516.78,-156.16 523.27,-158.78"/>
</g>
<!-- Node12 -->
<g id="node12" class="node">
<title>Node12</title>
<g id="a_node12"><a xlink:href="_entity_8h.html" target="_top" xlink:title=" ">
<polygon fill="none" stroke="black" points="483,-56.5 483,-86.5 593,-86.5 593,-56.5 483,-56.5"/>
<text text-anchor="start" x="491" y="-74.5" font-family="Helvetica,sans-Serif" font-size="10.00">../../tank&#45;lib/include</text>
<text text-anchor="middle" x="538" y="-63.5" font-family="Helvetica,sans-Serif" font-size="10.00">/Entity.h</text>
</a>
</g>
</g>
<!-- Node6&#45;&gt;Node12 -->
<g id="edge12" class="edge">
<title>Node6&#45;&gt;Node12</title>
<path fill="none" stroke="midnightblue" d="M435.01,-257.48C439.95,-247.41 446.62,-233.48 452,-221 470.48,-178.1 464.99,-162.46 490,-123 496.71,-112.41 505.86,-102.12 514.36,-93.62"/>
<polygon fill="midnightblue" stroke="midnightblue" points="516.83,-96.11 521.6,-86.65 511.97,-91.07 516.83,-96.11"/>
</g>
<!-- Node13 -->
<g id="node13" class="node">
<title>Node13</title>
<g id="a_node13"><a xlink:href="_tank_8h.html" target="_top" xlink:title=" ">
<polygon fill="none" stroke="black" points="651,-190.5 651,-220.5 761,-220.5 761,-190.5 651,-190.5"/>
<text text-anchor="start" x="659" y="-208.5" font-family="Helvetica,sans-Serif" font-size="10.00">../../tank&#45;lib/include</text>
<text text-anchor="middle" x="706" y="-197.5" font-family="Helvetica,sans-Serif" font-size="10.00">/Tank.h</text>
</a>
</g>
</g>
<!-- Node6&#45;&gt;Node13 -->
<g id="edge13" class="edge">
<title>Node6&#45;&gt;Node13</title>
<path fill="none" stroke="midnightblue" d="M478.52,-259.03C481.39,-258.34 484.23,-257.66 487,-257 538.59,-244.71 597.13,-231.24 640.7,-221.3"/>
<polygon fill="midnightblue" stroke="midnightblue" points="641.62,-224.68 650.59,-219.04 640.07,-217.85 641.62,-224.68"/>
</g>
<!-- Node13&#45;&gt;Node5 -->
<g id="edge14" class="edge">
<title>Node13&#45;&gt;Node5</title>
<path fill="none" stroke="midnightblue" d="M678.6,-190.42C664.73,-181.81 648.97,-169.48 640,-154 617.17,-114.57 617.19,-58.96 619.12,-30.08"/>
<polygon fill="midnightblue" stroke="midnightblue" points="622.63,-30.03 619.97,-19.78 615.66,-29.46 622.63,-30.03"/>
</g>
<!-- Node13&#45;&gt;Node11 -->
<g id="edge15" class="edge">
<title>Node13&#45;&gt;Node11</title>
<path fill="none" stroke="midnightblue" d="M667.16,-190.4C635.2,-178.79 590.38,-162.51 560.1,-151.52"/>
<polygon fill="midnightblue" stroke="midnightblue" points="561.02,-148.13 550.43,-148.01 558.63,-154.71 561.02,-148.13"/>
</g>
<!-- Node13&#45;&gt;Node12 -->
<g id="edge19" class="edge">
<title>Node13&#45;&gt;Node12</title>
<path fill="none" stroke="midnightblue" d="M670.08,-190.34C650.34,-181.57 626.06,-169.1 607,-154 585.72,-137.14 566.2,-112.89 553.4,-95.23"/>
<polygon fill="midnightblue" stroke="midnightblue" points="555.97,-92.81 547.34,-86.67 550.26,-96.86 555.97,-92.81"/>
</g>
<!-- Node14 -->
<g id="node14" class="node">
<title>Node14</title>
<g id="a_node14"><a xlink:href="_simple_subscriber_8h.html" target="_top" xlink:title=" ">
<polygon fill="none" stroke="black" points="677.5,-56.5 677.5,-86.5 790.5,-86.5 790.5,-56.5 677.5,-56.5"/>
<text text-anchor="start" x="685.5" y="-74.5" font-family="Helvetica,sans-Serif" font-size="10.00">../../core&#45;lib/include</text>
<text text-anchor="middle" x="734" y="-63.5" font-family="Helvetica,sans-Serif" font-size="10.00">/SimpleSubscriber.h</text>
</a>
</g>
</g>
<!-- Node13&#45;&gt;Node14 -->
<g id="edge16" class="edge">
<title>Node13&#45;&gt;Node14</title>
<path fill="none" stroke="midnightblue" d="M729.47,-190.32C741.63,-181.54 755.3,-169.07 762,-154 770.62,-134.62 761.11,-111.72 750.9,-95.13"/>
<polygon fill="midnightblue" stroke="midnightblue" points="753.71,-93.03 745.27,-86.63 747.88,-96.9 753.71,-93.03"/>
</g>
<!-- Node16 -->
<g id="node16" class="node">
<title>Node16</title>
<g id="a_node16"><a xlink:href="_bot_8h.html" target="_top" xlink:title=" ">
<polygon fill="none" stroke="black" points="649,-123.5 649,-153.5 753,-153.5 753,-123.5 649,-123.5"/>
<text text-anchor="start" x="657" y="-141.5" font-family="Helvetica,sans-Serif" font-size="10.00">../../bot&#45;lib/include</text>
<text text-anchor="middle" x="701" y="-130.5" font-family="Helvetica,sans-Serif" font-size="10.00">/Bot.h</text>
</a>
</g>
</g>
<!-- Node13&#45;&gt;Node16 -->
<g id="edge20" class="edge">
<title>Node13&#45;&gt;Node16</title>
<path fill="none" stroke="midnightblue" d="M704.92,-190.4C704.31,-182.56 703.55,-172.6 702.85,-163.57"/>
<polygon fill="midnightblue" stroke="midnightblue" points="706.34,-163.28 702.08,-153.58 699.36,-163.82 706.34,-163.28"/>
</g>
<!-- Node14&#45;&gt;Node5 -->
<g id="edge18" class="edge">
<title>Node14&#45;&gt;Node5</title>
<path fill="none" stroke="midnightblue" d="M707.22,-56.4C688.94,-46.77 664.85,-34.09 646.79,-24.58"/>
<polygon fill="midnightblue" stroke="midnightblue" points="647.92,-21.22 637.44,-19.66 644.66,-27.41 647.92,-21.22"/>
</g>
<!-- Node15 -->
<g id="node15" class="node">
<title>Node15</title>
<g id="a_node15"><a xlink:title=" ">
<polygon fill="none" stroke="#bfbfbf" points="1148.5,-0.5 1148.5,-19.5 1195.5,-19.5 1195.5,-0.5 1148.5,-0.5"/>
<text text-anchor="middle" x="1172" y="-7.5" font-family="Helvetica,sans-Serif" font-size="10.00">vector</text>
</a>
</g>
</g>
<!-- Node14&#45;&gt;Node15 -->
<g id="edge17" class="edge">
<title>Node14&#45;&gt;Node15</title>
<path fill="none" stroke="midnightblue" d="M790.81,-62.78C883.25,-50.23 1063.4,-25.75 1138.19,-15.59"/>
<polygon fill="midnightblue" stroke="midnightblue" points="1139,-19.02 1148.44,-14.2 1138.06,-12.08 1139,-19.02"/>
</g>
<!-- Node16&#45;&gt;Node12 -->
<g id="edge21" class="edge">
<title>Node16&#45;&gt;Node12</title>
<path fill="none" stroke="midnightblue" d="M665.63,-123.4C641.28,-113.69 608.74,-100.71 582.61,-90.29"/>
<polygon fill="midnightblue" stroke="midnightblue" points="583.88,-87.03 573.3,-86.58 581.29,-93.53 583.88,-87.03"/>
</g>
<!-- Node16&#45;&gt;Node14 -->
<g id="edge22" class="edge">
<title>Node16&#45;&gt;Node14</title>
<path fill="none" stroke="midnightblue" d="M708.16,-123.4C712.27,-115.3 717.53,-104.94 722.23,-95.69"/>
<polygon fill="midnightblue" stroke="midnightblue" points="725.45,-97.08 726.85,-86.58 719.21,-93.91 725.45,-97.08"/>
</g>
<!-- Node17&#45;&gt;Node3 -->
<g id="edge25" class="edge">
<title>Node17&#45;&gt;Node3</title>
<path fill="none" stroke="midnightblue" d="M631.78,-329.73C617.77,-320.44 595.19,-305.46 576.85,-293.3"/>
<polygon fill="midnightblue" stroke="midnightblue" points="578.51,-290.2 568.24,-287.59 574.64,-296.03 578.51,-290.2"/>
</g>
<!-- Node17&#45;&gt;Node5 -->
<g id="edge24" class="edge">
<title>Node17&#45;&gt;Node5</title>
<path fill="none" stroke="midnightblue" d="M642.27,-329.78C637.1,-314.14 624.78,-280.75 607,-257 565.48,-201.54 525.72,-213.36 490,-154 474.22,-127.77 477.58,-117.41 474,-87 472.39,-73.32 465.81,-67.08 474,-56 498.52,-22.84 547,-13.32 581.57,-10.98"/>
<polygon fill="midnightblue" stroke="midnightblue" points="582.01,-14.46 591.82,-10.46 581.65,-7.47 582.01,-14.46"/>
</g>
<!-- Node17&#45;&gt;Node13 -->
<g id="edge26" class="edge">
<title>Node17&#45;&gt;Node13</title>
<path fill="none" stroke="midnightblue" d="M649,-329.84C658.24,-309.85 681.32,-259.9 695.11,-230.06"/>
<polygon fill="midnightblue" stroke="midnightblue" points="698.38,-231.33 699.4,-220.78 692.03,-228.39 698.38,-231.33"/>
</g>
<!-- Node18 -->
<g id="node18" class="node">
<title>Node18</title>
<g id="a_node18"><a xlink:href="_entity_controller_8h.html" target="_top" xlink:title=" ">
<polygon fill="none" stroke="black" points="692,-257.5 692,-287.5 802,-287.5 802,-257.5 692,-257.5"/>
<text text-anchor="start" x="700" y="-275.5" font-family="Helvetica,sans-Serif" font-size="10.00">../../tank&#45;lib/include</text>
<text text-anchor="middle" x="747" y="-264.5" font-family="Helvetica,sans-Serif" font-size="10.00">/EntityController.h</text>
</a>
</g>
</g>
<!-- Node17&#45;&gt;Node18 -->
<g id="edge27" class="edge">
<title>Node17&#45;&gt;Node18</title>
<path fill="none" stroke="midnightblue" d="M658.76,-329.73C673.47,-320.36 697.27,-305.19 716.45,-292.97"/>
<polygon fill="midnightblue" stroke="midnightblue" points="718.34,-295.91 724.89,-287.59 714.58,-290.01 718.34,-295.91"/>
</g>
<!-- Node17&#45;&gt;Node19 -->
<g id="edge32" class="edge">
<title>Node17&#45;&gt;Node19</title>
<path fill="none" stroke="midnightblue" d="M676.89,-329.94C722.83,-317.6 807.22,-294.93 853.85,-282.4"/>
<polygon fill="midnightblue" stroke="midnightblue" points="855,-285.72 863.75,-279.74 853.19,-278.96 855,-285.72"/>
</g>
<!-- Node18&#45;&gt;Node5 -->
<g id="edge29" class="edge">
<title>Node18&#45;&gt;Node5</title>
<path fill="none" stroke="midnightblue" d="M757.67,-257.48C784.43,-220.48 848.92,-118.74 800,-56 782.97,-34.16 707.36,-21.3 660.02,-15.25"/>
<polygon fill="midnightblue" stroke="midnightblue" points="660.44,-11.78 650.09,-14.03 659.59,-18.72 660.44,-11.78"/>
</g>
<!-- Node18&#45;&gt;Node11 -->
<g id="edge30" class="edge">
<title>Node18&#45;&gt;Node11</title>
<path fill="none" stroke="midnightblue" d="M714.06,-257.46C692.97,-248.04 665.3,-234.85 642,-221 621.75,-208.96 618.2,-203.65 599,-190 581.69,-177.69 561.93,-163.84 547.49,-153.77"/>
<polygon fill="midnightblue" stroke="midnightblue" points="549.47,-150.88 539.26,-148.03 545.46,-156.62 549.47,-150.88"/>
</g>
<!-- Node18&#45;&gt;Node13 -->
<g id="edge31" class="edge">
<title>Node18&#45;&gt;Node13</title>
<path fill="none" stroke="midnightblue" d="M738.1,-257.4C732.89,-249.13 726.19,-238.51 720.26,-229.1"/>
<polygon fill="midnightblue" stroke="midnightblue" points="723.17,-227.17 714.88,-220.58 717.25,-230.9 723.17,-227.17"/>
</g>
<!-- Node18&#45;&gt;Node15 -->
<g id="edge28" class="edge">
<title>Node18&#45;&gt;Node15</title>
<path fill="none" stroke="midnightblue" d="M762.15,-257.35C785.14,-236.2 828.13,-197.99 847,-190 910.05,-163.31 1104.22,-202.05 1153,-154 1186.22,-121.27 1181.17,-60.5 1175.94,-29.79"/>
<polygon fill="midnightblue" stroke="midnightblue" points="1179.31,-28.79 1174.01,-19.62 1172.44,-30.09 1179.31,-28.79"/>
</g>
<!-- Node19&#45;&gt;Node4 -->
<g id="edge35" class="edge">
<title>Node19&#45;&gt;Node4</title>
<path fill="none" stroke="midnightblue" d="M897.11,-262.73C909.15,-252.31 929.45,-234.71 944.15,-221.97"/>
<polygon fill="midnightblue" stroke="midnightblue" points="946.78,-224.32 952.05,-215.13 942.2,-219.03 946.78,-224.32"/>
</g>
<!-- Node19&#45;&gt;Node7 -->
<g id="edge33" class="edge">
<title>Node19&#45;&gt;Node7</title>
<path fill="none" stroke="midnightblue" d="M887.13,-262.73C887.28,-253.18 887.52,-237.62 887.71,-225.28"/>
<polygon fill="midnightblue" stroke="midnightblue" points="891.21,-225.18 887.87,-215.13 884.21,-225.07 891.21,-225.18"/>
</g>
<!-- Node19&#45;&gt;Node13 -->
<g id="edge36" class="edge">
<title>Node19&#45;&gt;Node13</title>
<path fill="none" stroke="midnightblue" d="M863.71,-263.14C836.3,-253.29 790.06,-236.69 754.72,-224"/>
<polygon fill="midnightblue" stroke="midnightblue" points="755.66,-220.61 745.06,-220.53 753.29,-227.2 755.66,-220.61"/>
</g>
<!-- Node19&#45;&gt;Node15 -->
<g id="edge34" class="edge">
<title>Node19&#45;&gt;Node15</title>
<path fill="none" stroke="midnightblue" d="M910.21,-270.62C968.61,-266.99 1121.61,-248.48 1186,-154 1212.02,-115.81 1193.05,-58.01 1180.58,-28.98"/>
<polygon fill="midnightblue" stroke="midnightblue" points="1183.68,-27.35 1176.37,-19.67 1177.3,-30.23 1183.68,-27.35"/>
</g>
<!-- Node20&#45;&gt;Node5 -->
<g id="edge39" class="edge">
<title>Node20&#45;&gt;Node5</title>
<path fill="none" stroke="midnightblue" d="M57.31,-262.77C53.04,-238.15 44.34,-167.04 76,-123 116.97,-66.01 151.45,-75.05 219,-56 348.33,-19.54 508.91,-12.44 581.77,-11.18"/>
<polygon fill="midnightblue" stroke="midnightblue" points="581.92,-14.68 591.87,-11.04 581.82,-7.68 581.92,-14.68"/>
</g>
<!-- Node21&#45;&gt;Node5 -->
<g id="edge41" class="edge">
<title>Node21&#45;&gt;Node5</title>
<path fill="none" stroke="midnightblue" d="M158.22,-128.85C181.05,-111.77 235.13,-73.8 287,-56 389.28,-20.9 517.95,-13.03 581.61,-11.36"/>
<polygon fill="midnightblue" stroke="midnightblue" points="582.06,-14.85 591.98,-11.13 581.91,-7.85 582.06,-14.85"/>
</g>
<!-- Node22&#45;&gt;Node12 -->
<g id="edge46" class="edge">
<title>Node22&#45;&gt;Node12</title>
<path fill="none" stroke="midnightblue" d="M923.13,-129.92C843.83,-118.09 690.79,-95.28 603.4,-82.25"/>
<polygon fill="midnightblue" stroke="midnightblue" points="603.74,-78.76 593.34,-80.75 602.71,-85.69 603.74,-78.76"/>
</g>
<!-- Node23 -->
<g id="node23" class="node">
<title>Node23</title>
<g id="a_node23"><a xlink:href="_simple_publisher_8h.html" target="_top" xlink:title=" ">
<polygon fill="none" stroke="black" points="961,-56.5 961,-86.5 1071,-86.5 1071,-56.5 961,-56.5"/>
<text text-anchor="start" x="969" y="-74.5" font-family="Helvetica,sans-Serif" font-size="10.00">../../core&#45;lib/include</text>
<text text-anchor="middle" x="1016" y="-63.5" font-family="Helvetica,sans-Serif" font-size="10.00">/SimplePublisher.h</text>
</a>
</g>
</g>
<!-- Node22&#45;&gt;Node23 -->
<g id="edge43" class="edge">
<title>Node22&#45;&gt;Node23</title>
<path fill="none" stroke="midnightblue" d="M983.11,-123.4C988.45,-115.13 995.32,-104.51 1001.4,-95.1"/>
<polygon fill="midnightblue" stroke="midnightblue" points="1004.42,-96.88 1006.9,-86.58 998.54,-93.08 1004.42,-96.88"/>
</g>
<!-- Node23&#45;&gt;Node5 -->
<g id="edge44" class="edge">
<title>Node23&#45;&gt;Node5</title>
<path fill="none" stroke="midnightblue" d="M960.7,-58.52C956.08,-57.63 951.46,-56.78 947,-56 844.04,-38.1 721.78,-22.8 660.36,-15.53"/>
<polygon fill="midnightblue" stroke="midnightblue" points="660.67,-12.04 650.33,-14.35 659.85,-19 660.67,-12.04"/>
</g>
<!-- Node23&#45;&gt;Node15 -->
<g id="edge45" class="edge">
<title>Node23&#45;&gt;Node15</title>
<path fill="none" stroke="midnightblue" d="M1052.97,-56.4C1079.38,-46.33 1114.56,-32.91 1139.81,-23.28"/>
<polygon fill="midnightblue" stroke="midnightblue" points="1141.2,-26.49 1149.3,-19.66 1138.71,-19.95 1141.2,-26.49"/>
</g>
<!-- Node24&#45;&gt;Node3 -->
<g id="edge52" class="edge">
<title>Node24&#45;&gt;Node3</title>
<path fill="none" stroke="midnightblue" d="M914.39,-331.04C838.67,-319.18 690.87,-296.03 607.66,-283"/>
<polygon fill="midnightblue" stroke="midnightblue" points="608.02,-279.51 597.6,-281.43 606.94,-286.43 608.02,-279.51"/>
</g>
<!-- Node24&#45;&gt;Node4 -->
<g id="edge50" class="edge">
<title>Node24&#45;&gt;Node4</title>
<path fill="none" stroke="midnightblue" d="M962,-324.37C962,-300.5 962,-252.18 962,-225.41"/>
<polygon fill="midnightblue" stroke="midnightblue" points="965.5,-225.1 962,-215.1 958.5,-225.1 965.5,-225.1"/>
</g>
<!-- Node24&#45;&gt;Node5 -->
<g id="edge48" class="edge">
<title>Node24&#45;&gt;Node5</title>
<path fill="none" stroke="midnightblue" d="M981.35,-324.44C992.17,-315.38 1004.71,-302.58 1011,-288 1028.27,-247.99 1039,-225.69 1014,-190 987.14,-151.65 954.23,-179.56 915,-154 864.43,-121.05 873.56,-85.66 821,-56 770.14,-27.3 702.31,-16.9 660.16,-13.14"/>
<polygon fill="midnightblue" stroke="midnightblue" points="660.27,-9.64 650.02,-12.32 659.71,-16.61 660.27,-9.64"/>
</g>
<!-- Node24&#45;&gt;Node6 -->
<g id="edge53" class="edge">
<title>Node24&#45;&gt;Node6</title>
<path fill="none" stroke="midnightblue" d="M914.17,-335.56C829.95,-329.92 649.59,-315.75 488.83,-288.18"/>
<polygon fill="midnightblue" stroke="midnightblue" points="489.21,-284.7 478.76,-286.44 488.01,-291.6 489.21,-284.7"/>
</g>
<!-- Node24&#45;&gt;Node14 -->
<g id="edge51" class="edge">
<title>Node24&#45;&gt;Node14</title>
<path fill="none" stroke="midnightblue" d="M971.91,-324.3C990.36,-295.96 1025.44,-231.54 995,-190 963.59,-147.14 929.81,-174.99 881,-154 839.39,-136.11 794.21,-109.96 765.07,-92.14"/>
<polygon fill="midnightblue" stroke="midnightblue" points="766.55,-88.93 756.2,-86.66 762.87,-94.89 766.55,-88.93"/>
</g>
<!-- Node24&#45;&gt;Node15 -->
<g id="edge49" class="edge">
<title>Node24&#45;&gt;Node15</title>
<path fill="none" stroke="midnightblue" d="M1000.11,-324.34C1058.75,-300.07 1168.17,-244.24 1205,-154 1221.47,-113.66 1222.42,-97.12 1208,-56 1204.21,-45.21 1196.63,-35.08 1189.4,-27.18"/>
<polygon fill="midnightblue" stroke="midnightblue" points="1191.67,-24.49 1182.16,-19.81 1186.67,-29.4 1191.67,-24.49"/>
</g>
<!-- Node25&#45;&gt;Node3 -->
<g id="edge56" class="edge">
<title>Node25&#45;&gt;Node3</title>
<path fill="none" stroke="midnightblue" d="M444.91,-329.73C462.16,-320.23 490.22,-304.78 512.56,-292.47"/>
<polygon fill="midnightblue" stroke="midnightblue" points="514.35,-295.48 521.42,-287.59 510.98,-289.35 514.35,-295.48"/>
</g>
<!-- Node25&#45;&gt;Node6 -->
<g id="edge57" class="edge">
<title>Node25&#45;&gt;Node6</title>
<path fill="none" stroke="midnightblue" d="M428.87,-329.73C428.74,-321.54 428.54,-308.92 428.37,-297.71"/>
<polygon fill="midnightblue" stroke="midnightblue" points="431.87,-297.53 428.22,-287.59 424.87,-297.64 431.87,-297.53"/>
</g>
<!-- Node25&#45;&gt;Node12 -->
<g id="edge55" class="edge">
<title>Node25&#45;&gt;Node12</title>
<path fill="none" stroke="midnightblue" d="M388.08,-329.98C309.82,-311.78 151.18,-264.57 204,-190 264.86,-104.07 393.83,-80.53 472.51,-74.36"/>
<polygon fill="midnightblue" stroke="midnightblue" points="473.06,-77.83 482.79,-73.63 472.56,-70.84 473.06,-77.83"/>
</g>
<!-- Node26&#45;&gt;Node5 -->
<g id="edge59" class="edge">
<title>Node26&#45;&gt;Node5</title>
<path fill="none" stroke="midnightblue" d="M1043.28,-123.46C1015.61,-114.73 981,-102.25 952,-87 931.15,-76.03 930.79,-64.95 909,-56 825.05,-21.51 717.38,-13.26 660.43,-11.41"/>
<polygon fill="midnightblue" stroke="midnightblue" points="660.49,-7.91 650.4,-11.14 660.3,-14.91 660.49,-7.91"/>
</g>
<!-- Node26&#45;&gt;Node23 -->
<g id="edge61" class="edge">
<title>Node26&#45;&gt;Node23</title>
<path fill="none" stroke="midnightblue" d="M1076.29,-123.4C1065.8,-114.54 1052.08,-102.96 1040.39,-93.09"/>
<polygon fill="midnightblue" stroke="midnightblue" points="1042.57,-90.35 1032.68,-86.58 1038.06,-95.7 1042.57,-90.35"/>
</g>
<!-- Node27 -->
<g id="node27" class="node">
<title>Node27</title>
<g id="a_node27"><a xlink:title=" ">
<polygon fill="none" stroke="#bfbfbf" points="1089,-62 1089,-81 1139,-81 1139,-62 1089,-62"/>
<text text-anchor="middle" x="1114" y="-69" font-family="Helvetica,sans-Serif" font-size="10.00">chrono</text>
</a>
</g>
</g>
<!-- Node26&#45;&gt;Node27 -->
<g id="edge60" class="edge">
<title>Node26&#45;&gt;Node27</title>
<path fill="none" stroke="midnightblue" d="M1097.56,-123.4C1100.64,-113.86 1104.73,-101.18 1108.07,-90.86"/>
<polygon fill="midnightblue" stroke="midnightblue" points="1111.45,-91.79 1111.19,-81.19 1104.79,-89.63 1111.45,-91.79"/>
</g>
</g>
</svg>
        <g id="navigator" transform="translate(0 0)" fill="#404254">
                <rect fill="#f2f5e9" fill-opacity="0.5" stroke="#606060" stroke-width=".5" x="0" y="0" width="60" height="60"/>
                <use id="zoomplus" xlink:href="#zoomPlus" x="17" y="9" onmousedown="handleZoom(evt,'in')"/>
                <use id="zoomminus" xlink:href="#zoomMin" x="42" y="9" onmousedown="handleZoom(evt,'out')"/>
                <use id="reset" xlink:href="#resetDef" x="30" y="36" onmousedown="handleReset()"/>
                <g id="arrowUp" xlink:href="#dirArrow" transform="translate(30 24)" onmousedown="handlePan(0,-1)">
                  <use xlink:href="#rim" fill="#404040">
                        <set attributeName="fill" to="#808080" begin="arrowUp.mouseover" end="arrowUp.mouseout"/>
                  </use>
                  <path fill="none" stroke="white" stroke-width="1.5" d="M0,-3.0v7 M-2.5,-0.5L0,-3.0L2.5,-0.5"/>
                </g>
                <g id="arrowRight" xlink:href="#dirArrow" transform="rotate(90) translate(36 -43)" onmousedown="handlePan(1,0)">
                  <use xlink:href="#rim" fill="#404040">
                        <set attributeName="fill" to="#808080" begin="arrowRight.mouseover" end="arrowRight.mouseout"/>
                  </use>
                  <path fill="none" stroke="white" stroke-width="1.5" d="M0,-3.0v7 M-2.5,-0.5L0,-3.0L2.5,-0.5"/>
                </g>
                <g id="arrowDown" xlink:href="#dirArrow" transform="rotate(180) translate(-30 -48)" onmousedown="handlePan(0,1)">
                  <use xlink:href="#rim" fill="#404040">
                        <set attributeName="fill" to="#808080" begin="arrowDown.mouseover" end="arrowDown.mouseout"/>
                  </use>
                  <path fill="none" stroke="white" stroke-width="1.5" d="M0,-3.0v7 M-2.5,-0.5L0,-3.0L2.5,-0.5"/>
                </g>
                <g id="arrowLeft" xlink:href="#dirArrow" transform="rotate(270) translate(-36 17)" onmousedown="handlePan(-1,0)">
                  <use xlink:href="#rim" fill="#404040">
                        <set attributeName="fill" to="#808080" begin="arrowLeft.mouseover" end="arrowLeft.mouseout"/>
                  </use>
                  <path fill="none" stroke="white" stroke-width="1.5" d="M0,-3.0v7 M-2.5,-0.5L0,-3.0L2.5,-0.5"/>
                </g>
        </g>
        <svg viewBox="0 0 15 15" width="100%" height="30px" preserveAspectRatio="xMaxYMin meet">
         <g id="arrow_out" transform="scale(0.3 0.3)">
          <a xlink:href="_board_8cpp__incl_org.svg" target="_base">
           <rect id="button" ry="5" rx="5" y="6" x="6" height="38" width="38"
                fill="#f2f5e9" fill-opacity="0.5" stroke="#606060" stroke-width="1.0"/>
           <path id="arrow"
             d="M 11.500037,31.436501 C 11.940474,20.09759 22.043105,11.32322 32.158766,21.979434 L 37.068811,17.246167 C 37.068811,17.246167 37.088388,32 37.088388,32 L 22.160133,31.978069 C 22.160133,31.978069 26.997745,27.140456 26.997745,27.140456 C 18.528582,18.264221 13.291696,25.230495 11.500037,31.436501 z"
             style="fill:#404040;"/>
          </a>
         </g>
        </svg>
</svg>
