<?xml version="1.0" encoding="UTF-8" standalone="no"?>
<!DOCTYPE svg PUBLIC "-//W3C//DTD SVG 1.1//EN"
 "http://www.w3.org/Graphics/SVG/1.1/DTD/svg11.dtd">
<!-- Generated by graphviz version 2.43.0 (0)
 -->
<!-- Title: /home/tomek/CLionProjects/proi/proi&#45;projekt/src/board&#45;lib/include/Board.h Pages: 1 -->
<svg width="429pt" height="240pt"
 viewBox="0.00 0.00 429.00 240.00" xmlns="http://www.w3.org/2000/svg" xmlns:xlink="http://www.w3.org/1999/xlink">
<g id="graph0" class="graph" transform="scale(1 1) rotate(0) translate(4 236)">
<title>/home/tomek/CLionProjects/proi/proi&#45;projekt/src/board&#45;lib/include/Board.h</title>
<!-- Node1 -->
<g id="node1" class="node">
<title>Node1</title>
<g id="a_node1"><a xlink:title=" ">
<polygon fill="#bfbfbf" stroke="black" points="0,-190.5 0,-231.5 151,-231.5 151,-190.5 0,-190.5"/>
<text text-anchor="start" x="8" y="-219.5" font-family="Helvetica,sans-Serif" font-size="10.00">/home/tomek/CLionProjects</text>
<text text-anchor="start" x="8" y="-208.5" font-family="Helvetica,sans-Serif" font-size="10.00">/proi/proi&#45;projekt/src</text>
<text text-anchor="middle" x="75.5" y="-197.5" font-family="Helvetica,sans-Serif" font-size="10.00">/board&#45;lib/include/Board.h</text>
</a>
</g>
</g>
<!-- Node2 -->
<g id="node2" class="node">
<title>Node2</title>
<g id="a_node2"><a xlink:title=" ">
<polygon fill="none" stroke="#bfbfbf" points="53.5,-0.5 53.5,-19.5 111.5,-19.5 111.5,-0.5 53.5,-0.5"/>
<text text-anchor="middle" x="82.5" y="-7.5" font-family="Helvetica,sans-Serif" font-size="10.00">memory</text>
</a>
</g>
</g>
<!-- Node1&#45;&gt;Node2 -->
<g id="edge1" class="edge">
<title>Node1&#45;&gt;Node2</title>
<path fill="none" stroke="midnightblue" d="M43.01,-190.31C30.74,-180.98 18.15,-168.65 11.5,-154 5.81,-141.45 8.46,-136.44 11.5,-123 18.79,-90.82 25.42,-83.61 43.5,-56 50.21,-45.75 59.07,-35.35 66.64,-27.13"/>
<polygon fill="midnightblue" stroke="midnightblue" points="69.32,-29.39 73.66,-19.73 64.24,-24.57 69.32,-29.39"/>
</g>
<!-- Node3 -->
<g id="node3" class="node">
<title>Node3</title>
<g id="a_node3"><a xlink:href="_event_queue_8h.html" target="_top" xlink:title=" ">
<polygon fill="none" stroke="black" points="20.5,-123.5 20.5,-153.5 130.5,-153.5 130.5,-123.5 20.5,-123.5"/>
<text text-anchor="start" x="28.5" y="-141.5" font-family="Helvetica,sans-Serif" font-size="10.00">../../core&#45;lib/include</text>
<text text-anchor="middle" x="75.5" y="-130.5" font-family="Helvetica,sans-Serif" font-size="10.00">/EventQueue.h</text>
</a>
</g>
</g>
<!-- Node1&#45;&gt;Node3 -->
<g id="edge2" class="edge">
<title>Node1&#45;&gt;Node3</title>
<path fill="none" stroke="midnightblue" d="M75.5,-190.36C75.5,-182.23 75.5,-172.7 75.5,-164.11"/>
<polygon fill="midnightblue" stroke="midnightblue" points="79,-163.89 75.5,-153.89 72,-163.89 79,-163.89"/>
</g>
<!-- Node5 -->
<g id="node5" class="node">
<title>Node5</title>
<g id="a_node5"><a xlink:href="_tank_8h.html" target="_top" xlink:title=" ">
<polygon fill="none" stroke="black" points="148.5,-123.5 148.5,-153.5 258.5,-153.5 258.5,-123.5 148.5,-123.5"/>
<text text-anchor="start" x="156.5" y="-141.5" font-family="Helvetica,sans-Serif" font-size="10.00">../../tank&#45;lib/include</text>
<text text-anchor="middle" x="203.5" y="-130.5" font-family="Helvetica,sans-Serif" font-size="10.00">/Tank.h</text>
</a>
</g>
</g>
<!-- Node1&#45;&gt;Node5 -->
<g id="edge5" class="edge">
<title>Node1&#45;&gt;Node5</title>
<path fill="none" stroke="midnightblue" d="M111.16,-190.36C129.17,-180.44 150.94,-168.45 168.82,-158.6"/>
<polygon fill="midnightblue" stroke="midnightblue" points="170.7,-161.56 177.77,-153.67 167.33,-155.43 170.7,-161.56"/>
</g>
<!-- Node3&#45;&gt;Node2 -->
<g id="edge4" class="edge">
<title>Node3&#45;&gt;Node2</title>
<path fill="none" stroke="midnightblue" d="M65.46,-123.34C55.2,-107.07 41.78,-79.57 49.5,-56 52.99,-45.34 60.07,-35.12 66.79,-27.12"/>
<polygon fill="midnightblue" stroke="midnightblue" points="69.4,-29.44 73.48,-19.66 64.2,-24.76 69.4,-29.44"/>
</g>
<!-- Node4 -->
<g id="node4" class="node">
<title>Node4</title>
<g id="a_node4"><a xlink:title=" ">
<polygon fill="none" stroke="#bfbfbf" points="59,-62 59,-81 106,-81 106,-62 59,-62"/>
<text text-anchor="middle" x="82.5" y="-69" font-family="Helvetica,sans-Serif" font-size="10.00">queue</text>
</a>
</g>
</g>
<!-- Node3&#45;&gt;Node4 -->
<g id="edge3" class="edge">
<title>Node3&#45;&gt;Node4</title>
<path fill="none" stroke="midnightblue" d="M77.02,-123.4C78.03,-113.96 79.38,-101.45 80.49,-91.19"/>
<polygon fill="midnightblue" stroke="midnightblue" points="83.97,-91.51 81.56,-81.19 77.01,-90.76 83.97,-91.51"/>
</g>
<!-- Node5&#45;&gt;Node2 -->
<g id="edge6" class="edge">
<title>Node5&#45;&gt;Node2</title>
<path fill="none" stroke="midnightblue" d="M189.38,-123.46C179.3,-113.39 165.47,-99.45 153.5,-87 133.86,-66.58 111.61,-42.63 97.34,-27.16"/>
<polygon fill="midnightblue" stroke="midnightblue" points="99.65,-24.5 90.3,-19.51 94.5,-29.24 99.65,-24.5"/>
</g>
<!-- Node6 -->
<g id="node6" class="node">
<title>Node6</title>
<g id="a_node6"><a xlink:title=" ">
<polygon fill="none" stroke="#bfbfbf" points="162.5,-62 162.5,-81 218.5,-81 218.5,-62 162.5,-62"/>
<text text-anchor="middle" x="190.5" y="-69" font-family="Helvetica,sans-Serif" font-size="10.00">optional</text>
</a>
</g>
</g>
<!-- Node5&#45;&gt;Node6 -->
<g id="edge7" class="edge">
<title>Node5&#45;&gt;Node6</title>
<path fill="none" stroke="midnightblue" d="M200.68,-123.4C198.79,-113.96 196.29,-101.45 194.24,-91.19"/>
<polygon fill="midnightblue" stroke="midnightblue" points="197.63,-90.31 192.24,-81.19 190.77,-91.69 197.63,-90.31"/>
</g>
<!-- Node7 -->
<g id="node7" class="node">
<title>Node7</title>
<g id="a_node7"><a xlink:href="_simple_subscriber_8h.html" target="_top" xlink:title=" ">
<polygon fill="none" stroke="black" points="237,-56.5 237,-86.5 350,-86.5 350,-56.5 237,-56.5"/>
<text text-anchor="start" x="245" y="-74.5" font-family="Helvetica,sans-Serif" font-size="10.00">../../core&#45;lib/include</text>
<text text-anchor="middle" x="293.5" y="-63.5" font-family="Helvetica,sans-Serif" font-size="10.00">/SimpleSubscriber.h</text>
</a>
</g>
</g>
<!-- Node5&#45;&gt;Node7 -->
<g id="edge8" class="edge">
<title>Node5&#45;&gt;Node7</title>
<path fill="none" stroke="midnightblue" d="M223.03,-123.4C235.53,-114.37 251.94,-102.51 265.78,-92.52"/>
<polygon fill="midnightblue" stroke="midnightblue" points="267.95,-95.27 274.01,-86.58 263.85,-89.59 267.95,-95.27"/>
</g>
<!-- Node9 -->
<g id="node9" class="node">
<title>Node9</title>
<g id="a_node9"><a xlink:href="_entity_8h.html" target="_top" xlink:title=" ">
<polygon fill="none" stroke="black" points="368,-62 368,-81 421,-81 421,-62 368,-62"/>
<text text-anchor="middle" x="394.5" y="-69" font-family="Helvetica,sans-Serif" font-size="10.00">Entity.h</text>
</a>
</g>
</g>
<!-- Node5&#45;&gt;Node9 -->
<g id="edge11" class="edge">
<title>Node5&#45;&gt;Node9</title>
<path fill="none" stroke="midnightblue" d="M250.25,-123.43C281.41,-113.8 323.17,-100.38 359.5,-87 361.35,-86.32 363.25,-85.6 365.16,-84.85"/>
<polygon fill="midnightblue" stroke="midnightblue" points="366.64,-88.03 374.62,-81.06 364.03,-81.53 366.64,-88.03"/>
</g>
<!-- Node7&#45;&gt;Node2 -->
<g id="edge10" class="edge">
<title>Node7&#45;&gt;Node2</title>
<path fill="none" stroke="midnightblue" d="M243.76,-56.47C206.39,-45.94 155.92,-31.7 121.46,-21.99"/>
<polygon fill="midnightblue" stroke="midnightblue" points="122.32,-18.59 111.75,-19.25 120.42,-25.33 122.32,-18.59"/>
</g>
<!-- Node8 -->
<g id="node8" class="node">
<title>Node8</title>
<g id="a_node8"><a xlink:title=" ">
<polygon fill="none" stroke="#bfbfbf" points="270,-0.5 270,-19.5 317,-19.5 317,-0.5 270,-0.5"/>
<text text-anchor="middle" x="293.5" y="-7.5" font-family="Helvetica,sans-Serif" font-size="10.00">vector</text>
</a>
</g>
</g>
<!-- Node7&#45;&gt;Node8 -->
<g id="edge9" class="edge">
<title>Node7&#45;&gt;Node8</title>
<path fill="none" stroke="midnightblue" d="M293.5,-56.4C293.5,-48.47 293.5,-38.46 293.5,-29.86"/>
<polygon fill="midnightblue" stroke="midnightblue" points="297,-29.66 293.5,-19.66 290,-29.66 297,-29.66"/>
</g>
</g>
</svg>
