<?xml version="1.0" encoding="UTF-8" standalone="no"?>
<!DOCTYPE svg PUBLIC "-//W3C//DTD SVG 1.1//EN"
 "http://www.w3.org/Graphics/SVG/1.1/DTD/svg11.dtd">
<!-- Generated by graphviz version 2.43.0 (0)
 -->
<!-- Title: /home/tomek/CLionProjects/proi/proi&#45;projekt/src/board&#45;lib/Board.cpp Pages: 1 -->
<svg width="1359pt" height="441pt"
 viewBox="0.00 0.00 1359.00 441.00" xmlns="http://www.w3.org/2000/svg" xmlns:xlink="http://www.w3.org/1999/xlink">
<g id="graph0" class="graph" transform="scale(1 1) rotate(0) translate(4 437)">
<title>/home/tomek/CLionProjects/proi/proi&#45;projekt/src/board&#45;lib/Board.cpp</title>
<!-- Node1 -->
<g id="node1" class="node">
<title>Node1</title>
<g id="a_node1"><a xlink:title=" ">
<polygon fill="#bfbfbf" stroke="black" points="692.5,-391.5 692.5,-432.5 843.5,-432.5 843.5,-391.5 692.5,-391.5"/>
<text text-anchor="start" x="700.5" y="-420.5" font-family="Helvetica,sans-Serif" font-size="10.00">/home/tomek/CLionProjects</text>
<text text-anchor="start" x="700.5" y="-409.5" font-family="Helvetica,sans-Serif" font-size="10.00">/proi/proi&#45;projekt/src</text>
<text text-anchor="middle" x="768" y="-398.5" font-family="Helvetica,sans-Serif" font-size="10.00">/board&#45;lib/Board.cpp</text>
</a>
</g>
</g>
<!-- Node2 -->
<g id="node2" class="node">
<title>Node2</title>
<g id="a_node2"><a xlink:title=" ">
<polygon fill="none" stroke="#bfbfbf" points="34.5,-330 34.5,-349 81.5,-349 81.5,-330 34.5,-330"/>
<text text-anchor="middle" x="58" y="-337" font-family="Helvetica,sans-Serif" font-size="10.00">cmath</text>
</a>
</g>
</g>
<!-- Node1&#45;&gt;Node2 -->
<g id="edge1" class="edge">
<title>Node1&#45;&gt;Node2</title>
<path fill="none" stroke="midnightblue" d="M692.37,-411.57C566.86,-410.99 308.32,-403.33 96,-355 93,-354.32 89.92,-353.45 86.87,-352.47"/>
<polygon fill="midnightblue" stroke="midnightblue" points="87.99,-349.15 77.4,-349.1 85.65,-355.75 87.99,-349.15"/>
</g>
<!-- Node3 -->
<g id="node3" class="node">
<title>Node3</title>
<g id="a_node3"><a xlink:href="_event_queue_8h.html" target="_top" xlink:title=" ">
<polygon fill="none" stroke="black" points="924.5,-257.5 924.5,-287.5 1025.5,-287.5 1025.5,-257.5 924.5,-257.5"/>
<text text-anchor="start" x="932.5" y="-275.5" font-family="Helvetica,sans-Serif" font-size="10.00">../core&#45;lib/include</text>
<text text-anchor="middle" x="975" y="-264.5" font-family="Helvetica,sans-Serif" font-size="10.00">/EventQueue.h</text>
</a>
</g>
</g>
<!-- Node1&#45;&gt;Node3 -->
<g id="edge2" class="edge">
<title>Node1&#45;&gt;Node3</title>
<path fill="none" stroke="midnightblue" d="M838.55,-391.38C862.62,-382.62 888.8,-370.67 910,-355 931.44,-339.15 949.73,-314.55 961.39,-296.52"/>
<polygon fill="midnightblue" stroke="midnightblue" points="964.53,-298.11 966.87,-287.78 958.6,-294.39 964.53,-298.11"/>
</g>
<!-- Node6 -->
<g id="node6" class="node">
<title>Node6</title>
<g id="a_node6"><a xlink:href="_event_8h.html" target="_top" xlink:title=" ">
<polygon fill="none" stroke="black" points="342.5,-257.5 342.5,-287.5 443.5,-287.5 443.5,-257.5 342.5,-257.5"/>
<text text-anchor="start" x="350.5" y="-275.5" font-family="Helvetica,sans-Serif" font-size="10.00">../core&#45;lib/include</text>
<text text-anchor="middle" x="393" y="-264.5" font-family="Helvetica,sans-Serif" font-size="10.00">/Event.h</text>
</a>
</g>
</g>
<!-- Node1&#45;&gt;Node6 -->
<g id="edge5" class="edge">
<title>Node1&#45;&gt;Node6</title>
<path fill="none" stroke="midnightblue" d="M692.42,-399.48C644.46,-390.68 581.73,-376.37 529,-355 489.12,-338.84 447.23,-312.02 420.66,-293.59"/>
<polygon fill="midnightblue" stroke="midnightblue" points="422.45,-290.58 412.26,-287.69 418.43,-296.3 422.45,-290.58"/>
</g>
<!-- Node17 -->
<g id="node17" class="node">
<title>Node17</title>
<g id="a_node17"><a xlink:href="_board_8h.html" target="_top" xlink:title=" ">
<polygon fill="none" stroke="black" points="722,-330 722,-349 814,-349 814,-330 722,-330"/>
<text text-anchor="middle" x="768" y="-337" font-family="Helvetica,sans-Serif" font-size="10.00">include/Board.h</text>
</a>
</g>
</g>
<!-- Node1&#45;&gt;Node17 -->
<g id="edge23" class="edge">
<title>Node1&#45;&gt;Node17</title>
<path fill="none" stroke="midnightblue" d="M768,-391.36C768,-381.3 768,-369.1 768,-359.18"/>
<polygon fill="midnightblue" stroke="midnightblue" points="771.5,-359.17 768,-349.17 764.5,-359.17 771.5,-359.17"/>
</g>
<!-- Node19 -->
<g id="node19" class="node">
<title>Node19</title>
<g id="a_node19"><a xlink:href="_grid_8h.html" target="_top" xlink:title=" ">
<polygon fill="none" stroke="black" points="819,-263 819,-282 865,-282 865,-263 819,-263"/>
<text text-anchor="middle" x="842" y="-270" font-family="Helvetica,sans-Serif" font-size="10.00">Grid.h</text>
</a>
</g>
</g>
<!-- Node1&#45;&gt;Node19 -->
<g id="edge37" class="edge">
<title>Node1&#45;&gt;Node19</title>
<path fill="none" stroke="midnightblue" d="M792.8,-391.25C803.58,-381.43 815.45,-368.73 823,-355 833.81,-335.35 838.49,-309.76 840.5,-292.54"/>
<polygon fill="midnightblue" stroke="midnightblue" points="844.03,-292.43 841.51,-282.13 837.06,-291.75 844.03,-292.43"/>
</g>
<!-- Node20 -->
<g id="node20" class="node">
<title>Node20</title>
<g id="a_node20"><a xlink:href="_grid_builder_8h.html" target="_top" xlink:title=" ">
<polygon fill="none" stroke="black" points="0,-263 0,-282 118,-282 118,-263 0,-263"/>
<text text-anchor="middle" x="59" y="-270" font-family="Helvetica,sans-Serif" font-size="10.00">include/GridBuilder.h</text>
</a>
</g>
</g>
<!-- Node1&#45;&gt;Node20 -->
<g id="edge38" class="edge">
<title>Node1&#45;&gt;Node20</title>
<path fill="none" stroke="midnightblue" d="M692.22,-411.07C545.89,-410.12 230.35,-402.44 134,-355 105.07,-340.76 81.87,-310.21 69.29,-290.83"/>
<polygon fill="midnightblue" stroke="midnightblue" points="72.11,-288.73 63.86,-282.09 66.17,-292.43 72.11,-288.73"/>
</g>
<!-- Node21 -->
<g id="node21" class="node">
<title>Node21</title>
<g id="a_node21"><a xlink:href="_tile_manager_8h.html" target="_top" xlink:title=" ">
<polygon fill="none" stroke="black" points="86,-129 86,-148 210,-148 210,-129 86,-129"/>
<text text-anchor="middle" x="148" y="-136" font-family="Helvetica,sans-Serif" font-size="10.00">include/TileManager.h</text>
</a>
</g>
</g>
<!-- Node1&#45;&gt;Node21 -->
<g id="edge40" class="edge">
<title>Node1&#45;&gt;Node21</title>
<path fill="none" stroke="midnightblue" d="M692.34,-402.78C630.58,-394.7 541.63,-379.86 467,-355 339.52,-312.53 294.42,-312.48 196,-221 176.7,-203.06 162.73,-175.58 155,-157.57"/>
<polygon fill="midnightblue" stroke="midnightblue" points="158.19,-156.14 151.17,-148.21 151.71,-158.79 158.19,-156.14"/>
</g>
<!-- Node22 -->
<g id="node22" class="node">
<title>Node22</title>
<g id="a_node22"><a xlink:href="_bullet_8h.html" target="_top" xlink:title=" ">
<polygon fill="none" stroke="black" points="911.5,-123.5 911.5,-153.5 1012.5,-153.5 1012.5,-123.5 911.5,-123.5"/>
<text text-anchor="start" x="919.5" y="-141.5" font-family="Helvetica,sans-Serif" font-size="10.00">../tank&#45;lib/include</text>
<text text-anchor="middle" x="962" y="-130.5" font-family="Helvetica,sans-Serif" font-size="10.00">/Bullet.h</text>
</a>
</g>
</g>
<!-- Node1&#45;&gt;Node22 -->
<g id="edge42" class="edge">
<title>Node1&#45;&gt;Node22</title>
<path fill="none" stroke="midnightblue" d="M799.56,-391.48C813.68,-381.7 829.85,-368.98 842,-355 895.33,-293.64 935.56,-204.77 952.79,-162.94"/>
<polygon fill="midnightblue" stroke="midnightblue" points="956.06,-164.18 956.57,-153.6 949.57,-161.55 956.06,-164.18"/>
</g>
<!-- Node24 -->
<g id="node24" class="node">
<title>Node24</title>
<g id="a_node24"><a xlink:href="_bot_controller_8h.html" target="_top" xlink:title=" ">
<polygon fill="none" stroke="black" points="1006.5,-324.5 1006.5,-354.5 1101.5,-354.5 1101.5,-324.5 1006.5,-324.5"/>
<text text-anchor="start" x="1014.5" y="-342.5" font-family="Helvetica,sans-Serif" font-size="10.00">../bot&#45;lib/include</text>
<text text-anchor="middle" x="1054" y="-331.5" font-family="Helvetica,sans-Serif" font-size="10.00">/BotController.h</text>
</a>
</g>
</g>
<!-- Node1&#45;&gt;Node24 -->
<g id="edge47" class="edge">
<title>Node1&#45;&gt;Node24</title>
<path fill="none" stroke="midnightblue" d="M843.52,-392.38C891.42,-380.58 952.43,-365.54 996.42,-354.69"/>
<polygon fill="midnightblue" stroke="midnightblue" points="997.5,-358.03 1006.38,-352.24 995.83,-351.23 997.5,-358.03"/>
</g>
<!-- Node25 -->
<g id="node25" class="node">
<title>Node25</title>
<g id="a_node25"><a xlink:href="_eagle_8h.html" target="_top" xlink:title=" ">
<polygon fill="none" stroke="black" points="538.5,-330 538.5,-349 629.5,-349 629.5,-330 538.5,-330"/>
<text text-anchor="middle" x="584" y="-337" font-family="Helvetica,sans-Serif" font-size="10.00">include/Eagle.h</text>
</a>
</g>
</g>
<!-- Node1&#45;&gt;Node25 -->
<g id="edge54" class="edge">
<title>Node1&#45;&gt;Node25</title>
<path fill="none" stroke="midnightblue" d="M716.75,-391.36C684.55,-379.02 644,-363.49 616.24,-352.85"/>
<polygon fill="midnightblue" stroke="midnightblue" points="617.23,-349.48 606.64,-349.17 614.72,-356.02 617.23,-349.48"/>
</g>
<!-- Node26 -->
<g id="node26" class="node">
<title>Node26</title>
<g id="a_node26"><a xlink:href="_clock_8h.html" target="_top" xlink:title=" ">
<polygon fill="none" stroke="black" points="1145.5,-123.5 1145.5,-153.5 1246.5,-153.5 1246.5,-123.5 1145.5,-123.5"/>
<text text-anchor="start" x="1153.5" y="-141.5" font-family="Helvetica,sans-Serif" font-size="10.00">../core&#45;lib/include</text>
<text text-anchor="middle" x="1196" y="-130.5" font-family="Helvetica,sans-Serif" font-size="10.00">/Clock.h</text>
</a>
</g>
</g>
<!-- Node1&#45;&gt;Node26 -->
<g id="edge58" class="edge">
<title>Node1&#45;&gt;Node26</title>
<path fill="none" stroke="midnightblue" d="M843.78,-406.65C931.65,-400.25 1069.73,-385.57 1111,-355 1173.4,-308.78 1190.03,-209.69 1194.43,-163.78"/>
<polygon fill="midnightblue" stroke="midnightblue" points="1197.94,-163.82 1195.29,-153.57 1190.96,-163.24 1197.94,-163.82"/>
</g>
<!-- Node4 -->
<g id="node4" class="node">
<title>Node4</title>
<g id="a_node4"><a xlink:title=" ">
<polygon fill="none" stroke="#bfbfbf" points="978.5,-196 978.5,-215 1025.5,-215 1025.5,-196 978.5,-196"/>
<text text-anchor="middle" x="1002" y="-203" font-family="Helvetica,sans-Serif" font-size="10.00">queue</text>
</a>
</g>
</g>
<!-- Node3&#45;&gt;Node4 -->
<g id="edge3" class="edge">
<title>Node3&#45;&gt;Node4</title>
<path fill="none" stroke="midnightblue" d="M980.86,-257.4C984.86,-247.76 990.2,-234.91 994.51,-224.54"/>
<polygon fill="midnightblue" stroke="midnightblue" points="997.78,-225.77 998.39,-215.19 991.32,-223.09 997.78,-225.77"/>
</g>
<!-- Node5 -->
<g id="node5" class="node">
<title>Node5</title>
<g id="a_node5"><a xlink:title=" ">
<polygon fill="none" stroke="#bfbfbf" points="710,-0.5 710,-19.5 768,-19.5 768,-0.5 710,-0.5"/>
<text text-anchor="middle" x="739" y="-7.5" font-family="Helvetica,sans-Serif" font-size="10.00">memory</text>
</a>
</g>
</g>
<!-- Node3&#45;&gt;Node5 -->
<g id="edge4" class="edge">
<title>Node3&#45;&gt;Node5</title>
<path fill="none" stroke="midnightblue" d="M1000.41,-257.48C1013.35,-248.83 1027.82,-236.43 1035,-221 1045.79,-197.81 1025.8,-126.87 1022,-123 968.19,-68.2 923.77,-116.83 853,-87 816.01,-71.41 778.25,-43.35 756.81,-26.03"/>
<polygon fill="midnightblue" stroke="midnightblue" points="758.87,-23.19 748.92,-19.55 754.42,-28.6 758.87,-23.19"/>
</g>
<!-- Node6&#45;&gt;Node5 -->
<g id="edge8" class="edge">
<title>Node6&#45;&gt;Node5</title>
<path fill="none" stroke="midnightblue" d="M342.44,-268.81C276.87,-263.09 174.31,-245.29 205,-190 259.64,-91.55 314.18,-94.48 420,-56 516.4,-20.95 638.39,-13.02 699.83,-11.35"/>
<polygon fill="midnightblue" stroke="midnightblue" points="699.96,-14.85 709.87,-11.12 699.8,-7.85 699.96,-14.85"/>
</g>
<!-- Node7 -->
<g id="node7" class="node">
<title>Node7</title>
<g id="a_node7"><a xlink:title=" ">
<polygon fill="none" stroke="#bfbfbf" points="614.5,-196 614.5,-215 679.5,-215 679.5,-196 614.5,-196"/>
<text text-anchor="middle" x="647" y="-203" font-family="Helvetica,sans-Serif" font-size="10.00">exception</text>
</a>
</g>
</g>
<!-- Node6&#45;&gt;Node7 -->
<g id="edge6" class="edge">
<title>Node6&#45;&gt;Node7</title>
<path fill="none" stroke="midnightblue" d="M443.79,-258.5C490.93,-246.44 560.31,-228.68 604.57,-217.36"/>
<polygon fill="midnightblue" stroke="midnightblue" points="605.61,-220.7 614.43,-214.83 603.87,-213.92 605.61,-220.7"/>
</g>
<!-- Node8 -->
<g id="node8" class="node">
<title>Node8</title>
<g id="a_node8"><a xlink:title=" ">
<polygon fill="none" stroke="#bfbfbf" points="214,-196 214,-215 258,-215 258,-196 214,-196"/>
<text text-anchor="middle" x="236" y="-203" font-family="Helvetica,sans-Serif" font-size="10.00">string</text>
</a>
</g>
</g>
<!-- Node6&#45;&gt;Node8 -->
<g id="edge7" class="edge">
<title>Node6&#45;&gt;Node8</title>
<path fill="none" stroke="midnightblue" d="M356.38,-257.45C331.12,-247.61 296.83,-233.94 267,-221 265.8,-220.48 264.59,-219.94 263.36,-219.4"/>
<polygon fill="midnightblue" stroke="midnightblue" points="264.5,-216.07 253.95,-215.11 261.6,-222.44 264.5,-216.07"/>
</g>
<!-- Node9 -->
<g id="node9" class="node">
<title>Node9</title>
<g id="a_node9"><a xlink:title=" ">
<polygon fill="none" stroke="#bfbfbf" points="276.5,-196 276.5,-215 327.5,-215 327.5,-196 276.5,-196"/>
<text text-anchor="middle" x="302" y="-203" font-family="Helvetica,sans-Serif" font-size="10.00">variant</text>
</a>
</g>
</g>
<!-- Node6&#45;&gt;Node9 -->
<g id="edge9" class="edge">
<title>Node6&#45;&gt;Node9</title>
<path fill="none" stroke="midnightblue" d="M373.25,-257.4C358.14,-246.6 337.36,-231.76 322.14,-220.89"/>
<polygon fill="midnightblue" stroke="midnightblue" points="324.08,-217.97 313.91,-215.01 320.01,-223.67 324.08,-217.97"/>
</g>
<!-- Node10 -->
<g id="node10" class="node">
<title>Node10</title>
<g id="a_node10"><a xlink:title=" ">
<polygon fill="none" stroke="#bfbfbf" points="346,-196 346,-215 406,-215 406,-196 346,-196"/>
<text text-anchor="middle" x="376" y="-203" font-family="Helvetica,sans-Serif" font-size="10.00">iostream</text>
</a>
</g>
</g>
<!-- Node6&#45;&gt;Node10 -->
<g id="edge10" class="edge">
<title>Node6&#45;&gt;Node10</title>
<path fill="none" stroke="midnightblue" d="M389.31,-257.4C386.84,-247.96 383.57,-235.45 380.89,-225.19"/>
<polygon fill="midnightblue" stroke="midnightblue" points="384.19,-223.98 378.27,-215.19 377.42,-225.75 384.19,-223.98"/>
</g>
<!-- Node11 -->
<g id="node11" class="node">
<title>Node11</title>
<g id="a_node11"><a xlink:title=" ">
<polygon fill="none" stroke="#bfbfbf" points="601,-129 601,-148 657,-148 657,-129 601,-129"/>
<text text-anchor="middle" x="629" y="-136" font-family="Helvetica,sans-Serif" font-size="10.00">optional</text>
</a>
</g>
</g>
<!-- Node6&#45;&gt;Node11 -->
<g id="edge11" class="edge">
<title>Node6&#45;&gt;Node11</title>
<path fill="none" stroke="midnightblue" d="M418.26,-257.37C463.99,-231.79 559.95,-178.12 604.86,-153"/>
<polygon fill="midnightblue" stroke="midnightblue" points="606.61,-156.03 613.63,-148.1 603.19,-149.92 606.61,-156.03"/>
</g>
<!-- Node12 -->
<g id="node12" class="node">
<title>Node12</title>
<g id="a_node12"><a xlink:href="_entity_8h.html" target="_top" xlink:title=" ">
<polygon fill="none" stroke="black" points="601,-56.5 601,-86.5 711,-86.5 711,-56.5 601,-56.5"/>
<text text-anchor="start" x="609" y="-74.5" font-family="Helvetica,sans-Serif" font-size="10.00">../../tank&#45;lib/include</text>
<text text-anchor="middle" x="656" y="-63.5" font-family="Helvetica,sans-Serif" font-size="10.00">/Entity.h</text>
</a>
</g>
</g>
<!-- Node6&#45;&gt;Node12 -->
<g id="edge12" class="edge">
<title>Node6&#45;&gt;Node12</title>
<path fill="none" stroke="midnightblue" d="M398.96,-257.32C412.07,-227.84 446.24,-159.67 496,-123 523.72,-102.57 559.95,-90.24 590.93,-82.89"/>
<polygon fill="midnightblue" stroke="midnightblue" points="591.8,-86.28 600.78,-80.67 590.26,-79.45 591.8,-86.28"/>
</g>
<!-- Node13 -->
<g id="node13" class="node">
<title>Node13</title>
<g id="a_node13"><a xlink:href="_tank_8h.html" target="_top" xlink:title=" ">
<polygon fill="none" stroke="black" points="736,-190.5 736,-220.5 846,-220.5 846,-190.5 736,-190.5"/>
<text text-anchor="start" x="744" y="-208.5" font-family="Helvetica,sans-Serif" font-size="10.00">../../tank&#45;lib/include</text>
<text text-anchor="middle" x="791" y="-197.5" font-family="Helvetica,sans-Serif" font-size="10.00">/Tank.h</text>
</a>
</g>
</g>
<!-- Node6&#45;&gt;Node13 -->
<g id="edge13" class="edge">
<title>Node6&#45;&gt;Node13</title>
<path fill="none" stroke="midnightblue" d="M443.81,-263.2C515.51,-251.49 646.42,-230.11 725.39,-217.22"/>
<polygon fill="midnightblue" stroke="midnightblue" points="726.4,-220.6 735.7,-215.53 725.27,-213.69 726.4,-220.6"/>
</g>
<!-- Node13&#45;&gt;Node5 -->
<g id="edge14" class="edge">
<title>Node13&#45;&gt;Node5</title>
<path fill="none" stroke="midnightblue" d="M771.52,-190.49C760.66,-181.45 748.12,-168.65 742,-154 724.67,-112.51 730.35,-58.18 735.17,-29.93"/>
<polygon fill="midnightblue" stroke="midnightblue" points="738.66,-30.3 737.04,-19.83 731.77,-29.02 738.66,-30.3"/>
</g>
<!-- Node13&#45;&gt;Node11 -->
<g id="edge15" class="edge">
<title>Node13&#45;&gt;Node11</title>
<path fill="none" stroke="midnightblue" d="M755.85,-190.4C727.17,-178.89 687.06,-162.8 659.67,-151.81"/>
<polygon fill="midnightblue" stroke="midnightblue" points="660.79,-148.48 650.2,-148.01 658.18,-154.98 660.79,-148.48"/>
</g>
<!-- Node13&#45;&gt;Node12 -->
<g id="edge19" class="edge">
<title>Node13&#45;&gt;Node12</title>
<path fill="none" stroke="midnightblue" d="M761.49,-190.46C744.82,-181.57 724.32,-168.95 709,-154 691.47,-136.89 676.78,-112.99 667.35,-95.49"/>
<polygon fill="midnightblue" stroke="midnightblue" points="670.39,-93.76 662.66,-86.52 664.19,-97 670.39,-93.76"/>
</g>
<!-- Node14 -->
<g id="node14" class="node">
<title>Node14</title>
<g id="a_node14"><a xlink:href="_simple_subscriber_8h.html" target="_top" xlink:title=" ">
<polygon fill="none" stroke="black" points="861.5,-56.5 861.5,-86.5 974.5,-86.5 974.5,-56.5 861.5,-56.5"/>
<text text-anchor="start" x="869.5" y="-74.5" font-family="Helvetica,sans-Serif" font-size="10.00">../../core&#45;lib/include</text>
<text text-anchor="middle" x="918" y="-63.5" font-family="Helvetica,sans-Serif" font-size="10.00">/SimpleSubscriber.h</text>
</a>
</g>
</g>
<!-- Node13&#45;&gt;Node14 -->
<g id="edge16" class="edge">
<title>Node13&#45;&gt;Node14</title>
<path fill="none" stroke="midnightblue" d="M816.11,-190.45C831.08,-181.3 849.87,-168.42 864,-154 881.14,-136.51 896.11,-112.85 905.92,-95.52"/>
<polygon fill="midnightblue" stroke="midnightblue" points="909.06,-97.08 910.81,-86.63 902.92,-93.71 909.06,-97.08"/>
</g>
<!-- Node16 -->
<g id="node16" class="node">
<title>Node16</title>
<g id="a_node16"><a xlink:href="_bot_8h.html" target="_top" xlink:title=" ">
<polygon fill="none" stroke="black" points="751,-123.5 751,-153.5 855,-153.5 855,-123.5 751,-123.5"/>
<text text-anchor="start" x="759" y="-141.5" font-family="Helvetica,sans-Serif" font-size="10.00">../../bot&#45;lib/include</text>
<text text-anchor="middle" x="803" y="-130.5" font-family="Helvetica,sans-Serif" font-size="10.00">/Bot.h</text>
</a>
</g>
</g>
<!-- Node13&#45;&gt;Node16 -->
<g id="edge20" class="edge">
<title>Node13&#45;&gt;Node16</title>
<path fill="none" stroke="midnightblue" d="M793.6,-190.4C795.05,-182.56 796.89,-172.6 798.56,-163.57"/>
<polygon fill="midnightblue" stroke="midnightblue" points="802.03,-164.05 800.4,-153.58 795.14,-162.77 802.03,-164.05"/>
</g>
<!-- Node14&#45;&gt;Node5 -->
<g id="edge18" class="edge">
<title>Node14&#45;&gt;Node5</title>
<path fill="none" stroke="midnightblue" d="M875.58,-56.4C844.78,-46.16 803.59,-32.47 774.52,-22.81"/>
<polygon fill="midnightblue" stroke="midnightblue" points="775.38,-19.4 764.78,-19.57 773.17,-26.05 775.38,-19.4"/>
</g>
<!-- Node15 -->
<g id="node15" class="node">
<title>Node15</title>
<g id="a_node15"><a xlink:title=" ">
<polygon fill="none" stroke="#bfbfbf" points="1251.5,-0.5 1251.5,-19.5 1298.5,-19.5 1298.5,-0.5 1251.5,-0.5"/>
<text text-anchor="middle" x="1275" y="-7.5" font-family="Helvetica,sans-Serif" font-size="10.00">vector</text>
</a>
</g>
</g>
<!-- Node14&#45;&gt;Node15 -->
<g id="edge17" class="edge">
<title>Node14&#45;&gt;Node15</title>
<path fill="none" stroke="midnightblue" d="M974.57,-61.07C1049.65,-48.56 1179.88,-26.85 1241.21,-16.63"/>
<polygon fill="midnightblue" stroke="midnightblue" points="1241.85,-20.07 1251.14,-14.98 1240.7,-13.17 1241.85,-20.07"/>
</g>
<!-- Node16&#45;&gt;Node12 -->
<g id="edge21" class="edge">
<title>Node16&#45;&gt;Node12</title>
<path fill="none" stroke="midnightblue" d="M771.1,-123.4C749.43,-113.81 720.57,-101.05 697.16,-90.7"/>
<polygon fill="midnightblue" stroke="midnightblue" points="698.4,-87.42 687.83,-86.58 695.56,-93.82 698.4,-87.42"/>
</g>
<!-- Node16&#45;&gt;Node14 -->
<g id="edge22" class="edge">
<title>Node16&#45;&gt;Node14</title>
<path fill="none" stroke="midnightblue" d="M827.95,-123.4C844.38,-114.11 866.09,-101.84 884.08,-91.67"/>
<polygon fill="midnightblue" stroke="midnightblue" points="886.11,-94.54 893.1,-86.58 882.67,-88.45 886.11,-94.54"/>
</g>
<!-- Node17&#45;&gt;Node3 -->
<g id="edge25" class="edge">
<title>Node17&#45;&gt;Node3</title>
<path fill="none" stroke="midnightblue" d="M795.49,-329.87C827.29,-319.88 880.43,-303.2 920.66,-290.56"/>
<polygon fill="midnightblue" stroke="midnightblue" points="921.83,-293.86 930.33,-287.53 919.74,-287.18 921.83,-293.86"/>
</g>
<!-- Node17&#45;&gt;Node5 -->
<g id="edge24" class="edge">
<title>Node17&#45;&gt;Node5</title>
<path fill="none" stroke="midnightblue" d="M736.88,-329.92C710.63,-321.77 672.84,-307.79 644,-288 610.3,-264.87 597.6,-258.35 581,-221 556.73,-166.4 572.45,-146.71 570,-87 569.44,-73.23 561.6,-66.92 570,-56 585.71,-35.56 654.91,-22.44 699.74,-15.92"/>
<polygon fill="midnightblue" stroke="midnightblue" points="700.32,-19.37 709.74,-14.52 699.35,-12.44 700.32,-19.37"/>
</g>
<!-- Node17&#45;&gt;Node13 -->
<g id="edge26" class="edge">
<title>Node17&#45;&gt;Node13</title>
<path fill="none" stroke="midnightblue" d="M769.51,-329.84C772.96,-310.02 781.54,-260.77 786.76,-230.84"/>
<polygon fill="midnightblue" stroke="midnightblue" points="790.24,-231.24 788.51,-220.78 783.35,-230.03 790.24,-231.24"/>
</g>
<!-- Node18 -->
<g id="node18" class="node">
<title>Node18</title>
<g id="a_node18"><a xlink:href="_entity_controller_8h.html" target="_top" xlink:title=" ">
<polygon fill="none" stroke="black" points="653,-257.5 653,-287.5 763,-287.5 763,-257.5 653,-257.5"/>
<text text-anchor="start" x="661" y="-275.5" font-family="Helvetica,sans-Serif" font-size="10.00">../../tank&#45;lib/include</text>
<text text-anchor="middle" x="708" y="-264.5" font-family="Helvetica,sans-Serif" font-size="10.00">/EntityController.h</text>
</a>
</g>
</g>
<!-- Node17&#45;&gt;Node18 -->
<g id="edge27" class="edge">
<title>Node17&#45;&gt;Node18</title>
<path fill="none" stroke="midnightblue" d="M759.91,-329.73C751.72,-320.86 738.75,-306.81 727.82,-294.97"/>
<polygon fill="midnightblue" stroke="midnightblue" points="730.36,-292.56 721.01,-287.59 725.22,-297.31 730.36,-292.56"/>
</g>
<!-- Node17&#45;&gt;Node19 -->
<g id="edge32" class="edge">
<title>Node17&#45;&gt;Node19</title>
<path fill="none" stroke="midnightblue" d="M777.98,-329.73C789.85,-319.31 809.89,-301.71 824.38,-288.97"/>
<polygon fill="midnightblue" stroke="midnightblue" points="826.97,-291.36 832.18,-282.13 822.36,-286.1 826.97,-291.36"/>
</g>
<!-- Node18&#45;&gt;Node5 -->
<g id="edge29" class="edge">
<title>Node18&#45;&gt;Node5</title>
<path fill="none" stroke="midnightblue" d="M658.5,-257.41C639.44,-249.61 619.12,-237.96 606,-221 560.96,-162.79 548.23,-115.17 592,-56 616.52,-22.84 665,-13.32 699.57,-10.98"/>
<polygon fill="midnightblue" stroke="midnightblue" points="700.01,-14.46 709.82,-10.46 699.65,-7.47 700.01,-14.46"/>
</g>
<!-- Node18&#45;&gt;Node11 -->
<g id="edge30" class="edge">
<title>Node18&#45;&gt;Node11</title>
<path fill="none" stroke="midnightblue" d="M707.38,-257.22C706.05,-240.09 701.91,-211.06 689,-190 679.92,-175.19 664.99,-162.6 652.3,-153.7"/>
<polygon fill="midnightblue" stroke="midnightblue" points="654.23,-150.78 643.97,-148.14 650.34,-156.6 654.23,-150.78"/>
</g>
<!-- Node18&#45;&gt;Node13 -->
<g id="edge31" class="edge">
<title>Node18&#45;&gt;Node13</title>
<path fill="none" stroke="midnightblue" d="M726.01,-257.4C737.43,-248.45 752.39,-236.74 765.08,-226.8"/>
<polygon fill="midnightblue" stroke="midnightblue" points="767.31,-229.5 773.03,-220.58 762.99,-223.99 767.31,-229.5"/>
</g>
<!-- Node18&#45;&gt;Node15 -->
<g id="edge28" class="edge">
<title>Node18&#45;&gt;Node15</title>
<path fill="none" stroke="midnightblue" d="M757.37,-257.46C786.4,-248.49 823.48,-235.78 855,-221 879.02,-209.74 880.86,-198.45 906,-190 980.11,-165.08 1199.9,-208.46 1256,-154 1289.46,-121.52 1284.3,-60.63 1278.99,-29.85"/>
<polygon fill="midnightblue" stroke="midnightblue" points="1282.36,-28.8 1277.04,-19.64 1275.48,-30.12 1282.36,-28.8"/>
</g>
<!-- Node19&#45;&gt;Node4 -->
<g id="edge35" class="edge">
<title>Node19&#45;&gt;Node4</title>
<path fill="none" stroke="midnightblue" d="M863.25,-262.87C890.94,-251.62 939.56,-231.87 971.27,-218.99"/>
<polygon fill="midnightblue" stroke="midnightblue" points="972.97,-222.07 980.92,-215.06 970.34,-215.58 972.97,-222.07"/>
</g>
<!-- Node19&#45;&gt;Node7 -->
<g id="edge33" class="edge">
<title>Node19&#45;&gt;Node7</title>
<path fill="none" stroke="midnightblue" d="M818.87,-263.79C785.01,-252.5 721.71,-231.4 682.1,-218.2"/>
<polygon fill="midnightblue" stroke="midnightblue" points="683.17,-214.87 672.57,-215.02 680.95,-221.51 683.17,-214.87"/>
</g>
<!-- Node19&#45;&gt;Node13 -->
<g id="edge36" class="edge">
<title>Node19&#45;&gt;Node13</title>
<path fill="none" stroke="midnightblue" d="M835.12,-262.73C828.3,-254.03 817.56,-240.34 808.38,-228.65"/>
<polygon fill="midnightblue" stroke="midnightblue" points="810.98,-226.3 802.05,-220.59 805.47,-230.62 810.98,-226.3"/>
</g>
<!-- Node19&#45;&gt;Node15 -->
<g id="edge34" class="edge">
<title>Node19&#45;&gt;Node15</title>
<path fill="none" stroke="midnightblue" d="M852.09,-262.74C872.65,-245.44 921.56,-207.12 970,-190 1037.26,-166.23 1241.47,-207.2 1289,-154 1320.07,-119.22 1298.29,-58.97 1284.29,-29.01"/>
<polygon fill="midnightblue" stroke="midnightblue" points="1287.3,-27.2 1279.75,-19.76 1281.01,-30.28 1287.3,-27.2"/>
</g>
<!-- Node20&#45;&gt;Node5 -->
<g id="edge39" class="edge">
<title>Node20&#45;&gt;Node5</title>
<path fill="none" stroke="midnightblue" d="M57.67,-262.97C54.39,-238.85 48.09,-168.94 77,-123 106.49,-76.15 129.53,-73.64 182,-56 278.21,-23.66 589.28,-14.12 699.68,-11.72"/>
<polygon fill="midnightblue" stroke="midnightblue" points="699.8,-15.22 709.73,-11.51 699.66,-8.22 699.8,-15.22"/>
</g>
<!-- Node21&#45;&gt;Node5 -->
<g id="edge41" class="edge">
<title>Node21&#45;&gt;Node5</title>
<path fill="none" stroke="midnightblue" d="M152.95,-128.91C163.47,-111.56 189.92,-72.62 224,-56 307.74,-15.16 594.39,-10.97 699.74,-10.84"/>
<polygon fill="midnightblue" stroke="midnightblue" points="699.94,-14.34 709.94,-10.84 699.94,-7.34 699.94,-14.34"/>
</g>
<!-- Node22&#45;&gt;Node12 -->
<g id="edge46" class="edge">
<title>Node22&#45;&gt;Node12</title>
<path fill="none" stroke="midnightblue" d="M911.47,-126.77C859.35,-115.69 777.86,-98.38 720.97,-86.3"/>
<polygon fill="midnightblue" stroke="midnightblue" points="721.51,-82.84 711,-84.18 720.06,-89.68 721.51,-82.84"/>
</g>
<!-- Node23 -->
<g id="node23" class="node">
<title>Node23</title>
<g id="a_node23"><a xlink:href="_simple_publisher_8h.html" target="_top" xlink:title=" ">
<polygon fill="none" stroke="black" points="1069,-56.5 1069,-86.5 1179,-86.5 1179,-56.5 1069,-56.5"/>
<text text-anchor="start" x="1077" y="-74.5" font-family="Helvetica,sans-Serif" font-size="10.00">../../core&#45;lib/include</text>
<text text-anchor="middle" x="1124" y="-63.5" font-family="Helvetica,sans-Serif" font-size="10.00">/SimplePublisher.h</text>
</a>
</g>
</g>
<!-- Node22&#45;&gt;Node23 -->
<g id="edge43" class="edge">
<title>Node22&#45;&gt;Node23</title>
<path fill="none" stroke="midnightblue" d="M997.15,-123.4C1021.25,-113.73 1053.41,-100.82 1079.32,-90.43"/>
<polygon fill="midnightblue" stroke="midnightblue" points="1080.94,-93.55 1088.92,-86.58 1078.33,-87.05 1080.94,-93.55"/>
</g>
<!-- Node23&#45;&gt;Node5 -->
<g id="edge44" class="edge">
<title>Node23&#45;&gt;Node5</title>
<path fill="none" stroke="midnightblue" d="M1068.7,-58.55C1064.07,-57.65 1059.46,-56.79 1055,-56 955.89,-38.55 838.38,-23.21 778.45,-15.77"/>
<polygon fill="midnightblue" stroke="midnightblue" points="778.64,-12.27 768.29,-14.52 777.79,-19.22 778.64,-12.27"/>
</g>
<!-- Node23&#45;&gt;Node15 -->
<g id="edge45" class="edge">
<title>Node23&#45;&gt;Node15</title>
<path fill="none" stroke="midnightblue" d="M1159.78,-56.4C1185.23,-46.37 1219.1,-33.03 1243.52,-23.4"/>
<polygon fill="midnightblue" stroke="midnightblue" points="1245.01,-26.58 1253.03,-19.66 1242.44,-20.07 1245.01,-26.58"/>
</g>
<!-- Node24&#45;&gt;Node3 -->
<g id="edge52" class="edge">
<title>Node24&#45;&gt;Node3</title>
<path fill="none" stroke="midnightblue" d="M1036.86,-324.4C1026.09,-315.54 1012.02,-303.96 1000.02,-294.09"/>
<polygon fill="midnightblue" stroke="midnightblue" points="1002.05,-291.23 992.11,-287.58 997.61,-296.63 1002.05,-291.23"/>
</g>
<!-- Node24&#45;&gt;Node4 -->
<g id="edge50" class="edge">
<title>Node24&#45;&gt;Node4</title>
<path fill="none" stroke="midnightblue" d="M1052.25,-324.48C1049.84,-307.86 1044.65,-279.58 1035,-257 1029.88,-245.03 1021.96,-232.78 1015.16,-223.34"/>
<polygon fill="midnightblue" stroke="midnightblue" points="1017.9,-221.17 1009.11,-215.26 1012.3,-225.36 1017.9,-221.17"/>
</g>
<!-- Node24&#45;&gt;Node5 -->
<g id="edge48" class="edge">
<title>Node24&#45;&gt;Node5</title>
<path fill="none" stroke="midnightblue" d="M1066.51,-324.09C1074.08,-314.52 1083.17,-301.31 1088,-288 1113.09,-218.92 1121.27,-181.67 1077,-123 1058.27,-98.18 1041.81,-105.75 1017,-87 1000.95,-74.87 1001.96,-65.08 984,-56 917.16,-22.22 828.63,-13.55 778.35,-11.48"/>
<polygon fill="midnightblue" stroke="midnightblue" points="778.33,-7.97 768.22,-11.13 778.09,-14.97 778.33,-7.97"/>
</g>
<!-- Node24&#45;&gt;Node6 -->
<g id="edge53" class="edge">
<title>Node24&#45;&gt;Node6</title>
<path fill="none" stroke="midnightblue" d="M1006.46,-333.83C888.87,-322.26 584.47,-292.33 453.92,-279.49"/>
<polygon fill="midnightblue" stroke="midnightblue" points="454,-275.98 443.7,-278.49 453.31,-282.95 454,-275.98"/>
</g>
<!-- Node24&#45;&gt;Node14 -->
<g id="edge51" class="edge">
<title>Node24&#45;&gt;Node14</title>
<path fill="none" stroke="midnightblue" d="M1059.61,-324.32C1073.55,-286.49 1105.17,-182 1055,-123 1044.85,-111.06 1012.56,-98.88 981.87,-89.47"/>
<polygon fill="midnightblue" stroke="midnightblue" points="982.58,-86.03 972,-86.52 980.57,-92.73 982.58,-86.03"/>
</g>
<!-- Node24&#45;&gt;Node15 -->
<g id="edge49" class="edge">
<title>Node24&#45;&gt;Node15</title>
<path fill="none" stroke="midnightblue" d="M1101.72,-338.14C1185.67,-334.71 1351,-314.27 1351,-206.5 1351,-206.5 1351,-206.5 1351,-137.5 1351,-92.12 1314.62,-48.98 1292.2,-26.7"/>
<polygon fill="midnightblue" stroke="midnightblue" points="1294.57,-24.13 1284.94,-19.73 1289.72,-29.18 1294.57,-24.13"/>
</g>
<!-- Node25&#45;&gt;Node3 -->
<g id="edge56" class="edge">
<title>Node25&#45;&gt;Node3</title>
<path fill="none" stroke="midnightblue" d="M629.62,-330.92C700.08,-319.2 835.47,-296.69 914.19,-283.61"/>
<polygon fill="midnightblue" stroke="midnightblue" points="915.14,-287 924.44,-281.91 914,-280.09 915.14,-287"/>
</g>
<!-- Node25&#45;&gt;Node6 -->
<g id="edge57" class="edge">
<title>Node25&#45;&gt;Node6</title>
<path fill="none" stroke="midnightblue" d="M558.64,-329.87C529.48,-319.95 480.88,-303.41 443.85,-290.81"/>
<polygon fill="midnightblue" stroke="midnightblue" points="444.82,-287.44 434.22,-287.53 442.56,-294.06 444.82,-287.44"/>
</g>
<!-- Node25&#45;&gt;Node12 -->
<g id="edge55" class="edge">
<title>Node25&#45;&gt;Node12</title>
<path fill="none" stroke="midnightblue" d="M581.84,-329.64C574.86,-298.95 555.38,-195.1 592,-123 598.28,-110.63 609.14,-100.33 620.14,-92.33"/>
<polygon fill="midnightblue" stroke="midnightblue" points="622.19,-95.17 628.51,-86.66 618.27,-89.37 622.19,-95.17"/>
</g>
<!-- Node26&#45;&gt;Node5 -->
<g id="edge59" class="edge">
<title>Node26&#45;&gt;Node5</title>
<path fill="none" stroke="midnightblue" d="M1148.7,-123.42C1121.91,-114.6 1088.22,-102.06 1060,-87 1039.21,-75.91 1038.77,-65.01 1017,-56 936.58,-22.7 833.57,-13.95 778.28,-11.71"/>
<polygon fill="midnightblue" stroke="midnightblue" points="778.32,-8.21 768.2,-11.36 778.07,-15.21 778.32,-8.21"/>
</g>
<!-- Node26&#45;&gt;Node23 -->
<g id="edge61" class="edge">
<title>Node26&#45;&gt;Node23</title>
<path fill="none" stroke="midnightblue" d="M1180.38,-123.4C1170.66,-114.62 1157.99,-103.18 1147.12,-93.37"/>
<polygon fill="midnightblue" stroke="midnightblue" points="1149.36,-90.68 1139.59,-86.58 1144.67,-95.88 1149.36,-90.68"/>
</g>
<!-- Node27 -->
<g id="node27" class="node">
<title>Node27</title>
<g id="a_node27"><a xlink:title=" ">
<polygon fill="none" stroke="#bfbfbf" points="1197,-62 1197,-81 1247,-81 1247,-62 1197,-62"/>
<text text-anchor="middle" x="1222" y="-69" font-family="Helvetica,sans-Serif" font-size="10.00">chrono</text>
</a>
</g>
</g>
<!-- Node26&#45;&gt;Node27 -->
<g id="edge60" class="edge">
<title>Node26&#45;&gt;Node27</title>
<path fill="none" stroke="midnightblue" d="M1201.64,-123.4C1205.49,-113.76 1210.63,-100.91 1214.79,-90.54"/>
<polygon fill="midnightblue" stroke="midnightblue" points="1218.06,-91.78 1218.52,-81.19 1211.56,-89.18 1218.06,-91.78"/>
</g>
</g>
</svg>
