<?xml version="1.0" encoding="UTF-8" standalone="no"?>
<!DOCTYPE svg PUBLIC "-//W3C//DTD SVG 1.1//EN"
 "http://www.w3.org/Graphics/SVG/1.1/DTD/svg11.dtd">
<!-- Generated by graphviz version 2.43.0 (0)
 -->
<!-- Title: /home/tomek/CLionProjects/proi/proi&#45;projekt/src/board&#45;lib/Board.cpp Pages: 1 -->
<svg width="1046pt" height="441pt"
 viewBox="0.00 0.00 1046.00 441.00" xmlns="http://www.w3.org/2000/svg" xmlns:xlink="http://www.w3.org/1999/xlink">
<g id="graph0" class="graph" transform="scale(1 1) rotate(0) translate(4 437)">
<title>/home/tomek/CLionProjects/proi/proi&#45;projekt/src/board&#45;lib/Board.cpp</title>
<!-- Node1 -->
<g id="node1" class="node">
<title>Node1</title>
<g id="a_node1"><a xlink:title=" ">
<polygon fill="#bfbfbf" stroke="black" points="503.5,-391.5 503.5,-432.5 654.5,-432.5 654.5,-391.5 503.5,-391.5"/>
<text text-anchor="start" x="511.5" y="-420.5" font-family="Helvetica,sans-Serif" font-size="10.00">/home/tomek/CLionProjects</text>
<text text-anchor="start" x="511.5" y="-409.5" font-family="Helvetica,sans-Serif" font-size="10.00">/proi/proi&#45;projekt/src</text>
<text text-anchor="middle" x="579" y="-398.5" font-family="Helvetica,sans-Serif" font-size="10.00">/board&#45;lib/Board.cpp</text>
</a>
</g>
</g>
<!-- Node2 -->
<g id="node2" class="node">
<title>Node2</title>
<g id="a_node2"><a xlink:title=" ">
<polygon fill="none" stroke="#bfbfbf" points="59.5,-330 59.5,-349 106.5,-349 106.5,-330 59.5,-330"/>
<text text-anchor="middle" x="83" y="-337" font-family="Helvetica,sans-Serif" font-size="10.00">cmath</text>
</a>
</g>
</g>
<!-- Node1&#45;&gt;Node2 -->
<g id="edge1" class="edge">
<title>Node1&#45;&gt;Node2</title>
<path fill="none" stroke="midnightblue" d="M503.42,-407.38C411.77,-401.72 253.18,-387.78 121,-355 118.17,-354.3 115.27,-353.45 112.39,-352.51"/>
<polygon fill="midnightblue" stroke="midnightblue" points="113.42,-349.16 102.82,-349.11 111.07,-355.76 113.42,-349.16"/>
</g>
<!-- Node3 -->
<g id="node3" class="node">
<title>Node3</title>
<g id="a_node3"><a xlink:href="_event_queue_8h.html" target="_top" xlink:title=" ">
<polygon fill="none" stroke="black" points="716.5,-257.5 716.5,-287.5 817.5,-287.5 817.5,-257.5 716.5,-257.5"/>
<text text-anchor="start" x="724.5" y="-275.5" font-family="Helvetica,sans-Serif" font-size="10.00">../core&#45;lib/include</text>
<text text-anchor="middle" x="767" y="-264.5" font-family="Helvetica,sans-Serif" font-size="10.00">/EventQueue.h</text>
</a>
</g>
</g>
<!-- Node1&#45;&gt;Node3 -->
<g id="edge2" class="edge">
<title>Node1&#45;&gt;Node3</title>
<path fill="none" stroke="midnightblue" d="M605.94,-391.3C641.41,-365.35 703.47,-319.96 739.32,-293.75"/>
<polygon fill="midnightblue" stroke="midnightblue" points="741.83,-296.25 747.83,-287.52 737.69,-290.6 741.83,-296.25"/>
</g>
<!-- Node6 -->
<g id="node6" class="node">
<title>Node6</title>
<g id="a_node6"><a xlink:href="_event_8h.html" target="_top" xlink:title=" ">
<polygon fill="none" stroke="black" points="528.5,-257.5 528.5,-287.5 629.5,-287.5 629.5,-257.5 528.5,-257.5"/>
<text text-anchor="start" x="536.5" y="-275.5" font-family="Helvetica,sans-Serif" font-size="10.00">../core&#45;lib/include</text>
<text text-anchor="middle" x="579" y="-264.5" font-family="Helvetica,sans-Serif" font-size="10.00">/Event.h</text>
</a>
</g>
</g>
<!-- Node1&#45;&gt;Node6 -->
<g id="edge5" class="edge">
<title>Node1&#45;&gt;Node6</title>
<path fill="none" stroke="midnightblue" d="M579,-391.3C579,-366.63 579,-324.38 579,-297.75"/>
<polygon fill="midnightblue" stroke="midnightblue" points="582.5,-297.72 579,-287.72 575.5,-297.72 582.5,-297.72"/>
</g>
<!-- Node16 -->
<g id="node16" class="node">
<title>Node16</title>
<g id="a_node16"><a xlink:href="_board_8h.html" target="_top" xlink:title=" ">
<polygon fill="none" stroke="black" points="454,-330 454,-349 546,-349 546,-330 454,-330"/>
<text text-anchor="middle" x="500" y="-337" font-family="Helvetica,sans-Serif" font-size="10.00">include/Board.h</text>
</a>
</g>
</g>
<!-- Node1&#45;&gt;Node16 -->
<g id="edge21" class="edge">
<title>Node1&#45;&gt;Node16</title>
<path fill="none" stroke="midnightblue" d="M556.99,-391.36C544.5,-380.21 529.09,-366.46 517.44,-356.06"/>
<polygon fill="midnightblue" stroke="midnightblue" points="519.51,-353.22 509.72,-349.17 514.85,-358.44 519.51,-353.22"/>
</g>
<!-- Node18 -->
<g id="node18" class="node">
<title>Node18</title>
<g id="a_node18"><a xlink:href="_grid_8h.html" target="_top" xlink:title=" ">
<polygon fill="none" stroke="black" points="651,-263 651,-282 697,-282 697,-263 651,-263"/>
<text text-anchor="middle" x="674" y="-270" font-family="Helvetica,sans-Serif" font-size="10.00">Grid.h</text>
</a>
</g>
</g>
<!-- Node1&#45;&gt;Node18 -->
<g id="edge35" class="edge">
<title>Node1&#45;&gt;Node18</title>
<path fill="none" stroke="midnightblue" d="M592.61,-391.3C611.35,-364.18 644.76,-315.83 662.38,-290.32"/>
<polygon fill="midnightblue" stroke="midnightblue" points="665.3,-292.25 668.1,-282.04 659.54,-288.28 665.3,-292.25"/>
</g>
<!-- Node19 -->
<g id="node19" class="node">
<title>Node19</title>
<g id="a_node19"><a xlink:href="_grid_builder_8h.html" target="_top" xlink:title=" ">
<polygon fill="none" stroke="black" points="0,-129 0,-148 118,-148 118,-129 0,-129"/>
<text text-anchor="middle" x="59" y="-136" font-family="Helvetica,sans-Serif" font-size="10.00">include/GridBuilder.h</text>
</a>
</g>
</g>
<!-- Node1&#45;&gt;Node19 -->
<g id="edge36" class="edge">
<title>Node1&#45;&gt;Node19</title>
<path fill="none" stroke="midnightblue" d="M503.14,-409.47C397.27,-405.92 212.17,-394.13 159,-355 92.22,-305.85 68.65,-201 61.61,-158.24"/>
<polygon fill="midnightblue" stroke="midnightblue" points="65.07,-157.71 60.1,-148.35 58.15,-158.76 65.07,-157.71"/>
</g>
<!-- Node20 -->
<g id="node20" class="node">
<title>Node20</title>
<g id="a_node20"><a xlink:href="_tile_manager_8h.html" target="_top" xlink:title=" ">
<polygon fill="none" stroke="black" points="59,-62 59,-81 183,-81 183,-62 59,-62"/>
<text text-anchor="middle" x="121" y="-69" font-family="Helvetica,sans-Serif" font-size="10.00">include/TileManager.h</text>
</a>
</g>
</g>
<!-- Node1&#45;&gt;Node20 -->
<g id="edge38" class="edge">
<title>Node1&#45;&gt;Node20</title>
<path fill="none" stroke="midnightblue" d="M503.11,-401.09C385.6,-383.6 173,-342.43 173,-273.5 173,-273.5 173,-273.5 173,-204.5 173,-160.58 147.77,-113.79 132.46,-89.45"/>
<polygon fill="midnightblue" stroke="midnightblue" points="135.35,-87.48 126.97,-81 129.48,-91.29 135.35,-87.48"/>
</g>
<!-- Node21 -->
<g id="node21" class="node">
<title>Node21</title>
<g id="a_node21"><a xlink:href="_bullet_8h.html" target="_top" xlink:title=" ">
<polygon fill="none" stroke="black" points="832.5,-123.5 832.5,-153.5 933.5,-153.5 933.5,-123.5 832.5,-123.5"/>
<text text-anchor="start" x="840.5" y="-141.5" font-family="Helvetica,sans-Serif" font-size="10.00">../tank&#45;lib/include</text>
<text text-anchor="middle" x="883" y="-130.5" font-family="Helvetica,sans-Serif" font-size="10.00">/Bullet.h</text>
</a>
</g>
</g>
<!-- Node1&#45;&gt;Node21 -->
<g id="edge40" class="edge">
<title>Node1&#45;&gt;Node21</title>
<path fill="none" stroke="midnightblue" d="M654.75,-409.88C722.88,-406.17 824.11,-393.78 903,-355 942.52,-335.57 958.28,-328.32 976,-288 993.53,-248.13 998.27,-227.43 976,-190 967.6,-175.88 953.72,-165.46 939.21,-157.88"/>
<polygon fill="midnightblue" stroke="midnightblue" points="940.67,-154.7 930.14,-153.52 937.63,-161.01 940.67,-154.7"/>
</g>
<!-- Node23 -->
<g id="node23" class="node">
<title>Node23</title>
<g id="a_node23"><a xlink:href="_bot_controller_8h.html" target="_top" xlink:title=" ">
<polygon fill="none" stroke="black" points="798.5,-324.5 798.5,-354.5 893.5,-354.5 893.5,-324.5 798.5,-324.5"/>
<text text-anchor="start" x="806.5" y="-342.5" font-family="Helvetica,sans-Serif" font-size="10.00">../bot&#45;lib/include</text>
<text text-anchor="middle" x="846" y="-331.5" font-family="Helvetica,sans-Serif" font-size="10.00">/BotController.h</text>
</a>
</g>
</g>
<!-- Node1&#45;&gt;Node23 -->
<g id="edge45" class="edge">
<title>Node1&#45;&gt;Node23</title>
<path fill="none" stroke="midnightblue" d="M653.02,-391.46C695.84,-380.15 748.93,-366.13 788.58,-355.66"/>
<polygon fill="midnightblue" stroke="midnightblue" points="789.58,-359.02 798.36,-353.08 787.8,-352.25 789.58,-359.02"/>
</g>
<!-- Node4 -->
<g id="node4" class="node">
<title>Node4</title>
<g id="a_node4"><a xlink:title=" ">
<polygon fill="none" stroke="#bfbfbf" points="810.5,-196 810.5,-215 857.5,-215 857.5,-196 810.5,-196"/>
<text text-anchor="middle" x="834" y="-203" font-family="Helvetica,sans-Serif" font-size="10.00">queue</text>
</a>
</g>
</g>
<!-- Node3&#45;&gt;Node4 -->
<g id="edge3" class="edge">
<title>Node3&#45;&gt;Node4</title>
<path fill="none" stroke="midnightblue" d="M781.54,-257.4C792.19,-247.06 806.66,-233.02 817.7,-222.31"/>
<polygon fill="midnightblue" stroke="midnightblue" points="820.3,-224.67 825.04,-215.19 815.42,-219.65 820.3,-224.67"/>
</g>
<!-- Node5 -->
<g id="node5" class="node">
<title>Node5</title>
<g id="a_node5"><a xlink:title=" ">
<polygon fill="none" stroke="#bfbfbf" points="355,-0.5 355,-19.5 413,-19.5 413,-0.5 355,-0.5"/>
<text text-anchor="middle" x="384" y="-7.5" font-family="Helvetica,sans-Serif" font-size="10.00">memory</text>
</a>
</g>
</g>
<!-- Node3&#45;&gt;Node5 -->
<g id="edge4" class="edge">
<title>Node3&#45;&gt;Node5</title>
<path fill="none" stroke="midnightblue" d="M817.59,-258.32C836.47,-250.67 855.99,-238.89 867,-221 874.22,-209.27 874.4,-201.62 867,-190 846.72,-158.13 817.27,-180.14 790,-154 754.55,-120.03 779.29,-84.07 739,-56 688.69,-20.95 504.91,-13.2 423.39,-11.48"/>
<polygon fill="midnightblue" stroke="midnightblue" points="423.12,-7.98 413.05,-11.29 422.99,-14.98 423.12,-7.98"/>
</g>
<!-- Node6&#45;&gt;Node5 -->
<g id="edge8" class="edge">
<title>Node6&#45;&gt;Node5</title>
<path fill="none" stroke="midnightblue" d="M528.43,-264.06C462.89,-253.9 355.57,-235.32 344,-221 331.91,-206.04 365.65,-77.55 378.91,-29.25"/>
<polygon fill="midnightblue" stroke="midnightblue" points="382.31,-30.09 381.6,-19.51 375.56,-28.22 382.31,-30.09"/>
</g>
<!-- Node7 -->
<g id="node7" class="node">
<title>Node7</title>
<g id="a_node7"><a xlink:title=" ">
<polygon fill="none" stroke="#bfbfbf" points="688.5,-196 688.5,-215 753.5,-215 753.5,-196 688.5,-196"/>
<text text-anchor="middle" x="721" y="-203" font-family="Helvetica,sans-Serif" font-size="10.00">exception</text>
</a>
</g>
</g>
<!-- Node6&#45;&gt;Node7 -->
<g id="edge6" class="edge">
<title>Node6&#45;&gt;Node7</title>
<path fill="none" stroke="midnightblue" d="M609.81,-257.4C634.62,-246.04 669.18,-230.22 693.16,-219.24"/>
<polygon fill="midnightblue" stroke="midnightblue" points="694.78,-222.35 702.42,-215.01 691.87,-215.99 694.78,-222.35"/>
</g>
<!-- Node8 -->
<g id="node8" class="node">
<title>Node8</title>
<g id="a_node8"><a xlink:title=" ">
<polygon fill="none" stroke="#bfbfbf" points="557,-196 557,-215 601,-215 601,-196 557,-196"/>
<text text-anchor="middle" x="579" y="-203" font-family="Helvetica,sans-Serif" font-size="10.00">string</text>
</a>
</g>
</g>
<!-- Node6&#45;&gt;Node8 -->
<g id="edge7" class="edge">
<title>Node6&#45;&gt;Node8</title>
<path fill="none" stroke="midnightblue" d="M579,-257.4C579,-248.06 579,-235.71 579,-225.52"/>
<polygon fill="midnightblue" stroke="midnightblue" points="582.5,-225.19 579,-215.19 575.5,-225.19 582.5,-225.19"/>
</g>
<!-- Node9 -->
<g id="node9" class="node">
<title>Node9</title>
<g id="a_node9"><a xlink:title=" ">
<polygon fill="none" stroke="#bfbfbf" points="619.5,-196 619.5,-215 670.5,-215 670.5,-196 619.5,-196"/>
<text text-anchor="middle" x="645" y="-203" font-family="Helvetica,sans-Serif" font-size="10.00">variant</text>
</a>
</g>
</g>
<!-- Node6&#45;&gt;Node9 -->
<g id="edge9" class="edge">
<title>Node6&#45;&gt;Node9</title>
<path fill="none" stroke="midnightblue" d="M593.32,-257.4C603.82,-247.06 618.07,-233.02 628.95,-222.31"/>
<polygon fill="midnightblue" stroke="midnightblue" points="631.5,-224.71 636.17,-215.19 626.59,-219.72 631.5,-224.71"/>
</g>
<!-- Node10 -->
<g id="node10" class="node">
<title>Node10</title>
<g id="a_node10"><a xlink:href="_entity_8h.html" target="_top" xlink:title=" ">
<polygon fill="none" stroke="black" points="481,-56.5 481,-86.5 591,-86.5 591,-56.5 481,-56.5"/>
<text text-anchor="start" x="489" y="-74.5" font-family="Helvetica,sans-Serif" font-size="10.00">../../tank&#45;lib/include</text>
<text text-anchor="middle" x="536" y="-63.5" font-family="Helvetica,sans-Serif" font-size="10.00">/Entity.h</text>
</a>
</g>
</g>
<!-- Node6&#45;&gt;Node10 -->
<g id="edge10" class="edge">
<title>Node6&#45;&gt;Node10</title>
<path fill="none" stroke="midnightblue" d="M567.81,-257.38C560.82,-247.72 552.34,-234.3 548,-221 534.33,-179.14 533.54,-127.28 534.54,-97.23"/>
<polygon fill="midnightblue" stroke="midnightblue" points="538.05,-96.99 534.98,-86.85 531.06,-96.69 538.05,-96.99"/>
</g>
<!-- Node11 -->
<g id="node11" class="node">
<title>Node11</title>
<g id="a_node11"><a xlink:href="_tank_8h.html" target="_top" xlink:title=" ">
<polygon fill="none" stroke="black" points="353,-190.5 353,-220.5 463,-220.5 463,-190.5 353,-190.5"/>
<text text-anchor="start" x="361" y="-208.5" font-family="Helvetica,sans-Serif" font-size="10.00">../../tank&#45;lib/include</text>
<text text-anchor="middle" x="408" y="-197.5" font-family="Helvetica,sans-Serif" font-size="10.00">/Tank.h</text>
</a>
</g>
</g>
<!-- Node6&#45;&gt;Node11 -->
<g id="edge11" class="edge">
<title>Node6&#45;&gt;Node11</title>
<path fill="none" stroke="midnightblue" d="M541.9,-257.4C516.24,-247.64 481.91,-234.59 454.44,-224.15"/>
<polygon fill="midnightblue" stroke="midnightblue" points="455.62,-220.86 445.03,-220.58 453.14,-227.4 455.62,-220.86"/>
</g>
<!-- Node11&#45;&gt;Node5 -->
<g id="edge12" class="edge">
<title>Node11&#45;&gt;Node5</title>
<path fill="none" stroke="midnightblue" d="M406.24,-190.27C401.98,-155.94 391.14,-68.57 386.34,-29.9"/>
<polygon fill="midnightblue" stroke="midnightblue" points="389.77,-29.07 385.06,-19.58 382.82,-29.93 389.77,-29.07"/>
</g>
<!-- Node11&#45;&gt;Node10 -->
<g id="edge17" class="edge">
<title>Node11&#45;&gt;Node10</title>
<path fill="none" stroke="midnightblue" d="M421.7,-190.37C444.12,-167.25 488.8,-121.18 515.17,-93.99"/>
<polygon fill="midnightblue" stroke="midnightblue" points="517.95,-96.14 522.4,-86.52 512.93,-91.27 517.95,-96.14"/>
</g>
<!-- Node12 -->
<g id="node12" class="node">
<title>Node12</title>
<g id="a_node12"><a xlink:title=" ">
<polygon fill="none" stroke="#bfbfbf" points="277,-129 277,-148 333,-148 333,-129 277,-129"/>
<text text-anchor="middle" x="305" y="-136" font-family="Helvetica,sans-Serif" font-size="10.00">optional</text>
</a>
</g>
</g>
<!-- Node11&#45;&gt;Node12 -->
<g id="edge13" class="edge">
<title>Node11&#45;&gt;Node12</title>
<path fill="none" stroke="midnightblue" d="M385.65,-190.4C368.38,-179.5 344.58,-164.48 327.32,-153.58"/>
<polygon fill="midnightblue" stroke="midnightblue" points="328.81,-150.38 318.48,-148.01 325.07,-156.3 328.81,-150.38"/>
</g>
<!-- Node13 -->
<g id="node13" class="node">
<title>Node13</title>
<g id="a_node13"><a xlink:href="_simple_subscriber_8h.html" target="_top" xlink:title=" ">
<polygon fill="none" stroke="black" points="616.5,-56.5 616.5,-86.5 729.5,-86.5 729.5,-56.5 616.5,-56.5"/>
<text text-anchor="start" x="624.5" y="-74.5" font-family="Helvetica,sans-Serif" font-size="10.00">../../core&#45;lib/include</text>
<text text-anchor="middle" x="673" y="-63.5" font-family="Helvetica,sans-Serif" font-size="10.00">/SimpleSubscriber.h</text>
</a>
</g>
</g>
<!-- Node11&#45;&gt;Node13 -->
<g id="edge14" class="edge">
<title>Node11&#45;&gt;Node13</title>
<path fill="none" stroke="midnightblue" d="M463.34,-192.76C467.96,-191.81 472.56,-190.88 477,-190 519.8,-181.51 641.51,-187.04 670,-154 683.31,-138.57 682.6,-114.72 679.43,-96.8"/>
<polygon fill="midnightblue" stroke="midnightblue" points="682.8,-95.85 677.3,-86.8 675.96,-97.31 682.8,-95.85"/>
</g>
<!-- Node15 -->
<g id="node15" class="node">
<title>Node15</title>
<g id="a_node15"><a xlink:href="_bot_8h.html" target="_top" xlink:title=" ">
<polygon fill="none" stroke="black" points="557,-123.5 557,-153.5 661,-153.5 661,-123.5 557,-123.5"/>
<text text-anchor="start" x="565" y="-141.5" font-family="Helvetica,sans-Serif" font-size="10.00">../../bot&#45;lib/include</text>
<text text-anchor="middle" x="609" y="-130.5" font-family="Helvetica,sans-Serif" font-size="10.00">/Bot.h</text>
</a>
</g>
</g>
<!-- Node11&#45;&gt;Node15 -->
<g id="edge18" class="edge">
<title>Node11&#45;&gt;Node15</title>
<path fill="none" stroke="midnightblue" d="M451.61,-190.4C482.17,-180.52 523.18,-167.25 555.68,-156.74"/>
<polygon fill="midnightblue" stroke="midnightblue" points="557.03,-159.98 565.47,-153.58 554.88,-153.32 557.03,-159.98"/>
</g>
<!-- Node13&#45;&gt;Node5 -->
<g id="edge16" class="edge">
<title>Node13&#45;&gt;Node5</title>
<path fill="none" stroke="midnightblue" d="M616.25,-58.82C559.31,-47.09 473.12,-29.35 423.32,-19.09"/>
<polygon fill="midnightblue" stroke="midnightblue" points="423.76,-15.61 413.26,-17.02 422.35,-22.47 423.76,-15.61"/>
</g>
<!-- Node14 -->
<g id="node14" class="node">
<title>Node14</title>
<g id="a_node14"><a xlink:title=" ">
<polygon fill="none" stroke="#bfbfbf" points="938.5,-0.5 938.5,-19.5 985.5,-19.5 985.5,-0.5 938.5,-0.5"/>
<text text-anchor="middle" x="962" y="-7.5" font-family="Helvetica,sans-Serif" font-size="10.00">vector</text>
</a>
</g>
</g>
<!-- Node13&#45;&gt;Node14 -->
<g id="edge15" class="edge">
<title>Node13&#45;&gt;Node14</title>
<path fill="none" stroke="midnightblue" d="M729.75,-58.82C788.87,-46.65 879.51,-27.98 928.24,-17.95"/>
<polygon fill="midnightblue" stroke="midnightblue" points="929.17,-21.33 938.25,-15.89 927.75,-14.48 929.17,-21.33"/>
</g>
<!-- Node15&#45;&gt;Node10 -->
<g id="edge19" class="edge">
<title>Node15&#45;&gt;Node10</title>
<path fill="none" stroke="midnightblue" d="M593.16,-123.4C583.31,-114.62 570.46,-103.18 559.44,-93.37"/>
<polygon fill="midnightblue" stroke="midnightblue" points="561.6,-90.61 551.81,-86.58 556.95,-95.84 561.6,-90.61"/>
</g>
<!-- Node15&#45;&gt;Node13 -->
<g id="edge20" class="edge">
<title>Node15&#45;&gt;Node13</title>
<path fill="none" stroke="midnightblue" d="M622.89,-123.4C631.36,-114.79 642.35,-103.63 651.89,-93.94"/>
<polygon fill="midnightblue" stroke="midnightblue" points="654.62,-96.16 659.14,-86.58 649.63,-91.25 654.62,-96.16"/>
</g>
<!-- Node16&#45;&gt;Node3 -->
<g id="edge23" class="edge">
<title>Node16&#45;&gt;Node3</title>
<path fill="none" stroke="midnightblue" d="M535.18,-329.94C578.68,-319.35 653.44,-301.15 706.28,-288.28"/>
<polygon fill="midnightblue" stroke="midnightblue" points="707.32,-291.63 716.21,-285.86 705.67,-284.83 707.32,-291.63"/>
</g>
<!-- Node16&#45;&gt;Node5 -->
<g id="edge22" class="edge">
<title>Node16&#45;&gt;Node5</title>
<path fill="none" stroke="midnightblue" d="M453.89,-337.68C372.29,-333.54 211,-311.99 211,-206.5 211,-206.5 211,-206.5 211,-137.5 211,-71.57 293.88,-36.31 344.91,-20.84"/>
<polygon fill="midnightblue" stroke="midnightblue" points="346.03,-24.16 354.65,-18.01 344.07,-17.44 346.03,-24.16"/>
</g>
<!-- Node16&#45;&gt;Node11 -->
<g id="edge24" class="edge">
<title>Node16&#45;&gt;Node11</title>
<path fill="none" stroke="midnightblue" d="M498.7,-329.91C495.98,-314.2 488.53,-280.31 472,-257 463.65,-245.22 451.79,-234.81 440.55,-226.55"/>
<polygon fill="midnightblue" stroke="midnightblue" points="442.34,-223.53 432.14,-220.67 438.33,-229.27 442.34,-223.53"/>
</g>
<!-- Node17 -->
<g id="node17" class="node">
<title>Node17</title>
<g id="a_node17"><a xlink:href="_entity_controller_8h.html" target="_top" xlink:title=" ">
<polygon fill="none" stroke="black" points="353,-257.5 353,-287.5 463,-287.5 463,-257.5 353,-257.5"/>
<text text-anchor="start" x="361" y="-275.5" font-family="Helvetica,sans-Serif" font-size="10.00">../../tank&#45;lib/include</text>
<text text-anchor="middle" x="408" y="-264.5" font-family="Helvetica,sans-Serif" font-size="10.00">/EntityController.h</text>
</a>
</g>
</g>
<!-- Node16&#45;&gt;Node17 -->
<g id="edge25" class="edge">
<title>Node16&#45;&gt;Node17</title>
<path fill="none" stroke="midnightblue" d="M487.59,-329.73C474.56,-320.53 453.62,-305.73 436.49,-293.63"/>
<polygon fill="midnightblue" stroke="midnightblue" points="438.13,-290.5 427.94,-287.59 434.09,-296.22 438.13,-290.5"/>
</g>
<!-- Node16&#45;&gt;Node18 -->
<g id="edge30" class="edge">
<title>Node16&#45;&gt;Node18</title>
<path fill="none" stroke="midnightblue" d="M524.48,-329.98C552.34,-320.19 599.15,-303.48 639,-288 640.64,-287.36 642.33,-286.7 644.02,-286.02"/>
<polygon fill="midnightblue" stroke="midnightblue" points="645.76,-289.09 653.7,-282.09 643.12,-282.61 645.76,-289.09"/>
</g>
<!-- Node17&#45;&gt;Node5 -->
<g id="edge27" class="edge">
<title>Node17&#45;&gt;Node5</title>
<path fill="none" stroke="midnightblue" d="M357.63,-257.5C336.73,-249.6 313.54,-237.85 297,-221 274.27,-197.85 274.58,-185.77 268,-154 265.21,-140.51 262.62,-135.68 268,-123 286.75,-78.82 332.42,-43.58 360.53,-25.13"/>
<polygon fill="midnightblue" stroke="midnightblue" points="362.44,-28.06 368.99,-19.73 358.68,-22.16 362.44,-28.06"/>
</g>
<!-- Node17&#45;&gt;Node11 -->
<g id="edge29" class="edge">
<title>Node17&#45;&gt;Node11</title>
<path fill="none" stroke="midnightblue" d="M408,-257.4C408,-249.64 408,-239.81 408,-230.86"/>
<polygon fill="midnightblue" stroke="midnightblue" points="411.5,-230.58 408,-220.58 404.5,-230.58 411.5,-230.58"/>
</g>
<!-- Node17&#45;&gt;Node12 -->
<g id="edge28" class="edge">
<title>Node17&#45;&gt;Node12</title>
<path fill="none" stroke="midnightblue" d="M359.28,-257.45C341.12,-249.68 322.22,-238.05 311,-221 298.72,-202.34 299.27,-175.81 301.52,-158.15"/>
<polygon fill="midnightblue" stroke="midnightblue" points="304.99,-158.64 303.08,-148.22 298.07,-157.55 304.99,-158.64"/>
</g>
<!-- Node17&#45;&gt;Node14 -->
<g id="edge26" class="edge">
<title>Node17&#45;&gt;Node14</title>
<path fill="none" stroke="midnightblue" d="M426.22,-257.33C451.81,-238.3 500.58,-205.14 548,-190 631.97,-163.19 879.4,-215.03 943,-154 976.8,-121.57 971.35,-60.2 965.97,-29.48"/>
<polygon fill="midnightblue" stroke="midnightblue" points="969.4,-28.81 964.06,-19.66 962.53,-30.15 969.4,-28.81"/>
</g>
<!-- Node18&#45;&gt;Node4 -->
<g id="edge33" class="edge">
<title>Node18&#45;&gt;Node4</title>
<path fill="none" stroke="midnightblue" d="M693.75,-262.99C698.41,-261.01 703.37,-258.91 708,-257 740.11,-243.72 777.02,-228.99 802.56,-218.88"/>
<polygon fill="midnightblue" stroke="midnightblue" points="804.08,-222.04 812.09,-215.11 801.5,-215.53 804.08,-222.04"/>
</g>
<!-- Node18&#45;&gt;Node7 -->
<g id="edge31" class="edge">
<title>Node18&#45;&gt;Node7</title>
<path fill="none" stroke="midnightblue" d="M680.34,-262.73C687.6,-252.7 699.66,-236.01 708.76,-223.42"/>
<polygon fill="midnightblue" stroke="midnightblue" points="711.74,-225.28 714.76,-215.13 706.07,-221.18 711.74,-225.28"/>
</g>
<!-- Node18&#45;&gt;Node11 -->
<g id="edge34" class="edge">
<title>Node18&#45;&gt;Node11</title>
<path fill="none" stroke="midnightblue" d="M654.97,-262.9C649.85,-260.78 644.27,-258.65 639,-257 584.08,-239.77 520.02,-226.27 473.32,-217.57"/>
<polygon fill="midnightblue" stroke="midnightblue" points="473.79,-214.1 463.32,-215.74 472.53,-220.99 473.79,-214.1"/>
</g>
<!-- Node18&#45;&gt;Node14 -->
<g id="edge32" class="edge">
<title>Node18&#45;&gt;Node14</title>
<path fill="none" stroke="midnightblue" d="M690.87,-262.94C709.12,-253.44 738.85,-237.3 763,-221 781.35,-208.61 781.95,-199.39 802,-190 873.52,-156.52 926.14,-215.24 976,-154 1005.45,-117.84 984.42,-58.23 970.93,-28.7"/>
<polygon fill="midnightblue" stroke="midnightblue" points="974.05,-27.11 966.57,-19.6 967.74,-30.13 974.05,-27.11"/>
</g>
<!-- Node19&#45;&gt;Node5 -->
<g id="edge37" class="edge">
<title>Node19&#45;&gt;Node5</title>
<path fill="none" stroke="midnightblue" d="M54.22,-128.62C46.07,-112.13 32.01,-76.58 50,-56 87.87,-12.68 264.68,-9.36 344.6,-10.15"/>
<polygon fill="midnightblue" stroke="midnightblue" points="344.71,-13.65 354.76,-10.28 344.8,-6.65 344.71,-13.65"/>
</g>
<!-- Node20&#45;&gt;Node5 -->
<g id="edge39" class="edge">
<title>Node20&#45;&gt;Node5</title>
<path fill="none" stroke="midnightblue" d="M158.68,-61.98C208.25,-50.76 294.91,-31.15 345.09,-19.8"/>
<polygon fill="midnightblue" stroke="midnightblue" points="345.93,-23.2 354.91,-17.58 344.38,-16.37 345.93,-23.2"/>
</g>
<!-- Node21&#45;&gt;Node10 -->
<g id="edge44" class="edge">
<title>Node21&#45;&gt;Node10</title>
<path fill="none" stroke="midnightblue" d="M832.27,-128.45C777.05,-118.54 686.17,-102.05 608,-87 605.68,-86.55 603.31,-86.09 600.92,-85.63"/>
<polygon fill="midnightblue" stroke="midnightblue" points="601.5,-82.18 591.02,-83.68 600.15,-89.04 601.5,-82.18"/>
</g>
<!-- Node22 -->
<g id="node22" class="node">
<title>Node22</title>
<g id="a_node22"><a xlink:href="_simple_publisher_8h.html" target="_top" xlink:title=" ">
<polygon fill="none" stroke="black" points="824,-56.5 824,-86.5 934,-86.5 934,-56.5 824,-56.5"/>
<text text-anchor="start" x="832" y="-74.5" font-family="Helvetica,sans-Serif" font-size="10.00">../../core&#45;lib/include</text>
<text text-anchor="middle" x="879" y="-63.5" font-family="Helvetica,sans-Serif" font-size="10.00">/SimplePublisher.h</text>
</a>
</g>
</g>
<!-- Node21&#45;&gt;Node22 -->
<g id="edge41" class="edge">
<title>Node21&#45;&gt;Node22</title>
<path fill="none" stroke="midnightblue" d="M882.13,-123.4C881.65,-115.56 881.04,-105.6 880.48,-96.57"/>
<polygon fill="midnightblue" stroke="midnightblue" points="883.97,-96.34 879.87,-86.58 876.99,-96.77 883.97,-96.34"/>
</g>
<!-- Node22&#45;&gt;Node5 -->
<g id="edge42" class="edge">
<title>Node22&#45;&gt;Node5</title>
<path fill="none" stroke="midnightblue" d="M823.73,-58.37C819.1,-57.51 814.47,-56.7 810,-56 668.56,-33.73 498.91,-19.5 423.49,-13.82"/>
<polygon fill="midnightblue" stroke="midnightblue" points="423.29,-10.3 413.06,-13.04 422.77,-17.28 423.29,-10.3"/>
</g>
<!-- Node22&#45;&gt;Node14 -->
<g id="edge43" class="edge">
<title>Node22&#45;&gt;Node14</title>
<path fill="none" stroke="midnightblue" d="M898.67,-56.4C911.6,-47.13 928.49,-35.03 941.57,-25.65"/>
<polygon fill="midnightblue" stroke="midnightblue" points="943.83,-28.33 949.92,-19.66 939.76,-22.64 943.83,-28.33"/>
</g>
<!-- Node23&#45;&gt;Node3 -->
<g id="edge50" class="edge">
<title>Node23&#45;&gt;Node3</title>
<path fill="none" stroke="midnightblue" d="M828.86,-324.4C818.09,-315.54 804.02,-303.96 792.02,-294.09"/>
<polygon fill="midnightblue" stroke="midnightblue" points="794.05,-291.23 784.11,-287.58 789.61,-296.63 794.05,-291.23"/>
</g>
<!-- Node23&#45;&gt;Node4 -->
<g id="edge48" class="edge">
<title>Node23&#45;&gt;Node4</title>
<path fill="none" stroke="midnightblue" d="M844.72,-324.37C842.55,-300.5 838.15,-252.18 835.72,-225.41"/>
<polygon fill="midnightblue" stroke="midnightblue" points="839.17,-224.74 834.78,-215.1 832.2,-225.37 839.17,-224.74"/>
</g>
<!-- Node23&#45;&gt;Node5 -->
<g id="edge46" class="edge">
<title>Node23&#45;&gt;Node5</title>
<path fill="none" stroke="midnightblue" d="M862.03,-324.32C871.27,-315.04 882.02,-302.05 887,-288 893.31,-270.22 890.51,-202.49 883,-190 867.17,-163.67 845.74,-175.7 824,-154 787.86,-117.91 807.01,-83.54 764,-56 708.22,-20.27 508.73,-12.9 423.29,-11.39"/>
<polygon fill="midnightblue" stroke="midnightblue" points="423.27,-7.89 413.22,-11.23 423.16,-14.89 423.27,-7.89"/>
</g>
<!-- Node23&#45;&gt;Node6 -->
<g id="edge51" class="edge">
<title>Node23&#45;&gt;Node6</title>
<path fill="none" stroke="midnightblue" d="M798.27,-326.88C754.01,-316.11 687.96,-300.03 639.92,-288.33"/>
<polygon fill="midnightblue" stroke="midnightblue" points="640.5,-284.87 629.96,-285.91 638.85,-291.67 640.5,-284.87"/>
</g>
<!-- Node23&#45;&gt;Node13 -->
<g id="edge49" class="edge">
<title>Node23&#45;&gt;Node13</title>
<path fill="none" stroke="midnightblue" d="M853.87,-324.09C868.08,-295.92 894.12,-232.62 867,-190 846.72,-158.13 822.73,-172.87 790,-154 757.67,-135.37 722.85,-110.42 699.68,-93.05"/>
<polygon fill="midnightblue" stroke="midnightblue" points="701.49,-90.03 691.4,-86.8 697.27,-95.62 701.49,-90.03"/>
</g>
<!-- Node23&#45;&gt;Node14 -->
<g id="edge47" class="edge">
<title>Node23&#45;&gt;Node14</title>
<path fill="none" stroke="midnightblue" d="M893.95,-327.8C950.82,-311.95 1038,-276.28 1038,-206.5 1038,-206.5 1038,-206.5 1038,-137.5 1038,-92.12 1001.62,-48.98 979.2,-26.7"/>
<polygon fill="midnightblue" stroke="midnightblue" points="981.57,-24.13 971.94,-19.73 976.72,-29.18 981.57,-24.13"/>
</g>
</g>
</svg>
