<?xml version="1.0" encoding="UTF-8" standalone="no"?>
<!DOCTYPE svg PUBLIC "-//W3C//DTD SVG 1.1//EN"
 "http://www.w3.org/Graphics/SVG/1.1/DTD/svg11.dtd">
<!-- Generated by graphviz version 2.43.0 (0)
 -->
<!-- Title: /home/tomek/CLionProjects/proi/proi&#45;projekt/src/bot&#45;lib/Bot.cpp Pages: 1 -->
<svg width="947pt" height="430pt"
 viewBox="0.00 0.00 946.97 430.00" xmlns="http://www.w3.org/2000/svg" xmlns:xlink="http://www.w3.org/1999/xlink">
<g id="graph0" class="graph" transform="scale(1 1) rotate(0) translate(4 426)">
<title>/home/tomek/CLionProjects/proi/proi&#45;projekt/src/bot&#45;lib/Bot.cpp</title>
<!-- Node1 -->
<g id="node1" class="node">
<title>Node1</title>
<g id="a_node1"><a xlink:title=" ">
<polygon fill="#bfbfbf" stroke="black" points="432,-380.5 432,-421.5 583,-421.5 583,-380.5 432,-380.5"/>
<text text-anchor="start" x="440" y="-409.5" font-family="Helvetica,sans-Serif" font-size="10.00">/home/tomek/CLionProjects</text>
<text text-anchor="start" x="440" y="-398.5" font-family="Helvetica,sans-Serif" font-size="10.00">/proi/proi&#45;projekt/src</text>
<text text-anchor="middle" x="507.5" y="-387.5" font-family="Helvetica,sans-Serif" font-size="10.00">/bot&#45;lib/Bot.cpp</text>
</a>
</g>
</g>
<!-- Node2 -->
<g id="node2" class="node">
<title>Node2</title>
<g id="a_node2"><a xlink:href="_bot_8h.html" target="_top" xlink:title=" ">
<polygon fill="none" stroke="black" points="366.5,-129 366.5,-148 446.5,-148 446.5,-129 366.5,-129"/>
<text text-anchor="middle" x="406.5" y="-136" font-family="Helvetica,sans-Serif" font-size="10.00">include/Bot.h</text>
</a>
</g>
</g>
<!-- Node1&#45;&gt;Node2 -->
<g id="edge1" class="edge">
<title>Node1&#45;&gt;Node2</title>
<path fill="none" stroke="midnightblue" d="M495.54,-380.37C482.58,-358.47 461.96,-321.67 448.5,-288 430.33,-242.54 416.7,-186.31 410.39,-157.85"/>
<polygon fill="midnightblue" stroke="midnightblue" points="413.81,-157.11 408.26,-148.08 406.96,-158.59 413.81,-157.11"/>
</g>
<!-- Node7 -->
<g id="node7" class="node">
<title>Node7</title>
<g id="a_node7"><a xlink:href="_bot_controller_8h.html" target="_top" xlink:title=" ">
<polygon fill="none" stroke="black" points="535.5,-324.5 535.5,-343.5 663.5,-343.5 663.5,-324.5 535.5,-324.5"/>
<text text-anchor="middle" x="599.5" y="-331.5" font-family="Helvetica,sans-Serif" font-size="10.00">include/BotController.h</text>
</a>
</g>
</g>
<!-- Node1&#45;&gt;Node7 -->
<g id="edge6" class="edge">
<title>Node1&#45;&gt;Node7</title>
<path fill="none" stroke="midnightblue" d="M535.1,-380.5C549.21,-370.53 566.08,-358.61 579.01,-349.48"/>
<polygon fill="midnightblue" stroke="midnightblue" points="581.11,-352.28 587.25,-343.65 577.07,-346.56 581.11,-352.28"/>
</g>
<!-- Node9 -->
<g id="node9" class="node">
<title>Node9</title>
<g id="a_node9"><a xlink:href="_event_queue_8h.html" target="_top" xlink:title=" ">
<polygon fill="none" stroke="black" points="457.5,-257.5 457.5,-287.5 567.5,-287.5 567.5,-257.5 457.5,-257.5"/>
<text text-anchor="start" x="465.5" y="-275.5" font-family="Helvetica,sans-Serif" font-size="10.00">../../core&#45;lib/include</text>
<text text-anchor="middle" x="512.5" y="-264.5" font-family="Helvetica,sans-Serif" font-size="10.00">/EventQueue.h</text>
</a>
</g>
</g>
<!-- Node1&#45;&gt;Node9 -->
<g id="edge26" class="edge">
<title>Node1&#45;&gt;Node9</title>
<path fill="none" stroke="midnightblue" d="M508.28,-380.23C509.16,-357.94 510.6,-321.67 511.54,-297.7"/>
<polygon fill="midnightblue" stroke="midnightblue" points="515.04,-297.77 511.94,-287.64 508.05,-297.5 515.04,-297.77"/>
</g>
<!-- Node10 -->
<g id="node10" class="node">
<title>Node10</title>
<g id="a_node10"><a xlink:href="_event_8h.html" target="_top" xlink:title=" ">
<polygon fill="none" stroke="black" points="159.5,-257.5 159.5,-287.5 269.5,-287.5 269.5,-257.5 159.5,-257.5"/>
<text text-anchor="start" x="167.5" y="-275.5" font-family="Helvetica,sans-Serif" font-size="10.00">../../core&#45;lib/include</text>
<text text-anchor="middle" x="214.5" y="-264.5" font-family="Helvetica,sans-Serif" font-size="10.00">/Event.h</text>
</a>
</g>
</g>
<!-- Node1&#45;&gt;Node10 -->
<g id="edge27" class="edge">
<title>Node1&#45;&gt;Node10</title>
<path fill="none" stroke="midnightblue" d="M462.04,-380.37C405.94,-356.15 311.28,-315.29 256.71,-291.73"/>
<polygon fill="midnightblue" stroke="midnightblue" points="257.9,-288.43 247.34,-287.68 255.13,-294.85 257.9,-288.43"/>
</g>
<!-- Node16 -->
<g id="node16" class="node">
<title>Node16</title>
<g id="a_node16"><a xlink:href="_clock_8h.html" target="_top" xlink:title=" ">
<polygon fill="none" stroke="black" points="720,-123.5 720,-153.5 821,-153.5 821,-123.5 720,-123.5"/>
<text text-anchor="start" x="728" y="-141.5" font-family="Helvetica,sans-Serif" font-size="10.00">../core&#45;lib/include</text>
<text text-anchor="middle" x="770.5" y="-130.5" font-family="Helvetica,sans-Serif" font-size="10.00">/Clock.h</text>
</a>
</g>
</g>
<!-- Node1&#45;&gt;Node16 -->
<g id="edge28" class="edge">
<title>Node1&#45;&gt;Node16</title>
<path fill="none" stroke="midnightblue" d="M583.41,-387.57C613.95,-379.4 647.72,-365.98 672.5,-344 728.32,-294.49 755.2,-206.22 765.4,-163.7"/>
<polygon fill="midnightblue" stroke="midnightblue" points="768.87,-164.23 767.69,-153.7 762.04,-162.66 768.87,-164.23"/>
</g>
<!-- Node3 -->
<g id="node3" class="node">
<title>Node3</title>
<g id="a_node3"><a xlink:href="_entity_8h.html" target="_top" xlink:title=" ">
<polygon fill="none" stroke="black" points="200.5,-56.5 200.5,-86.5 310.5,-86.5 310.5,-56.5 200.5,-56.5"/>
<text text-anchor="start" x="208.5" y="-74.5" font-family="Helvetica,sans-Serif" font-size="10.00">../../tank&#45;lib/include</text>
<text text-anchor="middle" x="255.5" y="-63.5" font-family="Helvetica,sans-Serif" font-size="10.00">/Entity.h</text>
</a>
</g>
</g>
<!-- Node2&#45;&gt;Node3 -->
<g id="edge2" class="edge">
<title>Node2&#45;&gt;Node3</title>
<path fill="none" stroke="midnightblue" d="M386.45,-128.87C363.89,-119.16 326.61,-103.11 297.58,-90.61"/>
<polygon fill="midnightblue" stroke="midnightblue" points="298.66,-87.27 288.09,-86.53 295.89,-93.7 298.66,-87.27"/>
</g>
<!-- Node4 -->
<g id="node4" class="node">
<title>Node4</title>
<g id="a_node4"><a xlink:href="_simple_subscriber_8h.html" target="_top" xlink:title=" ">
<polygon fill="none" stroke="black" points="530,-56.5 530,-86.5 643,-86.5 643,-56.5 530,-56.5"/>
<text text-anchor="start" x="538" y="-74.5" font-family="Helvetica,sans-Serif" font-size="10.00">../../core&#45;lib/include</text>
<text text-anchor="middle" x="586.5" y="-63.5" font-family="Helvetica,sans-Serif" font-size="10.00">/SimpleSubscriber.h</text>
</a>
</g>
</g>
<!-- Node2&#45;&gt;Node4 -->
<g id="edge3" class="edge">
<title>Node2&#45;&gt;Node4</title>
<path fill="none" stroke="midnightblue" d="M430.4,-128.87C457.76,-118.99 503.29,-102.55 538.13,-89.97"/>
<polygon fill="midnightblue" stroke="midnightblue" points="539.44,-93.22 547.65,-86.53 537.06,-86.63 539.44,-93.22"/>
</g>
<!-- Node5 -->
<g id="node5" class="node">
<title>Node5</title>
<g id="a_node5"><a xlink:title=" ">
<polygon fill="none" stroke="#bfbfbf" points="766,-0.5 766,-19.5 813,-19.5 813,-0.5 766,-0.5"/>
<text text-anchor="middle" x="789.5" y="-7.5" font-family="Helvetica,sans-Serif" font-size="10.00">vector</text>
</a>
</g>
</g>
<!-- Node4&#45;&gt;Node5 -->
<g id="edge4" class="edge">
<title>Node4&#45;&gt;Node5</title>
<path fill="none" stroke="midnightblue" d="M634.35,-56.47C671.85,-45.48 723.06,-30.47 756.21,-20.76"/>
<polygon fill="midnightblue" stroke="midnightblue" points="757.27,-24.1 765.88,-17.92 755.3,-17.38 757.27,-24.1"/>
</g>
<!-- Node6 -->
<g id="node6" class="node">
<title>Node6</title>
<g id="a_node6"><a xlink:title=" ">
<polygon fill="none" stroke="#bfbfbf" points="557.5,-0.5 557.5,-19.5 615.5,-19.5 615.5,-0.5 557.5,-0.5"/>
<text text-anchor="middle" x="586.5" y="-7.5" font-family="Helvetica,sans-Serif" font-size="10.00">memory</text>
</a>
</g>
</g>
<!-- Node4&#45;&gt;Node6 -->
<g id="edge5" class="edge">
<title>Node4&#45;&gt;Node6</title>
<path fill="none" stroke="midnightblue" d="M586.5,-56.4C586.5,-48.47 586.5,-38.46 586.5,-29.86"/>
<polygon fill="midnightblue" stroke="midnightblue" points="590,-29.66 586.5,-19.66 583,-29.66 590,-29.66"/>
</g>
<!-- Node7&#45;&gt;Node4 -->
<g id="edge10" class="edge">
<title>Node7&#45;&gt;Node4</title>
<path fill="none" stroke="midnightblue" d="M600.23,-324.3C601.77,-305.47 605.3,-259.56 606.5,-221 606.93,-207.23 607.66,-203.73 606.5,-190 603.74,-157.28 596.71,-119.97 591.77,-96.34"/>
<polygon fill="midnightblue" stroke="midnightblue" points="595.19,-95.56 589.67,-86.51 588.34,-97.02 595.19,-95.56"/>
</g>
<!-- Node7&#45;&gt;Node5 -->
<g id="edge8" class="edge">
<title>Node7&#45;&gt;Node5</title>
<path fill="none" stroke="midnightblue" d="M652.68,-324.45C747.87,-307.62 937.5,-266.57 937.5,-206.5 937.5,-206.5 937.5,-206.5 937.5,-137.5 937.5,-100.31 943.36,-83.66 918.5,-56 894.21,-28.97 852.8,-18.18 823.46,-13.87"/>
<polygon fill="midnightblue" stroke="midnightblue" points="823.61,-10.36 813.24,-12.55 822.72,-17.3 823.61,-10.36"/>
</g>
<!-- Node7&#45;&gt;Node6 -->
<g id="edge7" class="edge">
<title>Node7&#45;&gt;Node6</title>
<path fill="none" stroke="midnightblue" d="M608.62,-324.46C627.99,-305.33 671.5,-256.79 671.5,-206.5 671.5,-206.5 671.5,-206.5 671.5,-137.5 671.5,-100.31 673.52,-86.68 652.5,-56 643.2,-42.43 628.35,-31.77 615.09,-24.24"/>
<polygon fill="midnightblue" stroke="midnightblue" points="616.72,-21.15 606.25,-19.53 613.43,-27.32 616.72,-21.15"/>
</g>
<!-- Node8 -->
<g id="node8" class="node">
<title>Node8</title>
<g id="a_node8"><a xlink:title=" ">
<polygon fill="none" stroke="#bfbfbf" points="550,-196 550,-215 597,-215 597,-196 550,-196"/>
<text text-anchor="middle" x="573.5" y="-203" font-family="Helvetica,sans-Serif" font-size="10.00">queue</text>
</a>
</g>
</g>
<!-- Node7&#45;&gt;Node8 -->
<g id="edge9" class="edge">
<title>Node7&#45;&gt;Node8</title>
<path fill="none" stroke="midnightblue" d="M597.71,-324.31C593.54,-303.99 583.07,-253.05 577.36,-225.28"/>
<polygon fill="midnightblue" stroke="midnightblue" points="580.74,-224.35 575.3,-215.26 573.88,-225.76 580.74,-224.35"/>
</g>
<!-- Node7&#45;&gt;Node9 -->
<g id="edge11" class="edge">
<title>Node7&#45;&gt;Node9</title>
<path fill="none" stroke="midnightblue" d="M587.04,-324.48C575.14,-316.34 556.79,-303.79 541.27,-293.18"/>
<polygon fill="midnightblue" stroke="midnightblue" points="543.23,-290.28 533,-287.52 539.28,-296.06 543.23,-290.28"/>
</g>
<!-- Node7&#45;&gt;Node10 -->
<g id="edge14" class="edge">
<title>Node7&#45;&gt;Node10</title>
<path fill="none" stroke="midnightblue" d="M544.34,-324.48C474.44,-313.67 354.13,-295.08 279.74,-283.58"/>
<polygon fill="midnightblue" stroke="midnightblue" points="279.98,-280.08 269.56,-282.01 278.91,-287 279.98,-280.08"/>
</g>
<!-- Node9&#45;&gt;Node6 -->
<g id="edge13" class="edge">
<title>Node9&#45;&gt;Node6</title>
<path fill="none" stroke="midnightblue" d="M509.02,-257.25C500.97,-220.98 484.46,-123.24 521.5,-56 529.12,-42.17 543.02,-31.68 556.02,-24.32"/>
<polygon fill="midnightblue" stroke="midnightblue" points="557.98,-27.25 565.22,-19.51 554.74,-21.04 557.98,-27.25"/>
</g>
<!-- Node9&#45;&gt;Node8 -->
<g id="edge12" class="edge">
<title>Node9&#45;&gt;Node8</title>
<path fill="none" stroke="midnightblue" d="M525.74,-257.4C535.34,-247.16 548.35,-233.3 558.37,-222.62"/>
<polygon fill="midnightblue" stroke="midnightblue" points="561.05,-224.88 565.34,-215.19 555.95,-220.09 561.05,-224.88"/>
</g>
<!-- Node10&#45;&gt;Node3 -->
<g id="edge19" class="edge">
<title>Node10&#45;&gt;Node3</title>
<path fill="none" stroke="midnightblue" d="M186.78,-257.46C173.16,-248.94 158.09,-236.67 150.5,-221 144.49,-208.6 145.74,-202.93 150.5,-190 165.5,-149.22 202.3,-113.82 228.08,-92.82"/>
<polygon fill="midnightblue" stroke="midnightblue" points="230.36,-95.47 236.02,-86.51 226.01,-89.99 230.36,-95.47"/>
</g>
<!-- Node10&#45;&gt;Node6 -->
<g id="edge17" class="edge">
<title>Node10&#45;&gt;Node6</title>
<path fill="none" stroke="midnightblue" d="M181.91,-257.44C167.03,-249.16 150.88,-237.12 142.5,-221 114.79,-167.71 134.02,-101.24 191.5,-56 246.03,-13.08 458.59,-9.82 547.29,-10.4"/>
<polygon fill="midnightblue" stroke="midnightblue" points="547.44,-13.9 557.47,-10.49 547.5,-6.9 547.44,-13.9"/>
</g>
<!-- Node11 -->
<g id="node11" class="node">
<title>Node11</title>
<g id="a_node11"><a xlink:title=" ">
<polygon fill="none" stroke="#bfbfbf" points="0,-196 0,-215 65,-215 65,-196 0,-196"/>
<text text-anchor="middle" x="32.5" y="-203" font-family="Helvetica,sans-Serif" font-size="10.00">exception</text>
</a>
</g>
</g>
<!-- Node10&#45;&gt;Node11 -->
<g id="edge15" class="edge">
<title>Node10&#45;&gt;Node11</title>
<path fill="none" stroke="midnightblue" d="M175.01,-257.4C142.37,-245.74 96.54,-229.37 65.75,-218.38"/>
<polygon fill="midnightblue" stroke="midnightblue" points="66.91,-215.07 56.32,-215.01 64.56,-221.67 66.91,-215.07"/>
</g>
<!-- Node12 -->
<g id="node12" class="node">
<title>Node12</title>
<g id="a_node12"><a xlink:title=" ">
<polygon fill="none" stroke="#bfbfbf" points="159.5,-196 159.5,-215 203.5,-215 203.5,-196 159.5,-196"/>
<text text-anchor="middle" x="181.5" y="-203" font-family="Helvetica,sans-Serif" font-size="10.00">string</text>
</a>
</g>
</g>
<!-- Node10&#45;&gt;Node12 -->
<g id="edge16" class="edge">
<title>Node10&#45;&gt;Node12</title>
<path fill="none" stroke="midnightblue" d="M207.34,-257.4C202.4,-247.66 195.79,-234.65 190.49,-224.21"/>
<polygon fill="midnightblue" stroke="midnightblue" points="193.56,-222.53 185.91,-215.19 187.32,-225.7 193.56,-222.53"/>
</g>
<!-- Node13 -->
<g id="node13" class="node">
<title>Node13</title>
<g id="a_node13"><a xlink:title=" ">
<polygon fill="none" stroke="#bfbfbf" points="222,-196 222,-215 273,-215 273,-196 222,-196"/>
<text text-anchor="middle" x="247.5" y="-203" font-family="Helvetica,sans-Serif" font-size="10.00">variant</text>
</a>
</g>
</g>
<!-- Node10&#45;&gt;Node13 -->
<g id="edge18" class="edge">
<title>Node10&#45;&gt;Node13</title>
<path fill="none" stroke="midnightblue" d="M221.66,-257.4C226.6,-247.66 233.21,-234.65 238.51,-224.21"/>
<polygon fill="midnightblue" stroke="midnightblue" points="241.68,-225.7 243.09,-215.19 235.44,-222.53 241.68,-225.7"/>
</g>
<!-- Node14 -->
<g id="node14" class="node">
<title>Node14</title>
<g id="a_node14"><a xlink:href="_tank_8h.html" target="_top" xlink:title=" ">
<polygon fill="none" stroke="black" points="291.5,-190.5 291.5,-220.5 401.5,-220.5 401.5,-190.5 291.5,-190.5"/>
<text text-anchor="start" x="299.5" y="-208.5" font-family="Helvetica,sans-Serif" font-size="10.00">../../tank&#45;lib/include</text>
<text text-anchor="middle" x="346.5" y="-197.5" font-family="Helvetica,sans-Serif" font-size="10.00">/Tank.h</text>
</a>
</g>
</g>
<!-- Node10&#45;&gt;Node14 -->
<g id="edge20" class="edge">
<title>Node10&#45;&gt;Node14</title>
<path fill="none" stroke="midnightblue" d="M243.14,-257.4C262.34,-247.94 287.83,-235.39 308.69,-225.12"/>
<polygon fill="midnightblue" stroke="midnightblue" points="310.49,-228.13 317.91,-220.58 307.4,-221.85 310.49,-228.13"/>
</g>
<!-- Node14&#45;&gt;Node2 -->
<g id="edge25" class="edge">
<title>Node14&#45;&gt;Node2</title>
<path fill="none" stroke="midnightblue" d="M359.52,-190.4C368.97,-180.16 381.77,-166.3 391.62,-155.62"/>
<polygon fill="midnightblue" stroke="midnightblue" points="394.26,-157.92 398.47,-148.19 389.12,-153.17 394.26,-157.92"/>
</g>
<!-- Node14&#45;&gt;Node3 -->
<g id="edge24" class="edge">
<title>Node14&#45;&gt;Node3</title>
<path fill="none" stroke="midnightblue" d="M336.76,-190.37C321.03,-167.55 289.87,-122.36 271.04,-95.04"/>
<polygon fill="midnightblue" stroke="midnightblue" points="273.73,-92.77 265.17,-86.52 267.96,-96.74 273.73,-92.77"/>
</g>
<!-- Node14&#45;&gt;Node4 -->
<g id="edge23" class="edge">
<title>Node14&#45;&gt;Node4</title>
<path fill="none" stroke="midnightblue" d="M379.45,-190.5C401.34,-180.89 430.54,-167.48 455.5,-154 491.34,-134.64 530.83,-109.53 556.98,-92.32"/>
<polygon fill="midnightblue" stroke="midnightblue" points="559.24,-95.02 565.65,-86.59 555.37,-89.19 559.24,-95.02"/>
</g>
<!-- Node14&#45;&gt;Node6 -->
<g id="edge21" class="edge">
<title>Node14&#45;&gt;Node6</title>
<path fill="none" stroke="midnightblue" d="M344.7,-190.41C343.24,-172.96 343.34,-143.06 357.5,-123 402.59,-59.1 494.56,-30.05 547.19,-18.19"/>
<polygon fill="midnightblue" stroke="midnightblue" points="548.13,-21.56 557.17,-16.04 546.65,-14.72 548.13,-21.56"/>
</g>
<!-- Node15 -->
<g id="node15" class="node">
<title>Node15</title>
<g id="a_node15"><a xlink:title=" ">
<polygon fill="none" stroke="#bfbfbf" points="216.5,-129 216.5,-148 272.5,-148 272.5,-129 216.5,-129"/>
<text text-anchor="middle" x="244.5" y="-136" font-family="Helvetica,sans-Serif" font-size="10.00">optional</text>
</a>
</g>
</g>
<!-- Node14&#45;&gt;Node15 -->
<g id="edge22" class="edge">
<title>Node14&#45;&gt;Node15</title>
<path fill="none" stroke="midnightblue" d="M324.37,-190.4C307.26,-179.5 283.7,-164.48 266.6,-153.58"/>
<polygon fill="midnightblue" stroke="midnightblue" points="268.16,-150.43 257.85,-148.01 264.4,-156.33 268.16,-150.43"/>
</g>
<!-- Node16&#45;&gt;Node6 -->
<g id="edge29" class="edge">
<title>Node16&#45;&gt;Node6</title>
<path fill="none" stroke="midnightblue" d="M758.45,-123.31C742.97,-105.73 714.61,-75.72 685.5,-56 665.44,-42.41 640.62,-31.14 620.85,-23.27"/>
<polygon fill="midnightblue" stroke="midnightblue" points="621.89,-19.93 611.31,-19.59 619.37,-26.46 621.89,-19.93"/>
</g>
<!-- Node17 -->
<g id="node17" class="node">
<title>Node17</title>
<g id="a_node17"><a xlink:title=" ">
<polygon fill="none" stroke="#bfbfbf" points="859.5,-62 859.5,-81 909.5,-81 909.5,-62 859.5,-62"/>
<text text-anchor="middle" x="884.5" y="-69" font-family="Helvetica,sans-Serif" font-size="10.00">chrono</text>
</a>
</g>
</g>
<!-- Node16&#45;&gt;Node17 -->
<g id="edge30" class="edge">
<title>Node16&#45;&gt;Node17</title>
<path fill="none" stroke="midnightblue" d="M795.24,-123.4C814.71,-112.29 841.67,-96.92 860.85,-85.98"/>
<polygon fill="midnightblue" stroke="midnightblue" points="862.63,-89 869.58,-81.01 859.16,-82.92 862.63,-89"/>
</g>
<!-- Node18 -->
<g id="node18" class="node">
<title>Node18</title>
<g id="a_node18"><a xlink:href="_simple_publisher_8h.html" target="_top" xlink:title=" ">
<polygon fill="none" stroke="black" points="737.5,-62 737.5,-81 841.5,-81 841.5,-62 737.5,-62"/>
<text text-anchor="middle" x="789.5" y="-69" font-family="Helvetica,sans-Serif" font-size="10.00">SimplePublisher.h</text>
</a>
</g>
</g>
<!-- Node16&#45;&gt;Node18 -->
<g id="edge31" class="edge">
<title>Node16&#45;&gt;Node18</title>
<path fill="none" stroke="midnightblue" d="M774.62,-123.4C777.41,-113.86 781.12,-101.18 784.13,-90.86"/>
<polygon fill="midnightblue" stroke="midnightblue" points="787.51,-91.77 786.96,-81.19 780.79,-89.81 787.51,-91.77"/>
</g>
<!-- Node18&#45;&gt;Node5 -->
<g id="edge33" class="edge">
<title>Node18&#45;&gt;Node5</title>
<path fill="none" stroke="midnightblue" d="M789.5,-61.98C789.5,-53.58 789.5,-40.48 789.5,-29.66"/>
<polygon fill="midnightblue" stroke="midnightblue" points="793,-29.51 789.5,-19.51 786,-29.51 793,-29.51"/>
</g>
<!-- Node18&#45;&gt;Node6 -->
<g id="edge32" class="edge">
<title>Node18&#45;&gt;Node6</title>
<path fill="none" stroke="midnightblue" d="M760.42,-61.98C724.92,-51.57 664.75,-33.94 625.33,-22.38"/>
<polygon fill="midnightblue" stroke="midnightblue" points="626.11,-18.96 615.53,-19.51 624.14,-25.68 626.11,-18.96"/>
</g>
</g>
</svg>
