<?xml version="1.0" encoding="UTF-8" standalone="no"?>
<!DOCTYPE svg PUBLIC "-//W3C//DTD SVG 1.1//EN"
 "http://www.w3.org/Graphics/SVG/1.1/DTD/svg11.dtd">
<!-- Generated by graphviz version 2.43.0 (0)
 -->
<!-- Title: /home/tomek/CLionProjects/proi/proi&#45;projekt/src/graphic&#45;lib/BulletsGraphic.cpp Pages: 1 -->
<svg width="813pt" height="307pt"
 viewBox="0.00 0.00 813.00 307.00" xmlns="http://www.w3.org/2000/svg" xmlns:xlink="http://www.w3.org/1999/xlink">
<g id="graph0" class="graph" transform="scale(1 1) rotate(0) translate(4 303)">
<title>/home/tomek/CLionProjects/proi/proi&#45;projekt/src/graphic&#45;lib/BulletsGraphic.cpp</title>
<!-- Node1 -->
<g id="node1" class="node">
<title>Node1</title>
<g id="a_node1"><a xlink:title=" ">
<polygon fill="#bfbfbf" stroke="black" points="401,-257.5 401,-298.5 567,-298.5 567,-257.5 401,-257.5"/>
<text text-anchor="start" x="409" y="-286.5" font-family="Helvetica,sans-Serif" font-size="10.00">/home/tomek/CLionProjects</text>
<text text-anchor="start" x="409" y="-275.5" font-family="Helvetica,sans-Serif" font-size="10.00">/proi/proi&#45;projekt/src</text>
<text text-anchor="middle" x="484" y="-264.5" font-family="Helvetica,sans-Serif" font-size="10.00">/graphic&#45;lib/BulletsGraphic.cpp</text>
</a>
</g>
</g>
<!-- Node2 -->
<g id="node2" class="node">
<title>Node2</title>
<g id="a_node2"><a xlink:href="_bullets_graphic_8h.html" target="_top" xlink:title=" ">
<polygon fill="none" stroke="black" points="157.5,-190.5 157.5,-220.5 324.5,-220.5 324.5,-190.5 157.5,-190.5"/>
<text text-anchor="start" x="165.5" y="-208.5" font-family="Helvetica,sans-Serif" font-size="10.00">include/ActiveState</text>
<text text-anchor="middle" x="241" y="-197.5" font-family="Helvetica,sans-Serif" font-size="10.00">_dir/Borad_dir/BulletsGraphic.h</text>
</a>
</g>
</g>
<!-- Node1&#45;&gt;Node2 -->
<g id="edge1" class="edge">
<title>Node1&#45;&gt;Node2</title>
<path fill="none" stroke="midnightblue" d="M416.63,-257.46C379.79,-246.77 334.59,-233.65 299.27,-223.41"/>
<polygon fill="midnightblue" stroke="midnightblue" points="300.17,-220.02 289.59,-220.6 298.22,-226.74 300.17,-220.02"/>
</g>
<!-- Node13 -->
<g id="node13" class="node">
<title>Node13</title>
<g id="a_node13"><a xlink:title=" ">
<polygon fill="none" stroke="#bfbfbf" points="348.5,-196 348.5,-215 401.5,-215 401.5,-196 348.5,-196"/>
<text text-anchor="middle" x="375" y="-203" font-family="Helvetica,sans-Serif" font-size="10.00">iterator</text>
</a>
</g>
</g>
<!-- Node1&#45;&gt;Node13 -->
<g id="edge16" class="edge">
<title>Node1&#45;&gt;Node13</title>
<path fill="none" stroke="midnightblue" d="M453.64,-257.36C435.73,-245.78 413.47,-231.39 397.21,-220.87"/>
<polygon fill="midnightblue" stroke="midnightblue" points="398.71,-217.67 388.41,-215.17 394.91,-223.54 398.71,-217.67"/>
</g>
<!-- Node14 -->
<g id="node14" class="node">
<title>Node14</title>
<g id="a_node14"><a xlink:title=" ">
<polygon fill="none" stroke="#bfbfbf" points="492,-129 492,-148 536,-148 536,-129 492,-129"/>
<text text-anchor="middle" x="514" y="-136" font-family="Helvetica,sans-Serif" font-size="10.00">string</text>
</a>
</g>
</g>
<!-- Node1&#45;&gt;Node14 -->
<g id="edge17" class="edge">
<title>Node1&#45;&gt;Node14</title>
<path fill="none" stroke="midnightblue" d="M466.51,-257.3C452.88,-239.43 437.98,-212.52 449,-190 456.83,-174 472.46,-161.6 486.42,-153.1"/>
<polygon fill="midnightblue" stroke="midnightblue" points="488.3,-156.06 495.26,-148.07 484.84,-149.97 488.3,-156.06"/>
</g>
<!-- Node15 -->
<g id="node15" class="node">
<title>Node15</title>
<g id="a_node15"><a xlink:title=" ">
<polygon fill="none" stroke="#bfbfbf" points="637.5,-196 637.5,-215 730.5,-215 730.5,-196 637.5,-196"/>
<text text-anchor="middle" x="684" y="-203" font-family="Helvetica,sans-Serif" font-size="10.00">unordered_map</text>
</a>
</g>
</g>
<!-- Node1&#45;&gt;Node15 -->
<g id="edge18" class="edge">
<title>Node1&#45;&gt;Node15</title>
<path fill="none" stroke="midnightblue" d="M539.45,-257.46C574.97,-244.93 619.92,-229.09 650.18,-218.42"/>
<polygon fill="midnightblue" stroke="midnightblue" points="651.58,-221.64 659.85,-215.01 649.25,-215.04 651.58,-221.64"/>
</g>
<!-- Node16 -->
<g id="node16" class="node">
<title>Node16</title>
<g id="a_node16"><a xlink:href="_texture_loading_error_8h.html" target="_top" xlink:title=" ">
<polygon fill="none" stroke="black" points="458.5,-196 458.5,-215 619.5,-215 619.5,-196 458.5,-196"/>
<text text-anchor="middle" x="539" y="-203" font-family="Helvetica,sans-Serif" font-size="10.00">include/TextureLoadingError.h</text>
</a>
</g>
</g>
<!-- Node1&#45;&gt;Node16 -->
<g id="edge19" class="edge">
<title>Node1&#45;&gt;Node16</title>
<path fill="none" stroke="midnightblue" d="M499.32,-257.36C507.68,-246.65 517.92,-233.52 525.9,-223.29"/>
<polygon fill="midnightblue" stroke="midnightblue" points="528.84,-225.21 532.23,-215.17 523.32,-220.91 528.84,-225.21"/>
</g>
<!-- Node18 -->
<g id="node18" class="node">
<title>Node18</title>
<g id="a_node18"><a xlink:title=" ">
<polygon fill="none" stroke="#bfbfbf" points="749,-196 749,-215 805,-215 805,-196 749,-196"/>
<text text-anchor="middle" x="777" y="-203" font-family="Helvetica,sans-Serif" font-size="10.00">sstream</text>
</a>
</g>
</g>
<!-- Node1&#45;&gt;Node18 -->
<g id="edge22" class="edge">
<title>Node1&#45;&gt;Node18</title>
<path fill="none" stroke="midnightblue" d="M567.29,-262.24C617.77,-252.44 683.18,-238.23 740,-221 742.43,-220.26 744.92,-219.44 747.41,-218.57"/>
<polygon fill="midnightblue" stroke="midnightblue" points="748.69,-221.83 756.85,-215.06 746.25,-215.27 748.69,-221.83"/>
</g>
<!-- Node3 -->
<g id="node3" class="node">
<title>Node3</title>
<g id="a_node3"><a xlink:title=" ">
<polygon fill="none" stroke="#bfbfbf" points="0,-62 0,-81 104,-81 104,-62 0,-62"/>
<text text-anchor="middle" x="52" y="-69" font-family="Helvetica,sans-Serif" font-size="10.00">SFML/System.hpp</text>
</a>
</g>
</g>
<!-- Node2&#45;&gt;Node3 -->
<g id="edge2" class="edge">
<title>Node2&#45;&gt;Node3</title>
<path fill="none" stroke="midnightblue" d="M220.77,-190.37C184.6,-165.11 109.22,-112.46 72.71,-86.96"/>
<polygon fill="midnightblue" stroke="midnightblue" points="74.51,-83.95 64.31,-81.1 70.5,-89.69 74.51,-83.95"/>
</g>
<!-- Node4 -->
<g id="node4" class="node">
<title>Node4</title>
<g id="a_node4"><a xlink:title=" ">
<polygon fill="none" stroke="#bfbfbf" points="122,-62 122,-81 232,-81 232,-62 122,-62"/>
<text text-anchor="middle" x="177" y="-69" font-family="Helvetica,sans-Serif" font-size="10.00">SFML/Graphics.hpp</text>
</a>
</g>
</g>
<!-- Node2&#45;&gt;Node4 -->
<g id="edge3" class="edge">
<title>Node2&#45;&gt;Node4</title>
<path fill="none" stroke="midnightblue" d="M224.58,-190.12C214.88,-180.76 203.14,-167.76 196,-154 185.67,-134.09 180.89,-108.56 178.72,-91.42"/>
<polygon fill="midnightblue" stroke="midnightblue" points="182.16,-90.64 177.6,-81.07 175.2,-91.39 182.16,-90.64"/>
</g>
<!-- Node5 -->
<g id="node5" class="node">
<title>Node5</title>
<g id="a_node5"><a xlink:href="_abstract_window_8h.html" target="_top" xlink:title=" ">
<polygon fill="none" stroke="black" points="205,-129 205,-148 327,-148 327,-129 205,-129"/>
<text text-anchor="middle" x="266" y="-136" font-family="Helvetica,sans-Serif" font-size="10.00">../../AbstractWindow.h</text>
</a>
</g>
</g>
<!-- Node2&#45;&gt;Node5 -->
<g id="edge4" class="edge">
<title>Node2&#45;&gt;Node5</title>
<path fill="none" stroke="midnightblue" d="M246.42,-190.4C250.13,-180.76 255.07,-167.91 259.06,-157.54"/>
<polygon fill="midnightblue" stroke="midnightblue" points="262.33,-158.78 262.66,-148.19 255.8,-156.27 262.33,-158.78"/>
</g>
<!-- Node9 -->
<g id="node9" class="node">
<title>Node9</title>
<g id="a_node9"><a xlink:href="_bullet_8h.html" target="_top" xlink:title=" ">
<polygon fill="none" stroke="black" points="378.5,-123.5 378.5,-153.5 473.5,-153.5 473.5,-123.5 378.5,-123.5"/>
<text text-anchor="start" x="386.5" y="-141.5" font-family="Helvetica,sans-Serif" font-size="10.00">../../../../tank&#45;lib</text>
<text text-anchor="middle" x="426" y="-130.5" font-family="Helvetica,sans-Serif" font-size="10.00">/include/Bullet.h</text>
</a>
</g>
</g>
<!-- Node2&#45;&gt;Node9 -->
<g id="edge10" class="edge">
<title>Node2&#45;&gt;Node9</title>
<path fill="none" stroke="midnightblue" d="M281.14,-190.4C309.02,-180.6 346.36,-167.48 376.15,-157.02"/>
<polygon fill="midnightblue" stroke="midnightblue" points="377.66,-160.19 385.94,-153.58 375.34,-153.59 377.66,-160.19"/>
</g>
<!-- Node12 -->
<g id="node12" class="node">
<title>Node12</title>
<g id="a_node12"><a xlink:title=" ">
<polygon fill="none" stroke="#bfbfbf" points="63.5,-129 63.5,-148 110.5,-148 110.5,-129 63.5,-129"/>
<text text-anchor="middle" x="87" y="-136" font-family="Helvetica,sans-Serif" font-size="10.00">queue</text>
</a>
</g>
</g>
<!-- Node2&#45;&gt;Node12 -->
<g id="edge15" class="edge">
<title>Node2&#45;&gt;Node12</title>
<path fill="none" stroke="midnightblue" d="M207.58,-190.4C180.44,-178.94 142.53,-162.94 116.5,-151.95"/>
<polygon fill="midnightblue" stroke="midnightblue" points="117.73,-148.67 107.16,-148.01 115.01,-155.12 117.73,-148.67"/>
</g>
<!-- Node5&#45;&gt;Node3 -->
<g id="edge5" class="edge">
<title>Node5&#45;&gt;Node3</title>
<path fill="none" stroke="midnightblue" d="M237.58,-128.87C199.58,-117.33 132.12,-96.84 89.85,-84"/>
<polygon fill="midnightblue" stroke="midnightblue" points="90.78,-80.62 80.19,-81.06 88.75,-87.32 90.78,-80.62"/>
</g>
<!-- Node5&#45;&gt;Node4 -->
<g id="edge6" class="edge">
<title>Node5&#45;&gt;Node4</title>
<path fill="none" stroke="midnightblue" d="M254,-128.73C239.45,-118.11 214.72,-100.05 197.22,-87.26"/>
<polygon fill="midnightblue" stroke="midnightblue" points="198.95,-84.2 188.81,-81.13 194.82,-89.85 198.95,-84.2"/>
</g>
<!-- Node6 -->
<g id="node6" class="node">
<title>Node6</title>
<g id="a_node6"><a xlink:title=" ">
<polygon fill="none" stroke="#bfbfbf" points="288,-62 288,-81 348,-81 348,-62 288,-62"/>
<text text-anchor="middle" x="318" y="-69" font-family="Helvetica,sans-Serif" font-size="10.00">iostream</text>
</a>
</g>
</g>
<!-- Node5&#45;&gt;Node6 -->
<g id="edge7" class="edge">
<title>Node5&#45;&gt;Node6</title>
<path fill="none" stroke="midnightblue" d="M273.01,-128.73C281.12,-118.6 294.65,-101.69 304.76,-89.06"/>
<polygon fill="midnightblue" stroke="midnightblue" points="307.58,-91.12 311.1,-81.13 302.12,-86.75 307.58,-91.12"/>
</g>
<!-- Node7 -->
<g id="node7" class="node">
<title>Node7</title>
<g id="a_node7"><a xlink:title=" ">
<polygon fill="none" stroke="#bfbfbf" points="300.5,-0.5 300.5,-19.5 347.5,-19.5 347.5,-0.5 300.5,-0.5"/>
<text text-anchor="middle" x="324" y="-7.5" font-family="Helvetica,sans-Serif" font-size="10.00">vector</text>
</a>
</g>
</g>
<!-- Node5&#45;&gt;Node7 -->
<g id="edge8" class="edge">
<title>Node5&#45;&gt;Node7</title>
<path fill="none" stroke="midnightblue" d="M265.68,-128.88C265.46,-113.4 266.63,-80.25 279,-56 284.92,-44.4 294.93,-33.94 304.01,-26.03"/>
<polygon fill="midnightblue" stroke="midnightblue" points="306.43,-28.57 311.94,-19.52 301.99,-23.16 306.43,-28.57"/>
</g>
<!-- Node8 -->
<g id="node8" class="node">
<title>Node8</title>
<g id="a_node8"><a xlink:title=" ">
<polygon fill="none" stroke="#bfbfbf" points="388,-0.5 388,-19.5 446,-19.5 446,-0.5 388,-0.5"/>
<text text-anchor="middle" x="417" y="-7.5" font-family="Helvetica,sans-Serif" font-size="10.00">memory</text>
</a>
</g>
</g>
<!-- Node5&#45;&gt;Node8 -->
<g id="edge9" class="edge">
<title>Node5&#45;&gt;Node8</title>
<path fill="none" stroke="midnightblue" d="M286.61,-128.93C306.06,-120.2 335.39,-105.37 357,-87 377.13,-69.89 395.16,-45.14 406.08,-28.59"/>
<polygon fill="midnightblue" stroke="midnightblue" points="409.19,-30.21 411.65,-19.91 403.3,-26.43 409.19,-30.21"/>
</g>
<!-- Node10 -->
<g id="node10" class="node">
<title>Node10</title>
<g id="a_node10"><a xlink:href="_simple_publisher_8h.html" target="_top" xlink:title=" ">
<polygon fill="none" stroke="black" points="404,-56.5 404,-86.5 514,-86.5 514,-56.5 404,-56.5"/>
<text text-anchor="start" x="412" y="-74.5" font-family="Helvetica,sans-Serif" font-size="10.00">../../core&#45;lib/include</text>
<text text-anchor="middle" x="459" y="-63.5" font-family="Helvetica,sans-Serif" font-size="10.00">/SimplePublisher.h</text>
</a>
</g>
</g>
<!-- Node9&#45;&gt;Node10 -->
<g id="edge11" class="edge">
<title>Node9&#45;&gt;Node10</title>
<path fill="none" stroke="midnightblue" d="M433.16,-123.4C437.27,-115.3 442.53,-104.94 447.23,-95.69"/>
<polygon fill="midnightblue" stroke="midnightblue" points="450.45,-97.08 451.85,-86.58 444.21,-93.91 450.45,-97.08"/>
</g>
<!-- Node11 -->
<g id="node11" class="node">
<title>Node11</title>
<g id="a_node11"><a xlink:href="_entity_8h.html" target="_top" xlink:title=" ">
<polygon fill="none" stroke="black" points="532.5,-62 532.5,-81 585.5,-81 585.5,-62 532.5,-62"/>
<text text-anchor="middle" x="559" y="-69" font-family="Helvetica,sans-Serif" font-size="10.00">Entity.h</text>
</a>
</g>
</g>
<!-- Node9&#45;&gt;Node11 -->
<g id="edge14" class="edge">
<title>Node9&#45;&gt;Node11</title>
<path fill="none" stroke="midnightblue" d="M454.86,-123.4C477.89,-112.14 509.89,-96.5 532.32,-85.54"/>
<polygon fill="midnightblue" stroke="midnightblue" points="534.15,-88.54 541.59,-81.01 531.07,-82.25 534.15,-88.54"/>
</g>
<!-- Node10&#45;&gt;Node7 -->
<g id="edge13" class="edge">
<title>Node10&#45;&gt;Node7</title>
<path fill="none" stroke="midnightblue" d="M427.01,-56.4C404.56,-46.51 374.79,-33.38 353.02,-23.79"/>
<polygon fill="midnightblue" stroke="midnightblue" points="354.21,-20.49 343.64,-19.66 351.38,-26.89 354.21,-20.49"/>
</g>
<!-- Node10&#45;&gt;Node8 -->
<g id="edge12" class="edge">
<title>Node10&#45;&gt;Node8</title>
<path fill="none" stroke="midnightblue" d="M449.05,-56.4C443.01,-47.84 435.26,-36.87 428.9,-27.86"/>
<polygon fill="midnightblue" stroke="midnightblue" points="431.74,-25.81 423.11,-19.66 426.02,-29.85 431.74,-25.81"/>
</g>
<!-- Node16&#45;&gt;Node14 -->
<g id="edge21" class="edge">
<title>Node16&#45;&gt;Node14</title>
<path fill="none" stroke="midnightblue" d="M535.63,-195.73C531.88,-185.99 525.72,-169.98 520.94,-157.53"/>
<polygon fill="midnightblue" stroke="midnightblue" points="524.17,-156.2 517.32,-148.13 517.64,-158.72 524.17,-156.2"/>
</g>
<!-- Node17 -->
<g id="node17" class="node">
<title>Node17</title>
<g id="a_node17"><a xlink:title=" ">
<polygon fill="none" stroke="#bfbfbf" points="554.5,-129 554.5,-148 619.5,-148 619.5,-129 554.5,-129"/>
<text text-anchor="middle" x="587" y="-136" font-family="Helvetica,sans-Serif" font-size="10.00">exception</text>
</a>
</g>
</g>
<!-- Node16&#45;&gt;Node17 -->
<g id="edge20" class="edge">
<title>Node16&#45;&gt;Node17</title>
<path fill="none" stroke="midnightblue" d="M545.47,-195.73C552.89,-185.7 565.2,-169.01 574.5,-156.42"/>
<polygon fill="midnightblue" stroke="midnightblue" points="577.5,-158.25 580.63,-148.13 571.87,-154.09 577.5,-158.25"/>
</g>
</g>
</svg>
