<?xml version="1.0" encoding="UTF-8" standalone="no"?>
<!DOCTYPE svg PUBLIC "-//W3C//DTD SVG 1.1//EN"
 "http://www.w3.org/Graphics/SVG/1.1/DTD/svg11.dtd">
<!-- Generated by graphviz version 2.50.0 (0)
 -->
<!-- Title: /home/tomek/trash/battle&#45;city/src/lib/graphic&#45;lib/EagleGraphic.cpp Pages: 1 -->
<svg width="1252pt" height="508pt"
 viewBox="0.00 0.00 1251.75 508.00" xmlns="http://www.w3.org/2000/svg" xmlns:xlink="http://www.w3.org/1999/xlink">
<g id="graph0" class="graph" transform="scale(1 1) rotate(0) translate(4 504)">
<title>/home/tomek/trash/battle&#45;city/src/lib/graphic&#45;lib/EagleGraphic.cpp</title>
<!-- Node1 -->
<g id="node1" class="node">
<title>Node1</title>
<g id="a_node1"><a xlink:title=" ">
<polygon fill="#bfbfbf" stroke="black" points="840.25,-458.5 840.25,-499.5 981.25,-499.5 981.25,-458.5 840.25,-458.5"/>
<text text-anchor="start" x="848.25" y="-487.5" font-family="Helvetica,sans-Serif" font-size="10.00">/home/tomek/trash/battle</text>
<text text-anchor="start" x="848.25" y="-476.5" font-family="Helvetica,sans-Serif" font-size="10.00">&#45;city/src/lib/graphic&#45;lib</text>
<text text-anchor="middle" x="910.75" y="-465.5" font-family="Helvetica,sans-Serif" font-size="10.00">/EagleGraphic.cpp</text>
</a>
</g>
</g>
<!-- Node2 -->
<g id="node2" class="node">
<title>Node2</title>
<g id="a_node2"><a xlink:href="_eagle_graphic_8h.html" target="_top" xlink:title=" ">
<polygon fill="none" stroke="black" points="436.25,-391.5 436.25,-421.5 597.25,-421.5 597.25,-391.5 436.25,-391.5"/>
<text text-anchor="start" x="444.25" y="-409.5" font-family="Helvetica,sans-Serif" font-size="10.00">include/ActiveState</text>
<text text-anchor="middle" x="516.75" y="-398.5" font-family="Helvetica,sans-Serif" font-size="10.00">_dir/Borad_dir/EagleGraphic.h</text>
</a>
</g>
</g>
<!-- Node1&#45;&gt;Node2 -->
<g id="edge1" class="edge">
<title>Node1&#45;&gt;Node2</title>
<path fill="none" stroke="midnightblue" d="M839.85,-465.31C774.18,-453.56 676.25,-436.04 605.43,-423.37"/>
<polygon fill="midnightblue" stroke="midnightblue" points="605.64,-419.85 595.18,-421.53 604.41,-426.74 605.64,-419.85"/>
</g>
<!-- Node4 -->
<g id="node4" class="node">
<title>Node4</title>
<g id="a_node4"><a xlink:title=" ">
<polygon fill="none" stroke="#bfbfbf" points="14.75,-263 14.75,-282 118.75,-282 118.75,-263 14.75,-263"/>
<text text-anchor="middle" x="66.75" y="-270" font-family="Helvetica,sans-Serif" font-size="10.00">SFML/System.hpp</text>
</a>
</g>
</g>
<!-- Node1&#45;&gt;Node4 -->
<g id="edge33" class="edge">
<title>Node1&#45;&gt;Node4</title>
<path fill="none" stroke="midnightblue" d="M840.21,-477.43C691.38,-475.37 350.18,-465.86 243.75,-422 171.88,-392.38 107.4,-322.52 80.3,-290.3"/>
<polygon fill="midnightblue" stroke="midnightblue" points="82.74,-287.76 73.67,-282.28 77.34,-292.22 82.74,-287.76"/>
</g>
<!-- Node5 -->
<g id="node5" class="node">
<title>Node5</title>
<g id="a_node5"><a xlink:title=" ">
<polygon fill="none" stroke="#bfbfbf" points="136.75,-263 136.75,-282 246.75,-282 246.75,-263 136.75,-263"/>
<text text-anchor="middle" x="191.75" y="-270" font-family="Helvetica,sans-Serif" font-size="10.00">SFML/Graphics.hpp</text>
</a>
</g>
</g>
<!-- Node1&#45;&gt;Node5 -->
<g id="edge34" class="edge">
<title>Node1&#45;&gt;Node5</title>
<path fill="none" stroke="midnightblue" d="M839.99,-473.77C745.14,-467.2 571.91,-452.05 426.75,-422 325.83,-401.11 272.54,-432.62 204.75,-355 189.76,-337.84 188.38,-310.56 189.48,-292.35"/>
<polygon fill="midnightblue" stroke="midnightblue" points="192.97,-292.63 190.39,-282.35 186,-291.99 192.97,-292.63"/>
</g>
<!-- Node6 -->
<g id="node6" class="node">
<title>Node6</title>
<g id="a_node6"><a xlink:title=" ">
<polygon fill="none" stroke="#bfbfbf" points="224.75,-196 224.75,-215 284.75,-215 284.75,-196 224.75,-196"/>
<text text-anchor="middle" x="254.75" y="-203" font-family="Helvetica,sans-Serif" font-size="10.00">iostream</text>
</a>
</g>
</g>
<!-- Node1&#45;&gt;Node6 -->
<g id="edge35" class="edge">
<title>Node1&#45;&gt;Node6</title>
<path fill="none" stroke="midnightblue" d="M840.01,-477.51C681.85,-475.61 304.26,-466.41 185.75,-422 92.35,-387.01 50.51,-377.13 5.75,-288 -0.44,-275.69 -2.97,-267.67 5.75,-257 31.67,-225.3 150.96,-213.02 214.56,-208.66"/>
<polygon fill="midnightblue" stroke="midnightblue" points="214.88,-212.15 224.63,-208.01 214.43,-205.16 214.88,-212.15"/>
</g>
<!-- Node7 -->
<g id="node7" class="node">
<title>Node7</title>
<g id="a_node7"><a xlink:title=" ">
<polygon fill="none" stroke="#bfbfbf" points="855.25,-0.5 855.25,-19.5 902.25,-19.5 902.25,-0.5 855.25,-0.5"/>
<text text-anchor="middle" x="878.75" y="-7.5" font-family="Helvetica,sans-Serif" font-size="10.00">vector</text>
</a>
</g>
</g>
<!-- Node1&#45;&gt;Node7 -->
<g id="edge36" class="edge">
<title>Node1&#45;&gt;Node7</title>
<path fill="none" stroke="midnightblue" d="M927.06,-458.46C946.61,-433 976.75,-386.31 976.75,-340.5 976.75,-340.5 976.75,-340.5 976.75,-137.5 976.75,-88.15 929.57,-46.38 900.68,-25.43"/>
<polygon fill="midnightblue" stroke="midnightblue" points="902.57,-22.49 892.37,-19.62 898.56,-28.22 902.57,-22.49"/>
</g>
<!-- Node19 -->
<g id="node19" class="node">
<title>Node19</title>
<g id="a_node19"><a xlink:title=" ">
<polygon fill="none" stroke="#bfbfbf" points="896.75,-196 896.75,-215 940.75,-215 940.75,-196 896.75,-196"/>
<text text-anchor="middle" x="918.75" y="-203" font-family="Helvetica,sans-Serif" font-size="10.00">string</text>
</a>
</g>
</g>
<!-- Node1&#45;&gt;Node19 -->
<g id="edge38" class="edge">
<title>Node1&#45;&gt;Node19</title>
<path fill="none" stroke="midnightblue" d="M911.85,-458.32C913.72,-423.83 917.44,-350.22 918.75,-288 919.2,-266.6 919.12,-242.03 918.97,-225.51"/>
<polygon fill="midnightblue" stroke="midnightblue" points="922.47,-225.03 918.87,-215.07 915.47,-225.1 922.47,-225.03"/>
</g>
<!-- Node21 -->
<g id="node21" class="node">
<title>Node21</title>
<g id="a_node21"><a xlink:title=" ">
<polygon fill="none" stroke="#bfbfbf" points="1005.25,-397 1005.25,-416 1058.25,-416 1058.25,-397 1005.25,-397"/>
<text text-anchor="middle" x="1031.75" y="-404" font-family="Helvetica,sans-Serif" font-size="10.00">iterator</text>
</a>
</g>
</g>
<!-- Node1&#45;&gt;Node21 -->
<g id="edge37" class="edge">
<title>Node1&#45;&gt;Node21</title>
<path fill="none" stroke="midnightblue" d="M944.45,-458.36C964.7,-446.57 989.96,-431.85 1008.09,-421.28"/>
<polygon fill="midnightblue" stroke="midnightblue" points="1009.98,-424.23 1016.86,-416.17 1006.46,-418.18 1009.98,-424.23"/>
</g>
<!-- Node22 -->
<g id="node22" class="node">
<title>Node22</title>
<g id="a_node22"><a xlink:title=" ">
<polygon fill="none" stroke="#bfbfbf" points="1076.25,-397 1076.25,-416 1169.25,-416 1169.25,-397 1076.25,-397"/>
<text text-anchor="middle" x="1122.75" y="-404" font-family="Helvetica,sans-Serif" font-size="10.00">unordered_map</text>
</a>
</g>
</g>
<!-- Node1&#45;&gt;Node22 -->
<g id="edge39" class="edge">
<title>Node1&#45;&gt;Node22</title>
<path fill="none" stroke="midnightblue" d="M969.52,-458.46C1007.34,-445.88 1055.23,-429.95 1087.32,-419.28"/>
<polygon fill="midnightblue" stroke="midnightblue" points="1088.76,-422.49 1097.15,-416.01 1086.55,-415.85 1088.76,-422.49"/>
</g>
<!-- Node23 -->
<g id="node23" class="node">
<title>Node23</title>
<g id="a_node23"><a xlink:title=" ">
<polygon fill="none" stroke="#bfbfbf" points="1187.75,-397 1187.75,-416 1243.75,-416 1243.75,-397 1187.75,-397"/>
<text text-anchor="middle" x="1215.75" y="-404" font-family="Helvetica,sans-Serif" font-size="10.00">sstream</text>
</a>
</g>
</g>
<!-- Node1&#45;&gt;Node23 -->
<g id="edge40" class="edge">
<title>Node1&#45;&gt;Node23</title>
<path fill="none" stroke="midnightblue" d="M981.52,-466.55C1036.02,-456.94 1112.93,-441.62 1178.75,-422 1181.18,-421.28 1183.67,-420.46 1186.16,-419.6"/>
<polygon fill="midnightblue" stroke="midnightblue" points="1187.44,-422.85 1195.61,-416.1 1185.01,-416.29 1187.44,-422.85"/>
</g>
<!-- Node24 -->
<g id="node24" class="node">
<title>Node24</title>
<g id="a_node24"><a xlink:href="_texture_loading_error_8h.html" target="_top" xlink:title=" ">
<polygon fill="none" stroke="black" points="749.25,-263 749.25,-282 910.25,-282 910.25,-263 749.25,-263"/>
<text text-anchor="middle" x="829.75" y="-270" font-family="Helvetica,sans-Serif" font-size="10.00">include/TextureLoadingError.h</text>
</a>
</g>
</g>
<!-- Node1&#45;&gt;Node24 -->
<g id="edge41" class="edge">
<title>Node1&#45;&gt;Node24</title>
<path fill="none" stroke="midnightblue" d="M902.98,-458.39C887.27,-418.73 851.94,-329.53 836.83,-291.37"/>
<polygon fill="midnightblue" stroke="midnightblue" points="840.07,-290.05 833.13,-282.04 833.56,-292.63 840.07,-290.05"/>
</g>
<!-- Node3 -->
<g id="node3" class="node">
<title>Node3</title>
<g id="a_node3"><a xlink:href="_abstract_window_8h.html" target="_top" xlink:title=" ">
<polygon fill="none" stroke="black" points="213.75,-330 213.75,-349 335.75,-349 335.75,-330 213.75,-330"/>
<text text-anchor="middle" x="274.75" y="-337" font-family="Helvetica,sans-Serif" font-size="10.00">../../AbstractWindow.h</text>
</a>
</g>
</g>
<!-- Node2&#45;&gt;Node3 -->
<g id="edge2" class="edge">
<title>Node2&#45;&gt;Node3</title>
<path fill="none" stroke="midnightblue" d="M464.54,-391.48C420.12,-379.55 357.19,-362.64 316.18,-351.63"/>
<polygon fill="midnightblue" stroke="midnightblue" points="317.07,-348.24 306.5,-349.03 315.25,-355 317.07,-348.24"/>
</g>
<!-- Node9 -->
<g id="node9" class="node">
<title>Node9</title>
<g id="a_node9"><a xlink:href="_tank_8h.html" target="_top" xlink:title=" ">
<polygon fill="none" stroke="black" points="666.75,-190.5 666.75,-220.5 756.75,-220.5 756.75,-190.5 666.75,-190.5"/>
<text text-anchor="start" x="674.75" y="-208.5" font-family="Helvetica,sans-Serif" font-size="10.00">../../../../tank&#45;lib</text>
<text text-anchor="middle" x="711.75" y="-197.5" font-family="Helvetica,sans-Serif" font-size="10.00">/include/Tank.h</text>
</a>
</g>
</g>
<!-- Node2&#45;&gt;Node9 -->
<g id="edge8" class="edge">
<title>Node2&#45;&gt;Node9</title>
<path fill="none" stroke="midnightblue" d="M539.02,-391.49C569.78,-371.36 625.75,-331.81 663.75,-288 679.04,-270.37 692.14,-247.2 700.78,-230.07"/>
<polygon fill="midnightblue" stroke="midnightblue" points="704.08,-231.29 705.33,-220.77 697.79,-228.22 704.08,-231.29"/>
</g>
<!-- Node14 -->
<g id="node14" class="node">
<title>Node14</title>
<g id="a_node14"><a xlink:title=" ">
<polygon fill="none" stroke="#bfbfbf" points="341.25,-196 341.25,-215 388.25,-215 388.25,-196 341.25,-196"/>
<text text-anchor="middle" x="364.75" y="-203" font-family="Helvetica,sans-Serif" font-size="10.00">queue</text>
</a>
</g>
</g>
<!-- Node2&#45;&gt;Node14 -->
<g id="edge18" class="edge">
<title>Node2&#45;&gt;Node14</title>
<path fill="none" stroke="midnightblue" d="M487.1,-391.48C452.1,-373.14 395.42,-337.44 369.75,-288 359.57,-268.39 359.93,-242.45 361.77,-225.15"/>
<polygon fill="midnightblue" stroke="midnightblue" points="365.25,-225.57 363.1,-215.19 358.31,-224.64 365.25,-225.57"/>
</g>
<!-- Node15 -->
<g id="node15" class="node">
<title>Node15</title>
<g id="a_node15"><a xlink:href="_eagle_8h.html" target="_top" xlink:title=" ">
<polygon fill="none" stroke="black" points="468.75,-324.5 468.75,-354.5 564.75,-354.5 564.75,-324.5 468.75,-324.5"/>
<text text-anchor="start" x="476.75" y="-342.5" font-family="Helvetica,sans-Serif" font-size="10.00">../../../../board&#45;lib</text>
<text text-anchor="middle" x="516.75" y="-331.5" font-family="Helvetica,sans-Serif" font-size="10.00">/include/Eagle.h</text>
</a>
</g>
</g>
<!-- Node2&#45;&gt;Node15 -->
<g id="edge19" class="edge">
<title>Node2&#45;&gt;Node15</title>
<path fill="none" stroke="midnightblue" d="M516.75,-391.4C516.75,-383.64 516.75,-373.81 516.75,-364.86"/>
<polygon fill="midnightblue" stroke="midnightblue" points="520.25,-364.58 516.75,-354.58 513.25,-364.58 520.25,-364.58"/>
</g>
<!-- Node3&#45;&gt;Node4 -->
<g id="edge3" class="edge">
<title>Node3&#45;&gt;Node4</title>
<path fill="none" stroke="midnightblue" d="M247.13,-329.87C210.27,-318.35 144.9,-297.92 103.79,-285.08"/>
<polygon fill="midnightblue" stroke="midnightblue" points="104.74,-281.71 94.15,-282.06 102.65,-288.39 104.74,-281.71"/>
</g>
<!-- Node3&#45;&gt;Node5 -->
<g id="edge4" class="edge">
<title>Node3&#45;&gt;Node5</title>
<path fill="none" stroke="midnightblue" d="M263.55,-329.73C250.11,-319.21 227.35,-301.38 211.05,-288.62"/>
<polygon fill="midnightblue" stroke="midnightblue" points="212.8,-285.54 202.76,-282.13 208.48,-291.05 212.8,-285.54"/>
</g>
<!-- Node3&#45;&gt;Node6 -->
<g id="edge5" class="edge">
<title>Node3&#45;&gt;Node6</title>
<path fill="none" stroke="midnightblue" d="M273.44,-329.84C270.23,-308.67 261.94,-253.95 257.56,-225.03"/>
<polygon fill="midnightblue" stroke="midnightblue" points="261,-224.38 256.04,-215.02 254.08,-225.43 261,-224.38"/>
</g>
<!-- Node3&#45;&gt;Node7 -->
<g id="edge6" class="edge">
<title>Node3&#45;&gt;Node7</title>
<path fill="none" stroke="midnightblue" d="M335.81,-333.93C429.75,-326.34 605,-309.79 663.75,-288 708.85,-271.27 807.59,-194.37 833.75,-154 859.5,-114.26 871.38,-58.78 876.09,-30"/>
<polygon fill="midnightblue" stroke="midnightblue" points="879.61,-30.15 877.65,-19.74 872.69,-29.1 879.61,-30.15"/>
</g>
<!-- Node8 -->
<g id="node8" class="node">
<title>Node8</title>
<g id="a_node8"><a xlink:title=" ">
<polygon fill="none" stroke="#bfbfbf" points="425.75,-0.5 425.75,-19.5 483.75,-19.5 483.75,-0.5 425.75,-0.5"/>
<text text-anchor="middle" x="454.75" y="-7.5" font-family="Helvetica,sans-Serif" font-size="10.00">memory</text>
</a>
</g>
</g>
<!-- Node3&#45;&gt;Node8 -->
<g id="edge7" class="edge">
<title>Node3&#45;&gt;Node8</title>
<path fill="none" stroke="midnightblue" d="M279.11,-329.79C289.09,-309.01 312.75,-254.67 312.75,-206.5 312.75,-206.5 312.75,-206.5 312.75,-137.5 312.75,-79.46 379.72,-41.47 421.67,-23.38"/>
<polygon fill="midnightblue" stroke="midnightblue" points="423.09,-26.58 430.98,-19.51 420.4,-20.11 423.09,-26.58"/>
</g>
<!-- Node9&#45;&gt;Node8 -->
<g id="edge9" class="edge">
<title>Node9&#45;&gt;Node8</title>
<path fill="none" stroke="midnightblue" d="M744.34,-190.44C759.22,-182.16 775.36,-170.12 783.75,-154 790.1,-141.78 791.41,-134.45 783.75,-123 762.1,-90.61 658.63,-68.54 621.75,-56 578.59,-41.33 527.9,-28.24 493.78,-20.01"/>
<polygon fill="midnightblue" stroke="midnightblue" points="494.29,-16.53 483.75,-17.61 492.66,-23.34 494.29,-16.53"/>
</g>
<!-- Node10 -->
<g id="node10" class="node">
<title>Node10</title>
<g id="a_node10"><a xlink:title=" ">
<polygon fill="none" stroke="#bfbfbf" points="558.75,-129 558.75,-148 614.75,-148 614.75,-129 558.75,-129"/>
<text text-anchor="middle" x="586.75" y="-136" font-family="Helvetica,sans-Serif" font-size="10.00">optional</text>
</a>
</g>
</g>
<!-- Node9&#45;&gt;Node10 -->
<g id="edge10" class="edge">
<title>Node9&#45;&gt;Node10</title>
<path fill="none" stroke="midnightblue" d="M684.62,-190.4C663.08,-179.19 633.17,-163.64 612.1,-152.69"/>
<polygon fill="midnightblue" stroke="midnightblue" points="613.59,-149.52 603.11,-148.01 610.36,-155.73 613.59,-149.52"/>
</g>
<!-- Node11 -->
<g id="node11" class="node">
<title>Node11</title>
<g id="a_node11"><a xlink:href="_simple_subscriber_8h.html" target="_top" xlink:title=" ">
<polygon fill="none" stroke="black" points="737.25,-56.5 737.25,-86.5 850.25,-86.5 850.25,-56.5 737.25,-56.5"/>
<text text-anchor="start" x="745.25" y="-74.5" font-family="Helvetica,sans-Serif" font-size="10.00">../../core&#45;lib/include</text>
<text text-anchor="middle" x="793.75" y="-63.5" font-family="Helvetica,sans-Serif" font-size="10.00">/SimpleSubscriber.h</text>
</a>
</g>
</g>
<!-- Node9&#45;&gt;Node11 -->
<g id="edge11" class="edge">
<title>Node9&#45;&gt;Node11</title>
<path fill="none" stroke="midnightblue" d="M756.87,-194.74C778.95,-187.44 803.56,-174.98 816.75,-154 827.97,-136.15 819.4,-112.71 809.69,-95.56"/>
<polygon fill="midnightblue" stroke="midnightblue" points="812.5,-93.45 804.29,-86.75 806.53,-97.11 812.5,-93.45"/>
</g>
<!-- Node12 -->
<g id="node12" class="node">
<title>Node12</title>
<g id="a_node12"><a xlink:href="_entity_8h.html" target="_top" xlink:title=" ">
<polygon fill="none" stroke="black" points="560.25,-62 560.25,-81 613.25,-81 613.25,-62 560.25,-62"/>
<text text-anchor="middle" x="586.75" y="-69" font-family="Helvetica,sans-Serif" font-size="10.00">Entity.h</text>
</a>
</g>
</g>
<!-- Node9&#45;&gt;Node12 -->
<g id="edge14" class="edge">
<title>Node9&#45;&gt;Node12</title>
<path fill="none" stroke="midnightblue" d="M697.6,-190.49C687.51,-180.43 673.67,-166.49 661.75,-154 640.49,-131.73 616.49,-105.44 601.49,-88.87"/>
<polygon fill="midnightblue" stroke="midnightblue" points="603.83,-86.24 594.53,-81.16 598.63,-90.93 603.83,-86.24"/>
</g>
<!-- Node13 -->
<g id="node13" class="node">
<title>Node13</title>
<g id="a_node13"><a xlink:href="_bot_8h.html" target="_top" xlink:title=" ">
<polygon fill="none" stroke="black" points="670.75,-123.5 670.75,-153.5 774.75,-153.5 774.75,-123.5 670.75,-123.5"/>
<text text-anchor="start" x="678.75" y="-141.5" font-family="Helvetica,sans-Serif" font-size="10.00">../../bot&#45;lib/include</text>
<text text-anchor="middle" x="722.75" y="-130.5" font-family="Helvetica,sans-Serif" font-size="10.00">/Bot.h</text>
</a>
</g>
</g>
<!-- Node9&#45;&gt;Node13 -->
<g id="edge15" class="edge">
<title>Node9&#45;&gt;Node13</title>
<path fill="none" stroke="midnightblue" d="M714.13,-190.4C715.46,-182.56 717.15,-172.6 718.68,-163.57"/>
<polygon fill="midnightblue" stroke="midnightblue" points="722.15,-164.02 720.37,-153.58 715.25,-162.85 722.15,-164.02"/>
</g>
<!-- Node11&#45;&gt;Node7 -->
<g id="edge12" class="edge">
<title>Node11&#45;&gt;Node7</title>
<path fill="none" stroke="midnightblue" d="M813.89,-56.4C827.13,-47.13 844.43,-35.03 857.82,-25.65"/>
<polygon fill="midnightblue" stroke="midnightblue" points="860.19,-28.26 866.38,-19.66 856.18,-22.53 860.19,-28.26"/>
</g>
<!-- Node11&#45;&gt;Node8 -->
<g id="edge13" class="edge">
<title>Node11&#45;&gt;Node8</title>
<path fill="none" stroke="midnightblue" d="M737.2,-58.77C732.32,-57.81 727.45,-56.87 722.75,-56 641.6,-40.91 546.2,-25.43 493.93,-17.14"/>
<polygon fill="midnightblue" stroke="midnightblue" points="494.18,-13.63 483.76,-15.53 493.09,-20.55 494.18,-13.63"/>
</g>
<!-- Node13&#45;&gt;Node11 -->
<g id="edge17" class="edge">
<title>Node13&#45;&gt;Node11</title>
<path fill="none" stroke="midnightblue" d="M738.15,-123.4C747.74,-114.62 760.23,-103.18 770.95,-93.37"/>
<polygon fill="midnightblue" stroke="midnightblue" points="773.36,-95.91 778.37,-86.58 768.63,-90.75 773.36,-95.91"/>
</g>
<!-- Node13&#45;&gt;Node12 -->
<g id="edge16" class="edge">
<title>Node13&#45;&gt;Node12</title>
<path fill="none" stroke="midnightblue" d="M693.24,-123.4C669.59,-112.09 636.67,-96.36 613.72,-85.39"/>
<polygon fill="midnightblue" stroke="midnightblue" points="615.08,-82.16 604.55,-81.01 612.06,-88.48 615.08,-82.16"/>
</g>
<!-- Node15&#45;&gt;Node12 -->
<g id="edge20" class="edge">
<title>Node15&#45;&gt;Node12</title>
<path fill="none" stroke="midnightblue" d="M513.97,-324.37C509.24,-297.72 501.1,-238.37 511.75,-190 518.8,-157.96 524.9,-150.53 542.75,-123 550.77,-110.62 561.64,-98.11 570.58,-88.64"/>
<polygon fill="midnightblue" stroke="midnightblue" points="573.36,-90.8 577.8,-81.18 568.33,-85.93 573.36,-90.8"/>
</g>
<!-- Node16 -->
<g id="node16" class="node">
<title>Node16</title>
<g id="a_node16"><a xlink:href="_event_queue_8h.html" target="_top" xlink:title=" ">
<polygon fill="none" stroke="black" points="378.75,-257.5 378.75,-287.5 488.75,-287.5 488.75,-257.5 378.75,-257.5"/>
<text text-anchor="start" x="386.75" y="-275.5" font-family="Helvetica,sans-Serif" font-size="10.00">../../core&#45;lib/include</text>
<text text-anchor="middle" x="433.75" y="-264.5" font-family="Helvetica,sans-Serif" font-size="10.00">/EventQueue.h</text>
</a>
</g>
</g>
<!-- Node15&#45;&gt;Node16 -->
<g id="edge21" class="edge">
<title>Node15&#45;&gt;Node16</title>
<path fill="none" stroke="midnightblue" d="M498.74,-324.4C487.32,-315.45 472.36,-303.74 459.67,-293.8"/>
<polygon fill="midnightblue" stroke="midnightblue" points="461.75,-290.99 451.72,-287.58 457.44,-296.5 461.75,-290.99"/>
</g>
<!-- Node17 -->
<g id="node17" class="node">
<title>Node17</title>
<g id="a_node17"><a xlink:href="_event_8h.html" target="_top" xlink:title=" ">
<polygon fill="none" stroke="black" points="544.75,-257.5 544.75,-287.5 654.75,-287.5 654.75,-257.5 544.75,-257.5"/>
<text text-anchor="start" x="552.75" y="-275.5" font-family="Helvetica,sans-Serif" font-size="10.00">../../core&#45;lib/include</text>
<text text-anchor="middle" x="599.75" y="-264.5" font-family="Helvetica,sans-Serif" font-size="10.00">/Event.h</text>
</a>
</g>
</g>
<!-- Node15&#45;&gt;Node17 -->
<g id="edge24" class="edge">
<title>Node15&#45;&gt;Node17</title>
<path fill="none" stroke="midnightblue" d="M534.76,-324.4C546.18,-315.45 561.14,-303.74 573.82,-293.8"/>
<polygon fill="midnightblue" stroke="midnightblue" points="576.06,-296.5 581.77,-287.58 571.74,-290.99 576.06,-296.5"/>
</g>
<!-- Node16&#45;&gt;Node8 -->
<g id="edge23" class="edge">
<title>Node16&#45;&gt;Node8</title>
<path fill="none" stroke="midnightblue" d="M432.9,-257.25C431.11,-222.53 428.11,-130.93 440.75,-56 442.26,-47.02 445.1,-37.35 447.83,-29.28"/>
<polygon fill="midnightblue" stroke="midnightblue" points="451.16,-30.39 451.24,-19.79 444.57,-28.02 451.16,-30.39"/>
</g>
<!-- Node16&#45;&gt;Node14 -->
<g id="edge22" class="edge">
<title>Node16&#45;&gt;Node14</title>
<path fill="none" stroke="midnightblue" d="M418.78,-257.4C407.8,-247.06 392.9,-233.02 381.53,-222.31"/>
<polygon fill="midnightblue" stroke="midnightblue" points="383.66,-219.5 373.98,-215.19 378.86,-224.6 383.66,-219.5"/>
</g>
<!-- Node17&#45;&gt;Node6 -->
<g id="edge29" class="edge">
<title>Node17&#45;&gt;Node6</title>
<path fill="none" stroke="midnightblue" d="M544.7,-261.13C475.1,-248.02 356.93,-225.75 295.13,-214.11"/>
<polygon fill="midnightblue" stroke="midnightblue" points="295.47,-210.61 284.99,-212.2 294.17,-217.49 295.47,-210.61"/>
</g>
<!-- Node17&#45;&gt;Node8 -->
<g id="edge27" class="edge">
<title>Node17&#45;&gt;Node8</title>
<path fill="none" stroke="midnightblue" d="M561.23,-257.43C543.81,-249.26 524.34,-237.31 511.75,-221 466.15,-161.94 456.98,-69.01 455.17,-29.63"/>
<polygon fill="midnightblue" stroke="midnightblue" points="458.67,-29.49 454.83,-19.62 451.68,-29.73 458.67,-29.49"/>
</g>
<!-- Node17&#45;&gt;Node9 -->
<g id="edge32" class="edge">
<title>Node17&#45;&gt;Node9</title>
<path fill="none" stroke="midnightblue" d="M624.05,-257.4C640.05,-248.11 661.19,-235.84 678.71,-225.67"/>
<polygon fill="midnightblue" stroke="midnightblue" points="680.6,-228.62 687.49,-220.58 677.09,-222.57 680.6,-228.62"/>
</g>
<!-- Node17&#45;&gt;Node10 -->
<g id="edge30" class="edge">
<title>Node17&#45;&gt;Node10</title>
<path fill="none" stroke="midnightblue" d="M606.11,-257.23C612.55,-240.86 620.76,-213.26 614.75,-190 611.66,-178.06 605.08,-165.94 599.07,-156.56"/>
<polygon fill="midnightblue" stroke="midnightblue" points="601.91,-154.52 593.4,-148.21 596.12,-158.45 601.91,-154.52"/>
</g>
<!-- Node17&#45;&gt;Node12 -->
<g id="edge31" class="edge">
<title>Node17&#45;&gt;Node12</title>
<path fill="none" stroke="midnightblue" d="M598.51,-257.24C596.59,-240.4 591.87,-211.89 580.75,-190 571.19,-171.17 557.1,-173.79 549.75,-154 544.95,-141.08 545.46,-136.09 549.75,-123 553.94,-110.19 562.75,-97.94 570.73,-88.71"/>
<polygon fill="midnightblue" stroke="midnightblue" points="573.48,-90.89 577.66,-81.16 568.32,-86.16 573.48,-90.89"/>
</g>
<!-- Node18 -->
<g id="node18" class="node">
<title>Node18</title>
<g id="a_node18"><a xlink:title=" ">
<polygon fill="none" stroke="#bfbfbf" points="813.25,-196 813.25,-215 878.25,-215 878.25,-196 813.25,-196"/>
<text text-anchor="middle" x="845.75" y="-203" font-family="Helvetica,sans-Serif" font-size="10.00">exception</text>
</a>
</g>
</g>
<!-- Node17&#45;&gt;Node18 -->
<g id="edge25" class="edge">
<title>Node17&#45;&gt;Node18</title>
<path fill="none" stroke="midnightblue" d="M652.82,-257.48C697.97,-245.55 761.94,-228.64 803.63,-217.63"/>
<polygon fill="midnightblue" stroke="midnightblue" points="804.7,-220.97 813.47,-215.03 802.91,-214.2 804.7,-220.97"/>
</g>
<!-- Node17&#45;&gt;Node19 -->
<g id="edge26" class="edge">
<title>Node17&#45;&gt;Node19</title>
<path fill="none" stroke="midnightblue" d="M654.93,-265.96C713.44,-259.13 808.08,-245.32 886.75,-221 888.63,-220.42 890.54,-219.75 892.45,-219.04"/>
<polygon fill="midnightblue" stroke="midnightblue" points="893.9,-222.22 901.78,-215.14 891.21,-215.76 893.9,-222.22"/>
</g>
<!-- Node20 -->
<g id="node20" class="node">
<title>Node20</title>
<g id="a_node20"><a xlink:title=" ">
<polygon fill="none" stroke="#bfbfbf" points="521.25,-196 521.25,-215 572.25,-215 572.25,-196 521.25,-196"/>
<text text-anchor="middle" x="546.75" y="-203" font-family="Helvetica,sans-Serif" font-size="10.00">variant</text>
</a>
</g>
</g>
<!-- Node17&#45;&gt;Node20 -->
<g id="edge28" class="edge">
<title>Node17&#45;&gt;Node20</title>
<path fill="none" stroke="midnightblue" d="M588.25,-257.4C580.07,-247.36 569.04,-233.84 560.41,-223.25"/>
<polygon fill="midnightblue" stroke="midnightblue" points="562.87,-220.73 553.84,-215.19 557.44,-225.16 562.87,-220.73"/>
</g>
<!-- Node24&#45;&gt;Node18 -->
<g id="edge42" class="edge">
<title>Node24&#45;&gt;Node18</title>
<path fill="none" stroke="midnightblue" d="M831.91,-262.73C834.28,-253.09 838.17,-237.3 841.22,-224.91"/>
<polygon fill="midnightblue" stroke="midnightblue" points="844.63,-225.67 843.62,-215.13 837.84,-224 844.63,-225.67"/>
</g>
<!-- Node24&#45;&gt;Node19 -->
<g id="edge43" class="edge">
<title>Node24&#45;&gt;Node19</title>
<path fill="none" stroke="midnightblue" d="M841.75,-262.73C856.3,-252.11 881.03,-234.05 898.53,-221.26"/>
<polygon fill="midnightblue" stroke="midnightblue" points="900.92,-223.85 906.93,-215.13 896.79,-218.2 900.92,-223.85"/>
</g>
</g>
</svg>
