<?xml version="1.0" encoding="UTF-8" standalone="no"?>
<!DOCTYPE svg PUBLIC "-//W3C//DTD SVG 1.1//EN"
 "http://www.w3.org/Graphics/SVG/1.1/DTD/svg11.dtd">
<!-- Generated by graphviz version 2.43.0 (0)
 -->
<!-- Title: /home/tomek/CLionProjects/proi/proi&#45;projekt/src/graphic&#45;lib/include/ActiveState_dir/Borad_dir/EagleGraphic.h Pages: 1 -->
<svg width="1002pt" height="452pt"
 viewBox="0.00 0.00 1002.01 452.00" xmlns="http://www.w3.org/2000/svg" xmlns:xlink="http://www.w3.org/1999/xlink">
<g id="graph0" class="graph" transform="scale(1 1) rotate(0) translate(4 448)">
<title>/home/tomek/CLionProjects/proi/proi&#45;projekt/src/graphic&#45;lib/include/ActiveState_dir/Borad_dir/EagleGraphic.h</title>
<!-- Node1 -->
<g id="node1" class="node">
<title>Node1</title>
<g id="a_node1"><a xlink:title=" ">
<polygon fill="#bfbfbf" stroke="black" points="444.01,-391.5 444.01,-443.5 613.01,-443.5 613.01,-391.5 444.01,-391.5"/>
<text text-anchor="start" x="452.01" y="-431.5" font-family="Helvetica,sans-Serif" font-size="10.00">/home/tomek/CLionProjects</text>
<text text-anchor="start" x="452.01" y="-420.5" font-family="Helvetica,sans-Serif" font-size="10.00">/proi/proi&#45;projekt/src</text>
<text text-anchor="start" x="452.01" y="-409.5" font-family="Helvetica,sans-Serif" font-size="10.00">/graphic&#45;lib/include/ActiveState</text>
<text text-anchor="middle" x="528.51" y="-398.5" font-family="Helvetica,sans-Serif" font-size="10.00">_dir/Borad_dir/EagleGraphic.h</text>
</a>
</g>
</g>
<!-- Node2 -->
<g id="node2" class="node">
<title>Node2</title>
<g id="a_node2"><a xlink:href="_abstract_window_8h.html" target="_top" xlink:title=" ">
<polygon fill="none" stroke="black" points="181.51,-263 181.51,-282 303.51,-282 303.51,-263 181.51,-263"/>
<text text-anchor="middle" x="242.51" y="-270" font-family="Helvetica,sans-Serif" font-size="10.00">../../AbstractWindow.h</text>
</a>
</g>
</g>
<!-- Node1&#45;&gt;Node2 -->
<g id="edge1" class="edge">
<title>Node1&#45;&gt;Node2</title>
<path fill="none" stroke="midnightblue" d="M478.37,-391.43C417.22,-360.85 316.16,-310.32 268.68,-286.58"/>
<polygon fill="midnightblue" stroke="midnightblue" points="270.17,-283.42 259.66,-282.08 267.04,-289.68 270.17,-283.42"/>
</g>
<!-- Node8 -->
<g id="node8" class="node">
<title>Node8</title>
<g id="a_node8"><a xlink:href="_tank_8h.html" target="_top" xlink:title=" ">
<polygon fill="none" stroke="black" points="389.51,-190.5 389.51,-220.5 479.51,-220.5 479.51,-190.5 389.51,-190.5"/>
<text text-anchor="start" x="397.51" y="-208.5" font-family="Helvetica,sans-Serif" font-size="10.00">../../../../tank&#45;lib</text>
<text text-anchor="middle" x="434.51" y="-197.5" font-family="Helvetica,sans-Serif" font-size="10.00">/include/Tank.h</text>
</a>
</g>
</g>
<!-- Node1&#45;&gt;Node8 -->
<g id="edge7" class="edge">
<title>Node1&#45;&gt;Node8</title>
<path fill="none" stroke="midnightblue" d="M517.17,-391.17C498.81,-350.14 462.81,-269.73 445.01,-229.95"/>
<polygon fill="midnightblue" stroke="midnightblue" points="448.17,-228.45 440.89,-220.75 441.78,-231.31 448.17,-228.45"/>
</g>
<!-- Node13 -->
<g id="node13" class="node">
<title>Node13</title>
<g id="a_node13"><a xlink:title=" ">
<polygon fill="none" stroke="#bfbfbf" points="947.01,-196 947.01,-215 994.01,-215 994.01,-196 947.01,-196"/>
<text text-anchor="middle" x="970.51" y="-203" font-family="Helvetica,sans-Serif" font-size="10.00">queue</text>
</a>
</g>
</g>
<!-- Node1&#45;&gt;Node13 -->
<g id="edge17" class="edge">
<title>Node1&#45;&gt;Node13</title>
<path fill="none" stroke="midnightblue" d="M613.01,-404.54C729.72,-386.06 930.64,-346.47 972.51,-288 985.61,-269.7 981.67,-242.7 976.8,-224.86"/>
<polygon fill="midnightblue" stroke="midnightblue" points="980.08,-223.62 973.79,-215.09 973.39,-225.68 980.08,-223.62"/>
</g>
<!-- Node14 -->
<g id="node14" class="node">
<title>Node14</title>
<g id="a_node14"><a xlink:href="_eagle_8h.html" target="_top" xlink:title=" ">
<polygon fill="none" stroke="black" points="670.51,-324.5 670.51,-354.5 766.51,-354.5 766.51,-324.5 670.51,-324.5"/>
<text text-anchor="start" x="678.51" y="-342.5" font-family="Helvetica,sans-Serif" font-size="10.00">../../../../board&#45;lib</text>
<text text-anchor="middle" x="718.51" y="-331.5" font-family="Helvetica,sans-Serif" font-size="10.00">/include/Eagle.h</text>
</a>
</g>
</g>
<!-- Node1&#45;&gt;Node14 -->
<g id="edge18" class="edge">
<title>Node1&#45;&gt;Node14</title>
<path fill="none" stroke="midnightblue" d="M591.25,-391.4C618.26,-380.6 649.21,-368.22 673.82,-358.37"/>
<polygon fill="midnightblue" stroke="midnightblue" points="675.28,-361.56 683.27,-354.6 672.68,-355.06 675.28,-361.56"/>
</g>
<!-- Node3 -->
<g id="node3" class="node">
<title>Node3</title>
<g id="a_node3"><a xlink:title=" ">
<polygon fill="none" stroke="#bfbfbf" points="23.51,-196 23.51,-215 127.51,-215 127.51,-196 23.51,-196"/>
<text text-anchor="middle" x="75.51" y="-203" font-family="Helvetica,sans-Serif" font-size="10.00">SFML/System.hpp</text>
</a>
</g>
</g>
<!-- Node2&#45;&gt;Node3 -->
<g id="edge2" class="edge">
<title>Node2&#45;&gt;Node3</title>
<path fill="none" stroke="midnightblue" d="M220.33,-262.87C191.31,-251.57 140.25,-231.7 107.16,-218.82"/>
<polygon fill="midnightblue" stroke="midnightblue" points="108.1,-215.43 97.51,-215.06 105.56,-221.95 108.1,-215.43"/>
</g>
<!-- Node4 -->
<g id="node4" class="node">
<title>Node4</title>
<g id="a_node4"><a xlink:title=" ">
<polygon fill="none" stroke="#bfbfbf" points="145.51,-196 145.51,-215 255.51,-215 255.51,-196 145.51,-196"/>
<text text-anchor="middle" x="200.51" y="-203" font-family="Helvetica,sans-Serif" font-size="10.00">SFML/Graphics.hpp</text>
</a>
</g>
</g>
<!-- Node2&#45;&gt;Node4 -->
<g id="edge3" class="edge">
<title>Node2&#45;&gt;Node4</title>
<path fill="none" stroke="midnightblue" d="M236.85,-262.73C230.42,-252.79 219.79,-236.34 211.68,-223.79"/>
<polygon fill="midnightblue" stroke="midnightblue" points="214.45,-221.63 206.09,-215.13 208.57,-225.43 214.45,-221.63"/>
</g>
<!-- Node5 -->
<g id="node5" class="node">
<title>Node5</title>
<g id="a_node5"><a xlink:title=" ">
<polygon fill="none" stroke="#bfbfbf" points="311.51,-196 311.51,-215 371.51,-215 371.51,-196 311.51,-196"/>
<text text-anchor="middle" x="341.51" y="-203" font-family="Helvetica,sans-Serif" font-size="10.00">iostream</text>
</a>
</g>
</g>
<!-- Node2&#45;&gt;Node5 -->
<g id="edge4" class="edge">
<title>Node2&#45;&gt;Node5</title>
<path fill="none" stroke="midnightblue" d="M255.86,-262.73C272.27,-251.96 300.31,-233.55 319.82,-220.74"/>
<polygon fill="midnightblue" stroke="midnightblue" points="321.93,-223.54 328.37,-215.13 318.09,-217.69 321.93,-223.54"/>
</g>
<!-- Node6 -->
<g id="node6" class="node">
<title>Node6</title>
<g id="a_node6"><a xlink:title=" ">
<polygon fill="none" stroke="#bfbfbf" points="159.01,-0.5 159.01,-19.5 206.01,-19.5 206.01,-0.5 159.01,-0.5"/>
<text text-anchor="middle" x="182.51" y="-7.5" font-family="Helvetica,sans-Serif" font-size="10.00">vector</text>
</a>
</g>
</g>
<!-- Node2&#45;&gt;Node6 -->
<g id="edge5" class="edge">
<title>Node2&#45;&gt;Node6</title>
<path fill="none" stroke="midnightblue" d="M181.46,-266.46C121.18,-260.07 35.1,-246.65 14.51,-221 -45,-146.87 96.42,-57.82 156.8,-24.47"/>
<polygon fill="midnightblue" stroke="midnightblue" points="158.64,-27.46 165.76,-19.61 155.3,-21.31 158.64,-27.46"/>
</g>
<!-- Node7 -->
<g id="node7" class="node">
<title>Node7</title>
<g id="a_node7"><a xlink:title=" ">
<polygon fill="none" stroke="#bfbfbf" points="470.51,-0.5 470.51,-19.5 528.51,-19.5 528.51,-0.5 470.51,-0.5"/>
<text text-anchor="middle" x="499.51" y="-7.5" font-family="Helvetica,sans-Serif" font-size="10.00">memory</text>
</a>
</g>
</g>
<!-- Node2&#45;&gt;Node7 -->
<g id="edge6" class="edge">
<title>Node2&#45;&gt;Node7</title>
<path fill="none" stroke="midnightblue" d="M246.66,-262.67C251.29,-252.67 258.87,-235.84 264.51,-221 291.95,-148.88 262.01,-108.54 318.51,-56 357.12,-20.1 419.84,-11.66 460.38,-10.28"/>
<polygon fill="midnightblue" stroke="midnightblue" points="460.51,-13.77 470.43,-10.06 460.36,-6.78 460.51,-13.77"/>
</g>
<!-- Node8&#45;&gt;Node7 -->
<g id="edge8" class="edge">
<title>Node8&#45;&gt;Node7</title>
<path fill="none" stroke="midnightblue" d="M451.79,-190.42C461.88,-181.18 473.91,-168.19 480.51,-154 499.73,-112.69 501.23,-57.87 500.49,-29.61"/>
<polygon fill="midnightblue" stroke="midnightblue" points="503.98,-29.4 500.09,-19.55 496.99,-29.67 503.98,-29.4"/>
</g>
<!-- Node9 -->
<g id="node9" class="node">
<title>Node9</title>
<g id="a_node9"><a xlink:title=" ">
<polygon fill="none" stroke="#bfbfbf" points="565.51,-129 565.51,-148 621.51,-148 621.51,-129 565.51,-129"/>
<text text-anchor="middle" x="593.51" y="-136" font-family="Helvetica,sans-Serif" font-size="10.00">optional</text>
</a>
</g>
</g>
<!-- Node8&#45;&gt;Node9 -->
<g id="edge9" class="edge">
<title>Node8&#45;&gt;Node9</title>
<path fill="none" stroke="midnightblue" d="M469.01,-190.4C497.16,-178.89 536.52,-162.8 563.41,-151.81"/>
<polygon fill="midnightblue" stroke="midnightblue" points="564.77,-155.03 572.7,-148.01 562.12,-148.55 564.77,-155.03"/>
</g>
<!-- Node10 -->
<g id="node10" class="node">
<title>Node10</title>
<g id="a_node10"><a xlink:href="_simple_subscriber_8h.html" target="_top" xlink:title=" ">
<polygon fill="none" stroke="black" points="328.01,-56.5 328.01,-86.5 441.01,-86.5 441.01,-56.5 328.01,-56.5"/>
<text text-anchor="start" x="336.01" y="-74.5" font-family="Helvetica,sans-Serif" font-size="10.00">../../core&#45;lib/include</text>
<text text-anchor="middle" x="384.51" y="-63.5" font-family="Helvetica,sans-Serif" font-size="10.00">/SimpleSubscriber.h</text>
</a>
</g>
</g>
<!-- Node8&#45;&gt;Node10 -->
<g id="edge10" class="edge">
<title>Node8&#45;&gt;Node10</title>
<path fill="none" stroke="midnightblue" d="M399.37,-190.45C383.9,-182.29 367.27,-170.34 358.51,-154 348.5,-135.34 357.71,-112.18 367.83,-95.32"/>
<polygon fill="midnightblue" stroke="midnightblue" points="370.94,-96.97 373.43,-86.68 365.06,-93.17 370.94,-96.97"/>
</g>
<!-- Node11 -->
<g id="node11" class="node">
<title>Node11</title>
<g id="a_node11"><a xlink:href="_entity_8h.html" target="_top" xlink:title=" ">
<polygon fill="none" stroke="black" points="597.01,-62 597.01,-81 650.01,-81 650.01,-62 597.01,-62"/>
<text text-anchor="middle" x="623.51" y="-69" font-family="Helvetica,sans-Serif" font-size="10.00">Entity.h</text>
</a>
</g>
</g>
<!-- Node8&#45;&gt;Node11 -->
<g id="edge13" class="edge">
<title>Node8&#45;&gt;Node11</title>
<path fill="none" stroke="midnightblue" d="M457.6,-190.33C473.5,-180.42 495.01,-166.74 513.51,-154 530.92,-142.01 577.25,-107.33 603.9,-87.28"/>
<polygon fill="midnightblue" stroke="midnightblue" points="606.23,-89.91 612.11,-81.1 602.02,-84.32 606.23,-89.91"/>
</g>
<!-- Node12 -->
<g id="node12" class="node">
<title>Node12</title>
<g id="a_node12"><a xlink:href="_bot_8h.html" target="_top" xlink:title=" ">
<polygon fill="none" stroke="black" points="367.51,-123.5 367.51,-153.5 471.51,-153.5 471.51,-123.5 367.51,-123.5"/>
<text text-anchor="start" x="375.51" y="-141.5" font-family="Helvetica,sans-Serif" font-size="10.00">../../bot&#45;lib/include</text>
<text text-anchor="middle" x="419.51" y="-130.5" font-family="Helvetica,sans-Serif" font-size="10.00">/Bot.h</text>
</a>
</g>
</g>
<!-- Node8&#45;&gt;Node12 -->
<g id="edge14" class="edge">
<title>Node8&#45;&gt;Node12</title>
<path fill="none" stroke="midnightblue" d="M431.26,-190.4C429.45,-182.56 427.15,-172.6 425.06,-163.57"/>
<polygon fill="midnightblue" stroke="midnightblue" points="428.42,-162.53 422.76,-153.58 421.6,-164.11 428.42,-162.53"/>
</g>
<!-- Node10&#45;&gt;Node6 -->
<g id="edge11" class="edge">
<title>Node10&#45;&gt;Node6</title>
<path fill="none" stroke="midnightblue" d="M336.9,-56.47C299.58,-45.48 248.63,-30.47 215.64,-20.76"/>
<polygon fill="midnightblue" stroke="midnightblue" points="216.6,-17.39 206.02,-17.92 214.62,-24.11 216.6,-17.39"/>
</g>
<!-- Node10&#45;&gt;Node7 -->
<g id="edge12" class="edge">
<title>Node10&#45;&gt;Node7</title>
<path fill="none" stroke="midnightblue" d="M411.76,-56.4C430.54,-46.68 455.34,-33.86 473.78,-24.31"/>
<polygon fill="midnightblue" stroke="midnightblue" points="475.5,-27.36 482.78,-19.66 472.29,-21.14 475.5,-27.36"/>
</g>
<!-- Node12&#45;&gt;Node10 -->
<g id="edge16" class="edge">
<title>Node12&#45;&gt;Node10</title>
<path fill="none" stroke="midnightblue" d="M411.92,-123.4C407.51,-115.22 401.86,-104.73 396.84,-95.39"/>
<polygon fill="midnightblue" stroke="midnightblue" points="399.91,-93.72 392.09,-86.58 393.75,-97.04 399.91,-93.72"/>
</g>
<!-- Node12&#45;&gt;Node11 -->
<g id="edge15" class="edge">
<title>Node12&#45;&gt;Node11</title>
<path fill="none" stroke="midnightblue" d="M463.52,-123.48C500.41,-111.72 552.45,-95.14 587.04,-84.12"/>
<polygon fill="midnightblue" stroke="midnightblue" points="588.28,-87.4 596.74,-81.03 586.15,-80.73 588.28,-87.4"/>
</g>
<!-- Node14&#45;&gt;Node11 -->
<g id="edge19" class="edge">
<title>Node14&#45;&gt;Node11</title>
<path fill="none" stroke="midnightblue" d="M732.7,-324.29C757.64,-297.51 804.52,-237.97 780.51,-190 754.35,-137.74 692.68,-102.73 654.89,-85.34"/>
<polygon fill="midnightblue" stroke="midnightblue" points="655.93,-81.97 645.37,-81.1 653.08,-88.37 655.93,-81.97"/>
</g>
<!-- Node15 -->
<g id="node15" class="node">
<title>Node15</title>
<g id="a_node15"><a xlink:href="_event_queue_8h.html" target="_top" xlink:title=" ">
<polygon fill="none" stroke="black" points="853.51,-257.5 853.51,-287.5 963.51,-287.5 963.51,-257.5 853.51,-257.5"/>
<text text-anchor="start" x="861.51" y="-275.5" font-family="Helvetica,sans-Serif" font-size="10.00">../../core&#45;lib/include</text>
<text text-anchor="middle" x="908.51" y="-264.5" font-family="Helvetica,sans-Serif" font-size="10.00">/EventQueue.h</text>
</a>
</g>
</g>
<!-- Node14&#45;&gt;Node15 -->
<g id="edge20" class="edge">
<title>Node14&#45;&gt;Node15</title>
<path fill="none" stroke="midnightblue" d="M759.74,-324.4C788.5,-314.56 827.05,-301.37 857.71,-290.88"/>
<polygon fill="midnightblue" stroke="midnightblue" points="859.04,-294.13 867.36,-287.58 856.77,-287.5 859.04,-294.13"/>
</g>
<!-- Node16 -->
<g id="node16" class="node">
<title>Node16</title>
<g id="a_node16"><a xlink:href="_event_8h.html" target="_top" xlink:title=" ">
<polygon fill="none" stroke="black" points="568.51,-257.5 568.51,-287.5 678.51,-287.5 678.51,-257.5 568.51,-257.5"/>
<text text-anchor="start" x="576.51" y="-275.5" font-family="Helvetica,sans-Serif" font-size="10.00">../../core&#45;lib/include</text>
<text text-anchor="middle" x="623.51" y="-264.5" font-family="Helvetica,sans-Serif" font-size="10.00">/Event.h</text>
</a>
</g>
</g>
<!-- Node14&#45;&gt;Node16 -->
<g id="edge23" class="edge">
<title>Node14&#45;&gt;Node16</title>
<path fill="none" stroke="midnightblue" d="M697.9,-324.4C684.58,-315.28 667.05,-303.29 652.36,-293.24"/>
<polygon fill="midnightblue" stroke="midnightblue" points="654.31,-290.33 644.08,-287.58 650.36,-296.11 654.31,-290.33"/>
</g>
<!-- Node15&#45;&gt;Node7 -->
<g id="edge22" class="edge">
<title>Node15&#45;&gt;Node7</title>
<path fill="none" stroke="midnightblue" d="M899.31,-257.28C873.02,-217.95 793.21,-107.21 696.51,-56 646.03,-29.27 580.07,-18.34 538.74,-13.92"/>
<polygon fill="midnightblue" stroke="midnightblue" points="538.83,-10.41 528.54,-12.91 538.14,-17.38 538.83,-10.41"/>
</g>
<!-- Node15&#45;&gt;Node13 -->
<g id="edge21" class="edge">
<title>Node15&#45;&gt;Node13</title>
<path fill="none" stroke="midnightblue" d="M921.96,-257.4C931.73,-247.16 944.95,-233.3 955.13,-222.62"/>
<polygon fill="midnightblue" stroke="midnightblue" points="957.85,-224.85 962.22,-215.19 952.78,-220.01 957.85,-224.85"/>
</g>
<!-- Node16&#45;&gt;Node5 -->
<g id="edge28" class="edge">
<title>Node16&#45;&gt;Node5</title>
<path fill="none" stroke="midnightblue" d="M568.41,-262.5C518.77,-253.82 444.07,-239.31 380.51,-221 377.87,-220.24 375.15,-219.38 372.44,-218.48"/>
<polygon fill="midnightblue" stroke="midnightblue" points="373.37,-215.1 362.77,-215.07 371.04,-221.7 373.37,-215.1"/>
</g>
<!-- Node16&#45;&gt;Node7 -->
<g id="edge26" class="edge">
<title>Node16&#45;&gt;Node7</title>
<path fill="none" stroke="midnightblue" d="M678.77,-269.46C714.07,-264.93 757.41,-252.7 780.51,-221 788.63,-209.87 785.46,-202.86 780.51,-190 751.7,-115.11 727.7,-98.3 659.51,-56 622.18,-32.84 572.66,-21.31 538.65,-15.77"/>
<polygon fill="midnightblue" stroke="midnightblue" points="539.04,-12.29 528.63,-14.24 537.98,-19.21 539.04,-12.29"/>
</g>
<!-- Node16&#45;&gt;Node8 -->
<g id="edge31" class="edge">
<title>Node16&#45;&gt;Node8</title>
<path fill="none" stroke="midnightblue" d="M582.5,-257.4C553.9,-247.56 515.54,-234.37 485.04,-223.88"/>
<polygon fill="midnightblue" stroke="midnightblue" points="486.04,-220.52 475.44,-220.58 483.76,-227.14 486.04,-220.52"/>
</g>
<!-- Node16&#45;&gt;Node9 -->
<g id="edge29" class="edge">
<title>Node16&#45;&gt;Node9</title>
<path fill="none" stroke="midnightblue" d="M573.13,-257.42C555.2,-249.71 536.9,-238.12 526.51,-221 519.36,-209.22 520.36,-202.33 526.51,-190 534.56,-173.85 550.51,-161.51 564.82,-153.07"/>
<polygon fill="midnightblue" stroke="midnightblue" points="566.82,-155.97 573.9,-148.08 563.45,-149.83 566.82,-155.97"/>
</g>
<!-- Node16&#45;&gt;Node11 -->
<g id="edge30" class="edge">
<title>Node16&#45;&gt;Node11</title>
<path fill="none" stroke="midnightblue" d="M636.88,-257.32C644.86,-247.84 654.25,-234.64 658.51,-221 673.01,-174.62 648.75,-118.44 633.84,-90.34"/>
<polygon fill="midnightblue" stroke="midnightblue" points="636.76,-88.38 628.86,-81.32 630.63,-91.77 636.76,-88.38"/>
</g>
<!-- Node17 -->
<g id="node17" class="node">
<title>Node17</title>
<g id="a_node17"><a xlink:title=" ">
<polygon fill="none" stroke="#bfbfbf" points="706.01,-196 706.01,-215 771.01,-215 771.01,-196 706.01,-196"/>
<text text-anchor="middle" x="738.51" y="-203" font-family="Helvetica,sans-Serif" font-size="10.00">exception</text>
</a>
</g>
</g>
<!-- Node16&#45;&gt;Node17 -->
<g id="edge24" class="edge">
<title>Node16&#45;&gt;Node17</title>
<path fill="none" stroke="midnightblue" d="M648.46,-257.4C668.11,-246.29 695.3,-230.92 714.66,-219.98"/>
<polygon fill="midnightblue" stroke="midnightblue" points="716.48,-222.97 723.46,-215.01 713.03,-216.88 716.48,-222.97"/>
</g>
<!-- Node18 -->
<g id="node18" class="node">
<title>Node18</title>
<g id="a_node18"><a xlink:title=" ">
<polygon fill="none" stroke="#bfbfbf" points="535.51,-196 535.51,-215 579.51,-215 579.51,-196 535.51,-196"/>
<text text-anchor="middle" x="557.51" y="-203" font-family="Helvetica,sans-Serif" font-size="10.00">string</text>
</a>
</g>
</g>
<!-- Node16&#45;&gt;Node18 -->
<g id="edge25" class="edge">
<title>Node16&#45;&gt;Node18</title>
<path fill="none" stroke="midnightblue" d="M609.19,-257.4C598.7,-247.06 584.44,-233.02 573.56,-222.31"/>
<polygon fill="midnightblue" stroke="midnightblue" points="575.92,-219.72 566.34,-215.19 571.01,-224.71 575.92,-219.72"/>
</g>
<!-- Node19 -->
<g id="node19" class="node">
<title>Node19</title>
<g id="a_node19"><a xlink:title=" ">
<polygon fill="none" stroke="#bfbfbf" points="598.01,-196 598.01,-215 649.01,-215 649.01,-196 598.01,-196"/>
<text text-anchor="middle" x="623.51" y="-203" font-family="Helvetica,sans-Serif" font-size="10.00">variant</text>
</a>
</g>
</g>
<!-- Node16&#45;&gt;Node19 -->
<g id="edge27" class="edge">
<title>Node16&#45;&gt;Node19</title>
<path fill="none" stroke="midnightblue" d="M623.51,-257.4C623.51,-248.06 623.51,-235.71 623.51,-225.52"/>
<polygon fill="midnightblue" stroke="midnightblue" points="627.01,-225.19 623.51,-215.19 620.01,-225.19 627.01,-225.19"/>
</g>
</g>
</svg>
