<?xml version="1.0" encoding="UTF-8" standalone="no"?>
<!DOCTYPE svg PUBLIC "-//W3C//DTD SVG 1.1//EN"
 "http://www.w3.org/Graphics/SVG/1.1/DTD/svg11.dtd">
<!-- Generated by graphviz version 2.43.0 (0)
 -->
<!-- Title: /home/tomek/CLionProjects/proi/proi&#45;projekt/src/tank&#45;lib/include/Entity.h Pages: 1 -->
<!--zoomable 440 -->
<svg id="main" version="1.1" xmlns="http://www.w3.org/2000/svg" xmlns:xlink="http://www.w3.org/1999/xlink" xml:space="preserve" onload="init(evt)">
<style type="text/css"><![CDATA[
.edge:hover path { stroke: red; }
.edge:hover polygon { stroke: red; fill: red; }
]]></style>
<script type="text/javascript"><![CDATA[
var edges = document.getElementsByTagName('g');
if (edges && edges.length) {
  for (var i=0;i<edges.length;i++) {
    if (edges[i].id.substr(0,4)=='edge') {
      edges[i].setAttribute('class','edge');
    }
  }
}
]]></script>
        <defs>
                <circle id="rim" cx="0" cy="0" r="7"/>
                <circle id="rim2" cx="0" cy="0" r="3.5"/>
                <g id="zoomPlus">
                        <use xlink:href="#rim" fill="#404040">
                                <set attributeName="fill" to="#808080" begin="zoomplus.mouseover" end="zoomplus.mouseout"/>
                        </use>
                        <path d="M-4,0h8M0,-4v8" fill="none" stroke="white" stroke-width="1.5" pointer-events="none"/>
                </g>
                <g id="zoomMin">
                        <use xlink:href="#rim" fill="#404040">
                                <set attributeName="fill" to="#808080" begin="zoomminus.mouseover" end="zoomminus.mouseout"/>
                        </use>
                        <path d="M-4,0h8" fill="none" stroke="white" stroke-width="1.5" pointer-events="none"/>
                </g>
                <g id="dirArrow">
                        <path fill="none" stroke="white" stroke-width="1.5" d="M0,-3.0v7 M-2.5,-0.5L0,-3.0L2.5,-0.5"/>
                </g>
               <g id="resetDef">
                       <use xlink:href="#rim2" fill="#404040">
                               <set attributeName="fill" to="#808080" begin="reset.mouseover" end="reset.mouseout"/>
                       </use>
               </g>
        </defs>

<script type="text/javascript">
var viewWidth = 1166;
var viewHeight = 440;
var sectionId = 'dynsection-0';
</script>
<script xlink:href="svgpan.js"/>
<svg id="graph" class="graph">
<g id="viewport">
<title>/home/tomek/CLionProjects/proi/proi&#45;projekt/src/tank&#45;lib/include/Entity.h</title>
<!-- Node1 -->
<g id="node1" class="node">
<title>Node1</title>
<g id="a_node1"><a xlink:title=" ">
<polygon fill="#bfbfbf" stroke="black" points="696,-390.5 696,-431.5 847,-431.5 847,-390.5 696,-390.5"/>
<text text-anchor="start" x="704" y="-419.5" font-family="Helvetica,sans-Serif" font-size="10.00">/home/tomek/CLionProjects</text>
<text text-anchor="start" x="704" y="-408.5" font-family="Helvetica,sans-Serif" font-size="10.00">/proi/proi&#45;projekt/src</text>
<text text-anchor="middle" x="771.5" y="-397.5" font-family="Helvetica,sans-Serif" font-size="10.00">/tank&#45;lib/include/Entity.h</text>
</a>
</g>
</g>
<!-- Node2 -->
<g id="node2" class="node">
<title>Node2</title>
<g id="a_node2"><a xlink:href="_entity_8cpp.html" target="_top" xlink:title=" ">
<polygon fill="none" stroke="black" points="527,-312.5 527,-353.5 678,-353.5 678,-312.5 527,-312.5"/>
<text text-anchor="start" x="535" y="-341.5" font-family="Helvetica,sans-Serif" font-size="10.00">/home/tomek/CLionProjects</text>
<text text-anchor="start" x="535" y="-330.5" font-family="Helvetica,sans-Serif" font-size="10.00">/proi/proi&#45;projekt/src</text>
<text text-anchor="middle" x="602.5" y="-319.5" font-family="Helvetica,sans-Serif" font-size="10.00">/tank&#45;lib/Entity.cpp</text>
</a>
</g>
</g>
<!-- Node1&#45;&gt;Node2 -->
<g id="edge1" class="edge">
<title>Node1&#45;&gt;Node2</title>
<path fill="none" stroke="midnightblue" d="M718.55,-386.19C695.17,-375.67 668.03,-363.47 645.87,-353.51"/>
<polygon fill="midnightblue" stroke="midnightblue" points="717.42,-389.52 727.98,-390.43 720.29,-383.13 717.42,-389.52"/>
</g>
<!-- Node3 -->
<g id="node3" class="node">
<title>Node3</title>
<g id="a_node3"><a xlink:href="_bullet_8h.html" target="_top" xlink:title=" ">
<polygon fill="none" stroke="black" points="1007,-234.5 1007,-275.5 1158,-275.5 1158,-234.5 1007,-234.5"/>
<text text-anchor="start" x="1015" y="-263.5" font-family="Helvetica,sans-Serif" font-size="10.00">/home/tomek/CLionProjects</text>
<text text-anchor="start" x="1015" y="-252.5" font-family="Helvetica,sans-Serif" font-size="10.00">/proi/proi&#45;projekt/src</text>
<text text-anchor="middle" x="1082.5" y="-241.5" font-family="Helvetica,sans-Serif" font-size="10.00">/tank&#45;lib/include/Bullet.h</text>
</a>
</g>
</g>
<!-- Node1&#45;&gt;Node3 -->
<g id="edge2" class="edge">
<title>Node1&#45;&gt;Node3</title>
<path fill="none" stroke="midnightblue" d="M819.99,-385.99C881.42,-355.57 986.1,-303.74 1042.94,-275.59"/>
<polygon fill="midnightblue" stroke="midnightblue" points="818.3,-382.92 810.89,-390.5 821.4,-389.19 818.3,-382.92"/>
</g>
<!-- Node9 -->
<g id="node9" class="node">
<title>Node9</title>
<g id="a_node9"><a xlink:href="_tank_8h.html" target="_top" xlink:title=" ">
<polygon fill="none" stroke="black" points="696,-312.5 696,-353.5 847,-353.5 847,-312.5 696,-312.5"/>
<text text-anchor="start" x="704" y="-341.5" font-family="Helvetica,sans-Serif" font-size="10.00">/home/tomek/CLionProjects</text>
<text text-anchor="start" x="704" y="-330.5" font-family="Helvetica,sans-Serif" font-size="10.00">/proi/proi&#45;projekt/src</text>
<text text-anchor="middle" x="771.5" y="-319.5" font-family="Helvetica,sans-Serif" font-size="10.00">/tank&#45;lib/include/Tank.h</text>
</a>
</g>
</g>
<!-- Node1&#45;&gt;Node9 -->
<g id="edge8" class="edge">
<title>Node1&#45;&gt;Node9</title>
<path fill="none" stroke="midnightblue" d="M771.5,-380.3C771.5,-371.3 771.5,-361.65 771.5,-353.51"/>
<polygon fill="midnightblue" stroke="midnightblue" points="768,-380.43 771.5,-390.43 775,-380.43 768,-380.43"/>
</g>
<!-- Node4 -->
<g id="node4" class="node">
<title>Node4</title>
<g id="a_node4"><a xlink:href="_board_8cpp.html" target="_top" xlink:title=" ">
<polygon fill="none" stroke="black" points="642,-78.5 642,-119.5 793,-119.5 793,-78.5 642,-78.5"/>
<text text-anchor="start" x="650" y="-107.5" font-family="Helvetica,sans-Serif" font-size="10.00">/home/tomek/CLionProjects</text>
<text text-anchor="start" x="650" y="-96.5" font-family="Helvetica,sans-Serif" font-size="10.00">/proi/proi&#45;projekt/src</text>
<text text-anchor="middle" x="717.5" y="-85.5" font-family="Helvetica,sans-Serif" font-size="10.00">/board&#45;lib/Board.cpp</text>
</a>
</g>
</g>
<!-- Node3&#45;&gt;Node4 -->
<g id="edge3" class="edge">
<title>Node3&#45;&gt;Node4</title>
<path fill="none" stroke="midnightblue" d="M1111.09,-226.79C1129.77,-205.73 1147.63,-176.76 1129.5,-156 1107.75,-131.09 906.03,-113.15 793.14,-104.96"/>
<polygon fill="midnightblue" stroke="midnightblue" points="1108.48,-224.45 1104.23,-234.16 1113.61,-229.22 1108.48,-224.45"/>
</g>
<!-- Node5 -->
<g id="node5" class="node">
<title>Node5</title>
<g id="a_node5"><a xlink:href="_active_event_handler_8cpp.html" target="_top" xlink:title=" ">
<polygon fill="none" stroke="black" points="945.5,-0.5 945.5,-41.5 1127.5,-41.5 1127.5,-0.5 945.5,-0.5"/>
<text text-anchor="start" x="953.5" y="-29.5" font-family="Helvetica,sans-Serif" font-size="10.00">/home/tomek/CLionProjects</text>
<text text-anchor="start" x="953.5" y="-18.5" font-family="Helvetica,sans-Serif" font-size="10.00">/proi/proi&#45;projekt/src</text>
<text text-anchor="middle" x="1036.5" y="-7.5" font-family="Helvetica,sans-Serif" font-size="10.00">/game&#45;lib/ActiveEventHandler.cpp</text>
</a>
</g>
</g>
<!-- Node3&#45;&gt;Node5 -->
<g id="edge4" class="edge">
<title>Node3&#45;&gt;Node5</title>
<path fill="none" stroke="midnightblue" d="M1123.03,-227.76C1132.48,-219.48 1141.3,-209.45 1146.5,-198 1154.21,-181 1152.79,-173.58 1146.5,-156 1129.46,-108.39 1087.41,-65.56 1060.52,-41.74"/>
<polygon fill="midnightblue" stroke="midnightblue" points="1120.54,-225.28 1114.99,-234.31 1124.96,-230.7 1120.54,-225.28"/>
</g>
<!-- Node6 -->
<g id="node6" class="node">
<title>Node6</title>
<g id="a_node6"><a xlink:href="_bullet_8cpp.html" target="_top" xlink:title=" ">
<polygon fill="none" stroke="black" points="969,-156.5 969,-197.5 1120,-197.5 1120,-156.5 969,-156.5"/>
<text text-anchor="start" x="977" y="-185.5" font-family="Helvetica,sans-Serif" font-size="10.00">/home/tomek/CLionProjects</text>
<text text-anchor="start" x="977" y="-174.5" font-family="Helvetica,sans-Serif" font-size="10.00">/proi/proi&#45;projekt/src</text>
<text text-anchor="middle" x="1044.5" y="-163.5" font-family="Helvetica,sans-Serif" font-size="10.00">/tank&#45;lib/Bullet.cpp</text>
</a>
</g>
</g>
<!-- Node3&#45;&gt;Node6 -->
<g id="edge5" class="edge">
<title>Node3&#45;&gt;Node6</title>
<path fill="none" stroke="midnightblue" d="M1068.23,-225.47C1063.57,-216.14 1058.5,-206.01 1054.25,-197.51"/>
<polygon fill="midnightblue" stroke="midnightblue" points="1065.11,-227.05 1072.71,-234.43 1071.37,-223.92 1065.11,-227.05"/>
</g>
<!-- Node7 -->
<g id="node7" class="node">
<title>Node7</title>
<g id="a_node7"><a xlink:href="_entity_controller_8cpp.html" target="_top" xlink:title=" ">
<polygon fill="none" stroke="black" points="587.5,-156.5 587.5,-197.5 743.5,-197.5 743.5,-156.5 587.5,-156.5"/>
<text text-anchor="start" x="595.5" y="-185.5" font-family="Helvetica,sans-Serif" font-size="10.00">/home/tomek/CLionProjects</text>
<text text-anchor="start" x="595.5" y="-174.5" font-family="Helvetica,sans-Serif" font-size="10.00">/proi/proi&#45;projekt/src</text>
<text text-anchor="middle" x="665.5" y="-163.5" font-family="Helvetica,sans-Serif" font-size="10.00">/tank&#45;lib/EntityController.cpp</text>
</a>
</g>
</g>
<!-- Node3&#45;&gt;Node7 -->
<g id="edge6" class="edge">
<title>Node3&#45;&gt;Node7</title>
<path fill="none" stroke="midnightblue" d="M996.86,-233.75C937.12,-222.09 821.79,-203.14 743.85,-190.55"/>
<polygon fill="midnightblue" stroke="midnightblue" points="996.51,-237.25 1007,-235.77 997.87,-230.38 996.51,-237.25"/>
</g>
<!-- Node8 -->
<g id="node8" class="node">
<title>Node8</title>
<g id="a_node8"><a xlink:href="_tank_8cpp.html" target="_top" xlink:title=" ">
<polygon fill="none" stroke="black" points="800,-156.5 800,-197.5 951,-197.5 951,-156.5 800,-156.5"/>
<text text-anchor="start" x="808" y="-185.5" font-family="Helvetica,sans-Serif" font-size="10.00">/home/tomek/CLionProjects</text>
<text text-anchor="start" x="808" y="-174.5" font-family="Helvetica,sans-Serif" font-size="10.00">/proi/proi&#45;projekt/src</text>
<text text-anchor="middle" x="875.5" y="-163.5" font-family="Helvetica,sans-Serif" font-size="10.00">/tank&#45;lib/Tank.cpp</text>
</a>
</g>
</g>
<!-- Node3&#45;&gt;Node8 -->
<g id="edge7" class="edge">
<title>Node3&#45;&gt;Node8</title>
<path fill="none" stroke="midnightblue" d="M1019.55,-230.89C990.49,-220.22 956.37,-207.69 928.63,-197.51"/>
<polygon fill="midnightblue" stroke="midnightblue" points="1018.6,-234.27 1029.19,-234.43 1021.01,-227.7 1018.6,-234.27"/>
</g>
<!-- Node9&#45;&gt;Node4 -->
<g id="edge9" class="edge">
<title>Node9&#45;&gt;Node4</title>
<path fill="none" stroke="midnightblue" d="M772.29,-302.14C772.34,-266.4 769.53,-205.22 752.5,-156 748,-143 740.03,-129.88 732.83,-119.61"/>
<polygon fill="midnightblue" stroke="midnightblue" points="768.79,-302.34 772.2,-312.37 775.79,-302.4 768.79,-302.34"/>
</g>
<!-- Node9&#45;&gt;Node7 -->
<g id="edge22" class="edge">
<title>Node9&#45;&gt;Node7</title>
<path fill="none" stroke="midnightblue" d="M752.2,-303.96C731.07,-273.26 697.73,-224.82 679.15,-197.83"/>
<polygon fill="midnightblue" stroke="midnightblue" points="749.52,-306.24 758.08,-312.5 755.29,-302.27 749.52,-306.24"/>
</g>
<!-- Node9&#45;&gt;Node8 -->
<g id="edge23" class="edge">
<title>Node9&#45;&gt;Node8</title>
<path fill="none" stroke="midnightblue" d="M786.89,-303.4C797.99,-283.46 813.74,-256.51 829.5,-234 838.31,-221.43 849.17,-208.12 858.12,-197.63"/>
<polygon fill="midnightblue" stroke="midnightblue" points="783.75,-301.85 781.99,-312.3 789.88,-305.23 783.75,-301.85"/>
</g>
<!-- Node10 -->
<g id="node10" class="node">
<title>Node10</title>
<g id="a_node10"><a xlink:href="_board_8h.html" target="_top" xlink:title=" ">
<polygon fill="none" stroke="black" points="380,-156.5 380,-197.5 531,-197.5 531,-156.5 380,-156.5"/>
<text text-anchor="start" x="388" y="-185.5" font-family="Helvetica,sans-Serif" font-size="10.00">/home/tomek/CLionProjects</text>
<text text-anchor="start" x="388" y="-174.5" font-family="Helvetica,sans-Serif" font-size="10.00">/proi/proi&#45;projekt/src</text>
<text text-anchor="middle" x="455.5" y="-163.5" font-family="Helvetica,sans-Serif" font-size="10.00">/board&#45;lib/include/Board.h</text>
</a>
</g>
</g>
<!-- Node9&#45;&gt;Node10 -->
<g id="edge10" class="edge">
<title>Node9&#45;&gt;Node10</title>
<path fill="none" stroke="midnightblue" d="M685.99,-311.87C601.46,-296.59 563.76,-326.8 499.5,-276 474.92,-256.57 463.65,-220.44 458.81,-197.89"/>
<polygon fill="midnightblue" stroke="midnightblue" points="685.49,-315.34 695.98,-313.85 686.85,-308.48 685.49,-315.34"/>
</g>
<!-- Node17 -->
<g id="node17" class="node">
<title>Node17</title>
<g id="a_node17"><a xlink:href="_game_state_8cpp.html" target="_top" xlink:title=" ">
<polygon fill="none" stroke="black" points="838,-234.5 838,-275.5 989,-275.5 989,-234.5 838,-234.5"/>
<text text-anchor="start" x="846" y="-263.5" font-family="Helvetica,sans-Serif" font-size="10.00">/home/tomek/CLionProjects</text>
<text text-anchor="start" x="846" y="-252.5" font-family="Helvetica,sans-Serif" font-size="10.00">/proi/proi&#45;projekt/src</text>
<text text-anchor="middle" x="913.5" y="-241.5" font-family="Helvetica,sans-Serif" font-size="10.00">/game&#45;lib/GameState.cpp</text>
</a>
</g>
</g>
<!-- Node9&#45;&gt;Node17 -->
<g id="edge21" class="edge">
<title>Node9&#45;&gt;Node17</title>
<path fill="none" stroke="midnightblue" d="M817.04,-307.63C836.44,-297.24 858.77,-285.29 877.06,-275.51"/>
<polygon fill="midnightblue" stroke="midnightblue" points="815.23,-304.62 808.07,-312.43 818.54,-310.8 815.23,-304.62"/>
</g>
<!-- Node18 -->
<g id="node18" class="node">
<title>Node18</title>
<g id="a_node18"><a xlink:href="_entity_controller_8h.html" target="_top" xlink:title=" ">
<polygon fill="none" stroke="black" points="508,-234.5 508,-275.5 691,-275.5 691,-234.5 508,-234.5"/>
<text text-anchor="start" x="516" y="-263.5" font-family="Helvetica,sans-Serif" font-size="10.00">/home/tomek/CLionProjects</text>
<text text-anchor="start" x="516" y="-252.5" font-family="Helvetica,sans-Serif" font-size="10.00">/proi/proi&#45;projekt/src</text>
<text text-anchor="middle" x="599.5" y="-241.5" font-family="Helvetica,sans-Serif" font-size="10.00">/tank&#45;lib/include/EntityController.h</text>
</a>
</g>
</g>
<!-- Node9&#45;&gt;Node18 -->
<g id="edge24" class="edge">
<title>Node9&#45;&gt;Node18</title>
<path fill="none" stroke="midnightblue" d="M717.93,-308.33C694.06,-297.78 666.29,-285.51 643.64,-275.51"/>
<polygon fill="midnightblue" stroke="midnightblue" points="716.64,-311.59 727.21,-312.43 719.47,-305.19 716.64,-311.59"/>
</g>
<!-- Node10&#45;&gt;Node4 -->
<g id="edge11" class="edge">
<title>Node10&#45;&gt;Node4</title>
<path fill="none" stroke="midnightblue" d="M532.79,-153.58C570.08,-142.76 614.38,-129.91 650.26,-119.51"/>
<polygon fill="midnightblue" stroke="midnightblue" points="531.6,-150.28 522.97,-156.43 533.55,-157 531.6,-150.28"/>
</g>
<!-- Node10&#45;&gt;Node5 -->
<g id="edge12" class="edge">
<title>Node10&#45;&gt;Node5</title>
<path fill="none" stroke="midnightblue" d="M499.19,-151.4C549.54,-123.13 626.33,-80.3 633.5,-78 762.62,-36.53 802.57,-63.31 936.5,-42 939.39,-41.54 942.31,-41.06 945.27,-40.56"/>
<polygon fill="midnightblue" stroke="midnightblue" points="497.43,-148.37 490.43,-156.32 500.86,-154.48 497.43,-148.37"/>
</g>
<!-- Node11 -->
<g id="node11" class="node">
<title>Node11</title>
<g id="a_node11"><a xlink:href="_game_8cpp.html" target="_top" xlink:title=" ">
<polygon fill="none" stroke="black" points="0,-0.5 0,-41.5 151,-41.5 151,-0.5 0,-0.5"/>
<text text-anchor="start" x="8" y="-29.5" font-family="Helvetica,sans-Serif" font-size="10.00">/home/tomek/CLionProjects</text>
<text text-anchor="start" x="8" y="-18.5" font-family="Helvetica,sans-Serif" font-size="10.00">/proi/proi&#45;projekt/src</text>
<text text-anchor="middle" x="75.5" y="-7.5" font-family="Helvetica,sans-Serif" font-size="10.00">/game&#45;lib/Game.cpp</text>
</a>
</g>
</g>
<!-- Node10&#45;&gt;Node11 -->
<g id="edge13" class="edge">
<title>Node10&#45;&gt;Node11</title>
<path fill="none" stroke="midnightblue" d="M398.09,-152.73C323.3,-122.42 193.86,-69.97 123.84,-41.59"/>
<polygon fill="midnightblue" stroke="midnightblue" points="396.79,-155.98 407.37,-156.5 399.42,-149.5 396.79,-155.98"/>
</g>
<!-- Node12 -->
<g id="node12" class="node">
<title>Node12</title>
<g id="a_node12"><a xlink:href="_game_8h.html" target="_top" xlink:title=" ">
<polygon fill="none" stroke="black" points="394,-78.5 394,-119.5 545,-119.5 545,-78.5 394,-78.5"/>
<text text-anchor="start" x="402" y="-107.5" font-family="Helvetica,sans-Serif" font-size="10.00">/home/tomek/CLionProjects</text>
<text text-anchor="start" x="402" y="-96.5" font-family="Helvetica,sans-Serif" font-size="10.00">/proi/proi&#45;projekt/src</text>
<text text-anchor="middle" x="469.5" y="-85.5" font-family="Helvetica,sans-Serif" font-size="10.00">/game&#45;lib/include/Game.h</text>
</a>
</g>
</g>
<!-- Node10&#45;&gt;Node12 -->
<g id="edge14" class="edge">
<title>Node10&#45;&gt;Node12</title>
<path fill="none" stroke="midnightblue" d="M460.92,-146.59C462.59,-137.51 464.39,-127.74 465.91,-119.51"/>
<polygon fill="midnightblue" stroke="midnightblue" points="457.47,-145.96 459.11,-156.43 464.36,-147.23 457.47,-145.96"/>
</g>
<!-- Node12&#45;&gt;Node5 -->
<g id="edge15" class="edge">
<title>Node12&#45;&gt;Node5</title>
<path fill="none" stroke="midnightblue" d="M555.25,-82.67C565.76,-80.99 576.37,-79.39 586.5,-78 741.43,-56.81 781.88,-65.36 936.5,-42 939.39,-41.56 942.32,-41.1 945.28,-40.62"/>
<polygon fill="midnightblue" stroke="midnightblue" points="554.53,-79.24 545.23,-84.3 555.66,-86.15 554.53,-79.24"/>
</g>
<!-- Node12&#45;&gt;Node11 -->
<g id="edge17" class="edge">
<title>Node12&#45;&gt;Node11</title>
<path fill="none" stroke="midnightblue" d="M383.58,-83.66C321.45,-72.99 235.58,-57.63 160.5,-42 157.53,-41.38 154.51,-40.74 151.46,-40.08"/>
<polygon fill="midnightblue" stroke="midnightblue" points="383.28,-87.16 393.73,-85.4 384.46,-80.26 383.28,-87.16"/>
</g>
<!-- Node13 -->
<g id="node13" class="node">
<title>Node13</title>
<g id="a_node13"><a xlink:href="_finished_event_handler_8cpp.html" target="_top" xlink:title=" ">
<polygon fill="none" stroke="black" points="169.5,-0.5 169.5,-41.5 361.5,-41.5 361.5,-0.5 169.5,-0.5"/>
<text text-anchor="start" x="177.5" y="-29.5" font-family="Helvetica,sans-Serif" font-size="10.00">/home/tomek/CLionProjects</text>
<text text-anchor="start" x="177.5" y="-18.5" font-family="Helvetica,sans-Serif" font-size="10.00">/proi/proi&#45;projekt/src</text>
<text text-anchor="middle" x="265.5" y="-7.5" font-family="Helvetica,sans-Serif" font-size="10.00">/game&#45;lib/FinishedEventHandler.cpp</text>
</a>
</g>
</g>
<!-- Node12&#45;&gt;Node13 -->
<g id="edge16" class="edge">
<title>Node12&#45;&gt;Node13</title>
<path fill="none" stroke="midnightblue" d="M407.46,-74.89C378.82,-64.22 345.19,-51.69 317.86,-41.51"/>
<polygon fill="midnightblue" stroke="midnightblue" points="406.37,-78.22 416.96,-78.43 408.82,-71.66 406.37,-78.22"/>
</g>
<!-- Node14 -->
<g id="node14" class="node">
<title>Node14</title>
<g id="a_node14"><a xlink:href="_menu_event_handler_8cpp.html" target="_top" xlink:title=" ">
<polygon fill="none" stroke="black" points="380,-0.5 380,-41.5 559,-41.5 559,-0.5 380,-0.5"/>
<text text-anchor="start" x="388" y="-29.5" font-family="Helvetica,sans-Serif" font-size="10.00">/home/tomek/CLionProjects</text>
<text text-anchor="start" x="388" y="-18.5" font-family="Helvetica,sans-Serif" font-size="10.00">/proi/proi&#45;projekt/src</text>
<text text-anchor="middle" x="469.5" y="-7.5" font-family="Helvetica,sans-Serif" font-size="10.00">/game&#45;lib/MenuEventHandler.cpp</text>
</a>
</g>
</g>
<!-- Node12&#45;&gt;Node14 -->
<g id="edge18" class="edge">
<title>Node12&#45;&gt;Node14</title>
<path fill="none" stroke="midnightblue" d="M469.5,-68.3C469.5,-59.3 469.5,-49.65 469.5,-41.51"/>
<polygon fill="midnightblue" stroke="midnightblue" points="466,-68.43 469.5,-78.43 473,-68.43 466,-68.43"/>
</g>
<!-- Node15 -->
<g id="node15" class="node">
<title>Node15</title>
<g id="a_node15"><a xlink:href="_pause_event_handler_8cpp.html" target="_top" xlink:title=" ">
<polygon fill="none" stroke="black" points="577.5,-0.5 577.5,-41.5 757.5,-41.5 757.5,-0.5 577.5,-0.5"/>
<text text-anchor="start" x="585.5" y="-29.5" font-family="Helvetica,sans-Serif" font-size="10.00">/home/tomek/CLionProjects</text>
<text text-anchor="start" x="585.5" y="-18.5" font-family="Helvetica,sans-Serif" font-size="10.00">/proi/proi&#45;projekt/src</text>
<text text-anchor="middle" x="667.5" y="-7.5" font-family="Helvetica,sans-Serif" font-size="10.00">/game&#45;lib/PauseEventHandler.cpp</text>
</a>
</g>
</g>
<!-- Node12&#45;&gt;Node15 -->
<g id="edge19" class="edge">
<title>Node12&#45;&gt;Node15</title>
<path fill="none" stroke="midnightblue" d="M530.08,-74.75C557.79,-64.11 590.26,-51.65 616.68,-41.51"/>
<polygon fill="midnightblue" stroke="midnightblue" points="528.57,-71.58 520.49,-78.43 531.08,-78.11 528.57,-71.58"/>
</g>
<!-- Node16 -->
<g id="node16" class="node">
<title>Node16</title>
<g id="a_node16"><a xlink:href="tanks_8cpp.html" target="_top" xlink:title=" ">
<polygon fill="none" stroke="black" points="776,-0.5 776,-41.5 927,-41.5 927,-0.5 776,-0.5"/>
<text text-anchor="start" x="784" y="-29.5" font-family="Helvetica,sans-Serif" font-size="10.00">/home/tomek/CLionProjects</text>
<text text-anchor="start" x="784" y="-18.5" font-family="Helvetica,sans-Serif" font-size="10.00">/proi/proi&#45;projekt/src</text>
<text text-anchor="middle" x="851.5" y="-7.5" font-family="Helvetica,sans-Serif" font-size="10.00">/main/tanks.cpp</text>
</a>
</g>
</g>
<!-- Node12&#45;&gt;Node16 -->
<g id="edge20" class="edge">
<title>Node12&#45;&gt;Node16</title>
<path fill="none" stroke="midnightblue" d="M555.16,-82.9C614.6,-72.16 695.53,-57.03 766.5,-42 769.61,-41.34 772.79,-40.65 776,-39.95"/>
<polygon fill="midnightblue" stroke="midnightblue" points="554.28,-79.5 545.06,-84.72 555.52,-86.39 554.28,-79.5"/>
</g>
<!-- Node18&#45;&gt;Node4 -->
<g id="edge25" class="edge">
<title>Node18&#45;&gt;Node4</title>
<path fill="none" stroke="midnightblue" d="M582.54,-225.29C572.67,-204.48 564.65,-176.51 578.5,-156 593.06,-134.44 617.45,-121.18 641.78,-113.02"/>
<polygon fill="midnightblue" stroke="midnightblue" points="579.47,-226.97 587.13,-234.29 585.7,-223.79 579.47,-226.97"/>
</g>
<!-- Node18&#45;&gt;Node7 -->
<g id="edge27" class="edge">
<title>Node18&#45;&gt;Node7</title>
<path fill="none" stroke="midnightblue" d="M623.27,-226.63C631.64,-216.99 640.87,-206.36 648.56,-197.51"/>
<polygon fill="midnightblue" stroke="midnightblue" points="620.41,-224.58 616.5,-234.43 625.7,-229.17 620.41,-224.58"/>
</g>
<!-- Node18&#45;&gt;Node10 -->
<g id="edge26" class="edge">
<title>Node18&#45;&gt;Node10</title>
<path fill="none" stroke="midnightblue" d="M553.32,-229.63C533.64,-219.24 511,-207.29 492.46,-197.51"/>
<polygon fill="midnightblue" stroke="midnightblue" points="551.94,-232.86 562.42,-234.43 555.21,-226.67 551.94,-232.86"/>
</g>
</g>
</svg>
        <g id="navigator" transform="translate(0 0)" fill="#404254">
                <rect fill="#f2f5e9" fill-opacity="0.5" stroke="#606060" stroke-width=".5" x="0" y="0" width="60" height="60"/>
                <use id="zoomplus" xlink:href="#zoomPlus" x="17" y="9" onmousedown="handleZoom(evt,'in')"/>
                <use id="zoomminus" xlink:href="#zoomMin" x="42" y="9" onmousedown="handleZoom(evt,'out')"/>
                <use id="reset" xlink:href="#resetDef" x="30" y="36" onmousedown="handleReset()"/>
                <g id="arrowUp" xlink:href="#dirArrow" transform="translate(30 24)" onmousedown="handlePan(0,-1)">
                  <use xlink:href="#rim" fill="#404040">
                        <set attributeName="fill" to="#808080" begin="arrowUp.mouseover" end="arrowUp.mouseout"/>
                  </use>
                  <path fill="none" stroke="white" stroke-width="1.5" d="M0,-3.0v7 M-2.5,-0.5L0,-3.0L2.5,-0.5"/>
                </g>
                <g id="arrowRight" xlink:href="#dirArrow" transform="rotate(90) translate(36 -43)" onmousedown="handlePan(1,0)">
                  <use xlink:href="#rim" fill="#404040">
                        <set attributeName="fill" to="#808080" begin="arrowRight.mouseover" end="arrowRight.mouseout"/>
                  </use>
                  <path fill="none" stroke="white" stroke-width="1.5" d="M0,-3.0v7 M-2.5,-0.5L0,-3.0L2.5,-0.5"/>
                </g>
                <g id="arrowDown" xlink:href="#dirArrow" transform="rotate(180) translate(-30 -48)" onmousedown="handlePan(0,1)">
                  <use xlink:href="#rim" fill="#404040">
                        <set attributeName="fill" to="#808080" begin="arrowDown.mouseover" end="arrowDown.mouseout"/>
                  </use>
                  <path fill="none" stroke="white" stroke-width="1.5" d="M0,-3.0v7 M-2.5,-0.5L0,-3.0L2.5,-0.5"/>
                </g>
                <g id="arrowLeft" xlink:href="#dirArrow" transform="rotate(270) translate(-36 17)" onmousedown="handlePan(-1,0)">
                  <use xlink:href="#rim" fill="#404040">
                        <set attributeName="fill" to="#808080" begin="arrowLeft.mouseover" end="arrowLeft.mouseout"/>
                  </use>
                  <path fill="none" stroke="white" stroke-width="1.5" d="M0,-3.0v7 M-2.5,-0.5L0,-3.0L2.5,-0.5"/>
                </g>
        </g>
        <svg viewBox="0 0 15 15" width="100%" height="30px" preserveAspectRatio="xMaxYMin meet">
         <g id="arrow_out" transform="scale(0.3 0.3)">
          <a xlink:href="_entity_8h__dep__incl_org.svg" target="_base">
           <rect id="button" ry="5" rx="5" y="6" x="6" height="38" width="38"
                fill="#f2f5e9" fill-opacity="0.5" stroke="#606060" stroke-width="1.0"/>
           <path id="arrow"
             d="M 11.500037,31.436501 C 11.940474,20.09759 22.043105,11.32322 32.158766,21.979434 L 37.068811,17.246167 C 37.068811,17.246167 37.088388,32 37.088388,32 L 22.160133,31.978069 C 22.160133,31.978069 26.997745,27.140456 26.997745,27.140456 C 18.528582,18.264221 13.291696,25.230495 11.500037,31.436501 z"
             style="fill:#404040;"/>
          </a>
         </g>
        </svg>
</svg>
