<?xml version="1.0" encoding="UTF-8" standalone="no"?>
<!DOCTYPE svg PUBLIC "-//W3C//DTD SVG 1.1//EN"
 "http://www.w3.org/Graphics/SVG/1.1/DTD/svg11.dtd">
<!-- Generated by graphviz version 2.43.0 (0)
 -->
<!-- Title: /home/tomek/CLionProjects/proi/proi&#45;projekt/src/core&#45;lib/include/Event.h Pages: 1 -->
<!--zoomable 607 -->
<svg id="main" version="1.1" xmlns="http://www.w3.org/2000/svg" xmlns:xlink="http://www.w3.org/1999/xlink" xml:space="preserve" onload="init(evt)">
<style type="text/css"><![CDATA[
.edge:hover path { stroke: red; }
.edge:hover polygon { stroke: red; fill: red; }
]]></style>
<script type="text/javascript"><![CDATA[
var edges = document.getElementsByTagName('g');
if (edges && edges.length) {
  for (var i=0;i<edges.length;i++) {
    if (edges[i].id.substr(0,4)=='edge') {
      edges[i].setAttribute('class','edge');
    }
  }
}
]]></script>
        <defs>
                <circle id="rim" cx="0" cy="0" r="7"/>
                <circle id="rim2" cx="0" cy="0" r="3.5"/>
                <g id="zoomPlus">
                        <use xlink:href="#rim" target="_top" fill="#404040">
                                <set attributeName="fill" to="#808080" begin="zoomplus.mouseover" end="zoomplus.mouseout"/>
                        </use>
                        <path d="M-4,0h8M0,-4v8" fill="none" stroke="white" stroke-width="1.5" pointer-events="none"/>
                </g>
                <g id="zoomMin">
                        <use xlink:href="#rim" target="_top" fill="#404040">
                                <set attributeName="fill" to="#808080" begin="zoomminus.mouseover" end="zoomminus.mouseout"/>
                        </use>
                        <path d="M-4,0h8" fill="none" stroke="white" stroke-width="1.5" pointer-events="none"/>
                </g>
                <g id="dirArrow">
                        <path fill="none" stroke="white" stroke-width="1.5" d="M0,-3.0v7 M-2.5,-0.5L0,-3.0L2.5,-0.5"/>
                </g>
               <g id="resetDef">
                       <use xlink:href="#rim2" target="_top" fill="#404040">
                               <set attributeName="fill" to="#808080" begin="reset.mouseover" end="reset.mouseout"/>
                       </use>
               </g>
        </defs>

<script type="text/javascript">
var viewWidth = 1547;
var viewHeight = 607;
var sectionId = 'dynsection-1';
</script>
<script xlink:href="svgpan.js" target="_top"/>
<svg id="graph" class="graph">
<g id="viewport">
<title>/home/tomek/CLionProjects/proi/proi&#45;projekt/src/core&#45;lib/include/Event.h</title>
<!-- Node1 -->
<g id="node1" class="node">
<title>Node1</title>
<g id="a_node1"><a xlink:title=" ">
<polygon fill="#bfbfbf" stroke="black" points="682,-557.5 682,-598.5 833,-598.5 833,-557.5 682,-557.5"/>
<text text-anchor="start" x="690" y="-586.5" font-family="Helvetica,sans-Serif" font-size="10.00">/home/tomek/CLionProjects</text>
<text text-anchor="start" x="690" y="-575.5" font-family="Helvetica,sans-Serif" font-size="10.00">/proi/proi&#45;projekt/src</text>
<text text-anchor="middle" x="757.5" y="-564.5" font-family="Helvetica,sans-Serif" font-size="10.00">/core&#45;lib/include/Event.h</text>
</a>
</g>
</g>
<!-- Node2 -->
<g id="node2" class="node">
<title>Node2</title>
<g id="a_node2"><a xlink:href="_board_8cpp.html" target="_top" target="_top" xlink:title=" ">
<polygon fill="none" stroke="black" points="0,-479.5 0,-520.5 151,-520.5 151,-479.5 0,-479.5"/>
<text text-anchor="start" x="8" y="-508.5" font-family="Helvetica,sans-Serif" font-size="10.00">/home/tomek/CLionProjects</text>
<text text-anchor="start" x="8" y="-497.5" font-family="Helvetica,sans-Serif" font-size="10.00">/proi/proi&#45;projekt/src</text>
<text text-anchor="middle" x="75.5" y="-486.5" font-family="Helvetica,sans-Serif" font-size="10.00">/board&#45;lib/Board.cpp</text>
</a>
</g>
</g>
<!-- Node1&#45;&gt;Node2 -->
<g id="edge1" class="edge">
<title>Node1&#45;&gt;Node2</title>
<path fill="none" stroke="midnightblue" d="M671.25,-572.73C554.58,-566.09 340.26,-550.83 159.5,-521 156.84,-520.56 154.13,-520.08 151.41,-519.58"/>
<polygon fill="midnightblue" stroke="midnightblue" points="671.36,-576.24 681.54,-573.31 671.76,-569.25 671.36,-576.24"/>
</g>
<!-- Node3 -->
<g id="node3" class="node">
<title>Node3</title>
<g id="a_node3"><a xlink:href="_grid_8cpp.html" target="_top" target="_top" xlink:title=" ">
<polygon fill="none" stroke="black" points="169,-479.5 169,-520.5 320,-520.5 320,-479.5 169,-479.5"/>
<text text-anchor="start" x="177" y="-508.5" font-family="Helvetica,sans-Serif" font-size="10.00">/home/tomek/CLionProjects</text>
<text text-anchor="start" x="177" y="-497.5" font-family="Helvetica,sans-Serif" font-size="10.00">/proi/proi&#45;projekt/src</text>
<text text-anchor="middle" x="244.5" y="-486.5" font-family="Helvetica,sans-Serif" font-size="10.00">/board&#45;lib/Grid.cpp</text>
</a>
</g>
</g>
<!-- Node1&#45;&gt;Node3 -->
<g id="edge2" class="edge">
<title>Node1&#45;&gt;Node3</title>
<path fill="none" stroke="midnightblue" d="M671.88,-568.47C585,-559.2 446.81,-542.75 328.5,-521 325.85,-520.51 323.15,-519.99 320.43,-519.45"/>
<polygon fill="midnightblue" stroke="midnightblue" points="671.65,-571.97 681.96,-569.54 672.38,-565.01 671.65,-571.97"/>
</g>
<!-- Node4 -->
<g id="node4" class="node">
<title>Node4</title>
<g id="a_node4"><a xlink:href="_event_8cpp.html" target="_top" target="_top" xlink:title=" ">
<polygon fill="none" stroke="black" points="338,-479.5 338,-520.5 489,-520.5 489,-479.5 338,-479.5"/>
<text text-anchor="start" x="346" y="-508.5" font-family="Helvetica,sans-Serif" font-size="10.00">/home/tomek/CLionProjects</text>
<text text-anchor="start" x="346" y="-497.5" font-family="Helvetica,sans-Serif" font-size="10.00">/proi/proi&#45;projekt/src</text>
<text text-anchor="middle" x="413.5" y="-486.5" font-family="Helvetica,sans-Serif" font-size="10.00">/core&#45;lib/Event.cpp</text>
</a>
</g>
</g>
<!-- Node1&#45;&gt;Node4 -->
<g id="edge3" class="edge">
<title>Node1&#45;&gt;Node4</title>
<path fill="none" stroke="midnightblue" d="M671.94,-558.17C622.67,-547.32 559.6,-533.42 503.5,-521 498.81,-519.96 493.99,-518.89 489.12,-517.81"/>
<polygon fill="midnightblue" stroke="midnightblue" points="671.4,-561.64 681.92,-560.37 672.9,-554.8 671.4,-561.64"/>
</g>
<!-- Node5 -->
<g id="node5" class="node">
<title>Node5</title>
<g id="a_node5"><a xlink:href="_event_handler_8h.html" target="_top" target="_top" xlink:title=" ">
<polygon fill="none" stroke="black" points="461.5,-323.5 461.5,-364.5 633.5,-364.5 633.5,-323.5 461.5,-323.5"/>
<text text-anchor="start" x="469.5" y="-352.5" font-family="Helvetica,sans-Serif" font-size="10.00">/home/tomek/CLionProjects</text>
<text text-anchor="start" x="469.5" y="-341.5" font-family="Helvetica,sans-Serif" font-size="10.00">/proi/proi&#45;projekt/src</text>
<text text-anchor="middle" x="547.5" y="-330.5" font-family="Helvetica,sans-Serif" font-size="10.00">/core&#45;lib/include/EventHandler.h</text>
</a>
</g>
</g>
<!-- Node1&#45;&gt;Node5 -->
<g id="edge4" class="edge">
<title>Node1&#45;&gt;Node5</title>
<path fill="none" stroke="midnightblue" d="M671.63,-566.18C616.97,-557.32 553.38,-542.69 536.5,-521 500.68,-474.97 524.26,-399.99 538.67,-364.63"/>
<polygon fill="midnightblue" stroke="midnightblue" points="671.29,-569.67 681.72,-567.76 672.38,-562.75 671.29,-569.67"/>
</g>
<!-- Node20 -->
<g id="node20" class="node">
<title>Node20</title>
<g id="a_node20"><a xlink:href="_event_publisher_8h.html" target="_top" target="_top" xlink:title=" ">
<polygon fill="none" stroke="black" points="636,-401.5 636,-442.5 815,-442.5 815,-401.5 636,-401.5"/>
<text text-anchor="start" x="644" y="-430.5" font-family="Helvetica,sans-Serif" font-size="10.00">/home/tomek/CLionProjects</text>
<text text-anchor="start" x="644" y="-419.5" font-family="Helvetica,sans-Serif" font-size="10.00">/proi/proi&#45;projekt/src</text>
<text text-anchor="middle" x="725.5" y="-408.5" font-family="Helvetica,sans-Serif" font-size="10.00">/core&#45;lib/include/EventPublisher.h</text>
</a>
</g>
</g>
<!-- Node1&#45;&gt;Node20 -->
<g id="edge36" class="edge">
<title>Node1&#45;&gt;Node20</title>
<path fill="none" stroke="midnightblue" d="M752.04,-547.35C748.39,-527.88 743.37,-501.88 738.5,-479 735.92,-466.9 732.79,-453.38 730.25,-442.66"/>
<polygon fill="midnightblue" stroke="midnightblue" points="748.65,-548.25 753.92,-557.43 755.53,-546.96 748.65,-548.25"/>
</g>
<!-- Node23 -->
<g id="node23" class="node">
<title>Node23</title>
<g id="a_node23"><a xlink:href="_event_subscriber_8h.html" target="_top" target="_top" xlink:title=" ">
<polygon fill="none" stroke="black" points="545,-479.5 545,-520.5 730,-520.5 730,-479.5 545,-479.5"/>
<text text-anchor="start" x="553" y="-508.5" font-family="Helvetica,sans-Serif" font-size="10.00">/home/tomek/CLionProjects</text>
<text text-anchor="start" x="553" y="-497.5" font-family="Helvetica,sans-Serif" font-size="10.00">/proi/proi&#45;projekt/src</text>
<text text-anchor="middle" x="637.5" y="-486.5" font-family="Helvetica,sans-Serif" font-size="10.00">/core&#45;lib/include/EventSubscriber.h</text>
</a>
</g>
</g>
<!-- Node1&#45;&gt;Node23 -->
<g id="edge40" class="edge">
<title>Node1&#45;&gt;Node23</title>
<path fill="none" stroke="midnightblue" d="M717.9,-551.92C701.77,-541.7 683.4,-530.07 668.3,-520.51"/>
<polygon fill="midnightblue" stroke="midnightblue" points="716.28,-555.03 726.6,-557.43 720.02,-549.12 716.28,-555.03"/>
</g>
<!-- Node24 -->
<g id="node24" class="node">
<title>Node24</title>
<g id="a_node24"><a xlink:href="_keyboard_controller_8cpp.html" target="_top" target="_top" xlink:title=" ">
<polygon fill="none" stroke="black" points="786,-479.5 786,-520.5 965,-520.5 965,-479.5 786,-479.5"/>
<text text-anchor="start" x="794" y="-508.5" font-family="Helvetica,sans-Serif" font-size="10.00">/home/tomek/CLionProjects</text>
<text text-anchor="start" x="794" y="-497.5" font-family="Helvetica,sans-Serif" font-size="10.00">/proi/proi&#45;projekt/src</text>
<text text-anchor="middle" x="875.5" y="-486.5" font-family="Helvetica,sans-Serif" font-size="10.00">/game&#45;lib/KeyboardController.cpp</text>
</a>
</g>
</g>
<!-- Node1&#45;&gt;Node24 -->
<g id="edge42" class="edge">
<title>Node1&#45;&gt;Node24</title>
<path fill="none" stroke="midnightblue" d="M796.44,-551.92C812.3,-541.7 830.36,-530.07 845.22,-520.51"/>
<polygon fill="midnightblue" stroke="midnightblue" points="794.4,-549.07 787.89,-557.43 798.19,-554.96 794.4,-549.07"/>
</g>
<!-- Node25 -->
<g id="node25" class="node">
<title>Node25</title>
<g id="a_node25"><a xlink:href="_menu_8cpp.html" target="_top" target="_top" xlink:title=" ">
<polygon fill="none" stroke="black" points="833,-401.5 833,-442.5 984,-442.5 984,-401.5 833,-401.5"/>
<text text-anchor="start" x="841" y="-430.5" font-family="Helvetica,sans-Serif" font-size="10.00">/home/tomek/CLionProjects</text>
<text text-anchor="start" x="841" y="-419.5" font-family="Helvetica,sans-Serif" font-size="10.00">/proi/proi&#45;projekt/src</text>
<text text-anchor="middle" x="908.5" y="-408.5" font-family="Helvetica,sans-Serif" font-size="10.00">/game&#45;lib/Menu.cpp</text>
</a>
</g>
</g>
<!-- Node1&#45;&gt;Node25 -->
<g id="edge43" class="edge">
<title>Node1&#45;&gt;Node25</title>
<path fill="none" stroke="midnightblue" d="M843.26,-565.73C896.62,-556.76 958.1,-542.17 974.5,-521 985.93,-506.24 982.34,-495.94 974.5,-479 967.68,-464.27 954.87,-452 942.33,-442.74"/>
<polygon fill="midnightblue" stroke="midnightblue" points="842.37,-562.33 833.06,-567.39 843.49,-569.24 842.37,-562.33"/>
</g>
<!-- Node26 -->
<g id="node26" class="node">
<title>Node26</title>
<g id="a_node26"><a xlink:href="_game_statistics_8h.html" target="_top" target="_top" xlink:title=" ">
<polygon fill="none" stroke="black" points="1158.5,-323.5 1158.5,-364.5 1346.5,-364.5 1346.5,-323.5 1158.5,-323.5"/>
<text text-anchor="start" x="1166.5" y="-352.5" font-family="Helvetica,sans-Serif" font-size="10.00">/home/tomek/CLionProjects</text>
<text text-anchor="start" x="1166.5" y="-341.5" font-family="Helvetica,sans-Serif" font-size="10.00">/proi/proi&#45;projekt/src</text>
<text text-anchor="middle" x="1252.5" y="-330.5" font-family="Helvetica,sans-Serif" font-size="10.00">/game&#45;lib/include/GameStatistics.h</text>
</a>
</g>
</g>
<!-- Node1&#45;&gt;Node26 -->
<g id="edge44" class="edge">
<title>Node1&#45;&gt;Node26</title>
<path fill="none" stroke="midnightblue" d="M843.5,-575.72C952.17,-572.44 1131.23,-560.92 1182.5,-521 1232.57,-482.01 1246.93,-401.77 1250.97,-364.65"/>
<polygon fill="midnightblue" stroke="midnightblue" points="843.11,-572.23 833.21,-576.02 843.31,-579.23 843.11,-572.23"/>
</g>
<!-- Node29 -->
<g id="node29" class="node">
<title>Node29</title>
<g id="a_node29"><a xlink:href="_menu_8h.html" target="_top" target="_top" xlink:title=" ">
<polygon fill="none" stroke="black" points="1022,-479.5 1022,-520.5 1173,-520.5 1173,-479.5 1022,-479.5"/>
<text text-anchor="start" x="1030" y="-508.5" font-family="Helvetica,sans-Serif" font-size="10.00">/home/tomek/CLionProjects</text>
<text text-anchor="start" x="1030" y="-497.5" font-family="Helvetica,sans-Serif" font-size="10.00">/proi/proi&#45;projekt/src</text>
<text text-anchor="middle" x="1097.5" y="-486.5" font-family="Helvetica,sans-Serif" font-size="10.00">/game&#45;lib/include/Menu.h</text>
</a>
</g>
</g>
<!-- Node1&#45;&gt;Node29 -->
<g id="edge49" class="edge">
<title>Node1&#45;&gt;Node29</title>
<path fill="none" stroke="midnightblue" d="M843.45,-557.79C898.41,-545.5 969.03,-529.72 1021.85,-517.91"/>
<polygon fill="midnightblue" stroke="midnightblue" points="842.38,-554.44 833.38,-560.04 843.9,-561.27 842.38,-554.44"/>
</g>
<!-- Node30 -->
<g id="node30" class="node">
<title>Node30</title>
<g id="a_node30"><a xlink:href="_entity_controller_8cpp.html" target="_top" target="_top" xlink:title=" ">
<polygon fill="none" stroke="black" points="1229.5,-479.5 1229.5,-520.5 1385.5,-520.5 1385.5,-479.5 1229.5,-479.5"/>
<text text-anchor="start" x="1237.5" y="-508.5" font-family="Helvetica,sans-Serif" font-size="10.00">/home/tomek/CLionProjects</text>
<text text-anchor="start" x="1237.5" y="-497.5" font-family="Helvetica,sans-Serif" font-size="10.00">/proi/proi&#45;projekt/src</text>
<text text-anchor="middle" x="1307.5" y="-486.5" font-family="Helvetica,sans-Serif" font-size="10.00">/tank&#45;lib/EntityController.cpp</text>
</a>
</g>
</g>
<!-- Node1&#45;&gt;Node30 -->
<g id="edge53" class="edge">
<title>Node1&#45;&gt;Node30</title>
<path fill="none" stroke="midnightblue" d="M843.31,-568.9C935.59,-559.63 1086.47,-542.87 1215.5,-521 1220.01,-520.24 1224.64,-519.4 1229.3,-518.51"/>
<polygon fill="midnightblue" stroke="midnightblue" points="842.78,-565.43 833.18,-569.91 843.48,-572.4 842.78,-565.43"/>
</g>
<!-- Node6 -->
<g id="node6" class="node">
<title>Node6</title>
<g id="a_node6"><a xlink:href="_event_handler_8cpp.html" target="_top" target="_top" xlink:title=" ">
<polygon fill="none" stroke="black" points="608,-240 608,-281 759,-281 759,-240 608,-240"/>
<text text-anchor="start" x="616" y="-269" font-family="Helvetica,sans-Serif" font-size="10.00">/home/tomek/CLionProjects</text>
<text text-anchor="start" x="616" y="-258" font-family="Helvetica,sans-Serif" font-size="10.00">/proi/proi&#45;projekt/src</text>
<text text-anchor="middle" x="683.5" y="-247" font-family="Helvetica,sans-Serif" font-size="10.00">/core&#45;lib/EventHandler.cpp</text>
</a>
</g>
</g>
<!-- Node5&#45;&gt;Node6 -->
<g id="edge5" class="edge">
<title>Node5&#45;&gt;Node6</title>
<path fill="none" stroke="midnightblue" d="M588.9,-318.19C608.73,-306.3 632.15,-292.27 650.72,-281.14"/>
<polygon fill="midnightblue" stroke="midnightblue" points="586.85,-315.34 580.08,-323.48 590.45,-321.34 586.85,-315.34"/>
</g>
<!-- Node7 -->
<g id="node7" class="node">
<title>Node7</title>
<g id="a_node7"><a xlink:href="_finished_event_handler_8cpp.html" target="_top" target="_top" xlink:title=" ">
<polygon fill="none" stroke="black" points="243.5,-0.5 243.5,-41.5 435.5,-41.5 435.5,-0.5 243.5,-0.5"/>
<text text-anchor="start" x="251.5" y="-29.5" font-family="Helvetica,sans-Serif" font-size="10.00">/home/tomek/CLionProjects</text>
<text text-anchor="start" x="251.5" y="-18.5" font-family="Helvetica,sans-Serif" font-size="10.00">/proi/proi&#45;projekt/src</text>
<text text-anchor="middle" x="339.5" y="-7.5" font-family="Helvetica,sans-Serif" font-size="10.00">/game&#45;lib/FinishedEventHandler.cpp</text>
</a>
</g>
</g>
<!-- Node5&#45;&gt;Node7 -->
<g id="edge6" class="edge">
<title>Node5&#45;&gt;Node7</title>
<path fill="none" stroke="midnightblue" d="M451.64,-326.71C408.28,-317.24 363.78,-303.84 350.5,-287 292.48,-213.42 319.75,-89.37 333.38,-41.58"/>
<polygon fill="midnightblue" stroke="midnightblue" points="450.93,-330.14 461.44,-328.79 452.38,-323.29 450.93,-330.14"/>
</g>
<!-- Node8 -->
<g id="node8" class="node">
<title>Node8</title>
<g id="a_node8"><a xlink:href="_menu_event_handler_8cpp.html" target="_top" target="_top" xlink:title=" ">
<polygon fill="none" stroke="black" points="821,-0.5 821,-41.5 1000,-41.5 1000,-0.5 821,-0.5"/>
<text text-anchor="start" x="829" y="-29.5" font-family="Helvetica,sans-Serif" font-size="10.00">/home/tomek/CLionProjects</text>
<text text-anchor="start" x="829" y="-18.5" font-family="Helvetica,sans-Serif" font-size="10.00">/proi/proi&#45;projekt/src</text>
<text text-anchor="middle" x="910.5" y="-7.5" font-family="Helvetica,sans-Serif" font-size="10.00">/game&#45;lib/MenuEventHandler.cpp</text>
</a>
</g>
</g>
<!-- Node5&#45;&gt;Node8 -->
<g id="edge7" class="edge">
<title>Node5&#45;&gt;Node8</title>
<path fill="none" stroke="midnightblue" d="M643.91,-323.26C723.37,-316.56 1041.63,-320.57 1072.5,-287 1126.35,-228.45 1053.23,-146.86 992.5,-78 979.84,-63.65 962.75,-51.21 947.44,-41.73"/>
<polygon fill="midnightblue" stroke="midnightblue" points="643.19,-319.82 633.63,-324.38 643.95,-326.77 643.19,-319.82"/>
</g>
<!-- Node9 -->
<g id="node9" class="node">
<title>Node9</title>
<g id="a_node9"><a xlink:href="_pause_event_handler_8cpp.html" target="_top" target="_top" xlink:title=" ">
<polygon fill="none" stroke="black" points="453.5,-0.5 453.5,-41.5 633.5,-41.5 633.5,-0.5 453.5,-0.5"/>
<text text-anchor="start" x="461.5" y="-29.5" font-family="Helvetica,sans-Serif" font-size="10.00">/home/tomek/CLionProjects</text>
<text text-anchor="start" x="461.5" y="-18.5" font-family="Helvetica,sans-Serif" font-size="10.00">/proi/proi&#45;projekt/src</text>
<text text-anchor="middle" x="543.5" y="-7.5" font-family="Helvetica,sans-Serif" font-size="10.00">/game&#45;lib/PauseEventHandler.cpp</text>
</a>
</g>
</g>
<!-- Node5&#45;&gt;Node9 -->
<g id="edge8" class="edge">
<title>Node5&#45;&gt;Node9</title>
<path fill="none" stroke="midnightblue" d="M451.57,-335.43C419.98,-327.82 387.99,-313.51 368.5,-287 326.63,-230.04 384.93,-125.49 428.5,-78 443.06,-62.13 463.1,-50.24 482.37,-41.6"/>
<polygon fill="midnightblue" stroke="midnightblue" points="450.82,-338.85 461.34,-337.58 452.33,-332.01 450.82,-338.85"/>
</g>
<!-- Node10 -->
<g id="node10" class="node">
<title>Node10</title>
<g id="a_node10"><a xlink:href="_active_event_handler_8h.html" target="_top" target="_top" xlink:title=" ">
<polygon fill="none" stroke="black" points="854,-240 854,-281 1063,-281 1063,-240 854,-240"/>
<text text-anchor="start" x="862" y="-269" font-family="Helvetica,sans-Serif" font-size="10.00">/home/tomek/CLionProjects</text>
<text text-anchor="start" x="862" y="-258" font-family="Helvetica,sans-Serif" font-size="10.00">/proi/proi&#45;projekt/src</text>
<text text-anchor="middle" x="958.5" y="-247" font-family="Helvetica,sans-Serif" font-size="10.00">/game&#45;lib/include/ActiveEventHandler.h</text>
</a>
</g>
</g>
<!-- Node5&#45;&gt;Node10 -->
<g id="edge9" class="edge">
<title>Node5&#45;&gt;Node10</title>
<path fill="none" stroke="midnightblue" d="M643.57,-322.82C731.49,-305.71 755.27,-303.72 839.5,-287 849.03,-285.11 858.98,-283.07 868.89,-281.01"/>
<polygon fill="midnightblue" stroke="midnightblue" points="642.83,-319.39 633.69,-324.75 644.18,-326.26 642.83,-319.39"/>
</g>
<!-- Node17 -->
<g id="node17" class="node">
<title>Node17</title>
<g id="a_node17"><a xlink:href="_menu_event_handler_8h.html" target="_top" target="_top" xlink:title=" ">
<polygon fill="none" stroke="black" points="755.5,-78.5 755.5,-119.5 961.5,-119.5 961.5,-78.5 755.5,-78.5"/>
<text text-anchor="start" x="763.5" y="-107.5" font-family="Helvetica,sans-Serif" font-size="10.00">/home/tomek/CLionProjects</text>
<text text-anchor="start" x="763.5" y="-96.5" font-family="Helvetica,sans-Serif" font-size="10.00">/proi/proi&#45;projekt/src</text>
<text text-anchor="middle" x="858.5" y="-85.5" font-family="Helvetica,sans-Serif" font-size="10.00">/game&#45;lib/include/MenuEventHandler.h</text>
</a>
</g>
</g>
<!-- Node5&#45;&gt;Node17 -->
<g id="edge34" class="edge">
<title>Node5&#45;&gt;Node17</title>
<path fill="none" stroke="midnightblue" d="M643.53,-322.54C698.34,-310.18 758.17,-295.27 768.5,-287 823.19,-243.19 846.73,-158 854.88,-119.61"/>
<polygon fill="midnightblue" stroke="midnightblue" points="642.72,-319.13 633.72,-324.73 644.25,-325.96 642.72,-319.13"/>
</g>
<!-- Node18 -->
<g id="node18" class="node">
<title>Node18</title>
<g id="a_node18"><a xlink:href="_pause_event_handler_8h.html" target="_top" target="_top" xlink:title=" ">
<polygon fill="none" stroke="black" points="492,-78.5 492,-119.5 699,-119.5 699,-78.5 492,-78.5"/>
<text text-anchor="start" x="500" y="-107.5" font-family="Helvetica,sans-Serif" font-size="10.00">/home/tomek/CLionProjects</text>
<text text-anchor="start" x="500" y="-96.5" font-family="Helvetica,sans-Serif" font-size="10.00">/proi/proi&#45;projekt/src</text>
<text text-anchor="middle" x="595.5" y="-85.5" font-family="Helvetica,sans-Serif" font-size="10.00">/game&#45;lib/include/PauseEventHandler.h</text>
</a>
</g>
</g>
<!-- Node5&#45;&gt;Node18 -->
<g id="edge35" class="edge">
<title>Node5&#45;&gt;Node18</title>
<path fill="none" stroke="midnightblue" d="M553.96,-313.43C555.79,-304.9 557.75,-295.59 559.5,-287 571.89,-226.09 585.5,-153.79 591.85,-119.68"/>
<polygon fill="midnightblue" stroke="midnightblue" points="550.51,-312.81 551.82,-323.32 557.35,-314.29 550.51,-312.81"/>
</g>
<!-- Node19 -->
<g id="node19" class="node">
<title>Node19</title>
<g id="a_node19"><a xlink:href="_finished_event_handler_8h.html" target="_top" target="_top" xlink:title=" ">
<polygon fill="none" stroke="black" points="378,-234.5 378,-286.5 551,-286.5 551,-234.5 378,-234.5"/>
<text text-anchor="start" x="386" y="-274.5" font-family="Helvetica,sans-Serif" font-size="10.00">/home/tomek/CLionProjects</text>
<text text-anchor="start" x="386" y="-263.5" font-family="Helvetica,sans-Serif" font-size="10.00">/proi/proi&#45;projekt/src</text>
<text text-anchor="start" x="386" y="-252.5" font-family="Helvetica,sans-Serif" font-size="10.00">/game&#45;lib/include/FinishedEvent</text>
<text text-anchor="middle" x="464.5" y="-241.5" font-family="Helvetica,sans-Serif" font-size="10.00">Handler.h</text>
</a>
</g>
</g>
<!-- Node5&#45;&gt;Node19 -->
<g id="edge30" class="edge">
<title>Node5&#45;&gt;Node19</title>
<path fill="none" stroke="midnightblue" d="M520.25,-316.24C510.54,-306.71 499.64,-296 490.07,-286.61"/>
<polygon fill="midnightblue" stroke="midnightblue" points="517.82,-318.76 527.41,-323.27 522.72,-313.77 517.82,-318.76"/>
</g>
<!-- Node11 -->
<g id="node11" class="node">
<title>Node11</title>
<g id="a_node11"><a xlink:href="_active_event_handler_8cpp.html" target="_top" target="_top" xlink:title=" ">
<polygon fill="none" stroke="black" points="1187.5,-0.5 1187.5,-41.5 1369.5,-41.5 1369.5,-0.5 1187.5,-0.5"/>
<text text-anchor="start" x="1195.5" y="-29.5" font-family="Helvetica,sans-Serif" font-size="10.00">/home/tomek/CLionProjects</text>
<text text-anchor="start" x="1195.5" y="-18.5" font-family="Helvetica,sans-Serif" font-size="10.00">/proi/proi&#45;projekt/src</text>
<text text-anchor="middle" x="1278.5" y="-7.5" font-family="Helvetica,sans-Serif" font-size="10.00">/game&#45;lib/ActiveEventHandler.cpp</text>
</a>
</g>
</g>
<!-- Node10&#45;&gt;Node11 -->
<g id="edge10" class="edge">
<title>Node10&#45;&gt;Node11</title>
<path fill="none" stroke="midnightblue" d="M1021.6,-236.13C1077.62,-213.05 1159.24,-173.47 1216.5,-120 1240.78,-97.33 1259.52,-63.17 1269.77,-41.75"/>
<polygon fill="midnightblue" stroke="midnightblue" points="1020.1,-232.97 1012.15,-239.97 1022.73,-239.45 1020.1,-232.97"/>
</g>
<!-- Node12 -->
<g id="node12" class="node">
<title>Node12</title>
<g id="a_node12"><a xlink:href="_game_state_8cpp.html" target="_top" target="_top" xlink:title=" ">
<polygon fill="none" stroke="black" points="652,-0.5 652,-41.5 803,-41.5 803,-0.5 652,-0.5"/>
<text text-anchor="start" x="660" y="-29.5" font-family="Helvetica,sans-Serif" font-size="10.00">/home/tomek/CLionProjects</text>
<text text-anchor="start" x="660" y="-18.5" font-family="Helvetica,sans-Serif" font-size="10.00">/proi/proi&#45;projekt/src</text>
<text text-anchor="middle" x="727.5" y="-7.5" font-family="Helvetica,sans-Serif" font-size="10.00">/game&#45;lib/GameState.cpp</text>
</a>
</g>
</g>
<!-- Node10&#45;&gt;Node12 -->
<g id="edge11" class="edge">
<title>Node10&#45;&gt;Node12</title>
<path fill="none" stroke="midnightblue" d="M971.4,-230.24C986.46,-191.07 1005.19,-121.49 970.5,-78 925.58,-21.7 882.67,-58.25 812.5,-42 809.4,-41.28 806.23,-40.55 803.04,-39.8"/>
<polygon fill="midnightblue" stroke="midnightblue" points="968.06,-229.16 967.58,-239.74 974.56,-231.77 968.06,-229.16"/>
</g>
<!-- Node13 -->
<g id="node13" class="node">
<title>Node13</title>
<g id="a_node13"><a xlink:href="_game_state_8h.html" target="_top" target="_top" xlink:title=" ">
<polygon fill="none" stroke="black" points="636.5,-156.5 636.5,-197.5 804.5,-197.5 804.5,-156.5 636.5,-156.5"/>
<text text-anchor="start" x="644.5" y="-185.5" font-family="Helvetica,sans-Serif" font-size="10.00">/home/tomek/CLionProjects</text>
<text text-anchor="start" x="644.5" y="-174.5" font-family="Helvetica,sans-Serif" font-size="10.00">/proi/proi&#45;projekt/src</text>
<text text-anchor="middle" x="720.5" y="-163.5" font-family="Helvetica,sans-Serif" font-size="10.00">/game&#45;lib/include/GameState.h</text>
</a>
</g>
</g>
<!-- Node10&#45;&gt;Node13 -->
<g id="edge12" class="edge">
<title>Node10&#45;&gt;Node13</title>
<path fill="none" stroke="midnightblue" d="M891.58,-236.58C855.62,-224.27 811.76,-209.25 777.45,-197.5"/>
<polygon fill="midnightblue" stroke="midnightblue" points="890.9,-240.05 901.49,-239.98 893.17,-233.43 890.9,-240.05"/>
</g>
<!-- Node13&#45;&gt;Node12 -->
<g id="edge14" class="edge">
<title>Node13&#45;&gt;Node12</title>
<path fill="none" stroke="midnightblue" d="M721.85,-146.36C723.25,-115.61 725.39,-68.36 726.6,-41.83"/>
<polygon fill="midnightblue" stroke="midnightblue" points="718.34,-146.35 721.39,-156.5 725.34,-146.67 718.34,-146.35"/>
</g>
<!-- Node14 -->
<g id="node14" class="node">
<title>Node14</title>
<g id="a_node14"><a xlink:href="_game_8cpp.html" target="_top" target="_top" xlink:title=" ">
<polygon fill="none" stroke="black" points="1388,-0.5 1388,-41.5 1539,-41.5 1539,-0.5 1388,-0.5"/>
<text text-anchor="start" x="1396" y="-29.5" font-family="Helvetica,sans-Serif" font-size="10.00">/home/tomek/CLionProjects</text>
<text text-anchor="start" x="1396" y="-18.5" font-family="Helvetica,sans-Serif" font-size="10.00">/proi/proi&#45;projekt/src</text>
<text text-anchor="middle" x="1463.5" y="-7.5" font-family="Helvetica,sans-Serif" font-size="10.00">/game&#45;lib/Game.cpp</text>
</a>
</g>
</g>
<!-- Node13&#45;&gt;Node14 -->
<g id="edge13" class="edge">
<title>Node13&#45;&gt;Node14</title>
<path fill="none" stroke="midnightblue" d="M814.79,-172.78C915.56,-167.63 1079.34,-154.3 1216.5,-120 1292.36,-101.03 1376.05,-64.22 1423.94,-41.51"/>
<polygon fill="midnightblue" stroke="midnightblue" points="814.45,-169.29 804.63,-173.28 814.8,-176.28 814.45,-169.29"/>
</g>
<!-- Node15 -->
<g id="node15" class="node">
<title>Node15</title>
<g id="a_node15"><a xlink:href="_game_8h.html" target="_top" target="_top" xlink:title=" ">
<polygon fill="none" stroke="black" points="1056,-78.5 1056,-119.5 1207,-119.5 1207,-78.5 1056,-78.5"/>
<text text-anchor="start" x="1064" y="-107.5" font-family="Helvetica,sans-Serif" font-size="10.00">/home/tomek/CLionProjects</text>
<text text-anchor="start" x="1064" y="-96.5" font-family="Helvetica,sans-Serif" font-size="10.00">/proi/proi&#45;projekt/src</text>
<text text-anchor="middle" x="1131.5" y="-85.5" font-family="Helvetica,sans-Serif" font-size="10.00">/game&#45;lib/include/Game.h</text>
</a>
</g>
</g>
<!-- Node13&#45;&gt;Node15 -->
<g id="edge15" class="edge">
<title>Node13&#45;&gt;Node15</title>
<path fill="none" stroke="midnightblue" d="M814.79,-158.56C887.88,-145.05 987.82,-126.57 1055.75,-114.01"/>
<polygon fill="midnightblue" stroke="midnightblue" points="813.86,-155.18 804.66,-160.44 815.13,-162.06 813.86,-155.18"/>
</g>
<!-- Node13&#45;&gt;Node17 -->
<g id="edge22" class="edge">
<title>Node13&#45;&gt;Node17</title>
<path fill="none" stroke="midnightblue" d="M759.15,-151.2C777.22,-140.92 798.7,-129.16 817.1,-119.51"/>
<polygon fill="midnightblue" stroke="midnightblue" points="756.98,-148.41 750.05,-156.43 760.47,-154.48 756.98,-148.41"/>
</g>
<!-- Node13&#45;&gt;Node18 -->
<g id="edge26" class="edge">
<title>Node13&#45;&gt;Node18</title>
<path fill="none" stroke="midnightblue" d="M673.34,-151.2C655.82,-140.92 636.61,-129.16 621.6,-119.51"/>
<polygon fill="midnightblue" stroke="midnightblue" points="671.92,-154.42 682.32,-156.43 675.44,-148.37 671.92,-154.42"/>
</g>
<!-- Node15&#45;&gt;Node7 -->
<g id="edge17" class="edge">
<title>Node15&#45;&gt;Node7</title>
<path fill="none" stroke="midnightblue" d="M1045.91,-86.48C1021.57,-83.44 995.02,-80.36 970.5,-78 737.25,-55.55 676.9,-71.98 444.5,-42 441.56,-41.62 438.57,-41.21 435.56,-40.77"/>
<polygon fill="midnightblue" stroke="midnightblue" points="1045.48,-89.95 1055.84,-87.73 1046.35,-83 1045.48,-89.95"/>
</g>
<!-- Node15&#45;&gt;Node8 -->
<g id="edge19" class="edge">
<title>Node15&#45;&gt;Node8</title>
<path fill="none" stroke="midnightblue" d="M1065.1,-75.17C1033.9,-64.44 997.09,-51.78 967.22,-41.51"/>
<polygon fill="midnightblue" stroke="midnightblue" points="1063.99,-78.49 1074.59,-78.43 1066.27,-71.87 1063.99,-78.49"/>
</g>
<!-- Node15&#45;&gt;Node9 -->
<g id="edge20" class="edge">
<title>Node15&#45;&gt;Node9</title>
<path fill="none" stroke="midnightblue" d="M1045.84,-87.13C1021.5,-84.11 994.96,-80.87 970.5,-78 825.28,-60.99 787.99,-64.36 643.5,-42 640.26,-41.5 636.97,-40.97 633.65,-40.41"/>
<polygon fill="midnightblue" stroke="midnightblue" points="1045.41,-90.61 1055.77,-88.37 1046.28,-83.66 1045.41,-90.61"/>
</g>
<!-- Node15&#45;&gt;Node11 -->
<g id="edge16" class="edge">
<title>Node15&#45;&gt;Node11</title>
<path fill="none" stroke="midnightblue" d="M1178.37,-73.77C1198.52,-63.35 1221.76,-51.34 1240.77,-41.51"/>
<polygon fill="midnightblue" stroke="midnightblue" points="1176.63,-70.73 1169.36,-78.43 1179.85,-76.94 1176.63,-70.73"/>
</g>
<!-- Node15&#45;&gt;Node14 -->
<g id="edge18" class="edge">
<title>Node15&#45;&gt;Node14</title>
<path fill="none" stroke="midnightblue" d="M1217.16,-78.76C1264.71,-68.03 1324.9,-54.38 1378.5,-42 1381.6,-41.28 1384.77,-40.55 1387.96,-39.81"/>
<polygon fill="midnightblue" stroke="midnightblue" points="1216.19,-75.39 1207.21,-81 1217.73,-82.22 1216.19,-75.39"/>
</g>
<!-- Node16 -->
<g id="node16" class="node">
<title>Node16</title>
<g id="a_node16"><a xlink:href="tanks_8cpp.html" target="_top" target="_top" xlink:title=" ">
<polygon fill="none" stroke="black" points="1018,-0.5 1018,-41.5 1169,-41.5 1169,-0.5 1018,-0.5"/>
<text text-anchor="start" x="1026" y="-29.5" font-family="Helvetica,sans-Serif" font-size="10.00">/home/tomek/CLionProjects</text>
<text text-anchor="start" x="1026" y="-18.5" font-family="Helvetica,sans-Serif" font-size="10.00">/proi/proi&#45;projekt/src</text>
<text text-anchor="middle" x="1093.5" y="-7.5" font-family="Helvetica,sans-Serif" font-size="10.00">/main/tanks.cpp</text>
</a>
</g>
</g>
<!-- Node15&#45;&gt;Node16 -->
<g id="edge21" class="edge">
<title>Node15&#45;&gt;Node16</title>
<path fill="none" stroke="midnightblue" d="M1117.23,-69.47C1112.57,-60.14 1107.5,-50.01 1103.25,-41.51"/>
<polygon fill="midnightblue" stroke="midnightblue" points="1114.11,-71.05 1121.71,-78.43 1120.37,-67.92 1114.11,-71.05"/>
</g>
<!-- Node17&#45;&gt;Node8 -->
<g id="edge24" class="edge">
<title>Node17&#45;&gt;Node8</title>
<path fill="none" stroke="midnightblue" d="M877.63,-70.05C884.11,-60.57 891.22,-50.18 897.15,-41.51"/>
<polygon fill="midnightblue" stroke="midnightblue" points="874.65,-68.2 871.89,-78.43 880.43,-72.15 874.65,-68.2"/>
</g>
<!-- Node17&#45;&gt;Node12 -->
<g id="edge23" class="edge">
<title>Node17&#45;&gt;Node12</title>
<path fill="none" stroke="midnightblue" d="M815.76,-73.2C798.03,-62.92 777.76,-51.16 761.12,-41.51"/>
<polygon fill="midnightblue" stroke="midnightblue" points="814.36,-76.44 824.76,-78.43 817.87,-70.38 814.36,-76.44"/>
</g>
<!-- Node17&#45;&gt;Node13 -->
<g id="edge25" class="edge">
<title>Node17&#45;&gt;Node13</title>
<path fill="none" stroke="midnightblue" d="M819.97,-124.73C801.92,-135.01 780.44,-146.77 762.03,-156.43"/>
<polygon fill="midnightblue" stroke="midnightblue" points="822.14,-127.52 829.06,-119.51 818.65,-121.45 822.14,-127.52"/>
</g>
<!-- Node18&#45;&gt;Node9 -->
<g id="edge28" class="edge">
<title>Node18&#45;&gt;Node9</title>
<path fill="none" stroke="midnightblue" d="M576.37,-70.05C569.89,-60.57 562.78,-50.18 556.85,-41.51"/>
<polygon fill="midnightblue" stroke="midnightblue" points="573.57,-72.15 582.11,-78.43 579.35,-68.2 573.57,-72.15"/>
</g>
<!-- Node18&#45;&gt;Node12 -->
<g id="edge27" class="edge">
<title>Node18&#45;&gt;Node12</title>
<path fill="none" stroke="midnightblue" d="M638.57,-73.2C656.43,-62.92 676.86,-51.16 693.62,-41.51"/>
<polygon fill="midnightblue" stroke="midnightblue" points="636.41,-70.41 629.49,-78.43 639.91,-76.47 636.41,-70.41"/>
</g>
<!-- Node18&#45;&gt;Node13 -->
<g id="edge29" class="edge">
<title>Node18&#45;&gt;Node13</title>
<path fill="none" stroke="midnightblue" d="M642.54,-124.73C660.06,-135.01 679.27,-146.77 694.3,-156.43"/>
<polygon fill="midnightblue" stroke="midnightblue" points="643.97,-121.51 633.56,-119.51 640.45,-127.56 643.97,-121.51"/>
</g>
<!-- Node19&#45;&gt;Node7 -->
<g id="edge31" class="edge">
<title>Node19&#45;&gt;Node7</title>
<path fill="none" stroke="midnightblue" d="M432.91,-226.79C425.29,-217.89 417.6,-207.95 411.5,-198 379.16,-145.22 355.57,-75.34 345.26,-41.72"/>
<polygon fill="midnightblue" stroke="midnightblue" points="430.31,-229.13 439.55,-234.32 435.56,-224.5 430.31,-229.13"/>
</g>
<!-- Node19&#45;&gt;Node12 -->
<g id="edge32" class="edge">
<title>Node19&#45;&gt;Node12</title>
<path fill="none" stroke="midnightblue" d="M448.67,-225.15C432.84,-185.08 415.34,-119.12 449.5,-78 477.38,-44.44 599.81,-51 642.5,-42 645.62,-41.34 648.79,-40.66 652,-39.96"/>
<polygon fill="midnightblue" stroke="midnightblue" points="445.47,-226.58 452.52,-234.5 451.95,-223.92 445.47,-226.58"/>
</g>
<!-- Node19&#45;&gt;Node13 -->
<g id="edge33" class="edge">
<title>Node19&#45;&gt;Node13</title>
<path fill="none" stroke="midnightblue" d="M552.81,-231.39C587.87,-220.22 627.34,-207.66 659.17,-197.52"/>
<polygon fill="midnightblue" stroke="midnightblue" points="551.52,-228.12 543.05,-234.49 553.64,-234.79 551.52,-228.12"/>
</g>
<!-- Node20&#45;&gt;Node5 -->
<g id="edge39" class="edge">
<title>Node20&#45;&gt;Node5</title>
<path fill="none" stroke="midnightblue" d="M670.39,-397.47C645.62,-386.89 616.73,-374.56 593.18,-364.51"/>
<polygon fill="midnightblue" stroke="midnightblue" points="669.09,-400.72 679.66,-401.43 671.84,-394.28 669.09,-400.72"/>
</g>
<!-- Node21 -->
<g id="node21" class="node">
<title>Node21</title>
<g id="a_node21"><a xlink:href="_event_publisher_8cpp.html" target="_top" target="_top" xlink:title=" ">
<polygon fill="none" stroke="black" points="651.5,-323.5 651.5,-364.5 803.5,-364.5 803.5,-323.5 651.5,-323.5"/>
<text text-anchor="start" x="659.5" y="-352.5" font-family="Helvetica,sans-Serif" font-size="10.00">/home/tomek/CLionProjects</text>
<text text-anchor="start" x="659.5" y="-341.5" font-family="Helvetica,sans-Serif" font-size="10.00">/proi/proi&#45;projekt/src</text>
<text text-anchor="middle" x="727.5" y="-330.5" font-family="Helvetica,sans-Serif" font-size="10.00">/core&#45;lib/EventPublisher.cpp</text>
</a>
</g>
</g>
<!-- Node20&#45;&gt;Node21 -->
<g id="edge37" class="edge">
<title>Node20&#45;&gt;Node21</title>
<path fill="none" stroke="midnightblue" d="M726.28,-391.3C726.52,-382.3 726.77,-372.65 726.99,-364.51"/>
<polygon fill="midnightblue" stroke="midnightblue" points="722.78,-391.34 726.02,-401.43 729.78,-391.52 722.78,-391.34"/>
</g>
<!-- Node22 -->
<g id="node22" class="node">
<title>Node22</title>
<g id="a_node22"><a xlink:href="_event_subscriber_8cpp.html" target="_top" target="_top" xlink:title=" ">
<polygon fill="none" stroke="black" points="821.5,-323.5 821.5,-364.5 979.5,-364.5 979.5,-323.5 821.5,-323.5"/>
<text text-anchor="start" x="829.5" y="-352.5" font-family="Helvetica,sans-Serif" font-size="10.00">/home/tomek/CLionProjects</text>
<text text-anchor="start" x="829.5" y="-341.5" font-family="Helvetica,sans-Serif" font-size="10.00">/proi/proi&#45;projekt/src</text>
<text text-anchor="middle" x="900.5" y="-330.5" font-family="Helvetica,sans-Serif" font-size="10.00">/core&#45;lib/EventSubscriber.cpp</text>
</a>
</g>
</g>
<!-- Node20&#45;&gt;Node22 -->
<g id="edge38" class="edge">
<title>Node20&#45;&gt;Node22</title>
<path fill="none" stroke="midnightblue" d="M780.01,-397.33C804.29,-386.78 832.54,-374.51 855.59,-364.51"/>
<polygon fill="midnightblue" stroke="midnightblue" points="778.35,-394.23 770.57,-401.43 781.13,-400.65 778.35,-394.23"/>
</g>
<!-- Node23&#45;&gt;Node20 -->
<g id="edge41" class="edge">
<title>Node23&#45;&gt;Node20</title>
<path fill="none" stroke="midnightblue" d="M667.86,-472.78C679.37,-462.84 692.25,-451.72 702.91,-442.51"/>
<polygon fill="midnightblue" stroke="midnightblue" points="665.44,-470.24 660.16,-479.43 670.02,-475.54 665.44,-470.24"/>
</g>
<!-- Node26&#45;&gt;Node10 -->
<g id="edge48" class="edge">
<title>Node26&#45;&gt;Node10</title>
<path fill="none" stroke="midnightblue" d="M1172.38,-320.79C1127.5,-308.35 1072.05,-292.98 1028.85,-281"/>
<polygon fill="midnightblue" stroke="midnightblue" points="1171.51,-324.18 1182.08,-323.48 1173.38,-317.43 1171.51,-324.18"/>
</g>
<!-- Node26&#45;&gt;Node14 -->
<g id="edge45" class="edge">
<title>Node26&#45;&gt;Node14</title>
<path fill="none" stroke="midnightblue" d="M1356.9,-332.24C1415.52,-323.8 1480.45,-309.61 1498.5,-287 1557.4,-213.18 1500.54,-89.27 1474.74,-41.55"/>
<polygon fill="midnightblue" stroke="midnightblue" points="1356.22,-328.8 1346.8,-333.64 1357.19,-335.73 1356.22,-328.8"/>
</g>
<!-- Node27 -->
<g id="node27" class="node">
<title>Node27</title>
<g id="a_node27"><a xlink:href="_game_statistics_8cpp.html" target="_top" target="_top" xlink:title=" ">
<polygon fill="none" stroke="black" points="1159,-240 1159,-281 1320,-281 1320,-240 1159,-240"/>
<text text-anchor="start" x="1167" y="-269" font-family="Helvetica,sans-Serif" font-size="10.00">/home/tomek/CLionProjects</text>
<text text-anchor="start" x="1167" y="-258" font-family="Helvetica,sans-Serif" font-size="10.00">/proi/proi&#45;projekt/src</text>
<text text-anchor="middle" x="1239.5" y="-247" font-family="Helvetica,sans-Serif" font-size="10.00">/game&#45;lib/GameStatistics.cpp</text>
</a>
</g>
</g>
<!-- Node26&#45;&gt;Node27 -->
<g id="edge46" class="edge">
<title>Node26&#45;&gt;Node27</title>
<path fill="none" stroke="midnightblue" d="M1247.73,-313.06C1246.02,-302.38 1244.15,-290.63 1242.62,-281.05"/>
<polygon fill="midnightblue" stroke="midnightblue" points="1244.32,-313.95 1249.35,-323.27 1251.23,-312.84 1244.32,-313.95"/>
</g>
<!-- Node28 -->
<g id="node28" class="node">
<title>Node28</title>
<g id="a_node28"><a xlink:href="_game_stats_i_o_8cpp.html" target="_top" target="_top" xlink:title=" ">
<polygon fill="none" stroke="black" points="1338,-240 1338,-281 1489,-281 1489,-240 1338,-240"/>
<text text-anchor="start" x="1346" y="-269" font-family="Helvetica,sans-Serif" font-size="10.00">/home/tomek/CLionProjects</text>
<text text-anchor="start" x="1346" y="-258" font-family="Helvetica,sans-Serif" font-size="10.00">/proi/proi&#45;projekt/src</text>
<text text-anchor="middle" x="1413.5" y="-247" font-family="Helvetica,sans-Serif" font-size="10.00">/game&#45;lib/GameStatsIO.cpp</text>
</a>
</g>
</g>
<!-- Node26&#45;&gt;Node28 -->
<g id="edge47" class="edge">
<title>Node26&#45;&gt;Node28</title>
<path fill="none" stroke="midnightblue" d="M1300.29,-318.81C1324.12,-306.75 1352.56,-292.35 1374.97,-281"/>
<polygon fill="midnightblue" stroke="midnightblue" points="1298.4,-315.84 1291.06,-323.48 1301.57,-322.08 1298.4,-315.84"/>
</g>
<!-- Node29&#45;&gt;Node12 -->
<g id="edge50" class="edge">
<title>Node29&#45;&gt;Node12</title>
<path fill="none" stroke="midnightblue" d="M1087.46,-469.85C1072.33,-430.38 1039.87,-360.57 988.5,-323 935.6,-284.31 905.22,-314.01 845.5,-287 807.65,-269.88 806.33,-251.18 768.5,-234 643.92,-177.4 552.69,-237.46 482.5,-120 472.92,-103.98 470.84,-92.58 482.5,-78 528.03,-21.08 571.47,-58.35 642.5,-42 645.6,-41.29 648.77,-40.55 651.97,-39.81"/>
<polygon fill="midnightblue" stroke="midnightblue" points="1084.25,-471.27 1091.02,-479.42 1090.81,-468.83 1084.25,-471.27"/>
</g>
<!-- Node29&#45;&gt;Node15 -->
<g id="edge52" class="edge">
<title>Node29&#45;&gt;Node15</title>
<path fill="none" stroke="midnightblue" d="M1100.02,-469.46C1106.61,-392.11 1124.25,-185.14 1129.8,-119.95"/>
<polygon fill="midnightblue" stroke="midnightblue" points="1096.52,-469.22 1099.16,-479.49 1103.5,-469.82 1096.52,-469.22"/>
</g>
<!-- Node29&#45;&gt;Node25 -->
<g id="edge51" class="edge">
<title>Node29&#45;&gt;Node25</title>
<path fill="none" stroke="midnightblue" d="M1039.33,-475.61C1012.95,-465 982.11,-452.6 957.01,-442.51"/>
<polygon fill="midnightblue" stroke="midnightblue" points="1038.24,-478.94 1048.83,-479.43 1040.86,-472.45 1038.24,-478.94"/>
</g>
</g>
</svg>
        <g id="navigator" transform="translate(0 0)" fill="#404254">
                <rect fill="#f2f5e9" fill-opacity="0.5" stroke="#606060" stroke-width=".5" x="0" y="0" width="60" height="60"/>
                <use id="zoomplus" xlink:href="#zoomPlus" target="_top" x="17" y="9" onmousedown="handleZoom(evt,'in')"/>
                <use id="zoomminus" xlink:href="#zoomMin" target="_top" x="42" y="9" onmousedown="handleZoom(evt,'out')"/>
                <use id="reset" xlink:href="#resetDef" target="_top" x="30" y="36" onmousedown="handleReset()"/>
                <g id="arrowUp" xlink:href="#dirArrow" target="_top" transform="translate(30 24)" onmousedown="handlePan(0,-1)">
                  <use xlink:href="#rim" target="_top" fill="#404040">
                        <set attributeName="fill" to="#808080" begin="arrowUp.mouseover" end="arrowUp.mouseout"/>
                  </use>
                  <path fill="none" stroke="white" stroke-width="1.5" d="M0,-3.0v7 M-2.5,-0.5L0,-3.0L2.5,-0.5"/>
                </g>
                <g id="arrowRight" xlink:href="#dirArrow" target="_top" transform="rotate(90) translate(36 -43)" onmousedown="handlePan(1,0)">
                  <use xlink:href="#rim" target="_top" fill="#404040">
                        <set attributeName="fill" to="#808080" begin="arrowRight.mouseover" end="arrowRight.mouseout"/>
                  </use>
                  <path fill="none" stroke="white" stroke-width="1.5" d="M0,-3.0v7 M-2.5,-0.5L0,-3.0L2.5,-0.5"/>
                </g>
                <g id="arrowDown" xlink:href="#dirArrow" target="_top" transform="rotate(180) translate(-30 -48)" onmousedown="handlePan(0,1)">
                  <use xlink:href="#rim" target="_top" fill="#404040">
                        <set attributeName="fill" to="#808080" begin="arrowDown.mouseover" end="arrowDown.mouseout"/>
                  </use>
                  <path fill="none" stroke="white" stroke-width="1.5" d="M0,-3.0v7 M-2.5,-0.5L0,-3.0L2.5,-0.5"/>
                </g>
                <g id="arrowLeft" xlink:href="#dirArrow" target="_top" transform="rotate(270) translate(-36 17)" onmousedown="handlePan(-1,0)">
                  <use xlink:href="#rim" target="_top" fill="#404040">
                        <set attributeName="fill" to="#808080" begin="arrowLeft.mouseover" end="arrowLeft.mouseout"/>
                  </use>
                  <path fill="none" stroke="white" stroke-width="1.5" d="M0,-3.0v7 M-2.5,-0.5L0,-3.0L2.5,-0.5"/>
                </g>
        </g>
        <svg viewBox="0 0 15 15" width="100%" height="30px" preserveAspectRatio="xMaxYMin meet">
         <g id="arrow_out" transform="scale(0.3 0.3)">
          <a xlink:href="_event_8h__dep__incl_org.svg" target="_top" target="_base">
           <rect id="button" ry="5" rx="5" y="6" x="6" height="38" width="38"
                fill="#f2f5e9" fill-opacity="0.5" stroke="#606060" stroke-width="1.0"/>
           <path id="arrow"
             d="M 11.500037,31.436501 C 11.940474,20.09759 22.043105,11.32322 32.158766,21.979434 L 37.068811,17.246167 C 37.068811,17.246167 37.088388,32 37.088388,32 L 22.160133,31.978069 C 22.160133,31.978069 26.997745,27.140456 26.997745,27.140456 C 18.528582,18.264221 13.291696,25.230495 11.500037,31.436501 z"
             style="fill:#404040;"/>
          </a>
         </g>
        </svg>
</svg>
