<?xml version="1.0" encoding="UTF-8" standalone="no"?>
<!DOCTYPE svg PUBLIC "-//W3C//DTD SVG 1.1//EN"
 "http://www.w3.org/Graphics/SVG/1.1/DTD/svg11.dtd">
<!-- Generated by graphviz version 2.50.0 (0)
 -->
<!-- Title: /home/tomek/trash/battle&#45;city/src/lib/core&#45;lib/EventSubscriber.cpp Pages: 1 -->
<svg width="725pt" height="475pt"
 viewBox="0.00 0.00 724.50 475.00" xmlns="http://www.w3.org/2000/svg" xmlns:xlink="http://www.w3.org/1999/xlink">
<g id="graph0" class="graph" transform="scale(1 1) rotate(0) translate(4 471)">
<title>/home/tomek/trash/battle&#45;city/src/lib/core&#45;lib/EventSubscriber.cpp</title>
<!-- Node1 -->
<g id="node1" class="node">
<title>Node1</title>
<g id="a_node1"><a xlink:title=" ">
<polygon fill="#bfbfbf" stroke="black" points="82.5,-425.5 82.5,-466.5 223.5,-466.5 223.5,-425.5 82.5,-425.5"/>
<text text-anchor="start" x="90.5" y="-454.5" font-family="Helvetica,sans-Serif" font-size="10.00">/home/tomek/trash/battle</text>
<text text-anchor="start" x="90.5" y="-443.5" font-family="Helvetica,sans-Serif" font-size="10.00">&#45;city/src/lib/core&#45;lib</text>
<text text-anchor="middle" x="153" y="-432.5" font-family="Helvetica,sans-Serif" font-size="10.00">/EventSubscriber.cpp</text>
</a>
</g>
</g>
<!-- Node2 -->
<g id="node2" class="node">
<title>Node2</title>
<g id="a_node2"><a xlink:title=" ">
<polygon fill="none" stroke="#bfbfbf" points="0,-369.5 0,-388.5 64,-388.5 64,-369.5 0,-369.5"/>
<text text-anchor="middle" x="32" y="-376.5" font-family="Helvetica,sans-Serif" font-size="10.00">algorithm</text>
</a>
</g>
</g>
<!-- Node1&#45;&gt;Node2 -->
<g id="edge1" class="edge">
<title>Node1&#45;&gt;Node2</title>
<path fill="none" stroke="midnightblue" d="M116.7,-425.5C97.43,-415.15 74.25,-402.69 57.01,-393.43"/>
<polygon fill="midnightblue" stroke="midnightblue" points="58.57,-390.3 48.11,-388.65 55.26,-396.47 58.57,-390.3"/>
</g>
<!-- Node3 -->
<g id="node3" class="node">
<title>Node3</title>
<g id="a_node3"><a xlink:title=" ">
<polygon fill="none" stroke="#bfbfbf" points="125.5,-0.5 125.5,-19.5 172.5,-19.5 172.5,-0.5 125.5,-0.5"/>
<text text-anchor="middle" x="149" y="-7.5" font-family="Helvetica,sans-Serif" font-size="10.00">vector</text>
</a>
</g>
</g>
<!-- Node1&#45;&gt;Node3 -->
<g id="edge2" class="edge">
<title>Node1&#45;&gt;Node3</title>
<path fill="none" stroke="midnightblue" d="M135.68,-425.13C117.65,-402.34 92,-363.05 92,-324 92,-324 92,-324 92,-137.5 92,-94.97 119.11,-50.93 135.94,-27.7"/>
<polygon fill="midnightblue" stroke="midnightblue" points="138.82,-29.7 142.01,-19.6 133.21,-25.5 138.82,-29.7"/>
</g>
<!-- Node4 -->
<g id="node4" class="node">
<title>Node4</title>
<g id="a_node4"><a xlink:href="_event_publisher_8h.html" target="_top" xlink:title=" ">
<polygon fill="none" stroke="black" points="146,-369.5 146,-388.5 282,-388.5 282,-369.5 146,-369.5"/>
<text text-anchor="middle" x="214" y="-376.5" font-family="Helvetica,sans-Serif" font-size="10.00">include/EventPublisher.h</text>
</a>
</g>
</g>
<!-- Node1&#45;&gt;Node4 -->
<g id="edge3" class="edge">
<title>Node1&#45;&gt;Node4</title>
<path fill="none" stroke="midnightblue" d="M171.3,-425.5C180.11,-416.11 190.55,-404.98 198.91,-396.08"/>
<polygon fill="midnightblue" stroke="midnightblue" points="201.59,-398.34 205.88,-388.65 196.48,-393.55 201.59,-398.34"/>
</g>
<!-- Node19 -->
<g id="node19" class="node">
<title>Node19</title>
<g id="a_node19"><a xlink:href="_observer_exceptions_8h.html" target="_top" xlink:title=" ">
<polygon fill="none" stroke="black" points="530.5,-257.5 530.5,-276.5 691.5,-276.5 691.5,-257.5 530.5,-257.5"/>
<text text-anchor="middle" x="611" y="-264.5" font-family="Helvetica,sans-Serif" font-size="10.00">include/ObserverExceptions.h</text>
</a>
</g>
</g>
<!-- Node1&#45;&gt;Node19 -->
<g id="edge29" class="edge">
<title>Node1&#45;&gt;Node19</title>
<path fill="none" stroke="midnightblue" d="M203.76,-425.38C298.72,-388.69 500.66,-310.64 579.01,-280.36"/>
<polygon fill="midnightblue" stroke="midnightblue" points="580.72,-283.45 588.79,-276.58 578.2,-276.92 580.72,-283.45"/>
</g>
<!-- Node4&#45;&gt;Node3 -->
<g id="edge5" class="edge">
<title>Node4&#45;&gt;Node3</title>
<path fill="none" stroke="midnightblue" d="M197.33,-369.4C183.67,-361.58 164.75,-348.86 153,-333 134.76,-308.38 130,-298.64 130,-268 130,-268 130,-268 130,-137.5 130,-98.77 138.82,-54.11 144.44,-29.57"/>
<polygon fill="midnightblue" stroke="midnightblue" points="147.92,-30.06 146.82,-19.52 141.11,-28.44 147.92,-30.06"/>
</g>
<!-- Node5 -->
<g id="node5" class="node">
<title>Node5</title>
<g id="a_node5"><a xlink:title=" ">
<polygon fill="none" stroke="#bfbfbf" points="262,-257.5 262,-276.5 300,-276.5 300,-257.5 262,-257.5"/>
<text text-anchor="middle" x="281" y="-264.5" font-family="Helvetica,sans-Serif" font-size="10.00">map</text>
</a>
</g>
</g>
<!-- Node4&#45;&gt;Node5 -->
<g id="edge4" class="edge">
<title>Node4&#45;&gt;Node5</title>
<path fill="none" stroke="midnightblue" d="M232.88,-369.48C247.05,-362.02 265.56,-349.73 275,-333 282.92,-318.97 283.89,-300.47 283.19,-286.8"/>
<polygon fill="midnightblue" stroke="midnightblue" points="286.66,-286.32 282.33,-276.65 279.69,-286.91 286.66,-286.32"/>
</g>
<!-- Node6 -->
<g id="node6" class="node">
<title>Node6</title>
<g id="a_node6"><a xlink:href="_event_8h.html" target="_top" xlink:title=" ">
<polygon fill="none" stroke="black" points="322.5,-257.5 322.5,-276.5 375.5,-276.5 375.5,-257.5 322.5,-257.5"/>
<text text-anchor="middle" x="349" y="-264.5" font-family="Helvetica,sans-Serif" font-size="10.00">Event.h</text>
</a>
</g>
</g>
<!-- Node4&#45;&gt;Node6 -->
<g id="edge6" class="edge">
<title>Node4&#45;&gt;Node6</title>
<path fill="none" stroke="midnightblue" d="M233.02,-369.46C249.78,-361.42 274.35,-348.35 293,-333 310.17,-318.87 326.36,-299.11 336.87,-285.1"/>
<polygon fill="midnightblue" stroke="midnightblue" points="339.84,-286.97 342.91,-276.83 334.19,-282.84 339.84,-286.97"/>
</g>
<!-- Node17 -->
<g id="node17" class="node">
<title>Node17</title>
<g id="a_node17"><a xlink:href="_event_subscriber_8h.html" target="_top" xlink:title=" ">
<polygon fill="none" stroke="black" points="162,-313.5 162,-332.5 266,-332.5 266,-313.5 162,-313.5"/>
<text text-anchor="middle" x="214" y="-320.5" font-family="Helvetica,sans-Serif" font-size="10.00">EventSubscriber.h</text>
</a>
</g>
</g>
<!-- Node4&#45;&gt;Node17 -->
<g id="edge24" class="edge">
<title>Node4&#45;&gt;Node17</title>
<path fill="none" stroke="midnightblue" d="M214,-369.08C214,-362.01 214,-351.86 214,-342.99"/>
<polygon fill="midnightblue" stroke="midnightblue" points="217.5,-342.75 214,-332.75 210.5,-342.75 217.5,-342.75"/>
</g>
<!-- Node7 -->
<g id="node7" class="node">
<title>Node7</title>
<g id="a_node7"><a xlink:title=" ">
<polygon fill="none" stroke="#bfbfbf" points="651.5,-196 651.5,-215 716.5,-215 716.5,-196 651.5,-196"/>
<text text-anchor="middle" x="684" y="-203" font-family="Helvetica,sans-Serif" font-size="10.00">exception</text>
</a>
</g>
</g>
<!-- Node6&#45;&gt;Node7 -->
<g id="edge7" class="edge">
<title>Node6&#45;&gt;Node7</title>
<path fill="none" stroke="midnightblue" d="M375.58,-263.54C427.4,-258.38 545.33,-244.9 642,-221 645.22,-220.2 648.54,-219.27 651.84,-218.26"/>
<polygon fill="midnightblue" stroke="midnightblue" points="653.14,-221.52 661.55,-215.08 650.96,-214.86 653.14,-221.52"/>
</g>
<!-- Node8 -->
<g id="node8" class="node">
<title>Node8</title>
<g id="a_node8"><a xlink:title=" ">
<polygon fill="none" stroke="#bfbfbf" points="589,-196 589,-215 633,-215 633,-196 589,-196"/>
<text text-anchor="middle" x="611" y="-203" font-family="Helvetica,sans-Serif" font-size="10.00">string</text>
</a>
</g>
</g>
<!-- Node6&#45;&gt;Node8 -->
<g id="edge8" class="edge">
<title>Node6&#45;&gt;Node8</title>
<path fill="none" stroke="midnightblue" d="M375.83,-262.31C418.57,-256.08 504.46,-242.03 575,-221 577.43,-220.28 579.92,-219.45 582.41,-218.57"/>
<polygon fill="midnightblue" stroke="midnightblue" points="583.7,-221.82 591.8,-215 581.21,-215.28 583.7,-221.82"/>
</g>
<!-- Node9 -->
<g id="node9" class="node">
<title>Node9</title>
<g id="a_node9"><a xlink:title=" ">
<polygon fill="none" stroke="#bfbfbf" points="437,-0.5 437,-19.5 495,-19.5 495,-0.5 437,-0.5"/>
<text text-anchor="middle" x="466" y="-7.5" font-family="Helvetica,sans-Serif" font-size="10.00">memory</text>
</a>
</g>
</g>
<!-- Node6&#45;&gt;Node9 -->
<g id="edge9" class="edge">
<title>Node6&#45;&gt;Node9</title>
<path fill="none" stroke="midnightblue" d="M375.69,-266.71C413.37,-266.21 482.03,-259.58 522,-221 553.99,-190.13 555.06,-165.49 542,-123 530.17,-84.5 500.12,-47.35 481.54,-27"/>
<polygon fill="midnightblue" stroke="midnightblue" points="483.99,-24.49 474.6,-19.59 478.88,-29.28 483.99,-24.49"/>
</g>
<!-- Node10 -->
<g id="node10" class="node">
<title>Node10</title>
<g id="a_node10"><a xlink:title=" ">
<polygon fill="none" stroke="#bfbfbf" points="236.5,-196 236.5,-215 287.5,-215 287.5,-196 236.5,-196"/>
<text text-anchor="middle" x="262" y="-203" font-family="Helvetica,sans-Serif" font-size="10.00">variant</text>
</a>
</g>
</g>
<!-- Node6&#45;&gt;Node10 -->
<g id="edge10" class="edge">
<title>Node6&#45;&gt;Node10</title>
<path fill="none" stroke="midnightblue" d="M336.54,-257.48C322.58,-247.93 299.74,-232.31 283.01,-220.87"/>
<polygon fill="midnightblue" stroke="midnightblue" points="284.67,-217.77 274.44,-215.01 280.72,-223.54 284.67,-217.77"/>
</g>
<!-- Node11 -->
<g id="node11" class="node">
<title>Node11</title>
<g id="a_node11"><a xlink:title=" ">
<polygon fill="none" stroke="#bfbfbf" points="306,-196 306,-215 366,-215 366,-196 306,-196"/>
<text text-anchor="middle" x="336" y="-203" font-family="Helvetica,sans-Serif" font-size="10.00">iostream</text>
</a>
</g>
</g>
<!-- Node6&#45;&gt;Node11 -->
<g id="edge11" class="edge">
<title>Node6&#45;&gt;Node11</title>
<path fill="none" stroke="midnightblue" d="M347.14,-257.48C345.28,-248.99 342.38,-235.7 340,-224.82"/>
<polygon fill="midnightblue" stroke="midnightblue" points="343.41,-224.03 337.86,-215.01 336.57,-225.53 343.41,-224.03"/>
</g>
<!-- Node12 -->
<g id="node12" class="node">
<title>Node12</title>
<g id="a_node12"><a xlink:title=" ">
<polygon fill="none" stroke="#bfbfbf" points="477,-129 477,-148 533,-148 533,-129 477,-129"/>
<text text-anchor="middle" x="505" y="-136" font-family="Helvetica,sans-Serif" font-size="10.00">optional</text>
</a>
</g>
</g>
<!-- Node6&#45;&gt;Node12 -->
<g id="edge12" class="edge">
<title>Node6&#45;&gt;Node12</title>
<path fill="none" stroke="midnightblue" d="M375.66,-266.95C411.18,-266.6 473.03,-259.97 503,-221 516.72,-203.16 514.17,-176.04 510.26,-158.05"/>
<polygon fill="midnightblue" stroke="midnightblue" points="513.62,-157.04 507.79,-148.2 506.83,-158.75 513.62,-157.04"/>
</g>
<!-- Node13 -->
<g id="node13" class="node">
<title>Node13</title>
<g id="a_node13"><a xlink:href="_entity_8h.html" target="_top" xlink:title=" ">
<polygon fill="none" stroke="black" points="196,-56.5 196,-86.5 306,-86.5 306,-56.5 196,-56.5"/>
<text text-anchor="start" x="204" y="-74.5" font-family="Helvetica,sans-Serif" font-size="10.00">../../tank&#45;lib/include</text>
<text text-anchor="middle" x="251" y="-63.5" font-family="Helvetica,sans-Serif" font-size="10.00">/Entity.h</text>
</a>
</g>
</g>
<!-- Node6&#45;&gt;Node13 -->
<g id="edge13" class="edge">
<title>Node6&#45;&gt;Node13</title>
<path fill="none" stroke="midnightblue" d="M322.36,-259.93C289.96,-251.94 238.17,-237.02 227,-221 200.61,-183.14 222.09,-126.78 237.93,-95.51"/>
<polygon fill="midnightblue" stroke="midnightblue" points="241.03,-97.14 242.6,-86.66 234.84,-93.87 241.03,-97.14"/>
</g>
<!-- Node14 -->
<g id="node14" class="node">
<title>Node14</title>
<g id="a_node14"><a xlink:href="_tank_8h.html" target="_top" xlink:title=" ">
<polygon fill="none" stroke="black" points="384,-190.5 384,-220.5 494,-220.5 494,-190.5 384,-190.5"/>
<text text-anchor="start" x="392" y="-208.5" font-family="Helvetica,sans-Serif" font-size="10.00">../../tank&#45;lib/include</text>
<text text-anchor="middle" x="439" y="-197.5" font-family="Helvetica,sans-Serif" font-size="10.00">/Tank.h</text>
</a>
</g>
</g>
<!-- Node6&#45;&gt;Node14 -->
<g id="edge14" class="edge">
<title>Node6&#45;&gt;Node14</title>
<path fill="none" stroke="midnightblue" d="M361.89,-257.48C374.2,-249.34 393.18,-236.79 409.23,-226.18"/>
<polygon fill="midnightblue" stroke="midnightblue" points="411.38,-228.96 417.79,-220.52 407.52,-223.12 411.38,-228.96"/>
</g>
<!-- Node14&#45;&gt;Node9 -->
<g id="edge15" class="edge">
<title>Node14&#45;&gt;Node9</title>
<path fill="none" stroke="midnightblue" d="M440.99,-190.27C445.78,-155.94 457.97,-68.57 463.36,-29.9"/>
<polygon fill="midnightblue" stroke="midnightblue" points="466.89,-29.96 464.8,-19.58 459.95,-29 466.89,-29.96"/>
</g>
<!-- Node14&#45;&gt;Node12 -->
<g id="edge16" class="edge">
<title>Node14&#45;&gt;Node12</title>
<path fill="none" stroke="midnightblue" d="M453.32,-190.4C463.82,-180.06 478.07,-166.02 488.95,-155.31"/>
<polygon fill="midnightblue" stroke="midnightblue" points="491.5,-157.71 496.17,-148.19 486.59,-152.72 491.5,-157.71"/>
</g>
<!-- Node14&#45;&gt;Node13 -->
<g id="edge20" class="edge">
<title>Node14&#45;&gt;Node13</title>
<path fill="none" stroke="midnightblue" d="M383.74,-190.93C337.59,-179.12 278.08,-162.59 270,-154 255.59,-138.68 251.4,-114.62 250.48,-96.61"/>
<polygon fill="midnightblue" stroke="midnightblue" points="253.98,-96.48 250.27,-86.56 246.98,-96.63 253.98,-96.48"/>
</g>
<!-- Node15 -->
<g id="node15" class="node">
<title>Node15</title>
<g id="a_node15"><a xlink:href="_simple_subscriber_8h.html" target="_top" xlink:title=" ">
<polygon fill="none" stroke="black" points="324.5,-56.5 324.5,-86.5 437.5,-86.5 437.5,-56.5 324.5,-56.5"/>
<text text-anchor="start" x="332.5" y="-74.5" font-family="Helvetica,sans-Serif" font-size="10.00">../../core&#45;lib/include</text>
<text text-anchor="middle" x="381" y="-63.5" font-family="Helvetica,sans-Serif" font-size="10.00">/SimpleSubscriber.h</text>
</a>
</g>
</g>
<!-- Node14&#45;&gt;Node15 -->
<g id="edge17" class="edge">
<title>Node14&#45;&gt;Node15</title>
<path fill="none" stroke="midnightblue" d="M432.79,-190.37C422.85,-167.75 403.25,-123.14 391.22,-95.76"/>
<polygon fill="midnightblue" stroke="midnightblue" points="394.39,-94.27 387.16,-86.52 387.98,-97.09 394.39,-94.27"/>
</g>
<!-- Node16 -->
<g id="node16" class="node">
<title>Node16</title>
<g id="a_node16"><a xlink:href="_bot_8h.html" target="_top" xlink:title=" ">
<polygon fill="none" stroke="black" points="279,-123.5 279,-153.5 383,-153.5 383,-123.5 279,-123.5"/>
<text text-anchor="start" x="287" y="-141.5" font-family="Helvetica,sans-Serif" font-size="10.00">../../bot&#45;lib/include</text>
<text text-anchor="middle" x="331" y="-130.5" font-family="Helvetica,sans-Serif" font-size="10.00">/Bot.h</text>
</a>
</g>
</g>
<!-- Node14&#45;&gt;Node16 -->
<g id="edge21" class="edge">
<title>Node14&#45;&gt;Node16</title>
<path fill="none" stroke="midnightblue" d="M415.57,-190.4C400.28,-181.2 380.12,-169.07 363.32,-158.95"/>
<polygon fill="midnightblue" stroke="midnightblue" points="364.76,-155.73 354.39,-153.58 361.15,-161.73 364.76,-155.73"/>
</g>
<!-- Node15&#45;&gt;Node3 -->
<g id="edge18" class="edge">
<title>Node15&#45;&gt;Node3</title>
<path fill="none" stroke="midnightblue" d="M326.31,-56.47C281.74,-45.04 220.22,-29.27 182.6,-19.62"/>
<polygon fill="midnightblue" stroke="midnightblue" points="183.21,-16.16 172.66,-17.07 181.48,-22.94 183.21,-16.16"/>
</g>
<!-- Node15&#45;&gt;Node9 -->
<g id="edge19" class="edge">
<title>Node15&#45;&gt;Node9</title>
<path fill="none" stroke="midnightblue" d="M401.14,-56.4C414.39,-47.13 431.68,-35.03 445.08,-25.65"/>
<polygon fill="midnightblue" stroke="midnightblue" points="447.45,-28.26 453.63,-19.66 443.43,-22.53 447.45,-28.26"/>
</g>
<!-- Node16&#45;&gt;Node13 -->
<g id="edge22" class="edge">
<title>Node16&#45;&gt;Node13</title>
<path fill="none" stroke="midnightblue" d="M313.64,-123.4C302.74,-114.54 288.49,-102.96 276.34,-93.09"/>
<polygon fill="midnightblue" stroke="midnightblue" points="278.29,-90.17 268.32,-86.58 273.88,-95.6 278.29,-90.17"/>
</g>
<!-- Node16&#45;&gt;Node15 -->
<g id="edge23" class="edge">
<title>Node16&#45;&gt;Node15</title>
<path fill="none" stroke="midnightblue" d="M341.85,-123.4C348.34,-114.96 356.72,-104.07 364.06,-94.52"/>
<polygon fill="midnightblue" stroke="midnightblue" points="366.85,-96.64 370.17,-86.58 361.3,-92.37 366.85,-96.64"/>
</g>
<!-- Node17&#45;&gt;Node3 -->
<g id="edge26" class="edge">
<title>Node17&#45;&gt;Node3</title>
<path fill="none" stroke="midnightblue" d="M212.19,-313.36C203.43,-271.42 165.25,-88.76 152.88,-29.58"/>
<polygon fill="midnightblue" stroke="midnightblue" points="156.3,-28.82 150.83,-19.75 149.45,-30.25 156.3,-28.82"/>
</g>
<!-- Node17&#45;&gt;Node5 -->
<g id="edge25" class="edge">
<title>Node17&#45;&gt;Node5</title>
<path fill="none" stroke="midnightblue" d="M224.76,-313.32C234.77,-305.26 249.89,-293.08 261.93,-283.37"/>
<polygon fill="midnightblue" stroke="midnightblue" points="264.45,-285.83 270.04,-276.83 260.06,-280.38 264.45,-285.83"/>
</g>
<!-- Node17&#45;&gt;Node6 -->
<g id="edge28" class="edge">
<title>Node17&#45;&gt;Node6</title>
<path fill="none" stroke="midnightblue" d="M235.39,-313.44C257.71,-304.52 292.9,-290.44 318.21,-280.32"/>
<polygon fill="midnightblue" stroke="midnightblue" points="319.72,-283.48 327.71,-276.52 317.12,-276.98 319.72,-283.48"/>
</g>
<!-- Node18 -->
<g id="node18" class="node">
<title>Node18</title>
<g id="a_node18"><a xlink:title=" ">
<polygon fill="none" stroke="#bfbfbf" points="158,-257.5 158,-276.5 190,-276.5 190,-257.5 158,-257.5"/>
<text text-anchor="middle" x="174" y="-264.5" font-family="Helvetica,sans-Serif" font-size="10.00">list</text>
</a>
</g>
</g>
<!-- Node17&#45;&gt;Node18 -->
<g id="edge27" class="edge">
<title>Node17&#45;&gt;Node18</title>
<path fill="none" stroke="midnightblue" d="M207.39,-313.08C201.74,-305.46 193.46,-294.26 186.55,-284.94"/>
<polygon fill="midnightblue" stroke="midnightblue" points="189.25,-282.7 180.48,-276.75 183.62,-286.87 189.25,-282.7"/>
</g>
<!-- Node19&#45;&gt;Node7 -->
<g id="edge30" class="edge">
<title>Node19&#45;&gt;Node7</title>
<path fill="none" stroke="midnightblue" d="M621.46,-257.48C632.95,-248.11 651.63,-232.88 665.59,-221.51"/>
<polygon fill="midnightblue" stroke="midnightblue" points="668.02,-224.04 673.56,-215.01 663.6,-218.61 668.02,-224.04"/>
</g>
<!-- Node19&#45;&gt;Node8 -->
<g id="edge31" class="edge">
<title>Node19&#45;&gt;Node8</title>
<path fill="none" stroke="midnightblue" d="M611,-257.48C611,-249.08 611,-235.98 611,-225.16"/>
<polygon fill="midnightblue" stroke="midnightblue" points="614.5,-225.01 611,-215.01 607.5,-225.01 614.5,-225.01"/>
</g>
</g>
</svg>
