<?xml version="1.0" encoding="UTF-8" standalone="no"?>
<!DOCTYPE svg PUBLIC "-//W3C//DTD SVG 1.1//EN"
 "http://www.w3.org/Graphics/SVG/1.1/DTD/svg11.dtd">
<!-- Generated by graphviz version 2.43.0 (0)
 -->
<!-- Title: /home/tomek/CLionProjects/proi/proi&#45;projekt/src/core&#45;lib/include/EventSubscriber.h Pages: 1 -->
<svg width="644pt" height="363pt"
 viewBox="0.00 0.00 643.50 363.00" xmlns="http://www.w3.org/2000/svg" xmlns:xlink="http://www.w3.org/1999/xlink">
<g id="graph0" class="graph" transform="scale(1 1) rotate(0) translate(4 359)">
<title>/home/tomek/CLionProjects/proi/proi&#45;projekt/src/core&#45;lib/include/EventSubscriber.h</title>
<!-- Node1 -->
<g id="node1" class="node">
<title>Node1</title>
<g id="a_node1"><a xlink:title=" ">
<polygon fill="#bfbfbf" stroke="black" points="68.5,-313.5 68.5,-354.5 253.5,-354.5 253.5,-313.5 68.5,-313.5"/>
<text text-anchor="start" x="76.5" y="-342.5" font-family="Helvetica,sans-Serif" font-size="10.00">/home/tomek/CLionProjects</text>
<text text-anchor="start" x="76.5" y="-331.5" font-family="Helvetica,sans-Serif" font-size="10.00">/proi/proi&#45;projekt/src</text>
<text text-anchor="middle" x="161" y="-320.5" font-family="Helvetica,sans-Serif" font-size="10.00">/core&#45;lib/include/EventSubscriber.h</text>
</a>
</g>
</g>
<!-- Node2 -->
<g id="node2" class="node">
<title>Node2</title>
<g id="a_node2"><a xlink:title=" ">
<polygon fill="none" stroke="#bfbfbf" points="0,-257.5 0,-276.5 38,-276.5 38,-257.5 0,-257.5"/>
<text text-anchor="middle" x="19" y="-264.5" font-family="Helvetica,sans-Serif" font-size="10.00">map</text>
</a>
</g>
</g>
<!-- Node1&#45;&gt;Node2 -->
<g id="edge1" class="edge">
<title>Node1&#45;&gt;Node2</title>
<path fill="none" stroke="midnightblue" d="M118.4,-313.5C95.37,-302.96 67.57,-290.23 47.23,-280.92"/>
<polygon fill="midnightblue" stroke="midnightblue" points="48.45,-277.63 37.9,-276.65 45.54,-284 48.45,-277.63"/>
</g>
<!-- Node3 -->
<g id="node3" class="node">
<title>Node3</title>
<g id="a_node3"><a xlink:title=" ">
<polygon fill="none" stroke="#bfbfbf" points="138.5,-0.5 138.5,-19.5 185.5,-19.5 185.5,-0.5 138.5,-0.5"/>
<text text-anchor="middle" x="162" y="-7.5" font-family="Helvetica,sans-Serif" font-size="10.00">vector</text>
</a>
</g>
</g>
<!-- Node1&#45;&gt;Node3 -->
<g id="edge2" class="edge">
<title>Node1&#45;&gt;Node3</title>
<path fill="none" stroke="midnightblue" d="M133.27,-313.39C105.23,-291.03 66,-251.68 66,-206.5 66,-206.5 66,-206.5 66,-137.5 66,-88.53 112.22,-46.61 140.52,-25.54"/>
<polygon fill="midnightblue" stroke="midnightblue" points="142.58,-28.37 148.65,-19.68 138.49,-22.69 142.58,-28.37"/>
</g>
<!-- Node4 -->
<g id="node4" class="node">
<title>Node4</title>
<g id="a_node4"><a xlink:title=" ">
<polygon fill="none" stroke="#bfbfbf" points="330,-257.5 330,-276.5 362,-276.5 362,-257.5 330,-257.5"/>
<text text-anchor="middle" x="346" y="-264.5" font-family="Helvetica,sans-Serif" font-size="10.00">list</text>
</a>
</g>
</g>
<!-- Node1&#45;&gt;Node4 -->
<g id="edge3" class="edge">
<title>Node1&#45;&gt;Node4</title>
<path fill="none" stroke="midnightblue" d="M216.51,-313.5C250.9,-301.42 293.45,-286.46 320.17,-277.07"/>
<polygon fill="midnightblue" stroke="midnightblue" points="321.64,-280.27 329.92,-273.65 319.32,-273.66 321.64,-280.27"/>
</g>
<!-- Node5 -->
<g id="node5" class="node">
<title>Node5</title>
<g id="a_node5"><a xlink:href="_event_8h.html" target="_top" xlink:title=" ">
<polygon fill="none" stroke="black" points="258.5,-257.5 258.5,-276.5 311.5,-276.5 311.5,-257.5 258.5,-257.5"/>
<text text-anchor="middle" x="285" y="-264.5" font-family="Helvetica,sans-Serif" font-size="10.00">Event.h</text>
</a>
</g>
</g>
<!-- Node1&#45;&gt;Node5 -->
<g id="edge4" class="edge">
<title>Node1&#45;&gt;Node5</title>
<path fill="none" stroke="midnightblue" d="M198.2,-313.5C217.95,-303.15 241.71,-290.69 259.37,-281.43"/>
<polygon fill="midnightblue" stroke="midnightblue" points="261.26,-284.4 268.49,-276.65 258.01,-278.2 261.26,-284.4"/>
</g>
<!-- Node6 -->
<g id="node6" class="node">
<title>Node6</title>
<g id="a_node6"><a xlink:title=" ">
<polygon fill="none" stroke="#bfbfbf" points="570.5,-196 570.5,-215 635.5,-215 635.5,-196 570.5,-196"/>
<text text-anchor="middle" x="603" y="-203" font-family="Helvetica,sans-Serif" font-size="10.00">exception</text>
</a>
</g>
</g>
<!-- Node5&#45;&gt;Node6 -->
<g id="edge5" class="edge">
<title>Node5&#45;&gt;Node6</title>
<path fill="none" stroke="midnightblue" d="M311.67,-259.04C314.81,-258.31 317.97,-257.61 321,-257 424.59,-236.16 453.02,-244.64 556,-221 559.91,-220.1 563.98,-219.04 568,-217.92"/>
<polygon fill="midnightblue" stroke="midnightblue" points="569.22,-221.21 577.82,-215.02 567.24,-214.49 569.22,-221.21"/>
</g>
<!-- Node7 -->
<g id="node7" class="node">
<title>Node7</title>
<g id="a_node7"><a xlink:title=" ">
<polygon fill="none" stroke="#bfbfbf" points="94,-196 94,-215 138,-215 138,-196 94,-196"/>
<text text-anchor="middle" x="116" y="-203" font-family="Helvetica,sans-Serif" font-size="10.00">string</text>
</a>
</g>
</g>
<!-- Node5&#45;&gt;Node7 -->
<g id="edge6" class="edge">
<title>Node5&#45;&gt;Node7</title>
<path fill="none" stroke="midnightblue" d="M258.46,-258.4C230.42,-250.13 185.08,-236.05 147,-221 145.58,-220.44 144.14,-219.85 142.69,-219.23"/>
<polygon fill="midnightblue" stroke="midnightblue" points="143.77,-215.88 133.22,-215.01 140.92,-222.28 143.77,-215.88"/>
</g>
<!-- Node8 -->
<g id="node8" class="node">
<title>Node8</title>
<g id="a_node8"><a xlink:title=" ">
<polygon fill="none" stroke="#bfbfbf" points="300,-0.5 300,-19.5 358,-19.5 358,-0.5 300,-0.5"/>
<text text-anchor="middle" x="329" y="-7.5" font-family="Helvetica,sans-Serif" font-size="10.00">memory</text>
</a>
</g>
</g>
<!-- Node5&#45;&gt;Node8 -->
<g id="edge7" class="edge">
<title>Node5&#45;&gt;Node8</title>
<path fill="none" stroke="midnightblue" d="M311.72,-259.24C314.84,-258.47 317.99,-257.71 321,-257 392.35,-240.11 428.2,-270.81 482,-221 527.7,-178.69 513.79,-148.6 523,-87 525.04,-73.37 531.57,-66.79 523,-56 504.03,-32.13 419.14,-19.79 368.15,-14.43"/>
<polygon fill="midnightblue" stroke="midnightblue" points="368.42,-10.94 358.12,-13.41 367.72,-17.9 368.42,-10.94"/>
</g>
<!-- Node9 -->
<g id="node9" class="node">
<title>Node9</title>
<g id="a_node9"><a xlink:title=" ">
<polygon fill="none" stroke="#bfbfbf" points="156.5,-196 156.5,-215 207.5,-215 207.5,-196 156.5,-196"/>
<text text-anchor="middle" x="182" y="-203" font-family="Helvetica,sans-Serif" font-size="10.00">variant</text>
</a>
</g>
</g>
<!-- Node5&#45;&gt;Node9 -->
<g id="edge8" class="edge">
<title>Node5&#45;&gt;Node9</title>
<path fill="none" stroke="midnightblue" d="M270.24,-257.48C253.34,-247.71 225.42,-231.58 205.51,-220.08"/>
<polygon fill="midnightblue" stroke="midnightblue" points="207.14,-216.98 196.73,-215.01 203.64,-223.04 207.14,-216.98"/>
</g>
<!-- Node10 -->
<g id="node10" class="node">
<title>Node10</title>
<g id="a_node10"><a xlink:title=" ">
<polygon fill="none" stroke="#bfbfbf" points="226,-196 226,-215 286,-215 286,-196 226,-196"/>
<text text-anchor="middle" x="256" y="-203" font-family="Helvetica,sans-Serif" font-size="10.00">iostream</text>
</a>
</g>
</g>
<!-- Node5&#45;&gt;Node10 -->
<g id="edge9" class="edge">
<title>Node5&#45;&gt;Node10</title>
<path fill="none" stroke="midnightblue" d="M280.85,-257.48C276.62,-248.82 269.96,-235.15 264.6,-224.15"/>
<polygon fill="midnightblue" stroke="midnightblue" points="267.67,-222.46 260.15,-215.01 261.38,-225.53 267.67,-222.46"/>
</g>
<!-- Node11 -->
<g id="node11" class="node">
<title>Node11</title>
<g id="a_node11"><a xlink:title=" ">
<polygon fill="none" stroke="#bfbfbf" points="160,-129 160,-148 216,-148 216,-129 160,-129"/>
<text text-anchor="middle" x="188" y="-136" font-family="Helvetica,sans-Serif" font-size="10.00">optional</text>
</a>
</g>
</g>
<!-- Node5&#45;&gt;Node11 -->
<g id="edge10" class="edge">
<title>Node5&#45;&gt;Node11</title>
<path fill="none" stroke="midnightblue" d="M289.58,-257.23C296.72,-242.21 308.39,-211.13 295,-190 286.71,-176.92 251.09,-161.74 223.2,-151.46"/>
<polygon fill="midnightblue" stroke="midnightblue" points="224.3,-148.14 213.71,-148.04 221.93,-154.73 224.3,-148.14"/>
</g>
<!-- Node12 -->
<g id="node12" class="node">
<title>Node12</title>
<g id="a_node12"><a xlink:href="_entity_8h.html" target="_top" xlink:title=" ">
<polygon fill="none" stroke="black" points="404,-56.5 404,-86.5 514,-86.5 514,-56.5 404,-56.5"/>
<text text-anchor="start" x="412" y="-74.5" font-family="Helvetica,sans-Serif" font-size="10.00">../../tank&#45;lib/include</text>
<text text-anchor="middle" x="459" y="-63.5" font-family="Helvetica,sans-Serif" font-size="10.00">/Entity.h</text>
</a>
</g>
</g>
<!-- Node5&#45;&gt;Node12 -->
<g id="edge11" class="edge">
<title>Node5&#45;&gt;Node12</title>
<path fill="none" stroke="midnightblue" d="M311.62,-259.3C360.68,-246.95 460.42,-221.75 461,-221 488.85,-185.14 477.44,-128.35 467.6,-96.39"/>
<polygon fill="midnightblue" stroke="midnightblue" points="470.82,-94.98 464.39,-86.57 464.17,-97.16 470.82,-94.98"/>
</g>
<!-- Node13 -->
<g id="node13" class="node">
<title>Node13</title>
<g id="a_node13"><a xlink:href="_tank_8h.html" target="_top" xlink:title=" ">
<polygon fill="none" stroke="black" points="342,-190.5 342,-220.5 452,-220.5 452,-190.5 342,-190.5"/>
<text text-anchor="start" x="350" y="-208.5" font-family="Helvetica,sans-Serif" font-size="10.00">../../tank&#45;lib/include</text>
<text text-anchor="middle" x="397" y="-197.5" font-family="Helvetica,sans-Serif" font-size="10.00">/Tank.h</text>
</a>
</g>
</g>
<!-- Node5&#45;&gt;Node13 -->
<g id="edge12" class="edge">
<title>Node5&#45;&gt;Node13</title>
<path fill="none" stroke="midnightblue" d="M301.05,-257.48C316.78,-249.12 341.3,-236.09 361.61,-225.3"/>
<polygon fill="midnightblue" stroke="midnightblue" points="363.41,-228.31 370.6,-220.52 360.13,-222.12 363.41,-228.31"/>
</g>
<!-- Node13&#45;&gt;Node8 -->
<g id="edge13" class="edge">
<title>Node13&#45;&gt;Node8</title>
<path fill="none" stroke="midnightblue" d="M364.15,-190.43C346.23,-181.69 324.41,-169.22 308,-154 281.7,-129.61 273.45,-121.31 263,-87 258.98,-73.82 256.56,-68.18 263,-56 270.42,-41.95 284.42,-31.47 297.62,-24.17"/>
<polygon fill="midnightblue" stroke="midnightblue" points="299.22,-27.28 306.54,-19.62 296.04,-21.04 299.22,-27.28"/>
</g>
<!-- Node13&#45;&gt;Node11 -->
<g id="edge14" class="edge">
<title>Node13&#45;&gt;Node11</title>
<path fill="none" stroke="midnightblue" d="M348.61,-190.41C315.19,-180.54 269.77,-166.87 230,-154 227.41,-153.16 224.73,-152.28 222.04,-151.38"/>
<polygon fill="midnightblue" stroke="midnightblue" points="222.97,-148 212.38,-148.09 220.72,-154.62 222.97,-148"/>
</g>
<!-- Node13&#45;&gt;Node12 -->
<g id="edge18" class="edge">
<title>Node13&#45;&gt;Node12</title>
<path fill="none" stroke="midnightblue" d="M412.25,-190.41C421.59,-180.97 433.05,-167.78 440,-154 449.07,-136.02 453.89,-113.61 456.4,-96.84"/>
<polygon fill="midnightblue" stroke="midnightblue" points="459.9,-97.12 457.74,-86.74 452.96,-96.2 459.9,-97.12"/>
</g>
<!-- Node14 -->
<g id="node14" class="node">
<title>Node14</title>
<g id="a_node14"><a xlink:href="_simple_subscriber_8h.html" target="_top" xlink:title=" ">
<polygon fill="none" stroke="black" points="272.5,-56.5 272.5,-86.5 385.5,-86.5 385.5,-56.5 272.5,-56.5"/>
<text text-anchor="start" x="280.5" y="-74.5" font-family="Helvetica,sans-Serif" font-size="10.00">../../core&#45;lib/include</text>
<text text-anchor="middle" x="329" y="-63.5" font-family="Helvetica,sans-Serif" font-size="10.00">/SimpleSubscriber.h</text>
</a>
</g>
</g>
<!-- Node13&#45;&gt;Node14 -->
<g id="edge15" class="edge">
<title>Node13&#45;&gt;Node14</title>
<path fill="none" stroke="midnightblue" d="M359.69,-190.36C343.85,-182.28 326.99,-170.42 318,-154 308.35,-136.37 312.64,-113.48 318.45,-96.45"/>
<polygon fill="midnightblue" stroke="midnightblue" points="321.88,-97.3 322.16,-86.71 315.34,-94.81 321.88,-97.3"/>
</g>
<!-- Node15 -->
<g id="node15" class="node">
<title>Node15</title>
<g id="a_node15"><a xlink:href="_bot_8h.html" target="_top" xlink:title=" ">
<polygon fill="none" stroke="black" points="327,-123.5 327,-153.5 431,-153.5 431,-123.5 327,-123.5"/>
<text text-anchor="start" x="335" y="-141.5" font-family="Helvetica,sans-Serif" font-size="10.00">../../bot&#45;lib/include</text>
<text text-anchor="middle" x="379" y="-130.5" font-family="Helvetica,sans-Serif" font-size="10.00">/Bot.h</text>
</a>
</g>
</g>
<!-- Node13&#45;&gt;Node15 -->
<g id="edge19" class="edge">
<title>Node13&#45;&gt;Node15</title>
<path fill="none" stroke="midnightblue" d="M393.09,-190.4C390.9,-182.47 388.1,-172.38 385.58,-163.27"/>
<polygon fill="midnightblue" stroke="midnightblue" points="388.94,-162.28 382.9,-153.58 382.19,-164.15 388.94,-162.28"/>
</g>
<!-- Node14&#45;&gt;Node3 -->
<g id="edge16" class="edge">
<title>Node14&#45;&gt;Node3</title>
<path fill="none" stroke="midnightblue" d="M289.42,-56.4C260.73,-46.18 222.37,-32.51 195.25,-22.85"/>
<polygon fill="midnightblue" stroke="midnightblue" points="196.41,-19.54 185.81,-19.48 194.06,-26.14 196.41,-19.54"/>
</g>
<!-- Node14&#45;&gt;Node8 -->
<g id="edge17" class="edge">
<title>Node14&#45;&gt;Node8</title>
<path fill="none" stroke="midnightblue" d="M329,-56.4C329,-48.47 329,-38.46 329,-29.86"/>
<polygon fill="midnightblue" stroke="midnightblue" points="332.5,-29.66 329,-19.66 325.5,-29.66 332.5,-29.66"/>
</g>
<!-- Node15&#45;&gt;Node12 -->
<g id="edge20" class="edge">
<title>Node15&#45;&gt;Node12</title>
<path fill="none" stroke="midnightblue" d="M396.36,-123.4C407.26,-114.54 421.51,-102.96 433.66,-93.09"/>
<polygon fill="midnightblue" stroke="midnightblue" points="436.12,-95.6 441.68,-86.58 431.71,-90.17 436.12,-95.6"/>
</g>
<!-- Node15&#45;&gt;Node14 -->
<g id="edge21" class="edge">
<title>Node15&#45;&gt;Node14</title>
<path fill="none" stroke="midnightblue" d="M368.15,-123.4C361.66,-114.96 353.28,-104.07 345.94,-94.52"/>
<polygon fill="midnightblue" stroke="midnightblue" points="348.7,-92.37 339.83,-86.58 343.15,-96.64 348.7,-92.37"/>
</g>
</g>
</svg>
