<?xml version="1.0" encoding="UTF-8" standalone="no"?>
<!DOCTYPE svg PUBLIC "-//W3C//DTD SVG 1.1//EN"
 "http://www.w3.org/Graphics/SVG/1.1/DTD/svg11.dtd">
<!-- Generated by graphviz version 2.50.0 (0)
 -->
<!-- Title: /home/tomek/trash/battle&#45;city/src/lib/core&#45;lib/Event.cpp Pages: 1 -->
<svg width="511pt" height="363pt"
 viewBox="0.00 0.00 510.79 363.00" xmlns="http://www.w3.org/2000/svg" xmlns:xlink="http://www.w3.org/1999/xlink">
<g id="graph0" class="graph" transform="scale(1 1) rotate(0) translate(4 359)">
<title>/home/tomek/trash/battle&#45;city/src/lib/core&#45;lib/Event.cpp</title>
<!-- Node1 -->
<g id="node1" class="node">
<title>Node1</title>
<g id="a_node1"><a xlink:title=" ">
<polygon fill="#bfbfbf" stroke="black" points="229.5,-313.5 229.5,-354.5 370.5,-354.5 370.5,-313.5 229.5,-313.5"/>
<text text-anchor="start" x="237.5" y="-342.5" font-family="Helvetica,sans-Serif" font-size="10.00">/home/tomek/trash/battle</text>
<text text-anchor="start" x="237.5" y="-331.5" font-family="Helvetica,sans-Serif" font-size="10.00">&#45;city/src/lib/core&#45;lib</text>
<text text-anchor="middle" x="300" y="-320.5" font-family="Helvetica,sans-Serif" font-size="10.00">/Event.cpp</text>
</a>
</g>
</g>
<!-- Node2 -->
<g id="node2" class="node">
<title>Node2</title>
<g id="a_node2"><a xlink:title=" ">
<polygon fill="none" stroke="#bfbfbf" points="28,-0.5 28,-19.5 86,-19.5 86,-0.5 28,-0.5"/>
<text text-anchor="middle" x="57" y="-7.5" font-family="Helvetica,sans-Serif" font-size="10.00">memory</text>
</a>
</g>
</g>
<!-- Node1&#45;&gt;Node2 -->
<g id="edge1" class="edge">
<title>Node1&#45;&gt;Node2</title>
<path fill="none" stroke="midnightblue" d="M229.28,-332.75C140.59,-328.27 0,-305.56 0,-206.5 0,-206.5 0,-206.5 0,-137.5 0,-94.97 27.11,-50.93 43.94,-27.7"/>
<polygon fill="midnightblue" stroke="midnightblue" points="46.82,-29.7 50.01,-19.6 41.21,-25.5 46.82,-29.7"/>
</g>
<!-- Node3 -->
<g id="node3" class="node">
<title>Node3</title>
<g id="a_node3"><a xlink:title=" ">
<polygon fill="none" stroke="#bfbfbf" points="364.5,-257.5 364.5,-276.5 409.5,-276.5 409.5,-257.5 364.5,-257.5"/>
<text text-anchor="middle" x="387" y="-264.5" font-family="Helvetica,sans-Serif" font-size="10.00">utility</text>
</a>
</g>
</g>
<!-- Node1&#45;&gt;Node3 -->
<g id="edge2" class="edge">
<title>Node1&#45;&gt;Node3</title>
<path fill="none" stroke="midnightblue" d="M326.1,-313.5C339.31,-303.63 355.09,-291.84 367.27,-282.74"/>
<polygon fill="midnightblue" stroke="midnightblue" points="369.5,-285.44 375.42,-276.65 365.31,-279.83 369.5,-285.44"/>
</g>
<!-- Node4 -->
<g id="node4" class="node">
<title>Node4</title>
<g id="a_node4"><a xlink:href="_event_8h.html" target="_top" xlink:title=" ">
<polygon fill="none" stroke="black" points="254,-257.5 254,-276.5 346,-276.5 346,-257.5 254,-257.5"/>
<text text-anchor="middle" x="300" y="-264.5" font-family="Helvetica,sans-Serif" font-size="10.00">include/Event.h</text>
</a>
</g>
</g>
<!-- Node1&#45;&gt;Node4 -->
<g id="edge3" class="edge">
<title>Node1&#45;&gt;Node4</title>
<path fill="none" stroke="midnightblue" d="M300,-313.5C300,-305.07 300,-295.24 300,-286.87"/>
<polygon fill="midnightblue" stroke="midnightblue" points="303.5,-286.65 300,-276.65 296.5,-286.65 303.5,-286.65"/>
</g>
<!-- Node4&#45;&gt;Node2 -->
<g id="edge6" class="edge">
<title>Node4&#45;&gt;Node2</title>
<path fill="none" stroke="midnightblue" d="M253.94,-264.25C190.58,-260.76 81.56,-250.52 57,-221 10.66,-165.29 36.28,-69.48 50.05,-29.44"/>
<polygon fill="midnightblue" stroke="midnightblue" points="53.39,-30.5 53.48,-19.9 46.8,-28.13 53.39,-30.5"/>
</g>
<!-- Node5 -->
<g id="node5" class="node">
<title>Node5</title>
<g id="a_node5"><a xlink:title=" ">
<polygon fill="none" stroke="#bfbfbf" points="194.5,-196 194.5,-215 259.5,-215 259.5,-196 194.5,-196"/>
<text text-anchor="middle" x="227" y="-203" font-family="Helvetica,sans-Serif" font-size="10.00">exception</text>
</a>
</g>
</g>
<!-- Node4&#45;&gt;Node5 -->
<g id="edge4" class="edge">
<title>Node4&#45;&gt;Node5</title>
<path fill="none" stroke="midnightblue" d="M289.54,-257.48C278.05,-248.11 259.37,-232.88 245.41,-221.51"/>
<polygon fill="midnightblue" stroke="midnightblue" points="247.4,-218.61 237.44,-215.01 242.98,-224.04 247.4,-218.61"/>
</g>
<!-- Node6 -->
<g id="node6" class="node">
<title>Node6</title>
<g id="a_node6"><a xlink:title=" ">
<polygon fill="none" stroke="#bfbfbf" points="278,-196 278,-215 322,-215 322,-196 278,-196"/>
<text text-anchor="middle" x="300" y="-203" font-family="Helvetica,sans-Serif" font-size="10.00">string</text>
</a>
</g>
</g>
<!-- Node4&#45;&gt;Node6 -->
<g id="edge5" class="edge">
<title>Node4&#45;&gt;Node6</title>
<path fill="none" stroke="midnightblue" d="M300,-257.48C300,-249.08 300,-235.98 300,-225.16"/>
<polygon fill="midnightblue" stroke="midnightblue" points="303.5,-225.01 300,-215.01 296.5,-225.01 303.5,-225.01"/>
</g>
<!-- Node7 -->
<g id="node7" class="node">
<title>Node7</title>
<g id="a_node7"><a xlink:title=" ">
<polygon fill="none" stroke="#bfbfbf" points="340.5,-196 340.5,-215 391.5,-215 391.5,-196 340.5,-196"/>
<text text-anchor="middle" x="366" y="-203" font-family="Helvetica,sans-Serif" font-size="10.00">variant</text>
</a>
</g>
</g>
<!-- Node4&#45;&gt;Node7 -->
<g id="edge7" class="edge">
<title>Node4&#45;&gt;Node7</title>
<path fill="none" stroke="midnightblue" d="M309.46,-257.48C319.75,-248.2 336.42,-233.17 348.99,-221.83"/>
<polygon fill="midnightblue" stroke="midnightblue" points="351.48,-224.3 356.56,-215.01 346.79,-219.11 351.48,-224.3"/>
</g>
<!-- Node8 -->
<g id="node8" class="node">
<title>Node8</title>
<g id="a_node8"><a xlink:title=" ">
<polygon fill="none" stroke="#bfbfbf" points="410,-196 410,-215 470,-215 470,-196 410,-196"/>
<text text-anchor="middle" x="440" y="-203" font-family="Helvetica,sans-Serif" font-size="10.00">iostream</text>
</a>
</g>
</g>
<!-- Node4&#45;&gt;Node8 -->
<g id="edge8" class="edge">
<title>Node4&#45;&gt;Node8</title>
<path fill="none" stroke="midnightblue" d="M320.06,-257.48C343.76,-247.4 383.41,-230.55 410.58,-219"/>
<polygon fill="midnightblue" stroke="midnightblue" points="412.14,-222.14 419.98,-215.01 409.41,-215.7 412.14,-222.14"/>
</g>
<!-- Node9 -->
<g id="node9" class="node">
<title>Node9</title>
<g id="a_node9"><a xlink:title=" ">
<polygon fill="none" stroke="#bfbfbf" points="383,-129 383,-148 439,-148 439,-129 383,-129"/>
<text text-anchor="middle" x="411" y="-136" font-family="Helvetica,sans-Serif" font-size="10.00">optional</text>
</a>
</g>
</g>
<!-- Node4&#45;&gt;Node9 -->
<g id="edge9" class="edge">
<title>Node4&#45;&gt;Node9</title>
<path fill="none" stroke="midnightblue" d="M345.98,-257.47C396.22,-247.68 470.72,-231.61 479,-221 497.95,-196.69 463.1,-169.35 436.67,-153.32"/>
<polygon fill="midnightblue" stroke="midnightblue" points="438.18,-150.15 427.77,-148.15 434.66,-156.2 438.18,-150.15"/>
</g>
<!-- Node10 -->
<g id="node10" class="node">
<title>Node10</title>
<g id="a_node10"><a xlink:href="_entity_8h.html" target="_top" xlink:title=" ">
<polygon fill="none" stroke="black" points="236,-56.5 236,-86.5 346,-86.5 346,-56.5 236,-56.5"/>
<text text-anchor="start" x="244" y="-74.5" font-family="Helvetica,sans-Serif" font-size="10.00">../../tank&#45;lib/include</text>
<text text-anchor="middle" x="291" y="-63.5" font-family="Helvetica,sans-Serif" font-size="10.00">/Entity.h</text>
</a>
</g>
</g>
<!-- Node4&#45;&gt;Node10 -->
<g id="edge10" class="edge">
<title>Node4&#45;&gt;Node10</title>
<path fill="none" stroke="midnightblue" d="M346.2,-258.42C400.87,-248.99 485.7,-232.69 495,-221 524.74,-183.62 455.93,-128.85 448,-123 421.18,-103.24 386.31,-91.01 356.25,-83.54"/>
<polygon fill="midnightblue" stroke="midnightblue" points="356.79,-80.08 346.26,-81.19 355.19,-86.89 356.79,-80.08"/>
</g>
<!-- Node11 -->
<g id="node11" class="node">
<title>Node11</title>
<g id="a_node11"><a xlink:href="_tank_8h.html" target="_top" xlink:title=" ">
<polygon fill="none" stroke="black" points="66,-190.5 66,-220.5 176,-220.5 176,-190.5 66,-190.5"/>
<text text-anchor="start" x="74" y="-208.5" font-family="Helvetica,sans-Serif" font-size="10.00">../../tank&#45;lib/include</text>
<text text-anchor="middle" x="121" y="-197.5" font-family="Helvetica,sans-Serif" font-size="10.00">/Tank.h</text>
</a>
</g>
</g>
<!-- Node4&#45;&gt;Node11 -->
<g id="edge11" class="edge">
<title>Node4&#45;&gt;Node11</title>
<path fill="none" stroke="midnightblue" d="M274.35,-257.48C247.96,-248.7 206.1,-234.79 172.78,-223.71"/>
<polygon fill="midnightblue" stroke="midnightblue" points="173.78,-220.36 163.19,-220.52 171.57,-227 173.78,-220.36"/>
</g>
<!-- Node11&#45;&gt;Node2 -->
<g id="edge12" class="edge">
<title>Node11&#45;&gt;Node2</title>
<path fill="none" stroke="midnightblue" d="M116.29,-190.27C104.89,-155.8 75.79,-67.81 63.09,-29.4"/>
<polygon fill="midnightblue" stroke="midnightblue" points="66.3,-27.97 59.84,-19.58 59.65,-30.17 66.3,-27.97"/>
</g>
<!-- Node11&#45;&gt;Node9 -->
<g id="edge13" class="edge">
<title>Node11&#45;&gt;Node9</title>
<path fill="none" stroke="midnightblue" d="M176.23,-192.12C233.88,-179.2 322.76,-159.28 372.99,-148.02"/>
<polygon fill="midnightblue" stroke="midnightblue" points="373.81,-151.42 382.81,-145.82 372.28,-144.59 373.81,-151.42"/>
</g>
<!-- Node11&#45;&gt;Node10 -->
<g id="edge17" class="edge">
<title>Node11&#45;&gt;Node10</title>
<path fill="none" stroke="midnightblue" d="M174.81,-190.41C209.05,-180.48 249.28,-166.75 262,-154 277.36,-138.61 284.62,-114.56 288.03,-96.57"/>
<polygon fill="midnightblue" stroke="midnightblue" points="291.51,-96.97 289.66,-86.54 284.6,-95.84 291.51,-96.97"/>
</g>
<!-- Node12 -->
<g id="node12" class="node">
<title>Node12</title>
<g id="a_node12"><a xlink:href="_simple_subscriber_8h.html" target="_top" xlink:title=" ">
<polygon fill="none" stroke="black" points="104.5,-56.5 104.5,-86.5 217.5,-86.5 217.5,-56.5 104.5,-56.5"/>
<text text-anchor="start" x="112.5" y="-74.5" font-family="Helvetica,sans-Serif" font-size="10.00">../../core&#45;lib/include</text>
<text text-anchor="middle" x="161" y="-63.5" font-family="Helvetica,sans-Serif" font-size="10.00">/SimpleSubscriber.h</text>
</a>
</g>
</g>
<!-- Node11&#45;&gt;Node12 -->
<g id="edge14" class="edge">
<title>Node11&#45;&gt;Node12</title>
<path fill="none" stroke="midnightblue" d="M123.54,-190.47C126.67,-174.07 132.52,-146.23 140,-123 142.89,-114.04 146.69,-104.44 150.26,-96.04"/>
<polygon fill="midnightblue" stroke="midnightblue" points="153.48,-97.41 154.29,-86.85 147.07,-94.6 153.48,-97.41"/>
</g>
<!-- Node14 -->
<g id="node14" class="node">
<title>Node14</title>
<g id="a_node14"><a xlink:href="_bot_8h.html" target="_top" xlink:title=" ">
<polygon fill="none" stroke="black" points="149,-123.5 149,-153.5 253,-153.5 253,-123.5 149,-123.5"/>
<text text-anchor="start" x="157" y="-141.5" font-family="Helvetica,sans-Serif" font-size="10.00">../../bot&#45;lib/include</text>
<text text-anchor="middle" x="201" y="-130.5" font-family="Helvetica,sans-Serif" font-size="10.00">/Bot.h</text>
</a>
</g>
</g>
<!-- Node11&#45;&gt;Node14 -->
<g id="edge18" class="edge">
<title>Node11&#45;&gt;Node14</title>
<path fill="none" stroke="midnightblue" d="M138.36,-190.4C149.26,-181.54 163.51,-169.96 175.66,-160.09"/>
<polygon fill="midnightblue" stroke="midnightblue" points="178.12,-162.6 183.68,-153.58 173.71,-157.17 178.12,-162.6"/>
</g>
<!-- Node12&#45;&gt;Node2 -->
<g id="edge16" class="edge">
<title>Node12&#45;&gt;Node2</title>
<path fill="none" stroke="midnightblue" d="M136.35,-56.4C119.68,-46.86 97.77,-34.32 81.19,-24.84"/>
<polygon fill="midnightblue" stroke="midnightblue" points="82.55,-21.59 72.13,-19.66 79.07,-27.66 82.55,-21.59"/>
</g>
<!-- Node13 -->
<g id="node13" class="node">
<title>Node13</title>
<g id="a_node13"><a xlink:title=" ">
<polygon fill="none" stroke="#bfbfbf" points="137.5,-0.5 137.5,-19.5 184.5,-19.5 184.5,-0.5 137.5,-0.5"/>
<text text-anchor="middle" x="161" y="-7.5" font-family="Helvetica,sans-Serif" font-size="10.00">vector</text>
</a>
</g>
</g>
<!-- Node12&#45;&gt;Node13 -->
<g id="edge15" class="edge">
<title>Node12&#45;&gt;Node13</title>
<path fill="none" stroke="midnightblue" d="M161,-56.4C161,-48.47 161,-38.46 161,-29.86"/>
<polygon fill="midnightblue" stroke="midnightblue" points="164.5,-29.66 161,-19.66 157.5,-29.66 164.5,-29.66"/>
</g>
<!-- Node14&#45;&gt;Node10 -->
<g id="edge19" class="edge">
<title>Node14&#45;&gt;Node10</title>
<path fill="none" stroke="midnightblue" d="M220.53,-123.4C233.03,-114.37 249.44,-102.51 263.28,-92.52"/>
<polygon fill="midnightblue" stroke="midnightblue" points="265.45,-95.27 271.51,-86.58 261.35,-89.59 265.45,-95.27"/>
</g>
<!-- Node14&#45;&gt;Node12 -->
<g id="edge20" class="edge">
<title>Node14&#45;&gt;Node12</title>
<path fill="none" stroke="midnightblue" d="M192.32,-123.4C187.24,-115.13 180.7,-104.51 174.91,-95.1"/>
<polygon fill="midnightblue" stroke="midnightblue" points="177.88,-93.26 169.66,-86.58 171.92,-96.93 177.88,-93.26"/>
</g>
</g>
</svg>
