<?xml version="1.0" encoding="UTF-8" standalone="no"?>
<!DOCTYPE svg PUBLIC "-//W3C//DTD SVG 1.1//EN"
 "http://www.w3.org/Graphics/SVG/1.1/DTD/svg11.dtd">
<!-- Generated by graphviz version 2.43.0 (0)
 -->
<!-- Title: /home/tomek/CLionProjects/proi/proi&#45;projekt/src/core&#45;lib/include/EventPublisher.h Pages: 1 -->
<svg width="275pt" height="218pt"
 viewBox="0.00 0.00 275.00 218.00" xmlns="http://www.w3.org/2000/svg" xmlns:xlink="http://www.w3.org/1999/xlink">
<g id="graph0" class="graph" transform="scale(1 1) rotate(0) translate(4 214)">
<title>/home/tomek/CLionProjects/proi/proi&#45;projekt/src/core&#45;lib/include/EventPublisher.h</title>
<!-- Node1 -->
<g id="node1" class="node">
<title>Node1</title>
<g id="a_node1"><a xlink:title=" ">
<polygon fill="#bfbfbf" stroke="black" points="7.5,-168.5 7.5,-209.5 186.5,-209.5 186.5,-168.5 7.5,-168.5"/>
<text text-anchor="start" x="15.5" y_="-197.5" font-family="Helvetica,sans-Serif" font-size="10.00">/home/tomek/CLionProjects</text>
<text text-anchor="start" x="15.5" y_="-186.5" font-family="Helvetica,sans-Serif" font-size="10.00">/proi/proi&#45;projekt/src</text>
<text text-anchor="middle" x="97" y_="-175.5" font-family="Helvetica,sans-Serif" font-size="10.00">/core&#45;lib/include/EventPublisher.h</text>
</a>
</g>
</g>
<!-- Node2 -->
<g id="node2" class="node">
<title>Node2</title>
<g id="a_node2"><a xlink:title=" ">
<polygon fill="none" stroke="#bfbfbf" points="0,-56.5 0,-75.5 38,-75.5 38,-56.5 0,-56.5"/>
<text text-anchor="middle" x="19" y_="-63.5" font-family="Helvetica,sans-Serif" font-size="10.00">map</text>
</a>
</g>
</g>
<!-- Node1&#45;&gt;Node2 -->
<g id="edge1" class="edge">
<title>Node1&#45;&gt;Node2</title>
<path fill="none" stroke="midnightblue" d="M84.29,-168.29C69.25,-144.96 44.44,-106.47 30.13,-84.26"/>
<polygon fill="midnightblue" stroke="midnightblue" points="32.89,-82.08 24.53,-75.57 27,-85.88 32.89,-82.08"/>
</g>
<!-- Node3 -->
<g id="node3" class="node">
<title>Node3</title>
<g id="a_node3"><a xlink:title=" ">
<polygon fill="none" stroke="#bfbfbf" points="56.5,-56.5 56.5,-75.5 103.5,-75.5 103.5,-56.5 56.5,-56.5"/>
<text text-anchor="middle" x="80" y_="-63.5" font-family="Helvetica,sans-Serif" font-size="10.00">vector</text>
</a>
</g>
</g>
<!-- Node1&#45;&gt;Node3 -->
<g id="edge2" class="edge">
<title>Node1&#45;&gt;Node3</title>
<path fill="none" stroke="midnightblue" d="M87.62,-168.28C83.14,-157.77 78.26,-144.46 76,-132 73.22,-116.68 74.59,-99.04 76.45,-86.01"/>
<polygon fill="midnightblue" stroke="midnightblue" points="79.94,-86.35 78.11,-75.91 73.03,-85.21 79.94,-86.35"/>
</g>
<!-- Node4 -->
<g id="node4" class="node">
<title>Node4</title>
<g id="a_node4"><a xlink:href="_event_8h.html" target="_top" xlink:title=" ">
<polygon fill="none" stroke="black" points="181.5,-56.5 181.5,-75.5 234.5,-75.5 234.5,-56.5 181.5,-56.5"/>
<text text-anchor="middle" x="208" y_="-63.5" font-family="Helvetica,sans-Serif" font-size="10.00">Event.h</text>
</a>
</g>
</g>
<!-- Node1&#45;&gt;Node4 -->
<g id="edge3" class="edge">
<title>Node1&#45;&gt;Node4</title>
<path fill="none" stroke="midnightblue" d="M152.62,-168.49C169.69,-159.86 186.88,-147.96 198,-132 207.28,-118.68 209.34,-100.1 209.33,-86.22"/>
<polygon fill="midnightblue" stroke="midnightblue" points="212.82,-85.75 208.95,-75.88 205.82,-86 212.82,-85.75"/>
</g>
<!-- Node7 -->
<g id="node7" class="node">
<title>Node7</title>
<g id="a_node7"><a xlink:href="_event_subscriber_8h.html" target="_top" xlink:title=" ">
<polygon fill="none" stroke="black" points="85,-112.5 85,-131.5 189,-131.5 189,-112.5 85,-112.5"/>
<text text-anchor="middle" x="137" y_="-119.5" font-family="Helvetica,sans-Serif" font-size="10.00">EventSubscriber.h</text>
</a>
</g>
</g>
<!-- Node1&#45;&gt;Node7 -->
<g id="edge6" class="edge">
<title>Node1&#45;&gt;Node7</title>
<path fill="none" stroke="midnightblue" d="M109,-168.5C114.54,-159.49 121.07,-148.89 126.42,-140.19"/>
<polygon fill="midnightblue" stroke="midnightblue" points="129.42,-142 131.68,-131.65 123.45,-138.33 129.42,-142"/>
</g>
<!-- Node5 -->
<g id="node5" class="node">
<title>Node5</title>
<g id="a_node5"><a xlink:title=" ">
<polygon fill="none" stroke="#bfbfbf" points="139.5,-0.5 139.5,-19.5 204.5,-19.5 204.5,-0.5 139.5,-0.5"/>
<text text-anchor="middle" x="172" y_="-7.5" font-family="Helvetica,sans-Serif" font-size="10.00">exception</text>
</a>
</g>
</g>
<!-- Node4&#45;&gt;Node5 -->
<g id="edge4" class="edge">
<title>Node4&#45;&gt;Node5</title>
<path fill="none" stroke="midnightblue" d="M202.06,-56.08C197.02,-48.53 189.66,-37.49 183.49,-28.23"/>
<polygon fill="midnightblue" stroke="midnightblue" points="186.29,-26.13 177.83,-19.75 180.47,-30.01 186.29,-26.13"/>
</g>
<!-- Node6 -->
<g id="node6" class="node">
<title>Node6</title>
<g id="a_node6"><a xlink:title=" ">
<polygon fill="none" stroke="#bfbfbf" points="223,-0.5 223,-19.5 267,-19.5 267,-0.5 223,-0.5"/>
<text text-anchor="middle" x="245" y_="-7.5" font-family="Helvetica,sans-Serif" font-size="10.00">string</text>
</a>
</g>
</g>
<!-- Node4&#45;&gt;Node6 -->
<g id="edge5" class="edge">
<title>Node4&#45;&gt;Node6</title>
<path fill="none" stroke="midnightblue" d="M214.11,-56.08C219.28,-48.53 226.85,-37.49 233.19,-28.23"/>
<polygon fill="midnightblue" stroke="midnightblue" points="236.24,-29.98 239,-19.75 230.46,-26.02 236.24,-29.98"/>
</g>
<!-- Node7&#45;&gt;Node2 -->
<g id="edge7" class="edge">
<title>Node7&#45;&gt;Node2</title>
<path fill="none" stroke="midnightblue" d="M118.3,-112.44C99.06,-103.64 68.85,-89.81 46.8,-79.72"/>
<polygon fill="midnightblue" stroke="midnightblue" points="48.16,-76.5 37.61,-75.52 45.25,-82.86 48.16,-76.5"/>
</g>
<!-- Node7&#45;&gt;Node3 -->
<g id="edge8" class="edge">
<title>Node7&#45;&gt;Node3</title>
<path fill="none" stroke="midnightblue" d="M127.84,-112.32C119.5,-104.42 106.97,-92.55 96.82,-82.94"/>
<polygon fill="midnightblue" stroke="midnightblue" points="98.99,-80.17 89.32,-75.83 94.18,-85.25 98.99,-80.17"/>
</g>
<!-- Node7&#45;&gt;Node4 -->
<g id="edge10" class="edge">
<title>Node7&#45;&gt;Node4</title>
<path fill="none" stroke="midnightblue" d="M148.41,-112.32C159.11,-104.18 175.34,-91.84 188.16,-82.09"/>
<polygon fill="midnightblue" stroke="midnightblue" points="190.54,-84.67 196.39,-75.83 186.31,-79.1 190.54,-84.67"/>
</g>
<!-- Node8 -->
<g id="node8" class="node">
<title>Node8</title>
<g id="a_node8"><a xlink:title=" ">
<polygon fill="none" stroke="#bfbfbf" points="122,-56.5 122,-75.5 154,-75.5 154,-56.5 122,-56.5"/>
<text text-anchor="middle" x="138" y_="-63.5" font-family="Helvetica,sans-Serif" font-size="10.00">list</text>
</a>
</g>
</g>
<!-- Node7&#45;&gt;Node8 -->
<g id="edge9" class="edge">
<title>Node7&#45;&gt;Node8</title>
<path fill="none" stroke="midnightblue" d="M137.17,-112.08C137.3,-105.01 137.48,-94.86 137.65,-85.99"/>
<polygon fill="midnightblue" stroke="midnightblue" points="141.15,-85.81 137.84,-75.75 134.15,-85.68 141.15,-85.81"/>
</g>
</g>
</svg>
