<?xml version="1.0" encoding="UTF-8" standalone="no"?>
<!DOCTYPE svg PUBLIC "-//W3C//DTD SVG 1.1//EN"
 "http://www.w3.org/Graphics/SVG/1.1/DTD/svg11.dtd">
<!-- Generated by graphviz version 2.43.0 (0)
 -->
<!-- Title: /home/tomek/CLionProjects/proi/proi&#45;projekt/src/core&#45;lib/include/EventPublisher.h Pages: 1 -->
<!--zoomable 419 -->
<svg id="main" version="1.1" xmlns="http://www.w3.org/2000/svg" xmlns:xlink="http://www.w3.org/1999/xlink" xml:space="preserve" onload="init(evt)">
<style type="text/css"><![CDATA[
.edge:hover path { stroke: red; }
.edge:hover polygon { stroke: red; fill: red; }
]]></style>
<script type="text/javascript"><![CDATA[
var edges = document.getElementsByTagName('g');
if (edges && edges.length) {
  for (var i=0;i<edges.length;i++) {
    if (edges[i].id.substr(0,4)=='edge') {
      edges[i].setAttribute('class','edge');
    }
  }
}
]]></script>
        <defs>
                <circle id="rim" cx="0" cy="0" r="7"/>
                <circle id="rim2" cx="0" cy="0" r="3.5"/>
                <g id="zoomPlus">
                        <use xlink:href="#rim" target="_top" fill="#404040">
                                <set attributeName="fill" to="#808080" begin="zoomplus.mouseover" end="zoomplus.mouseout"/>
                        </use>
                        <path d="M-4,0h8M0,-4v8" fill="none" stroke="white" stroke-width="1.5" pointer-events="none"/>
                </g>
                <g id="zoomMin">
                        <use xlink:href="#rim" target="_top" fill="#404040">
                                <set attributeName="fill" to="#808080" begin="zoomminus.mouseover" end="zoomminus.mouseout"/>
                        </use>
                        <path d="M-4,0h8" fill="none" stroke="white" stroke-width="1.5" pointer-events="none"/>
                </g>
                <g id="dirArrow">
                        <path fill="none" stroke="white" stroke-width="1.5" d="M0,-3.0v7 M-2.5,-0.5L0,-3.0L2.5,-0.5"/>
                </g>
               <g id="resetDef">
                       <use xlink:href="#rim2" target="_top" fill="#404040">
                               <set attributeName="fill" to="#808080" begin="reset.mouseover" end="reset.mouseout"/>
                       </use>
               </g>
        </defs>

<script type="text/javascript">
var viewWidth = 763;
var viewHeight = 419;
var sectionId = 'dynsection-0';
</script>
<script xlink:href="svgpan.js" target="_top"/>
<svg id="graph" class="graph">
<g id="viewport">
<title>/home/tomek/CLionProjects/proi/proi&#45;projekt/src/core&#45;lib/include/EventPublisher.h</title>
<!-- Node1 -->
<g id="node1" class="node">
<title>Node1</title>
<g id="a_node1"><a xlink:title=" ">
<polygon fill="#bfbfbf" stroke="black" points="0,-369.5 0,-410.5 179,-410.5 179,-369.5 0,-369.5"/>
<text text-anchor="start" x="8" y="-398.5" font-family="Helvetica,sans-Serif" font-size="10.00">/home/tomek/CLionProjects</text>
<text text-anchor="start" x="8" y="-387.5" font-family="Helvetica,sans-Serif" font-size="10.00">/proi/proi&#45;projekt/src</text>
<text text-anchor="middle" x="89.5" y="-376.5" font-family="Helvetica,sans-Serif" font-size="10.00">/core&#45;lib/include/EventPublisher.h</text>
</a>
</g>
</g>
<!-- Node2 -->
<g id="node2" class="node">
<title>Node2</title>
<g id="a_node2"><a xlink:title=" ">
<polygon fill="none" stroke="#bfbfbf" points="30.5,-257.5 30.5,-276.5 68.5,-276.5 68.5,-257.5 30.5,-257.5"/>
<text text-anchor="middle" x="49.5" y="-264.5" font-family="Helvetica,sans-Serif" font-size="10.00">map</text>
</a>
</g>
</g>
<!-- Node1&#45;&gt;Node2 -->
<g id="edge1" class="edge">
<title>Node1&#45;&gt;Node2</title>
<path fill="none" stroke="midnightblue" d="M81.75,-369.43C77.62,-358.74 72.57,-345.22 68.5,-333 63.33,-317.49 58.17,-299.65 54.54,-286.59"/>
<polygon fill="midnightblue" stroke="midnightblue" points="57.9,-285.61 51.87,-276.9 51.15,-287.47 57.9,-285.61"/>
</g>
<!-- Node3 -->
<g id="node3" class="node">
<title>Node3</title>
<g id="a_node3"><a xlink:title=" ">
<polygon fill="none" stroke="#bfbfbf" points="73,-0.5 73,-19.5 120,-19.5 120,-0.5 73,-0.5"/>
<text text-anchor="middle" x="96.5" y="-7.5" font-family="Helvetica,sans-Serif" font-size="10.00">vector</text>
</a>
</g>
</g>
<!-- Node1&#45;&gt;Node3 -->
<g id="edge2" class="edge">
<title>Node1&#45;&gt;Node3</title>
<path fill="none" stroke="midnightblue" d="M63.4,-369.39C37.77,-347.7 2.5,-310.17 2.5,-268 2.5,-268 2.5,-268 2.5,-137.5 2.5,-89.11 47.36,-47.2 75.1,-25.92"/>
<polygon fill="midnightblue" stroke="midnightblue" points="77.48,-28.52 83.43,-19.75 73.31,-22.89 77.48,-28.52"/>
</g>
<!-- Node4 -->
<g id="node4" class="node">
<title>Node4</title>
<g id="a_node4"><a xlink:href="_event_8h.html" target="_top" target="_top" xlink:title=" ">
<polygon fill="none" stroke="black" points="275,-257.5 275,-276.5 328,-276.5 328,-257.5 275,-257.5"/>
<text text-anchor="middle" x="301.5" y="-264.5" font-family="Helvetica,sans-Serif" font-size="10.00">Event.h</text>
</a>
</g>
</g>
<!-- Node1&#45;&gt;Node4 -->
<g id="edge3" class="edge">
<title>Node1&#45;&gt;Node4</title>
<path fill="none" stroke="midnightblue" d="M125.61,-369.25C144.92,-358.62 169.07,-345.21 190.5,-333 221.06,-315.58 256.03,-294.99 278.42,-281.73"/>
<polygon fill="midnightblue" stroke="midnightblue" points="280.38,-284.64 287.19,-276.52 276.81,-278.61 280.38,-284.64"/>
</g>
<!-- Node15 -->
<g id="node15" class="node">
<title>Node15</title>
<g id="a_node15"><a xlink:href="_event_subscriber_8h.html" target="_top" target="_top" xlink:title=" ">
<polygon fill="none" stroke="black" points="77.5,-313.5 77.5,-332.5 181.5,-332.5 181.5,-313.5 77.5,-313.5"/>
<text text-anchor="middle" x="129.5" y="-320.5" font-family="Helvetica,sans-Serif" font-size="10.00">EventSubscriber.h</text>
</a>
</g>
</g>
<!-- Node1&#45;&gt;Node15 -->
<g id="edge21" class="edge">
<title>Node1&#45;&gt;Node15</title>
<path fill="none" stroke="midnightblue" d="M101.5,-369.5C107.04,-360.49 113.57,-349.89 118.92,-341.19"/>
<polygon fill="midnightblue" stroke="midnightblue" points="121.92,-343 124.18,-332.65 115.95,-339.33 121.92,-343"/>
</g>
<!-- Node5 -->
<g id="node5" class="node">
<title>Node5</title>
<g id="a_node5"><a xlink:title=" ">
<polygon fill="none" stroke="#bfbfbf" points="627,-196 627,-215 692,-215 692,-196 627,-196"/>
<text text-anchor="middle" x="659.5" y="-203" font-family="Helvetica,sans-Serif" font-size="10.00">exception</text>
</a>
</g>
</g>
<!-- Node4&#45;&gt;Node5 -->
<g id="edge4" class="edge">
<title>Node4&#45;&gt;Node5</title>
<path fill="none" stroke="midnightblue" d="M328.38,-263.53C382.59,-258.25 508.72,-244.37 612.5,-221 616.42,-220.12 620.48,-219.07 624.51,-217.95"/>
<polygon fill="midnightblue" stroke="midnightblue" points="625.72,-221.24 634.33,-215.06 623.75,-214.52 625.72,-221.24"/>
</g>
<!-- Node6 -->
<g id="node6" class="node">
<title>Node6</title>
<g id="a_node6"><a xlink:title=" ">
<polygon fill="none" stroke="#bfbfbf" points="710.5,-196 710.5,-215 754.5,-215 754.5,-196 710.5,-196"/>
<text text-anchor="middle" x="732.5" y="-203" font-family="Helvetica,sans-Serif" font-size="10.00">string</text>
</a>
</g>
</g>
<!-- Node4&#45;&gt;Node6 -->
<g id="edge5" class="edge">
<title>Node4&#45;&gt;Node6</title>
<path fill="none" stroke="midnightblue" d="M328.28,-265.96C393.44,-265.23 564.96,-259.49 701.5,-221 703.43,-220.46 705.39,-219.8 707.34,-219.08"/>
<polygon fill="midnightblue" stroke="midnightblue" points="708.96,-222.19 716.79,-215.05 706.22,-215.75 708.96,-222.19"/>
</g>
<!-- Node7 -->
<g id="node7" class="node">
<title>Node7</title>
<g id="a_node7"><a xlink:title=" ">
<polygon fill="none" stroke="#bfbfbf" points="531.5,-0.5 531.5,-19.5 589.5,-19.5 589.5,-0.5 531.5,-0.5"/>
<text text-anchor="middle" x="560.5" y="-7.5" font-family="Helvetica,sans-Serif" font-size="10.00">memory</text>
</a>
</g>
</g>
<!-- Node4&#45;&gt;Node7 -->
<g id="edge6" class="edge">
<title>Node4&#45;&gt;Node7</title>
<path fill="none" stroke="midnightblue" d="M328.3,-265.47C367.66,-263.49 441.97,-255.11 493.5,-221 550.23,-183.44 555.42,-153.95 567.5,-87 570.98,-67.69 568.1,-45.3 565.04,-29.84"/>
<polygon fill="midnightblue" stroke="midnightblue" points="568.44,-28.98 562.88,-19.96 561.6,-30.48 568.44,-28.98"/>
</g>
<!-- Node8 -->
<g id="node8" class="node">
<title>Node8</title>
<g id="a_node8"><a xlink:title=" ">
<polygon fill="none" stroke="#bfbfbf" points="125,-196 125,-215 176,-215 176,-196 125,-196"/>
<text text-anchor="middle" x="150.5" y="-203" font-family="Helvetica,sans-Serif" font-size="10.00">variant</text>
</a>
</g>
</g>
<!-- Node4&#45;&gt;Node8 -->
<g id="edge7" class="edge">
<title>Node4&#45;&gt;Node8</title>
<path fill="none" stroke="midnightblue" d="M278.77,-257.36C255.34,-248.41 217.78,-233.95 185.5,-221 183.86,-220.34 182.19,-219.67 180.49,-218.98"/>
<polygon fill="midnightblue" stroke="midnightblue" points="181.41,-215.57 170.83,-215.01 178.75,-222.05 181.41,-215.57"/>
</g>
<!-- Node9 -->
<g id="node9" class="node">
<title>Node9</title>
<g id="a_node9"><a xlink:title=" ">
<polygon fill="none" stroke="#bfbfbf" points="194.5,-196 194.5,-215 254.5,-215 254.5,-196 194.5,-196"/>
<text text-anchor="middle" x="224.5" y="-203" font-family="Helvetica,sans-Serif" font-size="10.00">iostream</text>
</a>
</g>
</g>
<!-- Node4&#45;&gt;Node9 -->
<g id="edge8" class="edge">
<title>Node4&#45;&gt;Node9</title>
<path fill="none" stroke="midnightblue" d="M290.47,-257.48C278.23,-248.02 258.27,-232.6 243.51,-221.19"/>
<polygon fill="midnightblue" stroke="midnightblue" points="245.56,-218.35 235.51,-215.01 241.28,-223.89 245.56,-218.35"/>
</g>
<!-- Node10 -->
<g id="node10" class="node">
<title>Node10</title>
<g id="a_node10"><a xlink:title=" ">
<polygon fill="none" stroke="#bfbfbf" points="278.5,-129 278.5,-148 334.5,-148 334.5,-129 278.5,-129"/>
<text text-anchor="middle" x="306.5" y="-136" font-family="Helvetica,sans-Serif" font-size="10.00">optional</text>
</a>
</g>
</g>
<!-- Node4&#45;&gt;Node10 -->
<g id="edge9" class="edge">
<title>Node4&#45;&gt;Node10</title>
<path fill="none" stroke="midnightblue" d="M301.84,-257.31C302.65,-236.99 304.66,-186.05 305.76,-158.28"/>
<polygon fill="midnightblue" stroke="midnightblue" points="309.26,-158.39 306.15,-148.26 302.26,-158.11 309.26,-158.39"/>
</g>
<!-- Node11 -->
<g id="node11" class="node">
<title>Node11</title>
<g id="a_node11"><a xlink:href="_entity_8h.html" target="_top" target="_top" xlink:title=" ">
<polygon fill="none" stroke="black" points="290.5,-56.5 290.5,-86.5 400.5,-86.5 400.5,-56.5 290.5,-56.5"/>
<text text-anchor="start" x="298.5" y="-74.5" font-family="Helvetica,sans-Serif" font-size="10.00">../../tank&#45;lib/include</text>
<text text-anchor="middle" x="345.5" y="-63.5" font-family="Helvetica,sans-Serif" font-size="10.00">/Entity.h</text>
</a>
</g>
</g>
<!-- Node4&#45;&gt;Node11 -->
<g id="edge10" class="edge">
<title>Node4&#45;&gt;Node11</title>
<path fill="none" stroke="midnightblue" d="M295.7,-257.39C280.9,-234.26 244.62,-169.41 269.5,-123 276.62,-109.73 288.93,-99.35 301.59,-91.54"/>
<polygon fill="midnightblue" stroke="midnightblue" points="303.4,-94.54 310.36,-86.55 299.94,-88.46 303.4,-94.54"/>
</g>
<!-- Node12 -->
<g id="node12" class="node">
<title>Node12</title>
<g id="a_node12"><a xlink:href="_tank_8h.html" target="_top" target="_top" xlink:title=" ">
<polygon fill="none" stroke="black" points="374.5,-190.5 374.5,-220.5 484.5,-220.5 484.5,-190.5 374.5,-190.5"/>
<text text-anchor="start" x="382.5" y="-208.5" font-family="Helvetica,sans-Serif" font-size="10.00">../../tank&#45;lib/include</text>
<text text-anchor="middle" x="429.5" y="-197.5" font-family="Helvetica,sans-Serif" font-size="10.00">/Tank.h</text>
</a>
</g>
</g>
<!-- Node4&#45;&gt;Node12 -->
<g id="edge11" class="edge">
<title>Node4&#45;&gt;Node12</title>
<path fill="none" stroke="midnightblue" d="M319.84,-257.48C338.07,-249 366.6,-235.74 390,-224.86"/>
<polygon fill="midnightblue" stroke="midnightblue" points="391.74,-227.91 399.33,-220.52 388.79,-221.56 391.74,-227.91"/>
</g>
<!-- Node12&#45;&gt;Node7 -->
<g id="edge12" class="edge">
<title>Node12&#45;&gt;Node7</title>
<path fill="none" stroke="midnightblue" d="M468.51,-190.32C486.24,-182.13 506.18,-170.19 519.5,-154 549.63,-117.37 557.63,-59.72 559.75,-30.04"/>
<polygon fill="midnightblue" stroke="midnightblue" points="563.25,-30 560.32,-19.82 556.26,-29.61 563.25,-30"/>
</g>
<!-- Node12&#45;&gt;Node10 -->
<g id="edge13" class="edge">
<title>Node12&#45;&gt;Node10</title>
<path fill="none" stroke="midnightblue" d="M402.81,-190.4C381.61,-179.19 352.18,-163.64 331.45,-152.69"/>
<polygon fill="midnightblue" stroke="midnightblue" points="333.07,-149.58 322.6,-148.01 329.8,-155.77 333.07,-149.58"/>
</g>
<!-- Node12&#45;&gt;Node11 -->
<g id="edge17" class="edge">
<title>Node12&#45;&gt;Node11</title>
<path fill="none" stroke="midnightblue" d="M413.31,-190.21C403.22,-180.69 390.49,-167.49 381.5,-154 369.42,-135.88 359.74,-113.04 353.47,-96.16"/>
<polygon fill="midnightblue" stroke="midnightblue" points="356.68,-94.74 350.02,-86.51 350.09,-97.1 356.68,-94.74"/>
</g>
<!-- Node13 -->
<g id="node13" class="node">
<title>Node13</title>
<g id="a_node13"><a xlink:href="_simple_subscriber_8h.html" target="_top" target="_top" xlink:title=" ">
<polygon fill="none" stroke="black" points="419,-56.5 419,-86.5 532,-86.5 532,-56.5 419,-56.5"/>
<text text-anchor="start" x="427" y="-74.5" font-family="Helvetica,sans-Serif" font-size="10.00">../../core&#45;lib/include</text>
<text text-anchor="middle" x="475.5" y="-63.5" font-family="Helvetica,sans-Serif" font-size="10.00">/SimpleSubscriber.h</text>
</a>
</g>
</g>
<!-- Node12&#45;&gt;Node13 -->
<g id="edge14" class="edge">
<title>Node12&#45;&gt;Node13</title>
<path fill="none" stroke="midnightblue" d="M463.35,-190.44C478.54,-182.23 494.93,-170.23 503.5,-154 513.46,-135.14 503.64,-112 492.98,-95.21"/>
<polygon fill="midnightblue" stroke="midnightblue" points="495.63,-92.87 487.1,-86.59 489.85,-96.82 495.63,-92.87"/>
</g>
<!-- Node14 -->
<g id="node14" class="node">
<title>Node14</title>
<g id="a_node14"><a xlink:href="_bot_8h.html" target="_top" target="_top" xlink:title=" ">
<polygon fill="none" stroke="black" points="390.5,-123.5 390.5,-153.5 494.5,-153.5 494.5,-123.5 390.5,-123.5"/>
<text text-anchor="start" x="398.5" y="-141.5" font-family="Helvetica,sans-Serif" font-size="10.00">../../bot&#45;lib/include</text>
<text text-anchor="middle" x="442.5" y="-130.5" font-family="Helvetica,sans-Serif" font-size="10.00">/Bot.h</text>
</a>
</g>
</g>
<!-- Node12&#45;&gt;Node14 -->
<g id="edge18" class="edge">
<title>Node12&#45;&gt;Node14</title>
<path fill="none" stroke="midnightblue" d="M432.32,-190.4C433.89,-182.56 435.88,-172.6 437.69,-163.57"/>
<polygon fill="midnightblue" stroke="midnightblue" points="441.16,-164.07 439.68,-153.58 434.29,-162.7 441.16,-164.07"/>
</g>
<!-- Node13&#45;&gt;Node3 -->
<g id="edge15" class="edge">
<title>Node13&#45;&gt;Node3</title>
<path fill="none" stroke="midnightblue" d="M418.67,-57.74C415.57,-57.13 412.5,-56.54 409.5,-56 308.31,-37.64 187.6,-22.05 130.13,-15.01"/>
<polygon fill="midnightblue" stroke="midnightblue" points="130.5,-11.53 120.15,-13.8 129.66,-18.48 130.5,-11.53"/>
</g>
<!-- Node13&#45;&gt;Node7 -->
<g id="edge16" class="edge">
<title>Node13&#45;&gt;Node7</title>
<path fill="none" stroke="midnightblue" d="M495.64,-56.4C508.89,-47.13 526.18,-35.03 539.58,-25.65"/>
<polygon fill="midnightblue" stroke="midnightblue" points="541.95,-28.26 548.13,-19.66 537.93,-22.53 541.95,-28.26"/>
</g>
<!-- Node14&#45;&gt;Node11 -->
<g id="edge19" class="edge">
<title>Node14&#45;&gt;Node11</title>
<path fill="none" stroke="midnightblue" d="M421.45,-123.4C407.85,-114.28 389.96,-102.29 374.95,-92.24"/>
<polygon fill="midnightblue" stroke="midnightblue" points="376.76,-89.24 366.51,-86.58 372.87,-95.05 376.76,-89.24"/>
</g>
<!-- Node14&#45;&gt;Node13 -->
<g id="edge20" class="edge">
<title>Node14&#45;&gt;Node13</title>
<path fill="none" stroke="midnightblue" d="M449.66,-123.4C453.77,-115.3 459.03,-104.94 463.73,-95.69"/>
<polygon fill="midnightblue" stroke="midnightblue" points="466.95,-97.08 468.35,-86.58 460.71,-93.91 466.95,-97.08"/>
</g>
<!-- Node15&#45;&gt;Node2 -->
<g id="edge22" class="edge">
<title>Node15&#45;&gt;Node2</title>
<path fill="none" stroke="midnightblue" d="M116.65,-313.32C104.28,-304.98 85.37,-292.21 70.76,-282.35"/>
<polygon fill="midnightblue" stroke="midnightblue" points="72.57,-279.35 62.32,-276.65 68.65,-285.15 72.57,-279.35"/>
</g>
<!-- Node15&#45;&gt;Node3 -->
<g id="edge23" class="edge">
<title>Node15&#45;&gt;Node3</title>
<path fill="none" stroke="midnightblue" d="M125.19,-313.26C116.24,-294.3 96.5,-247.79 96.5,-206.5 96.5,-206.5 96.5,-206.5 96.5,-137.5 96.5,-99.2 96.5,-54.38 96.5,-29.7"/>
<polygon fill="midnightblue" stroke="midnightblue" points="100,-29.59 96.5,-19.59 93,-29.59 100,-29.59"/>
</g>
<!-- Node15&#45;&gt;Node4 -->
<g id="edge25" class="edge">
<title>Node15&#45;&gt;Node4</title>
<path fill="none" stroke="midnightblue" d="M156.75,-313.44C186.11,-304.23 232.97,-289.52 265.38,-279.34"/>
<polygon fill="midnightblue" stroke="midnightblue" points="266.45,-282.67 274.94,-276.34 264.35,-276 266.45,-282.67"/>
</g>
<!-- Node16 -->
<g id="node16" class="node">
<title>Node16</title>
<g id="a_node16"><a xlink:title=" ">
<polygon fill="none" stroke="#bfbfbf" points="124.5,-257.5 124.5,-276.5 156.5,-276.5 156.5,-257.5 124.5,-257.5"/>
<text text-anchor="middle" x="140.5" y="-264.5" font-family="Helvetica,sans-Serif" font-size="10.00">list</text>
</a>
</g>
</g>
<!-- Node15&#45;&gt;Node16 -->
<g id="edge24" class="edge">
<title>Node15&#45;&gt;Node16</title>
<path fill="none" stroke="midnightblue" d="M131.32,-313.08C132.77,-305.93 134.87,-295.64 136.69,-286.69"/>
<polygon fill="midnightblue" stroke="midnightblue" points="140.15,-287.25 138.72,-276.75 133.29,-285.85 140.15,-287.25"/>
</g>
</g>
</svg>
        <g id="navigator" transform="translate(0 0)" fill="#404254">
                <rect fill="#f2f5e9" fill-opacity="0.5" stroke="#606060" stroke-width=".5" x="0" y="0" width="60" height="60"/>
                <use id="zoomplus" xlink:href="#zoomPlus" target="_top" x="17" y="9" onmousedown="handleZoom(evt,'in')"/>
                <use id="zoomminus" xlink:href="#zoomMin" target="_top" x="42" y="9" onmousedown="handleZoom(evt,'out')"/>
                <use id="reset" xlink:href="#resetDef" target="_top" x="30" y="36" onmousedown="handleReset()"/>
                <g id="arrowUp" xlink:href="#dirArrow" target="_top" transform="translate(30 24)" onmousedown="handlePan(0,-1)">
                  <use xlink:href="#rim" target="_top" fill="#404040">
                        <set attributeName="fill" to="#808080" begin="arrowUp.mouseover" end="arrowUp.mouseout"/>
                  </use>
                  <path fill="none" stroke="white" stroke-width="1.5" d="M0,-3.0v7 M-2.5,-0.5L0,-3.0L2.5,-0.5"/>
                </g>
                <g id="arrowRight" xlink:href="#dirArrow" target="_top" transform="rotate(90) translate(36 -43)" onmousedown="handlePan(1,0)">
                  <use xlink:href="#rim" target="_top" fill="#404040">
                        <set attributeName="fill" to="#808080" begin="arrowRight.mouseover" end="arrowRight.mouseout"/>
                  </use>
                  <path fill="none" stroke="white" stroke-width="1.5" d="M0,-3.0v7 M-2.5,-0.5L0,-3.0L2.5,-0.5"/>
                </g>
                <g id="arrowDown" xlink:href="#dirArrow" target="_top" transform="rotate(180) translate(-30 -48)" onmousedown="handlePan(0,1)">
                  <use xlink:href="#rim" target="_top" fill="#404040">
                        <set attributeName="fill" to="#808080" begin="arrowDown.mouseover" end="arrowDown.mouseout"/>
                  </use>
                  <path fill="none" stroke="white" stroke-width="1.5" d="M0,-3.0v7 M-2.5,-0.5L0,-3.0L2.5,-0.5"/>
                </g>
                <g id="arrowLeft" xlink:href="#dirArrow" target="_top" transform="rotate(270) translate(-36 17)" onmousedown="handlePan(-1,0)">
                  <use xlink:href="#rim" target="_top" fill="#404040">
                        <set attributeName="fill" to="#808080" begin="arrowLeft.mouseover" end="arrowLeft.mouseout"/>
                  </use>
                  <path fill="none" stroke="white" stroke-width="1.5" d="M0,-3.0v7 M-2.5,-0.5L0,-3.0L2.5,-0.5"/>
                </g>
        </g>
        <svg viewBox="0 0 15 15" width="100%" height="30px" preserveAspectRatio="xMaxYMin meet">
         <g id="arrow_out" transform="scale(0.3 0.3)">
          <a xlink:href="_event_publisher_8h__incl_org.svg" target="_top" target="_base">
           <rect id="button" ry="5" rx="5" y="6" x="6" height="38" width="38"
                fill="#f2f5e9" fill-opacity="0.5" stroke="#606060" stroke-width="1.0"/>
           <path id="arrow"
             d="M 11.500037,31.436501 C 11.940474,20.09759 22.043105,11.32322 32.158766,21.979434 L 37.068811,17.246167 C 37.068811,17.246167 37.088388,32 37.088388,32 L 22.160133,31.978069 C 22.160133,31.978069 26.997745,27.140456 26.997745,27.140456 C 18.528582,18.264221 13.291696,25.230495 11.500037,31.436501 z"
             style="fill:#404040;"/>
          </a>
         </g>
        </svg>
</svg>
