<?xml version="1.0" encoding="UTF-8" standalone="no"?>
<!DOCTYPE svg PUBLIC "-//W3C//DTD SVG 1.1//EN"
 "http://www.w3.org/Graphics/SVG/1.1/DTD/svg11.dtd">
<!-- Generated by graphviz version 2.43.0 (0)
 -->
<!-- Title: /home/tomek/CLionProjects/proi/proi&#45;projekt/src/core&#45;lib/include/EventPublisher.h Pages: 1 -->
<svg width="726pt" height="419pt"
 viewBox="0.00 0.00 726.11 419.00" xmlns="http://www.w3.org/2000/svg" xmlns:xlink="http://www.w3.org/1999/xlink">
<g id="graph0" class="graph" transform="scale(1 1) rotate(0) translate(4 415)">
<title>/home/tomek/CLionProjects/proi/proi&#45;projekt/src/core&#45;lib/include/EventPublisher.h</title>
<!-- Node1 -->
<g id="node1" class="node">
<title>Node1</title>
<g id="a_node1"><a xlink:title=" ">
<polygon fill="#bfbfbf" stroke="black" points="0,-369.5 0,-410.5 179,-410.5 179,-369.5 0,-369.5"/>
<text text-anchor="start" x="8" y="-398.5" font-family="Helvetica,sans-Serif" font-size="10.00">/home/tomek/CLionProjects</text>
<text text-anchor="start" x="8" y="-387.5" font-family="Helvetica,sans-Serif" font-size="10.00">/proi/proi&#45;projekt/src</text>
<text text-anchor="middle" x="89.5" y="-376.5" font-family="Helvetica,sans-Serif" font-size="10.00">/core&#45;lib/include/EventPublisher.h</text>
</a>
</g>
</g>
<!-- Node2 -->
<g id="node2" class="node">
<title>Node2</title>
<g id="a_node2"><a xlink:title=" ">
<polygon fill="none" stroke="#bfbfbf" points="30.5,-257.5 30.5,-276.5 68.5,-276.5 68.5,-257.5 30.5,-257.5"/>
<text text-anchor="middle" x="49.5" y="-264.5" font-family="Helvetica,sans-Serif" font-size="10.00">map</text>
</a>
</g>
</g>
<!-- Node1&#45;&gt;Node2 -->
<g id="edge1" class="edge">
<title>Node1&#45;&gt;Node2</title>
<path fill="none" stroke="midnightblue" d="M81.75,-369.43C77.62,-358.74 72.57,-345.22 68.5,-333 63.33,-317.49 58.17,-299.65 54.54,-286.59"/>
<polygon fill="midnightblue" stroke="midnightblue" points="57.9,-285.61 51.87,-276.9 51.15,-287.47 57.9,-285.61"/>
</g>
<!-- Node3 -->
<g id="node3" class="node">
<title>Node3</title>
<g id="a_node3"><a xlink:title=" ">
<polygon fill="none" stroke="#bfbfbf" points="123,-0.5 123,-19.5 170,-19.5 170,-0.5 123,-0.5"/>
<text text-anchor="middle" x="146.5" y="-7.5" font-family="Helvetica,sans-Serif" font-size="10.00">vector</text>
</a>
</g>
</g>
<!-- Node1&#45;&gt;Node3 -->
<g id="edge2" class="edge">
<title>Node1&#45;&gt;Node3</title>
<path fill="none" stroke="midnightblue" d="M63.4,-369.39C37.77,-347.7 2.5,-310.17 2.5,-268 2.5,-268 2.5,-268 2.5,-137.5 2.5,-78.84 70.77,-40.99 113.3,-23.1"/>
<polygon fill="midnightblue" stroke="midnightblue" points="114.77,-26.28 122.72,-19.28 112.14,-19.79 114.77,-26.28"/>
</g>
<!-- Node4 -->
<g id="node4" class="node">
<title>Node4</title>
<g id="a_node4"><a xlink:href="_event_8h.html" target="_top" xlink:title=" ">
<polygon fill="none" stroke="black" points="481,-257.5 481,-276.5 534,-276.5 534,-257.5 481,-257.5"/>
<text text-anchor="middle" x="507.5" y="-264.5" font-family="Helvetica,sans-Serif" font-size="10.00">Event.h</text>
</a>
</g>
</g>
<!-- Node1&#45;&gt;Node4 -->
<g id="edge3" class="edge">
<title>Node1&#45;&gt;Node4</title>
<path fill="none" stroke="midnightblue" d="M157.12,-369.42C246.54,-343.54 400.94,-298.85 471.02,-278.56"/>
<polygon fill="midnightblue" stroke="midnightblue" points="472.1,-281.89 480.73,-275.75 470.15,-275.17 472.1,-281.89"/>
</g>
<!-- Node14 -->
<g id="node14" class="node">
<title>Node14</title>
<g id="a_node14"><a xlink:href="_event_subscriber_8h.html" target="_top" xlink:title=" ">
<polygon fill="none" stroke="black" points="77.5,-313.5 77.5,-332.5 181.5,-332.5 181.5,-313.5 77.5,-313.5"/>
<text text-anchor="middle" x="129.5" y="-320.5" font-family="Helvetica,sans-Serif" font-size="10.00">EventSubscriber.h</text>
</a>
</g>
</g>
<!-- Node1&#45;&gt;Node14 -->
<g id="edge19" class="edge">
<title>Node1&#45;&gt;Node14</title>
<path fill="none" stroke="midnightblue" d="M101.5,-369.5C107.04,-360.49 113.57,-349.89 118.92,-341.19"/>
<polygon fill="midnightblue" stroke="midnightblue" points="121.92,-343 124.18,-332.65 115.95,-339.33 121.92,-343"/>
</g>
<!-- Node5 -->
<g id="node5" class="node">
<title>Node5</title>
<g id="a_node5"><a xlink:title=" ">
<polygon fill="none" stroke="#bfbfbf" points="506,-196 506,-215 571,-215 571,-196 506,-196"/>
<text text-anchor="middle" x="538.5" y="-203" font-family="Helvetica,sans-Serif" font-size="10.00">exception</text>
</a>
</g>
</g>
<!-- Node4&#45;&gt;Node5 -->
<g id="edge4" class="edge">
<title>Node4&#45;&gt;Node5</title>
<path fill="none" stroke="midnightblue" d="M511.94,-257.48C516.45,-248.82 523.57,-235.15 529.31,-224.15"/>
<polygon fill="midnightblue" stroke="midnightblue" points="532.55,-225.49 534.07,-215.01 526.34,-222.26 532.55,-225.49"/>
</g>
<!-- Node6 -->
<g id="node6" class="node">
<title>Node6</title>
<g id="a_node6"><a xlink:title=" ">
<polygon fill="none" stroke="#bfbfbf" points="589.5,-196 589.5,-215 633.5,-215 633.5,-196 589.5,-196"/>
<text text-anchor="middle" x="611.5" y="-203" font-family="Helvetica,sans-Serif" font-size="10.00">string</text>
</a>
</g>
</g>
<!-- Node4&#45;&gt;Node6 -->
<g id="edge5" class="edge">
<title>Node4&#45;&gt;Node6</title>
<path fill="none" stroke="midnightblue" d="M522.4,-257.48C539.47,-247.71 567.66,-231.58 587.76,-220.08"/>
<polygon fill="midnightblue" stroke="midnightblue" points="589.69,-223.01 596.63,-215.01 586.21,-216.94 589.69,-223.01"/>
</g>
<!-- Node7 -->
<g id="node7" class="node">
<title>Node7</title>
<g id="a_node7"><a xlink:title=" ">
<polygon fill="none" stroke="#bfbfbf" points="315.5,-0.5 315.5,-19.5 373.5,-19.5 373.5,-0.5 315.5,-0.5"/>
<text text-anchor="middle" x="344.5" y="-7.5" font-family="Helvetica,sans-Serif" font-size="10.00">memory</text>
</a>
</g>
</g>
<!-- Node4&#45;&gt;Node7 -->
<g id="edge6" class="edge">
<title>Node4&#45;&gt;Node7</title>
<path fill="none" stroke="midnightblue" d="M534.34,-266.36C597.61,-266.12 748.22,-258.49 712.5,-190 647.81,-65.96 464.91,-26.84 383.93,-15.38"/>
<polygon fill="midnightblue" stroke="midnightblue" points="384.03,-11.86 373.66,-14 383.1,-18.8 384.03,-11.86"/>
</g>
<!-- Node8 -->
<g id="node8" class="node">
<title>Node8</title>
<g id="a_node8"><a xlink:title=" ">
<polygon fill="none" stroke="#bfbfbf" points="652,-196 652,-215 703,-215 703,-196 652,-196"/>
<text text-anchor="middle" x="677.5" y="-203" font-family="Helvetica,sans-Serif" font-size="10.00">variant</text>
</a>
</g>
</g>
<!-- Node4&#45;&gt;Node8 -->
<g id="edge7" class="edge">
<title>Node4&#45;&gt;Node8</title>
<path fill="none" stroke="midnightblue" d="M534.08,-257.75C561.45,-249.12 605.24,-234.91 642.5,-221 644.35,-220.31 646.24,-219.58 648.15,-218.84"/>
<polygon fill="midnightblue" stroke="midnightblue" points="649.64,-222.01 657.61,-215.03 647.02,-215.52 649.64,-222.01"/>
</g>
<!-- Node9 -->
<g id="node9" class="node">
<title>Node9</title>
<g id="a_node9"><a xlink:href="_entity_8h.html" target="_top" xlink:title=" ">
<polygon fill="none" stroke="black" points="401.5,-56.5 401.5,-86.5 511.5,-86.5 511.5,-56.5 401.5,-56.5"/>
<text text-anchor="start" x="409.5" y="-74.5" font-family="Helvetica,sans-Serif" font-size="10.00">../../tank&#45;lib/include</text>
<text text-anchor="middle" x="456.5" y="-63.5" font-family="Helvetica,sans-Serif" font-size="10.00">/Entity.h</text>
</a>
</g>
</g>
<!-- Node4&#45;&gt;Node9 -->
<g id="edge8" class="edge">
<title>Node4&#45;&gt;Node9</title>
<path fill="none" stroke="midnightblue" d="M505.24,-257.44C497.85,-229.39 474.2,-139.65 462.78,-96.34"/>
<polygon fill="midnightblue" stroke="midnightblue" points="466.16,-95.41 460.22,-86.63 459.39,-97.19 466.16,-95.41"/>
</g>
<!-- Node10 -->
<g id="node10" class="node">
<title>Node10</title>
<g id="a_node10"><a xlink:href="_tank_8h.html" target="_top" xlink:title=" ">
<polygon fill="none" stroke="black" points="306.5,-190.5 306.5,-220.5 416.5,-220.5 416.5,-190.5 306.5,-190.5"/>
<text text-anchor="start" x="314.5" y="-208.5" font-family="Helvetica,sans-Serif" font-size="10.00">../../tank&#45;lib/include</text>
<text text-anchor="middle" x="361.5" y="-197.5" font-family="Helvetica,sans-Serif" font-size="10.00">/Tank.h</text>
</a>
</g>
</g>
<!-- Node4&#45;&gt;Node10 -->
<g id="edge9" class="edge">
<title>Node4&#45;&gt;Node10</title>
<path fill="none" stroke="midnightblue" d="M486.58,-257.48C465.51,-248.89 432.37,-235.38 405.49,-224.43"/>
<polygon fill="midnightblue" stroke="midnightblue" points="406.49,-221.06 395.91,-220.52 403.85,-227.54 406.49,-221.06"/>
</g>
<!-- Node10&#45;&gt;Node7 -->
<g id="edge10" class="edge">
<title>Node10&#45;&gt;Node7</title>
<path fill="none" stroke="midnightblue" d="M360.25,-190.27C357.23,-155.94 349.56,-68.57 346.16,-29.9"/>
<polygon fill="midnightblue" stroke="midnightblue" points="349.62,-29.23 345.25,-19.58 342.64,-29.84 349.62,-29.23"/>
</g>
<!-- Node10&#45;&gt;Node9 -->
<g id="edge15" class="edge">
<title>Node10&#45;&gt;Node9</title>
<path fill="none" stroke="midnightblue" d="M393.5,-190.32C408.99,-181.89 426.57,-169.75 437.5,-154 449.12,-137.26 453.71,-114.39 455.49,-97.14"/>
<polygon fill="midnightblue" stroke="midnightblue" points="459.01,-96.98 456.29,-86.74 452.03,-96.44 459.01,-96.98"/>
</g>
<!-- Node11 -->
<g id="node11" class="node">
<title>Node11</title>
<g id="a_node11"><a xlink:title=" ">
<polygon fill="none" stroke="#bfbfbf" points="372.5,-129 372.5,-148 428.5,-148 428.5,-129 372.5,-129"/>
<text text-anchor="middle" x="400.5" y="-136" font-family="Helvetica,sans-Serif" font-size="10.00">optional</text>
</a>
</g>
</g>
<!-- Node10&#45;&gt;Node11 -->
<g id="edge11" class="edge">
<title>Node10&#45;&gt;Node11</title>
<path fill="none" stroke="midnightblue" d="M369.96,-190.4C375.86,-180.56 383.77,-167.38 390.06,-156.89"/>
<polygon fill="midnightblue" stroke="midnightblue" points="393.14,-158.57 395.28,-148.19 387.14,-154.97 393.14,-158.57"/>
</g>
<!-- Node12 -->
<g id="node12" class="node">
<title>Node12</title>
<g id="a_node12"><a xlink:href="_simple_subscriber_8h.html" target="_top" xlink:title=" ">
<polygon fill="none" stroke="black" points="189,-56.5 189,-86.5 302,-86.5 302,-56.5 189,-56.5"/>
<text text-anchor="start" x="197" y="-74.5" font-family="Helvetica,sans-Serif" font-size="10.00">../../core&#45;lib/include</text>
<text text-anchor="middle" x="245.5" y="-63.5" font-family="Helvetica,sans-Serif" font-size="10.00">/SimpleSubscriber.h</text>
</a>
</g>
</g>
<!-- Node10&#45;&gt;Node12 -->
<g id="edge12" class="edge">
<title>Node10&#45;&gt;Node12</title>
<path fill="none" stroke="midnightblue" d="M306.29,-202.61C270.7,-198.17 226.85,-185.98 203.5,-154 189.66,-135.05 205.69,-110.9 221.77,-93.82"/>
<polygon fill="midnightblue" stroke="midnightblue" points="224.48,-96.07 229.06,-86.51 219.52,-91.12 224.48,-96.07"/>
</g>
<!-- Node13 -->
<g id="node13" class="node">
<title>Node13</title>
<g id="a_node13"><a xlink:href="_bot_8h.html" target="_top" xlink:title=" ">
<polygon fill="none" stroke="black" points="212.5,-123.5 212.5,-153.5 316.5,-153.5 316.5,-123.5 212.5,-123.5"/>
<text text-anchor="start" x="220.5" y="-141.5" font-family="Helvetica,sans-Serif" font-size="10.00">../../bot&#45;lib/include</text>
<text text-anchor="middle" x="264.5" y="-130.5" font-family="Helvetica,sans-Serif" font-size="10.00">/Bot.h</text>
</a>
</g>
</g>
<!-- Node10&#45;&gt;Node13 -->
<g id="edge16" class="edge">
<title>Node10&#45;&gt;Node13</title>
<path fill="none" stroke="midnightblue" d="M340.45,-190.4C326.85,-181.28 308.96,-169.29 293.95,-159.24"/>
<polygon fill="midnightblue" stroke="midnightblue" points="295.76,-156.24 285.51,-153.58 291.87,-162.05 295.76,-156.24"/>
</g>
<!-- Node12&#45;&gt;Node3 -->
<g id="edge13" class="edge">
<title>Node12&#45;&gt;Node3</title>
<path fill="none" stroke="midnightblue" d="M222.04,-56.4C206.17,-46.86 185.31,-34.32 169.53,-24.84"/>
<polygon fill="midnightblue" stroke="midnightblue" points="171.28,-21.81 160.91,-19.66 167.67,-27.81 171.28,-21.81"/>
</g>
<!-- Node12&#45;&gt;Node7 -->
<g id="edge14" class="edge">
<title>Node12&#45;&gt;Node7</title>
<path fill="none" stroke="midnightblue" d="M268.96,-56.4C284.83,-46.86 305.69,-34.32 321.47,-24.84"/>
<polygon fill="midnightblue" stroke="midnightblue" points="323.33,-27.81 330.09,-19.66 319.72,-21.81 323.33,-27.81"/>
</g>
<!-- Node13&#45;&gt;Node9 -->
<g id="edge17" class="edge">
<title>Node13&#45;&gt;Node9</title>
<path fill="none" stroke="midnightblue" d="M306.16,-123.4C335.22,-113.56 374.19,-100.37 405.17,-89.88"/>
<polygon fill="midnightblue" stroke="midnightblue" points="406.57,-93.1 414.92,-86.58 404.33,-86.47 406.57,-93.1"/>
</g>
<!-- Node13&#45;&gt;Node12 -->
<g id="edge18" class="edge">
<title>Node13&#45;&gt;Node12</title>
<path fill="none" stroke="midnightblue" d="M260.38,-123.4C258.06,-115.47 255.11,-105.38 252.45,-96.27"/>
<polygon fill="midnightblue" stroke="midnightblue" points="255.78,-95.19 249.61,-86.58 249.06,-97.16 255.78,-95.19"/>
</g>
<!-- Node14&#45;&gt;Node2 -->
<g id="edge20" class="edge">
<title>Node14&#45;&gt;Node2</title>
<path fill="none" stroke="midnightblue" d="M116.65,-313.32C104.28,-304.98 85.37,-292.21 70.76,-282.35"/>
<polygon fill="midnightblue" stroke="midnightblue" points="72.57,-279.35 62.32,-276.65 68.65,-285.15 72.57,-279.35"/>
</g>
<!-- Node14&#45;&gt;Node3 -->
<g id="edge21" class="edge">
<title>Node14&#45;&gt;Node3</title>
<path fill="none" stroke="midnightblue" d="M131.65,-313.37C136.23,-294.25 146.5,-246.83 146.5,-206.5 146.5,-206.5 146.5,-206.5 146.5,-137.5 146.5,-99.2 146.5,-54.38 146.5,-29.7"/>
<polygon fill="midnightblue" stroke="midnightblue" points="150,-29.59 146.5,-19.59 143,-29.59 150,-29.59"/>
</g>
<!-- Node14&#45;&gt;Node4 -->
<g id="edge23" class="edge">
<title>Node14&#45;&gt;Node4</title>
<path fill="none" stroke="midnightblue" d="M181.66,-314.55C259.14,-303.48 402.73,-282.97 470.4,-273.3"/>
<polygon fill="midnightblue" stroke="midnightblue" points="471.18,-276.72 480.58,-271.85 470.19,-269.79 471.18,-276.72"/>
</g>
<!-- Node15 -->
<g id="node15" class="node">
<title>Node15</title>
<g id="a_node15"><a xlink:title=" ">
<polygon fill="none" stroke="#bfbfbf" points="86.5,-257.5 86.5,-276.5 118.5,-276.5 118.5,-257.5 86.5,-257.5"/>
<text text-anchor="middle" x="102.5" y="-264.5" font-family="Helvetica,sans-Serif" font-size="10.00">list</text>
</a>
</g>
</g>
<!-- Node14&#45;&gt;Node15 -->
<g id="edge22" class="edge">
<title>Node14&#45;&gt;Node15</title>
<path fill="none" stroke="midnightblue" d="M125.04,-313.08C121.35,-305.69 115.98,-294.95 111.41,-285.81"/>
<polygon fill="midnightblue" stroke="midnightblue" points="114.48,-284.13 106.88,-276.75 108.22,-287.26 114.48,-284.13"/>
</g>
</g>
</svg>
