<?xml version="1.0" encoding="UTF-8" standalone="no"?>
<!DOCTYPE svg PUBLIC "-//W3C//DTD SVG 1.1//EN"
 "http://www.w3.org/Graphics/SVG/1.1/DTD/svg11.dtd">
<!-- Generated by graphviz version 2.43.0 (0)
 -->
<!-- Title: /home/tomek/CLionProjects/proi/proi&#45;projekt/src/core&#45;lib/include/EventHandler.h Pages: 1 -->
<!--zoomable 475 -->
<svg id="main" version="1.1" xmlns="http://www.w3.org/2000/svg" xmlns:xlink="http://www.w3.org/1999/xlink" xml:space="preserve" onload="init(evt)">
<style type="text/css"><![CDATA[
.edge:hover path { stroke: red; }
.edge:hover polygon { stroke: red; fill: red; }
]]></style>
<script type="text/javascript"><![CDATA[
var edges = document.getElementsByTagName('g');
if (edges && edges.length) {
  for (var i=0;i<edges.length;i++) {
    if (edges[i].id.substr(0,4)=='edge') {
      edges[i].setAttribute('class','edge');
    }
  }
}
]]></script>
        <defs>
                <circle id="rim" cx="0" cy="0" r="7"/>
                <circle id="rim2" cx="0" cy="0" r="3.5"/>
                <g id="zoomPlus">
                        <use xlink:href="#rim" fill="#404040">
                                <set attributeName="fill" to="#808080" begin="zoomplus.mouseover" end="zoomplus.mouseout"/>
                        </use>
                        <path d="M-4,0h8M0,-4v8" fill="none" stroke="white" stroke-width="1.5" pointer-events="none"/>
                </g>
                <g id="zoomMin">
                        <use xlink:href="#rim" fill="#404040">
                                <set attributeName="fill" to="#808080" begin="zoomminus.mouseover" end="zoomminus.mouseout"/>
                        </use>
                        <path d="M-4,0h8" fill="none" stroke="white" stroke-width="1.5" pointer-events="none"/>
                </g>
                <g id="dirArrow">
                        <path fill="none" stroke="white" stroke-width="1.5" d="M0,-3.0v7 M-2.5,-0.5L0,-3.0L2.5,-0.5"/>
                </g>
               <g id="resetDef">
                       <use xlink:href="#rim2" fill="#404040">
                               <set attributeName="fill" to="#808080" begin="reset.mouseover" end="reset.mouseout"/>
                       </use>
               </g>
        </defs>

<script type="text/javascript">
var viewWidth = 607;
var viewHeight = 475;
var sectionId = 'dynsection-0';
</script>
<script xlink:href="svgpan.js"/>
<svg id="graph" class="graph">
<g id="viewport">
<title>/home/tomek/CLionProjects/proi/proi&#45;projekt/src/core&#45;lib/include/EventHandler.h</title>
<!-- Node1 -->
<g id="node1" class="node">
<title>Node1</title>
<g id="a_node1"><a xlink:title=" ">
<polygon fill="#bfbfbf" stroke="black" points="188,-425.5 188,-466.5 360,-466.5 360,-425.5 188,-425.5"/>
<text text-anchor="start" x="196" y="-454.5" font-family="Helvetica,sans-Serif" font-size="10.00">/home/tomek/CLionProjects</text>
<text text-anchor="start" x="196" y="-443.5" font-family="Helvetica,sans-Serif" font-size="10.00">/proi/proi&#45;projekt/src</text>
<text text-anchor="middle" x="274" y="-432.5" font-family="Helvetica,sans-Serif" font-size="10.00">/core&#45;lib/include/EventHandler.h</text>
</a>
</g>
</g>
<!-- Node2 -->
<g id="node2" class="node">
<title>Node2</title>
<g id="a_node2"><a xlink:title=" ">
<polygon fill="none" stroke="#bfbfbf" points="37,-0.5 37,-19.5 95,-19.5 95,-0.5 37,-0.5"/>
<text text-anchor="middle" x="66" y="-7.5" font-family="Helvetica,sans-Serif" font-size="10.00">memory</text>
</a>
</g>
</g>
<!-- Node1&#45;&gt;Node2 -->
<g id="edge1" class="edge">
<title>Node1&#45;&gt;Node2</title>
<path fill="none" stroke="midnightblue" d="M187.68,-441.85C107.37,-433.75 0,-407.33 0,-324 0,-324 0,-324 0,-137.5 0,-93.79 31.36,-50.24 50.84,-27.39"/>
<polygon fill="midnightblue" stroke="midnightblue" points="53.65,-29.5 57.64,-19.69 48.4,-24.87 53.65,-29.5"/>
</g>
<!-- Node3 -->
<g id="node3" class="node">
<title>Node3</title>
<g id="a_node3"><a xlink:href="_event_8h.html" target="_top" xlink:title=" ">
<polygon fill="none" stroke="black" points="247.5,-257.5 247.5,-276.5 300.5,-276.5 300.5,-257.5 247.5,-257.5"/>
<text text-anchor="middle" x="274" y="-264.5" font-family="Helvetica,sans-Serif" font-size="10.00">Event.h</text>
</a>
</g>
</g>
<!-- Node1&#45;&gt;Node3 -->
<g id="edge2" class="edge">
<title>Node1&#45;&gt;Node3</title>
<path fill="none" stroke="midnightblue" d="M274,-425.38C274,-391.08 274,-320.66 274,-286.88"/>
<polygon fill="midnightblue" stroke="midnightblue" points="277.5,-286.58 274,-276.58 270.5,-286.58 277.5,-286.58"/>
</g>
<!-- Node13 -->
<g id="node13" class="node">
<title>Node13</title>
<g id="a_node13"><a xlink:href="_event_publisher_8h.html" target="_top" xlink:title=" ">
<polygon fill="none" stroke="black" points="384,-369.5 384,-388.5 482,-388.5 482,-369.5 384,-369.5"/>
<text text-anchor="middle" x="433" y="-376.5" font-family="Helvetica,sans-Serif" font-size="10.00">EventPublisher.h</text>
</a>
</g>
</g>
<!-- Node1&#45;&gt;Node13 -->
<g id="edge18" class="edge">
<title>Node1&#45;&gt;Node13</title>
<path fill="none" stroke="midnightblue" d="M321.71,-425.5C347.84,-414.81 379.47,-401.89 402.31,-392.54"/>
<polygon fill="midnightblue" stroke="midnightblue" points="403.9,-395.68 411.83,-388.65 401.25,-389.2 403.9,-395.68"/>
</g>
<!-- Node3&#45;&gt;Node2 -->
<g id="edge5" class="edge">
<title>Node3&#45;&gt;Node2</title>
<path fill="none" stroke="midnightblue" d="M247.35,-264.54C194.77,-261.03 80.74,-250.17 57,-221 11.11,-164.62 42.09,-68.83 58.09,-29.1"/>
<polygon fill="midnightblue" stroke="midnightblue" points="61.33,-30.44 61.96,-19.86 54.87,-27.73 61.33,-30.44"/>
</g>
<!-- Node4 -->
<g id="node4" class="node">
<title>Node4</title>
<g id="a_node4"><a xlink:title=" ">
<polygon fill="none" stroke="#bfbfbf" points="66.5,-196 66.5,-215 131.5,-215 131.5,-196 66.5,-196"/>
<text text-anchor="middle" x="99" y="-203" font-family="Helvetica,sans-Serif" font-size="10.00">exception</text>
</a>
</g>
</g>
<!-- Node3&#45;&gt;Node4 -->
<g id="edge3" class="edge">
<title>Node3&#45;&gt;Node4</title>
<path fill="none" stroke="midnightblue" d="M248.49,-257.42C221.7,-248.4 178.37,-233.77 141,-221 138.57,-220.17 136.07,-219.31 133.55,-218.45"/>
<polygon fill="midnightblue" stroke="midnightblue" points="134.46,-215.06 123.87,-215.11 132.18,-221.68 134.46,-215.06"/>
</g>
<!-- Node5 -->
<g id="node5" class="node">
<title>Node5</title>
<g id="a_node5"><a xlink:title=" ">
<polygon fill="none" stroke="#bfbfbf" points="150,-196 150,-215 194,-215 194,-196 150,-196"/>
<text text-anchor="middle" x="172" y="-203" font-family="Helvetica,sans-Serif" font-size="10.00">string</text>
</a>
</g>
</g>
<!-- Node3&#45;&gt;Node5 -->
<g id="edge4" class="edge">
<title>Node3&#45;&gt;Node5</title>
<path fill="none" stroke="midnightblue" d="M259.39,-257.48C242.65,-247.71 215,-231.58 195.28,-220.08"/>
<polygon fill="midnightblue" stroke="midnightblue" points="196.99,-217.02 186.59,-215.01 193.46,-223.07 196.99,-217.02"/>
</g>
<!-- Node6 -->
<g id="node6" class="node">
<title>Node6</title>
<g id="a_node6"><a xlink:title=" ">
<polygon fill="none" stroke="#bfbfbf" points="212.5,-196 212.5,-215 263.5,-215 263.5,-196 212.5,-196"/>
<text text-anchor="middle" x="238" y="-203" font-family="Helvetica,sans-Serif" font-size="10.00">variant</text>
</a>
</g>
</g>
<!-- Node3&#45;&gt;Node6 -->
<g id="edge6" class="edge">
<title>Node3&#45;&gt;Node6</title>
<path fill="none" stroke="midnightblue" d="M268.84,-257.48C263.55,-248.73 255.16,-234.87 248.47,-223.81"/>
<polygon fill="midnightblue" stroke="midnightblue" points="251.32,-221.75 243.15,-215.01 245.33,-225.38 251.32,-221.75"/>
</g>
<!-- Node7 -->
<g id="node7" class="node">
<title>Node7</title>
<g id="a_node7"><a xlink:href="_entity_8h.html" target="_top" xlink:title=" ">
<polygon fill="none" stroke="black" points="320,-56.5 320,-86.5 430,-86.5 430,-56.5 320,-56.5"/>
<text text-anchor="start" x="328" y="-74.5" font-family="Helvetica,sans-Serif" font-size="10.00">../../tank&#45;lib/include</text>
<text text-anchor="middle" x="375" y="-63.5" font-family="Helvetica,sans-Serif" font-size="10.00">/Entity.h</text>
</a>
</g>
</g>
<!-- Node3&#45;&gt;Node7 -->
<g id="edge7" class="edge">
<title>Node3&#45;&gt;Node7</title>
<path fill="none" stroke="midnightblue" d="M300.66,-265.08C330.71,-262.44 378.32,-253.09 401,-221 427.69,-183.23 405.14,-126.84 388.62,-95.54"/>
<polygon fill="midnightblue" stroke="midnightblue" points="391.63,-93.75 383.74,-86.68 385.5,-97.13 391.63,-93.75"/>
</g>
<!-- Node8 -->
<g id="node8" class="node">
<title>Node8</title>
<g id="a_node8"><a xlink:href="_tank_8h.html" target="_top" xlink:title=" ">
<polygon fill="none" stroke="black" points="282,-190.5 282,-220.5 392,-220.5 392,-190.5 282,-190.5"/>
<text text-anchor="start" x="290" y="-208.5" font-family="Helvetica,sans-Serif" font-size="10.00">../../tank&#45;lib/include</text>
<text text-anchor="middle" x="337" y="-197.5" font-family="Helvetica,sans-Serif" font-size="10.00">/Tank.h</text>
</a>
</g>
</g>
<!-- Node3&#45;&gt;Node8 -->
<g id="edge8" class="edge">
<title>Node3&#45;&gt;Node8</title>
<path fill="none" stroke="midnightblue" d="M283.03,-257.48C291.24,-249.72 303.71,-237.94 314.59,-227.66"/>
<polygon fill="midnightblue" stroke="midnightblue" points="317.29,-229.93 322.15,-220.52 312.48,-224.84 317.29,-229.93"/>
</g>
<!-- Node8&#45;&gt;Node2 -->
<g id="edge9" class="edge">
<title>Node8&#45;&gt;Node2</title>
<path fill="none" stroke="midnightblue" d="M281.97,-191.07C233.2,-178.82 168.19,-161.54 158,-154 113.42,-121.01 84.73,-59.44 72.61,-28.99"/>
<polygon fill="midnightblue" stroke="midnightblue" points="75.87,-27.7 69.02,-19.62 69.33,-30.21 75.87,-27.7"/>
</g>
<!-- Node8&#45;&gt;Node7 -->
<g id="edge14" class="edge">
<title>Node8&#45;&gt;Node7</title>
<path fill="none" stroke="midnightblue" d="M345.83,-190.46C351.61,-180.62 358.84,-166.96 363,-154 368.97,-135.41 371.99,-113.48 373.5,-97.05"/>
<polygon fill="midnightblue" stroke="midnightblue" points="377.02,-96.91 374.33,-86.66 370.04,-96.35 377.02,-96.91"/>
</g>
<!-- Node9 -->
<g id="node9" class="node">
<title>Node9</title>
<g id="a_node9"><a xlink:title=" ">
<polygon fill="none" stroke="#bfbfbf" points="176,-129 176,-148 232,-148 232,-129 176,-129"/>
<text text-anchor="middle" x="204" y="-136" font-family="Helvetica,sans-Serif" font-size="10.00">optional</text>
</a>
</g>
</g>
<!-- Node8&#45;&gt;Node9 -->
<g id="edge10" class="edge">
<title>Node8&#45;&gt;Node9</title>
<path fill="none" stroke="midnightblue" d="M308.14,-190.4C285.11,-179.14 253.11,-163.5 230.68,-152.54"/>
<polygon fill="midnightblue" stroke="midnightblue" points="231.93,-149.25 221.41,-148.01 228.85,-155.54 231.93,-149.25"/>
</g>
<!-- Node10 -->
<g id="node10" class="node">
<title>Node10</title>
<g id="a_node10"><a xlink:href="_simple_subscriber_8h.html" target="_top" xlink:title=" ">
<polygon fill="none" stroke="black" points="155.5,-56.5 155.5,-86.5 268.5,-86.5 268.5,-56.5 155.5,-56.5"/>
<text text-anchor="start" x="163.5" y="-74.5" font-family="Helvetica,sans-Serif" font-size="10.00">../../core&#45;lib/include</text>
<text text-anchor="middle" x="212" y="-63.5" font-family="Helvetica,sans-Serif" font-size="10.00">/SimpleSubscriber.h</text>
</a>
</g>
</g>
<!-- Node8&#45;&gt;Node10 -->
<g id="edge11" class="edge">
<title>Node8&#45;&gt;Node10</title>
<path fill="none" stroke="midnightblue" d="M281.83,-191.59C234.95,-180.06 174.13,-163.56 167,-154 152.83,-135.01 169.64,-111.06 186.59,-94.04"/>
<polygon fill="midnightblue" stroke="midnightblue" points="189.43,-96.17 194.28,-86.76 184.61,-91.09 189.43,-96.17"/>
</g>
<!-- Node12 -->
<g id="node12" class="node">
<title>Node12</title>
<g id="a_node12"><a xlink:href="_bot_8h.html" target="_top" xlink:title=" ">
<polygon fill="none" stroke="black" points="250,-123.5 250,-153.5 354,-153.5 354,-123.5 250,-123.5"/>
<text text-anchor="start" x="258" y="-141.5" font-family="Helvetica,sans-Serif" font-size="10.00">../../bot&#45;lib/include</text>
<text text-anchor="middle" x="302" y="-130.5" font-family="Helvetica,sans-Serif" font-size="10.00">/Bot.h</text>
</a>
</g>
</g>
<!-- Node8&#45;&gt;Node12 -->
<g id="edge15" class="edge">
<title>Node8&#45;&gt;Node12</title>
<path fill="none" stroke="midnightblue" d="M329.41,-190.4C325,-182.22 319.35,-171.73 314.33,-162.39"/>
<polygon fill="midnightblue" stroke="midnightblue" points="317.4,-160.72 309.58,-153.58 311.24,-164.04 317.4,-160.72"/>
</g>
<!-- Node10&#45;&gt;Node2 -->
<g id="edge13" class="edge">
<title>Node10&#45;&gt;Node2</title>
<path fill="none" stroke="midnightblue" d="M177.4,-56.4C152.9,-46.42 120.34,-33.15 96.75,-23.53"/>
<polygon fill="midnightblue" stroke="midnightblue" points="97.83,-20.19 87.24,-19.66 95.18,-26.67 97.83,-20.19"/>
</g>
<!-- Node11 -->
<g id="node11" class="node">
<title>Node11</title>
<g id="a_node11"><a xlink:title=" ">
<polygon fill="none" stroke="#bfbfbf" points="434.5,-0.5 434.5,-19.5 481.5,-19.5 481.5,-0.5 434.5,-0.5"/>
<text text-anchor="middle" x="458" y="-7.5" font-family="Helvetica,sans-Serif" font-size="10.00">vector</text>
</a>
</g>
</g>
<!-- Node10&#45;&gt;Node11 -->
<g id="edge12" class="edge">
<title>Node10&#45;&gt;Node11</title>
<path fill="none" stroke="midnightblue" d="M268.75,-56.77C316.91,-45.12 384.4,-28.8 424.42,-19.12"/>
<polygon fill="midnightblue" stroke="midnightblue" points="425.31,-22.51 434.21,-16.75 423.67,-15.7 425.31,-22.51"/>
</g>
<!-- Node12&#45;&gt;Node7 -->
<g id="edge16" class="edge">
<title>Node12&#45;&gt;Node7</title>
<path fill="none" stroke="midnightblue" d="M317.84,-123.4C327.69,-114.62 340.54,-103.18 351.56,-93.37"/>
<polygon fill="midnightblue" stroke="midnightblue" points="354.05,-95.84 359.19,-86.58 349.4,-90.61 354.05,-95.84"/>
</g>
<!-- Node12&#45;&gt;Node10 -->
<g id="edge17" class="edge">
<title>Node12&#45;&gt;Node10</title>
<path fill="none" stroke="midnightblue" d="M282.47,-123.4C269.97,-114.37 253.56,-102.51 239.72,-92.52"/>
<polygon fill="midnightblue" stroke="midnightblue" points="241.65,-89.59 231.49,-86.58 237.55,-95.27 241.65,-89.59"/>
</g>
<!-- Node13&#45;&gt;Node3 -->
<g id="edge21" class="edge">
<title>Node13&#45;&gt;Node3</title>
<path fill="none" stroke="midnightblue" d="M420.52,-369.37C393.36,-350.57 328.59,-305.77 295.01,-282.53"/>
<polygon fill="midnightblue" stroke="midnightblue" points="296.63,-279.4 286.42,-276.59 292.65,-285.16 296.63,-279.4"/>
</g>
<!-- Node13&#45;&gt;Node11 -->
<g id="edge20" class="edge">
<title>Node13&#45;&gt;Node11</title>
<path fill="none" stroke="midnightblue" d="M433.59,-369.29C436.8,-322.19 452.1,-97.55 456.69,-30.16"/>
<polygon fill="midnightblue" stroke="midnightblue" points="460.21,-30.01 457.4,-19.79 453.23,-29.53 460.21,-30.01"/>
</g>
<!-- Node14 -->
<g id="node14" class="node">
<title>Node14</title>
<g id="a_node14"><a xlink:title=" ">
<polygon fill="none" stroke="#bfbfbf" points="561,-257.5 561,-276.5 599,-276.5 599,-257.5 561,-257.5"/>
<text text-anchor="middle" x="580" y="-264.5" font-family="Helvetica,sans-Serif" font-size="10.00">map</text>
</a>
</g>
</g>
<!-- Node13&#45;&gt;Node14 -->
<g id="edge19" class="edge">
<title>Node13&#45;&gt;Node14</title>
<path fill="none" stroke="midnightblue" d="M482.13,-375.61C513.4,-371.32 552.03,-360.34 574,-333 584.31,-320.17 584.85,-300.99 583.39,-286.78"/>
<polygon fill="midnightblue" stroke="midnightblue" points="586.83,-286.08 581.94,-276.68 579.9,-287.07 586.83,-286.08"/>
</g>
<!-- Node15 -->
<g id="node15" class="node">
<title>Node15</title>
<g id="a_node15"><a xlink:href="_event_subscriber_8h.html" target="_top" xlink:title=" ">
<polygon fill="none" stroke="black" points="461,-313.5 461,-332.5 565,-332.5 565,-313.5 461,-313.5"/>
<text text-anchor="middle" x="513" y="-320.5" font-family="Helvetica,sans-Serif" font-size="10.00">EventSubscriber.h</text>
</a>
</g>
</g>
<!-- Node13&#45;&gt;Node15 -->
<g id="edge22" class="edge">
<title>Node13&#45;&gt;Node15</title>
<path fill="none" stroke="midnightblue" d="M445.85,-369.32C458.22,-360.98 477.13,-348.21 491.74,-338.35"/>
<polygon fill="midnightblue" stroke="midnightblue" points="493.85,-341.15 500.18,-332.65 489.93,-335.35 493.85,-341.15"/>
</g>
<!-- Node15&#45;&gt;Node3 -->
<g id="edge26" class="edge">
<title>Node15&#45;&gt;Node3</title>
<path fill="none" stroke="midnightblue" d="M475.13,-313.44C429.95,-303.24 354.95,-286.29 310.42,-276.23"/>
<polygon fill="midnightblue" stroke="midnightblue" points="311.12,-272.8 300.59,-274.01 309.58,-279.63 311.12,-272.8"/>
</g>
<!-- Node15&#45;&gt;Node11 -->
<g id="edge24" class="edge">
<title>Node15&#45;&gt;Node11</title>
<path fill="none" stroke="midnightblue" d="M514.01,-313.32C516.17,-294.1 521,-246.5 521,-206.5 521,-206.5 521,-206.5 521,-137.5 521,-94.21 491.07,-50.49 472.47,-27.51"/>
<polygon fill="midnightblue" stroke="midnightblue" points="475.08,-25.18 465.98,-19.76 469.71,-29.67 475.08,-25.18"/>
</g>
<!-- Node15&#45;&gt;Node14 -->
<g id="edge23" class="edge">
<title>Node15&#45;&gt;Node14</title>
<path fill="none" stroke="midnightblue" d="M523.76,-313.32C533.77,-305.26 548.89,-293.08 560.93,-283.37"/>
<polygon fill="midnightblue" stroke="midnightblue" points="563.45,-285.83 569.04,-276.83 559.06,-280.38 563.45,-285.83"/>
</g>
<!-- Node16 -->
<g id="node16" class="node">
<title>Node16</title>
<g id="a_node16"><a xlink:title=" ">
<polygon fill="none" stroke="#bfbfbf" points="461,-257.5 461,-276.5 493,-276.5 493,-257.5 461,-257.5"/>
<text text-anchor="middle" x="477" y="-264.5" font-family="Helvetica,sans-Serif" font-size="10.00">list</text>
</a>
</g>
</g>
<!-- Node15&#45;&gt;Node16 -->
<g id="edge25" class="edge">
<title>Node15&#45;&gt;Node16</title>
<path fill="none" stroke="midnightblue" d="M507.06,-313.08C502.02,-305.53 494.66,-294.49 488.49,-285.23"/>
<polygon fill="midnightblue" stroke="midnightblue" points="491.29,-283.13 482.83,-276.75 485.47,-287.01 491.29,-283.13"/>
</g>
</g>
</svg>
        <g id="navigator" transform="translate(0 0)" fill="#404254">
                <rect fill="#f2f5e9" fill-opacity="0.5" stroke="#606060" stroke-width=".5" x="0" y="0" width="60" height="60"/>
                <use id="zoomplus" xlink:href="#zoomPlus" x="17" y="9" onmousedown="handleZoom(evt,'in')"/>
                <use id="zoomminus" xlink:href="#zoomMin" x="42" y="9" onmousedown="handleZoom(evt,'out')"/>
                <use id="reset" xlink:href="#resetDef" x="30" y="36" onmousedown="handleReset()"/>
                <g id="arrowUp" xlink:href="#dirArrow" transform="translate(30 24)" onmousedown="handlePan(0,-1)">
                  <use xlink:href="#rim" fill="#404040">
                        <set attributeName="fill" to="#808080" begin="arrowUp.mouseover" end="arrowUp.mouseout"/>
                  </use>
                  <path fill="none" stroke="white" stroke-width="1.5" d="M0,-3.0v7 M-2.5,-0.5L0,-3.0L2.5,-0.5"/>
                </g>
                <g id="arrowRight" xlink:href="#dirArrow" transform="rotate(90) translate(36 -43)" onmousedown="handlePan(1,0)">
                  <use xlink:href="#rim" fill="#404040">
                        <set attributeName="fill" to="#808080" begin="arrowRight.mouseover" end="arrowRight.mouseout"/>
                  </use>
                  <path fill="none" stroke="white" stroke-width="1.5" d="M0,-3.0v7 M-2.5,-0.5L0,-3.0L2.5,-0.5"/>
                </g>
                <g id="arrowDown" xlink:href="#dirArrow" transform="rotate(180) translate(-30 -48)" onmousedown="handlePan(0,1)">
                  <use xlink:href="#rim" fill="#404040">
                        <set attributeName="fill" to="#808080" begin="arrowDown.mouseover" end="arrowDown.mouseout"/>
                  </use>
                  <path fill="none" stroke="white" stroke-width="1.5" d="M0,-3.0v7 M-2.5,-0.5L0,-3.0L2.5,-0.5"/>
                </g>
                <g id="arrowLeft" xlink:href="#dirArrow" transform="rotate(270) translate(-36 17)" onmousedown="handlePan(-1,0)">
                  <use xlink:href="#rim" fill="#404040">
                        <set attributeName="fill" to="#808080" begin="arrowLeft.mouseover" end="arrowLeft.mouseout"/>
                  </use>
                  <path fill="none" stroke="white" stroke-width="1.5" d="M0,-3.0v7 M-2.5,-0.5L0,-3.0L2.5,-0.5"/>
                </g>
        </g>
        <svg viewBox="0 0 15 15" width="100%" height="30px" preserveAspectRatio="xMaxYMin meet">
         <g id="arrow_out" transform="scale(0.3 0.3)">
          <a xlink:href="_event_handler_8h__incl_org.svg" target="_base">
           <rect id="button" ry="5" rx="5" y="6" x="6" height="38" width="38"
                fill="#f2f5e9" fill-opacity="0.5" stroke="#606060" stroke-width="1.0"/>
           <path id="arrow"
             d="M 11.500037,31.436501 C 11.940474,20.09759 22.043105,11.32322 32.158766,21.979434 L 37.068811,17.246167 C 37.068811,17.246167 37.088388,32 37.088388,32 L 22.160133,31.978069 C 22.160133,31.978069 26.997745,27.140456 26.997745,27.140456 C 18.528582,18.264221 13.291696,25.230495 11.500037,31.436501 z"
             style="fill:#404040;"/>
          </a>
         </g>
        </svg>
</svg>
