<?xml version="1.0" encoding="UTF-8" standalone="no"?>
<!DOCTYPE svg PUBLIC "-//W3C//DTD SVG 1.1//EN"
 "http://www.w3.org/Graphics/SVG/1.1/DTD/svg11.dtd">
<!-- Generated by graphviz version 2.50.0 (0)
 -->
<!-- Title: /home/tomek/trash/battle&#45;city/src/lib/core&#45;lib/include/EventPublisher.h Pages: 1 -->
<!--zoomable 419 -->
<svg id="main" version="1.1" xmlns="http://www.w3.org/2000/svg" xmlns:xlink="http://www.w3.org/1999/xlink" xml:space="preserve" onload="init(evt)">
<style type="text/css"><![CDATA[
.edge:hover path { stroke: red; }
.edge:hover polygon { stroke: red; fill: red; }
]]></style>
<script type="text/javascript"><![CDATA[
var edges = document.getElementsByTagName('g');
if (edges && edges.length) {
  for (var i=0;i<edges.length;i++) {
    if (edges[i].id.substr(0,4)=='edge') {
      edges[i].setAttribute('class','edge');
    }
  }
}
]]></script>
        <defs>
                <circle id="rim" cx="0" cy="0" r="7"/>
                <circle id="rim2" cx="0" cy="0" r="3.5"/>
                <g id="zoomPlus">
                        <use xlink:href="#rim" fill="#404040">
                                <set attributeName="fill" to="#808080" begin="zoomplus.mouseover" end="zoomplus.mouseout"/>
                        </use>
                        <path d="M-4,0h8M0,-4v8" fill="none" stroke="white" stroke-width="1.5" pointer-events="none"/>
                </g>
                <g id="zoomMin">
                        <use xlink:href="#rim" fill="#404040">
                                <set attributeName="fill" to="#808080" begin="zoomminus.mouseover" end="zoomminus.mouseout"/>
                        </use>
                        <path d="M-4,0h8" fill="none" stroke="white" stroke-width="1.5" pointer-events="none"/>
                </g>
                <g id="dirArrow">
                        <path fill="none" stroke="white" stroke-width="1.5" d="M0,-3.0v7 M-2.5,-0.5L0,-3.0L2.5,-0.5"/>
                </g>
               <g id="resetDef">
                       <use xlink:href="#rim2" fill="#404040">
                               <set attributeName="fill" to="#808080" begin="reset.mouseover" end="reset.mouseout"/>
                       </use>
               </g>
        </defs>

<script type="text/javascript">
var viewWidth = 760;
var viewHeight = 419;
var sectionId = 'dynsection-0';
</script>
<script xlink:href="svgpan.js"/>
<svg id="graph" class="graph">
<g id="viewport">
<title>/home/tomek/trash/battle&#45;city/src/lib/core&#45;lib/include/EventPublisher.h</title>
<!-- Node1 -->
<g id="node1" class="node">
<title>Node1</title>
<g id="a_node1"><a xlink:title=" ">
<polygon fill="#bfbfbf" stroke="black" points="16.5,-369.5 16.5,-410.5 157.5,-410.5 157.5,-369.5 16.5,-369.5"/>
<text text-anchor="start" x="24.5" y="-398.5" font-family="Helvetica,sans-Serif" font-size="10.00">/home/tomek/trash/battle</text>
<text text-anchor="start" x="24.5" y="-387.5" font-family="Helvetica,sans-Serif" font-size="10.00">&#45;city/src/lib/core&#45;lib</text>
<text text-anchor="middle" x="87" y="-376.5" font-family="Helvetica,sans-Serif" font-size="10.00">/include/EventPublisher.h</text>
</a>
</g>
</g>
<!-- Node2 -->
<g id="node2" class="node">
<title>Node2</title>
<g id="a_node2"><a xlink:title=" ">
<polygon fill="none" stroke="#bfbfbf" points="28,-257.5 28,-276.5 66,-276.5 66,-257.5 28,-257.5"/>
<text text-anchor="middle" x="47" y="-264.5" font-family="Helvetica,sans-Serif" font-size="10.00">map</text>
</a>
</g>
</g>
<!-- Node1&#45;&gt;Node2 -->
<g id="edge1" class="edge">
<title>Node1&#45;&gt;Node2</title>
<path fill="none" stroke="midnightblue" d="M79.25,-369.43C75.12,-358.74 70.07,-345.22 66,-333 60.83,-317.49 55.67,-299.65 52.04,-286.59"/>
<polygon fill="midnightblue" stroke="midnightblue" points="55.4,-285.61 49.37,-276.9 48.65,-287.47 55.4,-285.61"/>
</g>
<!-- Node3 -->
<g id="node3" class="node">
<title>Node3</title>
<g id="a_node3"><a xlink:title=" ">
<polygon fill="none" stroke="#bfbfbf" points="70.5,-0.5 70.5,-19.5 117.5,-19.5 117.5,-0.5 70.5,-0.5"/>
<text text-anchor="middle" x="94" y="-7.5" font-family="Helvetica,sans-Serif" font-size="10.00">vector</text>
</a>
</g>
</g>
<!-- Node1&#45;&gt;Node3 -->
<g id="edge2" class="edge">
<title>Node1&#45;&gt;Node3</title>
<path fill="none" stroke="midnightblue" d="M60.9,-369.39C35.27,-347.7 0,-310.17 0,-268 0,-268 0,-268 0,-137.5 0,-89.11 44.86,-47.2 72.6,-25.92"/>
<polygon fill="midnightblue" stroke="midnightblue" points="74.98,-28.52 80.93,-19.75 70.81,-22.89 74.98,-28.52"/>
</g>
<!-- Node4 -->
<g id="node4" class="node">
<title>Node4</title>
<g id="a_node4"><a xlink:href="_event_8h.html" target="_top" xlink:title=" ">
<polygon fill="none" stroke="black" points="272.5,-257.5 272.5,-276.5 325.5,-276.5 325.5,-257.5 272.5,-257.5"/>
<text text-anchor="middle" x="299" y="-264.5" font-family="Helvetica,sans-Serif" font-size="10.00">Event.h</text>
</a>
</g>
</g>
<!-- Node1&#45;&gt;Node4 -->
<g id="edge3" class="edge">
<title>Node1&#45;&gt;Node4</title>
<path fill="none" stroke="midnightblue" d="M123.11,-369.25C142.42,-358.62 166.57,-345.21 188,-333 218.56,-315.58 253.53,-294.99 275.92,-281.73"/>
<polygon fill="midnightblue" stroke="midnightblue" points="277.88,-284.64 284.69,-276.52 274.31,-278.61 277.88,-284.64"/>
</g>
<!-- Node15 -->
<g id="node15" class="node">
<title>Node15</title>
<g id="a_node15"><a xlink:href="_event_subscriber_8h.html" target="_top" xlink:title=" ">
<polygon fill="none" stroke="black" points="75,-313.5 75,-332.5 179,-332.5 179,-313.5 75,-313.5"/>
<text text-anchor="middle" x="127" y="-320.5" font-family="Helvetica,sans-Serif" font-size="10.00">EventSubscriber.h</text>
</a>
</g>
</g>
<!-- Node1&#45;&gt;Node15 -->
<g id="edge21" class="edge">
<title>Node1&#45;&gt;Node15</title>
<path fill="none" stroke="midnightblue" d="M99,-369.5C104.54,-360.49 111.07,-349.89 116.42,-341.19"/>
<polygon fill="midnightblue" stroke="midnightblue" points="119.42,-343 121.68,-332.65 113.45,-339.33 119.42,-343"/>
</g>
<!-- Node5 -->
<g id="node5" class="node">
<title>Node5</title>
<g id="a_node5"><a xlink:title=" ">
<polygon fill="none" stroke="#bfbfbf" points="624.5,-196 624.5,-215 689.5,-215 689.5,-196 624.5,-196"/>
<text text-anchor="middle" x="657" y="-203" font-family="Helvetica,sans-Serif" font-size="10.00">exception</text>
</a>
</g>
</g>
<!-- Node4&#45;&gt;Node5 -->
<g id="edge4" class="edge">
<title>Node4&#45;&gt;Node5</title>
<path fill="none" stroke="midnightblue" d="M325.88,-263.53C380.09,-258.25 506.22,-244.37 610,-221 613.92,-220.12 617.98,-219.07 622.01,-217.95"/>
<polygon fill="midnightblue" stroke="midnightblue" points="623.22,-221.24 631.83,-215.06 621.25,-214.52 623.22,-221.24"/>
</g>
<!-- Node6 -->
<g id="node6" class="node">
<title>Node6</title>
<g id="a_node6"><a xlink:title=" ">
<polygon fill="none" stroke="#bfbfbf" points="708,-196 708,-215 752,-215 752,-196 708,-196"/>
<text text-anchor="middle" x="730" y="-203" font-family="Helvetica,sans-Serif" font-size="10.00">string</text>
</a>
</g>
</g>
<!-- Node4&#45;&gt;Node6 -->
<g id="edge5" class="edge">
<title>Node4&#45;&gt;Node6</title>
<path fill="none" stroke="midnightblue" d="M325.78,-265.96C390.94,-265.23 562.46,-259.49 699,-221 700.93,-220.46 702.89,-219.8 704.84,-219.08"/>
<polygon fill="midnightblue" stroke="midnightblue" points="706.46,-222.19 714.29,-215.05 703.72,-215.75 706.46,-222.19"/>
</g>
<!-- Node7 -->
<g id="node7" class="node">
<title>Node7</title>
<g id="a_node7"><a xlink:title=" ">
<polygon fill="none" stroke="#bfbfbf" points="529,-0.5 529,-19.5 587,-19.5 587,-0.5 529,-0.5"/>
<text text-anchor="middle" x="558" y="-7.5" font-family="Helvetica,sans-Serif" font-size="10.00">memory</text>
</a>
</g>
</g>
<!-- Node4&#45;&gt;Node7 -->
<g id="edge6" class="edge">
<title>Node4&#45;&gt;Node7</title>
<path fill="none" stroke="midnightblue" d="M325.8,-265.47C365.16,-263.49 439.47,-255.11 491,-221 547.73,-183.44 552.92,-153.95 565,-87 568.48,-67.69 565.6,-45.3 562.54,-29.84"/>
<polygon fill="midnightblue" stroke="midnightblue" points="565.94,-28.98 560.38,-19.96 559.1,-30.48 565.94,-28.98"/>
</g>
<!-- Node8 -->
<g id="node8" class="node">
<title>Node8</title>
<g id="a_node8"><a xlink:title=" ">
<polygon fill="none" stroke="#bfbfbf" points="122.5,-196 122.5,-215 173.5,-215 173.5,-196 122.5,-196"/>
<text text-anchor="middle" x="148" y="-203" font-family="Helvetica,sans-Serif" font-size="10.00">variant</text>
</a>
</g>
</g>
<!-- Node4&#45;&gt;Node8 -->
<g id="edge7" class="edge">
<title>Node4&#45;&gt;Node8</title>
<path fill="none" stroke="midnightblue" d="M276.27,-257.36C252.84,-248.41 215.28,-233.95 183,-221 181.36,-220.34 179.69,-219.67 177.99,-218.98"/>
<polygon fill="midnightblue" stroke="midnightblue" points="178.91,-215.57 168.33,-215.01 176.25,-222.05 178.91,-215.57"/>
</g>
<!-- Node9 -->
<g id="node9" class="node">
<title>Node9</title>
<g id="a_node9"><a xlink:title=" ">
<polygon fill="none" stroke="#bfbfbf" points="192,-196 192,-215 252,-215 252,-196 192,-196"/>
<text text-anchor="middle" x="222" y="-203" font-family="Helvetica,sans-Serif" font-size="10.00">iostream</text>
</a>
</g>
</g>
<!-- Node4&#45;&gt;Node9 -->
<g id="edge8" class="edge">
<title>Node4&#45;&gt;Node9</title>
<path fill="none" stroke="midnightblue" d="M287.97,-257.48C275.73,-248.02 255.77,-232.6 241.01,-221.19"/>
<polygon fill="midnightblue" stroke="midnightblue" points="243.06,-218.35 233.01,-215.01 238.78,-223.89 243.06,-218.35"/>
</g>
<!-- Node10 -->
<g id="node10" class="node">
<title>Node10</title>
<g id="a_node10"><a xlink:title=" ">
<polygon fill="none" stroke="#bfbfbf" points="276,-129 276,-148 332,-148 332,-129 276,-129"/>
<text text-anchor="middle" x="304" y="-136" font-family="Helvetica,sans-Serif" font-size="10.00">optional</text>
</a>
</g>
</g>
<!-- Node4&#45;&gt;Node10 -->
<g id="edge9" class="edge">
<title>Node4&#45;&gt;Node10</title>
<path fill="none" stroke="midnightblue" d="M299.34,-257.31C300.15,-236.99 302.16,-186.05 303.26,-158.28"/>
<polygon fill="midnightblue" stroke="midnightblue" points="306.76,-158.39 303.65,-148.26 299.76,-158.11 306.76,-158.39"/>
</g>
<!-- Node11 -->
<g id="node11" class="node">
<title>Node11</title>
<g id="a_node11"><a xlink:href="_entity_8h.html" target="_top" xlink:title=" ">
<polygon fill="none" stroke="black" points="288,-56.5 288,-86.5 398,-86.5 398,-56.5 288,-56.5"/>
<text text-anchor="start" x="296" y="-74.5" font-family="Helvetica,sans-Serif" font-size="10.00">../../tank&#45;lib/include</text>
<text text-anchor="middle" x="343" y="-63.5" font-family="Helvetica,sans-Serif" font-size="10.00">/Entity.h</text>
</a>
</g>
</g>
<!-- Node4&#45;&gt;Node11 -->
<g id="edge10" class="edge">
<title>Node4&#45;&gt;Node11</title>
<path fill="none" stroke="midnightblue" d="M293.2,-257.39C278.4,-234.26 242.12,-169.41 267,-123 274.12,-109.73 286.43,-99.35 299.09,-91.54"/>
<polygon fill="midnightblue" stroke="midnightblue" points="300.9,-94.54 307.86,-86.55 297.44,-88.46 300.9,-94.54"/>
</g>
<!-- Node12 -->
<g id="node12" class="node">
<title>Node12</title>
<g id="a_node12"><a xlink:href="_tank_8h.html" target="_top" xlink:title=" ">
<polygon fill="none" stroke="black" points="372,-190.5 372,-220.5 482,-220.5 482,-190.5 372,-190.5"/>
<text text-anchor="start" x="380" y="-208.5" font-family="Helvetica,sans-Serif" font-size="10.00">../../tank&#45;lib/include</text>
<text text-anchor="middle" x="427" y="-197.5" font-family="Helvetica,sans-Serif" font-size="10.00">/Tank.h</text>
</a>
</g>
</g>
<!-- Node4&#45;&gt;Node12 -->
<g id="edge11" class="edge">
<title>Node4&#45;&gt;Node12</title>
<path fill="none" stroke="midnightblue" d="M317.34,-257.48C335.57,-249 364.1,-235.74 387.5,-224.86"/>
<polygon fill="midnightblue" stroke="midnightblue" points="389.24,-227.91 396.83,-220.52 386.29,-221.56 389.24,-227.91"/>
</g>
<!-- Node12&#45;&gt;Node7 -->
<g id="edge12" class="edge">
<title>Node12&#45;&gt;Node7</title>
<path fill="none" stroke="midnightblue" d="M466.01,-190.32C483.74,-182.13 503.68,-170.19 517,-154 547.13,-117.37 555.13,-59.72 557.25,-30.04"/>
<polygon fill="midnightblue" stroke="midnightblue" points="560.75,-30 557.82,-19.82 553.76,-29.61 560.75,-30"/>
</g>
<!-- Node12&#45;&gt;Node10 -->
<g id="edge13" class="edge">
<title>Node12&#45;&gt;Node10</title>
<path fill="none" stroke="midnightblue" d="M400.31,-190.4C379.11,-179.19 349.68,-163.64 328.95,-152.69"/>
<polygon fill="midnightblue" stroke="midnightblue" points="330.57,-149.58 320.1,-148.01 327.3,-155.77 330.57,-149.58"/>
</g>
<!-- Node12&#45;&gt;Node11 -->
<g id="edge17" class="edge">
<title>Node12&#45;&gt;Node11</title>
<path fill="none" stroke="midnightblue" d="M410.81,-190.21C400.72,-180.69 387.99,-167.49 379,-154 366.92,-135.88 357.24,-113.04 350.97,-96.16"/>
<polygon fill="midnightblue" stroke="midnightblue" points="354.18,-94.74 347.52,-86.51 347.59,-97.1 354.18,-94.74"/>
</g>
<!-- Node13 -->
<g id="node13" class="node">
<title>Node13</title>
<g id="a_node13"><a xlink:href="_simple_subscriber_8h.html" target="_top" xlink:title=" ">
<polygon fill="none" stroke="black" points="416.5,-56.5 416.5,-86.5 529.5,-86.5 529.5,-56.5 416.5,-56.5"/>
<text text-anchor="start" x="424.5" y="-74.5" font-family="Helvetica,sans-Serif" font-size="10.00">../../core&#45;lib/include</text>
<text text-anchor="middle" x="473" y="-63.5" font-family="Helvetica,sans-Serif" font-size="10.00">/SimpleSubscriber.h</text>
</a>
</g>
</g>
<!-- Node12&#45;&gt;Node13 -->
<g id="edge14" class="edge">
<title>Node12&#45;&gt;Node13</title>
<path fill="none" stroke="midnightblue" d="M460.85,-190.44C476.04,-182.23 492.43,-170.23 501,-154 510.96,-135.14 501.14,-112 490.48,-95.21"/>
<polygon fill="midnightblue" stroke="midnightblue" points="493.13,-92.87 484.6,-86.59 487.35,-96.82 493.13,-92.87"/>
</g>
<!-- Node14 -->
<g id="node14" class="node">
<title>Node14</title>
<g id="a_node14"><a xlink:href="_bot_8h.html" target="_top" xlink:title=" ">
<polygon fill="none" stroke="black" points="388,-123.5 388,-153.5 492,-153.5 492,-123.5 388,-123.5"/>
<text text-anchor="start" x="396" y="-141.5" font-family="Helvetica,sans-Serif" font-size="10.00">../../bot&#45;lib/include</text>
<text text-anchor="middle" x="440" y="-130.5" font-family="Helvetica,sans-Serif" font-size="10.00">/Bot.h</text>
</a>
</g>
</g>
<!-- Node12&#45;&gt;Node14 -->
<g id="edge18" class="edge">
<title>Node12&#45;&gt;Node14</title>
<path fill="none" stroke="midnightblue" d="M429.82,-190.4C431.39,-182.56 433.38,-172.6 435.19,-163.57"/>
<polygon fill="midnightblue" stroke="midnightblue" points="438.66,-164.07 437.18,-153.58 431.79,-162.7 438.66,-164.07"/>
</g>
<!-- Node13&#45;&gt;Node3 -->
<g id="edge15" class="edge">
<title>Node13&#45;&gt;Node3</title>
<path fill="none" stroke="midnightblue" d="M416.17,-57.74C413.07,-57.13 410,-56.54 407,-56 305.81,-37.64 185.1,-22.05 127.63,-15.01"/>
<polygon fill="midnightblue" stroke="midnightblue" points="128,-11.53 117.65,-13.8 127.16,-18.48 128,-11.53"/>
</g>
<!-- Node13&#45;&gt;Node7 -->
<g id="edge16" class="edge">
<title>Node13&#45;&gt;Node7</title>
<path fill="none" stroke="midnightblue" d="M493.14,-56.4C506.39,-47.13 523.68,-35.03 537.08,-25.65"/>
<polygon fill="midnightblue" stroke="midnightblue" points="539.45,-28.26 545.63,-19.66 535.43,-22.53 539.45,-28.26"/>
</g>
<!-- Node14&#45;&gt;Node11 -->
<g id="edge19" class="edge">
<title>Node14&#45;&gt;Node11</title>
<path fill="none" stroke="midnightblue" d="M418.95,-123.4C405.35,-114.28 387.46,-102.29 372.45,-92.24"/>
<polygon fill="midnightblue" stroke="midnightblue" points="374.26,-89.24 364.01,-86.58 370.37,-95.05 374.26,-89.24"/>
</g>
<!-- Node14&#45;&gt;Node13 -->
<g id="edge20" class="edge">
<title>Node14&#45;&gt;Node13</title>
<path fill="none" stroke="midnightblue" d="M447.16,-123.4C451.27,-115.3 456.53,-104.94 461.23,-95.69"/>
<polygon fill="midnightblue" stroke="midnightblue" points="464.45,-97.08 465.85,-86.58 458.21,-93.91 464.45,-97.08"/>
</g>
<!-- Node15&#45;&gt;Node2 -->
<g id="edge22" class="edge">
<title>Node15&#45;&gt;Node2</title>
<path fill="none" stroke="midnightblue" d="M114.15,-313.32C101.78,-304.98 82.87,-292.21 68.26,-282.35"/>
<polygon fill="midnightblue" stroke="midnightblue" points="70.07,-279.35 59.82,-276.65 66.15,-285.15 70.07,-279.35"/>
</g>
<!-- Node15&#45;&gt;Node3 -->
<g id="edge23" class="edge">
<title>Node15&#45;&gt;Node3</title>
<path fill="none" stroke="midnightblue" d="M122.69,-313.26C113.74,-294.3 94,-247.79 94,-206.5 94,-206.5 94,-206.5 94,-137.5 94,-99.2 94,-54.38 94,-29.7"/>
<polygon fill="midnightblue" stroke="midnightblue" points="97.5,-29.59 94,-19.59 90.5,-29.59 97.5,-29.59"/>
</g>
<!-- Node15&#45;&gt;Node4 -->
<g id="edge25" class="edge">
<title>Node15&#45;&gt;Node4</title>
<path fill="none" stroke="midnightblue" d="M154.25,-313.44C183.61,-304.23 230.47,-289.52 262.88,-279.34"/>
<polygon fill="midnightblue" stroke="midnightblue" points="263.95,-282.67 272.44,-276.34 261.85,-276 263.95,-282.67"/>
</g>
<!-- Node16 -->
<g id="node16" class="node">
<title>Node16</title>
<g id="a_node16"><a xlink:title=" ">
<polygon fill="none" stroke="#bfbfbf" points="122,-257.5 122,-276.5 154,-276.5 154,-257.5 122,-257.5"/>
<text text-anchor="middle" x="138" y="-264.5" font-family="Helvetica,sans-Serif" font-size="10.00">list</text>
</a>
</g>
</g>
<!-- Node15&#45;&gt;Node16 -->
<g id="edge24" class="edge">
<title>Node15&#45;&gt;Node16</title>
<path fill="none" stroke="midnightblue" d="M128.82,-313.08C130.27,-305.93 132.37,-295.64 134.19,-286.69"/>
<polygon fill="midnightblue" stroke="midnightblue" points="137.65,-287.25 136.22,-276.75 130.79,-285.85 137.65,-287.25"/>
</g>
</g>
</svg>
        <g id="navigator" transform="translate(0 0)" fill="#404254">
                <rect fill="#f2f5e9" fill-opacity="0.5" stroke="#606060" stroke-width=".5" x="0" y="0" width="60" height="60"/>
                <use id="zoomplus" xlink:href="#zoomPlus" x="17" y="9" onmousedown="handleZoom(evt,'in')"/>
                <use id="zoomminus" xlink:href="#zoomMin" x="42" y="9" onmousedown="handleZoom(evt,'out')"/>
                <use id="reset" xlink:href="#resetDef" x="30" y="36" onmousedown="handleReset()"/>
                <g id="arrowUp" xlink:href="#dirArrow" transform="translate(30 24)" onmousedown="handlePan(0,-1)">
                  <use xlink:href="#rim" fill="#404040">
                        <set attributeName="fill" to="#808080" begin="arrowUp.mouseover" end="arrowUp.mouseout"/>
                  </use>
                  <path fill="none" stroke="white" stroke-width="1.5" d="M0,-3.0v7 M-2.5,-0.5L0,-3.0L2.5,-0.5"/>
                </g>
                <g id="arrowRight" xlink:href="#dirArrow" transform="rotate(90) translate(36 -43)" onmousedown="handlePan(1,0)">
                  <use xlink:href="#rim" fill="#404040">
                        <set attributeName="fill" to="#808080" begin="arrowRight.mouseover" end="arrowRight.mouseout"/>
                  </use>
                  <path fill="none" stroke="white" stroke-width="1.5" d="M0,-3.0v7 M-2.5,-0.5L0,-3.0L2.5,-0.5"/>
                </g>
                <g id="arrowDown" xlink:href="#dirArrow" transform="rotate(180) translate(-30 -48)" onmousedown="handlePan(0,1)">
                  <use xlink:href="#rim" fill="#404040">
                        <set attributeName="fill" to="#808080" begin="arrowDown.mouseover" end="arrowDown.mouseout"/>
                  </use>
                  <path fill="none" stroke="white" stroke-width="1.5" d="M0,-3.0v7 M-2.5,-0.5L0,-3.0L2.5,-0.5"/>
                </g>
                <g id="arrowLeft" xlink:href="#dirArrow" transform="rotate(270) translate(-36 17)" onmousedown="handlePan(-1,0)">
                  <use xlink:href="#rim" fill="#404040">
                        <set attributeName="fill" to="#808080" begin="arrowLeft.mouseover" end="arrowLeft.mouseout"/>
                  </use>
                  <path fill="none" stroke="white" stroke-width="1.5" d="M0,-3.0v7 M-2.5,-0.5L0,-3.0L2.5,-0.5"/>
                </g>
        </g>
        <svg viewBox="0 0 15 15" width="100%" height="30px" preserveAspectRatio="xMaxYMin meet">
         <g id="arrow_out" transform="scale(0.3 0.3)">
          <a xlink:href="_event_publisher_8h__incl_org.svg" target="_base">
           <rect id="button" ry="5" rx="5" y="6" x="6" height="38" width="38"
                fill="#f2f5e9" fill-opacity="0.5" stroke="#606060" stroke-width="1.0"/>
           <path id="arrow"
             d="M 11.500037,31.436501 C 11.940474,20.09759 22.043105,11.32322 32.158766,21.979434 L 37.068811,17.246167 C 37.068811,17.246167 37.088388,32 37.088388,32 L 22.160133,31.978069 C 22.160133,31.978069 26.997745,27.140456 26.997745,27.140456 C 18.528582,18.264221 13.291696,25.230495 11.500037,31.436501 z"
             style="fill:#404040;"/>
          </a>
         </g>
        </svg>
</svg>
