<?xml version="1.0" encoding="UTF-8" standalone="no"?>
<!DOCTYPE svg PUBLIC "-//W3C//DTD SVG 1.1//EN"
 "http://www.w3.org/Graphics/SVG/1.1/DTD/svg11.dtd">
<!-- Generated by graphviz version 2.43.0 (0)
 -->
<!-- Title: /home/tomek/CLionProjects/proi/proi&#45;projekt/src/game&#45;lib/include/FinishedEventHandler.h Pages: 1 -->
<!--zoomable 553 -->
<svg id="main" version="1.1" xmlns="http://www.w3.org/2000/svg" xmlns:xlink="http://www.w3.org/1999/xlink" xml:space="preserve" onload="init(evt)">
<style type="text/css"><![CDATA[
.edge:hover path { stroke: red; }
.edge:hover polygon { stroke: red; fill: red; }
]]></style>
<script type="text/javascript"><![CDATA[
var edges = document.getElementsByTagName('g');
if (edges && edges.length) {
  for (var i=0;i<edges.length;i++) {
    if (edges[i].id.substr(0,4)=='edge') {
      edges[i].setAttribute('class','edge');
    }
  }
}
]]></script>
        <defs>
                <circle id="rim" cx="0" cy="0" r="7"/>
                <circle id="rim2" cx="0" cy="0" r="3.5"/>
                <g id="zoomPlus">
                        <use xlink:href="#rim" target="_top" fill="#404040">
                                <set attributeName="fill" to="#808080" begin="zoomplus.mouseover" end="zoomplus.mouseout"/>
                        </use>
                        <path d="M-4,0h8M0,-4v8" fill="none" stroke="white" stroke-width="1.5" pointer-events="none"/>
                </g>
                <g id="zoomMin">
                        <use xlink:href="#rim" target="_top" fill="#404040">
                                <set attributeName="fill" to="#808080" begin="zoomminus.mouseover" end="zoomminus.mouseout"/>
                        </use>
                        <path d="M-4,0h8" fill="none" stroke="white" stroke-width="1.5" pointer-events="none"/>
                </g>
                <g id="dirArrow">
                        <path fill="none" stroke="white" stroke-width="1.5" d="M0,-3.0v7 M-2.5,-0.5L0,-3.0L2.5,-0.5"/>
                </g>
               <g id="resetDef">
                       <use xlink:href="#rim2" target="_top" fill="#404040">
                               <set attributeName="fill" to="#808080" begin="reset.mouseover" end="reset.mouseout"/>
                       </use>
               </g>
        </defs>

<script type="text/javascript">
var viewWidth = 658;
var viewHeight = 553;
var sectionId = 'dynsection-0';
</script>
<script xlink:href="svgpan.js" target="_top"/>
<svg id="graph" class="graph">
<g id="viewport">
<title>/home/tomek/CLionProjects/proi/proi&#45;projekt/src/game&#45;lib/include/FinishedEventHandler.h</title>
<!-- Node1 -->
<g id="node1" class="node">
<title>Node1</title>
<g id="a_node1"><a xlink:title=" ">
<polygon fill="#bfbfbf" stroke="black" points="445.5,-492.5 445.5,-544.5 618.5,-544.5 618.5,-492.5 445.5,-492.5"/>
<text text-anchor="start" x="453.5" y="-532.5" font-family="Helvetica,sans-Serif" font-size="10.00">/home/tomek/CLionProjects</text>
<text text-anchor="start" x="453.5" y="-521.5" font-family="Helvetica,sans-Serif" font-size="10.00">/proi/proi&#45;projekt/src</text>
<text text-anchor="start" x="453.5" y="-510.5" font-family="Helvetica,sans-Serif" font-size="10.00">/game&#45;lib/include/FinishedEvent</text>
<text text-anchor="middle" x="532" y="-499.5" font-family="Helvetica,sans-Serif" font-size="10.00">Handler.h</text>
</a>
</g>
</g>
<!-- Node2 -->
<g id="node2" class="node">
<title>Node2</title>
<g id="a_node2"><a xlink:title=" ">
<polygon fill="none" stroke="#bfbfbf" points="545,-0.5 545,-19.5 603,-19.5 603,-0.5 545,-0.5"/>
<text text-anchor="middle" x="574" y="-7.5" font-family="Helvetica,sans-Serif" font-size="10.00">memory</text>
</a>
</g>
</g>
<!-- Node1&#45;&gt;Node2 -->
<g id="edge1" class="edge">
<title>Node1&#45;&gt;Node2</title>
<path fill="none" stroke="midnightblue" d="M573.27,-492.48C607.3,-468.36 650,-428.44 650,-380 650,-380 650,-380 650,-137.5 650,-92.12 613.62,-48.98 591.2,-26.7"/>
<polygon fill="midnightblue" stroke="midnightblue" points="593.57,-24.13 583.94,-19.73 588.72,-29.18 593.57,-24.13"/>
</g>
<!-- Node3 -->
<g id="node3" class="node">
<title>Node3</title>
<g id="a_node3"><a xlink:href="_event_handler_8h.html" target="_top" target="_top" xlink:title=" ">
<polygon fill="none" stroke="black" points="436,-425.5 436,-455.5 546,-455.5 546,-425.5 436,-425.5"/>
<text text-anchor="start" x="444" y="-443.5" font-family="Helvetica,sans-Serif" font-size="10.00">../../core&#45;lib/include</text>
<text text-anchor="middle" x="491" y="-432.5" font-family="Helvetica,sans-Serif" font-size="10.00">/EventHandler.h</text>
</a>
</g>
</g>
<!-- Node1&#45;&gt;Node3 -->
<g id="edge2" class="edge">
<title>Node1&#45;&gt;Node3</title>
<path fill="none" stroke="midnightblue" d="M518.35,-492.19C513.56,-483.31 508.2,-473.39 503.51,-464.69"/>
<polygon fill="midnightblue" stroke="midnightblue" points="506.57,-462.98 498.74,-455.85 500.41,-466.31 506.57,-462.98"/>
</g>
<!-- Node3&#45;&gt;Node2 -->
<g id="edge3" class="edge">
<title>Node3&#45;&gt;Node2</title>
<path fill="none" stroke="midnightblue" d="M523.74,-425.39C559.58,-407.49 612,-372.93 612,-324 612,-324 612,-324 612,-137.5 612,-100.75 609.91,-90.77 598,-56 594.7,-46.37 589.52,-36.31 584.82,-28.15"/>
<polygon fill="midnightblue" stroke="midnightblue" points="587.82,-26.34 579.66,-19.58 581.82,-29.96 587.82,-26.34"/>
</g>
<!-- Node4 -->
<g id="node4" class="node">
<title>Node4</title>
<g id="a_node4"><a xlink:href="_event_8h.html" target="_top" target="_top" xlink:title=" ">
<polygon fill="none" stroke="black" points="299.5,-257.5 299.5,-276.5 352.5,-276.5 352.5,-257.5 299.5,-257.5"/>
<text text-anchor="middle" x="326" y="-264.5" font-family="Helvetica,sans-Serif" font-size="10.00">Event.h</text>
</a>
</g>
</g>
<!-- Node3&#45;&gt;Node4 -->
<g id="edge4" class="edge">
<title>Node3&#45;&gt;Node4</title>
<path fill="none" stroke="midnightblue" d="M477.5,-425.47C447.13,-393.9 373.6,-317.47 341.46,-284.07"/>
<polygon fill="midnightblue" stroke="midnightblue" points="343.69,-281.34 334.24,-276.56 338.65,-286.19 343.69,-281.34"/>
</g>
<!-- Node15 -->
<g id="node15" class="node">
<title>Node15</title>
<g id="a_node15"><a xlink:href="_event_publisher_8h.html" target="_top" target="_top" xlink:title=" ">
<polygon fill="none" stroke="black" points="239,-369.5 239,-388.5 337,-388.5 337,-369.5 239,-369.5"/>
<text text-anchor="middle" x="288" y="-376.5" font-family="Helvetica,sans-Serif" font-size="10.00">EventPublisher.h</text>
</a>
</g>
</g>
<!-- Node3&#45;&gt;Node15 -->
<g id="edge22" class="edge">
<title>Node3&#45;&gt;Node15</title>
<path fill="none" stroke="midnightblue" d="M443.15,-425.47C407.67,-415.08 359.91,-401.08 326.8,-391.37"/>
<polygon fill="midnightblue" stroke="midnightblue" points="327.6,-387.96 317.02,-388.51 325.63,-394.68 327.6,-387.96"/>
</g>
<!-- Node4&#45;&gt;Node2 -->
<g id="edge7" class="edge">
<title>Node4&#45;&gt;Node2</title>
<path fill="none" stroke="midnightblue" d="M352.63,-264.66C407.08,-261.31 528.28,-250.65 555,-221 603.84,-166.81 588.16,-69.75 578.81,-29.39"/>
<polygon fill="midnightblue" stroke="midnightblue" points="582.19,-28.46 576.4,-19.59 575.39,-30.14 582.19,-28.46"/>
</g>
<!-- Node5 -->
<g id="node5" class="node">
<title>Node5</title>
<g id="a_node5"><a xlink:title=" ">
<polygon fill="none" stroke="#bfbfbf" points="104.5,-196 104.5,-215 169.5,-215 169.5,-196 104.5,-196"/>
<text text-anchor="middle" x="137" y="-203" font-family="Helvetica,sans-Serif" font-size="10.00">exception</text>
</a>
</g>
</g>
<!-- Node4&#45;&gt;Node5 -->
<g id="edge5" class="edge">
<title>Node4&#45;&gt;Node5</title>
<path fill="none" stroke="midnightblue" d="M299.36,-258.15C269.84,-249.39 220.87,-234.63 179,-221 176.41,-220.16 173.73,-219.27 171.04,-218.37"/>
<polygon fill="midnightblue" stroke="midnightblue" points="171.98,-214.99 161.38,-215.08 169.72,-221.61 171.98,-214.99"/>
</g>
<!-- Node6 -->
<g id="node6" class="node">
<title>Node6</title>
<g id="a_node6"><a xlink:title=" ">
<polygon fill="none" stroke="#bfbfbf" points="188,-196 188,-215 232,-215 232,-196 188,-196"/>
<text text-anchor="middle" x="210" y="-203" font-family="Helvetica,sans-Serif" font-size="10.00">string</text>
</a>
</g>
</g>
<!-- Node4&#45;&gt;Node6 -->
<g id="edge6" class="edge">
<title>Node4&#45;&gt;Node6</title>
<path fill="none" stroke="midnightblue" d="M309.38,-257.48C290.08,-247.58 258.04,-231.14 235.57,-219.62"/>
<polygon fill="midnightblue" stroke="midnightblue" points="237.08,-216.46 226.59,-215.01 233.89,-222.69 237.08,-216.46"/>
</g>
<!-- Node7 -->
<g id="node7" class="node">
<title>Node7</title>
<g id="a_node7"><a xlink:title=" ">
<polygon fill="none" stroke="#bfbfbf" points="250.5,-196 250.5,-215 301.5,-215 301.5,-196 250.5,-196"/>
<text text-anchor="middle" x="276" y="-203" font-family="Helvetica,sans-Serif" font-size="10.00">variant</text>
</a>
</g>
</g>
<!-- Node4&#45;&gt;Node7 -->
<g id="edge8" class="edge">
<title>Node4&#45;&gt;Node7</title>
<path fill="none" stroke="midnightblue" d="M318.84,-257.48C311.26,-248.46 299.13,-234.02 289.71,-222.81"/>
<polygon fill="midnightblue" stroke="midnightblue" points="292.26,-220.41 283.15,-215.01 286.9,-224.92 292.26,-220.41"/>
</g>
<!-- Node8 -->
<g id="node8" class="node">
<title>Node8</title>
<g id="a_node8"><a xlink:title=" ">
<polygon fill="none" stroke="#bfbfbf" points="486,-196 486,-215 546,-215 546,-196 486,-196"/>
<text text-anchor="middle" x="516" y="-203" font-family="Helvetica,sans-Serif" font-size="10.00">iostream</text>
</a>
</g>
</g>
<!-- Node4&#45;&gt;Node8 -->
<g id="edge9" class="edge">
<title>Node4&#45;&gt;Node8</title>
<path fill="none" stroke="midnightblue" d="M352.69,-257.94C382,-249.06 430.43,-234.25 472,-221 474.9,-220.08 477.89,-219.11 480.9,-218.13"/>
<polygon fill="midnightblue" stroke="midnightblue" points="482.02,-221.45 490.43,-215.02 479.84,-214.8 482.02,-221.45"/>
</g>
<!-- Node9 -->
<g id="node9" class="node">
<title>Node9</title>
<g id="a_node9"><a xlink:title=" ">
<polygon fill="none" stroke="#bfbfbf" points="436,-129 436,-148 492,-148 492,-129 436,-129"/>
<text text-anchor="middle" x="464" y="-136" font-family="Helvetica,sans-Serif" font-size="10.00">optional</text>
</a>
</g>
</g>
<!-- Node4&#45;&gt;Node9 -->
<g id="edge10" class="edge">
<title>Node4&#45;&gt;Node9</title>
<path fill="none" stroke="midnightblue" d="M352.57,-262.15C378.16,-257.07 416.24,-245.69 439,-221 454.95,-203.7 460.73,-176.45 462.82,-158.28"/>
<polygon fill="midnightblue" stroke="midnightblue" points="466.31,-158.59 463.7,-148.32 459.34,-157.97 466.31,-158.59"/>
</g>
<!-- Node10 -->
<g id="node10" class="node">
<title>Node10</title>
<g id="a_node10"><a xlink:href="_entity_8h.html" target="_top" target="_top" xlink:title=" ">
<polygon fill="none" stroke="black" points="138,-56.5 138,-86.5 248,-86.5 248,-56.5 138,-56.5"/>
<text text-anchor="start" x="146" y="-74.5" font-family="Helvetica,sans-Serif" font-size="10.00">../../tank&#45;lib/include</text>
<text text-anchor="middle" x="193" y="-63.5" font-family="Helvetica,sans-Serif" font-size="10.00">/Entity.h</text>
</a>
</g>
</g>
<!-- Node4&#45;&gt;Node10 -->
<g id="edge11" class="edge">
<title>Node4&#45;&gt;Node10</title>
<path fill="none" stroke="midnightblue" d="M299.31,-259.13C296.18,-258.38 293.02,-257.66 290,-257 247.16,-247.68 124.03,-254.71 96,-221 60.43,-178.23 123.37,-121.87 163.49,-92.4"/>
<polygon fill="midnightblue" stroke="midnightblue" points="165.58,-95.21 171.67,-86.54 161.5,-89.53 165.58,-95.21"/>
</g>
<!-- Node11 -->
<g id="node11" class="node">
<title>Node11</title>
<g id="a_node11"><a xlink:href="_tank_8h.html" target="_top" target="_top" xlink:title=" ">
<polygon fill="none" stroke="black" points="320,-190.5 320,-220.5 430,-220.5 430,-190.5 320,-190.5"/>
<text text-anchor="start" x="328" y="-208.5" font-family="Helvetica,sans-Serif" font-size="10.00">../../tank&#45;lib/include</text>
<text text-anchor="middle" x="375" y="-197.5" font-family="Helvetica,sans-Serif" font-size="10.00">/Tank.h</text>
</a>
</g>
</g>
<!-- Node4&#45;&gt;Node11 -->
<g id="edge12" class="edge">
<title>Node4&#45;&gt;Node11</title>
<path fill="none" stroke="midnightblue" d="M333.02,-257.48C339.28,-249.87 348.73,-238.4 357.08,-228.26"/>
<polygon fill="midnightblue" stroke="midnightblue" points="359.8,-230.47 363.45,-220.52 354.39,-226.02 359.8,-230.47"/>
</g>
<!-- Node11&#45;&gt;Node2 -->
<g id="edge13" class="edge">
<title>Node11&#45;&gt;Node2</title>
<path fill="none" stroke="midnightblue" d="M381.96,-190.5C390.89,-173.39 407.57,-144.12 427,-123 465,-81.7 519.69,-44.56 550.53,-25.16"/>
<polygon fill="midnightblue" stroke="midnightblue" points="552.64,-27.98 559.29,-19.73 548.95,-22.03 552.64,-27.98"/>
</g>
<!-- Node11&#45;&gt;Node9 -->
<g id="edge14" class="edge">
<title>Node11&#45;&gt;Node9</title>
<path fill="none" stroke="midnightblue" d="M394.31,-190.4C408.96,-179.7 429.04,-165.03 443.88,-154.19"/>
<polygon fill="midnightblue" stroke="midnightblue" points="446.34,-156.73 452.35,-148.01 442.21,-151.08 446.34,-156.73"/>
</g>
<!-- Node11&#45;&gt;Node10 -->
<g id="edge18" class="edge">
<title>Node11&#45;&gt;Node10</title>
<path fill="none" stroke="midnightblue" d="M319.98,-190.41C284.58,-180.43 242.72,-166.62 229,-154 212.44,-138.76 203.08,-114.53 198.08,-96.44"/>
<polygon fill="midnightblue" stroke="midnightblue" points="201.44,-95.47 195.62,-86.62 194.65,-97.17 201.44,-95.47"/>
</g>
<!-- Node12 -->
<g id="node12" class="node">
<title>Node12</title>
<g id="a_node12"><a xlink:href="_simple_subscriber_8h.html" target="_top" target="_top" xlink:title=" ">
<polygon fill="none" stroke="black" points="266.5,-56.5 266.5,-86.5 379.5,-86.5 379.5,-56.5 266.5,-56.5"/>
<text text-anchor="start" x="274.5" y="-74.5" font-family="Helvetica,sans-Serif" font-size="10.00">../../core&#45;lib/include</text>
<text text-anchor="middle" x="323" y="-63.5" font-family="Helvetica,sans-Serif" font-size="10.00">/SimpleSubscriber.h</text>
</a>
</g>
</g>
<!-- Node11&#45;&gt;Node12 -->
<g id="edge15" class="edge">
<title>Node11&#45;&gt;Node12</title>
<path fill="none" stroke="midnightblue" d="M371.83,-190.33C367.91,-173.81 360.57,-145.86 351,-123 347.12,-113.73 341.98,-103.97 337.17,-95.53"/>
<polygon fill="midnightblue" stroke="midnightblue" points="340.04,-93.51 331.96,-86.66 334.01,-97.06 340.04,-93.51"/>
</g>
<!-- Node14 -->
<g id="node14" class="node">
<title>Node14</title>
<g id="a_node14"><a xlink:href="_bot_8h.html" target="_top" target="_top" xlink:title=" ">
<polygon fill="none" stroke="black" points="238,-123.5 238,-153.5 342,-153.5 342,-123.5 238,-123.5"/>
<text text-anchor="start" x="246" y="-141.5" font-family="Helvetica,sans-Serif" font-size="10.00">../../bot&#45;lib/include</text>
<text text-anchor="middle" x="290" y="-130.5" font-family="Helvetica,sans-Serif" font-size="10.00">/Bot.h</text>
</a>
</g>
</g>
<!-- Node11&#45;&gt;Node14 -->
<g id="edge19" class="edge">
<title>Node11&#45;&gt;Node14</title>
<path fill="none" stroke="midnightblue" d="M356.56,-190.4C344.86,-181.45 329.54,-169.74 316.55,-159.8"/>
<polygon fill="midnightblue" stroke="midnightblue" points="318.48,-156.87 308.41,-153.58 314.23,-162.43 318.48,-156.87"/>
</g>
<!-- Node12&#45;&gt;Node2 -->
<g id="edge17" class="edge">
<title>Node12&#45;&gt;Node2</title>
<path fill="none" stroke="midnightblue" d="M379.64,-57.07C427.06,-45.83 493.48,-30.09 535.1,-20.22"/>
<polygon fill="midnightblue" stroke="midnightblue" points="535.94,-23.62 544.86,-17.91 534.32,-16.81 535.94,-23.62"/>
</g>
<!-- Node13 -->
<g id="node13" class="node">
<title>Node13</title>
<g id="a_node13"><a xlink:title=" ">
<polygon fill="none" stroke="#bfbfbf" points="14.5,-0.5 14.5,-19.5 61.5,-19.5 61.5,-0.5 14.5,-0.5"/>
<text text-anchor="middle" x="38" y="-7.5" font-family="Helvetica,sans-Serif" font-size="10.00">vector</text>
</a>
</g>
</g>
<!-- Node12&#45;&gt;Node13 -->
<g id="edge16" class="edge">
<title>Node12&#45;&gt;Node13</title>
<path fill="none" stroke="midnightblue" d="M266.49,-58.03C263.28,-57.34 260.1,-56.66 257,-56 191.41,-42.06 114.61,-26.44 71.6,-17.76"/>
<polygon fill="midnightblue" stroke="midnightblue" points="72.17,-14.3 61.68,-15.76 70.79,-21.16 72.17,-14.3"/>
</g>
<!-- Node14&#45;&gt;Node10 -->
<g id="edge20" class="edge">
<title>Node14&#45;&gt;Node10</title>
<path fill="none" stroke="midnightblue" d="M268.95,-123.4C255.35,-114.28 237.46,-102.29 222.45,-92.24"/>
<polygon fill="midnightblue" stroke="midnightblue" points="224.26,-89.24 214.01,-86.58 220.37,-95.05 224.26,-89.24"/>
</g>
<!-- Node14&#45;&gt;Node12 -->
<g id="edge21" class="edge">
<title>Node14&#45;&gt;Node12</title>
<path fill="none" stroke="midnightblue" d="M297.16,-123.4C301.27,-115.3 306.53,-104.94 311.23,-95.69"/>
<polygon fill="midnightblue" stroke="midnightblue" points="314.45,-97.08 315.85,-86.58 308.21,-93.91 314.45,-97.08"/>
</g>
<!-- Node15&#45;&gt;Node4 -->
<g id="edge25" class="edge">
<title>Node15&#45;&gt;Node4</title>
<path fill="none" stroke="midnightblue" d="M290.98,-369.37C297.14,-351.54 311.39,-310.3 319.69,-286.27"/>
<polygon fill="midnightblue" stroke="midnightblue" points="323.07,-287.19 323.03,-276.59 316.46,-284.9 323.07,-287.19"/>
</g>
<!-- Node15&#45;&gt;Node13 -->
<g id="edge24" class="edge">
<title>Node15&#45;&gt;Node13</title>
<path fill="none" stroke="midnightblue" d="M238.82,-369.67C156.56,-354.34 0,-318.51 0,-268 0,-268 0,-268 0,-137.5 0,-97.35 17.78,-52.95 29.01,-28.89"/>
<polygon fill="midnightblue" stroke="midnightblue" points="32.29,-30.15 33.49,-19.63 25.99,-27.1 32.29,-30.15"/>
</g>
<!-- Node16 -->
<g id="node16" class="node">
<title>Node16</title>
<g id="a_node16"><a xlink:title=" ">
<polygon fill="none" stroke="#bfbfbf" points="243,-257.5 243,-276.5 281,-276.5 281,-257.5 243,-257.5"/>
<text text-anchor="middle" x="262" y="-264.5" font-family="Helvetica,sans-Serif" font-size="10.00">map</text>
</a>
</g>
</g>
<!-- Node15&#45;&gt;Node16 -->
<g id="edge23" class="edge">
<title>Node15&#45;&gt;Node16</title>
<path fill="none" stroke="midnightblue" d="M285.96,-369.37C281.76,-351.62 272.08,-310.67 266.4,-286.6"/>
<polygon fill="midnightblue" stroke="midnightblue" points="269.74,-285.52 264.03,-276.59 262.92,-287.13 269.74,-285.52"/>
</g>
<!-- Node17 -->
<g id="node17" class="node">
<title>Node17</title>
<g id="a_node17"><a xlink:href="_event_subscriber_8h.html" target="_top" target="_top" xlink:title=" ">
<polygon fill="none" stroke="black" points="156,-313.5 156,-332.5 260,-332.5 260,-313.5 156,-313.5"/>
<text text-anchor="middle" x="208" y="-320.5" font-family="Helvetica,sans-Serif" font-size="10.00">EventSubscriber.h</text>
</a>
</g>
</g>
<!-- Node15&#45;&gt;Node17 -->
<g id="edge26" class="edge">
<title>Node15&#45;&gt;Node17</title>
<path fill="none" stroke="midnightblue" d="M275.15,-369.32C262.78,-360.98 243.87,-348.21 229.26,-338.35"/>
<polygon fill="midnightblue" stroke="midnightblue" points="231.07,-335.35 220.82,-332.65 227.15,-341.15 231.07,-335.35"/>
</g>
<!-- Node17&#45;&gt;Node4 -->
<g id="edge30" class="edge">
<title>Node17&#45;&gt;Node4</title>
<path fill="none" stroke="midnightblue" d="M226.7,-313.44C245.94,-304.64 276.15,-290.81 298.2,-280.72"/>
<polygon fill="midnightblue" stroke="midnightblue" points="299.75,-283.86 307.39,-276.52 296.84,-277.5 299.75,-283.86"/>
</g>
<!-- Node17&#45;&gt;Node13 -->
<g id="edge28" class="edge">
<title>Node17&#45;&gt;Node13</title>
<path fill="none" stroke="midnightblue" d="M168.14,-313.5C117.9,-300.16 38,-269.12 38,-206.5 38,-206.5 38,-206.5 38,-137.5 38,-99.2 38,-54.38 38,-29.7"/>
<polygon fill="midnightblue" stroke="midnightblue" points="41.5,-29.59 38,-19.59 34.5,-29.59 41.5,-29.59"/>
</g>
<!-- Node17&#45;&gt;Node16 -->
<g id="edge27" class="edge">
<title>Node17&#45;&gt;Node16</title>
<path fill="none" stroke="midnightblue" d="M216.92,-313.08C224.78,-305.22 236.43,-293.57 245.92,-284.08"/>
<polygon fill="midnightblue" stroke="midnightblue" points="248.65,-286.3 253.25,-276.75 243.7,-281.35 248.65,-286.3"/>
</g>
<!-- Node18 -->
<g id="node18" class="node">
<title>Node18</title>
<g id="a_node18"><a xlink:title=" ">
<polygon fill="none" stroke="#bfbfbf" points="192,-257.5 192,-276.5 224,-276.5 224,-257.5 192,-257.5"/>
<text text-anchor="middle" x="208" y="-264.5" font-family="Helvetica,sans-Serif" font-size="10.00">list</text>
</a>
</g>
</g>
<!-- Node17&#45;&gt;Node18 -->
<g id="edge29" class="edge">
<title>Node17&#45;&gt;Node18</title>
<path fill="none" stroke="midnightblue" d="M208,-313.08C208,-306.01 208,-295.86 208,-286.99"/>
<polygon fill="midnightblue" stroke="midnightblue" points="211.5,-286.75 208,-276.75 204.5,-286.75 211.5,-286.75"/>
</g>
</g>
</svg>
        <g id="navigator" transform="translate(0 0)" fill="#404254">
                <rect fill="#f2f5e9" fill-opacity="0.5" stroke="#606060" stroke-width=".5" x="0" y="0" width="60" height="60"/>
                <use id="zoomplus" xlink:href="#zoomPlus" target="_top" x="17" y="9" onmousedown="handleZoom(evt,'in')"/>
                <use id="zoomminus" xlink:href="#zoomMin" target="_top" x="42" y="9" onmousedown="handleZoom(evt,'out')"/>
                <use id="reset" xlink:href="#resetDef" target="_top" x="30" y="36" onmousedown="handleReset()"/>
                <g id="arrowUp" xlink:href="#dirArrow" target="_top" transform="translate(30 24)" onmousedown="handlePan(0,-1)">
                  <use xlink:href="#rim" target="_top" fill="#404040">
                        <set attributeName="fill" to="#808080" begin="arrowUp.mouseover" end="arrowUp.mouseout"/>
                  </use>
                  <path fill="none" stroke="white" stroke-width="1.5" d="M0,-3.0v7 M-2.5,-0.5L0,-3.0L2.5,-0.5"/>
                </g>
                <g id="arrowRight" xlink:href="#dirArrow" target="_top" transform="rotate(90) translate(36 -43)" onmousedown="handlePan(1,0)">
                  <use xlink:href="#rim" target="_top" fill="#404040">
                        <set attributeName="fill" to="#808080" begin="arrowRight.mouseover" end="arrowRight.mouseout"/>
                  </use>
                  <path fill="none" stroke="white" stroke-width="1.5" d="M0,-3.0v7 M-2.5,-0.5L0,-3.0L2.5,-0.5"/>
                </g>
                <g id="arrowDown" xlink:href="#dirArrow" target="_top" transform="rotate(180) translate(-30 -48)" onmousedown="handlePan(0,1)">
                  <use xlink:href="#rim" target="_top" fill="#404040">
                        <set attributeName="fill" to="#808080" begin="arrowDown.mouseover" end="arrowDown.mouseout"/>
                  </use>
                  <path fill="none" stroke="white" stroke-width="1.5" d="M0,-3.0v7 M-2.5,-0.5L0,-3.0L2.5,-0.5"/>
                </g>
                <g id="arrowLeft" xlink:href="#dirArrow" target="_top" transform="rotate(270) translate(-36 17)" onmousedown="handlePan(-1,0)">
                  <use xlink:href="#rim" target="_top" fill="#404040">
                        <set attributeName="fill" to="#808080" begin="arrowLeft.mouseover" end="arrowLeft.mouseout"/>
                  </use>
                  <path fill="none" stroke="white" stroke-width="1.5" d="M0,-3.0v7 M-2.5,-0.5L0,-3.0L2.5,-0.5"/>
                </g>
        </g>
        <svg viewBox="0 0 15 15" width="100%" height="30px" preserveAspectRatio="xMaxYMin meet">
         <g id="arrow_out" transform="scale(0.3 0.3)">
          <a xlink:href="_finished_event_handler_8h__incl_org.svg" target="_top" target="_base">
           <rect id="button" ry="5" rx="5" y="6" x="6" height="38" width="38"
                fill="#f2f5e9" fill-opacity="0.5" stroke="#606060" stroke-width="1.0"/>
           <path id="arrow"
             d="M 11.500037,31.436501 C 11.940474,20.09759 22.043105,11.32322 32.158766,21.979434 L 37.068811,17.246167 C 37.068811,17.246167 37.088388,32 37.088388,32 L 22.160133,31.978069 C 22.160133,31.978069 26.997745,27.140456 26.997745,27.140456 C 18.528582,18.264221 13.291696,25.230495 11.500037,31.436501 z"
             style="fill:#404040;"/>
          </a>
         </g>
        </svg>
</svg>
