<?xml version="1.0" encoding="UTF-8" standalone="no"?>
<!DOCTYPE svg PUBLIC "-//W3C//DTD SVG 1.1//EN"
 "http://www.w3.org/Graphics/SVG/1.1/DTD/svg11.dtd">
<!-- Generated by graphviz version 2.43.0 (0)
 -->
<!-- Title: /home/tomek/CLionProjects/proi/proi&#45;projekt/src/game&#45;lib/include/FinishedEventHandler.h Pages: 1 -->
<svg width="1305pt" height="295pt"
 viewBox="0.00 0.00 1304.50 295.00" xmlns="http://www.w3.org/2000/svg" xmlns:xlink="http://www.w3.org/1999/xlink">
<g id="graph0" class="graph" transform="scale(1 1) rotate(0) translate(4 291)">
<title>/home/tomek/CLionProjects/proi/proi&#45;projekt/src/game&#45;lib/include/FinishedEventHandler.h</title>
<!-- Node1 -->
<g id="node1" class="node">
<title>Node1</title>
<g id="a_node1"><a xlink:title=" ">
<polygon fill="#bfbfbf" stroke="black" points="745.5,-234.5 745.5,-286.5 918.5,-286.5 918.5,-234.5 745.5,-234.5"/>
<text text-anchor="start" x="753.5" y="-274.5" font-family="Helvetica,sans-Serif" font-size="10.00">/home/tomek/CLionProjects</text>
<text text-anchor="start" x="753.5" y="-263.5" font-family="Helvetica,sans-Serif" font-size="10.00">/proi/proi&#45;projekt/src</text>
<text text-anchor="start" x="753.5" y="-252.5" font-family="Helvetica,sans-Serif" font-size="10.00">/game&#45;lib/include/FinishedEvent</text>
<text text-anchor="middle" x="832" y="-241.5" font-family="Helvetica,sans-Serif" font-size="10.00">Handler.h</text>
</a>
</g>
</g>
<!-- Node2 -->
<g id="node2" class="node">
<title>Node2</title>
<g id="a_node2"><a xlink:href="_finished_event_handler_8cpp.html" target="_top" xlink:title=" ">
<polygon fill="none" stroke="black" points="0,-0.5 0,-41.5 192,-41.5 192,-0.5 0,-0.5"/>
<text text-anchor="start" x="8" y="-29.5" font-family="Helvetica,sans-Serif" font-size="10.00">/home/tomek/CLionProjects</text>
<text text-anchor="start" x="8" y="-18.5" font-family="Helvetica,sans-Serif" font-size="10.00">/proi/proi&#45;projekt/src</text>
<text text-anchor="middle" x="96" y="-7.5" font-family="Helvetica,sans-Serif" font-size="10.00">/game&#45;lib/FinishedEventHandler.cpp</text>
</a>
</g>
</g>
<!-- Node1&#45;&gt;Node2 -->
<g id="edge1" class="edge">
<title>Node1&#45;&gt;Node2</title>
<path fill="none" stroke="midnightblue" d="M744.54,-231.28C593.29,-182.47 286.57,-83.49 156.5,-41.52"/>
<polygon fill="midnightblue" stroke="midnightblue" points="743.69,-234.68 754.28,-234.42 745.84,-228.02 743.69,-234.68"/>
</g>
<!-- Node3 -->
<g id="node3" class="node">
<title>Node3</title>
<g id="a_node3"><a xlink:href="_game_state_8cpp.html" target="_top" xlink:title=" ">
<polygon fill="none" stroke="black" points="1145.5,-0.5 1145.5,-41.5 1296.5,-41.5 1296.5,-0.5 1145.5,-0.5"/>
<text text-anchor="start" x="1153.5" y="-29.5" font-family="Helvetica,sans-Serif" font-size="10.00">/home/tomek/CLionProjects</text>
<text text-anchor="start" x="1153.5" y="-18.5" font-family="Helvetica,sans-Serif" font-size="10.00">/proi/proi&#45;projekt/src</text>
<text text-anchor="middle" x="1221" y="-7.5" font-family="Helvetica,sans-Serif" font-size="10.00">/game&#45;lib/GameState.cpp</text>
</a>
</g>
</g>
<!-- Node1&#45;&gt;Node3 -->
<g id="edge2" class="edge">
<title>Node1&#45;&gt;Node3</title>
<path fill="none" stroke="midnightblue" d="M928.86,-248.58C1012.95,-233.86 1131.65,-199.56 1200,-120 1218.82,-98.09 1222.06,-63.39 1222.02,-41.7"/>
<polygon fill="midnightblue" stroke="midnightblue" points="928.06,-245.17 918.78,-250.28 929.22,-252.07 928.06,-245.17"/>
</g>
<!-- Node4 -->
<g id="node4" class="node">
<title>Node4</title>
<g id="a_node4"><a xlink:href="_game_state_8h.html" target="_top" xlink:title=" ">
<polygon fill="none" stroke="black" points="748,-156.5 748,-197.5 916,-197.5 916,-156.5 748,-156.5"/>
<text text-anchor="start" x="756" y="-185.5" font-family="Helvetica,sans-Serif" font-size="10.00">/home/tomek/CLionProjects</text>
<text text-anchor="start" x="756" y="-174.5" font-family="Helvetica,sans-Serif" font-size="10.00">/proi/proi&#45;projekt/src</text>
<text text-anchor="middle" x="832" y="-163.5" font-family="Helvetica,sans-Serif" font-size="10.00">/game&#45;lib/include/GameState.h</text>
</a>
</g>
</g>
<!-- Node1&#45;&gt;Node4 -->
<g id="edge3" class="edge">
<title>Node1&#45;&gt;Node4</title>
<path fill="none" stroke="midnightblue" d="M832,-224.15C832,-215.05 832,-205.6 832,-197.63"/>
<polygon fill="midnightblue" stroke="midnightblue" points="828.5,-224.16 832,-234.16 835.5,-224.16 828.5,-224.16"/>
</g>
<!-- Node4&#45;&gt;Node3 -->
<g id="edge5" class="edge">
<title>Node4&#45;&gt;Node3</title>
<path fill="none" stroke="midnightblue" d="M926.35,-169.76C1012.5,-162.41 1132.02,-147.55 1170,-120 1196.24,-100.97 1210.06,-64.35 1216.42,-41.67"/>
<polygon fill="midnightblue" stroke="midnightblue" points="925.96,-166.28 916.29,-170.6 926.54,-173.26 925.96,-166.28"/>
</g>
<!-- Node5 -->
<g id="node5" class="node">
<title>Node5</title>
<g id="a_node5"><a xlink:href="_game_8cpp.html" target="_top" xlink:title=" ">
<polygon fill="none" stroke="black" points="580.5,-0.5 580.5,-41.5 731.5,-41.5 731.5,-0.5 580.5,-0.5"/>
<text text-anchor="start" x="588.5" y="-29.5" font-family="Helvetica,sans-Serif" font-size="10.00">/home/tomek/CLionProjects</text>
<text text-anchor="start" x="588.5" y="-18.5" font-family="Helvetica,sans-Serif" font-size="10.00">/proi/proi&#45;projekt/src</text>
<text text-anchor="middle" x="656" y="-7.5" font-family="Helvetica,sans-Serif" font-size="10.00">/game&#45;lib/Game.cpp</text>
</a>
</g>
</g>
<!-- Node4&#45;&gt;Node5 -->
<g id="edge4" class="edge">
<title>Node4&#45;&gt;Node5</title>
<path fill="none" stroke="midnightblue" d="M769.4,-151.92C752.22,-143.47 734.38,-132.81 720,-120 694.97,-97.69 675.62,-63.43 665.02,-41.89"/>
<polygon fill="midnightblue" stroke="midnightblue" points="768.32,-155.28 778.85,-156.39 771.31,-148.95 768.32,-155.28"/>
</g>
<!-- Node6 -->
<g id="node6" class="node">
<title>Node6</title>
<g id="a_node6"><a xlink:href="_game_8h.html" target="_top" xlink:title=" ">
<polygon fill="none" stroke="black" points="521.5,-78.5 521.5,-119.5 672.5,-119.5 672.5,-78.5 521.5,-78.5"/>
<text text-anchor="start" x="529.5" y="-107.5" font-family="Helvetica,sans-Serif" font-size="10.00">/home/tomek/CLionProjects</text>
<text text-anchor="start" x="529.5" y="-96.5" font-family="Helvetica,sans-Serif" font-size="10.00">/proi/proi&#45;projekt/src</text>
<text text-anchor="middle" x="597" y="-85.5" font-family="Helvetica,sans-Serif" font-size="10.00">/game&#45;lib/include/Game.h</text>
</a>
</g>
</g>
<!-- Node4&#45;&gt;Node6 -->
<g id="edge6" class="edge">
<title>Node4&#45;&gt;Node6</title>
<path fill="none" stroke="midnightblue" d="M761.82,-153.3C728.56,-142.55 689.22,-129.82 657.31,-119.51"/>
<polygon fill="midnightblue" stroke="midnightblue" points="760.89,-156.68 771.48,-156.43 763.04,-150.02 760.89,-156.68"/>
</g>
<!-- Node11 -->
<g id="node11" class="node">
<title>Node11</title>
<g id="a_node11"><a xlink:href="_menu_event_handler_8h.html" target="_top" xlink:title=" ">
<polygon fill="none" stroke="black" points="729,-78.5 729,-119.5 935,-119.5 935,-78.5 729,-78.5"/>
<text text-anchor="start" x="737" y="-107.5" font-family="Helvetica,sans-Serif" font-size="10.00">/home/tomek/CLionProjects</text>
<text text-anchor="start" x="737" y="-96.5" font-family="Helvetica,sans-Serif" font-size="10.00">/proi/proi&#45;projekt/src</text>
<text text-anchor="middle" x="832" y="-85.5" font-family="Helvetica,sans-Serif" font-size="10.00">/game&#45;lib/include/MenuEventHandler.h</text>
</a>
</g>
</g>
<!-- Node4&#45;&gt;Node11 -->
<g id="edge13" class="edge">
<title>Node4&#45;&gt;Node11</title>
<path fill="none" stroke="midnightblue" d="M825.4,-146.3C825.08,-137.3 825.28,-127.65 826.02,-119.51"/>
<polygon fill="midnightblue" stroke="midnightblue" points="821.91,-146.66 826.01,-156.43 828.9,-146.23 821.91,-146.66"/>
</g>
<!-- Node12 -->
<g id="node12" class="node">
<title>Node12</title>
<g id="a_node12"><a xlink:href="_pause_event_handler_8h.html" target="_top" xlink:title=" ">
<polygon fill="none" stroke="black" points="953.5,-78.5 953.5,-119.5 1160.5,-119.5 1160.5,-78.5 953.5,-78.5"/>
<text text-anchor="start" x="961.5" y="-107.5" font-family="Helvetica,sans-Serif" font-size="10.00">/home/tomek/CLionProjects</text>
<text text-anchor="start" x="961.5" y="-96.5" font-family="Helvetica,sans-Serif" font-size="10.00">/proi/proi&#45;projekt/src</text>
<text text-anchor="middle" x="1057" y="-85.5" font-family="Helvetica,sans-Serif" font-size="10.00">/game&#45;lib/include/PauseEventHandler.h</text>
</a>
</g>
</g>
<!-- Node4&#45;&gt;Node12 -->
<g id="edge17" class="edge">
<title>Node4&#45;&gt;Node12</title>
<path fill="none" stroke="midnightblue" d="M893.76,-153.03C924.69,-142.33 962.07,-129.73 993.27,-119.51"/>
<polygon fill="midnightblue" stroke="midnightblue" points="892.25,-149.84 883.95,-156.43 894.55,-156.46 892.25,-149.84"/>
</g>
<!-- Node6&#45;&gt;Node2 -->
<g id="edge8" class="edge">
<title>Node6&#45;&gt;Node2</title>
<path fill="none" stroke="midnightblue" d="M511.22,-87.07C430.89,-76.55 307.58,-59.68 201,-42 198.07,-41.51 195.1,-41.01 192.1,-40.49"/>
<polygon fill="midnightblue" stroke="midnightblue" points="510.92,-90.56 521.29,-88.39 511.83,-83.62 510.92,-90.56"/>
</g>
<!-- Node6&#45;&gt;Node5 -->
<g id="edge9" class="edge">
<title>Node6&#45;&gt;Node5</title>
<path fill="none" stroke="midnightblue" d="M618.47,-70.34C625.9,-60.78 634.05,-50.27 640.86,-41.51"/>
<polygon fill="midnightblue" stroke="midnightblue" points="615.56,-68.38 612.19,-78.43 621.09,-72.68 615.56,-68.38"/>
</g>
<!-- Node7 -->
<g id="node7" class="node">
<title>Node7</title>
<g id="a_node7"><a xlink:href="_active_event_handler_8cpp.html" target="_top" xlink:title=" ">
<polygon fill="none" stroke="black" points="380,-0.5 380,-41.5 562,-41.5 562,-0.5 380,-0.5"/>
<text text-anchor="start" x="388" y="-29.5" font-family="Helvetica,sans-Serif" font-size="10.00">/home/tomek/CLionProjects</text>
<text text-anchor="start" x="388" y="-18.5" font-family="Helvetica,sans-Serif" font-size="10.00">/proi/proi&#45;projekt/src</text>
<text text-anchor="middle" x="471" y="-7.5" font-family="Helvetica,sans-Serif" font-size="10.00">/game&#45;lib/ActiveEventHandler.cpp</text>
</a>
</g>
</g>
<!-- Node6&#45;&gt;Node7 -->
<g id="edge7" class="edge">
<title>Node6&#45;&gt;Node7</title>
<path fill="none" stroke="midnightblue" d="M555.89,-73.2C538.84,-62.92 519.34,-51.16 503.34,-41.51"/>
<polygon fill="midnightblue" stroke="midnightblue" points="554.18,-76.26 564.55,-78.43 557.8,-70.27 554.18,-76.26"/>
</g>
<!-- Node8 -->
<g id="node8" class="node">
<title>Node8</title>
<g id="a_node8"><a xlink:href="_menu_event_handler_8cpp.html" target="_top" xlink:title=" ">
<polygon fill="none" stroke="black" points="749.5,-0.5 749.5,-41.5 928.5,-41.5 928.5,-0.5 749.5,-0.5"/>
<text text-anchor="start" x="757.5" y="-29.5" font-family="Helvetica,sans-Serif" font-size="10.00">/home/tomek/CLionProjects</text>
<text text-anchor="start" x="757.5" y="-18.5" font-family="Helvetica,sans-Serif" font-size="10.00">/proi/proi&#45;projekt/src</text>
<text text-anchor="middle" x="839" y="-7.5" font-family="Helvetica,sans-Serif" font-size="10.00">/game&#45;lib/MenuEventHandler.cpp</text>
</a>
</g>
</g>
<!-- Node6&#45;&gt;Node8 -->
<g id="edge10" class="edge">
<title>Node6&#45;&gt;Node8</title>
<path fill="none" stroke="midnightblue" d="M669.27,-75.3C703.53,-64.55 744.04,-51.82 776.89,-41.51"/>
<polygon fill="midnightblue" stroke="midnightblue" points="667.81,-72.09 659.32,-78.43 669.91,-78.77 667.81,-72.09"/>
</g>
<!-- Node9 -->
<g id="node9" class="node">
<title>Node9</title>
<g id="a_node9"><a xlink:href="_pause_event_handler_8cpp.html" target="_top" xlink:title=" ">
<polygon fill="none" stroke="black" points="947,-0.5 947,-41.5 1127,-41.5 1127,-0.5 947,-0.5"/>
<text text-anchor="start" x="955" y="-29.5" font-family="Helvetica,sans-Serif" font-size="10.00">/home/tomek/CLionProjects</text>
<text text-anchor="start" x="955" y="-18.5" font-family="Helvetica,sans-Serif" font-size="10.00">/proi/proi&#45;projekt/src</text>
<text text-anchor="middle" x="1037" y="-7.5" font-family="Helvetica,sans-Serif" font-size="10.00">/game&#45;lib/PauseEventHandler.cpp</text>
</a>
</g>
</g>
<!-- Node6&#45;&gt;Node9 -->
<g id="edge11" class="edge">
<title>Node6&#45;&gt;Node9</title>
<path fill="none" stroke="midnightblue" d="M682.54,-84.07C774.97,-68.99 912.41,-46.48 937,-42 940.22,-41.41 943.5,-40.81 946.81,-40.18"/>
<polygon fill="midnightblue" stroke="midnightblue" points="681.92,-80.62 672.62,-85.69 683.05,-87.53 681.92,-80.62"/>
</g>
<!-- Node10 -->
<g id="node10" class="node">
<title>Node10</title>
<g id="a_node10"><a xlink:href="tanks_8cpp.html" target="_top" xlink:title=" ">
<polygon fill="none" stroke="black" points="210.5,-0.5 210.5,-41.5 361.5,-41.5 361.5,-0.5 210.5,-0.5"/>
<text text-anchor="start" x="218.5" y="-29.5" font-family="Helvetica,sans-Serif" font-size="10.00">/home/tomek/CLionProjects</text>
<text text-anchor="start" x="218.5" y="-18.5" font-family="Helvetica,sans-Serif" font-size="10.00">/proi/proi&#45;projekt/src</text>
<text text-anchor="middle" x="286" y="-7.5" font-family="Helvetica,sans-Serif" font-size="10.00">/main/tanks.cpp</text>
</a>
</g>
</g>
<!-- Node6&#45;&gt;Node10 -->
<g id="edge12" class="edge">
<title>Node6&#45;&gt;Node10</title>
<path fill="none" stroke="midnightblue" d="M511.49,-77.1C464.61,-65.65 407,-51.57 361.75,-40.51"/>
<polygon fill="midnightblue" stroke="midnightblue" points="510.77,-80.53 521.32,-79.51 512.44,-73.73 510.77,-80.53"/>
</g>
<!-- Node11&#45;&gt;Node3 -->
<g id="edge14" class="edge">
<title>Node11&#45;&gt;Node3</title>
<path fill="none" stroke="midnightblue" d="M944.96,-77.79C1015.72,-65.01 1100.07,-49.53 1136,-42 1139.12,-41.35 1142.29,-40.67 1145.5,-39.97"/>
<polygon fill="midnightblue" stroke="midnightblue" points="944.29,-74.35 935.07,-79.57 945.53,-81.24 944.29,-74.35"/>
</g>
<!-- Node11&#45;&gt;Node4 -->
<g id="edge16" class="edge">
<title>Node11&#45;&gt;Node4</title>
<path fill="none" stroke="midnightblue" d="M838.6,-129.63C838.92,-138.62 838.72,-148.27 837.99,-156.43"/>
<polygon fill="midnightblue" stroke="midnightblue" points="842.09,-129.27 837.98,-119.51 835.1,-129.7 842.09,-129.27"/>
</g>
<!-- Node11&#45;&gt;Node8 -->
<g id="edge15" class="edge">
<title>Node11&#45;&gt;Node8</title>
<path fill="none" stroke="midnightblue" d="M834.74,-68.3C835.56,-59.3 836.45,-49.65 837.2,-41.51"/>
<polygon fill="midnightblue" stroke="midnightblue" points="831.23,-68.15 833.8,-78.43 838.21,-68.79 831.23,-68.15"/>
</g>
<!-- Node12&#45;&gt;Node3 -->
<g id="edge18" class="edge">
<title>Node12&#45;&gt;Node3</title>
<path fill="none" stroke="midnightblue" d="M1108.38,-74.19C1131.07,-63.67 1157.41,-51.47 1178.91,-41.51"/>
<polygon fill="midnightblue" stroke="midnightblue" points="1106.84,-71.05 1099.23,-78.43 1109.78,-77.4 1106.84,-71.05"/>
</g>
<!-- Node12&#45;&gt;Node4 -->
<g id="edge20" class="edge">
<title>Node12&#45;&gt;Node4</title>
<path fill="none" stroke="midnightblue" d="M995.44,-122.9C964.54,-133.59 927.16,-146.19 895.93,-156.43"/>
<polygon fill="midnightblue" stroke="midnightblue" points="996.94,-126.09 1005.24,-119.51 994.64,-119.48 996.94,-126.09"/>
</g>
<!-- Node12&#45;&gt;Node9 -->
<g id="edge19" class="edge">
<title>Node12&#45;&gt;Node9</title>
<path fill="none" stroke="midnightblue" d="M1049.26,-68.59C1046.87,-59.51 1044.3,-49.74 1042.13,-41.51"/>
<polygon fill="midnightblue" stroke="midnightblue" points="1045.92,-69.65 1051.85,-78.43 1052.69,-67.87 1045.92,-69.65"/>
</g>
</g>
</svg>
