<?xml version="1.0" encoding="UTF-8" standalone="no"?>
<!DOCTYPE svg PUBLIC "-//W3C//DTD SVG 1.1//EN"
 "http://www.w3.org/Graphics/SVG/1.1/DTD/svg11.dtd">
<!-- Generated by graphviz version 2.43.0 (0)
 -->
<!-- Title: /home/tomek/CLionProjects/proi/proi&#45;projekt/src/game&#45;lib/FinishedEventHandler.cpp Pages: 1 -->
<!--zoomable 542 -->
<svg id="main" version="1.1" xmlns="http://www.w3.org/2000/svg" xmlns:xlink="http://www.w3.org/1999/xlink" xml:space="preserve" onload="init(evt)">
<style type="text/css"><![CDATA[
.edge:hover path { stroke: red; }
.edge:hover polygon { stroke: red; fill: red; }
]]></style>
<script type="text/javascript"><![CDATA[
var edges = document.getElementsByTagName('g');
if (edges && edges.length) {
  for (var i=0;i<edges.length;i++) {
    if (edges[i].id.substr(0,4)=='edge') {
      edges[i].setAttribute('class','edge');
    }
  }
}
]]></script>
        <defs>
                <circle id="rim" cx="0" cy="0" r="7"/>
                <circle id="rim2" cx="0" cy="0" r="3.5"/>
                <g id="zoomPlus">
                        <use xlink:href="#rim" fill="#404040">
                                <set attributeName="fill" to="#808080" begin="zoomplus.mouseover" end="zoomplus.mouseout"/>
                        </use>
                        <path d="M-4,0h8M0,-4v8" fill="none" stroke="white" stroke-width="1.5" pointer-events="none"/>
                </g>
                <g id="zoomMin">
                        <use xlink:href="#rim" fill="#404040">
                                <set attributeName="fill" to="#808080" begin="zoomminus.mouseover" end="zoomminus.mouseout"/>
                        </use>
                        <path d="M-4,0h8" fill="none" stroke="white" stroke-width="1.5" pointer-events="none"/>
                </g>
                <g id="dirArrow">
                        <path fill="none" stroke="white" stroke-width="1.5" d="M0,-3.0v7 M-2.5,-0.5L0,-3.0L2.5,-0.5"/>
                </g>
               <g id="resetDef">
                       <use xlink:href="#rim2" fill="#404040">
                               <set attributeName="fill" to="#808080" begin="reset.mouseover" end="reset.mouseout"/>
                       </use>
               </g>
        </defs>

<script type="text/javascript">
var viewWidth = 1545;
var viewHeight = 542;
var sectionId = 'dynsection-0';
</script>
<script xlink:href="svgpan.js"/>
<svg id="graph" class="graph">
<g id="viewport">
<title>/home/tomek/CLionProjects/proi/proi&#45;projekt/src/game&#45;lib/FinishedEventHandler.cpp</title>
<!-- Node1 -->
<g id="node1" class="node">
<title>Node1</title>
<g id="a_node1"><a xlink:title=" ">
<polygon fill="#bfbfbf" stroke="black" points="166.5,-492.5 166.5,-533.5 358.5,-533.5 358.5,-492.5 166.5,-492.5"/>
<text text-anchor="start" x="174.5" y="-521.5" font-family="Helvetica,sans-Serif" font-size="10.00">/home/tomek/CLionProjects</text>
<text text-anchor="start" x="174.5" y="-510.5" font-family="Helvetica,sans-Serif" font-size="10.00">/proi/proi&#45;projekt/src</text>
<text text-anchor="middle" x="262.5" y="-499.5" font-family="Helvetica,sans-Serif" font-size="10.00">/game&#45;lib/FinishedEventHandler.cpp</text>
</a>
</g>
</g>
<!-- Node2 -->
<g id="node2" class="node">
<title>Node2</title>
<g id="a_node2"><a xlink:title=" ">
<polygon fill="none" stroke="#bfbfbf" points="0,-324.5 0,-343.5 45,-343.5 45,-324.5 0,-324.5"/>
<text text-anchor="middle" x="22.5" y="-331.5" font-family="Helvetica,sans-Serif" font-size="10.00">utility</text>
</a>
</g>
</g>
<!-- Node1&#45;&gt;Node2 -->
<g id="edge1" class="edge">
<title>Node1&#45;&gt;Node2</title>
<path fill="none" stroke="midnightblue" d="M200.62,-492.5C153.7,-474.93 90.5,-444.88 49.5,-400 37.53,-386.9 30.46,-367.75 26.57,-353.63"/>
<polygon fill="midnightblue" stroke="midnightblue" points="29.89,-352.47 24.11,-343.59 23.09,-354.14 29.89,-352.47"/>
</g>
<!-- Node3 -->
<g id="node3" class="node">
<title>Node3</title>
<g id="a_node3"><a xlink:title=" ">
<polygon fill="none" stroke="#bfbfbf" points="174.5,-436.5 174.5,-455.5 234.5,-455.5 234.5,-436.5 174.5,-436.5"/>
<text text-anchor="middle" x="204.5" y="-443.5" font-family="Helvetica,sans-Serif" font-size="10.00">iostream</text>
</a>
</g>
</g>
<!-- Node1&#45;&gt;Node3 -->
<g id="edge2" class="edge">
<title>Node1&#45;&gt;Node3</title>
<path fill="none" stroke="midnightblue" d="M245.1,-492.5C236.8,-483.2 226.99,-472.21 219.1,-463.36"/>
<polygon fill="midnightblue" stroke="midnightblue" points="221.49,-460.78 212.22,-455.65 216.27,-465.44 221.49,-460.78"/>
</g>
<!-- Node4 -->
<g id="node4" class="node">
<title>Node4</title>
<g id="a_node4"><a xlink:href="_finished_event_handler_8h.html" target="_top" xlink:title=" ">
<polygon fill="none" stroke="black" points="139.5,-324.5 139.5,-343.5 309.5,-343.5 309.5,-324.5 139.5,-324.5"/>
<text text-anchor="middle" x="224.5" y="-331.5" font-family="Helvetica,sans-Serif" font-size="10.00">include/FinishedEventHandler.h</text>
</a>
</g>
</g>
<!-- Node1&#45;&gt;Node4 -->
<g id="edge3" class="edge">
<title>Node1&#45;&gt;Node4</title>
<path fill="none" stroke="midnightblue" d="M258.29,-492.38C250.89,-457.93 235.67,-387.04 228.46,-353.44"/>
<polygon fill="midnightblue" stroke="midnightblue" points="231.86,-352.63 226.34,-343.58 225.02,-354.1 231.86,-352.63"/>
</g>
<!-- Node6 -->
<g id="node6" class="node">
<title>Node6</title>
<g id="a_node6"><a xlink:href="_event_handler_8h.html" target="_top" xlink:title=" ">
<polygon fill="none" stroke="black" points="282.5,-257.5 282.5,-287.5 392.5,-287.5 392.5,-257.5 282.5,-257.5"/>
<text text-anchor="start" x="290.5" y="-275.5" font-family="Helvetica,sans-Serif" font-size="10.00">../../core&#45;lib/include</text>
<text text-anchor="middle" x="337.5" y="-264.5" font-family="Helvetica,sans-Serif" font-size="10.00">/EventHandler.h</text>
</a>
</g>
</g>
<!-- Node1&#45;&gt;Node6 -->
<g id="edge71" class="edge">
<title>Node1&#45;&gt;Node6</title>
<path fill="none" stroke="midnightblue" d="M269.43,-492.46C280.39,-461.26 302.19,-398.17 318.5,-344 323.11,-328.68 327.8,-311.32 331.36,-297.66"/>
<polygon fill="midnightblue" stroke="midnightblue" points="334.85,-298.17 333.96,-287.61 328.07,-296.42 334.85,-298.17"/>
</g>
<!-- Node15 -->
<g id="node15" class="node">
<title>Node15</title>
<g id="a_node15"><a xlink:href="_game_8h.html" target="_top" xlink:title=" ">
<polygon fill="none" stroke="black" points="553,-436.5 553,-455.5 646,-455.5 646,-436.5 553,-436.5"/>
<text text-anchor="middle" x="599.5" y="-443.5" font-family="Helvetica,sans-Serif" font-size="10.00">include/Game.h</text>
</a>
</g>
</g>
<!-- Node1&#45;&gt;Node15 -->
<g id="edge20" class="edge">
<title>Node1&#45;&gt;Node15</title>
<path fill="none" stroke="midnightblue" d="M358.62,-493.46C419.05,-481.81 494.81,-467.19 545.06,-457.5"/>
<polygon fill="midnightblue" stroke="midnightblue" points="545.91,-460.9 555.07,-455.57 544.58,-454.03 545.91,-460.9"/>
</g>
<!-- Node5 -->
<g id="node5" class="node">
<title>Node5</title>
<g id="a_node5"><a xlink:title=" ">
<polygon fill="none" stroke="#bfbfbf" points="764.5,-0.5 764.5,-19.5 822.5,-19.5 822.5,-0.5 764.5,-0.5"/>
<text text-anchor="middle" x="793.5" y="-7.5" font-family="Helvetica,sans-Serif" font-size="10.00">memory</text>
</a>
</g>
</g>
<!-- Node4&#45;&gt;Node5 -->
<g id="edge4" class="edge">
<title>Node4&#45;&gt;Node5</title>
<path fill="none" stroke="midnightblue" d="M214.7,-324.25C194.37,-305.08 149.5,-257.05 149.5,-206.5 149.5,-206.5 149.5,-206.5 149.5,-137.5 149.5,-96.34 158.96,-78.4 193.5,-56 240.39,-25.59 628.21,-14.58 754.16,-11.78"/>
<polygon fill="midnightblue" stroke="midnightblue" points="754.57,-15.27 764.49,-11.56 754.41,-8.27 754.57,-15.27"/>
</g>
<!-- Node4&#45;&gt;Node6 -->
<g id="edge5" class="edge">
<title>Node4&#45;&gt;Node6</title>
<path fill="none" stroke="midnightblue" d="M240.69,-324.48C256.57,-316.12 281.3,-303.09 301.8,-292.3"/>
<polygon fill="midnightblue" stroke="midnightblue" points="303.65,-295.28 310.87,-287.52 300.39,-289.09 303.65,-295.28"/>
</g>
<!-- Node6&#45;&gt;Node5 -->
<g id="edge6" class="edge">
<title>Node6&#45;&gt;Node5</title>
<path fill="none" stroke="midnightblue" d="M341.46,-257.36C353.39,-217.75 392.98,-105.33 470.5,-56 516.92,-26.46 679.03,-15.84 754.41,-12.43"/>
<polygon fill="midnightblue" stroke="midnightblue" points="754.61,-15.93 764.45,-12 754.31,-8.93 754.61,-15.93"/>
</g>
<!-- Node7 -->
<g id="node7" class="node">
<title>Node7</title>
<g id="a_node7"><a xlink:href="_event_8h.html" target="_top" xlink:title=" ">
<polygon fill="none" stroke="black" points="237,-62 237,-81 290,-81 290,-62 237,-62"/>
<text text-anchor="middle" x="263.5" y="-69" font-family="Helvetica,sans-Serif" font-size="10.00">Event.h</text>
</a>
</g>
</g>
<!-- Node6&#45;&gt;Node7 -->
<g id="edge7" class="edge">
<title>Node6&#45;&gt;Node7</title>
<path fill="none" stroke="midnightblue" d="M293.75,-257.32C276.82,-249.45 259.21,-237.77 249.5,-221 225.46,-179.49 243.54,-120.29 255.37,-90.75"/>
<polygon fill="midnightblue" stroke="midnightblue" points="258.7,-91.86 259.36,-81.29 252.25,-89.14 258.7,-91.86"/>
</g>
<!-- Node10 -->
<g id="node10" class="node">
<title>Node10</title>
<g id="a_node10"><a xlink:href="_event_publisher_8h.html" target="_top" xlink:title=" ">
<polygon fill="none" stroke="black" points="456.5,-196 456.5,-215 554.5,-215 554.5,-196 456.5,-196"/>
<text text-anchor="middle" x="505.5" y="-203" font-family="Helvetica,sans-Serif" font-size="10.00">EventPublisher.h</text>
</a>
</g>
</g>
<!-- Node6&#45;&gt;Node10 -->
<g id="edge11" class="edge">
<title>Node6&#45;&gt;Node10</title>
<path fill="none" stroke="midnightblue" d="M373.95,-257.4C403.82,-245.84 445.65,-229.66 474.06,-218.66"/>
<polygon fill="midnightblue" stroke="midnightblue" points="475.45,-221.88 483.51,-215.01 472.92,-215.35 475.45,-221.88"/>
</g>
<!-- Node7&#45;&gt;Node5 -->
<g id="edge10" class="edge">
<title>Node7&#45;&gt;Node5</title>
<path fill="none" stroke="midnightblue" d="M284.49,-61.95C290.82,-59.68 297.86,-57.46 304.5,-56 469.01,-19.93 670.82,-12.73 754.39,-11.33"/>
<polygon fill="midnightblue" stroke="midnightblue" points="754.51,-14.82 764.46,-11.17 754.41,-7.82 754.51,-14.82"/>
</g>
<!-- Node8 -->
<g id="node8" class="node">
<title>Node8</title>
<g id="a_node8"><a xlink:title=" ">
<polygon fill="none" stroke="#bfbfbf" points="344,-0.5 344,-19.5 409,-19.5 409,-0.5 344,-0.5"/>
<text text-anchor="middle" x="376.5" y="-7.5" font-family="Helvetica,sans-Serif" font-size="10.00">exception</text>
</a>
</g>
</g>
<!-- Node7&#45;&gt;Node8 -->
<g id="edge8" class="edge">
<title>Node7&#45;&gt;Node8</title>
<path fill="none" stroke="midnightblue" d="M279.69,-61.98C298.4,-52.12 329.42,-35.79 351.3,-24.27"/>
<polygon fill="midnightblue" stroke="midnightblue" points="353.12,-27.27 360.34,-19.51 349.86,-21.07 353.12,-27.27"/>
</g>
<!-- Node9 -->
<g id="node9" class="node">
<title>Node9</title>
<g id="a_node9"><a xlink:title=" ">
<polygon fill="none" stroke="#bfbfbf" points="146.5,-0.5 146.5,-19.5 190.5,-19.5 190.5,-0.5 146.5,-0.5"/>
<text text-anchor="middle" x="168.5" y="-7.5" font-family="Helvetica,sans-Serif" font-size="10.00">string</text>
</a>
</g>
</g>
<!-- Node7&#45;&gt;Node9 -->
<g id="edge9" class="edge">
<title>Node7&#45;&gt;Node9</title>
<path fill="none" stroke="midnightblue" d="M249.89,-61.98C234.44,-52.3 209.01,-36.37 190.68,-24.89"/>
<polygon fill="midnightblue" stroke="midnightblue" points="192.42,-21.85 182.09,-19.51 188.7,-27.78 192.42,-21.85"/>
</g>
<!-- Node10&#45;&gt;Node7 -->
<g id="edge14" class="edge">
<title>Node10&#45;&gt;Node7</title>
<path fill="none" stroke="midnightblue" d="M489.62,-195.84C448.41,-173.36 337.82,-113.04 288.2,-85.97"/>
<polygon fill="midnightblue" stroke="midnightblue" points="289.58,-82.74 279.12,-81.02 286.23,-88.88 289.58,-82.74"/>
</g>
<!-- Node11 -->
<g id="node11" class="node">
<title>Node11</title>
<g id="a_node11"><a xlink:title=" ">
<polygon fill="none" stroke="#bfbfbf" points="479.5,-62 479.5,-81 517.5,-81 517.5,-62 479.5,-62"/>
<text text-anchor="middle" x="498.5" y="-69" font-family="Helvetica,sans-Serif" font-size="10.00">map</text>
</a>
</g>
</g>
<!-- Node10&#45;&gt;Node11 -->
<g id="edge12" class="edge">
<title>Node10&#45;&gt;Node11</title>
<path fill="none" stroke="midnightblue" d="M497.68,-196C489.57,-186.56 477.4,-170.46 472.5,-154 468.57,-140.8 469.26,-136.39 472.5,-123 475.33,-111.33 481.34,-99.35 486.88,-89.98"/>
<polygon fill="midnightblue" stroke="midnightblue" points="489.98,-91.62 492.32,-81.29 484.04,-87.91 489.98,-91.62"/>
</g>
<!-- Node12 -->
<g id="node12" class="node">
<title>Node12</title>
<g id="a_node12"><a xlink:title=" ">
<polygon fill="none" stroke="#bfbfbf" points="1353,-0.5 1353,-19.5 1400,-19.5 1400,-0.5 1353,-0.5"/>
<text text-anchor="middle" x="1376.5" y="-7.5" font-family="Helvetica,sans-Serif" font-size="10.00">vector</text>
</a>
</g>
</g>
<!-- Node10&#45;&gt;Node12 -->
<g id="edge13" class="edge">
<title>Node10&#45;&gt;Node12</title>
<path fill="none" stroke="midnightblue" d="M554.71,-198.8C581.77,-195.83 615.95,-192.34 646.5,-190 805.57,-177.84 1210.17,-198.04 1363.5,-154 1422.21,-137.14 1452.58,-139.68 1483.5,-87 1490.47,-75.12 1491.12,-67.48 1483.5,-56 1467.3,-31.62 1435.04,-20.42 1410.16,-15.29"/>
<polygon fill="midnightblue" stroke="midnightblue" points="1410.48,-11.79 1400.01,-13.44 1409.22,-18.68 1410.48,-11.79"/>
</g>
<!-- Node13 -->
<g id="node13" class="node">
<title>Node13</title>
<g id="a_node13"><a xlink:href="_event_subscriber_8h.html" target="_top" xlink:title=" ">
<polygon fill="none" stroke="black" points="481.5,-129 481.5,-148 585.5,-148 585.5,-129 481.5,-129"/>
<text text-anchor="middle" x="533.5" y="-136" font-family="Helvetica,sans-Serif" font-size="10.00">EventSubscriber.h</text>
</a>
</g>
</g>
<!-- Node10&#45;&gt;Node13 -->
<g id="edge15" class="edge">
<title>Node10&#45;&gt;Node13</title>
<path fill="none" stroke="midnightblue" d="M509.28,-195.73C513.47,-185.99 520.37,-169.98 525.73,-157.53"/>
<polygon fill="midnightblue" stroke="midnightblue" points="529.04,-158.7 529.78,-148.13 522.61,-155.93 529.04,-158.7"/>
</g>
<!-- Node13&#45;&gt;Node7 -->
<g id="edge19" class="edge">
<title>Node13&#45;&gt;Node7</title>
<path fill="none" stroke="midnightblue" d="M497.92,-128.94C446.51,-116.56 351.91,-93.78 299.99,-81.28"/>
<polygon fill="midnightblue" stroke="midnightblue" points="300.74,-77.87 290.2,-78.93 299.1,-84.67 300.74,-77.87"/>
</g>
<!-- Node13&#45;&gt;Node11 -->
<g id="edge16" class="edge">
<title>Node13&#45;&gt;Node11</title>
<path fill="none" stroke="midnightblue" d="M528.78,-128.73C523.48,-118.89 514.74,-102.66 508.01,-90.16"/>
<polygon fill="midnightblue" stroke="midnightblue" points="510.97,-88.27 503.15,-81.13 504.8,-91.59 510.97,-88.27"/>
</g>
<!-- Node13&#45;&gt;Node12 -->
<g id="edge17" class="edge">
<title>Node13&#45;&gt;Node12</title>
<path fill="none" stroke="midnightblue" d="M577.99,-128.97C661.16,-113.2 845.92,-79.01 1002.5,-56 1127.54,-37.63 1276.91,-21.35 1342.63,-14.47"/>
<polygon fill="midnightblue" stroke="midnightblue" points="1343.23,-17.93 1352.81,-13.41 1342.51,-10.97 1343.23,-17.93"/>
</g>
<!-- Node14 -->
<g id="node14" class="node">
<title>Node14</title>
<g id="a_node14"><a xlink:title=" ">
<polygon fill="none" stroke="#bfbfbf" points="641.5,-62 641.5,-81 673.5,-81 673.5,-62 641.5,-62"/>
<text text-anchor="middle" x="657.5" y="-69" font-family="Helvetica,sans-Serif" font-size="10.00">list</text>
</a>
</g>
</g>
<!-- Node13&#45;&gt;Node14 -->
<g id="edge18" class="edge">
<title>Node13&#45;&gt;Node14</title>
<path fill="none" stroke="midnightblue" d="M549.97,-128.87C571.02,-117.83 607.69,-98.61 632.27,-85.72"/>
<polygon fill="midnightblue" stroke="midnightblue" points="634.13,-88.7 641.36,-80.96 630.88,-82.5 634.13,-88.7"/>
</g>
<!-- Node15&#45;&gt;Node5 -->
<g id="edge21" class="edge">
<title>Node15&#45;&gt;Node5</title>
<path fill="none" stroke="midnightblue" d="M643.78,-436.49C720.38,-420.48 869.5,-383.15 869.5,-335 869.5,-335 869.5,-335 869.5,-137.5 869.5,-92.12 833.12,-48.98 810.7,-26.7"/>
<polygon fill="midnightblue" stroke="midnightblue" points="813.07,-24.13 803.44,-19.73 808.22,-29.18 813.07,-24.13"/>
</g>
<!-- Node16 -->
<g id="node16" class="node">
<title>Node16</title>
<g id="a_node16"><a xlink:href="_game_state_8h.html" target="_top" xlink:title=" ">
<polygon fill="none" stroke="black" points="559.5,-380.5 559.5,-399.5 639.5,-399.5 639.5,-380.5 559.5,-380.5"/>
<text text-anchor="middle" x="599.5" y="-387.5" font-family="Helvetica,sans-Serif" font-size="10.00">GameState.h</text>
</a>
</g>
</g>
<!-- Node15&#45;&gt;Node16 -->
<g id="edge22" class="edge">
<title>Node15&#45;&gt;Node16</title>
<path fill="none" stroke="midnightblue" d="M599.5,-436.08C599.5,-429.01 599.5,-418.86 599.5,-409.99"/>
<polygon fill="midnightblue" stroke="midnightblue" points="603,-409.75 599.5,-399.75 596,-409.75 603,-409.75"/>
</g>
<!-- Node23 -->
<g id="node23" class="node">
<title>Node23</title>
<g id="a_node23"><a xlink:href="_keyboard_controller_8h.html" target="_top" xlink:title=" ">
<polygon fill="none" stroke="black" points="1235,-129 1235,-148 1354,-148 1354,-129 1235,-129"/>
<text text-anchor="middle" x="1294.5" y="-136" font-family="Helvetica,sans-Serif" font-size="10.00">KeyboardController.h</text>
</a>
</g>
</g>
<!-- Node15&#45;&gt;Node23 -->
<g id="edge43" class="edge">
<title>Node15&#45;&gt;Node23</title>
<path fill="none" stroke="midnightblue" d="M646,-441.96C793.7,-431.71 1242.5,-395.56 1242.5,-335 1242.5,-335 1242.5,-335 1242.5,-271.5 1242.5,-227.58 1267.73,-180.79 1283.04,-156.45"/>
<polygon fill="midnightblue" stroke="midnightblue" points="1286.02,-158.29 1288.53,-148 1280.15,-154.48 1286.02,-158.29"/>
</g>
<!-- Node26 -->
<g id="node26" class="node">
<title>Node26</title>
<g id="a_node26"><a xlink:href="_menu_8h.html" target="_top" xlink:title=" ">
<polygon fill="none" stroke="black" points="411,-263 411,-282 464,-282 464,-263 411,-263"/>
<text text-anchor="middle" x="437.5" y="-270" font-family="Helvetica,sans-Serif" font-size="10.00">Menu.h</text>
</a>
</g>
</g>
<!-- Node15&#45;&gt;Node26 -->
<g id="edge49" class="edge">
<title>Node15&#45;&gt;Node26</title>
<path fill="none" stroke="midnightblue" d="M552.87,-436.75C503.79,-425.32 428.98,-399.42 394.5,-344 382.76,-325.13 401,-303.27 417.22,-288.96"/>
<polygon fill="midnightblue" stroke="midnightblue" points="419.88,-291.29 425.34,-282.21 415.41,-285.9 419.88,-291.29"/>
</g>
<!-- Node27 -->
<g id="node27" class="node">
<title>Node27</title>
<g id="a_node27"><a xlink:href="_game_stats_i_o_8h.html" target="_top" xlink:title=" ">
<polygon fill="none" stroke="black" points="58.5,-380.5 58.5,-399.5 148.5,-399.5 148.5,-380.5 58.5,-380.5"/>
<text text-anchor="middle" x="103.5" y="-387.5" font-family="Helvetica,sans-Serif" font-size="10.00">GameStatsIO.h</text>
</a>
</g>
</g>
<!-- Node15&#45;&gt;Node27 -->
<g id="edge52" class="edge">
<title>Node15&#45;&gt;Node27</title>
<path fill="none" stroke="midnightblue" d="M552.84,-439.92C460.95,-429.92 256.98,-407.71 158.64,-397"/>
<polygon fill="midnightblue" stroke="midnightblue" points="158.92,-393.51 148.6,-395.91 158.16,-400.47 158.92,-393.51"/>
</g>
<!-- Node28 -->
<g id="node28" class="node">
<title>Node28</title>
<g id="a_node28"><a xlink:href="_board_8h.html" target="_top" xlink:title=" ">
<polygon fill="none" stroke="black" points="897.5,-257.5 897.5,-287.5 1013.5,-287.5 1013.5,-257.5 897.5,-257.5"/>
<text text-anchor="start" x="905.5" y="-275.5" font-family="Helvetica,sans-Serif" font-size="10.00">../../board&#45;lib/include</text>
<text text-anchor="middle" x="955.5" y="-264.5" font-family="Helvetica,sans-Serif" font-size="10.00">/Board.h</text>
</a>
</g>
</g>
<!-- Node15&#45;&gt;Node28 -->
<g id="edge56" class="edge">
<title>Node15&#45;&gt;Node28</title>
<path fill="none" stroke="midnightblue" d="M646.16,-442.47C716.6,-437.85 845.89,-426.02 883.5,-400 919.22,-375.29 939.43,-326.73 948.86,-297.49"/>
<polygon fill="midnightblue" stroke="midnightblue" points="952.28,-298.26 951.85,-287.67 945.59,-296.22 952.28,-298.26"/>
</g>
<!-- Node16&#45;&gt;Node4 -->
<g id="edge42" class="edge">
<title>Node16&#45;&gt;Node4</title>
<path fill="none" stroke="midnightblue" d="M559.37,-383.22C495.99,-374.09 371.92,-356.23 293.89,-344.99"/>
<polygon fill="midnightblue" stroke="midnightblue" points="294.06,-341.48 283.67,-343.52 293.07,-348.41 294.06,-341.48"/>
</g>
<!-- Node16&#45;&gt;Node5 -->
<g id="edge23" class="edge">
<title>Node16&#45;&gt;Node5</title>
<path fill="none" stroke="midnightblue" d="M639.5,-385.12C693.02,-379.16 784.04,-366.06 808.5,-344 832.98,-321.93 831.5,-306.46 831.5,-273.5 831.5,-273.5 831.5,-273.5 831.5,-137.5 831.5,-97.35 813.72,-52.95 802.49,-28.89"/>
<polygon fill="midnightblue" stroke="midnightblue" points="805.51,-27.1 798.01,-19.63 799.21,-30.15 805.51,-27.1"/>
</g>
<!-- Node17 -->
<g id="node17" class="node">
<title>Node17</title>
<g id="a_node17"><a xlink:href="_active_event_handler_8h.html" target="_top" xlink:title=" ">
<polygon fill="none" stroke="black" points="677.5,-324.5 677.5,-343.5 799.5,-343.5 799.5,-324.5 677.5,-324.5"/>
<text text-anchor="middle" x="738.5" y="-331.5" font-family="Helvetica,sans-Serif" font-size="10.00">ActiveEventHandler.h</text>
</a>
</g>
</g>
<!-- Node16&#45;&gt;Node17 -->
<g id="edge24" class="edge">
<title>Node16&#45;&gt;Node17</title>
<path fill="none" stroke="midnightblue" d="M621.52,-380.44C644.6,-371.48 681.06,-357.31 707.14,-347.18"/>
<polygon fill="midnightblue" stroke="midnightblue" points="708.52,-350.4 716.58,-343.52 705.99,-343.88 708.52,-350.4"/>
</g>
<!-- Node21 -->
<g id="node21" class="node">
<title>Node21</title>
<g id="a_node21"><a xlink:href="_menu_event_handler_8h.html" target="_top" xlink:title=" ">
<polygon fill="none" stroke="black" points="403.5,-324.5 403.5,-343.5 521.5,-343.5 521.5,-324.5 403.5,-324.5"/>
<text text-anchor="middle" x="462.5" y="-331.5" font-family="Helvetica,sans-Serif" font-size="10.00">MenuEventHandler.h</text>
</a>
</g>
</g>
<!-- Node16&#45;&gt;Node21 -->
<g id="edge34" class="edge">
<title>Node16&#45;&gt;Node21</title>
<path fill="none" stroke="midnightblue" d="M572.7,-380.44C548.21,-371.56 512.47,-357.56 488.3,-347.45"/>
<polygon fill="midnightblue" stroke="midnightblue" points="489.6,-344.2 479.03,-343.52 486.86,-350.64 489.6,-344.2"/>
</g>
<!-- Node22 -->
<g id="node22" class="node">
<title>Node22</title>
<g id="a_node22"><a xlink:href="_pause_event_handler_8h.html" target="_top" xlink:title=" ">
<polygon fill="none" stroke="black" points="540,-324.5 540,-343.5 659,-343.5 659,-324.5 540,-324.5"/>
<text text-anchor="middle" x="599.5" y="-331.5" font-family="Helvetica,sans-Serif" font-size="10.00">PauseEventHandler.h</text>
</a>
</g>
</g>
<!-- Node16&#45;&gt;Node22 -->
<g id="edge38" class="edge">
<title>Node16&#45;&gt;Node22</title>
<path fill="none" stroke="midnightblue" d="M594.33,-380.08C592.82,-372.93 592.39,-362.64 593.04,-353.69"/>
<polygon fill="midnightblue" stroke="midnightblue" points="596.52,-354.13 594.37,-343.75 589.58,-353.2 596.52,-354.13"/>
</g>
<!-- Node17&#45;&gt;Node5 -->
<g id="edge25" class="edge">
<title>Node17&#45;&gt;Node5</title>
<path fill="none" stroke="midnightblue" d="M745.24,-324.36C759.93,-304.66 793.5,-254.4 793.5,-206.5 793.5,-206.5 793.5,-206.5 793.5,-137.5 793.5,-99.2 793.5,-54.38 793.5,-29.7"/>
<polygon fill="midnightblue" stroke="midnightblue" points="797,-29.59 793.5,-19.59 790,-29.59 797,-29.59"/>
</g>
<!-- Node17&#45;&gt;Node6 -->
<g id="edge26" class="edge">
<title>Node17&#45;&gt;Node6</title>
<path fill="none" stroke="midnightblue" d="M677.48,-325.12C594.64,-314.38 452.13,-295.74 402.75,-287.85"/>
<polygon fill="midnightblue" stroke="midnightblue" points="403.19,-284.37 392.75,-286.17 402.03,-291.28 403.19,-284.37"/>
</g>
<!-- Node18 -->
<g id="node18" class="node">
<title>Node18</title>
<g id="a_node18"><a xlink:href="_event_queue_8h.html" target="_top" xlink:title=" ">
<polygon fill="none" stroke="black" points="655.5,-190.5 655.5,-220.5 765.5,-220.5 765.5,-190.5 655.5,-190.5"/>
<text text-anchor="start" x="663.5" y="-208.5" font-family="Helvetica,sans-Serif" font-size="10.00">../../core&#45;lib/include</text>
<text text-anchor="middle" x="710.5" y="-197.5" font-family="Helvetica,sans-Serif" font-size="10.00">/EventQueue.h</text>
</a>
</g>
</g>
<!-- Node17&#45;&gt;Node18 -->
<g id="edge27" class="edge">
<title>Node17&#45;&gt;Node18</title>
<path fill="none" stroke="midnightblue" d="M737.58,-324.48C735.96,-310.34 732.21,-281.18 726.5,-257 724.43,-248.22 721.59,-238.75 718.89,-230.41"/>
<polygon fill="midnightblue" stroke="midnightblue" points="722.2,-229.29 715.71,-220.92 715.57,-231.52 722.2,-229.29"/>
</g>
<!-- Node20 -->
<g id="node20" class="node">
<title>Node20</title>
<g id="a_node20"><a xlink:href="_game_statistics_8h.html" target="_top" xlink:title=" ">
<polygon fill="none" stroke="black" points="617.5,-263 617.5,-282 717.5,-282 717.5,-263 617.5,-263"/>
<text text-anchor="middle" x="667.5" y="-270" font-family="Helvetica,sans-Serif" font-size="10.00">GameStatistics.h</text>
</a>
</g>
</g>
<!-- Node17&#45;&gt;Node20 -->
<g id="edge30" class="edge">
<title>Node17&#45;&gt;Node20</title>
<path fill="none" stroke="midnightblue" d="M728.33,-324.48C717.15,-315.11 698.98,-299.88 685.41,-288.51"/>
<polygon fill="midnightblue" stroke="midnightblue" points="687.57,-285.75 677.65,-282.01 683.07,-291.11 687.57,-285.75"/>
</g>
<!-- Node18&#45;&gt;Node5 -->
<g id="edge29" class="edge">
<title>Node18&#45;&gt;Node5</title>
<path fill="none" stroke="midnightblue" d="M718.38,-190.1C723.74,-180.09 730.86,-166.38 736.5,-154 756.65,-109.77 776.93,-56.21 787,-28.91"/>
<polygon fill="midnightblue" stroke="midnightblue" points="790.29,-30.09 790.44,-19.5 783.71,-27.69 790.29,-30.09"/>
</g>
<!-- Node19 -->
<g id="node19" class="node">
<title>Node19</title>
<g id="a_node19"><a xlink:title=" ">
<polygon fill="none" stroke="#bfbfbf" points="680,-129 680,-148 727,-148 727,-129 680,-129"/>
<text text-anchor="middle" x="703.5" y="-136" font-family="Helvetica,sans-Serif" font-size="10.00">queue</text>
</a>
</g>
</g>
<!-- Node18&#45;&gt;Node19 -->
<g id="edge28" class="edge">
<title>Node18&#45;&gt;Node19</title>
<path fill="none" stroke="midnightblue" d="M708.98,-190.4C707.97,-180.96 706.62,-168.45 705.51,-158.19"/>
<polygon fill="midnightblue" stroke="midnightblue" points="708.99,-157.76 704.44,-148.19 702.03,-158.51 708.99,-157.76"/>
</g>
<!-- Node20&#45;&gt;Node7 -->
<g id="edge33" class="edge">
<title>Node20&#45;&gt;Node7</title>
<path fill="none" stroke="midnightblue" d="M617.24,-266.82C546.6,-259.53 422.25,-243.89 383.5,-221 355.34,-204.36 299.27,-125.12 275.07,-89.69"/>
<polygon fill="midnightblue" stroke="midnightblue" points="277.9,-87.62 269.39,-81.31 272.11,-91.55 277.9,-87.62"/>
</g>
<!-- Node20&#45;&gt;Node14 -->
<g id="edge31" class="edge">
<title>Node20&#45;&gt;Node14</title>
<path fill="none" stroke="midnightblue" d="M662.68,-262.9C657.5,-253.1 649.59,-236.46 646.5,-221 637.3,-174.9 646.72,-119.35 652.95,-91.05"/>
<polygon fill="midnightblue" stroke="midnightblue" points="656.36,-91.84 655.21,-81.31 649.54,-90.26 656.36,-91.84"/>
</g>
<!-- Node20&#45;&gt;Node18 -->
<g id="edge32" class="edge">
<title>Node20&#45;&gt;Node18</title>
<path fill="none" stroke="midnightblue" d="M673.3,-262.73C679,-254.12 687.93,-240.61 695.62,-228.99"/>
<polygon fill="midnightblue" stroke="midnightblue" points="698.58,-230.86 701.18,-220.59 692.74,-227 698.58,-230.86"/>
</g>
<!-- Node21&#45;&gt;Node5 -->
<g id="edge35" class="edge">
<title>Node21&#45;&gt;Node5</title>
<path fill="none" stroke="midnightblue" d="M403.17,-331.11C322.33,-325 187.5,-300.7 187.5,-206.5 187.5,-206.5 187.5,-206.5 187.5,-137.5 187.5,-97.15 194.13,-78.68 227.5,-56 270.83,-26.55 632.5,-14.98 753.92,-11.9"/>
<polygon fill="midnightblue" stroke="midnightblue" points="754.33,-15.39 764.24,-11.65 754.16,-8.4 754.33,-15.39"/>
</g>
<!-- Node21&#45;&gt;Node6 -->
<g id="edge36" class="edge">
<title>Node21&#45;&gt;Node6</title>
<path fill="none" stroke="midnightblue" d="M444.59,-324.48C426.79,-316 398.92,-302.74 376.08,-291.86"/>
<polygon fill="midnightblue" stroke="midnightblue" points="377.49,-288.66 366.96,-287.52 374.49,-294.98 377.49,-288.66"/>
</g>
<!-- Node21&#45;&gt;Node16 -->
<g id="edge37" class="edge">
<title>Node21&#45;&gt;Node16</title>
<path fill="none" stroke="midnightblue" d="M489.19,-343.52C513.65,-352.39 549.38,-366.38 573.59,-376.5"/>
<polygon fill="midnightblue" stroke="midnightblue" points="572.31,-379.76 582.88,-380.44 575.04,-373.32 572.31,-379.76"/>
</g>
<!-- Node22&#45;&gt;Node5 -->
<g id="edge39" class="edge">
<title>Node22&#45;&gt;Node5</title>
<path fill="none" stroke="midnightblue" d="M599.29,-324.47C598.44,-282.44 596.81,-97.65 632.5,-56 662.45,-21.05 717.08,-12.13 754.32,-10.41"/>
<polygon fill="midnightblue" stroke="midnightblue" points="754.44,-13.91 764.32,-10.1 754.22,-6.91 754.44,-13.91"/>
</g>
<!-- Node22&#45;&gt;Node6 -->
<g id="edge40" class="edge">
<title>Node22&#45;&gt;Node6</title>
<path fill="none" stroke="midnightblue" d="M561.96,-324.48C520.44,-315.05 452.79,-299.68 402.59,-288.28"/>
<polygon fill="midnightblue" stroke="midnightblue" points="403.32,-284.86 392.8,-286.06 401.77,-291.69 403.32,-284.86"/>
</g>
<!-- Node22&#45;&gt;Node16 -->
<g id="edge41" class="edge">
<title>Node22&#45;&gt;Node16</title>
<path fill="none" stroke="midnightblue" d="M604.63,-343.75C606.16,-350.86 606.6,-361.14 605.97,-370.1"/>
<polygon fill="midnightblue" stroke="midnightblue" points="602.49,-369.71 604.67,-380.08 609.43,-370.62 602.49,-369.71"/>
</g>
<!-- Node23&#45;&gt;Node5 -->
<g id="edge44" class="edge">
<title>Node23&#45;&gt;Node5</title>
<path fill="none" stroke="midnightblue" d="M1301.67,-128.66C1314.11,-112.24 1336.59,-76.8 1317.5,-56 1284.91,-20.49 949.58,-12.94 833.1,-11.39"/>
<polygon fill="midnightblue" stroke="midnightblue" points="832.89,-7.89 822.85,-11.26 832.8,-14.89 832.89,-7.89"/>
</g>
<!-- Node24 -->
<g id="node24" class="node">
<title>Node24</title>
<g id="a_node24"><a xlink:title=" ">
<polygon fill="none" stroke="#bfbfbf" points="1364.5,-62 1364.5,-81 1474.5,-81 1474.5,-62 1364.5,-62"/>
<text text-anchor="middle" x="1419.5" y="-69" font-family="Helvetica,sans-Serif" font-size="10.00">SFML/Graphics.hpp</text>
</a>
</g>
</g>
<!-- Node23&#45;&gt;Node24 -->
<g id="edge45" class="edge">
<title>Node23&#45;&gt;Node24</title>
<path fill="none" stroke="midnightblue" d="M1311.1,-128.87C1332.21,-117.89 1368.88,-98.82 1393.66,-85.94"/>
<polygon fill="midnightblue" stroke="midnightblue" points="1395.57,-88.89 1402.83,-81.17 1392.35,-82.68 1395.57,-88.89"/>
</g>
<!-- Node25 -->
<g id="node25" class="node">
<title>Node25</title>
<g id="a_node25"><a xlink:href="_simple_subscriber_8h.html" target="_top" xlink:title=" ">
<polygon fill="none" stroke="black" points="1195,-56.5 1195,-86.5 1308,-86.5 1308,-56.5 1195,-56.5"/>
<text text-anchor="start" x="1203" y="-74.5" font-family="Helvetica,sans-Serif" font-size="10.00">../../core&#45;lib/include</text>
<text text-anchor="middle" x="1251.5" y="-63.5" font-family="Helvetica,sans-Serif" font-size="10.00">/SimpleSubscriber.h</text>
</a>
</g>
</g>
<!-- Node23&#45;&gt;Node25 -->
<g id="edge46" class="edge">
<title>Node23&#45;&gt;Node25</title>
<path fill="none" stroke="midnightblue" d="M1288.7,-128.73C1283,-120.12 1274.07,-106.61 1266.38,-94.99"/>
<polygon fill="midnightblue" stroke="midnightblue" points="1269.26,-93 1260.82,-86.59 1263.42,-96.86 1269.26,-93"/>
</g>
<!-- Node25&#45;&gt;Node5 -->
<g id="edge48" class="edge">
<title>Node25&#45;&gt;Node5</title>
<path fill="none" stroke="midnightblue" d="M1194.85,-57.49C1192.03,-56.96 1189.24,-56.46 1186.5,-56 1057.99,-34.37 904.06,-20.08 833.01,-14.14"/>
<polygon fill="midnightblue" stroke="midnightblue" points="832.99,-10.62 822.74,-13.29 832.41,-17.6 832.99,-10.62"/>
</g>
<!-- Node25&#45;&gt;Node12 -->
<g id="edge47" class="edge">
<title>Node25&#45;&gt;Node12</title>
<path fill="none" stroke="midnightblue" d="M1281.12,-56.4C1301.72,-46.59 1328.98,-33.62 1349.08,-24.05"/>
<polygon fill="midnightblue" stroke="midnightblue" points="1350.79,-27.12 1358.31,-19.66 1347.78,-20.8 1350.79,-27.12"/>
</g>
<!-- Node26&#45;&gt;Node7 -->
<g id="edge51" class="edge">
<title>Node26&#45;&gt;Node7</title>
<path fill="none" stroke="midnightblue" d="M416.28,-262.92C385.72,-250.42 332.25,-227.94 325.5,-221 289.23,-183.7 272.92,-122.09 266.73,-91.28"/>
<polygon fill="midnightblue" stroke="midnightblue" points="270.1,-90.28 264.82,-81.09 263.22,-91.56 270.1,-90.28"/>
</g>
<!-- Node26&#45;&gt;Node18 -->
<g id="edge50" class="edge">
<title>Node26&#45;&gt;Node18</title>
<path fill="none" stroke="midnightblue" d="M464.17,-265.15C505.84,-255.23 587.58,-235.77 645.45,-221.99"/>
<polygon fill="midnightblue" stroke="midnightblue" points="646.32,-225.38 655.24,-219.66 644.7,-218.57 646.32,-225.38"/>
</g>
<!-- Node27&#45;&gt;Node2 -->
<g id="edge55" class="edge">
<title>Node27&#45;&gt;Node2</title>
<path fill="none" stroke="midnightblue" d="M90.49,-380.32C77.97,-371.98 58.82,-359.21 44.03,-349.35"/>
<polygon fill="midnightblue" stroke="midnightblue" points="45.74,-346.29 35.48,-343.65 41.86,-352.11 45.74,-346.29"/>
</g>
<!-- Node27&#45;&gt;Node5 -->
<g id="edge53" class="edge">
<title>Node27&#45;&gt;Node5</title>
<path fill="none" stroke="midnightblue" d="M104.51,-380.32C106.67,-361.1 111.5,-313.5 111.5,-273.5 111.5,-273.5 111.5,-273.5 111.5,-137.5 111.5,-96.12 121.63,-78.27 156.5,-56 206.77,-23.89 622.66,-13.97 753.95,-11.62"/>
<polygon fill="midnightblue" stroke="midnightblue" points="754.39,-15.11 764.33,-11.44 754.27,-8.11 754.39,-15.11"/>
</g>
<!-- Node27&#45;&gt;Node9 -->
<g id="edge54" class="edge">
<title>Node27&#45;&gt;Node9</title>
<path fill="none" stroke="midnightblue" d="M99.58,-380.22C91.45,-361.18 73.5,-314.52 73.5,-273.5 73.5,-273.5 73.5,-273.5 73.5,-137.5 73.5,-99.74 74.76,-86.15 97.5,-56 107.95,-42.14 124.02,-31.45 138.23,-23.97"/>
<polygon fill="midnightblue" stroke="midnightblue" points="139.81,-27.09 147.22,-19.51 136.7,-20.82 139.81,-27.09"/>
</g>
<!-- Node28&#45;&gt;Node5 -->
<g id="edge57" class="edge">
<title>Node28&#45;&gt;Node5</title>
<path fill="none" stroke="midnightblue" d="M954.45,-257.34C951,-220.01 936.89,-117.52 883.5,-56 870.07,-40.53 850.06,-29.79 832.31,-22.69"/>
<polygon fill="midnightblue" stroke="midnightblue" points="833.33,-19.34 822.74,-19.12 830.88,-25.89 833.33,-19.34"/>
</g>
<!-- Node28&#45;&gt;Node18 -->
<g id="edge58" class="edge">
<title>Node28&#45;&gt;Node18</title>
<path fill="none" stroke="midnightblue" d="M902.64,-257.48C864.77,-247.43 813.61,-233.86 773.6,-223.24"/>
<polygon fill="midnightblue" stroke="midnightblue" points="774.25,-219.79 763.69,-220.61 772.46,-226.56 774.25,-219.79"/>
</g>
<!-- Node29 -->
<g id="node29" class="node">
<title>Node29</title>
<g id="a_node29"><a xlink:href="_tank_8h.html" target="_top" xlink:title=" ">
<polygon fill="none" stroke="black" points="1056.5,-123.5 1056.5,-153.5 1166.5,-153.5 1166.5,-123.5 1056.5,-123.5"/>
<text text-anchor="start" x="1064.5" y="-141.5" font-family="Helvetica,sans-Serif" font-size="10.00">../../tank&#45;lib/include</text>
<text text-anchor="middle" x="1111.5" y="-130.5" font-family="Helvetica,sans-Serif" font-size="10.00">/Tank.h</text>
</a>
</g>
</g>
<!-- Node28&#45;&gt;Node29 -->
<g id="edge59" class="edge">
<title>Node28&#45;&gt;Node29</title>
<path fill="none" stroke="midnightblue" d="M1013.71,-263.11C1041.27,-256.22 1072.45,-243.71 1092.5,-221 1106.28,-205.4 1110.58,-181.73 1111.71,-163.92"/>
<polygon fill="midnightblue" stroke="midnightblue" points="1115.21,-163.82 1112.05,-153.7 1108.22,-163.58 1115.21,-163.82"/>
</g>
<!-- Node32 -->
<g id="node32" class="node">
<title>Node32</title>
<g id="a_node32"><a xlink:href="_entity_controller_8h.html" target="_top" xlink:title=" ">
<polygon fill="none" stroke="black" points="973.5,-190.5 973.5,-220.5 1083.5,-220.5 1083.5,-190.5 973.5,-190.5"/>
<text text-anchor="start" x="981.5" y="-208.5" font-family="Helvetica,sans-Serif" font-size="10.00">../../tank&#45;lib/include</text>
<text text-anchor="middle" x="1028.5" y="-197.5" font-family="Helvetica,sans-Serif" font-size="10.00">/EntityController.h</text>
</a>
</g>
</g>
<!-- Node28&#45;&gt;Node32 -->
<g id="edge64" class="edge">
<title>Node28&#45;&gt;Node32</title>
<path fill="none" stroke="midnightblue" d="M971.34,-257.4C981.19,-248.62 994.04,-237.18 1005.06,-227.37"/>
<polygon fill="midnightblue" stroke="midnightblue" points="1007.55,-229.84 1012.69,-220.58 1002.9,-224.61 1007.55,-229.84"/>
</g>
<!-- Node33 -->
<g id="node33" class="node">
<title>Node33</title>
<g id="a_node33"><a xlink:href="_grid_8h.html" target="_top" xlink:title=" ">
<polygon fill="none" stroke="black" points="392.5,-196 392.5,-215 438.5,-215 438.5,-196 392.5,-196"/>
<text text-anchor="middle" x="415.5" y="-203" font-family="Helvetica,sans-Serif" font-size="10.00">Grid.h</text>
</a>
</g>
</g>
<!-- Node28&#45;&gt;Node33 -->
<g id="edge69" class="edge">
<title>Node28&#45;&gt;Node33</title>
<path fill="none" stroke="midnightblue" d="M897.37,-268.11C782.67,-261.02 531.07,-243.43 447.5,-221 445.35,-220.42 443.15,-219.71 440.98,-218.92"/>
<polygon fill="midnightblue" stroke="midnightblue" points="442.31,-215.68 431.73,-215.09 439.63,-222.15 442.31,-215.68"/>
</g>
<!-- Node29&#45;&gt;Node5 -->
<g id="edge60" class="edge">
<title>Node29&#45;&gt;Node5</title>
<path fill="none" stroke="midnightblue" d="M1109.65,-123.47C1106.41,-104.93 1097.89,-72.65 1076.5,-56 1039.24,-26.99 901.61,-16.26 832.96,-12.65"/>
<polygon fill="midnightblue" stroke="midnightblue" points="832.73,-9.13 822.57,-12.13 832.38,-16.13 832.73,-9.13"/>
</g>
<!-- Node29&#45;&gt;Node25 -->
<g id="edge62" class="edge">
<title>Node29&#45;&gt;Node25</title>
<path fill="none" stroke="midnightblue" d="M1141.88,-123.4C1162.43,-113.86 1189.76,-101.16 1212,-90.84"/>
<polygon fill="midnightblue" stroke="midnightblue" points="1213.59,-93.96 1221.18,-86.58 1210.64,-87.61 1213.59,-93.96"/>
</g>
<!-- Node30 -->
<g id="node30" class="node">
<title>Node30</title>
<g id="a_node30"><a xlink:title=" ">
<polygon fill="none" stroke="#bfbfbf" points="1011.5,-62 1011.5,-81 1067.5,-81 1067.5,-62 1011.5,-62"/>
<text text-anchor="middle" x="1039.5" y="-69" font-family="Helvetica,sans-Serif" font-size="10.00">optional</text>
</a>
</g>
</g>
<!-- Node29&#45;&gt;Node30 -->
<g id="edge61" class="edge">
<title>Node29&#45;&gt;Node30</title>
<path fill="none" stroke="midnightblue" d="M1095.88,-123.4C1084.32,-112.96 1068.58,-98.75 1056.67,-88"/>
<polygon fill="midnightblue" stroke="midnightblue" points="1058.9,-85.3 1049.13,-81.19 1054.21,-90.49 1058.9,-85.3"/>
</g>
<!-- Node31 -->
<g id="node31" class="node">
<title>Node31</title>
<g id="a_node31"><a xlink:href="_entity_8h.html" target="_top" xlink:title=" ">
<polygon fill="none" stroke="black" points="1124,-62 1124,-81 1177,-81 1177,-62 1124,-62"/>
<text text-anchor="middle" x="1150.5" y="-69" font-family="Helvetica,sans-Serif" font-size="10.00">Entity.h</text>
</a>
</g>
</g>
<!-- Node29&#45;&gt;Node31 -->
<g id="edge63" class="edge">
<title>Node29&#45;&gt;Node31</title>
<path fill="none" stroke="midnightblue" d="M1119.96,-123.4C1125.86,-113.56 1133.77,-100.38 1140.06,-89.89"/>
<polygon fill="midnightblue" stroke="midnightblue" points="1143.14,-91.57 1145.28,-81.19 1137.14,-87.97 1143.14,-91.57"/>
</g>
<!-- Node32&#45;&gt;Node5 -->
<g id="edge66" class="edge">
<title>Node32&#45;&gt;Node5</title>
<path fill="none" stroke="midnightblue" d="M1026.02,-190.22C1020.1,-160.57 1002.32,-92.09 959.5,-56 923.76,-25.88 869.65,-15.77 833.01,-12.46"/>
<polygon fill="midnightblue" stroke="midnightblue" points="832.94,-8.94 822.7,-11.67 832.41,-15.92 832.94,-8.94"/>
</g>
<!-- Node32&#45;&gt;Node12 -->
<g id="edge65" class="edge">
<title>Node32&#45;&gt;Node12</title>
<path fill="none" stroke="midnightblue" d="M1083.79,-202.86C1205.47,-198.69 1487.94,-185.67 1516.5,-154 1545.67,-121.66 1542.16,-91.2 1516.5,-56 1492.34,-22.86 1443.39,-13.59 1410.26,-11.29"/>
<polygon fill="midnightblue" stroke="midnightblue" points="1410.28,-7.78 1400.12,-10.76 1409.92,-14.77 1410.28,-7.78"/>
</g>
<!-- Node32&#45;&gt;Node29 -->
<g id="edge68" class="edge">
<title>Node32&#45;&gt;Node29</title>
<path fill="none" stroke="midnightblue" d="M1046.51,-190.4C1057.93,-181.45 1072.89,-169.74 1085.58,-159.8"/>
<polygon fill="midnightblue" stroke="midnightblue" points="1087.81,-162.5 1093.53,-153.58 1083.49,-156.99 1087.81,-162.5"/>
</g>
<!-- Node32&#45;&gt;Node30 -->
<g id="edge67" class="edge">
<title>Node32&#45;&gt;Node30</title>
<path fill="none" stroke="midnightblue" d="M1029.68,-190.37C1031.67,-166.5 1035.69,-118.18 1037.92,-91.41"/>
<polygon fill="midnightblue" stroke="midnightblue" points="1041.44,-91.35 1038.78,-81.1 1034.47,-90.77 1041.44,-91.35"/>
</g>
<!-- Node33&#45;&gt;Node8 -->
<g id="edge70" class="edge">
<title>Node33&#45;&gt;Node8</title>
<path fill="none" stroke="midnightblue" d="M413.77,-195.94C407.9,-166.79 388.59,-70.97 380.32,-29.93"/>
<polygon fill="midnightblue" stroke="midnightblue" points="383.7,-29.02 378.3,-19.91 376.84,-30.4 383.7,-29.02"/>
</g>
</g>
</svg>
        <g id="navigator" transform="translate(0 0)" fill="#404254">
                <rect fill="#f2f5e9" fill-opacity="0.5" stroke="#606060" stroke-width=".5" x="0" y="0" width="60" height="60"/>
                <use id="zoomplus" xlink:href="#zoomPlus" x="17" y="9" onmousedown="handleZoom(evt,'in')"/>
                <use id="zoomminus" xlink:href="#zoomMin" x="42" y="9" onmousedown="handleZoom(evt,'out')"/>
                <use id="reset" xlink:href="#resetDef" x="30" y="36" onmousedown="handleReset()"/>
                <g id="arrowUp" xlink:href="#dirArrow" transform="translate(30 24)" onmousedown="handlePan(0,-1)">
                  <use xlink:href="#rim" fill="#404040">
                        <set attributeName="fill" to="#808080" begin="arrowUp.mouseover" end="arrowUp.mouseout"/>
                  </use>
                  <path fill="none" stroke="white" stroke-width="1.5" d="M0,-3.0v7 M-2.5,-0.5L0,-3.0L2.5,-0.5"/>
                </g>
                <g id="arrowRight" xlink:href="#dirArrow" transform="rotate(90) translate(36 -43)" onmousedown="handlePan(1,0)">
                  <use xlink:href="#rim" fill="#404040">
                        <set attributeName="fill" to="#808080" begin="arrowRight.mouseover" end="arrowRight.mouseout"/>
                  </use>
                  <path fill="none" stroke="white" stroke-width="1.5" d="M0,-3.0v7 M-2.5,-0.5L0,-3.0L2.5,-0.5"/>
                </g>
                <g id="arrowDown" xlink:href="#dirArrow" transform="rotate(180) translate(-30 -48)" onmousedown="handlePan(0,1)">
                  <use xlink:href="#rim" fill="#404040">
                        <set attributeName="fill" to="#808080" begin="arrowDown.mouseover" end="arrowDown.mouseout"/>
                  </use>
                  <path fill="none" stroke="white" stroke-width="1.5" d="M0,-3.0v7 M-2.5,-0.5L0,-3.0L2.5,-0.5"/>
                </g>
                <g id="arrowLeft" xlink:href="#dirArrow" transform="rotate(270) translate(-36 17)" onmousedown="handlePan(-1,0)">
                  <use xlink:href="#rim" fill="#404040">
                        <set attributeName="fill" to="#808080" begin="arrowLeft.mouseover" end="arrowLeft.mouseout"/>
                  </use>
                  <path fill="none" stroke="white" stroke-width="1.5" d="M0,-3.0v7 M-2.5,-0.5L0,-3.0L2.5,-0.5"/>
                </g>
        </g>
        <svg viewBox="0 0 15 15" width="100%" height="30px" preserveAspectRatio="xMaxYMin meet">
         <g id="arrow_out" transform="scale(0.3 0.3)">
          <a xlink:href="_finished_event_handler_8cpp__incl_org.svg" target="_base">
           <rect id="button" ry="5" rx="5" y="6" x="6" height="38" width="38"
                fill="#f2f5e9" fill-opacity="0.5" stroke="#606060" stroke-width="1.0"/>
           <path id="arrow"
             d="M 11.500037,31.436501 C 11.940474,20.09759 22.043105,11.32322 32.158766,21.979434 L 37.068811,17.246167 C 37.068811,17.246167 37.088388,32 37.088388,32 L 22.160133,31.978069 C 22.160133,31.978069 26.997745,27.140456 26.997745,27.140456 C 18.528582,18.264221 13.291696,25.230495 11.500037,31.436501 z"
             style="fill:#404040;"/>
          </a>
         </g>
        </svg>
</svg>
