<?xml version="1.0" encoding="UTF-8" standalone="no"?>
<!DOCTYPE svg PUBLIC "-//W3C//DTD SVG 1.1//EN"
 "http://www.w3.org/Graphics/SVG/1.1/DTD/svg11.dtd">
<!-- Generated by graphviz version 2.50.0 (0)
 -->
<!-- Title: /home/tomek/trash/battle&#45;city/src/lib/graphic&#45;lib/include/ActiveState_dir/Frame_dir/FrameGraphic.h Pages: 1 -->
<svg width="596pt" height="228pt"
 viewBox="0.00 0.00 596.00 228.00" xmlns="http://www.w3.org/2000/svg" xmlns:xlink="http://www.w3.org/1999/xlink">
<g id="graph0" class="graph" transform="scale(1 1) rotate(0) translate(4 224)">
<title>/home/tomek/trash/battle&#45;city/src/lib/graphic&#45;lib/include/ActiveState_dir/Frame_dir/FrameGraphic.h</title>
<!-- Node1 -->
<g id="node1" class="node">
<title>Node1</title>
<g id="a_node1"><a xlink:title=" ">
<polygon fill="#bfbfbf" stroke="black" points="227,-167.5 227,-219.5 376,-219.5 376,-167.5 227,-167.5"/>
<text text-anchor="start" x="235" y="-207.5" font-family="Helvetica,sans-Serif" font-size="10.00">/home/tomek/trash/battle</text>
<text text-anchor="start" x="235" y="-196.5" font-family="Helvetica,sans-Serif" font-size="10.00">&#45;city/src/lib/graphic&#45;lib</text>
<text text-anchor="start" x="235" y="-185.5" font-family="Helvetica,sans-Serif" font-size="10.00">/include/ActiveState_dir</text>
<text text-anchor="middle" x="301.5" y="-174.5" font-family="Helvetica,sans-Serif" font-size="10.00">/Frame_dir/FrameGraphic.h</text>
</a>
</g>
</g>
<!-- Node2 -->
<g id="node2" class="node">
<title>Node2</title>
<g id="a_node2"><a xlink:href="_active_state_graphic_8cpp.html" target="_top" xlink:title=" ">
<polygon fill="none" stroke="black" points="0,-84 0,-125 141,-125 141,-84 0,-84"/>
<text text-anchor="start" x="8" y="-113" font-family="Helvetica,sans-Serif" font-size="10.00">/home/tomek/trash/battle</text>
<text text-anchor="start" x="8" y="-102" font-family="Helvetica,sans-Serif" font-size="10.00">&#45;city/src/lib/graphic&#45;lib</text>
<text text-anchor="middle" x="70.5" y="-91" font-family="Helvetica,sans-Serif" font-size="10.00">/ActiveStateGraphic.cpp</text>
</a>
</g>
</g>
<!-- Node1&#45;&gt;Node2 -->
<g id="edge1" class="edge">
<title>Node1&#45;&gt;Node2</title>
<path fill="none" stroke="midnightblue" d="M225.63,-163.92C191.89,-151.22 153.02,-136.58 122.63,-125.13"/>
<polygon fill="midnightblue" stroke="midnightblue" points="224.4,-167.2 235,-167.45 226.87,-160.65 224.4,-167.2"/>
</g>
<!-- Node3 -->
<g id="node3" class="node">
<title>Node3</title>
<g id="a_node3"><a xlink:href="_frame_graphic_8cpp.html" target="_top" xlink:title=" ">
<polygon fill="none" stroke="black" points="288,-0.5 288,-41.5 429,-41.5 429,-0.5 288,-0.5"/>
<text text-anchor="start" x="296" y="-29.5" font-family="Helvetica,sans-Serif" font-size="10.00">/home/tomek/trash/battle</text>
<text text-anchor="start" x="296" y="-18.5" font-family="Helvetica,sans-Serif" font-size="10.00">&#45;city/src/lib/graphic&#45;lib</text>
<text text-anchor="middle" x="358.5" y="-7.5" font-family="Helvetica,sans-Serif" font-size="10.00">/FrameGraphic.cpp</text>
</a>
</g>
</g>
<!-- Node1&#45;&gt;Node3 -->
<g id="edge2" class="edge">
<title>Node1&#45;&gt;Node3</title>
<path fill="none" stroke="midnightblue" d="M325.6,-158.62C330.87,-149.95 335.93,-140.4 339.5,-131 350.82,-101.19 355.45,-64.21 357.3,-41.89"/>
<polygon fill="midnightblue" stroke="midnightblue" points="322.49,-156.99 320.09,-167.31 328.4,-160.74 322.49,-156.99"/>
</g>
<!-- Node4 -->
<g id="node4" class="node">
<title>Node4</title>
<g id="a_node4"><a xlink:href="_bare_frame_graphic_8h.html" target="_top" xlink:title=" ">
<polygon fill="none" stroke="black" points="159,-78.5 159,-130.5 330,-130.5 330,-78.5 159,-78.5"/>
<text text-anchor="start" x="167" y="-118.5" font-family="Helvetica,sans-Serif" font-size="10.00">/home/tomek/trash/battle</text>
<text text-anchor="start" x="167" y="-107.5" font-family="Helvetica,sans-Serif" font-size="10.00">&#45;city/src/lib/graphic&#45;lib</text>
<text text-anchor="start" x="167" y="-96.5" font-family="Helvetica,sans-Serif" font-size="10.00">/include/ActiveState_dir</text>
<text text-anchor="middle" x="244.5" y="-85.5" font-family="Helvetica,sans-Serif" font-size="10.00">/Frame_dir/BareFrameGraphic.h</text>
</a>
</g>
</g>
<!-- Node1&#45;&gt;Node4 -->
<g id="edge3" class="edge">
<title>Node1&#45;&gt;Node4</title>
<path fill="none" stroke="midnightblue" d="M279.5,-158.93C273.33,-149.51 266.74,-139.44 260.95,-130.61"/>
<polygon fill="midnightblue" stroke="midnightblue" points="276.61,-160.89 285.01,-167.34 282.46,-157.05 276.61,-160.89"/>
</g>
<!-- Node6 -->
<g id="node6" class="node">
<title>Node6</title>
<g id="a_node6"><a xlink:href="_game_info_graphic_8h.html" target="_top" xlink:title=" ">
<polygon fill="none" stroke="black" points="386.5,-78.5 386.5,-130.5 552.5,-130.5 552.5,-78.5 386.5,-78.5"/>
<text text-anchor="start" x="394.5" y="-118.5" font-family="Helvetica,sans-Serif" font-size="10.00">/home/tomek/trash/battle</text>
<text text-anchor="start" x="394.5" y="-107.5" font-family="Helvetica,sans-Serif" font-size="10.00">&#45;city/src/lib/graphic&#45;lib</text>
<text text-anchor="start" x="394.5" y="-96.5" font-family="Helvetica,sans-Serif" font-size="10.00">/include/ActiveState_dir</text>
<text text-anchor="middle" x="469.5" y="-85.5" font-family="Helvetica,sans-Serif" font-size="10.00">/Frame_dir/GameInfoGraphic.h</text>
</a>
</g>
</g>
<!-- Node1&#45;&gt;Node6 -->
<g id="edge6" class="edge">
<title>Node1&#45;&gt;Node6</title>
<path fill="none" stroke="midnightblue" d="M359.17,-162.64C379.31,-152.2 401.7,-140.61 421.02,-130.61"/>
<polygon fill="midnightblue" stroke="midnightblue" points="357.36,-159.63 350.09,-167.34 360.58,-165.85 357.36,-159.63"/>
</g>
<!-- Node4&#45;&gt;Node3 -->
<g id="edge5" class="edge">
<title>Node4&#45;&gt;Node3</title>
<path fill="none" stroke="midnightblue" d="M287.95,-72.44C302.37,-62.13 318.01,-50.95 330.9,-41.73"/>
<polygon fill="midnightblue" stroke="midnightblue" points="285.73,-69.72 279.63,-78.38 289.8,-75.41 285.73,-69.72"/>
</g>
<!-- Node5 -->
<g id="node5" class="node">
<title>Node5</title>
<g id="a_node5"><a xlink:href="_bare_frame_graphic_8cpp.html" target="_top" xlink:title=" ">
<polygon fill="none" stroke="black" points="129,-0.5 129,-41.5 270,-41.5 270,-0.5 129,-0.5"/>
<text text-anchor="start" x="137" y="-29.5" font-family="Helvetica,sans-Serif" font-size="10.00">/home/tomek/trash/battle</text>
<text text-anchor="start" x="137" y="-18.5" font-family="Helvetica,sans-Serif" font-size="10.00">&#45;city/src/lib/graphic&#45;lib</text>
<text text-anchor="middle" x="199.5" y="-7.5" font-family="Helvetica,sans-Serif" font-size="10.00">/BareFrameGraphic.cpp</text>
</a>
</g>
</g>
<!-- Node4&#45;&gt;Node5 -->
<g id="edge4" class="edge">
<title>Node4&#45;&gt;Node5</title>
<path fill="none" stroke="midnightblue" d="M225.63,-69.32C220.41,-59.87 214.93,-49.94 210.34,-41.63"/>
<polygon fill="midnightblue" stroke="midnightblue" points="222.61,-71.1 230.51,-78.16 228.74,-67.71 222.61,-71.1"/>
</g>
<!-- Node6&#45;&gt;Node3 -->
<g id="edge7" class="edge">
<title>Node6&#45;&gt;Node3</title>
<path fill="none" stroke="midnightblue" d="M427.19,-72.44C413.16,-62.13 397.92,-50.95 385.38,-41.73"/>
<polygon fill="midnightblue" stroke="midnightblue" points="425.16,-75.29 435.29,-78.38 429.3,-69.64 425.16,-75.29"/>
</g>
<!-- Node7 -->
<g id="node7" class="node">
<title>Node7</title>
<g id="a_node7"><a xlink:href="_game_info_graphic_8cpp.html" target="_top" xlink:title=" ">
<polygon fill="none" stroke="black" points="447,-0.5 447,-41.5 588,-41.5 588,-0.5 447,-0.5"/>
<text text-anchor="start" x="455" y="-29.5" font-family="Helvetica,sans-Serif" font-size="10.00">/home/tomek/trash/battle</text>
<text text-anchor="start" x="455" y="-18.5" font-family="Helvetica,sans-Serif" font-size="10.00">&#45;city/src/lib/graphic&#45;lib</text>
<text text-anchor="middle" x="517.5" y="-7.5" font-family="Helvetica,sans-Serif" font-size="10.00">/GameInfoGraphic.cpp</text>
</a>
</g>
</g>
<!-- Node6&#45;&gt;Node7 -->
<g id="edge8" class="edge">
<title>Node6&#45;&gt;Node7</title>
<path fill="none" stroke="midnightblue" d="M489.63,-69.32C495.2,-59.87 501.04,-49.94 505.94,-41.63"/>
<polygon fill="midnightblue" stroke="midnightblue" points="486.48,-67.77 484.42,-78.16 492.52,-71.32 486.48,-67.77"/>
</g>
</g>
</svg>
