<?xml version="1.0" encoding="UTF-8" standalone="no"?>
<!DOCTYPE svg PUBLIC "-//W3C//DTD SVG 1.1//EN"
 "http://www.w3.org/Graphics/SVG/1.1/DTD/svg11.dtd">
<!-- Generated by graphviz version 2.50.0 (0)
 -->
<!-- Title: /home/tomek/trash/battle&#45;city/src/lib/graphic&#45;lib/include/ActiveState_dir/Frame_dir/FrameGraphic.h Pages: 1 -->
<!--zoomable 228 -->
<svg id="main" version="1.1" xmlns="http://www.w3.org/2000/svg" xmlns:xlink="http://www.w3.org/1999/xlink" xml:space="preserve" onload="init(evt)">
<style type="text/css"><![CDATA[
.edge:hover path { stroke: red; }
.edge:hover polygon { stroke: red; fill: red; }
]]></style>
<script type="text/javascript"><![CDATA[
var edges = document.getElementsByTagName('g');
if (edges && edges.length) {
  for (var i=0;i<edges.length;i++) {
    if (edges[i].id.substr(0,4)=='edge') {
      edges[i].setAttribute('class','edge');
    }
  }
}
]]></script>
        <defs>
                <circle id="rim" cx="0" cy="0" r="7"/>
                <circle id="rim2" cx="0" cy="0" r="3.5"/>
                <g id="zoomPlus">
                        <use xlink:href="#rim" fill="#404040">
                                <set attributeName="fill" to="#808080" begin="zoomplus.mouseover" end="zoomplus.mouseout"/>
                        </use>
                        <path d="M-4,0h8M0,-4v8" fill="none" stroke="white" stroke-width="1.5" pointer-events="none"/>
                </g>
                <g id="zoomMin">
                        <use xlink:href="#rim" fill="#404040">
                                <set attributeName="fill" to="#808080" begin="zoomminus.mouseover" end="zoomminus.mouseout"/>
                        </use>
                        <path d="M-4,0h8" fill="none" stroke="white" stroke-width="1.5" pointer-events="none"/>
                </g>
                <g id="dirArrow">
                        <path fill="none" stroke="white" stroke-width="1.5" d="M0,-3.0v7 M-2.5,-0.5L0,-3.0L2.5,-0.5"/>
                </g>
               <g id="resetDef">
                       <use xlink:href="#rim2" fill="#404040">
                               <set attributeName="fill" to="#808080" begin="reset.mouseover" end="reset.mouseout"/>
                       </use>
               </g>
        </defs>

<script type="text/javascript">
var viewWidth = 596;
var viewHeight = 228;
var sectionId = 'dynsection-1';
</script>
<script xlink:href="svgpan.js"/>
<svg id="graph" class="graph">
<g id="viewport">
<title>/home/tomek/trash/battle&#45;city/src/lib/graphic&#45;lib/include/ActiveState_dir/Frame_dir/FrameGraphic.h</title>
<!-- Node1 -->
<g id="node1" class="node">
<title>Node1</title>
<g id="a_node1"><a xlink:title=" ">
<polygon fill="#bfbfbf" stroke="black" points="227,-167.5 227,-219.5 376,-219.5 376,-167.5 227,-167.5"/>
<text text-anchor="start" x="235" y="-207.5" font-family="Helvetica,sans-Serif" font-size="10.00">/home/tomek/trash/battle</text>
<text text-anchor="start" x="235" y="-196.5" font-family="Helvetica,sans-Serif" font-size="10.00">&#45;city/src/lib/graphic&#45;lib</text>
<text text-anchor="start" x="235" y="-185.5" font-family="Helvetica,sans-Serif" font-size="10.00">/include/ActiveState_dir</text>
<text text-anchor="middle" x="301.5" y="-174.5" font-family="Helvetica,sans-Serif" font-size="10.00">/Frame_dir/FrameGraphic.h</text>
</a>
</g>
</g>
<!-- Node2 -->
<g id="node2" class="node">
<title>Node2</title>
<g id="a_node2"><a xlink:href="_active_state_graphic_8cpp.html" target="_top" xlink:title=" ">
<polygon fill="none" stroke="black" points="0,-84 0,-125 141,-125 141,-84 0,-84"/>
<text text-anchor="start" x="8" y="-113" font-family="Helvetica,sans-Serif" font-size="10.00">/home/tomek/trash/battle</text>
<text text-anchor="start" x="8" y="-102" font-family="Helvetica,sans-Serif" font-size="10.00">&#45;city/src/lib/graphic&#45;lib</text>
<text text-anchor="middle" x="70.5" y="-91" font-family="Helvetica,sans-Serif" font-size="10.00">/ActiveStateGraphic.cpp</text>
</a>
</g>
</g>
<!-- Node1&#45;&gt;Node2 -->
<g id="edge1" class="edge">
<title>Node1&#45;&gt;Node2</title>
<path fill="none" stroke="midnightblue" d="M225.63,-163.92C191.89,-151.22 153.02,-136.58 122.63,-125.13"/>
<polygon fill="midnightblue" stroke="midnightblue" points="224.4,-167.2 235,-167.45 226.87,-160.65 224.4,-167.2"/>
</g>
<!-- Node3 -->
<g id="node3" class="node">
<title>Node3</title>
<g id="a_node3"><a xlink:href="_frame_graphic_8cpp.html" target="_top" xlink:title=" ">
<polygon fill="none" stroke="black" points="288,-0.5 288,-41.5 429,-41.5 429,-0.5 288,-0.5"/>
<text text-anchor="start" x="296" y="-29.5" font-family="Helvetica,sans-Serif" font-size="10.00">/home/tomek/trash/battle</text>
<text text-anchor="start" x="296" y="-18.5" font-family="Helvetica,sans-Serif" font-size="10.00">&#45;city/src/lib/graphic&#45;lib</text>
<text text-anchor="middle" x="358.5" y="-7.5" font-family="Helvetica,sans-Serif" font-size="10.00">/FrameGraphic.cpp</text>
</a>
</g>
</g>
<!-- Node1&#45;&gt;Node3 -->
<g id="edge2" class="edge">
<title>Node1&#45;&gt;Node3</title>
<path fill="none" stroke="midnightblue" d="M325.6,-158.62C330.87,-149.95 335.93,-140.4 339.5,-131 350.82,-101.19 355.45,-64.21 357.3,-41.89"/>
<polygon fill="midnightblue" stroke="midnightblue" points="322.49,-156.99 320.09,-167.31 328.4,-160.74 322.49,-156.99"/>
</g>
<!-- Node4 -->
<g id="node4" class="node">
<title>Node4</title>
<g id="a_node4"><a xlink:href="_bare_frame_graphic_8h.html" target="_top" xlink:title=" ">
<polygon fill="none" stroke="black" points="159,-78.5 159,-130.5 330,-130.5 330,-78.5 159,-78.5"/>
<text text-anchor="start" x="167" y="-118.5" font-family="Helvetica,sans-Serif" font-size="10.00">/home/tomek/trash/battle</text>
<text text-anchor="start" x="167" y="-107.5" font-family="Helvetica,sans-Serif" font-size="10.00">&#45;city/src/lib/graphic&#45;lib</text>
<text text-anchor="start" x="167" y="-96.5" font-family="Helvetica,sans-Serif" font-size="10.00">/include/ActiveState_dir</text>
<text text-anchor="middle" x="244.5" y="-85.5" font-family="Helvetica,sans-Serif" font-size="10.00">/Frame_dir/BareFrameGraphic.h</text>
</a>
</g>
</g>
<!-- Node1&#45;&gt;Node4 -->
<g id="edge3" class="edge">
<title>Node1&#45;&gt;Node4</title>
<path fill="none" stroke="midnightblue" d="M279.5,-158.93C273.33,-149.51 266.74,-139.44 260.95,-130.61"/>
<polygon fill="midnightblue" stroke="midnightblue" points="276.61,-160.89 285.01,-167.34 282.46,-157.05 276.61,-160.89"/>
</g>
<!-- Node6 -->
<g id="node6" class="node">
<title>Node6</title>
<g id="a_node6"><a xlink:href="_game_info_graphic_8h.html" target="_top" xlink:title=" ">
<polygon fill="none" stroke="black" points="386.5,-78.5 386.5,-130.5 552.5,-130.5 552.5,-78.5 386.5,-78.5"/>
<text text-anchor="start" x="394.5" y="-118.5" font-family="Helvetica,sans-Serif" font-size="10.00">/home/tomek/trash/battle</text>
<text text-anchor="start" x="394.5" y="-107.5" font-family="Helvetica,sans-Serif" font-size="10.00">&#45;city/src/lib/graphic&#45;lib</text>
<text text-anchor="start" x="394.5" y="-96.5" font-family="Helvetica,sans-Serif" font-size="10.00">/include/ActiveState_dir</text>
<text text-anchor="middle" x="469.5" y="-85.5" font-family="Helvetica,sans-Serif" font-size="10.00">/Frame_dir/GameInfoGraphic.h</text>
</a>
</g>
</g>
<!-- Node1&#45;&gt;Node6 -->
<g id="edge6" class="edge">
<title>Node1&#45;&gt;Node6</title>
<path fill="none" stroke="midnightblue" d="M359.17,-162.64C379.31,-152.2 401.7,-140.61 421.02,-130.61"/>
<polygon fill="midnightblue" stroke="midnightblue" points="357.36,-159.63 350.09,-167.34 360.58,-165.85 357.36,-159.63"/>
</g>
<!-- Node4&#45;&gt;Node3 -->
<g id="edge5" class="edge">
<title>Node4&#45;&gt;Node3</title>
<path fill="none" stroke="midnightblue" d="M287.95,-72.44C302.37,-62.13 318.01,-50.95 330.9,-41.73"/>
<polygon fill="midnightblue" stroke="midnightblue" points="285.73,-69.72 279.63,-78.38 289.8,-75.41 285.73,-69.72"/>
</g>
<!-- Node5 -->
<g id="node5" class="node">
<title>Node5</title>
<g id="a_node5"><a xlink:href="_bare_frame_graphic_8cpp.html" target="_top" xlink:title=" ">
<polygon fill="none" stroke="black" points="129,-0.5 129,-41.5 270,-41.5 270,-0.5 129,-0.5"/>
<text text-anchor="start" x="137" y="-29.5" font-family="Helvetica,sans-Serif" font-size="10.00">/home/tomek/trash/battle</text>
<text text-anchor="start" x="137" y="-18.5" font-family="Helvetica,sans-Serif" font-size="10.00">&#45;city/src/lib/graphic&#45;lib</text>
<text text-anchor="middle" x="199.5" y="-7.5" font-family="Helvetica,sans-Serif" font-size="10.00">/BareFrameGraphic.cpp</text>
</a>
</g>
</g>
<!-- Node4&#45;&gt;Node5 -->
<g id="edge4" class="edge">
<title>Node4&#45;&gt;Node5</title>
<path fill="none" stroke="midnightblue" d="M225.63,-69.32C220.41,-59.87 214.93,-49.94 210.34,-41.63"/>
<polygon fill="midnightblue" stroke="midnightblue" points="222.61,-71.1 230.51,-78.16 228.74,-67.71 222.61,-71.1"/>
</g>
<!-- Node6&#45;&gt;Node3 -->
<g id="edge7" class="edge">
<title>Node6&#45;&gt;Node3</title>
<path fill="none" stroke="midnightblue" d="M427.19,-72.44C413.16,-62.13 397.92,-50.95 385.38,-41.73"/>
<polygon fill="midnightblue" stroke="midnightblue" points="425.16,-75.29 435.29,-78.38 429.3,-69.64 425.16,-75.29"/>
</g>
<!-- Node7 -->
<g id="node7" class="node">
<title>Node7</title>
<g id="a_node7"><a xlink:href="_game_info_graphic_8cpp.html" target="_top" xlink:title=" ">
<polygon fill="none" stroke="black" points="447,-0.5 447,-41.5 588,-41.5 588,-0.5 447,-0.5"/>
<text text-anchor="start" x="455" y="-29.5" font-family="Helvetica,sans-Serif" font-size="10.00">/home/tomek/trash/battle</text>
<text text-anchor="start" x="455" y="-18.5" font-family="Helvetica,sans-Serif" font-size="10.00">&#45;city/src/lib/graphic&#45;lib</text>
<text text-anchor="middle" x="517.5" y="-7.5" font-family="Helvetica,sans-Serif" font-size="10.00">/GameInfoGraphic.cpp</text>
</a>
</g>
</g>
<!-- Node6&#45;&gt;Node7 -->
<g id="edge8" class="edge">
<title>Node6&#45;&gt;Node7</title>
<path fill="none" stroke="midnightblue" d="M489.63,-69.32C495.2,-59.87 501.04,-49.94 505.94,-41.63"/>
<polygon fill="midnightblue" stroke="midnightblue" points="486.48,-67.77 484.42,-78.16 492.52,-71.32 486.48,-67.77"/>
</g>
</g>
</svg>
        <g id="navigator" transform="translate(0 0)" fill="#404254">
                <rect fill="#f2f5e9" fill-opacity="0.5" stroke="#606060" stroke-width=".5" x="0" y="0" width="60" height="60"/>
                <use id="zoomplus" xlink:href="#zoomPlus" x="17" y="9" onmousedown="handleZoom(evt,'in')"/>
                <use id="zoomminus" xlink:href="#zoomMin" x="42" y="9" onmousedown="handleZoom(evt,'out')"/>
                <use id="reset" xlink:href="#resetDef" x="30" y="36" onmousedown="handleReset()"/>
                <g id="arrowUp" xlink:href="#dirArrow" transform="translate(30 24)" onmousedown="handlePan(0,-1)">
                  <use xlink:href="#rim" fill="#404040">
                        <set attributeName="fill" to="#808080" begin="arrowUp.mouseover" end="arrowUp.mouseout"/>
                  </use>
                  <path fill="none" stroke="white" stroke-width="1.5" d="M0,-3.0v7 M-2.5,-0.5L0,-3.0L2.5,-0.5"/>
                </g>
                <g id="arrowRight" xlink:href="#dirArrow" transform="rotate(90) translate(36 -43)" onmousedown="handlePan(1,0)">
                  <use xlink:href="#rim" fill="#404040">
                        <set attributeName="fill" to="#808080" begin="arrowRight.mouseover" end="arrowRight.mouseout"/>
                  </use>
                  <path fill="none" stroke="white" stroke-width="1.5" d="M0,-3.0v7 M-2.5,-0.5L0,-3.0L2.5,-0.5"/>
                </g>
                <g id="arrowDown" xlink:href="#dirArrow" transform="rotate(180) translate(-30 -48)" onmousedown="handlePan(0,1)">
                  <use xlink:href="#rim" fill="#404040">
                        <set attributeName="fill" to="#808080" begin="arrowDown.mouseover" end="arrowDown.mouseout"/>
                  </use>
                  <path fill="none" stroke="white" stroke-width="1.5" d="M0,-3.0v7 M-2.5,-0.5L0,-3.0L2.5,-0.5"/>
                </g>
                <g id="arrowLeft" xlink:href="#dirArrow" transform="rotate(270) translate(-36 17)" onmousedown="handlePan(-1,0)">
                  <use xlink:href="#rim" fill="#404040">
                        <set attributeName="fill" to="#808080" begin="arrowLeft.mouseover" end="arrowLeft.mouseout"/>
                  </use>
                  <path fill="none" stroke="white" stroke-width="1.5" d="M0,-3.0v7 M-2.5,-0.5L0,-3.0L2.5,-0.5"/>
                </g>
        </g>
        <svg viewBox="0 0 15 15" width="100%" height="30px" preserveAspectRatio="xMaxYMin meet">
         <g id="arrow_out" transform="scale(0.3 0.3)">
          <a xlink:href="_frame_graphic_8h__dep__incl_org.svg" target="_base">
           <rect id="button" ry="5" rx="5" y="6" x="6" height="38" width="38"
                fill="#f2f5e9" fill-opacity="0.5" stroke="#606060" stroke-width="1.0"/>
           <path id="arrow"
             d="M 11.500037,31.436501 C 11.940474,20.09759 22.043105,11.32322 32.158766,21.979434 L 37.068811,17.246167 C 37.068811,17.246167 37.088388,32 37.088388,32 L 22.160133,31.978069 C 22.160133,31.978069 26.997745,27.140456 26.997745,27.140456 C 18.528582,18.264221 13.291696,25.230495 11.500037,31.436501 z"
             style="fill:#404040;"/>
          </a>
         </g>
        </svg>
</svg>
