<?xml version="1.0" encoding="UTF-8" standalone="no"?>
<!DOCTYPE svg PUBLIC "-//W3C//DTD SVG 1.1//EN"
 "http://www.w3.org/Graphics/SVG/1.1/DTD/svg11.dtd">
<!-- Generated by graphviz version 2.43.0 (0)
 -->
<!-- Title: /home/tomek/CLionProjects/proi/proi&#45;projekt/src/graphic&#45;lib/include/ActiveState_dir/Frame_dir/FrameGraphic.h Pages: 1 -->
<svg width="1397pt" height="799pt"
 viewBox="0.00 0.00 1396.50 799.00" xmlns="http://www.w3.org/2000/svg" xmlns:xlink="http://www.w3.org/1999/xlink">
<g id="graph0" class="graph" transform="scale(1 1) rotate(0) translate(4 795)">
<title>/home/tomek/CLionProjects/proi/proi&#45;projekt/src/graphic&#45;lib/include/ActiveState_dir/Frame_dir/FrameGraphic.h</title>
<!-- Node1 -->
<g id="node1" class="node">
<title>Node1</title>
<g id="a_node1"><a xlink:title=" ">
<polygon fill="#bfbfbf" stroke="black" points="1058.5,-738.5 1058.5,-790.5 1227.5,-790.5 1227.5,-738.5 1058.5,-738.5"/>
<text text-anchor="start" x="1066.5" y="-778.5" font-family="Helvetica,sans-Serif" font-size="10.00">/home/tomek/CLionProjects</text>
<text text-anchor="start" x="1066.5" y="-767.5" font-family="Helvetica,sans-Serif" font-size="10.00">/proi/proi&#45;projekt/src</text>
<text text-anchor="start" x="1066.5" y="-756.5" font-family="Helvetica,sans-Serif" font-size="10.00">/graphic&#45;lib/include/ActiveState</text>
<text text-anchor="middle" x="1143" y="-745.5" font-family="Helvetica,sans-Serif" font-size="10.00">_dir/Frame_dir/FrameGraphic.h</text>
</a>
</g>
</g>
<!-- Node2 -->
<g id="node2" class="node">
<title>Node2</title>
<g id="a_node2"><a xlink:href="_active_state_graphic_8h.html" target="_top" xlink:title=" ">
<polygon fill="none" stroke="black" points="1079,-682.5 1079,-701.5 1207,-701.5 1207,-682.5 1079,-682.5"/>
<text text-anchor="middle" x="1143" y="-689.5" font-family="Helvetica,sans-Serif" font-size="10.00">../ActiveStateGraphic.h</text>
</a>
</g>
</g>
<!-- Node1&#45;&gt;Node2 -->
<g id="edge1" class="edge">
<title>Node1&#45;&gt;Node2</title>
<path fill="none" stroke="midnightblue" d="M1143,-738.45C1143,-729.73 1143,-720.1 1143,-711.96"/>
<polygon fill="midnightblue" stroke="midnightblue" points="1146.5,-711.7 1143,-701.7 1139.5,-711.7 1146.5,-711.7"/>
</g>
<!-- Node3 -->
<g id="node3" class="node">
<title>Node3</title>
<g id="a_node3"><a xlink:href="_window_8h.html" target="_top" xlink:title=" ">
<polygon fill="none" stroke="black" points="1106.5,-626.5 1106.5,-645.5 1179.5,-645.5 1179.5,-626.5 1106.5,-626.5"/>
<text text-anchor="middle" x="1143" y="-633.5" font-family="Helvetica,sans-Serif" font-size="10.00">../Window.h</text>
</a>
</g>
</g>
<!-- Node2&#45;&gt;Node3 -->
<g id="edge2" class="edge">
<title>Node2&#45;&gt;Node3</title>
<path fill="none" stroke="midnightblue" d="M1143,-682.08C1143,-675.01 1143,-664.86 1143,-655.99"/>
<polygon fill="midnightblue" stroke="midnightblue" points="1146.5,-655.75 1143,-645.75 1139.5,-655.75 1146.5,-655.75"/>
</g>
<!-- Node4 -->
<g id="node4" class="node">
<title>Node4</title>
<g id="a_node4"><a xlink:href="_abstract_window_8h.html" target="_top" xlink:title=" ">
<polygon fill="none" stroke="black" points="166,-263 166,-282 270,-282 270,-263 166,-263"/>
<text text-anchor="middle" x="218" y="-270" font-family="Helvetica,sans-Serif" font-size="10.00">AbstractWindow.h</text>
</a>
</g>
</g>
<!-- Node3&#45;&gt;Node4 -->
<g id="edge3" class="edge">
<title>Node3&#45;&gt;Node4</title>
<path fill="none" stroke="midnightblue" d="M1106.44,-634.03C937.32,-629.04 239,-603.07 239,-514 239,-514 239,-514 239,-389 239,-354.3 229.71,-314.68 223.49,-292.02"/>
<polygon fill="midnightblue" stroke="midnightblue" points="226.77,-290.75 220.66,-282.1 220.04,-292.67 226.77,-290.75"/>
</g>
<!-- Node10 -->
<g id="node10" class="node">
<title>Node10</title>
<g id="a_node10"><a xlink:title=" ">
<polygon fill="none" stroke="#bfbfbf" points="1295.5,-565 1295.5,-584 1388.5,-584 1388.5,-565 1295.5,-565"/>
<text text-anchor="middle" x="1342" y="-572" font-family="Helvetica,sans-Serif" font-size="10.00">unordered_map</text>
</a>
</g>
</g>
<!-- Node3&#45;&gt;Node10 -->
<g id="edge9" class="edge">
<title>Node3&#45;&gt;Node10</title>
<path fill="none" stroke="midnightblue" d="M1171.51,-626.48C1206.24,-616.09 1265.04,-598.51 1303.69,-586.95"/>
<polygon fill="midnightblue" stroke="midnightblue" points="1304.96,-590.23 1313.54,-584.01 1302.96,-583.52 1304.96,-590.23"/>
</g>
<!-- Node11 -->
<g id="node11" class="node">
<title>Node11</title>
<g id="a_node11"><a xlink:href="_entity_8h.html" target="_top" xlink:title=" ">
<polygon fill="none" stroke="black" points="966,-56.5 966,-86.5 1076,-86.5 1076,-56.5 966,-56.5"/>
<text text-anchor="start" x="974" y="-74.5" font-family="Helvetica,sans-Serif" font-size="10.00">../../tank&#45;lib/include</text>
<text text-anchor="middle" x="1021" y="-63.5" font-family="Helvetica,sans-Serif" font-size="10.00">/Entity.h</text>
</a>
</g>
</g>
<!-- Node3&#45;&gt;Node11 -->
<g id="edge10" class="edge">
<title>Node3&#45;&gt;Node11</title>
<path fill="none" stroke="midnightblue" d="M1163.48,-626.42C1198.7,-610.12 1267,-571.15 1267,-514 1267,-514 1267,-514 1267,-333 1267,-266.37 1270.23,-235.97 1222,-190 1176.43,-146.56 1137.62,-188.56 1085,-154 1062.49,-139.22 1044.42,-113.85 1033.29,-95.34"/>
<polygon fill="midnightblue" stroke="midnightblue" points="1036.29,-93.53 1028.26,-86.62 1030.23,-97.03 1036.29,-93.53"/>
</g>
<!-- Node12 -->
<g id="node12" class="node">
<title>Node12</title>
<g id="a_node12"><a xlink:href="_grid_8h.html" target="_top" xlink:title=" ">
<polygon fill="none" stroke="black" points="1085,-257.5 1085,-287.5 1201,-287.5 1201,-257.5 1085,-257.5"/>
<text text-anchor="start" x="1093" y="-275.5" font-family="Helvetica,sans-Serif" font-size="10.00">../../board&#45;lib/include</text>
<text text-anchor="middle" x="1143" y="-264.5" font-family="Helvetica,sans-Serif" font-size="10.00">/Grid.h</text>
</a>
</g>
</g>
<!-- Node3&#45;&gt;Node12 -->
<g id="edge11" class="edge">
<title>Node3&#45;&gt;Node12</title>
<path fill="none" stroke="midnightblue" d="M1143,-626.49C1143,-606.74 1143,-556.22 1143,-514 1143,-514 1143,-514 1143,-389 1143,-357.49 1143,-321.16 1143,-297.78"/>
<polygon fill="midnightblue" stroke="midnightblue" points="1146.5,-297.72 1143,-287.72 1139.5,-297.72 1146.5,-297.72"/>
</g>
<!-- Node15 -->
<g id="node15" class="node">
<title>Node15</title>
<g id="a_node15"><a xlink:href="_tank_8h.html" target="_top" xlink:title=" ">
<polygon fill="none" stroke="black" points="878,-190.5 878,-220.5 988,-220.5 988,-190.5 878,-190.5"/>
<text text-anchor="start" x="886" y="-208.5" font-family="Helvetica,sans-Serif" font-size="10.00">../../tank&#45;lib/include</text>
<text text-anchor="middle" x="933" y="-197.5" font-family="Helvetica,sans-Serif" font-size="10.00">/Tank.h</text>
</a>
</g>
</g>
<!-- Node3&#45;&gt;Node15 -->
<g id="edge25" class="edge">
<title>Node3&#45;&gt;Node15</title>
<path fill="none" stroke="midnightblue" d="M1131.04,-626.5C1107.41,-608.61 1057,-564.51 1057,-514 1057,-514 1057,-514 1057,-333 1057,-298.18 1059.99,-283.99 1038,-257 1026.3,-242.64 1009.54,-232.1 992.84,-224.47"/>
<polygon fill="midnightblue" stroke="midnightblue" points="994.17,-221.23 983.6,-220.53 991.42,-227.67 994.17,-221.23"/>
</g>
<!-- Node19 -->
<g id="node19" class="node">
<title>Node19</title>
<g id="a_node19"><a xlink:href="_bullet_8h.html" target="_top" xlink:title=" ">
<polygon fill="none" stroke="black" points="1094,-123.5 1094,-153.5 1204,-153.5 1204,-123.5 1094,-123.5"/>
<text text-anchor="start" x="1102" y="-141.5" font-family="Helvetica,sans-Serif" font-size="10.00">../../tank&#45;lib/include</text>
<text text-anchor="middle" x="1149" y="-130.5" font-family="Helvetica,sans-Serif" font-size="10.00">/Bullet.h</text>
</a>
</g>
</g>
<!-- Node3&#45;&gt;Node19 -->
<g id="edge26" class="edge">
<title>Node3&#45;&gt;Node19</title>
<path fill="none" stroke="midnightblue" d="M1154.96,-626.5C1178.59,-608.61 1229,-564.51 1229,-514 1229,-514 1229,-514 1229,-333 1229,-269.37 1252.91,-245.62 1222,-190 1214.83,-177.1 1202.81,-166.79 1190.57,-158.93"/>
<polygon fill="midnightblue" stroke="midnightblue" points="1192.07,-155.75 1181.69,-153.64 1188.49,-161.76 1192.07,-155.75"/>
</g>
<!-- Node21 -->
<g id="node21" class="node">
<title>Node21</title>
<g id="a_node21"><a xlink:href="_game_state_8h.html" target="_top" xlink:title=" ">
<polygon fill="none" stroke="black" points="545,-559.5 545,-589.5 661,-589.5 661,-559.5 545,-559.5"/>
<text text-anchor="start" x="553" y="-577.5" font-family="Helvetica,sans-Serif" font-size="10.00">../../game&#45;lib/include</text>
<text text-anchor="middle" x="603" y="-566.5" font-family="Helvetica,sans-Serif" font-size="10.00">/GameState.h</text>
</a>
</g>
</g>
<!-- Node3&#45;&gt;Node21 -->
<g id="edge31" class="edge">
<title>Node3&#45;&gt;Node21</title>
<path fill="none" stroke="midnightblue" d="M1106.31,-630.96C1016.9,-621.11 786.68,-595.74 671.19,-583.01"/>
<polygon fill="midnightblue" stroke="midnightblue" points="671.38,-579.51 661.06,-581.9 670.61,-586.47 671.38,-579.51"/>
</g>
<!-- Node5 -->
<g id="node5" class="node">
<title>Node5</title>
<g id="a_node5"><a xlink:title=" ">
<polygon fill="none" stroke="#bfbfbf" points="128,-196 128,-215 232,-215 232,-196 128,-196"/>
<text text-anchor="middle" x="180" y="-203" font-family="Helvetica,sans-Serif" font-size="10.00">SFML/System.hpp</text>
</a>
</g>
</g>
<!-- Node4&#45;&gt;Node5 -->
<g id="edge4" class="edge">
<title>Node4&#45;&gt;Node5</title>
<path fill="none" stroke="midnightblue" d="M212.88,-262.73C207.06,-252.79 197.44,-236.34 190.11,-223.79"/>
<polygon fill="midnightblue" stroke="midnightblue" points="193.11,-221.99 185.04,-215.13 187.07,-225.53 193.11,-221.99"/>
</g>
<!-- Node6 -->
<g id="node6" class="node">
<title>Node6</title>
<g id="a_node6"><a xlink:title=" ">
<polygon fill="none" stroke="#bfbfbf" points="0,-196 0,-215 110,-215 110,-196 0,-196"/>
<text text-anchor="middle" x="55" y="-203" font-family="Helvetica,sans-Serif" font-size="10.00">SFML/Graphics.hpp</text>
</a>
</g>
</g>
<!-- Node4&#45;&gt;Node6 -->
<g id="edge5" class="edge">
<title>Node4&#45;&gt;Node6</title>
<path fill="none" stroke="midnightblue" d="M196.35,-262.87C168.02,-251.57 118.18,-231.7 85.89,-218.82"/>
<polygon fill="midnightblue" stroke="midnightblue" points="87.06,-215.52 76.48,-215.06 84.47,-222.02 87.06,-215.52"/>
</g>
<!-- Node7 -->
<g id="node7" class="node">
<title>Node7</title>
<g id="a_node7"><a xlink:title=" ">
<polygon fill="none" stroke="#bfbfbf" points="516,-196 516,-215 576,-215 576,-196 516,-196"/>
<text text-anchor="middle" x="546" y="-203" font-family="Helvetica,sans-Serif" font-size="10.00">iostream</text>
</a>
</g>
</g>
<!-- Node4&#45;&gt;Node7 -->
<g id="edge6" class="edge">
<title>Node4&#45;&gt;Node7</title>
<path fill="none" stroke="midnightblue" d="M270.03,-264.52C327.35,-256.3 422,-241.18 502,-221 505.38,-220.15 508.87,-219.17 512.35,-218.13"/>
<polygon fill="midnightblue" stroke="midnightblue" points="513.49,-221.44 521.97,-215.1 511.39,-214.76 513.49,-221.44"/>
</g>
<!-- Node8 -->
<g id="node8" class="node">
<title>Node8</title>
<g id="a_node8"><a xlink:title=" ">
<polygon fill="none" stroke="#bfbfbf" points="1166.5,-0.5 1166.5,-19.5 1213.5,-19.5 1213.5,-0.5 1166.5,-0.5"/>
<text text-anchor="middle" x="1190" y="-7.5" font-family="Helvetica,sans-Serif" font-size="10.00">vector</text>
</a>
</g>
</g>
<!-- Node4&#45;&gt;Node8 -->
<g id="edge7" class="edge">
<title>Node4&#45;&gt;Node8</title>
<path fill="none" stroke="midnightblue" d="M236.95,-262.91C310.1,-230.13 581.87,-111.94 818,-56 940.33,-27.02 1089.94,-16.15 1155.95,-12.56"/>
<polygon fill="midnightblue" stroke="midnightblue" points="1156.37,-16.05 1166.17,-12.03 1156.01,-9.06 1156.37,-16.05"/>
</g>
<!-- Node9 -->
<g id="node9" class="node">
<title>Node9</title>
<g id="a_node9"><a xlink:title=" ">
<polygon fill="none" stroke="#bfbfbf" points="479,-0.5 479,-19.5 537,-19.5 537,-0.5 479,-0.5"/>
<text text-anchor="middle" x="508" y="-7.5" font-family="Helvetica,sans-Serif" font-size="10.00">memory</text>
</a>
</g>
</g>
<!-- Node4&#45;&gt;Node9 -->
<g id="edge8" class="edge">
<title>Node4&#45;&gt;Node9</title>
<path fill="none" stroke="midnightblue" d="M222.55,-262.75C227.57,-252.83 235.65,-236.07 241,-221 266.36,-149.58 228.92,-108.05 284,-56 310.12,-31.32 411.51,-19.03 468.51,-13.96"/>
<polygon fill="midnightblue" stroke="midnightblue" points="468.95,-17.43 478.61,-13.09 468.35,-10.46 468.95,-17.43"/>
</g>
<!-- Node12&#45;&gt;Node8 -->
<g id="edge13" class="edge">
<title>Node12&#45;&gt;Node8</title>
<path fill="none" stroke="midnightblue" d="M1174.71,-257.45C1190.79,-248.93 1209.52,-236.66 1222,-221 1241.72,-196.27 1240.59,-185.16 1246,-154 1253.45,-111.09 1264.83,-95.28 1246,-56 1239.75,-42.95 1227.66,-32.49 1216.32,-24.95"/>
<polygon fill="midnightblue" stroke="midnightblue" points="1217.85,-21.79 1207.5,-19.54 1214.19,-27.75 1217.85,-21.79"/>
</g>
<!-- Node13 -->
<g id="node13" class="node">
<title>Node13</title>
<g id="a_node13"><a xlink:title=" ">
<polygon fill="none" stroke="#bfbfbf" points="1044.5,-196 1044.5,-215 1109.5,-215 1109.5,-196 1044.5,-196"/>
<text text-anchor="middle" x="1077" y="-203" font-family="Helvetica,sans-Serif" font-size="10.00">exception</text>
</a>
</g>
</g>
<!-- Node12&#45;&gt;Node13 -->
<g id="edge12" class="edge">
<title>Node12&#45;&gt;Node13</title>
<path fill="none" stroke="midnightblue" d="M1128.68,-257.4C1118.18,-247.06 1103.93,-233.02 1093.05,-222.31"/>
<polygon fill="midnightblue" stroke="midnightblue" points="1095.41,-219.72 1085.83,-215.19 1090.5,-224.71 1095.41,-219.72"/>
</g>
<!-- Node14 -->
<g id="node14" class="node">
<title>Node14</title>
<g id="a_node14"><a xlink:title=" ">
<polygon fill="none" stroke="#bfbfbf" points="1166.5,-196 1166.5,-215 1213.5,-215 1213.5,-196 1166.5,-196"/>
<text text-anchor="middle" x="1190" y="-203" font-family="Helvetica,sans-Serif" font-size="10.00">queue</text>
</a>
</g>
</g>
<!-- Node12&#45;&gt;Node14 -->
<g id="edge14" class="edge">
<title>Node12&#45;&gt;Node14</title>
<path fill="none" stroke="midnightblue" d="M1153.2,-257.4C1160.38,-247.46 1170.04,-234.11 1177.66,-223.57"/>
<polygon fill="midnightblue" stroke="midnightblue" points="1180.69,-225.35 1183.71,-215.19 1175.02,-221.25 1180.69,-225.35"/>
</g>
<!-- Node12&#45;&gt;Node15 -->
<g id="edge15" class="edge">
<title>Node12&#45;&gt;Node15</title>
<path fill="none" stroke="midnightblue" d="M1097.69,-257.48C1065.65,-247.56 1022.5,-234.2 988.4,-223.65"/>
<polygon fill="midnightblue" stroke="midnightblue" points="989.18,-220.22 978.59,-220.61 987.11,-226.91 989.18,-220.22"/>
</g>
<!-- Node15&#45;&gt;Node9 -->
<g id="edge16" class="edge">
<title>Node15&#45;&gt;Node9</title>
<path fill="none" stroke="midnightblue" d="M905.68,-190.3C887.19,-180.49 862.35,-166.94 841,-154 773.85,-113.29 765.93,-87.49 694,-56 645.73,-34.87 585.89,-22.65 547.33,-16.41"/>
<polygon fill="midnightblue" stroke="midnightblue" points="547.47,-12.89 537.05,-14.81 546.39,-19.8 547.47,-12.89"/>
</g>
<!-- Node15&#45;&gt;Node11 -->
<g id="edge21" class="edge">
<title>Node15&#45;&gt;Node11</title>
<path fill="none" stroke="midnightblue" d="M944.35,-190.18C952.1,-180.21 962.48,-166.52 971,-154 984.12,-134.73 997.89,-112.07 1007.65,-95.55"/>
<polygon fill="midnightblue" stroke="midnightblue" points="1010.86,-96.99 1012.9,-86.6 1004.82,-93.45 1010.86,-96.99"/>
</g>
<!-- Node16 -->
<g id="node16" class="node">
<title>Node16</title>
<g id="a_node16"><a xlink:title=" ">
<polygon fill="none" stroke="#bfbfbf" points="708,-129 708,-148 764,-148 764,-129 708,-129"/>
<text text-anchor="middle" x="736" y="-136" font-family="Helvetica,sans-Serif" font-size="10.00">optional</text>
</a>
</g>
</g>
<!-- Node15&#45;&gt;Node16 -->
<g id="edge17" class="edge">
<title>Node15&#45;&gt;Node16</title>
<path fill="none" stroke="midnightblue" d="M889.17,-190.45C858.09,-180.43 815.43,-166.56 778,-154 775.42,-153.13 772.74,-152.23 770.06,-151.31"/>
<polygon fill="midnightblue" stroke="midnightblue" points="771,-147.94 760.41,-148.01 768.73,-154.56 771,-147.94"/>
</g>
<!-- Node17 -->
<g id="node17" class="node">
<title>Node17</title>
<g id="a_node17"><a xlink:href="_simple_subscriber_8h.html" target="_top" xlink:title=" ">
<polygon fill="none" stroke="black" points="827.5,-56.5 827.5,-86.5 940.5,-86.5 940.5,-56.5 827.5,-56.5"/>
<text text-anchor="start" x="835.5" y="-74.5" font-family="Helvetica,sans-Serif" font-size="10.00">../../core&#45;lib/include</text>
<text text-anchor="middle" x="884" y="-63.5" font-family="Helvetica,sans-Serif" font-size="10.00">/SimpleSubscriber.h</text>
</a>
</g>
</g>
<!-- Node15&#45;&gt;Node17 -->
<g id="edge18" class="edge">
<title>Node15&#45;&gt;Node17</title>
<path fill="none" stroke="midnightblue" d="M892.51,-190.5C875.94,-182.54 858.47,-170.74 849,-154 838.15,-134.82 850.36,-111.63 863.24,-94.89"/>
<polygon fill="midnightblue" stroke="midnightblue" points="866.26,-96.73 869.92,-86.79 860.86,-92.28 866.26,-96.73"/>
</g>
<!-- Node18 -->
<g id="node18" class="node">
<title>Node18</title>
<g id="a_node18"><a xlink:href="_bot_8h.html" target="_top" xlink:title=" ">
<polygon fill="none" stroke="black" points="858,-123.5 858,-153.5 962,-153.5 962,-123.5 858,-123.5"/>
<text text-anchor="start" x="866" y="-141.5" font-family="Helvetica,sans-Serif" font-size="10.00">../../bot&#45;lib/include</text>
<text text-anchor="middle" x="910" y="-130.5" font-family="Helvetica,sans-Serif" font-size="10.00">/Bot.h</text>
</a>
</g>
</g>
<!-- Node15&#45;&gt;Node18 -->
<g id="edge22" class="edge">
<title>Node15&#45;&gt;Node18</title>
<path fill="none" stroke="midnightblue" d="M928.01,-190.4C925.21,-182.47 921.63,-172.38 918.41,-163.27"/>
<polygon fill="midnightblue" stroke="midnightblue" points="921.62,-161.84 914.98,-153.58 915.02,-164.17 921.62,-161.84"/>
</g>
<!-- Node17&#45;&gt;Node8 -->
<g id="edge19" class="edge">
<title>Node17&#45;&gt;Node8</title>
<path fill="none" stroke="midnightblue" d="M940.59,-59.23C946.13,-58.13 951.67,-57.04 957,-56 1027.89,-42.11 1110.98,-26.14 1156.3,-17.45"/>
<polygon fill="midnightblue" stroke="midnightblue" points="1157.01,-20.88 1166.18,-15.56 1155.7,-14 1157.01,-20.88"/>
</g>
<!-- Node17&#45;&gt;Node9 -->
<g id="edge20" class="edge">
<title>Node17&#45;&gt;Node9</title>
<path fill="none" stroke="midnightblue" d="M827.38,-59.74C820.19,-58.44 812.93,-57.17 806,-56 713.47,-40.42 604.34,-24.58 547.27,-16.5"/>
<polygon fill="midnightblue" stroke="midnightblue" points="547.63,-13.01 537.24,-15.08 546.65,-19.94 547.63,-13.01"/>
</g>
<!-- Node18&#45;&gt;Node11 -->
<g id="edge23" class="edge">
<title>Node18&#45;&gt;Node11</title>
<path fill="none" stroke="midnightblue" d="M934.09,-123.4C949.94,-114.11 970.89,-101.84 988.26,-91.67"/>
<polygon fill="midnightblue" stroke="midnightblue" points="990.1,-94.65 996.96,-86.58 986.56,-88.61 990.1,-94.65"/>
</g>
<!-- Node18&#45;&gt;Node17 -->
<g id="edge24" class="edge">
<title>Node18&#45;&gt;Node17</title>
<path fill="none" stroke="midnightblue" d="M904.36,-123.4C901.16,-115.39 897.06,-105.16 893.39,-95.98"/>
<polygon fill="midnightblue" stroke="midnightblue" points="896.59,-94.56 889.63,-86.58 890.09,-97.16 896.59,-94.56"/>
</g>
<!-- Node19&#45;&gt;Node11 -->
<g id="edge30" class="edge">
<title>Node19&#45;&gt;Node11</title>
<path fill="none" stroke="midnightblue" d="M1121.23,-123.4C1102.61,-113.94 1077.89,-101.39 1057.66,-91.12"/>
<polygon fill="midnightblue" stroke="midnightblue" points="1059.22,-87.98 1048.72,-86.58 1056.05,-94.23 1059.22,-87.98"/>
</g>
<!-- Node20 -->
<g id="node20" class="node">
<title>Node20</title>
<g id="a_node20"><a xlink:href="_simple_publisher_8h.html" target="_top" xlink:title=" ">
<polygon fill="none" stroke="black" points="1094,-56.5 1094,-86.5 1204,-86.5 1204,-56.5 1094,-56.5"/>
<text text-anchor="start" x="1102" y="-74.5" font-family="Helvetica,sans-Serif" font-size="10.00">../../core&#45;lib/include</text>
<text text-anchor="middle" x="1149" y="-63.5" font-family="Helvetica,sans-Serif" font-size="10.00">/SimplePublisher.h</text>
</a>
</g>
</g>
<!-- Node19&#45;&gt;Node20 -->
<g id="edge27" class="edge">
<title>Node19&#45;&gt;Node20</title>
<path fill="none" stroke="midnightblue" d="M1149,-123.4C1149,-115.64 1149,-105.81 1149,-96.86"/>
<polygon fill="midnightblue" stroke="midnightblue" points="1152.5,-96.58 1149,-86.58 1145.5,-96.58 1152.5,-96.58"/>
</g>
<!-- Node20&#45;&gt;Node8 -->
<g id="edge29" class="edge">
<title>Node20&#45;&gt;Node8</title>
<path fill="none" stroke="midnightblue" d="M1158.72,-56.4C1164.55,-47.93 1172.02,-37.1 1178.19,-28.14"/>
<polygon fill="midnightblue" stroke="midnightblue" points="1181.24,-29.88 1184.03,-19.66 1175.48,-25.91 1181.24,-29.88"/>
</g>
<!-- Node20&#45;&gt;Node9 -->
<g id="edge28" class="edge">
<title>Node20&#45;&gt;Node9</title>
<path fill="none" stroke="midnightblue" d="M1093.94,-57.49C1090.92,-56.95 1087.93,-56.44 1085,-56 884.36,-25.61 641.17,-15.16 547.45,-12.11"/>
<polygon fill="midnightblue" stroke="midnightblue" points="547.4,-8.6 537.29,-11.79 547.17,-15.6 547.4,-8.6"/>
</g>
<!-- Node21&#45;&gt;Node9 -->
<g id="edge32" class="edge">
<title>Node21&#45;&gt;Node9</title>
<path fill="none" stroke="midnightblue" d="M545,-570.48C471.24,-565.45 349.55,-552.79 317,-523 293.06,-501.09 298,-484.95 298,-452.5 298,-452.5 298,-452.5 298,-137.5 298,-95.91 311.2,-81.58 344,-56 380.23,-27.74 433.03,-17.21 468.85,-13.3"/>
<polygon fill="midnightblue" stroke="midnightblue" points="469.32,-16.77 478.93,-12.32 468.64,-9.8 469.32,-16.77"/>
</g>
<!-- Node22 -->
<g id="node22" class="node">
<title>Node22</title>
<g id="a_node22"><a xlink:href="_active_event_handler_8h.html" target="_top" xlink:title=" ">
<polygon fill="none" stroke="black" points="749,-503.5 749,-522.5 871,-522.5 871,-503.5 749,-503.5"/>
<text text-anchor="middle" x="810" y="-510.5" font-family="Helvetica,sans-Serif" font-size="10.00">ActiveEventHandler.h</text>
</a>
</g>
</g>
<!-- Node21&#45;&gt;Node22 -->
<g id="edge33" class="edge">
<title>Node21&#45;&gt;Node22</title>
<path fill="none" stroke="midnightblue" d="M651.79,-559.47C687.97,-549.08 736.67,-535.08 770.44,-525.37"/>
<polygon fill="midnightblue" stroke="midnightblue" points="771.76,-528.63 780.41,-522.51 769.83,-521.91 771.76,-528.63"/>
</g>
<!-- Node33 -->
<g id="node33" class="node">
<title>Node33</title>
<g id="a_node33"><a xlink:href="_menu_event_handler_8h.html" target="_top" xlink:title=" ">
<polygon fill="none" stroke="black" points="613,-503.5 613,-522.5 731,-522.5 731,-503.5 613,-503.5"/>
<text text-anchor="middle" x="672" y="-510.5" font-family="Helvetica,sans-Serif" font-size="10.00">MenuEventHandler.h</text>
</a>
</g>
</g>
<!-- Node21&#45;&gt;Node33 -->
<g id="edge62" class="edge">
<title>Node21&#45;&gt;Node33</title>
<path fill="none" stroke="midnightblue" d="M613.51,-559.4C622.98,-550.22 636.82,-538.26 648.76,-528.92"/>
<polygon fill="midnightblue" stroke="midnightblue" points="651.17,-531.48 657.03,-522.66 646.94,-525.9 651.17,-531.48"/>
</g>
<!-- Node34 -->
<g id="node34" class="node">
<title>Node34</title>
<g id="a_node34"><a xlink:href="_pause_event_handler_8h.html" target="_top" xlink:title=" ">
<polygon fill="none" stroke="black" points="475.5,-503.5 475.5,-522.5 594.5,-522.5 594.5,-503.5 475.5,-503.5"/>
<text text-anchor="middle" x="535" y="-510.5" font-family="Helvetica,sans-Serif" font-size="10.00">PauseEventHandler.h</text>
</a>
</g>
</g>
<!-- Node21&#45;&gt;Node34 -->
<g id="edge66" class="edge">
<title>Node21&#45;&gt;Node34</title>
<path fill="none" stroke="midnightblue" d="M581.05,-559.4C569.83,-550.58 556.73,-539.18 547.24,-530.02"/>
<polygon fill="midnightblue" stroke="midnightblue" points="549.48,-527.31 539.97,-522.66 544.51,-532.23 549.48,-527.31"/>
</g>
<!-- Node35 -->
<g id="node35" class="node">
<title>Node35</title>
<g id="a_node35"><a xlink:href="_finished_event_handler_8h.html" target="_top" xlink:title=" ">
<polygon fill="none" stroke="black" points="326.5,-503.5 326.5,-522.5 457.5,-522.5 457.5,-503.5 326.5,-503.5"/>
<text text-anchor="middle" x="392" y="-510.5" font-family="Helvetica,sans-Serif" font-size="10.00">FinishedEventHandler.h</text>
</a>
</g>
</g>
<!-- Node21&#45;&gt;Node35 -->
<g id="edge70" class="edge">
<title>Node21&#45;&gt;Node35</title>
<path fill="none" stroke="midnightblue" d="M553.26,-559.47C516.23,-549.03 466.32,-534.96 431.88,-525.25"/>
<polygon fill="midnightblue" stroke="midnightblue" points="432.74,-521.85 422.17,-522.51 430.84,-528.59 432.74,-521.85"/>
</g>
<!-- Node22&#45;&gt;Node9 -->
<g id="edge34" class="edge">
<title>Node22&#45;&gt;Node9</title>
<path fill="none" stroke="midnightblue" d="M783.49,-503.39C727.85,-483.46 604,-428.6 604,-335 604,-335 604,-335 604,-271.5 604,-174.43 544.59,-68.87 519.24,-28.25"/>
<polygon fill="midnightblue" stroke="midnightblue" points="522.04,-26.13 513.72,-19.57 516.13,-29.89 522.04,-26.13"/>
</g>
<!-- Node23 -->
<g id="node23" class="node">
<title>Node23</title>
<g id="a_node23"><a xlink:href="_event_handler_8h.html" target="_top" xlink:title=" ">
<polygon fill="none" stroke="black" points="473,-436.5 473,-466.5 583,-466.5 583,-436.5 473,-436.5"/>
<text text-anchor="start" x="481" y="-454.5" font-family="Helvetica,sans-Serif" font-size="10.00">../../core&#45;lib/include</text>
<text text-anchor="middle" x="528" y="-443.5" font-family="Helvetica,sans-Serif" font-size="10.00">/EventHandler.h</text>
</a>
</g>
</g>
<!-- Node22&#45;&gt;Node23 -->
<g id="edge35" class="edge">
<title>Node22&#45;&gt;Node23</title>
<path fill="none" stroke="midnightblue" d="M769.6,-503.48C723.5,-493.75 647.48,-477.71 593.02,-466.22"/>
<polygon fill="midnightblue" stroke="midnightblue" points="593.62,-462.77 583.11,-464.13 592.18,-469.62 593.62,-462.77"/>
</g>
<!-- Node31 -->
<g id="node31" class="node">
<title>Node31</title>
<g id="a_node31"><a xlink:href="_event_queue_8h.html" target="_top" xlink:title=" ">
<polygon fill="none" stroke="black" points="919,-257.5 919,-287.5 1029,-287.5 1029,-257.5 919,-257.5"/>
<text text-anchor="start" x="927" y="-275.5" font-family="Helvetica,sans-Serif" font-size="10.00">../../core&#45;lib/include</text>
<text text-anchor="middle" x="974" y="-264.5" font-family="Helvetica,sans-Serif" font-size="10.00">/EventQueue.h</text>
</a>
</g>
</g>
<!-- Node22&#45;&gt;Node31 -->
<g id="edge55" class="edge">
<title>Node22&#45;&gt;Node31</title>
<path fill="none" stroke="midnightblue" d="M824.57,-503.36C859.3,-481.79 946.35,-421.66 977,-344 982.81,-329.29 981.99,-311.49 979.76,-297.45"/>
<polygon fill="midnightblue" stroke="midnightblue" points="983.19,-296.73 977.86,-287.57 976.31,-298.05 983.19,-296.73"/>
</g>
<!-- Node32 -->
<g id="node32" class="node">
<title>Node32</title>
<g id="a_node32"><a xlink:href="_game_statistics_8h.html" target="_top" xlink:title=" ">
<polygon fill="none" stroke="black" points="868,-324.5 868,-343.5 968,-343.5 968,-324.5 868,-324.5"/>
<text text-anchor="middle" x="918" y="-331.5" font-family="Helvetica,sans-Serif" font-size="10.00">GameStatistics.h</text>
</a>
</g>
</g>
<!-- Node22&#45;&gt;Node32 -->
<g id="edge58" class="edge">
<title>Node22&#45;&gt;Node32</title>
<path fill="none" stroke="midnightblue" d="M815.21,-503.46C831.92,-476.08 884.41,-390.05 907.23,-352.65"/>
<polygon fill="midnightblue" stroke="midnightblue" points="910.37,-354.23 912.59,-343.87 904.39,-350.58 910.37,-354.23"/>
</g>
<!-- Node23&#45;&gt;Node9 -->
<g id="edge36" class="edge">
<title>Node23&#45;&gt;Node9</title>
<path fill="none" stroke="midnightblue" d="M509.91,-436.19C486.87,-416.21 450,-377.59 450,-335 450,-335 450,-335 450,-137.5 450,-94.84 477.59,-50.85 494.71,-27.66"/>
<polygon fill="midnightblue" stroke="midnightblue" points="497.6,-29.65 500.89,-19.57 492.04,-25.4 497.6,-29.65"/>
</g>
<!-- Node24 -->
<g id="node24" class="node">
<title>Node24</title>
<g id="a_node24"><a xlink:href="_event_8h.html" target="_top" xlink:title=" ">
<polygon fill="none" stroke="black" points="747.5,-263 747.5,-282 800.5,-282 800.5,-263 747.5,-263"/>
<text text-anchor="middle" x="774" y="-270" font-family="Helvetica,sans-Serif" font-size="10.00">Event.h</text>
</a>
</g>
</g>
<!-- Node23&#45;&gt;Node24 -->
<g id="edge37" class="edge">
<title>Node23&#45;&gt;Node24</title>
<path fill="none" stroke="midnightblue" d="M547.72,-436.31C593.57,-403.32 707.01,-321.7 753.57,-288.2"/>
<polygon fill="midnightblue" stroke="midnightblue" points="755.87,-290.86 761.94,-282.17 751.78,-285.17 755.87,-290.86"/>
</g>
<!-- Node27 -->
<g id="node27" class="node">
<title>Node27</title>
<g id="a_node27"><a xlink:href="_event_publisher_8h.html" target="_top" xlink:title=" ">
<polygon fill="none" stroke="black" points="670,-380.5 670,-399.5 768,-399.5 768,-380.5 670,-380.5"/>
<text text-anchor="middle" x="719" y="-387.5" font-family="Helvetica,sans-Serif" font-size="10.00">EventPublisher.h</text>
</a>
</g>
</g>
<!-- Node23&#45;&gt;Node27 -->
<g id="edge46" class="edge">
<title>Node23&#45;&gt;Node27</title>
<path fill="none" stroke="midnightblue" d="M573.26,-436.4C606.41,-426.07 650.85,-412.23 681.9,-402.56"/>
<polygon fill="midnightblue" stroke="midnightblue" points="682.98,-405.89 691.49,-399.57 680.9,-399.2 682.98,-405.89"/>
</g>
<!-- Node24&#45;&gt;Node7 -->
<g id="edge42" class="edge">
<title>Node24&#45;&gt;Node7</title>
<path fill="none" stroke="midnightblue" d="M747.88,-262.88C741.71,-260.9 735.13,-258.83 729,-257 680.08,-242.37 623.34,-226.95 586.17,-217.06"/>
<polygon fill="midnightblue" stroke="midnightblue" points="586.79,-213.6 576.23,-214.42 584.99,-220.37 586.79,-213.6"/>
</g>
<!-- Node24&#45;&gt;Node9 -->
<g id="edge40" class="edge">
<title>Node24&#45;&gt;Node9</title>
<path fill="none" stroke="midnightblue" d="M750.03,-262.99C721.01,-252.32 674.34,-233.87 661,-221 602.2,-164.29 634.74,-116.64 580,-56 568.01,-42.72 551.2,-31.91 536.84,-24.22"/>
<polygon fill="midnightblue" stroke="midnightblue" points="538.32,-21.05 527.83,-19.62 535.14,-27.29 538.32,-21.05"/>
</g>
<!-- Node24&#45;&gt;Node11 -->
<g id="edge44" class="edge">
<title>Node24&#45;&gt;Node11</title>
<path fill="none" stroke="midnightblue" d="M800.61,-263.89C809.03,-261.58 818.38,-259.09 827,-257 902.06,-238.8 943.73,-276.92 997,-221 1028.88,-187.53 1028.15,-129.36 1024.66,-96.64"/>
<polygon fill="midnightblue" stroke="midnightblue" points="1028.12,-96.09 1023.42,-86.59 1021.17,-96.95 1028.12,-96.09"/>
</g>
<!-- Node24&#45;&gt;Node13 -->
<g id="edge38" class="edge">
<title>Node24&#45;&gt;Node13</title>
<path fill="none" stroke="midnightblue" d="M800.57,-263.72C808.98,-261.39 818.34,-258.95 827,-257 916.4,-236.89 940.94,-242.55 1030,-221 1033.81,-220.08 1037.77,-219.02 1041.7,-217.9"/>
<polygon fill="midnightblue" stroke="midnightblue" points="1042.71,-221.25 1051.3,-215.06 1040.72,-214.54 1042.71,-221.25"/>
</g>
<!-- Node24&#45;&gt;Node15 -->
<g id="edge45" class="edge">
<title>Node24&#45;&gt;Node15</title>
<path fill="none" stroke="midnightblue" d="M795.11,-262.87C818.97,-253.12 858.47,-236.97 889.09,-224.45"/>
<polygon fill="midnightblue" stroke="midnightblue" points="890.75,-227.55 898.69,-220.53 888.1,-221.07 890.75,-227.55"/>
</g>
<!-- Node24&#45;&gt;Node16 -->
<g id="edge43" class="edge">
<title>Node24&#45;&gt;Node16</title>
<path fill="none" stroke="midnightblue" d="M779.68,-262.58C788.71,-247.19 804.21,-214.91 793,-190 786.23,-174.96 772.53,-162.59 760.25,-153.86"/>
<polygon fill="midnightblue" stroke="midnightblue" points="761.95,-150.78 751.69,-148.15 758.07,-156.61 761.95,-150.78"/>
</g>
<!-- Node25 -->
<g id="node25" class="node">
<title>Node25</title>
<g id="a_node25"><a xlink:title=" ">
<polygon fill="none" stroke="#bfbfbf" points="740,-196 740,-215 784,-215 784,-196 740,-196"/>
<text text-anchor="middle" x="762" y="-203" font-family="Helvetica,sans-Serif" font-size="10.00">string</text>
</a>
</g>
</g>
<!-- Node24&#45;&gt;Node25 -->
<g id="edge39" class="edge">
<title>Node24&#45;&gt;Node25</title>
<path fill="none" stroke="midnightblue" d="M772.38,-262.73C770.62,-253.18 767.74,-237.62 765.47,-225.28"/>
<polygon fill="midnightblue" stroke="midnightblue" points="768.85,-224.33 763.59,-215.13 761.97,-225.6 768.85,-224.33"/>
</g>
<!-- Node26 -->
<g id="node26" class="node">
<title>Node26</title>
<g id="a_node26"><a xlink:title=" ">
<polygon fill="none" stroke="#bfbfbf" points="670.5,-196 670.5,-215 721.5,-215 721.5,-196 670.5,-196"/>
<text text-anchor="middle" x="696" y="-203" font-family="Helvetica,sans-Serif" font-size="10.00">variant</text>
</a>
</g>
</g>
<!-- Node24&#45;&gt;Node26 -->
<g id="edge41" class="edge">
<title>Node24&#45;&gt;Node26</title>
<path fill="none" stroke="midnightblue" d="M763.48,-262.73C750.85,-252.21 729.46,-234.38 714.14,-221.62"/>
<polygon fill="midnightblue" stroke="midnightblue" points="716.28,-218.84 706.35,-215.13 711.79,-224.22 716.28,-218.84"/>
</g>
<!-- Node27&#45;&gt;Node8 -->
<g id="edge48" class="edge">
<title>Node27&#45;&gt;Node8</title>
<path fill="none" stroke="midnightblue" d="M768.19,-385.28C917.6,-373.33 1356,-333.17 1356,-273.5 1356,-273.5 1356,-273.5 1356,-137.5 1356,-71.54 1272.05,-35.42 1223.55,-20.06"/>
<polygon fill="midnightblue" stroke="midnightblue" points="1224.37,-16.65 1213.78,-17.09 1222.34,-23.34 1224.37,-16.65"/>
</g>
<!-- Node27&#45;&gt;Node24 -->
<g id="edge49" class="edge">
<title>Node27&#45;&gt;Node24</title>
<path fill="none" stroke="midnightblue" d="M720.39,-380.23C722.64,-367.4 727.81,-342.97 737,-324 742.95,-311.72 751.97,-299.34 759.61,-289.91"/>
<polygon fill="midnightblue" stroke="midnightblue" points="762.36,-292.07 766.11,-282.16 757,-287.57 762.36,-292.07"/>
</g>
<!-- Node28 -->
<g id="node28" class="node">
<title>Node28</title>
<g id="a_node28"><a xlink:title=" ">
<polygon fill="none" stroke="#bfbfbf" points="682,-263 682,-282 720,-282 720,-263 682,-263"/>
<text text-anchor="middle" x="701" y="-270" font-family="Helvetica,sans-Serif" font-size="10.00">map</text>
</a>
</g>
</g>
<!-- Node27&#45;&gt;Node28 -->
<g id="edge47" class="edge">
<title>Node27&#45;&gt;Node28</title>
<path fill="none" stroke="midnightblue" d="M715.26,-380.23C711.65,-371.3 706.39,-356.96 704,-344 700.81,-326.7 700.26,-306.62 700.38,-292.33"/>
<polygon fill="midnightblue" stroke="midnightblue" points="703.88,-292.34 700.59,-282.27 696.89,-292.19 703.88,-292.34"/>
</g>
<!-- Node29 -->
<g id="node29" class="node">
<title>Node29</title>
<g id="a_node29"><a xlink:href="_event_subscriber_8h.html" target="_top" xlink:title=" ">
<polygon fill="none" stroke="black" points="746,-324.5 746,-343.5 850,-343.5 850,-324.5 746,-324.5"/>
<text text-anchor="middle" x="798" y="-331.5" font-family="Helvetica,sans-Serif" font-size="10.00">EventSubscriber.h</text>
</a>
</g>
</g>
<!-- Node27&#45;&gt;Node29 -->
<g id="edge50" class="edge">
<title>Node27&#45;&gt;Node29</title>
<path fill="none" stroke="midnightblue" d="M731.69,-380.32C743.9,-371.98 762.58,-359.21 777,-349.35"/>
<polygon fill="midnightblue" stroke="midnightblue" points="779.06,-352.19 785.34,-343.65 775.11,-346.41 779.06,-352.19"/>
</g>
<!-- Node29&#45;&gt;Node8 -->
<g id="edge52" class="edge">
<title>Node29&#45;&gt;Node8</title>
<path fill="none" stroke="midnightblue" d="M802.35,-324.13C810.88,-307.77 831.51,-273.03 860,-257 960.9,-200.22 1011.59,-266.63 1118,-221 1138.35,-212.27 1139,-202.89 1157,-190 1181.06,-172.77 1198.82,-179.97 1213,-154 1233.87,-115.77 1223.19,-98.35 1213,-56 1210.69,-46.42 1205.98,-36.58 1201.42,-28.56"/>
<polygon fill="midnightblue" stroke="midnightblue" points="1204.29,-26.54 1196.1,-19.81 1198.31,-30.17 1204.29,-26.54"/>
</g>
<!-- Node29&#45;&gt;Node24 -->
<g id="edge54" class="edge">
<title>Node29&#45;&gt;Node24</title>
<path fill="none" stroke="midnightblue" d="M794.56,-324.48C791.1,-315.9 785.67,-302.43 781.25,-291.48"/>
<polygon fill="midnightblue" stroke="midnightblue" points="784.42,-289.97 777.43,-282.01 777.93,-292.59 784.42,-289.97"/>
</g>
<!-- Node29&#45;&gt;Node28 -->
<g id="edge51" class="edge">
<title>Node29&#45;&gt;Node28</title>
<path fill="none" stroke="midnightblue" d="M784.1,-324.48C768.33,-314.8 742.36,-298.87 723.65,-287.39"/>
<polygon fill="midnightblue" stroke="midnightblue" points="725.23,-284.25 714.87,-282.01 721.57,-290.22 725.23,-284.25"/>
</g>
<!-- Node30 -->
<g id="node30" class="node">
<title>Node30</title>
<g id="a_node30"><a xlink:title=" ">
<polygon fill="none" stroke="#bfbfbf" points="869,-263 869,-282 901,-282 901,-263 869,-263"/>
<text text-anchor="middle" x="885" y="-270" font-family="Helvetica,sans-Serif" font-size="10.00">list</text>
</a>
</g>
</g>
<!-- Node29&#45;&gt;Node30 -->
<g id="edge53" class="edge">
<title>Node29&#45;&gt;Node30</title>
<path fill="none" stroke="midnightblue" d="M810.46,-324.48C824.42,-314.93 847.26,-299.31 863.99,-287.87"/>
<polygon fill="midnightblue" stroke="midnightblue" points="866.28,-290.54 872.56,-282.01 862.33,-284.77 866.28,-290.54"/>
</g>
<!-- Node31&#45;&gt;Node9 -->
<g id="edge57" class="edge">
<title>Node31&#45;&gt;Node9</title>
<path fill="none" stroke="midnightblue" d="M944.13,-257.41C908.43,-240.73 846.77,-212.38 793,-190 751.7,-172.81 736.27,-178.74 699,-154 648.72,-120.62 654.11,-91.08 605,-56 585.75,-42.25 561.62,-31.03 542.24,-23.24"/>
<polygon fill="midnightblue" stroke="midnightblue" points="543.46,-19.96 532.88,-19.59 540.92,-26.48 543.46,-19.96"/>
</g>
<!-- Node31&#45;&gt;Node14 -->
<g id="edge56" class="edge">
<title>Node31&#45;&gt;Node14</title>
<path fill="none" stroke="midnightblue" d="M1028.12,-257.48C1063.59,-247.96 1110.84,-234.66 1152,-221 1154.26,-220.25 1156.59,-219.44 1158.92,-218.61"/>
<polygon fill="midnightblue" stroke="midnightblue" points="1160.24,-221.86 1168.42,-215.11 1157.82,-215.29 1160.24,-221.86"/>
</g>
<!-- Node32&#45;&gt;Node24 -->
<g id="edge61" class="edge">
<title>Node32&#45;&gt;Node24</title>
<path fill="none" stroke="midnightblue" d="M897.37,-324.48C872.88,-314.36 831.85,-297.4 803.89,-285.85"/>
<polygon fill="midnightblue" stroke="midnightblue" points="805.17,-282.59 794.59,-282.01 802.5,-289.06 805.17,-282.59"/>
</g>
<!-- Node32&#45;&gt;Node30 -->
<g id="edge59" class="edge">
<title>Node32&#45;&gt;Node30</title>
<path fill="none" stroke="midnightblue" d="M913.27,-324.48C908.42,-315.73 900.73,-301.87 894.6,-290.81"/>
<polygon fill="midnightblue" stroke="midnightblue" points="897.63,-289.06 889.72,-282.01 891.51,-292.45 897.63,-289.06"/>
</g>
<!-- Node32&#45;&gt;Node31 -->
<g id="edge60" class="edge">
<title>Node32&#45;&gt;Node31</title>
<path fill="none" stroke="midnightblue" d="M926.02,-324.48C933.25,-316.79 944.19,-305.17 953.8,-294.96"/>
<polygon fill="midnightblue" stroke="midnightblue" points="956.5,-297.2 960.8,-287.52 951.4,-292.41 956.5,-297.2"/>
</g>
<!-- Node33&#45;&gt;Node9 -->
<g id="edge63" class="edge">
<title>Node33&#45;&gt;Node9</title>
<path fill="none" stroke="midnightblue" d="M612.78,-504.16C560.15,-496.31 487.95,-483.1 464,-467 430.04,-444.16 412,-431.93 412,-391 412,-391 412,-391 412,-137.5 412,-88.53 458.22,-46.61 486.52,-25.54"/>
<polygon fill="midnightblue" stroke="midnightblue" points="488.58,-28.37 494.65,-19.68 484.49,-22.69 488.58,-28.37"/>
</g>
<!-- Node33&#45;&gt;Node21 -->
<g id="edge65" class="edge">
<title>Node33&#45;&gt;Node21</title>
<path fill="none" stroke="midnightblue" d="M666.89,-522.66C659.43,-530.56 646.04,-542.54 633.36,-552.89"/>
<polygon fill="midnightblue" stroke="midnightblue" points="630.83,-550.43 625.19,-559.4 635.19,-555.9 630.83,-550.43"/>
</g>
<!-- Node33&#45;&gt;Node23 -->
<g id="edge64" class="edge">
<title>Node33&#45;&gt;Node23</title>
<path fill="none" stroke="midnightblue" d="M651.37,-503.48C630.59,-494.89 597.9,-481.38 571.39,-470.43"/>
<polygon fill="midnightblue" stroke="midnightblue" points="572.52,-467.11 561.94,-466.52 569.84,-473.58 572.52,-467.11"/>
</g>
<!-- Node34&#45;&gt;Node9 -->
<g id="edge67" class="edge">
<title>Node34&#45;&gt;Node9</title>
<path fill="none" stroke="midnightblue" d="M475.21,-504.87C448.46,-498.83 418.42,-487.65 398,-467 373.1,-441.81 374,-426.42 374,-391 374,-391 374,-391 374,-137.5 374,-99.74 372.69,-84.03 398,-56 416.39,-35.63 445.36,-24.28 468.96,-18.08"/>
<polygon fill="midnightblue" stroke="midnightblue" points="469.8,-21.47 478.69,-15.72 468.15,-14.67 469.8,-21.47"/>
</g>
<!-- Node34&#45;&gt;Node21 -->
<g id="edge69" class="edge">
<title>Node34&#45;&gt;Node21</title>
<path fill="none" stroke="midnightblue" d="M549.82,-522.66C560.35,-530.41 574.22,-542.09 585.27,-552.3"/>
<polygon fill="midnightblue" stroke="midnightblue" points="583.07,-555.04 592.72,-559.4 587.9,-549.97 583.07,-555.04"/>
</g>
<!-- Node34&#45;&gt;Node23 -->
<g id="edge68" class="edge">
<title>Node34&#45;&gt;Node23</title>
<path fill="none" stroke="midnightblue" d="M534,-503.48C533.17,-496.47 531.96,-486.19 530.85,-476.7"/>
<polygon fill="midnightblue" stroke="midnightblue" points="534.29,-476.05 529.65,-466.52 527.34,-476.86 534.29,-476.05"/>
</g>
<!-- Node35&#45;&gt;Node9 -->
<g id="edge71" class="edge">
<title>Node35&#45;&gt;Node9</title>
<path fill="none" stroke="midnightblue" d="M384.68,-503.24C369.5,-484.15 336,-436.83 336,-391 336,-391 336,-391 336,-137.5 336,-97.34 344.95,-82.64 375,-56 401.15,-32.81 439.74,-21.48 468.62,-16"/>
<polygon fill="midnightblue" stroke="midnightblue" points="469.53,-19.4 478.78,-14.24 468.33,-12.5 469.53,-19.4"/>
</g>
<!-- Node35&#45;&gt;Node23 -->
<g id="edge72" class="edge">
<title>Node35&#45;&gt;Node23</title>
<path fill="none" stroke="midnightblue" d="M411.49,-503.48C431.02,-494.93 461.71,-481.5 486.69,-470.57"/>
<polygon fill="midnightblue" stroke="midnightblue" points="488.19,-473.74 495.95,-466.52 485.38,-467.32 488.19,-473.74"/>
</g>
</g>
</svg>
