<?xml version="1.0" encoding="UTF-8" standalone="no"?>
<!DOCTYPE svg PUBLIC "-//W3C//DTD SVG 1.1//EN"
 "http://www.w3.org/Graphics/SVG/1.1/DTD/svg11.dtd">
<!-- Generated by graphviz version 2.43.0 (0)
 -->
<!-- Title: /home/tomek/CLionProjects/proi/proi&#45;projekt/src/game&#45;lib/Game.cpp Pages: 1 -->
<!--zoomable 542 -->
<svg id="main" version="1.1" xmlns="http://www.w3.org/2000/svg" xmlns:xlink="http://www.w3.org/1999/xlink" xml:space="preserve" onload="init(evt)">
<style type="text/css"><![CDATA[
.edge:hover path { stroke: red; }
.edge:hover polygon { stroke: red; fill: red; }
]]></style>
<script type="text/javascript"><![CDATA[
var edges = document.getElementsByTagName('g');
if (edges && edges.length) {
  for (var i=0;i<edges.length;i++) {
    if (edges[i].id.substr(0,4)=='edge') {
      edges[i].setAttribute('class','edge');
    }
  }
}
]]></script>
        <defs>
                <circle id="rim" cx="0" cy="0" r="7"/>
                <circle id="rim2" cx="0" cy="0" r="3.5"/>
                <g id="zoomPlus">
                        <use xlink:href="#rim" fill="#404040">
                                <set attributeName="fill" to="#808080" begin="zoomplus.mouseover" end="zoomplus.mouseout"/>
                        </use>
                        <path d="M-4,0h8M0,-4v8" fill="none" stroke="white" stroke-width="1.5" pointer-events="none"/>
                </g>
                <g id="zoomMin">
                        <use xlink:href="#rim" fill="#404040">
                                <set attributeName="fill" to="#808080" begin="zoomminus.mouseover" end="zoomminus.mouseout"/>
                        </use>
                        <path d="M-4,0h8" fill="none" stroke="white" stroke-width="1.5" pointer-events="none"/>
                </g>
                <g id="dirArrow">
                        <path fill="none" stroke="white" stroke-width="1.5" d="M0,-3.0v7 M-2.5,-0.5L0,-3.0L2.5,-0.5"/>
                </g>
               <g id="resetDef">
                       <use xlink:href="#rim2" fill="#404040">
                               <set attributeName="fill" to="#808080" begin="reset.mouseover" end="reset.mouseout"/>
                       </use>
               </g>
        </defs>

<script type="text/javascript">
var viewWidth = 1603;
var viewHeight = 542;
var sectionId = 'dynsection-0';
</script>
<script xlink:href="svgpan.js"/>
<svg id="graph" class="graph">
<g id="viewport">
<title>/home/tomek/CLionProjects/proi/proi&#45;projekt/src/game&#45;lib/Game.cpp</title>
<!-- Node1 -->
<g id="node1" class="node">
<title>Node1</title>
<g id="a_node1"><a xlink:title=" ">
<polygon fill="#bfbfbf" stroke="black" points="868.75,-492.5 868.75,-533.5 1019.75,-533.5 1019.75,-492.5 868.75,-492.5"/>
<text text-anchor="start" x="876.75" y="-521.5" font-family="Helvetica,sans-Serif" font-size="10.00">/home/tomek/CLionProjects</text>
<text text-anchor="start" x="876.75" y="-510.5" font-family="Helvetica,sans-Serif" font-size="10.00">/proi/proi&#45;projekt/src</text>
<text text-anchor="middle" x="944.25" y="-499.5" font-family="Helvetica,sans-Serif" font-size="10.00">/game&#45;lib/Game.cpp</text>
</a>
</g>
</g>
<!-- Node2 -->
<g id="node2" class="node">
<title>Node2</title>
<g id="a_node2"><a xlink:title=" ">
<polygon fill="none" stroke="#bfbfbf" points="1018.25,-324.5 1018.25,-343.5 1128.25,-343.5 1128.25,-324.5 1018.25,-324.5"/>
<text text-anchor="middle" x="1073.25" y="-331.5" font-family="Helvetica,sans-Serif" font-size="10.00">SFML/Graphics.hpp</text>
</a>
</g>
</g>
<!-- Node1&#45;&gt;Node2 -->
<g id="edge1" class="edge">
<title>Node1&#45;&gt;Node2</title>
<path fill="none" stroke="midnightblue" d="M971.3,-492.4C997.25,-472.16 1035.6,-438.21 1057.25,-400 1065.4,-385.62 1069.43,-367.17 1071.41,-353.59"/>
<polygon fill="midnightblue" stroke="midnightblue" points="1074.9,-353.89 1072.63,-343.54 1067.95,-353.05 1074.9,-353.89"/>
</g>
<!-- Node3 -->
<g id="node3" class="node">
<title>Node3</title>
<g id="a_node3"><a xlink:href="_game_8h.html" target="_top" xlink:title=" ">
<polygon fill="none" stroke="black" points="777.75,-436.5 777.75,-455.5 870.75,-455.5 870.75,-436.5 777.75,-436.5"/>
<text text-anchor="middle" x="824.25" y="-443.5" font-family="Helvetica,sans-Serif" font-size="10.00">include/Game.h</text>
</a>
</g>
</g>
<!-- Node1&#45;&gt;Node3 -->
<g id="edge2" class="edge">
<title>Node1&#45;&gt;Node3</title>
<path fill="none" stroke="midnightblue" d="M908.25,-492.5C889.14,-482.15 866.15,-469.69 849.06,-460.43"/>
<polygon fill="midnightblue" stroke="midnightblue" points="850.69,-457.34 840.23,-455.65 847.35,-463.49 850.69,-457.34"/>
</g>
<!-- Node5 -->
<g id="node5" class="node">
<title>Node5</title>
<g id="a_node5"><a xlink:href="_game_state_8h.html" target="_top" xlink:title=" ">
<polygon fill="none" stroke="black" points="324.25,-380.5 324.25,-399.5 404.25,-399.5 404.25,-380.5 324.25,-380.5"/>
<text text-anchor="middle" x="364.25" y="-387.5" font-family="Helvetica,sans-Serif" font-size="10.00">GameState.h</text>
</a>
</g>
</g>
<!-- Node1&#45;&gt;Node5 -->
<g id="edge76" class="edge">
<title>Node1&#45;&gt;Node5</title>
<path fill="none" stroke="midnightblue" d="M868.51,-502.98C795.88,-493.66 683.38,-477.46 587.25,-456 519.89,-440.96 442.91,-416.98 399.29,-402.73"/>
<polygon fill="midnightblue" stroke="midnightblue" points="400.32,-399.38 389.73,-399.59 398.14,-406.03 400.32,-399.38"/>
</g>
<!-- Node16 -->
<g id="node16" class="node">
<title>Node16</title>
<g id="a_node16"><a xlink:href="_event_queue_8h.html" target="_top" xlink:title=" ">
<polygon fill="none" stroke="black" points="704.25,-190.5 704.25,-220.5 814.25,-220.5 814.25,-190.5 704.25,-190.5"/>
<text text-anchor="start" x="712.25" y="-208.5" font-family="Helvetica,sans-Serif" font-size="10.00">../../core&#45;lib/include</text>
<text text-anchor="middle" x="759.25" y="-197.5" font-family="Helvetica,sans-Serif" font-size="10.00">/EventQueue.h</text>
</a>
</g>
</g>
<!-- Node1&#45;&gt;Node16 -->
<g id="edge75" class="edge">
<title>Node1&#45;&gt;Node16</title>
<path fill="none" stroke="midnightblue" d="M932.4,-492.42C899.69,-438.41 808.27,-287.44 773.2,-229.52"/>
<polygon fill="midnightblue" stroke="midnightblue" points="776.06,-227.49 767.88,-220.75 770.07,-231.11 776.06,-227.49"/>
</g>
<!-- Node18 -->
<g id="node18" class="node">
<title>Node18</title>
<g id="a_node18"><a xlink:href="_game_statistics_8h.html" target="_top" xlink:title=" ">
<polygon fill="none" stroke="black" points="548.25,-263 548.25,-282 648.25,-282 648.25,-263 548.25,-263"/>
<text text-anchor="middle" x="598.25" y="-270" font-family="Helvetica,sans-Serif" font-size="10.00">GameStatistics.h</text>
</a>
</g>
</g>
<!-- Node1&#45;&gt;Node18 -->
<g id="edge78" class="edge">
<title>Node1&#45;&gt;Node18</title>
<path fill="none" stroke="midnightblue" d="M868.4,-493.73C836.78,-484.61 800.28,-472.04 769.25,-456 695.66,-417.95 668.01,-411.7 620.25,-344 609.3,-328.47 603.65,-307.29 600.84,-292.21"/>
<polygon fill="midnightblue" stroke="midnightblue" points="604.25,-291.37 599.2,-282.06 597.34,-292.49 604.25,-291.37"/>
</g>
<!-- Node22 -->
<g id="node22" class="node">
<title>Node22</title>
<g id="a_node22"><a xlink:href="_keyboard_controller_8h.html" target="_top" xlink:title=" ">
<polygon fill="none" stroke="black" points="928.75,-380.5 928.75,-399.5 1047.75,-399.5 1047.75,-380.5 928.75,-380.5"/>
<text text-anchor="middle" x="988.25" y="-387.5" font-family="Helvetica,sans-Serif" font-size="10.00">KeyboardController.h</text>
</a>
</g>
</g>
<!-- Node1&#45;&gt;Node22 -->
<g id="edge77" class="edge">
<title>Node1&#45;&gt;Node22</title>
<path fill="none" stroke="midnightblue" d="M951.42,-492.29C959.79,-469.27 973.52,-431.5 981.65,-409.17"/>
<polygon fill="midnightblue" stroke="midnightblue" points="985.01,-410.17 985.14,-399.57 978.43,-407.78 985.01,-410.17"/>
</g>
<!-- Node25 -->
<g id="node25" class="node">
<title>Node25</title>
<g id="a_node25"><a xlink:href="_game_stats_i_o_8h.html" target="_top" xlink:title=" ">
<polygon fill="none" stroke="black" points="44.25,-380.5 44.25,-399.5 134.25,-399.5 134.25,-380.5 44.25,-380.5"/>
<text text-anchor="middle" x="89.25" y="-387.5" font-family="Helvetica,sans-Serif" font-size="10.00">GameStatsIO.h</text>
</a>
</g>
</g>
<!-- Node1&#45;&gt;Node25 -->
<g id="edge79" class="edge">
<title>Node1&#45;&gt;Node25</title>
<path fill="none" stroke="midnightblue" d="M868.73,-502.87C781.91,-492.24 635.16,-473.84 509.25,-456 378.34,-437.45 224.9,-413.02 144.62,-400.03"/>
<polygon fill="midnightblue" stroke="midnightblue" points="144.69,-396.5 134.26,-398.35 143.57,-403.41 144.69,-396.5"/>
</g>
<!-- Node27 -->
<g id="node27" class="node">
<title>Node27</title>
<g id="a_node27"><a xlink:href="_board_8h.html" target="_top" xlink:title=" ">
<polygon fill="none" stroke="black" points="929.25,-257.5 929.25,-287.5 1045.25,-287.5 1045.25,-257.5 929.25,-257.5"/>
<text text-anchor="start" x="937.25" y="-275.5" font-family="Helvetica,sans-Serif" font-size="10.00">../../board&#45;lib/include</text>
<text text-anchor="middle" x="987.25" y="-264.5" font-family="Helvetica,sans-Serif" font-size="10.00">/Board.h</text>
</a>
</g>
</g>
<!-- Node1&#45;&gt;Node27 -->
<g id="edge80" class="edge">
<title>Node1&#45;&gt;Node27</title>
<path fill="none" stroke="midnightblue" d="M984.46,-492.39C1032.48,-466.3 1109.75,-415.05 1137.25,-344 1152.35,-305 1101.96,-287.56 1055.57,-279.77"/>
<polygon fill="midnightblue" stroke="midnightblue" points="1055.87,-276.27 1045.45,-278.21 1054.8,-283.19 1055.87,-276.27"/>
</g>
<!-- Node32 -->
<g id="node32" class="node">
<title>Node32</title>
<g id="a_node32"><a xlink:href="_grid_8h.html" target="_top" xlink:title=" ">
<polygon fill="none" stroke="black" points="1222.25,-196 1222.25,-215 1268.25,-215 1268.25,-196 1222.25,-196"/>
<text text-anchor="middle" x="1245.25" y="-203" font-family="Helvetica,sans-Serif" font-size="10.00">Grid.h</text>
</a>
</g>
</g>
<!-- Node1&#45;&gt;Node32 -->
<g id="edge81" class="edge">
<title>Node1&#45;&gt;Node32</title>
<path fill="none" stroke="midnightblue" d="M1019.91,-503.56C1087.32,-494.71 1179.6,-478.87 1208.25,-456 1233.12,-436.15 1238.25,-422.82 1238.25,-391 1238.25,-391 1238.25,-391 1238.25,-333 1238.25,-294.64 1241.5,-249.85 1243.57,-225.18"/>
<polygon fill="midnightblue" stroke="midnightblue" points="1247.07,-225.35 1244.45,-215.08 1240.1,-224.74 1247.07,-225.35"/>
</g>
<!-- Node33 -->
<g id="node33" class="node">
<title>Node33</title>
<g id="a_node33"><a xlink:href="_clock_8h.html" target="_top" xlink:title=" ">
<polygon fill="none" stroke="black" points="1351.75,-123.5 1351.75,-153.5 1452.75,-153.5 1452.75,-123.5 1351.75,-123.5"/>
<text text-anchor="start" x="1359.75" y="-141.5" font-family="Helvetica,sans-Serif" font-size="10.00">../core&#45;lib/include</text>
<text text-anchor="middle" x="1402.25" y="-130.5" font-family="Helvetica,sans-Serif" font-size="10.00">/Clock.h</text>
</a>
</g>
</g>
<!-- Node1&#45;&gt;Node33 -->
<g id="edge69" class="edge">
<title>Node1&#45;&gt;Node33</title>
<path fill="none" stroke="midnightblue" d="M1019.94,-506.72C1093.52,-496.99 1194.25,-469.36 1194.25,-391 1194.25,-391 1194.25,-391 1194.25,-271.5 1194.25,-234.31 1187.38,-216.72 1213.25,-190 1246.32,-155.85 1299.73,-143.95 1341.34,-140.17"/>
<polygon fill="midnightblue" stroke="midnightblue" points="1341.68,-143.66 1351.38,-139.4 1341.14,-136.68 1341.68,-143.66"/>
</g>
<!-- Node4 -->
<g id="node4" class="node">
<title>Node4</title>
<g id="a_node4"><a xlink:title=" ">
<polygon fill="none" stroke="#bfbfbf" points="751.25,-0.5 751.25,-19.5 809.25,-19.5 809.25,-0.5 751.25,-0.5"/>
<text text-anchor="middle" x="780.25" y="-7.5" font-family="Helvetica,sans-Serif" font-size="10.00">memory</text>
</a>
</g>
</g>
<!-- Node3&#45;&gt;Node4 -->
<g id="edge3" class="edge">
<title>Node3&#45;&gt;Node4</title>
<path fill="none" stroke="midnightblue" d="M824.96,-436.15C827.4,-403.36 834.79,-285.82 823.25,-190 816.08,-130.39 796.28,-61.88 786.25,-29.63"/>
<polygon fill="midnightblue" stroke="midnightblue" points="789.49,-28.29 783.14,-19.81 782.82,-30.4 789.49,-28.29"/>
</g>
<!-- Node3&#45;&gt;Node5 -->
<g id="edge4" class="edge">
<title>Node3&#45;&gt;Node5</title>
<path fill="none" stroke="midnightblue" d="M777.61,-439.53C690.61,-429.31 504.27,-407.44 414.55,-396.9"/>
<polygon fill="midnightblue" stroke="midnightblue" points="414.7,-393.4 404.36,-395.71 413.89,-400.35 414.7,-393.4"/>
</g>
<!-- Node3&#45;&gt;Node22 -->
<g id="edge41" class="edge">
<title>Node3&#45;&gt;Node22</title>
<path fill="none" stroke="midnightblue" d="M850.24,-436.44C877.95,-427.32 922.01,-412.81 952.87,-402.65"/>
<polygon fill="midnightblue" stroke="midnightblue" points="953.98,-405.97 962.39,-399.52 951.8,-399.32 953.98,-405.97"/>
</g>
<!-- Node24 -->
<g id="node24" class="node">
<title>Node24</title>
<g id="a_node24"><a xlink:href="_menu_8h.html" target="_top" xlink:title=" ">
<polygon fill="none" stroke="black" points="704.75,-263 704.75,-282 757.75,-282 757.75,-263 704.75,-263"/>
<text text-anchor="middle" x="731.25" y="-270" font-family="Helvetica,sans-Serif" font-size="10.00">Menu.h</text>
</a>
</g>
</g>
<!-- Node3&#45;&gt;Node24 -->
<g id="edge47" class="edge">
<title>Node3&#45;&gt;Node24</title>
<path fill="none" stroke="midnightblue" d="M819.85,-436.44C809.62,-416.57 783.32,-365.83 760.25,-324 754.1,-312.84 746.98,-300.44 741.33,-290.71"/>
<polygon fill="midnightblue" stroke="midnightblue" points="744.33,-288.9 736.27,-282.03 738.28,-292.43 744.33,-288.9"/>
</g>
<!-- Node3&#45;&gt;Node25 -->
<g id="edge50" class="edge">
<title>Node3&#45;&gt;Node25</title>
<path fill="none" stroke="midnightblue" d="M777.72,-441.58C648.26,-432.07 284.27,-405.33 144.69,-395.07"/>
<polygon fill="midnightblue" stroke="midnightblue" points="144.87,-391.58 134.64,-394.33 144.36,-398.56 144.87,-391.58"/>
</g>
<!-- Node3&#45;&gt;Node27 -->
<g id="edge54" class="edge">
<title>Node3&#45;&gt;Node27</title>
<path fill="none" stroke="midnightblue" d="M832.56,-436.26C857.21,-410.32 930.47,-333.24 966.62,-295.21"/>
<polygon fill="midnightblue" stroke="midnightblue" points="969.38,-297.38 973.74,-287.72 964.31,-292.56 969.38,-297.38"/>
</g>
<!-- Node5&#45;&gt;Node4 -->
<g id="edge5" class="edge">
<title>Node5&#45;&gt;Node4</title>
<path fill="none" stroke="midnightblue" d="M324.08,-385.47C270.97,-379.93 181.47,-367.37 159.25,-344 116.56,-299.1 136.25,-268.46 136.25,-206.5 136.25,-206.5 136.25,-206.5 136.25,-137.5 136.25,-95.69 147.86,-78.26 183.25,-56 230.27,-26.42 615.05,-14.86 740.71,-11.86"/>
<polygon fill="midnightblue" stroke="midnightblue" points="741.11,-15.35 751.03,-11.61 740.95,-8.35 741.11,-15.35"/>
</g>
<!-- Node6 -->
<g id="node6" class="node">
<title>Node6</title>
<g id="a_node6"><a xlink:href="_active_event_handler_8h.html" target="_top" xlink:title=" ">
<polygon fill="none" stroke="black" points="629.25,-324.5 629.25,-343.5 751.25,-343.5 751.25,-324.5 629.25,-324.5"/>
<text text-anchor="middle" x="690.25" y="-331.5" font-family="Helvetica,sans-Serif" font-size="10.00">ActiveEventHandler.h</text>
</a>
</g>
</g>
<!-- Node5&#45;&gt;Node6 -->
<g id="edge6" class="edge">
<title>Node5&#45;&gt;Node6</title>
<path fill="none" stroke="midnightblue" d="M404.55,-382.32C460.67,-373.03 562.82,-356.11 628.56,-345.22"/>
<polygon fill="midnightblue" stroke="midnightblue" points="629.49,-348.61 638.78,-343.53 628.34,-341.71 629.49,-348.61"/>
</g>
<!-- Node19 -->
<g id="node19" class="node">
<title>Node19</title>
<g id="a_node19"><a xlink:href="_menu_event_handler_8h.html" target="_top" xlink:title=" ">
<polygon fill="none" stroke="black" points="168.25,-324.5 168.25,-343.5 286.25,-343.5 286.25,-324.5 168.25,-324.5"/>
<text text-anchor="middle" x="227.25" y="-331.5" font-family="Helvetica,sans-Serif" font-size="10.00">MenuEventHandler.h</text>
</a>
</g>
</g>
<!-- Node5&#45;&gt;Node19 -->
<g id="edge30" class="edge">
<title>Node5&#45;&gt;Node19</title>
<path fill="none" stroke="midnightblue" d="M337.46,-380.44C312.96,-371.56 277.23,-357.56 253.05,-347.45"/>
<polygon fill="midnightblue" stroke="midnightblue" points="254.35,-344.2 243.78,-343.52 251.62,-350.64 254.35,-344.2"/>
</g>
<!-- Node20 -->
<g id="node20" class="node">
<title>Node20</title>
<g id="a_node20"><a xlink:href="_pause_event_handler_8h.html" target="_top" xlink:title=" ">
<polygon fill="none" stroke="black" points="304.75,-324.5 304.75,-343.5 423.75,-343.5 423.75,-324.5 304.75,-324.5"/>
<text text-anchor="middle" x="364.25" y="-331.5" font-family="Helvetica,sans-Serif" font-size="10.00">PauseEventHandler.h</text>
</a>
</g>
</g>
<!-- Node5&#45;&gt;Node20 -->
<g id="edge34" class="edge">
<title>Node5&#45;&gt;Node20</title>
<path fill="none" stroke="midnightblue" d="M359.09,-380.08C357.58,-372.93 357.15,-362.64 357.8,-353.69"/>
<polygon fill="midnightblue" stroke="midnightblue" points="361.27,-354.13 359.12,-343.75 354.33,-353.2 361.27,-354.13"/>
</g>
<!-- Node21 -->
<g id="node21" class="node">
<title>Node21</title>
<g id="a_node21"><a xlink:href="_finished_event_handler_8h.html" target="_top" xlink:title=" ">
<polygon fill="none" stroke="black" points="441.75,-324.5 441.75,-343.5 572.75,-343.5 572.75,-324.5 441.75,-324.5"/>
<text text-anchor="middle" x="507.25" y="-331.5" font-family="Helvetica,sans-Serif" font-size="10.00">FinishedEventHandler.h</text>
</a>
</g>
</g>
<!-- Node5&#45;&gt;Node21 -->
<g id="edge38" class="edge">
<title>Node5&#45;&gt;Node21</title>
<path fill="none" stroke="midnightblue" d="M386.91,-380.44C410.66,-371.48 448.16,-357.31 474.99,-347.18"/>
<polygon fill="midnightblue" stroke="midnightblue" points="476.58,-350.32 484.7,-343.52 474.11,-343.77 476.58,-350.32"/>
</g>
<!-- Node6&#45;&gt;Node4 -->
<g id="edge7" class="edge">
<title>Node6&#45;&gt;Node4</title>
<path fill="none" stroke="midnightblue" d="M688.65,-324.45C684.97,-304.09 676.25,-251.13 676.25,-206.5 676.25,-206.5 676.25,-206.5 676.25,-137.5 676.25,-87.04 726.24,-45.75 756.9,-25.16"/>
<polygon fill="midnightblue" stroke="midnightblue" points="758.87,-28.06 765.35,-19.68 755.06,-22.19 758.87,-28.06"/>
</g>
<!-- Node7 -->
<g id="node7" class="node">
<title>Node7</title>
<g id="a_node7"><a xlink:href="_event_handler_8h.html" target="_top" xlink:title=" ">
<polygon fill="none" stroke="black" points="361.25,-257.5 361.25,-287.5 471.25,-287.5 471.25,-257.5 361.25,-257.5"/>
<text text-anchor="start" x="369.25" y="-275.5" font-family="Helvetica,sans-Serif" font-size="10.00">../../core&#45;lib/include</text>
<text text-anchor="middle" x="416.25" y="-264.5" font-family="Helvetica,sans-Serif" font-size="10.00">/EventHandler.h</text>
</a>
</g>
</g>
<!-- Node6&#45;&gt;Node7 -->
<g id="edge8" class="edge">
<title>Node6&#45;&gt;Node7</title>
<path fill="none" stroke="midnightblue" d="M651,-324.48C606.72,-314.86 534.02,-299.07 481.24,-287.61"/>
<polygon fill="midnightblue" stroke="midnightblue" points="481.82,-284.16 471.3,-285.45 480.33,-291 481.82,-284.16"/>
</g>
<!-- Node6&#45;&gt;Node16 -->
<g id="edge23" class="edge">
<title>Node6&#45;&gt;Node16</title>
<path fill="none" stroke="midnightblue" d="M718.27,-324.4C735.43,-317.51 756,-305.98 766.25,-288 776.21,-270.53 773.01,-247.45 768.16,-230.31"/>
<polygon fill="midnightblue" stroke="midnightblue" points="771.41,-228.97 765.03,-220.51 764.74,-231.1 771.41,-228.97"/>
</g>
<!-- Node6&#45;&gt;Node18 -->
<g id="edge26" class="edge">
<title>Node6&#45;&gt;Node18</title>
<path fill="none" stroke="midnightblue" d="M677.07,-324.48C662.18,-314.84 637.71,-299.02 619.98,-287.55"/>
<polygon fill="midnightblue" stroke="midnightblue" points="621.71,-284.5 611.41,-282.01 617.91,-290.38 621.71,-284.5"/>
</g>
<!-- Node7&#45;&gt;Node4 -->
<g id="edge9" class="edge">
<title>Node7&#45;&gt;Node4</title>
<path fill="none" stroke="midnightblue" d="M380.82,-257.38C363.79,-249.03 344.3,-236.94 331.25,-221 282.95,-162 232.83,-112.3 284.25,-56 314.86,-22.49 628.95,-13.68 740.89,-11.59"/>
<polygon fill="midnightblue" stroke="midnightblue" points="741.14,-15.09 751.08,-11.41 741.02,-8.09 741.14,-15.09"/>
</g>
<!-- Node8 -->
<g id="node8" class="node">
<title>Node8</title>
<g id="a_node8"><a xlink:href="_event_8h.html" target="_top" xlink:title=" ">
<polygon fill="none" stroke="black" points="508.75,-62 508.75,-81 561.75,-81 561.75,-62 508.75,-62"/>
<text text-anchor="middle" x="535.25" y="-69" font-family="Helvetica,sans-Serif" font-size="10.00">Event.h</text>
</a>
</g>
</g>
<!-- Node7&#45;&gt;Node8 -->
<g id="edge10" class="edge">
<title>Node7&#45;&gt;Node8</title>
<path fill="none" stroke="midnightblue" d="M436.94,-257.3C449.11,-248.1 464.06,-235.21 474.25,-221 504.21,-179.22 522.66,-120.56 530.64,-91.03"/>
<polygon fill="midnightblue" stroke="midnightblue" points="534.06,-91.79 533.19,-81.24 527.28,-90.03 534.06,-91.79"/>
</g>
<!-- Node11 -->
<g id="node11" class="node">
<title>Node11</title>
<g id="a_node11"><a xlink:href="_event_publisher_8h.html" target="_top" xlink:title=" ">
<polygon fill="none" stroke="black" points="367.25,-196 367.25,-215 465.25,-215 465.25,-196 367.25,-196"/>
<text text-anchor="middle" x="416.25" y="-203" font-family="Helvetica,sans-Serif" font-size="10.00">EventPublisher.h</text>
</a>
</g>
</g>
<!-- Node7&#45;&gt;Node11 -->
<g id="edge14" class="edge">
<title>Node7&#45;&gt;Node11</title>
<path fill="none" stroke="midnightblue" d="M416.25,-257.4C416.25,-248.06 416.25,-235.71 416.25,-225.52"/>
<polygon fill="midnightblue" stroke="midnightblue" points="419.75,-225.19 416.25,-215.19 412.75,-225.19 419.75,-225.19"/>
</g>
<!-- Node8&#45;&gt;Node4 -->
<g id="edge13" class="edge">
<title>Node8&#45;&gt;Node4</title>
<path fill="none" stroke="midnightblue" d="M561.92,-62.65C569.74,-60.42 578.32,-58.05 586.25,-56 639.73,-42.21 702,-28.11 741.27,-19.45"/>
<polygon fill="midnightblue" stroke="midnightblue" points="742.2,-22.83 751.22,-17.27 740.7,-15.99 742.2,-22.83"/>
</g>
<!-- Node9 -->
<g id="node9" class="node">
<title>Node9</title>
<g id="a_node9"><a xlink:title=" ">
<polygon fill="none" stroke="#bfbfbf" points="1480.75,-0.5 1480.75,-19.5 1545.75,-19.5 1545.75,-0.5 1480.75,-0.5"/>
<text text-anchor="middle" x="1513.25" y="-7.5" font-family="Helvetica,sans-Serif" font-size="10.00">exception</text>
</a>
</g>
</g>
<!-- Node8&#45;&gt;Node9 -->
<g id="edge11" class="edge">
<title>Node8&#45;&gt;Node9</title>
<path fill="none" stroke="midnightblue" d="M561.92,-68.88C696.72,-60.68 1303.23,-23.78 1470.45,-13.6"/>
<polygon fill="midnightblue" stroke="midnightblue" points="1470.82,-17.09 1480.59,-12.99 1470.4,-10.1 1470.82,-17.09"/>
</g>
<!-- Node10 -->
<g id="node10" class="node">
<title>Node10</title>
<g id="a_node10"><a xlink:title=" ">
<polygon fill="none" stroke="#bfbfbf" points="246.25,-0.5 246.25,-19.5 290.25,-19.5 290.25,-0.5 246.25,-0.5"/>
<text text-anchor="middle" x="268.25" y="-7.5" font-family="Helvetica,sans-Serif" font-size="10.00">string</text>
</a>
</g>
</g>
<!-- Node8&#45;&gt;Node10 -->
<g id="edge12" class="edge">
<title>Node8&#45;&gt;Node10</title>
<path fill="none" stroke="midnightblue" d="M508.68,-64.58C459.34,-53.58 353.76,-30.06 300.46,-18.18"/>
<polygon fill="midnightblue" stroke="midnightblue" points="301.05,-14.72 290.53,-15.96 299.53,-21.55 301.05,-14.72"/>
</g>
<!-- Node11&#45;&gt;Node8 -->
<g id="edge17" class="edge">
<title>Node11&#45;&gt;Node8</title>
<path fill="none" stroke="midnightblue" d="M425.54,-195.81C435.97,-185.95 453.26,-169.24 467.25,-154 487.02,-132.47 508.4,-106.33 521.8,-89.56"/>
<polygon fill="midnightblue" stroke="midnightblue" points="524.89,-91.3 528.37,-81.3 519.41,-86.95 524.89,-91.3"/>
</g>
<!-- Node12 -->
<g id="node12" class="node">
<title>Node12</title>
<g id="a_node12"><a xlink:title=" ">
<polygon fill="none" stroke="#bfbfbf" points="372.25,-62 372.25,-81 410.25,-81 410.25,-62 372.25,-62"/>
<text text-anchor="middle" x="391.25" y="-69" font-family="Helvetica,sans-Serif" font-size="10.00">map</text>
</a>
</g>
</g>
<!-- Node11&#45;&gt;Node12 -->
<g id="edge15" class="edge">
<title>Node11&#45;&gt;Node12</title>
<path fill="none" stroke="midnightblue" d="M394.83,-195.91C377.94,-187.85 355.59,-174.03 345.25,-154 338.94,-141.76 340.28,-135.85 345.25,-123 350.66,-109.04 361.92,-96.56 371.95,-87.51"/>
<polygon fill="midnightblue" stroke="midnightblue" points="374.24,-90.16 379.59,-81.01 369.7,-84.82 374.24,-90.16"/>
</g>
<!-- Node13 -->
<g id="node13" class="node">
<title>Node13</title>
<g id="a_node13"><a xlink:title=" ">
<polygon fill="none" stroke="#bfbfbf" points="1300.75,-0.5 1300.75,-19.5 1347.75,-19.5 1347.75,-0.5 1300.75,-0.5"/>
<text text-anchor="middle" x="1324.25" y="-7.5" font-family="Helvetica,sans-Serif" font-size="10.00">vector</text>
</a>
</g>
</g>
<!-- Node11&#45;&gt;Node13 -->
<g id="edge16" class="edge">
<title>Node11&#45;&gt;Node13</title>
<path fill="none" stroke="midnightblue" d="M465.43,-201.59C612.27,-192.8 1041.2,-166.37 1103.25,-154 1196.01,-135.5 1240.93,-156.35 1305.25,-87 1319.53,-71.61 1323.5,-47.14 1324.4,-30.14"/>
<polygon fill="midnightblue" stroke="midnightblue" points="1327.9,-29.84 1324.62,-19.77 1320.91,-29.69 1327.9,-29.84"/>
</g>
<!-- Node14 -->
<g id="node14" class="node">
<title>Node14</title>
<g id="a_node14"><a xlink:href="_event_subscriber_8h.html" target="_top" xlink:title=" ">
<polygon fill="none" stroke="black" points="354.25,-129 354.25,-148 458.25,-148 458.25,-129 354.25,-129"/>
<text text-anchor="middle" x="406.25" y="-136" font-family="Helvetica,sans-Serif" font-size="10.00">EventSubscriber.h</text>
</a>
</g>
</g>
<!-- Node11&#45;&gt;Node14 -->
<g id="edge18" class="edge">
<title>Node11&#45;&gt;Node14</title>
<path fill="none" stroke="midnightblue" d="M414.9,-195.73C413.44,-186.18 411.04,-170.62 409.14,-158.28"/>
<polygon fill="midnightblue" stroke="midnightblue" points="412.56,-157.48 407.58,-148.13 405.64,-158.54 412.56,-157.48"/>
</g>
<!-- Node14&#45;&gt;Node8 -->
<g id="edge22" class="edge">
<title>Node14&#45;&gt;Node8</title>
<path fill="none" stroke="midnightblue" d="M423.38,-128.87C445.26,-117.84 483.34,-98.66 508.92,-85.77"/>
<polygon fill="midnightblue" stroke="midnightblue" points="510.7,-88.79 518.05,-81.17 507.55,-82.54 510.7,-88.79"/>
</g>
<!-- Node14&#45;&gt;Node12 -->
<g id="edge19" class="edge">
<title>Node14&#45;&gt;Node12</title>
<path fill="none" stroke="midnightblue" d="M404.23,-128.73C402,-119.09 398.36,-103.3 395.5,-90.91"/>
<polygon fill="midnightblue" stroke="midnightblue" points="398.9,-90.08 393.24,-81.13 392.08,-91.66 398.9,-90.08"/>
</g>
<!-- Node14&#45;&gt;Node13 -->
<g id="edge20" class="edge">
<title>Node14&#45;&gt;Node13</title>
<path fill="none" stroke="midnightblue" d="M458.57,-130.29C626.96,-107.09 1151.94,-34.74 1290.46,-15.66"/>
<polygon fill="midnightblue" stroke="midnightblue" points="1291.06,-19.11 1300.49,-14.27 1290.1,-12.17 1291.06,-19.11"/>
</g>
<!-- Node15 -->
<g id="node15" class="node">
<title>Node15</title>
<g id="a_node15"><a xlink:title=" ">
<polygon fill="none" stroke="#bfbfbf" points="293.25,-62 293.25,-81 325.25,-81 325.25,-62 293.25,-62"/>
<text text-anchor="middle" x="309.25" y="-69" font-family="Helvetica,sans-Serif" font-size="10.00">list</text>
</a>
</g>
</g>
<!-- Node14&#45;&gt;Node15 -->
<g id="edge21" class="edge">
<title>Node14&#45;&gt;Node15</title>
<path fill="none" stroke="midnightblue" d="M393.17,-128.73C377.1,-117.96 349.62,-99.55 330.5,-86.74"/>
<polygon fill="midnightblue" stroke="midnightblue" points="332.38,-83.79 322.13,-81.13 328.49,-89.6 332.38,-83.79"/>
</g>
<!-- Node16&#45;&gt;Node4 -->
<g id="edge25" class="edge">
<title>Node16&#45;&gt;Node4</title>
<path fill="none" stroke="midnightblue" d="M760.8,-190.27C764.52,-155.94 774.01,-68.57 778.2,-29.9"/>
<polygon fill="midnightblue" stroke="midnightblue" points="781.72,-29.9 779.32,-19.58 774.76,-29.14 781.72,-29.9"/>
</g>
<!-- Node17 -->
<g id="node17" class="node">
<title>Node17</title>
<g id="a_node17"><a xlink:title=" ">
<polygon fill="none" stroke="#bfbfbf" points="704.75,-129 704.75,-148 751.75,-148 751.75,-129 704.75,-129"/>
<text text-anchor="middle" x="728.25" y="-136" font-family="Helvetica,sans-Serif" font-size="10.00">queue</text>
</a>
</g>
</g>
<!-- Node16&#45;&gt;Node17 -->
<g id="edge24" class="edge">
<title>Node16&#45;&gt;Node17</title>
<path fill="none" stroke="midnightblue" d="M752.53,-190.4C747.93,-180.76 741.8,-167.91 736.86,-157.54"/>
<polygon fill="midnightblue" stroke="midnightblue" points="739.86,-155.71 732.4,-148.19 733.55,-158.73 739.86,-155.71"/>
</g>
<!-- Node18&#45;&gt;Node8 -->
<g id="edge29" class="edge">
<title>Node18&#45;&gt;Node8</title>
<path fill="none" stroke="midnightblue" d="M595.55,-262.95C586.08,-233.04 554.3,-132.66 541.09,-90.93"/>
<polygon fill="midnightblue" stroke="midnightblue" points="544.38,-89.72 538.02,-81.24 537.7,-91.83 544.38,-89.72"/>
</g>
<!-- Node18&#45;&gt;Node15 -->
<g id="edge27" class="edge">
<title>Node18&#45;&gt;Node15</title>
<path fill="none" stroke="midnightblue" d="M548.09,-263.67C481.96,-252.95 372.32,-233.58 358.25,-221 320.23,-186.99 311.62,-122.89 309.74,-91.2"/>
<polygon fill="midnightblue" stroke="midnightblue" points="313.23,-90.95 309.31,-81.11 306.24,-91.25 313.23,-90.95"/>
</g>
<!-- Node18&#45;&gt;Node16 -->
<g id="edge28" class="edge">
<title>Node18&#45;&gt;Node16</title>
<path fill="none" stroke="midnightblue" d="M619.63,-262.87C643.9,-253.07 684.13,-236.83 715.19,-224.29"/>
<polygon fill="midnightblue" stroke="midnightblue" points="716.54,-227.52 724.51,-220.53 713.92,-221.03 716.54,-227.52"/>
</g>
<!-- Node19&#45;&gt;Node4 -->
<g id="edge31" class="edge">
<title>Node19&#45;&gt;Node4</title>
<path fill="none" stroke="midnightblue" d="M220.75,-324.33C206.6,-304.54 174.25,-254.12 174.25,-206.5 174.25,-206.5 174.25,-206.5 174.25,-137.5 174.25,-95.46 186.63,-78.31 222.25,-56 265.98,-28.62 621.07,-15.7 740.92,-12.09"/>
<polygon fill="midnightblue" stroke="midnightblue" points="741.22,-15.58 751.11,-11.79 741.01,-8.59 741.22,-15.58"/>
</g>
<!-- Node19&#45;&gt;Node5 -->
<g id="edge33" class="edge">
<title>Node19&#45;&gt;Node5</title>
<path fill="none" stroke="midnightblue" d="M253.94,-343.52C278.4,-352.39 314.14,-366.38 338.34,-376.5"/>
<polygon fill="midnightblue" stroke="midnightblue" points="337.06,-379.76 347.63,-380.44 339.79,-373.32 337.06,-379.76"/>
</g>
<!-- Node19&#45;&gt;Node7 -->
<g id="edge32" class="edge">
<title>Node19&#45;&gt;Node7</title>
<path fill="none" stroke="midnightblue" d="M254.33,-324.48C282.32,-315.66 326.78,-301.67 362.03,-290.57"/>
<polygon fill="midnightblue" stroke="midnightblue" points="363.22,-293.86 371.71,-287.52 361.12,-287.19 363.22,-293.86"/>
</g>
<!-- Node20&#45;&gt;Node4 -->
<g id="edge35" class="edge">
<title>Node20&#45;&gt;Node4</title>
<path fill="none" stroke="midnightblue" d="M337.08,-324.38C293.36,-308.61 212.25,-270.7 212.25,-206.5 212.25,-206.5 212.25,-206.5 212.25,-137.5 212.25,-95 226.1,-78.34 262.25,-56 302.7,-31 627.38,-16.67 741.09,-12.38"/>
<polygon fill="midnightblue" stroke="midnightblue" points="741.24,-15.88 751.11,-12.01 740.98,-8.88 741.24,-15.88"/>
</g>
<!-- Node20&#45;&gt;Node5 -->
<g id="edge37" class="edge">
<title>Node20&#45;&gt;Node5</title>
<path fill="none" stroke="midnightblue" d="M369.38,-343.75C370.91,-350.86 371.36,-361.14 370.73,-370.1"/>
<polygon fill="midnightblue" stroke="midnightblue" points="367.25,-369.71 369.42,-380.08 374.19,-370.62 367.25,-369.71"/>
</g>
<!-- Node20&#45;&gt;Node7 -->
<g id="edge36" class="edge">
<title>Node20&#45;&gt;Node7</title>
<path fill="none" stroke="midnightblue" d="M371.7,-324.48C378.35,-316.87 388.37,-305.4 397.23,-295.26"/>
<polygon fill="midnightblue" stroke="midnightblue" points="400.05,-297.36 404,-287.52 394.78,-292.75 400.05,-297.36"/>
</g>
<!-- Node21&#45;&gt;Node4 -->
<g id="edge39" class="edge">
<title>Node21&#45;&gt;Node4</title>
<path fill="none" stroke="midnightblue" d="M510.15,-324.24C515.11,-309.75 525.99,-280.09 539.25,-257 594.91,-160.11 604.44,-127.56 690.25,-56 706.89,-42.12 728.54,-31.13 746.43,-23.48"/>
<polygon fill="midnightblue" stroke="midnightblue" points="748.01,-26.62 755.93,-19.58 745.35,-20.14 748.01,-26.62"/>
</g>
<!-- Node21&#45;&gt;Node7 -->
<g id="edge40" class="edge">
<title>Node21&#45;&gt;Node7</title>
<path fill="none" stroke="midnightblue" d="M494.22,-324.48C481.78,-316.34 462.58,-303.79 446.35,-293.18"/>
<polygon fill="midnightblue" stroke="midnightblue" points="447.99,-290.07 437.7,-287.52 444.15,-295.92 447.99,-290.07"/>
</g>
<!-- Node22&#45;&gt;Node2 -->
<g id="edge43" class="edge">
<title>Node22&#45;&gt;Node2</title>
<path fill="none" stroke="midnightblue" d="M1001.91,-380.32C1015.17,-371.9 1035.52,-358.97 1051.1,-349.07"/>
<polygon fill="midnightblue" stroke="midnightblue" points="1053.07,-351.97 1059.63,-343.65 1049.31,-346.06 1053.07,-351.97"/>
</g>
<!-- Node22&#45;&gt;Node4 -->
<g id="edge42" class="edge">
<title>Node22&#45;&gt;Node4</title>
<path fill="none" stroke="midnightblue" d="M981.33,-380.24C968.13,-363.24 939,-324.23 920.25,-288 869.57,-190.06 895.43,-146.39 832.25,-56 824.02,-44.23 812.05,-33.58 801.66,-25.6"/>
<polygon fill="midnightblue" stroke="midnightblue" points="803.56,-22.65 793.42,-19.56 799.42,-28.3 803.56,-22.65"/>
</g>
<!-- Node23 -->
<g id="node23" class="node">
<title>Node23</title>
<g id="a_node23"><a xlink:href="_simple_subscriber_8h.html" target="_top" xlink:title=" ">
<polygon fill="none" stroke="black" points="1182.75,-56.5 1182.75,-86.5 1295.75,-86.5 1295.75,-56.5 1182.75,-56.5"/>
<text text-anchor="start" x="1190.75" y="-74.5" font-family="Helvetica,sans-Serif" font-size="10.00">../../core&#45;lib/include</text>
<text text-anchor="middle" x="1239.25" y="-63.5" font-family="Helvetica,sans-Serif" font-size="10.00">/SimpleSubscriber.h</text>
</a>
</g>
</g>
<!-- Node22&#45;&gt;Node23 -->
<g id="edge44" class="edge">
<title>Node22&#45;&gt;Node23</title>
<path fill="none" stroke="midnightblue" d="M989.43,-380.3C991.55,-367.12 996.99,-341.76 1009.25,-324 1023.81,-302.92 1034.43,-304.22 1054.25,-288 1090.14,-258.62 1102.83,-255.11 1134.25,-221 1171.68,-180.39 1206.98,-125.95 1225.59,-95.54"/>
<polygon fill="midnightblue" stroke="midnightblue" points="1228.62,-97.28 1230.81,-86.91 1222.63,-93.65 1228.62,-97.28"/>
</g>
<!-- Node23&#45;&gt;Node4 -->
<g id="edge46" class="edge">
<title>Node23&#45;&gt;Node4</title>
<path fill="none" stroke="midnightblue" d="M1182.44,-57.63C1179.34,-57.05 1176.26,-56.5 1173.25,-56 1044.71,-34.58 890.8,-20.19 819.76,-14.18"/>
<polygon fill="midnightblue" stroke="midnightblue" points="819.74,-10.66 809.48,-13.32 819.16,-17.64 819.74,-10.66"/>
</g>
<!-- Node23&#45;&gt;Node13 -->
<g id="edge45" class="edge">
<title>Node23&#45;&gt;Node13</title>
<path fill="none" stroke="midnightblue" d="M1259.4,-56.4C1272.64,-47.13 1289.93,-35.03 1303.33,-25.65"/>
<polygon fill="midnightblue" stroke="midnightblue" points="1305.7,-28.26 1311.89,-19.66 1301.69,-22.53 1305.7,-28.26"/>
</g>
<!-- Node24&#45;&gt;Node8 -->
<g id="edge49" class="edge">
<title>Node24&#45;&gt;Node8</title>
<path fill="none" stroke="midnightblue" d="M722.83,-262.95C692.81,-232.46 590.69,-128.79 551.11,-88.6"/>
<polygon fill="midnightblue" stroke="midnightblue" points="553.38,-85.91 543.86,-81.24 548.39,-90.82 553.38,-85.91"/>
</g>
<!-- Node24&#45;&gt;Node16 -->
<g id="edge48" class="edge">
<title>Node24&#45;&gt;Node16</title>
<path fill="none" stroke="midnightblue" d="M735.03,-262.73C738.63,-254.37 744.22,-241.4 749.12,-230.02"/>
<polygon fill="midnightblue" stroke="midnightblue" points="752.44,-231.16 753.18,-220.59 746.01,-228.39 752.44,-231.16"/>
</g>
<!-- Node25&#45;&gt;Node4 -->
<g id="edge51" class="edge">
<title>Node25&#45;&gt;Node4</title>
<path fill="none" stroke="midnightblue" d="M81.62,-380.29C74.39,-371.63 63.71,-357.7 57.25,-344 43.41,-314.65 38.25,-305.95 38.25,-273.5 38.25,-273.5 38.25,-273.5 38.25,-137.5 38.25,-77.72 89.32,-77.11 145.25,-56 255.04,-14.57 619.58,-10.91 740.73,-10.87"/>
<polygon fill="midnightblue" stroke="midnightblue" points="741.01,-14.37 751.02,-10.87 741.02,-7.37 741.01,-14.37"/>
</g>
<!-- Node25&#45;&gt;Node10 -->
<g id="edge52" class="edge">
<title>Node25&#45;&gt;Node10</title>
<path fill="none" stroke="midnightblue" d="M70.84,-380.39C56.31,-372.72 36.49,-360.21 24.25,-344 4.31,-317.58 0.25,-306.6 0.25,-273.5 0.25,-273.5 0.25,-273.5 0.25,-137.5 0.25,-99.74 -3.8,-81.28 24.25,-56 54.98,-28.31 176.92,-16.84 235.93,-12.84"/>
<polygon fill="midnightblue" stroke="midnightblue" points="236.43,-16.31 246.18,-12.18 235.98,-9.33 236.43,-16.31"/>
</g>
<!-- Node26 -->
<g id="node26" class="node">
<title>Node26</title>
<g id="a_node26"><a xlink:title=" ">
<polygon fill="none" stroke="#bfbfbf" points="66.75,-324.5 66.75,-343.5 111.75,-343.5 111.75,-324.5 66.75,-324.5"/>
<text text-anchor="middle" x="89.25" y="-331.5" font-family="Helvetica,sans-Serif" font-size="10.00">utility</text>
</a>
</g>
</g>
<!-- Node25&#45;&gt;Node26 -->
<g id="edge53" class="edge">
<title>Node25&#45;&gt;Node26</title>
<path fill="none" stroke="midnightblue" d="M89.25,-380.08C89.25,-373.01 89.25,-362.86 89.25,-353.99"/>
<polygon fill="midnightblue" stroke="midnightblue" points="92.75,-353.75 89.25,-343.75 85.75,-353.75 92.75,-353.75"/>
</g>
<!-- Node27&#45;&gt;Node4 -->
<g id="edge55" class="edge">
<title>Node27&#45;&gt;Node4</title>
<path fill="none" stroke="midnightblue" d="M982.91,-257.3C970.82,-219.85 933.46,-117.1 870.25,-56 855.21,-41.45 834.53,-30.66 816.79,-23.3"/>
<polygon fill="midnightblue" stroke="midnightblue" points="817.88,-19.97 807.29,-19.57 815.31,-26.48 817.88,-19.97"/>
</g>
<!-- Node27&#45;&gt;Node16 -->
<g id="edge56" class="edge">
<title>Node27&#45;&gt;Node16</title>
<path fill="none" stroke="midnightblue" d="M938.06,-257.48C902.97,-247.47 855.61,-233.97 818.45,-223.38"/>
<polygon fill="midnightblue" stroke="midnightblue" points="819.33,-219.99 808.75,-220.61 817.41,-226.72 819.33,-219.99"/>
</g>
<!-- Node28 -->
<g id="node28" class="node">
<title>Node28</title>
<g id="a_node28"><a xlink:href="_tank_8h.html" target="_top" xlink:title=" ">
<polygon fill="none" stroke="black" points="984.25,-123.5 984.25,-153.5 1094.25,-153.5 1094.25,-123.5 984.25,-123.5"/>
<text text-anchor="start" x="992.25" y="-141.5" font-family="Helvetica,sans-Serif" font-size="10.00">../../tank&#45;lib/include</text>
<text text-anchor="middle" x="1039.25" y="-130.5" font-family="Helvetica,sans-Serif" font-size="10.00">/Tank.h</text>
</a>
</g>
</g>
<!-- Node27&#45;&gt;Node28 -->
<g id="edge57" class="edge">
<title>Node27&#45;&gt;Node28</title>
<path fill="none" stroke="midnightblue" d="M989,-257.48C991.41,-240.86 996.6,-212.58 1006.25,-190 1010.41,-180.28 1016.42,-170.37 1022.17,-161.94"/>
<polygon fill="midnightblue" stroke="midnightblue" points="1025.05,-163.93 1027.99,-153.75 1019.34,-159.88 1025.05,-163.93"/>
</g>
<!-- Node31 -->
<g id="node31" class="node">
<title>Node31</title>
<g id="a_node31"><a xlink:href="_entity_controller_8h.html" target="_top" xlink:title=" ">
<polygon fill="none" stroke="black" points="1015.25,-190.5 1015.25,-220.5 1125.25,-220.5 1125.25,-190.5 1015.25,-190.5"/>
<text text-anchor="start" x="1023.25" y="-208.5" font-family="Helvetica,sans-Serif" font-size="10.00">../../tank&#45;lib/include</text>
<text text-anchor="middle" x="1070.25" y="-197.5" font-family="Helvetica,sans-Serif" font-size="10.00">/EntityController.h</text>
</a>
</g>
</g>
<!-- Node27&#45;&gt;Node31 -->
<g id="edge62" class="edge">
<title>Node27&#45;&gt;Node31</title>
<path fill="none" stroke="midnightblue" d="M1005.26,-257.4C1016.68,-248.45 1031.64,-236.74 1044.33,-226.8"/>
<polygon fill="midnightblue" stroke="midnightblue" points="1046.56,-229.5 1052.28,-220.58 1042.25,-223.99 1046.56,-229.5"/>
</g>
<!-- Node27&#45;&gt;Node32 -->
<g id="edge67" class="edge">
<title>Node27&#45;&gt;Node32</title>
<path fill="none" stroke="midnightblue" d="M1042.92,-257.48C1094.51,-244.48 1169.54,-225.58 1212.25,-214.82"/>
<polygon fill="midnightblue" stroke="midnightblue" points="1213.28,-218.17 1222.12,-212.33 1211.57,-211.38 1213.28,-218.17"/>
</g>
<!-- Node28&#45;&gt;Node4 -->
<g id="edge58" class="edge">
<title>Node28&#45;&gt;Node4</title>
<path fill="none" stroke="midnightblue" d="M1026.87,-123.2C1010.31,-104.96 979.17,-73.65 946.25,-56 905.95,-34.39 854.45,-22.53 819.59,-16.49"/>
<polygon fill="midnightblue" stroke="midnightblue" points="819.77,-12.97 809.33,-14.8 818.63,-19.88 819.77,-12.97"/>
</g>
<!-- Node28&#45;&gt;Node23 -->
<g id="edge60" class="edge">
<title>Node28&#45;&gt;Node23</title>
<path fill="none" stroke="midnightblue" d="M1082.65,-123.4C1113.05,-113.52 1153.86,-100.25 1186.2,-89.74"/>
<polygon fill="midnightblue" stroke="midnightblue" points="1187.51,-93 1195.94,-86.58 1185.35,-86.34 1187.51,-93"/>
</g>
<!-- Node29 -->
<g id="node29" class="node">
<title>Node29</title>
<g id="a_node29"><a xlink:title=" ">
<polygon fill="none" stroke="#bfbfbf" points="1108.25,-62 1108.25,-81 1164.25,-81 1164.25,-62 1108.25,-62"/>
<text text-anchor="middle" x="1136.25" y="-69" font-family="Helvetica,sans-Serif" font-size="10.00">optional</text>
</a>
</g>
</g>
<!-- Node28&#45;&gt;Node29 -->
<g id="edge59" class="edge">
<title>Node28&#45;&gt;Node29</title>
<path fill="none" stroke="midnightblue" d="M1060.3,-123.4C1076.57,-112.5 1098.98,-97.48 1115.24,-86.58"/>
<polygon fill="midnightblue" stroke="midnightblue" points="1117.2,-89.48 1123.56,-81.01 1113.3,-83.67 1117.2,-89.48"/>
</g>
<!-- Node30 -->
<g id="node30" class="node">
<title>Node30</title>
<g id="a_node30"><a xlink:href="_entity_8h.html" target="_top" xlink:title=" ">
<polygon fill="none" stroke="black" points="1036.75,-62 1036.75,-81 1089.75,-81 1089.75,-62 1036.75,-62"/>
<text text-anchor="middle" x="1063.25" y="-69" font-family="Helvetica,sans-Serif" font-size="10.00">Entity.h</text>
</a>
</g>
</g>
<!-- Node28&#45;&gt;Node30 -->
<g id="edge61" class="edge">
<title>Node28&#45;&gt;Node30</title>
<path fill="none" stroke="midnightblue" d="M1044.46,-123.4C1047.98,-113.86 1052.66,-101.18 1056.47,-90.86"/>
<polygon fill="midnightblue" stroke="midnightblue" points="1059.86,-91.79 1060.04,-81.19 1053.3,-89.36 1059.86,-91.79"/>
</g>
<!-- Node31&#45;&gt;Node4 -->
<g id="edge64" class="edge">
<title>Node31&#45;&gt;Node4</title>
<path fill="none" stroke="midnightblue" d="M1034.3,-190.38C1015.34,-181.77 992.51,-169.44 975.25,-154 935.93,-118.82 950.11,-88.12 908.25,-56 882.16,-35.97 846.44,-24.4 819.36,-18.02"/>
<polygon fill="midnightblue" stroke="midnightblue" points="819.97,-14.57 809.45,-15.83 818.45,-21.41 819.97,-14.57"/>
</g>
<!-- Node31&#45;&gt;Node13 -->
<g id="edge63" class="edge">
<title>Node31&#45;&gt;Node13</title>
<path fill="none" stroke="midnightblue" d="M1125.29,-198.71C1225.69,-187.95 1431.16,-164.99 1462.25,-154 1515.87,-135.06 1543.5,-136.63 1571.25,-87 1577.98,-74.97 1580.08,-66.58 1571.25,-56 1544.52,-23.95 1419.56,-14.67 1358.3,-12.03"/>
<polygon fill="midnightblue" stroke="midnightblue" points="1358.12,-8.52 1347.99,-11.62 1357.84,-15.51 1358.12,-8.52"/>
</g>
<!-- Node31&#45;&gt;Node28 -->
<g id="edge66" class="edge">
<title>Node31&#45;&gt;Node28</title>
<path fill="none" stroke="midnightblue" d="M1063.53,-190.4C1059.67,-182.3 1054.73,-171.94 1050.31,-162.69"/>
<polygon fill="midnightblue" stroke="midnightblue" points="1053.43,-161.1 1045.97,-153.58 1047.11,-164.11 1053.43,-161.1"/>
</g>
<!-- Node31&#45;&gt;Node29 -->
<g id="edge65" class="edge">
<title>Node31&#45;&gt;Node29</title>
<path fill="none" stroke="midnightblue" d="M1080.56,-190.37C1087.49,-180.48 1096.56,-166.81 1103.25,-154 1114.16,-133.14 1123.9,-107.83 1129.92,-91.01"/>
<polygon fill="midnightblue" stroke="midnightblue" points="1133.32,-91.91 1133.32,-81.31 1126.71,-89.6 1133.32,-91.91"/>
</g>
<!-- Node32&#45;&gt;Node9 -->
<g id="edge68" class="edge">
<title>Node32&#45;&gt;Node9</title>
<path fill="none" stroke="midnightblue" d="M1268.3,-204.43C1316.7,-203.41 1431.37,-196.31 1515.25,-154 1563.51,-129.66 1613.74,-103.11 1587.25,-56 1579.03,-41.38 1563.92,-30.95 1549.49,-23.85"/>
<polygon fill="midnightblue" stroke="midnightblue" points="1550.74,-20.57 1540.18,-19.64 1547.86,-26.95 1550.74,-20.57"/>
</g>
<!-- Node33&#45;&gt;Node4 -->
<g id="edge70" class="edge">
<title>Node33&#45;&gt;Node4</title>
<path fill="none" stroke="midnightblue" d="M1390.52,-123.26C1373.83,-104.14 1341.23,-70.88 1305.25,-56 1217.39,-19.66 926.09,-12.67 819.64,-11.32"/>
<polygon fill="midnightblue" stroke="midnightblue" points="819.39,-7.82 809.35,-11.2 819.3,-14.82 819.39,-7.82"/>
</g>
<!-- Node34 -->
<g id="node34" class="node">
<title>Node34</title>
<g id="a_node34"><a xlink:title=" ">
<polygon fill="none" stroke="#bfbfbf" points="1512.25,-62 1512.25,-81 1562.25,-81 1562.25,-62 1512.25,-62"/>
<text text-anchor="middle" x="1537.25" y="-69" font-family="Helvetica,sans-Serif" font-size="10.00">chrono</text>
</a>
</g>
</g>
<!-- Node33&#45;&gt;Node34 -->
<g id="edge71" class="edge">
<title>Node33&#45;&gt;Node34</title>
<path fill="none" stroke="midnightblue" d="M1431.55,-123.4C1455.02,-112.09 1487.7,-96.36 1510.48,-85.39"/>
<polygon fill="midnightblue" stroke="midnightblue" points="1512.09,-88.5 1519.58,-81.01 1509.06,-82.19 1512.09,-88.5"/>
</g>
<!-- Node35 -->
<g id="node35" class="node">
<title>Node35</title>
<g id="a_node35"><a xlink:href="_simple_publisher_8h.html" target="_top" xlink:title=" ">
<polygon fill="none" stroke="black" points="1390.25,-62 1390.25,-81 1494.25,-81 1494.25,-62 1390.25,-62"/>
<text text-anchor="middle" x="1442.25" y="-69" font-family="Helvetica,sans-Serif" font-size="10.00">SimplePublisher.h</text>
</a>
</g>
</g>
<!-- Node33&#45;&gt;Node35 -->
<g id="edge72" class="edge">
<title>Node33&#45;&gt;Node35</title>
<path fill="none" stroke="midnightblue" d="M1410.93,-123.4C1416.98,-113.56 1425.1,-100.38 1431.55,-89.89"/>
<polygon fill="midnightblue" stroke="midnightblue" points="1434.64,-91.55 1436.9,-81.19 1428.68,-87.88 1434.64,-91.55"/>
</g>
<!-- Node35&#45;&gt;Node4 -->
<g id="edge73" class="edge">
<title>Node35&#45;&gt;Node4</title>
<path fill="none" stroke="midnightblue" d="M1407.83,-61.98C1397.71,-59.73 1386.58,-57.52 1376.25,-56 1167.7,-25.37 914.86,-15.02 819.32,-12.05"/>
<polygon fill="midnightblue" stroke="midnightblue" points="819.35,-8.55 809.25,-11.74 819.14,-15.54 819.35,-8.55"/>
</g>
<!-- Node35&#45;&gt;Node13 -->
<g id="edge74" class="edge">
<title>Node35&#45;&gt;Node13</title>
<path fill="none" stroke="midnightblue" d="M1425.35,-61.98C1405.72,-52.08 1373.12,-35.64 1350.26,-24.12"/>
<polygon fill="midnightblue" stroke="midnightblue" points="1351.63,-20.89 1341.13,-19.51 1348.48,-27.14 1351.63,-20.89"/>
</g>
</g>
</svg>
        <g id="navigator" transform="translate(0 0)" fill="#404254">
                <rect fill="#f2f5e9" fill-opacity="0.5" stroke="#606060" stroke-width=".5" x="0" y="0" width="60" height="60"/>
                <use id="zoomplus" xlink:href="#zoomPlus" x="17" y="9" onmousedown="handleZoom(evt,'in')"/>
                <use id="zoomminus" xlink:href="#zoomMin" x="42" y="9" onmousedown="handleZoom(evt,'out')"/>
                <use id="reset" xlink:href="#resetDef" x="30" y="36" onmousedown="handleReset()"/>
                <g id="arrowUp" xlink:href="#dirArrow" transform="translate(30 24)" onmousedown="handlePan(0,-1)">
                  <use xlink:href="#rim" fill="#404040">
                        <set attributeName="fill" to="#808080" begin="arrowUp.mouseover" end="arrowUp.mouseout"/>
                  </use>
                  <path fill="none" stroke="white" stroke-width="1.5" d="M0,-3.0v7 M-2.5,-0.5L0,-3.0L2.5,-0.5"/>
                </g>
                <g id="arrowRight" xlink:href="#dirArrow" transform="rotate(90) translate(36 -43)" onmousedown="handlePan(1,0)">
                  <use xlink:href="#rim" fill="#404040">
                        <set attributeName="fill" to="#808080" begin="arrowRight.mouseover" end="arrowRight.mouseout"/>
                  </use>
                  <path fill="none" stroke="white" stroke-width="1.5" d="M0,-3.0v7 M-2.5,-0.5L0,-3.0L2.5,-0.5"/>
                </g>
                <g id="arrowDown" xlink:href="#dirArrow" transform="rotate(180) translate(-30 -48)" onmousedown="handlePan(0,1)">
                  <use xlink:href="#rim" fill="#404040">
                        <set attributeName="fill" to="#808080" begin="arrowDown.mouseover" end="arrowDown.mouseout"/>
                  </use>
                  <path fill="none" stroke="white" stroke-width="1.5" d="M0,-3.0v7 M-2.5,-0.5L0,-3.0L2.5,-0.5"/>
                </g>
                <g id="arrowLeft" xlink:href="#dirArrow" transform="rotate(270) translate(-36 17)" onmousedown="handlePan(-1,0)">
                  <use xlink:href="#rim" fill="#404040">
                        <set attributeName="fill" to="#808080" begin="arrowLeft.mouseover" end="arrowLeft.mouseout"/>
                  </use>
                  <path fill="none" stroke="white" stroke-width="1.5" d="M0,-3.0v7 M-2.5,-0.5L0,-3.0L2.5,-0.5"/>
                </g>
        </g>
        <svg viewBox="0 0 15 15" width="100%" height="30px" preserveAspectRatio="xMaxYMin meet">
         <g id="arrow_out" transform="scale(0.3 0.3)">
          <a xlink:href="_game_8cpp__incl_org.svg" target="_base">
           <rect id="button" ry="5" rx="5" y="6" x="6" height="38" width="38"
                fill="#f2f5e9" fill-opacity="0.5" stroke="#606060" stroke-width="1.0"/>
           <path id="arrow"
             d="M 11.500037,31.436501 C 11.940474,20.09759 22.043105,11.32322 32.158766,21.979434 L 37.068811,17.246167 C 37.068811,17.246167 37.088388,32 37.088388,32 L 22.160133,31.978069 C 22.160133,31.978069 26.997745,27.140456 26.997745,27.140456 C 18.528582,18.264221 13.291696,25.230495 11.500037,31.436501 z"
             style="fill:#404040;"/>
          </a>
         </g>
        </svg>
</svg>
