<?xml version="1.0" encoding="UTF-8" standalone="no"?>
<!DOCTYPE svg PUBLIC "-//W3C//DTD SVG 1.1//EN"
 "http://www.w3.org/Graphics/SVG/1.1/DTD/svg11.dtd">
<!-- Generated by graphviz version 2.43.0 (0)
 -->
<!-- Title: /home/tomek/CLionProjects/proi/proi&#45;projekt/src/game&#45;lib/include/GameStatistics.h Pages: 1 -->
<svg width="520pt" height="374pt"
 viewBox="0.00 0.00 519.83 374.00" xmlns="http://www.w3.org/2000/svg" xmlns:xlink="http://www.w3.org/1999/xlink">
<g id="graph0" class="graph" transform="scale(1 1) rotate(0) translate(4 370)">
<title>/home/tomek/CLionProjects/proi/proi&#45;projekt/src/game&#45;lib/include/GameStatistics.h</title>
<!-- Node1 -->
<g id="node1" class="node">
<title>Node1</title>
<g id="a_node1"><a xlink:title=" ">
<polygon fill="#bfbfbf" stroke="black" points="11,-324.5 11,-365.5 199,-365.5 199,-324.5 11,-324.5"/>
<text text-anchor="start" x="19" y="-353.5" font-family="Helvetica,sans-Serif" font-size="10.00">/home/tomek/CLionProjects</text>
<text text-anchor="start" x="19" y="-342.5" font-family="Helvetica,sans-Serif" font-size="10.00">/proi/proi&#45;projekt/src</text>
<text text-anchor="middle" x="105" y="-331.5" font-family="Helvetica,sans-Serif" font-size="10.00">/game&#45;lib/include/GameStatistics.h</text>
</a>
</g>
</g>
<!-- Node2 -->
<g id="node2" class="node">
<title>Node2</title>
<g id="a_node2"><a xlink:title=" ">
<polygon fill="none" stroke="#bfbfbf" points="0,-263 0,-282 32,-282 32,-263 0,-263"/>
<text text-anchor="middle" x="16" y="-270" font-family="Helvetica,sans-Serif" font-size="10.00">list</text>
</a>
</g>
</g>
<!-- Node1&#45;&gt;Node2 -->
<g id="edge1" class="edge">
<title>Node1&#45;&gt;Node2</title>
<path fill="none" stroke="midnightblue" d="M80.21,-324.36C65.86,-313 48.09,-298.92 34.89,-288.46"/>
<polygon fill="midnightblue" stroke="midnightblue" points="36.96,-285.64 26.95,-282.17 32.61,-291.13 36.96,-285.64"/>
</g>
<!-- Node3 -->
<g id="node3" class="node">
<title>Node3</title>
<g id="a_node3"><a xlink:href="_event_queue_8h.html" target="_top" xlink:title=" ">
<polygon fill="none" stroke="black" points="50,-257.5 50,-287.5 160,-287.5 160,-257.5 50,-257.5"/>
<text text-anchor="start" x="58" y="-275.5" font-family="Helvetica,sans-Serif" font-size="10.00">../../core&#45;lib/include</text>
<text text-anchor="middle" x="105" y="-264.5" font-family="Helvetica,sans-Serif" font-size="10.00">/EventQueue.h</text>
</a>
</g>
</g>
<!-- Node1&#45;&gt;Node3 -->
<g id="edge2" class="edge">
<title>Node1&#45;&gt;Node3</title>
<path fill="none" stroke="midnightblue" d="M105,-324.36C105,-316.23 105,-306.7 105,-298.11"/>
<polygon fill="midnightblue" stroke="midnightblue" points="108.5,-297.89 105,-287.89 101.5,-297.89 108.5,-297.89"/>
</g>
<!-- Node6 -->
<g id="node6" class="node">
<title>Node6</title>
<g id="a_node6"><a xlink:href="_event_8h.html" target="_top" xlink:title=" ">
<polygon fill="none" stroke="black" points="277,-257.5 277,-287.5 387,-287.5 387,-257.5 277,-257.5"/>
<text text-anchor="start" x="285" y="-275.5" font-family="Helvetica,sans-Serif" font-size="10.00">../../core&#45;lib/include</text>
<text text-anchor="middle" x="332" y="-264.5" font-family="Helvetica,sans-Serif" font-size="10.00">/Event.h</text>
</a>
</g>
</g>
<!-- Node1&#45;&gt;Node6 -->
<g id="edge5" class="edge">
<title>Node1&#45;&gt;Node6</title>
<path fill="none" stroke="midnightblue" d="M167.93,-324.46C202.06,-313.86 243.85,-300.88 276.72,-290.67"/>
<polygon fill="midnightblue" stroke="midnightblue" points="278.1,-293.91 286.61,-287.6 276.02,-287.22 278.1,-293.91"/>
</g>
<!-- Node4 -->
<g id="node4" class="node">
<title>Node4</title>
<g id="a_node4"><a xlink:title=" ">
<polygon fill="none" stroke="#bfbfbf" points="29.5,-196 29.5,-215 76.5,-215 76.5,-196 29.5,-196"/>
<text text-anchor="middle" x="53" y="-203" font-family="Helvetica,sans-Serif" font-size="10.00">queue</text>
</a>
</g>
</g>
<!-- Node3&#45;&gt;Node4 -->
<g id="edge3" class="edge">
<title>Node3&#45;&gt;Node4</title>
<path fill="none" stroke="midnightblue" d="M93.72,-257.4C85.69,-247.36 74.87,-233.84 66.4,-223.25"/>
<polygon fill="midnightblue" stroke="midnightblue" points="68.94,-220.82 59.96,-215.19 63.47,-225.19 68.94,-220.82"/>
</g>
<!-- Node5 -->
<g id="node5" class="node">
<title>Node5</title>
<g id="a_node5"><a xlink:title=" ">
<polygon fill="none" stroke="#bfbfbf" points="133,-0.5 133,-19.5 191,-19.5 191,-0.5 133,-0.5"/>
<text text-anchor="middle" x="162" y="-7.5" font-family="Helvetica,sans-Serif" font-size="10.00">memory</text>
</a>
</g>
</g>
<!-- Node3&#45;&gt;Node5 -->
<g id="edge4" class="edge">
<title>Node3&#45;&gt;Node5</title>
<path fill="none" stroke="midnightblue" d="M104.11,-257.29C102.42,-221.91 101.1,-127.55 129,-56 133.03,-45.66 140.06,-35.56 146.6,-27.56"/>
<polygon fill="midnightblue" stroke="midnightblue" points="149.44,-29.64 153.34,-19.79 144.15,-25.05 149.44,-29.64"/>
</g>
<!-- Node6&#45;&gt;Node5 -->
<g id="edge8" class="edge">
<title>Node6&#45;&gt;Node5</title>
<path fill="none" stroke="midnightblue" d="M276.68,-262.39C232.55,-253.85 175.9,-239.63 162,-221 118.75,-163.04 142.52,-68.83 155.42,-29.33"/>
<polygon fill="midnightblue" stroke="midnightblue" points="158.78,-30.32 158.71,-19.72 152.16,-28.05 158.78,-30.32"/>
</g>
<!-- Node7 -->
<g id="node7" class="node">
<title>Node7</title>
<g id="a_node7"><a xlink:title=" ">
<polygon fill="none" stroke="#bfbfbf" points="299.5,-196 299.5,-215 364.5,-215 364.5,-196 299.5,-196"/>
<text text-anchor="middle" x="332" y="-203" font-family="Helvetica,sans-Serif" font-size="10.00">exception</text>
</a>
</g>
</g>
<!-- Node6&#45;&gt;Node7 -->
<g id="edge6" class="edge">
<title>Node6&#45;&gt;Node7</title>
<path fill="none" stroke="midnightblue" d="M332,-257.4C332,-248.06 332,-235.71 332,-225.52"/>
<polygon fill="midnightblue" stroke="midnightblue" points="335.5,-225.19 332,-215.19 328.5,-225.19 335.5,-225.19"/>
</g>
<!-- Node8 -->
<g id="node8" class="node">
<title>Node8</title>
<g id="a_node8"><a xlink:title=" ">
<polygon fill="none" stroke="#bfbfbf" points="383,-196 383,-215 427,-215 427,-196 383,-196"/>
<text text-anchor="middle" x="405" y="-203" font-family="Helvetica,sans-Serif" font-size="10.00">string</text>
</a>
</g>
</g>
<!-- Node6&#45;&gt;Node8 -->
<g id="edge7" class="edge">
<title>Node6&#45;&gt;Node8</title>
<path fill="none" stroke="midnightblue" d="M347.84,-257.4C359.56,-246.96 375.52,-232.75 387.59,-222"/>
<polygon fill="midnightblue" stroke="midnightblue" points="390.09,-224.46 395.24,-215.19 385.44,-219.23 390.09,-224.46"/>
</g>
<!-- Node9 -->
<g id="node9" class="node">
<title>Node9</title>
<g id="a_node9"><a xlink:title=" ">
<polygon fill="none" stroke="#bfbfbf" points="445.5,-196 445.5,-215 496.5,-215 496.5,-196 445.5,-196"/>
<text text-anchor="middle" x="471" y="-203" font-family="Helvetica,sans-Serif" font-size="10.00">variant</text>
</a>
</g>
</g>
<!-- Node6&#45;&gt;Node9 -->
<g id="edge9" class="edge">
<title>Node6&#45;&gt;Node9</title>
<path fill="none" stroke="midnightblue" d="M362.16,-257.4C386.44,-246.04 420.28,-230.22 443.75,-219.24"/>
<polygon fill="midnightblue" stroke="midnightblue" points="445.23,-222.41 452.81,-215.01 442.27,-216.07 445.23,-222.41"/>
</g>
<!-- Node10 -->
<g id="node10" class="node">
<title>Node10</title>
<g id="a_node10"><a xlink:href="_entity_8h.html" target="_top" xlink:title=" ">
<polygon fill="none" stroke="black" points="341,-56.5 341,-86.5 451,-86.5 451,-56.5 341,-56.5"/>
<text text-anchor="start" x="349" y="-74.5" font-family="Helvetica,sans-Serif" font-size="10.00">../../tank&#45;lib/include</text>
<text text-anchor="middle" x="396" y="-63.5" font-family="Helvetica,sans-Serif" font-size="10.00">/Entity.h</text>
</a>
</g>
</g>
<!-- Node6&#45;&gt;Node10 -->
<g id="edge10" class="edge">
<title>Node6&#45;&gt;Node10</title>
<path fill="none" stroke="midnightblue" d="M387.26,-262.82C432.61,-254.43 491.6,-240.18 506,-221 527.39,-192.52 481.02,-128.79 476,-123 465.05,-110.38 450.18,-99.81 436.22,-91.66"/>
<polygon fill="midnightblue" stroke="midnightblue" points="437.67,-88.47 427.23,-86.66 434.27,-94.58 437.67,-88.47"/>
</g>
<!-- Node11 -->
<g id="node11" class="node">
<title>Node11</title>
<g id="a_node11"><a xlink:href="_tank_8h.html" target="_top" xlink:title=" ">
<polygon fill="none" stroke="black" points="171,-190.5 171,-220.5 281,-220.5 281,-190.5 171,-190.5"/>
<text text-anchor="start" x="179" y="-208.5" font-family="Helvetica,sans-Serif" font-size="10.00">../../tank&#45;lib/include</text>
<text text-anchor="middle" x="226" y="-197.5" font-family="Helvetica,sans-Serif" font-size="10.00">/Tank.h</text>
</a>
</g>
</g>
<!-- Node6&#45;&gt;Node11 -->
<g id="edge11" class="edge">
<title>Node6&#45;&gt;Node11</title>
<path fill="none" stroke="midnightblue" d="M309,-257.4C294,-248.2 274.21,-236.07 257.73,-225.95"/>
<polygon fill="midnightblue" stroke="midnightblue" points="259.31,-222.82 248.96,-220.58 255.65,-228.79 259.31,-222.82"/>
</g>
<!-- Node11&#45;&gt;Node5 -->
<g id="edge12" class="edge">
<title>Node11&#45;&gt;Node5</title>
<path fill="none" stroke="midnightblue" d="M221.29,-190.27C209.89,-155.8 180.79,-67.81 168.09,-29.4"/>
<polygon fill="midnightblue" stroke="midnightblue" points="171.3,-27.97 164.84,-19.58 164.65,-30.17 171.3,-27.97"/>
</g>
<!-- Node11&#45;&gt;Node10 -->
<g id="edge17" class="edge">
<title>Node11&#45;&gt;Node10</title>
<path fill="none" stroke="midnightblue" d="M277.46,-190.48C311.15,-180.41 351.23,-166.48 364,-154 379.74,-138.62 387.91,-114.57 392.04,-96.58"/>
<polygon fill="midnightblue" stroke="midnightblue" points="395.52,-97.04 394.08,-86.54 388.66,-95.64 395.52,-97.04"/>
</g>
<!-- Node12 -->
<g id="node12" class="node">
<title>Node12</title>
<g id="a_node12"><a xlink:title=" ">
<polygon fill="none" stroke="#bfbfbf" points="411,-129 411,-148 467,-148 467,-129 411,-129"/>
<text text-anchor="middle" x="439" y="-136" font-family="Helvetica,sans-Serif" font-size="10.00">optional</text>
</a>
</g>
</g>
<!-- Node11&#45;&gt;Node12 -->
<g id="edge13" class="edge">
<title>Node11&#45;&gt;Node12</title>
<path fill="none" stroke="midnightblue" d="M275.94,-190.4C310.14,-180.58 356.46,-166.98 397,-154 399.6,-153.17 402.28,-152.29 404.97,-151.39"/>
<polygon fill="midnightblue" stroke="midnightblue" points="406.28,-154.64 414.63,-148.12 404.04,-148.01 406.28,-154.64"/>
</g>
<!-- Node13 -->
<g id="node13" class="node">
<title>Node13</title>
<g id="a_node13"><a xlink:href="_simple_subscriber_8h.html" target="_top" xlink:title=" ">
<polygon fill="none" stroke="black" points="209.5,-56.5 209.5,-86.5 322.5,-86.5 322.5,-56.5 209.5,-56.5"/>
<text text-anchor="start" x="217.5" y="-74.5" font-family="Helvetica,sans-Serif" font-size="10.00">../../core&#45;lib/include</text>
<text text-anchor="middle" x="266" y="-63.5" font-family="Helvetica,sans-Serif" font-size="10.00">/SimpleSubscriber.h</text>
</a>
</g>
</g>
<!-- Node11&#45;&gt;Node13 -->
<g id="edge14" class="edge">
<title>Node11&#45;&gt;Node13</title>
<path fill="none" stroke="midnightblue" d="M227.68,-190.38C229.89,-173.91 234.41,-146 242,-123 245.02,-113.86 249.3,-104.22 253.41,-95.84"/>
<polygon fill="midnightblue" stroke="midnightblue" points="256.65,-97.19 258.08,-86.69 250.42,-94.01 256.65,-97.19"/>
</g>
<!-- Node15 -->
<g id="node15" class="node">
<title>Node15</title>
<g id="a_node15"><a xlink:href="_bot_8h.html" target="_top" xlink:title=" ">
<polygon fill="none" stroke="black" points="251,-123.5 251,-153.5 355,-153.5 355,-123.5 251,-123.5"/>
<text text-anchor="start" x="259" y="-141.5" font-family="Helvetica,sans-Serif" font-size="10.00">../../bot&#45;lib/include</text>
<text text-anchor="middle" x="303" y="-130.5" font-family="Helvetica,sans-Serif" font-size="10.00">/Bot.h</text>
</a>
</g>
</g>
<!-- Node11&#45;&gt;Node15 -->
<g id="edge18" class="edge">
<title>Node11&#45;&gt;Node15</title>
<path fill="none" stroke="midnightblue" d="M242.71,-190.4C253.2,-181.54 266.92,-169.96 278.61,-160.09"/>
<polygon fill="midnightblue" stroke="midnightblue" points="280.94,-162.7 286.32,-153.58 276.43,-157.35 280.94,-162.7"/>
</g>
<!-- Node13&#45;&gt;Node5 -->
<g id="edge16" class="edge">
<title>Node13&#45;&gt;Node5</title>
<path fill="none" stroke="midnightblue" d="M241.35,-56.4C224.68,-46.86 202.77,-34.32 186.19,-24.84"/>
<polygon fill="midnightblue" stroke="midnightblue" points="187.55,-21.59 177.13,-19.66 184.07,-27.66 187.55,-21.59"/>
</g>
<!-- Node14 -->
<g id="node14" class="node">
<title>Node14</title>
<g id="a_node14"><a xlink:title=" ">
<polygon fill="none" stroke="#bfbfbf" points="242.5,-0.5 242.5,-19.5 289.5,-19.5 289.5,-0.5 242.5,-0.5"/>
<text text-anchor="middle" x="266" y="-7.5" font-family="Helvetica,sans-Serif" font-size="10.00">vector</text>
</a>
</g>
</g>
<!-- Node13&#45;&gt;Node14 -->
<g id="edge15" class="edge">
<title>Node13&#45;&gt;Node14</title>
<path fill="none" stroke="midnightblue" d="M266,-56.4C266,-48.47 266,-38.46 266,-29.86"/>
<polygon fill="midnightblue" stroke="midnightblue" points="269.5,-29.66 266,-19.66 262.5,-29.66 269.5,-29.66"/>
</g>
<!-- Node15&#45;&gt;Node10 -->
<g id="edge19" class="edge">
<title>Node15&#45;&gt;Node10</title>
<path fill="none" stroke="midnightblue" d="M323.18,-123.4C336.1,-114.37 353.06,-102.51 367.36,-92.52"/>
<polygon fill="midnightblue" stroke="midnightblue" points="369.67,-95.17 375.86,-86.58 365.66,-89.44 369.67,-95.17"/>
</g>
<!-- Node15&#45;&gt;Node13 -->
<g id="edge20" class="edge">
<title>Node15&#45;&gt;Node13</title>
<path fill="none" stroke="midnightblue" d="M294.97,-123.4C290.32,-115.22 284.34,-104.73 279.03,-95.39"/>
<polygon fill="midnightblue" stroke="midnightblue" points="282,-93.54 274.01,-86.58 275.92,-97 282,-93.54"/>
</g>
</g>
</svg>
