<?xml version="1.0" encoding="UTF-8" standalone="no"?>
<!DOCTYPE svg PUBLIC "-//W3C//DTD SVG 1.1//EN"
 "http://www.w3.org/Graphics/SVG/1.1/DTD/svg11.dtd">
<!-- Generated by graphviz version 2.43.0 (0)
 -->
<!-- Title: /home/tomek/CLionProjects/proi/proi&#45;projekt/src/game&#45;lib/Game.cpp Pages: 1 -->
<svg width="782pt" height="531pt"
 viewBox="0.00 0.00 782.00 531.00" xmlns="http://www.w3.org/2000/svg" xmlns:xlink="http://www.w3.org/1999/xlink">
<g id="graph0" class="graph" transform="scale(1 1) rotate(0) translate(4 527)">
<title>/home/tomek/CLionProjects/proi/proi&#45;projekt/src/game&#45;lib/Game.cpp</title>
<!-- Node1 -->
<g id="node1" class="node">
<title>Node1</title>
<g id="a_node1"><a xlink:title=" ">
<polygon fill="#bfbfbf" stroke="black" points="248.5,-481.5 248.5,-522.5 399.5,-522.5 399.5,-481.5 248.5,-481.5"/>
<text text-anchor="start" x="256.5" y_="-510.5" font-family="Helvetica,sans-Serif" font-size="10.00">/home/tomek/CLionProjects</text>
<text text-anchor="start" x="256.5" y_="-499.5" font-family="Helvetica,sans-Serif" font-size="10.00">/proi/proi&#45;projekt/src</text>
<text text-anchor="middle" x="324" y_="-488.5" font-family="Helvetica,sans-Serif" font-size="10.00">/game&#45;lib/Game.cpp</text>
</a>
</g>
</g>
<!-- Node2 -->
<g id="node2" class="node">
<title>Node2</title>
<g id="a_node2"><a xlink:title=" ">
<polygon fill="none" stroke="#bfbfbf" points="121,-420 121,-439 181,-439 181,-420 121,-420"/>
<text text-anchor="middle" x="151" y_="-427" font-family="Helvetica,sans-Serif" font-size="10.00">iostream</text>
</a>
</g>
</g>
<!-- Node1&#45;&gt;Node2 -->
<g id="edge1" class="edge">
<title>Node1&#45;&gt;Node2</title>
<path fill="none" stroke="midnightblue" d="M275.81,-481.36C245.67,-469.08 207.75,-453.63 181.66,-442.99"/>
<polygon fill="midnightblue" stroke="midnightblue" points="182.87,-439.71 172.28,-439.17 180.22,-446.19 182.87,-439.71"/>
</g>
<!-- Node3 -->
<g id="node3" class="node">
<title>Node3</title>
<g id="a_node3"><a xlink:href="_game_8h.html" target="_top" xlink:title=" ">
<polygon fill="none" stroke="black" points="237.5,-420 237.5,-439 330.5,-439 330.5,-420 237.5,-420"/>
<text text-anchor="middle" x="284" y_="-427" font-family="Helvetica,sans-Serif" font-size="10.00">include/Game.h</text>
</a>
</g>
</g>
<!-- Node1&#45;&gt;Node3 -->
<g id="edge2" class="edge">
<title>Node1&#45;&gt;Node3</title>
<path fill="none" stroke="midnightblue" d="M312.86,-481.36C306.9,-470.86 299.63,-458.05 293.88,-447.91"/>
<polygon fill="midnightblue" stroke="midnightblue" points="296.9,-446.14 288.92,-439.17 290.81,-449.6 296.9,-446.14"/>
</g>
<!-- Node6 -->
<g id="node6" class="node">
<title>Node6</title>
<g id="a_node6"><a xlink:href="_game_state_8h.html" target="_top" xlink:title=" ">
<polygon fill="none" stroke="black" points="106,-358.5 106,-377.5 186,-377.5 186,-358.5 106,-358.5"/>
<text text-anchor="middle" x="146" y_="-365.5" font-family="Helvetica,sans-Serif" font-size="10.00">GameState.h</text>
</a>
</g>
</g>
<!-- Node1&#45;&gt;Node6 -->
<g id="edge38" class="edge">
<title>Node1&#45;&gt;Node6</title>
<path fill="none" stroke="midnightblue" d="M285.87,-481.29C267.75,-471.29 246.14,-458.44 228,-445 203.03,-426.5 177.22,-401.41 161.39,-385.22"/>
<polygon fill="midnightblue" stroke="midnightblue" points="163.54,-382.4 154.08,-377.64 158.5,-387.27 163.54,-382.4"/>
</g>
<!-- Node17 -->
<g id="node17" class="node">
<title>Node17</title>
<g id="a_node17"><a xlink:href="_keyboard_controller_8h.html" target="_top" xlink:title=" ">
<polygon fill="none" stroke="black" points="308.5,-358.5 308.5,-377.5 427.5,-377.5 427.5,-358.5 308.5,-358.5"/>
<text text-anchor="middle" x="368" y_="-365.5" font-family="Helvetica,sans-Serif" font-size="10.00">KeyboardController.h</text>
</a>
</g>
</g>
<!-- Node1&#45;&gt;Node17 -->
<g id="edge39" class="edge">
<title>Node1&#45;&gt;Node17</title>
<path fill="none" stroke="midnightblue" d="M330.59,-481.24C339.07,-455.8 353.68,-411.95 361.91,-387.27"/>
<polygon fill="midnightblue" stroke="midnightblue" points="365.26,-388.28 365.1,-377.69 358.62,-386.07 365.26,-388.28"/>
</g>
<!-- Node19 -->
<g id="node19" class="node">
<title>Node19</title>
<g id="a_node19"><a xlink:href="_clock_8h.html" target="_top" xlink:title=" ">
<polygon fill="none" stroke="black" points="550.5,-291.5 550.5,-321.5 651.5,-321.5 651.5,-291.5 550.5,-291.5"/>
<text text-anchor="start" x="558.5" y_="-309.5" font-family="Helvetica,sans-Serif" font-size="10.00">../core&#45;lib/include</text>
<text text-anchor="middle" x="601" y_="-298.5" font-family="Helvetica,sans-Serif" font-size="10.00">/Clock.h</text>
</a>
</g>
</g>
<!-- Node1&#45;&gt;Node19 -->
<g id="edge29" class="edge">
<title>Node1&#45;&gt;Node19</title>
<path fill="none" stroke="midnightblue" d="M399.5,-492.02C437.47,-484.46 482.43,-470.55 516,-445 555.13,-415.23 580.51,-361.81 592.64,-331.05"/>
<polygon fill="midnightblue" stroke="midnightblue" points="595.96,-332.15 596.24,-321.56 589.42,-329.66 595.96,-332.15"/>
</g>
<!-- Node22 -->
<g id="node22" class="node">
<title>Node22</title>
<g id="a_node22"><a xlink:href="_event_queue_8h.html" target="_top" xlink:title=" ">
<polygon fill="none" stroke="black" points="405.5,-414.5 405.5,-444.5 506.5,-444.5 506.5,-414.5 405.5,-414.5"/>
<text text-anchor="start" x="413.5" y_="-432.5" font-family="Helvetica,sans-Serif" font-size="10.00">../core&#45;lib/include</text>
<text text-anchor="middle" x="456" y_="-421.5" font-family="Helvetica,sans-Serif" font-size="10.00">/EventQueue.h</text>
</a>
</g>
</g>
<!-- Node1&#45;&gt;Node22 -->
<g id="edge35" class="edge">
<title>Node1&#45;&gt;Node22</title>
<path fill="none" stroke="midnightblue" d="M360.77,-481.36C379.43,-471.39 402.01,-459.34 420.49,-449.47"/>
<polygon fill="midnightblue" stroke="midnightblue" points="422.3,-452.47 429.47,-444.67 419,-446.29 422.3,-452.47"/>
</g>
<!-- Node4 -->
<g id="node4" class="node">
<title>Node4</title>
<g id="a_node4"><a xlink:title=" ">
<polygon fill="none" stroke="#bfbfbf" points="337,-168.5 337,-187.5 395,-187.5 395,-168.5 337,-168.5"/>
<text text-anchor="middle" x="366" y_="-175.5" font-family="Helvetica,sans-Serif" font-size="10.00">memory</text>
</a>
</g>
</g>
<!-- Node3&#45;&gt;Node4 -->
<g id="edge3" class="edge">
<title>Node3&#45;&gt;Node4</title>
<path fill="none" stroke="midnightblue" d="M276.11,-419.94C256.93,-398.03 210.98,-338.32 233,-291 254.79,-244.17 306.87,-209.9 339.01,-192.33"/>
<polygon fill="midnightblue" stroke="midnightblue" points="340.7,-195.39 347.9,-187.62 337.43,-189.21 340.7,-195.39"/>
</g>
<!-- Node5 -->
<g id="node5" class="node">
<title>Node5</title>
<g id="a_node5"><a xlink:title=" ">
<polygon fill="none" stroke="#bfbfbf" points="242,-297 242,-316 352,-316 352,-297 242,-297"/>
<text text-anchor="middle" x="297" y_="-304" font-family="Helvetica,sans-Serif" font-size="10.00">SFML/Graphics.hpp</text>
</a>
</g>
</g>
<!-- Node3&#45;&gt;Node5 -->
<g id="edge4" class="edge">
<title>Node3&#45;&gt;Node5</title>
<path fill="none" stroke="midnightblue" d="M284.93,-419.8C287.02,-400.35 292.11,-352.99 294.97,-326.4"/>
<polygon fill="midnightblue" stroke="midnightblue" points="298.49,-326.44 296.07,-316.12 291.53,-325.69 298.49,-326.44"/>
</g>
<!-- Node3&#45;&gt;Node6 -->
<g id="edge5" class="edge">
<title>Node3&#45;&gt;Node6</title>
<path fill="none" stroke="midnightblue" d="M264.23,-419.98C240.86,-409.9 201.79,-393.05 175,-381.5"/>
<polygon fill="midnightblue" stroke="midnightblue" points="176.3,-378.25 165.74,-377.51 173.53,-384.68 176.3,-378.25"/>
</g>
<!-- Node3&#45;&gt;Node17 -->
<g id="edge23" class="edge">
<title>Node3&#45;&gt;Node17</title>
<path fill="none" stroke="midnightblue" d="M296.04,-419.98C309.51,-410.43 331.57,-394.81 347.72,-383.37"/>
<polygon fill="midnightblue" stroke="midnightblue" points="349.85,-386.15 355.99,-377.51 345.8,-380.43 349.85,-386.15"/>
</g>
<!-- Node6&#45;&gt;Node4 -->
<g id="edge6" class="edge">
<title>Node6&#45;&gt;Node4</title>
<path fill="none" stroke="midnightblue" d="M148.19,-358.26C155.37,-330.19 178.98,-243.09 200,-224 218.52,-207.18 283.92,-193.1 326.89,-185.38"/>
<polygon fill="midnightblue" stroke="midnightblue" points="327.51,-188.82 336.76,-183.65 326.3,-181.93 327.51,-188.82"/>
</g>
<!-- Node7 -->
<g id="node7" class="node">
<title>Node7</title>
<g id="a_node7"><a xlink:href="_active_event_handler_8h.html" target="_top" xlink:title=" ">
<polygon fill="none" stroke="black" points="26,-297 26,-316 148,-316 148,-297 26,-297"/>
<text text-anchor="middle" x="87" y_="-304" font-family="Helvetica,sans-Serif" font-size="10.00">ActiveEventHandler.h</text>
</a>
</g>
</g>
<!-- Node6&#45;&gt;Node7 -->
<g id="edge7" class="edge">
<title>Node6&#45;&gt;Node7</title>
<path fill="none" stroke="midnightblue" d="M137.55,-358.48C128.43,-349.28 113.73,-334.46 102.52,-323.16"/>
<polygon fill="midnightblue" stroke="midnightblue" points="104.96,-320.65 95.44,-316.01 99.99,-325.57 104.96,-320.65"/>
</g>
<!-- Node7&#45;&gt;Node4 -->
<g id="edge8" class="edge">
<title>Node7&#45;&gt;Node4</title>
<path fill="none" stroke="midnightblue" d="M92.38,-296.75C103.27,-279.81 129.66,-242.6 162,-224 189.65,-208.1 275.6,-192.8 326.69,-184.79"/>
<polygon fill="midnightblue" stroke="midnightblue" points="327.37,-188.23 336.72,-183.24 326.3,-181.31 327.37,-188.23"/>
</g>
<!-- Node8 -->
<g id="node8" class="node">
<title>Node8</title>
<g id="a_node8"><a xlink:href="_event_handler_8h.html" target="_top" xlink:title=" ">
<polygon fill="none" stroke="black" points="0,-224.5 0,-254.5 110,-254.5 110,-224.5 0,-224.5"/>
<text text-anchor="start" x="8" y_="-242.5" font-family="Helvetica,sans-Serif" font-size="10.00">../../core&#45;lib/include</text>
<text text-anchor="middle" x="55" y_="-231.5" font-family="Helvetica,sans-Serif" font-size="10.00">/EventHandler.h</text>
</a>
</g>
</g>
<!-- Node7&#45;&gt;Node8 -->
<g id="edge9" class="edge">
<title>Node7&#45;&gt;Node8</title>
<path fill="none" stroke="midnightblue" d="M82.68,-296.73C78.53,-288.29 72.05,-275.14 66.41,-263.68"/>
<polygon fill="midnightblue" stroke="midnightblue" points="69.49,-262.01 61.94,-254.59 63.21,-265.11 69.49,-262.01"/>
</g>
<!-- Node8&#45;&gt;Node4 -->
<g id="edge10" class="edge">
<title>Node8&#45;&gt;Node4</title>
<path fill="none" stroke="midnightblue" d="M110.34,-226.75C114.96,-225.81 119.56,-224.88 124,-224 195.47,-209.85 279.08,-194.59 326.96,-185.97"/>
<polygon fill="midnightblue" stroke="midnightblue" points="327.68,-189.4 336.9,-184.18 326.44,-182.51 327.68,-189.4"/>
</g>
<!-- Node9 -->
<g id="node9" class="node">
<title>Node9</title>
<g id="a_node9"><a xlink:href="_event_8h.html" target="_top" xlink:title=" ">
<polygon fill="none" stroke="black" points="173.5,-56.5 173.5,-75.5 226.5,-75.5 226.5,-56.5 173.5,-56.5"/>
<text text-anchor="middle" x="200" y_="-63.5" font-family="Helvetica,sans-Serif" font-size="10.00">Event.h</text>
</a>
</g>
</g>
<!-- Node8&#45;&gt;Node9 -->
<g id="edge11" class="edge">
<title>Node8&#45;&gt;Node9</title>
<path fill="none" stroke="midnightblue" d="M66.87,-224.47C93.44,-193.03 157.63,-117.12 186.05,-83.5"/>
<polygon fill="midnightblue" stroke="midnightblue" points="188.98,-85.46 192.76,-75.56 183.63,-80.94 188.98,-85.46"/>
</g>
<!-- Node12 -->
<g id="node12" class="node">
<title>Node12</title>
<g id="a_node12"><a xlink:href="_event_publisher_8h.html" target="_top" xlink:title=" ">
<polygon fill="none" stroke="black" points="189,-168.5 189,-187.5 287,-187.5 287,-168.5 189,-168.5"/>
<text text-anchor="middle" x="238" y_="-175.5" font-family="Helvetica,sans-Serif" font-size="10.00">EventPublisher.h</text>
</a>
</g>
</g>
<!-- Node8&#45;&gt;Node12 -->
<g id="edge14" class="edge">
<title>Node8&#45;&gt;Node12</title>
<path fill="none" stroke="midnightblue" d="M98.37,-224.4C129.99,-214.12 172.33,-200.35 202.07,-190.68"/>
<polygon fill="midnightblue" stroke="midnightblue" points="203.21,-193.99 211.64,-187.57 201.05,-187.33 203.21,-193.99"/>
</g>
<!-- Node10 -->
<g id="node10" class="node">
<title>Node10</title>
<g id="a_node10"><a xlink:title=" ">
<polygon fill="none" stroke="#bfbfbf" points="131.5,-0.5 131.5,-19.5 196.5,-19.5 196.5,-0.5 131.5,-0.5"/>
<text text-anchor="middle" x="164" y_="-7.5" font-family="Helvetica,sans-Serif" font-size="10.00">exception</text>
</a>
</g>
</g>
<!-- Node9&#45;&gt;Node10 -->
<g id="edge12" class="edge">
<title>Node9&#45;&gt;Node10</title>
<path fill="none" stroke="midnightblue" d="M194.06,-56.08C189.02,-48.53 181.66,-37.49 175.49,-28.23"/>
<polygon fill="midnightblue" stroke="midnightblue" points="178.29,-26.13 169.83,-19.75 172.47,-30.01 178.29,-26.13"/>
</g>
<!-- Node11 -->
<g id="node11" class="node">
<title>Node11</title>
<g id="a_node11"><a xlink:title=" ">
<polygon fill="none" stroke="#bfbfbf" points="215,-0.5 215,-19.5 259,-19.5 259,-0.5 215,-0.5"/>
<text text-anchor="middle" x="237" y_="-7.5" font-family="Helvetica,sans-Serif" font-size="10.00">string</text>
</a>
</g>
</g>
<!-- Node9&#45;&gt;Node11 -->
<g id="edge13" class="edge">
<title>Node9&#45;&gt;Node11</title>
<path fill="none" stroke="midnightblue" d="M206.11,-56.08C211.28,-48.53 218.85,-37.49 225.19,-28.23"/>
<polygon fill="midnightblue" stroke="midnightblue" points="228.24,-29.98 231,-19.75 222.46,-26.02 228.24,-29.98"/>
</g>
<!-- Node12&#45;&gt;Node9 -->
<g id="edge17" class="edge">
<title>Node12&#45;&gt;Node9</title>
<path fill="none" stroke="midnightblue" d="M235.02,-168.37C228.86,-150.54 214.61,-109.3 206.31,-85.27"/>
<polygon fill="midnightblue" stroke="midnightblue" points="209.54,-83.9 202.97,-75.59 202.93,-86.19 209.54,-83.9"/>
</g>
<!-- Node13 -->
<g id="node13" class="node">
<title>Node13</title>
<g id="a_node13"><a xlink:title=" ">
<polygon fill="none" stroke="#bfbfbf" points="246,-56.5 246,-75.5 284,-75.5 284,-56.5 246,-56.5"/>
<text text-anchor="middle" x="265" y_="-63.5" font-family="Helvetica,sans-Serif" font-size="10.00">map</text>
</a>
</g>
</g>
<!-- Node12&#45;&gt;Node13 -->
<g id="edge15" class="edge">
<title>Node12&#45;&gt;Node13</title>
<path fill="none" stroke="midnightblue" d="M240.12,-168.37C244.48,-150.62 254.53,-109.67 260.44,-85.6"/>
<polygon fill="midnightblue" stroke="midnightblue" points="263.91,-86.14 262.89,-75.59 257.11,-84.47 263.91,-86.14"/>
</g>
<!-- Node14 -->
<g id="node14" class="node">
<title>Node14</title>
<g id="a_node14"><a xlink:title=" ">
<polygon fill="none" stroke="#bfbfbf" points="409.5,-56.5 409.5,-75.5 456.5,-75.5 456.5,-56.5 409.5,-56.5"/>
<text text-anchor="middle" x="433" y_="-63.5" font-family="Helvetica,sans-Serif" font-size="10.00">vector</text>
</a>
</g>
</g>
<!-- Node12&#45;&gt;Node14 -->
<g id="edge16" class="edge">
<title>Node12&#45;&gt;Node14</title>
<path fill="none" stroke="midnightblue" d="M287.05,-168.52C315.65,-161.9 351.41,-150.6 379,-132 397.56,-119.49 413.18,-98.8 422.77,-84.13"/>
<polygon fill="midnightblue" stroke="midnightblue" points="425.83,-85.83 428.17,-75.5 419.9,-82.12 425.83,-85.83"/>
</g>
<!-- Node15 -->
<g id="node15" class="node">
<title>Node15</title>
<g id="a_node15"><a xlink:href="_event_subscriber_8h.html" target="_top" xlink:title=" ">
<polygon fill="none" stroke="black" points="266,-112.5 266,-131.5 370,-131.5 370,-112.5 266,-112.5"/>
<text text-anchor="middle" x="318" y_="-119.5" font-family="Helvetica,sans-Serif" font-size="10.00">EventSubscriber.h</text>
</a>
</g>
</g>
<!-- Node12&#45;&gt;Node15 -->
<g id="edge18" class="edge">
<title>Node12&#45;&gt;Node15</title>
<path fill="none" stroke="midnightblue" d="M250.85,-168.32C263.22,-159.98 282.13,-147.21 296.74,-137.35"/>
<polygon fill="midnightblue" stroke="midnightblue" points="298.85,-140.15 305.18,-131.65 294.93,-134.35 298.85,-140.15"/>
</g>
<!-- Node15&#45;&gt;Node9 -->
<g id="edge22" class="edge">
<title>Node15&#45;&gt;Node9</title>
<path fill="none" stroke="midnightblue" d="M299.3,-112.44C280.06,-103.64 249.85,-89.81 227.8,-79.72"/>
<polygon fill="midnightblue" stroke="midnightblue" points="229.16,-76.5 218.61,-75.52 226.25,-82.86 229.16,-76.5"/>
</g>
<!-- Node15&#45;&gt;Node13 -->
<g id="edge19" class="edge">
<title>Node15&#45;&gt;Node13</title>
<path fill="none" stroke="midnightblue" d="M309.25,-112.08C301.53,-104.22 290.1,-92.57 280.78,-83.08"/>
<polygon fill="midnightblue" stroke="midnightblue" points="283.09,-80.44 273.59,-75.75 278.1,-85.34 283.09,-80.44"/>
</g>
<!-- Node15&#45;&gt;Node14 -->
<g id="edge20" class="edge">
<title>Node15&#45;&gt;Node14</title>
<path fill="none" stroke="midnightblue" d="M336.22,-112.44C354.9,-103.68 384.16,-89.94 405.62,-79.86"/>
<polygon fill="midnightblue" stroke="midnightblue" points="407.3,-82.93 414.86,-75.52 404.32,-76.6 407.3,-82.93"/>
</g>
<!-- Node16 -->
<g id="node16" class="node">
<title>Node16</title>
<g id="a_node16"><a xlink:title=" ">
<polygon fill="none" stroke="#bfbfbf" points="302,-56.5 302,-75.5 334,-75.5 334,-56.5 302,-56.5"/>
<text text-anchor="middle" x="318" y_="-63.5" font-family="Helvetica,sans-Serif" font-size="10.00">list</text>
</a>
</g>
</g>
<!-- Node15&#45;&gt;Node16 -->
<g id="edge21" class="edge">
<title>Node15&#45;&gt;Node16</title>
<path fill="none" stroke="midnightblue" d="M318,-112.08C318,-105.01 318,-94.86 318,-85.99"/>
<polygon fill="midnightblue" stroke="midnightblue" points="321.5,-85.75 318,-75.75 314.5,-85.75 321.5,-85.75"/>
</g>
<!-- Node17&#45;&gt;Node4 -->
<g id="edge24" class="edge">
<title>Node17&#45;&gt;Node4</title>
<path fill="none" stroke="midnightblue" d="M367.91,-358.43C367.61,-329.93 366.63,-237.82 366.2,-197.83"/>
<polygon fill="midnightblue" stroke="midnightblue" points="369.7,-197.58 366.09,-187.62 362.7,-197.65 369.7,-197.58"/>
</g>
<!-- Node17&#45;&gt;Node5 -->
<g id="edge25" class="edge">
<title>Node17&#45;&gt;Node5</title>
<path fill="none" stroke="midnightblue" d="M357.83,-358.48C346.65,-349.11 328.48,-333.88 314.91,-322.51"/>
<polygon fill="midnightblue" stroke="midnightblue" points="317.07,-319.75 307.15,-316.01 312.57,-325.11 317.07,-319.75"/>
</g>
<!-- Node18 -->
<g id="node18" class="node">
<title>Node18</title>
<g id="a_node18"><a xlink:href="_simple_subscriber_8h.html" target="_top" xlink:title=" ">
<polygon fill="none" stroke="black" points="432.5,-224.5 432.5,-254.5 545.5,-254.5 545.5,-224.5 432.5,-224.5"/>
<text text-anchor="start" x="440.5" y_="-242.5" font-family="Helvetica,sans-Serif" font-size="10.00">../../core&#45;lib/include</text>
<text text-anchor="middle" x="489" y_="-231.5" font-family="Helvetica,sans-Serif" font-size="10.00">/SimpleSubscriber.h</text>
</a>
</g>
</g>
<!-- Node17&#45;&gt;Node18 -->
<g id="edge26" class="edge">
<title>Node17&#45;&gt;Node18</title>
<path fill="none" stroke="midnightblue" d="M376.32,-358.31C395.06,-338.71 441.06,-290.62 468.14,-262.31"/>
<polygon fill="midnightblue" stroke="midnightblue" points="470.85,-264.53 475.24,-254.89 465.8,-259.7 470.85,-264.53"/>
</g>
<!-- Node18&#45;&gt;Node4 -->
<g id="edge28" class="edge">
<title>Node18&#45;&gt;Node4</title>
<path fill="none" stroke="midnightblue" d="M459.85,-224.4C439.58,-214.59 412.76,-201.62 392.98,-192.05"/>
<polygon fill="midnightblue" stroke="midnightblue" points="394.42,-188.86 383.9,-187.66 391.38,-195.16 394.42,-188.86"/>
</g>
<!-- Node18&#45;&gt;Node14 -->
<g id="edge27" class="edge">
<title>Node18&#45;&gt;Node14</title>
<path fill="none" stroke="midnightblue" d="M484.42,-224.47C474.33,-193.57 450.2,-119.69 438.96,-85.25"/>
<polygon fill="midnightblue" stroke="midnightblue" points="442.23,-83.98 435.8,-75.56 435.57,-86.15 442.23,-83.98"/>
</g>
<!-- Node19&#45;&gt;Node4 -->
<g id="edge30" class="edge">
<title>Node19&#45;&gt;Node4</title>
<path fill="none" stroke="midnightblue" d="M596.92,-291.32C590.87,-272.91 577.71,-241.1 555,-224 511.12,-190.97 446.6,-181.75 405.45,-179.42"/>
<polygon fill="midnightblue" stroke="midnightblue" points="405.41,-175.91 395.26,-178.95 405.09,-182.9 405.41,-175.91"/>
</g>
<!-- Node20 -->
<g id="node20" class="node">
<title>Node20</title>
<g id="a_node20"><a xlink:title=" ">
<polygon fill="none" stroke="#bfbfbf" points="602,-230 602,-249 652,-249 652,-230 602,-230"/>
<text text-anchor="middle" x="627" y_="-237" font-family="Helvetica,sans-Serif" font-size="10.00">chrono</text>
</a>
</g>
</g>
<!-- Node19&#45;&gt;Node20 -->
<g id="edge31" class="edge">
<title>Node19&#45;&gt;Node20</title>
<path fill="none" stroke="midnightblue" d="M606.64,-291.4C610.49,-281.76 615.63,-268.91 619.79,-258.54"/>
<polygon fill="midnightblue" stroke="midnightblue" points="623.06,-259.78 623.52,-249.19 616.56,-257.18 623.06,-259.78"/>
</g>
<!-- Node21 -->
<g id="node21" class="node">
<title>Node21</title>
<g id="a_node21"><a xlink:href="_simple_publisher_8h.html" target="_top" xlink:title=" ">
<polygon fill="none" stroke="black" points="670,-230 670,-249 774,-249 774,-230 670,-230"/>
<text text-anchor="middle" x="722" y_="-237" font-family="Helvetica,sans-Serif" font-size="10.00">SimplePublisher.h</text>
</a>
</g>
</g>
<!-- Node19&#45;&gt;Node21 -->
<g id="edge32" class="edge">
<title>Node19&#45;&gt;Node21</title>
<path fill="none" stroke="midnightblue" d="M627.26,-291.4C648.02,-280.24 676.8,-264.78 697.18,-253.83"/>
<polygon fill="midnightblue" stroke="midnightblue" points="699.01,-256.82 706.16,-249.01 695.7,-250.66 699.01,-256.82"/>
</g>
<!-- Node21&#45;&gt;Node4 -->
<g id="edge33" class="edge">
<title>Node21&#45;&gt;Node4</title>
<path fill="none" stroke="midnightblue" d="M688.23,-229.95C679.4,-227.86 669.87,-225.73 661,-224 569.8,-206.24 461.61,-191.28 404.99,-183.91"/>
<polygon fill="midnightblue" stroke="midnightblue" points="405.39,-180.43 395.03,-182.62 404.5,-187.38 405.39,-180.43"/>
</g>
<!-- Node21&#45;&gt;Node14 -->
<g id="edge34" class="edge">
<title>Node21&#45;&gt;Node14</title>
<path fill="none" stroke="midnightblue" d="M707.67,-230C661.06,-202.34 513.5,-114.77 456.13,-80.72"/>
<polygon fill="midnightblue" stroke="midnightblue" points="457.8,-77.65 447.42,-75.56 454.23,-83.67 457.8,-77.65"/>
</g>
<!-- Node22&#45;&gt;Node4 -->
<g id="edge37" class="edge">
<title>Node22&#45;&gt;Node4</title>
<path fill="none" stroke="midnightblue" d="M452.68,-414.31C449.21,-399.98 443.39,-377.25 437,-358 417.13,-298.13 387.98,-229.28 374.03,-197.21"/>
<polygon fill="midnightblue" stroke="midnightblue" points="377.13,-195.56 369.91,-187.81 370.72,-198.37 377.13,-195.56"/>
</g>
<!-- Node23 -->
<g id="node23" class="node">
<title>Node23</title>
<g id="a_node23"><a xlink:title=" ">
<polygon fill="none" stroke="#bfbfbf" points="484.5,-358.5 484.5,-377.5 531.5,-377.5 531.5,-358.5 484.5,-358.5"/>
<text text-anchor="middle" x="508" y_="-365.5" font-family="Helvetica,sans-Serif" font-size="10.00">queue</text>
</a>
</g>
</g>
<!-- Node22&#45;&gt;Node23 -->
<g id="edge36" class="edge">
<title>Node22&#45;&gt;Node23</title>
<path fill="none" stroke="midnightblue" d="M468.32,-414.4C475.96,-405.66 485.79,-394.41 493.76,-385.3"/>
<polygon fill="midnightblue" stroke="midnightblue" points="496.49,-387.49 500.43,-377.66 491.22,-382.88 496.49,-387.49"/>
</g>
</g>
</svg>
