<?xml version="1.0" encoding="UTF-8" standalone="no"?>
<!DOCTYPE svg PUBLIC "-//W3C//DTD SVG 1.1//EN"
 "http://www.w3.org/Graphics/SVG/1.1/DTD/svg11.dtd">
<!-- Generated by graphviz version 2.50.0 (0)
 -->
<!-- Title: /home/tomek/trash/battle&#45;city/src/lib/graphic&#45;lib/include/ActiveState_dir/Frame_dir/GameInfoGraphic.h Pages: 1 -->
<!--zoomable 855 -->
<svg id="main" version="1.1" xmlns="http://www.w3.org/2000/svg" xmlns:xlink="http://www.w3.org/1999/xlink" xml:space="preserve" onload="init(evt)">
<style type="text/css"><![CDATA[
.edge:hover path { stroke: red; }
.edge:hover polygon { stroke: red; fill: red; }
]]></style>
<script type="text/javascript"><![CDATA[
var edges = document.getElementsByTagName('g');
if (edges && edges.length) {
  for (var i=0;i<edges.length;i++) {
    if (edges[i].id.substr(0,4)=='edge') {
      edges[i].setAttribute('class','edge');
    }
  }
}
]]></script>
        <defs>
                <circle id="rim" cx="0" cy="0" r="7"/>
                <circle id="rim2" cx="0" cy="0" r="3.5"/>
                <g id="zoomPlus">
                        <use xlink:href="#rim" fill="#404040">
                                <set attributeName="fill" to="#808080" begin="zoomplus.mouseover" end="zoomplus.mouseout"/>
                        </use>
                        <path d="M-4,0h8M0,-4v8" fill="none" stroke="white" stroke-width="1.5" pointer-events="none"/>
                </g>
                <g id="zoomMin">
                        <use xlink:href="#rim" fill="#404040">
                                <set attributeName="fill" to="#808080" begin="zoomminus.mouseover" end="zoomminus.mouseout"/>
                        </use>
                        <path d="M-4,0h8" fill="none" stroke="white" stroke-width="1.5" pointer-events="none"/>
                </g>
                <g id="dirArrow">
                        <path fill="none" stroke="white" stroke-width="1.5" d="M0,-3.0v7 M-2.5,-0.5L0,-3.0L2.5,-0.5"/>
                </g>
               <g id="resetDef">
                       <use xlink:href="#rim2" fill="#404040">
                               <set attributeName="fill" to="#808080" begin="reset.mouseover" end="reset.mouseout"/>
                       </use>
               </g>
        </defs>

<script type="text/javascript">
var viewWidth = 1341;
var viewHeight = 855;
var sectionId = 'dynsection-0';
</script>
<script xlink:href="svgpan.js"/>
<svg id="graph" class="graph">
<g id="viewport">
<title>/home/tomek/trash/battle&#45;city/src/lib/graphic&#45;lib/include/ActiveState_dir/Frame_dir/GameInfoGraphic.h</title>
<!-- Node1 -->
<g id="node1" class="node">
<title>Node1</title>
<g id="a_node1"><a xlink:title=" ">
<polygon fill="#bfbfbf" stroke="black" points="1014,-794.5 1014,-846.5 1180,-846.5 1180,-794.5 1014,-794.5"/>
<text text-anchor="start" x="1022" y="-834.5" font-family="Helvetica,sans-Serif" font-size="10.00">/home/tomek/trash/battle</text>
<text text-anchor="start" x="1022" y="-823.5" font-family="Helvetica,sans-Serif" font-size="10.00">&#45;city/src/lib/graphic&#45;lib</text>
<text text-anchor="start" x="1022" y="-812.5" font-family="Helvetica,sans-Serif" font-size="10.00">/include/ActiveState_dir</text>
<text text-anchor="middle" x="1097" y="-801.5" font-family="Helvetica,sans-Serif" font-size="10.00">/Frame_dir/GameInfoGraphic.h</text>
</a>
</g>
</g>
<!-- Node2 -->
<g id="node2" class="node">
<title>Node2</title>
<g id="a_node2"><a xlink:href="_abstract_window_8h.html" target="_top" xlink:title=" ">
<polygon fill="none" stroke="black" points="1086,-263 1086,-282 1208,-282 1208,-263 1086,-263"/>
<text text-anchor="middle" x="1147" y="-270" font-family="Helvetica,sans-Serif" font-size="10.00">../../AbstractWindow.h</text>
</a>
</g>
</g>
<!-- Node1&#45;&gt;Node2 -->
<g id="edge1" class="edge">
<title>Node1&#45;&gt;Node2</title>
<path fill="none" stroke="midnightblue" d="M1112.06,-794.31C1125.48,-769.46 1143,-729.92 1143,-693 1143,-693 1143,-693 1143,-389 1143,-354.84 1144.77,-315.04 1145.95,-292.2"/>
<polygon fill="midnightblue" stroke="midnightblue" points="1149.45,-292.36 1146.49,-282.19 1142.46,-291.99 1149.45,-292.36"/>
</g>
<!-- Node8 -->
<g id="node8" class="node">
<title>Node8</title>
<g id="a_node8"><a xlink:href="_frame_graphic_8h.html" target="_top" xlink:title=" ">
<polygon fill="none" stroke="black" points="1013,-738.5 1013,-757.5 1107,-757.5 1107,-738.5 1013,-738.5"/>
<text text-anchor="middle" x="1060" y="-745.5" font-family="Helvetica,sans-Serif" font-size="10.00">FrameGraphic.h</text>
</a>
</g>
</g>
<!-- Node1&#45;&gt;Node8 -->
<g id="edge7" class="edge">
<title>Node1&#45;&gt;Node8</title>
<path fill="none" stroke="midnightblue" d="M1083.85,-794.45C1079.01,-785.23 1073.64,-775 1069.22,-766.58"/>
<polygon fill="midnightblue" stroke="midnightblue" points="1072.31,-764.92 1064.56,-757.7 1066.11,-768.18 1072.31,-764.92"/>
</g>
<!-- Node3 -->
<g id="node3" class="node">
<title>Node3</title>
<g id="a_node3"><a xlink:title=" ">
<polygon fill="none" stroke="#bfbfbf" points="1214,-196 1214,-215 1318,-215 1318,-196 1214,-196"/>
<text text-anchor="middle" x="1266" y="-203" font-family="Helvetica,sans-Serif" font-size="10.00">SFML/System.hpp</text>
</a>
</g>
</g>
<!-- Node2&#45;&gt;Node3 -->
<g id="edge2" class="edge">
<title>Node2&#45;&gt;Node3</title>
<path fill="none" stroke="midnightblue" d="M1163.05,-262.73C1183.12,-251.77 1217.7,-232.88 1241.19,-220.05"/>
<polygon fill="midnightblue" stroke="midnightblue" points="1243.11,-222.99 1250.21,-215.13 1239.75,-216.85 1243.11,-222.99"/>
</g>
<!-- Node4 -->
<g id="node4" class="node">
<title>Node4</title>
<g id="a_node4"><a xlink:title=" ">
<polygon fill="none" stroke="#bfbfbf" points="1086,-196 1086,-215 1196,-215 1196,-196 1086,-196"/>
<text text-anchor="middle" x="1141" y="-203" font-family="Helvetica,sans-Serif" font-size="10.00">SFML/Graphics.hpp</text>
</a>
</g>
</g>
<!-- Node2&#45;&gt;Node4 -->
<g id="edge3" class="edge">
<title>Node2&#45;&gt;Node4</title>
<path fill="none" stroke="midnightblue" d="M1146.19,-262.73C1145.31,-253.18 1143.87,-237.62 1142.73,-225.28"/>
<polygon fill="midnightblue" stroke="midnightblue" points="1146.2,-224.76 1141.8,-215.13 1139.23,-225.41 1146.2,-224.76"/>
</g>
<!-- Node5 -->
<g id="node5" class="node">
<title>Node5</title>
<g id="a_node5"><a xlink:title=" ">
<polygon fill="none" stroke="#bfbfbf" points="856,-196 856,-215 916,-215 916,-196 856,-196"/>
<text text-anchor="middle" x="886" y="-203" font-family="Helvetica,sans-Serif" font-size="10.00">iostream</text>
</a>
</g>
</g>
<!-- Node2&#45;&gt;Node5 -->
<g id="edge4" class="edge">
<title>Node2&#45;&gt;Node5</title>
<path fill="none" stroke="midnightblue" d="M1105.12,-262.92C1061.21,-253.65 990.33,-237.92 930,-221 926.82,-220.11 923.54,-219.13 920.26,-218.12"/>
<polygon fill="midnightblue" stroke="midnightblue" points="921.14,-214.73 910.55,-215.02 919.01,-221.4 921.14,-214.73"/>
</g>
<!-- Node6 -->
<g id="node6" class="node">
<title>Node6</title>
<g id="a_node6"><a xlink:title=" ">
<polygon fill="none" stroke="#bfbfbf" points="142.5,-0.5 142.5,-19.5 189.5,-19.5 189.5,-0.5 142.5,-0.5"/>
<text text-anchor="middle" x="166" y="-7.5" font-family="Helvetica,sans-Serif" font-size="10.00">vector</text>
</a>
</g>
</g>
<!-- Node2&#45;&gt;Node6 -->
<g id="edge5" class="edge">
<title>Node2&#45;&gt;Node6</title>
<path fill="none" stroke="midnightblue" d="M1124.04,-262.91C1083.8,-247.9 997.89,-216 925,-190 753.56,-128.86 715.36,-96.94 538,-56 415.51,-27.73 265.98,-16.5 200.02,-12.69"/>
<polygon fill="midnightblue" stroke="midnightblue" points="199.98,-9.18 189.8,-12.12 199.59,-16.17 199.98,-9.18"/>
</g>
<!-- Node7 -->
<g id="node7" class="node">
<title>Node7</title>
<g id="a_node7"><a xlink:title=" ">
<polygon fill="none" stroke="#bfbfbf" points="761,-0.5 761,-19.5 819,-19.5 819,-0.5 761,-0.5"/>
<text text-anchor="middle" x="790" y="-7.5" font-family="Helvetica,sans-Serif" font-size="10.00">memory</text>
</a>
</g>
</g>
<!-- Node2&#45;&gt;Node7 -->
<g id="edge6" class="edge">
<title>Node2&#45;&gt;Node7</title>
<path fill="none" stroke="midnightblue" d="M1208.17,-266.54C1271.26,-258.72 1356.58,-238.96 1327,-190 1260.79,-80.42 1193.49,-96.4 1072,-56 988.25,-28.15 884.6,-17.27 829.24,-13.23"/>
<polygon fill="midnightblue" stroke="midnightblue" points="829.37,-9.73 819.15,-12.53 828.89,-16.71 829.37,-9.73"/>
</g>
<!-- Node9 -->
<g id="node9" class="node">
<title>Node9</title>
<g id="a_node9"><a xlink:href="_active_state_graphic_8h.html" target="_top" xlink:title=" ">
<polygon fill="none" stroke="black" points="603,-682.5 603,-701.5 731,-701.5 731,-682.5 603,-682.5"/>
<text text-anchor="middle" x="667" y="-689.5" font-family="Helvetica,sans-Serif" font-size="10.00">../ActiveStateGraphic.h</text>
</a>
</g>
</g>
<!-- Node8&#45;&gt;Node9 -->
<g id="edge8" class="edge">
<title>Node8&#45;&gt;Node9</title>
<path fill="none" stroke="midnightblue" d="M1012.99,-740.54C944.99,-731.2 818.64,-713.84 738.9,-702.88"/>
<polygon fill="midnightblue" stroke="midnightblue" points="739.31,-699.4 728.93,-701.51 738.36,-706.34 739.31,-699.4"/>
</g>
<!-- Node10 -->
<g id="node10" class="node">
<title>Node10</title>
<g id="a_node10"><a xlink:href="_window_8h.html" target="_top" xlink:title=" ">
<polygon fill="none" stroke="black" points="246.5,-626.5 246.5,-645.5 319.5,-645.5 319.5,-626.5 246.5,-626.5"/>
<text text-anchor="middle" x="283" y="-633.5" font-family="Helvetica,sans-Serif" font-size="10.00">../Window.h</text>
</a>
</g>
</g>
<!-- Node9&#45;&gt;Node10 -->
<g id="edge9" class="edge">
<title>Node9&#45;&gt;Node10</title>
<path fill="none" stroke="midnightblue" d="M606.15,-682.44C529.41,-671.65 399.13,-653.33 329.74,-643.57"/>
<polygon fill="midnightblue" stroke="midnightblue" points="329.95,-640.07 319.56,-642.14 328.97,-647 329.95,-640.07"/>
</g>
<!-- Node10&#45;&gt;Node2 -->
<g id="edge10" class="edge">
<title>Node10&#45;&gt;Node2</title>
<path fill="none" stroke="midnightblue" d="M319.51,-633.52C478.45,-626.58 1102,-594.26 1102,-514 1102,-514 1102,-514 1102,-389 1102,-351.88 1122.43,-312.35 1135.76,-290.51"/>
<polygon fill="midnightblue" stroke="midnightblue" points="1138.73,-292.36 1141.12,-282.04 1132.81,-288.62 1138.73,-292.36"/>
</g>
<!-- Node11 -->
<g id="node11" class="node">
<title>Node11</title>
<g id="a_node11"><a xlink:title=" ">
<polygon fill="none" stroke="#bfbfbf" points="104.5,-565 104.5,-584 197.5,-584 197.5,-565 104.5,-565"/>
<text text-anchor="middle" x="151" y="-572" font-family="Helvetica,sans-Serif" font-size="10.00">unordered_map</text>
</a>
</g>
</g>
<!-- Node10&#45;&gt;Node11 -->
<g id="edge11" class="edge">
<title>Node10&#45;&gt;Node11</title>
<path fill="none" stroke="midnightblue" d="M264.09,-626.48C241.84,-616.45 204.69,-599.7 179.07,-588.15"/>
<polygon fill="midnightblue" stroke="midnightblue" points="180.43,-584.93 169.88,-584.01 177.56,-591.31 180.43,-584.93"/>
</g>
<!-- Node12 -->
<g id="node12" class="node">
<title>Node12</title>
<g id="a_node12"><a xlink:href="_entity_8h.html" target="_top" xlink:title=" ">
<polygon fill="none" stroke="black" points="280,-56.5 280,-86.5 390,-86.5 390,-56.5 280,-56.5"/>
<text text-anchor="start" x="288" y="-74.5" font-family="Helvetica,sans-Serif" font-size="10.00">../../tank&#45;lib/include</text>
<text text-anchor="middle" x="335" y="-63.5" font-family="Helvetica,sans-Serif" font-size="10.00">/Entity.h</text>
</a>
</g>
</g>
<!-- Node10&#45;&gt;Node12 -->
<g id="edge12" class="edge">
<title>Node10&#45;&gt;Node12</title>
<path fill="none" stroke="midnightblue" d="M246.37,-630.76C197.9,-624.41 116.11,-610.9 95,-590 70.26,-565.5 76,-548.82 76,-514 76,-514 76,-514 76,-271.5 76,-227.3 96.72,-215.24 133,-190 185.03,-153.8 217.98,-188.74 271,-154 293.53,-139.24 311.59,-113.87 322.71,-95.35"/>
<polygon fill="midnightblue" stroke="midnightblue" points="325.78,-97.04 327.74,-86.63 319.71,-93.54 325.78,-97.04"/>
</g>
<!-- Node13 -->
<g id="node13" class="node">
<title>Node13</title>
<g id="a_node13"><a xlink:href="_grid_8h.html" target="_top" xlink:title=" ">
<polygon fill="none" stroke="black" points="158,-257.5 158,-287.5 274,-287.5 274,-257.5 158,-257.5"/>
<text text-anchor="start" x="166" y="-275.5" font-family="Helvetica,sans-Serif" font-size="10.00">../../board&#45;lib/include</text>
<text text-anchor="middle" x="216" y="-264.5" font-family="Helvetica,sans-Serif" font-size="10.00">/Grid.h</text>
</a>
</g>
</g>
<!-- Node10&#45;&gt;Node13 -->
<g id="edge13" class="edge">
<title>Node10&#45;&gt;Node13</title>
<path fill="none" stroke="midnightblue" d="M275.24,-626.27C267.87,-617.59 256.92,-603.65 250,-590 233.98,-558.41 226,-549.42 226,-514 226,-514 226,-514 226,-389 226,-357.38 222.23,-321.06 219.32,-297.73"/>
<polygon fill="midnightblue" stroke="midnightblue" points="222.78,-297.16 218.02,-287.69 215.84,-298.06 222.78,-297.16"/>
</g>
<!-- Node16 -->
<g id="node16" class="node">
<title>Node16</title>
<g id="a_node16"><a xlink:href="_tank_8h.html" target="_top" xlink:title=" ">
<polygon fill="none" stroke="black" points="368,-190.5 368,-220.5 478,-220.5 478,-190.5 368,-190.5"/>
<text text-anchor="start" x="376" y="-208.5" font-family="Helvetica,sans-Serif" font-size="10.00">../../tank&#45;lib/include</text>
<text text-anchor="middle" x="423" y="-197.5" font-family="Helvetica,sans-Serif" font-size="10.00">/Tank.h</text>
</a>
</g>
</g>
<!-- Node10&#45;&gt;Node16 -->
<g id="edge27" class="edge">
<title>Node10&#45;&gt;Node16</title>
<path fill="none" stroke="midnightblue" d="M285.33,-626.27C290.4,-606.46 302,-556.53 302,-514 302,-514 302,-514 302,-333 302,-298.18 299.16,-284.12 321,-257 332.4,-242.85 348.77,-232.35 365.07,-224.7"/>
<polygon fill="midnightblue" stroke="midnightblue" points="366.86,-227.74 374.62,-220.52 364.05,-221.33 366.86,-227.74"/>
</g>
<!-- Node20 -->
<g id="node20" class="node">
<title>Node20</title>
<g id="a_node20"><a xlink:href="_bullet_8h.html" target="_top" xlink:title=" ">
<polygon fill="none" stroke="black" points="152,-123.5 152,-153.5 262,-153.5 262,-123.5 152,-123.5"/>
<text text-anchor="start" x="160" y="-141.5" font-family="Helvetica,sans-Serif" font-size="10.00">../../tank&#45;lib/include</text>
<text text-anchor="middle" x="207" y="-130.5" font-family="Helvetica,sans-Serif" font-size="10.00">/Bullet.h</text>
</a>
</g>
</g>
<!-- Node10&#45;&gt;Node20 -->
<g id="edge28" class="edge">
<title>Node10&#45;&gt;Node20</title>
<path fill="none" stroke="midnightblue" d="M280.67,-626.27C275.6,-606.46 264,-556.53 264,-514 264,-514 264,-514 264,-450.5 264,-362.02 185.49,-368.6 149,-288 136.37,-260.11 136.58,-251.41 133,-221 131.39,-207.32 126.56,-202.18 133,-190 139.9,-176.94 151.86,-166.62 164.18,-158.81"/>
<polygon fill="midnightblue" stroke="midnightblue" points="166.29,-161.63 173.15,-153.56 162.75,-155.59 166.29,-161.63"/>
</g>
<!-- Node22 -->
<g id="node22" class="node">
<title>Node22</title>
<g id="a_node22"><a xlink:href="_game_state_8h.html" target="_top" xlink:title=" ">
<polygon fill="none" stroke="black" points="699,-559.5 699,-589.5 815,-589.5 815,-559.5 699,-559.5"/>
<text text-anchor="start" x="707" y="-577.5" font-family="Helvetica,sans-Serif" font-size="10.00">../../game&#45;lib/include</text>
<text text-anchor="middle" x="757" y="-566.5" font-family="Helvetica,sans-Serif" font-size="10.00">/GameState.h</text>
</a>
</g>
</g>
<!-- Node10&#45;&gt;Node22 -->
<g id="edge33" class="edge">
<title>Node10&#45;&gt;Node22</title>
<path fill="none" stroke="midnightblue" d="M319.8,-630.38C399.08,-620.43 587.05,-596.83 688.78,-584.06"/>
<polygon fill="midnightblue" stroke="midnightblue" points="689.46,-587.51 698.95,-582.79 688.59,-580.56 689.46,-587.51"/>
</g>
<!-- Node13&#45;&gt;Node6 -->
<g id="edge15" class="edge">
<title>Node13&#45;&gt;Node6</title>
<path fill="none" stroke="midnightblue" d="M181.77,-257.45C165.03,-249.05 145.79,-236.9 133,-221 113.27,-196.47 115.18,-185.05 110,-154 102.83,-111.04 91.17,-95.28 110,-56 116.25,-42.95 128.34,-32.49 139.68,-24.95"/>
<polygon fill="midnightblue" stroke="midnightblue" points="141.81,-27.75 148.5,-19.54 138.15,-21.79 141.81,-27.75"/>
</g>
<!-- Node14 -->
<g id="node14" class="node">
<title>Node14</title>
<g id="a_node14"><a xlink:title=" ">
<polygon fill="none" stroke="#bfbfbf" points="246.5,-196 246.5,-215 311.5,-215 311.5,-196 246.5,-196"/>
<text text-anchor="middle" x="279" y="-203" font-family="Helvetica,sans-Serif" font-size="10.00">exception</text>
</a>
</g>
</g>
<!-- Node13&#45;&gt;Node14 -->
<g id="edge14" class="edge">
<title>Node13&#45;&gt;Node14</title>
<path fill="none" stroke="midnightblue" d="M229.67,-257.4C239.59,-247.16 253.03,-233.3 263.37,-222.62"/>
<polygon fill="midnightblue" stroke="midnightblue" points="266.13,-224.81 270.57,-215.19 261.1,-219.94 266.13,-224.81"/>
</g>
<!-- Node15 -->
<g id="node15" class="node">
<title>Node15</title>
<g id="a_node15"><a xlink:title=" ">
<polygon fill="none" stroke="#bfbfbf" points="142.5,-196 142.5,-215 189.5,-215 189.5,-196 142.5,-196"/>
<text text-anchor="middle" x="166" y="-203" font-family="Helvetica,sans-Serif" font-size="10.00">queue</text>
</a>
</g>
</g>
<!-- Node13&#45;&gt;Node15 -->
<g id="edge16" class="edge">
<title>Node13&#45;&gt;Node15</title>
<path fill="none" stroke="midnightblue" d="M205.15,-257.4C197.43,-247.36 187.03,-233.84 178.89,-223.25"/>
<polygon fill="midnightblue" stroke="midnightblue" points="181.56,-220.99 172.69,-215.19 176.01,-225.25 181.56,-220.99"/>
</g>
<!-- Node13&#45;&gt;Node16 -->
<g id="edge17" class="edge">
<title>Node13&#45;&gt;Node16</title>
<path fill="none" stroke="midnightblue" d="M260.66,-257.48C292.25,-247.56 334.78,-234.2 368.39,-223.65"/>
<polygon fill="midnightblue" stroke="midnightblue" points="369.57,-226.95 378.06,-220.61 367.47,-220.27 369.57,-226.95"/>
</g>
<!-- Node16&#45;&gt;Node7 -->
<g id="edge18" class="edge">
<title>Node16&#45;&gt;Node7</title>
<path fill="none" stroke="midnightblue" d="M453.82,-190.38C473.91,-180.82 500.49,-167.52 523,-154 587.8,-115.08 594.82,-90.64 662,-56 690.56,-41.28 725.02,-29.47 750.99,-21.65"/>
<polygon fill="midnightblue" stroke="midnightblue" points="752.24,-24.93 760.85,-18.75 750.26,-18.21 752.24,-24.93"/>
</g>
<!-- Node16&#45;&gt;Node12 -->
<g id="edge23" class="edge">
<title>Node16&#45;&gt;Node12</title>
<path fill="none" stroke="midnightblue" d="M411.65,-190.18C403.9,-180.21 393.52,-166.52 385,-154 371.88,-134.73 358.11,-112.07 348.35,-95.55"/>
<polygon fill="midnightblue" stroke="midnightblue" points="351.18,-93.45 343.1,-86.6 345.14,-96.99 351.18,-93.45"/>
</g>
<!-- Node17 -->
<g id="node17" class="node">
<title>Node17</title>
<g id="a_node17"><a xlink:title=" ">
<polygon fill="none" stroke="#bfbfbf" points="592,-129 592,-148 648,-148 648,-129 592,-129"/>
<text text-anchor="middle" x="620" y="-136" font-family="Helvetica,sans-Serif" font-size="10.00">optional</text>
</a>
</g>
</g>
<!-- Node16&#45;&gt;Node17 -->
<g id="edge19" class="edge">
<title>Node16&#45;&gt;Node17</title>
<path fill="none" stroke="midnightblue" d="M466.83,-190.45C497.91,-180.43 540.57,-166.56 578,-154 580.58,-153.13 583.26,-152.23 585.94,-151.31"/>
<polygon fill="midnightblue" stroke="midnightblue" points="587.27,-154.56 595.59,-148.01 585,-147.94 587.27,-154.56"/>
</g>
<!-- Node18 -->
<g id="node18" class="node">
<title>Node18</title>
<g id="a_node18"><a xlink:href="_simple_subscriber_8h.html" target="_top" xlink:title=" ">
<polygon fill="none" stroke="black" points="415.5,-56.5 415.5,-86.5 528.5,-86.5 528.5,-56.5 415.5,-56.5"/>
<text text-anchor="start" x="423.5" y="-74.5" font-family="Helvetica,sans-Serif" font-size="10.00">../../core&#45;lib/include</text>
<text text-anchor="middle" x="472" y="-63.5" font-family="Helvetica,sans-Serif" font-size="10.00">/SimpleSubscriber.h</text>
</a>
</g>
</g>
<!-- Node16&#45;&gt;Node18 -->
<g id="edge20" class="edge">
<title>Node16&#45;&gt;Node18</title>
<path fill="none" stroke="midnightblue" d="M463.49,-190.5C480.06,-182.54 497.53,-170.74 507,-154 517.85,-134.82 505.64,-111.63 492.76,-94.89"/>
<polygon fill="midnightblue" stroke="midnightblue" points="495.14,-92.28 486.08,-86.79 489.74,-96.73 495.14,-92.28"/>
</g>
<!-- Node19 -->
<g id="node19" class="node">
<title>Node19</title>
<g id="a_node19"><a xlink:href="_bot_8h.html" target="_top" xlink:title=" ">
<polygon fill="none" stroke="black" points="394,-123.5 394,-153.5 498,-153.5 498,-123.5 394,-123.5"/>
<text text-anchor="start" x="402" y="-141.5" font-family="Helvetica,sans-Serif" font-size="10.00">../../bot&#45;lib/include</text>
<text text-anchor="middle" x="446" y="-130.5" font-family="Helvetica,sans-Serif" font-size="10.00">/Bot.h</text>
</a>
</g>
</g>
<!-- Node16&#45;&gt;Node19 -->
<g id="edge24" class="edge">
<title>Node16&#45;&gt;Node19</title>
<path fill="none" stroke="midnightblue" d="M427.99,-190.4C430.79,-182.47 434.37,-172.38 437.59,-163.27"/>
<polygon fill="midnightblue" stroke="midnightblue" points="440.98,-164.17 441.02,-153.58 434.38,-161.84 440.98,-164.17"/>
</g>
<!-- Node18&#45;&gt;Node6 -->
<g id="edge21" class="edge">
<title>Node18&#45;&gt;Node6</title>
<path fill="none" stroke="midnightblue" d="M415.41,-59.23C409.87,-58.13 404.33,-57.04 399,-56 328.11,-42.11 245.02,-26.14 199.7,-17.45"/>
<polygon fill="midnightblue" stroke="midnightblue" points="200.3,-14 189.82,-15.56 198.99,-20.88 200.3,-14"/>
</g>
<!-- Node18&#45;&gt;Node7 -->
<g id="edge22" class="edge">
<title>Node18&#45;&gt;Node7</title>
<path fill="none" stroke="midnightblue" d="M528.85,-59.86C592.8,-47.9 694.96,-28.78 750.66,-18.36"/>
<polygon fill="midnightblue" stroke="midnightblue" points="751.64,-21.74 760.83,-16.46 750.36,-14.86 751.64,-21.74"/>
</g>
<!-- Node19&#45;&gt;Node12 -->
<g id="edge25" class="edge">
<title>Node19&#45;&gt;Node12</title>
<path fill="none" stroke="midnightblue" d="M421.91,-123.4C406.06,-114.11 385.11,-101.84 367.74,-91.67"/>
<polygon fill="midnightblue" stroke="midnightblue" points="369.44,-88.61 359.04,-86.58 365.9,-94.65 369.44,-88.61"/>
</g>
<!-- Node19&#45;&gt;Node18 -->
<g id="edge26" class="edge">
<title>Node19&#45;&gt;Node18</title>
<path fill="none" stroke="midnightblue" d="M451.64,-123.4C454.84,-115.39 458.94,-105.16 462.61,-95.98"/>
<polygon fill="midnightblue" stroke="midnightblue" points="465.91,-97.16 466.37,-86.58 459.41,-94.56 465.91,-97.16"/>
</g>
<!-- Node20&#45;&gt;Node12 -->
<g id="edge32" class="edge">
<title>Node20&#45;&gt;Node12</title>
<path fill="none" stroke="midnightblue" d="M234.77,-123.4C253.39,-113.94 278.11,-101.39 298.34,-91.12"/>
<polygon fill="midnightblue" stroke="midnightblue" points="299.95,-94.23 307.28,-86.58 296.78,-87.98 299.95,-94.23"/>
</g>
<!-- Node21 -->
<g id="node21" class="node">
<title>Node21</title>
<g id="a_node21"><a xlink:href="_simple_publisher_8h.html" target="_top" xlink:title=" ">
<polygon fill="none" stroke="black" points="152,-56.5 152,-86.5 262,-86.5 262,-56.5 152,-56.5"/>
<text text-anchor="start" x="160" y="-74.5" font-family="Helvetica,sans-Serif" font-size="10.00">../../core&#45;lib/include</text>
<text text-anchor="middle" x="207" y="-63.5" font-family="Helvetica,sans-Serif" font-size="10.00">/SimplePublisher.h</text>
</a>
</g>
</g>
<!-- Node20&#45;&gt;Node21 -->
<g id="edge29" class="edge">
<title>Node20&#45;&gt;Node21</title>
<path fill="none" stroke="midnightblue" d="M207,-123.4C207,-115.64 207,-105.81 207,-96.86"/>
<polygon fill="midnightblue" stroke="midnightblue" points="210.5,-96.58 207,-86.58 203.5,-96.58 210.5,-96.58"/>
</g>
<!-- Node21&#45;&gt;Node6 -->
<g id="edge31" class="edge">
<title>Node21&#45;&gt;Node6</title>
<path fill="none" stroke="midnightblue" d="M197.28,-56.4C191.45,-47.93 183.98,-37.1 177.81,-28.14"/>
<polygon fill="midnightblue" stroke="midnightblue" points="180.52,-25.91 171.97,-19.66 174.76,-29.88 180.52,-25.91"/>
</g>
<!-- Node21&#45;&gt;Node7 -->
<g id="edge30" class="edge">
<title>Node21&#45;&gt;Node7</title>
<path fill="none" stroke="midnightblue" d="M262.07,-57.52C265.08,-56.97 268.07,-56.46 271,-56 448.79,-28.28 663.7,-16.47 750.65,-12.58"/>
<polygon fill="midnightblue" stroke="midnightblue" points="751.02,-16.07 760.85,-12.13 750.71,-9.07 751.02,-16.07"/>
</g>
<!-- Node22&#45;&gt;Node7 -->
<g id="edge34" class="edge">
<title>Node22&#45;&gt;Node7</title>
<path fill="none" stroke="midnightblue" d="M815.04,-566.46C892.73,-556.53 1022.69,-537.96 1039,-523 1062.91,-501.06 1058,-484.95 1058,-452.5 1058,-452.5 1058,-452.5 1058,-137.5 1058,-37.71 904.15,-16.51 829.59,-12.1"/>
<polygon fill="midnightblue" stroke="midnightblue" points="829.36,-8.59 819.19,-11.57 829,-15.58 829.36,-8.59"/>
</g>
<!-- Node23 -->
<g id="node23" class="node">
<title>Node23</title>
<g id="a_node23"><a xlink:href="_active_event_handler_8h.html" target="_top" xlink:title=" ">
<polygon fill="none" stroke="black" points="485,-503.5 485,-522.5 607,-522.5 607,-503.5 485,-503.5"/>
<text text-anchor="middle" x="546" y="-510.5" font-family="Helvetica,sans-Serif" font-size="10.00">ActiveEventHandler.h</text>
</a>
</g>
</g>
<!-- Node22&#45;&gt;Node23 -->
<g id="edge35" class="edge">
<title>Node22&#45;&gt;Node23</title>
<path fill="none" stroke="midnightblue" d="M707.26,-559.47C670.23,-549.03 620.32,-534.96 585.88,-525.25"/>
<polygon fill="midnightblue" stroke="midnightblue" points="586.74,-521.85 576.17,-522.51 584.84,-528.59 586.74,-521.85"/>
</g>
<!-- Node34 -->
<g id="node34" class="node">
<title>Node34</title>
<g id="a_node34"><a xlink:href="_menu_event_handler_8h.html" target="_top" xlink:title=" ">
<polygon fill="none" stroke="black" points="912,-503.5 912,-522.5 1030,-522.5 1030,-503.5 912,-503.5"/>
<text text-anchor="middle" x="971" y="-510.5" font-family="Helvetica,sans-Serif" font-size="10.00">MenuEventHandler.h</text>
</a>
</g>
</g>
<!-- Node22&#45;&gt;Node34 -->
<g id="edge64" class="edge">
<title>Node22&#45;&gt;Node34</title>
<path fill="none" stroke="midnightblue" d="M801.61,-559.47C837.98,-548.99 889.01,-534.84 925.6,-525.12"/>
<polygon fill="midnightblue" stroke="midnightblue" points="926.73,-528.44 935.51,-522.51 924.95,-521.67 926.73,-528.44"/>
</g>
<!-- Node35 -->
<g id="node35" class="node">
<title>Node35</title>
<g id="a_node35"><a xlink:href="_pause_event_handler_8h.html" target="_top" xlink:title=" ">
<polygon fill="none" stroke="black" points="625.5,-503.5 625.5,-522.5 744.5,-522.5 744.5,-503.5 625.5,-503.5"/>
<text text-anchor="middle" x="685" y="-510.5" font-family="Helvetica,sans-Serif" font-size="10.00">PauseEventHandler.h</text>
</a>
</g>
</g>
<!-- Node22&#45;&gt;Node35 -->
<g id="edge68" class="edge">
<title>Node22&#45;&gt;Node35</title>
<path fill="none" stroke="midnightblue" d="M734.1,-559.4C722.17,-550.49 708.14,-538.95 698.01,-529.74"/>
<polygon fill="midnightblue" stroke="midnightblue" points="700.21,-527 690.55,-522.66 695.39,-532.08 700.21,-527"/>
</g>
<!-- Node36 -->
<g id="node36" class="node">
<title>Node36</title>
<g id="a_node36"><a xlink:href="_finished_event_handler_8h.html" target="_top" xlink:title=" ">
<polygon fill="none" stroke="black" points="762.5,-503.5 762.5,-522.5 893.5,-522.5 893.5,-503.5 762.5,-503.5"/>
<text text-anchor="middle" x="828" y="-510.5" font-family="Helvetica,sans-Serif" font-size="10.00">FinishedEventHandler.h</text>
</a>
</g>
</g>
<!-- Node22&#45;&gt;Node36 -->
<g id="edge72" class="edge">
<title>Node22&#45;&gt;Node36</title>
<path fill="none" stroke="midnightblue" d="M773.83,-559.4C784.67,-550.31 798.78,-538.49 809.87,-529.19"/>
<polygon fill="midnightblue" stroke="midnightblue" points="812.25,-531.76 817.67,-522.66 807.76,-526.4 812.25,-531.76"/>
</g>
<!-- Node23&#45;&gt;Node7 -->
<g id="edge36" class="edge">
<title>Node23&#45;&gt;Node7</title>
<path fill="none" stroke="midnightblue" d="M562.51,-503.38C611.39,-476.52 752,-389.22 752,-273.5 752,-273.5 752,-273.5 752,-137.5 752,-97.35 769.78,-52.95 781.01,-28.89"/>
<polygon fill="midnightblue" stroke="midnightblue" points="784.29,-30.15 785.49,-19.63 777.99,-27.1 784.29,-30.15"/>
</g>
<!-- Node24 -->
<g id="node24" class="node">
<title>Node24</title>
<g id="a_node24"><a xlink:href="_event_handler_8h.html" target="_top" xlink:title=" ">
<polygon fill="none" stroke="black" points="690,-436.5 690,-466.5 800,-466.5 800,-436.5 690,-436.5"/>
<text text-anchor="start" x="698" y="-454.5" font-family="Helvetica,sans-Serif" font-size="10.00">../../core&#45;lib/include</text>
<text text-anchor="middle" x="745" y="-443.5" font-family="Helvetica,sans-Serif" font-size="10.00">/EventHandler.h</text>
</a>
</g>
</g>
<!-- Node23&#45;&gt;Node24 -->
<g id="edge37" class="edge">
<title>Node23&#45;&gt;Node24</title>
<path fill="none" stroke="midnightblue" d="M574.51,-503.48C604.11,-494.63 651.19,-480.55 688.38,-469.43"/>
<polygon fill="midnightblue" stroke="midnightblue" points="689.52,-472.74 698.1,-466.52 687.52,-466.03 689.52,-472.74"/>
</g>
<!-- Node32 -->
<g id="node32" class="node">
<title>Node32</title>
<g id="a_node32"><a xlink:href="_event_queue_8h.html" target="_top" xlink:title=" ">
<polygon fill="none" stroke="black" points="330,-257.5 330,-287.5 440,-287.5 440,-257.5 330,-257.5"/>
<text text-anchor="start" x="338" y="-275.5" font-family="Helvetica,sans-Serif" font-size="10.00">../../core&#45;lib/include</text>
<text text-anchor="middle" x="385" y="-264.5" font-family="Helvetica,sans-Serif" font-size="10.00">/EventQueue.h</text>
</a>
</g>
</g>
<!-- Node23&#45;&gt;Node32 -->
<g id="edge57" class="edge">
<title>Node23&#45;&gt;Node32</title>
<path fill="none" stroke="midnightblue" d="M531.75,-503.5C497.33,-482.01 410.22,-421.65 379,-344 373.08,-329.29 374.66,-311.49 377.68,-297.45"/>
<polygon fill="midnightblue" stroke="midnightblue" points="381.12,-298.12 380.16,-287.57 374.33,-296.41 381.12,-298.12"/>
</g>
<!-- Node33 -->
<g id="node33" class="node">
<title>Node33</title>
<g id="a_node33"><a xlink:href="_game_statistics_8h.html" target="_top" xlink:title=" ">
<polygon fill="none" stroke="black" points="388,-324.5 388,-343.5 488,-343.5 488,-324.5 388,-324.5"/>
<text text-anchor="middle" x="438" y="-331.5" font-family="Helvetica,sans-Serif" font-size="10.00">GameStatistics.h</text>
</a>
</g>
</g>
<!-- Node23&#45;&gt;Node33 -->
<g id="edge60" class="edge">
<title>Node23&#45;&gt;Node33</title>
<path fill="none" stroke="midnightblue" d="M540.79,-503.46C524.08,-476.08 471.59,-390.05 448.77,-352.65"/>
<polygon fill="midnightblue" stroke="midnightblue" points="451.61,-350.58 443.41,-343.87 445.63,-354.23 451.61,-350.58"/>
</g>
<!-- Node24&#45;&gt;Node7 -->
<g id="edge38" class="edge">
<title>Node24&#45;&gt;Node7</title>
<path fill="none" stroke="midnightblue" d="M754.54,-436.25C767.75,-415.1 790,-373.74 790,-335 790,-335 790,-335 790,-204.5 790,-140.51 790,-64.63 790,-29.97"/>
<polygon fill="midnightblue" stroke="midnightblue" points="793.5,-29.87 790,-19.87 786.5,-29.87 793.5,-29.87"/>
</g>
<!-- Node25 -->
<g id="node25" class="node">
<title>Node25</title>
<g id="a_node25"><a xlink:href="_event_8h.html" target="_top" xlink:title=" ">
<polygon fill="none" stroke="black" points="557.5,-263 557.5,-282 610.5,-282 610.5,-263 557.5,-263"/>
<text text-anchor="middle" x="584" y="-270" font-family="Helvetica,sans-Serif" font-size="10.00">Event.h</text>
</a>
</g>
</g>
<!-- Node24&#45;&gt;Node25 -->
<g id="edge39" class="edge">
<title>Node24&#45;&gt;Node25</title>
<path fill="none" stroke="midnightblue" d="M732.78,-436.27C712.41,-412.66 670.09,-364.01 633,-324 622.12,-312.26 609.55,-299.32 599.86,-289.47"/>
<polygon fill="midnightblue" stroke="midnightblue" points="602.32,-286.98 592.8,-282.32 597.34,-291.9 602.32,-286.98"/>
</g>
<!-- Node28 -->
<g id="node28" class="node">
<title>Node28</title>
<g id="a_node28"><a xlink:href="_event_publisher_8h.html" target="_top" xlink:title=" ">
<polygon fill="none" stroke="black" points="550,-380.5 550,-399.5 648,-399.5 648,-380.5 550,-380.5"/>
<text text-anchor="middle" x="599" y="-387.5" font-family="Helvetica,sans-Serif" font-size="10.00">EventPublisher.h</text>
</a>
</g>
</g>
<!-- Node24&#45;&gt;Node28 -->
<g id="edge48" class="edge">
<title>Node24&#45;&gt;Node28</title>
<path fill="none" stroke="midnightblue" d="M710.4,-436.4C685.9,-426.42 653.34,-413.15 629.75,-403.53"/>
<polygon fill="midnightblue" stroke="midnightblue" points="630.83,-400.19 620.24,-399.66 628.18,-406.67 630.83,-400.19"/>
</g>
<!-- Node25&#45;&gt;Node5 -->
<g id="edge44" class="edge">
<title>Node25&#45;&gt;Node5</title>
<path fill="none" stroke="midnightblue" d="M610.54,-265.79C663.57,-254.37 782.95,-228.68 845.71,-215.17"/>
<polygon fill="midnightblue" stroke="midnightblue" points="846.6,-218.56 855.64,-213.03 845.13,-211.72 846.6,-218.56"/>
</g>
<!-- Node25&#45;&gt;Node7 -->
<g id="edge42" class="edge">
<title>Node25&#45;&gt;Node7</title>
<path fill="none" stroke="midnightblue" d="M610.88,-266.22C636.23,-259.83 673.47,-246.6 695,-221 743.78,-163.01 697.99,-120.36 738,-56 745.48,-43.96 757.21,-33.41 767.64,-25.55"/>
<polygon fill="midnightblue" stroke="midnightblue" points="769.86,-28.27 775.97,-19.62 765.8,-22.57 769.86,-28.27"/>
</g>
<!-- Node25&#45;&gt;Node12 -->
<g id="edge46" class="edge">
<title>Node25&#45;&gt;Node12</title>
<path fill="none" stroke="midnightblue" d="M557.37,-263.71C549.25,-261.43 540.29,-259.02 532,-257 455.69,-238.44 413.27,-277.77 359,-221 327.06,-187.59 327.81,-129.39 331.32,-96.66"/>
<polygon fill="midnightblue" stroke="midnightblue" points="334.81,-96.96 332.57,-86.6 327.86,-96.09 334.81,-96.96"/>
</g>
<!-- Node25&#45;&gt;Node14 -->
<g id="edge40" class="edge">
<title>Node25&#45;&gt;Node14</title>
<path fill="none" stroke="midnightblue" d="M557.41,-263.54C549.29,-261.26 540.32,-258.88 532,-257 441.35,-236.49 416.36,-242.74 326,-221 322.19,-220.08 318.23,-219.03 314.3,-217.91"/>
<polygon fill="midnightblue" stroke="midnightblue" points="315.28,-214.55 304.7,-215.07 313.29,-221.26 315.28,-214.55"/>
</g>
<!-- Node25&#45;&gt;Node16 -->
<g id="edge47" class="edge">
<title>Node25&#45;&gt;Node16</title>
<path fill="none" stroke="midnightblue" d="M562.62,-262.87C538.36,-253.07 498.12,-236.83 467.06,-224.29"/>
<polygon fill="midnightblue" stroke="midnightblue" points="468.33,-221.03 457.75,-220.53 465.71,-227.52 468.33,-221.03"/>
</g>
<!-- Node25&#45;&gt;Node17 -->
<g id="edge45" class="edge">
<title>Node25&#45;&gt;Node17</title>
<path fill="none" stroke="midnightblue" d="M577.96,-262.61C568.34,-247.26 551.73,-215.05 563,-190 569.77,-174.96 583.47,-162.59 595.75,-153.86"/>
<polygon fill="midnightblue" stroke="midnightblue" points="597.93,-156.61 604.31,-148.15 594.05,-150.78 597.93,-156.61"/>
</g>
<!-- Node26 -->
<g id="node26" class="node">
<title>Node26</title>
<g id="a_node26"><a xlink:title=" ">
<polygon fill="none" stroke="#bfbfbf" points="572,-196 572,-215 616,-215 616,-196 572,-196"/>
<text text-anchor="middle" x="594" y="-203" font-family="Helvetica,sans-Serif" font-size="10.00">string</text>
</a>
</g>
</g>
<!-- Node25&#45;&gt;Node26 -->
<g id="edge41" class="edge">
<title>Node25&#45;&gt;Node26</title>
<path fill="none" stroke="midnightblue" d="M585.35,-262.73C586.82,-253.18 589.21,-237.62 591.11,-225.28"/>
<polygon fill="midnightblue" stroke="midnightblue" points="594.61,-225.54 592.67,-215.13 587.69,-224.48 594.61,-225.54"/>
</g>
<!-- Node27 -->
<g id="node27" class="node">
<title>Node27</title>
<g id="a_node27"><a xlink:title=" ">
<polygon fill="none" stroke="#bfbfbf" points="634.5,-196 634.5,-215 685.5,-215 685.5,-196 634.5,-196"/>
<text text-anchor="middle" x="660" y="-203" font-family="Helvetica,sans-Serif" font-size="10.00">variant</text>
</a>
</g>
</g>
<!-- Node25&#45;&gt;Node27 -->
<g id="edge43" class="edge">
<title>Node25&#45;&gt;Node27</title>
<path fill="none" stroke="midnightblue" d="M594.25,-262.73C606.44,-252.31 627.02,-234.71 641.91,-221.97"/>
<polygon fill="midnightblue" stroke="midnightblue" points="644.59,-224.29 649.91,-215.13 640.04,-218.97 644.59,-224.29"/>
</g>
<!-- Node28&#45;&gt;Node6 -->
<g id="edge50" class="edge">
<title>Node28&#45;&gt;Node6</title>
<path fill="none" stroke="midnightblue" d="M549.98,-384.73C406.92,-371.6 0,-329.37 0,-273.5 0,-273.5 0,-273.5 0,-137.5 0,-71.54 83.95,-35.42 132.45,-20.06"/>
<polygon fill="midnightblue" stroke="midnightblue" points="133.66,-23.34 142.22,-17.09 131.63,-16.65 133.66,-23.34"/>
</g>
<!-- Node28&#45;&gt;Node25 -->
<g id="edge51" class="edge">
<title>Node28&#45;&gt;Node25</title>
<path fill="none" stroke="midnightblue" d="M605.19,-380.16C613.15,-367.65 625.27,-344.06 619,-324 615.05,-311.37 606.71,-299.13 599.17,-289.86"/>
<polygon fill="midnightblue" stroke="midnightblue" points="601.79,-287.54 592.61,-282.25 596.49,-292.11 601.79,-287.54"/>
</g>
<!-- Node29 -->
<g id="node29" class="node">
<title>Node29</title>
<g id="a_node29"><a xlink:title=" ">
<polygon fill="none" stroke="#bfbfbf" points="663,-263 663,-282 701,-282 701,-263 663,-263"/>
<text text-anchor="middle" x="682" y="-270" font-family="Helvetica,sans-Serif" font-size="10.00">map</text>
</a>
</g>
</g>
<!-- Node28&#45;&gt;Node29 -->
<g id="edge49" class="edge">
<title>Node28&#45;&gt;Node29</title>
<path fill="none" stroke="midnightblue" d="M605.62,-380.45C612.55,-371.45 623.69,-356.84 633,-344 646.06,-325.98 660.55,-305 670.37,-290.64"/>
<polygon fill="midnightblue" stroke="midnightblue" points="673.34,-292.5 676.08,-282.26 667.55,-288.55 673.34,-292.5"/>
</g>
<!-- Node30 -->
<g id="node30" class="node">
<title>Node30</title>
<g id="a_node30"><a xlink:href="_event_subscriber_8h.html" target="_top" xlink:title=" ">
<polygon fill="none" stroke="black" points="506,-324.5 506,-343.5 610,-343.5 610,-324.5 506,-324.5"/>
<text text-anchor="middle" x="558" y="-331.5" font-family="Helvetica,sans-Serif" font-size="10.00">EventSubscriber.h</text>
</a>
</g>
</g>
<!-- Node28&#45;&gt;Node30 -->
<g id="edge52" class="edge">
<title>Node28&#45;&gt;Node30</title>
<path fill="none" stroke="midnightblue" d="M592.23,-380.08C586.44,-372.46 577.94,-361.26 570.86,-351.94"/>
<polygon fill="midnightblue" stroke="midnightblue" points="573.48,-349.6 564.64,-343.75 567.9,-353.83 573.48,-349.6"/>
</g>
<!-- Node30&#45;&gt;Node6 -->
<g id="edge54" class="edge">
<title>Node30&#45;&gt;Node6</title>
<path fill="none" stroke="midnightblue" d="M553.99,-324.13C546.07,-307.77 526.77,-273.04 499,-257 397.21,-198.23 345.07,-267.21 237,-221 216.64,-212.29 215.95,-202.97 198,-190 174.32,-172.89 156.89,-179.7 143,-154 122.29,-115.69 132.81,-98.35 143,-56 145.31,-46.42 150.02,-36.58 154.58,-28.56"/>
<polygon fill="midnightblue" stroke="midnightblue" points="157.69,-30.17 159.9,-19.81 151.71,-26.54 157.69,-30.17"/>
</g>
<!-- Node30&#45;&gt;Node25 -->
<g id="edge56" class="edge">
<title>Node30&#45;&gt;Node25</title>
<path fill="none" stroke="midnightblue" d="M561.73,-324.48C565.47,-315.9 571.36,-302.43 576.14,-291.48"/>
<polygon fill="midnightblue" stroke="midnightblue" points="579.48,-292.57 580.28,-282.01 573.07,-289.77 579.48,-292.57"/>
</g>
<!-- Node30&#45;&gt;Node29 -->
<g id="edge53" class="edge">
<title>Node30&#45;&gt;Node29</title>
<path fill="none" stroke="midnightblue" d="M575.77,-324.48C596.48,-314.53 630.95,-297.99 654.99,-286.46"/>
<polygon fill="midnightblue" stroke="midnightblue" points="656.77,-289.49 664.27,-282.01 653.74,-283.18 656.77,-289.49"/>
</g>
<!-- Node31 -->
<g id="node31" class="node">
<title>Node31</title>
<g id="a_node31"><a xlink:title=" ">
<polygon fill="none" stroke="#bfbfbf" points="458,-263 458,-282 490,-282 490,-263 458,-263"/>
<text text-anchor="middle" x="474" y="-270" font-family="Helvetica,sans-Serif" font-size="10.00">list</text>
</a>
</g>
</g>
<!-- Node30&#45;&gt;Node31 -->
<g id="edge55" class="edge">
<title>Node30&#45;&gt;Node31</title>
<path fill="none" stroke="midnightblue" d="M545.96,-324.48C532.49,-314.93 510.43,-299.31 494.28,-287.87"/>
<polygon fill="midnightblue" stroke="midnightblue" points="496.2,-284.93 486.01,-282.01 492.15,-290.65 496.2,-284.93"/>
</g>
<!-- Node32&#45;&gt;Node7 -->
<g id="edge59" class="edge">
<title>Node32&#45;&gt;Node7</title>
<path fill="none" stroke="midnightblue" d="M414.35,-257.36C449.43,-240.63 510.04,-212.24 563,-190 604.25,-172.68 622.29,-182.22 657,-154 697.18,-121.34 683.39,-92.61 720,-56 732.62,-43.38 749.35,-32.47 763.29,-24.55"/>
<polygon fill="midnightblue" stroke="midnightblue" points="765.32,-27.43 772.42,-19.56 761.96,-21.29 765.32,-27.43"/>
</g>
<!-- Node32&#45;&gt;Node15 -->
<g id="edge58" class="edge">
<title>Node32&#45;&gt;Node15</title>
<path fill="none" stroke="midnightblue" d="M329.95,-257.56C293.88,-248.07 245.83,-234.78 204,-221 201.74,-220.25 199.41,-219.45 197.07,-218.62"/>
<polygon fill="midnightblue" stroke="midnightblue" points="198.17,-215.3 187.58,-215.13 195.76,-221.87 198.17,-215.3"/>
</g>
<!-- Node33&#45;&gt;Node25 -->
<g id="edge63" class="edge">
<title>Node33&#45;&gt;Node25</title>
<path fill="none" stroke="midnightblue" d="M458.92,-324.48C483.75,-314.36 525.34,-297.4 553.69,-285.85"/>
<polygon fill="midnightblue" stroke="midnightblue" points="555.18,-289.02 563.12,-282.01 552.54,-282.54 555.18,-289.02"/>
</g>
<!-- Node33&#45;&gt;Node31 -->
<g id="edge61" class="edge">
<title>Node33&#45;&gt;Node31</title>
<path fill="none" stroke="midnightblue" d="M443.16,-324.48C448.45,-315.73 456.84,-301.87 463.53,-290.81"/>
<polygon fill="midnightblue" stroke="midnightblue" points="466.67,-292.38 468.85,-282.01 460.68,-288.75 466.67,-292.38"/>
</g>
<!-- Node33&#45;&gt;Node32 -->
<g id="edge62" class="edge">
<title>Node33&#45;&gt;Node32</title>
<path fill="none" stroke="midnightblue" d="M430.41,-324.48C423.63,-316.87 413.41,-305.4 404.39,-295.26"/>
<polygon fill="midnightblue" stroke="midnightblue" points="406.76,-292.66 397.49,-287.52 401.53,-297.32 406.76,-292.66"/>
</g>
<!-- Node34&#45;&gt;Node7 -->
<g id="edge65" class="edge">
<title>Node34&#45;&gt;Node7</title>
<path fill="none" stroke="midnightblue" d="M977.21,-503.38C990.39,-484.2 1020,-436.1 1020,-391 1020,-391 1020,-391 1020,-137.5 1020,-51.42 894.78,-23.5 829.13,-14.77"/>
<polygon fill="midnightblue" stroke="midnightblue" points="829.48,-11.29 819.13,-13.53 828.62,-18.24 829.48,-11.29"/>
</g>
<!-- Node34&#45;&gt;Node22 -->
<g id="edge67" class="edge">
<title>Node34&#45;&gt;Node22</title>
<path fill="none" stroke="midnightblue" d="M945.3,-522.51C915.16,-531.43 864.32,-545.68 823.01,-556.85"/>
<polygon fill="midnightblue" stroke="midnightblue" points="822.02,-553.49 813.27,-559.47 823.84,-560.25 822.02,-553.49"/>
</g>
<!-- Node34&#45;&gt;Node24 -->
<g id="edge66" class="edge">
<title>Node34&#45;&gt;Node24</title>
<path fill="none" stroke="midnightblue" d="M938.62,-503.48C904.65,-494.53 850.4,-480.25 807.95,-469.07"/>
<polygon fill="midnightblue" stroke="midnightblue" points="808.83,-465.68 798.26,-466.52 807.04,-472.45 808.83,-465.68"/>
</g>
<!-- Node35&#45;&gt;Node7 -->
<g id="edge69" class="edge">
<title>Node35&#45;&gt;Node7</title>
<path fill="none" stroke="midnightblue" d="M741.94,-503.47C765.71,-497.14 791.75,-486.13 809,-467 832.32,-441.14 828,-425.82 828,-391 828,-391 828,-391 828,-271.5 828,-175.13 823.74,-150.33 804,-56 802.14,-47.09 799.25,-37.43 796.58,-29.35"/>
<polygon fill="midnightblue" stroke="midnightblue" points="799.87,-28.15 793.3,-19.83 793.25,-30.43 799.87,-28.15"/>
</g>
<!-- Node35&#45;&gt;Node22 -->
<g id="edge71" class="edge">
<title>Node35&#45;&gt;Node22</title>
<path fill="none" stroke="midnightblue" d="M700.41,-522.66C711.56,-530.48 726.39,-542.32 738.18,-552.6"/>
<polygon fill="midnightblue" stroke="midnightblue" points="735.99,-555.33 745.78,-559.4 740.66,-550.12 735.99,-555.33"/>
</g>
<!-- Node35&#45;&gt;Node24 -->
<g id="edge70" class="edge">
<title>Node35&#45;&gt;Node24</title>
<path fill="none" stroke="midnightblue" d="M693.6,-503.48C701.42,-495.72 713.29,-483.94 723.66,-473.66"/>
<polygon fill="midnightblue" stroke="midnightblue" points="726.22,-476.05 730.86,-466.52 721.29,-471.08 726.22,-476.05"/>
</g>
<!-- Node36&#45;&gt;Node7 -->
<g id="edge73" class="edge">
<title>Node36&#45;&gt;Node7</title>
<path fill="none" stroke="midnightblue" d="M858.06,-503.4C902.88,-488.51 982,-453.39 982,-391 982,-391 982,-391 982,-137.5 982,-64.97 885.29,-31.67 829.14,-18.45"/>
<polygon fill="midnightblue" stroke="midnightblue" points="829.68,-14.99 819.16,-16.22 828.15,-21.82 829.68,-14.99"/>
</g>
<!-- Node36&#45;&gt;Node24 -->
<g id="edge74" class="edge">
<title>Node36&#45;&gt;Node24</title>
<path fill="none" stroke="midnightblue" d="M816.11,-503.48C804.87,-495.42 787.58,-483.02 772.86,-472.47"/>
<polygon fill="midnightblue" stroke="midnightblue" points="774.73,-469.5 764.56,-466.52 770.65,-475.19 774.73,-469.5"/>
</g>
</g>
</svg>
        <g id="navigator" transform="translate(0 0)" fill="#404254">
                <rect fill="#f2f5e9" fill-opacity="0.5" stroke="#606060" stroke-width=".5" x="0" y="0" width="60" height="60"/>
                <use id="zoomplus" xlink:href="#zoomPlus" x="17" y="9" onmousedown="handleZoom(evt,'in')"/>
                <use id="zoomminus" xlink:href="#zoomMin" x="42" y="9" onmousedown="handleZoom(evt,'out')"/>
                <use id="reset" xlink:href="#resetDef" x="30" y="36" onmousedown="handleReset()"/>
                <g id="arrowUp" xlink:href="#dirArrow" transform="translate(30 24)" onmousedown="handlePan(0,-1)">
                  <use xlink:href="#rim" fill="#404040">
                        <set attributeName="fill" to="#808080" begin="arrowUp.mouseover" end="arrowUp.mouseout"/>
                  </use>
                  <path fill="none" stroke="white" stroke-width="1.5" d="M0,-3.0v7 M-2.5,-0.5L0,-3.0L2.5,-0.5"/>
                </g>
                <g id="arrowRight" xlink:href="#dirArrow" transform="rotate(90) translate(36 -43)" onmousedown="handlePan(1,0)">
                  <use xlink:href="#rim" fill="#404040">
                        <set attributeName="fill" to="#808080" begin="arrowRight.mouseover" end="arrowRight.mouseout"/>
                  </use>
                  <path fill="none" stroke="white" stroke-width="1.5" d="M0,-3.0v7 M-2.5,-0.5L0,-3.0L2.5,-0.5"/>
                </g>
                <g id="arrowDown" xlink:href="#dirArrow" transform="rotate(180) translate(-30 -48)" onmousedown="handlePan(0,1)">
                  <use xlink:href="#rim" fill="#404040">
                        <set attributeName="fill" to="#808080" begin="arrowDown.mouseover" end="arrowDown.mouseout"/>
                  </use>
                  <path fill="none" stroke="white" stroke-width="1.5" d="M0,-3.0v7 M-2.5,-0.5L0,-3.0L2.5,-0.5"/>
                </g>
                <g id="arrowLeft" xlink:href="#dirArrow" transform="rotate(270) translate(-36 17)" onmousedown="handlePan(-1,0)">
                  <use xlink:href="#rim" fill="#404040">
                        <set attributeName="fill" to="#808080" begin="arrowLeft.mouseover" end="arrowLeft.mouseout"/>
                  </use>
                  <path fill="none" stroke="white" stroke-width="1.5" d="M0,-3.0v7 M-2.5,-0.5L0,-3.0L2.5,-0.5"/>
                </g>
        </g>
        <svg viewBox="0 0 15 15" width="100%" height="30px" preserveAspectRatio="xMaxYMin meet">
         <g id="arrow_out" transform="scale(0.3 0.3)">
          <a xlink:href="_game_info_graphic_8h__incl_org.svg" target="_base">
           <rect id="button" ry="5" rx="5" y="6" x="6" height="38" width="38"
                fill="#f2f5e9" fill-opacity="0.5" stroke="#606060" stroke-width="1.0"/>
           <path id="arrow"
             d="M 11.500037,31.436501 C 11.940474,20.09759 22.043105,11.32322 32.158766,21.979434 L 37.068811,17.246167 C 37.068811,17.246167 37.088388,32 37.088388,32 L 22.160133,31.978069 C 22.160133,31.978069 26.997745,27.140456 26.997745,27.140456 C 18.528582,18.264221 13.291696,25.230495 11.500037,31.436501 z"
             style="fill:#404040;"/>
          </a>
         </g>
        </svg>
</svg>
