<?xml version="1.0" encoding="UTF-8" standalone="no"?>
<!DOCTYPE svg PUBLIC "-//W3C//DTD SVG 1.1//EN"
 "http://www.w3.org/Graphics/SVG/1.1/DTD/svg11.dtd">
<!-- Generated by graphviz version 2.43.0 (0)
 -->
<!-- Title: /home/tomek/CLionProjects/proi/proi&#45;projekt/src/game&#45;lib/include/GameState.h Pages: 1 -->
<svg width="417pt" height="397pt"
 viewBox="0.00 0.00 417.00 397.00" xmlns="http://www.w3.org/2000/svg" xmlns:xlink="http://www.w3.org/1999/xlink">
<g id="graph0" class="graph" transform="scale(1 1) rotate(0) translate(4 393)">
<title>/home/tomek/CLionProjects/proi/proi&#45;projekt/src/game&#45;lib/include/GameState.h</title>
<!-- Node1 -->
<g id="node1" class="node">
<title>Node1</title>
<g id="a_node1"><a xlink:title=" ">
<polygon fill="#bfbfbf" stroke="black" points="241,-347.5 241,-388.5 409,-388.5 409,-347.5 241,-347.5"/>
<text text-anchor="start" x="249" y="-376.5" font-family="Helvetica,sans-Serif" font-size="10.00">/home/tomek/CLionProjects</text>
<text text-anchor="start" x="249" y="-365.5" font-family="Helvetica,sans-Serif" font-size="10.00">/proi/proi&#45;projekt/src</text>
<text text-anchor="middle" x="325" y="-354.5" font-family="Helvetica,sans-Serif" font-size="10.00">/game&#45;lib/include/GameState.h</text>
</a>
</g>
</g>
<!-- Node2 -->
<g id="node2" class="node">
<title>Node2</title>
<g id="a_node2"><a xlink:title=" ">
<polygon fill="none" stroke="#bfbfbf" points="284,-0.5 284,-19.5 342,-19.5 342,-0.5 284,-0.5"/>
<text text-anchor="middle" x="313" y="-7.5" font-family="Helvetica,sans-Serif" font-size="10.00">memory</text>
</a>
</g>
</g>
<!-- Node1&#45;&gt;Node2 -->
<g id="edge1" class="edge">
<title>Node1&#45;&gt;Node2</title>
<path fill="none" stroke="midnightblue" d="M336.82,-347.18C350.16,-322.91 370,-280.13 370,-240.5 370,-240.5 370,-240.5 370,-121 370,-84.3 344.68,-47.66 327.79,-27.3"/>
<polygon fill="midnightblue" stroke="midnightblue" points="330.35,-24.9 321.17,-19.62 325.05,-29.48 330.35,-24.9"/>
</g>
<!-- Node3 -->
<g id="node3" class="node">
<title>Node3</title>
<g id="a_node3"><a xlink:href="_active_event_handler_8h.html" target="_top" xlink:title=" ">
<polygon fill="none" stroke="black" points="220,-291.5 220,-310.5 342,-310.5 342,-291.5 220,-291.5"/>
<text text-anchor="middle" x="281" y="-298.5" font-family="Helvetica,sans-Serif" font-size="10.00">ActiveEventHandler.h</text>
</a>
</g>
</g>
<!-- Node1&#45;&gt;Node3 -->
<g id="edge2" class="edge">
<title>Node1&#45;&gt;Node3</title>
<path fill="none" stroke="midnightblue" d="M311.8,-347.5C305.7,-338.49 298.52,-327.89 292.63,-319.19"/>
<polygon fill="midnightblue" stroke="midnightblue" points="295.36,-316.97 286.86,-310.65 289.56,-320.9 295.36,-316.97"/>
</g>
<!-- Node3&#45;&gt;Node2 -->
<g id="edge3" class="edge">
<title>Node3&#45;&gt;Node2</title>
<path fill="none" stroke="midnightblue" d="M287.46,-291.42C301.18,-272.32 332,-224.37 332,-179 332,-179 332,-179 332,-121 332,-88.49 323.84,-51.35 318.22,-29.61"/>
<polygon fill="midnightblue" stroke="midnightblue" points="321.54,-28.5 315.56,-19.75 314.78,-30.32 321.54,-28.5"/>
</g>
<!-- Node4 -->
<g id="node4" class="node">
<title>Node4</title>
<g id="a_node4"><a xlink:href="_event_handler_8h.html" target="_top" xlink:title=" ">
<polygon fill="none" stroke="black" points="158,-224.5 158,-254.5 268,-254.5 268,-224.5 158,-224.5"/>
<text text-anchor="start" x="166" y="-242.5" font-family="Helvetica,sans-Serif" font-size="10.00">../../core&#45;lib/include</text>
<text text-anchor="middle" x="213" y="-231.5" font-family="Helvetica,sans-Serif" font-size="10.00">/EventHandler.h</text>
</a>
</g>
</g>
<!-- Node3&#45;&gt;Node4 -->
<g id="edge4" class="edge">
<title>Node3&#45;&gt;Node4</title>
<path fill="none" stroke="midnightblue" d="M271.26,-291.48C262.31,-283.64 248.67,-271.71 236.85,-261.37"/>
<polygon fill="midnightblue" stroke="midnightblue" points="238.86,-258.47 229.03,-254.52 234.25,-263.74 238.86,-258.47"/>
</g>
<!-- Node4&#45;&gt;Node2 -->
<g id="edge5" class="edge">
<title>Node4&#45;&gt;Node2</title>
<path fill="none" stroke="midnightblue" d="M219.26,-224.27C236.67,-184.64 285.71,-73.08 305.03,-29.12"/>
<polygon fill="midnightblue" stroke="midnightblue" points="308.26,-30.49 309.08,-19.93 301.85,-27.67 308.26,-30.49"/>
</g>
<!-- Node5 -->
<g id="node5" class="node">
<title>Node5</title>
<g id="a_node5"><a xlink:href="_event_8h.html" target="_top" xlink:title=" ">
<polygon fill="none" stroke="black" points="31.5,-56.5 31.5,-75.5 84.5,-75.5 84.5,-56.5 31.5,-56.5"/>
<text text-anchor="middle" x="58" y="-63.5" font-family="Helvetica,sans-Serif" font-size="10.00">Event.h</text>
</a>
</g>
</g>
<!-- Node4&#45;&gt;Node5 -->
<g id="edge6" class="edge">
<title>Node4&#45;&gt;Node5</title>
<path fill="none" stroke="midnightblue" d="M175.14,-224.31C156.33,-215.88 134.22,-203.74 118,-188 87.81,-158.72 70.47,-111.06 62.79,-85.16"/>
<polygon fill="midnightblue" stroke="midnightblue" points="66.16,-84.19 60.09,-75.51 59.42,-86.08 66.16,-84.19"/>
</g>
<!-- Node8 -->
<g id="node8" class="node">
<title>Node8</title>
<g id="a_node8"><a xlink:href="_event_publisher_8h.html" target="_top" xlink:title=" ">
<polygon fill="none" stroke="black" points="127,-168.5 127,-187.5 225,-187.5 225,-168.5 127,-168.5"/>
<text text-anchor="middle" x="176" y="-175.5" font-family="Helvetica,sans-Serif" font-size="10.00">EventPublisher.h</text>
</a>
</g>
</g>
<!-- Node4&#45;&gt;Node8 -->
<g id="edge10" class="edge">
<title>Node4&#45;&gt;Node8</title>
<path fill="none" stroke="midnightblue" d="M204.23,-224.4C199.02,-216.02 192.37,-205.33 186.83,-196.42"/>
<polygon fill="midnightblue" stroke="midnightblue" points="189.64,-194.3 181.38,-187.66 183.69,-198 189.64,-194.3"/>
</g>
<!-- Node5&#45;&gt;Node2 -->
<g id="edge9" class="edge">
<title>Node5&#45;&gt;Node2</title>
<path fill="none" stroke="midnightblue" d="M84.72,-57.98C87.51,-57.29 90.31,-56.62 93,-56 155.95,-41.48 229.59,-26.9 273.7,-18.42"/>
<polygon fill="midnightblue" stroke="midnightblue" points="274.55,-21.82 283.72,-16.51 273.24,-14.95 274.55,-21.82"/>
</g>
<!-- Node6 -->
<g id="node6" class="node">
<title>Node6</title>
<g id="a_node6"><a xlink:title=" ">
<polygon fill="none" stroke="#bfbfbf" points="62.5,-0.5 62.5,-19.5 127.5,-19.5 127.5,-0.5 62.5,-0.5"/>
<text text-anchor="middle" x="95" y="-7.5" font-family="Helvetica,sans-Serif" font-size="10.00">exception</text>
</a>
</g>
</g>
<!-- Node5&#45;&gt;Node6 -->
<g id="edge7" class="edge">
<title>Node5&#45;&gt;Node6</title>
<path fill="none" stroke="midnightblue" d="M64.11,-56.08C69.28,-48.53 76.85,-37.49 83.19,-28.23"/>
<polygon fill="midnightblue" stroke="midnightblue" points="86.24,-29.98 89,-19.75 80.46,-26.02 86.24,-29.98"/>
</g>
<!-- Node7 -->
<g id="node7" class="node">
<title>Node7</title>
<g id="a_node7"><a xlink:title=" ">
<polygon fill="none" stroke="#bfbfbf" points="0,-0.5 0,-19.5 44,-19.5 44,-0.5 0,-0.5"/>
<text text-anchor="middle" x="22" y="-7.5" font-family="Helvetica,sans-Serif" font-size="10.00">string</text>
</a>
</g>
</g>
<!-- Node5&#45;&gt;Node7 -->
<g id="edge8" class="edge">
<title>Node5&#45;&gt;Node7</title>
<path fill="none" stroke="midnightblue" d="M52.06,-56.08C47.02,-48.53 39.66,-37.49 33.49,-28.23"/>
<polygon fill="midnightblue" stroke="midnightblue" points="36.29,-26.13 27.83,-19.75 30.47,-30.01 36.29,-26.13"/>
</g>
<!-- Node8&#45;&gt;Node5 -->
<g id="edge13" class="edge">
<title>Node8&#45;&gt;Node5</title>
<path fill="none" stroke="midnightblue" d="M160.1,-168.5C145.6,-160.3 124.06,-146.95 108,-132 92.59,-117.65 78.3,-98.19 68.98,-84.31"/>
<polygon fill="midnightblue" stroke="midnightblue" points="71.77,-82.18 63.37,-75.73 65.91,-86.01 71.77,-82.18"/>
</g>
<!-- Node9 -->
<g id="node9" class="node">
<title>Node9</title>
<g id="a_node9"><a xlink:title=" ">
<polygon fill="none" stroke="#bfbfbf" points="223,-56.5 223,-75.5 261,-75.5 261,-56.5 223,-56.5"/>
<text text-anchor="middle" x="242" y="-63.5" font-family="Helvetica,sans-Serif" font-size="10.00">map</text>
</a>
</g>
</g>
<!-- Node8&#45;&gt;Node9 -->
<g id="edge11" class="edge">
<title>Node8&#45;&gt;Node9</title>
<path fill="none" stroke="midnightblue" d="M195.24,-168.37C209.41,-160.91 227.75,-148.69 237,-132 244.8,-117.92 245.48,-99.43 244.54,-85.77"/>
<polygon fill="midnightblue" stroke="midnightblue" points="248,-85.22 243.49,-75.64 241.04,-85.94 248,-85.22"/>
</g>
<!-- Node10 -->
<g id="node10" class="node">
<title>Node10</title>
<g id="a_node10"><a xlink:title=" ">
<polygon fill="none" stroke="#bfbfbf" points="102.5,-56.5 102.5,-75.5 149.5,-75.5 149.5,-56.5 102.5,-56.5"/>
<text text-anchor="middle" x="126" y="-63.5" font-family="Helvetica,sans-Serif" font-size="10.00">vector</text>
</a>
</g>
</g>
<!-- Node8&#45;&gt;Node10 -->
<g id="edge12" class="edge">
<title>Node8&#45;&gt;Node10</title>
<path fill="none" stroke="midnightblue" d="M156.09,-168.41C141.78,-161.04 123.54,-148.92 115,-132 107.6,-117.35 111.95,-98.71 117.2,-85.15"/>
<polygon fill="midnightblue" stroke="midnightblue" points="120.43,-86.49 121.21,-75.92 114.01,-83.7 120.43,-86.49"/>
</g>
<!-- Node11 -->
<g id="node11" class="node">
<title>Node11</title>
<g id="a_node11"><a xlink:href="_event_subscriber_8h.html" target="_top" xlink:title=" ">
<polygon fill="none" stroke="black" points="124,-112.5 124,-131.5 228,-131.5 228,-112.5 124,-112.5"/>
<text text-anchor="middle" x="176" y="-119.5" font-family="Helvetica,sans-Serif" font-size="10.00">EventSubscriber.h</text>
</a>
</g>
</g>
<!-- Node8&#45;&gt;Node11 -->
<g id="edge14" class="edge">
<title>Node8&#45;&gt;Node11</title>
<path fill="none" stroke="midnightblue" d="M176,-168.08C176,-161.01 176,-150.86 176,-141.99"/>
<polygon fill="midnightblue" stroke="midnightblue" points="179.5,-141.75 176,-131.75 172.5,-141.75 179.5,-141.75"/>
</g>
<!-- Node11&#45;&gt;Node5 -->
<g id="edge18" class="edge">
<title>Node11&#45;&gt;Node5</title>
<path fill="none" stroke="midnightblue" d="M157.3,-112.44C138.06,-103.64 107.85,-89.81 85.8,-79.72"/>
<polygon fill="midnightblue" stroke="midnightblue" points="87.16,-76.5 76.61,-75.52 84.25,-82.86 87.16,-76.5"/>
</g>
<!-- Node11&#45;&gt;Node9 -->
<g id="edge15" class="edge">
<title>Node11&#45;&gt;Node9</title>
<path fill="none" stroke="midnightblue" d="M186.6,-112.32C196.46,-104.26 211.35,-92.08 223.22,-82.37"/>
<polygon fill="midnightblue" stroke="midnightblue" points="225.68,-84.88 231.2,-75.83 221.25,-79.46 225.68,-84.88"/>
</g>
<!-- Node11&#45;&gt;Node10 -->
<g id="edge16" class="edge">
<title>Node11&#45;&gt;Node10</title>
<path fill="none" stroke="midnightblue" d="M167.74,-112.08C160.54,-104.3 149.89,-92.8 141.15,-83.37"/>
<polygon fill="midnightblue" stroke="midnightblue" points="143.47,-80.71 134.1,-75.75 138.33,-85.47 143.47,-80.71"/>
</g>
<!-- Node12 -->
<g id="node12" class="node">
<title>Node12</title>
<g id="a_node12"><a xlink:title=" ">
<polygon fill="none" stroke="#bfbfbf" points="168,-56.5 168,-75.5 200,-75.5 200,-56.5 168,-56.5"/>
<text text-anchor="middle" x="184" y="-63.5" font-family="Helvetica,sans-Serif" font-size="10.00">list</text>
</a>
</g>
</g>
<!-- Node11&#45;&gt;Node12 -->
<g id="edge17" class="edge">
<title>Node11&#45;&gt;Node12</title>
<path fill="none" stroke="midnightblue" d="M177.32,-112.08C178.38,-104.93 179.91,-94.64 181.23,-85.69"/>
<polygon fill="midnightblue" stroke="midnightblue" points="184.7,-86.16 182.7,-75.75 177.78,-85.13 184.7,-86.16"/>
</g>
</g>
</svg>
