<?xml version="1.0" encoding="UTF-8" standalone="no"?>
<!DOCTYPE svg PUBLIC "-//W3C//DTD SVG 1.1//EN"
 "http://www.w3.org/Graphics/SVG/1.1/DTD/svg11.dtd">
<!-- Generated by graphviz version 2.43.0 (0)
 -->
<!-- Title: /home/tomek/CLionProjects/proi/proi&#45;projekt/src/game&#45;lib/GameState.cpp Pages: 1 -->
<!--zoomable 665 -->
<svg id="main" version="1.1" xmlns="http://www.w3.org/2000/svg" xmlns:xlink="http://www.w3.org/1999/xlink" xml:space="preserve" onload="init(evt)">
<style type="text/css"><![CDATA[
.edge:hover path { stroke: red; }
.edge:hover polygon { stroke: red; fill: red; }
]]></style>
<script type="text/javascript"><![CDATA[
var edges = document.getElementsByTagName('g');
if (edges && edges.length) {
  for (var i=0;i<edges.length;i++) {
    if (edges[i].id.substr(0,4)=='edge') {
      edges[i].setAttribute('class','edge');
    }
  }
}
]]></script>
        <defs>
                <circle id="rim" cx="0" cy="0" r="7"/>
                <circle id="rim2" cx="0" cy="0" r="3.5"/>
                <g id="zoomPlus">
                        <use xlink:href="#rim" fill="#404040">
                                <set attributeName="fill" to="#808080" begin="zoomplus.mouseover" end="zoomplus.mouseout"/>
                        </use>
                        <path d="M-4,0h8M0,-4v8" fill="none" stroke="white" stroke-width="1.5" pointer-events="none"/>
                </g>
                <g id="zoomMin">
                        <use xlink:href="#rim" fill="#404040">
                                <set attributeName="fill" to="#808080" begin="zoomminus.mouseover" end="zoomminus.mouseout"/>
                        </use>
                        <path d="M-4,0h8" fill="none" stroke="white" stroke-width="1.5" pointer-events="none"/>
                </g>
                <g id="dirArrow">
                        <path fill="none" stroke="white" stroke-width="1.5" d="M0,-3.0v7 M-2.5,-0.5L0,-3.0L2.5,-0.5"/>
                </g>
               <g id="resetDef">
                       <use xlink:href="#rim2" fill="#404040">
                               <set attributeName="fill" to="#808080" begin="reset.mouseover" end="reset.mouseout"/>
                       </use>
               </g>
        </defs>

<script type="text/javascript">
var viewWidth = 925;
var viewHeight = 665;
var sectionId = 'dynsection-0';
</script>
<script xlink:href="svgpan.js"/>
<svg id="graph" class="graph">
<g id="viewport">
<title>/home/tomek/CLionProjects/proi/proi&#45;projekt/src/game&#45;lib/GameState.cpp</title>
<!-- Node1 -->
<g id="node1" class="node">
<title>Node1</title>
<g id="a_node1"><a xlink:title=" ">
<polygon fill="#bfbfbf" stroke="black" points="497.5,-615.5 497.5,-656.5 648.5,-656.5 648.5,-615.5 497.5,-615.5"/>
<text text-anchor="start" x="505.5" y="-644.5" font-family="Helvetica,sans-Serif" font-size="10.00">/home/tomek/CLionProjects</text>
<text text-anchor="start" x="505.5" y="-633.5" font-family="Helvetica,sans-Serif" font-size="10.00">/proi/proi&#45;projekt/src</text>
<text text-anchor="middle" x="573" y="-622.5" font-family="Helvetica,sans-Serif" font-size="10.00">/game&#45;lib/GameState.cpp</text>
</a>
</g>
</g>
<!-- Node2 -->
<g id="node2" class="node">
<title>Node2</title>
<g id="a_node2"><a xlink:href="_game_state_8h.html" target="_top" xlink:title=" ">
<polygon fill="none" stroke="black" points="513.5,-559.5 513.5,-578.5 632.5,-578.5 632.5,-559.5 513.5,-559.5"/>
<text text-anchor="middle" x="573" y="-566.5" font-family="Helvetica,sans-Serif" font-size="10.00">include/GameState.h</text>
</a>
</g>
</g>
<!-- Node1&#45;&gt;Node2 -->
<g id="edge1" class="edge">
<title>Node1&#45;&gt;Node2</title>
<path fill="none" stroke="midnightblue" d="M573,-615.5C573,-607.07 573,-597.24 573,-588.87"/>
<polygon fill="midnightblue" stroke="midnightblue" points="576.5,-588.65 573,-578.65 569.5,-588.65 576.5,-588.65"/>
</g>
<!-- Node4 -->
<g id="node4" class="node">
<title>Node4</title>
<g id="a_node4"><a xlink:href="_active_event_handler_8h.html" target="_top" xlink:title=" ">
<polygon fill="none" stroke="black" points="183,-503.5 183,-522.5 305,-522.5 305,-503.5 183,-503.5"/>
<text text-anchor="middle" x="244" y="-510.5" font-family="Helvetica,sans-Serif" font-size="10.00">ActiveEventHandler.h</text>
</a>
</g>
</g>
<!-- Node1&#45;&gt;Node4 -->
<g id="edge50" class="edge">
<title>Node1&#45;&gt;Node4</title>
<path fill="none" stroke="midnightblue" d="M519.77,-615.42C451.15,-590.19 333.89,-547.06 276.95,-526.12"/>
<polygon fill="midnightblue" stroke="midnightblue" points="277.97,-522.76 267.37,-522.6 275.55,-529.33 277.97,-522.76"/>
</g>
<!-- Node11 -->
<g id="node11" class="node">
<title>Node11</title>
<g id="a_node11"><a xlink:href="_tank_8h.html" target="_top" xlink:title=" ">
<polygon fill="none" stroke="black" points="668,-190.5 668,-220.5 778,-220.5 778,-190.5 668,-190.5"/>
<text text-anchor="start" x="676" y="-208.5" font-family="Helvetica,sans-Serif" font-size="10.00">../../tank&#45;lib/include</text>
<text text-anchor="middle" x="723" y="-197.5" font-family="Helvetica,sans-Serif" font-size="10.00">/Tank.h</text>
</a>
</g>
</g>
<!-- Node1&#45;&gt;Node11 -->
<g id="edge57" class="edge">
<title>Node1&#45;&gt;Node11</title>
<path fill="none" stroke="midnightblue" d="M648.79,-622.38C744.82,-604.2 898,-566.91 898,-514 898,-514 898,-514 898,-450.5 898,-360.19 896.24,-324.28 836,-257 822.94,-242.41 804.86,-231.81 786.99,-224.21"/>
<polygon fill="midnightblue" stroke="midnightblue" points="788.28,-220.95 777.69,-220.5 785.68,-227.46 788.28,-220.95"/>
</g>
<!-- Node23 -->
<g id="node23" class="node">
<title>Node23</title>
<g id="a_node23"><a xlink:href="_menu_event_handler_8h.html" target="_top" xlink:title=" ">
<polygon fill="none" stroke="black" points="426,-503.5 426,-522.5 544,-522.5 544,-503.5 426,-503.5"/>
<text text-anchor="middle" x="485" y="-510.5" font-family="Helvetica,sans-Serif" font-size="10.00">MenuEventHandler.h</text>
</a>
</g>
</g>
<!-- Node1&#45;&gt;Node23 -->
<g id="edge53" class="edge">
<title>Node1&#45;&gt;Node23</title>
<path fill="none" stroke="midnightblue" d="M541.71,-615.29C528.74,-605.73 514.53,-593.23 505,-579 495.66,-565.05 490.52,-546.55 487.8,-532.85"/>
<polygon fill="midnightblue" stroke="midnightblue" points="491.2,-531.94 486.05,-522.68 484.3,-533.13 491.2,-531.94"/>
</g>
<!-- Node24 -->
<g id="node24" class="node">
<title>Node24</title>
<g id="a_node24"><a xlink:href="_pause_event_handler_8h.html" target="_top" xlink:title=" ">
<polygon fill="none" stroke="black" points="601.5,-503.5 601.5,-522.5 720.5,-522.5 720.5,-503.5 601.5,-503.5"/>
<text text-anchor="middle" x="661" y="-510.5" font-family="Helvetica,sans-Serif" font-size="10.00">PauseEventHandler.h</text>
</a>
</g>
</g>
<!-- Node1&#45;&gt;Node24 -->
<g id="edge52" class="edge">
<title>Node1&#45;&gt;Node24</title>
<path fill="none" stroke="midnightblue" d="M604.85,-615.44C618.03,-605.91 632.43,-593.39 642,-579 651.25,-565.08 656.09,-546.57 658.56,-532.86"/>
<polygon fill="midnightblue" stroke="midnightblue" points="662.07,-533.1 660.12,-522.69 655.15,-532.04 662.07,-533.1"/>
</g>
<!-- Node25 -->
<g id="node25" class="node">
<title>Node25</title>
<g id="a_node25"><a xlink:href="_finished_event_handler_8h.html" target="_top" xlink:title=" ">
<polygon fill="none" stroke="black" points="738.5,-503.5 738.5,-522.5 869.5,-522.5 869.5,-503.5 738.5,-503.5"/>
<text text-anchor="middle" x="804" y="-510.5" font-family="Helvetica,sans-Serif" font-size="10.00">FinishedEventHandler.h</text>
</a>
</g>
</g>
<!-- Node1&#45;&gt;Node25 -->
<g id="edge51" class="edge">
<title>Node1&#45;&gt;Node25</title>
<path fill="none" stroke="midnightblue" d="M610.37,-615.42C657.66,-590.66 737.83,-548.66 778.59,-527.31"/>
<polygon fill="midnightblue" stroke="midnightblue" points="780.36,-530.34 787.59,-522.6 777.11,-524.14 780.36,-530.34"/>
</g>
<!-- Node26 -->
<g id="node26" class="node">
<title>Node26</title>
<g id="a_node26"><a xlink:href="_menu_8h.html" target="_top" xlink:title=" ">
<polygon fill="none" stroke="black" points="104.5,-324.5 104.5,-343.5 195.5,-343.5 195.5,-324.5 104.5,-324.5"/>
<text text-anchor="middle" x="150" y="-331.5" font-family="Helvetica,sans-Serif" font-size="10.00">include/Menu.h</text>
</a>
</g>
</g>
<!-- Node1&#45;&gt;Node26 -->
<g id="edge54" class="edge">
<title>Node1&#45;&gt;Node26</title>
<path fill="none" stroke="midnightblue" d="M497.21,-634.67C341.47,-631.93 0,-614.47 0,-514 0,-514 0,-514 0,-450.5 0,-395.19 64.81,-362.69 109.23,-346.91"/>
<polygon fill="midnightblue" stroke="midnightblue" points="110.58,-350.15 118.92,-343.61 108.33,-343.52 110.58,-350.15"/>
</g>
<!-- Node3 -->
<g id="node3" class="node">
<title>Node3</title>
<g id="a_node3"><a xlink:title=" ">
<polygon fill="none" stroke="#bfbfbf" points="334,-0.5 334,-19.5 392,-19.5 392,-0.5 334,-0.5"/>
<text text-anchor="middle" x="363" y="-7.5" font-family="Helvetica,sans-Serif" font-size="10.00">memory</text>
</a>
</g>
</g>
<!-- Node2&#45;&gt;Node3 -->
<g id="edge2" class="edge">
<title>Node2&#45;&gt;Node3</title>
<path fill="none" stroke="midnightblue" d="M575.09,-559.4C585.64,-515.22 631.66,-313.65 607,-257 598.9,-238.4 560.92,-202.57 545,-190 519.38,-169.78 506.03,-174.94 481,-154 434.86,-115.4 393.21,-56.96 374.07,-28.21"/>
<polygon fill="midnightblue" stroke="midnightblue" points="376.88,-26.11 368.47,-19.67 371.03,-29.95 376.88,-26.11"/>
</g>
<!-- Node2&#45;&gt;Node4 -->
<g id="edge3" class="edge">
<title>Node2&#45;&gt;Node4</title>
<path fill="none" stroke="midnightblue" d="M520.87,-559.44C462.51,-549.87 368.02,-534.36 305.94,-524.17"/>
<polygon fill="midnightblue" stroke="midnightblue" points="306.32,-520.68 295.89,-522.52 305.19,-527.59 306.32,-520.68"/>
</g>
<!-- Node2&#45;&gt;Node23 -->
<g id="edge39" class="edge">
<title>Node2&#45;&gt;Node23</title>
<path fill="none" stroke="midnightblue" d="M553.75,-559.32C538.43,-551.03 517.48,-538.36 502.61,-528.53"/>
<polygon fill="midnightblue" stroke="midnightblue" points="504.48,-525.57 494.25,-522.83 500.54,-531.35 504.48,-525.57"/>
</g>
<!-- Node2&#45;&gt;Node24 -->
<g id="edge43" class="edge">
<title>Node2&#45;&gt;Node24</title>
<path fill="none" stroke="midnightblue" d="M582.02,-559.32C594.15,-550.74 615.48,-537.49 633.02,-527.52"/>
<polygon fill="midnightblue" stroke="midnightblue" points="634.74,-530.57 641.79,-522.65 631.34,-524.45 634.74,-530.57"/>
</g>
<!-- Node2&#45;&gt;Node25 -->
<g id="edge47" class="edge">
<title>Node2&#45;&gt;Node25</title>
<path fill="none" stroke="midnightblue" d="M609.6,-559.44C649.73,-550.06 714.2,-534.99 757.78,-524.8"/>
<polygon fill="midnightblue" stroke="midnightblue" points="758.63,-528.2 767.57,-522.52 757.03,-521.38 758.63,-528.2"/>
</g>
<!-- Node4&#45;&gt;Node3 -->
<g id="edge4" class="edge">
<title>Node4&#45;&gt;Node3</title>
<path fill="none" stroke="midnightblue" d="M186.89,-503.47C125.93,-490.74 38,-460.37 38,-391 38,-391 38,-391 38,-137.5 38,-76.77 237.55,-33.54 323.92,-17.68"/>
<polygon fill="midnightblue" stroke="midnightblue" points="324.65,-21.1 333.87,-15.88 323.41,-14.21 324.65,-21.1"/>
</g>
<!-- Node5 -->
<g id="node5" class="node">
<title>Node5</title>
<g id="a_node5"><a xlink:href="_event_handler_8h.html" target="_top" xlink:title=" ">
<polygon fill="none" stroke="black" points="430,-436.5 430,-466.5 540,-466.5 540,-436.5 430,-436.5"/>
<text text-anchor="start" x="438" y="-454.5" font-family="Helvetica,sans-Serif" font-size="10.00">../../core&#45;lib/include</text>
<text text-anchor="middle" x="485" y="-443.5" font-family="Helvetica,sans-Serif" font-size="10.00">/EventHandler.h</text>
</a>
</g>
</g>
<!-- Node4&#45;&gt;Node5 -->
<g id="edge5" class="edge">
<title>Node4&#45;&gt;Node5</title>
<path fill="none" stroke="midnightblue" d="M278.53,-503.48C315.27,-494.4 374.26,-479.84 419.8,-468.6"/>
<polygon fill="midnightblue" stroke="midnightblue" points="420.72,-471.98 429.59,-466.18 419.04,-465.18 420.72,-471.98"/>
</g>
<!-- Node20 -->
<g id="node20" class="node">
<title>Node20</title>
<g id="a_node20"><a xlink:href="_event_queue_8h.html" target="_top" xlink:title=" ">
<polygon fill="none" stroke="black" points="86,-257.5 86,-287.5 196,-287.5 196,-257.5 86,-257.5"/>
<text text-anchor="start" x="94" y="-275.5" font-family="Helvetica,sans-Serif" font-size="10.00">../../core&#45;lib/include</text>
<text text-anchor="middle" x="141" y="-264.5" font-family="Helvetica,sans-Serif" font-size="10.00">/EventQueue.h</text>
</a>
</g>
</g>
<!-- Node4&#45;&gt;Node20 -->
<g id="edge32" class="edge">
<title>Node4&#45;&gt;Node20</title>
<path fill="none" stroke="midnightblue" d="M231.55,-503.22C201.08,-480.89 123.22,-418.35 95,-344 88.17,-326.02 100.53,-307.89 114.14,-294.52"/>
<polygon fill="midnightblue" stroke="midnightblue" points="116.69,-296.93 121.72,-287.61 111.97,-291.76 116.69,-296.93"/>
</g>
<!-- Node22 -->
<g id="node22" class="node">
<title>Node22</title>
<g id="a_node22"><a xlink:href="_game_statistics_8h.html" target="_top" xlink:title=" ">
<polygon fill="none" stroke="black" points="252,-324.5 252,-343.5 352,-343.5 352,-324.5 252,-324.5"/>
<text text-anchor="middle" x="302" y="-331.5" font-family="Helvetica,sans-Serif" font-size="10.00">GameStatistics.h</text>
</a>
</g>
</g>
<!-- Node4&#45;&gt;Node22 -->
<g id="edge35" class="edge">
<title>Node4&#45;&gt;Node22</title>
<path fill="none" stroke="midnightblue" d="M246.8,-503.46C255.69,-476.31 283.48,-391.51 295.9,-353.62"/>
<polygon fill="midnightblue" stroke="midnightblue" points="299.31,-354.46 299.09,-343.87 292.65,-352.28 299.31,-354.46"/>
</g>
<!-- Node5&#45;&gt;Node3 -->
<g id="edge6" class="edge">
<title>Node5&#45;&gt;Node3</title>
<path fill="none" stroke="midnightblue" d="M469.36,-436.28C433.83,-402.86 347.45,-314.97 313,-221 287.71,-152.02 289.97,-121.62 323,-56 328.5,-45.08 337.33,-34.74 345.29,-26.73"/>
<polygon fill="midnightblue" stroke="midnightblue" points="347.99,-29 352.81,-19.57 343.16,-23.93 347.99,-29"/>
</g>
<!-- Node6 -->
<g id="node6" class="node">
<title>Node6</title>
<g id="a_node6"><a xlink:href="_event_8h.html" target="_top" xlink:title=" ">
<polygon fill="none" stroke="black" points="417.5,-263 417.5,-282 470.5,-282 470.5,-263 417.5,-263"/>
<text text-anchor="middle" x="444" y="-270" font-family="Helvetica,sans-Serif" font-size="10.00">Event.h</text>
</a>
</g>
</g>
<!-- Node5&#45;&gt;Node6 -->
<g id="edge7" class="edge">
<title>Node5&#45;&gt;Node6</title>
<path fill="none" stroke="midnightblue" d="M481.42,-436.41C476.27,-416.05 466.59,-377.21 459,-344 455,-326.48 450.77,-306.43 447.82,-292.2"/>
<polygon fill="midnightblue" stroke="midnightblue" points="451.21,-291.29 445.76,-282.2 444.35,-292.7 451.21,-291.29"/>
</g>
<!-- Node16 -->
<g id="node16" class="node">
<title>Node16</title>
<g id="a_node16"><a xlink:href="_event_publisher_8h.html" target="_top" xlink:title=" ">
<polygon fill="none" stroke="black" points="487,-380.5 487,-399.5 585,-399.5 585,-380.5 487,-380.5"/>
<text text-anchor="middle" x="536" y="-387.5" font-family="Helvetica,sans-Serif" font-size="10.00">EventPublisher.h</text>
</a>
</g>
</g>
<!-- Node5&#45;&gt;Node16 -->
<g id="edge23" class="edge">
<title>Node5&#45;&gt;Node16</title>
<path fill="none" stroke="midnightblue" d="M497.09,-436.4C504.57,-427.66 514.22,-416.41 522.03,-407.3"/>
<polygon fill="midnightblue" stroke="midnightblue" points="524.73,-409.53 528.58,-399.66 519.41,-404.97 524.73,-409.53"/>
</g>
<!-- Node6&#45;&gt;Node3 -->
<g id="edge10" class="edge">
<title>Node6&#45;&gt;Node3</title>
<path fill="none" stroke="midnightblue" d="M417.44,-268.18C390,-263.17 348.49,-250.85 329,-221 288.96,-159.68 331.34,-67.37 352.49,-28.86"/>
<polygon fill="midnightblue" stroke="midnightblue" points="355.69,-30.31 357.57,-19.89 349.6,-26.86 355.69,-30.31"/>
</g>
<!-- Node7 -->
<g id="node7" class="node">
<title>Node7</title>
<g id="a_node7"><a xlink:title=" ">
<polygon fill="none" stroke="#bfbfbf" points="338.5,-196 338.5,-215 403.5,-215 403.5,-196 338.5,-196"/>
<text text-anchor="middle" x="371" y="-203" font-family="Helvetica,sans-Serif" font-size="10.00">exception</text>
</a>
</g>
</g>
<!-- Node6&#45;&gt;Node7 -->
<g id="edge8" class="edge">
<title>Node6&#45;&gt;Node7</title>
<path fill="none" stroke="midnightblue" d="M434.15,-262.73C422.44,-252.31 402.68,-234.71 388.38,-221.97"/>
<polygon fill="midnightblue" stroke="midnightblue" points="390.49,-219.16 380.69,-215.13 385.83,-224.39 390.49,-219.16"/>
</g>
<!-- Node8 -->
<g id="node8" class="node">
<title>Node8</title>
<g id="a_node8"><a xlink:title=" ">
<polygon fill="none" stroke="#bfbfbf" points="422,-196 422,-215 466,-215 466,-196 422,-196"/>
<text text-anchor="middle" x="444" y="-203" font-family="Helvetica,sans-Serif" font-size="10.00">string</text>
</a>
</g>
</g>
<!-- Node6&#45;&gt;Node8 -->
<g id="edge9" class="edge">
<title>Node6&#45;&gt;Node8</title>
<path fill="none" stroke="midnightblue" d="M444,-262.73C444,-253.18 444,-237.62 444,-225.28"/>
<polygon fill="midnightblue" stroke="midnightblue" points="447.5,-225.13 444,-215.13 440.5,-225.13 447.5,-225.13"/>
</g>
<!-- Node9 -->
<g id="node9" class="node">
<title>Node9</title>
<g id="a_node9"><a xlink:title=" ">
<polygon fill="none" stroke="#bfbfbf" points="484.5,-196 484.5,-215 535.5,-215 535.5,-196 484.5,-196"/>
<text text-anchor="middle" x="510" y="-203" font-family="Helvetica,sans-Serif" font-size="10.00">variant</text>
</a>
</g>
</g>
<!-- Node6&#45;&gt;Node9 -->
<g id="edge11" class="edge">
<title>Node6&#45;&gt;Node9</title>
<path fill="none" stroke="midnightblue" d="M452.9,-262.73C463.39,-252.4 481.02,-235.04 493.92,-222.33"/>
<polygon fill="midnightblue" stroke="midnightblue" points="496.57,-224.64 501.24,-215.13 491.66,-219.65 496.57,-224.64"/>
</g>
<!-- Node10 -->
<g id="node10" class="node">
<title>Node10</title>
<g id="a_node10"><a xlink:href="_entity_8h.html" target="_top" xlink:title=" ">
<polygon fill="none" stroke="black" points="571,-56.5 571,-86.5 681,-86.5 681,-56.5 571,-56.5"/>
<text text-anchor="start" x="579" y="-74.5" font-family="Helvetica,sans-Serif" font-size="10.00">../../tank&#45;lib/include</text>
<text text-anchor="middle" x="626" y="-63.5" font-family="Helvetica,sans-Serif" font-size="10.00">/Entity.h</text>
</a>
</g>
</g>
<!-- Node6&#45;&gt;Node10 -->
<g id="edge12" class="edge">
<title>Node6&#45;&gt;Node10</title>
<path fill="none" stroke="midnightblue" d="M467.45,-262.95C494.33,-252.64 535.88,-234.95 545,-221 568.87,-184.5 528.42,-160.9 550,-123 557.52,-109.8 570.06,-99.41 582.82,-91.57"/>
<polygon fill="midnightblue" stroke="midnightblue" points="584.67,-94.54 591.62,-86.54 581.2,-88.46 584.67,-94.54"/>
</g>
<!-- Node6&#45;&gt;Node11 -->
<g id="edge13" class="edge">
<title>Node6&#45;&gt;Node11</title>
<path fill="none" stroke="midnightblue" d="M470.24,-262.97C476.97,-260.91 484.23,-258.78 491,-257 546.9,-242.32 611.16,-228.57 657.86,-219.14"/>
<polygon fill="midnightblue" stroke="midnightblue" points="658.73,-222.53 667.84,-217.13 657.35,-215.67 658.73,-222.53"/>
</g>
<!-- Node11&#45;&gt;Node3 -->
<g id="edge14" class="edge">
<title>Node11&#45;&gt;Node3</title>
<path fill="none" stroke="midnightblue" d="M667.8,-192.12C624.88,-181.82 569.47,-166.81 550,-154 502.8,-122.94 514.3,-89.78 469,-56 448.94,-41.04 423.15,-29.95 402.04,-22.52"/>
<polygon fill="midnightblue" stroke="midnightblue" points="402.99,-19.15 392.4,-19.27 400.75,-25.78 402.99,-19.15"/>
</g>
<!-- Node11&#45;&gt;Node10 -->
<g id="edge19" class="edge">
<title>Node11&#45;&gt;Node10</title>
<path fill="none" stroke="midnightblue" d="M701.34,-190.41C688.58,-181.25 672.87,-168.36 662,-154 648.79,-136.53 639.17,-113.45 633.22,-96.31"/>
<polygon fill="midnightblue" stroke="midnightblue" points="636.45,-94.91 629.99,-86.51 629.8,-97.1 636.45,-94.91"/>
</g>
<!-- Node12 -->
<g id="node12" class="node">
<title>Node12</title>
<g id="a_node12"><a xlink:title=" ">
<polygon fill="none" stroke="#bfbfbf" points="559,-129 559,-148 615,-148 615,-129 559,-129"/>
<text text-anchor="middle" x="587" y="-136" font-family="Helvetica,sans-Serif" font-size="10.00">optional</text>
</a>
</g>
</g>
<!-- Node11&#45;&gt;Node12 -->
<g id="edge15" class="edge">
<title>Node11&#45;&gt;Node12</title>
<path fill="none" stroke="midnightblue" d="M693.49,-190.4C669.84,-179.09 636.92,-163.36 613.97,-152.39"/>
<polygon fill="midnightblue" stroke="midnightblue" points="615.33,-149.16 604.8,-148.01 612.31,-155.48 615.33,-149.16"/>
</g>
<!-- Node13 -->
<g id="node13" class="node">
<title>Node13</title>
<g id="a_node13"><a xlink:href="_simple_subscriber_8h.html" target="_top" xlink:title=" ">
<polygon fill="none" stroke="black" points="699.5,-56.5 699.5,-86.5 812.5,-86.5 812.5,-56.5 699.5,-56.5"/>
<text text-anchor="start" x="707.5" y="-74.5" font-family="Helvetica,sans-Serif" font-size="10.00">../../core&#45;lib/include</text>
<text text-anchor="middle" x="756" y="-63.5" font-family="Helvetica,sans-Serif" font-size="10.00">/SimpleSubscriber.h</text>
</a>
</g>
</g>
<!-- Node11&#45;&gt;Node13 -->
<g id="edge16" class="edge">
<title>Node11&#45;&gt;Node13</title>
<path fill="none" stroke="midnightblue" d="M749.14,-190.37C762.21,-181.76 776.74,-169.43 784,-154 793.03,-134.81 783.47,-111.88 773.15,-95.24"/>
<polygon fill="midnightblue" stroke="midnightblue" points="775.91,-93.08 767.44,-86.71 770.09,-96.97 775.91,-93.08"/>
</g>
<!-- Node15 -->
<g id="node15" class="node">
<title>Node15</title>
<g id="a_node15"><a xlink:href="_bot_8h.html" target="_top" xlink:title=" ">
<polygon fill="none" stroke="black" points="671,-123.5 671,-153.5 775,-153.5 775,-123.5 671,-123.5"/>
<text text-anchor="start" x="679" y="-141.5" font-family="Helvetica,sans-Serif" font-size="10.00">../../bot&#45;lib/include</text>
<text text-anchor="middle" x="723" y="-130.5" font-family="Helvetica,sans-Serif" font-size="10.00">/Bot.h</text>
</a>
</g>
</g>
<!-- Node11&#45;&gt;Node15 -->
<g id="edge20" class="edge">
<title>Node11&#45;&gt;Node15</title>
<path fill="none" stroke="midnightblue" d="M723,-190.4C723,-182.64 723,-172.81 723,-163.86"/>
<polygon fill="midnightblue" stroke="midnightblue" points="726.5,-163.58 723,-153.58 719.5,-163.58 726.5,-163.58"/>
</g>
<!-- Node13&#45;&gt;Node3 -->
<g id="edge18" class="edge">
<title>Node13&#45;&gt;Node3</title>
<path fill="none" stroke="midnightblue" d="M699.18,-57.72C696.08,-57.11 693,-56.54 690,-56 586.81,-37.59 464.13,-22.52 402.5,-15.41"/>
<polygon fill="midnightblue" stroke="midnightblue" points="402.77,-11.92 392.44,-14.26 401.97,-18.87 402.77,-11.92"/>
</g>
<!-- Node14 -->
<g id="node14" class="node">
<title>Node14</title>
<g id="a_node14"><a xlink:title=" ">
<polygon fill="none" stroke="#bfbfbf" points="817.5,-0.5 817.5,-19.5 864.5,-19.5 864.5,-0.5 817.5,-0.5"/>
<text text-anchor="middle" x="841" y="-7.5" font-family="Helvetica,sans-Serif" font-size="10.00">vector</text>
</a>
</g>
</g>
<!-- Node13&#45;&gt;Node14 -->
<g id="edge17" class="edge">
<title>Node13&#45;&gt;Node14</title>
<path fill="none" stroke="midnightblue" d="M776.14,-56.4C789.39,-47.13 806.68,-35.03 820.08,-25.65"/>
<polygon fill="midnightblue" stroke="midnightblue" points="822.45,-28.26 828.63,-19.66 818.43,-22.53 822.45,-28.26"/>
</g>
<!-- Node15&#45;&gt;Node10 -->
<g id="edge21" class="edge">
<title>Node15&#45;&gt;Node10</title>
<path fill="none" stroke="midnightblue" d="M701.95,-123.4C688.35,-114.28 670.46,-102.29 655.45,-92.24"/>
<polygon fill="midnightblue" stroke="midnightblue" points="657.26,-89.24 647.01,-86.58 653.37,-95.05 657.26,-89.24"/>
</g>
<!-- Node15&#45;&gt;Node13 -->
<g id="edge22" class="edge">
<title>Node15&#45;&gt;Node13</title>
<path fill="none" stroke="midnightblue" d="M730.16,-123.4C734.27,-115.3 739.53,-104.94 744.23,-95.69"/>
<polygon fill="midnightblue" stroke="midnightblue" points="747.45,-97.08 748.85,-86.58 741.21,-93.91 747.45,-97.08"/>
</g>
<!-- Node16&#45;&gt;Node6 -->
<g id="edge26" class="edge">
<title>Node16&#45;&gt;Node6</title>
<path fill="none" stroke="midnightblue" d="M520.16,-380.49C506.66,-372.56 487.5,-359.62 475,-344 462.5,-328.37 454.02,-306.92 449.13,-291.8"/>
<polygon fill="midnightblue" stroke="midnightblue" points="452.44,-290.64 446.2,-282.07 445.74,-292.66 452.44,-290.64"/>
</g>
<!-- Node16&#45;&gt;Node14 -->
<g id="edge25" class="edge">
<title>Node16&#45;&gt;Node14</title>
<path fill="none" stroke="midnightblue" d="M563.19,-380.41C618.94,-361.32 746.38,-309.94 811,-221 847.69,-170.51 847.03,-149.13 853,-87 854.32,-73.29 854.79,-69.66 853,-56 851.84,-47.18 849.47,-37.63 847.13,-29.61"/>
<polygon fill="midnightblue" stroke="midnightblue" points="850.4,-28.34 844.09,-19.83 843.71,-30.42 850.4,-28.34"/>
</g>
<!-- Node17 -->
<g id="node17" class="node">
<title>Node17</title>
<g id="a_node17"><a xlink:title=" ">
<polygon fill="none" stroke="#bfbfbf" points="560,-263 560,-282 598,-282 598,-263 560,-263"/>
<text text-anchor="middle" x="579" y="-270" font-family="Helvetica,sans-Serif" font-size="10.00">map</text>
</a>
</g>
</g>
<!-- Node16&#45;&gt;Node17 -->
<g id="edge24" class="edge">
<title>Node16&#45;&gt;Node17</title>
<path fill="none" stroke="midnightblue" d="M555.91,-380.41C570.22,-373.04 588.46,-360.92 597,-344 605.51,-327.14 597.94,-305.93 590.17,-291.2"/>
<polygon fill="midnightblue" stroke="midnightblue" points="592.99,-289.08 584.96,-282.17 586.93,-292.58 592.99,-289.08"/>
</g>
<!-- Node18 -->
<g id="node18" class="node">
<title>Node18</title>
<g id="a_node18"><a xlink:href="_event_subscriber_8h.html" target="_top" xlink:title=" ">
<polygon fill="none" stroke="black" points="484,-324.5 484,-343.5 588,-343.5 588,-324.5 484,-324.5"/>
<text text-anchor="middle" x="536" y="-331.5" font-family="Helvetica,sans-Serif" font-size="10.00">EventSubscriber.h</text>
</a>
</g>
</g>
<!-- Node16&#45;&gt;Node18 -->
<g id="edge27" class="edge">
<title>Node16&#45;&gt;Node18</title>
<path fill="none" stroke="midnightblue" d="M536,-380.08C536,-373.01 536,-362.86 536,-353.99"/>
<polygon fill="midnightblue" stroke="midnightblue" points="539.5,-353.75 536,-343.75 532.5,-353.75 539.5,-353.75"/>
</g>
<!-- Node18&#45;&gt;Node6 -->
<g id="edge31" class="edge">
<title>Node18&#45;&gt;Node6</title>
<path fill="none" stroke="midnightblue" d="M522.82,-324.48C507.93,-314.84 483.46,-299.02 465.73,-287.55"/>
<polygon fill="midnightblue" stroke="midnightblue" points="467.45,-284.5 457.16,-282.01 463.65,-290.38 467.45,-284.5"/>
</g>
<!-- Node18&#45;&gt;Node14 -->
<g id="edge29" class="edge">
<title>Node18&#45;&gt;Node14</title>
<path fill="none" stroke="midnightblue" d="M584.44,-324.47C641.34,-311.87 734.61,-282.78 787,-221 835.08,-164.29 841.12,-70.09 841.36,-30"/>
<polygon fill="midnightblue" stroke="midnightblue" points="844.86,-29.78 841.3,-19.8 837.86,-29.82 844.86,-29.78"/>
</g>
<!-- Node18&#45;&gt;Node17 -->
<g id="edge28" class="edge">
<title>Node18&#45;&gt;Node17</title>
<path fill="none" stroke="midnightblue" d="M542.16,-324.48C548.61,-315.55 558.9,-301.31 566.97,-290.14"/>
<polygon fill="midnightblue" stroke="midnightblue" points="569.83,-292.16 572.85,-282.01 564.16,-288.06 569.83,-292.16"/>
</g>
<!-- Node19 -->
<g id="node19" class="node">
<title>Node19</title>
<g id="a_node19"><a xlink:title=" ">
<polygon fill="none" stroke="#bfbfbf" points="500,-263 500,-282 532,-282 532,-263 500,-263"/>
<text text-anchor="middle" x="516" y="-270" font-family="Helvetica,sans-Serif" font-size="10.00">list</text>
</a>
</g>
</g>
<!-- Node18&#45;&gt;Node19 -->
<g id="edge30" class="edge">
<title>Node18&#45;&gt;Node19</title>
<path fill="none" stroke="midnightblue" d="M533.13,-324.48C530.28,-315.99 525.82,-302.7 522.16,-291.82"/>
<polygon fill="midnightblue" stroke="midnightblue" points="525.36,-290.37 518.86,-282.01 518.73,-292.6 525.36,-290.37"/>
</g>
<!-- Node20&#45;&gt;Node3 -->
<g id="edge34" class="edge">
<title>Node20&#45;&gt;Node3</title>
<path fill="none" stroke="midnightblue" d="M149.01,-257.26C154.35,-247.32 161.24,-233.63 166,-221 192.75,-149.97 157.02,-110.35 210,-56 239.78,-25.46 289.13,-15.38 323.71,-12.19"/>
<polygon fill="midnightblue" stroke="midnightblue" points="324.22,-15.67 333.93,-11.41 323.69,-8.69 324.22,-15.67"/>
</g>
<!-- Node21 -->
<g id="node21" class="node">
<title>Node21</title>
<g id="a_node21"><a xlink:title=" ">
<polygon fill="none" stroke="#bfbfbf" points="110.5,-196 110.5,-215 157.5,-215 157.5,-196 110.5,-196"/>
<text text-anchor="middle" x="134" y="-203" font-family="Helvetica,sans-Serif" font-size="10.00">queue</text>
</a>
</g>
</g>
<!-- Node20&#45;&gt;Node21 -->
<g id="edge33" class="edge">
<title>Node20&#45;&gt;Node21</title>
<path fill="none" stroke="midnightblue" d="M139.48,-257.4C138.47,-247.96 137.12,-235.45 136.01,-225.19"/>
<polygon fill="midnightblue" stroke="midnightblue" points="139.49,-224.76 134.94,-215.19 132.53,-225.51 139.49,-224.76"/>
</g>
<!-- Node22&#45;&gt;Node6 -->
<g id="edge38" class="edge">
<title>Node22&#45;&gt;Node6</title>
<path fill="none" stroke="midnightblue" d="M322.35,-324.48C346.39,-314.4 386.6,-297.55 414.16,-286"/>
<polygon fill="midnightblue" stroke="midnightblue" points="415.82,-289.1 423.69,-282.01 413.12,-282.65 415.82,-289.1"/>
</g>
<!-- Node22&#45;&gt;Node19 -->
<g id="edge36" class="edge">
<title>Node22&#45;&gt;Node19</title>
<path fill="none" stroke="midnightblue" d="M341.42,-324.46C377.55,-316.29 432.37,-303 479,-288 482.7,-286.81 486.56,-285.44 490.33,-284.03"/>
<polygon fill="midnightblue" stroke="midnightblue" points="491.9,-287.18 499.95,-280.29 489.36,-280.66 491.9,-287.18"/>
</g>
<!-- Node22&#45;&gt;Node20 -->
<g id="edge37" class="edge">
<title>Node22&#45;&gt;Node20</title>
<path fill="none" stroke="midnightblue" d="M278.93,-324.48C255.4,-315.78 218.19,-302.03 188.35,-291"/>
<polygon fill="midnightblue" stroke="midnightblue" points="189.54,-287.71 178.94,-287.52 187.11,-294.27 189.54,-287.71"/>
</g>
<!-- Node23&#45;&gt;Node2 -->
<g id="edge42" class="edge">
<title>Node23&#45;&gt;Node2</title>
<path fill="none" stroke="midnightblue" d="M504.21,-522.65C519.61,-530.99 540.73,-543.76 555.62,-553.62"/>
<polygon fill="midnightblue" stroke="midnightblue" points="553.74,-556.58 563.98,-559.32 557.69,-550.8 553.74,-556.58"/>
</g>
<!-- Node23&#45;&gt;Node3 -->
<g id="edge40" class="edge">
<title>Node23&#45;&gt;Node3</title>
<path fill="none" stroke="midnightblue" d="M425.78,-509.8C348.77,-503.4 224,-479.4 224,-391 224,-391 224,-391 224,-137.5 224,-80.11 289.62,-41.86 330.69,-23.55"/>
<polygon fill="midnightblue" stroke="midnightblue" points="332.24,-26.69 340.05,-19.53 329.48,-20.26 332.24,-26.69"/>
</g>
<!-- Node23&#45;&gt;Node5 -->
<g id="edge41" class="edge">
<title>Node23&#45;&gt;Node5</title>
<path fill="none" stroke="midnightblue" d="M485,-503.48C485,-496.47 485,-486.19 485,-476.7"/>
<polygon fill="midnightblue" stroke="midnightblue" points="488.5,-476.52 485,-466.52 481.5,-476.52 488.5,-476.52"/>
</g>
<!-- Node24&#45;&gt;Node2 -->
<g id="edge46" class="edge">
<title>Node24&#45;&gt;Node2</title>
<path fill="none" stroke="midnightblue" d="M651.75,-522.83C639.7,-531.34 618.79,-544.34 601.45,-554.21"/>
<polygon fill="midnightblue" stroke="midnightblue" points="599.29,-551.4 592.25,-559.32 602.69,-557.52 599.29,-551.4"/>
</g>
<!-- Node24&#45;&gt;Node3 -->
<g id="edge44" class="edge">
<title>Node24&#45;&gt;Node3</title>
<path fill="none" stroke="midnightblue" d="M693.58,-503.47C740.63,-488.95 822,-454.64 822,-391 822,-391 822,-391 822,-333 822,-293.51 545.44,-179.15 515,-154 470.78,-117.46 474,-93.97 431,-56 417.55,-44.12 400.75,-32.98 387.21,-24.75"/>
<polygon fill="midnightblue" stroke="midnightblue" points="388.83,-21.64 378.44,-19.54 385.26,-27.66 388.83,-21.64"/>
</g>
<!-- Node24&#45;&gt;Node5 -->
<g id="edge45" class="edge">
<title>Node24&#45;&gt;Node5</title>
<path fill="none" stroke="midnightblue" d="M635.78,-503.48C609.94,-494.74 569.03,-480.91 536.34,-469.86"/>
<polygon fill="midnightblue" stroke="midnightblue" points="537.07,-466.41 526.48,-466.52 534.83,-473.04 537.07,-466.41"/>
</g>
<!-- Node25&#45;&gt;Node3 -->
<g id="edge48" class="edge">
<title>Node25&#45;&gt;Node3</title>
<path fill="none" stroke="midnightblue" d="M811.77,-503.19C837.3,-473.28 917,-372.01 917,-273.5 917,-273.5 917,-273.5 917,-204.5 917,-126.15 888.81,-96.93 822,-56 752.09,-13.17 500.3,-10.07 402.36,-10.54"/>
<polygon fill="midnightblue" stroke="midnightblue" points="402.26,-7.04 392.29,-10.6 402.31,-14.04 402.26,-7.04"/>
</g>
<!-- Node25&#45;&gt;Node5 -->
<g id="edge49" class="edge">
<title>Node25&#45;&gt;Node5</title>
<path fill="none" stroke="midnightblue" d="M758.3,-503.48C703.79,-493.31 612.29,-476.24 550.33,-464.68"/>
<polygon fill="midnightblue" stroke="midnightblue" points="550.74,-461.2 540.26,-462.81 549.45,-468.08 550.74,-461.2"/>
</g>
<!-- Node26&#45;&gt;Node6 -->
<g id="edge56" class="edge">
<title>Node26&#45;&gt;Node6</title>
<path fill="none" stroke="midnightblue" d="M192.12,-324.48C249.85,-312.79 352.6,-292 407.32,-280.92"/>
<polygon fill="midnightblue" stroke="midnightblue" points="408.17,-284.32 417.28,-278.91 406.78,-277.46 408.17,-284.32"/>
</g>
<!-- Node26&#45;&gt;Node20 -->
<g id="edge55" class="edge">
<title>Node26&#45;&gt;Node20</title>
<path fill="none" stroke="midnightblue" d="M148.71,-324.48C147.65,-317.47 146.1,-307.19 144.66,-297.7"/>
<polygon fill="midnightblue" stroke="midnightblue" points="148.08,-296.89 143.12,-287.52 141.16,-297.93 148.08,-296.89"/>
</g>
</g>
</svg>
        <g id="navigator" transform="translate(0 0)" fill="#404254">
                <rect fill="#f2f5e9" fill-opacity="0.5" stroke="#606060" stroke-width=".5" x="0" y="0" width="60" height="60"/>
                <use id="zoomplus" xlink:href="#zoomPlus" x="17" y="9" onmousedown="handleZoom(evt,'in')"/>
                <use id="zoomminus" xlink:href="#zoomMin" x="42" y="9" onmousedown="handleZoom(evt,'out')"/>
                <use id="reset" xlink:href="#resetDef" x="30" y="36" onmousedown="handleReset()"/>
                <g id="arrowUp" xlink:href="#dirArrow" transform="translate(30 24)" onmousedown="handlePan(0,-1)">
                  <use xlink:href="#rim" fill="#404040">
                        <set attributeName="fill" to="#808080" begin="arrowUp.mouseover" end="arrowUp.mouseout"/>
                  </use>
                  <path fill="none" stroke="white" stroke-width="1.5" d="M0,-3.0v7 M-2.5,-0.5L0,-3.0L2.5,-0.5"/>
                </g>
                <g id="arrowRight" xlink:href="#dirArrow" transform="rotate(90) translate(36 -43)" onmousedown="handlePan(1,0)">
                  <use xlink:href="#rim" fill="#404040">
                        <set attributeName="fill" to="#808080" begin="arrowRight.mouseover" end="arrowRight.mouseout"/>
                  </use>
                  <path fill="none" stroke="white" stroke-width="1.5" d="M0,-3.0v7 M-2.5,-0.5L0,-3.0L2.5,-0.5"/>
                </g>
                <g id="arrowDown" xlink:href="#dirArrow" transform="rotate(180) translate(-30 -48)" onmousedown="handlePan(0,1)">
                  <use xlink:href="#rim" fill="#404040">
                        <set attributeName="fill" to="#808080" begin="arrowDown.mouseover" end="arrowDown.mouseout"/>
                  </use>
                  <path fill="none" stroke="white" stroke-width="1.5" d="M0,-3.0v7 M-2.5,-0.5L0,-3.0L2.5,-0.5"/>
                </g>
                <g id="arrowLeft" xlink:href="#dirArrow" transform="rotate(270) translate(-36 17)" onmousedown="handlePan(-1,0)">
                  <use xlink:href="#rim" fill="#404040">
                        <set attributeName="fill" to="#808080" begin="arrowLeft.mouseover" end="arrowLeft.mouseout"/>
                  </use>
                  <path fill="none" stroke="white" stroke-width="1.5" d="M0,-3.0v7 M-2.5,-0.5L0,-3.0L2.5,-0.5"/>
                </g>
        </g>
        <svg viewBox="0 0 15 15" width="100%" height="30px" preserveAspectRatio="xMaxYMin meet">
         <g id="arrow_out" transform="scale(0.3 0.3)">
          <a xlink:href="_game_state_8cpp__incl_org.svg" target="_base">
           <rect id="button" ry="5" rx="5" y="6" x="6" height="38" width="38"
                fill="#f2f5e9" fill-opacity="0.5" stroke="#606060" stroke-width="1.0"/>
           <path id="arrow"
             d="M 11.500037,31.436501 C 11.940474,20.09759 22.043105,11.32322 32.158766,21.979434 L 37.068811,17.246167 C 37.068811,17.246167 37.088388,32 37.088388,32 L 22.160133,31.978069 C 22.160133,31.978069 26.997745,27.140456 26.997745,27.140456 C 18.528582,18.264221 13.291696,25.230495 11.500037,31.436501 z"
             style="fill:#404040;"/>
          </a>
         </g>
        </svg>
</svg>
