<?xml version="1.0" encoding="UTF-8" standalone="no"?>
<!DOCTYPE svg PUBLIC "-//W3C//DTD SVG 1.1//EN"
 "http://www.w3.org/Graphics/SVG/1.1/DTD/svg11.dtd">
<!-- Generated by graphviz version 2.50.0 (0)
 -->
<!-- Title: /home/tomek/trash/battle&#45;city/src/lib/game&#45;lib/include/GameStatsIO.h Pages: 1 -->
<!--zoomable 206 -->
<svg id="main" version="1.1" xmlns="http://www.w3.org/2000/svg" xmlns:xlink="http://www.w3.org/1999/xlink" xml:space="preserve" onload="init(evt)">
<style type="text/css"><![CDATA[
.edge:hover path { stroke: red; }
.edge:hover polygon { stroke: red; fill: red; }
]]></style>
<script type="text/javascript"><![CDATA[
var edges = document.getElementsByTagName('g');
if (edges && edges.length) {
  for (var i=0;i<edges.length;i++) {
    if (edges[i].id.substr(0,4)=='edge') {
      edges[i].setAttribute('class','edge');
    }
  }
}
]]></script>
        <defs>
                <circle id="rim" cx="0" cy="0" r="7"/>
                <circle id="rim2" cx="0" cy="0" r="3.5"/>
                <g id="zoomPlus">
                        <use xlink:href="#rim" fill="#404040">
                                <set attributeName="fill" to="#808080" begin="zoomplus.mouseover" end="zoomplus.mouseout"/>
                        </use>
                        <path d="M-4,0h8M0,-4v8" fill="none" stroke="white" stroke-width="1.5" pointer-events="none"/>
                </g>
                <g id="zoomMin">
                        <use xlink:href="#rim" fill="#404040">
                                <set attributeName="fill" to="#808080" begin="zoomminus.mouseover" end="zoomminus.mouseout"/>
                        </use>
                        <path d="M-4,0h8" fill="none" stroke="white" stroke-width="1.5" pointer-events="none"/>
                </g>
                <g id="dirArrow">
                        <path fill="none" stroke="white" stroke-width="1.5" d="M0,-3.0v7 M-2.5,-0.5L0,-3.0L2.5,-0.5"/>
                </g>
               <g id="resetDef">
                       <use xlink:href="#rim2" fill="#404040">
                               <set attributeName="fill" to="#808080" begin="reset.mouseover" end="reset.mouseout"/>
                       </use>
               </g>
        </defs>

<script type="text/javascript">
var viewWidth = 950;
var viewHeight = 206;
var sectionId = 'dynsection-1';
</script>
<script xlink:href="svgpan.js"/>
<svg id="graph" class="graph">
<g id="viewport">
<title>/home/tomek/trash/battle&#45;city/src/lib/game&#45;lib/include/GameStatsIO.h</title>
<!-- Node1 -->
<g id="node1" class="node">
<title>Node1</title>
<g id="a_node1"><a xlink:title=" ">
<polygon fill="#bfbfbf" stroke="black" points="178,-156.5 178,-197.5 319,-197.5 319,-156.5 178,-156.5"/>
<text text-anchor="start" x="186" y="-185.5" font-family="Helvetica,sans-Serif" font-size="10.00">/home/tomek/trash/battle</text>
<text text-anchor="start" x="186" y="-174.5" font-family="Helvetica,sans-Serif" font-size="10.00">&#45;city/src/lib/game&#45;lib</text>
<text text-anchor="middle" x="248.5" y="-163.5" font-family="Helvetica,sans-Serif" font-size="10.00">/include/GameStatsIO.h</text>
</a>
</g>
</g>
<!-- Node2 -->
<g id="node2" class="node">
<title>Node2</title>
<g id="a_node2"><a xlink:href="_game_8cpp.html" target="_top" xlink:title=" ">
<polygon fill="none" stroke="black" points="0,-0.5 0,-41.5 141,-41.5 141,-0.5 0,-0.5"/>
<text text-anchor="start" x="8" y="-29.5" font-family="Helvetica,sans-Serif" font-size="10.00">/home/tomek/trash/battle</text>
<text text-anchor="start" x="8" y="-18.5" font-family="Helvetica,sans-Serif" font-size="10.00">&#45;city/src/lib/game&#45;lib</text>
<text text-anchor="middle" x="70.5" y="-7.5" font-family="Helvetica,sans-Serif" font-size="10.00">/Game.cpp</text>
</a>
</g>
</g>
<!-- Node1&#45;&gt;Node2 -->
<g id="edge1" class="edge">
<title>Node1&#45;&gt;Node2</title>
<path fill="none" stroke="midnightblue" d="M167.74,-164.54C139.22,-156.55 109.34,-142.99 89.5,-120 70.71,-98.22 68.3,-63.48 68.93,-41.74"/>
<polygon fill="midnightblue" stroke="midnightblue" points="167.19,-168.01 177.75,-167.14 168.95,-161.24 167.19,-168.01"/>
</g>
<!-- Node3 -->
<g id="node3" class="node">
<title>Node3</title>
<g id="a_node3"><a xlink:href="_game_statistics_8cpp.html" target="_top" xlink:title=" ">
<polygon fill="none" stroke="black" points="99,-78.5 99,-119.5 240,-119.5 240,-78.5 99,-78.5"/>
<text text-anchor="start" x="107" y="-107.5" font-family="Helvetica,sans-Serif" font-size="10.00">/home/tomek/trash/battle</text>
<text text-anchor="start" x="107" y="-96.5" font-family="Helvetica,sans-Serif" font-size="10.00">&#45;city/src/lib/game&#45;lib</text>
<text text-anchor="middle" x="169.5" y="-85.5" font-family="Helvetica,sans-Serif" font-size="10.00">/GameStatistics.cpp</text>
</a>
</g>
</g>
<!-- Node1&#45;&gt;Node3 -->
<g id="edge2" class="edge">
<title>Node1&#45;&gt;Node3</title>
<path fill="none" stroke="midnightblue" d="M220.95,-149.49C210.69,-139.63 199.26,-128.63 189.78,-119.51"/>
<polygon fill="midnightblue" stroke="midnightblue" points="218.52,-152.02 228.16,-156.43 223.38,-146.97 218.52,-152.02"/>
</g>
<!-- Node4 -->
<g id="node4" class="node">
<title>Node4</title>
<g id="a_node4"><a xlink:href="_game_stats_i_o_8cpp.html" target="_top" xlink:title=" ">
<polygon fill="none" stroke="black" points="258,-78.5 258,-119.5 399,-119.5 399,-78.5 258,-78.5"/>
<text text-anchor="start" x="266" y="-107.5" font-family="Helvetica,sans-Serif" font-size="10.00">/home/tomek/trash/battle</text>
<text text-anchor="start" x="266" y="-96.5" font-family="Helvetica,sans-Serif" font-size="10.00">&#45;city/src/lib/game&#45;lib</text>
<text text-anchor="middle" x="328.5" y="-85.5" font-family="Helvetica,sans-Serif" font-size="10.00">/GameStatsIO.cpp</text>
</a>
</g>
</g>
<!-- Node1&#45;&gt;Node4 -->
<g id="edge3" class="edge">
<title>Node1&#45;&gt;Node4</title>
<path fill="none" stroke="midnightblue" d="M276.4,-149.49C286.78,-139.63 298.37,-128.63 307.97,-119.51"/>
<polygon fill="midnightblue" stroke="midnightblue" points="273.94,-147 269.1,-156.43 278.76,-152.08 273.94,-147"/>
</g>
<!-- Node5 -->
<g id="node5" class="node">
<title>Node5</title>
<g id="a_node5"><a xlink:href="_game_8h.html" target="_top" xlink:title=" ">
<polygon fill="none" stroke="black" points="417,-78.5 417,-119.5 558,-119.5 558,-78.5 417,-78.5"/>
<text text-anchor="start" x="425" y="-107.5" font-family="Helvetica,sans-Serif" font-size="10.00">/home/tomek/trash/battle</text>
<text text-anchor="start" x="425" y="-96.5" font-family="Helvetica,sans-Serif" font-size="10.00">&#45;city/src/lib/game&#45;lib</text>
<text text-anchor="middle" x="487.5" y="-85.5" font-family="Helvetica,sans-Serif" font-size="10.00">/include/Game.h</text>
</a>
</g>
</g>
<!-- Node1&#45;&gt;Node5 -->
<g id="edge4" class="edge">
<title>Node1&#45;&gt;Node5</title>
<path fill="none" stroke="midnightblue" d="M319.87,-153.3C353.7,-142.55 393.71,-129.82 426.16,-119.51"/>
<polygon fill="midnightblue" stroke="midnightblue" points="318.52,-150.06 310.05,-156.43 320.64,-156.73 318.52,-150.06"/>
</g>
<!-- Node5&#45;&gt;Node2 -->
<g id="edge7" class="edge">
<title>Node5&#45;&gt;Node2</title>
<path fill="none" stroke="midnightblue" d="M407.03,-78.03C292.1,-56.36 260.01,-63.63 149.5,-42 146.72,-41.46 143.9,-40.88 141.05,-40.27"/>
<polygon fill="midnightblue" stroke="midnightblue" points="406.44,-81.48 416.92,-79.92 407.76,-74.6 406.44,-81.48"/>
</g>
<!-- Node6 -->
<g id="node6" class="node">
<title>Node6</title>
<g id="a_node6"><a xlink:href="_active_event_handler_8cpp.html" target="_top" xlink:title=" ">
<polygon fill="none" stroke="black" points="159,-0.5 159,-41.5 300,-41.5 300,-0.5 159,-0.5"/>
<text text-anchor="start" x="167" y="-29.5" font-family="Helvetica,sans-Serif" font-size="10.00">/home/tomek/trash/battle</text>
<text text-anchor="start" x="167" y="-18.5" font-family="Helvetica,sans-Serif" font-size="10.00">&#45;city/src/lib/game&#45;lib</text>
<text text-anchor="middle" x="229.5" y="-7.5" font-family="Helvetica,sans-Serif" font-size="10.00">/ActiveEventHandler.cpp</text>
</a>
</g>
</g>
<!-- Node5&#45;&gt;Node6 -->
<g id="edge5" class="edge">
<title>Node5&#45;&gt;Node6</title>
<path fill="none" stroke="midnightblue" d="M411.39,-75.58C374.67,-64.76 331.04,-51.91 295.72,-41.51"/>
<polygon fill="midnightblue" stroke="midnightblue" points="410.48,-78.96 421.06,-78.43 412.46,-72.24 410.48,-78.96"/>
</g>
<!-- Node7 -->
<g id="node7" class="node">
<title>Node7</title>
<g id="a_node7"><a xlink:href="_finished_event_handler_8cpp.html" target="_top" xlink:title=" ">
<polygon fill="none" stroke="black" points="318.5,-0.5 318.5,-41.5 464.5,-41.5 464.5,-0.5 318.5,-0.5"/>
<text text-anchor="start" x="326.5" y="-29.5" font-family="Helvetica,sans-Serif" font-size="10.00">/home/tomek/trash/battle</text>
<text text-anchor="start" x="326.5" y="-18.5" font-family="Helvetica,sans-Serif" font-size="10.00">&#45;city/src/lib/game&#45;lib</text>
<text text-anchor="middle" x="391.5" y="-7.5" font-family="Helvetica,sans-Serif" font-size="10.00">/FinishedEventHandler.cpp</text>
</a>
</g>
</g>
<!-- Node5&#45;&gt;Node7 -->
<g id="edge6" class="edge">
<title>Node5&#45;&gt;Node7</title>
<path fill="none" stroke="midnightblue" d="M454.74,-72.06C442.1,-62.06 427.88,-50.8 416.14,-41.51"/>
<polygon fill="midnightblue" stroke="midnightblue" points="452.76,-74.97 462.78,-78.43 457.11,-69.48 452.76,-74.97"/>
</g>
<!-- Node8 -->
<g id="node8" class="node">
<title>Node8</title>
<g id="a_node8"><a xlink:href="_menu_event_handler_8cpp.html" target="_top" xlink:title=" ">
<polygon fill="none" stroke="black" points="483,-0.5 483,-41.5 624,-41.5 624,-0.5 483,-0.5"/>
<text text-anchor="start" x="491" y="-29.5" font-family="Helvetica,sans-Serif" font-size="10.00">/home/tomek/trash/battle</text>
<text text-anchor="start" x="491" y="-18.5" font-family="Helvetica,sans-Serif" font-size="10.00">&#45;city/src/lib/game&#45;lib</text>
<text text-anchor="middle" x="553.5" y="-7.5" font-family="Helvetica,sans-Serif" font-size="10.00">/MenuEventHandler.cpp</text>
</a>
</g>
</g>
<!-- Node5&#45;&gt;Node8 -->
<g id="edge8" class="edge">
<title>Node5&#45;&gt;Node8</title>
<path fill="none" stroke="midnightblue" d="M511.27,-70.63C519.64,-60.99 528.87,-50.36 536.56,-41.51"/>
<polygon fill="midnightblue" stroke="midnightblue" points="508.41,-68.58 504.5,-78.43 513.7,-73.17 508.41,-68.58"/>
</g>
<!-- Node9 -->
<g id="node9" class="node">
<title>Node9</title>
<g id="a_node9"><a xlink:href="_pause_event_handler_8cpp.html" target="_top" xlink:title=" ">
<polygon fill="none" stroke="black" points="642,-0.5 642,-41.5 783,-41.5 783,-0.5 642,-0.5"/>
<text text-anchor="start" x="650" y="-29.5" font-family="Helvetica,sans-Serif" font-size="10.00">/home/tomek/trash/battle</text>
<text text-anchor="start" x="650" y="-18.5" font-family="Helvetica,sans-Serif" font-size="10.00">&#45;city/src/lib/game&#45;lib</text>
<text text-anchor="middle" x="712.5" y="-7.5" font-family="Helvetica,sans-Serif" font-size="10.00">/PauseEventHandler.cpp</text>
</a>
</g>
</g>
<!-- Node5&#45;&gt;Node9 -->
<g id="edge9" class="edge">
<title>Node5&#45;&gt;Node9</title>
<path fill="none" stroke="midnightblue" d="M555.1,-75.17C586.87,-64.44 624.34,-51.78 654.75,-41.51"/>
<polygon fill="midnightblue" stroke="midnightblue" points="553.8,-71.91 545.44,-78.43 556.04,-78.54 553.8,-71.91"/>
</g>
<!-- Node10 -->
<g id="node10" class="node">
<title>Node10</title>
<g id="a_node10"><a xlink:href="tanks_8cpp.html" target="_top" xlink:title=" ">
<polygon fill="none" stroke="black" points="801,-6 801,-36 942,-36 942,-6 801,-6"/>
<text text-anchor="start" x="809" y="-24" font-family="Helvetica,sans-Serif" font-size="10.00">/home/tomek/trash/battle</text>
<text text-anchor="middle" x="871.5" y="-13" font-family="Helvetica,sans-Serif" font-size="10.00">&#45;city/src/tanks.cpp</text>
</a>
</g>
</g>
<!-- Node5&#45;&gt;Node10 -->
<g id="edge10" class="edge">
<title>Node5&#45;&gt;Node10</title>
<path fill="none" stroke="midnightblue" d="M568.08,-84.71C629.74,-74.17 716.76,-58.52 792.5,-42 800.79,-40.19 809.54,-38.13 818.07,-36.04"/>
<polygon fill="midnightblue" stroke="midnightblue" points="567.3,-81.29 558.03,-86.42 568.47,-88.19 567.3,-81.29"/>
</g>
</g>
</svg>
        <g id="navigator" transform="translate(0 0)" fill="#404254">
                <rect fill="#f2f5e9" fill-opacity="0.5" stroke="#606060" stroke-width=".5" x="0" y="0" width="60" height="60"/>
                <use id="zoomplus" xlink:href="#zoomPlus" x="17" y="9" onmousedown="handleZoom(evt,'in')"/>
                <use id="zoomminus" xlink:href="#zoomMin" x="42" y="9" onmousedown="handleZoom(evt,'out')"/>
                <use id="reset" xlink:href="#resetDef" x="30" y="36" onmousedown="handleReset()"/>
                <g id="arrowUp" xlink:href="#dirArrow" transform="translate(30 24)" onmousedown="handlePan(0,-1)">
                  <use xlink:href="#rim" fill="#404040">
                        <set attributeName="fill" to="#808080" begin="arrowUp.mouseover" end="arrowUp.mouseout"/>
                  </use>
                  <path fill="none" stroke="white" stroke-width="1.5" d="M0,-3.0v7 M-2.5,-0.5L0,-3.0L2.5,-0.5"/>
                </g>
                <g id="arrowRight" xlink:href="#dirArrow" transform="rotate(90) translate(36 -43)" onmousedown="handlePan(1,0)">
                  <use xlink:href="#rim" fill="#404040">
                        <set attributeName="fill" to="#808080" begin="arrowRight.mouseover" end="arrowRight.mouseout"/>
                  </use>
                  <path fill="none" stroke="white" stroke-width="1.5" d="M0,-3.0v7 M-2.5,-0.5L0,-3.0L2.5,-0.5"/>
                </g>
                <g id="arrowDown" xlink:href="#dirArrow" transform="rotate(180) translate(-30 -48)" onmousedown="handlePan(0,1)">
                  <use xlink:href="#rim" fill="#404040">
                        <set attributeName="fill" to="#808080" begin="arrowDown.mouseover" end="arrowDown.mouseout"/>
                  </use>
                  <path fill="none" stroke="white" stroke-width="1.5" d="M0,-3.0v7 M-2.5,-0.5L0,-3.0L2.5,-0.5"/>
                </g>
                <g id="arrowLeft" xlink:href="#dirArrow" transform="rotate(270) translate(-36 17)" onmousedown="handlePan(-1,0)">
                  <use xlink:href="#rim" fill="#404040">
                        <set attributeName="fill" to="#808080" begin="arrowLeft.mouseover" end="arrowLeft.mouseout"/>
                  </use>
                  <path fill="none" stroke="white" stroke-width="1.5" d="M0,-3.0v7 M-2.5,-0.5L0,-3.0L2.5,-0.5"/>
                </g>
        </g>
        <svg viewBox="0 0 15 15" width="100%" height="30px" preserveAspectRatio="xMaxYMin meet">
         <g id="arrow_out" transform="scale(0.3 0.3)">
          <a xlink:href="_game_stats_i_o_8h__dep__incl_org.svg" target="_base">
           <rect id="button" ry="5" rx="5" y="6" x="6" height="38" width="38"
                fill="#f2f5e9" fill-opacity="0.5" stroke="#606060" stroke-width="1.0"/>
           <path id="arrow"
             d="M 11.500037,31.436501 C 11.940474,20.09759 22.043105,11.32322 32.158766,21.979434 L 37.068811,17.246167 C 37.068811,17.246167 37.088388,32 37.088388,32 L 22.160133,31.978069 C 22.160133,31.978069 26.997745,27.140456 26.997745,27.140456 C 18.528582,18.264221 13.291696,25.230495 11.500037,31.436501 z"
             style="fill:#404040;"/>
          </a>
         </g>
        </svg>
</svg>
