<?xml version="1.0" encoding="UTF-8" standalone="no"?>
<!DOCTYPE svg PUBLIC "-//W3C//DTD SVG 1.1//EN"
 "http://www.w3.org/Graphics/SVG/1.1/DTD/svg11.dtd">
<!-- Generated by graphviz version 2.43.0 (0)
 -->
<!-- Title: /home/tomek/CLionProjects/proi/proi&#45;projekt/src/game&#45;lib/GameState.cpp Pages: 1 -->
<!--zoomable 665 -->
<svg id="main" version="1.1" xmlns="http://www.w3.org/2000/svg" xmlns:xlink="http://www.w3.org/1999/xlink" xml:space="preserve" onload="init(evt)">
<style type="text/css"><![CDATA[
.edge:hover path { stroke: red; }
.edge:hover polygon { stroke: red; fill: red; }
]]></style>
<script type="text/javascript"><![CDATA[
var edges = document.getElementsByTagName('g');
if (edges && edges.length) {
  for (var i=0;i<edges.length;i++) {
    if (edges[i].id.substr(0,4)=='edge') {
      edges[i].setAttribute('class','edge');
    }
  }
}
]]></script>
        <defs>
                <circle id="rim" cx="0" cy="0" r="7"/>
                <circle id="rim2" cx="0" cy="0" r="3.5"/>
                <g id="zoomPlus">
                        <use xlink:href="#rim" fill="#404040">
                                <set attributeName="fill" to="#808080" begin="zoomplus.mouseover" end="zoomplus.mouseout"/>
                        </use>
                        <path d="M-4,0h8M0,-4v8" fill="none" stroke="white" stroke-width="1.5" pointer-events="none"/>
                </g>
                <g id="zoomMin">
                        <use xlink:href="#rim" fill="#404040">
                                <set attributeName="fill" to="#808080" begin="zoomminus.mouseover" end="zoomminus.mouseout"/>
                        </use>
                        <path d="M-4,0h8" fill="none" stroke="white" stroke-width="1.5" pointer-events="none"/>
                </g>
                <g id="dirArrow">
                        <path fill="none" stroke="white" stroke-width="1.5" d="M0,-3.0v7 M-2.5,-0.5L0,-3.0L2.5,-0.5"/>
                </g>
               <g id="resetDef">
                       <use xlink:href="#rim2" fill="#404040">
                               <set attributeName="fill" to="#808080" begin="reset.mouseover" end="reset.mouseout"/>
                       </use>
               </g>
        </defs>

<script type="text/javascript">
var viewWidth = 904;
var viewHeight = 665;
var sectionId = 'dynsection-0';
</script>
<script xlink:href="svgpan.js"/>
<svg id="graph" class="graph">
<g id="viewport">
<title>/home/tomek/CLionProjects/proi/proi&#45;projekt/src/game&#45;lib/GameState.cpp</title>
<!-- Node1 -->
<g id="node1" class="node">
<title>Node1</title>
<g id="a_node1"><a xlink:title=" ">
<polygon fill="#bfbfbf" stroke="black" points="478.75,-615.5 478.75,-656.5 629.75,-656.5 629.75,-615.5 478.75,-615.5"/>
<text text-anchor="start" x="486.75" y="-644.5" font-family="Helvetica,sans-Serif" font-size="10.00">/home/tomek/CLionProjects</text>
<text text-anchor="start" x="486.75" y="-633.5" font-family="Helvetica,sans-Serif" font-size="10.00">/proi/proi&#45;projekt/src</text>
<text text-anchor="middle" x="554.25" y="-622.5" font-family="Helvetica,sans-Serif" font-size="10.00">/game&#45;lib/GameState.cpp</text>
</a>
</g>
</g>
<!-- Node2 -->
<g id="node2" class="node">
<title>Node2</title>
<g id="a_node2"><a xlink:href="_game_state_8h.html" target="_top" xlink:title=" ">
<polygon fill="none" stroke="black" points="538.75,-559.5 538.75,-578.5 657.75,-578.5 657.75,-559.5 538.75,-559.5"/>
<text text-anchor="middle" x="598.25" y="-566.5" font-family="Helvetica,sans-Serif" font-size="10.00">include/GameState.h</text>
</a>
</g>
</g>
<!-- Node1&#45;&gt;Node2 -->
<g id="edge1" class="edge">
<title>Node1&#45;&gt;Node2</title>
<path fill="none" stroke="midnightblue" d="M567.45,-615.5C573.55,-606.49 580.73,-595.89 586.62,-587.19"/>
<polygon fill="midnightblue" stroke="midnightblue" points="589.69,-588.9 592.39,-578.65 583.89,-584.97 589.69,-588.9"/>
</g>
<!-- Node4 -->
<g id="node4" class="node">
<title>Node4</title>
<g id="a_node4"><a xlink:href="_active_event_handler_8h.html" target="_top" xlink:title=" ">
<polygon fill="none" stroke="black" points="449.25,-503.5 449.25,-522.5 571.25,-522.5 571.25,-503.5 449.25,-503.5"/>
<text text-anchor="middle" x="510.25" y="-510.5" font-family="Helvetica,sans-Serif" font-size="10.00">ActiveEventHandler.h</text>
</a>
</g>
</g>
<!-- Node1&#45;&gt;Node4 -->
<g id="edge52" class="edge">
<title>Node1&#45;&gt;Node4</title>
<path fill="none" stroke="midnightblue" d="M544.68,-615.31C539.72,-604.7 533.77,-591.29 529.25,-579 523.55,-563.48 518.38,-545.4 514.88,-532.25"/>
<polygon fill="midnightblue" stroke="midnightblue" points="518.25,-531.33 512.35,-522.53 511.48,-533.09 518.25,-531.33"/>
</g>
<!-- Node24 -->
<g id="node24" class="node">
<title>Node24</title>
<g id="a_node24"><a xlink:href="_menu_event_handler_8h.html" target="_top" xlink:title=" ">
<polygon fill="none" stroke="black" points="313.25,-503.5 313.25,-522.5 431.25,-522.5 431.25,-503.5 313.25,-503.5"/>
<text text-anchor="middle" x="372.25" y="-510.5" font-family="Helvetica,sans-Serif" font-size="10.00">MenuEventHandler.h</text>
</a>
</g>
</g>
<!-- Node1&#45;&gt;Node24 -->
<g id="edge55" class="edge">
<title>Node1&#45;&gt;Node24</title>
<path fill="none" stroke="midnightblue" d="M524.6,-615.29C487.93,-590.91 426.38,-549.99 393.87,-528.38"/>
<polygon fill="midnightblue" stroke="midnightblue" points="395.41,-525.2 385.15,-522.57 391.54,-531.03 395.41,-525.2"/>
</g>
<!-- Node25 -->
<g id="node25" class="node">
<title>Node25</title>
<g id="a_node25"><a xlink:href="_pause_event_handler_8h.html" target="_top" xlink:title=" ">
<polygon fill="none" stroke="black" points="627.75,-503.5 627.75,-522.5 746.75,-522.5 746.75,-503.5 627.75,-503.5"/>
<text text-anchor="middle" x="687.25" y="-510.5" font-family="Helvetica,sans-Serif" font-size="10.00">PauseEventHandler.h</text>
</a>
</g>
</g>
<!-- Node1&#45;&gt;Node25 -->
<g id="edge54" class="edge">
<title>Node1&#45;&gt;Node25</title>
<path fill="none" stroke="midnightblue" d="M614.58,-615.4C633.3,-606.78 652.58,-594.91 666.25,-579 677.47,-565.94 682.72,-546.79 685.16,-532.65"/>
<polygon fill="midnightblue" stroke="midnightblue" points="688.65,-533 686.58,-522.61 681.72,-532.02 688.65,-533"/>
</g>
<!-- Node26 -->
<g id="node26" class="node">
<title>Node26</title>
<g id="a_node26"><a xlink:href="_finished_event_handler_8h.html" target="_top" xlink:title=" ">
<polygon fill="none" stroke="black" points="764.75,-503.5 764.75,-522.5 895.75,-522.5 895.75,-503.5 764.75,-503.5"/>
<text text-anchor="middle" x="830.25" y="-510.5" font-family="Helvetica,sans-Serif" font-size="10.00">FinishedEventHandler.h</text>
</a>
</g>
</g>
<!-- Node1&#45;&gt;Node26 -->
<g id="edge53" class="edge">
<title>Node1&#45;&gt;Node26</title>
<path fill="none" stroke="midnightblue" d="M601.1,-615.43C626.38,-604.79 658.09,-591.33 686.25,-579 726.89,-561.21 773.65,-539.96 802.58,-526.72"/>
<polygon fill="midnightblue" stroke="midnightblue" points="804.04,-529.9 811.67,-522.55 801.12,-523.53 804.04,-529.9"/>
</g>
<!-- Node27 -->
<g id="node27" class="node">
<title>Node27</title>
<g id="a_node27"><a xlink:href="_menu_8h.html" target="_top" xlink:title=" ">
<polygon fill="none" stroke="black" points="124.75,-324.5 124.75,-343.5 215.75,-343.5 215.75,-324.5 124.75,-324.5"/>
<text text-anchor="middle" x="170.25" y="-331.5" font-family="Helvetica,sans-Serif" font-size="10.00">include/Menu.h</text>
</a>
</g>
</g>
<!-- Node1&#45;&gt;Node27 -->
<g id="edge56" class="edge">
<title>Node1&#45;&gt;Node27</title>
<path fill="none" stroke="midnightblue" d="M478.51,-631.44C343.73,-623.01 76.25,-595.97 76.25,-514 76.25,-514 76.25,-514 76.25,-450.5 76.25,-405.71 119.3,-368.64 147.14,-349.36"/>
<polygon fill="midnightblue" stroke="midnightblue" points="149.19,-352.2 155.56,-343.74 145.3,-346.38 149.19,-352.2"/>
</g>
<!-- Node3 -->
<g id="node3" class="node">
<title>Node3</title>
<g id="a_node3"><a xlink:title=" ">
<polygon fill="none" stroke="#bfbfbf" points="235.25,-0.5 235.25,-19.5 293.25,-19.5 293.25,-0.5 235.25,-0.5"/>
<text text-anchor="middle" x="264.25" y="-7.5" font-family="Helvetica,sans-Serif" font-size="10.00">memory</text>
</a>
</g>
</g>
<!-- Node2&#45;&gt;Node3 -->
<g id="edge2" class="edge">
<title>Node2&#45;&gt;Node3</title>
<path fill="none" stroke="midnightblue" d="M599.25,-559.28C601.1,-546.09 606.07,-520.7 618.25,-503 632.97,-481.61 646.51,-485.95 664.25,-467 712.79,-415.17 754.25,-406.01 754.25,-335 754.25,-335 754.25,-335 754.25,-137.5 754.25,-77.37 702.05,-78.41 646.25,-56 584.6,-31.24 387.99,-17.78 303.47,-13.02"/>
<polygon fill="midnightblue" stroke="midnightblue" points="303.44,-9.51 293.27,-12.45 303.06,-16.5 303.44,-9.51"/>
</g>
<!-- Node2&#45;&gt;Node4 -->
<g id="edge3" class="edge">
<title>Node2&#45;&gt;Node4</title>
<path fill="none" stroke="midnightblue" d="M584.11,-559.32C570.38,-550.9 549.31,-537.97 533.19,-528.07"/>
<polygon fill="midnightblue" stroke="midnightblue" points="534.71,-524.9 524.35,-522.65 531.05,-530.87 534.71,-524.9"/>
</g>
<!-- Node2&#45;&gt;Node24 -->
<g id="edge41" class="edge">
<title>Node2&#45;&gt;Node24</title>
<path fill="none" stroke="midnightblue" d="M557.35,-559.44C516.3,-550.12 453.61,-535.18 412.72,-525"/>
<polygon fill="midnightblue" stroke="midnightblue" points="413.36,-521.55 402.81,-522.52 411.66,-528.34 413.36,-521.55"/>
</g>
<!-- Node2&#45;&gt;Node25 -->
<g id="edge45" class="edge">
<title>Node2&#45;&gt;Node25</title>
<path fill="none" stroke="midnightblue" d="M607.44,-559.32C619.72,-550.74 641.3,-537.49 659.03,-527.52"/>
<polygon fill="midnightblue" stroke="midnightblue" points="660.8,-530.54 667.88,-522.65 657.43,-524.41 660.8,-530.54"/>
</g>
<!-- Node2&#45;&gt;Node26 -->
<g id="edge49" class="edge">
<title>Node2&#45;&gt;Node26</title>
<path fill="none" stroke="midnightblue" d="M635.01,-559.44C675.31,-550.06 740.06,-534.99 783.84,-524.8"/>
<polygon fill="midnightblue" stroke="midnightblue" points="784.72,-528.19 793.66,-522.52 783.13,-521.37 784.72,-528.19"/>
</g>
<!-- Node4&#45;&gt;Node3 -->
<g id="edge4" class="edge">
<title>Node4&#45;&gt;Node3</title>
<path fill="none" stroke="midnightblue" d="M456.11,-503.49C332.13,-482.49 38.25,-423.39 38.25,-335 38.25,-335 38.25,-335 38.25,-137.5 38.25,-52.95 160.18,-24.36 224.92,-15.14"/>
<polygon fill="midnightblue" stroke="midnightblue" points="225.72,-18.56 235.17,-13.77 224.79,-11.62 225.72,-18.56"/>
</g>
<!-- Node5 -->
<g id="node5" class="node">
<title>Node5</title>
<g id="a_node5"><a xlink:href="_event_handler_8h.html" target="_top" xlink:title=" ">
<polygon fill="none" stroke="black" points="545.25,-436.5 545.25,-466.5 655.25,-466.5 655.25,-436.5 545.25,-436.5"/>
<text text-anchor="start" x="553.25" y="-454.5" font-family="Helvetica,sans-Serif" font-size="10.00">../../core&#45;lib/include</text>
<text text-anchor="middle" x="600.25" y="-443.5" font-family="Helvetica,sans-Serif" font-size="10.00">/EventHandler.h</text>
</a>
</g>
</g>
<!-- Node4&#45;&gt;Node5 -->
<g id="edge5" class="edge">
<title>Node4&#45;&gt;Node5</title>
<path fill="none" stroke="midnightblue" d="M523.15,-503.48C535.45,-495.34 554.43,-482.79 570.48,-472.18"/>
<polygon fill="midnightblue" stroke="midnightblue" points="572.63,-474.96 579.04,-466.52 568.77,-469.12 572.63,-474.96"/>
</g>
<!-- Node21 -->
<g id="node21" class="node">
<title>Node21</title>
<g id="a_node21"><a xlink:href="_event_queue_8h.html" target="_top" xlink:title=" ">
<polygon fill="none" stroke="black" points="115.25,-257.5 115.25,-287.5 225.25,-287.5 225.25,-257.5 115.25,-257.5"/>
<text text-anchor="start" x="123.25" y="-275.5" font-family="Helvetica,sans-Serif" font-size="10.00">../../core&#45;lib/include</text>
<text text-anchor="middle" x="170.25" y="-264.5" font-family="Helvetica,sans-Serif" font-size="10.00">/EventQueue.h</text>
</a>
</g>
</g>
<!-- Node4&#45;&gt;Node21 -->
<g id="edge34" class="edge">
<title>Node4&#45;&gt;Node21</title>
<path fill="none" stroke="midnightblue" d="M497.75,-503.23C448.8,-468.9 269.46,-343.09 198.97,-293.65"/>
<polygon fill="midnightblue" stroke="midnightblue" points="200.74,-290.61 190.55,-287.74 196.72,-296.34 200.74,-290.61"/>
</g>
<!-- Node23 -->
<g id="node23" class="node">
<title>Node23</title>
<g id="a_node23"><a xlink:href="_game_statistics_8h.html" target="_top" xlink:title=" ">
<polygon fill="none" stroke="black" points="314.25,-324.5 314.25,-343.5 414.25,-343.5 414.25,-324.5 314.25,-324.5"/>
<text text-anchor="middle" x="364.25" y="-331.5" font-family="Helvetica,sans-Serif" font-size="10.00">GameStatistics.h</text>
</a>
</g>
</g>
<!-- Node4&#45;&gt;Node23 -->
<g id="edge37" class="edge">
<title>Node4&#45;&gt;Node23</title>
<path fill="none" stroke="midnightblue" d="M503.21,-503.46C480.43,-475.85 408.45,-388.58 378.03,-351.71"/>
<polygon fill="midnightblue" stroke="midnightblue" points="380.63,-349.36 371.57,-343.87 375.23,-353.81 380.63,-349.36"/>
</g>
<!-- Node5&#45;&gt;Node3 -->
<g id="edge6" class="edge">
<title>Node5&#45;&gt;Node3</title>
<path fill="none" stroke="midnightblue" d="M631.03,-436.35C665.4,-418.19 716.25,-383.17 716.25,-335 716.25,-335 716.25,-335 716.25,-137.5 716.25,-52.15 413.56,-21.77 303.58,-13.56"/>
<polygon fill="midnightblue" stroke="midnightblue" points="303.79,-10.06 293.56,-12.83 303.28,-17.04 303.79,-10.06"/>
</g>
<!-- Node6 -->
<g id="node6" class="node">
<title>Node6</title>
<g id="a_node6"><a xlink:href="_event_8h.html" target="_top" xlink:title=" ">
<polygon fill="none" stroke="black" points="415.75,-263 415.75,-282 468.75,-282 468.75,-263 415.75,-263"/>
<text text-anchor="middle" x="442.25" y="-270" font-family="Helvetica,sans-Serif" font-size="10.00">Event.h</text>
</a>
</g>
</g>
<!-- Node5&#45;&gt;Node6 -->
<g id="edge7" class="edge">
<title>Node5&#45;&gt;Node6</title>
<path fill="none" stroke="midnightblue" d="M579.03,-436.45C552.28,-417.88 506.17,-382.93 476.25,-344 463.99,-328.05 454.54,-306.96 448.75,-292.02"/>
<polygon fill="midnightblue" stroke="midnightblue" points="451.94,-290.56 445.19,-282.39 445.37,-292.98 451.94,-290.56"/>
</g>
<!-- Node17 -->
<g id="node17" class="node">
<title>Node17</title>
<g id="a_node17"><a xlink:href="_event_publisher_8h.html" target="_top" xlink:title=" ">
<polygon fill="none" stroke="black" points="551.25,-380.5 551.25,-399.5 649.25,-399.5 649.25,-380.5 551.25,-380.5"/>
<text text-anchor="middle" x="600.25" y="-387.5" font-family="Helvetica,sans-Serif" font-size="10.00">EventPublisher.h</text>
</a>
</g>
</g>
<!-- Node5&#45;&gt;Node17 -->
<g id="edge25" class="edge">
<title>Node5&#45;&gt;Node17</title>
<path fill="none" stroke="midnightblue" d="M600.25,-436.4C600.25,-428.47 600.25,-418.46 600.25,-409.86"/>
<polygon fill="midnightblue" stroke="midnightblue" points="603.75,-409.66 600.25,-399.66 596.75,-409.66 603.75,-409.66"/>
</g>
<!-- Node6&#45;&gt;Node3 -->
<g id="edge10" class="edge">
<title>Node6&#45;&gt;Node3</title>
<path fill="none" stroke="midnightblue" d="M415.5,-270.05C358.14,-266.33 226.31,-254.26 199.25,-221 150.87,-161.52 218.45,-66.07 249.79,-27.73"/>
<polygon fill="midnightblue" stroke="midnightblue" points="252.81,-29.58 256.55,-19.66 247.44,-25.08 252.81,-29.58"/>
</g>
<!-- Node7 -->
<g id="node7" class="node">
<title>Node7</title>
<g id="a_node7"><a xlink:title=" ">
<polygon fill="none" stroke="#bfbfbf" points="374.75,-196 374.75,-215 439.75,-215 439.75,-196 374.75,-196"/>
<text text-anchor="middle" x="407.25" y="-203" font-family="Helvetica,sans-Serif" font-size="10.00">exception</text>
</a>
</g>
</g>
<!-- Node6&#45;&gt;Node7 -->
<g id="edge8" class="edge">
<title>Node6&#45;&gt;Node7</title>
<path fill="none" stroke="midnightblue" d="M437.53,-262.73C432.23,-252.89 423.49,-236.66 416.76,-224.16"/>
<polygon fill="midnightblue" stroke="midnightblue" points="419.72,-222.27 411.9,-215.13 413.56,-225.59 419.72,-222.27"/>
</g>
<!-- Node8 -->
<g id="node8" class="node">
<title>Node8</title>
<g id="a_node8"><a xlink:title=" ">
<polygon fill="none" stroke="#bfbfbf" points="458.25,-196 458.25,-215 502.25,-215 502.25,-196 458.25,-196"/>
<text text-anchor="middle" x="480.25" y="-203" font-family="Helvetica,sans-Serif" font-size="10.00">string</text>
</a>
</g>
</g>
<!-- Node6&#45;&gt;Node8 -->
<g id="edge9" class="edge">
<title>Node6&#45;&gt;Node8</title>
<path fill="none" stroke="midnightblue" d="M447.38,-262.73C453.19,-252.79 462.81,-236.34 470.14,-223.79"/>
<polygon fill="midnightblue" stroke="midnightblue" points="473.18,-225.53 475.21,-215.13 467.14,-221.99 473.18,-225.53"/>
</g>
<!-- Node9 -->
<g id="node9" class="node">
<title>Node9</title>
<g id="a_node9"><a xlink:title=" ">
<polygon fill="none" stroke="#bfbfbf" points="520.75,-196 520.75,-215 571.75,-215 571.75,-196 520.75,-196"/>
<text text-anchor="middle" x="546.25" y="-203" font-family="Helvetica,sans-Serif" font-size="10.00">variant</text>
</a>
</g>
</g>
<!-- Node6&#45;&gt;Node9 -->
<g id="edge11" class="edge">
<title>Node6&#45;&gt;Node9</title>
<path fill="none" stroke="midnightblue" d="M456.28,-262.73C473.59,-251.92 503.24,-233.38 523.75,-220.57"/>
<polygon fill="midnightblue" stroke="midnightblue" points="525.82,-223.4 532.45,-215.13 522.11,-217.46 525.82,-223.4"/>
</g>
<!-- Node10 -->
<g id="node10" class="node">
<title>Node10</title>
<g id="a_node10"><a xlink:title=" ">
<polygon fill="none" stroke="#bfbfbf" points="590.25,-196 590.25,-215 650.25,-215 650.25,-196 590.25,-196"/>
<text text-anchor="middle" x="620.25" y="-203" font-family="Helvetica,sans-Serif" font-size="10.00">iostream</text>
</a>
</g>
</g>
<!-- Node6&#45;&gt;Node10 -->
<g id="edge12" class="edge">
<title>Node6&#45;&gt;Node10</title>
<path fill="none" stroke="midnightblue" d="M465.89,-262.87C496.96,-251.52 551.72,-231.52 586.97,-218.65"/>
<polygon fill="midnightblue" stroke="midnightblue" points="588.61,-221.78 596.8,-215.06 586.21,-215.21 588.61,-221.78"/>
</g>
<!-- Node11 -->
<g id="node11" class="node">
<title>Node11</title>
<g id="a_node11"><a xlink:title=" ">
<polygon fill="none" stroke="#bfbfbf" points="448.25,-129 448.25,-148 504.25,-148 504.25,-129 448.25,-129"/>
<text text-anchor="middle" x="476.25" y="-136" font-family="Helvetica,sans-Serif" font-size="10.00">optional</text>
</a>
</g>
</g>
<!-- Node6&#45;&gt;Node11 -->
<g id="edge13" class="edge">
<title>Node6&#45;&gt;Node11</title>
<path fill="none" stroke="midnightblue" d="M417.96,-262.92C399.83,-255.07 376.34,-241.54 365.25,-221 358.7,-208.88 357.79,-201.59 365.25,-190 369.9,-182.77 413.33,-164.39 444.46,-151.91"/>
<polygon fill="midnightblue" stroke="midnightblue" points="446.07,-155.04 454.07,-148.09 443.49,-148.53 446.07,-155.04"/>
</g>
<!-- Node12 -->
<g id="node12" class="node">
<title>Node12</title>
<g id="a_node12"><a xlink:href="_entity_8h.html" target="_top" xlink:title=" ">
<polygon fill="none" stroke="black" points="382.25,-56.5 382.25,-86.5 492.25,-86.5 492.25,-56.5 382.25,-56.5"/>
<text text-anchor="start" x="390.25" y="-74.5" font-family="Helvetica,sans-Serif" font-size="10.00">../../tank&#45;lib/include</text>
<text text-anchor="middle" x="437.25" y="-63.5" font-family="Helvetica,sans-Serif" font-size="10.00">/Entity.h</text>
</a>
</g>
</g>
<!-- Node6&#45;&gt;Node12 -->
<g id="edge14" class="edge">
<title>Node6&#45;&gt;Node12</title>
<path fill="none" stroke="midnightblue" d="M469.08,-265.48C526.8,-252.5 657.75,-222.89 659.25,-221 710.3,-156.7 584.55,-110.31 502.13,-87.81"/>
<polygon fill="midnightblue" stroke="midnightblue" points="502.88,-84.39 492.31,-85.19 501.07,-91.15 502.88,-84.39"/>
</g>
<!-- Node13 -->
<g id="node13" class="node">
<title>Node13</title>
<g id="a_node13"><a xlink:href="_tank_8h.html" target="_top" xlink:title=" ">
<polygon fill="none" stroke="black" points="208.25,-190.5 208.25,-220.5 318.25,-220.5 318.25,-190.5 208.25,-190.5"/>
<text text-anchor="start" x="216.25" y="-208.5" font-family="Helvetica,sans-Serif" font-size="10.00">../../tank&#45;lib/include</text>
<text text-anchor="middle" x="263.25" y="-197.5" font-family="Helvetica,sans-Serif" font-size="10.00">/Tank.h</text>
</a>
</g>
</g>
<!-- Node6&#45;&gt;Node13 -->
<g id="edge15" class="edge">
<title>Node6&#45;&gt;Node13</title>
<path fill="none" stroke="midnightblue" d="M418.48,-262.87C391.27,-252.99 346,-236.55 311.35,-223.97"/>
<polygon fill="midnightblue" stroke="midnightblue" points="312.48,-220.65 301.88,-220.53 310.09,-227.23 312.48,-220.65"/>
</g>
<!-- Node13&#45;&gt;Node3 -->
<g id="edge16" class="edge">
<title>Node13&#45;&gt;Node3</title>
<path fill="none" stroke="midnightblue" d="M257.62,-190.42C247.77,-163.86 229.54,-104.65 241.25,-56 243.56,-46.42 248.27,-36.58 252.83,-28.56"/>
<polygon fill="midnightblue" stroke="midnightblue" points="255.94,-30.17 258.15,-19.81 249.96,-26.54 255.94,-30.17"/>
</g>
<!-- Node13&#45;&gt;Node11 -->
<g id="edge17" class="edge">
<title>Node13&#45;&gt;Node11</title>
<path fill="none" stroke="midnightblue" d="M313.19,-190.4C347.39,-180.58 393.71,-166.98 434.25,-154 436.85,-153.17 439.53,-152.29 442.22,-151.39"/>
<polygon fill="midnightblue" stroke="midnightblue" points="443.53,-154.64 451.88,-148.12 441.29,-148.01 443.53,-154.64"/>
</g>
<!-- Node13&#45;&gt;Node12 -->
<g id="edge21" class="edge">
<title>Node13&#45;&gt;Node12</title>
<path fill="none" stroke="midnightblue" d="M318.43,-194.97C346.13,-187.75 378.54,-175.28 401.25,-154 417.67,-138.62 427.05,-114.4 432.09,-96.36"/>
<polygon fill="midnightblue" stroke="midnightblue" points="435.51,-97.12 434.58,-86.56 428.73,-95.4 435.51,-97.12"/>
</g>
<!-- Node14 -->
<g id="node14" class="node">
<title>Node14</title>
<g id="a_node14"><a xlink:href="_simple_subscriber_8h.html" target="_top" xlink:title=" ">
<polygon fill="none" stroke="black" points="250.75,-56.5 250.75,-86.5 363.75,-86.5 363.75,-56.5 250.75,-56.5"/>
<text text-anchor="start" x="258.75" y="-74.5" font-family="Helvetica,sans-Serif" font-size="10.00">../../core&#45;lib/include</text>
<text text-anchor="middle" x="307.25" y="-63.5" font-family="Helvetica,sans-Serif" font-size="10.00">/SimpleSubscriber.h</text>
</a>
</g>
</g>
<!-- Node13&#45;&gt;Node14 -->
<g id="edge18" class="edge">
<title>Node13&#45;&gt;Node14</title>
<path fill="none" stroke="midnightblue" d="M264.68,-190.3C266.65,-173.74 270.94,-145.76 279.25,-123 282.7,-113.56 287.74,-103.77 292.6,-95.35"/>
<polygon fill="midnightblue" stroke="midnightblue" points="295.76,-96.89 297.91,-86.51 289.76,-93.28 295.76,-96.89"/>
</g>
<!-- Node16 -->
<g id="node16" class="node">
<title>Node16</title>
<g id="a_node16"><a xlink:href="_bot_8h.html" target="_top" xlink:title=" ">
<polygon fill="none" stroke="black" points="288.25,-123.5 288.25,-153.5 392.25,-153.5 392.25,-123.5 288.25,-123.5"/>
<text text-anchor="start" x="296.25" y="-141.5" font-family="Helvetica,sans-Serif" font-size="10.00">../../bot&#45;lib/include</text>
<text text-anchor="middle" x="340.25" y="-130.5" font-family="Helvetica,sans-Serif" font-size="10.00">/Bot.h</text>
</a>
</g>
</g>
<!-- Node13&#45;&gt;Node16 -->
<g id="edge22" class="edge">
<title>Node13&#45;&gt;Node16</title>
<path fill="none" stroke="midnightblue" d="M279.96,-190.4C290.45,-181.54 304.17,-169.96 315.86,-160.09"/>
<polygon fill="midnightblue" stroke="midnightblue" points="318.19,-162.7 323.58,-153.58 313.68,-157.35 318.19,-162.7"/>
</g>
<!-- Node14&#45;&gt;Node3 -->
<g id="edge20" class="edge">
<title>Node14&#45;&gt;Node3</title>
<path fill="none" stroke="midnightblue" d="M297.06,-56.4C290.88,-47.84 282.95,-36.87 276.43,-27.86"/>
<polygon fill="midnightblue" stroke="midnightblue" points="279.2,-25.71 270.51,-19.66 273.53,-29.81 279.2,-25.71"/>
</g>
<!-- Node15 -->
<g id="node15" class="node">
<title>Node15</title>
<g id="a_node15"><a xlink:title=" ">
<polygon fill="none" stroke="#bfbfbf" points="844.75,-0.5 844.75,-19.5 891.75,-19.5 891.75,-0.5 844.75,-0.5"/>
<text text-anchor="middle" x="868.25" y="-7.5" font-family="Helvetica,sans-Serif" font-size="10.00">vector</text>
</a>
</g>
</g>
<!-- Node14&#45;&gt;Node15 -->
<g id="edge19" class="edge">
<title>Node14&#45;&gt;Node15</title>
<path fill="none" stroke="midnightblue" d="M364.05,-57.55C367.15,-56.99 370.24,-56.47 373.25,-56 545.66,-29.33 754.48,-16.72 834.67,-12.59"/>
<polygon fill="midnightblue" stroke="midnightblue" points="834.87,-16.09 844.68,-12.09 834.51,-9.1 834.87,-16.09"/>
</g>
<!-- Node16&#45;&gt;Node12 -->
<g id="edge23" class="edge">
<title>Node16&#45;&gt;Node12</title>
<path fill="none" stroke="midnightblue" d="M361.3,-123.4C374.9,-114.28 392.79,-102.29 407.8,-92.24"/>
<polygon fill="midnightblue" stroke="midnightblue" points="409.89,-95.05 416.24,-86.58 405.99,-89.24 409.89,-95.05"/>
</g>
<!-- Node16&#45;&gt;Node14 -->
<g id="edge24" class="edge">
<title>Node16&#45;&gt;Node14</title>
<path fill="none" stroke="midnightblue" d="M333.09,-123.4C328.98,-115.3 323.72,-104.94 319.02,-95.69"/>
<polygon fill="midnightblue" stroke="midnightblue" points="322.05,-93.91 314.4,-86.58 315.8,-97.08 322.05,-93.91"/>
</g>
<!-- Node17&#45;&gt;Node6 -->
<g id="edge28" class="edge">
<title>Node17&#45;&gt;Node6</title>
<path fill="none" stroke="midnightblue" d="M571.76,-380.37C550.39,-372.97 521.17,-360.84 499.25,-344 480.02,-329.23 463.3,-306.71 453.03,-291.12"/>
<polygon fill="midnightblue" stroke="midnightblue" points="455.82,-288.99 447.5,-282.43 449.91,-292.75 455.82,-288.99"/>
</g>
<!-- Node17&#45;&gt;Node15 -->
<g id="edge27" class="edge">
<title>Node17&#45;&gt;Node15</title>
<path fill="none" stroke="midnightblue" d="M612.68,-380.49C658.02,-348.55 814.5,-230.34 865.25,-87 871.85,-68.37 871.76,-45.55 870.54,-29.8"/>
<polygon fill="midnightblue" stroke="midnightblue" points="874.01,-29.35 869.54,-19.75 867.05,-30.04 874.01,-29.35"/>
</g>
<!-- Node18 -->
<g id="node18" class="node">
<title>Node18</title>
<g id="a_node18"><a xlink:title=" ">
<polygon fill="none" stroke="#bfbfbf" points="650.25,-263 650.25,-282 688.25,-282 688.25,-263 650.25,-263"/>
<text text-anchor="middle" x="669.25" y="-270" font-family="Helvetica,sans-Serif" font-size="10.00">map</text>
</a>
</g>
</g>
<!-- Node17&#45;&gt;Node18 -->
<g id="edge26" class="edge">
<title>Node17&#45;&gt;Node18</title>
<path fill="none" stroke="midnightblue" d="M605.44,-380.32C616.73,-361.42 643.71,-316.25 658.72,-291.12"/>
<polygon fill="midnightblue" stroke="midnightblue" points="661.88,-292.66 664,-282.28 655.87,-289.07 661.88,-292.66"/>
</g>
<!-- Node19 -->
<g id="node19" class="node">
<title>Node19</title>
<g id="a_node19"><a xlink:href="_event_subscriber_8h.html" target="_top" xlink:title=" ">
<polygon fill="none" stroke="black" points="508.25,-324.5 508.25,-343.5 612.25,-343.5 612.25,-324.5 508.25,-324.5"/>
<text text-anchor="middle" x="560.25" y="-331.5" font-family="Helvetica,sans-Serif" font-size="10.00">EventSubscriber.h</text>
</a>
</g>
</g>
<!-- Node17&#45;&gt;Node19 -->
<g id="edge29" class="edge">
<title>Node17&#45;&gt;Node19</title>
<path fill="none" stroke="midnightblue" d="M593.65,-380.08C588,-372.46 579.71,-361.26 572.8,-351.94"/>
<polygon fill="midnightblue" stroke="midnightblue" points="575.5,-349.7 566.73,-343.75 569.87,-353.87 575.5,-349.7"/>
</g>
<!-- Node19&#45;&gt;Node6 -->
<g id="edge33" class="edge">
<title>Node19&#45;&gt;Node6</title>
<path fill="none" stroke="midnightblue" d="M543.34,-324.48C523.72,-314.58 491.12,-298.14 468.26,-286.62"/>
<polygon fill="midnightblue" stroke="midnightblue" points="469.63,-283.39 459.13,-282.01 466.48,-289.64 469.63,-283.39"/>
</g>
<!-- Node19&#45;&gt;Node15 -->
<g id="edge31" class="edge">
<title>Node19&#45;&gt;Node15</title>
<path fill="none" stroke="midnightblue" d="M569.09,-324.4C583.81,-310.13 614.41,-280.79 641.25,-257 729.31,-178.93 778.8,-184.8 844.25,-87 856.01,-69.43 862.28,-45.77 865.42,-29.54"/>
<polygon fill="midnightblue" stroke="midnightblue" points="868.88,-30.11 867.13,-19.66 861.98,-28.92 868.88,-30.11"/>
</g>
<!-- Node19&#45;&gt;Node18 -->
<g id="edge30" class="edge">
<title>Node19&#45;&gt;Node18</title>
<path fill="none" stroke="midnightblue" d="M575.87,-324.48C593.84,-314.67 623.57,-298.43 644.66,-286.92"/>
<polygon fill="midnightblue" stroke="midnightblue" points="646.56,-289.87 653.66,-282.01 643.21,-283.73 646.56,-289.87"/>
</g>
<!-- Node20 -->
<g id="node20" class="node">
<title>Node20</title>
<g id="a_node20"><a xlink:title=" ">
<polygon fill="none" stroke="#bfbfbf" points="516.25,-263 516.25,-282 548.25,-282 548.25,-263 516.25,-263"/>
<text text-anchor="middle" x="532.25" y="-270" font-family="Helvetica,sans-Serif" font-size="10.00">list</text>
</a>
</g>
</g>
<!-- Node19&#45;&gt;Node20 -->
<g id="edge32" class="edge">
<title>Node19&#45;&gt;Node20</title>
<path fill="none" stroke="midnightblue" d="M556.24,-324.48C552.16,-315.82 545.73,-302.15 540.55,-291.15"/>
<polygon fill="midnightblue" stroke="midnightblue" points="543.68,-289.57 536.26,-282.01 537.35,-292.55 543.68,-289.57"/>
</g>
<!-- Node21&#45;&gt;Node3 -->
<g id="edge36" class="edge">
<title>Node21&#45;&gt;Node3</title>
<path fill="none" stroke="midnightblue" d="M135.56,-257.34C120.29,-249.15 103.88,-237.21 95.25,-221 88.78,-208.84 91.93,-203.37 95.25,-190 111.51,-124.59 117.26,-102.29 166.25,-56 182.9,-40.27 206.01,-29.3 225.61,-22.13"/>
<polygon fill="midnightblue" stroke="midnightblue" points="226.89,-25.39 235.2,-18.82 224.61,-18.78 226.89,-25.39"/>
</g>
<!-- Node22 -->
<g id="node22" class="node">
<title>Node22</title>
<g id="a_node22"><a xlink:title=" ">
<polygon fill="none" stroke="#bfbfbf" points="104.75,-196 104.75,-215 151.75,-215 151.75,-196 104.75,-196"/>
<text text-anchor="middle" x="128.25" y="-203" font-family="Helvetica,sans-Serif" font-size="10.00">queue</text>
</a>
</g>
</g>
<!-- Node21&#45;&gt;Node22 -->
<g id="edge35" class="edge">
<title>Node21&#45;&gt;Node22</title>
<path fill="none" stroke="midnightblue" d="M161.14,-257.4C154.78,-247.56 146.26,-234.38 139.49,-223.89"/>
<polygon fill="midnightblue" stroke="midnightblue" points="142.24,-221.69 133.87,-215.19 136.36,-225.49 142.24,-221.69"/>
</g>
<!-- Node23&#45;&gt;Node6 -->
<g id="edge40" class="edge">
<title>Node23&#45;&gt;Node6</title>
<path fill="none" stroke="midnightblue" d="M375.43,-324.48C387.82,-315.02 408.04,-299.6 423,-288.19"/>
<polygon fill="midnightblue" stroke="midnightblue" points="425.27,-290.86 431.1,-282.01 421.02,-285.29 425.27,-290.86"/>
</g>
<!-- Node23&#45;&gt;Node20 -->
<g id="edge38" class="edge">
<title>Node23&#45;&gt;Node20</title>
<path fill="none" stroke="midnightblue" d="M388.32,-324.48C419.6,-313.4 473.99,-294.13 506.21,-282.72"/>
<polygon fill="midnightblue" stroke="midnightblue" points="507.57,-285.95 515.83,-279.32 505.23,-279.36 507.57,-285.95"/>
</g>
<!-- Node23&#45;&gt;Node21 -->
<g id="edge39" class="edge">
<title>Node23&#45;&gt;Node21</title>
<path fill="none" stroke="midnightblue" d="M336.46,-324.48C307.73,-315.66 262.09,-301.67 225.91,-290.57"/>
<polygon fill="midnightblue" stroke="midnightblue" points="226.56,-287.11 215.97,-287.52 224.51,-293.8 226.56,-287.11"/>
</g>
<!-- Node24&#45;&gt;Node2 -->
<g id="edge44" class="edge">
<title>Node24&#45;&gt;Node2</title>
<path fill="none" stroke="midnightblue" d="M412.97,-522.52C453.97,-531.82 516.65,-546.76 557.61,-556.96"/>
<polygon fill="midnightblue" stroke="midnightblue" points="556.98,-560.41 567.53,-559.44 558.68,-553.62 556.98,-560.41"/>
</g>
<!-- Node24&#45;&gt;Node3 -->
<g id="edge42" class="edge">
<title>Node24&#45;&gt;Node3</title>
<path fill="none" stroke="midnightblue" d="M313.18,-510.39C256.48,-506.99 169.48,-496.84 100.25,-467 48.99,-444.91 0.25,-446.82 0.25,-391 0.25,-391 0.25,-391 0.25,-137.5 0.25,-99.74 -3.76,-81.32 24.25,-56 53.18,-29.86 164.46,-18.05 224.8,-13.47"/>
<polygon fill="midnightblue" stroke="midnightblue" points="225.37,-16.94 235.09,-12.73 224.86,-9.96 225.37,-16.94"/>
</g>
<!-- Node24&#45;&gt;Node5 -->
<g id="edge43" class="edge">
<title>Node24&#45;&gt;Node5</title>
<path fill="none" stroke="midnightblue" d="M404.92,-503.48C439.19,-494.53 493.92,-480.25 536.74,-469.07"/>
<polygon fill="midnightblue" stroke="midnightblue" points="537.72,-472.43 546.52,-466.52 535.96,-465.66 537.72,-472.43"/>
</g>
<!-- Node25&#45;&gt;Node2 -->
<g id="edge48" class="edge">
<title>Node25&#45;&gt;Node2</title>
<path fill="none" stroke="midnightblue" d="M678.1,-522.65C665.83,-531.23 644.26,-544.48 626.52,-554.45"/>
<polygon fill="midnightblue" stroke="midnightblue" points="624.74,-551.44 617.67,-559.32 628.11,-557.57 624.74,-551.44"/>
</g>
<!-- Node25&#45;&gt;Node3 -->
<g id="edge46" class="edge">
<title>Node25&#45;&gt;Node3</title>
<path fill="none" stroke="midnightblue" d="M703.2,-503.38C732.57,-486.19 792.25,-444.68 792.25,-391 792.25,-391 792.25,-391 792.25,-137.5 792.25,-99.74 797.45,-79.94 768.25,-56 732.59,-26.76 416.36,-15.21 303.8,-12.01"/>
<polygon fill="midnightblue" stroke="midnightblue" points="303.66,-8.5 293.56,-11.72 303.46,-15.5 303.66,-8.5"/>
</g>
<!-- Node25&#45;&gt;Node5 -->
<g id="edge47" class="edge">
<title>Node25&#45;&gt;Node5</title>
<path fill="none" stroke="midnightblue" d="M674.79,-503.48C662.89,-495.34 644.54,-482.79 629.02,-472.18"/>
<polygon fill="midnightblue" stroke="midnightblue" points="630.99,-469.28 620.76,-466.52 627.03,-475.06 630.99,-469.28"/>
</g>
<!-- Node26&#45;&gt;Node3 -->
<g id="edge50" class="edge">
<title>Node26&#45;&gt;Node3</title>
<path fill="none" stroke="midnightblue" d="M830.25,-503.49C830.25,-483.74 830.25,-433.22 830.25,-391 830.25,-391 830.25,-391 830.25,-137.5 830.25,-97.53 825.01,-78.89 792.25,-56 752.44,-28.19 419.08,-15.64 303.51,-12.1"/>
<polygon fill="midnightblue" stroke="midnightblue" points="303.44,-8.59 293.34,-11.79 303.23,-15.59 303.44,-8.59"/>
</g>
<!-- Node26&#45;&gt;Node5 -->
<g id="edge51" class="edge">
<title>Node26&#45;&gt;Node5</title>
<path fill="none" stroke="midnightblue" d="M797.3,-503.48C762.73,-494.53 707.51,-480.25 664.32,-469.07"/>
<polygon fill="midnightblue" stroke="midnightblue" points="665.02,-465.64 654.46,-466.52 663.26,-472.42 665.02,-465.64"/>
</g>
<!-- Node27&#45;&gt;Node6 -->
<g id="edge58" class="edge">
<title>Node27&#45;&gt;Node6</title>
<path fill="none" stroke="midnightblue" d="M209.22,-324.48C261.72,-312.99 354.46,-292.7 405.69,-281.5"/>
<polygon fill="midnightblue" stroke="midnightblue" points="406.64,-284.87 415.66,-279.32 405.15,-278.03 406.64,-284.87"/>
</g>
<!-- Node27&#45;&gt;Node21 -->
<g id="edge57" class="edge">
<title>Node27&#45;&gt;Node21</title>
<path fill="none" stroke="midnightblue" d="M170.25,-324.48C170.25,-317.47 170.25,-307.19 170.25,-297.7"/>
<polygon fill="midnightblue" stroke="midnightblue" points="173.75,-297.52 170.25,-287.52 166.75,-297.52 173.75,-297.52"/>
</g>
</g>
</svg>
        <g id="navigator" transform="translate(0 0)" fill="#404254">
                <rect fill="#f2f5e9" fill-opacity="0.5" stroke="#606060" stroke-width=".5" x="0" y="0" width="60" height="60"/>
                <use id="zoomplus" xlink:href="#zoomPlus" x="17" y="9" onmousedown="handleZoom(evt,'in')"/>
                <use id="zoomminus" xlink:href="#zoomMin" x="42" y="9" onmousedown="handleZoom(evt,'out')"/>
                <use id="reset" xlink:href="#resetDef" x="30" y="36" onmousedown="handleReset()"/>
                <g id="arrowUp" xlink:href="#dirArrow" transform="translate(30 24)" onmousedown="handlePan(0,-1)">
                  <use xlink:href="#rim" fill="#404040">
                        <set attributeName="fill" to="#808080" begin="arrowUp.mouseover" end="arrowUp.mouseout"/>
                  </use>
                  <path fill="none" stroke="white" stroke-width="1.5" d="M0,-3.0v7 M-2.5,-0.5L0,-3.0L2.5,-0.5"/>
                </g>
                <g id="arrowRight" xlink:href="#dirArrow" transform="rotate(90) translate(36 -43)" onmousedown="handlePan(1,0)">
                  <use xlink:href="#rim" fill="#404040">
                        <set attributeName="fill" to="#808080" begin="arrowRight.mouseover" end="arrowRight.mouseout"/>
                  </use>
                  <path fill="none" stroke="white" stroke-width="1.5" d="M0,-3.0v7 M-2.5,-0.5L0,-3.0L2.5,-0.5"/>
                </g>
                <g id="arrowDown" xlink:href="#dirArrow" transform="rotate(180) translate(-30 -48)" onmousedown="handlePan(0,1)">
                  <use xlink:href="#rim" fill="#404040">
                        <set attributeName="fill" to="#808080" begin="arrowDown.mouseover" end="arrowDown.mouseout"/>
                  </use>
                  <path fill="none" stroke="white" stroke-width="1.5" d="M0,-3.0v7 M-2.5,-0.5L0,-3.0L2.5,-0.5"/>
                </g>
                <g id="arrowLeft" xlink:href="#dirArrow" transform="rotate(270) translate(-36 17)" onmousedown="handlePan(-1,0)">
                  <use xlink:href="#rim" fill="#404040">
                        <set attributeName="fill" to="#808080" begin="arrowLeft.mouseover" end="arrowLeft.mouseout"/>
                  </use>
                  <path fill="none" stroke="white" stroke-width="1.5" d="M0,-3.0v7 M-2.5,-0.5L0,-3.0L2.5,-0.5"/>
                </g>
        </g>
        <svg viewBox="0 0 15 15" width="100%" height="30px" preserveAspectRatio="xMaxYMin meet">
         <g id="arrow_out" transform="scale(0.3 0.3)">
          <a xlink:href="_game_state_8cpp__incl_org.svg" target="_base">
           <rect id="button" ry="5" rx="5" y="6" x="6" height="38" width="38"
                fill="#f2f5e9" fill-opacity="0.5" stroke="#606060" stroke-width="1.0"/>
           <path id="arrow"
             d="M 11.500037,31.436501 C 11.940474,20.09759 22.043105,11.32322 32.158766,21.979434 L 37.068811,17.246167 C 37.068811,17.246167 37.088388,32 37.088388,32 L 22.160133,31.978069 C 22.160133,31.978069 26.997745,27.140456 26.997745,27.140456 C 18.528582,18.264221 13.291696,25.230495 11.500037,31.436501 z"
             style="fill:#404040;"/>
          </a>
         </g>
        </svg>
</svg>
