<?xml version="1.0" encoding="UTF-8" standalone="no"?>
<!DOCTYPE svg PUBLIC "-//W3C//DTD SVG 1.1//EN"
 "http://www.w3.org/Graphics/SVG/1.1/DTD/svg11.dtd">
<!-- Generated by graphviz version 2.43.0 (0)
 -->
<!-- Title: /home/tomek/CLionProjects/proi/proi&#45;projekt/src/game&#45;lib/GameStatsIO.cpp Pages: 1 -->
<!--zoomable 430 -->
<svg id="main" version="1.1" xmlns="http://www.w3.org/2000/svg" xmlns:xlink="http://www.w3.org/1999/xlink" xml:space="preserve" onload="init(evt)">
<style type="text/css"><![CDATA[
.edge:hover path { stroke: red; }
.edge:hover polygon { stroke: red; fill: red; }
]]></style>
<script type="text/javascript"><![CDATA[
var edges = document.getElementsByTagName('g');
if (edges && edges.length) {
  for (var i=0;i<edges.length;i++) {
    if (edges[i].id.substr(0,4)=='edge') {
      edges[i].setAttribute('class','edge');
    }
  }
}
]]></script>
        <defs>
                <circle id="rim" cx="0" cy="0" r="7"/>
                <circle id="rim2" cx="0" cy="0" r="3.5"/>
                <g id="zoomPlus">
                        <use xlink:href="#rim" target="_top" fill="#404040">
                                <set attributeName="fill" to="#808080" begin="zoomplus.mouseover" end="zoomplus.mouseout"/>
                        </use>
                        <path d="M-4,0h8M0,-4v8" fill="none" stroke="white" stroke-width="1.5" pointer-events="none"/>
                </g>
                <g id="zoomMin">
                        <use xlink:href="#rim" target="_top" fill="#404040">
                                <set attributeName="fill" to="#808080" begin="zoomminus.mouseover" end="zoomminus.mouseout"/>
                        </use>
                        <path d="M-4,0h8" fill="none" stroke="white" stroke-width="1.5" pointer-events="none"/>
                </g>
                <g id="dirArrow">
                        <path fill="none" stroke="white" stroke-width="1.5" d="M0,-3.0v7 M-2.5,-0.5L0,-3.0L2.5,-0.5"/>
                </g>
               <g id="resetDef">
                       <use xlink:href="#rim2" target="_top" fill="#404040">
                               <set attributeName="fill" to="#808080" begin="reset.mouseover" end="reset.mouseout"/>
                       </use>
               </g>
        </defs>

<script type="text/javascript">
var viewWidth = 731;
var viewHeight = 430;
var sectionId = 'dynsection-0';
</script>
<script xlink:href="svgpan.js" target="_top"/>
<svg id="graph" class="graph">
<g id="viewport">
<title>/home/tomek/CLionProjects/proi/proi&#45;projekt/src/game&#45;lib/GameStatsIO.cpp</title>
<!-- Node1 -->
<g id="node1" class="node">
<title>Node1</title>
<g id="a_node1"><a xlink:title=" ">
<polygon fill="#bfbfbf" stroke="black" points="274,-380.5 274,-421.5 425,-421.5 425,-380.5 274,-380.5"/>
<text text-anchor="start" x="282" y="-409.5" font-family="Helvetica,sans-Serif" font-size="10.00">/home/tomek/CLionProjects</text>
<text text-anchor="start" x="282" y="-398.5" font-family="Helvetica,sans-Serif" font-size="10.00">/proi/proi&#45;projekt/src</text>
<text text-anchor="middle" x="349.5" y="-387.5" font-family="Helvetica,sans-Serif" font-size="10.00">/game&#45;lib/GameStatsIO.cpp</text>
</a>
</g>
</g>
<!-- Node2 -->
<g id="node2" class="node">
<title>Node2</title>
<g id="a_node2"><a xlink:href="_game_stats_i_o_8h.html" target="_top" target="_top" xlink:title=" ">
<polygon fill="none" stroke="black" points="34.5,-263 34.5,-282 162.5,-282 162.5,-263 34.5,-263"/>
<text text-anchor="middle" x="98.5" y="-270" font-family="Helvetica,sans-Serif" font-size="10.00">include/GameStatsIO.h</text>
</a>
</g>
</g>
<!-- Node1&#45;&gt;Node2 -->
<g id="edge1" class="edge">
<title>Node1&#45;&gt;Node2</title>
<path fill="none" stroke="midnightblue" d="M310.56,-380.37C258.73,-354.25 168.5,-308.78 124.34,-286.52"/>
<polygon fill="midnightblue" stroke="midnightblue" points="125.91,-283.39 115.4,-282.02 122.75,-289.64 125.91,-283.39"/>
</g>
<!-- Node6 -->
<g id="node6" class="node">
<title>Node6</title>
<g id="a_node6"><a xlink:href="_game_statistics_8h.html" target="_top" target="_top" xlink:title=" ">
<polygon fill="none" stroke="black" points="408.5,-324.5 408.5,-343.5 546.5,-343.5 546.5,-324.5 408.5,-324.5"/>
<text text-anchor="middle" x="477.5" y="-331.5" font-family="Helvetica,sans-Serif" font-size="10.00">include/GameStatistics.h</text>
</a>
</g>
</g>
<!-- Node1&#45;&gt;Node6 -->
<g id="edge5" class="edge">
<title>Node1&#45;&gt;Node6</title>
<path fill="none" stroke="midnightblue" d="M387.9,-380.5C408.38,-370.1 433.04,-357.58 451.3,-348.31"/>
<polygon fill="midnightblue" stroke="midnightblue" points="453.13,-351.3 460.46,-343.65 449.96,-345.06 453.13,-351.3"/>
</g>
<!-- Node3 -->
<g id="node3" class="node">
<title>Node3</title>
<g id="a_node3"><a xlink:title=" ">
<polygon fill="none" stroke="#bfbfbf" points="380.5,-0.5 380.5,-19.5 438.5,-19.5 438.5,-0.5 380.5,-0.5"/>
<text text-anchor="middle" x="409.5" y="-7.5" font-family="Helvetica,sans-Serif" font-size="10.00">memory</text>
</a>
</g>
</g>
<!-- Node2&#45;&gt;Node3 -->
<g id="edge2" class="edge">
<title>Node2&#45;&gt;Node3</title>
<path fill="none" stroke="midnightblue" d="M95.98,-262.75C92.04,-247.63 85.55,-215.75 92.5,-190 110.45,-123.47 114.21,-95.75 170.5,-56 202.06,-33.71 310.64,-20.29 369.99,-14.45"/>
<polygon fill="midnightblue" stroke="midnightblue" points="370.5,-17.92 380.12,-13.48 369.83,-10.95 370.5,-17.92"/>
</g>
<!-- Node4 -->
<g id="node4" class="node">
<title>Node4</title>
<g id="a_node4"><a xlink:title=" ">
<polygon fill="none" stroke="#bfbfbf" points="101.5,-196 101.5,-215 145.5,-215 145.5,-196 101.5,-196"/>
<text text-anchor="middle" x="123.5" y="-203" font-family="Helvetica,sans-Serif" font-size="10.00">string</text>
</a>
</g>
</g>
<!-- Node2&#45;&gt;Node4 -->
<g id="edge3" class="edge">
<title>Node2&#45;&gt;Node4</title>
<path fill="none" stroke="midnightblue" d="M101.87,-262.73C105.62,-252.99 111.78,-236.98 116.56,-224.53"/>
<polygon fill="midnightblue" stroke="midnightblue" points="119.86,-225.72 120.18,-215.13 113.33,-223.2 119.86,-225.72"/>
</g>
<!-- Node5 -->
<g id="node5" class="node">
<title>Node5</title>
<g id="a_node5"><a xlink:title=" ">
<polygon fill="none" stroke="#bfbfbf" points="0,-196 0,-215 45,-215 45,-196 0,-196"/>
<text text-anchor="middle" x="22.5" y="-203" font-family="Helvetica,sans-Serif" font-size="10.00">utility</text>
</a>
</g>
</g>
<!-- Node2&#45;&gt;Node5 -->
<g id="edge4" class="edge">
<title>Node2&#45;&gt;Node5</title>
<path fill="none" stroke="midnightblue" d="M88.25,-262.73C76.06,-252.31 55.48,-234.71 40.59,-221.97"/>
<polygon fill="midnightblue" stroke="midnightblue" points="42.46,-218.97 32.59,-215.13 37.91,-224.29 42.46,-218.97"/>
</g>
<!-- Node7 -->
<g id="node7" class="node">
<title>Node7</title>
<g id="a_node7"><a xlink:title=" ">
<polygon fill="none" stroke="#bfbfbf" points="649.5,-263 649.5,-282 681.5,-282 681.5,-263 649.5,-263"/>
<text text-anchor="middle" x="665.5" y="-270" font-family="Helvetica,sans-Serif" font-size="10.00">list</text>
</a>
</g>
</g>
<!-- Node6&#45;&gt;Node7 -->
<g id="edge6" class="edge">
<title>Node6&#45;&gt;Node7</title>
<path fill="none" stroke="midnightblue" d="M519.69,-324.48C553.2,-316.98 600.84,-304.65 640.5,-288 641.35,-287.64 642.21,-287.26 643.07,-286.86"/>
<polygon fill="midnightblue" stroke="midnightblue" points="644.85,-289.88 652.07,-282.13 641.59,-283.69 644.85,-289.88"/>
</g>
<!-- Node8 -->
<g id="node8" class="node">
<title>Node8</title>
<g id="a_node8"><a xlink:href="_event_queue_8h.html" target="_top" target="_top" xlink:title=" ">
<polygon fill="none" stroke="black" points="521.5,-257.5 521.5,-287.5 631.5,-287.5 631.5,-257.5 521.5,-257.5"/>
<text text-anchor="start" x="529.5" y="-275.5" font-family="Helvetica,sans-Serif" font-size="10.00">../../core&#45;lib/include</text>
<text text-anchor="middle" x="576.5" y="-264.5" font-family="Helvetica,sans-Serif" font-size="10.00">/EventQueue.h</text>
</a>
</g>
</g>
<!-- Node6&#45;&gt;Node8 -->
<g id="edge7" class="edge">
<title>Node6&#45;&gt;Node8</title>
<path fill="none" stroke="midnightblue" d="M491.68,-324.48C505.34,-316.27 526.49,-303.56 544.25,-292.88"/>
<polygon fill="midnightblue" stroke="midnightblue" points="546.4,-295.67 553.17,-287.52 542.79,-289.67 546.4,-295.67"/>
</g>
<!-- Node10 -->
<g id="node10" class="node">
<title>Node10</title>
<g id="a_node10"><a xlink:href="_event_8h.html" target="_top" target="_top" xlink:title=" ">
<polygon fill="none" stroke="black" points="323.5,-257.5 323.5,-287.5 433.5,-287.5 433.5,-257.5 323.5,-257.5"/>
<text text-anchor="start" x="331.5" y="-275.5" font-family="Helvetica,sans-Serif" font-size="10.00">../../core&#45;lib/include</text>
<text text-anchor="middle" x="378.5" y="-264.5" font-family="Helvetica,sans-Serif" font-size="10.00">/Event.h</text>
</a>
</g>
</g>
<!-- Node6&#45;&gt;Node10 -->
<g id="edge10" class="edge">
<title>Node6&#45;&gt;Node10</title>
<path fill="none" stroke="midnightblue" d="M463.32,-324.48C449.66,-316.27 428.51,-303.56 410.75,-292.88"/>
<polygon fill="midnightblue" stroke="midnightblue" points="412.21,-289.67 401.83,-287.52 408.6,-295.67 412.21,-289.67"/>
</g>
<!-- Node8&#45;&gt;Node3 -->
<g id="edge9" class="edge">
<title>Node8&#45;&gt;Node3</title>
<path fill="none" stroke="midnightblue" d="M587.98,-257.47C595.09,-247.85 603.6,-234.44 607.5,-221 619.65,-179.17 621.82,-164.47 608.5,-123 597.3,-88.12 590.33,-77.27 560.5,-56 542.51,-43.17 487.08,-28.61 448.64,-19.62"/>
<polygon fill="midnightblue" stroke="midnightblue" points="449.31,-16.18 438.78,-17.34 447.74,-23 449.31,-16.18"/>
</g>
<!-- Node9 -->
<g id="node9" class="node">
<title>Node9</title>
<g id="a_node9"><a xlink:title=" ">
<polygon fill="none" stroke="#bfbfbf" points="676,-196 676,-215 723,-215 723,-196 676,-196"/>
<text text-anchor="middle" x="699.5" y="-203" font-family="Helvetica,sans-Serif" font-size="10.00">queue</text>
</a>
</g>
</g>
<!-- Node8&#45;&gt;Node9 -->
<g id="edge8" class="edge">
<title>Node8&#45;&gt;Node9</title>
<path fill="none" stroke="midnightblue" d="M603.19,-257.4C624.39,-246.19 653.82,-230.64 674.55,-219.69"/>
<polygon fill="midnightblue" stroke="midnightblue" points="676.2,-222.77 683.4,-215.01 672.93,-216.58 676.2,-222.77"/>
</g>
<!-- Node10&#45;&gt;Node3 -->
<g id="edge13" class="edge">
<title>Node10&#45;&gt;Node3</title>
<path fill="none" stroke="midnightblue" d="M323.33,-268.74C287.39,-263.92 242.37,-251.62 215.5,-221 166.67,-165.34 145.76,-113.43 192.5,-56 214.51,-28.96 314.1,-17.65 370.4,-13.35"/>
<polygon fill="midnightblue" stroke="midnightblue" points="370.66,-16.84 380.38,-12.63 370.16,-9.86 370.66,-16.84"/>
</g>
<!-- Node10&#45;&gt;Node4 -->
<g id="edge12" class="edge">
<title>Node10&#45;&gt;Node4</title>
<path fill="none" stroke="midnightblue" d="M323.41,-261.28C278.74,-252.4 214.4,-238.27 159.5,-221 157.22,-220.28 154.89,-219.49 152.55,-218.65"/>
<polygon fill="midnightblue" stroke="midnightblue" points="153.69,-215.34 143.1,-215.04 151.2,-221.88 153.69,-215.34"/>
</g>
<!-- Node11 -->
<g id="node11" class="node">
<title>Node11</title>
<g id="a_node11"><a xlink:title=" ">
<polygon fill="none" stroke="#bfbfbf" points="240,-196 240,-215 305,-215 305,-196 240,-196"/>
<text text-anchor="middle" x="272.5" y="-203" font-family="Helvetica,sans-Serif" font-size="10.00">exception</text>
</a>
</g>
</g>
<!-- Node10&#45;&gt;Node11 -->
<g id="edge11" class="edge">
<title>Node10&#45;&gt;Node11</title>
<path fill="none" stroke="midnightblue" d="M355.5,-257.4C337.56,-246.39 312.78,-231.2 294.98,-220.28"/>
<polygon fill="midnightblue" stroke="midnightblue" points="296.73,-217.25 286.37,-215.01 293.07,-223.22 296.73,-217.25"/>
</g>
<!-- Node12 -->
<g id="node12" class="node">
<title>Node12</title>
<g id="a_node12"><a xlink:title=" ">
<polygon fill="none" stroke="#bfbfbf" points="452,-196 452,-215 503,-215 503,-196 452,-196"/>
<text text-anchor="middle" x="477.5" y="-203" font-family="Helvetica,sans-Serif" font-size="10.00">variant</text>
</a>
</g>
</g>
<!-- Node10&#45;&gt;Node12 -->
<g id="edge14" class="edge">
<title>Node10&#45;&gt;Node12</title>
<path fill="none" stroke="midnightblue" d="M399.98,-257.4C416.58,-246.5 439.46,-231.48 456.05,-220.58"/>
<polygon fill="midnightblue" stroke="midnightblue" points="458.1,-223.42 464.54,-215.01 454.26,-217.57 458.1,-223.42"/>
</g>
<!-- Node13 -->
<g id="node13" class="node">
<title>Node13</title>
<g id="a_node13"><a xlink:title=" ">
<polygon fill="none" stroke="#bfbfbf" points="521.5,-196 521.5,-215 581.5,-215 581.5,-196 521.5,-196"/>
<text text-anchor="middle" x="551.5" y="-203" font-family="Helvetica,sans-Serif" font-size="10.00">iostream</text>
</a>
</g>
</g>
<!-- Node10&#45;&gt;Node13 -->
<g id="edge15" class="edge">
<title>Node10&#45;&gt;Node13</title>
<path fill="none" stroke="midnightblue" d="M416.04,-257.4C446.8,-245.84 489.87,-229.66 519.13,-218.66"/>
<polygon fill="midnightblue" stroke="midnightblue" points="520.73,-221.8 528.86,-215.01 518.27,-215.25 520.73,-221.8"/>
</g>
<!-- Node14 -->
<g id="node14" class="node">
<title>Node14</title>
<g id="a_node14"><a xlink:title=" ">
<polygon fill="none" stroke="#bfbfbf" points="543.5,-129 543.5,-148 599.5,-148 599.5,-129 543.5,-129"/>
<text text-anchor="middle" x="571.5" y="-136" font-family="Helvetica,sans-Serif" font-size="10.00">optional</text>
</a>
</g>
</g>
<!-- Node10&#45;&gt;Node14 -->
<g id="edge16" class="edge">
<title>Node10&#45;&gt;Node14</title>
<path fill="none" stroke="midnightblue" d="M433.51,-266.05C489.67,-259.22 571.27,-245.35 590.5,-221 605.09,-202.53 593.6,-174.8 583.2,-156.92"/>
<polygon fill="midnightblue" stroke="midnightblue" points="585.98,-154.76 577.71,-148.13 580.04,-158.47 585.98,-154.76"/>
</g>
<!-- Node15 -->
<g id="node15" class="node">
<title>Node15</title>
<g id="a_node15"><a xlink:href="_entity_8h.html" target="_top" target="_top" xlink:title=" ">
<polygon fill="none" stroke="black" points="201.5,-56.5 201.5,-86.5 311.5,-86.5 311.5,-56.5 201.5,-56.5"/>
<text text-anchor="start" x="209.5" y="-74.5" font-family="Helvetica,sans-Serif" font-size="10.00">../../tank&#45;lib/include</text>
<text text-anchor="middle" x="256.5" y="-63.5" font-family="Helvetica,sans-Serif" font-size="10.00">/Entity.h</text>
</a>
</g>
</g>
<!-- Node10&#45;&gt;Node15 -->
<g id="edge17" class="edge">
<title>Node10&#45;&gt;Node15</title>
<path fill="none" stroke="midnightblue" d="M323.38,-268.07C290.64,-262.85 251.51,-250.37 230.5,-221 203.59,-183.38 226.22,-126.94 242.82,-95.58"/>
<polygon fill="midnightblue" stroke="midnightblue" points="245.95,-97.15 247.72,-86.71 239.82,-93.77 245.95,-97.15"/>
</g>
<!-- Node16 -->
<g id="node16" class="node">
<title>Node16</title>
<g id="a_node16"><a xlink:href="_tank_8h.html" target="_top" target="_top" xlink:title=" ">
<polygon fill="none" stroke="black" points="323.5,-190.5 323.5,-220.5 433.5,-220.5 433.5,-190.5 323.5,-190.5"/>
<text text-anchor="start" x="331.5" y="-208.5" font-family="Helvetica,sans-Serif" font-size="10.00">../../tank&#45;lib/include</text>
<text text-anchor="middle" x="378.5" y="-197.5" font-family="Helvetica,sans-Serif" font-size="10.00">/Tank.h</text>
</a>
</g>
</g>
<!-- Node10&#45;&gt;Node16 -->
<g id="edge18" class="edge">
<title>Node10&#45;&gt;Node16</title>
<path fill="none" stroke="midnightblue" d="M378.5,-257.4C378.5,-249.64 378.5,-239.81 378.5,-230.86"/>
<polygon fill="midnightblue" stroke="midnightblue" points="382,-230.58 378.5,-220.58 375,-230.58 382,-230.58"/>
</g>
<!-- Node16&#45;&gt;Node3 -->
<g id="edge19" class="edge">
<title>Node16&#45;&gt;Node3</title>
<path fill="none" stroke="midnightblue" d="M382.25,-190.43C384.83,-180.35 388.21,-166.41 390.5,-154 398.66,-109.82 404.71,-57.35 407.61,-29.89"/>
<polygon fill="midnightblue" stroke="midnightblue" points="411.11,-30.06 408.65,-19.75 404.14,-29.34 411.11,-30.06"/>
</g>
<!-- Node16&#45;&gt;Node14 -->
<g id="edge20" class="edge">
<title>Node16&#45;&gt;Node14</title>
<path fill="none" stroke="midnightblue" d="M420.38,-190.4C455.14,-178.69 504.01,-162.23 536.66,-151.23"/>
<polygon fill="midnightblue" stroke="midnightblue" points="537.88,-154.52 546.24,-148.01 535.65,-147.88 537.88,-154.52"/>
</g>
<!-- Node16&#45;&gt;Node15 -->
<g id="edge24" class="edge">
<title>Node16&#45;&gt;Node15</title>
<path fill="none" stroke="midnightblue" d="M323.22,-191.16C303.02,-183.54 281.86,-171.82 268.5,-154 256.28,-137.7 253.94,-114.31 254.28,-96.76"/>
<polygon fill="midnightblue" stroke="midnightblue" points="257.77,-96.87 254.76,-86.71 250.78,-96.53 257.77,-96.87"/>
</g>
<!-- Node17 -->
<g id="node17" class="node">
<title>Node17</title>
<g id="a_node17"><a xlink:href="_simple_subscriber_8h.html" target="_top" target="_top" xlink:title=" ">
<polygon fill="none" stroke="black" points="438,-56.5 438,-86.5 551,-86.5 551,-56.5 438,-56.5"/>
<text text-anchor="start" x="446" y="-74.5" font-family="Helvetica,sans-Serif" font-size="10.00">../../core&#45;lib/include</text>
<text text-anchor="middle" x="494.5" y="-63.5" font-family="Helvetica,sans-Serif" font-size="10.00">/SimpleSubscriber.h</text>
</a>
</g>
</g>
<!-- Node16&#45;&gt;Node17 -->
<g id="edge21" class="edge">
<title>Node16&#45;&gt;Node17</title>
<path fill="none" stroke="midnightblue" d="M391.15,-190.39C400.19,-180.28 412.63,-166.34 423.5,-154 441.14,-133.98 461.09,-111.05 475.34,-94.62"/>
<polygon fill="midnightblue" stroke="midnightblue" points="478.33,-96.52 482.23,-86.68 473.04,-91.94 478.33,-96.52"/>
</g>
<!-- Node19 -->
<g id="node19" class="node">
<title>Node19</title>
<g id="a_node19"><a xlink:href="_bot_8h.html" target="_top" target="_top" xlink:title=" ">
<polygon fill="none" stroke="black" points="277.5,-123.5 277.5,-153.5 381.5,-153.5 381.5,-123.5 277.5,-123.5"/>
<text text-anchor="start" x="285.5" y="-141.5" font-family="Helvetica,sans-Serif" font-size="10.00">../../bot&#45;lib/include</text>
<text text-anchor="middle" x="329.5" y="-130.5" font-family="Helvetica,sans-Serif" font-size="10.00">/Bot.h</text>
</a>
</g>
</g>
<!-- Node16&#45;&gt;Node19 -->
<g id="edge25" class="edge">
<title>Node16&#45;&gt;Node19</title>
<path fill="none" stroke="midnightblue" d="M367.87,-190.4C361.58,-182.05 353.46,-171.29 346.32,-161.81"/>
<polygon fill="midnightblue" stroke="midnightblue" points="348.93,-159.45 340.11,-153.58 343.34,-163.67 348.93,-159.45"/>
</g>
<!-- Node17&#45;&gt;Node3 -->
<g id="edge23" class="edge">
<title>Node17&#45;&gt;Node3</title>
<path fill="none" stroke="midnightblue" d="M474.36,-56.4C461.11,-47.13 443.82,-35.03 430.42,-25.65"/>
<polygon fill="midnightblue" stroke="midnightblue" points="432.07,-22.53 421.87,-19.66 428.05,-28.26 432.07,-22.53"/>
</g>
<!-- Node18 -->
<g id="node18" class="node">
<title>Node18</title>
<g id="a_node18"><a xlink:title=" ">
<polygon fill="none" stroke="#bfbfbf" points="471,-0.5 471,-19.5 518,-19.5 518,-0.5 471,-0.5"/>
<text text-anchor="middle" x="494.5" y="-7.5" font-family="Helvetica,sans-Serif" font-size="10.00">vector</text>
</a>
</g>
</g>
<!-- Node17&#45;&gt;Node18 -->
<g id="edge22" class="edge">
<title>Node17&#45;&gt;Node18</title>
<path fill="none" stroke="midnightblue" d="M494.5,-56.4C494.5,-48.47 494.5,-38.46 494.5,-29.86"/>
<polygon fill="midnightblue" stroke="midnightblue" points="498,-29.66 494.5,-19.66 491,-29.66 498,-29.66"/>
</g>
<!-- Node19&#45;&gt;Node15 -->
<g id="edge26" class="edge">
<title>Node19&#45;&gt;Node15</title>
<path fill="none" stroke="midnightblue" d="M313.66,-123.4C303.81,-114.62 290.96,-103.18 279.94,-93.37"/>
<polygon fill="midnightblue" stroke="midnightblue" points="282.1,-90.61 272.31,-86.58 277.45,-95.84 282.1,-90.61"/>
</g>
<!-- Node19&#45;&gt;Node17 -->
<g id="edge27" class="edge">
<title>Node19&#45;&gt;Node17</title>
<path fill="none" stroke="midnightblue" d="M365.3,-123.4C389.95,-113.69 422.89,-100.71 449.34,-90.29"/>
<polygon fill="midnightblue" stroke="midnightblue" points="450.75,-93.5 458.77,-86.58 448.18,-86.99 450.75,-93.5"/>
</g>
</g>
</svg>
        <g id="navigator" transform="translate(0 0)" fill="#404254">
                <rect fill="#f2f5e9" fill-opacity="0.5" stroke="#606060" stroke-width=".5" x="0" y="0" width="60" height="60"/>
                <use id="zoomplus" xlink:href="#zoomPlus" target="_top" x="17" y="9" onmousedown="handleZoom(evt,'in')"/>
                <use id="zoomminus" xlink:href="#zoomMin" target="_top" x="42" y="9" onmousedown="handleZoom(evt,'out')"/>
                <use id="reset" xlink:href="#resetDef" target="_top" x="30" y="36" onmousedown="handleReset()"/>
                <g id="arrowUp" xlink:href="#dirArrow" target="_top" transform="translate(30 24)" onmousedown="handlePan(0,-1)">
                  <use xlink:href="#rim" target="_top" fill="#404040">
                        <set attributeName="fill" to="#808080" begin="arrowUp.mouseover" end="arrowUp.mouseout"/>
                  </use>
                  <path fill="none" stroke="white" stroke-width="1.5" d="M0,-3.0v7 M-2.5,-0.5L0,-3.0L2.5,-0.5"/>
                </g>
                <g id="arrowRight" xlink:href="#dirArrow" target="_top" transform="rotate(90) translate(36 -43)" onmousedown="handlePan(1,0)">
                  <use xlink:href="#rim" target="_top" fill="#404040">
                        <set attributeName="fill" to="#808080" begin="arrowRight.mouseover" end="arrowRight.mouseout"/>
                  </use>
                  <path fill="none" stroke="white" stroke-width="1.5" d="M0,-3.0v7 M-2.5,-0.5L0,-3.0L2.5,-0.5"/>
                </g>
                <g id="arrowDown" xlink:href="#dirArrow" target="_top" transform="rotate(180) translate(-30 -48)" onmousedown="handlePan(0,1)">
                  <use xlink:href="#rim" target="_top" fill="#404040">
                        <set attributeName="fill" to="#808080" begin="arrowDown.mouseover" end="arrowDown.mouseout"/>
                  </use>
                  <path fill="none" stroke="white" stroke-width="1.5" d="M0,-3.0v7 M-2.5,-0.5L0,-3.0L2.5,-0.5"/>
                </g>
                <g id="arrowLeft" xlink:href="#dirArrow" target="_top" transform="rotate(270) translate(-36 17)" onmousedown="handlePan(-1,0)">
                  <use xlink:href="#rim" target="_top" fill="#404040">
                        <set attributeName="fill" to="#808080" begin="arrowLeft.mouseover" end="arrowLeft.mouseout"/>
                  </use>
                  <path fill="none" stroke="white" stroke-width="1.5" d="M0,-3.0v7 M-2.5,-0.5L0,-3.0L2.5,-0.5"/>
                </g>
        </g>
        <svg viewBox="0 0 15 15" width="100%" height="30px" preserveAspectRatio="xMaxYMin meet">
         <g id="arrow_out" transform="scale(0.3 0.3)">
          <a xlink:href="_game_stats_i_o_8cpp__incl_org.svg" target="_top" target="_base">
           <rect id="button" ry="5" rx="5" y="6" x="6" height="38" width="38"
                fill="#f2f5e9" fill-opacity="0.5" stroke="#606060" stroke-width="1.0"/>
           <path id="arrow"
             d="M 11.500037,31.436501 C 11.940474,20.09759 22.043105,11.32322 32.158766,21.979434 L 37.068811,17.246167 C 37.068811,17.246167 37.088388,32 37.088388,32 L 22.160133,31.978069 C 22.160133,31.978069 26.997745,27.140456 26.997745,27.140456 C 18.528582,18.264221 13.291696,25.230495 11.500037,31.436501 z"
             style="fill:#404040;"/>
          </a>
         </g>
        </svg>
</svg>
