<?xml version="1.0" encoding="UTF-8" standalone="no"?>
<!DOCTYPE svg PUBLIC "-//W3C//DTD SVG 1.1//EN"
 "http://www.w3.org/Graphics/SVG/1.1/DTD/svg11.dtd">
<!-- Generated by graphviz version 2.43.0 (0)
 -->
<!-- Title: /home/tomek/CLionProjects/proi/proi&#45;projekt/src/game&#45;lib/include/GameState.h Pages: 1 -->
<!--zoomable 408 -->
<svg id="main" version="1.1" xmlns="http://www.w3.org/2000/svg" xmlns:xlink="http://www.w3.org/1999/xlink" xml:space="preserve" onload="init(evt)">
<style type="text/css"><![CDATA[
.edge:hover path { stroke: red; }
.edge:hover polygon { stroke: red; fill: red; }
]]></style>
<script type="text/javascript"><![CDATA[
var edges = document.getElementsByTagName('g');
if (edges && edges.length) {
  for (var i=0;i<edges.length;i++) {
    if (edges[i].id.substr(0,4)=='edge') {
      edges[i].setAttribute('class','edge');
    }
  }
}
]]></script>
        <defs>
                <circle id="rim" cx="0" cy="0" r="7"/>
                <circle id="rim2" cx="0" cy="0" r="3.5"/>
                <g id="zoomPlus">
                        <use xlink:href="#rim" fill="#404040">
                                <set attributeName="fill" to="#808080" begin="zoomplus.mouseover" end="zoomplus.mouseout"/>
                        </use>
                        <path d="M-4,0h8M0,-4v8" fill="none" stroke="white" stroke-width="1.5" pointer-events="none"/>
                </g>
                <g id="zoomMin">
                        <use xlink:href="#rim" fill="#404040">
                                <set attributeName="fill" to="#808080" begin="zoomminus.mouseover" end="zoomminus.mouseout"/>
                        </use>
                        <path d="M-4,0h8" fill="none" stroke="white" stroke-width="1.5" pointer-events="none"/>
                </g>
                <g id="dirArrow">
                        <path fill="none" stroke="white" stroke-width="1.5" d="M0,-3.0v7 M-2.5,-0.5L0,-3.0L2.5,-0.5"/>
                </g>
               <g id="resetDef">
                       <use xlink:href="#rim2" fill="#404040">
                               <set attributeName="fill" to="#808080" begin="reset.mouseover" end="reset.mouseout"/>
                       </use>
               </g>
        </defs>

<script type="text/javascript">
var viewWidth = 690;
var viewHeight = 408;
var sectionId = 'dynsection-0';
</script>
<script xlink:href="svgpan.js"/>
<svg id="graph" class="graph">
<g id="viewport">
<title>/home/tomek/CLionProjects/proi/proi&#45;projekt/src/game&#45;lib/include/GameState.h</title>
<!-- Node1 -->
<g id="node1" class="node">
<title>Node1</title>
<g id="a_node1"><a xlink:title=" ">
<polygon fill="#bfbfbf" stroke="black" points="372,-358.5 372,-399.5 540,-399.5 540,-358.5 372,-358.5"/>
<text text-anchor="start" x="380" y="-387.5" font-family="Helvetica,sans-Serif" font-size="10.00">/home/tomek/CLionProjects</text>
<text text-anchor="start" x="380" y="-376.5" font-family="Helvetica,sans-Serif" font-size="10.00">/proi/proi&#45;projekt/src</text>
<text text-anchor="middle" x="456" y="-365.5" font-family="Helvetica,sans-Serif" font-size="10.00">/game&#45;lib/include/GameState.h</text>
</a>
</g>
</g>
<!-- Node2 -->
<g id="node2" class="node">
<title>Node2</title>
<g id="a_node2"><a xlink:title=" ">
<polygon fill="none" stroke="#bfbfbf" points="469,-0.5 469,-19.5 527,-19.5 527,-0.5 469,-0.5"/>
<text text-anchor="middle" x="498" y="-7.5" font-family="Helvetica,sans-Serif" font-size="10.00">memory</text>
</a>
</g>
</g>
<!-- Node1&#45;&gt;Node2 -->
<g id="edge1" class="edge">
<title>Node1&#45;&gt;Node2</title>
<path fill="none" stroke="midnightblue" d="M540.24,-374.3C581.98,-368.17 630.13,-353.94 662,-322 684.92,-299.03 681,-283.95 681,-251.5 681,-251.5 681,-251.5 681,-132 681,-63.66 591.09,-31.67 537.32,-18.66"/>
<polygon fill="midnightblue" stroke="midnightblue" points="537.93,-15.21 527.4,-16.37 536.36,-22.03 537.93,-15.21"/>
</g>
<!-- Node3 -->
<g id="node3" class="node">
<title>Node3</title>
<g id="a_node3"><a xlink:href="_active_event_handler_8h.html" target="_top" xlink:title=" ">
<polygon fill="none" stroke="black" points="107,-302.5 107,-321.5 229,-321.5 229,-302.5 107,-302.5"/>
<text text-anchor="middle" x="168" y="-309.5" font-family="Helvetica,sans-Serif" font-size="10.00">ActiveEventHandler.h</text>
</a>
</g>
</g>
<!-- Node1&#45;&gt;Node3 -->
<g id="edge2" class="edge">
<title>Node1&#45;&gt;Node3</title>
<path fill="none" stroke="midnightblue" d="M371.92,-359.02C321.05,-347.54 258.02,-333.32 215.62,-323.75"/>
<polygon fill="midnightblue" stroke="midnightblue" points="216.36,-320.33 205.83,-321.54 214.82,-327.15 216.36,-320.33"/>
</g>
<!-- Node17 -->
<g id="node17" class="node">
<title>Node17</title>
<g id="a_node17"><a xlink:href="_menu_event_handler_8h.html" target="_top" xlink:title=" ">
<polygon fill="none" stroke="black" points="397,-302.5 397,-321.5 515,-321.5 515,-302.5 397,-302.5"/>
<text text-anchor="middle" x="456" y="-309.5" font-family="Helvetica,sans-Serif" font-size="10.00">MenuEventHandler.h</text>
</a>
</g>
</g>
<!-- Node1&#45;&gt;Node17 -->
<g id="edge27" class="edge">
<title>Node1&#45;&gt;Node17</title>
<path fill="none" stroke="midnightblue" d="M449.75,-358.5C449.06,-349.97 449.08,-340.01 449.83,-331.59"/>
<polygon fill="midnightblue" stroke="midnightblue" points="453.3,-332.04 451.24,-321.65 446.37,-331.06 453.3,-332.04"/>
</g>
<!-- Node18 -->
<g id="node18" class="node">
<title>Node18</title>
<g id="a_node18"><a xlink:href="_pause_event_handler_8h.html" target="_top" xlink:title=" ">
<polygon fill="none" stroke="black" points="533.5,-302.5 533.5,-321.5 652.5,-321.5 652.5,-302.5 533.5,-302.5"/>
<text text-anchor="middle" x="593" y="-309.5" font-family="Helvetica,sans-Serif" font-size="10.00">PauseEventHandler.h</text>
</a>
</g>
</g>
<!-- Node1&#45;&gt;Node18 -->
<g id="edge31" class="edge">
<title>Node1&#45;&gt;Node18</title>
<path fill="none" stroke="midnightblue" d="M490.86,-358.5C512.41,-347.86 539.77,-335 560.82,-325.67"/>
<polygon fill="midnightblue" stroke="midnightblue" points="562.24,-328.87 570,-321.65 559.43,-322.45 562.24,-328.87"/>
</g>
<!-- Node19 -->
<g id="node19" class="node">
<title>Node19</title>
<g id="a_node19"><a xlink:href="_finished_event_handler_8h.html" target="_top" xlink:title=" ">
<polygon fill="none" stroke="black" points="247.5,-302.5 247.5,-321.5 378.5,-321.5 378.5,-302.5 247.5,-302.5"/>
<text text-anchor="middle" x="313" y="-309.5" font-family="Helvetica,sans-Serif" font-size="10.00">FinishedEventHandler.h</text>
</a>
</g>
</g>
<!-- Node1&#45;&gt;Node19 -->
<g id="edge35" class="edge">
<title>Node1&#45;&gt;Node19</title>
<path fill="none" stroke="midnightblue" d="M413.1,-358.5C389.8,-347.91 361.66,-335.12 341.15,-325.8"/>
<polygon fill="midnightblue" stroke="midnightblue" points="342.59,-322.6 332.04,-321.65 339.69,-328.98 342.59,-322.6"/>
</g>
<!-- Node3&#45;&gt;Node2 -->
<g id="edge3" class="edge">
<title>Node3&#45;&gt;Node2</title>
<path fill="none" stroke="midnightblue" d="M167.73,-302.31C167.11,-265.86 169.91,-124.14 247,-56 277.81,-28.77 396.06,-17.36 458.63,-13.15"/>
<polygon fill="midnightblue" stroke="midnightblue" points="459.15,-16.63 468.91,-12.49 458.7,-9.64 459.15,-16.63"/>
</g>
<!-- Node4 -->
<g id="node4" class="node">
<title>Node4</title>
<g id="a_node4"><a xlink:href="_event_handler_8h.html" target="_top" xlink:title=" ">
<polygon fill="none" stroke="black" points="308,-235.5 308,-265.5 418,-265.5 418,-235.5 308,-235.5"/>
<text text-anchor="start" x="316" y="-253.5" font-family="Helvetica,sans-Serif" font-size="10.00">../../core&#45;lib/include</text>
<text text-anchor="middle" x="363" y="-242.5" font-family="Helvetica,sans-Serif" font-size="10.00">/EventHandler.h</text>
</a>
</g>
</g>
<!-- Node3&#45;&gt;Node4 -->
<g id="edge4" class="edge">
<title>Node3&#45;&gt;Node4</title>
<path fill="none" stroke="midnightblue" d="M195.94,-302.48C224.82,-293.66 270.68,-279.67 307.06,-268.57"/>
<polygon fill="midnightblue" stroke="midnightblue" points="308.5,-271.79 317.04,-265.52 306.46,-265.09 308.5,-271.79"/>
</g>
<!-- Node14 -->
<g id="node14" class="node">
<title>Node14</title>
<g id="a_node14"><a xlink:href="_event_queue_8h.html" target="_top" xlink:title=" ">
<polygon fill="none" stroke="black" points="0,-56.5 0,-86.5 110,-86.5 110,-56.5 0,-56.5"/>
<text text-anchor="start" x="8" y="-74.5" font-family="Helvetica,sans-Serif" font-size="10.00">../../core&#45;lib/include</text>
<text text-anchor="middle" x="55" y="-63.5" font-family="Helvetica,sans-Serif" font-size="10.00">/EventQueue.h</text>
</a>
</g>
</g>
<!-- Node3&#45;&gt;Node14 -->
<g id="edge20" class="edge">
<title>Node3&#45;&gt;Node14</title>
<path fill="none" stroke="midnightblue" d="M156.86,-302.33C128.89,-279.76 56.08,-215.85 30,-143 24.31,-127.11 30.84,-109.17 38.66,-95.37"/>
<polygon fill="midnightblue" stroke="midnightblue" points="41.83,-96.9 44.13,-86.55 35.89,-93.2 41.83,-96.9"/>
</g>
<!-- Node16 -->
<g id="node16" class="node">
<title>Node16</title>
<g id="a_node16"><a xlink:href="_game_statistics_8h.html" target="_top" xlink:title=" ">
<polygon fill="none" stroke="black" points="39,-123.5 39,-142.5 139,-142.5 139,-123.5 39,-123.5"/>
<text text-anchor="middle" x="89" y="-130.5" font-family="Helvetica,sans-Serif" font-size="10.00">GameStatistics.h</text>
</a>
</g>
</g>
<!-- Node3&#45;&gt;Node16 -->
<g id="edge23" class="edge">
<title>Node3&#45;&gt;Node16</title>
<path fill="none" stroke="midnightblue" d="M164.19,-302.46C152.02,-275.19 113.9,-189.78 97.09,-152.13"/>
<polygon fill="midnightblue" stroke="midnightblue" points="100.23,-150.57 92.96,-142.87 93.84,-153.43 100.23,-150.57"/>
</g>
<!-- Node4&#45;&gt;Node2 -->
<g id="edge5" class="edge">
<title>Node4&#45;&gt;Node2</title>
<path fill="none" stroke="midnightblue" d="M383.7,-235.31C395.87,-226.11 410.82,-213.22 421,-199 460.66,-143.63 484.3,-64.83 493.52,-29.44"/>
<polygon fill="midnightblue" stroke="midnightblue" points="496.96,-30.12 496.01,-19.57 490.17,-28.41 496.96,-30.12"/>
</g>
<!-- Node5 -->
<g id="node5" class="node">
<title>Node5</title>
<g id="a_node5"><a xlink:href="_event_8h.html" target="_top" xlink:title=" ">
<polygon fill="none" stroke="black" points="140.5,-62 140.5,-81 193.5,-81 193.5,-62 140.5,-62"/>
<text text-anchor="middle" x="167" y="-69" font-family="Helvetica,sans-Serif" font-size="10.00">Event.h</text>
</a>
</g>
</g>
<!-- Node4&#45;&gt;Node5 -->
<g id="edge6" class="edge">
<title>Node4&#45;&gt;Node5</title>
<path fill="none" stroke="midnightblue" d="M343.02,-235.36C316.02,-215.87 266.89,-179.05 229,-143 211.01,-125.88 192.47,-104.16 180.41,-89.39"/>
<polygon fill="midnightblue" stroke="midnightblue" points="182.8,-86.78 173.8,-81.19 177.35,-91.17 182.8,-86.78"/>
</g>
<!-- Node9 -->
<g id="node9" class="node">
<title>Node9</title>
<g id="a_node9"><a xlink:href="_event_publisher_8h.html" target="_top" xlink:title=" ">
<polygon fill="none" stroke="black" points="314,-179.5 314,-198.5 412,-198.5 412,-179.5 314,-179.5"/>
<text text-anchor="middle" x="363" y="-186.5" font-family="Helvetica,sans-Serif" font-size="10.00">EventPublisher.h</text>
</a>
</g>
</g>
<!-- Node4&#45;&gt;Node9 -->
<g id="edge11" class="edge">
<title>Node4&#45;&gt;Node9</title>
<path fill="none" stroke="midnightblue" d="M363,-235.4C363,-227.47 363,-217.46 363,-208.86"/>
<polygon fill="midnightblue" stroke="midnightblue" points="366.5,-208.66 363,-198.66 359.5,-208.66 366.5,-208.66"/>
</g>
<!-- Node5&#45;&gt;Node2 -->
<g id="edge9" class="edge">
<title>Node5&#45;&gt;Node2</title>
<path fill="none" stroke="midnightblue" d="M188.9,-61.91C195.01,-59.74 201.7,-57.59 208,-56 296.18,-33.77 402.38,-20.66 458.6,-14.76"/>
<polygon fill="midnightblue" stroke="midnightblue" points="459.24,-18.22 468.83,-13.71 458.52,-11.25 459.24,-18.22"/>
</g>
<!-- Node6 -->
<g id="node6" class="node">
<title>Node6</title>
<g id="a_node6"><a xlink:title=" ">
<polygon fill="none" stroke="#bfbfbf" points="73.5,-0.5 73.5,-19.5 138.5,-19.5 138.5,-0.5 73.5,-0.5"/>
<text text-anchor="middle" x="106" y="-7.5" font-family="Helvetica,sans-Serif" font-size="10.00">exception</text>
</a>
</g>
</g>
<!-- Node5&#45;&gt;Node6 -->
<g id="edge7" class="edge">
<title>Node5&#45;&gt;Node6</title>
<path fill="none" stroke="midnightblue" d="M158.26,-61.98C148.84,-52.78 133.64,-37.96 122.05,-26.66"/>
<polygon fill="midnightblue" stroke="midnightblue" points="124.33,-23.99 114.72,-19.51 119.44,-29 124.33,-23.99"/>
</g>
<!-- Node7 -->
<g id="node7" class="node">
<title>Node7</title>
<g id="a_node7"><a xlink:title=" ">
<polygon fill="none" stroke="#bfbfbf" points="157,-0.5 157,-19.5 201,-19.5 201,-0.5 157,-0.5"/>
<text text-anchor="middle" x="179" y="-7.5" font-family="Helvetica,sans-Serif" font-size="10.00">string</text>
</a>
</g>
</g>
<!-- Node5&#45;&gt;Node7 -->
<g id="edge8" class="edge">
<title>Node5&#45;&gt;Node7</title>
<path fill="none" stroke="midnightblue" d="M168.72,-61.98C170.43,-53.49 173.11,-40.2 175.3,-29.32"/>
<polygon fill="midnightblue" stroke="midnightblue" points="178.74,-30 177.28,-19.51 171.88,-28.62 178.74,-30"/>
</g>
<!-- Node8 -->
<g id="node8" class="node">
<title>Node8</title>
<g id="a_node8"><a xlink:title=" ">
<polygon fill="none" stroke="#bfbfbf" points="219.5,-0.5 219.5,-19.5 270.5,-19.5 270.5,-0.5 219.5,-0.5"/>
<text text-anchor="middle" x="245" y="-7.5" font-family="Helvetica,sans-Serif" font-size="10.00">variant</text>
</a>
</g>
</g>
<!-- Node5&#45;&gt;Node8 -->
<g id="edge10" class="edge">
<title>Node5&#45;&gt;Node8</title>
<path fill="none" stroke="midnightblue" d="M178.18,-61.98C190.57,-52.52 210.79,-37.1 225.75,-25.69"/>
<polygon fill="midnightblue" stroke="midnightblue" points="228.02,-28.36 233.85,-19.51 223.77,-22.79 228.02,-28.36"/>
</g>
<!-- Node9&#45;&gt;Node5 -->
<g id="edge14" class="edge">
<title>Node9&#45;&gt;Node5</title>
<path fill="none" stroke="midnightblue" d="M339.83,-179.36C318.89,-171.17 287.52,-157.91 262,-143 233.53,-126.36 203.4,-102.86 184.89,-87.65"/>
<polygon fill="midnightblue" stroke="midnightblue" points="186.95,-84.81 177.03,-81.11 182.48,-90.19 186.95,-84.81"/>
</g>
<!-- Node10 -->
<g id="node10" class="node">
<title>Node10</title>
<g id="a_node10"><a xlink:title=" ">
<polygon fill="none" stroke="#bfbfbf" points="329,-62 329,-81 367,-81 367,-62 329,-62"/>
<text text-anchor="middle" x="348" y="-69" font-family="Helvetica,sans-Serif" font-size="10.00">map</text>
</a>
</g>
</g>
<!-- Node9&#45;&gt;Node10 -->
<g id="edge12" class="edge">
<title>Node9&#45;&gt;Node10</title>
<path fill="none" stroke="midnightblue" d="M369.45,-179.17C377.77,-166.68 390.43,-143.11 384,-123 379.93,-110.28 371.35,-98.03 363.59,-88.78"/>
<polygon fill="midnightblue" stroke="midnightblue" points="366.11,-86.35 356.85,-81.21 360.88,-91 366.11,-86.35"/>
</g>
<!-- Node11 -->
<g id="node11" class="node">
<title>Node11</title>
<g id="a_node11"><a xlink:title=" ">
<polygon fill="none" stroke="#bfbfbf" points="397.5,-62 397.5,-81 444.5,-81 444.5,-62 397.5,-62"/>
<text text-anchor="middle" x="421" y="-69" font-family="Helvetica,sans-Serif" font-size="10.00">vector</text>
</a>
</g>
</g>
<!-- Node9&#45;&gt;Node11 -->
<g id="edge13" class="edge">
<title>Node9&#45;&gt;Node11</title>
<path fill="none" stroke="midnightblue" d="M371.53,-179.4C379.61,-170.83 391.58,-156.96 399,-143 407.82,-126.4 413.76,-105.69 417.22,-91.02"/>
<polygon fill="midnightblue" stroke="midnightblue" points="420.66,-91.67 419.39,-81.15 413.82,-90.17 420.66,-91.67"/>
</g>
<!-- Node12 -->
<g id="node12" class="node">
<title>Node12</title>
<g id="a_node12"><a xlink:href="_event_subscriber_8h.html" target="_top" xlink:title=" ">
<polygon fill="none" stroke="black" points="271,-123.5 271,-142.5 375,-142.5 375,-123.5 271,-123.5"/>
<text text-anchor="middle" x="323" y="-130.5" font-family="Helvetica,sans-Serif" font-size="10.00">EventSubscriber.h</text>
</a>
</g>
</g>
<!-- Node9&#45;&gt;Node12 -->
<g id="edge15" class="edge">
<title>Node9&#45;&gt;Node12</title>
<path fill="none" stroke="midnightblue" d="M356.39,-179.08C350.74,-171.46 342.46,-160.26 335.55,-150.94"/>
<polygon fill="midnightblue" stroke="midnightblue" points="338.25,-148.7 329.48,-142.75 332.62,-152.87 338.25,-148.7"/>
</g>
<!-- Node12&#45;&gt;Node5 -->
<g id="edge19" class="edge">
<title>Node12&#45;&gt;Node5</title>
<path fill="none" stroke="midnightblue" d="M300.65,-123.48C274.01,-113.31 229.29,-96.26 198.99,-84.7"/>
<polygon fill="midnightblue" stroke="midnightblue" points="199.9,-81.3 189.31,-81.01 197.41,-87.84 199.9,-81.3"/>
</g>
<!-- Node12&#45;&gt;Node10 -->
<g id="edge16" class="edge">
<title>Node12&#45;&gt;Node10</title>
<path fill="none" stroke="midnightblue" d="M326.58,-123.48C330.18,-114.9 335.85,-101.43 340.44,-90.48"/>
<polygon fill="midnightblue" stroke="midnightblue" points="343.78,-91.58 344.42,-81.01 337.32,-88.87 343.78,-91.58"/>
</g>
<!-- Node12&#45;&gt;Node11 -->
<g id="edge17" class="edge">
<title>Node12&#45;&gt;Node11</title>
<path fill="none" stroke="midnightblue" d="M337.04,-123.48C353.05,-113.75 379.45,-97.73 398.37,-86.24"/>
<polygon fill="midnightblue" stroke="midnightblue" points="400.25,-89.19 406.99,-81.01 396.62,-83.21 400.25,-89.19"/>
</g>
<!-- Node13 -->
<g id="node13" class="node">
<title>Node13</title>
<g id="a_node13"><a xlink:title=" ">
<polygon fill="none" stroke="#bfbfbf" points="256,-62 256,-81 288,-81 288,-62 256,-62"/>
<text text-anchor="middle" x="272" y="-69" font-family="Helvetica,sans-Serif" font-size="10.00">list</text>
</a>
</g>
</g>
<!-- Node12&#45;&gt;Node13 -->
<g id="edge18" class="edge">
<title>Node12&#45;&gt;Node13</title>
<path fill="none" stroke="midnightblue" d="M315.69,-123.48C307.97,-114.46 295.59,-100.02 285.98,-88.81"/>
<polygon fill="midnightblue" stroke="midnightblue" points="288.46,-86.32 279.29,-81.01 283.14,-90.88 288.46,-86.32"/>
</g>
<!-- Node14&#45;&gt;Node2 -->
<g id="edge22" class="edge">
<title>Node14&#45;&gt;Node2</title>
<path fill="none" stroke="midnightblue" d="M110.13,-59.54C117.14,-58.27 124.23,-57.06 131,-56 249.89,-37.39 391.47,-21.9 458.74,-14.95"/>
<polygon fill="midnightblue" stroke="midnightblue" points="459.3,-18.41 468.89,-13.9 458.58,-11.45 459.3,-18.41"/>
</g>
<!-- Node15 -->
<g id="node15" class="node">
<title>Node15</title>
<g id="a_node15"><a xlink:title=" ">
<polygon fill="none" stroke="#bfbfbf" points="8.5,-0.5 8.5,-19.5 55.5,-19.5 55.5,-0.5 8.5,-0.5"/>
<text text-anchor="middle" x="32" y="-7.5" font-family="Helvetica,sans-Serif" font-size="10.00">queue</text>
</a>
</g>
</g>
<!-- Node14&#45;&gt;Node15 -->
<g id="edge21" class="edge">
<title>Node14&#45;&gt;Node15</title>
<path fill="none" stroke="midnightblue" d="M49.55,-56.4C46.38,-48.2 42.35,-37.78 38.96,-28.99"/>
<polygon fill="midnightblue" stroke="midnightblue" points="42.22,-27.72 35.35,-19.66 35.69,-30.25 42.22,-27.72"/>
</g>
<!-- Node16&#45;&gt;Node5 -->
<g id="edge26" class="edge">
<title>Node16&#45;&gt;Node5</title>
<path fill="none" stroke="midnightblue" d="M100.18,-123.48C112.57,-114.02 132.79,-98.6 147.75,-87.19"/>
<polygon fill="midnightblue" stroke="midnightblue" points="150.02,-89.86 155.85,-81.01 145.77,-84.29 150.02,-89.86"/>
</g>
<!-- Node16&#45;&gt;Node13 -->
<g id="edge24" class="edge">
<title>Node16&#45;&gt;Node13</title>
<path fill="none" stroke="midnightblue" d="M115.22,-123.48C149.97,-112.18 210.94,-92.35 245.72,-81.05"/>
<polygon fill="midnightblue" stroke="midnightblue" points="247.19,-84.25 255.61,-77.83 245.02,-77.59 247.19,-84.25"/>
</g>
<!-- Node16&#45;&gt;Node14 -->
<g id="edge25" class="edge">
<title>Node16&#45;&gt;Node14</title>
<path fill="none" stroke="midnightblue" d="M84.13,-123.48C79.95,-116.17 73.74,-105.3 68.13,-95.47"/>
<polygon fill="midnightblue" stroke="midnightblue" points="71.01,-93.47 63.01,-86.52 64.94,-96.94 71.01,-93.47"/>
</g>
<!-- Node17&#45;&gt;Node1 -->
<g id="edge30" class="edge">
<title>Node17&#45;&gt;Node1</title>
<path fill="none" stroke="midnightblue" d="M460.76,-321.65C462.23,-328.52 462.88,-338.56 462.73,-348.26"/>
<polygon fill="midnightblue" stroke="midnightblue" points="459.22,-348.34 462.25,-358.5 466.21,-348.67 459.22,-348.34"/>
</g>
<!-- Node17&#45;&gt;Node2 -->
<g id="edge28" class="edge">
<title>Node17&#45;&gt;Node2</title>
<path fill="none" stroke="midnightblue" d="M479.08,-302.4C495.72,-295.09 517.55,-283.05 531,-266 552.94,-238.19 555,-225.42 555,-190 555,-190 555,-190 555,-132 555,-96.58 547.02,-87.59 531,-56 525.92,-45.97 518.66,-35.79 512.25,-27.66"/>
<polygon fill="midnightblue" stroke="midnightblue" points="514.8,-25.25 505.76,-19.73 509.39,-29.69 514.8,-25.25"/>
</g>
<!-- Node17&#45;&gt;Node4 -->
<g id="edge29" class="edge">
<title>Node17&#45;&gt;Node4</title>
<path fill="none" stroke="midnightblue" d="M442.68,-302.48C429.96,-294.34 410.35,-281.79 393.76,-271.18"/>
<polygon fill="midnightblue" stroke="midnightblue" points="395.23,-267.96 384.92,-265.52 391.46,-273.86 395.23,-267.96"/>
</g>
<!-- Node18&#45;&gt;Node1 -->
<g id="edge34" class="edge">
<title>Node18&#45;&gt;Node1</title>
<path fill="none" stroke="midnightblue" d="M579.53,-321.65C563.81,-329.95 537.19,-342.86 512.63,-354.23"/>
<polygon fill="midnightblue" stroke="midnightblue" points="510.97,-351.14 503.35,-358.5 513.9,-357.5 510.97,-351.14"/>
</g>
<!-- Node18&#45;&gt;Node2 -->
<g id="edge32" class="edge">
<title>Node18&#45;&gt;Node2</title>
<path fill="none" stroke="midnightblue" d="M593,-302.49C593,-282.74 593,-232.22 593,-190 593,-190 593,-190 593,-132 593,-85.25 548.58,-45.86 520.49,-25.62"/>
<polygon fill="midnightblue" stroke="midnightblue" points="522.23,-22.57 512.02,-19.74 518.23,-28.32 522.23,-22.57"/>
</g>
<!-- Node18&#45;&gt;Node4 -->
<g id="edge33" class="edge">
<title>Node18&#45;&gt;Node4</title>
<path fill="none" stroke="midnightblue" d="M560.05,-302.48C525.48,-293.53 470.26,-279.25 427.07,-268.07"/>
<polygon fill="midnightblue" stroke="midnightblue" points="427.76,-264.64 417.21,-265.52 426.01,-271.42 427.76,-264.64"/>
</g>
<!-- Node19&#45;&gt;Node2 -->
<g id="edge36" class="edge">
<title>Node19&#45;&gt;Node2</title>
<path fill="none" stroke="midnightblue" d="M368.74,-302.46C429.14,-289.67 517,-259.18 517,-190 517,-190 517,-190 517,-132 517,-95.29 508.36,-53.06 502.73,-29.45"/>
<polygon fill="midnightblue" stroke="midnightblue" points="506.13,-28.6 500.33,-19.73 499.33,-30.28 506.13,-28.6"/>
</g>
<!-- Node19&#45;&gt;Node4 -->
<g id="edge37" class="edge">
<title>Node19&#45;&gt;Node4</title>
<path fill="none" stroke="midnightblue" d="M320.16,-302.48C326.56,-294.87 336.19,-283.4 344.71,-273.26"/>
<polygon fill="midnightblue" stroke="midnightblue" points="347.46,-275.43 351.22,-265.52 342.1,-270.93 347.46,-275.43"/>
</g>
</g>
</svg>
        <g id="navigator" transform="translate(0 0)" fill="#404254">
                <rect fill="#f2f5e9" fill-opacity="0.5" stroke="#606060" stroke-width=".5" x="0" y="0" width="60" height="60"/>
                <use id="zoomplus" xlink:href="#zoomPlus" x="17" y="9" onmousedown="handleZoom(evt,'in')"/>
                <use id="zoomminus" xlink:href="#zoomMin" x="42" y="9" onmousedown="handleZoom(evt,'out')"/>
                <use id="reset" xlink:href="#resetDef" x="30" y="36" onmousedown="handleReset()"/>
                <g id="arrowUp" xlink:href="#dirArrow" transform="translate(30 24)" onmousedown="handlePan(0,-1)">
                  <use xlink:href="#rim" fill="#404040">
                        <set attributeName="fill" to="#808080" begin="arrowUp.mouseover" end="arrowUp.mouseout"/>
                  </use>
                  <path fill="none" stroke="white" stroke-width="1.5" d="M0,-3.0v7 M-2.5,-0.5L0,-3.0L2.5,-0.5"/>
                </g>
                <g id="arrowRight" xlink:href="#dirArrow" transform="rotate(90) translate(36 -43)" onmousedown="handlePan(1,0)">
                  <use xlink:href="#rim" fill="#404040">
                        <set attributeName="fill" to="#808080" begin="arrowRight.mouseover" end="arrowRight.mouseout"/>
                  </use>
                  <path fill="none" stroke="white" stroke-width="1.5" d="M0,-3.0v7 M-2.5,-0.5L0,-3.0L2.5,-0.5"/>
                </g>
                <g id="arrowDown" xlink:href="#dirArrow" transform="rotate(180) translate(-30 -48)" onmousedown="handlePan(0,1)">
                  <use xlink:href="#rim" fill="#404040">
                        <set attributeName="fill" to="#808080" begin="arrowDown.mouseover" end="arrowDown.mouseout"/>
                  </use>
                  <path fill="none" stroke="white" stroke-width="1.5" d="M0,-3.0v7 M-2.5,-0.5L0,-3.0L2.5,-0.5"/>
                </g>
                <g id="arrowLeft" xlink:href="#dirArrow" transform="rotate(270) translate(-36 17)" onmousedown="handlePan(-1,0)">
                  <use xlink:href="#rim" fill="#404040">
                        <set attributeName="fill" to="#808080" begin="arrowLeft.mouseover" end="arrowLeft.mouseout"/>
                  </use>
                  <path fill="none" stroke="white" stroke-width="1.5" d="M0,-3.0v7 M-2.5,-0.5L0,-3.0L2.5,-0.5"/>
                </g>
        </g>
        <svg viewBox="0 0 15 15" width="100%" height="30px" preserveAspectRatio="xMaxYMin meet">
         <g id="arrow_out" transform="scale(0.3 0.3)">
          <a xlink:href="_game_state_8h__incl_org.svg" target="_base">
           <rect id="button" ry="5" rx="5" y="6" x="6" height="38" width="38"
                fill="#f2f5e9" fill-opacity="0.5" stroke="#606060" stroke-width="1.0"/>
           <path id="arrow"
             d="M 11.500037,31.436501 C 11.940474,20.09759 22.043105,11.32322 32.158766,21.979434 L 37.068811,17.246167 C 37.068811,17.246167 37.088388,32 37.088388,32 L 22.160133,31.978069 C 22.160133,31.978069 26.997745,27.140456 26.997745,27.140456 C 18.528582,18.264221 13.291696,25.230495 11.500037,31.436501 z"
             style="fill:#404040;"/>
          </a>
         </g>
        </svg>
</svg>
