<?xml version="1.0" encoding="UTF-8" standalone="no"?>
<!DOCTYPE svg PUBLIC "-//W3C//DTD SVG 1.1//EN"
 "http://www.w3.org/Graphics/SVG/1.1/DTD/svg11.dtd">
<!-- Generated by graphviz version 2.43.0 (0)
 -->
<!-- Title: /home/tomek/CLionProjects/proi/proi&#45;projekt/src/game&#45;lib/GameState.cpp Pages: 1 -->
<!--zoomable 486 -->
<svg id="main" version="1.1" xmlns="http://www.w3.org/2000/svg" xmlns:xlink="http://www.w3.org/1999/xlink" xml:space="preserve" onload="init(evt)">
<style type="text/css"><![CDATA[
.edge:hover path { stroke: red; }
.edge:hover polygon { stroke: red; fill: red; }
]]></style>
<script type="text/javascript"><![CDATA[
var edges = document.getElementsByTagName('g');
if (edges && edges.length) {
  for (var i=0;i<edges.length;i++) {
    if (edges[i].id.substr(0,4)=='edge') {
      edges[i].setAttribute('class','edge');
    }
  }
}
]]></script>
        <defs>
                <circle id="rim" cx="0" cy="0" r="7"/>
                <circle id="rim2" cx="0" cy="0" r="3.5"/>
                <g id="zoomPlus">
                        <use xlink:href="#rim" target="_top" fill="#404040">
                                <set attributeName="fill" to="#808080" begin="zoomplus.mouseover" end="zoomplus.mouseout"/>
                        </use>
                        <path d="M-4,0h8M0,-4v8" fill="none" stroke="white" stroke-width="1.5" pointer-events="none"/>
                </g>
                <g id="zoomMin">
                        <use xlink:href="#rim" target="_top" fill="#404040">
                                <set attributeName="fill" to="#808080" begin="zoomminus.mouseover" end="zoomminus.mouseout"/>
                        </use>
                        <path d="M-4,0h8" fill="none" stroke="white" stroke-width="1.5" pointer-events="none"/>
                </g>
                <g id="dirArrow">
                        <path fill="none" stroke="white" stroke-width="1.5" d="M0,-3.0v7 M-2.5,-0.5L0,-3.0L2.5,-0.5"/>
                </g>
               <g id="resetDef">
                       <use xlink:href="#rim2" target="_top" fill="#404040">
                               <set attributeName="fill" to="#808080" begin="reset.mouseover" end="reset.mouseout"/>
                       </use>
               </g>
        </defs>

<script type="text/javascript">
var viewWidth = 1080;
var viewHeight = 486;
var sectionId = 'dynsection-0';
</script>
<script xlink:href="svgpan.js" target="_top"/>
<svg id="graph" class="graph">
<g id="viewport">
<title>/home/tomek/CLionProjects/proi/proi&#45;projekt/src/game&#45;lib/GameState.cpp</title>
<!-- Node1 -->
<g id="node1" class="node">
<title>Node1</title>
<g id="a_node1"><a xlink:title=" ">
<polygon fill="#bfbfbf" stroke="black" points="450.97,-436.5 450.97,-477.5 601.97,-477.5 601.97,-436.5 450.97,-436.5"/>
<text text-anchor="start" x="458.97" y="-465.5" font-family="Helvetica,sans-Serif" font-size="10.00">/home/tomek/CLionProjects</text>
<text text-anchor="start" x="458.97" y="-454.5" font-family="Helvetica,sans-Serif" font-size="10.00">/proi/proi&#45;projekt/src</text>
<text text-anchor="middle" x="526.47" y="-443.5" font-family="Helvetica,sans-Serif" font-size="10.00">/game&#45;lib/GameState.cpp</text>
</a>
</g>
</g>
<!-- Node2 -->
<g id="node2" class="node">
<title>Node2</title>
<g id="a_node2"><a xlink:href="_game_state_8h.html" target="_top" xlink:title=" ">
<polygon fill="none" stroke="black" points="466.97,-380.5 466.97,-399.5 585.97,-399.5 585.97,-380.5 466.97,-380.5"/>
<text text-anchor="middle" x="526.47" y="-387.5" font-family="Helvetica,sans-Serif" font-size="10.00">include/GameState.h</text>
</a>
</g>
</g>
<!-- Node1&#45;&gt;Node2 -->
<g id="edge1" class="edge">
<title>Node1&#45;&gt;Node2</title>
<path fill="none" stroke="midnightblue" d="M526.47,-436.5C526.47,-428.07 526.47,-418.24 526.47,-409.87"/>
<polygon fill="midnightblue" stroke="midnightblue" points="529.97,-409.65 526.47,-399.65 522.97,-409.65 529.97,-409.65"/>
</g>
<!-- Node4 -->
<g id="node4" class="node">
<title>Node4</title>
<g id="a_node4"><a xlink:href="_active_event_handler_8h.html" target="_top" xlink:title=" ">
<polygon fill="none" stroke="black" points="715.47,-324.5 715.47,-343.5 837.47,-343.5 837.47,-324.5 715.47,-324.5"/>
<text text-anchor="middle" x="776.47" y="-331.5" font-family="Helvetica,sans-Serif" font-size="10.00">ActiveEventHandler.h</text>
</a>
</g>
</g>
<!-- Node1&#45;&gt;Node4 -->
<g id="edge38" class="edge">
<title>Node1&#45;&gt;Node4</title>
<path fill="none" stroke="midnightblue" d="M566.92,-436.42C618.31,-411.55 705.59,-369.3 749.52,-348.04"/>
<polygon fill="midnightblue" stroke="midnightblue" points="751.24,-351.1 758.71,-343.6 748.19,-344.8 751.24,-351.1"/>
</g>
<!-- Node17 -->
<g id="node17" class="node">
<title>Node17</title>
<g id="a_node17"><a xlink:href="_menu_event_handler_8h.html" target="_top" xlink:title=" ">
<polygon fill="none" stroke="black" points="380.47,-324.5 380.47,-343.5 498.47,-343.5 498.47,-324.5 380.47,-324.5"/>
<text text-anchor="middle" x="439.47" y="-331.5" font-family="Helvetica,sans-Serif" font-size="10.00">MenuEventHandler.h</text>
</a>
</g>
</g>
<!-- Node1&#45;&gt;Node17 -->
<g id="edge41" class="edge">
<title>Node1&#45;&gt;Node17</title>
<path fill="none" stroke="midnightblue" d="M494.17,-436.24C481.07,-426.76 466.85,-414.33 457.47,-400 448.35,-386.07 443.81,-367.56 441.58,-353.86"/>
<polygon fill="midnightblue" stroke="midnightblue" points="445.01,-353.12 440.19,-343.68 438.07,-354.07 445.01,-353.12"/>
</g>
<!-- Node18 -->
<g id="node18" class="node">
<title>Node18</title>
<g id="a_node18"><a xlink:href="_pause_event_handler_8h.html" target="_top" xlink:title=" ">
<polygon fill="none" stroke="black" points="554.97,-324.5 554.97,-343.5 673.97,-343.5 673.97,-324.5 554.97,-324.5"/>
<text text-anchor="middle" x="614.47" y="-331.5" font-family="Helvetica,sans-Serif" font-size="10.00">PauseEventHandler.h</text>
</a>
</g>
</g>
<!-- Node1&#45;&gt;Node18 -->
<g id="edge40" class="edge">
<title>Node1&#45;&gt;Node18</title>
<path fill="none" stroke="midnightblue" d="M558.33,-436.44C571.5,-426.91 585.91,-414.39 595.47,-400 604.73,-386.08 609.56,-367.57 612.03,-353.86"/>
<polygon fill="midnightblue" stroke="midnightblue" points="615.54,-354.1 613.6,-343.69 608.62,-353.04 615.54,-354.1"/>
</g>
<!-- Node19 -->
<g id="node19" class="node">
<title>Node19</title>
<g id="a_node19"><a xlink:href="_finished_event_handler_8h.html" target="_top" xlink:title=" ">
<polygon fill="none" stroke="black" points="230.97,-324.5 230.97,-343.5 361.97,-343.5 361.97,-324.5 230.97,-324.5"/>
<text text-anchor="middle" x="296.47" y="-331.5" font-family="Helvetica,sans-Serif" font-size="10.00">FinishedEventHandler.h</text>
</a>
</g>
</g>
<!-- Node1&#45;&gt;Node19 -->
<g id="edge39" class="edge">
<title>Node1&#45;&gt;Node19</title>
<path fill="none" stroke="midnightblue" d="M489.26,-436.42C442.18,-411.66 362.35,-369.66 321.78,-348.31"/>
<polygon fill="midnightblue" stroke="midnightblue" points="323.29,-345.15 312.81,-343.6 320.03,-351.35 323.29,-345.15"/>
</g>
<!-- Node20 -->
<g id="node20" class="node">
<title>Node20</title>
<g id="a_node20"><a xlink:href="_menu_8h.html" target="_top" xlink:title=" ">
<polygon fill="none" stroke="black" points="914.97,-129 914.97,-148 1005.97,-148 1005.97,-129 914.97,-129"/>
<text text-anchor="middle" x="960.47" y="-136" font-family="Helvetica,sans-Serif" font-size="10.00">include/Menu.h</text>
</a>
</g>
</g>
<!-- Node1&#45;&gt;Node20 -->
<g id="edge42" class="edge">
<title>Node1&#45;&gt;Node20</title>
<path fill="none" stroke="midnightblue" d="M602.1,-454.86C752.01,-450.56 1072.47,-430.21 1072.47,-335 1072.47,-335 1072.47,-335 1072.47,-271.5 1072.47,-217.66 1017.62,-174.53 984.69,-153.49"/>
<polygon fill="midnightblue" stroke="midnightblue" points="986.39,-150.42 976.05,-148.15 982.71,-156.38 986.39,-150.42"/>
</g>
<!-- Node21 -->
<g id="node21" class="node">
<title>Node21</title>
<g id="a_node21"><a xlink:href="_tank_8h.html" target="_top" xlink:title=" ">
<polygon fill="none" stroke="black" points="125.97,-190.5 125.97,-220.5 226.97,-220.5 226.97,-190.5 125.97,-190.5"/>
<text text-anchor="start" x="133.97" y="-208.5" font-family="Helvetica,sans-Serif" font-size="10.00">../tank&#45;lib/include</text>
<text text-anchor="middle" x="176.47" y="-197.5" font-family="Helvetica,sans-Serif" font-size="10.00">/Tank.h</text>
</a>
</g>
</g>
<!-- Node1&#45;&gt;Node21 -->
<g id="edge45" class="edge">
<title>Node1&#45;&gt;Node21</title>
<path fill="none" stroke="midnightblue" d="M450.85,-447.01C382.15,-434.97 282.48,-407.22 221.47,-344 191.34,-312.77 181.38,-261.06 178.09,-230.74"/>
<polygon fill="midnightblue" stroke="midnightblue" points="181.56,-230.25 177.16,-220.62 174.59,-230.9 181.56,-230.25"/>
</g>
<!-- Node3 -->
<g id="node3" class="node">
<title>Node3</title>
<g id="a_node3"><a xlink:title=" ">
<polygon fill="none" stroke="#bfbfbf" points="370.47,-0.5 370.47,-19.5 428.47,-19.5 428.47,-0.5 370.47,-0.5"/>
<text text-anchor="middle" x="399.47" y="-7.5" font-family="Helvetica,sans-Serif" font-size="10.00">memory</text>
</a>
</g>
</g>
<!-- Node2&#45;&gt;Node3 -->
<g id="edge2" class="edge">
<title>Node2&#45;&gt;Node3</title>
<path fill="none" stroke="midnightblue" d="M525.36,-380.46C523.38,-367.5 518.38,-342.41 507.47,-324 495.94,-304.53 483.39,-307.23 471.47,-288 421.95,-208.07 423.35,-179.31 405.47,-87 401.74,-67.74 400.32,-45.31 399.78,-29.83"/>
<polygon fill="midnightblue" stroke="midnightblue" points="403.28,-29.43 399.52,-19.52 396.28,-29.6 403.28,-29.43"/>
</g>
<!-- Node2&#45;&gt;Node4 -->
<g id="edge3" class="edge">
<title>Node2&#45;&gt;Node4</title>
<path fill="none" stroke="midnightblue" d="M566.09,-380.44C609.7,-371.02 679.87,-355.87 727.05,-345.68"/>
<polygon fill="midnightblue" stroke="midnightblue" points="728.01,-349.05 737.04,-343.52 726.53,-342.21 728.01,-349.05"/>
</g>
<!-- Node2&#45;&gt;Node17 -->
<g id="edge27" class="edge">
<title>Node2&#45;&gt;Node17</title>
<path fill="none" stroke="midnightblue" d="M507.38,-380.32C492.22,-372.03 471.5,-359.36 456.81,-349.53"/>
<polygon fill="midnightblue" stroke="midnightblue" points="458.78,-346.63 448.56,-343.83 454.8,-352.39 458.78,-346.63"/>
</g>
<!-- Node2&#45;&gt;Node18 -->
<g id="edge31" class="edge">
<title>Node2&#45;&gt;Node18</title>
<path fill="none" stroke="midnightblue" d="M535.5,-380.32C547.62,-371.74 568.95,-358.49 586.5,-348.52"/>
<polygon fill="midnightblue" stroke="midnightblue" points="588.22,-351.57 595.26,-343.65 584.82,-345.45 588.22,-351.57"/>
</g>
<!-- Node2&#45;&gt;Node19 -->
<g id="edge35" class="edge">
<title>Node2&#45;&gt;Node19</title>
<path fill="none" stroke="midnightblue" d="M490.03,-380.44C450.07,-371.06 385.89,-355.99 342.49,-345.8"/>
<polygon fill="midnightblue" stroke="midnightblue" points="343.28,-342.39 332.75,-343.52 341.68,-349.21 343.28,-342.39"/>
</g>
<!-- Node4&#45;&gt;Node3 -->
<g id="edge4" class="edge">
<title>Node4&#45;&gt;Node3</title>
<path fill="none" stroke="midnightblue" d="M837.61,-329.24C913.91,-320.86 1034.47,-293.8 1034.47,-206.5 1034.47,-206.5 1034.47,-206.5 1034.47,-137.5 1034.47,-85.16 997.2,-77.48 949.47,-56 903.2,-35.17 556.84,-18 438.77,-12.69"/>
<polygon fill="midnightblue" stroke="midnightblue" points="438.86,-9.2 428.71,-12.25 438.55,-16.19 438.86,-9.2"/>
</g>
<!-- Node5 -->
<g id="node5" class="node">
<title>Node5</title>
<g id="a_node5"><a xlink:href="_event_handler_8h.html" target="_top" xlink:title=" ">
<polygon fill="none" stroke="black" points="480.47,-257.5 480.47,-287.5 590.47,-287.5 590.47,-257.5 480.47,-257.5"/>
<text text-anchor="start" x="488.47" y="-275.5" font-family="Helvetica,sans-Serif" font-size="10.00">../../core&#45;lib/include</text>
<text text-anchor="middle" x="535.47" y="-264.5" font-family="Helvetica,sans-Serif" font-size="10.00">/EventHandler.h</text>
</a>
</g>
</g>
<!-- Node4&#45;&gt;Node5 -->
<g id="edge5" class="edge">
<title>Node4&#45;&gt;Node5</title>
<path fill="none" stroke="midnightblue" d="M741.94,-324.48C705.2,-315.4 646.21,-300.84 600.68,-289.6"/>
<polygon fill="midnightblue" stroke="midnightblue" points="601.43,-286.18 590.88,-287.18 599.75,-292.98 601.43,-286.18"/>
</g>
<!-- Node14 -->
<g id="node14" class="node">
<title>Node14</title>
<g id="a_node14"><a xlink:href="_event_queue_8h.html" target="_top" xlink:title=" ">
<polygon fill="none" stroke="black" points="830.47,-56.5 830.47,-86.5 940.47,-86.5 940.47,-56.5 830.47,-56.5"/>
<text text-anchor="start" x="838.47" y="-74.5" font-family="Helvetica,sans-Serif" font-size="10.00">../../core&#45;lib/include</text>
<text text-anchor="middle" x="885.47" y="-63.5" font-family="Helvetica,sans-Serif" font-size="10.00">/EventQueue.h</text>
</a>
</g>
</g>
<!-- Node4&#45;&gt;Node14 -->
<g id="edge20" class="edge">
<title>Node4&#45;&gt;Node14</title>
<path fill="none" stroke="midnightblue" d="M781.84,-324.42C797.38,-299.22 842.82,-222.93 867.47,-154 874.2,-135.2 878.9,-113.02 881.81,-96.55"/>
<polygon fill="midnightblue" stroke="midnightblue" points="885.26,-97.08 883.46,-86.64 878.36,-95.93 885.26,-97.08"/>
</g>
<!-- Node16 -->
<g id="node16" class="node">
<title>Node16</title>
<g id="a_node16"><a xlink:href="_game_statistics_8h.html" target="_top" xlink:title=" ">
<polygon fill="none" stroke="black" points="758.47,-129 758.47,-148 858.47,-148 858.47,-129 758.47,-129"/>
<text text-anchor="middle" x="808.47" y="-136" font-family="Helvetica,sans-Serif" font-size="10.00">GameStatistics.h</text>
</a>
</g>
</g>
<!-- Node4&#45;&gt;Node16 -->
<g id="edge23" class="edge">
<title>Node4&#45;&gt;Node16</title>
<path fill="none" stroke="midnightblue" d="M777.89,-324.44C782.71,-295.29 798.56,-199.47 805.34,-158.43"/>
<polygon fill="midnightblue" stroke="midnightblue" points="808.82,-158.84 807,-148.41 801.91,-157.7 808.82,-158.84"/>
</g>
<!-- Node5&#45;&gt;Node3 -->
<g id="edge6" class="edge">
<title>Node5&#45;&gt;Node3</title>
<path fill="none" stroke="midnightblue" d="M514.61,-257.43C502.37,-248.27 487.42,-235.39 477.47,-221 433.98,-158.11 411.29,-67.97 403.1,-29.52"/>
<polygon fill="midnightblue" stroke="midnightblue" points="406.53,-28.81 401.09,-19.72 399.67,-30.22 406.53,-28.81"/>
</g>
<!-- Node6 -->
<g id="node6" class="node">
<title>Node6</title>
<g id="a_node6"><a xlink:href="_event_8h.html" target="_top" xlink:title=" ">
<polygon fill="none" stroke="black" points="758.97,-62 758.97,-81 811.97,-81 811.97,-62 758.97,-62"/>
<text text-anchor="middle" x="785.47" y="-69" font-family="Helvetica,sans-Serif" font-size="10.00">Event.h</text>
</a>
</g>
</g>
<!-- Node5&#45;&gt;Node6 -->
<g id="edge7" class="edge">
<title>Node5&#45;&gt;Node6</title>
<path fill="none" stroke="midnightblue" d="M553.45,-257.19C599.2,-220.77 719.73,-124.83 766.52,-87.58"/>
<polygon fill="midnightblue" stroke="midnightblue" points="768.97,-90.11 774.61,-81.14 764.61,-84.63 768.97,-90.11"/>
</g>
<!-- Node9 -->
<g id="node9" class="node">
<title>Node9</title>
<g id="a_node9"><a xlink:href="_event_publisher_8h.html" target="_top" xlink:title=" ">
<polygon fill="none" stroke="black" points="486.47,-196 486.47,-215 584.47,-215 584.47,-196 486.47,-196"/>
<text text-anchor="middle" x="535.47" y="-203" font-family="Helvetica,sans-Serif" font-size="10.00">EventPublisher.h</text>
</a>
</g>
</g>
<!-- Node5&#45;&gt;Node9 -->
<g id="edge11" class="edge">
<title>Node5&#45;&gt;Node9</title>
<path fill="none" stroke="midnightblue" d="M535.47,-257.4C535.47,-248.06 535.47,-235.71 535.47,-225.52"/>
<polygon fill="midnightblue" stroke="midnightblue" points="538.97,-225.19 535.47,-215.19 531.97,-225.19 538.97,-225.19"/>
</g>
<!-- Node6&#45;&gt;Node3 -->
<g id="edge10" class="edge">
<title>Node6&#45;&gt;Node3</title>
<path fill="none" stroke="midnightblue" d="M764.02,-61.96C757.8,-59.74 750.93,-57.55 744.47,-56 635.68,-29.97 503.75,-18.05 439.09,-13.45"/>
<polygon fill="midnightblue" stroke="midnightblue" points="439.15,-9.95 428.93,-12.75 438.66,-16.93 439.15,-9.95"/>
</g>
<!-- Node7 -->
<g id="node7" class="node">
<title>Node7</title>
<g id="a_node7"><a xlink:title=" ">
<polygon fill="none" stroke="#bfbfbf" points="765.97,-0.5 765.97,-19.5 830.97,-19.5 830.97,-0.5 765.97,-0.5"/>
<text text-anchor="middle" x="798.47" y="-7.5" font-family="Helvetica,sans-Serif" font-size="10.00">exception</text>
</a>
</g>
</g>
<!-- Node6&#45;&gt;Node7 -->
<g id="edge8" class="edge">
<title>Node6&#45;&gt;Node7</title>
<path fill="none" stroke="midnightblue" d="M787.33,-61.98C789.19,-53.49 792.09,-40.2 794.47,-29.32"/>
<polygon fill="midnightblue" stroke="midnightblue" points="797.9,-30.03 796.61,-19.51 791.06,-28.53 797.9,-30.03"/>
</g>
<!-- Node8 -->
<g id="node8" class="node">
<title>Node8</title>
<g id="a_node8"><a xlink:title=" ">
<polygon fill="none" stroke="#bfbfbf" points="703.47,-0.5 703.47,-19.5 747.47,-19.5 747.47,-0.5 703.47,-0.5"/>
<text text-anchor="middle" x="725.47" y="-7.5" font-family="Helvetica,sans-Serif" font-size="10.00">string</text>
</a>
</g>
</g>
<!-- Node6&#45;&gt;Node8 -->
<g id="edge9" class="edge">
<title>Node6&#45;&gt;Node8</title>
<path fill="none" stroke="midnightblue" d="M776.88,-61.98C767.61,-52.78 752.66,-37.96 741.26,-26.66"/>
<polygon fill="midnightblue" stroke="midnightblue" points="743.62,-24.07 734.05,-19.51 738.69,-29.04 743.62,-24.07"/>
</g>
<!-- Node9&#45;&gt;Node6 -->
<g id="edge14" class="edge">
<title>Node9&#45;&gt;Node6</title>
<path fill="none" stroke="midnightblue" d="M554.75,-195.87C575.25,-186.44 608.38,-170.47 635.47,-154 655.6,-141.76 658.18,-134.97 678.47,-123 703.33,-108.34 733.13,-94.56 754.96,-85.11"/>
<polygon fill="midnightblue" stroke="midnightblue" points="756.56,-88.24 764.38,-81.09 753.81,-81.8 756.56,-88.24"/>
</g>
<!-- Node10 -->
<g id="node10" class="node">
<title>Node10</title>
<g id="a_node10"><a xlink:title=" ">
<polygon fill="none" stroke="#bfbfbf" points="533.47,-62 533.47,-81 571.47,-81 571.47,-62 533.47,-62"/>
<text text-anchor="middle" x="552.47" y="-69" font-family="Helvetica,sans-Serif" font-size="10.00">map</text>
</a>
</g>
</g>
<!-- Node9&#45;&gt;Node10 -->
<g id="edge12" class="edge">
<title>Node9&#45;&gt;Node10</title>
<path fill="none" stroke="midnightblue" d="M529.76,-195.82C520.61,-180.81 504.58,-149.08 513.47,-123 517.95,-109.86 527.39,-97.49 535.86,-88.28"/>
<polygon fill="midnightblue" stroke="midnightblue" points="538.43,-90.66 542.9,-81.06 533.41,-85.77 538.43,-90.66"/>
</g>
<!-- Node11 -->
<g id="node11" class="node">
<title>Node11</title>
<g id="a_node11"><a xlink:title=" ">
<polygon fill="none" stroke="#bfbfbf" points="446.97,-62 446.97,-81 493.97,-81 493.97,-62 446.97,-62"/>
<text text-anchor="middle" x="470.47" y="-69" font-family="Helvetica,sans-Serif" font-size="10.00">vector</text>
</a>
</g>
</g>
<!-- Node9&#45;&gt;Node11 -->
<g id="edge13" class="edge">
<title>Node9&#45;&gt;Node11</title>
<path fill="none" stroke="midnightblue" d="M530.05,-195.72C524,-185.76 514.05,-168.97 506.47,-154 495.7,-132.72 484.84,-107.5 477.91,-90.81"/>
<polygon fill="midnightblue" stroke="midnightblue" points="481,-89.12 473.96,-81.2 474.53,-91.78 481,-89.12"/>
</g>
<!-- Node12 -->
<g id="node12" class="node">
<title>Node12</title>
<g id="a_node12"><a xlink:href="_event_subscriber_8h.html" target="_top" xlink:title=" ">
<polygon fill="none" stroke="black" points="522.47,-129 522.47,-148 626.47,-148 626.47,-129 522.47,-129"/>
<text text-anchor="middle" x="574.47" y="-136" font-family="Helvetica,sans-Serif" font-size="10.00">EventSubscriber.h</text>
</a>
</g>
</g>
<!-- Node9&#45;&gt;Node12 -->
<g id="edge15" class="edge">
<title>Node9&#45;&gt;Node12</title>
<path fill="none" stroke="midnightblue" d="M540.73,-195.73C546.7,-185.79 556.57,-169.34 564.1,-156.79"/>
<polygon fill="midnightblue" stroke="midnightblue" points="567.15,-158.5 569.3,-148.13 561.15,-154.9 567.15,-158.5"/>
</g>
<!-- Node12&#45;&gt;Node6 -->
<g id="edge19" class="edge">
<title>Node12&#45;&gt;Node6</title>
<path fill="none" stroke="midnightblue" d="M602.49,-128.87C640.19,-117.26 707.3,-96.58 748.93,-83.76"/>
<polygon fill="midnightblue" stroke="midnightblue" points="750.15,-87.04 758.67,-80.76 748.08,-80.36 750.15,-87.04"/>
</g>
<!-- Node12&#45;&gt;Node10 -->
<g id="edge16" class="edge">
<title>Node12&#45;&gt;Node10</title>
<path fill="none" stroke="midnightblue" d="M571.51,-128.73C568.24,-119.09 562.9,-103.3 558.7,-90.91"/>
<polygon fill="midnightblue" stroke="midnightblue" points="561.91,-89.48 555.39,-81.13 555.28,-91.72 561.91,-89.48"/>
</g>
<!-- Node12&#45;&gt;Node11 -->
<g id="edge17" class="edge">
<title>Node12&#45;&gt;Node11</title>
<path fill="none" stroke="midnightblue" d="M560.45,-128.73C543.14,-117.92 513.49,-99.38 492.98,-86.57"/>
<polygon fill="midnightblue" stroke="midnightblue" points="494.61,-83.46 484.28,-81.13 490.9,-89.4 494.61,-83.46"/>
</g>
<!-- Node13 -->
<g id="node13" class="node">
<title>Node13</title>
<g id="a_node13"><a xlink:title=" ">
<polygon fill="none" stroke="#bfbfbf" points="629.47,-62 629.47,-81 661.47,-81 661.47,-62 629.47,-62"/>
<text text-anchor="middle" x="645.47" y="-69" font-family="Helvetica,sans-Serif" font-size="10.00">list</text>
</a>
</g>
</g>
<!-- Node12&#45;&gt;Node13 -->
<g id="edge18" class="edge">
<title>Node12&#45;&gt;Node13</title>
<path fill="none" stroke="midnightblue" d="M584.05,-128.73C595.44,-118.31 614.66,-100.71 628.57,-87.97"/>
<polygon fill="midnightblue" stroke="midnightblue" points="631.04,-90.46 636.05,-81.13 626.31,-85.3 631.04,-90.46"/>
</g>
<!-- Node14&#45;&gt;Node3 -->
<g id="edge22" class="edge">
<title>Node14&#45;&gt;Node3</title>
<path fill="none" stroke="midnightblue" d="M830.39,-57.59C827.38,-57.02 824.39,-56.49 821.47,-56 681.71,-32.8 513.81,-19.06 438.9,-13.66"/>
<polygon fill="midnightblue" stroke="midnightblue" points="438.76,-10.14 428.54,-12.93 438.26,-17.13 438.76,-10.14"/>
</g>
<!-- Node15 -->
<g id="node15" class="node">
<title>Node15</title>
<g id="a_node15"><a xlink:title=" ">
<polygon fill="none" stroke="#bfbfbf" points="861.97,-0.5 861.97,-19.5 908.97,-19.5 908.97,-0.5 861.97,-0.5"/>
<text text-anchor="middle" x="885.47" y="-7.5" font-family="Helvetica,sans-Serif" font-size="10.00">queue</text>
</a>
</g>
</g>
<!-- Node14&#45;&gt;Node15 -->
<g id="edge21" class="edge">
<title>Node14&#45;&gt;Node15</title>
<path fill="none" stroke="midnightblue" d="M885.47,-56.4C885.47,-48.47 885.47,-38.46 885.47,-29.86"/>
<polygon fill="midnightblue" stroke="midnightblue" points="888.97,-29.66 885.47,-19.66 881.97,-29.66 888.97,-29.66"/>
</g>
<!-- Node16&#45;&gt;Node6 -->
<g id="edge26" class="edge">
<title>Node16&#45;&gt;Node6</title>
<path fill="none" stroke="midnightblue" d="M805.37,-128.73C801.96,-119.09 796.37,-103.3 791.99,-90.91"/>
<polygon fill="midnightblue" stroke="midnightblue" points="795.16,-89.39 788.52,-81.13 788.56,-91.72 795.16,-89.39"/>
</g>
<!-- Node16&#45;&gt;Node13 -->
<g id="edge24" class="edge">
<title>Node16&#45;&gt;Node13</title>
<path fill="none" stroke="midnightblue" d="M786.83,-128.87C756.98,-116.96 703.25,-95.54 671.33,-82.81"/>
<polygon fill="midnightblue" stroke="midnightblue" points="672.37,-79.46 661.79,-79.01 669.78,-85.96 672.37,-79.46"/>
</g>
<!-- Node16&#45;&gt;Node14 -->
<g id="edge25" class="edge">
<title>Node16&#45;&gt;Node14</title>
<path fill="none" stroke="midnightblue" d="M818.86,-128.73C829.56,-119.7 846.65,-105.27 860.83,-93.3"/>
<polygon fill="midnightblue" stroke="midnightblue" points="863.4,-95.71 868.78,-86.59 858.88,-90.37 863.4,-95.71"/>
</g>
<!-- Node17&#45;&gt;Node2 -->
<g id="edge30" class="edge">
<title>Node17&#45;&gt;Node2</title>
<path fill="none" stroke="midnightblue" d="M458.53,-343.65C473.77,-351.99 494.65,-364.76 509.35,-374.62"/>
<polygon fill="midnightblue" stroke="midnightblue" points="507.39,-377.52 517.61,-380.32 511.37,-371.76 507.39,-377.52"/>
</g>
<!-- Node17&#45;&gt;Node3 -->
<g id="edge28" class="edge">
<title>Node17&#45;&gt;Node3</title>
<path fill="none" stroke="midnightblue" d="M425.98,-324.35C399.33,-306.08 342.47,-260.74 342.47,-206.5 342.47,-206.5 342.47,-206.5 342.47,-137.5 342.47,-99.74 349.72,-89.84 366.47,-56 371.46,-45.93 378.7,-35.74 385.14,-27.61"/>
<polygon fill="midnightblue" stroke="midnightblue" points="387.99,-29.65 391.65,-19.7 382.59,-25.2 387.99,-29.65"/>
</g>
<!-- Node17&#45;&gt;Node5 -->
<g id="edge29" class="edge">
<title>Node17&#45;&gt;Node5</title>
<path fill="none" stroke="midnightblue" d="M453.23,-324.48C466.47,-316.27 486.98,-303.56 504.2,-292.88"/>
<polygon fill="midnightblue" stroke="midnightblue" points="506.19,-295.77 512.85,-287.52 502.5,-289.82 506.19,-295.77"/>
</g>
<!-- Node18&#45;&gt;Node2 -->
<g id="edge34" class="edge">
<title>Node18&#45;&gt;Node2</title>
<path fill="none" stroke="midnightblue" d="M605.22,-343.83C593.17,-352.34 572.27,-365.34 554.92,-375.21"/>
<polygon fill="midnightblue" stroke="midnightblue" points="552.76,-372.4 545.73,-380.32 556.17,-378.52 552.76,-372.4"/>
</g>
<!-- Node18&#45;&gt;Node3 -->
<g id="edge32" class="edge">
<title>Node18&#45;&gt;Node3</title>
<path fill="none" stroke="midnightblue" d="M631.84,-324.37C664.2,-306.93 730.47,-264.16 730.47,-206.5 730.47,-206.5 730.47,-206.5 730.47,-137.5 730.47,-92.52 708.81,-79.52 670.47,-56 632.35,-32.61 504.62,-19.34 439.05,-13.91"/>
<polygon fill="midnightblue" stroke="midnightblue" points="438.95,-10.39 428.7,-13.08 438.39,-17.37 438.95,-10.39"/>
</g>
<!-- Node18&#45;&gt;Node5 -->
<g id="edge33" class="edge">
<title>Node18&#45;&gt;Node5</title>
<path fill="none" stroke="midnightblue" d="M603.15,-324.48C592.55,-316.49 576.31,-304.25 562.39,-293.77"/>
<polygon fill="midnightblue" stroke="midnightblue" points="564.18,-290.74 554.09,-287.52 559.97,-296.33 564.18,-290.74"/>
</g>
<!-- Node19&#45;&gt;Node3 -->
<g id="edge36" class="edge">
<title>Node19&#45;&gt;Node3</title>
<path fill="none" stroke="midnightblue" d="M297.39,-324.42C299.49,-304.01 304.47,-250.95 304.47,-206.5 304.47,-206.5 304.47,-206.5 304.47,-137.5 304.47,-88.93 349.81,-47.09 377.85,-25.87"/>
<polygon fill="midnightblue" stroke="midnightblue" points="380.25,-28.44 386.26,-19.72 376.12,-22.79 380.25,-28.44"/>
</g>
<!-- Node19&#45;&gt;Node5 -->
<g id="edge37" class="edge">
<title>Node19&#45;&gt;Node5</title>
<path fill="none" stroke="midnightblue" d="M330.72,-324.48C366.95,-315.45 425.02,-301 470.08,-289.78"/>
<polygon fill="midnightblue" stroke="midnightblue" points="471.21,-293.11 480.06,-287.29 469.51,-286.31 471.21,-293.11"/>
</g>
<!-- Node20&#45;&gt;Node6 -->
<g id="edge44" class="edge">
<title>Node20&#45;&gt;Node6</title>
<path fill="none" stroke="midnightblue" d="M936.27,-128.99C908.47,-119.15 861.51,-102.33 821.47,-87 819.63,-86.3 817.74,-85.56 815.84,-84.82"/>
<polygon fill="midnightblue" stroke="midnightblue" points="816.95,-81.49 806.36,-81.06 814.37,-88 816.95,-81.49"/>
</g>
<!-- Node20&#45;&gt;Node14 -->
<g id="edge43" class="edge">
<title>Node20&#45;&gt;Node14</title>
<path fill="none" stroke="midnightblue" d="M950.36,-128.73C939.93,-119.7 923.29,-105.27 909.47,-93.3"/>
<polygon fill="midnightblue" stroke="midnightblue" points="911.58,-90.49 901.73,-86.59 906.99,-95.78 911.58,-90.49"/>
</g>
<!-- Node21&#45;&gt;Node3 -->
<g id="edge46" class="edge">
<title>Node21&#45;&gt;Node3</title>
<path fill="none" stroke="midnightblue" d="M125.94,-199.04C64.95,-190.31 -25.59,-169.24 7.47,-123 49.05,-64.85 269.08,-28.73 360.06,-16.09"/>
<polygon fill="midnightblue" stroke="midnightblue" points="360.8,-19.52 370.24,-14.69 359.86,-12.58 360.8,-19.52"/>
</g>
<!-- Node22 -->
<g id="node22" class="node">
<title>Node22</title>
<g id="a_node22"><a xlink:title=" ">
<polygon fill="none" stroke="#bfbfbf" points="148.47,-129 148.47,-148 204.47,-148 204.47,-129 148.47,-129"/>
<text text-anchor="middle" x="176.47" y="-136" font-family="Helvetica,sans-Serif" font-size="10.00">optional</text>
</a>
</g>
</g>
<!-- Node21&#45;&gt;Node22 -->
<g id="edge47" class="edge">
<title>Node21&#45;&gt;Node22</title>
<path fill="none" stroke="midnightblue" d="M176.47,-190.4C176.47,-181.06 176.47,-168.71 176.47,-158.52"/>
<polygon fill="midnightblue" stroke="midnightblue" points="179.97,-158.19 176.47,-148.19 172.97,-158.19 179.97,-158.19"/>
</g>
<!-- Node23 -->
<g id="node23" class="node">
<title>Node23</title>
<g id="a_node23"><a xlink:href="_simple_subscriber_8h.html" target="_top" xlink:title=" ">
<polygon fill="none" stroke="black" points="16.97,-123.5 16.97,-153.5 129.97,-153.5 129.97,-123.5 16.97,-123.5"/>
<text text-anchor="start" x="24.97" y="-141.5" font-family="Helvetica,sans-Serif" font-size="10.00">../../core&#45;lib/include</text>
<text text-anchor="middle" x="73.47" y="-130.5" font-family="Helvetica,sans-Serif" font-size="10.00">/SimpleSubscriber.h</text>
</a>
</g>
</g>
<!-- Node21&#45;&gt;Node23 -->
<g id="edge48" class="edge">
<title>Node21&#45;&gt;Node23</title>
<path fill="none" stroke="midnightblue" d="M154.12,-190.4C139.55,-181.2 120.32,-169.07 104.3,-158.95"/>
<polygon fill="midnightblue" stroke="midnightblue" points="106.1,-155.95 95.78,-153.58 102.37,-161.87 106.1,-155.95"/>
</g>
<!-- Node24 -->
<g id="node24" class="node">
<title>Node24</title>
<g id="a_node24"><a xlink:href="_entity_8h.html" target="_top" xlink:title=" ">
<polygon fill="none" stroke="black" points="222.97,-129 222.97,-148 275.97,-148 275.97,-129 222.97,-129"/>
<text text-anchor="middle" x="249.47" y="-136" font-family="Helvetica,sans-Serif" font-size="10.00">Entity.h</text>
</a>
</g>
</g>
<!-- Node21&#45;&gt;Node24 -->
<g id="edge51" class="edge">
<title>Node21&#45;&gt;Node24</title>
<path fill="none" stroke="midnightblue" d="M192.31,-190.4C204.03,-179.96 219.99,-165.75 232.07,-155"/>
<polygon fill="midnightblue" stroke="midnightblue" points="234.57,-157.46 239.71,-148.19 229.91,-152.23 234.57,-157.46"/>
</g>
<!-- Node23&#45;&gt;Node3 -->
<g id="edge50" class="edge">
<title>Node23&#45;&gt;Node3</title>
<path fill="none" stroke="midnightblue" d="M109.61,-123.48C173.83,-98.56 306.84,-46.95 367.75,-23.31"/>
<polygon fill="midnightblue" stroke="midnightblue" points="369.17,-26.51 377.23,-19.63 366.64,-19.98 369.17,-26.51"/>
</g>
<!-- Node23&#45;&gt;Node11 -->
<g id="edge49" class="edge">
<title>Node23&#45;&gt;Node11</title>
<path fill="none" stroke="midnightblue" d="M130.31,-124.77C133.4,-124.15 136.47,-123.56 139.47,-123 247.57,-102.9 376.62,-84.93 436.66,-76.92"/>
<polygon fill="midnightblue" stroke="midnightblue" points="437.25,-80.37 446.7,-75.59 436.33,-73.43 437.25,-80.37"/>
</g>
</g>
</svg>
        <g id="navigator" transform="translate(0 0)" fill="#404254">
                <rect fill="#f2f5e9" fill-opacity="0.5" stroke="#606060" stroke-width=".5" x="0" y="0" width="60" height="60"/>
                <use id="zoomplus" xlink:href="#zoomPlus" target="_top" x="17" y="9" onmousedown="handleZoom(evt,'in')"/>
                <use id="zoomminus" xlink:href="#zoomMin" target="_top" x="42" y="9" onmousedown="handleZoom(evt,'out')"/>
                <use id="reset" xlink:href="#resetDef" target="_top" x="30" y="36" onmousedown="handleReset()"/>
                <g id="arrowUp" xlink:href="#dirArrow" target="_top" transform="translate(30 24)" onmousedown="handlePan(0,-1)">
                  <use xlink:href="#rim" target="_top" fill="#404040">
                        <set attributeName="fill" to="#808080" begin="arrowUp.mouseover" end="arrowUp.mouseout"/>
                  </use>
                  <path fill="none" stroke="white" stroke-width="1.5" d="M0,-3.0v7 M-2.5,-0.5L0,-3.0L2.5,-0.5"/>
                </g>
                <g id="arrowRight" xlink:href="#dirArrow" target="_top" transform="rotate(90) translate(36 -43)" onmousedown="handlePan(1,0)">
                  <use xlink:href="#rim" target="_top" fill="#404040">
                        <set attributeName="fill" to="#808080" begin="arrowRight.mouseover" end="arrowRight.mouseout"/>
                  </use>
                  <path fill="none" stroke="white" stroke-width="1.5" d="M0,-3.0v7 M-2.5,-0.5L0,-3.0L2.5,-0.5"/>
                </g>
                <g id="arrowDown" xlink:href="#dirArrow" target="_top" transform="rotate(180) translate(-30 -48)" onmousedown="handlePan(0,1)">
                  <use xlink:href="#rim" target="_top" fill="#404040">
                        <set attributeName="fill" to="#808080" begin="arrowDown.mouseover" end="arrowDown.mouseout"/>
                  </use>
                  <path fill="none" stroke="white" stroke-width="1.5" d="M0,-3.0v7 M-2.5,-0.5L0,-3.0L2.5,-0.5"/>
                </g>
                <g id="arrowLeft" xlink:href="#dirArrow" target="_top" transform="rotate(270) translate(-36 17)" onmousedown="handlePan(-1,0)">
                  <use xlink:href="#rim" target="_top" fill="#404040">
                        <set attributeName="fill" to="#808080" begin="arrowLeft.mouseover" end="arrowLeft.mouseout"/>
                  </use>
                  <path fill="none" stroke="white" stroke-width="1.5" d="M0,-3.0v7 M-2.5,-0.5L0,-3.0L2.5,-0.5"/>
                </g>
        </g>
        <svg viewBox="0 0 15 15" width="100%" height="30px" preserveAspectRatio="xMaxYMin meet">
         <g id="arrow_out" transform="scale(0.3 0.3)">
          <a xlink:href="_game_state_8cpp__incl_org.svg" target="_top" target="_base">
           <rect id="button" ry="5" rx="5" y="6" x="6" height="38" width="38"
                fill="#f2f5e9" fill-opacity="0.5" stroke="#606060" stroke-width="1.0"/>
           <path id="arrow"
             d="M 11.500037,31.436501 C 11.940474,20.09759 22.043105,11.32322 32.158766,21.979434 L 37.068811,17.246167 C 37.068811,17.246167 37.088388,32 37.088388,32 L 22.160133,31.978069 C 22.160133,31.978069 26.997745,27.140456 26.997745,27.140456 C 18.528582,18.264221 13.291696,25.230495 11.500037,31.436501 z"
             style="fill:#404040;"/>
          </a>
         </g>
        </svg>
</svg>
