<?xml version="1.0" encoding="UTF-8" standalone="no"?>
<!DOCTYPE svg PUBLIC "-//W3C//DTD SVG 1.1//EN"
 "http://www.w3.org/Graphics/SVG/1.1/DTD/svg11.dtd">
<!-- Generated by graphviz version 2.43.0 (0)
 -->
<!-- Title: /home/tomek/CLionProjects/proi/proi&#45;projekt/src/graphic&#45;lib/include/GraphicEventHandler.h Pages: 1 -->
<svg width="1135pt" height="217pt"
 viewBox="0.00 0.00 1134.50 217.00" xmlns="http://www.w3.org/2000/svg" xmlns:xlink="http://www.w3.org/1999/xlink">
<g id="graph0" class="graph" transform="scale(1 1) rotate(0) translate(4 213)">
<title>/home/tomek/CLionProjects/proi/proi&#45;projekt/src/graphic&#45;lib/include/GraphicEventHandler.h</title>
<!-- Node1 -->
<g id="node1" class="node">
<title>Node1</title>
<g id="a_node1"><a xlink:title=" ">
<polygon fill="#bfbfbf" stroke="black" points="584,-156.5 584,-208.5 762,-208.5 762,-156.5 584,-156.5"/>
<text text-anchor="start" x="592" y="-196.5" font-family="Helvetica,sans-Serif" font-size="10.00">/home/tomek/CLionProjects</text>
<text text-anchor="start" x="592" y="-185.5" font-family="Helvetica,sans-Serif" font-size="10.00">/proi/proi&#45;projekt/src</text>
<text text-anchor="start" x="592" y="-174.5" font-family="Helvetica,sans-Serif" font-size="10.00">/graphic&#45;lib/include/GraphicEvent</text>
<text text-anchor="middle" x="673" y="-163.5" font-family="Helvetica,sans-Serif" font-size="10.00">Handler.h</text>
</a>
</g>
</g>
<!-- Node2 -->
<g id="node2" class="node">
<title>Node2</title>
<g id="a_node2"><a xlink:href="_game_8h.html" target="_top" xlink:title=" ">
<polygon fill="none" stroke="black" points="501.5,-78.5 501.5,-119.5 652.5,-119.5 652.5,-78.5 501.5,-78.5"/>
<text text-anchor="start" x="509.5" y="-107.5" font-family="Helvetica,sans-Serif" font-size="10.00">/home/tomek/CLionProjects</text>
<text text-anchor="start" x="509.5" y="-96.5" font-family="Helvetica,sans-Serif" font-size="10.00">/proi/proi&#45;projekt/src</text>
<text text-anchor="middle" x="577" y="-85.5" font-family="Helvetica,sans-Serif" font-size="10.00">/game&#45;lib/include/Game.h</text>
</a>
</g>
</g>
<!-- Node1&#45;&gt;Node2 -->
<g id="edge1" class="edge">
<title>Node1&#45;&gt;Node2</title>
<path fill="none" stroke="midnightblue" d="M635.73,-149.86C623.78,-139.71 610.89,-128.77 600.24,-119.73"/>
<polygon fill="midnightblue" stroke="midnightblue" points="633.53,-152.58 643.41,-156.38 638.06,-147.24 633.53,-152.58"/>
</g>
<!-- Node9 -->
<g id="node9" class="node">
<title>Node9</title>
<g id="a_node9"><a xlink:href="_graphic_event_handler_8cpp.html" target="_top" xlink:title=" ">
<polygon fill="none" stroke="black" points="670.5,-78.5 670.5,-119.5 867.5,-119.5 867.5,-78.5 670.5,-78.5"/>
<text text-anchor="start" x="678.5" y="-107.5" font-family="Helvetica,sans-Serif" font-size="10.00">/home/tomek/CLionProjects</text>
<text text-anchor="start" x="678.5" y="-96.5" font-family="Helvetica,sans-Serif" font-size="10.00">/proi/proi&#45;projekt/src</text>
<text text-anchor="middle" x="769" y="-85.5" font-family="Helvetica,sans-Serif" font-size="10.00">/graphic&#45;lib/GraphicEventHandler.cpp</text>
</a>
</g>
</g>
<!-- Node1&#45;&gt;Node9 -->
<g id="edge8" class="edge">
<title>Node1&#45;&gt;Node9</title>
<path fill="none" stroke="midnightblue" d="M710.27,-149.86C722.22,-139.71 735.11,-128.77 745.76,-119.73"/>
<polygon fill="midnightblue" stroke="midnightblue" points="707.94,-147.24 702.59,-156.38 712.47,-152.58 707.94,-147.24"/>
</g>
<!-- Node3 -->
<g id="node3" class="node">
<title>Node3</title>
<g id="a_node3"><a xlink:href="_active_event_handler_8cpp.html" target="_top" xlink:title=" ">
<polygon fill="none" stroke="black" points="0,-0.5 0,-41.5 182,-41.5 182,-0.5 0,-0.5"/>
<text text-anchor="start" x="8" y="-29.5" font-family="Helvetica,sans-Serif" font-size="10.00">/home/tomek/CLionProjects</text>
<text text-anchor="start" x="8" y="-18.5" font-family="Helvetica,sans-Serif" font-size="10.00">/proi/proi&#45;projekt/src</text>
<text text-anchor="middle" x="91" y="-7.5" font-family="Helvetica,sans-Serif" font-size="10.00">/game&#45;lib/ActiveEventHandler.cpp</text>
</a>
</g>
</g>
<!-- Node2&#45;&gt;Node3 -->
<g id="edge2" class="edge">
<title>Node2&#45;&gt;Node3</title>
<path fill="none" stroke="midnightblue" d="M491.06,-86.87C412.7,-76.4 293.82,-59.73 191,-42 188.12,-41.5 185.2,-40.99 182.25,-40.46"/>
<polygon fill="midnightblue" stroke="midnightblue" points="490.99,-90.39 501.37,-88.24 491.92,-83.45 490.99,-90.39"/>
</g>
<!-- Node4 -->
<g id="node4" class="node">
<title>Node4</title>
<g id="a_node4"><a xlink:href="_finished_event_handler_8cpp.html" target="_top" xlink:title=" ">
<polygon fill="none" stroke="black" points="200,-0.5 200,-41.5 392,-41.5 392,-0.5 200,-0.5"/>
<text text-anchor="start" x="208" y="-29.5" font-family="Helvetica,sans-Serif" font-size="10.00">/home/tomek/CLionProjects</text>
<text text-anchor="start" x="208" y="-18.5" font-family="Helvetica,sans-Serif" font-size="10.00">/proi/proi&#45;projekt/src</text>
<text text-anchor="middle" x="296" y="-7.5" font-family="Helvetica,sans-Serif" font-size="10.00">/game&#45;lib/FinishedEventHandler.cpp</text>
</a>
</g>
</g>
<!-- Node2&#45;&gt;Node4 -->
<g id="edge3" class="edge">
<title>Node2&#45;&gt;Node4</title>
<path fill="none" stroke="midnightblue" d="M494.87,-75.79C454.72,-64.93 406.84,-51.98 368.12,-41.51"/>
<polygon fill="midnightblue" stroke="midnightblue" points="494.07,-79.2 504.64,-78.43 495.9,-72.44 494.07,-79.2"/>
</g>
<!-- Node5 -->
<g id="node5" class="node">
<title>Node5</title>
<g id="a_node5"><a xlink:href="_game_8cpp.html" target="_top" xlink:title=" ">
<polygon fill="none" stroke="black" points="410.5,-0.5 410.5,-41.5 561.5,-41.5 561.5,-0.5 410.5,-0.5"/>
<text text-anchor="start" x="418.5" y="-29.5" font-family="Helvetica,sans-Serif" font-size="10.00">/home/tomek/CLionProjects</text>
<text text-anchor="start" x="418.5" y="-18.5" font-family="Helvetica,sans-Serif" font-size="10.00">/proi/proi&#45;projekt/src</text>
<text text-anchor="middle" x="486" y="-7.5" font-family="Helvetica,sans-Serif" font-size="10.00">/game&#45;lib/Game.cpp</text>
</a>
</g>
</g>
<!-- Node2&#45;&gt;Node5 -->
<g id="edge4" class="edge">
<title>Node2&#45;&gt;Node5</title>
<path fill="none" stroke="midnightblue" d="M545.6,-71.78C533.71,-61.84 520.38,-50.72 509.36,-41.51"/>
<polygon fill="midnightblue" stroke="midnightblue" points="543.65,-74.7 553.57,-78.43 548.13,-69.33 543.65,-74.7"/>
</g>
<!-- Node6 -->
<g id="node6" class="node">
<title>Node6</title>
<g id="a_node6"><a xlink:href="_menu_event_handler_8cpp.html" target="_top" xlink:title=" ">
<polygon fill="none" stroke="black" points="579.5,-0.5 579.5,-41.5 758.5,-41.5 758.5,-0.5 579.5,-0.5"/>
<text text-anchor="start" x="587.5" y="-29.5" font-family="Helvetica,sans-Serif" font-size="10.00">/home/tomek/CLionProjects</text>
<text text-anchor="start" x="587.5" y="-18.5" font-family="Helvetica,sans-Serif" font-size="10.00">/proi/proi&#45;projekt/src</text>
<text text-anchor="middle" x="669" y="-7.5" font-family="Helvetica,sans-Serif" font-size="10.00">/game&#45;lib/MenuEventHandler.cpp</text>
</a>
</g>
</g>
<!-- Node2&#45;&gt;Node6 -->
<g id="edge5" class="edge">
<title>Node2&#45;&gt;Node6</title>
<path fill="none" stroke="midnightblue" d="M608.74,-71.78C620.77,-61.84 634.24,-50.72 645.39,-41.51"/>
<polygon fill="midnightblue" stroke="midnightblue" points="606.17,-69.36 600.69,-78.43 610.63,-74.76 606.17,-69.36"/>
</g>
<!-- Node7 -->
<g id="node7" class="node">
<title>Node7</title>
<g id="a_node7"><a xlink:href="_pause_event_handler_8cpp.html" target="_top" xlink:title=" ">
<polygon fill="none" stroke="black" points="777,-0.5 777,-41.5 957,-41.5 957,-0.5 777,-0.5"/>
<text text-anchor="start" x="785" y="-29.5" font-family="Helvetica,sans-Serif" font-size="10.00">/home/tomek/CLionProjects</text>
<text text-anchor="start" x="785" y="-18.5" font-family="Helvetica,sans-Serif" font-size="10.00">/proi/proi&#45;projekt/src</text>
<text text-anchor="middle" x="867" y="-7.5" font-family="Helvetica,sans-Serif" font-size="10.00">/game&#45;lib/PauseEventHandler.cpp</text>
</a>
</g>
</g>
<!-- Node2&#45;&gt;Node7 -->
<g id="edge6" class="edge">
<title>Node2&#45;&gt;Node7</title>
<path fill="none" stroke="midnightblue" d="M661.5,-75.86C702.98,-64.98 752.53,-52 792.57,-41.51"/>
<polygon fill="midnightblue" stroke="midnightblue" points="660.47,-72.51 651.68,-78.43 662.24,-79.28 660.47,-72.51"/>
</g>
<!-- Node8 -->
<g id="node8" class="node">
<title>Node8</title>
<g id="a_node8"><a xlink:href="tanks_8cpp.html" target="_top" xlink:title=" ">
<polygon fill="none" stroke="black" points="975.5,-0.5 975.5,-41.5 1126.5,-41.5 1126.5,-0.5 975.5,-0.5"/>
<text text-anchor="start" x="983.5" y="-29.5" font-family="Helvetica,sans-Serif" font-size="10.00">/home/tomek/CLionProjects</text>
<text text-anchor="start" x="983.5" y="-18.5" font-family="Helvetica,sans-Serif" font-size="10.00">/proi/proi&#45;projekt/src</text>
<text text-anchor="middle" x="1051" y="-7.5" font-family="Helvetica,sans-Serif" font-size="10.00">/main/tanks.cpp</text>
</a>
</g>
</g>
<!-- Node2&#45;&gt;Node8 -->
<g id="edge7" class="edge">
<title>Node2&#45;&gt;Node8</title>
<path fill="none" stroke="midnightblue" d="M662.8,-77.97C797.73,-54.89 835.15,-65.07 966,-42 968.99,-41.47 972.02,-40.91 975.09,-40.31"/>
<polygon fill="midnightblue" stroke="midnightblue" points="662.16,-74.53 652.91,-79.69 663.36,-81.42 662.16,-74.53"/>
</g>
</g>
</svg>
