<?xml version="1.0" encoding="UTF-8" standalone="no"?>
<!DOCTYPE svg PUBLIC "-//W3C//DTD SVG 1.1//EN"
 "http://www.w3.org/Graphics/SVG/1.1/DTD/svg11.dtd">
<!-- Generated by graphviz version 2.43.0 (0)
 -->
<!-- Title: /home/tomek/CLionProjects/proi/proi&#45;projekt/src/board&#45;lib/Grid.cpp Pages: 1 -->
<svg width="331pt" height="173pt"
 viewBox="0.00 0.00 330.50 173.00" xmlns="http://www.w3.org/2000/svg" xmlns:xlink="http://www.w3.org/1999/xlink">
<g id="graph0" class="graph" transform="scale(1 1) rotate(0) translate(4 169)">
<title>/home/tomek/CLionProjects/proi/proi&#45;projekt/src/board&#45;lib/Grid.cpp</title>
<!-- Node1 -->
<g id="node1" class="node">
<title>Node1</title>
<g id="a_node1"><a xlink:title=" ">
<polygon fill="#bfbfbf" stroke="black" points="94,-123.5 94,-164.5 245,-164.5 245,-123.5 94,-123.5"/>
<text text-anchor="start" x="102" y="-152.5" font-family="Helvetica,sans-Serif" font-size="10.00">/home/tomek/CLionProjects</text>
<text text-anchor="start" x="102" y="-141.5" font-family="Helvetica,sans-Serif" font-size="10.00">/proi/proi&#45;projekt/src</text>
<text text-anchor="middle" x="169.5" y="-130.5" font-family="Helvetica,sans-Serif" font-size="10.00">/board&#45;lib/Grid.cpp</text>
</a>
</g>
</g>
<!-- Node2 -->
<g id="node2" class="node">
<title>Node2</title>
<g id="a_node2"><a xlink:href="_grid_8h.html" target="_top" target="_top" target="_top" target="_top" target="_top" xlink:title=" ">
<polygon fill="none" stroke="black" points="238.5,-62 238.5,-81 322.5,-81 322.5,-62 238.5,-62"/>
<text text-anchor="middle" x="280.5" y="-69" font-family="Helvetica,sans-Serif" font-size="10.00">include/Grid.h</text>
</a>
</g>
</g>
<!-- Node1&#45;&gt;Node2 -->
<g id="edge1" class="edge">
<title>Node1&#45;&gt;Node2</title>
<path fill="none" stroke="midnightblue" d="M200.42,-123.36C218.82,-111.67 241.74,-97.12 258.34,-86.57"/>
<polygon fill="midnightblue" stroke="midnightblue" points="260.28,-89.49 266.84,-81.17 256.53,-83.58 260.28,-89.49"/>
</g>
<!-- Node4 -->
<g id="node4" class="node">
<title>Node4</title>
<g id="a_node4"><a xlink:href="_event_queue_8h.html" target="_top" target="_top" target="_top" target="_top" target="_top" xlink:title=" ">
<polygon fill="none" stroke="black" points="0,-56.5 0,-86.5 101,-86.5 101,-56.5 0,-56.5"/>
<text text-anchor="start" x="8" y="-74.5" font-family="Helvetica,sans-Serif" font-size="10.00">../core&#45;lib/include</text>
<text text-anchor="middle" x="50.5" y="-63.5" font-family="Helvetica,sans-Serif" font-size="10.00">/EventQueue.h</text>
</a>
</g>
</g>
<!-- Node1&#45;&gt;Node4 -->
<g id="edge3" class="edge">
<title>Node1&#45;&gt;Node4</title>
<path fill="none" stroke="midnightblue" d="M136.35,-123.36C119.76,-113.53 99.73,-101.67 83.2,-91.87"/>
<polygon fill="midnightblue" stroke="midnightblue" points="84.81,-88.76 74.42,-86.67 81.24,-94.78 84.81,-88.76"/>
</g>
<!-- Node7 -->
<g id="node7" class="node">
<title>Node7</title>
<g id="a_node7"><a xlink:href="_event_8h.html" target="_top" target="_top" target="_top" target="_top" target="_top" xlink:title=" ">
<polygon fill="none" stroke="black" points="119,-56.5 119,-86.5 220,-86.5 220,-56.5 119,-56.5"/>
<text text-anchor="start" x="127" y="-74.5" font-family="Helvetica,sans-Serif" font-size="10.00">../core&#45;lib/include</text>
<text text-anchor="middle" x="169.5" y="-63.5" font-family="Helvetica,sans-Serif" font-size="10.00">/Event.h</text>
</a>
</g>
</g>
<!-- Node1&#45;&gt;Node7 -->
<g id="edge6" class="edge">
<title>Node1&#45;&gt;Node7</title>
<path fill="none" stroke="midnightblue" d="M169.5,-123.36C169.5,-115.23 169.5,-105.7 169.5,-97.11"/>
<polygon fill="midnightblue" stroke="midnightblue" points="173,-96.89 169.5,-86.89 166,-96.89 173,-96.89"/>
</g>
<!-- Node3 -->
<g id="node3" class="node">
<title>Node3</title>
<g id="a_node3"><a xlink:title=" ">
<polygon fill="none" stroke="#bfbfbf" points="234,-0.5 234,-19.5 299,-19.5 299,-0.5 234,-0.5"/>
<text text-anchor="middle" x="266.5" y="-7.5" font-family="Helvetica,sans-Serif" font-size="10.00">exception</text>
</a>
</g>
</g>
<!-- Node2&#45;&gt;Node3 -->
<g id="edge2" class="edge">
<title>Node2&#45;&gt;Node3</title>
<path fill="none" stroke="midnightblue" d="M278.49,-61.98C276.5,-53.49 273.37,-40.2 270.81,-29.32"/>
<polygon fill="midnightblue" stroke="midnightblue" points="274.2,-28.44 268.5,-19.51 267.39,-30.04 274.2,-28.44"/>
</g>
<!-- Node5 -->
<g id="node5" class="node">
<title>Node5</title>
<g id="a_node5"><a xlink:title=" ">
<polygon fill="none" stroke="#bfbfbf" points="17,-0.5 17,-19.5 64,-19.5 64,-0.5 17,-0.5"/>
<text text-anchor="middle" x="40.5" y="-7.5" font-family="Helvetica,sans-Serif" font-size="10.00">queue</text>
</a>
</g>
</g>
<!-- Node4&#45;&gt;Node5 -->
<g id="edge4" class="edge">
<title>Node4&#45;&gt;Node5</title>
<path fill="none" stroke="midnightblue" d="M48.13,-56.4C46.78,-48.38 45.08,-38.23 43.62,-29.57"/>
<polygon fill="midnightblue" stroke="midnightblue" points="47.06,-28.94 41.96,-19.66 40.16,-30.1 47.06,-28.94"/>
</g>
<!-- Node6 -->
<g id="node6" class="node">
<title>Node6</title>
<g id="a_node6"><a xlink:title=" ">
<polygon fill="none" stroke="#bfbfbf" points="82.5,-0.5 82.5,-19.5 140.5,-19.5 140.5,-0.5 82.5,-0.5"/>
<text text-anchor="middle" x="111.5" y="-7.5" font-family="Helvetica,sans-Serif" font-size="10.00">memory</text>
</a>
</g>
</g>
<!-- Node4&#45;&gt;Node6 -->
<g id="edge5" class="edge">
<title>Node4&#45;&gt;Node6</title>
<path fill="none" stroke="midnightblue" d="M64.96,-56.4C74.09,-47.49 85.92,-35.95 95.36,-26.74"/>
<polygon fill="midnightblue" stroke="midnightblue" points="97.91,-29.15 102.62,-19.66 93.02,-24.13 97.91,-29.15"/>
</g>
<!-- Node7&#45;&gt;Node3 -->
<g id="edge7" class="edge">
<title>Node7&#45;&gt;Node3</title>
<path fill="none" stroke="midnightblue" d="M192.49,-56.4C207.89,-46.95 228.09,-34.56 243.5,-25.11"/>
<polygon fill="midnightblue" stroke="midnightblue" points="245.69,-27.87 252.39,-19.66 242.03,-21.9 245.69,-27.87"/>
</g>
<!-- Node7&#45;&gt;Node6 -->
<g id="edge9" class="edge">
<title>Node7&#45;&gt;Node6</title>
<path fill="none" stroke="midnightblue" d="M155.75,-56.4C147.15,-47.58 136.05,-36.18 127.11,-27.02"/>
<polygon fill="midnightblue" stroke="midnightblue" points="129.43,-24.38 119.94,-19.66 124.41,-29.26 129.43,-24.38"/>
</g>
<!-- Node8 -->
<g id="node8" class="node">
<title>Node8</title>
<g id="a_node8"><a xlink:title=" ">
<polygon fill="none" stroke="#bfbfbf" points="158.5,-0.5 158.5,-19.5 202.5,-19.5 202.5,-0.5 158.5,-0.5"/>
<text text-anchor="middle" x="180.5" y="-7.5" font-family="Helvetica,sans-Serif" font-size="10.00">string</text>
</a>
</g>
</g>
<!-- Node7&#45;&gt;Node8 -->
<g id="edge8" class="edge">
<title>Node7&#45;&gt;Node8</title>
<path fill="none" stroke="midnightblue" d="M172.11,-56.4C173.59,-48.38 175.47,-38.23 177.07,-29.57"/>
<polygon fill="midnightblue" stroke="midnightblue" points="180.52,-30.13 178.9,-19.66 173.64,-28.85 180.52,-30.13"/>
</g>
</g>
</svg>
