<?xml version="1.0" encoding="UTF-8" standalone="no"?>
<!DOCTYPE svg PUBLIC "-//W3C//DTD SVG 1.1//EN"
 "http://www.w3.org/Graphics/SVG/1.1/DTD/svg11.dtd">
<!-- Generated by graphviz version 2.50.0 (0)
 -->
<!-- Title: /home/tomek/trash/battle&#45;city/src/lib/board&#45;lib/include/Grid.h Pages: 1 -->
<svg width="2158pt" height="484pt"
 viewBox="0.00 0.00 2158.00 484.00" xmlns="http://www.w3.org/2000/svg" xmlns:xlink="http://www.w3.org/1999/xlink">
<g id="graph0" class="graph" transform="scale(1 1) rotate(0) translate(4 480)">
<title>/home/tomek/trash/battle&#45;city/src/lib/board&#45;lib/include/Grid.h</title>
<!-- Node1 -->
<g id="node1" class="node">
<title>Node1</title>
<g id="a_node1"><a xlink:title=" ">
<polygon fill="#bfbfbf" stroke="black" points="560,-434.5 560,-475.5 701,-475.5 701,-434.5 560,-434.5"/>
<text text-anchor="start" x="568" y="-463.5" font-family="Helvetica,sans-Serif" font-size="10.00">/home/tomek/trash/battle</text>
<text text-anchor="start" x="568" y="-452.5" font-family="Helvetica,sans-Serif" font-size="10.00">&#45;city/src/lib/board&#45;lib</text>
<text text-anchor="middle" x="630.5" y="-441.5" font-family="Helvetica,sans-Serif" font-size="10.00">/include/Grid.h</text>
</a>
</g>
</g>
<!-- Node2 -->
<g id="node2" class="node">
<title>Node2</title>
<g id="a_node2"><a xlink:href="_board_8cpp.html" target="_top" xlink:title=" ">
<polygon fill="none" stroke="black" points="134,-262 134,-303 275,-303 275,-262 134,-262"/>
<text text-anchor="start" x="142" y="-291" font-family="Helvetica,sans-Serif" font-size="10.00">/home/tomek/trash/battle</text>
<text text-anchor="start" x="142" y="-280" font-family="Helvetica,sans-Serif" font-size="10.00">&#45;city/src/lib/board&#45;lib</text>
<text text-anchor="middle" x="204.5" y="-269" font-family="Helvetica,sans-Serif" font-size="10.00">/Board.cpp</text>
</a>
</g>
</g>
<!-- Node1&#45;&gt;Node2 -->
<g id="edge1" class="edge">
<title>Node1&#45;&gt;Node2</title>
<path fill="none" stroke="midnightblue" d="M549.65,-451.75C402.89,-446.82 104.82,-432.62 73.5,-398 57.7,-380.53 60.87,-364.88 73.5,-345 87.17,-323.47 110.6,-309.35 133.89,-300.14"/>
<polygon fill="midnightblue" stroke="midnightblue" points="549.84,-455.26 559.95,-452.09 550.07,-448.26 549.84,-455.26"/>
</g>
<!-- Node3 -->
<g id="node3" class="node">
<title>Node3</title>
<g id="a_node3"><a xlink:href="_grid_8cpp.html" target="_top" xlink:title=" ">
<polygon fill="none" stroke="black" points="83,-351 83,-392 224,-392 224,-351 83,-351"/>
<text text-anchor="start" x="91" y="-380" font-family="Helvetica,sans-Serif" font-size="10.00">/home/tomek/trash/battle</text>
<text text-anchor="start" x="91" y="-369" font-family="Helvetica,sans-Serif" font-size="10.00">&#45;city/src/lib/board&#45;lib</text>
<text text-anchor="middle" x="153.5" y="-358" font-family="Helvetica,sans-Serif" font-size="10.00">/Grid.cpp</text>
</a>
</g>
</g>
<!-- Node1&#45;&gt;Node3 -->
<g id="edge2" class="edge">
<title>Node1&#45;&gt;Node3</title>
<path fill="none" stroke="midnightblue" d="M549.61,-446.75C468.66,-438.53 340.92,-422.93 232.5,-398 225.2,-396.32 217.6,-394.27 210.13,-392.07"/>
<polygon fill="midnightblue" stroke="midnightblue" points="549.43,-450.25 559.73,-447.76 550.13,-443.28 549.43,-450.25"/>
</g>
<!-- Node4 -->
<g id="node4" class="node">
<title>Node4</title>
<g id="a_node4"><a xlink:href="_grid_builder_8cpp.html" target="_top" xlink:title=" ">
<polygon fill="none" stroke="black" points="242,-351 242,-392 383,-392 383,-351 242,-351"/>
<text text-anchor="start" x="250" y="-380" font-family="Helvetica,sans-Serif" font-size="10.00">/home/tomek/trash/battle</text>
<text text-anchor="start" x="250" y="-369" font-family="Helvetica,sans-Serif" font-size="10.00">&#45;city/src/lib/board&#45;lib</text>
<text text-anchor="middle" x="312.5" y="-358" font-family="Helvetica,sans-Serif" font-size="10.00">/GridBuilder.cpp</text>
</a>
</g>
</g>
<!-- Node1&#45;&gt;Node4 -->
<g id="edge3" class="edge">
<title>Node1&#45;&gt;Node4</title>
<path fill="none" stroke="midnightblue" d="M549.76,-436.81C503.25,-426.48 443.81,-412.54 391.5,-398 384.97,-396.19 378.18,-394.18 371.44,-392.11"/>
<polygon fill="midnightblue" stroke="midnightblue" points="549.27,-440.29 559.79,-439.03 550.78,-433.45 549.27,-440.29"/>
</g>
<!-- Node5 -->
<g id="node5" class="node">
<title>Node5</title>
<g id="a_node5"><a xlink:href="_board_8h.html" target="_top" xlink:title=" ">
<polygon fill="none" stroke="black" points="401,-351 401,-392 542,-392 542,-351 401,-351"/>
<text text-anchor="start" x="409" y="-380" font-family="Helvetica,sans-Serif" font-size="10.00">/home/tomek/trash/battle</text>
<text text-anchor="start" x="409" y="-369" font-family="Helvetica,sans-Serif" font-size="10.00">&#45;city/src/lib/board&#45;lib</text>
<text text-anchor="middle" x="471.5" y="-358" font-family="Helvetica,sans-Serif" font-size="10.00">/include/Board.h</text>
</a>
</g>
</g>
<!-- Node1&#45;&gt;Node5 -->
<g id="edge4" class="edge">
<title>Node1&#45;&gt;Node5</title>
<path fill="none" stroke="midnightblue" d="M583.31,-429.81C559.77,-417.75 531.68,-403.35 509.55,-392"/>
<polygon fill="midnightblue" stroke="midnightblue" points="581.92,-433.03 592.42,-434.48 585.11,-426.8 581.92,-433.03"/>
</g>
<!-- Node13 -->
<g id="node13" class="node">
<title>Node13</title>
<g id="a_node13"><a xlink:href="_tile_manager_8cpp.html" target="_top" xlink:title=" ">
<polygon fill="none" stroke="black" points="560,-351 560,-392 701,-392 701,-351 560,-351"/>
<text text-anchor="start" x="568" y="-380" font-family="Helvetica,sans-Serif" font-size="10.00">/home/tomek/trash/battle</text>
<text text-anchor="start" x="568" y="-369" font-family="Helvetica,sans-Serif" font-size="10.00">&#45;city/src/lib/board&#45;lib</text>
<text text-anchor="middle" x="630.5" y="-358" font-family="Helvetica,sans-Serif" font-size="10.00">/TileManager.cpp</text>
</a>
</g>
</g>
<!-- Node1&#45;&gt;Node13 -->
<g id="edge14" class="edge">
<title>Node1&#45;&gt;Node13</title>
<path fill="none" stroke="midnightblue" d="M630.5,-424.06C630.5,-413.38 630.5,-401.63 630.5,-392.05"/>
<polygon fill="midnightblue" stroke="midnightblue" points="627,-424.27 630.5,-434.27 634,-424.27 627,-424.27"/>
</g>
<!-- Node14 -->
<g id="node14" class="node">
<title>Node14</title>
<g id="a_node14"><a xlink:href="_graphic_event_handler_8cpp.html" target="_top" xlink:title=" ">
<polygon fill="none" stroke="black" points="1007,-173 1007,-214 1150,-214 1150,-173 1007,-173"/>
<text text-anchor="start" x="1015" y="-202" font-family="Helvetica,sans-Serif" font-size="10.00">/home/tomek/trash/battle</text>
<text text-anchor="start" x="1015" y="-191" font-family="Helvetica,sans-Serif" font-size="10.00">&#45;city/src/lib/graphic&#45;lib</text>
<text text-anchor="middle" x="1078.5" y="-180" font-family="Helvetica,sans-Serif" font-size="10.00">/GraphicEventHandler.cpp</text>
</a>
</g>
</g>
<!-- Node1&#45;&gt;Node14 -->
<g id="edge15" class="edge">
<title>Node1&#45;&gt;Node14</title>
<path fill="none" stroke="midnightblue" d="M673.67,-428.69C686.2,-420.02 699.26,-409.55 709.5,-398 757.14,-344.29 728.95,-298.92 786.5,-256 820.71,-230.49 931.82,-212.34 1006.69,-202.65"/>
<polygon fill="midnightblue" stroke="midnightblue" points="671.48,-425.94 665.11,-434.41 675.37,-431.76 671.48,-425.94"/>
</g>
<!-- Node15 -->
<g id="node15" class="node">
<title>Node15</title>
<g id="a_node15"><a xlink:href="_tiles_graphic_8h.html" target="_top" xlink:title=" ">
<polygon fill="none" stroke="black" points="758,-345.5 758,-397.5 899,-397.5 899,-345.5 758,-345.5"/>
<text text-anchor="start" x="766" y="-385.5" font-family="Helvetica,sans-Serif" font-size="10.00">/home/tomek/trash/battle</text>
<text text-anchor="start" x="766" y="-374.5" font-family="Helvetica,sans-Serif" font-size="10.00">&#45;city/src/lib/graphic&#45;lib</text>
<text text-anchor="start" x="766" y="-363.5" font-family="Helvetica,sans-Serif" font-size="10.00">/include/ActiveState_dir</text>
<text text-anchor="middle" x="828.5" y="-352.5" font-family="Helvetica,sans-Serif" font-size="10.00">/Borad_dir/TilesGraphic.h</text>
</a>
</g>
</g>
<!-- Node1&#45;&gt;Node15 -->
<g id="edge16" class="edge">
<title>Node1&#45;&gt;Node15</title>
<path fill="none" stroke="midnightblue" d="M687.32,-430.61C712.43,-420.28 742.01,-408.1 767.58,-397.58"/>
<polygon fill="midnightblue" stroke="midnightblue" points="685.84,-427.44 677.93,-434.48 688.51,-433.91 685.84,-427.44"/>
</g>
<!-- Node17 -->
<g id="node17" class="node">
<title>Node17</title>
<g id="a_node17"><a xlink:href="_tiles_graphic_8cpp.html" target="_top" xlink:title=" ">
<polygon fill="none" stroke="black" points="796,-262 796,-303 937,-303 937,-262 796,-262"/>
<text text-anchor="start" x="804" y="-291" font-family="Helvetica,sans-Serif" font-size="10.00">/home/tomek/trash/battle</text>
<text text-anchor="start" x="804" y="-280" font-family="Helvetica,sans-Serif" font-size="10.00">&#45;city/src/lib/graphic&#45;lib</text>
<text text-anchor="middle" x="866.5" y="-269" font-family="Helvetica,sans-Serif" font-size="10.00">/TilesGraphic.cpp</text>
</a>
</g>
</g>
<!-- Node1&#45;&gt;Node17 -->
<g id="edge49" class="edge">
<title>Node1&#45;&gt;Node17</title>
<path fill="none" stroke="midnightblue" d="M711.31,-448.77C784.02,-442.18 883.06,-427.88 907.5,-398 930.5,-369.89 904.08,-327.87 884.27,-303.31"/>
<polygon fill="midnightblue" stroke="midnightblue" points="710.9,-445.29 701.24,-449.65 711.5,-452.27 710.9,-445.29"/>
</g>
<!-- Node18 -->
<g id="node18" class="node">
<title>Node18</title>
<g id="a_node18"><a xlink:href="_window_8h.html" target="_top" xlink:title=" ">
<polygon fill="none" stroke="black" points="1220,-351 1220,-392 1361,-392 1361,-351 1220,-351"/>
<text text-anchor="start" x="1228" y="-380" font-family="Helvetica,sans-Serif" font-size="10.00">/home/tomek/trash/battle</text>
<text text-anchor="start" x="1228" y="-369" font-family="Helvetica,sans-Serif" font-size="10.00">&#45;city/src/lib/graphic&#45;lib</text>
<text text-anchor="middle" x="1290.5" y="-358" font-family="Helvetica,sans-Serif" font-size="10.00">/include/Window.h</text>
</a>
</g>
</g>
<!-- Node1&#45;&gt;Node18 -->
<g id="edge19" class="edge">
<title>Node1&#45;&gt;Node18</title>
<path fill="none" stroke="midnightblue" d="M711.06,-444.05C841.37,-427.96 1096.24,-396.49 1219.88,-381.22"/>
<polygon fill="midnightblue" stroke="midnightblue" points="710.63,-440.58 701.13,-445.28 711.49,-447.53 710.63,-440.58"/>
</g>
<!-- Node5&#45;&gt;Node2 -->
<g id="edge5" class="edge">
<title>Node5&#45;&gt;Node2</title>
<path fill="none" stroke="midnightblue" d="M401.85,-347.81C359.28,-333.94 305.39,-316.37 264.68,-303.11"/>
<polygon fill="midnightblue" stroke="midnightblue" points="400.99,-351.21 411.58,-350.98 403.16,-344.55 400.99,-351.21"/>
</g>
<!-- Node6 -->
<g id="node6" class="node">
<title>Node6</title>
<g id="a_node6"><a xlink:href="_active_event_handler_8cpp.html" target="_top" xlink:title=" ">
<polygon fill="none" stroke="black" points="0,-84 0,-125 141,-125 141,-84 0,-84"/>
<text text-anchor="start" x="8" y="-113" font-family="Helvetica,sans-Serif" font-size="10.00">/home/tomek/trash/battle</text>
<text text-anchor="start" x="8" y="-102" font-family="Helvetica,sans-Serif" font-size="10.00">&#45;city/src/lib/game&#45;lib</text>
<text text-anchor="middle" x="70.5" y="-91" font-family="Helvetica,sans-Serif" font-size="10.00">/ActiveEventHandler.cpp</text>
</a>
</g>
</g>
<!-- Node5&#45;&gt;Node6 -->
<g id="edge6" class="edge">
<title>Node5&#45;&gt;Node6</title>
<path fill="none" stroke="midnightblue" d="M432.93,-345.01C353.21,-292.33 171.73,-172.4 100.24,-125.15"/>
<polygon fill="midnightblue" stroke="midnightblue" points="431.41,-348.21 441.69,-350.8 435.27,-342.37 431.41,-348.21"/>
</g>
<!-- Node7 -->
<g id="node7" class="node">
<title>Node7</title>
<g id="a_node7"><a xlink:href="_game_8h.html" target="_top" xlink:title=" ">
<polygon fill="none" stroke="black" points="483,-173 483,-214 624,-214 624,-173 483,-173"/>
<text text-anchor="start" x="491" y="-202" font-family="Helvetica,sans-Serif" font-size="10.00">/home/tomek/trash/battle</text>
<text text-anchor="start" x="491" y="-191" font-family="Helvetica,sans-Serif" font-size="10.00">&#45;city/src/lib/game&#45;lib</text>
<text text-anchor="middle" x="553.5" y="-180" font-family="Helvetica,sans-Serif" font-size="10.00">/include/Game.h</text>
</a>
</g>
</g>
<!-- Node5&#45;&gt;Node7 -->
<g id="edge7" class="edge">
<title>Node5&#45;&gt;Node7</title>
<path fill="none" stroke="midnightblue" d="M485,-341.53C501.77,-305.53 529.94,-245.07 544.37,-214.09"/>
<polygon fill="midnightblue" stroke="midnightblue" points="481.64,-340.45 480.59,-350.99 487.98,-343.41 481.64,-340.45"/>
</g>
<!-- Node7&#45;&gt;Node6 -->
<g id="edge8" class="edge">
<title>Node7&#45;&gt;Node6</title>
<path fill="none" stroke="midnightblue" d="M472.92,-179.59C447.23,-175.51 418.68,-171.02 392.5,-167 285.02,-150.49 256.42,-155.59 150.5,-131 143.12,-129.29 135.43,-127.22 127.87,-125.01"/>
<polygon fill="midnightblue" stroke="midnightblue" points="472.56,-183.07 482.99,-181.19 473.66,-176.16 472.56,-183.07"/>
</g>
<!-- Node8 -->
<g id="node8" class="node">
<title>Node8</title>
<g id="a_node8"><a xlink:href="_finished_event_handler_8cpp.html" target="_top" xlink:title=" ">
<polygon fill="none" stroke="black" points="159.5,-84 159.5,-125 305.5,-125 305.5,-84 159.5,-84"/>
<text text-anchor="start" x="167.5" y="-113" font-family="Helvetica,sans-Serif" font-size="10.00">/home/tomek/trash/battle</text>
<text text-anchor="start" x="167.5" y="-102" font-family="Helvetica,sans-Serif" font-size="10.00">&#45;city/src/lib/game&#45;lib</text>
<text text-anchor="middle" x="232.5" y="-91" font-family="Helvetica,sans-Serif" font-size="10.00">/FinishedEventHandler.cpp</text>
</a>
</g>
</g>
<!-- Node7&#45;&gt;Node8 -->
<g id="edge9" class="edge">
<title>Node7&#45;&gt;Node8</title>
<path fill="none" stroke="midnightblue" d="M473.21,-172.9C426.7,-161.28 367.12,-145.94 314.5,-131 307.9,-129.13 301.03,-127.1 294.19,-125.04"/>
<polygon fill="midnightblue" stroke="midnightblue" points="472.37,-176.3 482.92,-175.32 474.07,-169.5 472.37,-176.3"/>
</g>
<!-- Node9 -->
<g id="node9" class="node">
<title>Node9</title>
<g id="a_node9"><a xlink:href="_game_8cpp.html" target="_top" xlink:title=" ">
<polygon fill="none" stroke="black" points="324,-84 324,-125 465,-125 465,-84 324,-84"/>
<text text-anchor="start" x="332" y="-113" font-family="Helvetica,sans-Serif" font-size="10.00">/home/tomek/trash/battle</text>
<text text-anchor="start" x="332" y="-102" font-family="Helvetica,sans-Serif" font-size="10.00">&#45;city/src/lib/game&#45;lib</text>
<text text-anchor="middle" x="394.5" y="-91" font-family="Helvetica,sans-Serif" font-size="10.00">/Game.cpp</text>
</a>
</g>
</g>
<!-- Node7&#45;&gt;Node9 -->
<g id="edge10" class="edge">
<title>Node7&#45;&gt;Node9</title>
<path fill="none" stroke="midnightblue" d="M508.95,-168.12C484.12,-154.54 453.61,-137.84 430.34,-125.11"/>
<polygon fill="midnightblue" stroke="midnightblue" points="507.36,-171.25 517.82,-172.98 510.72,-165.1 507.36,-171.25"/>
</g>
<!-- Node10 -->
<g id="node10" class="node">
<title>Node10</title>
<g id="a_node10"><a xlink:href="_menu_event_handler_8cpp.html" target="_top" xlink:title=" ">
<polygon fill="none" stroke="black" points="483,-84 483,-125 624,-125 624,-84 483,-84"/>
<text text-anchor="start" x="491" y="-113" font-family="Helvetica,sans-Serif" font-size="10.00">/home/tomek/trash/battle</text>
<text text-anchor="start" x="491" y="-102" font-family="Helvetica,sans-Serif" font-size="10.00">&#45;city/src/lib/game&#45;lib</text>
<text text-anchor="middle" x="553.5" y="-91" font-family="Helvetica,sans-Serif" font-size="10.00">/MenuEventHandler.cpp</text>
</a>
</g>
</g>
<!-- Node7&#45;&gt;Node10 -->
<g id="edge11" class="edge">
<title>Node7&#45;&gt;Node10</title>
<path fill="none" stroke="midnightblue" d="M553.5,-162.44C553.5,-150.1 553.5,-136.16 553.5,-125.16"/>
<polygon fill="midnightblue" stroke="midnightblue" points="550,-162.76 553.5,-172.76 557,-162.76 550,-162.76"/>
</g>
<!-- Node11 -->
<g id="node11" class="node">
<title>Node11</title>
<g id="a_node11"><a xlink:href="_pause_event_handler_8cpp.html" target="_top" xlink:title=" ">
<polygon fill="none" stroke="black" points="642,-84 642,-125 783,-125 783,-84 642,-84"/>
<text text-anchor="start" x="650" y="-113" font-family="Helvetica,sans-Serif" font-size="10.00">/home/tomek/trash/battle</text>
<text text-anchor="start" x="650" y="-102" font-family="Helvetica,sans-Serif" font-size="10.00">&#45;city/src/lib/game&#45;lib</text>
<text text-anchor="middle" x="712.5" y="-91" font-family="Helvetica,sans-Serif" font-size="10.00">/PauseEventHandler.cpp</text>
</a>
</g>
</g>
<!-- Node7&#45;&gt;Node11 -->
<g id="edge12" class="edge">
<title>Node7&#45;&gt;Node11</title>
<path fill="none" stroke="midnightblue" d="M598.05,-168.12C622.88,-154.54 653.39,-137.84 676.66,-125.11"/>
<polygon fill="midnightblue" stroke="midnightblue" points="596.28,-165.1 589.18,-172.98 599.64,-171.25 596.28,-165.1"/>
</g>
<!-- Node12 -->
<g id="node12" class="node">
<title>Node12</title>
<g id="a_node12"><a xlink:href="tanks_8cpp.html" target="_top" xlink:title=" ">
<polygon fill="none" stroke="black" points="801,-89.5 801,-119.5 942,-119.5 942,-89.5 801,-89.5"/>
<text text-anchor="start" x="809" y="-107.5" font-family="Helvetica,sans-Serif" font-size="10.00">/home/tomek/trash/battle</text>
<text text-anchor="middle" x="871.5" y="-96.5" font-family="Helvetica,sans-Serif" font-size="10.00">&#45;city/src/tanks.cpp</text>
</a>
</g>
</g>
<!-- Node7&#45;&gt;Node12 -->
<g id="edge13" class="edge">
<title>Node7&#45;&gt;Node12</title>
<path fill="none" stroke="midnightblue" d="M634.04,-172.87C680.28,-161.31 739.35,-146.04 791.5,-131 803.69,-127.49 816.83,-123.42 828.87,-119.57"/>
<polygon fill="midnightblue" stroke="midnightblue" points="632.93,-169.54 624.07,-175.36 634.62,-176.34 632.93,-169.54"/>
</g>
<!-- Node16 -->
<g id="node16" class="node">
<title>Node16</title>
<g id="a_node16"><a xlink:href="_board_graphic_8cpp.html" target="_top" xlink:title=" ">
<polygon fill="none" stroke="black" points="960,-84 960,-125 1101,-125 1101,-84 960,-84"/>
<text text-anchor="start" x="968" y="-113" font-family="Helvetica,sans-Serif" font-size="10.00">/home/tomek/trash/battle</text>
<text text-anchor="start" x="968" y="-102" font-family="Helvetica,sans-Serif" font-size="10.00">&#45;city/src/lib/graphic&#45;lib</text>
<text text-anchor="middle" x="1030.5" y="-91" font-family="Helvetica,sans-Serif" font-size="10.00">/BoardGraphic.cpp</text>
</a>
</g>
</g>
<!-- Node15&#45;&gt;Node16 -->
<g id="edge17" class="edge">
<title>Node15&#45;&gt;Node16</title>
<path fill="none" stroke="midnightblue" d="M800.46,-337.11C794.73,-328.47 789.53,-318.82 786.5,-309 779.55,-286.49 775.02,-276.57 786.5,-256 824.58,-187.77 907.73,-146.62 966.34,-125"/>
<polygon fill="midnightblue" stroke="midnightblue" points="797.68,-339.24 806.31,-345.39 803.39,-335.2 797.68,-339.24"/>
</g>
<!-- Node15&#45;&gt;Node17 -->
<g id="edge18" class="edge">
<title>Node15&#45;&gt;Node17</title>
<path fill="none" stroke="midnightblue" d="M843.5,-336.17C848.4,-324.93 853.68,-312.84 857.95,-303.08"/>
<polygon fill="midnightblue" stroke="midnightblue" points="840.29,-334.77 839.49,-345.34 846.7,-337.57 840.29,-334.77"/>
</g>
<!-- Node18&#45;&gt;Node7 -->
<g id="edge20" class="edge">
<title>Node18&#45;&gt;Node7</title>
<path fill="none" stroke="midnightblue" d="M1209.6,-369.94C1144.23,-365.98 1052.28,-352.19 984.5,-309 959.84,-293.28 970.49,-271.19 945.5,-256 892.81,-223.98 722.15,-206.67 624.26,-199.16"/>
<polygon fill="midnightblue" stroke="midnightblue" points="1209.68,-373.45 1219.85,-370.49 1210.05,-366.46 1209.68,-373.45"/>
</g>
<!-- Node18&#45;&gt;Node14 -->
<g id="edge21" class="edge">
<title>Node18&#45;&gt;Node14</title>
<path fill="none" stroke="midnightblue" d="M1252.25,-344.66C1238.35,-334.38 1223.01,-321.93 1210.5,-309 1190.35,-288.17 1193.43,-276.05 1172.5,-256 1155.46,-239.67 1133.53,-225.04 1115.14,-214.15"/>
<polygon fill="midnightblue" stroke="midnightblue" points="1250.52,-347.73 1260.67,-350.76 1254.63,-342.06 1250.52,-347.73"/>
</g>
<!-- Node19 -->
<g id="node19" class="node">
<title>Node19</title>
<g id="a_node19"><a xlink:href="_active_state_graphic_8h.html" target="_top" xlink:title=" ">
<polygon fill="none" stroke="black" points="1220,-256.5 1220,-308.5 1361,-308.5 1361,-256.5 1220,-256.5"/>
<text text-anchor="start" x="1228" y="-296.5" font-family="Helvetica,sans-Serif" font-size="10.00">/home/tomek/trash/battle</text>
<text text-anchor="start" x="1228" y="-285.5" font-family="Helvetica,sans-Serif" font-size="10.00">&#45;city/src/lib/graphic&#45;lib</text>
<text text-anchor="start" x="1228" y="-274.5" font-family="Helvetica,sans-Serif" font-size="10.00">/include/ActiveState_dir</text>
<text text-anchor="middle" x="1290.5" y="-263.5" font-family="Helvetica,sans-Serif" font-size="10.00">/ActiveStateGraphic.h</text>
</a>
</g>
</g>
<!-- Node18&#45;&gt;Node19 -->
<g id="edge22" class="edge">
<title>Node18&#45;&gt;Node19</title>
<path fill="none" stroke="midnightblue" d="M1290.5,-340.51C1290.5,-330.17 1290.5,-318.71 1290.5,-308.79"/>
<polygon fill="midnightblue" stroke="midnightblue" points="1287,-340.76 1290.5,-350.76 1294,-340.76 1287,-340.76"/>
</g>
<!-- Node22 -->
<g id="node22" class="node">
<title>Node22</title>
<g id="a_node22"><a xlink:href="_window_8cpp.html" target="_top" xlink:title=" ">
<polygon fill="none" stroke="black" points="1278,-84 1278,-125 1419,-125 1419,-84 1278,-84"/>
<text text-anchor="start" x="1286" y="-113" font-family="Helvetica,sans-Serif" font-size="10.00">/home/tomek/trash/battle</text>
<text text-anchor="start" x="1286" y="-102" font-family="Helvetica,sans-Serif" font-size="10.00">&#45;city/src/lib/graphic&#45;lib</text>
<text text-anchor="middle" x="1348.5" y="-91" font-family="Helvetica,sans-Serif" font-size="10.00">/Window.cpp</text>
</a>
</g>
</g>
<!-- Node18&#45;&gt;Node22 -->
<g id="edge48" class="edge">
<title>Node18&#45;&gt;Node22</title>
<path fill="none" stroke="midnightblue" d="M1337.19,-344.97C1350.01,-335.48 1362.34,-323.43 1369.5,-309 1399.95,-247.59 1372.55,-163.11 1357.22,-125.25"/>
<polygon fill="midnightblue" stroke="midnightblue" points="1334.96,-342.26 1328.74,-350.84 1338.95,-348.01 1334.96,-342.26"/>
</g>
<!-- Node29 -->
<g id="node29" class="node">
<title>Node29</title>
<g id="a_node29"><a xlink:href="_graphic_event_handler_8h.html" target="_top" xlink:title=" ">
<polygon fill="none" stroke="black" points="993.5,-262 993.5,-303 1163.5,-303 1163.5,-262 993.5,-262"/>
<text text-anchor="start" x="1001.5" y="-291" font-family="Helvetica,sans-Serif" font-size="10.00">/home/tomek/trash/battle</text>
<text text-anchor="start" x="1001.5" y="-280" font-family="Helvetica,sans-Serif" font-size="10.00">&#45;city/src/lib/graphic&#45;lib</text>
<text text-anchor="middle" x="1078.5" y="-269" font-family="Helvetica,sans-Serif" font-size="10.00">/include/GraphicEventHandler.h</text>
</a>
</g>
</g>
<!-- Node18&#45;&gt;Node29 -->
<g id="edge37" class="edge">
<title>Node18&#45;&gt;Node29</title>
<path fill="none" stroke="midnightblue" d="M1233.27,-347.01C1199.78,-333.27 1158,-316.12 1126.28,-303.11"/>
<polygon fill="midnightblue" stroke="midnightblue" points="1232.34,-350.42 1242.92,-350.98 1235,-343.94 1232.34,-350.42"/>
</g>
<!-- Node30 -->
<g id="node30" class="node">
<title>Node30</title>
<g id="a_node30"><a xlink:href="_menu_state_graphic_8h.html" target="_top" xlink:title=" ">
<polygon fill="none" stroke="black" points="1823,-167.5 1823,-219.5 1964,-219.5 1964,-167.5 1823,-167.5"/>
<text text-anchor="start" x="1831" y="-207.5" font-family="Helvetica,sans-Serif" font-size="10.00">/home/tomek/trash/battle</text>
<text text-anchor="start" x="1831" y="-196.5" font-family="Helvetica,sans-Serif" font-size="10.00">&#45;city/src/lib/graphic&#45;lib</text>
<text text-anchor="start" x="1831" y="-185.5" font-family="Helvetica,sans-Serif" font-size="10.00">/include/StaticStates_dir</text>
<text text-anchor="middle" x="1893.5" y="-174.5" font-family="Helvetica,sans-Serif" font-size="10.00">/MenuStateGraphic.h</text>
</a>
</g>
</g>
<!-- Node18&#45;&gt;Node30 -->
<g id="edge40" class="edge">
<title>Node18&#45;&gt;Node30</title>
<path fill="none" stroke="midnightblue" d="M1371.33,-367.82C1456.29,-362.87 1592.71,-348.82 1703.5,-309 1734.76,-297.76 1810.16,-249.68 1856.02,-219.51"/>
<polygon fill="midnightblue" stroke="midnightblue" points="1371.02,-364.33 1361.23,-368.38 1371.41,-371.32 1371.02,-364.33"/>
</g>
<!-- Node31 -->
<g id="node31" class="node">
<title>Node31</title>
<g id="a_node31"><a xlink:href="_menu_state_graphic_8cpp.html" target="_top" xlink:title=" ">
<polygon fill="none" stroke="black" points="1850,-84 1850,-125 1991,-125 1991,-84 1850,-84"/>
<text text-anchor="start" x="1858" y="-113" font-family="Helvetica,sans-Serif" font-size="10.00">/home/tomek/trash/battle</text>
<text text-anchor="start" x="1858" y="-102" font-family="Helvetica,sans-Serif" font-size="10.00">&#45;city/src/lib/graphic&#45;lib</text>
<text text-anchor="middle" x="1920.5" y="-91" font-family="Helvetica,sans-Serif" font-size="10.00">/MenuStateGraphic.cpp</text>
</a>
</g>
</g>
<!-- Node18&#45;&gt;Node31 -->
<g id="edge47" class="edge">
<title>Node18&#45;&gt;Node31</title>
<path fill="none" stroke="midnightblue" d="M1346.32,-347.02C1468.93,-295.44 1759.93,-173.04 1873.73,-125.17"/>
<polygon fill="midnightblue" stroke="midnightblue" points="1344.94,-343.8 1337.08,-350.91 1347.66,-350.26 1344.94,-343.8"/>
</g>
<!-- Node33 -->
<g id="node33" class="node">
<title>Node33</title>
<g id="a_node33"><a xlink:href="_static_graphic_8h.html" target="_top" xlink:title=" ">
<polygon fill="none" stroke="black" points="1813,-256.5 1813,-308.5 1954,-308.5 1954,-256.5 1813,-256.5"/>
<text text-anchor="start" x="1821" y="-296.5" font-family="Helvetica,sans-Serif" font-size="10.00">/home/tomek/trash/battle</text>
<text text-anchor="start" x="1821" y="-285.5" font-family="Helvetica,sans-Serif" font-size="10.00">&#45;city/src/lib/graphic&#45;lib</text>
<text text-anchor="start" x="1821" y="-274.5" font-family="Helvetica,sans-Serif" font-size="10.00">/include/StaticStates_dir</text>
<text text-anchor="middle" x="1883.5" y="-263.5" font-family="Helvetica,sans-Serif" font-size="10.00">/StaticGraphic.h</text>
</a>
</g>
</g>
<!-- Node18&#45;&gt;Node33 -->
<g id="edge43" class="edge">
<title>Node18&#45;&gt;Node33</title>
<path fill="none" stroke="midnightblue" d="M1371.41,-363.21C1468.75,-353.78 1636.88,-335.36 1779.5,-309 1790.38,-306.99 1801.82,-304.54 1812.97,-301.95"/>
<polygon fill="midnightblue" stroke="midnightblue" points="1370.96,-359.74 1361.35,-364.18 1371.63,-366.7 1370.96,-359.74"/>
</g>
<!-- Node20 -->
<g id="node20" class="node">
<title>Node20</title>
<g id="a_node20"><a xlink:href="_active_state_graphic_8cpp.html" target="_top" xlink:title=" ">
<polygon fill="none" stroke="black" points="1119,-84 1119,-125 1260,-125 1260,-84 1119,-84"/>
<text text-anchor="start" x="1127" y="-113" font-family="Helvetica,sans-Serif" font-size="10.00">/home/tomek/trash/battle</text>
<text text-anchor="start" x="1127" y="-102" font-family="Helvetica,sans-Serif" font-size="10.00">&#45;city/src/lib/graphic&#45;lib</text>
<text text-anchor="middle" x="1189.5" y="-91" font-family="Helvetica,sans-Serif" font-size="10.00">/ActiveStateGraphic.cpp</text>
</a>
</g>
</g>
<!-- Node19&#45;&gt;Node20 -->
<g id="edge23" class="edge">
<title>Node19&#45;&gt;Node20</title>
<path fill="none" stroke="midnightblue" d="M1236.18,-250.09C1225.52,-241.6 1215.49,-231.51 1208.5,-220 1190.61,-190.55 1188.14,-149.36 1188.48,-125.25"/>
<polygon fill="midnightblue" stroke="midnightblue" points="1234.31,-253.06 1244.41,-256.27 1238.51,-247.46 1234.31,-253.06"/>
</g>
<!-- Node21 -->
<g id="node21" class="node">
<title>Node21</title>
<g id="a_node21"><a xlink:href="_board_graphic_8h.html" target="_top" xlink:title=" ">
<polygon fill="none" stroke="black" points="1217.5,-167.5 1217.5,-219.5 1361.5,-219.5 1361.5,-167.5 1217.5,-167.5"/>
<text text-anchor="start" x="1225.5" y="-207.5" font-family="Helvetica,sans-Serif" font-size="10.00">/home/tomek/trash/battle</text>
<text text-anchor="start" x="1225.5" y="-196.5" font-family="Helvetica,sans-Serif" font-size="10.00">&#45;city/src/lib/graphic&#45;lib</text>
<text text-anchor="start" x="1225.5" y="-185.5" font-family="Helvetica,sans-Serif" font-size="10.00">/include/ActiveState_dir</text>
<text text-anchor="middle" x="1289.5" y="-174.5" font-family="Helvetica,sans-Serif" font-size="10.00">/Borad_dir/BoardGraphic.h</text>
</a>
</g>
</g>
<!-- Node19&#45;&gt;Node21 -->
<g id="edge24" class="edge">
<title>Node19&#45;&gt;Node21</title>
<path fill="none" stroke="midnightblue" d="M1290.09,-246.19C1289.99,-237.28 1289.88,-227.9 1289.79,-219.61"/>
<polygon fill="midnightblue" stroke="midnightblue" points="1286.6,-246.38 1290.21,-256.34 1293.6,-246.3 1286.6,-246.38"/>
</g>
<!-- Node23 -->
<g id="node23" class="node">
<title>Node23</title>
<g id="a_node23"><a xlink:href="_frame_graphic_8h.html" target="_top" xlink:title=" ">
<polygon fill="none" stroke="black" points="1418,-167.5 1418,-219.5 1567,-219.5 1567,-167.5 1418,-167.5"/>
<text text-anchor="start" x="1426" y="-207.5" font-family="Helvetica,sans-Serif" font-size="10.00">/home/tomek/trash/battle</text>
<text text-anchor="start" x="1426" y="-196.5" font-family="Helvetica,sans-Serif" font-size="10.00">&#45;city/src/lib/graphic&#45;lib</text>
<text text-anchor="start" x="1426" y="-185.5" font-family="Helvetica,sans-Serif" font-size="10.00">/include/ActiveState_dir</text>
<text text-anchor="middle" x="1492.5" y="-174.5" font-family="Helvetica,sans-Serif" font-size="10.00">/Frame_dir/FrameGraphic.h</text>
</a>
</g>
</g>
<!-- Node19&#45;&gt;Node23 -->
<g id="edge28" class="edge">
<title>Node19&#45;&gt;Node23</title>
<path fill="none" stroke="midnightblue" d="M1357.98,-252.44C1382.74,-241.77 1410.54,-229.8 1434.41,-219.52"/>
<polygon fill="midnightblue" stroke="midnightblue" points="1356.46,-249.28 1348.66,-256.45 1359.22,-255.71 1356.46,-249.28"/>
</g>
<!-- Node21&#45;&gt;Node16 -->
<g id="edge26" class="edge">
<title>Node21&#45;&gt;Node16</title>
<path fill="none" stroke="midnightblue" d="M1207.68,-165.02C1169.06,-152.04 1123.85,-136.86 1088.76,-125.07"/>
<polygon fill="midnightblue" stroke="midnightblue" points="1206.76,-168.4 1217.35,-168.27 1208.99,-161.76 1206.76,-168.4"/>
</g>
<!-- Node21&#45;&gt;Node20 -->
<g id="edge25" class="edge">
<title>Node21&#45;&gt;Node20</title>
<path fill="none" stroke="midnightblue" d="M1252.74,-160.51C1239.08,-148.64 1224.01,-135.53 1212.01,-125.08"/>
<polygon fill="midnightblue" stroke="midnightblue" points="1250.73,-163.41 1260.58,-167.34 1255.33,-158.13 1250.73,-163.41"/>
</g>
<!-- Node21&#45;&gt;Node22 -->
<g id="edge27" class="edge">
<title>Node21&#45;&gt;Node22</title>
<path fill="none" stroke="midnightblue" d="M1312.33,-158.84C1320.07,-147.42 1328.47,-135.04 1335.22,-125.08"/>
<polygon fill="midnightblue" stroke="midnightblue" points="1309.28,-157.1 1306.57,-167.34 1315.07,-161.02 1309.28,-157.1"/>
</g>
<!-- Node23&#45;&gt;Node20 -->
<g id="edge29" class="edge">
<title>Node23&#45;&gt;Node20</title>
<path fill="none" stroke="midnightblue" d="M1407.93,-170.23C1365.89,-158.92 1314.38,-144.7 1268.5,-131 1262.29,-129.14 1255.81,-127.15 1249.37,-125.13"/>
<polygon fill="midnightblue" stroke="midnightblue" points="1407.29,-173.68 1417.85,-172.89 1409.1,-166.92 1407.29,-173.68"/>
</g>
<!-- Node24 -->
<g id="node24" class="node">
<title>Node24</title>
<g id="a_node24"><a xlink:href="_frame_graphic_8cpp.html" target="_top" xlink:title=" ">
<polygon fill="none" stroke="black" points="1377,-0.5 1377,-41.5 1518,-41.5 1518,-0.5 1377,-0.5"/>
<text text-anchor="start" x="1385" y="-29.5" font-family="Helvetica,sans-Serif" font-size="10.00">/home/tomek/trash/battle</text>
<text text-anchor="start" x="1385" y="-18.5" font-family="Helvetica,sans-Serif" font-size="10.00">&#45;city/src/lib/graphic&#45;lib</text>
<text text-anchor="middle" x="1447.5" y="-7.5" font-family="Helvetica,sans-Serif" font-size="10.00">/FrameGraphic.cpp</text>
</a>
</g>
</g>
<!-- Node23&#45;&gt;Node24 -->
<g id="edge30" class="edge">
<title>Node23&#45;&gt;Node24</title>
<path fill="none" stroke="midnightblue" d="M1477.04,-158.03C1473.55,-149.33 1470.1,-139.92 1467.5,-131 1458.56,-100.34 1452.8,-63.61 1449.86,-41.58"/>
<polygon fill="midnightblue" stroke="midnightblue" points="1473.9,-159.59 1480.97,-167.48 1480.37,-156.9 1473.9,-159.59"/>
</g>
<!-- Node25 -->
<g id="node25" class="node">
<title>Node25</title>
<g id="a_node25"><a xlink:href="_bare_frame_graphic_8h.html" target="_top" xlink:title=" ">
<polygon fill="none" stroke="black" points="1476,-78.5 1476,-130.5 1647,-130.5 1647,-78.5 1476,-78.5"/>
<text text-anchor="start" x="1484" y="-118.5" font-family="Helvetica,sans-Serif" font-size="10.00">/home/tomek/trash/battle</text>
<text text-anchor="start" x="1484" y="-107.5" font-family="Helvetica,sans-Serif" font-size="10.00">&#45;city/src/lib/graphic&#45;lib</text>
<text text-anchor="start" x="1484" y="-96.5" font-family="Helvetica,sans-Serif" font-size="10.00">/include/ActiveState_dir</text>
<text text-anchor="middle" x="1561.5" y="-85.5" font-family="Helvetica,sans-Serif" font-size="10.00">/Frame_dir/BareFrameGraphic.h</text>
</a>
</g>
</g>
<!-- Node23&#45;&gt;Node25 -->
<g id="edge31" class="edge">
<title>Node23&#45;&gt;Node25</title>
<path fill="none" stroke="midnightblue" d="M1518.9,-159.22C1526.43,-149.72 1534.51,-139.53 1541.59,-130.61"/>
<polygon fill="midnightblue" stroke="midnightblue" points="1515.93,-157.33 1512.46,-167.34 1521.41,-161.68 1515.93,-157.33"/>
</g>
<!-- Node27 -->
<g id="node27" class="node">
<title>Node27</title>
<g id="a_node27"><a xlink:href="_game_info_graphic_8h.html" target="_top" xlink:title=" ">
<polygon fill="none" stroke="black" points="1665.5,-78.5 1665.5,-130.5 1831.5,-130.5 1831.5,-78.5 1665.5,-78.5"/>
<text text-anchor="start" x="1673.5" y="-118.5" font-family="Helvetica,sans-Serif" font-size="10.00">/home/tomek/trash/battle</text>
<text text-anchor="start" x="1673.5" y="-107.5" font-family="Helvetica,sans-Serif" font-size="10.00">&#45;city/src/lib/graphic&#45;lib</text>
<text text-anchor="start" x="1673.5" y="-96.5" font-family="Helvetica,sans-Serif" font-size="10.00">/include/ActiveState_dir</text>
<text text-anchor="middle" x="1748.5" y="-85.5" font-family="Helvetica,sans-Serif" font-size="10.00">/Frame_dir/GameInfoGraphic.h</text>
</a>
</g>
</g>
<!-- Node23&#45;&gt;Node27 -->
<g id="edge34" class="edge">
<title>Node23&#45;&gt;Node27</title>
<path fill="none" stroke="midnightblue" d="M1575.96,-164.14C1607.85,-153.3 1643.96,-141.03 1674.87,-130.52"/>
<polygon fill="midnightblue" stroke="midnightblue" points="1574.54,-160.92 1566.2,-167.45 1576.8,-167.55 1574.54,-160.92"/>
</g>
<!-- Node25&#45;&gt;Node24 -->
<g id="edge33" class="edge">
<title>Node25&#45;&gt;Node24</title>
<path fill="none" stroke="midnightblue" d="M1518.05,-72.44C1503.63,-62.13 1487.99,-50.95 1475.1,-41.73"/>
<polygon fill="midnightblue" stroke="midnightblue" points="1516.2,-75.41 1526.37,-78.38 1520.27,-69.72 1516.2,-75.41"/>
</g>
<!-- Node26 -->
<g id="node26" class="node">
<title>Node26</title>
<g id="a_node26"><a xlink:href="_bare_frame_graphic_8cpp.html" target="_top" xlink:title=" ">
<polygon fill="none" stroke="black" points="1536,-0.5 1536,-41.5 1677,-41.5 1677,-0.5 1536,-0.5"/>
<text text-anchor="start" x="1544" y="-29.5" font-family="Helvetica,sans-Serif" font-size="10.00">/home/tomek/trash/battle</text>
<text text-anchor="start" x="1544" y="-18.5" font-family="Helvetica,sans-Serif" font-size="10.00">&#45;city/src/lib/graphic&#45;lib</text>
<text text-anchor="middle" x="1606.5" y="-7.5" font-family="Helvetica,sans-Serif" font-size="10.00">/BareFrameGraphic.cpp</text>
</a>
</g>
</g>
<!-- Node25&#45;&gt;Node26 -->
<g id="edge32" class="edge">
<title>Node25&#45;&gt;Node26</title>
<path fill="none" stroke="midnightblue" d="M1580.37,-69.32C1585.59,-59.87 1591.07,-49.94 1595.66,-41.63"/>
<polygon fill="midnightblue" stroke="midnightblue" points="1577.26,-67.71 1575.49,-78.16 1583.39,-71.1 1577.26,-67.71"/>
</g>
<!-- Node27&#45;&gt;Node24 -->
<g id="edge35" class="edge">
<title>Node27&#45;&gt;Node24</title>
<path fill="none" stroke="midnightblue" d="M1655.35,-77.69C1604.24,-63.79 1556.22,-50.92 1518.16,-40.77"/>
<polygon fill="midnightblue" stroke="midnightblue" points="1654.7,-81.14 1665.26,-80.39 1656.54,-74.39 1654.7,-81.14"/>
</g>
<!-- Node28 -->
<g id="node28" class="node">
<title>Node28</title>
<g id="a_node28"><a xlink:href="_game_info_graphic_8cpp.html" target="_top" xlink:title=" ">
<polygon fill="none" stroke="black" points="1695,-0.5 1695,-41.5 1836,-41.5 1836,-0.5 1695,-0.5"/>
<text text-anchor="start" x="1703" y="-29.5" font-family="Helvetica,sans-Serif" font-size="10.00">/home/tomek/trash/battle</text>
<text text-anchor="start" x="1703" y="-18.5" font-family="Helvetica,sans-Serif" font-size="10.00">&#45;city/src/lib/graphic&#45;lib</text>
<text text-anchor="middle" x="1765.5" y="-7.5" font-family="Helvetica,sans-Serif" font-size="10.00">/GameInfoGraphic.cpp</text>
</a>
</g>
</g>
<!-- Node27&#45;&gt;Node28 -->
<g id="edge36" class="edge">
<title>Node27&#45;&gt;Node28</title>
<path fill="none" stroke="midnightblue" d="M1755.87,-68.15C1757.77,-59.05 1759.74,-49.6 1761.41,-41.63"/>
<polygon fill="midnightblue" stroke="midnightblue" points="1752.4,-67.66 1753.79,-78.16 1759.25,-69.09 1752.4,-67.66"/>
</g>
<!-- Node29&#45;&gt;Node7 -->
<g id="edge38" class="edge">
<title>Node29&#45;&gt;Node7</title>
<path fill="none" stroke="midnightblue" d="M996.73,-259.7C990.92,-258.38 985.13,-257.13 979.5,-256 855.31,-231.12 708.82,-212.22 624.01,-202.3"/>
<polygon fill="midnightblue" stroke="midnightblue" points="995.99,-263.12 1006.53,-261.99 997.59,-256.31 995.99,-263.12"/>
</g>
<!-- Node29&#45;&gt;Node14 -->
<g id="edge39" class="edge">
<title>Node29&#45;&gt;Node14</title>
<path fill="none" stroke="midnightblue" d="M1078.5,-251.44C1078.5,-239.1 1078.5,-225.16 1078.5,-214.16"/>
<polygon fill="midnightblue" stroke="midnightblue" points="1075,-251.76 1078.5,-261.76 1082,-251.76 1075,-251.76"/>
</g>
<!-- Node30&#45;&gt;Node31 -->
<g id="edge41" class="edge">
<title>Node30&#45;&gt;Node31</title>
<path fill="none" stroke="midnightblue" d="M1904.36,-157.49C1907.79,-146.45 1911.45,-134.65 1914.42,-125.08"/>
<polygon fill="midnightblue" stroke="midnightblue" points="1900.93,-156.75 1901.31,-167.34 1907.62,-158.82 1900.93,-156.75"/>
</g>
<!-- Node32 -->
<g id="node32" class="node">
<title>Node32</title>
<g id="a_node32"><a xlink:href="_static_graphic_8cpp.html" target="_top" xlink:title=" ">
<polygon fill="none" stroke="black" points="2009,-84 2009,-125 2150,-125 2150,-84 2009,-84"/>
<text text-anchor="start" x="2017" y="-113" font-family="Helvetica,sans-Serif" font-size="10.00">/home/tomek/trash/battle</text>
<text text-anchor="start" x="2017" y="-102" font-family="Helvetica,sans-Serif" font-size="10.00">&#45;city/src/lib/graphic&#45;lib</text>
<text text-anchor="middle" x="2079.5" y="-91" font-family="Helvetica,sans-Serif" font-size="10.00">/StaticGraphic.cpp</text>
</a>
</g>
</g>
<!-- Node30&#45;&gt;Node32 -->
<g id="edge42" class="edge">
<title>Node30&#45;&gt;Node32</title>
<path fill="none" stroke="midnightblue" d="M1956.58,-162.99C1983.32,-150.49 2013.74,-136.26 2037.63,-125.08"/>
<polygon fill="midnightblue" stroke="midnightblue" points="1954.87,-159.93 1947.3,-167.34 1957.84,-166.27 1954.87,-159.93"/>
</g>
<!-- Node33&#45;&gt;Node22 -->
<g id="edge46" class="edge">
<title>Node33&#45;&gt;Node22</title>
<path fill="none" stroke="midnightblue" d="M1811.83,-252.6C1750.03,-228.2 1658.13,-193.17 1576.5,-167 1524.28,-150.26 1464.39,-134.22 1419.1,-122.73"/>
<polygon fill="midnightblue" stroke="midnightblue" points="1810.89,-255.99 1821.48,-256.42 1813.47,-249.48 1810.89,-255.99"/>
</g>
<!-- Node33&#45;&gt;Node30 -->
<g id="edge44" class="edge">
<title>Node33&#45;&gt;Node30</title>
<path fill="none" stroke="midnightblue" d="M1887.56,-246.19C1888.58,-237.28 1889.66,-227.9 1890.61,-219.61"/>
<polygon fill="midnightblue" stroke="midnightblue" points="1884.06,-246 1886.39,-256.34 1891.01,-246.8 1884.06,-246"/>
</g>
<!-- Node33&#45;&gt;Node32 -->
<g id="edge45" class="edge">
<title>Node33&#45;&gt;Node32</title>
<path fill="none" stroke="midnightblue" d="M1932.72,-250.79C1946.39,-241.49 1960.92,-230.85 1973.5,-220 2008.37,-189.92 2043.67,-149.3 2063.46,-125.4"/>
<polygon fill="midnightblue" stroke="midnightblue" points="1930.7,-247.92 1924.34,-256.39 1934.6,-253.74 1930.7,-247.92"/>
</g>
</g>
</svg>
