<?xml version="1.0" encoding="UTF-8" standalone="no"?>
<!DOCTYPE svg PUBLIC "-//W3C//DTD SVG 1.1//EN"
 "http://www.w3.org/Graphics/SVG/1.1/DTD/svg11.dtd">
<!-- Generated by graphviz version 2.43.0 (0)
 -->
<!-- Title: /home/tomek/CLionProjects/proi/proi&#45;projekt/src/board&#45;lib/include/Grid.h Pages: 1 -->
<!--zoomable 484 -->
<svg id="main" version="1.1" xmlns="http://www.w3.org/2000/svg" xmlns:xlink="http://www.w3.org/1999/xlink" xml:space="preserve" onload="init(evt)">
<style type="text/css"><![CDATA[
.edge:hover path { stroke: red; }
.edge:hover polygon { stroke: red; fill: red; }
]]></style>
<script type="text/javascript"><![CDATA[
var edges = document.getElementsByTagName('g');
if (edges && edges.length) {
  for (var i=0;i<edges.length;i++) {
    if (edges[i].id.substr(0,4)=='edge') {
      edges[i].setAttribute('class','edge');
    }
  }
}
]]></script>
        <defs>
                <circle id="rim" cx="0" cy="0" r="7"/>
                <circle id="rim2" cx="0" cy="0" r="3.5"/>
                <g id="zoomPlus">
                        <use xlink:href="#rim" fill="#404040">
                                <set attributeName="fill" to="#808080" begin="zoomplus.mouseover" end="zoomplus.mouseout"/>
                        </use>
                        <path d="M-4,0h8M0,-4v8" fill="none" stroke="white" stroke-width="1.5" pointer-events="none"/>
                </g>
                <g id="zoomMin">
                        <use xlink:href="#rim" fill="#404040">
                                <set attributeName="fill" to="#808080" begin="zoomminus.mouseover" end="zoomminus.mouseout"/>
                        </use>
                        <path d="M-4,0h8" fill="none" stroke="white" stroke-width="1.5" pointer-events="none"/>
                </g>
                <g id="dirArrow">
                        <path fill="none" stroke="white" stroke-width="1.5" d="M0,-3.0v7 M-2.5,-0.5L0,-3.0L2.5,-0.5"/>
                </g>
               <g id="resetDef">
                       <use xlink:href="#rim2" fill="#404040">
                               <set attributeName="fill" to="#808080" begin="reset.mouseover" end="reset.mouseout"/>
                       </use>
               </g>
        </defs>

<script type="text/javascript">
var viewWidth = 2583;
var viewHeight = 484;
var sectionId = 'dynsection-1';
</script>
<script xlink:href="svgpan.js"/>
<svg id="graph" class="graph">
<g id="viewport">
<title>/home/tomek/CLionProjects/proi/proi&#45;projekt/src/board&#45;lib/include/Grid.h</title>
<!-- Node1 -->
<g id="node1" class="node">
<title>Node1</title>
<g id="a_node1"><a xlink:title=" ">
<polygon fill="#bfbfbf" stroke="black" points="1261.5,-434.5 1261.5,-475.5 1412.5,-475.5 1412.5,-434.5 1261.5,-434.5"/>
<text text-anchor="start" x="1269.5" y="-463.5" font-family="Helvetica,sans-Serif" font-size="10.00">/home/tomek/CLionProjects</text>
<text text-anchor="start" x="1269.5" y="-452.5" font-family="Helvetica,sans-Serif" font-size="10.00">/proi/proi&#45;projekt/src</text>
<text text-anchor="middle" x="1337" y="-441.5" font-family="Helvetica,sans-Serif" font-size="10.00">/board&#45;lib/include/Grid.h</text>
</a>
</g>
</g>
<!-- Node2 -->
<g id="node2" class="node">
<title>Node2</title>
<g id="a_node2"><a xlink:href="_board_8cpp.html" target="_top" xlink:title=" ">
<polygon fill="none" stroke="black" points="352.5,-173 352.5,-214 503.5,-214 503.5,-173 352.5,-173"/>
<text text-anchor="start" x="360.5" y="-202" font-family="Helvetica,sans-Serif" font-size="10.00">/home/tomek/CLionProjects</text>
<text text-anchor="start" x="360.5" y="-191" font-family="Helvetica,sans-Serif" font-size="10.00">/proi/proi&#45;projekt/src</text>
<text text-anchor="middle" x="428" y="-180" font-family="Helvetica,sans-Serif" font-size="10.00">/board&#45;lib/Board.cpp</text>
</a>
</g>
</g>
<!-- Node1&#45;&gt;Node2 -->
<g id="edge1" class="edge">
<title>Node1&#45;&gt;Node2</title>
<path fill="none" stroke="midnightblue" d="M1251.2,-453.62C1081.94,-451.87 711.23,-442.87 593,-398 531.92,-374.82 515.99,-360.67 476,-309 453.44,-279.85 439.6,-238.56 432.9,-214.35"/>
<polygon fill="midnightblue" stroke="midnightblue" points="1251.28,-457.12 1261.31,-453.71 1251.35,-450.12 1251.28,-457.12"/>
</g>
<!-- Node3 -->
<g id="node3" class="node">
<title>Node3</title>
<g id="a_node3"><a xlink:href="_grid_8cpp.html" target="_top" xlink:title=" ">
<polygon fill="none" stroke="black" points="1569.5,-351 1569.5,-392 1720.5,-392 1720.5,-351 1569.5,-351"/>
<text text-anchor="start" x="1577.5" y="-380" font-family="Helvetica,sans-Serif" font-size="10.00">/home/tomek/CLionProjects</text>
<text text-anchor="start" x="1577.5" y="-369" font-family="Helvetica,sans-Serif" font-size="10.00">/proi/proi&#45;projekt/src</text>
<text text-anchor="middle" x="1645" y="-358" font-family="Helvetica,sans-Serif" font-size="10.00">/board&#45;lib/Grid.cpp</text>
</a>
</g>
</g>
<!-- Node1&#45;&gt;Node3 -->
<g id="edge2" class="edge">
<title>Node1&#45;&gt;Node3</title>
<path fill="none" stroke="midnightblue" d="M1422.32,-432.6C1462.62,-422.36 1511.35,-409.79 1555,-398 1562.06,-396.09 1569.41,-394.07 1576.74,-392.03"/>
<polygon fill="midnightblue" stroke="midnightblue" points="1421.37,-429.23 1412.54,-435.08 1423.09,-436.02 1421.37,-429.23"/>
</g>
<!-- Node4 -->
<g id="node4" class="node">
<title>Node4</title>
<g id="a_node4"><a xlink:href="_grid_builder_8cpp.html" target="_top" xlink:title=" ">
<polygon fill="none" stroke="black" points="1738.5,-351 1738.5,-392 1889.5,-392 1889.5,-351 1738.5,-351"/>
<text text-anchor="start" x="1746.5" y="-380" font-family="Helvetica,sans-Serif" font-size="10.00">/home/tomek/CLionProjects</text>
<text text-anchor="start" x="1746.5" y="-369" font-family="Helvetica,sans-Serif" font-size="10.00">/proi/proi&#45;projekt/src</text>
<text text-anchor="middle" x="1814" y="-358" font-family="Helvetica,sans-Serif" font-size="10.00">/board&#45;lib/GridBuilder.cpp</text>
</a>
</g>
</g>
<!-- Node1&#45;&gt;Node4 -->
<g id="edge3" class="edge">
<title>Node1&#45;&gt;Node4</title>
<path fill="none" stroke="midnightblue" d="M1422.76,-445.49C1502.62,-436.68 1624.7,-420.96 1729,-398 1736.67,-396.31 1744.66,-394.28 1752.54,-392.12"/>
<polygon fill="midnightblue" stroke="midnightblue" points="1422.31,-442.01 1412.75,-446.58 1423.07,-448.97 1422.31,-442.01"/>
</g>
<!-- Node5 -->
<g id="node5" class="node">
<title>Node5</title>
<g id="a_node5"><a xlink:href="_tile_manager_8cpp.html" target="_top" xlink:title=" ">
<polygon fill="none" stroke="black" points="1907.5,-351 1907.5,-392 2058.5,-392 2058.5,-351 1907.5,-351"/>
<text text-anchor="start" x="1915.5" y="-380" font-family="Helvetica,sans-Serif" font-size="10.00">/home/tomek/CLionProjects</text>
<text text-anchor="start" x="1915.5" y="-369" font-family="Helvetica,sans-Serif" font-size="10.00">/proi/proi&#45;projekt/src</text>
<text text-anchor="middle" x="1983" y="-358" font-family="Helvetica,sans-Serif" font-size="10.00">/board&#45;lib/TileManager.cpp</text>
</a>
</g>
</g>
<!-- Node1&#45;&gt;Node5 -->
<g id="edge4" class="edge">
<title>Node1&#45;&gt;Node5</title>
<path fill="none" stroke="midnightblue" d="M1422.64,-450.56C1533.32,-444.96 1731.57,-430.95 1898,-398 1906.16,-396.38 1914.66,-394.32 1922.99,-392.06"/>
<polygon fill="midnightblue" stroke="midnightblue" points="1422.35,-447.07 1412.54,-451.06 1422.7,-454.06 1422.35,-447.07"/>
</g>
<!-- Node6 -->
<g id="node6" class="node">
<title>Node6</title>
<g id="a_node6"><a xlink:href="_board_8h.html" target="_top" xlink:title=" ">
<polygon fill="none" stroke="black" points="485.5,-262 485.5,-303 636.5,-303 636.5,-262 485.5,-262"/>
<text text-anchor="start" x="493.5" y="-291" font-family="Helvetica,sans-Serif" font-size="10.00">/home/tomek/CLionProjects</text>
<text text-anchor="start" x="493.5" y="-280" font-family="Helvetica,sans-Serif" font-size="10.00">/proi/proi&#45;projekt/src</text>
<text text-anchor="middle" x="561" y="-269" font-family="Helvetica,sans-Serif" font-size="10.00">/board&#45;lib/include/Board.h</text>
</a>
</g>
</g>
<!-- Node1&#45;&gt;Node6 -->
<g id="edge5" class="edge">
<title>Node1&#45;&gt;Node6</title>
<path fill="none" stroke="midnightblue" d="M1251.33,-450.83C1079.06,-443.9 702.7,-425.78 651,-398 611.58,-376.82 583.64,-330.19 570.16,-303.43"/>
<polygon fill="midnightblue" stroke="midnightblue" points="1251.25,-454.33 1261.38,-451.23 1251.53,-447.33 1251.25,-454.33"/>
</g>
<!-- Node8 -->
<g id="node8" class="node">
<title>Node8</title>
<g id="a_node8"><a xlink:href="_game_8cpp.html" target="_top" xlink:title=" ">
<polygon fill="none" stroke="black" points="200.5,-84 200.5,-125 351.5,-125 351.5,-84 200.5,-84"/>
<text text-anchor="start" x="208.5" y="-113" font-family="Helvetica,sans-Serif" font-size="10.00">/home/tomek/CLionProjects</text>
<text text-anchor="start" x="208.5" y="-102" font-family="Helvetica,sans-Serif" font-size="10.00">/proi/proi&#45;projekt/src</text>
<text text-anchor="middle" x="276" y="-91" font-family="Helvetica,sans-Serif" font-size="10.00">/game&#45;lib/Game.cpp</text>
</a>
</g>
</g>
<!-- Node1&#45;&gt;Node8 -->
<g id="edge16" class="edge">
<title>Node1&#45;&gt;Node8</title>
<path fill="none" stroke="midnightblue" d="M1256.05,-431.6C1219.63,-421.46 1176.12,-409.24 1137,-398 1002.51,-359.36 964.46,-362.1 835,-309 711.37,-258.29 696.36,-210.46 570,-167 480.87,-136.35 452.75,-152.58 361,-131 353.5,-129.24 345.69,-127.19 337.97,-125.04"/>
<polygon fill="midnightblue" stroke="midnightblue" points="1255.55,-435.1 1266.12,-434.41 1257.43,-428.35 1255.55,-435.1"/>
</g>
<!-- Node14 -->
<g id="node14" class="node">
<title>Node14</title>
<g id="a_node14"><a xlink:href="_graphic_event_handler_8cpp.html" target="_top" xlink:title=" ">
<polygon fill="none" stroke="black" points="1012.5,-173 1012.5,-214 1209.5,-214 1209.5,-173 1012.5,-173"/>
<text text-anchor="start" x="1020.5" y="-202" font-family="Helvetica,sans-Serif" font-size="10.00">/home/tomek/CLionProjects</text>
<text text-anchor="start" x="1020.5" y="-191" font-family="Helvetica,sans-Serif" font-size="10.00">/proi/proi&#45;projekt/src</text>
<text text-anchor="middle" x="1111" y="-180" font-family="Helvetica,sans-Serif" font-size="10.00">/graphic&#45;lib/GraphicEventHandler.cpp</text>
</a>
</g>
</g>
<!-- Node1&#45;&gt;Node14 -->
<g id="edge17" class="edge">
<title>Node1&#45;&gt;Node14</title>
<path fill="none" stroke="midnightblue" d="M1251.25,-445.78C1217.58,-438.3 1181.25,-424.26 1157,-398 1144.44,-384.4 1122.59,-262.67 1114.31,-214.24"/>
<polygon fill="midnightblue" stroke="midnightblue" points="1250.64,-449.22 1261.14,-447.8 1252.04,-442.37 1250.64,-449.22"/>
</g>
<!-- Node15 -->
<g id="node15" class="node">
<title>Node15</title>
<g id="a_node15"><a xlink:href="_tiles_graphic_8cpp.html" target="_top" xlink:title=" ">
<polygon fill="none" stroke="black" points="1800.5,-262 1800.5,-303 1955.5,-303 1955.5,-262 1800.5,-262"/>
<text text-anchor="start" x="1808.5" y="-291" font-family="Helvetica,sans-Serif" font-size="10.00">/home/tomek/CLionProjects</text>
<text text-anchor="start" x="1808.5" y="-280" font-family="Helvetica,sans-Serif" font-size="10.00">/proi/proi&#45;projekt/src</text>
<text text-anchor="middle" x="1878" y="-269" font-family="Helvetica,sans-Serif" font-size="10.00">/graphic&#45;lib/TilesGraphic.cpp</text>
</a>
</g>
</g>
<!-- Node1&#45;&gt;Node15 -->
<g id="edge18" class="edge">
<title>Node1&#45;&gt;Node15</title>
<path fill="none" stroke="midnightblue" d="M1422.44,-440.4C1455.74,-432.1 1492.82,-418.89 1522,-398 1545.57,-381.13 1535.34,-360.23 1560,-345 1646.53,-291.55 1686.61,-330.62 1786,-309 1794.1,-307.24 1802.54,-305.19 1810.89,-303.04"/>
<polygon fill="midnightblue" stroke="midnightblue" points="1421.62,-437 1412.7,-442.72 1423.24,-443.81 1421.62,-437"/>
</g>
<!-- Node16 -->
<g id="node16" class="node">
<title>Node16</title>
<g id="a_node16"><a xlink:href="_tiles_graphic_8h.html" target="_top" xlink:title=" ">
<polygon fill="none" stroke="black" points="1344.5,-345.5 1344.5,-397.5 1513.5,-397.5 1513.5,-345.5 1344.5,-345.5"/>
<text text-anchor="start" x="1352.5" y="-385.5" font-family="Helvetica,sans-Serif" font-size="10.00">/home/tomek/CLionProjects</text>
<text text-anchor="start" x="1352.5" y="-374.5" font-family="Helvetica,sans-Serif" font-size="10.00">/proi/proi&#45;projekt/src</text>
<text text-anchor="start" x="1352.5" y="-363.5" font-family="Helvetica,sans-Serif" font-size="10.00">/graphic&#45;lib/include/ActiveState</text>
<text text-anchor="middle" x="1429" y="-352.5" font-family="Helvetica,sans-Serif" font-size="10.00">_dir/Borad_dir/TilesGraphic.h</text>
</a>
</g>
</g>
<!-- Node1&#45;&gt;Node16 -->
<g id="edge19" class="edge">
<title>Node1&#45;&gt;Node16</title>
<path fill="none" stroke="midnightblue" d="M1366.89,-427.52C1377.73,-417.92 1389.95,-407.09 1400.66,-397.61"/>
<polygon fill="midnightblue" stroke="midnightblue" points="1364.44,-425.02 1359.27,-434.27 1369.08,-430.26 1364.44,-425.02"/>
</g>
<!-- Node18 -->
<g id="node18" class="node">
<title>Node18</title>
<g id="a_node18"><a xlink:href="_window_8h.html" target="_top" xlink:title=" ">
<polygon fill="none" stroke="black" points="1166,-351 1166,-392 1326,-392 1326,-351 1166,-351"/>
<text text-anchor="start" x="1174" y="-380" font-family="Helvetica,sans-Serif" font-size="10.00">/home/tomek/CLionProjects</text>
<text text-anchor="start" x="1174" y="-369" font-family="Helvetica,sans-Serif" font-size="10.00">/proi/proi&#45;projekt/src</text>
<text text-anchor="middle" x="1246" y="-358" font-family="Helvetica,sans-Serif" font-size="10.00">/graphic&#45;lib/include/Window.h</text>
</a>
</g>
</g>
<!-- Node1&#45;&gt;Node18 -->
<g id="edge22" class="edge">
<title>Node1&#45;&gt;Node18</title>
<path fill="none" stroke="midnightblue" d="M1307.26,-427.36C1294.41,-415.85 1279.64,-402.63 1267.83,-392.05"/>
<polygon fill="midnightblue" stroke="midnightblue" points="1305.19,-430.21 1314.97,-434.27 1309.86,-424.99 1305.19,-430.21"/>
</g>
<!-- Node6&#45;&gt;Node2 -->
<g id="edge6" class="edge">
<title>Node6&#45;&gt;Node2</title>
<path fill="none" stroke="midnightblue" d="M522.67,-256.43C502.18,-243.02 477.31,-226.76 458.21,-214.26"/>
<polygon fill="midnightblue" stroke="midnightblue" points="520.87,-259.43 531.15,-261.98 524.7,-253.57 520.87,-259.43"/>
</g>
<!-- Node7 -->
<g id="node7" class="node">
<title>Node7</title>
<g id="a_node7"><a xlink:href="_active_event_handler_8cpp.html" target="_top" xlink:title=" ">
<polygon fill="none" stroke="black" points="0,-84 0,-125 182,-125 182,-84 0,-84"/>
<text text-anchor="start" x="8" y="-113" font-family="Helvetica,sans-Serif" font-size="10.00">/home/tomek/CLionProjects</text>
<text text-anchor="start" x="8" y="-102" font-family="Helvetica,sans-Serif" font-size="10.00">/proi/proi&#45;projekt/src</text>
<text text-anchor="middle" x="91" y="-91" font-family="Helvetica,sans-Serif" font-size="10.00">/game&#45;lib/ActiveEventHandler.cpp</text>
</a>
</g>
</g>
<!-- Node6&#45;&gt;Node7 -->
<g id="edge7" class="edge">
<title>Node6&#45;&gt;Node7</title>
<path fill="none" stroke="midnightblue" d="M552.15,-252.09C542.42,-221.81 526.27,-177.6 512,-167 454.38,-124.19 261.61,-143.9 191,-131 181.75,-129.31 172.08,-127.24 162.57,-125.02"/>
<polygon fill="midnightblue" stroke="midnightblue" points="548.85,-253.27 555.19,-261.76 555.53,-251.17 548.85,-253.27"/>
</g>
<!-- Node6&#45;&gt;Node8 -->
<g id="edge8" class="edge">
<title>Node6&#45;&gt;Node8</title>
<path fill="none" stroke="midnightblue" d="M565.87,-251.63C568.26,-225.85 567,-189.34 546,-167 488.63,-105.96 442.33,-151.06 361,-131 353.67,-129.19 346.03,-127.14 338.47,-125.01"/>
<polygon fill="midnightblue" stroke="midnightblue" points="562.39,-251.27 564.72,-261.61 569.35,-252.07 562.39,-251.27"/>
</g>
<!-- Node9 -->
<g id="node9" class="node">
<title>Node9</title>
<g id="a_node9"><a xlink:href="_game_8h.html" target="_top" xlink:title=" ">
<polygon fill="none" stroke="black" points="693.5,-173 693.5,-214 844.5,-214 844.5,-173 693.5,-173"/>
<text text-anchor="start" x="701.5" y="-202" font-family="Helvetica,sans-Serif" font-size="10.00">/home/tomek/CLionProjects</text>
<text text-anchor="start" x="701.5" y="-191" font-family="Helvetica,sans-Serif" font-size="10.00">/proi/proi&#45;projekt/src</text>
<text text-anchor="middle" x="769" y="-180" font-family="Helvetica,sans-Serif" font-size="10.00">/game&#45;lib/include/Game.h</text>
</a>
</g>
</g>
<!-- Node6&#45;&gt;Node9 -->
<g id="edge9" class="edge">
<title>Node6&#45;&gt;Node9</title>
<path fill="none" stroke="midnightblue" d="M617.15,-258.01C650.01,-244.27 691,-227.12 722.12,-214.11"/>
<polygon fill="midnightblue" stroke="midnightblue" points="615.55,-254.89 607.68,-261.98 618.26,-261.35 615.55,-254.89"/>
</g>
<!-- Node9&#45;&gt;Node7 -->
<g id="edge10" class="edge">
<title>Node9&#45;&gt;Node7</title>
<path fill="none" stroke="midnightblue" d="M683.35,-182.45C641.89,-177.65 591.37,-171.89 546,-167 388.33,-149.99 347.15,-158.67 191,-131 181.65,-129.34 171.88,-127.28 162.28,-125.05"/>
<polygon fill="midnightblue" stroke="midnightblue" points="683.08,-185.94 693.42,-183.61 683.89,-178.99 683.08,-185.94"/>
</g>
<!-- Node9&#45;&gt;Node8 -->
<g id="edge12" class="edge">
<title>Node9&#45;&gt;Node8</title>
<path fill="none" stroke="midnightblue" d="M695.13,-170.53C689.7,-169.24 684.28,-168.04 679,-167 539.44,-139.52 500.34,-159.55 361,-131 353,-129.36 344.67,-127.31 336.49,-125.08"/>
<polygon fill="midnightblue" stroke="midnightblue" points="694.36,-173.95 704.91,-172.96 696.05,-167.15 694.36,-173.95"/>
</g>
<!-- Node10 -->
<g id="node10" class="node">
<title>Node10</title>
<g id="a_node10"><a xlink:href="_finished_event_handler_8cpp.html" target="_top" xlink:title=" ">
<polygon fill="none" stroke="black" points="370,-84 370,-125 562,-125 562,-84 370,-84"/>
<text text-anchor="start" x="378" y="-113" font-family="Helvetica,sans-Serif" font-size="10.00">/home/tomek/CLionProjects</text>
<text text-anchor="start" x="378" y="-102" font-family="Helvetica,sans-Serif" font-size="10.00">/proi/proi&#45;projekt/src</text>
<text text-anchor="middle" x="466" y="-91" font-family="Helvetica,sans-Serif" font-size="10.00">/game&#45;lib/FinishedEventHandler.cpp</text>
</a>
</g>
</g>
<!-- Node9&#45;&gt;Node10 -->
<g id="edge11" class="edge">
<title>Node9&#45;&gt;Node10</title>
<path fill="none" stroke="midnightblue" d="M691.16,-170.15C642.58,-156.2 580.65,-138.42 534.03,-125.03"/>
<polygon fill="midnightblue" stroke="midnightblue" points="690.42,-173.58 701,-172.98 692.36,-166.85 690.42,-173.58"/>
</g>
<!-- Node11 -->
<g id="node11" class="node">
<title>Node11</title>
<g id="a_node11"><a xlink:href="_menu_event_handler_8cpp.html" target="_top" xlink:title=" ">
<polygon fill="none" stroke="black" points="580.5,-84 580.5,-125 759.5,-125 759.5,-84 580.5,-84"/>
<text text-anchor="start" x="588.5" y="-113" font-family="Helvetica,sans-Serif" font-size="10.00">/home/tomek/CLionProjects</text>
<text text-anchor="start" x="588.5" y="-102" font-family="Helvetica,sans-Serif" font-size="10.00">/proi/proi&#45;projekt/src</text>
<text text-anchor="middle" x="670" y="-91" font-family="Helvetica,sans-Serif" font-size="10.00">/game&#45;lib/MenuEventHandler.cpp</text>
</a>
</g>
</g>
<!-- Node9&#45;&gt;Node11 -->
<g id="edge13" class="edge">
<title>Node9&#45;&gt;Node11</title>
<path fill="none" stroke="midnightblue" d="M738.99,-166.13C723.99,-152.95 706.16,-137.27 692.38,-125.16"/>
<polygon fill="midnightblue" stroke="midnightblue" points="736.71,-168.79 746.54,-172.76 741.33,-163.53 736.71,-168.79"/>
</g>
<!-- Node12 -->
<g id="node12" class="node">
<title>Node12</title>
<g id="a_node12"><a xlink:href="_pause_event_handler_8cpp.html" target="_top" xlink:title=" ">
<polygon fill="none" stroke="black" points="778,-84 778,-125 958,-125 958,-84 778,-84"/>
<text text-anchor="start" x="786" y="-113" font-family="Helvetica,sans-Serif" font-size="10.00">/home/tomek/CLionProjects</text>
<text text-anchor="start" x="786" y="-102" font-family="Helvetica,sans-Serif" font-size="10.00">/proi/proi&#45;projekt/src</text>
<text text-anchor="middle" x="868" y="-91" font-family="Helvetica,sans-Serif" font-size="10.00">/game&#45;lib/PauseEventHandler.cpp</text>
</a>
</g>
</g>
<!-- Node9&#45;&gt;Node12 -->
<g id="edge14" class="edge">
<title>Node9&#45;&gt;Node12</title>
<path fill="none" stroke="midnightblue" d="M799.01,-166.13C814.01,-152.95 831.84,-137.27 845.62,-125.16"/>
<polygon fill="midnightblue" stroke="midnightblue" points="796.67,-163.53 791.46,-172.76 801.29,-168.79 796.67,-163.53"/>
</g>
<!-- Node13 -->
<g id="node13" class="node">
<title>Node13</title>
<g id="a_node13"><a xlink:href="tanks_8cpp.html" target="_top" xlink:title=" ">
<polygon fill="none" stroke="black" points="976.5,-84 976.5,-125 1127.5,-125 1127.5,-84 976.5,-84"/>
<text text-anchor="start" x="984.5" y="-113" font-family="Helvetica,sans-Serif" font-size="10.00">/home/tomek/CLionProjects</text>
<text text-anchor="start" x="984.5" y="-102" font-family="Helvetica,sans-Serif" font-size="10.00">/proi/proi&#45;projekt/src</text>
<text text-anchor="middle" x="1052" y="-91" font-family="Helvetica,sans-Serif" font-size="10.00">/main/tanks.cpp</text>
</a>
</g>
</g>
<!-- Node9&#45;&gt;Node13 -->
<g id="edge15" class="edge">
<title>Node9&#45;&gt;Node13</title>
<path fill="none" stroke="midnightblue" d="M842.25,-169.98C887.46,-156.08 944.88,-138.43 988.21,-125.11"/>
<polygon fill="midnightblue" stroke="midnightblue" points="841.04,-166.69 832.51,-172.98 843.1,-173.38 841.04,-166.69"/>
</g>
<!-- Node16&#45;&gt;Node15 -->
<g id="edge21" class="edge">
<title>Node16&#45;&gt;Node15</title>
<path fill="none" stroke="midnightblue" d="M1523.69,-345.67C1524.8,-345.44 1525.9,-345.22 1527,-345 1640.98,-322.33 1672.2,-332.57 1786,-309 1794.36,-307.27 1803.08,-305.2 1811.67,-303"/>
<polygon fill="midnightblue" stroke="midnightblue" points="1522.63,-342.32 1513.58,-347.84 1524.09,-349.16 1522.63,-342.32"/>
</g>
<!-- Node17 -->
<g id="node17" class="node">
<title>Node17</title>
<g id="a_node17"><a xlink:href="_board_graphic_8cpp.html" target="_top" xlink:title=" ">
<polygon fill="none" stroke="black" points="1696.5,-84 1696.5,-125 1857.5,-125 1857.5,-84 1696.5,-84"/>
<text text-anchor="start" x="1704.5" y="-113" font-family="Helvetica,sans-Serif" font-size="10.00">/home/tomek/CLionProjects</text>
<text text-anchor="start" x="1704.5" y="-102" font-family="Helvetica,sans-Serif" font-size="10.00">/proi/proi&#45;projekt/src</text>
<text text-anchor="middle" x="1777" y="-91" font-family="Helvetica,sans-Serif" font-size="10.00">/graphic&#45;lib/BoardGraphic.cpp</text>
</a>
</g>
</g>
<!-- Node16&#45;&gt;Node17 -->
<g id="edge20" class="edge">
<title>Node16&#45;&gt;Node17</title>
<path fill="none" stroke="midnightblue" d="M1523.68,-344.16C1585.32,-335 1718.3,-344.92 1753,-309 1801.57,-258.72 1789.72,-165.73 1781.58,-125.22"/>
<polygon fill="midnightblue" stroke="midnightblue" points="1522.95,-340.74 1513.73,-345.96 1524.19,-347.63 1522.95,-340.74"/>
</g>
<!-- Node18&#45;&gt;Node9 -->
<g id="edge23" class="edge">
<title>Node18&#45;&gt;Node9</title>
<path fill="none" stroke="midnightblue" d="M1155.66,-364.23C1089.04,-357.04 997.45,-341.69 923,-309 869.31,-285.43 816.66,-240.15 788.99,-214.15"/>
<polygon fill="midnightblue" stroke="midnightblue" points="1155.41,-367.72 1165.72,-365.27 1156.13,-360.76 1155.41,-367.72"/>
</g>
<!-- Node18&#45;&gt;Node14 -->
<g id="edge24" class="edge">
<title>Node18&#45;&gt;Node14</title>
<path fill="none" stroke="midnightblue" d="M1224.83,-342.9C1197.36,-307.09 1150.1,-245.47 1126.03,-214.09"/>
<polygon fill="midnightblue" stroke="midnightblue" points="1222.17,-345.19 1231.04,-350.99 1227.73,-340.93 1222.17,-345.19"/>
</g>
<!-- Node19 -->
<g id="node19" class="node">
<title>Node19</title>
<g id="a_node19"><a xlink:href="_menu_state_graphic_8cpp.html" target="_top" xlink:title=" ">
<polygon fill="none" stroke="black" points="1145.5,-84 1145.5,-125 1330.5,-125 1330.5,-84 1145.5,-84"/>
<text text-anchor="start" x="1153.5" y="-113" font-family="Helvetica,sans-Serif" font-size="10.00">/home/tomek/CLionProjects</text>
<text text-anchor="start" x="1153.5" y="-102" font-family="Helvetica,sans-Serif" font-size="10.00">/proi/proi&#45;projekt/src</text>
<text text-anchor="middle" x="1238" y="-91" font-family="Helvetica,sans-Serif" font-size="10.00">/graphic&#45;lib/MenuStateGraphic.cpp</text>
</a>
</g>
</g>
<!-- Node18&#45;&gt;Node19 -->
<g id="edge25" class="edge">
<title>Node18&#45;&gt;Node19</title>
<path fill="none" stroke="midnightblue" d="M1245.09,-340.48C1243.44,-285.78 1239.99,-171.31 1238.6,-125.29"/>
<polygon fill="midnightblue" stroke="midnightblue" points="1241.6,-340.69 1245.4,-350.58 1248.6,-340.48 1241.6,-340.69"/>
</g>
<!-- Node20 -->
<g id="node20" class="node">
<title>Node20</title>
<g id="a_node20"><a xlink:href="_window_8cpp.html" target="_top" xlink:title=" ">
<polygon fill="none" stroke="black" points="1527.5,-84 1527.5,-125 1678.5,-125 1678.5,-84 1527.5,-84"/>
<text text-anchor="start" x="1535.5" y="-113" font-family="Helvetica,sans-Serif" font-size="10.00">/home/tomek/CLionProjects</text>
<text text-anchor="start" x="1535.5" y="-102" font-family="Helvetica,sans-Serif" font-size="10.00">/proi/proi&#45;projekt/src</text>
<text text-anchor="middle" x="1603" y="-91" font-family="Helvetica,sans-Serif" font-size="10.00">/graphic&#45;lib/Window.cpp</text>
</a>
</g>
</g>
<!-- Node18&#45;&gt;Node20 -->
<g id="edge26" class="edge">
<title>Node18&#45;&gt;Node20</title>
<path fill="none" stroke="midnightblue" d="M1321.75,-348.34C1326.23,-347.18 1330.67,-346.05 1335,-345 1414.28,-325.75 1453.22,-362.28 1515,-309 1565.78,-265.2 1537.24,-227.58 1566,-167 1572.89,-152.48 1582.23,-136.98 1589.81,-125.17"/>
<polygon fill="midnightblue" stroke="midnightblue" points="1320.7,-345 1311.94,-350.96 1322.5,-351.77 1320.7,-345"/>
</g>
<!-- Node21 -->
<g id="node21" class="node">
<title>Node21</title>
<g id="a_node21"><a xlink:href="_active_state_graphic_8h.html" target="_top" xlink:title=" ">
<polygon fill="none" stroke="black" points="1575.5,-256.5 1575.5,-308.5 1744.5,-308.5 1744.5,-256.5 1575.5,-256.5"/>
<text text-anchor="start" x="1583.5" y="-296.5" font-family="Helvetica,sans-Serif" font-size="10.00">/home/tomek/CLionProjects</text>
<text text-anchor="start" x="1583.5" y="-285.5" font-family="Helvetica,sans-Serif" font-size="10.00">/proi/proi&#45;projekt/src</text>
<text text-anchor="start" x="1583.5" y="-274.5" font-family="Helvetica,sans-Serif" font-size="10.00">/graphic&#45;lib/include/ActiveState</text>
<text text-anchor="middle" x="1660" y="-263.5" font-family="Helvetica,sans-Serif" font-size="10.00">_dir/ActiveStateGraphic.h</text>
</a>
</g>
</g>
<!-- Node18&#45;&gt;Node21 -->
<g id="edge27" class="edge">
<title>Node18&#45;&gt;Node21</title>
<path fill="none" stroke="midnightblue" d="M1320.77,-348.37C1325.57,-347.17 1330.34,-346.03 1335,-345 1434.29,-322.95 1461.42,-329.71 1561,-309 1565.69,-308.02 1570.5,-306.97 1575.33,-305.87"/>
<polygon fill="midnightblue" stroke="midnightblue" points="1319.71,-345.03 1310.9,-350.92 1321.46,-351.81 1319.71,-345.03"/>
</g>
<!-- Node30 -->
<g id="node30" class="node">
<title>Node30</title>
<g id="a_node30"><a xlink:href="_graphic_event_handler_8h.html" target="_top" xlink:title=" ">
<polygon fill="none" stroke="black" points="932,-256.5 932,-308.5 1110,-308.5 1110,-256.5 932,-256.5"/>
<text text-anchor="start" x="940" y="-296.5" font-family="Helvetica,sans-Serif" font-size="10.00">/home/tomek/CLionProjects</text>
<text text-anchor="start" x="940" y="-285.5" font-family="Helvetica,sans-Serif" font-size="10.00">/proi/proi&#45;projekt/src</text>
<text text-anchor="start" x="940" y="-274.5" font-family="Helvetica,sans-Serif" font-size="10.00">/graphic&#45;lib/include/GraphicEvent</text>
<text text-anchor="middle" x="1021" y="-263.5" font-family="Helvetica,sans-Serif" font-size="10.00">Handler.h</text>
</a>
</g>
</g>
<!-- Node18&#45;&gt;Node30 -->
<g id="edge42" class="edge">
<title>Node18&#45;&gt;Node30</title>
<path fill="none" stroke="midnightblue" d="M1186.15,-347.36C1155.24,-335.4 1117.48,-320.81 1085.87,-308.58"/>
<polygon fill="midnightblue" stroke="midnightblue" points="1184.92,-350.63 1195.51,-350.98 1187.44,-344.1 1184.92,-350.63"/>
</g>
<!-- Node31 -->
<g id="node31" class="node">
<title>Node31</title>
<g id="a_node31"><a xlink:href="_menu_state_graphic_8h.html" target="_top" xlink:title=" ">
<polygon fill="none" stroke="black" points="1266.5,-167.5 1266.5,-219.5 1437.5,-219.5 1437.5,-167.5 1266.5,-167.5"/>
<text text-anchor="start" x="1274.5" y="-207.5" font-family="Helvetica,sans-Serif" font-size="10.00">/home/tomek/CLionProjects</text>
<text text-anchor="start" x="1274.5" y="-196.5" font-family="Helvetica,sans-Serif" font-size="10.00">/proi/proi&#45;projekt/src</text>
<text text-anchor="start" x="1274.5" y="-185.5" font-family="Helvetica,sans-Serif" font-size="10.00">/graphic&#45;lib/include/StaticStates</text>
<text text-anchor="middle" x="1352" y="-174.5" font-family="Helvetica,sans-Serif" font-size="10.00">_dir/MenuStateGraphic.h</text>
</a>
</g>
</g>
<!-- Node18&#45;&gt;Node31 -->
<g id="edge45" class="edge">
<title>Node18&#45;&gt;Node31</title>
<path fill="none" stroke="midnightblue" d="M1263.12,-342.07C1283.52,-308.2 1317.27,-252.16 1336.79,-219.76"/>
<polygon fill="midnightblue" stroke="midnightblue" points="1259.91,-340.62 1257.75,-350.99 1265.91,-344.23 1259.91,-340.62"/>
</g>
<!-- Node33 -->
<g id="node33" class="node">
<title>Node33</title>
<g id="a_node33"><a xlink:href="_static_graphic_8h.html" target="_top" xlink:title=" ">
<polygon fill="none" stroke="black" points="1335.5,-256.5 1335.5,-308.5 1506.5,-308.5 1506.5,-256.5 1335.5,-256.5"/>
<text text-anchor="start" x="1343.5" y="-296.5" font-family="Helvetica,sans-Serif" font-size="10.00">/home/tomek/CLionProjects</text>
<text text-anchor="start" x="1343.5" y="-285.5" font-family="Helvetica,sans-Serif" font-size="10.00">/proi/proi&#45;projekt/src</text>
<text text-anchor="start" x="1343.5" y="-274.5" font-family="Helvetica,sans-Serif" font-size="10.00">/graphic&#45;lib/include/StaticStates</text>
<text text-anchor="middle" x="1421" y="-263.5" font-family="Helvetica,sans-Serif" font-size="10.00">_dir/StaticGraphic.h</text>
</a>
</g>
</g>
<!-- Node18&#45;&gt;Node33 -->
<g id="edge48" class="edge">
<title>Node18&#45;&gt;Node33</title>
<path fill="none" stroke="midnightblue" d="M1294.43,-346.42C1318.11,-334.65 1346.6,-320.49 1370.54,-308.58"/>
<polygon fill="midnightblue" stroke="midnightblue" points="1292.67,-343.39 1285.27,-350.98 1295.79,-349.66 1292.67,-343.39"/>
</g>
<!-- Node22 -->
<g id="node22" class="node">
<title>Node22</title>
<g id="a_node22"><a xlink:href="_active_state_graphic_8cpp.html" target="_top" xlink:title=" ">
<polygon fill="none" stroke="black" points="1876,-84 1876,-125 2064,-125 2064,-84 1876,-84"/>
<text text-anchor="start" x="1884" y="-113" font-family="Helvetica,sans-Serif" font-size="10.00">/home/tomek/CLionProjects</text>
<text text-anchor="start" x="1884" y="-102" font-family="Helvetica,sans-Serif" font-size="10.00">/proi/proi&#45;projekt/src</text>
<text text-anchor="middle" x="1970" y="-91" font-family="Helvetica,sans-Serif" font-size="10.00">/graphic&#45;lib/ActiveStateGraphic.cpp</text>
</a>
</g>
</g>
<!-- Node21&#45;&gt;Node22 -->
<g id="edge28" class="edge">
<title>Node21&#45;&gt;Node22</title>
<path fill="none" stroke="midnightblue" d="M1712.78,-251.53C1776.44,-215.39 1881.61,-155.68 1935.63,-125.01"/>
<polygon fill="midnightblue" stroke="midnightblue" points="1711.05,-248.49 1704.09,-256.47 1714.51,-254.58 1711.05,-248.49"/>
</g>
<!-- Node23 -->
<g id="node23" class="node">
<title>Node23</title>
<g id="a_node23"><a xlink:href="_board_graphic_8h.html" target="_top" xlink:title=" ">
<polygon fill="none" stroke="black" points="1575.5,-167.5 1575.5,-219.5 1744.5,-219.5 1744.5,-167.5 1575.5,-167.5"/>
<text text-anchor="start" x="1583.5" y="-207.5" font-family="Helvetica,sans-Serif" font-size="10.00">/home/tomek/CLionProjects</text>
<text text-anchor="start" x="1583.5" y="-196.5" font-family="Helvetica,sans-Serif" font-size="10.00">/proi/proi&#45;projekt/src</text>
<text text-anchor="start" x="1583.5" y="-185.5" font-family="Helvetica,sans-Serif" font-size="10.00">/graphic&#45;lib/include/ActiveState</text>
<text text-anchor="middle" x="1660" y="-174.5" font-family="Helvetica,sans-Serif" font-size="10.00">_dir/Borad_dir/BoardGraphic.h</text>
</a>
</g>
</g>
<!-- Node21&#45;&gt;Node23 -->
<g id="edge29" class="edge">
<title>Node21&#45;&gt;Node23</title>
<path fill="none" stroke="midnightblue" d="M1660,-246.19C1660,-237.28 1660,-227.9 1660,-219.61"/>
<polygon fill="midnightblue" stroke="midnightblue" points="1656.5,-246.34 1660,-256.34 1663.5,-246.34 1656.5,-246.34"/>
</g>
<!-- Node24 -->
<g id="node24" class="node">
<title>Node24</title>
<g id="a_node24"><a xlink:href="_frame_graphic_8h.html" target="_top" xlink:title=" ">
<polygon fill="none" stroke="black" points="2007.5,-167.5 2007.5,-219.5 2176.5,-219.5 2176.5,-167.5 2007.5,-167.5"/>
<text text-anchor="start" x="2015.5" y="-207.5" font-family="Helvetica,sans-Serif" font-size="10.00">/home/tomek/CLionProjects</text>
<text text-anchor="start" x="2015.5" y="-196.5" font-family="Helvetica,sans-Serif" font-size="10.00">/proi/proi&#45;projekt/src</text>
<text text-anchor="start" x="2015.5" y="-185.5" font-family="Helvetica,sans-Serif" font-size="10.00">/graphic&#45;lib/include/ActiveState</text>
<text text-anchor="middle" x="2092" y="-174.5" font-family="Helvetica,sans-Serif" font-size="10.00">_dir/Frame_dir/FrameGraphic.h</text>
</a>
</g>
</g>
<!-- Node21&#45;&gt;Node24 -->
<g id="edge33" class="edge">
<title>Node21&#45;&gt;Node24</title>
<path fill="none" stroke="midnightblue" d="M1754.55,-262.46C1829.94,-247.28 1934.57,-226.2 2007.26,-211.57"/>
<polygon fill="midnightblue" stroke="midnightblue" points="1753.69,-259.06 1744.58,-264.47 1755.07,-265.92 1753.69,-259.06"/>
</g>
<!-- Node23&#45;&gt;Node17 -->
<g id="edge31" class="edge">
<title>Node23&#45;&gt;Node17</title>
<path fill="none" stroke="midnightblue" d="M1702.12,-161.18C1718.33,-149.13 1736.36,-135.72 1750.67,-125.08"/>
<polygon fill="midnightblue" stroke="midnightblue" points="1699.78,-158.56 1693.84,-167.34 1703.95,-164.18 1699.78,-158.56"/>
</g>
<!-- Node23&#45;&gt;Node20 -->
<g id="edge32" class="edge">
<title>Node23&#45;&gt;Node20</title>
<path fill="none" stroke="midnightblue" d="M1637.95,-158.84C1630.46,-147.42 1622.35,-135.04 1615.83,-125.08"/>
<polygon fill="midnightblue" stroke="midnightblue" points="1635.11,-160.89 1643.51,-167.34 1640.96,-157.05 1635.11,-160.89"/>
</g>
<!-- Node23&#45;&gt;Node22 -->
<g id="edge30" class="edge">
<title>Node23&#45;&gt;Node22</title>
<path fill="none" stroke="midnightblue" d="M1754.59,-165.95C1801.55,-152.77 1857.29,-137.13 1900.3,-125.06"/>
<polygon fill="midnightblue" stroke="midnightblue" points="1753.39,-162.65 1744.71,-168.73 1755.28,-169.39 1753.39,-162.65"/>
</g>
<!-- Node24&#45;&gt;Node22 -->
<g id="edge34" class="edge">
<title>Node24&#45;&gt;Node22</title>
<path fill="none" stroke="midnightblue" d="M2048.54,-161.51C2031.53,-149.37 2012.51,-135.82 1997.46,-125.08"/>
<polygon fill="midnightblue" stroke="midnightblue" points="2046.54,-164.38 2056.71,-167.34 2050.6,-158.68 2046.54,-164.38"/>
</g>
<!-- Node25 -->
<g id="node25" class="node">
<title>Node25</title>
<g id="a_node25"><a xlink:href="_frame_graphic_8cpp.html" target="_top" xlink:title=" ">
<polygon fill="none" stroke="black" points="2010.5,-0.5 2010.5,-41.5 2173.5,-41.5 2173.5,-0.5 2010.5,-0.5"/>
<text text-anchor="start" x="2018.5" y="-29.5" font-family="Helvetica,sans-Serif" font-size="10.00">/home/tomek/CLionProjects</text>
<text text-anchor="start" x="2018.5" y="-18.5" font-family="Helvetica,sans-Serif" font-size="10.00">/proi/proi&#45;projekt/src</text>
<text text-anchor="middle" x="2092" y="-7.5" font-family="Helvetica,sans-Serif" font-size="10.00">/graphic&#45;lib/FrameGraphic.cpp</text>
</a>
</g>
</g>
<!-- Node24&#45;&gt;Node25 -->
<g id="edge35" class="edge">
<title>Node24&#45;&gt;Node25</title>
<path fill="none" stroke="midnightblue" d="M2092,-157.08C2092,-122.09 2092,-69.84 2092,-41.68"/>
<polygon fill="midnightblue" stroke="midnightblue" points="2088.5,-157.34 2092,-167.34 2095.5,-157.34 2088.5,-157.34"/>
</g>
<!-- Node26 -->
<g id="node26" class="node">
<title>Node26</title>
<g id="a_node26"><a xlink:href="_bare_frame_graphic_8h.html" target="_top" xlink:title=" ">
<polygon fill="none" stroke="black" points="2120.5,-78.5 2120.5,-130.5 2309.5,-130.5 2309.5,-78.5 2120.5,-78.5"/>
<text text-anchor="start" x="2128.5" y="-118.5" font-family="Helvetica,sans-Serif" font-size="10.00">/home/tomek/CLionProjects</text>
<text text-anchor="start" x="2128.5" y="-107.5" font-family="Helvetica,sans-Serif" font-size="10.00">/proi/proi&#45;projekt/src</text>
<text text-anchor="start" x="2128.5" y="-96.5" font-family="Helvetica,sans-Serif" font-size="10.00">/graphic&#45;lib/include/ActiveState</text>
<text text-anchor="middle" x="2215" y="-85.5" font-family="Helvetica,sans-Serif" font-size="10.00">_dir/Frame_dir/BareFrameGraphic.h</text>
</a>
</g>
</g>
<!-- Node24&#45;&gt;Node26 -->
<g id="edge36" class="edge">
<title>Node24&#45;&gt;Node26</title>
<path fill="none" stroke="midnightblue" d="M2135.82,-161.5C2150.15,-151.37 2165.87,-140.25 2179.5,-130.61"/>
<polygon fill="midnightblue" stroke="midnightblue" points="2133.72,-158.7 2127.58,-167.34 2137.76,-164.42 2133.72,-158.7"/>
</g>
<!-- Node28 -->
<g id="node28" class="node">
<title>Node28</title>
<g id="a_node28"><a xlink:href="_game_info_graphic_8h.html" target="_top" xlink:title=" ">
<polygon fill="none" stroke="black" points="2328,-78.5 2328,-130.5 2512,-130.5 2512,-78.5 2328,-78.5"/>
<text text-anchor="start" x="2336" y="-118.5" font-family="Helvetica,sans-Serif" font-size="10.00">/home/tomek/CLionProjects</text>
<text text-anchor="start" x="2336" y="-107.5" font-family="Helvetica,sans-Serif" font-size="10.00">/proi/proi&#45;projekt/src</text>
<text text-anchor="start" x="2336" y="-96.5" font-family="Helvetica,sans-Serif" font-size="10.00">/graphic&#45;lib/include/ActiveState</text>
<text text-anchor="middle" x="2420" y="-85.5" font-family="Helvetica,sans-Serif" font-size="10.00">_dir/Frame_dir/GameInfoGraphic.h</text>
</a>
</g>
</g>
<!-- Node24&#45;&gt;Node28 -->
<g id="edge39" class="edge">
<title>Node24&#45;&gt;Node28</title>
<path fill="none" stroke="midnightblue" d="M2186.82,-167.35C2231.23,-155.57 2283.92,-141.59 2327.98,-129.91"/>
<polygon fill="midnightblue" stroke="midnightblue" points="2185.66,-164.04 2176.89,-169.98 2187.46,-170.8 2185.66,-164.04"/>
</g>
<!-- Node26&#45;&gt;Node25 -->
<g id="edge38" class="edge">
<title>Node26&#45;&gt;Node25</title>
<path fill="none" stroke="midnightblue" d="M2168.56,-72.73C2152.88,-62.34 2135.81,-51.03 2121.78,-41.73"/>
<polygon fill="midnightblue" stroke="midnightblue" points="2166.82,-75.78 2177.09,-78.38 2170.69,-69.94 2166.82,-75.78"/>
</g>
<!-- Node27 -->
<g id="node27" class="node">
<title>Node27</title>
<g id="a_node27"><a xlink:href="_bare_frame_graphic_8cpp.html" target="_top" xlink:title=" ">
<polygon fill="none" stroke="black" points="2191.5,-0.5 2191.5,-41.5 2376.5,-41.5 2376.5,-0.5 2191.5,-0.5"/>
<text text-anchor="start" x="2199.5" y="-29.5" font-family="Helvetica,sans-Serif" font-size="10.00">/home/tomek/CLionProjects</text>
<text text-anchor="start" x="2199.5" y="-18.5" font-family="Helvetica,sans-Serif" font-size="10.00">/proi/proi&#45;projekt/src</text>
<text text-anchor="middle" x="2284" y="-7.5" font-family="Helvetica,sans-Serif" font-size="10.00">/graphic&#45;lib/BareFrameGraphic.cpp</text>
</a>
</g>
</g>
<!-- Node26&#45;&gt;Node27 -->
<g id="edge37" class="edge">
<title>Node26&#45;&gt;Node27</title>
<path fill="none" stroke="midnightblue" d="M2242.95,-70.48C2251.24,-60.69 2260.06,-50.28 2267.38,-41.63"/>
<polygon fill="midnightblue" stroke="midnightblue" points="2240.24,-68.27 2236.45,-78.16 2245.59,-72.79 2240.24,-68.27"/>
</g>
<!-- Node28&#45;&gt;Node25 -->
<g id="edge40" class="edge">
<title>Node28&#45;&gt;Node25</title>
<path fill="none" stroke="midnightblue" d="M2318.31,-78.08C2318.2,-78.05 2318.1,-78.03 2318,-78 2269.16,-65.84 2214.38,-52.27 2170.98,-41.53"/>
<polygon fill="midnightblue" stroke="midnightblue" points="2317.43,-81.47 2327.98,-80.49 2319.12,-74.67 2317.43,-81.47"/>
</g>
<!-- Node29 -->
<g id="node29" class="node">
<title>Node29</title>
<g id="a_node29"><a xlink:href="_game_info_graphic_8cpp.html" target="_top" xlink:title=" ">
<polygon fill="none" stroke="black" points="2395,-0.5 2395,-41.5 2575,-41.5 2575,-0.5 2395,-0.5"/>
<text text-anchor="start" x="2403" y="-29.5" font-family="Helvetica,sans-Serif" font-size="10.00">/home/tomek/CLionProjects</text>
<text text-anchor="start" x="2403" y="-18.5" font-family="Helvetica,sans-Serif" font-size="10.00">/proi/proi&#45;projekt/src</text>
<text text-anchor="middle" x="2485" y="-7.5" font-family="Helvetica,sans-Serif" font-size="10.00">/graphic&#45;lib/GameInfoGraphic.cpp</text>
</a>
</g>
</g>
<!-- Node28&#45;&gt;Node29 -->
<g id="edge41" class="edge">
<title>Node28&#45;&gt;Node29</title>
<path fill="none" stroke="midnightblue" d="M2446.56,-70.19C2454.31,-60.49 2462.51,-50.2 2469.35,-41.63"/>
<polygon fill="midnightblue" stroke="midnightblue" points="2443.71,-68.16 2440.21,-78.16 2449.18,-72.52 2443.71,-68.16"/>
</g>
<!-- Node30&#45;&gt;Node9 -->
<g id="edge43" class="edge">
<title>Node30&#45;&gt;Node9</title>
<path fill="none" stroke="midnightblue" d="M938.7,-253.09C901.79,-240.34 859.17,-225.63 825.87,-214.13"/>
<polygon fill="midnightblue" stroke="midnightblue" points="937.85,-256.5 948.45,-256.45 940.14,-249.88 937.85,-256.5"/>
</g>
<!-- Node30&#45;&gt;Node14 -->
<g id="edge44" class="edge">
<title>Node30&#45;&gt;Node14</title>
<path fill="none" stroke="midnightblue" d="M1054.43,-249.18C1066.63,-237.39 1080.04,-224.43 1090.74,-214.08"/>
<polygon fill="midnightblue" stroke="midnightblue" points="1051.79,-246.87 1047.03,-256.34 1056.65,-251.9 1051.79,-246.87"/>
</g>
<!-- Node31&#45;&gt;Node19 -->
<g id="edge46" class="edge">
<title>Node31&#45;&gt;Node19</title>
<path fill="none" stroke="midnightblue" d="M1310.96,-161.18C1295.17,-149.13 1277.6,-135.72 1263.66,-125.08"/>
<polygon fill="midnightblue" stroke="midnightblue" points="1308.95,-164.05 1319.03,-167.34 1313.2,-158.49 1308.95,-164.05"/>
</g>
<!-- Node32 -->
<g id="node32" class="node">
<title>Node32</title>
<g id="a_node32"><a xlink:href="_static_graphic_8cpp.html" target="_top" xlink:title=" ">
<polygon fill="none" stroke="black" points="1349,-84 1349,-125 1509,-125 1509,-84 1349,-84"/>
<text text-anchor="start" x="1357" y="-113" font-family="Helvetica,sans-Serif" font-size="10.00">/home/tomek/CLionProjects</text>
<text text-anchor="start" x="1357" y="-102" font-family="Helvetica,sans-Serif" font-size="10.00">/proi/proi&#45;projekt/src</text>
<text text-anchor="middle" x="1429" y="-91" font-family="Helvetica,sans-Serif" font-size="10.00">/graphic&#45;lib/StaticGraphic.cpp</text>
</a>
</g>
</g>
<!-- Node31&#45;&gt;Node32 -->
<g id="edge47" class="edge">
<title>Node31&#45;&gt;Node32</title>
<path fill="none" stroke="midnightblue" d="M1380.9,-159.85C1391.25,-148.15 1402.6,-135.33 1411.67,-125.08"/>
<polygon fill="midnightblue" stroke="midnightblue" points="1378.28,-157.53 1374.27,-167.34 1383.52,-162.17 1378.28,-157.53"/>
</g>
<!-- Node33&#45;&gt;Node20 -->
<g id="edge50" class="edge">
<title>Node33&#45;&gt;Node20</title>
<path fill="none" stroke="midnightblue" d="M1451.67,-248.85C1473.83,-225.59 1504.71,-193.81 1533,-167 1548.26,-152.53 1566.08,-136.9 1579.91,-125.02"/>
<polygon fill="midnightblue" stroke="midnightblue" points="1448.85,-246.73 1444.51,-256.4 1453.93,-251.55 1448.85,-246.73"/>
</g>
<!-- Node33&#45;&gt;Node31 -->
<g id="edge51" class="edge">
<title>Node33&#45;&gt;Node31</title>
<path fill="none" stroke="midnightblue" d="M1394.6,-248.22C1387.07,-238.72 1378.99,-228.53 1371.91,-219.61"/>
<polygon fill="midnightblue" stroke="midnightblue" points="1392.09,-250.68 1401.04,-256.34 1397.57,-246.33 1392.09,-250.68"/>
</g>
<!-- Node33&#45;&gt;Node32 -->
<g id="edge49" class="edge">
<title>Node33&#45;&gt;Node32</title>
<path fill="none" stroke="midnightblue" d="M1437.7,-247.07C1441.13,-238.43 1444.23,-229.04 1446,-220 1450.52,-196.88 1449.17,-190.34 1446,-167 1444.06,-152.73 1439.71,-137.09 1435.89,-125.16"/>
<polygon fill="midnightblue" stroke="midnightblue" points="1434.41,-245.87 1433.75,-256.45 1440.86,-248.6 1434.41,-245.87"/>
</g>
</g>
</svg>
        <g id="navigator" transform="translate(0 0)" fill="#404254">
                <rect fill="#f2f5e9" fill-opacity="0.5" stroke="#606060" stroke-width=".5" x="0" y="0" width="60" height="60"/>
                <use id="zoomplus" xlink:href="#zoomPlus" x="17" y="9" onmousedown="handleZoom(evt,'in')"/>
                <use id="zoomminus" xlink:href="#zoomMin" x="42" y="9" onmousedown="handleZoom(evt,'out')"/>
                <use id="reset" xlink:href="#resetDef" x="30" y="36" onmousedown="handleReset()"/>
                <g id="arrowUp" xlink:href="#dirArrow" transform="translate(30 24)" onmousedown="handlePan(0,-1)">
                  <use xlink:href="#rim" fill="#404040">
                        <set attributeName="fill" to="#808080" begin="arrowUp.mouseover" end="arrowUp.mouseout"/>
                  </use>
                  <path fill="none" stroke="white" stroke-width="1.5" d="M0,-3.0v7 M-2.5,-0.5L0,-3.0L2.5,-0.5"/>
                </g>
                <g id="arrowRight" xlink:href="#dirArrow" transform="rotate(90) translate(36 -43)" onmousedown="handlePan(1,0)">
                  <use xlink:href="#rim" fill="#404040">
                        <set attributeName="fill" to="#808080" begin="arrowRight.mouseover" end="arrowRight.mouseout"/>
                  </use>
                  <path fill="none" stroke="white" stroke-width="1.5" d="M0,-3.0v7 M-2.5,-0.5L0,-3.0L2.5,-0.5"/>
                </g>
                <g id="arrowDown" xlink:href="#dirArrow" transform="rotate(180) translate(-30 -48)" onmousedown="handlePan(0,1)">
                  <use xlink:href="#rim" fill="#404040">
                        <set attributeName="fill" to="#808080" begin="arrowDown.mouseover" end="arrowDown.mouseout"/>
                  </use>
                  <path fill="none" stroke="white" stroke-width="1.5" d="M0,-3.0v7 M-2.5,-0.5L0,-3.0L2.5,-0.5"/>
                </g>
                <g id="arrowLeft" xlink:href="#dirArrow" transform="rotate(270) translate(-36 17)" onmousedown="handlePan(-1,0)">
                  <use xlink:href="#rim" fill="#404040">
                        <set attributeName="fill" to="#808080" begin="arrowLeft.mouseover" end="arrowLeft.mouseout"/>
                  </use>
                  <path fill="none" stroke="white" stroke-width="1.5" d="M0,-3.0v7 M-2.5,-0.5L0,-3.0L2.5,-0.5"/>
                </g>
        </g>
        <svg viewBox="0 0 15 15" width="100%" height="30px" preserveAspectRatio="xMaxYMin meet">
         <g id="arrow_out" transform="scale(0.3 0.3)">
          <a xlink:href="_grid_8h__dep__incl_org.svg" target="_base">
           <rect id="button" ry="5" rx="5" y="6" x="6" height="38" width="38"
                fill="#f2f5e9" fill-opacity="0.5" stroke="#606060" stroke-width="1.0"/>
           <path id="arrow"
             d="M 11.500037,31.436501 C 11.940474,20.09759 22.043105,11.32322 32.158766,21.979434 L 37.068811,17.246167 C 37.068811,17.246167 37.088388,32 37.088388,32 L 22.160133,31.978069 C 22.160133,31.978069 26.997745,27.140456 26.997745,27.140456 C 18.528582,18.264221 13.291696,25.230495 11.500037,31.436501 z"
             style="fill:#404040;"/>
          </a>
         </g>
        </svg>
</svg>
