<?xml version="1.0" encoding="UTF-8" standalone="no"?>
<!DOCTYPE svg PUBLIC "-//W3C//DTD SVG 1.1//EN"
 "http://www.w3.org/Graphics/SVG/1.1/DTD/svg11.dtd">
<!-- Generated by graphviz version 2.43.0 (0)
 -->
<!-- Title: /home/tomek/CLionProjects/proi/proi&#45;projekt/src/board&#45;lib/Grid.cpp Pages: 1 -->
<svg width="523pt" height="374pt"
 viewBox="0.00 0.00 522.97 374.00" xmlns="http://www.w3.org/2000/svg" xmlns:xlink="http://www.w3.org/1999/xlink">
<g id="graph0" class="graph" transform="scale(1 1) rotate(0) translate(4 370)">
<title>/home/tomek/CLionProjects/proi/proi&#45;projekt/src/board&#45;lib/Grid.cpp</title>
<!-- Node1 -->
<g id="node1" class="node">
<title>Node1</title>
<g id="a_node1"><a xlink:title=" ">
<polygon fill="#bfbfbf" stroke="black" points="157.48,-324.5 157.48,-365.5 308.48,-365.5 308.48,-324.5 157.48,-324.5"/>
<text text-anchor="start" x="165.48" y="-353.5" font-family="Helvetica,sans-Serif" font-size="10.00">/home/tomek/CLionProjects</text>
<text text-anchor="start" x="165.48" y="-342.5" font-family="Helvetica,sans-Serif" font-size="10.00">/proi/proi&#45;projekt/src</text>
<text text-anchor="middle" x="232.98" y="-331.5" font-family="Helvetica,sans-Serif" font-size="10.00">/board&#45;lib/Grid.cpp</text>
</a>
</g>
</g>
<!-- Node2 -->
<g id="node2" class="node">
<title>Node2</title>
<g id="a_node2"><a xlink:href="_grid_8h.html" target="_top" xlink:title=" ">
<polygon fill="none" stroke="black" points="79.98,-263 79.98,-282 163.98,-282 163.98,-263 79.98,-263"/>
<text text-anchor="middle" x="121.98" y="-270" font-family="Helvetica,sans-Serif" font-size="10.00">include/Grid.h</text>
</a>
</g>
</g>
<!-- Node1&#45;&gt;Node2 -->
<g id="edge1" class="edge">
<title>Node1&#45;&gt;Node2</title>
<path fill="none" stroke="midnightblue" d="M202.06,-324.36C183.66,-312.67 160.74,-298.12 144.14,-287.57"/>
<polygon fill="midnightblue" stroke="midnightblue" points="145.95,-284.58 135.64,-282.17 142.2,-290.49 145.95,-284.58"/>
</g>
<!-- Node12 -->
<g id="node12" class="node">
<title>Node12</title>
<g id="a_node12"><a xlink:href="_event_queue_8h.html" target="_top" xlink:title=" ">
<polygon fill="none" stroke="black" points="182.48,-257.5 182.48,-287.5 283.48,-287.5 283.48,-257.5 182.48,-257.5"/>
<text text-anchor="start" x="190.48" y="-275.5" font-family="Helvetica,sans-Serif" font-size="10.00">../core&#45;lib/include</text>
<text text-anchor="middle" x="232.98" y="-264.5" font-family="Helvetica,sans-Serif" font-size="10.00">/EventQueue.h</text>
</a>
</g>
</g>
<!-- Node1&#45;&gt;Node12 -->
<g id="edge15" class="edge">
<title>Node1&#45;&gt;Node12</title>
<path fill="none" stroke="midnightblue" d="M232.98,-324.36C232.98,-316.23 232.98,-306.7 232.98,-298.11"/>
<polygon fill="midnightblue" stroke="midnightblue" points="236.48,-297.89 232.98,-287.89 229.48,-297.89 236.48,-297.89"/>
</g>
<!-- Node13 -->
<g id="node13" class="node">
<title>Node13</title>
<g id="a_node13"><a xlink:href="_event_8h.html" target="_top" xlink:title=" ">
<polygon fill="none" stroke="black" points="301.48,-257.5 301.48,-287.5 402.48,-287.5 402.48,-257.5 301.48,-257.5"/>
<text text-anchor="start" x="309.48" y="-275.5" font-family="Helvetica,sans-Serif" font-size="10.00">../core&#45;lib/include</text>
<text text-anchor="middle" x="351.98" y="-264.5" font-family="Helvetica,sans-Serif" font-size="10.00">/Event.h</text>
</a>
</g>
</g>
<!-- Node1&#45;&gt;Node13 -->
<g id="edge18" class="edge">
<title>Node1&#45;&gt;Node13</title>
<path fill="none" stroke="midnightblue" d="M266.13,-324.36C282.72,-314.53 302.75,-302.67 319.28,-292.87"/>
<polygon fill="midnightblue" stroke="midnightblue" points="321.24,-295.78 328.06,-287.67 317.67,-289.76 321.24,-295.78"/>
</g>
<!-- Node3 -->
<g id="node3" class="node">
<title>Node3</title>
<g id="a_node3"><a xlink:title=" ">
<polygon fill="none" stroke="#bfbfbf" points="91.48,-196 91.48,-215 156.48,-215 156.48,-196 91.48,-196"/>
<text text-anchor="middle" x="123.98" y="-203" font-family="Helvetica,sans-Serif" font-size="10.00">exception</text>
</a>
</g>
</g>
<!-- Node2&#45;&gt;Node3 -->
<g id="edge2" class="edge">
<title>Node2&#45;&gt;Node3</title>
<path fill="none" stroke="midnightblue" d="M122.25,-262.73C122.54,-253.18 123.02,-237.62 123.4,-225.28"/>
<polygon fill="midnightblue" stroke="midnightblue" points="126.91,-225.23 123.71,-215.13 119.91,-225.01 126.91,-225.23"/>
</g>
<!-- Node4 -->
<g id="node4" class="node">
<title>Node4</title>
<g id="a_node4"><a xlink:title=" ">
<polygon fill="none" stroke="#bfbfbf" points="21.48,-0.5 21.48,-19.5 68.48,-19.5 68.48,-0.5 21.48,-0.5"/>
<text text-anchor="middle" x="44.98" y="-7.5" font-family="Helvetica,sans-Serif" font-size="10.00">vector</text>
</a>
</g>
</g>
<!-- Node2&#45;&gt;Node4 -->
<g id="edge3" class="edge">
<title>Node2&#45;&gt;Node4</title>
<path fill="none" stroke="midnightblue" d="M80.62,-262.94C57.63,-255.84 30.92,-243.18 16.98,-221 -21.84,-159.26 16.27,-67.18 35.43,-28.8"/>
<polygon fill="midnightblue" stroke="midnightblue" points="38.57,-30.34 40.05,-19.85 32.35,-27.14 38.57,-30.34"/>
</g>
<!-- Node5 -->
<g id="node5" class="node">
<title>Node5</title>
<g id="a_node5"><a xlink:title=" ">
<polygon fill="none" stroke="#bfbfbf" points="26.48,-196 26.48,-215 73.48,-215 73.48,-196 26.48,-196"/>
<text text-anchor="middle" x="49.98" y="-203" font-family="Helvetica,sans-Serif" font-size="10.00">queue</text>
</a>
</g>
</g>
<!-- Node2&#45;&gt;Node5 -->
<g id="edge4" class="edge">
<title>Node2&#45;&gt;Node5</title>
<path fill="none" stroke="midnightblue" d="M112.27,-262.73C100.72,-252.31 81.23,-234.71 67.12,-221.97"/>
<polygon fill="midnightblue" stroke="midnightblue" points="69.3,-219.23 59.54,-215.13 64.61,-224.43 69.3,-219.23"/>
</g>
<!-- Node6 -->
<g id="node6" class="node">
<title>Node6</title>
<g id="a_node6"><a xlink:href="_tank_8h.html" target="_top" xlink:title=" ">
<polygon fill="none" stroke="black" points="174.98,-190.5 174.98,-220.5 284.98,-220.5 284.98,-190.5 174.98,-190.5"/>
<text text-anchor="start" x="182.98" y="-208.5" font-family="Helvetica,sans-Serif" font-size="10.00">../../tank&#45;lib/include</text>
<text text-anchor="middle" x="229.98" y="-197.5" font-family="Helvetica,sans-Serif" font-size="10.00">/Tank.h</text>
</a>
</g>
</g>
<!-- Node2&#45;&gt;Node6 -->
<g id="edge5" class="edge">
<title>Node2&#45;&gt;Node6</title>
<path fill="none" stroke="midnightblue" d="M136.55,-262.73C152.19,-253.32 177.56,-238.05 197.91,-225.8"/>
<polygon fill="midnightblue" stroke="midnightblue" points="199.81,-228.74 206.57,-220.59 196.2,-222.75 199.81,-228.74"/>
</g>
<!-- Node7 -->
<g id="node7" class="node">
<title>Node7</title>
<g id="a_node7"><a xlink:title=" ">
<polygon fill="none" stroke="#bfbfbf" points="321.98,-0.5 321.98,-19.5 379.98,-19.5 379.98,-0.5 321.98,-0.5"/>
<text text-anchor="middle" x="350.98" y="-7.5" font-family="Helvetica,sans-Serif" font-size="10.00">memory</text>
</a>
</g>
</g>
<!-- Node6&#45;&gt;Node7 -->
<g id="edge6" class="edge">
<title>Node6&#45;&gt;Node7</title>
<path fill="none" stroke="midnightblue" d="M253.54,-190.35C266.9,-181.34 283.06,-168.63 293.98,-154 323.19,-114.86 339.74,-58.73 346.82,-29.81"/>
<polygon fill="midnightblue" stroke="midnightblue" points="350.29,-30.37 349.15,-19.84 343.47,-28.78 350.29,-30.37"/>
</g>
<!-- Node8 -->
<g id="node8" class="node">
<title>Node8</title>
<g id="a_node8"><a xlink:title=" ">
<polygon fill="none" stroke="#bfbfbf" points="228.98,-129 228.98,-148 284.98,-148 284.98,-129 228.98,-129"/>
<text text-anchor="middle" x="256.98" y="-136" font-family="Helvetica,sans-Serif" font-size="10.00">optional</text>
</a>
</g>
</g>
<!-- Node6&#45;&gt;Node8 -->
<g id="edge7" class="edge">
<title>Node6&#45;&gt;Node8</title>
<path fill="none" stroke="midnightblue" d="M235.84,-190.4C239.84,-180.76 245.18,-167.91 249.49,-157.54"/>
<polygon fill="midnightblue" stroke="midnightblue" points="252.76,-158.77 253.37,-148.19 246.3,-156.09 252.76,-158.77"/>
</g>
<!-- Node9 -->
<g id="node9" class="node">
<title>Node9</title>
<g id="a_node9"><a xlink:href="_simple_subscriber_8h.html" target="_top" xlink:title=" ">
<polygon fill="none" stroke="black" points="35.48,-56.5 35.48,-86.5 148.48,-86.5 148.48,-56.5 35.48,-56.5"/>
<text text-anchor="start" x="43.48" y="-74.5" font-family="Helvetica,sans-Serif" font-size="10.00">../../core&#45;lib/include</text>
<text text-anchor="middle" x="91.98" y="-63.5" font-family="Helvetica,sans-Serif" font-size="10.00">/SimpleSubscriber.h</text>
</a>
</g>
</g>
<!-- Node6&#45;&gt;Node9 -->
<g id="edge8" class="edge">
<title>Node6&#45;&gt;Node9</title>
<path fill="none" stroke="midnightblue" d="M174.81,-191.59C127.93,-180.06 67.11,-163.56 59.98,-154 46.62,-136.1 59.14,-111.89 72.24,-94.52"/>
<polygon fill="midnightblue" stroke="midnightblue" points="75.07,-96.59 78.6,-86.6 69.61,-92.2 75.07,-96.59"/>
</g>
<!-- Node10 -->
<g id="node10" class="node">
<title>Node10</title>
<g id="a_node10"><a xlink:href="_entity_8h.html" target="_top" xlink:title=" ">
<polygon fill="none" stroke="black" points="174.48,-62 174.48,-81 227.48,-81 227.48,-62 174.48,-62"/>
<text text-anchor="middle" x="200.98" y="-69" font-family="Helvetica,sans-Serif" font-size="10.00">Entity.h</text>
</a>
</g>
</g>
<!-- Node6&#45;&gt;Node10 -->
<g id="edge11" class="edge">
<title>Node6&#45;&gt;Node10</title>
<path fill="none" stroke="midnightblue" d="M226.88,-190.37C221.61,-166.4 210.92,-117.75 205.06,-91.06"/>
<polygon fill="midnightblue" stroke="midnightblue" points="208.43,-90.11 202.87,-81.1 201.6,-91.62 208.43,-90.11"/>
</g>
<!-- Node11 -->
<g id="node11" class="node">
<title>Node11</title>
<g id="a_node11"><a xlink:href="_bot_8h.html" target="_top" xlink:title=" ">
<polygon fill="none" stroke="black" points="68.98,-123.5 68.98,-153.5 172.98,-153.5 172.98,-123.5 68.98,-123.5"/>
<text text-anchor="start" x="76.98" y="-141.5" font-family="Helvetica,sans-Serif" font-size="10.00">../../bot&#45;lib/include</text>
<text text-anchor="middle" x="120.98" y="-130.5" font-family="Helvetica,sans-Serif" font-size="10.00">/Bot.h</text>
</a>
</g>
</g>
<!-- Node6&#45;&gt;Node11 -->
<g id="edge12" class="edge">
<title>Node6&#45;&gt;Node11</title>
<path fill="none" stroke="midnightblue" d="M206.33,-190.4C190.9,-181.2 170.56,-169.07 153.6,-158.95"/>
<polygon fill="midnightblue" stroke="midnightblue" points="154.97,-155.69 144.59,-153.58 151.38,-161.7 154.97,-155.69"/>
</g>
<!-- Node9&#45;&gt;Node4 -->
<g id="edge9" class="edge">
<title>Node9&#45;&gt;Node4</title>
<path fill="none" stroke="midnightblue" d="M80.84,-56.4C74.01,-47.75 65.23,-36.64 58.07,-27.58"/>
<polygon fill="midnightblue" stroke="midnightblue" points="60.76,-25.34 51.82,-19.66 55.27,-29.67 60.76,-25.34"/>
</g>
<!-- Node9&#45;&gt;Node7 -->
<g id="edge10" class="edge">
<title>Node9&#45;&gt;Node7</title>
<path fill="none" stroke="midnightblue" d="M148.5,-57.52C197.97,-46.15 268.53,-29.94 311.96,-19.96"/>
<polygon fill="midnightblue" stroke="midnightblue" points="312.9,-23.34 321.86,-17.69 311.33,-16.52 312.9,-23.34"/>
</g>
<!-- Node11&#45;&gt;Node9 -->
<g id="edge14" class="edge">
<title>Node11&#45;&gt;Node9</title>
<path fill="none" stroke="midnightblue" d="M114.69,-123.4C111.12,-115.39 106.55,-105.16 102.45,-95.98"/>
<polygon fill="midnightblue" stroke="midnightblue" points="105.53,-94.28 98.26,-86.58 99.14,-97.13 105.53,-94.28"/>
</g>
<!-- Node11&#45;&gt;Node10 -->
<g id="edge13" class="edge">
<title>Node11&#45;&gt;Node10</title>
<path fill="none" stroke="midnightblue" d="M138.34,-123.4C151.31,-112.86 169.01,-98.48 182.29,-87.69"/>
<polygon fill="midnightblue" stroke="midnightblue" points="184.72,-90.22 190.28,-81.19 180.31,-84.78 184.72,-90.22"/>
</g>
<!-- Node12&#45;&gt;Node5 -->
<g id="edge16" class="edge">
<title>Node12&#45;&gt;Node5</title>
<path fill="none" stroke="midnightblue" d="M186.95,-257.46C156.81,-247.93 116.72,-234.64 81.98,-221 80.56,-220.44 79.11,-219.86 77.66,-219.25"/>
<polygon fill="midnightblue" stroke="midnightblue" points="78.68,-215.88 68.12,-215.11 75.9,-222.3 78.68,-215.88"/>
</g>
<!-- Node12&#45;&gt;Node7 -->
<g id="edge17" class="edge">
<title>Node12&#45;&gt;Node7</title>
<path fill="none" stroke="midnightblue" d="M255.07,-257.3C267.82,-248.19 283.39,-235.4 293.98,-221 332.14,-169.15 335.69,-149.99 348.98,-87 353.02,-67.86 353.05,-45.41 352.36,-29.89"/>
<polygon fill="midnightblue" stroke="midnightblue" points="355.83,-29.33 351.75,-19.55 348.85,-29.74 355.83,-29.33"/>
</g>
<!-- Node13&#45;&gt;Node3 -->
<g id="edge19" class="edge">
<title>Node13&#45;&gt;Node3</title>
<path fill="none" stroke="midnightblue" d="M301.19,-258.7C263.65,-248.99 211.39,-234.99 165.98,-221 163.22,-220.15 160.36,-219.24 157.5,-218.3"/>
<polygon fill="midnightblue" stroke="midnightblue" points="158.47,-214.93 147.88,-215.06 156.24,-221.57 158.47,-214.93"/>
</g>
<!-- Node13&#45;&gt;Node6 -->
<g id="edge24" class="edge">
<title>Node13&#45;&gt;Node6</title>
<path fill="none" stroke="midnightblue" d="M325.51,-257.4C307.92,-248.03 284.63,-235.62 265.44,-225.39"/>
<polygon fill="midnightblue" stroke="midnightblue" points="266.87,-222.19 256.4,-220.58 263.58,-228.37 266.87,-222.19"/>
</g>
<!-- Node13&#45;&gt;Node7 -->
<g id="edge21" class="edge">
<title>Node13&#45;&gt;Node7</title>
<path fill="none" stroke="midnightblue" d="M402.64,-269.03C436.78,-264.42 479.53,-252.24 501.98,-221 555.11,-147.05 429.34,-58.5 374.74,-24.87"/>
<polygon fill="midnightblue" stroke="midnightblue" points="376.4,-21.78 366.03,-19.6 372.77,-27.77 376.4,-21.78"/>
</g>
<!-- Node13&#45;&gt;Node10 -->
<g id="edge23" class="edge">
<title>Node13&#45;&gt;Node10</title>
<path fill="none" stroke="midnightblue" d="M349.75,-257.12C344.65,-228.45 329.68,-163.48 293.98,-123 278.7,-105.67 255.99,-93.18 236.83,-84.96"/>
<polygon fill="midnightblue" stroke="midnightblue" points="238.07,-81.68 227.49,-81.15 235.43,-88.17 238.07,-81.68"/>
</g>
<!-- Node14 -->
<g id="node14" class="node">
<title>Node14</title>
<g id="a_node14"><a xlink:title=" ">
<polygon fill="none" stroke="#bfbfbf" points="378.98,-196 378.98,-215 422.98,-215 422.98,-196 378.98,-196"/>
<text text-anchor="middle" x="400.98" y="-203" font-family="Helvetica,sans-Serif" font-size="10.00">string</text>
</a>
</g>
</g>
<!-- Node13&#45;&gt;Node14 -->
<g id="edge20" class="edge">
<title>Node13&#45;&gt;Node14</title>
<path fill="none" stroke="midnightblue" d="M362.61,-257.4C370.18,-247.36 380.37,-233.84 388.35,-223.25"/>
<polygon fill="midnightblue" stroke="midnightblue" points="391.2,-225.29 394.43,-215.19 385.61,-221.07 391.2,-225.29"/>
</g>
<!-- Node15 -->
<g id="node15" class="node">
<title>Node15</title>
<g id="a_node15"><a xlink:title=" ">
<polygon fill="none" stroke="#bfbfbf" points="441.48,-196 441.48,-215 492.48,-215 492.48,-196 441.48,-196"/>
<text text-anchor="middle" x="466.98" y="-203" font-family="Helvetica,sans-Serif" font-size="10.00">variant</text>
</a>
</g>
</g>
<!-- Node13&#45;&gt;Node15 -->
<g id="edge22" class="edge">
<title>Node13&#45;&gt;Node15</title>
<path fill="none" stroke="midnightblue" d="M376.93,-257.4C396.58,-246.29 423.77,-230.92 443.13,-219.98"/>
<polygon fill="midnightblue" stroke="midnightblue" points="444.95,-222.97 451.93,-215.01 441.5,-216.88 444.95,-222.97"/>
</g>
</g>
</svg>
