<?xml version="1.0" encoding="UTF-8" standalone="no"?>
<!DOCTYPE svg PUBLIC "-//W3C//DTD SVG 1.1//EN"
 "http://www.w3.org/Graphics/SVG/1.1/DTD/svg11.dtd">
<!-- Generated by graphviz version 2.50.0 (0)
 -->
<!-- Title: /home/tomek/trash/battle&#45;city/src/lib/game&#45;lib/include/KeyboardController.h Pages: 1 -->
<svg width="950pt" height="206pt"
 viewBox="0.00 0.00 950.00 206.00" xmlns="http://www.w3.org/2000/svg" xmlns:xlink="http://www.w3.org/1999/xlink">
<g id="graph0" class="graph" transform="scale(1 1) rotate(0) translate(4 202)">
<title>/home/tomek/trash/battle&#45;city/src/lib/game&#45;lib/include/KeyboardController.h</title>
<!-- Node1 -->
<g id="node1" class="node">
<title>Node1</title>
<g id="a_node1"><a xlink:title=" ">
<polygon fill="#bfbfbf" stroke="black" points="311.5,-156.5 311.5,-197.5 471.5,-197.5 471.5,-156.5 311.5,-156.5"/>
<text text-anchor="start" x="319.5" y="-185.5" font-family="Helvetica,sans-Serif" font-size="10.00">/home/tomek/trash/battle</text>
<text text-anchor="start" x="319.5" y="-174.5" font-family="Helvetica,sans-Serif" font-size="10.00">&#45;city/src/lib/game&#45;lib</text>
<text text-anchor="middle" x="391.5" y="-163.5" font-family="Helvetica,sans-Serif" font-size="10.00">/include/KeyboardController.h</text>
</a>
</g>
</g>
<!-- Node2 -->
<g id="node2" class="node">
<title>Node2</title>
<g id="a_node2"><a xlink:href="_game_8cpp.html" target="_top" xlink:title=" ">
<polygon fill="none" stroke="black" points="0,-0.5 0,-41.5 141,-41.5 141,-0.5 0,-0.5"/>
<text text-anchor="start" x="8" y="-29.5" font-family="Helvetica,sans-Serif" font-size="10.00">/home/tomek/trash/battle</text>
<text text-anchor="start" x="8" y="-18.5" font-family="Helvetica,sans-Serif" font-size="10.00">&#45;city/src/lib/game&#45;lib</text>
<text text-anchor="middle" x="70.5" y="-7.5" font-family="Helvetica,sans-Serif" font-size="10.00">/Game.cpp</text>
</a>
</g>
</g>
<!-- Node1&#45;&gt;Node2 -->
<g id="edge1" class="edge">
<title>Node1&#45;&gt;Node2</title>
<path fill="none" stroke="midnightblue" d="M341.45,-151.99C278.04,-121.57 170,-69.74 111.33,-41.59"/>
<polygon fill="midnightblue" stroke="midnightblue" points="340.32,-155.33 350.85,-156.5 343.34,-149.01 340.32,-155.33"/>
</g>
<!-- Node3 -->
<g id="node3" class="node">
<title>Node3</title>
<g id="a_node3"><a xlink:href="_game_8h.html" target="_top" xlink:title=" ">
<polygon fill="none" stroke="black" points="321,-78.5 321,-119.5 462,-119.5 462,-78.5 321,-78.5"/>
<text text-anchor="start" x="329" y="-107.5" font-family="Helvetica,sans-Serif" font-size="10.00">/home/tomek/trash/battle</text>
<text text-anchor="start" x="329" y="-96.5" font-family="Helvetica,sans-Serif" font-size="10.00">&#45;city/src/lib/game&#45;lib</text>
<text text-anchor="middle" x="391.5" y="-85.5" font-family="Helvetica,sans-Serif" font-size="10.00">/include/Game.h</text>
</a>
</g>
</g>
<!-- Node1&#45;&gt;Node3 -->
<g id="edge2" class="edge">
<title>Node1&#45;&gt;Node3</title>
<path fill="none" stroke="midnightblue" d="M391.5,-146.3C391.5,-137.3 391.5,-127.65 391.5,-119.51"/>
<polygon fill="midnightblue" stroke="midnightblue" points="388,-146.43 391.5,-156.43 395,-146.43 388,-146.43"/>
</g>
<!-- Node9 -->
<g id="node9" class="node">
<title>Node9</title>
<g id="a_node9"><a xlink:href="_keyboard_controller_8cpp.html" target="_top" xlink:title=" ">
<polygon fill="none" stroke="black" points="480,-78.5 480,-119.5 621,-119.5 621,-78.5 480,-78.5"/>
<text text-anchor="start" x="488" y="-107.5" font-family="Helvetica,sans-Serif" font-size="10.00">/home/tomek/trash/battle</text>
<text text-anchor="start" x="488" y="-96.5" font-family="Helvetica,sans-Serif" font-size="10.00">&#45;city/src/lib/game&#45;lib</text>
<text text-anchor="middle" x="550.5" y="-85.5" font-family="Helvetica,sans-Serif" font-size="10.00">/KeyboardController.cpp</text>
</a>
</g>
</g>
<!-- Node1&#45;&gt;Node9 -->
<g id="edge9" class="edge">
<title>Node1&#45;&gt;Node9</title>
<path fill="none" stroke="midnightblue" d="M441.61,-152.05C463.54,-141.57 488.94,-129.42 509.69,-119.51"/>
<polygon fill="midnightblue" stroke="midnightblue" points="439.96,-148.96 432.45,-156.43 442.98,-155.27 439.96,-148.96"/>
</g>
<!-- Node3&#45;&gt;Node2 -->
<g id="edge5" class="edge">
<title>Node3&#45;&gt;Node2</title>
<path fill="none" stroke="midnightblue" d="M311.14,-79.84C264,-69.08 203.3,-55.03 149.5,-42 146.75,-41.33 143.95,-40.65 141.12,-39.95"/>
<polygon fill="midnightblue" stroke="midnightblue" points="310.46,-83.27 320.99,-82.09 312.02,-76.45 310.46,-83.27"/>
</g>
<!-- Node4 -->
<g id="node4" class="node">
<title>Node4</title>
<g id="a_node4"><a xlink:href="_active_event_handler_8cpp.html" target="_top" xlink:title=" ">
<polygon fill="none" stroke="black" points="159,-0.5 159,-41.5 300,-41.5 300,-0.5 159,-0.5"/>
<text text-anchor="start" x="167" y="-29.5" font-family="Helvetica,sans-Serif" font-size="10.00">/home/tomek/trash/battle</text>
<text text-anchor="start" x="167" y="-18.5" font-family="Helvetica,sans-Serif" font-size="10.00">&#45;city/src/lib/game&#45;lib</text>
<text text-anchor="middle" x="229.5" y="-7.5" font-family="Helvetica,sans-Serif" font-size="10.00">/ActiveEventHandler.cpp</text>
</a>
</g>
</g>
<!-- Node3&#45;&gt;Node4 -->
<g id="edge3" class="edge">
<title>Node3&#45;&gt;Node4</title>
<path fill="none" stroke="midnightblue" d="M340.45,-74.05C318.1,-63.57 292.22,-51.42 271.08,-41.51"/>
<polygon fill="midnightblue" stroke="midnightblue" points="339.24,-77.35 349.78,-78.43 342.21,-71.01 339.24,-77.35"/>
</g>
<!-- Node5 -->
<g id="node5" class="node">
<title>Node5</title>
<g id="a_node5"><a xlink:href="_finished_event_handler_8cpp.html" target="_top" xlink:title=" ">
<polygon fill="none" stroke="black" points="318.5,-0.5 318.5,-41.5 464.5,-41.5 464.5,-0.5 318.5,-0.5"/>
<text text-anchor="start" x="326.5" y="-29.5" font-family="Helvetica,sans-Serif" font-size="10.00">/home/tomek/trash/battle</text>
<text text-anchor="start" x="326.5" y="-18.5" font-family="Helvetica,sans-Serif" font-size="10.00">&#45;city/src/lib/game&#45;lib</text>
<text text-anchor="middle" x="391.5" y="-7.5" font-family="Helvetica,sans-Serif" font-size="10.00">/FinishedEventHandler.cpp</text>
</a>
</g>
</g>
<!-- Node3&#45;&gt;Node5 -->
<g id="edge4" class="edge">
<title>Node3&#45;&gt;Node5</title>
<path fill="none" stroke="midnightblue" d="M391.5,-68.3C391.5,-59.3 391.5,-49.65 391.5,-41.51"/>
<polygon fill="midnightblue" stroke="midnightblue" points="388,-68.43 391.5,-78.43 395,-68.43 388,-68.43"/>
</g>
<!-- Node6 -->
<g id="node6" class="node">
<title>Node6</title>
<g id="a_node6"><a xlink:href="_menu_event_handler_8cpp.html" target="_top" xlink:title=" ">
<polygon fill="none" stroke="black" points="483,-0.5 483,-41.5 624,-41.5 624,-0.5 483,-0.5"/>
<text text-anchor="start" x="491" y="-29.5" font-family="Helvetica,sans-Serif" font-size="10.00">/home/tomek/trash/battle</text>
<text text-anchor="start" x="491" y="-18.5" font-family="Helvetica,sans-Serif" font-size="10.00">&#45;city/src/lib/game&#45;lib</text>
<text text-anchor="middle" x="553.5" y="-7.5" font-family="Helvetica,sans-Serif" font-size="10.00">/MenuEventHandler.cpp</text>
</a>
</g>
</g>
<!-- Node3&#45;&gt;Node6 -->
<g id="edge6" class="edge">
<title>Node3&#45;&gt;Node6</title>
<path fill="none" stroke="midnightblue" d="M442.55,-74.05C464.9,-63.57 490.78,-51.42 511.92,-41.51"/>
<polygon fill="midnightblue" stroke="midnightblue" points="440.79,-71.01 433.22,-78.43 443.76,-77.35 440.79,-71.01"/>
</g>
<!-- Node7 -->
<g id="node7" class="node">
<title>Node7</title>
<g id="a_node7"><a xlink:href="_pause_event_handler_8cpp.html" target="_top" xlink:title=" ">
<polygon fill="none" stroke="black" points="642,-0.5 642,-41.5 783,-41.5 783,-0.5 642,-0.5"/>
<text text-anchor="start" x="650" y="-29.5" font-family="Helvetica,sans-Serif" font-size="10.00">/home/tomek/trash/battle</text>
<text text-anchor="start" x="650" y="-18.5" font-family="Helvetica,sans-Serif" font-size="10.00">&#45;city/src/lib/game&#45;lib</text>
<text text-anchor="middle" x="712.5" y="-7.5" font-family="Helvetica,sans-Serif" font-size="10.00">/PauseEventHandler.cpp</text>
</a>
</g>
</g>
<!-- Node3&#45;&gt;Node7 -->
<g id="edge7" class="edge">
<title>Node3&#45;&gt;Node7</title>
<path fill="none" stroke="midnightblue" d="M472.27,-77.85C544.97,-60.85 564.83,-58.32 633.5,-42 636.25,-41.35 639.06,-40.67 641.89,-39.98"/>
<polygon fill="midnightblue" stroke="midnightblue" points="471.08,-74.54 462.15,-80.23 472.68,-81.35 471.08,-74.54"/>
</g>
<!-- Node8 -->
<g id="node8" class="node">
<title>Node8</title>
<g id="a_node8"><a xlink:href="tanks_8cpp.html" target="_top" xlink:title=" ">
<polygon fill="none" stroke="black" points="801,-6 801,-36 942,-36 942,-6 801,-6"/>
<text text-anchor="start" x="809" y="-24" font-family="Helvetica,sans-Serif" font-size="10.00">/home/tomek/trash/battle</text>
<text text-anchor="middle" x="871.5" y="-13" font-family="Helvetica,sans-Serif" font-size="10.00">&#45;city/src/tanks.cpp</text>
</a>
</g>
</g>
<!-- Node3&#45;&gt;Node8 -->
<g id="edge8" class="edge">
<title>Node3&#45;&gt;Node8</title>
<path fill="none" stroke="midnightblue" d="M472.05,-78.04C614.56,-53.19 654.43,-67.1 792.5,-42 801.55,-40.36 811.09,-38.26 820.3,-36.04"/>
<polygon fill="midnightblue" stroke="midnightblue" points="471.29,-74.62 462.06,-79.82 472.52,-81.51 471.29,-74.62"/>
</g>
</g>
</svg>
