<?xml version="1.0" encoding="UTF-8" standalone="no"?>
<!DOCTYPE svg PUBLIC "-//W3C//DTD SVG 1.1//EN"
 "http://www.w3.org/Graphics/SVG/1.1/DTD/svg11.dtd">
<!-- Generated by graphviz version 2.43.0 (0)
 -->
<!-- Title: /home/tomek/CLionProjects/proi/proi&#45;projekt/src/game&#45;lib/KeyboardController.cpp Pages: 1 -->
<!--zoomable 374 -->
<svg id="main" version="1.1" xmlns="http://www.w3.org/2000/svg" xmlns:xlink="http://www.w3.org/1999/xlink" xml:space="preserve" onload="init(evt)">
<style type="text/css"><![CDATA[
.edge:hover path { stroke: red; }
.edge:hover polygon { stroke: red; fill: red; }
]]></style>
<script type="text/javascript"><![CDATA[
var edges = document.getElementsByTagName('g');
if (edges && edges.length) {
  for (var i=0;i<edges.length;i++) {
    if (edges[i].id.substr(0,4)=='edge') {
      edges[i].setAttribute('class','edge');
    }
  }
}
]]></script>
        <defs>
                <circle id="rim" cx="0" cy="0" r="7"/>
                <circle id="rim2" cx="0" cy="0" r="3.5"/>
                <g id="zoomPlus">
                        <use xlink:href="#rim" target="_top" fill="#404040">
                                <set attributeName="fill" to="#808080" begin="zoomplus.mouseover" end="zoomplus.mouseout"/>
                        </use>
                        <path d="M-4,0h8M0,-4v8" fill="none" stroke="white" stroke-width="1.5" pointer-events="none"/>
                </g>
                <g id="zoomMin">
                        <use xlink:href="#rim" target="_top" fill="#404040">
                                <set attributeName="fill" to="#808080" begin="zoomminus.mouseover" end="zoomminus.mouseout"/>
                        </use>
                        <path d="M-4,0h8" fill="none" stroke="white" stroke-width="1.5" pointer-events="none"/>
                </g>
                <g id="dirArrow">
                        <path fill="none" stroke="white" stroke-width="1.5" d="M0,-3.0v7 M-2.5,-0.5L0,-3.0L2.5,-0.5"/>
                </g>
               <g id="resetDef">
                       <use xlink:href="#rim2" target="_top" fill="#404040">
                               <set attributeName="fill" to="#808080" begin="reset.mouseover" end="reset.mouseout"/>
                       </use>
               </g>
        </defs>

<script type="text/javascript">
var viewWidth = 874;
var viewHeight = 374;
var sectionId = 'dynsection-0';
</script>
<script xlink:href="svgpan.js" target="_top"/>
<svg id="graph" class="graph">
<g id="viewport">
<title>/home/tomek/CLionProjects/proi/proi&#45;projekt/src/game&#45;lib/KeyboardController.cpp</title>
<!-- Node1 -->
<g id="node1" class="node">
<title>Node1</title>
<g id="a_node1"><a xlink:title=" ">
<polygon fill="#bfbfbf" stroke="black" points="350.77,-324.5 350.77,-365.5 529.77,-365.5 529.77,-324.5 350.77,-324.5"/>
<text text-anchor="start" x="358.77" y="-353.5" font-family="Helvetica,sans-Serif" font-size="10.00">/home/tomek/CLionProjects</text>
<text text-anchor="start" x="358.77" y="-342.5" font-family="Helvetica,sans-Serif" font-size="10.00">/proi/proi&#45;projekt/src</text>
<text text-anchor="middle" x="440.27" y="-331.5" font-family="Helvetica,sans-Serif" font-size="10.00">/game&#45;lib/KeyboardController.cpp</text>
</a>
</g>
</g>
<!-- Node2 -->
<g id="node2" class="node">
<title>Node2</title>
<g id="a_node2"><a xlink:title=" ">
<polygon fill="none" stroke="#bfbfbf" points="199.77,-263 199.77,-282 304.77,-282 304.77,-263 199.77,-263"/>
<text text-anchor="middle" x="252.27" y="-270" font-family="Helvetica,sans-Serif" font-size="10.00">SFML/Window.hpp</text>
</a>
</g>
</g>
<!-- Node1&#45;&gt;Node2 -->
<g id="edge1" class="edge">
<title>Node1&#45;&gt;Node2</title>
<path fill="none" stroke="midnightblue" d="M387.9,-324.36C354.86,-311.97 313.21,-296.35 284.85,-285.72"/>
<polygon fill="midnightblue" stroke="midnightblue" points="285.99,-282.41 275.4,-282.17 283.54,-288.96 285.99,-282.41"/>
</g>
<!-- Node3 -->
<g id="node3" class="node">
<title>Node3</title>
<g id="a_node3"><a xlink:href="_keyboard_controller_8h.html" target="_top" xlink:title=" ">
<polygon fill="none" stroke="black" points="3.77,-129 3.77,-148 160.77,-148 160.77,-129 3.77,-129"/>
<text text-anchor="middle" x="82.27" y="-136" font-family="Helvetica,sans-Serif" font-size="10.00">include/KeyboardController.h</text>
</a>
</g>
</g>
<!-- Node1&#45;&gt;Node3 -->
<g id="edge2" class="edge">
<title>Node1&#45;&gt;Node3</title>
<path fill="none" stroke="midnightblue" d="M413.69,-324.29C388.44,-305.93 349.13,-278.28 313.27,-257 242.4,-214.94 154.7,-172.92 110.53,-152.41"/>
<polygon fill="midnightblue" stroke="midnightblue" points="111.82,-149.16 101.28,-148.14 108.89,-155.51 111.82,-149.16"/>
</g>
<!-- Node8 -->
<g id="node8" class="node">
<title>Node8</title>
<g id="a_node8"><a xlink:href="_event_8h.html" target="_top" xlink:title=" ">
<polygon fill="none" stroke="black" points="497.77,-257.5 497.77,-287.5 598.77,-287.5 598.77,-257.5 497.77,-257.5"/>
<text text-anchor="start" x="505.77" y="-275.5" font-family="Helvetica,sans-Serif" font-size="10.00">../core&#45;lib/include</text>
<text text-anchor="middle" x="548.27" y="-264.5" font-family="Helvetica,sans-Serif" font-size="10.00">/Event.h</text>
</a>
</g>
</g>
<!-- Node1&#45;&gt;Node8 -->
<g id="edge8" class="edge">
<title>Node1&#45;&gt;Node8</title>
<path fill="none" stroke="midnightblue" d="M470.36,-324.36C485.28,-314.62 503.25,-302.89 518.18,-293.15"/>
<polygon fill="midnightblue" stroke="midnightblue" points="520.1,-296.07 526.56,-287.67 516.28,-290.21 520.1,-296.07"/>
</g>
<!-- Node16 -->
<g id="node16" class="node">
<title>Node16</title>
<g id="a_node16"><a xlink:href="_event_queue_8h.html" target="_top" xlink:title=" ">
<polygon fill="none" stroke="black" points="764.77,-257.5 764.77,-287.5 865.77,-287.5 865.77,-257.5 764.77,-257.5"/>
<text text-anchor="start" x="772.77" y="-275.5" font-family="Helvetica,sans-Serif" font-size="10.00">../core&#45;lib/include</text>
<text text-anchor="middle" x="815.27" y="-264.5" font-family="Helvetica,sans-Serif" font-size="10.00">/EventQueue.h</text>
</a>
</g>
</g>
<!-- Node1&#45;&gt;Node16 -->
<g id="edge22" class="edge">
<title>Node1&#45;&gt;Node16</title>
<path fill="none" stroke="midnightblue" d="M530.09,-327.11C599.53,-314.06 693.77,-296.34 754.55,-284.91"/>
<polygon fill="midnightblue" stroke="midnightblue" points="755.58,-288.28 764.76,-283 754.28,-281.4 755.58,-288.28"/>
</g>
<!-- Node4 -->
<g id="node4" class="node">
<title>Node4</title>
<g id="a_node4"><a xlink:title=" ">
<polygon fill="none" stroke="#bfbfbf" points="256.27,-0.5 256.27,-19.5 314.27,-19.5 314.27,-0.5 256.27,-0.5"/>
<text text-anchor="middle" x="285.27" y="-7.5" font-family="Helvetica,sans-Serif" font-size="10.00">memory</text>
</a>
</g>
</g>
<!-- Node3&#45;&gt;Node4 -->
<g id="edge3" class="edge">
<title>Node3&#45;&gt;Node4</title>
<path fill="none" stroke="midnightblue" d="M63.57,-128.93C34.16,-114.32 -17.21,-83.52 6.27,-56 39.28,-17.31 182.09,-28.26 232.27,-20 236.74,-19.26 241.43,-18.48 246.08,-17.7"/>
<polygon fill="midnightblue" stroke="midnightblue" points="246.84,-21.12 256.12,-16.01 245.68,-14.22 246.84,-21.12"/>
</g>
<!-- Node5 -->
<g id="node5" class="node">
<title>Node5</title>
<g id="a_node5"><a xlink:title=" ">
<polygon fill="none" stroke="#bfbfbf" points="15.27,-62 15.27,-81 125.27,-81 125.27,-62 15.27,-62"/>
<text text-anchor="middle" x="70.27" y="-69" font-family="Helvetica,sans-Serif" font-size="10.00">SFML/Graphics.hpp</text>
</a>
</g>
</g>
<!-- Node3&#45;&gt;Node5 -->
<g id="edge4" class="edge">
<title>Node3&#45;&gt;Node5</title>
<path fill="none" stroke="midnightblue" d="M80.65,-128.73C78.89,-119.18 76.02,-103.62 73.74,-91.28"/>
<polygon fill="midnightblue" stroke="midnightblue" points="77.12,-90.33 71.86,-81.13 70.24,-91.6 77.12,-90.33"/>
</g>
<!-- Node6 -->
<g id="node6" class="node">
<title>Node6</title>
<g id="a_node6"><a xlink:href="_simple_subscriber_8h.html" target="_top" xlink:title=" ">
<polygon fill="none" stroke="black" points="143.77,-56.5 143.77,-86.5 256.77,-86.5 256.77,-56.5 143.77,-56.5"/>
<text text-anchor="start" x="151.77" y="-74.5" font-family="Helvetica,sans-Serif" font-size="10.00">../../core&#45;lib/include</text>
<text text-anchor="middle" x="200.27" y="-63.5" font-family="Helvetica,sans-Serif" font-size="10.00">/SimpleSubscriber.h</text>
</a>
</g>
</g>
<!-- Node3&#45;&gt;Node6 -->
<g id="edge5" class="edge">
<title>Node3&#45;&gt;Node6</title>
<path fill="none" stroke="midnightblue" d="M98.19,-128.73C115.44,-119.23 143.49,-103.78 165.83,-91.47"/>
<polygon fill="midnightblue" stroke="midnightblue" points="167.62,-94.48 174.69,-86.59 164.25,-88.35 167.62,-94.48"/>
</g>
<!-- Node6&#45;&gt;Node4 -->
<g id="edge7" class="edge">
<title>Node6&#45;&gt;Node4</title>
<path fill="none" stroke="midnightblue" d="M220.42,-56.4C233.66,-47.13 250.95,-35.03 264.35,-25.65"/>
<polygon fill="midnightblue" stroke="midnightblue" points="266.72,-28.26 272.9,-19.66 262.7,-22.53 266.72,-28.26"/>
</g>
<!-- Node7 -->
<g id="node7" class="node">
<title>Node7</title>
<g id="a_node7"><a xlink:title=" ">
<polygon fill="none" stroke="#bfbfbf" points="176.77,-0.5 176.77,-19.5 223.77,-19.5 223.77,-0.5 176.77,-0.5"/>
<text text-anchor="middle" x="200.27" y="-7.5" font-family="Helvetica,sans-Serif" font-size="10.00">vector</text>
</a>
</g>
</g>
<!-- Node6&#45;&gt;Node7 -->
<g id="edge6" class="edge">
<title>Node6&#45;&gt;Node7</title>
<path fill="none" stroke="midnightblue" d="M200.27,-56.4C200.27,-48.47 200.27,-38.46 200.27,-29.86"/>
<polygon fill="midnightblue" stroke="midnightblue" points="203.77,-29.66 200.27,-19.66 196.77,-29.66 203.77,-29.66"/>
</g>
<!-- Node8&#45;&gt;Node4 -->
<g id="edge11" class="edge">
<title>Node8&#45;&gt;Node4</title>
<path fill="none" stroke="midnightblue" d="M552.13,-257.43C561.63,-219.42 581.72,-113.65 529.27,-56 502.42,-26.48 386.62,-16.12 324.7,-12.65"/>
<polygon fill="midnightblue" stroke="midnightblue" points="324.69,-9.14 314.52,-12.11 324.32,-16.13 324.69,-9.14"/>
</g>
<!-- Node9 -->
<g id="node9" class="node">
<title>Node9</title>
<g id="a_node9"><a xlink:title=" ">
<polygon fill="none" stroke="#bfbfbf" points="576.77,-196 576.77,-215 641.77,-215 641.77,-196 576.77,-196"/>
<text text-anchor="middle" x="609.27" y="-203" font-family="Helvetica,sans-Serif" font-size="10.00">exception</text>
</a>
</g>
</g>
<!-- Node8&#45;&gt;Node9 -->
<g id="edge9" class="edge">
<title>Node8&#45;&gt;Node9</title>
<path fill="none" stroke="midnightblue" d="M561.51,-257.4C571.11,-247.16 584.12,-233.3 594.14,-222.62"/>
<polygon fill="midnightblue" stroke="midnightblue" points="596.82,-224.88 601.11,-215.19 591.72,-220.09 596.82,-224.88"/>
</g>
<!-- Node10 -->
<g id="node10" class="node">
<title>Node10</title>
<g id="a_node10"><a xlink:title=" ">
<polygon fill="none" stroke="#bfbfbf" points="660.27,-196 660.27,-215 704.27,-215 704.27,-196 660.27,-196"/>
<text text-anchor="middle" x="682.27" y="-203" font-family="Helvetica,sans-Serif" font-size="10.00">string</text>
</a>
</g>
</g>
<!-- Node8&#45;&gt;Node10 -->
<g id="edge10" class="edge">
<title>Node8&#45;&gt;Node10</title>
<path fill="none" stroke="midnightblue" d="M577.35,-257.4C600.65,-246.09 633.08,-230.36 655.7,-219.39"/>
<polygon fill="midnightblue" stroke="midnightblue" points="657.26,-222.52 664.73,-215.01 654.21,-216.22 657.26,-222.52"/>
</g>
<!-- Node11 -->
<g id="node11" class="node">
<title>Node11</title>
<g id="a_node11"><a xlink:title=" ">
<polygon fill="none" stroke="#bfbfbf" points="722.77,-196 722.77,-215 773.77,-215 773.77,-196 722.77,-196"/>
<text text-anchor="middle" x="748.27" y="-203" font-family="Helvetica,sans-Serif" font-size="10.00">variant</text>
</a>
</g>
</g>
<!-- Node8&#45;&gt;Node11 -->
<g id="edge12" class="edge">
<title>Node8&#45;&gt;Node11</title>
<path fill="none" stroke="midnightblue" d="M598.5,-257.48C631.41,-247.97 675.21,-234.67 713.27,-221 715.13,-220.33 717.03,-219.62 718.94,-218.89"/>
<polygon fill="midnightblue" stroke="midnightblue" points="720.42,-222.07 728.41,-215.11 717.83,-215.57 720.42,-222.07"/>
</g>
<!-- Node12 -->
<g id="node12" class="node">
<title>Node12</title>
<g id="a_node12"><a xlink:href="_entity_8h.html" target="_top" xlink:title=" ">
<polygon fill="none" stroke="black" points="410.27,-56.5 410.27,-86.5 520.27,-86.5 520.27,-56.5 410.27,-56.5"/>
<text text-anchor="start" x="418.27" y="-74.5" font-family="Helvetica,sans-Serif" font-size="10.00">../../tank&#45;lib/include</text>
<text text-anchor="middle" x="465.27" y="-63.5" font-family="Helvetica,sans-Serif" font-size="10.00">/Entity.h</text>
</a>
</g>
</g>
<!-- Node8&#45;&gt;Node12 -->
<g id="edge13" class="edge">
<title>Node8&#45;&gt;Node12</title>
<path fill="none" stroke="midnightblue" d="M542.3,-257.19C528.15,-223.27 492.47,-137.72 475.09,-96.04"/>
<polygon fill="midnightblue" stroke="midnightblue" points="478.27,-94.56 471.19,-86.68 471.81,-97.26 478.27,-94.56"/>
</g>
<!-- Node13 -->
<g id="node13" class="node">
<title>Node13</title>
<g id="a_node13"><a xlink:href="_tank_8h.html" target="_top" xlink:title=" ">
<polygon fill="none" stroke="black" points="361.27,-190.5 361.27,-220.5 471.27,-220.5 471.27,-190.5 361.27,-190.5"/>
<text text-anchor="start" x="369.27" y="-208.5" font-family="Helvetica,sans-Serif" font-size="10.00">../../tank&#45;lib/include</text>
<text text-anchor="middle" x="416.27" y="-197.5" font-family="Helvetica,sans-Serif" font-size="10.00">/Tank.h</text>
</a>
</g>
</g>
<!-- Node8&#45;&gt;Node13 -->
<g id="edge14" class="edge">
<title>Node8&#45;&gt;Node13</title>
<path fill="none" stroke="midnightblue" d="M519.63,-257.4C500.43,-247.94 474.94,-235.39 454.08,-225.12"/>
<polygon fill="midnightblue" stroke="midnightblue" points="455.38,-221.85 444.86,-220.58 452.28,-228.13 455.38,-221.85"/>
</g>
<!-- Node13&#45;&gt;Node4 -->
<g id="edge15" class="edge">
<title>Node13&#45;&gt;Node4</title>
<path fill="none" stroke="midnightblue" d="M361.23,-190.44C317.89,-178.81 263.73,-162.82 257.27,-154 249.14,-142.88 255.59,-136.67 257.27,-123 258.41,-113.74 272.71,-58.69 280.42,-29.37"/>
<polygon fill="midnightblue" stroke="midnightblue" points="283.84,-30.1 283.01,-19.54 277.08,-28.32 283.84,-30.1"/>
</g>
<!-- Node13&#45;&gt;Node6 -->
<g id="edge17" class="edge">
<title>Node13&#45;&gt;Node6</title>
<path fill="none" stroke="midnightblue" d="M361.18,-192.9C308.05,-181.26 234.25,-163.7 224.27,-154 208.95,-139.12 203.29,-115.01 201.25,-96.86"/>
<polygon fill="midnightblue" stroke="midnightblue" points="204.73,-96.4 200.41,-86.73 197.75,-96.98 204.73,-96.4"/>
</g>
<!-- Node13&#45;&gt;Node12 -->
<g id="edge18" class="edge">
<title>Node13&#45;&gt;Node12</title>
<path fill="none" stroke="midnightblue" d="M429.71,-190.2C437.87,-180.68 447.74,-167.47 453.27,-154 460.8,-135.66 463.69,-113.28 464.76,-96.62"/>
<polygon fill="midnightblue" stroke="midnightblue" points="468.26,-96.75 465.23,-86.59 461.27,-96.42 468.26,-96.75"/>
</g>
<!-- Node14 -->
<g id="node14" class="node">
<title>Node14</title>
<g id="a_node14"><a xlink:title=" ">
<polygon fill="none" stroke="#bfbfbf" points="388.27,-129 388.27,-148 444.27,-148 444.27,-129 388.27,-129"/>
<text text-anchor="middle" x="416.27" y="-136" font-family="Helvetica,sans-Serif" font-size="10.00">optional</text>
</a>
</g>
</g>
<!-- Node13&#45;&gt;Node14 -->
<g id="edge16" class="edge">
<title>Node13&#45;&gt;Node14</title>
<path fill="none" stroke="midnightblue" d="M416.27,-190.4C416.27,-181.06 416.27,-168.71 416.27,-158.52"/>
<polygon fill="midnightblue" stroke="midnightblue" points="419.77,-158.19 416.27,-148.19 412.77,-158.19 419.77,-158.19"/>
</g>
<!-- Node15 -->
<g id="node15" class="node">
<title>Node15</title>
<g id="a_node15"><a xlink:href="_bot_8h.html" target="_top" xlink:title=" ">
<polygon fill="none" stroke="black" points="266.27,-123.5 266.27,-153.5 370.27,-153.5 370.27,-123.5 266.27,-123.5"/>
<text text-anchor="start" x="274.27" y="-141.5" font-family="Helvetica,sans-Serif" font-size="10.00">../../bot&#45;lib/include</text>
<text text-anchor="middle" x="318.27" y="-130.5" font-family="Helvetica,sans-Serif" font-size="10.00">/Bot.h</text>
</a>
</g>
</g>
<!-- Node13&#45;&gt;Node15 -->
<g id="edge19" class="edge">
<title>Node13&#45;&gt;Node15</title>
<path fill="none" stroke="midnightblue" d="M395.01,-190.4C381.27,-181.28 363.19,-169.29 348.03,-159.24"/>
<polygon fill="midnightblue" stroke="midnightblue" points="349.76,-156.19 339.49,-153.58 345.89,-162.02 349.76,-156.19"/>
</g>
<!-- Node15&#45;&gt;Node6 -->
<g id="edge21" class="edge">
<title>Node15&#45;&gt;Node6</title>
<path fill="none" stroke="midnightblue" d="M292.67,-123.4C275.74,-114.07 253.33,-101.73 234.83,-91.53"/>
<polygon fill="midnightblue" stroke="midnightblue" points="236.27,-88.34 225.83,-86.58 232.9,-94.47 236.27,-88.34"/>
</g>
<!-- Node15&#45;&gt;Node12 -->
<g id="edge20" class="edge">
<title>Node15&#45;&gt;Node12</title>
<path fill="none" stroke="midnightblue" d="M350.17,-123.4C371.84,-113.81 400.71,-101.05 424.11,-90.7"/>
<polygon fill="midnightblue" stroke="midnightblue" points="425.71,-93.82 433.44,-86.58 422.88,-87.42 425.71,-93.82"/>
</g>
<!-- Node16&#45;&gt;Node4 -->
<g id="edge24" class="edge">
<title>Node16&#45;&gt;Node4</title>
<path fill="none" stroke="midnightblue" d="M828.7,-257.47C843.16,-240.6 862.32,-211.82 848.27,-190 770.29,-68.94 691,-98.06 553.27,-56 473.96,-31.78 377.21,-19.6 324.36,-14.35"/>
<polygon fill="midnightblue" stroke="midnightblue" points="324.68,-10.87 314.4,-13.39 324.01,-17.83 324.68,-10.87"/>
</g>
<!-- Node17 -->
<g id="node17" class="node">
<title>Node17</title>
<g id="a_node17"><a xlink:title=" ">
<polygon fill="none" stroke="#bfbfbf" points="791.77,-196 791.77,-215 838.77,-215 838.77,-196 791.77,-196"/>
<text text-anchor="middle" x="815.27" y="-203" font-family="Helvetica,sans-Serif" font-size="10.00">queue</text>
</a>
</g>
</g>
<!-- Node16&#45;&gt;Node17 -->
<g id="edge23" class="edge">
<title>Node16&#45;&gt;Node17</title>
<path fill="none" stroke="midnightblue" d="M815.27,-257.4C815.27,-248.06 815.27,-235.71 815.27,-225.52"/>
<polygon fill="midnightblue" stroke="midnightblue" points="818.77,-225.19 815.27,-215.19 811.77,-225.19 818.77,-225.19"/>
</g>
</g>
</svg>
        <g id="navigator" transform="translate(0 0)" fill="#404254">
                <rect fill="#f2f5e9" fill-opacity="0.5" stroke="#606060" stroke-width=".5" x="0" y="0" width="60" height="60"/>
                <use id="zoomplus" xlink:href="#zoomPlus" target="_top" x="17" y="9" onmousedown="handleZoom(evt,'in')"/>
                <use id="zoomminus" xlink:href="#zoomMin" target="_top" x="42" y="9" onmousedown="handleZoom(evt,'out')"/>
                <use id="reset" xlink:href="#resetDef" target="_top" x="30" y="36" onmousedown="handleReset()"/>
                <g id="arrowUp" xlink:href="#dirArrow" target="_top" transform="translate(30 24)" onmousedown="handlePan(0,-1)">
                  <use xlink:href="#rim" target="_top" fill="#404040">
                        <set attributeName="fill" to="#808080" begin="arrowUp.mouseover" end="arrowUp.mouseout"/>
                  </use>
                  <path fill="none" stroke="white" stroke-width="1.5" d="M0,-3.0v7 M-2.5,-0.5L0,-3.0L2.5,-0.5"/>
                </g>
                <g id="arrowRight" xlink:href="#dirArrow" transform="rotate(90) translate(36 -43)" onmousedown="handlePan(1,0)">
                  <use xlink:href="#rim" fill="#404040">
                        <set attributeName="fill" to="#808080" begin="arrowRight.mouseover" end="arrowRight.mouseout"/>
                  </use>
                  <path fill="none" stroke="white" stroke-width="1.5" d="M0,-3.0v7 M-2.5,-0.5L0,-3.0L2.5,-0.5"/>
                </g>
                <g id="arrowDown" xlink:href="#dirArrow" transform="rotate(180) translate(-30 -48)" onmousedown="handlePan(0,1)">
                  <use xlink:href="#rim" fill="#404040">
                        <set attributeName="fill" to="#808080" begin="arrowDown.mouseover" end="arrowDown.mouseout"/>
                  </use>
                  <path fill="none" stroke="white" stroke-width="1.5" d="M0,-3.0v7 M-2.5,-0.5L0,-3.0L2.5,-0.5"/>
                </g>
                <g id="arrowLeft" xlink:href="#dirArrow" transform="rotate(270) translate(-36 17)" onmousedown="handlePan(-1,0)">
                  <use xlink:href="#rim" fill="#404040">
                        <set attributeName="fill" to="#808080" begin="arrowLeft.mouseover" end="arrowLeft.mouseout"/>
                  </use>
                  <path fill="none" stroke="white" stroke-width="1.5" d="M0,-3.0v7 M-2.5,-0.5L0,-3.0L2.5,-0.5"/>
                </g>
        </g>
        <svg viewBox="0 0 15 15" width="100%" height="30px" preserveAspectRatio="xMaxYMin meet">
         <g id="arrow_out" transform="scale(0.3 0.3)">
          <a xlink:href="_keyboard_controller_8cpp__incl_org.svg" target="_top" target="_base">
           <rect id="button" ry="5" rx="5" y="6" x="6" height="38" width="38"
                fill="#f2f5e9" fill-opacity="0.5" stroke="#606060" stroke-width="1.0"/>
           <path id="arrow"
             d="M 11.500037,31.436501 C 11.940474,20.09759 22.043105,11.32322 32.158766,21.979434 L 37.068811,17.246167 C 37.068811,17.246167 37.088388,32 37.088388,32 L 22.160133,31.978069 C 22.160133,31.978069 26.997745,27.140456 26.997745,27.140456 C 18.528582,18.264221 13.291696,25.230495 11.500037,31.436501 z"
             style="fill:#404040;"/>
          </a>
         </g>
        </svg>
</svg>
