<?xml version="1.0" encoding="UTF-8" standalone="no"?>
<!DOCTYPE svg PUBLIC "-//W3C//DTD SVG 1.1//EN"
 "http://www.w3.org/Graphics/SVG/1.1/DTD/svg11.dtd">
<!-- Generated by graphviz version 2.43.0 (0)
 -->
<!-- Title: /home/tomek/CLionProjects/proi/proi&#45;projekt/src/game&#45;lib/include/KeyboardController.h Pages: 1 -->
<svg width="394pt" height="206pt"
 viewBox="0.00 0.00 394.00 206.00" xmlns="http://www.w3.org/2000/svg" xmlns:xlink="http://www.w3.org/1999/xlink">
<g id="graph0" class="graph" transform="scale(1 1) rotate(0) translate(4 202)">
<title>/home/tomek/CLionProjects/proi/proi&#45;projekt/src/game&#45;lib/include/KeyboardController.h</title>
<!-- Node1 -->
<g id="node1" class="node">
<title>Node1</title>
<g id="a_node1"><a xlink:title=" ">
<polygon fill="#bfbfbf" stroke="black" points="24.5,-156.5 24.5,-197.5 230.5,-197.5 230.5,-156.5 24.5,-156.5"/>
<text text-anchor="start" x="32.5" y_="-185.5" font-family="Helvetica,sans-Serif" font-size="10.00">/home/tomek/CLionProjects</text>
<text text-anchor="start" x="32.5" y_="-174.5" font-family="Helvetica,sans-Serif" font-size="10.00">/proi/proi&#45;projekt/src</text>
<text text-anchor="middle" x="127.5" y_="-163.5" font-family="Helvetica,sans-Serif" font-size="10.00">/game&#45;lib/include/KeyboardController.h</text>
</a>
</g>
</g>
<!-- Node2 -->
<g id="node2" class="node">
<title>Node2</title>
<g id="a_node2"><a xlink:href="_game_8cpp.html" target="_top" xlink:title=" ">
<polygon fill="none" stroke="black" points="0,-0.5 0,-41.5 151,-41.5 151,-0.5 0,-0.5"/>
<text text-anchor="start" x="8" y_="-29.5" font-family="Helvetica,sans-Serif" font-size="10.00">/home/tomek/CLionProjects</text>
<text text-anchor="start" x="8" y_="-18.5" font-family="Helvetica,sans-Serif" font-size="10.00">/proi/proi&#45;projekt/src</text>
<text text-anchor="middle" x="75.5" y_="-7.5" font-family="Helvetica,sans-Serif" font-size="10.00">/game&#45;lib/Game.cpp</text>
</a>
</g>
</g>
<!-- Node1&#45;&gt;Node2 -->
<g id="edge1" class="edge">
<title>Node1&#45;&gt;Node2</title>
<path fill="none" stroke="midnightblue" d="M60.9,-151.22C47.97,-143.27 36.1,-133.03 28.5,-120 19.1,-103.88 22.11,-95.54 28.5,-78 33.54,-64.16 43.66,-51.37 53.22,-41.51"/>
<polygon fill="midnightblue" stroke="midnightblue" points="59.55,-154.48 69.98,-156.37 63,-148.39 59.55,-154.48"/>
</g>
<!-- Node3 -->
<g id="node3" class="node">
<title>Node3</title>
<g id="a_node3"><a xlink:href="_keyboard_controller_8cpp.html" target="_top" xlink:title=" ">
<polygon fill="none" stroke="black" points="38,-78.5 38,-119.5 217,-119.5 217,-78.5 38,-78.5"/>
<text text-anchor="start" x="46" y_="-107.5" font-family="Helvetica,sans-Serif" font-size="10.00">/home/tomek/CLionProjects</text>
<text text-anchor="start" x="46" y_="-96.5" font-family="Helvetica,sans-Serif" font-size="10.00">/proi/proi&#45;projekt/src</text>
<text text-anchor="middle" x="127.5" y_="-85.5" font-family="Helvetica,sans-Serif" font-size="10.00">/game&#45;lib/KeyboardController.cpp</text>
</a>
</g>
</g>
<!-- Node1&#45;&gt;Node3 -->
<g id="edge2" class="edge">
<title>Node1&#45;&gt;Node3</title>
<path fill="none" stroke="midnightblue" d="M127.5,-146.3C127.5,-137.3 127.5,-127.65 127.5,-119.51"/>
<polygon fill="midnightblue" stroke="midnightblue" points="124,-146.43 127.5,-156.43 131,-146.43 124,-146.43"/>
</g>
<!-- Node4 -->
<g id="node4" class="node">
<title>Node4</title>
<g id="a_node4"><a xlink:href="_game_8h.html" target="_top" xlink:title=" ">
<polygon fill="none" stroke="black" points="235,-78.5 235,-119.5 386,-119.5 386,-78.5 235,-78.5"/>
<text text-anchor="start" x="243" y_="-107.5" font-family="Helvetica,sans-Serif" font-size="10.00">/home/tomek/CLionProjects</text>
<text text-anchor="start" x="243" y_="-96.5" font-family="Helvetica,sans-Serif" font-size="10.00">/proi/proi&#45;projekt/src</text>
<text text-anchor="middle" x="310.5" y_="-85.5" font-family="Helvetica,sans-Serif" font-size="10.00">/game&#45;lib/include/Game.h</text>
</a>
</g>
</g>
<!-- Node1&#45;&gt;Node4 -->
<g id="edge3" class="edge">
<title>Node1&#45;&gt;Node4</title>
<path fill="none" stroke="midnightblue" d="M184.16,-152.47C209.63,-141.89 239.33,-129.56 263.53,-119.51"/>
<polygon fill="midnightblue" stroke="midnightblue" points="182.52,-149.36 174.63,-156.43 185.2,-155.82 182.52,-149.36"/>
</g>
<!-- Node4&#45;&gt;Node2 -->
<g id="edge4" class="edge">
<title>Node4&#45;&gt;Node2</title>
<path fill="none" stroke="midnightblue" d="M240.32,-75.3C207.06,-64.55 167.72,-51.82 135.81,-41.51"/>
<polygon fill="midnightblue" stroke="midnightblue" points="239.39,-78.68 249.98,-78.43 241.54,-72.02 239.39,-78.68"/>
</g>
<!-- Node5 -->
<g id="node5" class="node">
<title>Node5</title>
<g id="a_node5"><a xlink:href="tanks_8cpp.html" target="_top" xlink:title=" ">
<polygon fill="none" stroke="black" points="235,-0.5 235,-41.5 386,-41.5 386,-0.5 235,-0.5"/>
<text text-anchor="start" x="243" y_="-29.5" font-family="Helvetica,sans-Serif" font-size="10.00">/home/tomek/CLionProjects</text>
<text text-anchor="start" x="243" y_="-18.5" font-family="Helvetica,sans-Serif" font-size="10.00">/proi/proi&#45;projekt/src</text>
<text text-anchor="middle" x="310.5" y_="-7.5" font-family="Helvetica,sans-Serif" font-size="10.00">/main/tanks.cpp</text>
</a>
</g>
</g>
<!-- Node4&#45;&gt;Node5 -->
<g id="edge5" class="edge">
<title>Node4&#45;&gt;Node5</title>
<path fill="none" stroke="midnightblue" d="M310.5,-68.3C310.5,-59.3 310.5,-49.65 310.5,-41.51"/>
<polygon fill="midnightblue" stroke="midnightblue" points="307,-68.43 310.5,-78.43 314,-68.43 307,-68.43"/>
</g>
</g>
</svg>
