<?xml version="1.0" encoding="UTF-8" standalone="no"?>
<!DOCTYPE svg PUBLIC "-//W3C//DTD SVG 1.1//EN"
 "http://www.w3.org/Graphics/SVG/1.1/DTD/svg11.dtd">
<!-- Generated by graphviz version 2.43.0 (0)
 -->
<!-- Title: /home/tomek/CLionProjects/proi/proi&#45;projekt/src/game&#45;lib/MenuEventHandler.cpp Pages: 1 -->
<!--zoomable 542 -->
<svg id="main" version="1.1" xmlns="http://www.w3.org/2000/svg" xmlns:xlink="http://www.w3.org/1999/xlink" xml:space="preserve" onload="init(evt)">
<style type="text/css"><![CDATA[
.edge:hover path { stroke: red; }
.edge:hover polygon { stroke: red; fill: red; }
]]></style>
<script type="text/javascript"><![CDATA[
var edges = document.getElementsByTagName('g');
if (edges && edges.length) {
  for (var i=0;i<edges.length;i++) {
    if (edges[i].id.substr(0,4)=='edge') {
      edges[i].setAttribute('class','edge');
    }
  }
}
]]></script>
        <defs>
                <circle id="rim" cx="0" cy="0" r="7"/>
                <circle id="rim2" cx="0" cy="0" r="3.5"/>
                <g id="zoomPlus">
                        <use xlink:href="#rim" fill="#404040">
                                <set attributeName="fill" to="#808080" begin="zoomplus.mouseover" end="zoomplus.mouseout"/>
                        </use>
                        <path d="M-4,0h8M0,-4v8" fill="none" stroke="white" stroke-width="1.5" pointer-events="none"/>
                </g>
                <g id="zoomMin">
                        <use xlink:href="#rim" fill="#404040">
                                <set attributeName="fill" to="#808080" begin="zoomminus.mouseover" end="zoomminus.mouseout"/>
                        </use>
                        <path d="M-4,0h8" fill="none" stroke="white" stroke-width="1.5" pointer-events="none"/>
                </g>
                <g id="dirArrow">
                        <path fill="none" stroke="white" stroke-width="1.5" d="M0,-3.0v7 M-2.5,-0.5L0,-3.0L2.5,-0.5"/>
                </g>
               <g id="resetDef">
                       <use xlink:href="#rim2" fill="#404040">
                               <set attributeName="fill" to="#808080" begin="reset.mouseover" end="reset.mouseout"/>
                       </use>
               </g>
        </defs>

<script type="text/javascript">
var viewWidth = 1504;
var viewHeight = 542;
var sectionId = 'dynsection-0';
</script>
<script xlink:href="svgpan.js"/>
<svg id="graph" class="graph">
<g id="viewport">
<title>/home/tomek/CLionProjects/proi/proi&#45;projekt/src/game&#45;lib/MenuEventHandler.cpp</title>
<!-- Node1 -->
<g id="node1" class="node">
<title>Node1</title>
<g id="a_node1"><a xlink:title=" ">
<polygon fill="#bfbfbf" stroke="black" points="853.56,-492.5 853.56,-533.5 1032.56,-533.5 1032.56,-492.5 853.56,-492.5"/>
<text text-anchor="start" x="861.56" y="-521.5" font-family="Helvetica,sans-Serif" font-size="10.00">/home/tomek/CLionProjects</text>
<text text-anchor="start" x="861.56" y="-510.5" font-family="Helvetica,sans-Serif" font-size="10.00">/proi/proi&#45;projekt/src</text>
<text text-anchor="middle" x="943.06" y="-499.5" font-family="Helvetica,sans-Serif" font-size="10.00">/game&#45;lib/MenuEventHandler.cpp</text>
</a>
</g>
</g>
<!-- Node2 -->
<g id="node2" class="node">
<title>Node2</title>
<g id="a_node2"><a xlink:title=" ">
<polygon fill="none" stroke="#bfbfbf" points="1384.56,-324.5 1384.56,-343.5 1429.56,-343.5 1429.56,-324.5 1384.56,-324.5"/>
<text text-anchor="middle" x="1407.06" y="-331.5" font-family="Helvetica,sans-Serif" font-size="10.00">utility</text>
</a>
</g>
</g>
<!-- Node1&#45;&gt;Node2 -->
<g id="edge1" class="edge">
<title>Node1&#45;&gt;Node2</title>
<path fill="none" stroke="midnightblue" d="M1032.75,-500.26C1147.92,-483.41 1338.93,-448.94 1389.06,-400 1401.35,-388 1405.47,-368.39 1406.74,-353.85"/>
<polygon fill="midnightblue" stroke="midnightblue" points="1410.25,-353.67 1407.25,-343.51 1403.26,-353.32 1410.25,-353.67"/>
</g>
<!-- Node3 -->
<g id="node3" class="node">
<title>Node3</title>
<g id="a_node3"><a xlink:title=" ">
<polygon fill="none" stroke="#bfbfbf" points="1436.06,-436.5 1436.06,-455.5 1496.06,-455.5 1496.06,-436.5 1436.06,-436.5"/>
<text text-anchor="middle" x="1466.06" y="-443.5" font-family="Helvetica,sans-Serif" font-size="10.00">iostream</text>
</a>
</g>
</g>
<!-- Node1&#45;&gt;Node3 -->
<g id="edge2" class="edge">
<title>Node1&#45;&gt;Node3</title>
<path fill="none" stroke="midnightblue" d="M1032.98,-503.8C1129.48,-494.46 1287.1,-477.65 1422.06,-456 1423.31,-455.8 1424.59,-455.59 1425.87,-455.37"/>
<polygon fill="midnightblue" stroke="midnightblue" points="1426.62,-458.79 1435.82,-453.54 1425.35,-451.9 1426.62,-458.79"/>
</g>
<!-- Node4 -->
<g id="node4" class="node">
<title>Node4</title>
<g id="a_node4"><a xlink:href="_menu_event_handler_8h.html" target="_top" xlink:title=" ">
<polygon fill="none" stroke="black" points="516.06,-436.5 516.06,-455.5 672.06,-455.5 672.06,-436.5 516.06,-436.5"/>
<text text-anchor="middle" x="594.06" y="-443.5" font-family="Helvetica,sans-Serif" font-size="10.00">include/MenuEventHandler.h</text>
</a>
</g>
</g>
<!-- Node1&#45;&gt;Node4 -->
<g id="edge3" class="edge">
<title>Node1&#45;&gt;Node4</title>
<path fill="none" stroke="midnightblue" d="M853.18,-495.26C788.91,-483.29 704.45,-467.56 649.71,-457.36"/>
<polygon fill="midnightblue" stroke="midnightblue" points="650.32,-453.92 639.84,-455.53 649.03,-460.8 650.32,-453.92"/>
</g>
<!-- Node6 -->
<g id="node6" class="node">
<title>Node6</title>
<g id="a_node6"><a xlink:href="_event_handler_8h.html" target="_top" xlink:title=" ">
<polygon fill="none" stroke="black" points="173.06,-257.5 173.06,-287.5 283.06,-287.5 283.06,-257.5 173.06,-257.5"/>
<text text-anchor="start" x="181.06" y="-275.5" font-family="Helvetica,sans-Serif" font-size="10.00">../../core&#45;lib/include</text>
<text text-anchor="middle" x="228.06" y="-264.5" font-family="Helvetica,sans-Serif" font-size="10.00">/EventHandler.h</text>
</a>
</g>
</g>
<!-- Node1&#45;&gt;Node6 -->
<g id="edge72" class="edge">
<title>Node1&#45;&gt;Node6</title>
<path fill="none" stroke="midnightblue" d="M853.33,-512.16C723.59,-509.03 479.02,-490.3 295.06,-400 258.35,-381.98 240.14,-380.67 222.06,-344 215,-329.69 216.65,-311.75 219.98,-297.55"/>
<polygon fill="midnightblue" stroke="midnightblue" points="223.46,-298.11 222.75,-287.54 216.71,-296.25 223.46,-298.11"/>
</g>
<!-- Node23 -->
<g id="node23" class="node">
<title>Node23</title>
<g id="a_node23"><a xlink:href="_game_8h.html" target="_top" xlink:title=" ">
<polygon fill="none" stroke="black" points="896.56,-436.5 896.56,-455.5 989.56,-455.5 989.56,-436.5 896.56,-436.5"/>
<text text-anchor="middle" x="943.06" y="-443.5" font-family="Helvetica,sans-Serif" font-size="10.00">include/Game.h</text>
</a>
</g>
</g>
<!-- Node1&#45;&gt;Node23 -->
<g id="edge41" class="edge">
<title>Node1&#45;&gt;Node23</title>
<path fill="none" stroke="midnightblue" d="M943.06,-492.5C943.06,-484.07 943.06,-474.24 943.06,-465.87"/>
<polygon fill="midnightblue" stroke="midnightblue" points="946.56,-465.65 943.06,-455.65 939.56,-465.65 946.56,-465.65"/>
</g>
<!-- Node5 -->
<g id="node5" class="node">
<title>Node5</title>
<g id="a_node5"><a xlink:title=" ">
<polygon fill="none" stroke="#bfbfbf" points="615.06,-0.5 615.06,-19.5 673.06,-19.5 673.06,-0.5 615.06,-0.5"/>
<text text-anchor="middle" x="644.06" y="-7.5" font-family="Helvetica,sans-Serif" font-size="10.00">memory</text>
</a>
</g>
</g>
<!-- Node4&#45;&gt;Node5 -->
<g id="edge4" class="edge">
<title>Node4&#45;&gt;Node5</title>
<path fill="none" stroke="midnightblue" d="M515.79,-438.89C354.49,-424.13 0.06,-379.63 0.06,-273.5 0.06,-273.5 0.06,-273.5 0.06,-137.5 0.06,-98.9 -0.83,-79.15 30.06,-56 76.93,-20.86 497.69,-24.98 556.06,-20 571.97,-18.64 589.48,-16.9 604.66,-15.31"/>
<polygon fill="midnightblue" stroke="midnightblue" points="605.17,-18.78 614.75,-14.25 604.43,-11.82 605.17,-18.78"/>
</g>
<!-- Node4&#45;&gt;Node6 -->
<g id="edge5" class="edge">
<title>Node4&#45;&gt;Node6</title>
<path fill="none" stroke="midnightblue" d="M535.27,-436.45C444.01,-421.91 274.69,-389.46 236.06,-344 225.4,-331.46 223.69,-312.81 224.48,-297.85"/>
<polygon fill="midnightblue" stroke="midnightblue" points="227.98,-298.02 225.42,-287.74 221.01,-297.37 227.98,-298.02"/>
</g>
<!-- Node16 -->
<g id="node16" class="node">
<title>Node16</title>
<g id="a_node16"><a xlink:href="_game_state_8h.html" target="_top" xlink:title=" ">
<polygon fill="none" stroke="black" points="554.06,-380.5 554.06,-399.5 634.06,-399.5 634.06,-380.5 554.06,-380.5"/>
<text text-anchor="middle" x="594.06" y="-387.5" font-family="Helvetica,sans-Serif" font-size="10.00">GameState.h</text>
</a>
</g>
</g>
<!-- Node4&#45;&gt;Node16 -->
<g id="edge21" class="edge">
<title>Node4&#45;&gt;Node16</title>
<path fill="none" stroke="midnightblue" d="M588.89,-436.08C587.38,-428.93 586.95,-418.64 587.6,-409.69"/>
<polygon fill="midnightblue" stroke="midnightblue" points="591.07,-410.13 588.92,-399.75 584.13,-409.2 591.07,-410.13"/>
</g>
<!-- Node6&#45;&gt;Node5 -->
<g id="edge6" class="edge">
<title>Node6&#45;&gt;Node5</title>
<path fill="none" stroke="midnightblue" d="M231.83,-257.41C244.21,-211.66 283.73,-69.45 300.06,-56 311.74,-46.37 517.3,-24.11 604.96,-15"/>
<polygon fill="midnightblue" stroke="midnightblue" points="605.46,-18.46 615.05,-13.95 604.74,-11.5 605.46,-18.46"/>
</g>
<!-- Node7 -->
<g id="node7" class="node">
<title>Node7</title>
<g id="a_node7"><a xlink:href="_event_8h.html" target="_top" xlink:title=" ">
<polygon fill="none" stroke="black" points="194.56,-62 194.56,-81 247.56,-81 247.56,-62 194.56,-62"/>
<text text-anchor="middle" x="221.06" y="-69" font-family="Helvetica,sans-Serif" font-size="10.00">Event.h</text>
</a>
</g>
</g>
<!-- Node6&#45;&gt;Node7 -->
<g id="edge7" class="edge">
<title>Node6&#45;&gt;Node7</title>
<path fill="none" stroke="midnightblue" d="M227.55,-257.19C226.31,-221.99 223.12,-131.17 221.72,-91.51"/>
<polygon fill="midnightblue" stroke="midnightblue" points="225.22,-91.23 221.37,-81.36 218.22,-91.48 225.22,-91.23"/>
</g>
<!-- Node11 -->
<g id="node11" class="node">
<title>Node11</title>
<g id="a_node11"><a xlink:href="_event_publisher_8h.html" target="_top" xlink:title=" ">
<polygon fill="none" stroke="black" points="69.06,-196 69.06,-215 167.06,-215 167.06,-196 69.06,-196"/>
<text text-anchor="middle" x="118.06" y="-203" font-family="Helvetica,sans-Serif" font-size="10.00">EventPublisher.h</text>
</a>
</g>
</g>
<!-- Node6&#45;&gt;Node11 -->
<g id="edge12" class="edge">
<title>Node6&#45;&gt;Node11</title>
<path fill="none" stroke="midnightblue" d="M204.19,-257.4C185.48,-246.34 159.62,-231.06 141.12,-220.13"/>
<polygon fill="midnightblue" stroke="midnightblue" points="142.84,-217.08 132.45,-215.01 139.28,-223.11 142.84,-217.08"/>
</g>
<!-- Node7&#45;&gt;Node5 -->
<g id="edge10" class="edge">
<title>Node7&#45;&gt;Node5</title>
<path fill="none" stroke="midnightblue" d="M242.49,-61.91C248.72,-59.69 255.58,-57.51 262.06,-56 294.9,-48.36 513.76,-24.76 604.62,-15.14"/>
<polygon fill="midnightblue" stroke="midnightblue" points="605.22,-18.6 614.79,-14.07 604.48,-11.64 605.22,-18.6"/>
</g>
<!-- Node8 -->
<g id="node8" class="node">
<title>Node8</title>
<g id="a_node8"><a xlink:title=" ">
<polygon fill="none" stroke="#bfbfbf" points="315.56,-0.5 315.56,-19.5 380.56,-19.5 380.56,-0.5 315.56,-0.5"/>
<text text-anchor="middle" x="348.06" y="-7.5" font-family="Helvetica,sans-Serif" font-size="10.00">exception</text>
</a>
</g>
</g>
<!-- Node7&#45;&gt;Node8 -->
<g id="edge8" class="edge">
<title>Node7&#45;&gt;Node8</title>
<path fill="none" stroke="midnightblue" d="M239.25,-61.98C260.56,-51.99 296.09,-35.35 320.72,-23.81"/>
<polygon fill="midnightblue" stroke="midnightblue" points="322.32,-26.92 329.89,-19.51 319.35,-20.58 322.32,-26.92"/>
</g>
<!-- Node9 -->
<g id="node9" class="node">
<title>Node9</title>
<g id="a_node9"><a xlink:title=" ">
<polygon fill="none" stroke="#bfbfbf" points="1011.06,-0.5 1011.06,-19.5 1055.06,-19.5 1055.06,-0.5 1011.06,-0.5"/>
<text text-anchor="middle" x="1033.06" y="-7.5" font-family="Helvetica,sans-Serif" font-size="10.00">string</text>
</a>
</g>
</g>
<!-- Node7&#45;&gt;Node9 -->
<g id="edge9" class="edge">
<title>Node7&#45;&gt;Node9</title>
<path fill="none" stroke="midnightblue" d="M247.61,-68.55C368.71,-59.68 868.36,-23.07 1000.74,-13.37"/>
<polygon fill="midnightblue" stroke="midnightblue" points="1001.3,-16.84 1011.02,-12.61 1000.79,-9.85 1001.3,-16.84"/>
</g>
<!-- Node10 -->
<g id="node10" class="node">
<title>Node10</title>
<g id="a_node10"><a xlink:title=" ">
<polygon fill="none" stroke="#bfbfbf" points="195.56,-0.5 195.56,-19.5 246.56,-19.5 246.56,-0.5 195.56,-0.5"/>
<text text-anchor="middle" x="221.06" y="-7.5" font-family="Helvetica,sans-Serif" font-size="10.00">variant</text>
</a>
</g>
</g>
<!-- Node7&#45;&gt;Node10 -->
<g id="edge11" class="edge">
<title>Node7&#45;&gt;Node10</title>
<path fill="none" stroke="midnightblue" d="M221.06,-61.98C221.06,-53.58 221.06,-40.48 221.06,-29.66"/>
<polygon fill="midnightblue" stroke="midnightblue" points="224.56,-29.51 221.06,-19.51 217.56,-29.51 224.56,-29.51"/>
</g>
<!-- Node11&#45;&gt;Node7 -->
<g id="edge15" class="edge">
<title>Node11&#45;&gt;Node7</title>
<path fill="none" stroke="midnightblue" d="M131.54,-195.75C144.88,-186.58 165.27,-171.14 179.06,-154 194.84,-134.38 207.15,-107.9 214.26,-90.52"/>
<polygon fill="midnightblue" stroke="midnightblue" points="217.59,-91.6 217.99,-81.01 211.08,-89.04 217.59,-91.6"/>
</g>
<!-- Node12 -->
<g id="node12" class="node">
<title>Node12</title>
<g id="a_node12"><a xlink:title=" ">
<polygon fill="none" stroke="#bfbfbf" points="39.06,-62 39.06,-81 77.06,-81 77.06,-62 39.06,-62"/>
<text text-anchor="middle" x="58.06" y="-69" font-family="Helvetica,sans-Serif" font-size="10.00">map</text>
</a>
</g>
</g>
<!-- Node11&#45;&gt;Node12 -->
<g id="edge13" class="edge">
<title>Node11&#45;&gt;Node12</title>
<path fill="none" stroke="midnightblue" d="M101.01,-195.96C86.31,-187.54 66.07,-173.16 57.06,-154 47.67,-134.04 50.08,-108.18 53.41,-90.99"/>
<polygon fill="midnightblue" stroke="midnightblue" points="56.85,-91.63 55.61,-81.11 50.02,-90.11 56.85,-91.63"/>
</g>
<!-- Node13 -->
<g id="node13" class="node">
<title>Node13</title>
<g id="a_node13"><a xlink:title=" ">
<polygon fill="none" stroke="#bfbfbf" points="499.56,-0.5 499.56,-19.5 546.56,-19.5 546.56,-0.5 499.56,-0.5"/>
<text text-anchor="middle" x="523.06" y="-7.5" font-family="Helvetica,sans-Serif" font-size="10.00">vector</text>
</a>
</g>
</g>
<!-- Node11&#45;&gt;Node13 -->
<g id="edge14" class="edge">
<title>Node11&#45;&gt;Node13</title>
<path fill="none" stroke="midnightblue" d="M99.49,-195.99C83.24,-187.59 60.22,-173.22 47.06,-154 22.08,-117.53 0.25,-88.65 30.06,-56 37.83,-47.49 379.02,-21.62 489.16,-13.48"/>
<polygon fill="midnightblue" stroke="midnightblue" points="489.66,-16.95 499.37,-12.73 489.14,-9.97 489.66,-16.95"/>
</g>
<!-- Node14 -->
<g id="node14" class="node">
<title>Node14</title>
<g id="a_node14"><a xlink:href="_event_subscriber_8h.html" target="_top" xlink:title=" ">
<polygon fill="none" stroke="black" points="66.06,-129 66.06,-148 170.06,-148 170.06,-129 66.06,-129"/>
<text text-anchor="middle" x="118.06" y="-136" font-family="Helvetica,sans-Serif" font-size="10.00">EventSubscriber.h</text>
</a>
</g>
</g>
<!-- Node11&#45;&gt;Node14 -->
<g id="edge16" class="edge">
<title>Node11&#45;&gt;Node14</title>
<path fill="none" stroke="midnightblue" d="M118.06,-195.73C118.06,-186.18 118.06,-170.62 118.06,-158.28"/>
<polygon fill="midnightblue" stroke="midnightblue" points="121.56,-158.13 118.06,-148.13 114.56,-158.13 121.56,-158.13"/>
</g>
<!-- Node14&#45;&gt;Node7 -->
<g id="edge20" class="edge">
<title>Node14&#45;&gt;Node7</title>
<path fill="none" stroke="midnightblue" d="M131.95,-128.73C149.09,-117.92 178.46,-99.38 198.77,-86.57"/>
<polygon fill="midnightblue" stroke="midnightblue" points="200.8,-89.42 207.38,-81.13 197.06,-83.5 200.8,-89.42"/>
</g>
<!-- Node14&#45;&gt;Node12 -->
<g id="edge17" class="edge">
<title>Node14&#45;&gt;Node12</title>
<path fill="none" stroke="midnightblue" d="M109.96,-128.73C100.52,-118.5 84.7,-101.36 73,-88.69"/>
<polygon fill="midnightblue" stroke="midnightblue" points="75.37,-86.1 66.02,-81.13 70.23,-90.85 75.37,-86.1"/>
</g>
<!-- Node14&#45;&gt;Node13 -->
<g id="edge18" class="edge">
<title>Node14&#45;&gt;Node13</title>
<path fill="none" stroke="midnightblue" d="M116.92,-128.8C115.27,-111.97 114.35,-74.91 135.06,-56 148.1,-44.08 397.26,-21.73 489.28,-13.84"/>
<polygon fill="midnightblue" stroke="midnightblue" points="489.78,-17.31 499.45,-12.98 489.19,-10.34 489.78,-17.31"/>
</g>
<!-- Node15 -->
<g id="node15" class="node">
<title>Node15</title>
<g id="a_node15"><a xlink:title=" ">
<polygon fill="none" stroke="#bfbfbf" points="144.06,-62 144.06,-81 176.06,-81 176.06,-62 144.06,-62"/>
<text text-anchor="middle" x="160.06" y="-69" font-family="Helvetica,sans-Serif" font-size="10.00">list</text>
</a>
</g>
</g>
<!-- Node14&#45;&gt;Node15 -->
<g id="edge19" class="edge">
<title>Node14&#45;&gt;Node15</title>
<path fill="none" stroke="midnightblue" d="M123.72,-128.73C130.14,-118.79 140.78,-102.34 148.88,-89.79"/>
<polygon fill="midnightblue" stroke="midnightblue" points="151.99,-91.43 154.48,-81.13 146.11,-87.63 151.99,-91.43"/>
</g>
<!-- Node16&#45;&gt;Node4 -->
<g id="edge33" class="edge">
<title>Node16&#45;&gt;Node4</title>
<path fill="none" stroke="midnightblue" d="M599.19,-399.75C600.71,-406.86 601.16,-417.14 600.53,-426.1"/>
<polygon fill="midnightblue" stroke="midnightblue" points="597.05,-425.71 599.22,-436.08 603.99,-426.62 597.05,-425.71"/>
</g>
<!-- Node16&#45;&gt;Node5 -->
<g id="edge22" class="edge">
<title>Node16&#45;&gt;Node5</title>
<path fill="none" stroke="midnightblue" d="M614.85,-380.42C630.35,-372.99 650.87,-360.78 663.06,-344 682.12,-317.74 682.06,-305.95 682.06,-273.5 682.06,-273.5 682.06,-273.5 682.06,-204.5 682.06,-170.16 658.72,-70.82 648.62,-29.43"/>
<polygon fill="midnightblue" stroke="midnightblue" points="651.99,-28.48 646.21,-19.61 645.2,-30.15 651.99,-28.48"/>
</g>
<!-- Node17 -->
<g id="node17" class="node">
<title>Node17</title>
<g id="a_node17"><a xlink:href="_active_event_handler_8h.html" target="_top" xlink:title=" ">
<polygon fill="none" stroke="black" points="394.06,-324.5 394.06,-343.5 516.06,-343.5 516.06,-324.5 394.06,-324.5"/>
<text text-anchor="middle" x="455.06" y="-331.5" font-family="Helvetica,sans-Serif" font-size="10.00">ActiveEventHandler.h</text>
</a>
</g>
</g>
<!-- Node16&#45;&gt;Node17 -->
<g id="edge23" class="edge">
<title>Node16&#45;&gt;Node17</title>
<path fill="none" stroke="midnightblue" d="M572.03,-380.44C548.95,-371.48 512.49,-357.31 486.41,-347.18"/>
<polygon fill="midnightblue" stroke="midnightblue" points="487.57,-343.88 476.98,-343.52 485.03,-350.4 487.57,-343.88"/>
</g>
<!-- Node21 -->
<g id="node21" class="node">
<title>Node21</title>
<g id="a_node21"><a xlink:href="_pause_event_handler_8h.html" target="_top" xlink:title=" ">
<polygon fill="none" stroke="black" points="534.56,-324.5 534.56,-343.5 653.56,-343.5 653.56,-324.5 534.56,-324.5"/>
<text text-anchor="middle" x="594.06" y="-331.5" font-family="Helvetica,sans-Serif" font-size="10.00">PauseEventHandler.h</text>
</a>
</g>
</g>
<!-- Node16&#45;&gt;Node21 -->
<g id="edge34" class="edge">
<title>Node16&#45;&gt;Node21</title>
<path fill="none" stroke="midnightblue" d="M588.89,-380.08C587.38,-372.93 586.95,-362.64 587.6,-353.69"/>
<polygon fill="midnightblue" stroke="midnightblue" points="591.07,-354.13 588.92,-343.75 584.13,-353.2 591.07,-354.13"/>
</g>
<!-- Node22 -->
<g id="node22" class="node">
<title>Node22</title>
<g id="a_node22"><a xlink:href="_finished_event_handler_8h.html" target="_top" xlink:title=" ">
<polygon fill="none" stroke="black" points="244.56,-324.5 244.56,-343.5 375.56,-343.5 375.56,-324.5 244.56,-324.5"/>
<text text-anchor="middle" x="310.06" y="-331.5" font-family="Helvetica,sans-Serif" font-size="10.00">FinishedEventHandler.h</text>
</a>
</g>
</g>
<!-- Node16&#45;&gt;Node22 -->
<g id="edge38" class="edge">
<title>Node16&#45;&gt;Node22</title>
<path fill="none" stroke="midnightblue" d="M553.97,-381.38C504.6,-371.99 420.48,-356 365.09,-345.46"/>
<polygon fill="midnightblue" stroke="midnightblue" points="365.57,-341.99 355.09,-343.56 364.26,-348.87 365.57,-341.99"/>
</g>
<!-- Node17&#45;&gt;Node5 -->
<g id="edge24" class="edge">
<title>Node17&#45;&gt;Node5</title>
<path fill="none" stroke="midnightblue" d="M454.26,-324.31C451.93,-298.89 445.28,-226.14 445.06,-221 444.44,-207.24 444.95,-203.78 445.06,-190 445.28,-160.22 430.86,-148.61 446.06,-123 480.69,-64.62 558.08,-34.14 605.19,-20.42"/>
<polygon fill="midnightblue" stroke="midnightblue" points="606.36,-23.73 615.05,-17.66 604.47,-16.99 606.36,-23.73"/>
</g>
<!-- Node17&#45;&gt;Node6 -->
<g id="edge25" class="edge">
<title>Node17&#45;&gt;Node6</title>
<path fill="none" stroke="midnightblue" d="M422.53,-324.48C388.41,-315.53 333.92,-301.25 291.29,-290.07"/>
<polygon fill="midnightblue" stroke="midnightblue" points="292.12,-286.67 281.55,-287.52 290.34,-293.44 292.12,-286.67"/>
</g>
<!-- Node18 -->
<g id="node18" class="node">
<title>Node18</title>
<g id="a_node18"><a xlink:href="_event_queue_8h.html" target="_top" xlink:title=" ">
<polygon fill="none" stroke="black" points="454.06,-190.5 454.06,-220.5 564.06,-220.5 564.06,-190.5 454.06,-190.5"/>
<text text-anchor="start" x="462.06" y="-208.5" font-family="Helvetica,sans-Serif" font-size="10.00">../../core&#45;lib/include</text>
<text text-anchor="middle" x="509.06" y="-197.5" font-family="Helvetica,sans-Serif" font-size="10.00">/EventQueue.h</text>
</a>
</g>
</g>
<!-- Node17&#45;&gt;Node18 -->
<g id="edge26" class="edge">
<title>Node17&#45;&gt;Node18</title>
<path fill="none" stroke="midnightblue" d="M460.76,-324.3C466.41,-315.43 475.07,-301.14 481.06,-288 489.6,-269.24 497.06,-247.06 502.13,-230.58"/>
<polygon fill="midnightblue" stroke="midnightblue" points="505.58,-231.25 505.1,-220.66 498.87,-229.24 505.58,-231.25"/>
</g>
<!-- Node20 -->
<g id="node20" class="node">
<title>Node20</title>
<g id="a_node20"><a xlink:href="_game_statistics_8h.html" target="_top" xlink:title=" ">
<polygon fill="none" stroke="black" points="339.06,-263 339.06,-282 439.06,-282 439.06,-263 339.06,-263"/>
<text text-anchor="middle" x="389.06" y="-270" font-family="Helvetica,sans-Serif" font-size="10.00">GameStatistics.h</text>
</a>
</g>
</g>
<!-- Node17&#45;&gt;Node20 -->
<g id="edge29" class="edge">
<title>Node17&#45;&gt;Node20</title>
<path fill="none" stroke="midnightblue" d="M445.6,-324.48C435.31,-315.2 418.64,-300.17 406.06,-288.83"/>
<polygon fill="midnightblue" stroke="midnightblue" points="408.26,-286.11 398.49,-282.01 403.58,-291.3 408.26,-286.11"/>
</g>
<!-- Node18&#45;&gt;Node5 -->
<g id="edge28" class="edge">
<title>Node18&#45;&gt;Node5</title>
<path fill="none" stroke="midnightblue" d="M514.93,-190.41C526.86,-162.8 555.87,-100.42 592.06,-56 601.24,-44.72 613.47,-33.98 623.76,-25.82"/>
<polygon fill="midnightblue" stroke="midnightblue" points="626.03,-28.49 631.83,-19.62 621.77,-22.94 626.03,-28.49"/>
</g>
<!-- Node19 -->
<g id="node19" class="node">
<title>Node19</title>
<g id="a_node19"><a xlink:title=" ">
<polygon fill="none" stroke="#bfbfbf" points="454.56,-129 454.56,-148 501.56,-148 501.56,-129 454.56,-129"/>
<text text-anchor="middle" x="478.06" y="-136" font-family="Helvetica,sans-Serif" font-size="10.00">queue</text>
</a>
</g>
</g>
<!-- Node18&#45;&gt;Node19 -->
<g id="edge27" class="edge">
<title>Node18&#45;&gt;Node19</title>
<path fill="none" stroke="midnightblue" d="M502.33,-190.4C497.73,-180.76 491.61,-167.91 486.66,-157.54"/>
<polygon fill="midnightblue" stroke="midnightblue" points="489.67,-155.71 482.2,-148.19 483.35,-158.73 489.67,-155.71"/>
</g>
<!-- Node20&#45;&gt;Node7 -->
<g id="edge32" class="edge">
<title>Node20&#45;&gt;Node7</title>
<path fill="none" stroke="midnightblue" d="M390.35,-262.91C393.57,-238.03 399.38,-165.03 364.06,-123 337.76,-91.72 290.79,-79.81 257.88,-75.27"/>
<polygon fill="midnightblue" stroke="midnightblue" points="258.08,-71.77 247.73,-74.05 257.24,-78.72 258.08,-71.77"/>
</g>
<!-- Node20&#45;&gt;Node15 -->
<g id="edge30" class="edge">
<title>Node20&#45;&gt;Node15</title>
<path fill="none" stroke="midnightblue" d="M379.22,-262.95C343.84,-232.2 222.78,-127.01 177.41,-87.58"/>
<polygon fill="midnightblue" stroke="midnightblue" points="179.7,-84.94 169.86,-81.02 175.11,-90.22 179.7,-84.94"/>
</g>
<!-- Node20&#45;&gt;Node18 -->
<g id="edge31" class="edge">
<title>Node20&#45;&gt;Node18</title>
<path fill="none" stroke="midnightblue" d="M405.24,-262.73C422.78,-253.23 451.31,-237.78 474.03,-225.47"/>
<polygon fill="midnightblue" stroke="midnightblue" points="475.92,-228.43 483.04,-220.59 472.58,-222.27 475.92,-228.43"/>
</g>
<!-- Node21&#45;&gt;Node5 -->
<g id="edge35" class="edge">
<title>Node21&#45;&gt;Node5</title>
<path fill="none" stroke="midnightblue" d="M602.47,-324.21C609.99,-315.71 620.51,-302.08 625.06,-288 656.75,-189.86 613.46,-157.79 630.06,-56 631.52,-47.02 634.36,-37.34 637.09,-29.27"/>
<polygon fill="midnightblue" stroke="midnightblue" points="640.42,-30.38 640.51,-19.79 633.83,-28.01 640.42,-30.38"/>
</g>
<!-- Node21&#45;&gt;Node6 -->
<g id="edge36" class="edge">
<title>Node21&#45;&gt;Node6</title>
<path fill="none" stroke="midnightblue" d="M541.62,-324.48C476.15,-313.83 364.17,-295.63 293.24,-284.1"/>
<polygon fill="midnightblue" stroke="midnightblue" points="293.52,-280.6 283.09,-282.45 292.4,-287.51 293.52,-280.6"/>
</g>
<!-- Node21&#45;&gt;Node16 -->
<g id="edge37" class="edge">
<title>Node21&#45;&gt;Node16</title>
<path fill="none" stroke="midnightblue" d="M599.19,-343.75C600.71,-350.86 601.16,-361.14 600.53,-370.1"/>
<polygon fill="midnightblue" stroke="midnightblue" points="597.05,-369.71 599.22,-380.08 603.99,-370.62 597.05,-369.71"/>
</g>
<!-- Node22&#45;&gt;Node5 -->
<g id="edge39" class="edge">
<title>Node22&#45;&gt;Node5</title>
<path fill="none" stroke="midnightblue" d="M311.33,-324.22C313.66,-309.71 319.37,-280.02 330.06,-257 375.99,-158.02 381.41,-118.22 471.06,-56 511.25,-28.1 567.56,-17.5 604.89,-13.47"/>
<polygon fill="midnightblue" stroke="midnightblue" points="605.27,-16.95 614.88,-12.5 604.59,-9.98 605.27,-16.95"/>
</g>
<!-- Node22&#45;&gt;Node6 -->
<g id="edge40" class="edge">
<title>Node22&#45;&gt;Node6</title>
<path fill="none" stroke="midnightblue" d="M298.31,-324.48C287.2,-316.42 270.12,-304.02 255.58,-293.47"/>
<polygon fill="midnightblue" stroke="midnightblue" points="257.53,-290.56 247.38,-287.52 253.42,-296.23 257.53,-290.56"/>
</g>
<!-- Node23&#45;&gt;Node5 -->
<g id="edge42" class="edge">
<title>Node23&#45;&gt;Node5</title>
<path fill="none" stroke="midnightblue" d="M957.77,-436.41C1033.1,-391.53 1366.57,-181.27 1224.06,-56 1183.56,-20.4 807.11,-12.88 683.31,-11.37"/>
<polygon fill="midnightblue" stroke="midnightblue" points="683.18,-7.86 673.14,-11.25 683.1,-14.86 683.18,-7.86"/>
</g>
<!-- Node23&#45;&gt;Node16 -->
<g id="edge43" class="edge">
<title>Node23&#45;&gt;Node16</title>
<path fill="none" stroke="midnightblue" d="M896.35,-437.77C830.72,-427.62 711.69,-409.2 644.23,-398.76"/>
<polygon fill="midnightblue" stroke="midnightblue" points="644.68,-395.29 634.26,-397.22 643.61,-402.21 644.68,-395.29"/>
</g>
<!-- Node24 -->
<g id="node24" class="node">
<title>Node24</title>
<g id="a_node24"><a xlink:href="_keyboard_controller_8h.html" target="_top" xlink:title=" ">
<polygon fill="none" stroke="black" points="800.56,-129 800.56,-148 919.56,-148 919.56,-129 800.56,-129"/>
<text text-anchor="middle" x="860.06" y="-136" font-family="Helvetica,sans-Serif" font-size="10.00">KeyboardController.h</text>
</a>
</g>
</g>
<!-- Node23&#45;&gt;Node24 -->
<g id="edge44" class="edge">
<title>Node23&#45;&gt;Node24</title>
<path fill="none" stroke="midnightblue" d="M935.75,-436.23C921.65,-418.39 892.06,-376.05 892.06,-335 892.06,-335 892.06,-335 892.06,-271.5 892.06,-229.82 876.8,-182.77 867.36,-157.64"/>
<polygon fill="midnightblue" stroke="midnightblue" points="870.61,-156.34 863.73,-148.28 864.08,-158.87 870.61,-156.34"/>
</g>
<!-- Node27 -->
<g id="node27" class="node">
<title>Node27</title>
<g id="a_node27"><a xlink:href="_menu_8h.html" target="_top" xlink:title=" ">
<polygon fill="none" stroke="black" points="562.56,-263 562.56,-282 615.56,-282 615.56,-263 562.56,-263"/>
<text text-anchor="middle" x="589.06" y="-270" font-family="Helvetica,sans-Serif" font-size="10.00">Menu.h</text>
</a>
</g>
</g>
<!-- Node23&#45;&gt;Node27 -->
<g id="edge50" class="edge">
<title>Node23&#45;&gt;Node27</title>
<path fill="none" stroke="midnightblue" d="M925.5,-436.5C868.06,-408.67 685.41,-320.18 616.09,-286.6"/>
<polygon fill="midnightblue" stroke="midnightblue" points="617.24,-283.27 606.72,-282.06 614.19,-289.57 617.24,-283.27"/>
</g>
<!-- Node28 -->
<g id="node28" class="node">
<title>Node28</title>
<g id="a_node28"><a xlink:href="_game_stats_i_o_8h.html" target="_top" xlink:title=" ">
<polygon fill="none" stroke="black" points="1290.06,-380.5 1290.06,-399.5 1380.06,-399.5 1380.06,-380.5 1290.06,-380.5"/>
<text text-anchor="middle" x="1335.06" y="-387.5" font-family="Helvetica,sans-Serif" font-size="10.00">GameStatsIO.h</text>
</a>
</g>
</g>
<!-- Node23&#45;&gt;Node28 -->
<g id="edge53" class="edge">
<title>Node23&#45;&gt;Node28</title>
<path fill="none" stroke="midnightblue" d="M989.69,-438.95C1054.13,-430.54 1173.99,-414.68 1276.06,-400 1277.32,-399.82 1278.61,-399.63 1279.9,-399.44"/>
<polygon fill="midnightblue" stroke="midnightblue" points="1280.59,-402.88 1289.97,-397.96 1279.57,-395.96 1280.59,-402.88"/>
</g>
<!-- Node29 -->
<g id="node29" class="node">
<title>Node29</title>
<g id="a_node29"><a xlink:href="_board_8h.html" target="_top" xlink:title=" ">
<polygon fill="none" stroke="black" points="936.06,-257.5 936.06,-287.5 1052.06,-287.5 1052.06,-257.5 936.06,-257.5"/>
<text text-anchor="start" x="944.06" y="-275.5" font-family="Helvetica,sans-Serif" font-size="10.00">../../board&#45;lib/include</text>
<text text-anchor="middle" x="994.06" y="-264.5" font-family="Helvetica,sans-Serif" font-size="10.00">/Board.h</text>
</a>
</g>
</g>
<!-- Node23&#45;&gt;Node29 -->
<g id="edge57" class="edge">
<title>Node23&#45;&gt;Node29</title>
<path fill="none" stroke="midnightblue" d="M945.65,-436.26C953.21,-410.87 975.34,-336.44 986.87,-297.65"/>
<polygon fill="midnightblue" stroke="midnightblue" points="990.33,-298.31 989.83,-287.72 983.62,-296.31 990.33,-298.31"/>
</g>
<!-- Node24&#45;&gt;Node5 -->
<g id="edge45" class="edge">
<title>Node24&#45;&gt;Node5</title>
<path fill="none" stroke="midnightblue" d="M875.25,-128.96C900.19,-113.89 944.97,-81.73 923.06,-56 892.72,-20.38 752.75,-12.86 683.32,-11.34"/>
<polygon fill="midnightblue" stroke="midnightblue" points="683.28,-7.84 673.21,-11.15 683.15,-14.84 683.28,-7.84"/>
</g>
<!-- Node25 -->
<g id="node25" class="node">
<title>Node25</title>
<g id="a_node25"><a xlink:title=" ">
<polygon fill="none" stroke="#bfbfbf" points="672.06,-62 672.06,-81 782.06,-81 782.06,-62 672.06,-62"/>
<text text-anchor="middle" x="727.06" y="-69" font-family="Helvetica,sans-Serif" font-size="10.00">SFML/Graphics.hpp</text>
</a>
</g>
</g>
<!-- Node24&#45;&gt;Node25 -->
<g id="edge46" class="edge">
<title>Node24&#45;&gt;Node25</title>
<path fill="none" stroke="midnightblue" d="M842.39,-128.87C819.74,-117.8 780.23,-98.49 753.86,-85.6"/>
<polygon fill="midnightblue" stroke="midnightblue" points="755.31,-82.41 744.79,-81.17 752.24,-88.7 755.31,-82.41"/>
</g>
<!-- Node26 -->
<g id="node26" class="node">
<title>Node26</title>
<g id="a_node26"><a xlink:href="_simple_subscriber_8h.html" target="_top" xlink:title=" ">
<polygon fill="none" stroke="black" points="800.56,-56.5 800.56,-86.5 913.56,-86.5 913.56,-56.5 800.56,-56.5"/>
<text text-anchor="start" x="808.56" y="-74.5" font-family="Helvetica,sans-Serif" font-size="10.00">../../core&#45;lib/include</text>
<text text-anchor="middle" x="857.06" y="-63.5" font-family="Helvetica,sans-Serif" font-size="10.00">/SimpleSubscriber.h</text>
</a>
</g>
</g>
<!-- Node24&#45;&gt;Node26 -->
<g id="edge47" class="edge">
<title>Node24&#45;&gt;Node26</title>
<path fill="none" stroke="midnightblue" d="M859.65,-128.73C859.27,-120.54 858.69,-107.92 858.17,-96.71"/>
<polygon fill="midnightblue" stroke="midnightblue" points="861.66,-96.42 857.71,-86.59 854.67,-96.74 861.66,-96.42"/>
</g>
<!-- Node26&#45;&gt;Node5 -->
<g id="edge49" class="edge">
<title>Node26&#45;&gt;Node5</title>
<path fill="none" stroke="midnightblue" d="M806.85,-56.47C769.01,-45.91 717.87,-31.62 683.08,-21.9"/>
<polygon fill="midnightblue" stroke="midnightblue" points="683.85,-18.48 673.28,-19.16 681.97,-25.22 683.85,-18.48"/>
</g>
<!-- Node26&#45;&gt;Node13 -->
<g id="edge48" class="edge">
<title>Node26&#45;&gt;Node13</title>
<path fill="none" stroke="midnightblue" d="M800.21,-57.82C797.12,-57.19 794.05,-56.58 791.06,-56 707.16,-39.75 607.83,-23.97 556.9,-16.13"/>
<polygon fill="midnightblue" stroke="midnightblue" points="557.2,-12.63 546.79,-14.58 556.14,-19.55 557.2,-12.63"/>
</g>
<!-- Node27&#45;&gt;Node7 -->
<g id="edge52" class="edge">
<title>Node27&#45;&gt;Node7</title>
<path fill="none" stroke="midnightblue" d="M588.89,-262.91C588.27,-247.49 585.47,-214.42 573.06,-190 554.67,-153.83 546.69,-142.39 511.06,-123 428.65,-78.16 315.3,-71.66 257.77,-71.57"/>
<polygon fill="midnightblue" stroke="midnightblue" points="257.68,-68.07 247.69,-71.62 257.71,-75.07 257.68,-68.07"/>
</g>
<!-- Node27&#45;&gt;Node18 -->
<g id="edge51" class="edge">
<title>Node27&#45;&gt;Node18</title>
<path fill="none" stroke="midnightblue" d="M578.27,-262.73C567.04,-253.61 549.06,-239 534.24,-226.96"/>
<polygon fill="midnightblue" stroke="midnightblue" points="536.36,-224.18 526.4,-220.59 531.95,-229.61 536.36,-224.18"/>
</g>
<!-- Node28&#45;&gt;Node2 -->
<g id="edge56" class="edge">
<title>Node28&#45;&gt;Node2</title>
<path fill="none" stroke="midnightblue" d="M1346.62,-380.32C1357.48,-372.18 1373.94,-359.84 1386.94,-350.09"/>
<polygon fill="midnightblue" stroke="midnightblue" points="1389.38,-352.63 1395.28,-343.83 1385.18,-347.03 1389.38,-352.63"/>
</g>
<!-- Node28&#45;&gt;Node5 -->
<g id="edge54" class="edge">
<title>Node28&#45;&gt;Node5</title>
<path fill="none" stroke="midnightblue" d="M1332.65,-380.39C1327.54,-361.3 1316.06,-313.94 1316.06,-273.5 1316.06,-273.5 1316.06,-273.5 1316.06,-137.5 1316.06,-99.74 1321.49,-79.65 1292.06,-56 1268.23,-36.85 819.81,-17.85 683.21,-12.49"/>
<polygon fill="midnightblue" stroke="midnightblue" points="683.31,-8.99 673.18,-12.1 683.04,-15.99 683.31,-8.99"/>
</g>
<!-- Node28&#45;&gt;Node9 -->
<g id="edge55" class="edge">
<title>Node28&#45;&gt;Node9</title>
<path fill="none" stroke="midnightblue" d="M1337.46,-380.39C1342.57,-361.3 1354.06,-313.94 1354.06,-273.5 1354.06,-273.5 1354.06,-273.5 1354.06,-137.5 1354.06,-99.74 1358.51,-80.82 1330.06,-56 1291.08,-21.99 1134.15,-13.67 1065.49,-11.64"/>
<polygon fill="midnightblue" stroke="midnightblue" points="1065.35,-8.14 1055.26,-11.37 1065.16,-15.14 1065.35,-8.14"/>
</g>
<!-- Node29&#45;&gt;Node5 -->
<g id="edge58" class="edge">
<title>Node29&#45;&gt;Node5</title>
<path fill="none" stroke="midnightblue" d="M1052.17,-268.17C1090.47,-263.1 1139.39,-250.73 1172.06,-221 1227.06,-170.93 1250.49,-110.68 1200.06,-56 1165.16,-18.17 804.82,-12.14 683.6,-11.18"/>
<polygon fill="midnightblue" stroke="midnightblue" points="683.31,-7.68 673.29,-11.11 683.26,-14.68 683.31,-7.68"/>
</g>
<!-- Node29&#45;&gt;Node18 -->
<g id="edge59" class="edge">
<title>Node29&#45;&gt;Node18</title>
<path fill="none" stroke="midnightblue" d="M936.03,-263.72C845.06,-251.53 669.44,-227.99 574.23,-215.24"/>
<polygon fill="midnightblue" stroke="midnightblue" points="574.53,-211.74 564.16,-213.88 573.6,-218.68 574.53,-211.74"/>
</g>
<!-- Node30 -->
<g id="node30" class="node">
<title>Node30</title>
<g id="a_node30"><a xlink:href="_tank_8h.html" target="_top" xlink:title=" ">
<polygon fill="none" stroke="black" points="956.06,-123.5 956.06,-153.5 1066.06,-153.5 1066.06,-123.5 956.06,-123.5"/>
<text text-anchor="start" x="964.06" y="-141.5" font-family="Helvetica,sans-Serif" font-size="10.00">../../tank&#45;lib/include</text>
<text text-anchor="middle" x="1011.06" y="-130.5" font-family="Helvetica,sans-Serif" font-size="10.00">/Tank.h</text>
</a>
</g>
</g>
<!-- Node29&#45;&gt;Node30 -->
<g id="edge60" class="edge">
<title>Node29&#45;&gt;Node30</title>
<path fill="none" stroke="midnightblue" d="M995.87,-257.37C998.76,-234.94 1004.43,-190.92 1007.97,-163.49"/>
<polygon fill="midnightblue" stroke="midnightblue" points="1011.44,-163.89 1009.25,-153.52 1004.5,-163 1011.44,-163.89"/>
</g>
<!-- Node33 -->
<g id="node33" class="node">
<title>Node33</title>
<g id="a_node33"><a xlink:href="_entity_controller_8h.html" target="_top" xlink:title=" ">
<polygon fill="none" stroke="black" points="1053.06,-190.5 1053.06,-220.5 1163.06,-220.5 1163.06,-190.5 1053.06,-190.5"/>
<text text-anchor="start" x="1061.06" y="-208.5" font-family="Helvetica,sans-Serif" font-size="10.00">../../tank&#45;lib/include</text>
<text text-anchor="middle" x="1108.06" y="-197.5" font-family="Helvetica,sans-Serif" font-size="10.00">/EntityController.h</text>
</a>
</g>
</g>
<!-- Node29&#45;&gt;Node33 -->
<g id="edge65" class="edge">
<title>Node29&#45;&gt;Node33</title>
<path fill="none" stroke="midnightblue" d="M1018.79,-257.4C1035.07,-248.11 1056.6,-235.84 1074.43,-225.67"/>
<polygon fill="midnightblue" stroke="midnightblue" points="1076.41,-228.57 1083.37,-220.58 1072.95,-222.49 1076.41,-228.57"/>
</g>
<!-- Node34 -->
<g id="node34" class="node">
<title>Node34</title>
<g id="a_node34"><a xlink:href="_grid_8h.html" target="_top" xlink:title=" ">
<polygon fill="none" stroke="black" points="780.06,-196 780.06,-215 826.06,-215 826.06,-196 780.06,-196"/>
<text text-anchor="middle" x="803.06" y="-203" font-family="Helvetica,sans-Serif" font-size="10.00">Grid.h</text>
</a>
</g>
</g>
<!-- Node29&#45;&gt;Node34 -->
<g id="edge70" class="edge">
<title>Node29&#45;&gt;Node34</title>
<path fill="none" stroke="midnightblue" d="M952.61,-257.4C917.66,-245.5 868.32,-228.71 836.01,-217.72"/>
<polygon fill="midnightblue" stroke="midnightblue" points="836.76,-214.27 826.16,-214.36 834.5,-220.9 836.76,-214.27"/>
</g>
<!-- Node30&#45;&gt;Node5 -->
<g id="edge61" class="edge">
<title>Node30&#45;&gt;Node5</title>
<path fill="none" stroke="midnightblue" d="M1021.81,-123.32C1033.95,-105.49 1049.92,-74.93 1033.06,-56 1010.03,-30.16 777.46,-16.95 683.31,-12.63"/>
<polygon fill="midnightblue" stroke="midnightblue" points="683.21,-9.13 673.06,-12.17 682.9,-16.12 683.21,-9.13"/>
</g>
<!-- Node30&#45;&gt;Node26 -->
<g id="edge63" class="edge">
<title>Node30&#45;&gt;Node26</title>
<path fill="none" stroke="midnightblue" d="M977.64,-123.4C954.84,-113.77 924.43,-100.94 899.85,-90.56"/>
<polygon fill="midnightblue" stroke="midnightblue" points="900.98,-87.24 890.41,-86.58 898.26,-93.69 900.98,-87.24"/>
</g>
<!-- Node31 -->
<g id="node31" class="node">
<title>Node31</title>
<g id="a_node31"><a xlink:title=" ">
<polygon fill="none" stroke="#bfbfbf" points="1080.06,-62 1080.06,-81 1136.06,-81 1136.06,-62 1080.06,-62"/>
<text text-anchor="middle" x="1108.06" y="-69" font-family="Helvetica,sans-Serif" font-size="10.00">optional</text>
</a>
</g>
</g>
<!-- Node30&#45;&gt;Node31 -->
<g id="edge62" class="edge">
<title>Node30&#45;&gt;Node31</title>
<path fill="none" stroke="midnightblue" d="M1032.1,-123.4C1048.37,-112.5 1070.78,-97.48 1087.04,-86.58"/>
<polygon fill="midnightblue" stroke="midnightblue" points="1089,-89.48 1095.36,-81.01 1085.1,-83.67 1089,-89.48"/>
</g>
<!-- Node32 -->
<g id="node32" class="node">
<title>Node32</title>
<g id="a_node32"><a xlink:href="_entity_8h.html" target="_top" xlink:title=" ">
<polygon fill="none" stroke="black" points="970.56,-62 970.56,-81 1023.56,-81 1023.56,-62 970.56,-62"/>
<text text-anchor="middle" x="997.06" y="-69" font-family="Helvetica,sans-Serif" font-size="10.00">Entity.h</text>
</a>
</g>
</g>
<!-- Node30&#45;&gt;Node32 -->
<g id="edge64" class="edge">
<title>Node30&#45;&gt;Node32</title>
<path fill="none" stroke="midnightblue" d="M1008.02,-123.4C1005.99,-113.96 1003.29,-101.45 1001.08,-91.19"/>
<polygon fill="midnightblue" stroke="midnightblue" points="1004.46,-90.23 998.93,-81.19 997.61,-91.71 1004.46,-90.23"/>
</g>
<!-- Node33&#45;&gt;Node5 -->
<g id="edge67" class="edge">
<title>Node33&#45;&gt;Node5</title>
<path fill="none" stroke="midnightblue" d="M1139.4,-190.44C1153.97,-182.11 1169.86,-170.01 1178.06,-154 1197.89,-115.22 1207.53,-88.07 1178.06,-56 1144.71,-19.72 800.84,-12.67 683.24,-11.32"/>
<polygon fill="midnightblue" stroke="midnightblue" points="683.26,-7.82 673.22,-11.21 683.19,-14.82 683.26,-7.82"/>
</g>
<!-- Node33&#45;&gt;Node13 -->
<g id="edge66" class="edge">
<title>Node33&#45;&gt;Node13</title>
<path fill="none" stroke="midnightblue" d="M1119.06,-190.12C1140.04,-160.87 1180.63,-94.03 1145.06,-56 1104.05,-12.17 665.85,-25.24 606.06,-20 589.91,-18.59 572.02,-16.69 557.01,-15"/>
<polygon fill="midnightblue" stroke="midnightblue" points="556.97,-11.48 546.64,-13.82 556.18,-18.43 556.97,-11.48"/>
</g>
<!-- Node33&#45;&gt;Node30 -->
<g id="edge69" class="edge">
<title>Node33&#45;&gt;Node30</title>
<path fill="none" stroke="midnightblue" d="M1087.01,-190.4C1073.41,-181.28 1055.51,-169.29 1040.51,-159.24"/>
<polygon fill="midnightblue" stroke="midnightblue" points="1042.32,-156.24 1032.06,-153.58 1038.42,-162.05 1042.32,-156.24"/>
</g>
<!-- Node33&#45;&gt;Node31 -->
<g id="edge68" class="edge">
<title>Node33&#45;&gt;Node31</title>
<path fill="none" stroke="midnightblue" d="M1108.06,-190.37C1108.06,-166.5 1108.06,-118.18 1108.06,-91.41"/>
<polygon fill="midnightblue" stroke="midnightblue" points="1111.56,-91.1 1108.06,-81.1 1104.56,-91.1 1111.56,-91.1"/>
</g>
<!-- Node34&#45;&gt;Node8 -->
<g id="edge71" class="edge">
<title>Node34&#45;&gt;Node8</title>
<path fill="none" stroke="midnightblue" d="M782.92,-195.94C710.54,-165.16 463.35,-60.03 377.62,-23.57"/>
<polygon fill="midnightblue" stroke="midnightblue" points="378.79,-20.27 368.22,-19.57 376.05,-26.71 378.79,-20.27"/>
</g>
</g>
</svg>
        <g id="navigator" transform="translate(0 0)" fill="#404254">
                <rect fill="#f2f5e9" fill-opacity="0.5" stroke="#606060" stroke-width=".5" x="0" y="0" width="60" height="60"/>
                <use id="zoomplus" xlink:href="#zoomPlus" x="17" y="9" onmousedown="handleZoom(evt,'in')"/>
                <use id="zoomminus" xlink:href="#zoomMin" x="42" y="9" onmousedown="handleZoom(evt,'out')"/>
                <use id="reset" xlink:href="#resetDef" x="30" y="36" onmousedown="handleReset()"/>
                <g id="arrowUp" xlink:href="#dirArrow" transform="translate(30 24)" onmousedown="handlePan(0,-1)">
                  <use xlink:href="#rim" fill="#404040">
                        <set attributeName="fill" to="#808080" begin="arrowUp.mouseover" end="arrowUp.mouseout"/>
                  </use>
                  <path fill="none" stroke="white" stroke-width="1.5" d="M0,-3.0v7 M-2.5,-0.5L0,-3.0L2.5,-0.5"/>
                </g>
                <g id="arrowRight" xlink:href="#dirArrow" transform="rotate(90) translate(36 -43)" onmousedown="handlePan(1,0)">
                  <use xlink:href="#rim" fill="#404040">
                        <set attributeName="fill" to="#808080" begin="arrowRight.mouseover" end="arrowRight.mouseout"/>
                  </use>
                  <path fill="none" stroke="white" stroke-width="1.5" d="M0,-3.0v7 M-2.5,-0.5L0,-3.0L2.5,-0.5"/>
                </g>
                <g id="arrowDown" xlink:href="#dirArrow" transform="rotate(180) translate(-30 -48)" onmousedown="handlePan(0,1)">
                  <use xlink:href="#rim" fill="#404040">
                        <set attributeName="fill" to="#808080" begin="arrowDown.mouseover" end="arrowDown.mouseout"/>
                  </use>
                  <path fill="none" stroke="white" stroke-width="1.5" d="M0,-3.0v7 M-2.5,-0.5L0,-3.0L2.5,-0.5"/>
                </g>
                <g id="arrowLeft" xlink:href="#dirArrow" transform="rotate(270) translate(-36 17)" onmousedown="handlePan(-1,0)">
                  <use xlink:href="#rim" fill="#404040">
                        <set attributeName="fill" to="#808080" begin="arrowLeft.mouseover" end="arrowLeft.mouseout"/>
                  </use>
                  <path fill="none" stroke="white" stroke-width="1.5" d="M0,-3.0v7 M-2.5,-0.5L0,-3.0L2.5,-0.5"/>
                </g>
        </g>
        <svg viewBox="0 0 15 15" width="100%" height="30px" preserveAspectRatio="xMaxYMin meet">
         <g id="arrow_out" transform="scale(0.3 0.3)">
          <a xlink:href="_menu_event_handler_8cpp__incl_org.svg" target="_base">
           <rect id="button" ry="5" rx="5" y="6" x="6" height="38" width="38"
                fill="#f2f5e9" fill-opacity="0.5" stroke="#606060" stroke-width="1.0"/>
           <path id="arrow"
             d="M 11.500037,31.436501 C 11.940474,20.09759 22.043105,11.32322 32.158766,21.979434 L 37.068811,17.246167 C 37.068811,17.246167 37.088388,32 37.088388,32 L 22.160133,31.978069 C 22.160133,31.978069 26.997745,27.140456 26.997745,27.140456 C 18.528582,18.264221 13.291696,25.230495 11.500037,31.436501 z"
             style="fill:#404040;"/>
          </a>
         </g>
        </svg>
</svg>
