<?xml version="1.0" encoding="UTF-8" standalone="no"?>
<!DOCTYPE svg PUBLIC "-//W3C//DTD SVG 1.1//EN"
 "http://www.w3.org/Graphics/SVG/1.1/DTD/svg11.dtd">
<!-- Generated by graphviz version 2.43.0 (0)
 -->
<!-- Title: /home/tomek/CLionProjects/proi/proi&#45;projekt/src/game&#45;lib/Menu.cpp Pages: 1 -->
<!--zoomable 430 -->
<svg id="main" version="1.1" xmlns="http://www.w3.org/2000/svg" xmlns:xlink="http://www.w3.org/1999/xlink" xml:space="preserve" onload="init(evt)">
<style type="text/css"><![CDATA[
.edge:hover path { stroke: red; }
.edge:hover polygon { stroke: red; fill: red; }
]]></style>
<script type="text/javascript"><![CDATA[
var edges = document.getElementsByTagName('g');
if (edges && edges.length) {
  for (var i=0;i<edges.length;i++) {
    if (edges[i].id.substr(0,4)=='edge') {
      edges[i].setAttribute('class','edge');
    }
  }
}
]]></script>
        <defs>
                <circle id="rim" cx="0" cy="0" r="7"/>
                <circle id="rim2" cx="0" cy="0" r="3.5"/>
                <g id="zoomPlus">
                        <use xlink:href="#rim" fill="#404040">
                                <set attributeName="fill" to="#808080" begin="zoomplus.mouseover" end="zoomplus.mouseout"/>
                        </use>
                        <path d="M-4,0h8M0,-4v8" fill="none" stroke="white" stroke-width="1.5" pointer-events="none"/>
                </g>
                <g id="zoomMin">
                        <use xlink:href="#rim" fill="#404040">
                                <set attributeName="fill" to="#808080" begin="zoomminus.mouseover" end="zoomminus.mouseout"/>
                        </use>
                        <path d="M-4,0h8" fill="none" stroke="white" stroke-width="1.5" pointer-events="none"/>
                </g>
                <g id="dirArrow">
                        <path fill="none" stroke="white" stroke-width="1.5" d="M0,-3.0v7 M-2.5,-0.5L0,-3.0L2.5,-0.5"/>
                </g>
               <g id="resetDef">
                       <use xlink:href="#rim2" fill="#404040">
                               <set attributeName="fill" to="#808080" begin="reset.mouseover" end="reset.mouseout"/>
                       </use>
               </g>
        </defs>

<script type="text/javascript">
var viewWidth = 586;
var viewHeight = 430;
var sectionId = 'dynsection-0';
</script>
<script xlink:href="svgpan.js"/>
<svg id="graph" class="graph">
<g id="viewport">
<title>/home/tomek/CLionProjects/proi/proi&#45;projekt/src/game&#45;lib/Menu.cpp</title>
<!-- Node1 -->
<g id="node1" class="node">
<title>Node1</title>
<g id="a_node1"><a xlink:title=" ">
<polygon fill="#bfbfbf" stroke="black" points="146,-380.5 146,-421.5 297,-421.5 297,-380.5 146,-380.5"/>
<text text-anchor="start" x="154" y="-409.5" font-family="Helvetica,sans-Serif" font-size="10.00">/home/tomek/CLionProjects</text>
<text text-anchor="start" x="154" y="-398.5" font-family="Helvetica,sans-Serif" font-size="10.00">/proi/proi&#45;projekt/src</text>
<text text-anchor="middle" x="221.5" y="-387.5" font-family="Helvetica,sans-Serif" font-size="10.00">/game&#45;lib/Menu.cpp</text>
</a>
</g>
</g>
<!-- Node2 -->
<g id="node2" class="node">
<title>Node2</title>
<g id="a_node2"><a xlink:href="_menu_8h.html" target="_top" xlink:title=" ">
<polygon fill="none" stroke="black" points="176,-324.5 176,-343.5 267,-343.5 267,-324.5 176,-324.5"/>
<text text-anchor="middle" x="221.5" y="-331.5" font-family="Helvetica,sans-Serif" font-size="10.00">include/Menu.h</text>
</a>
</g>
</g>
<!-- Node1&#45;&gt;Node2 -->
<g id="edge1" class="edge">
<title>Node1&#45;&gt;Node2</title>
<path fill="none" stroke="midnightblue" d="M221.5,-380.5C221.5,-372.07 221.5,-362.24 221.5,-353.87"/>
<polygon fill="midnightblue" stroke="midnightblue" points="225,-353.65 221.5,-343.65 218,-353.65 225,-353.65"/>
</g>
<!-- Node3 -->
<g id="node3" class="node">
<title>Node3</title>
<g id="a_node3"><a xlink:href="_event_queue_8h.html" target="_top" xlink:title=" ">
<polygon fill="none" stroke="black" points="30.5,-257.5 30.5,-287.5 140.5,-287.5 140.5,-257.5 30.5,-257.5"/>
<text text-anchor="start" x="38.5" y="-275.5" font-family="Helvetica,sans-Serif" font-size="10.00">../../core&#45;lib/include</text>
<text text-anchor="middle" x="85.5" y="-264.5" font-family="Helvetica,sans-Serif" font-size="10.00">/EventQueue.h</text>
</a>
</g>
</g>
<!-- Node1&#45;&gt;Node3 -->
<g id="edge23" class="edge">
<title>Node1&#45;&gt;Node3</title>
<path fill="none" stroke="midnightblue" d="M200.25,-380.23C175.2,-356.93 133.74,-318.37 108.12,-294.54"/>
<polygon fill="midnightblue" stroke="midnightblue" points="110.41,-291.89 100.71,-287.64 105.64,-297.02 110.41,-291.89"/>
</g>
<!-- Node6 -->
<g id="node6" class="node">
<title>Node6</title>
<g id="a_node6"><a xlink:href="_event_8h.html" target="_top" xlink:title=" ">
<polygon fill="none" stroke="black" points="283.5,-257.5 283.5,-287.5 393.5,-287.5 393.5,-257.5 283.5,-257.5"/>
<text text-anchor="start" x="291.5" y="-275.5" font-family="Helvetica,sans-Serif" font-size="10.00">../../core&#45;lib/include</text>
<text text-anchor="middle" x="338.5" y="-264.5" font-family="Helvetica,sans-Serif" font-size="10.00">/Event.h</text>
</a>
</g>
</g>
<!-- Node1&#45;&gt;Node6 -->
<g id="edge24" class="edge">
<title>Node1&#45;&gt;Node6</title>
<path fill="none" stroke="midnightblue" d="M241.37,-380.3C251.95,-369.68 265.09,-356.28 276.5,-344 291.34,-328.03 307.6,-309.51 319.74,-295.45"/>
<polygon fill="midnightblue" stroke="midnightblue" points="322.5,-297.61 326.37,-287.75 317.2,-293.04 322.5,-297.61"/>
</g>
<!-- Node2&#45;&gt;Node3 -->
<g id="edge2" class="edge">
<title>Node2&#45;&gt;Node3</title>
<path fill="none" stroke="midnightblue" d="M202.01,-324.48C182.48,-315.93 151.79,-302.5 126.81,-291.57"/>
<polygon fill="midnightblue" stroke="midnightblue" points="128.12,-288.32 117.55,-287.52 125.31,-294.74 128.12,-288.32"/>
</g>
<!-- Node2&#45;&gt;Node6 -->
<g id="edge5" class="edge">
<title>Node2&#45;&gt;Node6</title>
<path fill="none" stroke="midnightblue" d="M238.26,-324.48C254.78,-316.08 280.55,-302.97 301.82,-292.15"/>
<polygon fill="midnightblue" stroke="midnightblue" points="303.6,-295.18 310.93,-287.52 300.43,-288.94 303.6,-295.18"/>
</g>
<!-- Node4 -->
<g id="node4" class="node">
<title>Node4</title>
<g id="a_node4"><a xlink:title=" ">
<polygon fill="none" stroke="#bfbfbf" points="0,-196 0,-215 47,-215 47,-196 0,-196"/>
<text text-anchor="middle" x="23.5" y="-203" font-family="Helvetica,sans-Serif" font-size="10.00">queue</text>
</a>
</g>
</g>
<!-- Node3&#45;&gt;Node4 -->
<g id="edge3" class="edge">
<title>Node3&#45;&gt;Node4</title>
<path fill="none" stroke="midnightblue" d="M72.05,-257.4C62.28,-247.16 49.06,-233.3 38.88,-222.62"/>
<polygon fill="midnightblue" stroke="midnightblue" points="41.23,-220.01 31.79,-215.19 36.16,-224.85 41.23,-220.01"/>
</g>
<!-- Node5 -->
<g id="node5" class="node">
<title>Node5</title>
<g id="a_node5"><a xlink:title=" ">
<polygon fill="none" stroke="#bfbfbf" points="103.5,-0.5 103.5,-19.5 161.5,-19.5 161.5,-0.5 103.5,-0.5"/>
<text text-anchor="middle" x="132.5" y="-7.5" font-family="Helvetica,sans-Serif" font-size="10.00">memory</text>
</a>
</g>
</g>
<!-- Node3&#45;&gt;Node5 -->
<g id="edge4" class="edge">
<title>Node3&#45;&gt;Node5</title>
<path fill="none" stroke="midnightblue" d="M83.76,-257.33C79.99,-222.05 73.36,-127.88 99.5,-56 103.29,-45.57 110.3,-35.46 116.89,-27.48"/>
<polygon fill="midnightblue" stroke="midnightblue" points="119.72,-29.56 123.69,-19.73 114.46,-24.93 119.72,-29.56"/>
</g>
<!-- Node6&#45;&gt;Node5 -->
<g id="edge8" class="edge">
<title>Node6&#45;&gt;Node5</title>
<path fill="none" stroke="midnightblue" d="M283.27,-265.6C228.75,-258.5 150.94,-244.5 132.5,-221 87.77,-163.98 112.5,-68.9 125.79,-29.24"/>
<polygon fill="midnightblue" stroke="midnightblue" points="129.1,-30.4 129.1,-19.8 122.49,-28.08 129.1,-30.4"/>
</g>
<!-- Node7 -->
<g id="node7" class="node">
<title>Node7</title>
<g id="a_node7"><a xlink:title=" ">
<polygon fill="none" stroke="#bfbfbf" points="270,-196 270,-215 335,-215 335,-196 270,-196"/>
<text text-anchor="middle" x="302.5" y="-203" font-family="Helvetica,sans-Serif" font-size="10.00">exception</text>
</a>
</g>
</g>
<!-- Node6&#45;&gt;Node7 -->
<g id="edge6" class="edge">
<title>Node6&#45;&gt;Node7</title>
<path fill="none" stroke="midnightblue" d="M330.69,-257.4C325.3,-247.66 318.09,-234.65 312.31,-224.21"/>
<polygon fill="midnightblue" stroke="midnightblue" points="315.22,-222.25 307.32,-215.19 309.1,-225.64 315.22,-222.25"/>
</g>
<!-- Node8 -->
<g id="node8" class="node">
<title>Node8</title>
<g id="a_node8"><a xlink:title=" ">
<polygon fill="none" stroke="#bfbfbf" points="353.5,-196 353.5,-215 397.5,-215 397.5,-196 353.5,-196"/>
<text text-anchor="middle" x="375.5" y="-203" font-family="Helvetica,sans-Serif" font-size="10.00">string</text>
</a>
</g>
</g>
<!-- Node6&#45;&gt;Node8 -->
<g id="edge7" class="edge">
<title>Node6&#45;&gt;Node8</title>
<path fill="none" stroke="midnightblue" d="M346.53,-257.4C352.13,-247.56 359.63,-234.38 365.6,-223.89"/>
<polygon fill="midnightblue" stroke="midnightblue" points="368.65,-225.62 370.55,-215.19 362.56,-222.15 368.65,-225.62"/>
</g>
<!-- Node9 -->
<g id="node9" class="node">
<title>Node9</title>
<g id="a_node9"><a xlink:title=" ">
<polygon fill="none" stroke="#bfbfbf" points="416,-196 416,-215 467,-215 467,-196 416,-196"/>
<text text-anchor="middle" x="441.5" y="-203" font-family="Helvetica,sans-Serif" font-size="10.00">variant</text>
</a>
</g>
</g>
<!-- Node6&#45;&gt;Node9 -->
<g id="edge9" class="edge">
<title>Node6&#45;&gt;Node9</title>
<path fill="none" stroke="midnightblue" d="M360.85,-257.4C378.12,-246.5 401.92,-231.48 419.18,-220.58"/>
<polygon fill="midnightblue" stroke="midnightblue" points="421.43,-223.3 428.02,-215.01 417.69,-217.38 421.43,-223.3"/>
</g>
<!-- Node10 -->
<g id="node10" class="node">
<title>Node10</title>
<g id="a_node10"><a xlink:title=" ">
<polygon fill="none" stroke="#bfbfbf" points="485.5,-196 485.5,-215 545.5,-215 545.5,-196 485.5,-196"/>
<text text-anchor="middle" x="515.5" y="-203" font-family="Helvetica,sans-Serif" font-size="10.00">iostream</text>
</a>
</g>
</g>
<!-- Node6&#45;&gt;Node10 -->
<g id="edge10" class="edge">
<title>Node6&#45;&gt;Node10</title>
<path fill="none" stroke="midnightblue" d="M377.18,-257.4C404.86,-247.31 442.99,-233.36 476.5,-221 478.59,-220.23 480.75,-219.43 482.92,-218.63"/>
<polygon fill="midnightblue" stroke="midnightblue" points="484.25,-221.87 492.41,-215.11 481.82,-215.3 484.25,-221.87"/>
</g>
<!-- Node11 -->
<g id="node11" class="node">
<title>Node11</title>
<g id="a_node11"><a xlink:title=" ">
<polygon fill="none" stroke="#bfbfbf" points="458.5,-129 458.5,-148 514.5,-148 514.5,-129 458.5,-129"/>
<text text-anchor="middle" x="486.5" y="-136" font-family="Helvetica,sans-Serif" font-size="10.00">optional</text>
</a>
</g>
</g>
<!-- Node6&#45;&gt;Node11 -->
<g id="edge11" class="edge">
<title>Node6&#45;&gt;Node11</title>
<path fill="none" stroke="midnightblue" d="M393.75,-266.3C450.99,-259.63 534.79,-245.85 554.5,-221 573.66,-196.85 538.74,-169.46 512.24,-153.38"/>
<polygon fill="midnightblue" stroke="midnightblue" points="513.73,-150.19 503.32,-148.19 510.21,-156.24 513.73,-150.19"/>
</g>
<!-- Node12 -->
<g id="node12" class="node">
<title>Node12</title>
<g id="a_node12"><a xlink:href="_entity_8h.html" target="_top" xlink:title=" ">
<polygon fill="none" stroke="black" points="311.5,-56.5 311.5,-86.5 421.5,-86.5 421.5,-56.5 311.5,-56.5"/>
<text text-anchor="start" x="319.5" y="-74.5" font-family="Helvetica,sans-Serif" font-size="10.00">../../tank&#45;lib/include</text>
<text text-anchor="middle" x="366.5" y="-63.5" font-family="Helvetica,sans-Serif" font-size="10.00">/Entity.h</text>
</a>
</g>
</g>
<!-- Node6&#45;&gt;Node12 -->
<g id="edge12" class="edge">
<title>Node6&#45;&gt;Node12</title>
<path fill="none" stroke="midnightblue" d="M393.65,-267.31C455.1,-261.36 548.71,-248.04 570.5,-221 600.48,-183.79 532.07,-129.31 523.5,-123 496.68,-103.24 461.81,-91.01 431.75,-83.54"/>
<polygon fill="midnightblue" stroke="midnightblue" points="432.29,-80.08 421.76,-81.19 430.69,-86.89 432.29,-80.08"/>
</g>
<!-- Node13 -->
<g id="node13" class="node">
<title>Node13</title>
<g id="a_node13"><a xlink:href="_tank_8h.html" target="_top" xlink:title=" ">
<polygon fill="none" stroke="black" points="141.5,-190.5 141.5,-220.5 251.5,-220.5 251.5,-190.5 141.5,-190.5"/>
<text text-anchor="start" x="149.5" y="-208.5" font-family="Helvetica,sans-Serif" font-size="10.00">../../tank&#45;lib/include</text>
<text text-anchor="middle" x="196.5" y="-197.5" font-family="Helvetica,sans-Serif" font-size="10.00">/Tank.h</text>
</a>
</g>
</g>
<!-- Node6&#45;&gt;Node13 -->
<g id="edge13" class="edge">
<title>Node6&#45;&gt;Node13</title>
<path fill="none" stroke="midnightblue" d="M307.69,-257.4C286.85,-247.86 259.12,-235.16 236.57,-224.84"/>
<polygon fill="midnightblue" stroke="midnightblue" points="237.8,-221.56 227.25,-220.58 234.89,-227.92 237.8,-221.56"/>
</g>
<!-- Node13&#45;&gt;Node5 -->
<g id="edge14" class="edge">
<title>Node13&#45;&gt;Node5</title>
<path fill="none" stroke="midnightblue" d="M191.79,-190.27C180.39,-155.8 151.29,-67.81 138.59,-29.4"/>
<polygon fill="midnightblue" stroke="midnightblue" points="141.8,-27.97 135.34,-19.58 135.15,-30.17 141.8,-27.97"/>
</g>
<!-- Node13&#45;&gt;Node11 -->
<g id="edge15" class="edge">
<title>Node13&#45;&gt;Node11</title>
<path fill="none" stroke="midnightblue" d="M251.73,-192.12C309.38,-179.2 398.26,-159.28 448.49,-148.02"/>
<polygon fill="midnightblue" stroke="midnightblue" points="449.31,-151.42 458.31,-145.82 447.78,-144.59 449.31,-151.42"/>
</g>
<!-- Node13&#45;&gt;Node12 -->
<g id="edge19" class="edge">
<title>Node13&#45;&gt;Node12</title>
<path fill="none" stroke="midnightblue" d="M250.31,-190.41C284.55,-180.48 324.78,-166.75 337.5,-154 352.86,-138.61 360.12,-114.56 363.53,-96.57"/>
<polygon fill="midnightblue" stroke="midnightblue" points="367.01,-96.97 365.16,-86.54 360.1,-95.84 367.01,-96.97"/>
</g>
<!-- Node14 -->
<g id="node14" class="node">
<title>Node14</title>
<g id="a_node14"><a xlink:href="_simple_subscriber_8h.html" target="_top" xlink:title=" ">
<polygon fill="none" stroke="black" points="180,-56.5 180,-86.5 293,-86.5 293,-56.5 180,-56.5"/>
<text text-anchor="start" x="188" y="-74.5" font-family="Helvetica,sans-Serif" font-size="10.00">../../core&#45;lib/include</text>
<text text-anchor="middle" x="236.5" y="-63.5" font-family="Helvetica,sans-Serif" font-size="10.00">/SimpleSubscriber.h</text>
</a>
</g>
</g>
<!-- Node13&#45;&gt;Node14 -->
<g id="edge16" class="edge">
<title>Node13&#45;&gt;Node14</title>
<path fill="none" stroke="midnightblue" d="M199.04,-190.47C202.17,-174.07 208.02,-146.23 215.5,-123 218.39,-114.04 222.19,-104.44 225.76,-96.04"/>
<polygon fill="midnightblue" stroke="midnightblue" points="228.98,-97.41 229.79,-86.85 222.57,-94.6 228.98,-97.41"/>
</g>
<!-- Node16 -->
<g id="node16" class="node">
<title>Node16</title>
<g id="a_node16"><a xlink:href="_bot_8h.html" target="_top" xlink:title=" ">
<polygon fill="none" stroke="black" points="224.5,-123.5 224.5,-153.5 328.5,-153.5 328.5,-123.5 224.5,-123.5"/>
<text text-anchor="start" x="232.5" y="-141.5" font-family="Helvetica,sans-Serif" font-size="10.00">../../bot&#45;lib/include</text>
<text text-anchor="middle" x="276.5" y="-130.5" font-family="Helvetica,sans-Serif" font-size="10.00">/Bot.h</text>
</a>
</g>
</g>
<!-- Node13&#45;&gt;Node16 -->
<g id="edge20" class="edge">
<title>Node13&#45;&gt;Node16</title>
<path fill="none" stroke="midnightblue" d="M213.86,-190.4C224.76,-181.54 239.01,-169.96 251.16,-160.09"/>
<polygon fill="midnightblue" stroke="midnightblue" points="253.62,-162.6 259.18,-153.58 249.21,-157.17 253.62,-162.6"/>
</g>
<!-- Node14&#45;&gt;Node5 -->
<g id="edge18" class="edge">
<title>Node14&#45;&gt;Node5</title>
<path fill="none" stroke="midnightblue" d="M211.85,-56.4C195.18,-46.86 173.27,-34.32 156.69,-24.84"/>
<polygon fill="midnightblue" stroke="midnightblue" points="158.05,-21.59 147.63,-19.66 154.57,-27.66 158.05,-21.59"/>
</g>
<!-- Node15 -->
<g id="node15" class="node">
<title>Node15</title>
<g id="a_node15"><a xlink:title=" ">
<polygon fill="none" stroke="#bfbfbf" points="213,-0.5 213,-19.5 260,-19.5 260,-0.5 213,-0.5"/>
<text text-anchor="middle" x="236.5" y="-7.5" font-family="Helvetica,sans-Serif" font-size="10.00">vector</text>
</a>
</g>
</g>
<!-- Node14&#45;&gt;Node15 -->
<g id="edge17" class="edge">
<title>Node14&#45;&gt;Node15</title>
<path fill="none" stroke="midnightblue" d="M236.5,-56.4C236.5,-48.47 236.5,-38.46 236.5,-29.86"/>
<polygon fill="midnightblue" stroke="midnightblue" points="240,-29.66 236.5,-19.66 233,-29.66 240,-29.66"/>
</g>
<!-- Node16&#45;&gt;Node12 -->
<g id="edge21" class="edge">
<title>Node16&#45;&gt;Node12</title>
<path fill="none" stroke="midnightblue" d="M296.03,-123.4C308.53,-114.37 324.94,-102.51 338.78,-92.52"/>
<polygon fill="midnightblue" stroke="midnightblue" points="340.95,-95.27 347.01,-86.58 336.85,-89.59 340.95,-95.27"/>
</g>
<!-- Node16&#45;&gt;Node14 -->
<g id="edge22" class="edge">
<title>Node16&#45;&gt;Node14</title>
<path fill="none" stroke="midnightblue" d="M267.82,-123.4C262.74,-115.13 256.2,-104.51 250.41,-95.1"/>
<polygon fill="midnightblue" stroke="midnightblue" points="253.38,-93.26 245.16,-86.58 247.42,-96.93 253.38,-93.26"/>
</g>
</g>
</svg>
        <g id="navigator" transform="translate(0 0)" fill="#404254">
                <rect fill="#f2f5e9" fill-opacity="0.5" stroke="#606060" stroke-width=".5" x="0" y="0" width="60" height="60"/>
                <use id="zoomplus" xlink:href="#zoomPlus" x="17" y="9" onmousedown="handleZoom(evt,'in')"/>
                <use id="zoomminus" xlink:href="#zoomMin" x="42" y="9" onmousedown="handleZoom(evt,'out')"/>
                <use id="reset" xlink:href="#resetDef" x="30" y="36" onmousedown="handleReset()"/>
                <g id="arrowUp" xlink:href="#dirArrow" transform="translate(30 24)" onmousedown="handlePan(0,-1)">
                  <use xlink:href="#rim" fill="#404040">
                        <set attributeName="fill" to="#808080" begin="arrowUp.mouseover" end="arrowUp.mouseout"/>
                  </use>
                  <path fill="none" stroke="white" stroke-width="1.5" d="M0,-3.0v7 M-2.5,-0.5L0,-3.0L2.5,-0.5"/>
                </g>
                <g id="arrowRight" xlink:href="#dirArrow" transform="rotate(90) translate(36 -43)" onmousedown="handlePan(1,0)">
                  <use xlink:href="#rim" fill="#404040">
                        <set attributeName="fill" to="#808080" begin="arrowRight.mouseover" end="arrowRight.mouseout"/>
                  </use>
                  <path fill="none" stroke="white" stroke-width="1.5" d="M0,-3.0v7 M-2.5,-0.5L0,-3.0L2.5,-0.5"/>
                </g>
                <g id="arrowDown" xlink:href="#dirArrow" transform="rotate(180) translate(-30 -48)" onmousedown="handlePan(0,1)">
                  <use xlink:href="#rim" fill="#404040">
                        <set attributeName="fill" to="#808080" begin="arrowDown.mouseover" end="arrowDown.mouseout"/>
                  </use>
                  <path fill="none" stroke="white" stroke-width="1.5" d="M0,-3.0v7 M-2.5,-0.5L0,-3.0L2.5,-0.5"/>
                </g>
                <g id="arrowLeft" xlink:href="#dirArrow" transform="rotate(270) translate(-36 17)" onmousedown="handlePan(-1,0)">
                  <use xlink:href="#rim" fill="#404040">
                        <set attributeName="fill" to="#808080" begin="arrowLeft.mouseover" end="arrowLeft.mouseout"/>
                  </use>
                  <path fill="none" stroke="white" stroke-width="1.5" d="M0,-3.0v7 M-2.5,-0.5L0,-3.0L2.5,-0.5"/>
                </g>
        </g>
        <svg viewBox="0 0 15 15" width="100%" height="30px" preserveAspectRatio="xMaxYMin meet">
         <g id="arrow_out" transform="scale(0.3 0.3)">
          <a xlink:href="_menu_8cpp__incl_org.svg" target="_base">
           <rect id="button" ry="5" rx="5" y="6" x="6" height="38" width="38"
                fill="#f2f5e9" fill-opacity="0.5" stroke="#606060" stroke-width="1.0"/>
           <path id="arrow"
             d="M 11.500037,31.436501 C 11.940474,20.09759 22.043105,11.32322 32.158766,21.979434 L 37.068811,17.246167 C 37.068811,17.246167 37.088388,32 37.088388,32 L 22.160133,31.978069 C 22.160133,31.978069 26.997745,27.140456 26.997745,27.140456 C 18.528582,18.264221 13.291696,25.230495 11.500037,31.436501 z"
             style="fill:#404040;"/>
          </a>
         </g>
        </svg>
</svg>
