<?xml version="1.0" encoding="UTF-8" standalone="no"?>
<!DOCTYPE svg PUBLIC "-//W3C//DTD SVG 1.1//EN"
 "http://www.w3.org/Graphics/SVG/1.1/DTD/svg11.dtd">
<!-- Generated by graphviz version 2.43.0 (0)
 -->
<!-- Title: /home/tomek/CLionProjects/proi/proi&#45;projekt/src/game&#45;lib/include/PauseEventHandler.h Pages: 1 -->
<svg width="809pt" height="665pt"
 viewBox="0.00 0.00 809.00 665.00" xmlns="http://www.w3.org/2000/svg" xmlns:xlink="http://www.w3.org/1999/xlink">
<g id="graph0" class="graph" transform="scale(1 1) rotate(0) translate(4 661)">
<title>/home/tomek/CLionProjects/proi/proi&#45;projekt/src/game&#45;lib/include/PauseEventHandler.h</title>
<!-- Node1 -->
<g id="node1" class="node">
<title>Node1</title>
<g id="a_node1"><a xlink:title=" ">
<polygon fill="#bfbfbf" stroke="black" points="229.5,-615.5 229.5,-656.5 436.5,-656.5 436.5,-615.5 229.5,-615.5"/>
<text text-anchor="start" x="237.5" y="-644.5" font-family="Helvetica,sans-Serif" font-size="10.00">/home/tomek/CLionProjects</text>
<text text-anchor="start" x="237.5" y="-633.5" font-family="Helvetica,sans-Serif" font-size="10.00">/proi/proi&#45;projekt/src</text>
<text text-anchor="middle" x="333" y="-622.5" font-family="Helvetica,sans-Serif" font-size="10.00">/game&#45;lib/include/PauseEventHandler.h</text>
</a>
</g>
</g>
<!-- Node2 -->
<g id="node2" class="node">
<title>Node2</title>
<g id="a_node2"><a xlink:title=" ">
<polygon fill="none" stroke="#bfbfbf" points="431,-0.5 431,-19.5 489,-19.5 489,-0.5 431,-0.5"/>
<text text-anchor="middle" x="460" y="-7.5" font-family="Helvetica,sans-Serif" font-size="10.00">memory</text>
</a>
</g>
</g>
<!-- Node1&#45;&gt;Node2 -->
<g id="edge1" class="edge">
<title>Node1&#45;&gt;Node2</title>
<path fill="none" stroke="midnightblue" d="M229.46,-617.83C131.71,-598.61 0,-563.52 0,-514 0,-514 0,-514 0,-204.5 0,-123.92 32.96,-94.03 104,-56 158.07,-27.05 339.58,-16.01 420.5,-12.46"/>
<polygon fill="midnightblue" stroke="midnightblue" points="420.92,-15.94 430.77,-12.02 420.63,-8.95 420.92,-15.94"/>
</g>
<!-- Node3 -->
<g id="node3" class="node">
<title>Node3</title>
<g id="a_node3"><a xlink:href="_event_handler_8h.html" target="_top" xlink:title=" ">
<polygon fill="none" stroke="black" points="322,-436.5 322,-466.5 432,-466.5 432,-436.5 322,-436.5"/>
<text text-anchor="start" x="330" y="-454.5" font-family="Helvetica,sans-Serif" font-size="10.00">../../core&#45;lib/include</text>
<text text-anchor="middle" x="377" y="-443.5" font-family="Helvetica,sans-Serif" font-size="10.00">/EventHandler.h</text>
</a>
</g>
</g>
<!-- Node1&#45;&gt;Node3 -->
<g id="edge2" class="edge">
<title>Node1&#45;&gt;Node3</title>
<path fill="none" stroke="midnightblue" d="M322.04,-615.11C308.83,-588.28 290.58,-539.62 309,-503 315.37,-490.33 326.59,-480.04 338.1,-472.14"/>
<polygon fill="midnightblue" stroke="midnightblue" points="340.32,-474.87 346.88,-466.56 336.57,-468.97 340.32,-474.87"/>
</g>
<!-- Node18 -->
<g id="node18" class="node">
<title>Node18</title>
<g id="a_node18"><a xlink:href="_game_state_8h.html" target="_top" xlink:title=" ">
<polygon fill="none" stroke="black" points="337,-559.5 337,-578.5 417,-578.5 417,-559.5 337,-559.5"/>
<text text-anchor="middle" x="377" y="-566.5" font-family="Helvetica,sans-Serif" font-size="10.00">GameState.h</text>
</a>
</g>
</g>
<!-- Node1&#45;&gt;Node18 -->
<g id="edge29" class="edge">
<title>Node1&#45;&gt;Node18</title>
<path fill="none" stroke="midnightblue" d="M339.96,-615.5C345.49,-606.2 353.03,-595.21 359.98,-586.36"/>
<polygon fill="midnightblue" stroke="midnightblue" points="362.68,-588.58 366.38,-578.65 357.3,-584.11 362.68,-588.58"/>
</g>
<!-- Node3&#45;&gt;Node2 -->
<g id="edge3" class="edge">
<title>Node3&#45;&gt;Node2</title>
<path fill="none" stroke="midnightblue" d="M402.91,-436.46C433.27,-418.74 483.07,-385.51 512,-344 544.87,-296.84 543,-277.78 552,-221 561.1,-163.6 528.77,-60.21 526,-56 517.02,-42.35 502.33,-31.73 489.08,-24.25"/>
<polygon fill="midnightblue" stroke="midnightblue" points="490.71,-21.15 480.23,-19.57 487.43,-27.34 490.71,-21.15"/>
</g>
<!-- Node4 -->
<g id="node4" class="node">
<title>Node4</title>
<g id="a_node4"><a xlink:href="_event_8h.html" target="_top" xlink:title=" ">
<polygon fill="none" stroke="black" points="319.5,-263 319.5,-282 372.5,-282 372.5,-263 319.5,-263"/>
<text text-anchor="middle" x="346" y="-270" font-family="Helvetica,sans-Serif" font-size="10.00">Event.h</text>
</a>
</g>
</g>
<!-- Node3&#45;&gt;Node4 -->
<g id="edge4" class="edge">
<title>Node3&#45;&gt;Node4</title>
<path fill="none" stroke="midnightblue" d="M374.52,-436.31C368.97,-404.63 355.56,-328.11 349.31,-292.42"/>
<polygon fill="midnightblue" stroke="midnightblue" points="352.73,-291.62 347.55,-282.37 345.83,-292.83 352.73,-291.62"/>
</g>
<!-- Node14 -->
<g id="node14" class="node">
<title>Node14</title>
<g id="a_node14"><a xlink:href="_event_publisher_8h.html" target="_top" xlink:title=" ">
<polygon fill="none" stroke="black" points="171,-380.5 171,-399.5 269,-399.5 269,-380.5 171,-380.5"/>
<text text-anchor="middle" x="220" y="-387.5" font-family="Helvetica,sans-Serif" font-size="10.00">EventPublisher.h</text>
</a>
</g>
</g>
<!-- Node3&#45;&gt;Node14 -->
<g id="edge20" class="edge">
<title>Node3&#45;&gt;Node14</title>
<path fill="none" stroke="midnightblue" d="M339.79,-436.4C313.22,-426.33 277.81,-412.91 252.39,-403.28"/>
<polygon fill="midnightblue" stroke="midnightblue" points="253.44,-399.93 242.84,-399.66 250.96,-406.47 253.44,-399.93"/>
</g>
<!-- Node4&#45;&gt;Node2 -->
<g id="edge7" class="edge">
<title>Node4&#45;&gt;Node2</title>
<path fill="none" stroke="midnightblue" d="M319.3,-267.73C274.87,-260.85 188.87,-244.75 171,-221 143.38,-184.29 101.3,-147.69 192,-56 223.34,-24.32 354.34,-14.89 420.87,-12.12"/>
<polygon fill="midnightblue" stroke="midnightblue" points="421.11,-15.62 430.97,-11.74 420.84,-8.62 421.11,-15.62"/>
</g>
<!-- Node5 -->
<g id="node5" class="node">
<title>Node5</title>
<g id="a_node5"><a xlink:title=" ">
<polygon fill="none" stroke="#bfbfbf" points="377.5,-196 377.5,-215 442.5,-215 442.5,-196 377.5,-196"/>
<text text-anchor="middle" x="410" y="-203" font-family="Helvetica,sans-Serif" font-size="10.00">exception</text>
</a>
</g>
</g>
<!-- Node4&#45;&gt;Node5 -->
<g id="edge5" class="edge">
<title>Node4&#45;&gt;Node5</title>
<path fill="none" stroke="midnightblue" d="M354.63,-262.73C364.8,-252.4 381.9,-235.04 394.41,-222.33"/>
<polygon fill="midnightblue" stroke="midnightblue" points="396.98,-224.71 401.51,-215.13 392,-219.8 396.98,-224.71"/>
</g>
<!-- Node6 -->
<g id="node6" class="node">
<title>Node6</title>
<g id="a_node6"><a xlink:title=" ">
<polygon fill="none" stroke="#bfbfbf" points="499,-196 499,-215 543,-215 543,-196 499,-196"/>
<text text-anchor="middle" x="521" y="-203" font-family="Helvetica,sans-Serif" font-size="10.00">string</text>
</a>
</g>
</g>
<!-- Node4&#45;&gt;Node6 -->
<g id="edge6" class="edge">
<title>Node4&#45;&gt;Node6</title>
<path fill="none" stroke="midnightblue" d="M370.2,-262.99C398.01,-253.15 444.96,-236.33 485,-221 486.84,-220.3 488.73,-219.56 490.63,-218.82"/>
<polygon fill="midnightblue" stroke="midnightblue" points="492.1,-222 500.11,-215.06 489.52,-215.49 492.1,-222"/>
</g>
<!-- Node7 -->
<g id="node7" class="node">
<title>Node7</title>
<g id="a_node7"><a xlink:title=" ">
<polygon fill="none" stroke="#bfbfbf" points="308.5,-196 308.5,-215 359.5,-215 359.5,-196 308.5,-196"/>
<text text-anchor="middle" x="334" y="-203" font-family="Helvetica,sans-Serif" font-size="10.00">variant</text>
</a>
</g>
</g>
<!-- Node4&#45;&gt;Node7 -->
<g id="edge8" class="edge">
<title>Node4&#45;&gt;Node7</title>
<path fill="none" stroke="midnightblue" d="M344.38,-262.73C342.62,-253.18 339.74,-237.62 337.47,-225.28"/>
<polygon fill="midnightblue" stroke="midnightblue" points="340.85,-224.33 335.59,-215.13 333.97,-225.6 340.85,-224.33"/>
</g>
<!-- Node8 -->
<g id="node8" class="node">
<title>Node8</title>
<g id="a_node8"><a xlink:href="_entity_8h.html" target="_top" xlink:title=" ">
<polygon fill="none" stroke="black" points="407,-56.5 407,-86.5 517,-86.5 517,-56.5 407,-56.5"/>
<text text-anchor="start" x="415" y="-74.5" font-family="Helvetica,sans-Serif" font-size="10.00">../../tank&#45;lib/include</text>
<text text-anchor="middle" x="462" y="-63.5" font-family="Helvetica,sans-Serif" font-size="10.00">/Entity.h</text>
</a>
</g>
</g>
<!-- Node4&#45;&gt;Node8 -->
<g id="edge9" class="edge">
<title>Node4&#45;&gt;Node8</title>
<path fill="none" stroke="midnightblue" d="M372.59,-266.1C397.12,-259.67 432.59,-246.44 452,-221 479.6,-184.82 473.96,-128.15 467.75,-96.3"/>
<polygon fill="midnightblue" stroke="midnightblue" points="471.17,-95.57 465.67,-86.51 464.33,-97.02 471.17,-95.57"/>
</g>
<!-- Node9 -->
<g id="node9" class="node">
<title>Node9</title>
<g id="a_node9"><a xlink:href="_tank_8h.html" target="_top" xlink:title=" ">
<polygon fill="none" stroke="black" points="180,-190.5 180,-220.5 290,-220.5 290,-190.5 180,-190.5"/>
<text text-anchor="start" x="188" y="-208.5" font-family="Helvetica,sans-Serif" font-size="10.00">../../tank&#45;lib/include</text>
<text text-anchor="middle" x="235" y="-197.5" font-family="Helvetica,sans-Serif" font-size="10.00">/Tank.h</text>
</a>
</g>
</g>
<!-- Node4&#45;&gt;Node9 -->
<g id="edge10" class="edge">
<title>Node4&#45;&gt;Node9</title>
<path fill="none" stroke="midnightblue" d="M331.03,-262.73C314.95,-253.32 288.88,-238.05 267.96,-225.8"/>
<polygon fill="midnightblue" stroke="midnightblue" points="269.46,-222.62 259.06,-220.59 265.92,-228.66 269.46,-222.62"/>
</g>
<!-- Node9&#45;&gt;Node2 -->
<g id="edge11" class="edge">
<title>Node9&#45;&gt;Node2</title>
<path fill="none" stroke="midnightblue" d="M271.34,-190.46C290.49,-181.87 313.56,-169.53 331,-154 370.4,-118.91 361.22,-93.83 398,-56 409.56,-44.11 424.58,-33.12 436.93,-24.98"/>
<polygon fill="midnightblue" stroke="midnightblue" points="438.83,-27.92 445.37,-19.58 435.06,-22.02 438.83,-27.92"/>
</g>
<!-- Node9&#45;&gt;Node8 -->
<g id="edge16" class="edge">
<title>Node9&#45;&gt;Node8</title>
<path fill="none" stroke="midnightblue" d="M290.05,-191.87C350.74,-177.84 440.24,-156.78 443,-154 457.8,-139.06 461.94,-114.95 462.74,-96.82"/>
<polygon fill="midnightblue" stroke="midnightblue" points="466.24,-96.75 462.88,-86.7 459.24,-96.65 466.24,-96.75"/>
</g>
<!-- Node10 -->
<g id="node10" class="node">
<title>Node10</title>
<g id="a_node10"><a xlink:title=" ">
<polygon fill="none" stroke="#bfbfbf" points="378,-129 378,-148 434,-148 434,-129 378,-129"/>
<text text-anchor="middle" x="406" y="-136" font-family="Helvetica,sans-Serif" font-size="10.00">optional</text>
</a>
</g>
</g>
<!-- Node9&#45;&gt;Node10 -->
<g id="edge12" class="edge">
<title>Node9&#45;&gt;Node10</title>
<path fill="none" stroke="midnightblue" d="M272.1,-190.4C302.51,-178.84 345.08,-162.66 374,-151.66"/>
<polygon fill="midnightblue" stroke="midnightblue" points="375.52,-154.83 383.62,-148.01 373.03,-148.29 375.52,-154.83"/>
</g>
<!-- Node11 -->
<g id="node11" class="node">
<title>Node11</title>
<g id="a_node11"><a xlink:href="_simple_subscriber_8h.html" target="_top" xlink:title=" ">
<polygon fill="none" stroke="black" points="201.5,-56.5 201.5,-86.5 314.5,-86.5 314.5,-56.5 201.5,-56.5"/>
<text text-anchor="start" x="209.5" y="-74.5" font-family="Helvetica,sans-Serif" font-size="10.00">../../core&#45;lib/include</text>
<text text-anchor="middle" x="258" y="-63.5" font-family="Helvetica,sans-Serif" font-size="10.00">/SimpleSubscriber.h</text>
</a>
</g>
</g>
<!-- Node9&#45;&gt;Node11 -->
<g id="edge13" class="edge">
<title>Node9&#45;&gt;Node11</title>
<path fill="none" stroke="midnightblue" d="M224.57,-190.43C213.75,-174 199.63,-146.12 209,-123 213.58,-111.7 222.03,-101.54 230.64,-93.35"/>
<polygon fill="midnightblue" stroke="midnightblue" points="233.01,-95.93 238.16,-86.67 228.36,-90.7 233.01,-95.93"/>
</g>
<!-- Node13 -->
<g id="node13" class="node">
<title>Node13</title>
<g id="a_node13"><a xlink:href="_bot_8h.html" target="_top" xlink:title=" ">
<polygon fill="none" stroke="black" points="218,-123.5 218,-153.5 322,-153.5 322,-123.5 218,-123.5"/>
<text text-anchor="start" x="226" y="-141.5" font-family="Helvetica,sans-Serif" font-size="10.00">../../bot&#45;lib/include</text>
<text text-anchor="middle" x="270" y="-130.5" font-family="Helvetica,sans-Serif" font-size="10.00">/Bot.h</text>
</a>
</g>
</g>
<!-- Node9&#45;&gt;Node13 -->
<g id="edge17" class="edge">
<title>Node9&#45;&gt;Node13</title>
<path fill="none" stroke="midnightblue" d="M242.59,-190.4C247,-182.22 252.65,-171.73 257.67,-162.39"/>
<polygon fill="midnightblue" stroke="midnightblue" points="260.76,-164.04 262.42,-153.58 254.6,-160.72 260.76,-164.04"/>
</g>
<!-- Node11&#45;&gt;Node2 -->
<g id="edge15" class="edge">
<title>Node11&#45;&gt;Node2</title>
<path fill="none" stroke="midnightblue" d="M305.62,-56.47C340.92,-46.08 388.44,-32.08 421.39,-22.37"/>
<polygon fill="midnightblue" stroke="midnightblue" points="422.52,-25.69 431.12,-19.51 420.54,-18.97 422.52,-25.69"/>
</g>
<!-- Node12 -->
<g id="node12" class="node">
<title>Node12</title>
<g id="a_node12"><a xlink:title=" ">
<polygon fill="none" stroke="#bfbfbf" points="59.5,-0.5 59.5,-19.5 106.5,-19.5 106.5,-0.5 59.5,-0.5"/>
<text text-anchor="middle" x="83" y="-7.5" font-family="Helvetica,sans-Serif" font-size="10.00">vector</text>
</a>
</g>
</g>
<!-- Node11&#45;&gt;Node12 -->
<g id="edge14" class="edge">
<title>Node11&#45;&gt;Node12</title>
<path fill="none" stroke="midnightblue" d="M216.53,-56.4C185.97,-46.01 144.94,-32.06 116.46,-22.38"/>
<polygon fill="midnightblue" stroke="midnightblue" points="117.54,-19.05 106.95,-19.14 115.29,-25.67 117.54,-19.05"/>
</g>
<!-- Node13&#45;&gt;Node8 -->
<g id="edge18" class="edge">
<title>Node13&#45;&gt;Node8</title>
<path fill="none" stroke="midnightblue" d="M311.66,-123.4C340.72,-113.56 379.69,-100.37 410.67,-89.88"/>
<polygon fill="midnightblue" stroke="midnightblue" points="412.07,-93.1 420.42,-86.58 409.83,-86.47 412.07,-93.1"/>
</g>
<!-- Node13&#45;&gt;Node11 -->
<g id="edge19" class="edge">
<title>Node13&#45;&gt;Node11</title>
<path fill="none" stroke="midnightblue" d="M267.4,-123.4C265.95,-115.56 264.11,-105.6 262.44,-96.57"/>
<polygon fill="midnightblue" stroke="midnightblue" points="265.86,-95.77 260.6,-86.58 258.97,-97.05 265.86,-95.77"/>
</g>
<!-- Node14&#45;&gt;Node4 -->
<g id="edge23" class="edge">
<title>Node14&#45;&gt;Node4</title>
<path fill="none" stroke="midnightblue" d="M233.17,-380.37C245.91,-371.77 265.52,-357.88 281,-344 300.07,-326.91 319.69,-304.91 332.31,-290.06"/>
<polygon fill="midnightblue" stroke="midnightblue" points="335.13,-292.15 338.88,-282.24 329.77,-287.65 335.13,-292.15"/>
</g>
<!-- Node14&#45;&gt;Node12 -->
<g id="edge22" class="edge">
<title>Node14&#45;&gt;Node12</title>
<path fill="none" stroke="midnightblue" d="M191.55,-380.49C149.58,-365.97 76,-332.15 76,-273.5 76,-273.5 76,-273.5 76,-204.5 76,-140.47 79.87,-64.61 81.86,-29.96"/>
<polygon fill="midnightblue" stroke="midnightblue" points="85.36,-30.06 82.45,-19.87 78.37,-29.65 85.36,-30.06"/>
</g>
<!-- Node15 -->
<g id="node15" class="node">
<title>Node15</title>
<g id="a_node15"><a xlink:title=" ">
<polygon fill="none" stroke="#bfbfbf" points="104,-263 104,-282 142,-282 142,-263 104,-263"/>
<text text-anchor="middle" x="123" y="-270" font-family="Helvetica,sans-Serif" font-size="10.00">map</text>
</a>
</g>
</g>
<!-- Node14&#45;&gt;Node15 -->
<g id="edge21" class="edge">
<title>Node14&#45;&gt;Node15</title>
<path fill="none" stroke="midnightblue" d="M204.65,-380.46C191.27,-372.43 172.03,-359.35 159,-344 145.69,-328.32 135.64,-306.87 129.58,-291.77"/>
<polygon fill="midnightblue" stroke="midnightblue" points="132.72,-290.16 125.89,-282.06 126.18,-292.65 132.72,-290.16"/>
</g>
<!-- Node16 -->
<g id="node16" class="node">
<title>Node16</title>
<g id="a_node16"><a xlink:href="_event_subscriber_8h.html" target="_top" xlink:title=" ">
<polygon fill="none" stroke="black" points="168,-324.5 168,-343.5 272,-343.5 272,-324.5 168,-324.5"/>
<text text-anchor="middle" x="220" y="-331.5" font-family="Helvetica,sans-Serif" font-size="10.00">EventSubscriber.h</text>
</a>
</g>
</g>
<!-- Node14&#45;&gt;Node16 -->
<g id="edge24" class="edge">
<title>Node14&#45;&gt;Node16</title>
<path fill="none" stroke="midnightblue" d="M220,-380.08C220,-373.01 220,-362.86 220,-353.99"/>
<polygon fill="midnightblue" stroke="midnightblue" points="223.5,-353.75 220,-343.75 216.5,-353.75 223.5,-353.75"/>
</g>
<!-- Node16&#45;&gt;Node4 -->
<g id="edge28" class="edge">
<title>Node16&#45;&gt;Node4</title>
<path fill="none" stroke="midnightblue" d="M238.05,-324.48C259.2,-314.49 294.44,-297.85 318.88,-286.31"/>
<polygon fill="midnightblue" stroke="midnightblue" points="320.43,-289.44 327.98,-282.01 317.44,-283.11 320.43,-289.44"/>
</g>
<!-- Node16&#45;&gt;Node12 -->
<g id="edge26" class="edge">
<title>Node16&#45;&gt;Node12</title>
<path fill="none" stroke="midnightblue" d="M212.78,-324.27C198.09,-306.12 164.48,-262.53 145,-221 113.55,-153.94 94.06,-67.31 86.54,-29.75"/>
<polygon fill="midnightblue" stroke="midnightblue" points="89.94,-28.89 84.59,-19.74 83.07,-30.22 89.94,-28.89"/>
</g>
<!-- Node16&#45;&gt;Node15 -->
<g id="edge25" class="edge">
<title>Node16&#45;&gt;Node15</title>
<path fill="none" stroke="midnightblue" d="M206.1,-324.48C190.33,-314.8 164.36,-298.87 145.65,-287.39"/>
<polygon fill="midnightblue" stroke="midnightblue" points="147.23,-284.25 136.87,-282.01 143.57,-290.22 147.23,-284.25"/>
</g>
<!-- Node17 -->
<g id="node17" class="node">
<title>Node17</title>
<g id="a_node17"><a xlink:title=" ">
<polygon fill="none" stroke="#bfbfbf" points="414,-263 414,-282 446,-282 446,-263 414,-263"/>
<text text-anchor="middle" x="430" y="-270" font-family="Helvetica,sans-Serif" font-size="10.00">list</text>
</a>
</g>
</g>
<!-- Node16&#45;&gt;Node17 -->
<g id="edge27" class="edge">
<title>Node16&#45;&gt;Node17</title>
<path fill="none" stroke="midnightblue" d="M251.42,-324.5C284.1,-315.6 336.72,-301.13 382,-288 389.08,-285.95 396.72,-283.67 403.79,-281.53"/>
<polygon fill="midnightblue" stroke="midnightblue" points="405.04,-284.81 413.59,-278.56 403,-278.12 405.04,-284.81"/>
</g>
<!-- Node18&#45;&gt;Node1 -->
<g id="edge45" class="edge">
<title>Node18&#45;&gt;Node1</title>
<path fill="none" stroke="midnightblue" d="M375.91,-578.65C372.48,-586.04 365.65,-597.07 358.35,-607.42"/>
<polygon fill="midnightblue" stroke="midnightblue" points="355.52,-605.36 352.45,-615.5 361.17,-609.49 355.52,-605.36"/>
</g>
<!-- Node18&#45;&gt;Node2 -->
<g id="edge30" class="edge">
<title>Node18&#45;&gt;Node2</title>
<path fill="none" stroke="midnightblue" d="M417.14,-566.37C498.59,-562.51 680.18,-550.97 735,-523 773.23,-503.5 801,-495.42 801,-452.5 801,-452.5 801,-452.5 801,-137.5 801,-93.8 782.87,-79.46 746,-56 705.76,-30.4 568.04,-18.03 499.45,-13.34"/>
<polygon fill="midnightblue" stroke="midnightblue" points="499.67,-9.84 489.46,-12.68 499.21,-16.83 499.67,-9.84"/>
</g>
<!-- Node19 -->
<g id="node19" class="node">
<title>Node19</title>
<g id="a_node19"><a xlink:href="_active_event_handler_8h.html" target="_top" xlink:title=" ">
<polygon fill="none" stroke="black" points="454,-503.5 454,-522.5 576,-522.5 576,-503.5 454,-503.5"/>
<text text-anchor="middle" x="515" y="-510.5" font-family="Helvetica,sans-Serif" font-size="10.00">ActiveEventHandler.h</text>
</a>
</g>
</g>
<!-- Node18&#45;&gt;Node19 -->
<g id="edge31" class="edge">
<title>Node18&#45;&gt;Node19</title>
<path fill="none" stroke="midnightblue" d="M398.87,-559.44C421.78,-550.48 457.98,-536.31 483.87,-526.18"/>
<polygon fill="midnightblue" stroke="midnightblue" points="485.2,-529.42 493.24,-522.52 482.65,-522.9 485.2,-529.42"/>
</g>
<!-- Node23 -->
<g id="node23" class="node">
<title>Node23</title>
<g id="a_node23"><a xlink:href="_menu_event_handler_8h.html" target="_top" xlink:title=" ">
<polygon fill="none" stroke="black" points="318,-503.5 318,-522.5 436,-522.5 436,-503.5 318,-503.5"/>
<text text-anchor="middle" x="377" y="-510.5" font-family="Helvetica,sans-Serif" font-size="10.00">MenuEventHandler.h</text>
</a>
</g>
</g>
<!-- Node18&#45;&gt;Node23 -->
<g id="edge41" class="edge">
<title>Node18&#45;&gt;Node23</title>
<path fill="none" stroke="midnightblue" d="M371.83,-559.08C370.32,-551.93 369.89,-541.64 370.54,-532.69"/>
<polygon fill="midnightblue" stroke="midnightblue" points="374.02,-533.13 371.87,-522.75 367.08,-532.2 374.02,-533.13"/>
</g>
<!-- Node24 -->
<g id="node24" class="node">
<title>Node24</title>
<g id="a_node24"><a xlink:href="_finished_event_handler_8h.html" target="_top" xlink:title=" ">
<polygon fill="none" stroke="black" points="594.5,-503.5 594.5,-522.5 725.5,-522.5 725.5,-503.5 594.5,-503.5"/>
<text text-anchor="middle" x="660" y="-510.5" font-family="Helvetica,sans-Serif" font-size="10.00">FinishedEventHandler.h</text>
</a>
</g>
</g>
<!-- Node18&#45;&gt;Node24 -->
<g id="edge46" class="edge">
<title>Node18&#45;&gt;Node24</title>
<path fill="none" stroke="midnightblue" d="M417.25,-560.32C466.52,-550.92 550.2,-534.95 605.28,-524.44"/>
<polygon fill="midnightblue" stroke="midnightblue" points="606.06,-527.86 615.22,-522.54 604.74,-520.98 606.06,-527.86"/>
</g>
<!-- Node19&#45;&gt;Node2 -->
<g id="edge32" class="edge">
<title>Node19&#45;&gt;Node2</title>
<path fill="none" stroke="midnightblue" d="M526.4,-503.37C548.93,-485.24 597,-440.74 597,-391 597,-391 597,-391 597,-333 597,-207.66 621.22,-154.73 544,-56 532.33,-41.08 514.29,-30.5 497.91,-23.37"/>
<polygon fill="midnightblue" stroke="midnightblue" points="499.11,-20.07 488.53,-19.56 496.48,-26.56 499.11,-20.07"/>
</g>
<!-- Node19&#45;&gt;Node3 -->
<g id="edge33" class="edge">
<title>Node19&#45;&gt;Node3</title>
<path fill="none" stroke="midnightblue" d="M495.23,-503.48C475.4,-494.93 444.26,-481.5 418.92,-470.57"/>
<polygon fill="midnightblue" stroke="midnightblue" points="420.09,-467.27 409.52,-466.52 417.32,-473.7 420.09,-467.27"/>
</g>
<!-- Node20 -->
<g id="node20" class="node">
<title>Node20</title>
<g id="a_node20"><a xlink:href="_event_queue_8h.html" target="_top" xlink:title=" ">
<polygon fill="none" stroke="black" points="625,-257.5 625,-287.5 735,-287.5 735,-257.5 625,-257.5"/>
<text text-anchor="start" x="633" y="-275.5" font-family="Helvetica,sans-Serif" font-size="10.00">../../core&#45;lib/include</text>
<text text-anchor="middle" x="680" y="-264.5" font-family="Helvetica,sans-Serif" font-size="10.00">/EventQueue.h</text>
</a>
</g>
</g>
<!-- Node19&#45;&gt;Node20 -->
<g id="edge34" class="edge">
<title>Node19&#45;&gt;Node20</title>
<path fill="none" stroke="midnightblue" d="M548.79,-503.37C569.27,-496.56 594.54,-485.12 611,-467 655.72,-417.78 671.9,-337.6 677.39,-297.68"/>
<polygon fill="midnightblue" stroke="midnightblue" points="680.89,-297.9 678.67,-287.54 673.95,-297.02 680.89,-297.9"/>
</g>
<!-- Node22 -->
<g id="node22" class="node">
<title>Node22</title>
<g id="a_node22"><a xlink:href="_game_statistics_8h.html" target="_top" xlink:title=" ">
<polygon fill="none" stroke="black" points="403,-324.5 403,-343.5 503,-343.5 503,-324.5 403,-324.5"/>
<text text-anchor="middle" x="453" y="-331.5" font-family="Helvetica,sans-Serif" font-size="10.00">GameStatistics.h</text>
</a>
</g>
</g>
<!-- Node19&#45;&gt;Node22 -->
<g id="edge37" class="edge">
<title>Node19&#45;&gt;Node22</title>
<path fill="none" stroke="midnightblue" d="M512.01,-503.46C502.5,-476.31 472.8,-391.51 459.52,-353.62"/>
<polygon fill="midnightblue" stroke="midnightblue" points="462.72,-352.15 456.11,-343.87 456.11,-354.46 462.72,-352.15"/>
</g>
<!-- Node20&#45;&gt;Node2 -->
<g id="edge36" class="edge">
<title>Node20&#45;&gt;Node2</title>
<path fill="none" stroke="midnightblue" d="M676.39,-257.5C664.15,-210 624.84,-57.86 623,-56 590.49,-23.14 536.31,-13.68 499.41,-11.26"/>
<polygon fill="midnightblue" stroke="midnightblue" points="499.19,-7.75 489.03,-10.74 498.84,-14.74 499.19,-7.75"/>
</g>
<!-- Node21 -->
<g id="node21" class="node">
<title>Node21</title>
<g id="a_node21"><a xlink:title=" ">
<polygon fill="none" stroke="#bfbfbf" points="675.5,-196 675.5,-215 722.5,-215 722.5,-196 675.5,-196"/>
<text text-anchor="middle" x="699" y="-203" font-family="Helvetica,sans-Serif" font-size="10.00">queue</text>
</a>
</g>
</g>
<!-- Node20&#45;&gt;Node21 -->
<g id="edge35" class="edge">
<title>Node20&#45;&gt;Node21</title>
<path fill="none" stroke="midnightblue" d="M684.12,-257.4C686.91,-247.86 690.62,-235.18 693.63,-224.86"/>
<polygon fill="midnightblue" stroke="midnightblue" points="697.01,-225.77 696.46,-215.19 690.29,-223.81 697.01,-225.77"/>
</g>
<!-- Node22&#45;&gt;Node4 -->
<g id="edge40" class="edge">
<title>Node22&#45;&gt;Node4</title>
<path fill="none" stroke="midnightblue" d="M437.67,-324.48C420.03,-314.67 390.84,-298.43 370.14,-286.92"/>
<polygon fill="midnightblue" stroke="midnightblue" points="371.74,-283.81 361.3,-282.01 368.34,-289.93 371.74,-283.81"/>
</g>
<!-- Node22&#45;&gt;Node17 -->
<g id="edge38" class="edge">
<title>Node22&#45;&gt;Node17</title>
<path fill="none" stroke="midnightblue" d="M449.7,-324.48C446.39,-315.9 441.18,-302.43 436.95,-291.48"/>
<polygon fill="midnightblue" stroke="midnightblue" points="440.16,-290.07 433.29,-282.01 433.63,-292.6 440.16,-290.07"/>
</g>
<!-- Node22&#45;&gt;Node20 -->
<g id="edge39" class="edge">
<title>Node22&#45;&gt;Node20</title>
<path fill="none" stroke="midnightblue" d="M485.52,-324.48C519.64,-315.53 574.14,-301.25 616.77,-290.07"/>
<polygon fill="midnightblue" stroke="midnightblue" points="617.71,-293.44 626.5,-287.52 615.94,-286.67 617.71,-293.44"/>
</g>
<!-- Node23&#45;&gt;Node2 -->
<g id="edge42" class="edge">
<title>Node23&#45;&gt;Node2</title>
<path fill="none" stroke="midnightblue" d="M318.72,-503.48C221.8,-487.66 38,-449.9 38,-391 38,-391 38,-391 38,-204.5 38,-36.97 316.21,-13.92 420.85,-11.18"/>
<polygon fill="midnightblue" stroke="midnightblue" points="421.07,-14.68 430.99,-10.97 420.92,-7.68 421.07,-14.68"/>
</g>
<!-- Node23&#45;&gt;Node3 -->
<g id="edge43" class="edge">
<title>Node23&#45;&gt;Node3</title>
<path fill="none" stroke="midnightblue" d="M377,-503.48C377,-496.47 377,-486.19 377,-476.7"/>
<polygon fill="midnightblue" stroke="midnightblue" points="380.5,-476.52 377,-466.52 373.5,-476.52 380.5,-476.52"/>
</g>
<!-- Node23&#45;&gt;Node18 -->
<g id="edge44" class="edge">
<title>Node23&#45;&gt;Node18</title>
<path fill="none" stroke="midnightblue" d="M382.13,-522.75C383.66,-529.86 384.1,-540.14 383.47,-549.1"/>
<polygon fill="midnightblue" stroke="midnightblue" points="379.99,-548.71 382.17,-559.08 386.93,-549.62 379.99,-548.71"/>
</g>
<!-- Node24&#45;&gt;Node2 -->
<g id="edge47" class="edge">
<title>Node24&#45;&gt;Node2</title>
<path fill="none" stroke="midnightblue" d="M675.64,-503.3C704.46,-485.98 763,-444.24 763,-391 763,-391 763,-391 763,-137.5 763,-24.46 581.18,-10.64 499.23,-10.15"/>
<polygon fill="midnightblue" stroke="midnightblue" points="499.05,-6.65 489.05,-10.16 499.05,-13.65 499.05,-6.65"/>
</g>
<!-- Node24&#45;&gt;Node3 -->
<g id="edge48" class="edge">
<title>Node24&#45;&gt;Node3</title>
<path fill="none" stroke="midnightblue" d="M619.45,-503.48C573.12,-493.73 496.67,-477.66 442,-466.17"/>
<polygon fill="midnightblue" stroke="midnightblue" points="442.56,-462.71 432.05,-464.07 441.12,-469.56 442.56,-462.71"/>
</g>
</g>
</svg>
