<?xml version="1.0" encoding="UTF-8" standalone="no"?>
<!DOCTYPE svg PUBLIC "-//W3C//DTD SVG 1.1//EN"
 "http://www.w3.org/Graphics/SVG/1.1/DTD/svg11.dtd">
<!-- Generated by graphviz version 2.43.0 (0)
 -->
<!-- Title: /home/tomek/CLionProjects/proi/proi&#45;projekt/src/game&#45;lib/PauseEventHandler.cpp Pages: 1 -->
<!--zoomable 732 -->
<svg id="main" version="1.1" xmlns="http://www.w3.org/2000/svg" xmlns:xlink="http://www.w3.org/1999/xlink" xml:space="preserve" onload="init(evt)">
<style type="text/css"><![CDATA[
.edge:hover path { stroke: red; }
.edge:hover polygon { stroke: red; fill: red; }
]]></style>
<script type="text/javascript"><![CDATA[
var edges = document.getElementsByTagName('g');
if (edges && edges.length) {
  for (var i=0;i<edges.length;i++) {
    if (edges[i].id.substr(0,4)=='edge') {
      edges[i].setAttribute('class','edge');
    }
  }
}
]]></script>
        <defs>
                <circle id="rim" cx="0" cy="0" r="7"/>
                <circle id="rim2" cx="0" cy="0" r="3.5"/>
                <g id="zoomPlus">
                        <use xlink:href="#rim" fill="#404040">
                                <set attributeName="fill" to="#808080" begin="zoomplus.mouseover" end="zoomplus.mouseout"/>
                        </use>
                        <path d="M-4,0h8M0,-4v8" fill="none" stroke="white" stroke-width="1.5" pointer-events="none"/>
                </g>
                <g id="zoomMin">
                        <use xlink:href="#rim" fill="#404040">
                                <set attributeName="fill" to="#808080" begin="zoomminus.mouseover" end="zoomminus.mouseout"/>
                        </use>
                        <path d="M-4,0h8" fill="none" stroke="white" stroke-width="1.5" pointer-events="none"/>
                </g>
                <g id="dirArrow">
                        <path fill="none" stroke="white" stroke-width="1.5" d="M0,-3.0v7 M-2.5,-0.5L0,-3.0L2.5,-0.5"/>
                </g>
               <g id="resetDef">
                       <use xlink:href="#rim2" fill="#404040">
                               <set attributeName="fill" to="#808080" begin="reset.mouseover" end="reset.mouseout"/>
                       </use>
               </g>
        </defs>

<script type="text/javascript">
var viewWidth = 1230;
var viewHeight = 732;
var sectionId = 'dynsection-0';
</script>
<script xlink:href="svgpan.js"/>
<svg id="graph" class="graph">
<g id="viewport">
<title>/home/tomek/CLionProjects/proi/proi&#45;projekt/src/game&#45;lib/PauseEventHandler.cpp</title>
<!-- Node1 -->
<g id="node1" class="node">
<title>Node1</title>
<g id="a_node1"><a xlink:title=" ">
<polygon fill="#bfbfbf" stroke="black" points="333,-682.5 333,-723.5 513,-723.5 513,-682.5 333,-682.5"/>
<text text-anchor="start" x="341" y="-711.5" font-family="Helvetica,sans-Serif" font-size="10.00">/home/tomek/CLionProjects</text>
<text text-anchor="start" x="341" y="-700.5" font-family="Helvetica,sans-Serif" font-size="10.00">/proi/proi&#45;projekt/src</text>
<text text-anchor="middle" x="423" y="-689.5" font-family="Helvetica,sans-Serif" font-size="10.00">/game&#45;lib/PauseEventHandler.cpp</text>
</a>
</g>
</g>
<!-- Node2 -->
<g id="node2" class="node">
<title>Node2</title>
<g id="a_node2"><a xlink:title=" ">
<polygon fill="none" stroke="#bfbfbf" points="606.5,-514.5 606.5,-533.5 651.5,-533.5 651.5,-514.5 606.5,-514.5"/>
<text text-anchor="middle" x="629" y="-521.5" font-family="Helvetica,sans-Serif" font-size="10.00">utility</text>
</a>
</g>
</g>
<!-- Node1&#45;&gt;Node2 -->
<g id="edge1" class="edge">
<title>Node1&#45;&gt;Node2</title>
<path fill="none" stroke="midnightblue" d="M445.83,-682.38C487.15,-646.88 573.49,-572.69 610.98,-540.48"/>
<polygon fill="midnightblue" stroke="midnightblue" points="613.71,-542.76 619.01,-533.58 609.14,-537.45 613.71,-542.76"/>
</g>
<!-- Node3 -->
<g id="node3" class="node">
<title>Node3</title>
<g id="a_node3"><a xlink:title=" ">
<polygon fill="none" stroke="#bfbfbf" points="335,-626.5 335,-645.5 395,-645.5 395,-626.5 335,-626.5"/>
<text text-anchor="middle" x="365" y="-633.5" font-family="Helvetica,sans-Serif" font-size="10.00">iostream</text>
</a>
</g>
</g>
<!-- Node1&#45;&gt;Node3 -->
<g id="edge2" class="edge">
<title>Node1&#45;&gt;Node3</title>
<path fill="none" stroke="midnightblue" d="M405.6,-682.5C397.3,-673.2 387.49,-662.21 379.6,-653.36"/>
<polygon fill="midnightblue" stroke="midnightblue" points="381.99,-650.78 372.72,-645.65 376.77,-655.44 381.99,-650.78"/>
</g>
<!-- Node4 -->
<g id="node4" class="node">
<title>Node4</title>
<g id="a_node4"><a xlink:href="_pause_event_handler_8h.html" target="_top" xlink:title=" ">
<polygon fill="none" stroke="black" points="159,-626.5 159,-645.5 317,-645.5 317,-626.5 159,-626.5"/>
<text text-anchor="middle" x="238" y="-633.5" font-family="Helvetica,sans-Serif" font-size="10.00">include/PauseEventHandler.h</text>
</a>
</g>
</g>
<!-- Node1&#45;&gt;Node4 -->
<g id="edge3" class="edge">
<title>Node1&#45;&gt;Node4</title>
<path fill="none" stroke="midnightblue" d="M367.49,-682.5C336.54,-671.62 298.97,-658.42 272.28,-649.05"/>
<polygon fill="midnightblue" stroke="midnightblue" points="273.22,-645.67 262.63,-645.65 270.9,-652.27 273.22,-645.67"/>
</g>
<!-- Node6 -->
<g id="node6" class="node">
<title>Node6</title>
<g id="a_node6"><a xlink:href="_event_handler_8h.html" target="_top" xlink:title=" ">
<polygon fill="none" stroke="black" points="220,-447.5 220,-477.5 330,-477.5 330,-447.5 220,-447.5"/>
<text text-anchor="start" x="228" y="-465.5" font-family="Helvetica,sans-Serif" font-size="10.00">../../core&#45;lib/include</text>
<text text-anchor="middle" x="275" y="-454.5" font-family="Helvetica,sans-Serif" font-size="10.00">/EventHandler.h</text>
</a>
</g>
</g>
<!-- Node1&#45;&gt;Node6 -->
<g id="edge80" class="edge">
<title>Node1&#45;&gt;Node6</title>
<path fill="none" stroke="midnightblue" d="M421.09,-682.36C416.54,-645.36 402.05,-564.52 359,-514 347.85,-500.92 332.42,-490.29 317.82,-482.23"/>
<polygon fill="midnightblue" stroke="midnightblue" points="319.36,-479.09 308.88,-477.54 316.11,-485.28 319.36,-479.09"/>
</g>
<!-- Node28 -->
<g id="node28" class="node">
<title>Node28</title>
<g id="a_node28"><a xlink:href="_game_8h.html" target="_top" xlink:title=" ">
<polygon fill="none" stroke="black" points="633.5,-626.5 633.5,-645.5 726.5,-645.5 726.5,-626.5 633.5,-626.5"/>
<text text-anchor="middle" x="680" y="-633.5" font-family="Helvetica,sans-Serif" font-size="10.00">include/Game.h</text>
</a>
</g>
</g>
<!-- Node1&#45;&gt;Node28 -->
<g id="edge52" class="edge">
<title>Node1&#45;&gt;Node28</title>
<path fill="none" stroke="midnightblue" d="M500.11,-682.5C544.57,-671.25 598.86,-657.52 636.1,-648.1"/>
<polygon fill="midnightblue" stroke="midnightblue" points="637.29,-651.41 646.13,-645.57 635.57,-644.63 637.29,-651.41"/>
</g>
<!-- Node5 -->
<g id="node5" class="node">
<title>Node5</title>
<g id="a_node5"><a xlink:title=" ">
<polygon fill="none" stroke="#bfbfbf" points="396,-0.5 396,-19.5 454,-19.5 454,-0.5 396,-0.5"/>
<text text-anchor="middle" x="425" y="-7.5" font-family="Helvetica,sans-Serif" font-size="10.00">memory</text>
</a>
</g>
</g>
<!-- Node4&#45;&gt;Node5 -->
<g id="edge4" class="edge">
<title>Node4&#45;&gt;Node5</title>
<path fill="none" stroke="midnightblue" d="M158.75,-630.43C89.52,-621.65 0,-596.47 0,-525 0,-525 0,-525 0,-137.5 0,-91.99 22.55,-78.69 62,-56 116.45,-24.69 303.52,-14.9 385.72,-12.06"/>
<polygon fill="midnightblue" stroke="midnightblue" points="386.03,-15.56 395.91,-11.73 385.8,-8.56 386.03,-15.56"/>
</g>
<!-- Node4&#45;&gt;Node6 -->
<g id="edge5" class="edge">
<title>Node4&#45;&gt;Node6</title>
<path fill="none" stroke="midnightblue" d="M260.94,-626.46C278.22,-619.04 301.5,-606.84 317,-590 335.58,-569.81 337.08,-560.8 343,-534 344.92,-525.32 346.99,-521.94 343,-514 336.63,-501.33 325.41,-491.04 313.9,-483.14"/>
<polygon fill="midnightblue" stroke="midnightblue" points="315.43,-479.97 305.12,-477.56 311.68,-485.87 315.43,-479.97"/>
</g>
<!-- Node21 -->
<g id="node21" class="node">
<title>Node21</title>
<g id="a_node21"><a xlink:href="_game_state_8h.html" target="_top" xlink:title=" ">
<polygon fill="none" stroke="black" points="228,-570.5 228,-589.5 308,-589.5 308,-570.5 228,-570.5"/>
<text text-anchor="middle" x="268" y="-577.5" font-family="Helvetica,sans-Serif" font-size="10.00">GameState.h</text>
</a>
</g>
</g>
<!-- Node4&#45;&gt;Node21 -->
<g id="edge32" class="edge">
<title>Node4&#45;&gt;Node21</title>
<path fill="none" stroke="midnightblue" d="M237.79,-626.08C240.39,-618.53 246.13,-607.49 252.09,-598.23"/>
<polygon fill="midnightblue" stroke="midnightblue" points="255.15,-599.95 258.01,-589.75 249.41,-595.95 255.15,-599.95"/>
</g>
<!-- Node6&#45;&gt;Node5 -->
<g id="edge6" class="edge">
<title>Node6&#45;&gt;Node5</title>
<path fill="none" stroke="midnightblue" d="M261.95,-447.47C243.49,-426.1 212,-383.37 212,-340.5 212,-340.5 212,-340.5 212,-137.5 212,-99.74 208.61,-81.99 236,-56 257.3,-35.79 337.06,-22.25 385.9,-15.66"/>
<polygon fill="midnightblue" stroke="midnightblue" points="386.36,-19.13 395.82,-14.36 385.45,-12.19 386.36,-19.13"/>
</g>
<!-- Node7 -->
<g id="node7" class="node">
<title>Node7</title>
<g id="a_node7"><a xlink:href="_event_8h.html" target="_top" xlink:title=" ">
<polygon fill="none" stroke="black" points="514.5,-263 514.5,-282 567.5,-282 567.5,-263 514.5,-263"/>
<text text-anchor="middle" x="541" y="-270" font-family="Helvetica,sans-Serif" font-size="10.00">Event.h</text>
</a>
</g>
</g>
<!-- Node6&#45;&gt;Node7 -->
<g id="edge7" class="edge">
<title>Node6&#45;&gt;Node7</title>
<path fill="none" stroke="midnightblue" d="M330.12,-458.14C370.79,-453.15 425.52,-440.91 464,-411 504.03,-379.88 526.46,-321.76 535.79,-292.04"/>
<polygon fill="midnightblue" stroke="midnightblue" points="539.23,-292.74 538.73,-282.15 532.52,-290.74 539.23,-292.74"/>
</g>
<!-- Node17 -->
<g id="node17" class="node">
<title>Node17</title>
<g id="a_node17"><a xlink:href="_event_publisher_8h.html" target="_top" xlink:title=" ">
<polygon fill="none" stroke="black" points="357,-391.5 357,-410.5 455,-410.5 455,-391.5 357,-391.5"/>
<text text-anchor="middle" x="406" y="-398.5" font-family="Helvetica,sans-Serif" font-size="10.00">EventPublisher.h</text>
</a>
</g>
</g>
<!-- Node6&#45;&gt;Node17 -->
<g id="edge23" class="edge">
<title>Node6&#45;&gt;Node17</title>
<path fill="none" stroke="midnightblue" d="M306.05,-447.4C327.73,-437.55 356.46,-424.5 377.55,-414.92"/>
<polygon fill="midnightblue" stroke="midnightblue" points="379.28,-417.98 386.94,-410.66 376.39,-411.61 379.28,-417.98"/>
</g>
<!-- Node7&#45;&gt;Node5 -->
<g id="edge10" class="edge">
<title>Node7&#45;&gt;Node5</title>
<path fill="none" stroke="midnightblue" d="M514.16,-263.37C493.94,-255.78 467.33,-242.35 453,-221 412.69,-160.94 417.79,-69.23 422.32,-29.94"/>
<polygon fill="midnightblue" stroke="midnightblue" points="425.85,-29.89 423.65,-19.52 418.91,-29 425.85,-29.89"/>
</g>
<!-- Node8 -->
<g id="node8" class="node">
<title>Node8</title>
<g id="a_node8"><a xlink:title=" ">
<polygon fill="none" stroke="#bfbfbf" points="707.5,-196 707.5,-215 772.5,-215 772.5,-196 707.5,-196"/>
<text text-anchor="middle" x="740" y="-203" font-family="Helvetica,sans-Serif" font-size="10.00">exception</text>
</a>
</g>
</g>
<!-- Node7&#45;&gt;Node8 -->
<g id="edge8" class="edge">
<title>Node7&#45;&gt;Node8</title>
<path fill="none" stroke="midnightblue" d="M567.43,-262.87C602.54,-251.4 664.7,-231.09 704.06,-218.24"/>
<polygon fill="midnightblue" stroke="midnightblue" points="705.36,-221.5 713.78,-215.06 703.19,-214.84 705.36,-221.5"/>
</g>
<!-- Node9 -->
<g id="node9" class="node">
<title>Node9</title>
<g id="a_node9"><a xlink:title=" ">
<polygon fill="none" stroke="#bfbfbf" points="569,-196 569,-215 613,-215 613,-196 569,-196"/>
<text text-anchor="middle" x="591" y="-203" font-family="Helvetica,sans-Serif" font-size="10.00">string</text>
</a>
</g>
</g>
<!-- Node7&#45;&gt;Node9 -->
<g id="edge9" class="edge">
<title>Node7&#45;&gt;Node9</title>
<path fill="none" stroke="midnightblue" d="M547.74,-262.73C555.54,-252.6 568.55,-235.69 578.26,-223.06"/>
<polygon fill="midnightblue" stroke="midnightblue" points="581.04,-225.19 584.36,-215.13 575.49,-220.92 581.04,-225.19"/>
</g>
<!-- Node10 -->
<g id="node10" class="node">
<title>Node10</title>
<g id="a_node10"><a xlink:title=" ">
<polygon fill="none" stroke="#bfbfbf" points="461.5,-196 461.5,-215 512.5,-215 512.5,-196 461.5,-196"/>
<text text-anchor="middle" x="487" y="-203" font-family="Helvetica,sans-Serif" font-size="10.00">variant</text>
</a>
</g>
</g>
<!-- Node7&#45;&gt;Node10 -->
<g id="edge11" class="edge">
<title>Node7&#45;&gt;Node10</title>
<path fill="none" stroke="midnightblue" d="M533.72,-262.73C525.3,-252.6 511.25,-235.69 500.75,-223.06"/>
<polygon fill="midnightblue" stroke="midnightblue" points="503.25,-220.58 494.17,-215.13 497.87,-225.06 503.25,-220.58"/>
</g>
<!-- Node11 -->
<g id="node11" class="node">
<title>Node11</title>
<g id="a_node11"><a xlink:href="_entity_8h.html" target="_top" xlink:title=" ">
<polygon fill="none" stroke="black" points="941,-56.5 941,-86.5 1051,-86.5 1051,-56.5 941,-56.5"/>
<text text-anchor="start" x="949" y="-74.5" font-family="Helvetica,sans-Serif" font-size="10.00">../../tank&#45;lib/include</text>
<text text-anchor="middle" x="996" y="-63.5" font-family="Helvetica,sans-Serif" font-size="10.00">/Entity.h</text>
</a>
</g>
</g>
<!-- Node7&#45;&gt;Node11 -->
<g id="edge12" class="edge">
<title>Node7&#45;&gt;Node11</title>
<path fill="none" stroke="midnightblue" d="M540.24,-262.92C539.28,-246.3 539.75,-209.6 560,-190 618.94,-132.96 661.59,-174.52 741,-154 813.71,-135.21 896.23,-107.67 947.2,-89.91"/>
<polygon fill="midnightblue" stroke="midnightblue" points="948.37,-93.21 956.65,-86.61 946.06,-86.61 948.37,-93.21"/>
</g>
<!-- Node12 -->
<g id="node12" class="node">
<title>Node12</title>
<g id="a_node12"><a xlink:href="_tank_8h.html" target="_top" xlink:title=" ">
<polygon fill="none" stroke="black" points="932,-190.5 932,-220.5 1042,-220.5 1042,-190.5 932,-190.5"/>
<text text-anchor="start" x="940" y="-208.5" font-family="Helvetica,sans-Serif" font-size="10.00">../../tank&#45;lib/include</text>
<text text-anchor="middle" x="987" y="-197.5" font-family="Helvetica,sans-Serif" font-size="10.00">/Tank.h</text>
</a>
</g>
</g>
<!-- Node7&#45;&gt;Node12 -->
<g id="edge13" class="edge">
<title>Node7&#45;&gt;Node12</title>
<path fill="none" stroke="midnightblue" d="M567.56,-267.63C636.46,-257.59 822.44,-230.48 922,-215.97"/>
<polygon fill="midnightblue" stroke="midnightblue" points="922.56,-219.43 931.95,-214.52 921.55,-212.5 922.56,-219.43"/>
</g>
<!-- Node12&#45;&gt;Node5 -->
<g id="edge14" class="edge">
<title>Node12&#45;&gt;Node5</title>
<path fill="none" stroke="midnightblue" d="M931.74,-192.67C903.46,-184.82 869.52,-172.48 843,-154 796.64,-121.69 811.42,-83.41 762,-56 711.59,-28.04 541.94,-16.55 464.34,-12.67"/>
<polygon fill="midnightblue" stroke="midnightblue" points="464.18,-9.16 454.02,-12.18 463.84,-16.15 464.18,-9.16"/>
</g>
<!-- Node12&#45;&gt;Node11 -->
<g id="edge19" class="edge">
<title>Node12&#45;&gt;Node11</title>
<path fill="none" stroke="midnightblue" d="M987.96,-190.37C989.49,-168.04 992.47,-124.31 994.34,-96.85"/>
<polygon fill="midnightblue" stroke="midnightblue" points="997.86,-96.74 995.04,-86.52 990.87,-96.26 997.86,-96.74"/>
</g>
<!-- Node13 -->
<g id="node13" class="node">
<title>Node13</title>
<g id="a_node13"><a xlink:title=" ">
<polygon fill="none" stroke="#bfbfbf" points="1024,-129 1024,-148 1080,-148 1080,-129 1024,-129"/>
<text text-anchor="middle" x="1052" y="-136" font-family="Helvetica,sans-Serif" font-size="10.00">optional</text>
</a>
</g>
</g>
<!-- Node12&#45;&gt;Node13 -->
<g id="edge15" class="edge">
<title>Node12&#45;&gt;Node13</title>
<path fill="none" stroke="midnightblue" d="M1001.1,-190.4C1011.44,-180.06 1025.48,-166.02 1036.19,-155.31"/>
<polygon fill="midnightblue" stroke="midnightblue" points="1038.71,-157.74 1043.31,-148.19 1033.76,-152.79 1038.71,-157.74"/>
</g>
<!-- Node14 -->
<g id="node14" class="node">
<title>Node14</title>
<g id="a_node14"><a xlink:href="_simple_subscriber_8h.html" target="_top" xlink:title=" ">
<polygon fill="none" stroke="black" points="809.5,-56.5 809.5,-86.5 922.5,-86.5 922.5,-56.5 809.5,-56.5"/>
<text text-anchor="start" x="817.5" y="-74.5" font-family="Helvetica,sans-Serif" font-size="10.00">../../core&#45;lib/include</text>
<text text-anchor="middle" x="866" y="-63.5" font-family="Helvetica,sans-Serif" font-size="10.00">/SimpleSubscriber.h</text>
</a>
</g>
</g>
<!-- Node12&#45;&gt;Node14 -->
<g id="edge16" class="edge">
<title>Node12&#45;&gt;Node14</title>
<path fill="none" stroke="midnightblue" d="M932.7,-190.46C900.58,-180.94 864.39,-167.64 855,-154 843.36,-137.09 848.27,-113.46 854.8,-96"/>
<polygon fill="midnightblue" stroke="midnightblue" points="858.13,-97.11 858.73,-86.53 851.67,-94.43 858.13,-97.11"/>
</g>
<!-- Node16 -->
<g id="node16" class="node">
<title>Node16</title>
<g id="a_node16"><a xlink:href="_bot_8h.html" target="_top" xlink:title=" ">
<polygon fill="none" stroke="black" points="864,-123.5 864,-153.5 968,-153.5 968,-123.5 864,-123.5"/>
<text text-anchor="start" x="872" y="-141.5" font-family="Helvetica,sans-Serif" font-size="10.00">../../bot&#45;lib/include</text>
<text text-anchor="middle" x="916" y="-130.5" font-family="Helvetica,sans-Serif" font-size="10.00">/Bot.h</text>
</a>
</g>
</g>
<!-- Node12&#45;&gt;Node16 -->
<g id="edge20" class="edge">
<title>Node12&#45;&gt;Node16</title>
<path fill="none" stroke="midnightblue" d="M971.59,-190.4C962.01,-181.62 949.51,-170.18 938.8,-160.37"/>
<polygon fill="midnightblue" stroke="midnightblue" points="941.12,-157.75 931.38,-153.58 936.39,-162.91 941.12,-157.75"/>
</g>
<!-- Node14&#45;&gt;Node5 -->
<g id="edge18" class="edge">
<title>Node14&#45;&gt;Node5</title>
<path fill="none" stroke="midnightblue" d="M809.49,-58.53C804.6,-57.63 799.72,-56.77 795,-56 675.26,-36.52 532.47,-21.44 464.61,-14.76"/>
<polygon fill="midnightblue" stroke="midnightblue" points="464.66,-11.25 454.37,-13.76 463.98,-18.22 464.66,-11.25"/>
</g>
<!-- Node15 -->
<g id="node15" class="node">
<title>Node15</title>
<g id="a_node15"><a xlink:title=" ">
<polygon fill="none" stroke="#bfbfbf" points="1093.5,-0.5 1093.5,-19.5 1140.5,-19.5 1140.5,-0.5 1093.5,-0.5"/>
<text text-anchor="middle" x="1117" y="-7.5" font-family="Helvetica,sans-Serif" font-size="10.00">vector</text>
</a>
</g>
</g>
<!-- Node14&#45;&gt;Node15 -->
<g id="edge17" class="edge">
<title>Node14&#45;&gt;Node15</title>
<path fill="none" stroke="midnightblue" d="M922.64,-57.07C972.23,-45.32 1042.58,-28.64 1083.64,-18.91"/>
<polygon fill="midnightblue" stroke="midnightblue" points="1084.49,-22.3 1093.42,-16.59 1082.88,-15.49 1084.49,-22.3"/>
</g>
<!-- Node16&#45;&gt;Node11 -->
<g id="edge21" class="edge">
<title>Node16&#45;&gt;Node11</title>
<path fill="none" stroke="midnightblue" d="M933.36,-123.4C944.26,-114.54 958.51,-102.96 970.66,-93.09"/>
<polygon fill="midnightblue" stroke="midnightblue" points="973.12,-95.6 978.68,-86.58 968.71,-90.17 973.12,-95.6"/>
</g>
<!-- Node16&#45;&gt;Node14 -->
<g id="edge22" class="edge">
<title>Node16&#45;&gt;Node14</title>
<path fill="none" stroke="midnightblue" d="M905.15,-123.4C898.66,-114.96 890.28,-104.07 882.94,-94.52"/>
<polygon fill="midnightblue" stroke="midnightblue" points="885.7,-92.37 876.83,-86.58 880.15,-96.64 885.7,-92.37"/>
</g>
<!-- Node17&#45;&gt;Node7 -->
<g id="edge26" class="edge">
<title>Node17&#45;&gt;Node7</title>
<path fill="none" stroke="midnightblue" d="M419.19,-391.39C431.95,-382.81 451.57,-368.94 467,-355 489.95,-334.27 513.45,-307.19 527.64,-290.07"/>
<polygon fill="midnightblue" stroke="midnightblue" points="530.53,-292.06 534.15,-282.1 525.11,-287.62 530.53,-292.06"/>
</g>
<!-- Node17&#45;&gt;Node15 -->
<g id="edge25" class="edge">
<title>Node17&#45;&gt;Node15</title>
<path fill="none" stroke="midnightblue" d="M455.39,-398.37C581.63,-393.89 913.74,-380.01 1021,-355 1114.88,-333.11 1222,-369.9 1222,-273.5 1222,-273.5 1222,-273.5 1222,-137.5 1222,-86.84 1171.53,-45.62 1140.57,-25.11"/>
<polygon fill="midnightblue" stroke="midnightblue" points="1142.35,-22.09 1132.04,-19.64 1138.58,-27.98 1142.35,-22.09"/>
</g>
<!-- Node18 -->
<g id="node18" class="node">
<title>Node18</title>
<g id="a_node18"><a xlink:title=" ">
<polygon fill="none" stroke="#bfbfbf" points="323,-263 323,-282 361,-282 361,-263 323,-263"/>
<text text-anchor="middle" x="342" y="-270" font-family="Helvetica,sans-Serif" font-size="10.00">map</text>
</a>
</g>
</g>
<!-- Node17&#45;&gt;Node18 -->
<g id="edge24" class="edge">
<title>Node17&#45;&gt;Node18</title>
<path fill="none" stroke="midnightblue" d="M386.57,-391.47C372.3,-384.07 353.91,-371.87 345,-355 334.69,-335.49 335.82,-309.52 338.29,-292.2"/>
<polygon fill="midnightblue" stroke="midnightblue" points="341.76,-292.66 339.99,-282.21 334.86,-291.48 341.76,-292.66"/>
</g>
<!-- Node19 -->
<g id="node19" class="node">
<title>Node19</title>
<g id="a_node19"><a xlink:href="_event_subscriber_8h.html" target="_top" xlink:title=" ">
<polygon fill="none" stroke="black" points="354,-330 354,-349 458,-349 458,-330 354,-330"/>
<text text-anchor="middle" x="406" y="-337" font-family="Helvetica,sans-Serif" font-size="10.00">EventSubscriber.h</text>
</a>
</g>
</g>
<!-- Node17&#45;&gt;Node19 -->
<g id="edge27" class="edge">
<title>Node17&#45;&gt;Node19</title>
<path fill="none" stroke="midnightblue" d="M406,-391.48C406,-383.08 406,-369.98 406,-359.16"/>
<polygon fill="midnightblue" stroke="midnightblue" points="409.5,-359.01 406,-349.01 402.5,-359.01 409.5,-359.01"/>
</g>
<!-- Node19&#45;&gt;Node7 -->
<g id="edge31" class="edge">
<title>Node19&#45;&gt;Node7</title>
<path fill="none" stroke="midnightblue" d="M423.93,-329.87C446.92,-318.8 487.03,-299.49 513.8,-286.6"/>
<polygon fill="midnightblue" stroke="midnightblue" points="515.51,-289.66 523,-282.17 512.47,-283.35 515.51,-289.66"/>
</g>
<!-- Node19&#45;&gt;Node15 -->
<g id="edge29" class="edge">
<title>Node19&#45;&gt;Node15</title>
<path fill="none" stroke="midnightblue" d="M406.85,-329.97C409.62,-305.87 420.16,-236 453,-190 511.16,-108.54 540.51,-91.74 634,-56 716.38,-24.51 987.22,-14.43 1083.04,-11.8"/>
<polygon fill="midnightblue" stroke="midnightblue" points="1083.41,-15.29 1093.32,-11.53 1083.23,-8.29 1083.41,-15.29"/>
</g>
<!-- Node19&#45;&gt;Node18 -->
<g id="edge28" class="edge">
<title>Node19&#45;&gt;Node18</title>
<path fill="none" stroke="midnightblue" d="M397.37,-329.73C387.2,-319.4 370.1,-302.04 357.59,-289.33"/>
<polygon fill="midnightblue" stroke="midnightblue" points="360,-286.8 350.49,-282.13 355.02,-291.71 360,-286.8"/>
</g>
<!-- Node20 -->
<g id="node20" class="node">
<title>Node20</title>
<g id="a_node20"><a xlink:title=" ">
<polygon fill="none" stroke="#bfbfbf" points="444,-263 444,-282 476,-282 476,-263 444,-263"/>
<text text-anchor="middle" x="460" y="-270" font-family="Helvetica,sans-Serif" font-size="10.00">list</text>
</a>
</g>
</g>
<!-- Node19&#45;&gt;Node20 -->
<g id="edge30" class="edge">
<title>Node19&#45;&gt;Node20</title>
<path fill="none" stroke="midnightblue" d="M413.28,-329.73C421.7,-319.6 435.75,-302.69 446.25,-290.06"/>
<polygon fill="midnightblue" stroke="midnightblue" points="449.13,-292.06 452.83,-282.13 443.75,-287.58 449.13,-292.06"/>
</g>
<!-- Node21&#45;&gt;Node4 -->
<g id="edge48" class="edge">
<title>Node21&#45;&gt;Node4</title>
<path fill="none" stroke="midnightblue" d="M268.27,-589.75C265.69,-597.33 259.88,-608.5 253.86,-617.86"/>
<polygon fill="midnightblue" stroke="midnightblue" points="250.97,-615.88 248.12,-626.08 256.71,-619.88 250.97,-615.88"/>
</g>
<!-- Node21&#45;&gt;Node5 -->
<g id="edge33" class="edge">
<title>Node21&#45;&gt;Node5</title>
<path fill="none" stroke="midnightblue" d="M227.91,-575.4C173.75,-569.73 81.19,-556.94 57,-534 33.45,-511.67 38,-495.95 38,-463.5 38,-463.5 38,-463.5 38,-137.5 38,-78.07 89.43,-79.53 144,-56 224.98,-21.08 329.64,-12.98 385.6,-11.27"/>
<polygon fill="midnightblue" stroke="midnightblue" points="385.88,-14.77 395.79,-11.02 385.7,-7.77 385.88,-14.77"/>
</g>
<!-- Node22 -->
<g id="node22" class="node">
<title>Node22</title>
<g id="a_node22"><a xlink:href="_active_event_handler_8h.html" target="_top" xlink:title=" ">
<polygon fill="none" stroke="black" points="428,-514.5 428,-533.5 550,-533.5 550,-514.5 428,-514.5"/>
<text text-anchor="middle" x="489" y="-521.5" font-family="Helvetica,sans-Serif" font-size="10.00">ActiveEventHandler.h</text>
</a>
</g>
</g>
<!-- Node21&#45;&gt;Node22 -->
<g id="edge34" class="edge">
<title>Node21&#45;&gt;Node22</title>
<path fill="none" stroke="midnightblue" d="M303.02,-570.44C341.25,-561.1 402.57,-546.12 444.26,-535.93"/>
<polygon fill="midnightblue" stroke="midnightblue" points="445.26,-539.29 454.15,-533.52 443.6,-532.49 445.26,-539.29"/>
</g>
<!-- Node26 -->
<g id="node26" class="node">
<title>Node26</title>
<g id="a_node26"><a xlink:href="_menu_event_handler_8h.html" target="_top" xlink:title=" ">
<polygon fill="none" stroke="black" points="216,-514.5 216,-533.5 334,-533.5 334,-514.5 216,-514.5"/>
<text text-anchor="middle" x="275" y="-521.5" font-family="Helvetica,sans-Serif" font-size="10.00">MenuEventHandler.h</text>
</a>
</g>
</g>
<!-- Node21&#45;&gt;Node26 -->
<g id="edge44" class="edge">
<title>Node21&#45;&gt;Node26</title>
<path fill="none" stroke="midnightblue" d="M263.99,-570.08C263.41,-562.93 264.31,-552.64 266.12,-543.69"/>
<polygon fill="midnightblue" stroke="midnightblue" points="269.58,-544.31 268.73,-533.75 262.81,-542.53 269.58,-544.31"/>
</g>
<!-- Node27 -->
<g id="node27" class="node">
<title>Node27</title>
<g id="a_node27"><a xlink:href="_finished_event_handler_8h.html" target="_top" xlink:title=" ">
<polygon fill="none" stroke="black" points="66.5,-514.5 66.5,-533.5 197.5,-533.5 197.5,-514.5 66.5,-514.5"/>
<text text-anchor="middle" x="132" y="-521.5" font-family="Helvetica,sans-Serif" font-size="10.00">FinishedEventHandler.h</text>
</a>
</g>
</g>
<!-- Node21&#45;&gt;Node27 -->
<g id="edge49" class="edge">
<title>Node21&#45;&gt;Node27</title>
<path fill="none" stroke="midnightblue" d="M246.45,-570.44C223.97,-561.52 188.51,-547.44 163.02,-537.32"/>
<polygon fill="midnightblue" stroke="midnightblue" points="164.03,-533.95 153.45,-533.52 161.45,-540.46 164.03,-533.95"/>
</g>
<!-- Node22&#45;&gt;Node5 -->
<g id="edge35" class="edge">
<title>Node22&#45;&gt;Node5</title>
<path fill="none" stroke="midnightblue" d="M467.84,-514.48C430.91,-498.74 353.94,-462 305,-411 259.43,-363.51 250,-339.32 250,-273.5 250,-273.5 250,-273.5 250,-137.5 250,-99.74 247.34,-82.74 274,-56 303.58,-26.33 351.81,-16.05 385.79,-12.59"/>
<polygon fill="midnightblue" stroke="midnightblue" points="386.18,-16.07 395.84,-11.71 385.58,-9.09 386.18,-16.07"/>
</g>
<!-- Node22&#45;&gt;Node6 -->
<g id="edge36" class="edge">
<title>Node22&#45;&gt;Node6</title>
<path fill="none" stroke="midnightblue" d="M458.34,-514.48C426.31,-505.57 375.23,-491.37 335.12,-480.22"/>
<polygon fill="midnightblue" stroke="midnightblue" points="336.01,-476.83 325.44,-477.52 334.13,-483.57 336.01,-476.83"/>
</g>
<!-- Node23 -->
<g id="node23" class="node">
<title>Node23</title>
<g id="a_node23"><a xlink:href="_event_queue_8h.html" target="_top" xlink:title=" ">
<polygon fill="none" stroke="black" points="728,-257.5 728,-287.5 838,-287.5 838,-257.5 728,-257.5"/>
<text text-anchor="start" x="736" y="-275.5" font-family="Helvetica,sans-Serif" font-size="10.00">../../core&#45;lib/include</text>
<text text-anchor="middle" x="783" y="-264.5" font-family="Helvetica,sans-Serif" font-size="10.00">/EventQueue.h</text>
</a>
</g>
</g>
<!-- Node22&#45;&gt;Node23 -->
<g id="edge37" class="edge">
<title>Node22&#45;&gt;Node23</title>
<path fill="none" stroke="midnightblue" d="M534.74,-514.46C607.82,-498.07 748.79,-454.61 809,-355 820.02,-336.77 810.53,-313.38 800.05,-296.34"/>
<polygon fill="midnightblue" stroke="midnightblue" points="802.7,-294 794.25,-287.6 796.86,-297.87 802.7,-294"/>
</g>
<!-- Node25 -->
<g id="node25" class="node">
<title>Node25</title>
<g id="a_node25"><a xlink:href="_game_statistics_8h.html" target="_top" xlink:title=" ">
<polygon fill="none" stroke="black" points="552,-330 552,-349 652,-349 652,-330 552,-330"/>
<text text-anchor="middle" x="602" y="-337" font-family="Helvetica,sans-Serif" font-size="10.00">GameStatistics.h</text>
</a>
</g>
</g>
<!-- Node22&#45;&gt;Node25 -->
<g id="edge40" class="edge">
<title>Node22&#45;&gt;Node25</title>
<path fill="none" stroke="midnightblue" d="M494.45,-514.2C512.01,-485.83 567.36,-396.44 591.06,-358.17"/>
<polygon fill="midnightblue" stroke="midnightblue" points="594.32,-359.56 596.6,-349.21 588.36,-355.87 594.32,-359.56"/>
</g>
<!-- Node23&#45;&gt;Node5 -->
<g id="edge39" class="edge">
<title>Node23&#45;&gt;Node5</title>
<path fill="none" stroke="midnightblue" d="M758.45,-257.37C741.55,-247.49 718.67,-233.82 699,-221 678.96,-207.94 675.91,-201.62 655,-190 619.14,-170.07 603.72,-177.37 570,-154 520.65,-119.79 520.42,-97.47 477,-56 466.21,-45.69 453.56,-34.72 443.44,-26.19"/>
<polygon fill="midnightblue" stroke="midnightblue" points="445.54,-23.39 435.63,-19.67 441.06,-28.77 445.54,-23.39"/>
</g>
<!-- Node24 -->
<g id="node24" class="node">
<title>Node24</title>
<g id="a_node24"><a xlink:title=" ">
<polygon fill="none" stroke="#bfbfbf" points="790.5,-196 790.5,-215 837.5,-215 837.5,-196 790.5,-196"/>
<text text-anchor="middle" x="814" y="-203" font-family="Helvetica,sans-Serif" font-size="10.00">queue</text>
</a>
</g>
</g>
<!-- Node23&#45;&gt;Node24 -->
<g id="edge38" class="edge">
<title>Node23&#45;&gt;Node24</title>
<path fill="none" stroke="midnightblue" d="M789.73,-257.4C794.32,-247.76 800.45,-234.91 805.4,-224.54"/>
<polygon fill="midnightblue" stroke="midnightblue" points="808.71,-225.73 809.85,-215.19 802.39,-222.71 808.71,-225.73"/>
</g>
<!-- Node25&#45;&gt;Node7 -->
<g id="edge43" class="edge">
<title>Node25&#45;&gt;Node7</title>
<path fill="none" stroke="midnightblue" d="M593.77,-329.73C584.17,-319.5 568.09,-302.36 556.2,-289.69"/>
<polygon fill="midnightblue" stroke="midnightblue" points="558.49,-287.02 549.1,-282.13 553.39,-291.81 558.49,-287.02"/>
</g>
<!-- Node25&#45;&gt;Node20 -->
<g id="edge41" class="edge">
<title>Node25&#45;&gt;Node20</title>
<path fill="none" stroke="midnightblue" d="M583.14,-329.87C558.04,-318.38 513.55,-298.01 485.48,-285.16"/>
<polygon fill="midnightblue" stroke="midnightblue" points="486.84,-281.94 476.29,-280.96 483.93,-288.3 486.84,-281.94"/>
</g>
<!-- Node25&#45;&gt;Node23 -->
<g id="edge42" class="edge">
<title>Node25&#45;&gt;Node23</title>
<path fill="none" stroke="midnightblue" d="M626.04,-329.87C653.55,-319.99 699.32,-303.55 734.36,-290.97"/>
<polygon fill="midnightblue" stroke="midnightblue" points="735.71,-294.2 743.94,-287.53 733.34,-287.61 735.71,-294.2"/>
</g>
<!-- Node26&#45;&gt;Node5 -->
<g id="edge45" class="edge">
<title>Node26&#45;&gt;Node5</title>
<path fill="none" stroke="midnightblue" d="M258.24,-514.38C244.18,-506.46 224.3,-493.61 211,-478 186.64,-449.4 174,-439.57 174,-402 174,-402 174,-402 174,-137.5 174,-97.53 180.71,-80.86 212,-56 238.43,-35.01 331.65,-21.4 385.6,-15.1"/>
<polygon fill="midnightblue" stroke="midnightblue" points="386.3,-18.54 395.84,-13.93 385.51,-11.58 386.3,-18.54"/>
</g>
<!-- Node26&#45;&gt;Node6 -->
<g id="edge46" class="edge">
<title>Node26&#45;&gt;Node6</title>
<path fill="none" stroke="midnightblue" d="M275,-514.48C275,-507.47 275,-497.19 275,-487.7"/>
<polygon fill="midnightblue" stroke="midnightblue" points="278.5,-487.52 275,-477.52 271.5,-487.52 278.5,-487.52"/>
</g>
<!-- Node26&#45;&gt;Node21 -->
<g id="edge47" class="edge">
<title>Node26&#45;&gt;Node21</title>
<path fill="none" stroke="midnightblue" d="M279,-533.75C279.61,-540.94 278.7,-551.36 276.86,-560.4"/>
<polygon fill="midnightblue" stroke="midnightblue" points="273.47,-559.52 274.32,-570.08 280.24,-561.3 273.47,-559.52"/>
</g>
<!-- Node27&#45;&gt;Node5 -->
<g id="edge50" class="edge">
<title>Node27&#45;&gt;Node5</title>
<path fill="none" stroke="midnightblue" d="M132.24,-514.49C132.77,-494.74 134,-444.23 134,-402 134,-402 134,-402 134,-137.5 134,-95.91 146.13,-80.14 180,-56 212.46,-32.86 325.2,-19.71 385.78,-14.17"/>
<polygon fill="midnightblue" stroke="midnightblue" points="386.1,-17.65 395.75,-13.28 385.47,-10.68 386.1,-17.65"/>
</g>
<!-- Node27&#45;&gt;Node6 -->
<g id="edge51" class="edge">
<title>Node27&#45;&gt;Node6</title>
<path fill="none" stroke="midnightblue" d="M152.49,-514.48C173.12,-505.89 205.58,-492.38 231.91,-481.43"/>
<polygon fill="midnightblue" stroke="midnightblue" points="233.41,-484.6 241.3,-477.52 230.72,-478.13 233.41,-484.6"/>
</g>
<!-- Node28&#45;&gt;Node5 -->
<g id="edge53" class="edge">
<title>Node28&#45;&gt;Node5</title>
<path fill="none" stroke="midnightblue" d="M668.4,-626.18C657.15,-617.43 639.82,-603.44 626,-590 593.72,-558.61 594.81,-541.29 559,-514 476,-450.75 420.2,-486.35 348,-411 301.87,-362.86 288,-340.18 288,-273.5 288,-273.5 288,-273.5 288,-137.5 288,-80.56 352.68,-42.14 393.16,-23.68"/>
<polygon fill="midnightblue" stroke="midnightblue" points="394.63,-26.85 402.38,-19.62 391.81,-20.45 394.63,-26.85"/>
</g>
<!-- Node28&#45;&gt;Node21 -->
<g id="edge54" class="edge">
<title>Node28&#45;&gt;Node21</title>
<path fill="none" stroke="midnightblue" d="M633.14,-628.86C555.03,-618.62 398.85,-598.15 318.43,-587.61"/>
<polygon fill="midnightblue" stroke="midnightblue" points="318.44,-584.08 308.07,-586.25 317.53,-591.02 318.44,-584.08"/>
</g>
<!-- Node29 -->
<g id="node29" class="node">
<title>Node29</title>
<g id="a_node29"><a xlink:href="_keyboard_controller_8h.html" target="_top" xlink:title=" ">
<polygon fill="none" stroke="black" points="612.5,-129 612.5,-148 731.5,-148 731.5,-129 612.5,-129"/>
<text text-anchor="middle" x="672" y="-136" font-family="Helvetica,sans-Serif" font-size="10.00">KeyboardController.h</text>
</a>
</g>
</g>
<!-- Node28&#45;&gt;Node29 -->
<g id="edge55" class="edge">
<title>Node28&#45;&gt;Node29</title>
<path fill="none" stroke="midnightblue" d="M726.94,-628.08C782.04,-617 866,-589.53 866,-525 866,-525 866,-525 866,-271.5 866,-234.31 872.61,-216.97 847,-190 819.93,-161.49 777.89,-148.76 741.79,-143.21"/>
<polygon fill="midnightblue" stroke="midnightblue" points="742.17,-139.73 731.79,-141.83 741.22,-146.66 742.17,-139.73"/>
</g>
<!-- Node31 -->
<g id="node31" class="node">
<title>Node31</title>
<g id="a_node31"><a xlink:href="_menu_8h.html" target="_top" xlink:title=" ">
<polygon fill="none" stroke="black" points="746.5,-330 746.5,-349 799.5,-349 799.5,-330 746.5,-330"/>
<text text-anchor="middle" x="773" y="-337" font-family="Helvetica,sans-Serif" font-size="10.00">Menu.h</text>
</a>
</g>
</g>
<!-- Node28&#45;&gt;Node31 -->
<g id="edge59" class="edge">
<title>Node28&#45;&gt;Node31</title>
<path fill="none" stroke="midnightblue" d="M693.66,-626.24C717.68,-609.64 765,-571.1 765,-525 765,-525 765,-525 765,-461.5 765,-425.32 768.61,-383.18 770.98,-359.39"/>
<polygon fill="midnightblue" stroke="midnightblue" points="774.47,-359.6 772.02,-349.29 767.51,-358.88 774.47,-359.6"/>
</g>
<!-- Node32 -->
<g id="node32" class="node">
<title>Node32</title>
<g id="a_node32"><a xlink:href="_game_stats_i_o_8h.html" target="_top" xlink:title=" ">
<polygon fill="none" stroke="black" points="635,-570.5 635,-589.5 725,-589.5 725,-570.5 635,-570.5"/>
<text text-anchor="middle" x="680" y="-577.5" font-family="Helvetica,sans-Serif" font-size="10.00">GameStatsIO.h</text>
</a>
</g>
</g>
<!-- Node28&#45;&gt;Node32 -->
<g id="edge62" class="edge">
<title>Node28&#45;&gt;Node32</title>
<path fill="none" stroke="midnightblue" d="M680,-626.08C680,-619.01 680,-608.86 680,-599.99"/>
<polygon fill="midnightblue" stroke="midnightblue" points="683.5,-599.75 680,-589.75 676.5,-599.75 683.5,-599.75"/>
</g>
<!-- Node33 -->
<g id="node33" class="node">
<title>Node33</title>
<g id="a_node33"><a xlink:href="_board_8h.html" target="_top" xlink:title=" ">
<polygon fill="none" stroke="black" points="896,-324.5 896,-354.5 1012,-354.5 1012,-324.5 896,-324.5"/>
<text text-anchor="start" x="904" y="-342.5" font-family="Helvetica,sans-Serif" font-size="10.00">../../board&#45;lib/include</text>
<text text-anchor="middle" x="954" y="-331.5" font-family="Helvetica,sans-Serif" font-size="10.00">/Board.h</text>
</a>
</g>
</g>
<!-- Node28&#45;&gt;Node33 -->
<g id="edge66" class="edge">
<title>Node28&#45;&gt;Node33</title>
<path fill="none" stroke="midnightblue" d="M726.54,-634.5C798.61,-630.99 929,-612.55 929,-525 929,-525 929,-525 929,-461.5 929,-427.31 938.69,-388.78 946.01,-364.57"/>
<polygon fill="midnightblue" stroke="midnightblue" points="949.41,-365.42 949.06,-354.83 942.73,-363.33 949.41,-365.42"/>
</g>
<!-- Node29&#45;&gt;Node5 -->
<g id="edge56" class="edge">
<title>Node29&#45;&gt;Node5</title>
<path fill="none" stroke="midnightblue" d="M661.45,-128.84C641.38,-112.72 595.88,-77.74 553,-56 524.34,-41.47 489.89,-29.65 463.95,-21.77"/>
<polygon fill="midnightblue" stroke="midnightblue" points="464.68,-18.34 454.1,-18.85 462.69,-25.05 464.68,-18.34"/>
</g>
<!-- Node29&#45;&gt;Node14 -->
<g id="edge58" class="edge">
<title>Node29&#45;&gt;Node14</title>
<path fill="none" stroke="midnightblue" d="M697.76,-128.87C727.38,-118.95 776.73,-102.41 814.35,-89.81"/>
<polygon fill="midnightblue" stroke="midnightblue" points="815.76,-93.02 824.13,-86.53 813.54,-86.39 815.76,-93.02"/>
</g>
<!-- Node30 -->
<g id="node30" class="node">
<title>Node30</title>
<g id="a_node30"><a xlink:title=" ">
<polygon fill="none" stroke="#bfbfbf" points="643,-62 643,-81 753,-81 753,-62 643,-62"/>
<text text-anchor="middle" x="698" y="-69" font-family="Helvetica,sans-Serif" font-size="10.00">SFML/Graphics.hpp</text>
</a>
</g>
</g>
<!-- Node29&#45;&gt;Node30 -->
<g id="edge57" class="edge">
<title>Node29&#45;&gt;Node30</title>
<path fill="none" stroke="midnightblue" d="M675.51,-128.73C679.4,-118.99 685.81,-102.98 690.79,-90.53"/>
<polygon fill="midnightblue" stroke="midnightblue" points="694.08,-91.71 694.55,-81.13 687.59,-89.11 694.08,-91.71"/>
</g>
<!-- Node31&#45;&gt;Node7 -->
<g id="edge61" class="edge">
<title>Node31&#45;&gt;Node7</title>
<path fill="none" stroke="midnightblue" d="M746.39,-331.04C704.8,-319.39 624.34,-296.85 577.42,-283.7"/>
<polygon fill="midnightblue" stroke="midnightblue" points="578.23,-280.3 567.66,-280.97 576.34,-287.04 578.23,-280.3"/>
</g>
<!-- Node31&#45;&gt;Node23 -->
<g id="edge60" class="edge">
<title>Node31&#45;&gt;Node23</title>
<path fill="none" stroke="midnightblue" d="M774.35,-329.73C775.61,-321.54 777.55,-308.92 779.27,-297.71"/>
<polygon fill="midnightblue" stroke="midnightblue" points="782.77,-298 780.83,-287.59 775.85,-296.94 782.77,-298"/>
</g>
<!-- Node32&#45;&gt;Node2 -->
<g id="edge65" class="edge">
<title>Node32&#45;&gt;Node2</title>
<path fill="none" stroke="midnightblue" d="M671.58,-570.08C664.15,-562.22 653.15,-550.57 644.19,-541.08"/>
<polygon fill="midnightblue" stroke="midnightblue" points="646.68,-538.62 637.26,-533.75 641.59,-543.42 646.68,-538.62"/>
</g>
<!-- Node32&#45;&gt;Node5 -->
<g id="edge63" class="edge">
<title>Node32&#45;&gt;Node5</title>
<path fill="none" stroke="midnightblue" d="M684.97,-570.34C695.27,-551.53 718,-505.3 718,-463.5 718,-463.5 718,-463.5 718,-400 718,-297.38 696.56,-260.51 622,-190 590.1,-159.83 565.29,-180.13 530,-154 499.48,-131.41 499.51,-117.57 477,-87 462.4,-67.17 446.54,-43.69 436.23,-28.13"/>
<polygon fill="midnightblue" stroke="midnightblue" points="439.01,-25.99 430.58,-19.57 433.17,-29.84 439.01,-25.99"/>
</g>
<!-- Node32&#45;&gt;Node9 -->
<g id="edge64" class="edge">
<title>Node32&#45;&gt;Node9</title>
<path fill="none" stroke="midnightblue" d="M680,-570.31C680,-551.06 680,-503.4 680,-463.5 680,-463.5 680,-463.5 680,-400 680,-328.68 629.48,-255 604.57,-222.99"/>
<polygon fill="midnightblue" stroke="midnightblue" points="607.25,-220.74 598.28,-215.1 601.78,-225.1 607.25,-220.74"/>
</g>
<!-- Node33&#45;&gt;Node5 -->
<g id="edge67" class="edge">
<title>Node33&#45;&gt;Node5</title>
<path fill="none" stroke="midnightblue" d="M944.78,-324.43C921.45,-289.04 860.95,-198.49 847,-190 753.74,-133.24 701.65,-202.83 604,-154 576.31,-140.15 529.71,-74.64 505,-56 488.67,-43.68 468.6,-32.4 452.65,-24.22"/>
<polygon fill="midnightblue" stroke="midnightblue" points="453.83,-20.89 443.32,-19.54 450.69,-27.15 453.83,-20.89"/>
</g>
<!-- Node33&#45;&gt;Node12 -->
<g id="edge69" class="edge">
<title>Node33&#45;&gt;Node12</title>
<path fill="none" stroke="midnightblue" d="M966.61,-324.19C974.14,-314.66 982.99,-301.45 987,-288 992.51,-269.49 992.15,-247.55 990.6,-231.1"/>
<polygon fill="midnightblue" stroke="midnightblue" points="994.03,-230.23 989.4,-220.69 987.07,-231.03 994.03,-230.23"/>
</g>
<!-- Node33&#45;&gt;Node23 -->
<g id="edge68" class="edge">
<title>Node33&#45;&gt;Node23</title>
<path fill="none" stroke="midnightblue" d="M916.9,-324.4C891.24,-314.64 856.91,-301.59 829.44,-291.15"/>
<polygon fill="midnightblue" stroke="midnightblue" points="830.62,-287.86 820.03,-287.58 828.14,-294.4 830.62,-287.86"/>
</g>
<!-- Node34 -->
<g id="node34" class="node">
<title>Node34</title>
<g id="a_node34"><a xlink:href="_entity_controller_8h.html" target="_top" xlink:title=" ">
<polygon fill="none" stroke="black" points="1053,-257.5 1053,-287.5 1163,-287.5 1163,-257.5 1053,-257.5"/>
<text text-anchor="start" x="1061" y="-275.5" font-family="Helvetica,sans-Serif" font-size="10.00">../../tank&#45;lib/include</text>
<text text-anchor="middle" x="1108" y="-264.5" font-family="Helvetica,sans-Serif" font-size="10.00">/EntityController.h</text>
</a>
</g>
</g>
<!-- Node33&#45;&gt;Node34 -->
<g id="edge70" class="edge">
<title>Node33&#45;&gt;Node34</title>
<path fill="none" stroke="midnightblue" d="M987.42,-324.4C1010.22,-314.77 1040.63,-301.94 1065.2,-291.56"/>
<polygon fill="midnightblue" stroke="midnightblue" points="1066.8,-294.69 1074.65,-287.58 1064.08,-288.24 1066.8,-294.69"/>
</g>
<!-- Node35 -->
<g id="node35" class="node">
<title>Node35</title>
<g id="a_node35"><a xlink:href="_grid_8h.html" target="_top" xlink:title=" ">
<polygon fill="none" stroke="black" points="932,-263 932,-282 978,-282 978,-263 932,-263"/>
<text text-anchor="middle" x="955" y="-270" font-family="Helvetica,sans-Serif" font-size="10.00">Grid.h</text>
</a>
</g>
</g>
<!-- Node33&#45;&gt;Node35 -->
<g id="edge75" class="edge">
<title>Node33&#45;&gt;Node35</title>
<path fill="none" stroke="midnightblue" d="M954.22,-324.4C954.36,-315.06 954.55,-302.71 954.71,-292.52"/>
<polygon fill="midnightblue" stroke="midnightblue" points="958.21,-292.25 954.87,-282.19 951.21,-292.14 958.21,-292.25"/>
</g>
<!-- Node34&#45;&gt;Node5 -->
<g id="edge72" class="edge">
<title>Node34&#45;&gt;Node5</title>
<path fill="none" stroke="midnightblue" d="M1110.31,-257.35C1115.95,-217.19 1125.52,-102.43 1060,-56 1011.49,-21.62 595.81,-13.24 464.55,-11.44"/>
<polygon fill="midnightblue" stroke="midnightblue" points="464.21,-7.94 454.17,-11.31 464.12,-14.94 464.21,-7.94"/>
</g>
<!-- Node34&#45;&gt;Node12 -->
<g id="edge74" class="edge">
<title>Node34&#45;&gt;Node12</title>
<path fill="none" stroke="midnightblue" d="M1081.74,-257.4C1064.3,-248.03 1041.2,-235.62 1022.17,-225.39"/>
<polygon fill="midnightblue" stroke="midnightblue" points="1023.67,-222.23 1013.2,-220.58 1020.36,-228.39 1023.67,-222.23"/>
</g>
<!-- Node34&#45;&gt;Node13 -->
<g id="edge73" class="edge">
<title>Node34&#45;&gt;Node13</title>
<path fill="none" stroke="midnightblue" d="M1102.01,-257.37C1091.74,-233.18 1070.83,-183.88 1059.57,-157.35"/>
<polygon fill="midnightblue" stroke="midnightblue" points="1062.77,-155.94 1055.65,-148.1 1056.33,-158.67 1062.77,-155.94"/>
</g>
<!-- Node34&#45;&gt;Node15 -->
<g id="edge71" class="edge">
<title>Node34&#45;&gt;Node15</title>
<path fill="none" stroke="midnightblue" d="M1129.3,-257.38C1140.73,-248.46 1153.73,-235.84 1160,-221 1188.48,-153.64 1147.89,-65.94 1127.5,-28.83"/>
<polygon fill="midnightblue" stroke="midnightblue" points="1130.33,-26.73 1122.35,-19.76 1124.24,-30.19 1130.33,-26.73"/>
</g>
<!-- Node35&#45;&gt;Node8 -->
<g id="edge76" class="edge">
<title>Node35&#45;&gt;Node8</title>
<path fill="none" stroke="midnightblue" d="M931.95,-265.15C898.68,-255.91 835.37,-237.99 782,-221 779.4,-220.17 776.72,-219.3 774.03,-218.4"/>
<polygon fill="midnightblue" stroke="midnightblue" points="774.96,-215.02 764.36,-215.13 772.71,-221.65 774.96,-215.02"/>
</g>
<!-- Node35&#45;&gt;Node12 -->
<g id="edge79" class="edge">
<title>Node35&#45;&gt;Node12</title>
<path fill="none" stroke="midnightblue" d="M959.32,-262.73C963.47,-254.29 969.95,-241.14 975.59,-229.68"/>
<polygon fill="midnightblue" stroke="midnightblue" points="978.79,-231.11 980.06,-220.59 972.51,-228.01 978.79,-231.11"/>
</g>
<!-- Node35&#45;&gt;Node15 -->
<g id="edge77" class="edge">
<title>Node35&#45;&gt;Node15</title>
<path fill="none" stroke="midnightblue" d="M978.25,-263.61C999.26,-255.54 1030.04,-241.31 1051,-221 1105.58,-168.12 1115.19,-70.7 1116.76,-29.82"/>
<polygon fill="midnightblue" stroke="midnightblue" points="1120.26,-29.76 1117.02,-19.68 1113.27,-29.58 1120.26,-29.76"/>
</g>
<!-- Node35&#45;&gt;Node24 -->
<g id="edge78" class="edge">
<title>Node35&#45;&gt;Node24</title>
<path fill="none" stroke="midnightblue" d="M936.28,-262.87C912.15,-251.75 870,-232.32 842.05,-219.43"/>
<polygon fill="midnightblue" stroke="midnightblue" points="843.35,-216.18 832.8,-215.17 840.42,-222.53 843.35,-216.18"/>
</g>
</g>
</svg>
        <g id="navigator" transform="translate(0 0)" fill="#404254">
                <rect fill="#f2f5e9" fill-opacity="0.5" stroke="#606060" stroke-width=".5" x="0" y="0" width="60" height="60"/>
                <use id="zoomplus" xlink:href="#zoomPlus" x="17" y="9" onmousedown="handleZoom(evt,'in')"/>
                <use id="zoomminus" xlink:href="#zoomMin" x="42" y="9" onmousedown="handleZoom(evt,'out')"/>
                <use id="reset" xlink:href="#resetDef" x="30" y="36" onmousedown="handleReset()"/>
                <g id="arrowUp" xlink:href="#dirArrow" transform="translate(30 24)" onmousedown="handlePan(0,-1)">
                  <use xlink:href="#rim" fill="#404040">
                        <set attributeName="fill" to="#808080" begin="arrowUp.mouseover" end="arrowUp.mouseout"/>
                  </use>
                  <path fill="none" stroke="white" stroke-width="1.5" d="M0,-3.0v7 M-2.5,-0.5L0,-3.0L2.5,-0.5"/>
                </g>
                <g id="arrowRight" xlink:href="#dirArrow" transform="rotate(90) translate(36 -43)" onmousedown="handlePan(1,0)">
                  <use xlink:href="#rim" fill="#404040">
                        <set attributeName="fill" to="#808080" begin="arrowRight.mouseover" end="arrowRight.mouseout"/>
                  </use>
                  <path fill="none" stroke="white" stroke-width="1.5" d="M0,-3.0v7 M-2.5,-0.5L0,-3.0L2.5,-0.5"/>
                </g>
                <g id="arrowDown" xlink:href="#dirArrow" transform="rotate(180) translate(-30 -48)" onmousedown="handlePan(0,1)">
                  <use xlink:href="#rim" fill="#404040">
                        <set attributeName="fill" to="#808080" begin="arrowDown.mouseover" end="arrowDown.mouseout"/>
                  </use>
                  <path fill="none" stroke="white" stroke-width="1.5" d="M0,-3.0v7 M-2.5,-0.5L0,-3.0L2.5,-0.5"/>
                </g>
                <g id="arrowLeft" xlink:href="#dirArrow" transform="rotate(270) translate(-36 17)" onmousedown="handlePan(-1,0)">
                  <use xlink:href="#rim" fill="#404040">
                        <set attributeName="fill" to="#808080" begin="arrowLeft.mouseover" end="arrowLeft.mouseout"/>
                  </use>
                  <path fill="none" stroke="white" stroke-width="1.5" d="M0,-3.0v7 M-2.5,-0.5L0,-3.0L2.5,-0.5"/>
                </g>
        </g>
        <svg viewBox="0 0 15 15" width="100%" height="30px" preserveAspectRatio="xMaxYMin meet">
         <g id="arrow_out" transform="scale(0.3 0.3)">
          <a xlink:href="_pause_event_handler_8cpp__incl_org.svg" target="_base">
           <rect id="button" ry="5" rx="5" y="6" x="6" height="38" width="38"
                fill="#f2f5e9" fill-opacity="0.5" stroke="#606060" stroke-width="1.0"/>
           <path id="arrow"
             d="M 11.500037,31.436501 C 11.940474,20.09759 22.043105,11.32322 32.158766,21.979434 L 37.068811,17.246167 C 37.068811,17.246167 37.088388,32 37.088388,32 L 22.160133,31.978069 C 22.160133,31.978069 26.997745,27.140456 26.997745,27.140456 C 18.528582,18.264221 13.291696,25.230495 11.500037,31.436501 z"
             style="fill:#404040;"/>
          </a>
         </g>
        </svg>
</svg>
