<?xml version="1.0" encoding="UTF-8" standalone="no"?>
<!DOCTYPE svg PUBLIC "-//W3C//DTD SVG 1.1//EN"
 "http://www.w3.org/Graphics/SVG/1.1/DTD/svg11.dtd">
<!-- Generated by graphviz version 2.43.0 (0)
 -->
<!-- Title: /home/tomek/CLionProjects/proi/proi&#45;projekt/src/game&#45;lib/include/PauseEventHandler.h Pages: 1 -->
<svg width="2582pt" height="551pt"
 viewBox="0.00 0.00 2581.50 551.00" xmlns="http://www.w3.org/2000/svg" xmlns:xlink="http://www.w3.org/1999/xlink">
<g id="graph0" class="graph" transform="scale(1 1) rotate(0) translate(4 547)">
<title>/home/tomek/CLionProjects/proi/proi&#45;projekt/src/game&#45;lib/include/PauseEventHandler.h</title>
<!-- Node1 -->
<g id="node1" class="node">
<title>Node1</title>
<g id="a_node1"><a xlink:title=" ">
<polygon fill="#bfbfbf" stroke="black" points="351,-501.5 351,-542.5 558,-542.5 558,-501.5 351,-501.5"/>
<text text-anchor="start" x="359" y="-530.5" font-family="Helvetica,sans-Serif" font-size="10.00">/home/tomek/CLionProjects</text>
<text text-anchor="start" x="359" y="-519.5" font-family="Helvetica,sans-Serif" font-size="10.00">/proi/proi&#45;projekt/src</text>
<text text-anchor="middle" x="454.5" y="-508.5" font-family="Helvetica,sans-Serif" font-size="10.00">/game&#45;lib/include/PauseEventHandler.h</text>
</a>
</g>
</g>
<!-- Node2 -->
<g id="node2" class="node">
<title>Node2</title>
<g id="a_node2"><a xlink:href="_game_state_8cpp.html" target="_top" xlink:title=" ">
<polygon fill="none" stroke="black" points="201,-262 201,-303 352,-303 352,-262 201,-262"/>
<text text-anchor="start" x="209" y="-291" font-family="Helvetica,sans-Serif" font-size="10.00">/home/tomek/CLionProjects</text>
<text text-anchor="start" x="209" y="-280" font-family="Helvetica,sans-Serif" font-size="10.00">/proi/proi&#45;projekt/src</text>
<text text-anchor="middle" x="276.5" y="-269" font-family="Helvetica,sans-Serif" font-size="10.00">/game&#45;lib/GameState.cpp</text>
</a>
</g>
</g>
<!-- Node1&#45;&gt;Node2 -->
<g id="edge1" class="edge">
<title>Node1&#45;&gt;Node2</title>
<path fill="none" stroke="midnightblue" d="M396.45,-497.13C352.94,-475.61 297.01,-439.26 273.5,-387 261.33,-359.95 266.09,-324.77 271.02,-303.18"/>
<polygon fill="midnightblue" stroke="midnightblue" points="395,-500.31 405.53,-501.5 398.03,-494.01 395,-500.31"/>
</g>
<!-- Node3 -->
<g id="node3" class="node">
<title>Node3</title>
<g id="a_node3"><a xlink:href="_pause_event_handler_8cpp.html" target="_top" xlink:title=" ">
<polygon fill="none" stroke="black" points="169.5,-84 169.5,-125 349.5,-125 349.5,-84 169.5,-84"/>
<text text-anchor="start" x="177.5" y="-113" font-family="Helvetica,sans-Serif" font-size="10.00">/home/tomek/CLionProjects</text>
<text text-anchor="start" x="177.5" y="-102" font-family="Helvetica,sans-Serif" font-size="10.00">/proi/proi&#45;projekt/src</text>
<text text-anchor="middle" x="259.5" y="-91" font-family="Helvetica,sans-Serif" font-size="10.00">/game&#45;lib/PauseEventHandler.cpp</text>
</a>
</g>
</g>
<!-- Node1&#45;&gt;Node3 -->
<g id="edge2" class="edge">
<title>Node1&#45;&gt;Node3</title>
<path fill="none" stroke="midnightblue" d="M508.17,-496.67C554.66,-471.49 614.5,-427.36 614.5,-367 614.5,-367 614.5,-367 614.5,-281.5 614.5,-218.64 433.59,-155.84 330.06,-125.04"/>
<polygon fill="midnightblue" stroke="midnightblue" points="506.29,-493.7 499.07,-501.45 509.55,-499.89 506.29,-493.7"/>
</g>
<!-- Node4 -->
<g id="node4" class="node">
<title>Node4</title>
<g id="a_node4"><a xlink:href="_game_state_8h.html" target="_top" xlink:title=" ">
<polygon fill="none" stroke="black" points="370.5,-423.5 370.5,-464.5 538.5,-464.5 538.5,-423.5 370.5,-423.5"/>
<text text-anchor="start" x="378.5" y="-452.5" font-family="Helvetica,sans-Serif" font-size="10.00">/home/tomek/CLionProjects</text>
<text text-anchor="start" x="378.5" y="-441.5" font-family="Helvetica,sans-Serif" font-size="10.00">/proi/proi&#45;projekt/src</text>
<text text-anchor="middle" x="454.5" y="-430.5" font-family="Helvetica,sans-Serif" font-size="10.00">/game&#45;lib/include/GameState.h</text>
</a>
</g>
</g>
<!-- Node1&#45;&gt;Node4 -->
<g id="edge3" class="edge">
<title>Node1&#45;&gt;Node4</title>
<path fill="none" stroke="midnightblue" d="M447.9,-491.3C447.58,-482.3 447.78,-472.65 448.52,-464.51"/>
<polygon fill="midnightblue" stroke="midnightblue" points="444.41,-491.66 448.51,-501.43 451.4,-491.23 444.41,-491.66"/>
</g>
<!-- Node4&#45;&gt;Node1 -->
<g id="edge17" class="edge">
<title>Node4&#45;&gt;Node1</title>
<path fill="none" stroke="midnightblue" d="M461.1,-474.63C461.42,-483.62 461.22,-493.27 460.49,-501.43"/>
<polygon fill="midnightblue" stroke="midnightblue" points="464.59,-474.27 460.48,-464.51 457.6,-474.7 464.59,-474.27"/>
</g>
<!-- Node4&#45;&gt;Node2 -->
<g id="edge5" class="edge">
<title>Node4&#45;&gt;Node2</title>
<path fill="none" stroke="midnightblue" d="M360.42,-427.56C336.15,-419.27 312.2,-406.55 295.5,-387 275.45,-363.52 273.59,-325.94 274.64,-303.1"/>
<polygon fill="midnightblue" stroke="midnightblue" points="359.5,-430.94 370.09,-430.63 361.62,-424.27 359.5,-430.94"/>
</g>
<!-- Node5 -->
<g id="node5" class="node">
<title>Node5</title>
<g id="a_node5"><a xlink:href="_game_8cpp.html" target="_top" xlink:title=" ">
<polygon fill="none" stroke="black" points="0,-84 0,-125 151,-125 151,-84 0,-84"/>
<text text-anchor="start" x="8" y="-113" font-family="Helvetica,sans-Serif" font-size="10.00">/home/tomek/CLionProjects</text>
<text text-anchor="start" x="8" y="-102" font-family="Helvetica,sans-Serif" font-size="10.00">/proi/proi&#45;projekt/src</text>
<text text-anchor="middle" x="75.5" y="-91" font-family="Helvetica,sans-Serif" font-size="10.00">/game&#45;lib/Game.cpp</text>
</a>
</g>
</g>
<!-- Node4&#45;&gt;Node5 -->
<g id="edge4" class="edge">
<title>Node4&#45;&gt;Node5</title>
<path fill="none" stroke="midnightblue" d="M495.36,-417.12C505.07,-408.79 514.16,-398.65 519.5,-387 527.28,-370.03 528.94,-361.1 519.5,-345 475.59,-270.11 233.42,-167.58 126.39,-125.13"/>
<polygon fill="midnightblue" stroke="midnightblue" points="493.12,-414.43 487.49,-423.41 497.49,-419.9 493.12,-414.43"/>
</g>
<!-- Node6 -->
<g id="node6" class="node">
<title>Node6</title>
<g id="a_node6"><a xlink:href="_game_8h.html" target="_top" xlink:title=" ">
<polygon fill="none" stroke="black" points="643,-173 643,-214 794,-214 794,-173 643,-173"/>
<text text-anchor="start" x="651" y="-202" font-family="Helvetica,sans-Serif" font-size="10.00">/home/tomek/CLionProjects</text>
<text text-anchor="start" x="651" y="-191" font-family="Helvetica,sans-Serif" font-size="10.00">/proi/proi&#45;projekt/src</text>
<text text-anchor="middle" x="718.5" y="-180" font-family="Helvetica,sans-Serif" font-size="10.00">/game&#45;lib/include/Game.h</text>
</a>
</g>
</g>
<!-- Node4&#45;&gt;Node6 -->
<g id="edge6" class="edge">
<title>Node4&#45;&gt;Node6</title>
<path fill="none" stroke="midnightblue" d="M505.25,-418.31C521.13,-409.48 538.21,-398.77 552.5,-387 618.06,-332.98 678.89,-251.36 705.03,-214.19"/>
<polygon fill="midnightblue" stroke="midnightblue" points="503.2,-415.44 496.08,-423.28 506.54,-421.59 503.2,-415.44"/>
</g>
<!-- Node11 -->
<g id="node11" class="node">
<title>Node11</title>
<g id="a_node11"><a xlink:href="_menu_event_handler_8h.html" target="_top" xlink:title=" ">
<polygon fill="none" stroke="black" points="304.5,-345.5 304.5,-386.5 510.5,-386.5 510.5,-345.5 304.5,-345.5"/>
<text text-anchor="start" x="312.5" y="-374.5" font-family="Helvetica,sans-Serif" font-size="10.00">/home/tomek/CLionProjects</text>
<text text-anchor="start" x="312.5" y="-363.5" font-family="Helvetica,sans-Serif" font-size="10.00">/proi/proi&#45;projekt/src</text>
<text text-anchor="middle" x="407.5" y="-352.5" font-family="Helvetica,sans-Serif" font-size="10.00">/game&#45;lib/include/MenuEventHandler.h</text>
</a>
</g>
</g>
<!-- Node4&#45;&gt;Node11 -->
<g id="edge13" class="edge">
<title>Node4&#45;&gt;Node11</title>
<path fill="none" stroke="midnightblue" d="M430.68,-415.05C424.4,-405.57 418.17,-395.18 413.58,-386.51"/>
<polygon fill="midnightblue" stroke="midnightblue" points="427.87,-417.15 436.41,-423.43 433.65,-413.2 427.87,-417.15"/>
</g>
<!-- Node12 -->
<g id="node12" class="node">
<title>Node12</title>
<g id="a_node12"><a xlink:href="_window_8h.html" target="_top" xlink:title=" ">
<polygon fill="none" stroke="black" points="1134.5,-345.5 1134.5,-386.5 1294.5,-386.5 1294.5,-345.5 1134.5,-345.5"/>
<text text-anchor="start" x="1142.5" y="-374.5" font-family="Helvetica,sans-Serif" font-size="10.00">/home/tomek/CLionProjects</text>
<text text-anchor="start" x="1142.5" y="-363.5" font-family="Helvetica,sans-Serif" font-size="10.00">/proi/proi&#45;projekt/src</text>
<text text-anchor="middle" x="1214.5" y="-352.5" font-family="Helvetica,sans-Serif" font-size="10.00">/graphic&#45;lib/include/Window.h</text>
</a>
</g>
</g>
<!-- Node4&#45;&gt;Node12 -->
<g id="edge18" class="edge">
<title>Node4&#45;&gt;Node12</title>
<path fill="none" stroke="midnightblue" d="M548.92,-433.56C699.92,-418.46 993.12,-389.14 1134.48,-375"/>
<polygon fill="midnightblue" stroke="midnightblue" points="548.34,-430.1 538.74,-434.58 549.04,-437.06 548.34,-430.1"/>
</g>
<!-- Node6&#45;&gt;Node3 -->
<g id="edge11" class="edge">
<title>Node6&#45;&gt;Node3</title>
<path fill="none" stroke="midnightblue" d="M643.9,-170.48C638.71,-169.22 633.54,-168.04 628.5,-167 509.96,-142.44 477.33,-154.14 358.5,-131 349.62,-129.27 340.34,-127.22 331.19,-125.04"/>
<polygon fill="midnightblue" stroke="midnightblue" points="643.33,-173.95 653.88,-172.99 645.04,-167.16 643.33,-173.95"/>
</g>
<!-- Node6&#45;&gt;Node5 -->
<g id="edge9" class="edge">
<title>Node6&#45;&gt;Node5</title>
<path fill="none" stroke="midnightblue" d="M632.52,-178.27C606.83,-174.3 578.56,-170.2 552.5,-167 378.85,-145.71 332.26,-164.3 160.5,-131 152.33,-129.42 143.83,-127.37 135.49,-125.12"/>
<polygon fill="midnightblue" stroke="midnightblue" points="632.19,-181.76 642.61,-179.85 633.27,-174.85 632.19,-181.76"/>
</g>
<!-- Node7 -->
<g id="node7" class="node">
<title>Node7</title>
<g id="a_node7"><a xlink:href="_active_event_handler_8cpp.html" target="_top" xlink:title=" ">
<polygon fill="none" stroke="black" points="367.5,-84 367.5,-125 549.5,-125 549.5,-84 367.5,-84"/>
<text text-anchor="start" x="375.5" y="-113" font-family="Helvetica,sans-Serif" font-size="10.00">/home/tomek/CLionProjects</text>
<text text-anchor="start" x="375.5" y="-102" font-family="Helvetica,sans-Serif" font-size="10.00">/proi/proi&#45;projekt/src</text>
<text text-anchor="middle" x="458.5" y="-91" font-family="Helvetica,sans-Serif" font-size="10.00">/game&#45;lib/ActiveEventHandler.cpp</text>
</a>
</g>
</g>
<!-- Node6&#45;&gt;Node7 -->
<g id="edge7" class="edge">
<title>Node6&#45;&gt;Node7</title>
<path fill="none" stroke="midnightblue" d="M650.41,-169.72C609.01,-155.86 556.66,-138.35 517.1,-125.11"/>
<polygon fill="midnightblue" stroke="midnightblue" points="649.56,-173.12 660.15,-172.98 651.78,-166.48 649.56,-173.12"/>
</g>
<!-- Node8 -->
<g id="node8" class="node">
<title>Node8</title>
<g id="a_node8"><a xlink:href="_finished_event_handler_8cpp.html" target="_top" xlink:title=" ">
<polygon fill="none" stroke="black" points="567.5,-84 567.5,-125 759.5,-125 759.5,-84 567.5,-84"/>
<text text-anchor="start" x="575.5" y="-113" font-family="Helvetica,sans-Serif" font-size="10.00">/home/tomek/CLionProjects</text>
<text text-anchor="start" x="575.5" y="-102" font-family="Helvetica,sans-Serif" font-size="10.00">/proi/proi&#45;projekt/src</text>
<text text-anchor="middle" x="663.5" y="-91" font-family="Helvetica,sans-Serif" font-size="10.00">/game&#45;lib/FinishedEventHandler.cpp</text>
</a>
</g>
</g>
<!-- Node6&#45;&gt;Node8 -->
<g id="edge8" class="edge">
<title>Node6&#45;&gt;Node8</title>
<path fill="none" stroke="midnightblue" d="M700.67,-164.3C692.59,-151.52 683.24,-136.72 675.93,-125.16"/>
<polygon fill="midnightblue" stroke="midnightblue" points="697.72,-166.18 706.02,-172.76 703.63,-162.44 697.72,-166.18"/>
</g>
<!-- Node9 -->
<g id="node9" class="node">
<title>Node9</title>
<g id="a_node9"><a xlink:href="_menu_event_handler_8cpp.html" target="_top" xlink:title=" ">
<polygon fill="none" stroke="black" points="947,-84 947,-125 1126,-125 1126,-84 947,-84"/>
<text text-anchor="start" x="955" y="-113" font-family="Helvetica,sans-Serif" font-size="10.00">/home/tomek/CLionProjects</text>
<text text-anchor="start" x="955" y="-102" font-family="Helvetica,sans-Serif" font-size="10.00">/proi/proi&#45;projekt/src</text>
<text text-anchor="middle" x="1036.5" y="-91" font-family="Helvetica,sans-Serif" font-size="10.00">/game&#45;lib/MenuEventHandler.cpp</text>
</a>
</g>
</g>
<!-- Node6&#45;&gt;Node9 -->
<g id="edge10" class="edge">
<title>Node6&#45;&gt;Node9</title>
<path fill="none" stroke="midnightblue" d="M799.56,-170.32C850.64,-156.35 915.98,-138.47 965.1,-125.03"/>
<polygon fill="midnightblue" stroke="midnightblue" points="798.59,-166.96 789.87,-172.98 800.43,-173.71 798.59,-166.96"/>
</g>
<!-- Node10 -->
<g id="node10" class="node">
<title>Node10</title>
<g id="a_node10"><a xlink:href="tanks_8cpp.html" target="_top" xlink:title=" ">
<polygon fill="none" stroke="black" points="778,-84 778,-125 929,-125 929,-84 778,-84"/>
<text text-anchor="start" x="786" y="-113" font-family="Helvetica,sans-Serif" font-size="10.00">/home/tomek/CLionProjects</text>
<text text-anchor="start" x="786" y="-102" font-family="Helvetica,sans-Serif" font-size="10.00">/proi/proi&#45;projekt/src</text>
<text text-anchor="middle" x="853.5" y="-91" font-family="Helvetica,sans-Serif" font-size="10.00">/main/tanks.cpp</text>
</a>
</g>
</g>
<!-- Node6&#45;&gt;Node10 -->
<g id="edge12" class="edge">
<title>Node6&#45;&gt;Node10</title>
<path fill="none" stroke="midnightblue" d="M757.41,-167.43C778.21,-154.02 803.45,-137.76 822.84,-125.26"/>
<polygon fill="midnightblue" stroke="midnightblue" points="755.31,-164.62 748.8,-172.98 759.1,-170.5 755.31,-164.62"/>
</g>
<!-- Node11&#45;&gt;Node2 -->
<g id="edge14" class="edge">
<title>Node11&#45;&gt;Node2</title>
<path fill="none" stroke="midnightblue" d="M367.62,-340.19C348.52,-328.3 325.96,-314.27 308.08,-303.14"/>
<polygon fill="midnightblue" stroke="midnightblue" points="365.78,-343.17 376.12,-345.48 369.48,-337.22 365.78,-343.17"/>
</g>
<!-- Node11&#45;&gt;Node4 -->
<g id="edge16" class="edge">
<title>Node11&#45;&gt;Node4</title>
<path fill="none" stroke="midnightblue" d="M431.27,-394.88C437.55,-404.36 443.79,-414.74 448.38,-423.43"/>
<polygon fill="midnightblue" stroke="midnightblue" points="434.08,-392.78 425.54,-386.51 428.3,-396.74 434.08,-392.78"/>
</g>
<!-- Node11&#45;&gt;Node9 -->
<g id="edge15" class="edge">
<title>Node11&#45;&gt;Node9</title>
<path fill="none" stroke="midnightblue" d="M476.36,-342.14C555.84,-315.2 690.07,-267.99 802.5,-220 873.42,-189.73 953.67,-148.99 999.36,-125.15"/>
<polygon fill="midnightblue" stroke="midnightblue" points="474.82,-338.97 466.46,-345.49 477.06,-345.6 474.82,-338.97"/>
</g>
<!-- Node12&#45;&gt;Node6 -->
<g id="edge19" class="edge">
<title>Node12&#45;&gt;Node6</title>
<path fill="none" stroke="midnightblue" d="M1124.41,-350.11C1075.49,-340.77 1014.37,-327.06 961.5,-309 884.71,-282.78 800.04,-239.3 753.69,-214.15"/>
<polygon fill="midnightblue" stroke="midnightblue" points="1123.86,-353.57 1134.34,-351.98 1125.16,-346.69 1123.86,-353.57"/>
</g>
<!-- Node13 -->
<g id="node13" class="node">
<title>Node13</title>
<g id="a_node13"><a xlink:href="_graphic_event_handler_8cpp.html" target="_top" xlink:title=" ">
<polygon fill="none" stroke="black" points="975,-173 975,-214 1172,-214 1172,-173 975,-173"/>
<text text-anchor="start" x="983" y="-202" font-family="Helvetica,sans-Serif" font-size="10.00">/home/tomek/CLionProjects</text>
<text text-anchor="start" x="983" y="-191" font-family="Helvetica,sans-Serif" font-size="10.00">/proi/proi&#45;projekt/src</text>
<text text-anchor="middle" x="1073.5" y="-180" font-family="Helvetica,sans-Serif" font-size="10.00">/graphic&#45;lib/GraphicEventHandler.cpp</text>
</a>
</g>
</g>
<!-- Node12&#45;&gt;Node13 -->
<g id="edge20" class="edge">
<title>Node12&#45;&gt;Node13</title>
<path fill="none" stroke="midnightblue" d="M1203.6,-335.9C1193.91,-312.59 1178.09,-279.94 1157.5,-256 1143.36,-239.56 1124.02,-225.02 1107.46,-214.21"/>
<polygon fill="midnightblue" stroke="midnightblue" points="1200.39,-337.3 1207.38,-345.27 1206.89,-334.69 1200.39,-337.3"/>
</g>
<!-- Node14 -->
<g id="node14" class="node">
<title>Node14</title>
<g id="a_node14"><a xlink:href="_menu_state_graphic_8cpp.html" target="_top" xlink:title=" ">
<polygon fill="none" stroke="black" points="1144,-84 1144,-125 1329,-125 1329,-84 1144,-84"/>
<text text-anchor="start" x="1152" y="-113" font-family="Helvetica,sans-Serif" font-size="10.00">/home/tomek/CLionProjects</text>
<text text-anchor="start" x="1152" y="-102" font-family="Helvetica,sans-Serif" font-size="10.00">/proi/proi&#45;projekt/src</text>
<text text-anchor="middle" x="1236.5" y="-91" font-family="Helvetica,sans-Serif" font-size="10.00">/graphic&#45;lib/MenuStateGraphic.cpp</text>
</a>
</g>
</g>
<!-- Node12&#45;&gt;Node14 -->
<g id="edge21" class="edge">
<title>Node12&#45;&gt;Node14</title>
<path fill="none" stroke="midnightblue" d="M1217.02,-335.29C1221.56,-281.75 1230.99,-170.44 1234.83,-125.23"/>
<polygon fill="midnightblue" stroke="midnightblue" points="1213.51,-335.24 1216.15,-345.5 1220.49,-335.83 1213.51,-335.24"/>
</g>
<!-- Node15 -->
<g id="node15" class="node">
<title>Node15</title>
<g id="a_node15"><a xlink:href="_window_8cpp.html" target="_top" xlink:title=" ">
<polygon fill="none" stroke="black" points="1526,-84 1526,-125 1677,-125 1677,-84 1526,-84"/>
<text text-anchor="start" x="1534" y="-113" font-family="Helvetica,sans-Serif" font-size="10.00">/home/tomek/CLionProjects</text>
<text text-anchor="start" x="1534" y="-102" font-family="Helvetica,sans-Serif" font-size="10.00">/proi/proi&#45;projekt/src</text>
<text text-anchor="middle" x="1601.5" y="-91" font-family="Helvetica,sans-Serif" font-size="10.00">/graphic&#45;lib/Window.cpp</text>
</a>
</g>
</g>
<!-- Node12&#45;&gt;Node15 -->
<g id="edge22" class="edge">
<title>Node12&#45;&gt;Node15</title>
<path fill="none" stroke="midnightblue" d="M1304.84,-359.63C1387.75,-352.91 1502.68,-338.48 1536.5,-309 1591.58,-260.99 1600.38,-166.36 1601.51,-125.3"/>
<polygon fill="midnightblue" stroke="midnightblue" points="1304.33,-356.16 1294.64,-360.43 1304.88,-363.14 1304.33,-356.16"/>
</g>
<!-- Node16 -->
<g id="node16" class="node">
<title>Node16</title>
<g id="a_node16"><a xlink:href="_active_state_graphic_8h.html" target="_top" xlink:title=" ">
<polygon fill="none" stroke="black" points="1787,-256.5 1787,-308.5 1956,-308.5 1956,-256.5 1787,-256.5"/>
<text text-anchor="start" x="1795" y="-296.5" font-family="Helvetica,sans-Serif" font-size="10.00">/home/tomek/CLionProjects</text>
<text text-anchor="start" x="1795" y="-285.5" font-family="Helvetica,sans-Serif" font-size="10.00">/proi/proi&#45;projekt/src</text>
<text text-anchor="start" x="1795" y="-274.5" font-family="Helvetica,sans-Serif" font-size="10.00">/graphic&#45;lib/include/ActiveState</text>
<text text-anchor="middle" x="1871.5" y="-263.5" font-family="Helvetica,sans-Serif" font-size="10.00">_dir/ActiveStateGraphic.h</text>
</a>
</g>
</g>
<!-- Node12&#45;&gt;Node16 -->
<g id="edge23" class="edge">
<title>Node12&#45;&gt;Node16</title>
<path fill="none" stroke="midnightblue" d="M1304.84,-353.79C1432.15,-338 1662.63,-309.41 1786.8,-294.01"/>
<polygon fill="midnightblue" stroke="midnightblue" points="1304.23,-350.34 1294.73,-355.05 1305.09,-357.29 1304.23,-350.34"/>
</g>
<!-- Node26 -->
<g id="node26" class="node">
<title>Node26</title>
<g id="a_node26"><a xlink:href="_graphic_event_handler_8h.html" target="_top" xlink:title=" ">
<polygon fill="none" stroke="black" points="970.5,-256.5 970.5,-308.5 1148.5,-308.5 1148.5,-256.5 970.5,-256.5"/>
<text text-anchor="start" x="978.5" y="-296.5" font-family="Helvetica,sans-Serif" font-size="10.00">/home/tomek/CLionProjects</text>
<text text-anchor="start" x="978.5" y="-285.5" font-family="Helvetica,sans-Serif" font-size="10.00">/proi/proi&#45;projekt/src</text>
<text text-anchor="start" x="978.5" y="-274.5" font-family="Helvetica,sans-Serif" font-size="10.00">/graphic&#45;lib/include/GraphicEvent</text>
<text text-anchor="middle" x="1059.5" y="-263.5" font-family="Helvetica,sans-Serif" font-size="10.00">Handler.h</text>
</a>
</g>
</g>
<!-- Node12&#45;&gt;Node26 -->
<g id="edge38" class="edge">
<title>Node12&#45;&gt;Node26</title>
<path fill="none" stroke="midnightblue" d="M1168.46,-340.79C1149.14,-330.63 1126.68,-318.82 1107.19,-308.58"/>
<polygon fill="midnightblue" stroke="midnightblue" points="1166.89,-343.92 1177.37,-345.48 1170.15,-337.73 1166.89,-343.92"/>
</g>
<!-- Node27 -->
<g id="node27" class="node">
<title>Node27</title>
<g id="a_node27"><a xlink:href="_menu_state_graphic_8h.html" target="_top" xlink:title=" ">
<polygon fill="none" stroke="black" points="1243,-167.5 1243,-219.5 1414,-219.5 1414,-167.5 1243,-167.5"/>
<text text-anchor="start" x="1251" y="-207.5" font-family="Helvetica,sans-Serif" font-size="10.00">/home/tomek/CLionProjects</text>
<text text-anchor="start" x="1251" y="-196.5" font-family="Helvetica,sans-Serif" font-size="10.00">/proi/proi&#45;projekt/src</text>
<text text-anchor="start" x="1251" y="-185.5" font-family="Helvetica,sans-Serif" font-size="10.00">/graphic&#45;lib/include/StaticStates</text>
<text text-anchor="middle" x="1328.5" y="-174.5" font-family="Helvetica,sans-Serif" font-size="10.00">_dir/MenuStateGraphic.h</text>
</a>
</g>
</g>
<!-- Node12&#45;&gt;Node27 -->
<g id="edge41" class="edge">
<title>Node12&#45;&gt;Node27</title>
<path fill="none" stroke="midnightblue" d="M1233.34,-336.82C1255.17,-304.18 1290.79,-250.89 1311.71,-219.61"/>
<polygon fill="midnightblue" stroke="midnightblue" points="1230.23,-335.18 1227.58,-345.44 1236.05,-339.07 1230.23,-335.18"/>
</g>
<!-- Node29 -->
<g id="node29" class="node">
<title>Node29</title>
<g id="a_node29"><a xlink:href="_static_graphic_8h.html" target="_top" xlink:title=" ">
<polygon fill="none" stroke="black" points="1357,-256.5 1357,-308.5 1528,-308.5 1528,-256.5 1357,-256.5"/>
<text text-anchor="start" x="1365" y="-296.5" font-family="Helvetica,sans-Serif" font-size="10.00">/home/tomek/CLionProjects</text>
<text text-anchor="start" x="1365" y="-285.5" font-family="Helvetica,sans-Serif" font-size="10.00">/proi/proi&#45;projekt/src</text>
<text text-anchor="start" x="1365" y="-274.5" font-family="Helvetica,sans-Serif" font-size="10.00">/graphic&#45;lib/include/StaticStates</text>
<text text-anchor="middle" x="1442.5" y="-263.5" font-family="Helvetica,sans-Serif" font-size="10.00">_dir/StaticGraphic.h</text>
</a>
</g>
</g>
<!-- Node12&#45;&gt;Node29 -->
<g id="edge44" class="edge">
<title>Node12&#45;&gt;Node29</title>
<path fill="none" stroke="midnightblue" d="M1278.78,-342.02C1307.95,-331.6 1342.51,-319.24 1372.35,-308.58"/>
<polygon fill="midnightblue" stroke="midnightblue" points="1277.35,-338.82 1269.11,-345.48 1279.71,-345.41 1277.35,-338.82"/>
</g>
<!-- Node17 -->
<g id="node17" class="node">
<title>Node17</title>
<g id="a_node17"><a xlink:href="_active_state_graphic_8cpp.html" target="_top" xlink:title=" ">
<polygon fill="none" stroke="black" points="1874.5,-84 1874.5,-125 2062.5,-125 2062.5,-84 1874.5,-84"/>
<text text-anchor="start" x="1882.5" y="-113" font-family="Helvetica,sans-Serif" font-size="10.00">/home/tomek/CLionProjects</text>
<text text-anchor="start" x="1882.5" y="-102" font-family="Helvetica,sans-Serif" font-size="10.00">/proi/proi&#45;projekt/src</text>
<text text-anchor="middle" x="1968.5" y="-91" font-family="Helvetica,sans-Serif" font-size="10.00">/graphic&#45;lib/ActiveStateGraphic.cpp</text>
</a>
</g>
</g>
<!-- Node16&#45;&gt;Node17 -->
<g id="edge24" class="edge">
<title>Node16&#45;&gt;Node17</title>
<path fill="none" stroke="midnightblue" d="M1890.23,-247.51C1910.25,-211.18 1941.31,-154.84 1957.63,-125.22"/>
<polygon fill="midnightblue" stroke="midnightblue" points="1887.16,-245.84 1885.4,-256.28 1893.29,-249.21 1887.16,-245.84"/>
</g>
<!-- Node18 -->
<g id="node18" class="node">
<title>Node18</title>
<g id="a_node18"><a xlink:href="_board_graphic_8h.html" target="_top" xlink:title=" ">
<polygon fill="none" stroke="black" points="1711,-167.5 1711,-219.5 1880,-219.5 1880,-167.5 1711,-167.5"/>
<text text-anchor="start" x="1719" y="-207.5" font-family="Helvetica,sans-Serif" font-size="10.00">/home/tomek/CLionProjects</text>
<text text-anchor="start" x="1719" y="-196.5" font-family="Helvetica,sans-Serif" font-size="10.00">/proi/proi&#45;projekt/src</text>
<text text-anchor="start" x="1719" y="-185.5" font-family="Helvetica,sans-Serif" font-size="10.00">/graphic&#45;lib/include/ActiveState</text>
<text text-anchor="middle" x="1795.5" y="-174.5" font-family="Helvetica,sans-Serif" font-size="10.00">_dir/Borad_dir/BoardGraphic.h</text>
</a>
</g>
</g>
<!-- Node16&#45;&gt;Node18 -->
<g id="edge25" class="edge">
<title>Node16&#45;&gt;Node18</title>
<path fill="none" stroke="midnightblue" d="M1842.93,-248.79C1834.49,-239.13 1825.38,-228.71 1817.43,-219.61"/>
<polygon fill="midnightblue" stroke="midnightblue" points="1840.3,-251.11 1849.52,-256.34 1845.57,-246.5 1840.3,-251.11"/>
</g>
<!-- Node20 -->
<g id="node20" class="node">
<title>Node20</title>
<g id="a_node20"><a xlink:href="_frame_graphic_8h.html" target="_top" xlink:title=" ">
<polygon fill="none" stroke="black" points="2006,-167.5 2006,-219.5 2175,-219.5 2175,-167.5 2006,-167.5"/>
<text text-anchor="start" x="2014" y="-207.5" font-family="Helvetica,sans-Serif" font-size="10.00">/home/tomek/CLionProjects</text>
<text text-anchor="start" x="2014" y="-196.5" font-family="Helvetica,sans-Serif" font-size="10.00">/proi/proi&#45;projekt/src</text>
<text text-anchor="start" x="2014" y="-185.5" font-family="Helvetica,sans-Serif" font-size="10.00">/graphic&#45;lib/include/ActiveState</text>
<text text-anchor="middle" x="2090.5" y="-174.5" font-family="Helvetica,sans-Serif" font-size="10.00">_dir/Frame_dir/FrameGraphic.h</text>
</a>
</g>
</g>
<!-- Node16&#45;&gt;Node20 -->
<g id="edge29" class="edge">
<title>Node16&#45;&gt;Node20</title>
<path fill="none" stroke="midnightblue" d="M1943.95,-252.72C1970.98,-241.98 2001.41,-229.89 2027.52,-219.52"/>
<polygon fill="midnightblue" stroke="midnightblue" points="1942.55,-249.51 1934.55,-256.45 1945.14,-256.01 1942.55,-249.51"/>
</g>
<!-- Node18&#45;&gt;Node15 -->
<g id="edge28" class="edge">
<title>Node18&#45;&gt;Node15</title>
<path fill="none" stroke="midnightblue" d="M1730.32,-163.27C1702.33,-150.72 1670.37,-136.38 1645.28,-125.13"/>
<polygon fill="midnightblue" stroke="midnightblue" points="1729.09,-166.55 1739.65,-167.45 1731.96,-160.17 1729.09,-166.55"/>
</g>
<!-- Node18&#45;&gt;Node17 -->
<g id="edge26" class="edge">
<title>Node18&#45;&gt;Node17</title>
<path fill="none" stroke="midnightblue" d="M1854.5,-162.83C1879.29,-150.36 1907.44,-136.21 1929.56,-125.08"/>
<polygon fill="midnightblue" stroke="midnightblue" points="1852.9,-159.72 1845.54,-167.34 1856.05,-165.97 1852.9,-159.72"/>
</g>
<!-- Node19 -->
<g id="node19" class="node">
<title>Node19</title>
<g id="a_node19"><a xlink:href="_board_graphic_8cpp.html" target="_top" xlink:title=" ">
<polygon fill="none" stroke="black" points="1695,-84 1695,-125 1856,-125 1856,-84 1695,-84"/>
<text text-anchor="start" x="1703" y="-113" font-family="Helvetica,sans-Serif" font-size="10.00">/home/tomek/CLionProjects</text>
<text text-anchor="start" x="1703" y="-102" font-family="Helvetica,sans-Serif" font-size="10.00">/proi/proi&#45;projekt/src</text>
<text text-anchor="middle" x="1775.5" y="-91" font-family="Helvetica,sans-Serif" font-size="10.00">/graphic&#45;lib/BoardGraphic.cpp</text>
</a>
</g>
</g>
<!-- Node18&#45;&gt;Node19 -->
<g id="edge27" class="edge">
<title>Node18&#45;&gt;Node19</title>
<path fill="none" stroke="midnightblue" d="M1787.45,-157.49C1784.91,-146.45 1782.2,-134.65 1780,-125.08"/>
<polygon fill="midnightblue" stroke="midnightblue" points="1784.06,-158.37 1789.72,-167.34 1790.89,-156.81 1784.06,-158.37"/>
</g>
<!-- Node20&#45;&gt;Node17 -->
<g id="edge30" class="edge">
<title>Node20&#45;&gt;Node17</title>
<path fill="none" stroke="midnightblue" d="M2047.04,-161.51C2030.03,-149.37 2011.01,-135.82 1995.96,-125.08"/>
<polygon fill="midnightblue" stroke="midnightblue" points="2045.04,-164.38 2055.21,-167.34 2049.1,-158.68 2045.04,-164.38"/>
</g>
<!-- Node21 -->
<g id="node21" class="node">
<title>Node21</title>
<g id="a_node21"><a xlink:href="_frame_graphic_8cpp.html" target="_top" xlink:title=" ">
<polygon fill="none" stroke="black" points="2009,-0.5 2009,-41.5 2172,-41.5 2172,-0.5 2009,-0.5"/>
<text text-anchor="start" x="2017" y="-29.5" font-family="Helvetica,sans-Serif" font-size="10.00">/home/tomek/CLionProjects</text>
<text text-anchor="start" x="2017" y="-18.5" font-family="Helvetica,sans-Serif" font-size="10.00">/proi/proi&#45;projekt/src</text>
<text text-anchor="middle" x="2090.5" y="-7.5" font-family="Helvetica,sans-Serif" font-size="10.00">/graphic&#45;lib/FrameGraphic.cpp</text>
</a>
</g>
</g>
<!-- Node20&#45;&gt;Node21 -->
<g id="edge31" class="edge">
<title>Node20&#45;&gt;Node21</title>
<path fill="none" stroke="midnightblue" d="M2090.5,-157.08C2090.5,-122.09 2090.5,-69.84 2090.5,-41.68"/>
<polygon fill="midnightblue" stroke="midnightblue" points="2087,-157.34 2090.5,-167.34 2094,-157.34 2087,-157.34"/>
</g>
<!-- Node22 -->
<g id="node22" class="node">
<title>Node22</title>
<g id="a_node22"><a xlink:href="_bare_frame_graphic_8h.html" target="_top" xlink:title=" ">
<polygon fill="none" stroke="black" points="2119,-78.5 2119,-130.5 2308,-130.5 2308,-78.5 2119,-78.5"/>
<text text-anchor="start" x="2127" y="-118.5" font-family="Helvetica,sans-Serif" font-size="10.00">/home/tomek/CLionProjects</text>
<text text-anchor="start" x="2127" y="-107.5" font-family="Helvetica,sans-Serif" font-size="10.00">/proi/proi&#45;projekt/src</text>
<text text-anchor="start" x="2127" y="-96.5" font-family="Helvetica,sans-Serif" font-size="10.00">/graphic&#45;lib/include/ActiveState</text>
<text text-anchor="middle" x="2213.5" y="-85.5" font-family="Helvetica,sans-Serif" font-size="10.00">_dir/Frame_dir/BareFrameGraphic.h</text>
</a>
</g>
</g>
<!-- Node20&#45;&gt;Node22 -->
<g id="edge32" class="edge">
<title>Node20&#45;&gt;Node22</title>
<path fill="none" stroke="midnightblue" d="M2134.32,-161.5C2148.65,-151.37 2164.37,-140.25 2178,-130.61"/>
<polygon fill="midnightblue" stroke="midnightblue" points="2132.22,-158.7 2126.08,-167.34 2136.26,-164.42 2132.22,-158.7"/>
</g>
<!-- Node24 -->
<g id="node24" class="node">
<title>Node24</title>
<g id="a_node24"><a xlink:href="_game_info_graphic_8h.html" target="_top" xlink:title=" ">
<polygon fill="none" stroke="black" points="2326.5,-78.5 2326.5,-130.5 2510.5,-130.5 2510.5,-78.5 2326.5,-78.5"/>
<text text-anchor="start" x="2334.5" y="-118.5" font-family="Helvetica,sans-Serif" font-size="10.00">/home/tomek/CLionProjects</text>
<text text-anchor="start" x="2334.5" y="-107.5" font-family="Helvetica,sans-Serif" font-size="10.00">/proi/proi&#45;projekt/src</text>
<text text-anchor="start" x="2334.5" y="-96.5" font-family="Helvetica,sans-Serif" font-size="10.00">/graphic&#45;lib/include/ActiveState</text>
<text text-anchor="middle" x="2418.5" y="-85.5" font-family="Helvetica,sans-Serif" font-size="10.00">_dir/Frame_dir/GameInfoGraphic.h</text>
</a>
</g>
</g>
<!-- Node20&#45;&gt;Node24 -->
<g id="edge35" class="edge">
<title>Node20&#45;&gt;Node24</title>
<path fill="none" stroke="midnightblue" d="M2185.32,-167.35C2229.73,-155.57 2282.42,-141.59 2326.48,-129.91"/>
<polygon fill="midnightblue" stroke="midnightblue" points="2184.16,-164.04 2175.39,-169.98 2185.96,-170.8 2184.16,-164.04"/>
</g>
<!-- Node22&#45;&gt;Node21 -->
<g id="edge34" class="edge">
<title>Node22&#45;&gt;Node21</title>
<path fill="none" stroke="midnightblue" d="M2167.06,-72.73C2151.38,-62.34 2134.31,-51.03 2120.28,-41.73"/>
<polygon fill="midnightblue" stroke="midnightblue" points="2165.32,-75.78 2175.59,-78.38 2169.19,-69.94 2165.32,-75.78"/>
</g>
<!-- Node23 -->
<g id="node23" class="node">
<title>Node23</title>
<g id="a_node23"><a xlink:href="_bare_frame_graphic_8cpp.html" target="_top" xlink:title=" ">
<polygon fill="none" stroke="black" points="2190,-0.5 2190,-41.5 2375,-41.5 2375,-0.5 2190,-0.5"/>
<text text-anchor="start" x="2198" y="-29.5" font-family="Helvetica,sans-Serif" font-size="10.00">/home/tomek/CLionProjects</text>
<text text-anchor="start" x="2198" y="-18.5" font-family="Helvetica,sans-Serif" font-size="10.00">/proi/proi&#45;projekt/src</text>
<text text-anchor="middle" x="2282.5" y="-7.5" font-family="Helvetica,sans-Serif" font-size="10.00">/graphic&#45;lib/BareFrameGraphic.cpp</text>
</a>
</g>
</g>
<!-- Node22&#45;&gt;Node23 -->
<g id="edge33" class="edge">
<title>Node22&#45;&gt;Node23</title>
<path fill="none" stroke="midnightblue" d="M2241.45,-70.48C2249.74,-60.69 2258.56,-50.28 2265.88,-41.63"/>
<polygon fill="midnightblue" stroke="midnightblue" points="2238.74,-68.27 2234.95,-78.16 2244.09,-72.79 2238.74,-68.27"/>
</g>
<!-- Node24&#45;&gt;Node21 -->
<g id="edge36" class="edge">
<title>Node24&#45;&gt;Node21</title>
<path fill="none" stroke="midnightblue" d="M2316.81,-78.08C2316.7,-78.05 2316.6,-78.03 2316.5,-78 2267.66,-65.84 2212.88,-52.27 2169.48,-41.53"/>
<polygon fill="midnightblue" stroke="midnightblue" points="2315.93,-81.47 2326.48,-80.49 2317.62,-74.67 2315.93,-81.47"/>
</g>
<!-- Node25 -->
<g id="node25" class="node">
<title>Node25</title>
<g id="a_node25"><a xlink:href="_game_info_graphic_8cpp.html" target="_top" xlink:title=" ">
<polygon fill="none" stroke="black" points="2393.5,-0.5 2393.5,-41.5 2573.5,-41.5 2573.5,-0.5 2393.5,-0.5"/>
<text text-anchor="start" x="2401.5" y="-29.5" font-family="Helvetica,sans-Serif" font-size="10.00">/home/tomek/CLionProjects</text>
<text text-anchor="start" x="2401.5" y="-18.5" font-family="Helvetica,sans-Serif" font-size="10.00">/proi/proi&#45;projekt/src</text>
<text text-anchor="middle" x="2483.5" y="-7.5" font-family="Helvetica,sans-Serif" font-size="10.00">/graphic&#45;lib/GameInfoGraphic.cpp</text>
</a>
</g>
</g>
<!-- Node24&#45;&gt;Node25 -->
<g id="edge37" class="edge">
<title>Node24&#45;&gt;Node25</title>
<path fill="none" stroke="midnightblue" d="M2445.06,-70.19C2452.81,-60.49 2461.01,-50.2 2467.85,-41.63"/>
<polygon fill="midnightblue" stroke="midnightblue" points="2442.21,-68.16 2438.71,-78.16 2447.68,-72.52 2442.21,-68.16"/>
</g>
<!-- Node26&#45;&gt;Node6 -->
<g id="edge39" class="edge">
<title>Node26&#45;&gt;Node6</title>
<path fill="none" stroke="midnightblue" d="M960.58,-256.26C907.52,-242.73 843.16,-226.3 794.14,-213.8"/>
<polygon fill="midnightblue" stroke="midnightblue" points="959.8,-259.67 970.35,-258.76 961.53,-252.89 959.8,-259.67"/>
</g>
<!-- Node26&#45;&gt;Node13 -->
<g id="edge40" class="edge">
<title>Node26&#45;&gt;Node13</title>
<path fill="none" stroke="midnightblue" d="M1065.19,-246.16C1066.95,-235.21 1068.83,-223.55 1070.35,-214.08"/>
<polygon fill="midnightblue" stroke="midnightblue" points="1061.68,-245.91 1063.55,-256.34 1068.59,-247.02 1061.68,-245.91"/>
</g>
<!-- Node27&#45;&gt;Node14 -->
<g id="edge42" class="edge">
<title>Node27&#45;&gt;Node14</title>
<path fill="none" stroke="midnightblue" d="M1294.32,-160.18C1281.86,-148.39 1268.15,-135.43 1257.21,-125.08"/>
<polygon fill="midnightblue" stroke="midnightblue" points="1292.22,-163.01 1301.89,-167.34 1297.03,-157.92 1292.22,-163.01"/>
</g>
<!-- Node28 -->
<g id="node28" class="node">
<title>Node28</title>
<g id="a_node28"><a xlink:href="_static_graphic_8cpp.html" target="_top" xlink:title=" ">
<polygon fill="none" stroke="black" points="1347.5,-84 1347.5,-125 1507.5,-125 1507.5,-84 1347.5,-84"/>
<text text-anchor="start" x="1355.5" y="-113" font-family="Helvetica,sans-Serif" font-size="10.00">/home/tomek/CLionProjects</text>
<text text-anchor="start" x="1355.5" y="-102" font-family="Helvetica,sans-Serif" font-size="10.00">/proi/proi&#45;projekt/src</text>
<text text-anchor="middle" x="1427.5" y="-91" font-family="Helvetica,sans-Serif" font-size="10.00">/graphic&#45;lib/StaticGraphic.cpp</text>
</a>
</g>
</g>
<!-- Node27&#45;&gt;Node28 -->
<g id="edge43" class="edge">
<title>Node27&#45;&gt;Node28</title>
<path fill="none" stroke="midnightblue" d="M1364.9,-160.51C1378.41,-148.64 1393.33,-135.53 1405.22,-125.08"/>
<polygon fill="midnightblue" stroke="midnightblue" points="1362.34,-158.11 1357.13,-167.34 1366.96,-163.36 1362.34,-158.11"/>
</g>
<!-- Node29&#45;&gt;Node15 -->
<g id="edge46" class="edge">
<title>Node29&#45;&gt;Node15</title>
<path fill="none" stroke="midnightblue" d="M1472.38,-248.43C1505.16,-212.14 1556.7,-155.09 1583.68,-125.22"/>
<polygon fill="midnightblue" stroke="midnightblue" points="1469.39,-246.52 1465.28,-256.28 1474.58,-251.21 1469.39,-246.52"/>
</g>
<!-- Node29&#45;&gt;Node27 -->
<g id="edge47" class="edge">
<title>Node29&#45;&gt;Node27</title>
<path fill="none" stroke="midnightblue" d="M1401.51,-250.22C1388.34,-240.16 1373.92,-229.16 1361.4,-219.61"/>
<polygon fill="midnightblue" stroke="midnightblue" points="1399.45,-253.05 1409.53,-256.34 1403.7,-247.49 1399.45,-253.05"/>
</g>
<!-- Node29&#45;&gt;Node28 -->
<g id="edge45" class="edge">
<title>Node29&#45;&gt;Node28</title>
<path fill="none" stroke="midnightblue" d="M1439.48,-246.11C1436.39,-209.76 1431.67,-154.46 1429.18,-125.22"/>
<polygon fill="midnightblue" stroke="midnightblue" points="1436.01,-246.62 1440.35,-256.28 1442.99,-246.02 1436.01,-246.62"/>
</g>
</g>
</svg>
