<?xml version="1.0" encoding="UTF-8" standalone="no"?>
<!DOCTYPE svg PUBLIC "-//W3C//DTD SVG 1.1//EN"
 "http://www.w3.org/Graphics/SVG/1.1/DTD/svg11.dtd">
<!-- Generated by graphviz version 2.43.0 (0)
 -->
<!-- Title: /home/tomek/CLionProjects/proi/proi&#45;projekt/src/core&#45;lib/include/SimpleSubscriber.h Pages: 1 -->
<svg width="199pt" height="106pt"
 viewBox="0.00 0.00 199.00 106.00" xmlns="http://www.w3.org/2000/svg" xmlns:xlink="http://www.w3.org/1999/xlink">
<g id="graph0" class="graph" transform="scale(1 1) rotate(0) translate(4 102)">
<title>/home/tomek/CLionProjects/proi/proi&#45;projekt/src/core&#45;lib/include/SimpleSubscriber.h</title>
<!-- Node1 -->
<g id="node1" class="node">
<title>Node1</title>
<g id="a_node1"><a xlink:title=" ">
<polygon fill="#bfbfbf" stroke="black" points="0,-56.5 0,-97.5 191,-97.5 191,-56.5 0,-56.5"/>
<text text-anchor="start" x="8" y_="-85.5" font-family="Helvetica,sans-Serif" font-size="10.00">/home/tomek/CLionProjects</text>
<text text-anchor="start" x="8" y_="-74.5" font-family="Helvetica,sans-Serif" font-size="10.00">/proi/proi&#45;projekt/src</text>
<text text-anchor="middle" x="95.5" y_="-63.5" font-family="Helvetica,sans-Serif" font-size="10.00">/core&#45;lib/include/SimpleSubscriber.h</text>
</a>
</g>
</g>
<!-- Node2 -->
<g id="node2" class="node">
<title>Node2</title>
<g id="a_node2"><a xlink:title=" ">
<polygon fill="none" stroke="#bfbfbf" points="37,-0.5 37,-19.5 84,-19.5 84,-0.5 37,-0.5"/>
<text text-anchor="middle" x="60.5" y_="-7.5" font-family="Helvetica,sans-Serif" font-size="10.00">vector</text>
</a>
</g>
</g>
<!-- Node1&#45;&gt;Node2 -->
<g id="edge1" class="edge">
<title>Node1&#45;&gt;Node2</title>
<path fill="none" stroke="midnightblue" d="M85,-56.5C80.2,-47.59 74.56,-37.11 69.9,-28.46"/>
<polygon fill="midnightblue" stroke="midnightblue" points="72.98,-26.8 65.16,-19.65 66.82,-30.12 72.98,-26.8"/>
</g>
<!-- Node3 -->
<g id="node3" class="node">
<title>Node3</title>
<g id="a_node3"><a xlink:title=" ">
<polygon fill="none" stroke="#bfbfbf" points="102.5,-0.5 102.5,-19.5 160.5,-19.5 160.5,-0.5 102.5,-0.5"/>
<text text-anchor="middle" x="131.5" y_="-7.5" font-family="Helvetica,sans-Serif" font-size="10.00">memory</text>
</a>
</g>
</g>
<!-- Node1&#45;&gt;Node3 -->
<g id="edge2" class="edge">
<title>Node1&#45;&gt;Node3</title>
<path fill="none" stroke="midnightblue" d="M106.3,-56.5C111.24,-47.59 117.04,-37.11 121.83,-28.46"/>
<polygon fill="midnightblue" stroke="midnightblue" points="124.92,-30.1 126.71,-19.65 118.8,-26.7 124.92,-30.1"/>
</g>
</g>
</svg>
