<?xml version="1.0" encoding="UTF-8" standalone="no"?>
<!DOCTYPE svg PUBLIC "-//W3C//DTD SVG 1.1//EN"
 "http://www.w3.org/Graphics/SVG/1.1/DTD/svg11.dtd">
<!-- Generated by graphviz version 2.43.0 (0)
 -->
<!-- Title: /home/tomek/CLionProjects/proi/proi&#45;projekt/src/core&#45;lib/include/SimpleSubscriber.h Pages: 1 -->
<!--zoomable 440 -->
<svg id="main" version="1.1" xmlns="http://www.w3.org/2000/svg" xmlns:xlink="http://www.w3.org/1999/xlink" xml:space="preserve" onload="init(evt)">
<style type="text/css"><![CDATA[
.edge:hover path { stroke: red; }
.edge:hover polygon { stroke: red; fill: red; }
]]></style>
<script type="text/javascript"><![CDATA[
var edges = document.getElementsByTagName('g');
if (edges && edges.length) {
  for (var i=0;i<edges.length;i++) {
    if (edges[i].id.substr(0,4)=='edge') {
      edges[i].setAttribute('class','edge');
    }
  }
}
]]></script>
        <defs>
                <circle id="rim" cx="0" cy="0" r="7"/>
                <circle id="rim2" cx="0" cy="0" r="3.5"/>
                <g id="zoomPlus">
                        <use xlink:href="#rim" fill="#404040">
                                <set attributeName="fill" to="#808080" begin="zoomplus.mouseover" end="zoomplus.mouseout"/>
                        </use>
                        <path d="M-4,0h8M0,-4v8" fill="none" stroke="white" stroke-width="1.5" pointer-events="none"/>
                </g>
                <g id="zoomMin">
                        <use xlink:href="#rim" fill="#404040">
                                <set attributeName="fill" to="#808080" begin="zoomminus.mouseover" end="zoomminus.mouseout"/>
                        </use>
                        <path d="M-4,0h8" fill="none" stroke="white" stroke-width="1.5" pointer-events="none"/>
                </g>
                <g id="dirArrow">
                        <path fill="none" stroke="white" stroke-width="1.5" d="M0,-3.0v7 M-2.5,-0.5L0,-3.0L2.5,-0.5"/>
                </g>
               <g id="resetDef">
                       <use xlink:href="#rim2" fill="#404040">
                               <set attributeName="fill" to="#808080" begin="reset.mouseover" end="reset.mouseout"/>
                       </use>
               </g>
        </defs>

<script type="text/javascript">
var viewWidth = 1203;
var viewHeight = 440;
var sectionId = 'dynsection-1';
</script>
<script xlink:href="svgpan.js"/>
<svg id="graph" class="graph">
<g id="viewport">
<title>/home/tomek/CLionProjects/proi/proi&#45;projekt/src/core&#45;lib/include/SimpleSubscriber.h</title>
<!-- Node1 -->
<g id="node1" class="node">
<title>Node1</title>
<g id="a_node1"><a xlink:title=" ">
<polygon fill="#bfbfbf" stroke="black" points="343.5,-390.5 343.5,-431.5 534.5,-431.5 534.5,-390.5 343.5,-390.5"/>
<text text-anchor="start" x="351.5" y="-419.5" font-family="Helvetica,sans-Serif" font-size="10.00">/home/tomek/CLionProjects</text>
<text text-anchor="start" x="351.5" y="-408.5" font-family="Helvetica,sans-Serif" font-size="10.00">/proi/proi&#45;projekt/src</text>
<text text-anchor="middle" x="439" y="-397.5" font-family="Helvetica,sans-Serif" font-size="10.00">/core&#45;lib/include/SimpleSubscriber.h</text>
</a>
</g>
</g>
<!-- Node2 -->
<g id="node2" class="node">
<title>Node2</title>
<g id="a_node2"><a xlink:href="_simple_publisher_8cpp.html" target="_top" xlink:title=" ">
<polygon fill="none" stroke="black" points="0,-312.5 0,-353.5 158,-353.5 158,-312.5 0,-312.5"/>
<text text-anchor="start" x="8" y="-341.5" font-family="Helvetica,sans-Serif" font-size="10.00">/home/tomek/CLionProjects</text>
<text text-anchor="start" x="8" y="-330.5" font-family="Helvetica,sans-Serif" font-size="10.00">/proi/proi&#45;projekt/src</text>
<text text-anchor="middle" x="79" y="-319.5" font-family="Helvetica,sans-Serif" font-size="10.00">/core&#45;lib/SimplePublisher.cpp</text>
</a>
</g>
</g>
<!-- Node1&#45;&gt;Node2 -->
<g id="edge1" class="edge">
<title>Node1&#45;&gt;Node2</title>
<path fill="none" stroke="midnightblue" d="M333.3,-388.76C282.89,-378.5 221.78,-365.86 167,-354 164.09,-353.37 161.13,-352.72 158.14,-352.07"/>
<polygon fill="midnightblue" stroke="midnightblue" points="332.73,-392.22 343.23,-390.78 334.13,-385.36 332.73,-392.22"/>
</g>
<!-- Node3 -->
<g id="node3" class="node">
<title>Node3</title>
<g id="a_node3"><a xlink:href="_simple_subscriber_8cpp.html" target="_top" xlink:title=" ">
<polygon fill="none" stroke="black" points="176,-312.5 176,-353.5 340,-353.5 340,-312.5 176,-312.5"/>
<text text-anchor="start" x="184" y="-341.5" font-family="Helvetica,sans-Serif" font-size="10.00">/home/tomek/CLionProjects</text>
<text text-anchor="start" x="184" y="-330.5" font-family="Helvetica,sans-Serif" font-size="10.00">/proi/proi&#45;projekt/src</text>
<text text-anchor="middle" x="258" y="-319.5" font-family="Helvetica,sans-Serif" font-size="10.00">/core&#45;lib/SimpleSubscriber.cpp</text>
</a>
</g>
</g>
<!-- Node1&#45;&gt;Node3 -->
<g id="edge2" class="edge">
<title>Node1&#45;&gt;Node3</title>
<path fill="none" stroke="midnightblue" d="M382.96,-386.47C357.77,-375.89 328.39,-363.56 304.45,-353.51"/>
<polygon fill="midnightblue" stroke="midnightblue" points="381.81,-389.78 392.39,-390.43 384.52,-383.33 381.81,-389.78"/>
</g>
<!-- Node4 -->
<g id="node4" class="node">
<title>Node4</title>
<g id="a_node4"><a xlink:href="_keyboard_controller_8h.html" target="_top" xlink:title=" ">
<polygon fill="none" stroke="black" points="225,-156.5 225,-197.5 431,-197.5 431,-156.5 225,-156.5"/>
<text text-anchor="start" x="233" y="-185.5" font-family="Helvetica,sans-Serif" font-size="10.00">/home/tomek/CLionProjects</text>
<text text-anchor="start" x="233" y="-174.5" font-family="Helvetica,sans-Serif" font-size="10.00">/proi/proi&#45;projekt/src</text>
<text text-anchor="middle" x="328" y="-163.5" font-family="Helvetica,sans-Serif" font-size="10.00">/game&#45;lib/include/KeyboardController.h</text>
</a>
</g>
</g>
<!-- Node1&#45;&gt;Node4 -->
<g id="edge3" class="edge">
<title>Node1&#45;&gt;Node4</title>
<path fill="none" stroke="midnightblue" d="M425.13,-381.02C402.22,-333.12 357.04,-238.69 337.44,-197.73"/>
<polygon fill="midnightblue" stroke="midnightblue" points="422.06,-382.71 429.54,-390.22 428.38,-379.69 422.06,-382.71"/>
</g>
<!-- Node13 -->
<g id="node13" class="node">
<title>Node13</title>
<g id="a_node13"><a xlink:href="_bullet_8cpp.html" target="_top" xlink:title=" ">
<polygon fill="none" stroke="black" points="734.5,-312.5 734.5,-353.5 885.5,-353.5 885.5,-312.5 734.5,-312.5"/>
<text text-anchor="start" x="742.5" y="-341.5" font-family="Helvetica,sans-Serif" font-size="10.00">/home/tomek/CLionProjects</text>
<text text-anchor="start" x="742.5" y="-330.5" font-family="Helvetica,sans-Serif" font-size="10.00">/proi/proi&#45;projekt/src</text>
<text text-anchor="middle" x="810" y="-319.5" font-family="Helvetica,sans-Serif" font-size="10.00">/tank&#45;lib/Bullet.cpp</text>
</a>
</g>
</g>
<!-- Node1&#45;&gt;Node13 -->
<g id="edge13" class="edge">
<title>Node1&#45;&gt;Node13</title>
<path fill="none" stroke="midnightblue" d="M544.74,-389.5C597.46,-379.13 662.15,-366.19 720,-354 724.7,-353.01 729.53,-351.98 734.4,-350.93"/>
<polygon fill="midnightblue" stroke="midnightblue" points="543.84,-386.11 534.7,-391.47 545.19,-392.98 543.84,-386.11"/>
</g>
<!-- Node14 -->
<g id="node14" class="node">
<title>Node14</title>
<g id="a_node14"><a xlink:href="_tank_8cpp.html" target="_top" xlink:title=" ">
<polygon fill="none" stroke="black" points="881.5,-234.5 881.5,-275.5 1032.5,-275.5 1032.5,-234.5 881.5,-234.5"/>
<text text-anchor="start" x="889.5" y="-263.5" font-family="Helvetica,sans-Serif" font-size="10.00">/home/tomek/CLionProjects</text>
<text text-anchor="start" x="889.5" y="-252.5" font-family="Helvetica,sans-Serif" font-size="10.00">/proi/proi&#45;projekt/src</text>
<text text-anchor="middle" x="957" y="-241.5" font-family="Helvetica,sans-Serif" font-size="10.00">/tank&#45;lib/Tank.cpp</text>
</a>
</g>
</g>
<!-- Node1&#45;&gt;Node14 -->
<g id="edge14" class="edge">
<title>Node1&#45;&gt;Node14</title>
<path fill="none" stroke="midnightblue" d="M544.56,-400.34C590.64,-392.64 643.87,-378.82 687,-354 709.08,-341.29 704.02,-324.88 726,-312 732.92,-307.94 816.66,-288.15 881.35,-273.24"/>
<polygon fill="midnightblue" stroke="midnightblue" points="543.87,-396.9 534.54,-401.93 544.97,-403.81 543.87,-396.9"/>
</g>
<!-- Node15 -->
<g id="node15" class="node">
<title>Node15</title>
<g id="a_node15"><a xlink:href="_tank_8h.html" target="_top" xlink:title=" ">
<polygon fill="none" stroke="black" points="526.5,-312.5 526.5,-353.5 677.5,-353.5 677.5,-312.5 526.5,-312.5"/>
<text text-anchor="start" x="534.5" y="-341.5" font-family="Helvetica,sans-Serif" font-size="10.00">/home/tomek/CLionProjects</text>
<text text-anchor="start" x="534.5" y="-330.5" font-family="Helvetica,sans-Serif" font-size="10.00">/proi/proi&#45;projekt/src</text>
<text text-anchor="middle" x="602" y="-319.5" font-family="Helvetica,sans-Serif" font-size="10.00">/tank&#45;lib/include/Tank.h</text>
</a>
</g>
</g>
<!-- Node1&#45;&gt;Node15 -->
<g id="edge15" class="edge">
<title>Node1&#45;&gt;Node15</title>
<path fill="none" stroke="midnightblue" d="M490.07,-386.19C512.62,-375.67 538.8,-363.47 560.17,-353.51"/>
<polygon fill="midnightblue" stroke="midnightblue" points="488.56,-383.03 480.98,-390.43 491.52,-389.37 488.56,-383.03"/>
</g>
<!-- Node5 -->
<g id="node5" class="node">
<title>Node5</title>
<g id="a_node5"><a xlink:href="_game_8cpp.html" target="_top" xlink:title=" ">
<polygon fill="none" stroke="black" points="67.5,-0.5 67.5,-41.5 218.5,-41.5 218.5,-0.5 67.5,-0.5"/>
<text text-anchor="start" x="75.5" y="-29.5" font-family="Helvetica,sans-Serif" font-size="10.00">/home/tomek/CLionProjects</text>
<text text-anchor="start" x="75.5" y="-18.5" font-family="Helvetica,sans-Serif" font-size="10.00">/proi/proi&#45;projekt/src</text>
<text text-anchor="middle" x="143" y="-7.5" font-family="Helvetica,sans-Serif" font-size="10.00">/game&#45;lib/Game.cpp</text>
</a>
</g>
</g>
<!-- Node4&#45;&gt;Node5 -->
<g id="edge4" class="edge">
<title>Node4&#45;&gt;Node5</title>
<path fill="none" stroke="midnightblue" d="M267.61,-152.18C249.93,-143.58 231.26,-132.78 216,-120 189.16,-97.53 166.59,-63.31 153.94,-41.83"/>
<polygon fill="midnightblue" stroke="midnightblue" points="266.21,-155.39 276.75,-156.48 269.19,-149.05 266.21,-155.39"/>
</g>
<!-- Node6 -->
<g id="node6" class="node">
<title>Node6</title>
<g id="a_node6"><a xlink:href="_keyboard_controller_8cpp.html" target="_top" xlink:title=" ">
<polygon fill="none" stroke="black" points="225.5,-78.5 225.5,-119.5 404.5,-119.5 404.5,-78.5 225.5,-78.5"/>
<text text-anchor="start" x="233.5" y="-107.5" font-family="Helvetica,sans-Serif" font-size="10.00">/home/tomek/CLionProjects</text>
<text text-anchor="start" x="233.5" y="-96.5" font-family="Helvetica,sans-Serif" font-size="10.00">/proi/proi&#45;projekt/src</text>
<text text-anchor="middle" x="315" y="-85.5" font-family="Helvetica,sans-Serif" font-size="10.00">/game&#45;lib/KeyboardController.cpp</text>
</a>
</g>
</g>
<!-- Node4&#45;&gt;Node6 -->
<g id="edge5" class="edge">
<title>Node4&#45;&gt;Node6</title>
<path fill="none" stroke="midnightblue" d="M322.92,-146.3C321.38,-137.3 319.73,-127.65 318.34,-119.51"/>
<polygon fill="midnightblue" stroke="midnightblue" points="319.52,-147.16 324.65,-156.43 326.42,-145.98 319.52,-147.16"/>
</g>
<!-- Node7 -->
<g id="node7" class="node">
<title>Node7</title>
<g id="a_node7"><a xlink:href="_game_8h.html" target="_top" xlink:title=" ">
<polygon fill="none" stroke="black" points="461.5,-78.5 461.5,-119.5 612.5,-119.5 612.5,-78.5 461.5,-78.5"/>
<text text-anchor="start" x="469.5" y="-107.5" font-family="Helvetica,sans-Serif" font-size="10.00">/home/tomek/CLionProjects</text>
<text text-anchor="start" x="469.5" y="-96.5" font-family="Helvetica,sans-Serif" font-size="10.00">/proi/proi&#45;projekt/src</text>
<text text-anchor="middle" x="537" y="-85.5" font-family="Helvetica,sans-Serif" font-size="10.00">/game&#45;lib/include/Game.h</text>
</a>
</g>
</g>
<!-- Node4&#45;&gt;Node7 -->
<g id="edge6" class="edge">
<title>Node4&#45;&gt;Node7</title>
<path fill="none" stroke="midnightblue" d="M391.56,-152.89C420.9,-142.22 455.35,-129.69 483.36,-119.51"/>
<polygon fill="midnightblue" stroke="midnightblue" points="390.02,-149.72 381.82,-156.43 392.42,-156.3 390.02,-149.72"/>
</g>
<!-- Node7&#45;&gt;Node5 -->
<g id="edge9" class="edge">
<title>Node7&#45;&gt;Node5</title>
<path fill="none" stroke="midnightblue" d="M451.46,-78.87C449.96,-78.58 448.47,-78.28 447,-78 350.15,-59.29 324.73,-61.31 228,-42 225.03,-41.41 222,-40.78 218.94,-40.14"/>
<polygon fill="midnightblue" stroke="midnightblue" points="450.95,-82.34 461.44,-80.89 452.33,-75.48 450.95,-82.34"/>
</g>
<!-- Node8 -->
<g id="node8" class="node">
<title>Node8</title>
<g id="a_node8"><a xlink:href="_active_event_handler_8cpp.html" target="_top" xlink:title=" ">
<polygon fill="none" stroke="black" points="1013,-0.5 1013,-41.5 1195,-41.5 1195,-0.5 1013,-0.5"/>
<text text-anchor="start" x="1021" y="-29.5" font-family="Helvetica,sans-Serif" font-size="10.00">/home/tomek/CLionProjects</text>
<text text-anchor="start" x="1021" y="-18.5" font-family="Helvetica,sans-Serif" font-size="10.00">/proi/proi&#45;projekt/src</text>
<text text-anchor="middle" x="1104" y="-7.5" font-family="Helvetica,sans-Serif" font-size="10.00">/game&#45;lib/ActiveEventHandler.cpp</text>
</a>
</g>
</g>
<!-- Node7&#45;&gt;Node8 -->
<g id="edge7" class="edge">
<title>Node7&#45;&gt;Node8</title>
<path fill="none" stroke="midnightblue" d="M623.11,-78.63C624.41,-78.42 625.71,-78.2 627,-78 793.25,-51.69 837.48,-66.54 1004,-42 1006.89,-41.57 1009.82,-41.12 1012.78,-40.64"/>
<polygon fill="midnightblue" stroke="midnightblue" points="622.22,-75.24 612.98,-80.42 623.44,-82.13 622.22,-75.24"/>
</g>
<!-- Node9 -->
<g id="node9" class="node">
<title>Node9</title>
<g id="a_node9"><a xlink:href="_finished_event_handler_8cpp.html" target="_top" xlink:title=" ">
<polygon fill="none" stroke="black" points="237,-0.5 237,-41.5 429,-41.5 429,-0.5 237,-0.5"/>
<text text-anchor="start" x="245" y="-29.5" font-family="Helvetica,sans-Serif" font-size="10.00">/home/tomek/CLionProjects</text>
<text text-anchor="start" x="245" y="-18.5" font-family="Helvetica,sans-Serif" font-size="10.00">/proi/proi&#45;projekt/src</text>
<text text-anchor="middle" x="333" y="-7.5" font-family="Helvetica,sans-Serif" font-size="10.00">/game&#45;lib/FinishedEventHandler.cpp</text>
</a>
</g>
</g>
<!-- Node7&#45;&gt;Node9 -->
<g id="edge8" class="edge">
<title>Node7&#45;&gt;Node9</title>
<path fill="none" stroke="midnightblue" d="M474.96,-74.89C446.32,-64.22 412.69,-51.69 385.36,-41.51"/>
<polygon fill="midnightblue" stroke="midnightblue" points="473.87,-78.22 484.46,-78.43 476.32,-71.66 473.87,-78.22"/>
</g>
<!-- Node10 -->
<g id="node10" class="node">
<title>Node10</title>
<g id="a_node10"><a xlink:href="_menu_event_handler_8cpp.html" target="_top" xlink:title=" ">
<polygon fill="none" stroke="black" points="447.5,-0.5 447.5,-41.5 626.5,-41.5 626.5,-0.5 447.5,-0.5"/>
<text text-anchor="start" x="455.5" y="-29.5" font-family="Helvetica,sans-Serif" font-size="10.00">/home/tomek/CLionProjects</text>
<text text-anchor="start" x="455.5" y="-18.5" font-family="Helvetica,sans-Serif" font-size="10.00">/proi/proi&#45;projekt/src</text>
<text text-anchor="middle" x="537" y="-7.5" font-family="Helvetica,sans-Serif" font-size="10.00">/game&#45;lib/MenuEventHandler.cpp</text>
</a>
</g>
</g>
<!-- Node7&#45;&gt;Node10 -->
<g id="edge10" class="edge">
<title>Node7&#45;&gt;Node10</title>
<path fill="none" stroke="midnightblue" d="M537,-68.3C537,-59.3 537,-49.65 537,-41.51"/>
<polygon fill="midnightblue" stroke="midnightblue" points="533.5,-68.43 537,-78.43 540.5,-68.43 533.5,-68.43"/>
</g>
<!-- Node11 -->
<g id="node11" class="node">
<title>Node11</title>
<g id="a_node11"><a xlink:href="_pause_event_handler_8cpp.html" target="_top" xlink:title=" ">
<polygon fill="none" stroke="black" points="645,-0.5 645,-41.5 825,-41.5 825,-0.5 645,-0.5"/>
<text text-anchor="start" x="653" y="-29.5" font-family="Helvetica,sans-Serif" font-size="10.00">/home/tomek/CLionProjects</text>
<text text-anchor="start" x="653" y="-18.5" font-family="Helvetica,sans-Serif" font-size="10.00">/proi/proi&#45;projekt/src</text>
<text text-anchor="middle" x="735" y="-7.5" font-family="Helvetica,sans-Serif" font-size="10.00">/game&#45;lib/PauseEventHandler.cpp</text>
</a>
</g>
</g>
<!-- Node7&#45;&gt;Node11 -->
<g id="edge11" class="edge">
<title>Node7&#45;&gt;Node11</title>
<path fill="none" stroke="midnightblue" d="M597.58,-74.75C625.29,-64.11 657.76,-51.65 684.18,-41.51"/>
<polygon fill="midnightblue" stroke="midnightblue" points="596.07,-71.58 587.99,-78.43 598.58,-78.11 596.07,-71.58"/>
</g>
<!-- Node12 -->
<g id="node12" class="node">
<title>Node12</title>
<g id="a_node12"><a xlink:href="tanks_8cpp.html" target="_top" xlink:title=" ">
<polygon fill="none" stroke="black" points="843.5,-0.5 843.5,-41.5 994.5,-41.5 994.5,-0.5 843.5,-0.5"/>
<text text-anchor="start" x="851.5" y="-29.5" font-family="Helvetica,sans-Serif" font-size="10.00">/home/tomek/CLionProjects</text>
<text text-anchor="start" x="851.5" y="-18.5" font-family="Helvetica,sans-Serif" font-size="10.00">/proi/proi&#45;projekt/src</text>
<text text-anchor="middle" x="919" y="-7.5" font-family="Helvetica,sans-Serif" font-size="10.00">/main/tanks.cpp</text>
</a>
</g>
</g>
<!-- Node7&#45;&gt;Node12 -->
<g id="edge12" class="edge">
<title>Node7&#45;&gt;Node12</title>
<path fill="none" stroke="midnightblue" d="M622.55,-78.89C624.04,-78.59 625.53,-78.29 627,-78 718.6,-59.87 742.51,-60.7 834,-42 836.97,-41.39 840,-40.76 843.05,-40.1"/>
<polygon fill="midnightblue" stroke="midnightblue" points="621.66,-75.5 612.57,-80.94 623.07,-82.36 621.66,-75.5"/>
</g>
<!-- Node15&#45;&gt;Node14 -->
<g id="edge24" class="edge">
<title>Node15&#45;&gt;Node14</title>
<path fill="none" stroke="midnightblue" d="M687.56,-312.95C689.05,-312.63 690.53,-312.31 692,-312 769.65,-295.39 789.35,-292.61 867,-276 871.7,-275 876.53,-273.95 881.4,-272.89"/>
<polygon fill="midnightblue" stroke="midnightblue" points="686.64,-309.57 677.6,-315.11 688.12,-316.41 686.64,-309.57"/>
</g>
<!-- Node16 -->
<g id="node16" class="node">
<title>Node16</title>
<g id="a_node16"><a xlink:href="_board_8cpp.html" target="_top" xlink:title=" ">
<polygon fill="none" stroke="black" points="669.5,-78.5 669.5,-119.5 820.5,-119.5 820.5,-78.5 669.5,-78.5"/>
<text text-anchor="start" x="677.5" y="-107.5" font-family="Helvetica,sans-Serif" font-size="10.00">/home/tomek/CLionProjects</text>
<text text-anchor="start" x="677.5" y="-96.5" font-family="Helvetica,sans-Serif" font-size="10.00">/proi/proi&#45;projekt/src</text>
<text text-anchor="middle" x="745" y="-85.5" font-family="Helvetica,sans-Serif" font-size="10.00">/board&#45;lib/Board.cpp</text>
</a>
</g>
</g>
<!-- Node15&#45;&gt;Node16 -->
<g id="edge16" class="edge">
<title>Node15&#45;&gt;Node16</title>
<path fill="none" stroke="midnightblue" d="M687.38,-310.36C744.85,-295.64 810.6,-278.39 813,-276 851.35,-237.78 860.18,-203.4 834,-156 825.26,-140.18 809.97,-128.22 794.51,-119.5"/>
<polygon fill="midnightblue" stroke="midnightblue" points="686.32,-307.02 677.5,-312.89 688.06,-313.8 686.32,-307.02"/>
</g>
<!-- Node17 -->
<g id="node17" class="node">
<title>Node17</title>
<g id="a_node17"><a xlink:href="_board_8h.html" target="_top" xlink:title=" ">
<polygon fill="none" stroke="black" points="461.5,-156.5 461.5,-197.5 612.5,-197.5 612.5,-156.5 461.5,-156.5"/>
<text text-anchor="start" x="469.5" y="-185.5" font-family="Helvetica,sans-Serif" font-size="10.00">/home/tomek/CLionProjects</text>
<text text-anchor="start" x="469.5" y="-174.5" font-family="Helvetica,sans-Serif" font-size="10.00">/proi/proi&#45;projekt/src</text>
<text text-anchor="middle" x="537" y="-163.5" font-family="Helvetica,sans-Serif" font-size="10.00">/board&#45;lib/include/Board.h</text>
</a>
</g>
</g>
<!-- Node15&#45;&gt;Node17 -->
<g id="edge17" class="edge">
<title>Node15&#45;&gt;Node17</title>
<path fill="none" stroke="midnightblue" d="M516.36,-326.24C482.25,-319.23 446.15,-304.87 425,-276 413.97,-260.94 415.19,-249.88 425,-234 435.11,-217.63 451.62,-205.89 468.89,-197.53"/>
<polygon fill="midnightblue" stroke="midnightblue" points="515.91,-329.72 526.38,-328.11 517.19,-322.84 515.91,-329.72"/>
</g>
<!-- Node18 -->
<g id="node18" class="node">
<title>Node18</title>
<g id="a_node18"><a xlink:href="_game_state_8cpp.html" target="_top" xlink:title=" ">
<polygon fill="none" stroke="black" points="434.5,-234.5 434.5,-275.5 585.5,-275.5 585.5,-234.5 434.5,-234.5"/>
<text text-anchor="start" x="442.5" y="-263.5" font-family="Helvetica,sans-Serif" font-size="10.00">/home/tomek/CLionProjects</text>
<text text-anchor="start" x="442.5" y="-252.5" font-family="Helvetica,sans-Serif" font-size="10.00">/proi/proi&#45;projekt/src</text>
<text text-anchor="middle" x="510" y="-241.5" font-family="Helvetica,sans-Serif" font-size="10.00">/game&#45;lib/GameState.cpp</text>
</a>
</g>
</g>
<!-- Node15&#45;&gt;Node18 -->
<g id="edge22" class="edge">
<title>Node15&#45;&gt;Node18</title>
<path fill="none" stroke="midnightblue" d="M570.26,-305.78C558.23,-295.84 544.76,-284.72 533.61,-275.51"/>
<polygon fill="midnightblue" stroke="midnightblue" points="568.37,-308.76 578.31,-312.43 572.83,-303.36 568.37,-308.76"/>
</g>
<!-- Node19 -->
<g id="node19" class="node">
<title>Node19</title>
<g id="a_node19"><a xlink:href="_entity_controller_8cpp.html" target="_top" xlink:title=" ">
<polygon fill="none" stroke="black" points="669,-156.5 669,-197.5 825,-197.5 825,-156.5 669,-156.5"/>
<text text-anchor="start" x="677" y="-185.5" font-family="Helvetica,sans-Serif" font-size="10.00">/home/tomek/CLionProjects</text>
<text text-anchor="start" x="677" y="-174.5" font-family="Helvetica,sans-Serif" font-size="10.00">/proi/proi&#45;projekt/src</text>
<text text-anchor="middle" x="747" y="-163.5" font-family="Helvetica,sans-Serif" font-size="10.00">/tank&#45;lib/EntityController.cpp</text>
</a>
</g>
</g>
<!-- Node15&#45;&gt;Node19 -->
<g id="edge23" class="edge">
<title>Node15&#45;&gt;Node19</title>
<path fill="none" stroke="midnightblue" d="M687.61,-312.3C736.29,-300.24 788.95,-285.37 796,-276 814.64,-251.22 789.68,-218.27 769.08,-197.59"/>
<polygon fill="midnightblue" stroke="midnightblue" points="686.5,-308.97 677.62,-314.75 688.17,-315.77 686.5,-308.97"/>
</g>
<!-- Node20 -->
<g id="node20" class="node">
<title>Node20</title>
<g id="a_node20"><a xlink:href="_entity_controller_8h.html" target="_top" xlink:title=" ">
<polygon fill="none" stroke="black" points="603.5,-234.5 603.5,-275.5 786.5,-275.5 786.5,-234.5 603.5,-234.5"/>
<text text-anchor="start" x="611.5" y="-263.5" font-family="Helvetica,sans-Serif" font-size="10.00">/home/tomek/CLionProjects</text>
<text text-anchor="start" x="611.5" y="-252.5" font-family="Helvetica,sans-Serif" font-size="10.00">/proi/proi&#45;projekt/src</text>
<text text-anchor="middle" x="695" y="-241.5" font-family="Helvetica,sans-Serif" font-size="10.00">/tank&#45;lib/include/EntityController.h</text>
</a>
</g>
</g>
<!-- Node15&#45;&gt;Node20 -->
<g id="edge25" class="edge">
<title>Node15&#45;&gt;Node20</title>
<path fill="none" stroke="midnightblue" d="M633.74,-306.06C645.98,-296.06 659.75,-284.8 671.13,-275.51"/>
<polygon fill="midnightblue" stroke="midnightblue" points="631.48,-303.39 625.95,-312.43 635.91,-308.81 631.48,-303.39"/>
</g>
<!-- Node17&#45;&gt;Node5 -->
<g id="edge20" class="edge">
<title>Node17&#45;&gt;Node5</title>
<path fill="none" stroke="midnightblue" d="M494.82,-151.05C480.68,-141.96 465.18,-131.16 452,-120 432.56,-103.54 435.27,-90.38 413,-78 339.79,-37.31 309.9,-59.6 228,-42 224.89,-41.33 221.71,-40.64 218.51,-39.93"/>
<polygon fill="midnightblue" stroke="midnightblue" points="493.08,-154.09 503.4,-156.47 496.82,-148.17 493.08,-154.09"/>
</g>
<!-- Node17&#45;&gt;Node7 -->
<g id="edge21" class="edge">
<title>Node17&#45;&gt;Node7</title>
<path fill="none" stroke="midnightblue" d="M537,-146.3C537,-137.3 537,-127.65 537,-119.51"/>
<polygon fill="midnightblue" stroke="midnightblue" points="533.5,-146.43 537,-156.43 540.5,-146.43 533.5,-146.43"/>
</g>
<!-- Node17&#45;&gt;Node8 -->
<g id="edge19" class="edge">
<title>Node17&#45;&gt;Node8</title>
<path fill="none" stroke="midnightblue" d="M578.67,-150.98C592.63,-141.89 607.96,-131.1 621,-120 640.4,-103.49 637.21,-89.39 660,-78 797.52,-9.29 852.02,-65.1 1004,-42 1006.89,-41.56 1009.82,-41.1 1012.78,-40.61"/>
<polygon fill="midnightblue" stroke="midnightblue" points="576.72,-148.07 570.18,-156.41 580.49,-153.97 576.72,-148.07"/>
</g>
<!-- Node17&#45;&gt;Node16 -->
<g id="edge18" class="edge">
<title>Node17&#45;&gt;Node16</title>
<path fill="none" stroke="midnightblue" d="M600.26,-152.89C629.45,-142.22 663.74,-129.69 691.62,-119.51"/>
<polygon fill="midnightblue" stroke="midnightblue" points="598.76,-149.71 590.57,-156.43 601.16,-156.28 598.76,-149.71"/>
</g>
<!-- Node20&#45;&gt;Node16 -->
<g id="edge26" class="edge">
<title>Node20&#45;&gt;Node16</title>
<path fill="none" stroke="midnightblue" d="M672.88,-226.07C659.78,-205.92 647.91,-178.45 660,-156 668.38,-140.44 683.18,-128.49 698.11,-119.71"/>
<polygon fill="midnightblue" stroke="midnightblue" points="670.13,-228.25 678.69,-234.49 675.89,-224.27 670.13,-228.25"/>
</g>
<!-- Node20&#45;&gt;Node17 -->
<g id="edge27" class="edge">
<title>Node20&#45;&gt;Node17</title>
<path fill="none" stroke="midnightblue" d="M645.21,-230.05C623.41,-219.57 598.17,-207.42 577.55,-197.51"/>
<polygon fill="midnightblue" stroke="midnightblue" points="643.78,-233.25 654.31,-234.43 646.82,-226.94 643.78,-233.25"/>
</g>
<!-- Node20&#45;&gt;Node19 -->
<g id="edge28" class="edge">
<title>Node20&#45;&gt;Node19</title>
<path fill="none" stroke="midnightblue" d="M714.13,-226.05C720.61,-216.57 727.72,-206.18 733.65,-197.51"/>
<polygon fill="midnightblue" stroke="midnightblue" points="711.15,-224.2 708.39,-234.43 716.93,-228.15 711.15,-224.2"/>
</g>
</g>
</svg>
        <g id="navigator" transform="translate(0 0)" fill="#404254">
                <rect fill="#f2f5e9" fill-opacity="0.5" stroke="#606060" stroke-width=".5" x="0" y="0" width="60" height="60"/>
                <use id="zoomplus" xlink:href="#zoomPlus" x="17" y="9" onmousedown="handleZoom(evt,'in')"/>
                <use id="zoomminus" xlink:href="#zoomMin" x="42" y="9" onmousedown="handleZoom(evt,'out')"/>
                <use id="reset" xlink:href="#resetDef" x="30" y="36" onmousedown="handleReset()"/>
                <g id="arrowUp" xlink:href="#dirArrow" transform="translate(30 24)" onmousedown="handlePan(0,-1)">
                  <use xlink:href="#rim" fill="#404040">
                        <set attributeName="fill" to="#808080" begin="arrowUp.mouseover" end="arrowUp.mouseout"/>
                  </use>
                  <path fill="none" stroke="white" stroke-width="1.5" d="M0,-3.0v7 M-2.5,-0.5L0,-3.0L2.5,-0.5"/>
                </g>
                <g id="arrowRight" xlink:href="#dirArrow" transform="rotate(90) translate(36 -43)" onmousedown="handlePan(1,0)">
                  <use xlink:href="#rim" fill="#404040">
                        <set attributeName="fill" to="#808080" begin="arrowRight.mouseover" end="arrowRight.mouseout"/>
                  </use>
                  <path fill="none" stroke="white" stroke-width="1.5" d="M0,-3.0v7 M-2.5,-0.5L0,-3.0L2.5,-0.5"/>
                </g>
                <g id="arrowDown" xlink:href="#dirArrow" transform="rotate(180) translate(-30 -48)" onmousedown="handlePan(0,1)">
                  <use xlink:href="#rim" fill="#404040">
                        <set attributeName="fill" to="#808080" begin="arrowDown.mouseover" end="arrowDown.mouseout"/>
                  </use>
                  <path fill="none" stroke="white" stroke-width="1.5" d="M0,-3.0v7 M-2.5,-0.5L0,-3.0L2.5,-0.5"/>
                </g>
                <g id="arrowLeft" xlink:href="#dirArrow" transform="rotate(270) translate(-36 17)" onmousedown="handlePan(-1,0)">
                  <use xlink:href="#rim" fill="#404040">
                        <set attributeName="fill" to="#808080" begin="arrowLeft.mouseover" end="arrowLeft.mouseout"/>
                  </use>
                  <path fill="none" stroke="white" stroke-width="1.5" d="M0,-3.0v7 M-2.5,-0.5L0,-3.0L2.5,-0.5"/>
                </g>
        </g>
        <svg viewBox="0 0 15 15" width="100%" height="30px" preserveAspectRatio="xMaxYMin meet">
         <g id="arrow_out" transform="scale(0.3 0.3)">
          <a xlink:href="_simple_subscriber_8h__dep__incl_org.svg" target="_base">
           <rect id="button" ry="5" rx="5" y="6" x="6" height="38" width="38"
                fill="#f2f5e9" fill-opacity="0.5" stroke="#606060" stroke-width="1.0"/>
           <path id="arrow"
             d="M 11.500037,31.436501 C 11.940474,20.09759 22.043105,11.32322 32.158766,21.979434 L 37.068811,17.246167 C 37.068811,17.246167 37.088388,32 37.088388,32 L 22.160133,31.978069 C 22.160133,31.978069 26.997745,27.140456 26.997745,27.140456 C 18.528582,18.264221 13.291696,25.230495 11.500037,31.436501 z"
             style="fill:#404040;"/>
          </a>
         </g>
        </svg>
</svg>
