<?xml version="1.0" encoding="UTF-8" standalone="no"?>
<!DOCTYPE svg PUBLIC "-//W3C//DTD SVG 1.1//EN"
 "http://www.w3.org/Graphics/SVG/1.1/DTD/svg11.dtd">
<!-- Generated by graphviz version 2.43.0 (0)
 -->
<!-- Title: /home/tomek/CLionProjects/proi/proi&#45;projekt/src/core&#45;lib/include/SimplePublisher.h Pages: 1 -->
<svg width="1548pt" height="206pt"
 viewBox="0.00 0.00 1547.50 206.00" xmlns="http://www.w3.org/2000/svg" xmlns:xlink="http://www.w3.org/1999/xlink">
<g id="graph0" class="graph" transform="scale(1 1) rotate(0) translate(4 202)">
<title>/home/tomek/CLionProjects/proi/proi&#45;projekt/src/core&#45;lib/include/SimplePublisher.h</title>
<!-- Node1 -->
<g id="node1" class="node">
<title>Node1</title>
<g id="a_node1"><a xlink:title=" ">
<polygon fill="#bfbfbf" stroke="black" points="574,-156.5 574,-197.5 759,-197.5 759,-156.5 574,-156.5"/>
<text text-anchor="start" x="582" y="-185.5" font-family="Helvetica,sans-Serif" font-size="10.00">/home/tomek/CLionProjects</text>
<text text-anchor="start" x="582" y="-174.5" font-family="Helvetica,sans-Serif" font-size="10.00">/proi/proi&#45;projekt/src</text>
<text text-anchor="middle" x="666.5" y="-163.5" font-family="Helvetica,sans-Serif" font-size="10.00">/core&#45;lib/include/SimplePublisher.h</text>
</a>
</g>
</g>
<!-- Node2 -->
<g id="node2" class="node">
<title>Node2</title>
<g id="a_node2"><a xlink:href="_simple_publisher_8cpp.html" target="_top" xlink:title=" ">
<polygon fill="none" stroke="black" points="148.5,-78.5 148.5,-119.5 306.5,-119.5 306.5,-78.5 148.5,-78.5"/>
<text text-anchor="start" x="156.5" y="-107.5" font-family="Helvetica,sans-Serif" font-size="10.00">/home/tomek/CLionProjects</text>
<text text-anchor="start" x="156.5" y="-96.5" font-family="Helvetica,sans-Serif" font-size="10.00">/proi/proi&#45;projekt/src</text>
<text text-anchor="middle" x="227.5" y="-85.5" font-family="Helvetica,sans-Serif" font-size="10.00">/core&#45;lib/SimplePublisher.cpp</text>
</a>
</g>
</g>
<!-- Node1&#45;&gt;Node2 -->
<g id="edge1" class="edge">
<title>Node1&#45;&gt;Node2</title>
<path fill="none" stroke="midnightblue" d="M563.67,-161.4C493.54,-151 398.66,-136.07 315.5,-120 312.58,-119.44 309.6,-118.84 306.6,-118.23"/>
<polygon fill="midnightblue" stroke="midnightblue" points="563.43,-164.9 573.83,-162.9 564.45,-157.98 563.43,-164.9"/>
</g>
<!-- Node3 -->
<g id="node3" class="node">
<title>Node3</title>
<g id="a_node3"><a xlink:href="_simple_subscriber_8cpp.html" target="_top" xlink:title=" ">
<polygon fill="none" stroke="black" points="324.5,-78.5 324.5,-119.5 488.5,-119.5 488.5,-78.5 324.5,-78.5"/>
<text text-anchor="start" x="332.5" y="-107.5" font-family="Helvetica,sans-Serif" font-size="10.00">/home/tomek/CLionProjects</text>
<text text-anchor="start" x="332.5" y="-96.5" font-family="Helvetica,sans-Serif" font-size="10.00">/proi/proi&#45;projekt/src</text>
<text text-anchor="middle" x="406.5" y="-85.5" font-family="Helvetica,sans-Serif" font-size="10.00">/core&#45;lib/SimpleSubscriber.cpp</text>
</a>
</g>
</g>
<!-- Node1&#45;&gt;Node3 -->
<g id="edge2" class="edge">
<title>Node1&#45;&gt;Node3</title>
<path fill="none" stroke="midnightblue" d="M589.8,-153.58C552.8,-142.76 508.83,-129.91 473.23,-119.51"/>
<polygon fill="midnightblue" stroke="midnightblue" points="588.96,-156.98 599.54,-156.43 590.93,-150.26 588.96,-156.98"/>
</g>
<!-- Node4 -->
<g id="node4" class="node">
<title>Node4</title>
<g id="a_node4"><a xlink:href="_clock_8h.html" target="_top" xlink:title=" ">
<polygon fill="none" stroke="black" points="507,-78.5 507,-119.5 658,-119.5 658,-78.5 507,-78.5"/>
<text text-anchor="start" x="515" y="-107.5" font-family="Helvetica,sans-Serif" font-size="10.00">/home/tomek/CLionProjects</text>
<text text-anchor="start" x="515" y="-96.5" font-family="Helvetica,sans-Serif" font-size="10.00">/proi/proi&#45;projekt/src</text>
<text text-anchor="middle" x="582.5" y="-85.5" font-family="Helvetica,sans-Serif" font-size="10.00">/core&#45;lib/include/Clock.h</text>
</a>
</g>
</g>
<!-- Node1&#45;&gt;Node4 -->
<g id="edge3" class="edge">
<title>Node1&#45;&gt;Node4</title>
<path fill="none" stroke="midnightblue" d="M637.2,-149.49C626.3,-139.63 614.14,-128.63 604.06,-119.51"/>
<polygon fill="midnightblue" stroke="midnightblue" points="635.1,-152.31 644.87,-156.43 639.8,-147.12 635.1,-152.31"/>
</g>
<!-- Node9 -->
<g id="node9" class="node">
<title>Node9</title>
<g id="a_node9"><a xlink:href="_bullet_8cpp.html" target="_top" xlink:title=" ">
<polygon fill="none" stroke="black" points="676,-0.5 676,-41.5 827,-41.5 827,-0.5 676,-0.5"/>
<text text-anchor="start" x="684" y="-29.5" font-family="Helvetica,sans-Serif" font-size="10.00">/home/tomek/CLionProjects</text>
<text text-anchor="start" x="684" y="-18.5" font-family="Helvetica,sans-Serif" font-size="10.00">/proi/proi&#45;projekt/src</text>
<text text-anchor="middle" x="751.5" y="-7.5" font-family="Helvetica,sans-Serif" font-size="10.00">/tank&#45;lib/Bullet.cpp</text>
</a>
</g>
</g>
<!-- Node1&#45;&gt;Node9 -->
<g id="edge8" class="edge">
<title>Node1&#45;&gt;Node9</title>
<path fill="none" stroke="midnightblue" d="M682.19,-147.56C699.15,-116.85 725.72,-68.71 740.55,-41.83"/>
<polygon fill="midnightblue" stroke="midnightblue" points="679.03,-146.05 677.27,-156.5 685.16,-149.43 679.03,-146.05"/>
</g>
<!-- Node10 -->
<g id="node10" class="node">
<title>Node10</title>
<g id="a_node10"><a xlink:href="_tank_8cpp.html" target="_top" xlink:title=" ">
<polygon fill="none" stroke="black" points="845,-0.5 845,-41.5 996,-41.5 996,-0.5 845,-0.5"/>
<text text-anchor="start" x="853" y="-29.5" font-family="Helvetica,sans-Serif" font-size="10.00">/home/tomek/CLionProjects</text>
<text text-anchor="start" x="853" y="-18.5" font-family="Helvetica,sans-Serif" font-size="10.00">/proi/proi&#45;projekt/src</text>
<text text-anchor="middle" x="920.5" y="-7.5" font-family="Helvetica,sans-Serif" font-size="10.00">/tank&#45;lib/Tank.cpp</text>
</a>
</g>
</g>
<!-- Node1&#45;&gt;Node10 -->
<g id="edge9" class="edge">
<title>Node1&#45;&gt;Node10</title>
<path fill="none" stroke="midnightblue" d="M707.35,-151.23C757.68,-120.72 842.15,-69.5 888.19,-41.59"/>
<polygon fill="midnightblue" stroke="midnightblue" points="705.41,-148.32 698.67,-156.5 709.03,-154.3 705.41,-148.32"/>
</g>
<!-- Node11 -->
<g id="node11" class="node">
<title>Node11</title>
<g id="a_node11"><a xlink:href="_bullet_8h.html" target="_top" xlink:title=" ">
<polygon fill="none" stroke="black" points="916,-78.5 916,-119.5 1067,-119.5 1067,-78.5 916,-78.5"/>
<text text-anchor="start" x="924" y="-107.5" font-family="Helvetica,sans-Serif" font-size="10.00">/home/tomek/CLionProjects</text>
<text text-anchor="start" x="924" y="-96.5" font-family="Helvetica,sans-Serif" font-size="10.00">/proi/proi&#45;projekt/src</text>
<text text-anchor="middle" x="991.5" y="-85.5" font-family="Helvetica,sans-Serif" font-size="10.00">/tank&#45;lib/include/Bullet.h</text>
</a>
</g>
</g>
<!-- Node1&#45;&gt;Node11 -->
<g id="edge10" class="edge">
<title>Node1&#45;&gt;Node11</title>
<path fill="none" stroke="midnightblue" d="M759.94,-154.15C809.41,-142.58 869.36,-128.56 915.87,-117.69"/>
<polygon fill="midnightblue" stroke="midnightblue" points="759.14,-150.74 750.2,-156.43 760.73,-157.56 759.14,-150.74"/>
</g>
<!-- Node5 -->
<g id="node5" class="node">
<title>Node5</title>
<g id="a_node5"><a xlink:href="_bot_8cpp.html" target="_top" xlink:title=" ">
<polygon fill="none" stroke="black" points="169,-0.5 169,-41.5 320,-41.5 320,-0.5 169,-0.5"/>
<text text-anchor="start" x="177" y="-29.5" font-family="Helvetica,sans-Serif" font-size="10.00">/home/tomek/CLionProjects</text>
<text text-anchor="start" x="177" y="-18.5" font-family="Helvetica,sans-Serif" font-size="10.00">/proi/proi&#45;projekt/src</text>
<text text-anchor="middle" x="244.5" y="-7.5" font-family="Helvetica,sans-Serif" font-size="10.00">/bot&#45;lib/Bot.cpp</text>
</a>
</g>
</g>
<!-- Node4&#45;&gt;Node5 -->
<g id="edge4" class="edge">
<title>Node4&#45;&gt;Node5</title>
<path fill="none" stroke="midnightblue" d="M496.91,-77.89C420.9,-60.99 400.34,-58.2 328.5,-42 325.72,-41.37 322.89,-40.73 320.04,-40.07"/>
<polygon fill="midnightblue" stroke="midnightblue" points="496.45,-81.38 506.98,-80.14 497.98,-74.55 496.45,-81.38"/>
</g>
<!-- Node6 -->
<g id="node6" class="node">
<title>Node6</title>
<g id="a_node6"><a xlink:href="_bot_controller_8cpp.html" target="_top" xlink:title=" ">
<polygon fill="none" stroke="black" points="338,-0.5 338,-41.5 489,-41.5 489,-0.5 338,-0.5"/>
<text text-anchor="start" x="346" y="-29.5" font-family="Helvetica,sans-Serif" font-size="10.00">/home/tomek/CLionProjects</text>
<text text-anchor="start" x="346" y="-18.5" font-family="Helvetica,sans-Serif" font-size="10.00">/proi/proi&#45;projekt/src</text>
<text text-anchor="middle" x="413.5" y="-7.5" font-family="Helvetica,sans-Serif" font-size="10.00">/bot&#45;lib/BotController.cpp</text>
</a>
</g>
</g>
<!-- Node4&#45;&gt;Node6 -->
<g id="edge5" class="edge">
<title>Node4&#45;&gt;Node6</title>
<path fill="none" stroke="midnightblue" d="M529.55,-74.19C506.17,-63.67 479.03,-51.47 456.87,-41.51"/>
<polygon fill="midnightblue" stroke="midnightblue" points="528.42,-77.52 538.98,-78.43 531.29,-71.13 528.42,-77.52"/>
</g>
<!-- Node7 -->
<g id="node7" class="node">
<title>Node7</title>
<g id="a_node7"><a xlink:href="_clock_8cpp.html" target="_top" xlink:title=" ">
<polygon fill="none" stroke="black" points="507,-0.5 507,-41.5 658,-41.5 658,-0.5 507,-0.5"/>
<text text-anchor="start" x="515" y="-29.5" font-family="Helvetica,sans-Serif" font-size="10.00">/home/tomek/CLionProjects</text>
<text text-anchor="start" x="515" y="-18.5" font-family="Helvetica,sans-Serif" font-size="10.00">/proi/proi&#45;projekt/src</text>
<text text-anchor="middle" x="582.5" y="-7.5" font-family="Helvetica,sans-Serif" font-size="10.00">/core&#45;lib/Clock.cpp</text>
</a>
</g>
</g>
<!-- Node4&#45;&gt;Node7 -->
<g id="edge6" class="edge">
<title>Node4&#45;&gt;Node7</title>
<path fill="none" stroke="midnightblue" d="M582.5,-68.3C582.5,-59.3 582.5,-49.65 582.5,-41.51"/>
<polygon fill="midnightblue" stroke="midnightblue" points="579,-68.43 582.5,-78.43 586,-68.43 579,-68.43"/>
</g>
<!-- Node8 -->
<g id="node8" class="node">
<title>Node8</title>
<g id="a_node8"><a xlink:href="_game_8cpp.html" target="_top" xlink:title=" ">
<polygon fill="none" stroke="black" points="0,-0.5 0,-41.5 151,-41.5 151,-0.5 0,-0.5"/>
<text text-anchor="start" x="8" y="-29.5" font-family="Helvetica,sans-Serif" font-size="10.00">/home/tomek/CLionProjects</text>
<text text-anchor="start" x="8" y="-18.5" font-family="Helvetica,sans-Serif" font-size="10.00">/proi/proi&#45;projekt/src</text>
<text text-anchor="middle" x="75.5" y="-7.5" font-family="Helvetica,sans-Serif" font-size="10.00">/game&#45;lib/Game.cpp</text>
</a>
</g>
</g>
<!-- Node4&#45;&gt;Node8 -->
<g id="edge7" class="edge">
<title>Node4&#45;&gt;Node8</title>
<path fill="none" stroke="midnightblue" d="M496.57,-77.96C346.79,-53.27 305.2,-67 159.5,-42 156.84,-41.54 154.14,-41.05 151.42,-40.53"/>
<polygon fill="midnightblue" stroke="midnightblue" points="496.15,-81.44 506.6,-79.64 497.31,-74.54 496.15,-81.44"/>
</g>
<!-- Node11&#45;&gt;Node9 -->
<g id="edge13" class="edge">
<title>Node11&#45;&gt;Node9</title>
<path fill="none" stroke="midnightblue" d="M919.83,-75.3C885.86,-64.55 845.68,-51.82 813.1,-41.51"/>
<polygon fill="midnightblue" stroke="midnightblue" points="919.1,-78.75 929.69,-78.43 921.22,-72.07 919.1,-78.75"/>
</g>
<!-- Node11&#45;&gt;Node10 -->
<g id="edge15" class="edge">
<title>Node11&#45;&gt;Node10</title>
<path fill="none" stroke="midnightblue" d="M966.2,-70.92C957.12,-61.2 947.08,-50.45 938.72,-41.51"/>
<polygon fill="midnightblue" stroke="midnightblue" points="963.83,-73.51 973.22,-78.43 968.95,-68.73 963.83,-73.51"/>
</g>
<!-- Node12 -->
<g id="node12" class="node">
<title>Node12</title>
<g id="a_node12"><a xlink:href="_board_8cpp.html" target="_top" xlink:title=" ">
<polygon fill="none" stroke="black" points="1014,-0.5 1014,-41.5 1165,-41.5 1165,-0.5 1014,-0.5"/>
<text text-anchor="start" x="1022" y="-29.5" font-family="Helvetica,sans-Serif" font-size="10.00">/home/tomek/CLionProjects</text>
<text text-anchor="start" x="1022" y="-18.5" font-family="Helvetica,sans-Serif" font-size="10.00">/proi/proi&#45;projekt/src</text>
<text text-anchor="middle" x="1089.5" y="-7.5" font-family="Helvetica,sans-Serif" font-size="10.00">/board&#45;lib/Board.cpp</text>
</a>
</g>
</g>
<!-- Node11&#45;&gt;Node12 -->
<g id="edge11" class="edge">
<title>Node11&#45;&gt;Node12</title>
<path fill="none" stroke="midnightblue" d="M1024.94,-72.06C1037.85,-62.06 1052.36,-50.8 1064.35,-41.51"/>
<polygon fill="midnightblue" stroke="midnightblue" points="1022.49,-69.53 1016.74,-78.43 1026.78,-75.07 1022.49,-69.53"/>
</g>
<!-- Node13 -->
<g id="node13" class="node">
<title>Node13</title>
<g id="a_node13"><a xlink:href="_active_event_handler_8cpp.html" target="_top" xlink:title=" ">
<polygon fill="none" stroke="black" points="1183.5,-0.5 1183.5,-41.5 1365.5,-41.5 1365.5,-0.5 1183.5,-0.5"/>
<text text-anchor="start" x="1191.5" y="-29.5" font-family="Helvetica,sans-Serif" font-size="10.00">/home/tomek/CLionProjects</text>
<text text-anchor="start" x="1191.5" y="-18.5" font-family="Helvetica,sans-Serif" font-size="10.00">/proi/proi&#45;projekt/src</text>
<text text-anchor="middle" x="1274.5" y="-7.5" font-family="Helvetica,sans-Serif" font-size="10.00">/game&#45;lib/ActiveEventHandler.cpp</text>
</a>
</g>
</g>
<!-- Node11&#45;&gt;Node13 -->
<g id="edge12" class="edge">
<title>Node11&#45;&gt;Node13</title>
<path fill="none" stroke="midnightblue" d="M1074.21,-75.79C1114.65,-64.93 1162.87,-51.98 1201.87,-41.51"/>
<polygon fill="midnightblue" stroke="midnightblue" points="1073.13,-72.45 1064.38,-78.43 1074.95,-79.21 1073.13,-72.45"/>
</g>
<!-- Node14 -->
<g id="node14" class="node">
<title>Node14</title>
<g id="a_node14"><a xlink:href="_entity_controller_8cpp.html" target="_top" xlink:title=" ">
<polygon fill="none" stroke="black" points="1383.5,-0.5 1383.5,-41.5 1539.5,-41.5 1539.5,-0.5 1383.5,-0.5"/>
<text text-anchor="start" x="1391.5" y="-29.5" font-family="Helvetica,sans-Serif" font-size="10.00">/home/tomek/CLionProjects</text>
<text text-anchor="start" x="1391.5" y="-18.5" font-family="Helvetica,sans-Serif" font-size="10.00">/proi/proi&#45;projekt/src</text>
<text text-anchor="middle" x="1461.5" y="-7.5" font-family="Helvetica,sans-Serif" font-size="10.00">/tank&#45;lib/EntityController.cpp</text>
</a>
</g>
</g>
<!-- Node11&#45;&gt;Node14 -->
<g id="edge14" class="edge">
<title>Node11&#45;&gt;Node14</title>
<path fill="none" stroke="midnightblue" d="M1077.25,-87.48C1155.09,-77.45 1272.89,-61.07 1374.5,-42 1377.39,-41.46 1380.34,-40.88 1383.31,-40.29"/>
<polygon fill="midnightblue" stroke="midnightblue" points="1076.49,-84.05 1067.02,-88.79 1077.38,-90.99 1076.49,-84.05"/>
</g>
</g>
</svg>
