<?xml version="1.0" encoding="UTF-8" standalone="no"?>
<!DOCTYPE svg PUBLIC "-//W3C//DTD SVG 1.1//EN"
 "http://www.w3.org/Graphics/SVG/1.1/DTD/svg11.dtd">
<!-- Generated by graphviz version 2.43.0 (0)
 -->
<!-- Title: /home/tomek/CLionProjects/proi/proi&#45;projekt/src/core&#45;lib/SimplePublisher.cpp Pages: 1 -->
<svg width="496pt" height="162pt"
 viewBox="0.00 0.00 495.50 162.00" xmlns="http://www.w3.org/2000/svg" xmlns:xlink="http://www.w3.org/1999/xlink">
<g id="graph0" class="graph" transform="scale(1 1) rotate(0) translate(4 158)">
<title>/home/tomek/CLionProjects/proi/proi&#45;projekt/src/core&#45;lib/SimplePublisher.cpp</title>
<!-- Node1 -->
<g id="node1" class="node">
<title>Node1</title>
<g id="a_node1"><a xlink:title=" ">
<polygon fill="#bfbfbf" stroke="black" points="158,-112.5 158,-153.5 316,-153.5 316,-112.5 158,-112.5"/>
<text text-anchor="start" x="166" y="-141.5" font-family="Helvetica,sans-Serif" font-size="10.00">/home/tomek/CLionProjects</text>
<text text-anchor="start" x="166" y="-130.5" font-family="Helvetica,sans-Serif" font-size="10.00">/proi/proi&#45;projekt/src</text>
<text text-anchor="middle" x="237" y="-119.5" font-family="Helvetica,sans-Serif" font-size="10.00">/core&#45;lib/SimplePublisher.cpp</text>
</a>
</g>
</g>
<!-- Node2 -->
<g id="node2" class="node">
<title>Node2</title>
<g id="a_node2"><a xlink:href="_simple_publisher_8h.html" target="_top" xlink:title=" ">
<polygon fill="none" stroke="black" points="166,-56.5 166,-75.5 308,-75.5 308,-56.5 166,-56.5"/>
<text text-anchor="middle" x="237" y="-63.5" font-family="Helvetica,sans-Serif" font-size="10.00">include/SimplePublisher.h</text>
</a>
</g>
</g>
<!-- Node1&#45;&gt;Node2 -->
<g id="edge1" class="edge">
<title>Node1&#45;&gt;Node2</title>
<path fill="none" stroke="midnightblue" d="M237,-112.5C237,-104.07 237,-94.24 237,-85.87"/>
<polygon fill="midnightblue" stroke="midnightblue" points="240.5,-85.65 237,-75.65 233.5,-85.65 240.5,-85.65"/>
</g>
<!-- Node5 -->
<g id="node5" class="node">
<title>Node5</title>
<g id="a_node5"><a xlink:href="_simple_subscriber_8h.html" target="_top" xlink:title=" ">
<polygon fill="none" stroke="black" points="0,-56.5 0,-75.5 148,-75.5 148,-56.5 0,-56.5"/>
<text text-anchor="middle" x="74" y="-63.5" font-family="Helvetica,sans-Serif" font-size="10.00">include/SimpleSubscriber.h</text>
</a>
</g>
</g>
<!-- Node1&#45;&gt;Node5 -->
<g id="edge4" class="edge">
<title>Node1&#45;&gt;Node5</title>
<path fill="none" stroke="midnightblue" d="M188.09,-112.5C161.18,-101.77 128.59,-88.77 105.14,-79.42"/>
<polygon fill="midnightblue" stroke="midnightblue" points="106.28,-76.11 95.7,-75.65 103.69,-82.61 106.28,-76.11"/>
</g>
<!-- Node6 -->
<g id="node6" class="node">
<title>Node6</title>
<g id="a_node6"><a xlink:href="_observer_exceptions_8h.html" target="_top" xlink:title=" ">
<polygon fill="none" stroke="black" points="326.5,-56.5 326.5,-75.5 487.5,-75.5 487.5,-56.5 326.5,-56.5"/>
<text text-anchor="middle" x="407" y="-63.5" font-family="Helvetica,sans-Serif" font-size="10.00">include/ObserverExceptions.h</text>
</a>
</g>
</g>
<!-- Node1&#45;&gt;Node6 -->
<g id="edge7" class="edge">
<title>Node1&#45;&gt;Node6</title>
<path fill="none" stroke="midnightblue" d="M288.01,-112.5C316.2,-101.72 350.37,-88.65 374.85,-79.29"/>
<polygon fill="midnightblue" stroke="midnightblue" points="376.28,-82.49 384.37,-75.65 373.78,-75.95 376.28,-82.49"/>
</g>
<!-- Node3 -->
<g id="node3" class="node">
<title>Node3</title>
<g id="a_node3"><a xlink:title=" ">
<polygon fill="none" stroke="#bfbfbf" points="68,-0.5 68,-19.5 126,-19.5 126,-0.5 68,-0.5"/>
<text text-anchor="middle" x="97" y="-7.5" font-family="Helvetica,sans-Serif" font-size="10.00">memory</text>
</a>
</g>
</g>
<!-- Node2&#45;&gt;Node3 -->
<g id="edge2" class="edge">
<title>Node2&#45;&gt;Node3</title>
<path fill="none" stroke="midnightblue" d="M214.82,-56.44C191.57,-47.48 154.85,-33.31 128.58,-23.18"/>
<polygon fill="midnightblue" stroke="midnightblue" points="129.67,-19.85 119.08,-19.52 127.15,-26.38 129.67,-19.85"/>
</g>
<!-- Node4 -->
<g id="node4" class="node">
<title>Node4</title>
<g id="a_node4"><a xlink:title=" ">
<polygon fill="none" stroke="#bfbfbf" points="167.5,-0.5 167.5,-19.5 214.5,-19.5 214.5,-0.5 167.5,-0.5"/>
<text text-anchor="middle" x="191" y="-7.5" font-family="Helvetica,sans-Serif" font-size="10.00">vector</text>
</a>
</g>
</g>
<!-- Node2&#45;&gt;Node4 -->
<g id="edge3" class="edge">
<title>Node2&#45;&gt;Node4</title>
<path fill="none" stroke="midnightblue" d="M229.4,-56.08C222.77,-48.3 212.98,-36.8 204.94,-27.37"/>
<polygon fill="midnightblue" stroke="midnightblue" points="207.6,-25.09 198.45,-19.75 202.27,-29.63 207.6,-25.09"/>
</g>
<!-- Node5&#45;&gt;Node3 -->
<g id="edge6" class="edge">
<title>Node5&#45;&gt;Node3</title>
<path fill="none" stroke="midnightblue" d="M77.8,-56.08C80.91,-48.77 85.42,-38.18 89.29,-29.1"/>
<polygon fill="midnightblue" stroke="midnightblue" points="92.57,-30.32 93.27,-19.75 86.13,-27.58 92.57,-30.32"/>
</g>
<!-- Node5&#45;&gt;Node4 -->
<g id="edge5" class="edge">
<title>Node5&#45;&gt;Node4</title>
<path fill="none" stroke="midnightblue" d="M92.54,-56.44C111.62,-47.64 141.57,-33.81 163.44,-23.72"/>
<polygon fill="midnightblue" stroke="midnightblue" points="164.93,-26.88 172.55,-19.52 162,-20.53 164.93,-26.88"/>
</g>
<!-- Node7 -->
<g id="node7" class="node">
<title>Node7</title>
<g id="a_node7"><a xlink:title=" ">
<polygon fill="none" stroke="#bfbfbf" points="337.5,-0.5 337.5,-19.5 402.5,-19.5 402.5,-0.5 337.5,-0.5"/>
<text text-anchor="middle" x="370" y="-7.5" font-family="Helvetica,sans-Serif" font-size="10.00">exception</text>
</a>
</g>
</g>
<!-- Node6&#45;&gt;Node7 -->
<g id="edge8" class="edge">
<title>Node6&#45;&gt;Node7</title>
<path fill="none" stroke="midnightblue" d="M400.89,-56.08C395.72,-48.53 388.15,-37.49 381.81,-28.23"/>
<polygon fill="midnightblue" stroke="midnightblue" points="384.54,-26.02 376,-19.75 378.76,-29.98 384.54,-26.02"/>
</g>
<!-- Node8 -->
<g id="node8" class="node">
<title>Node8</title>
<g id="a_node8"><a xlink:title=" ">
<polygon fill="none" stroke="#bfbfbf" points="421,-0.5 421,-19.5 465,-19.5 465,-0.5 421,-0.5"/>
<text text-anchor="middle" x="443" y="-7.5" font-family="Helvetica,sans-Serif" font-size="10.00">string</text>
</a>
</g>
</g>
<!-- Node6&#45;&gt;Node8 -->
<g id="edge9" class="edge">
<title>Node6&#45;&gt;Node8</title>
<path fill="none" stroke="midnightblue" d="M412.94,-56.08C417.98,-48.53 425.34,-37.49 431.51,-28.23"/>
<polygon fill="midnightblue" stroke="midnightblue" points="434.53,-30.01 437.17,-19.75 428.71,-26.13 434.53,-30.01"/>
</g>
</g>
</svg>
