<?xml version="1.0" encoding="UTF-8" standalone="no"?>
<!DOCTYPE svg PUBLIC "-//W3C//DTD SVG 1.1//EN"
 "http://www.w3.org/Graphics/SVG/1.1/DTD/svg11.dtd">
<!-- Generated by graphviz version 2.43.0 (0)
 -->
<!-- Title: /home/tomek/CLionProjects/proi/proi&#45;projekt/src/graphic&#45;lib/StaticGraphic.cpp Pages: 1 -->
<!--zoomable 866 -->
<svg id="main" version="1.1" xmlns="http://www.w3.org/2000/svg" xmlns:xlink="http://www.w3.org/1999/xlink" xml:space="preserve" onload="init(evt)">
<style type="text/css"><![CDATA[
.edge:hover path { stroke: red; }
.edge:hover polygon { stroke: red; fill: red; }
]]></style>
<script type="text/javascript"><![CDATA[
var edges = document.getElementsByTagName('g');
if (edges && edges.length) {
  for (var i=0;i<edges.length;i++) {
    if (edges[i].id.substr(0,4)=='edge') {
      edges[i].setAttribute('class','edge');
    }
  }
}
]]></script>
        <defs>
                <circle id="rim" cx="0" cy="0" r="7"/>
                <circle id="rim2" cx="0" cy="0" r="3.5"/>
                <g id="zoomPlus">
                        <use xlink:href="#rim" fill="#404040">
                                <set attributeName="fill" to="#808080" begin="zoomplus.mouseover" end="zoomplus.mouseout"/>
                        </use>
                        <path d="M-4,0h8M0,-4v8" fill="none" stroke="white" stroke-width="1.5" pointer-events="none"/>
                </g>
                <g id="zoomMin">
                        <use xlink:href="#rim" fill="#404040">
                                <set attributeName="fill" to="#808080" begin="zoomminus.mouseover" end="zoomminus.mouseout"/>
                        </use>
                        <path d="M-4,0h8" fill="none" stroke="white" stroke-width="1.5" pointer-events="none"/>
                </g>
                <g id="dirArrow">
                        <path fill="none" stroke="white" stroke-width="1.5" d="M0,-3.0v7 M-2.5,-0.5L0,-3.0L2.5,-0.5"/>
                </g>
               <g id="resetDef">
                       <use xlink:href="#rim2" fill="#404040">
                               <set attributeName="fill" to="#808080" begin="reset.mouseover" end="reset.mouseout"/>
                       </use>
               </g>
        </defs>

<script type="text/javascript">
var viewWidth = 1369;
var viewHeight = 866;
var sectionId = 'dynsection-0';
</script>
<script xlink:href="svgpan.js"/>
<svg id="graph" class="graph">
<g id="viewport">
<title>/home/tomek/CLionProjects/proi/proi&#45;projekt/src/graphic&#45;lib/StaticGraphic.cpp</title>
<!-- Node1 -->
<g id="node1" class="node">
<title>Node1</title>
<g id="a_node1"><a xlink:title=" ">
<polygon fill="#bfbfbf" stroke="black" points="649.37,-816.5 649.37,-857.5 809.37,-857.5 809.37,-816.5 649.37,-816.5"/>
<text text-anchor="start" x="657.37" y="-845.5" font-family="Helvetica,sans-Serif" font-size="10.00">/home/tomek/CLionProjects</text>
<text text-anchor="start" x="657.37" y="-834.5" font-family="Helvetica,sans-Serif" font-size="10.00">/proi/proi&#45;projekt/src</text>
<text text-anchor="middle" x="729.37" y="-823.5" font-family="Helvetica,sans-Serif" font-size="10.00">/graphic&#45;lib/StaticGraphic.cpp</text>
</a>
</g>
</g>
<!-- Node2 -->
<g id="node2" class="node">
<title>Node2</title>
<g id="a_node2"><a xlink:href="_static_graphic_8h.html" target="_top" xlink:title=" ">
<polygon fill="none" stroke="black" points="630.87,-682.5 630.87,-712.5 743.87,-712.5 743.87,-682.5 630.87,-682.5"/>
<text text-anchor="start" x="638.87" y="-700.5" font-family="Helvetica,sans-Serif" font-size="10.00">include/StaticStates</text>
<text text-anchor="middle" x="687.37" y="-689.5" font-family="Helvetica,sans-Serif" font-size="10.00">_dir/StaticGraphic.h</text>
</a>
</g>
</g>
<!-- Node1&#45;&gt;Node2 -->
<g id="edge1" class="edge">
<title>Node1&#45;&gt;Node2</title>
<path fill="none" stroke="midnightblue" d="M717.78,-816.39C712.05,-805.91 705.5,-792.6 701.37,-780 695.26,-761.38 691.69,-739.44 689.68,-723.02"/>
<polygon fill="midnightblue" stroke="midnightblue" points="693.11,-722.2 688.53,-712.65 686.15,-722.97 693.11,-722.2"/>
</g>
<!-- Node36 -->
<g id="node36" class="node">
<title>Node36</title>
<g id="a_node36"><a xlink:href="_menu_state_graphic_8h.html" target="_top" xlink:title=" ">
<polygon fill="none" stroke="black" points="709.87,-749.5 709.87,-779.5 846.87,-779.5 846.87,-749.5 709.87,-749.5"/>
<text text-anchor="start" x="717.87" y="-767.5" font-family="Helvetica,sans-Serif" font-size="10.00">include/StaticStates</text>
<text text-anchor="middle" x="778.37" y="-756.5" font-family="Helvetica,sans-Serif" font-size="10.00">_dir/MenuStateGraphic.h</text>
</a>
</g>
</g>
<!-- Node1&#45;&gt;Node36 -->
<g id="edge74" class="edge">
<title>Node1&#45;&gt;Node36</title>
<path fill="none" stroke="midnightblue" d="M743.02,-816.36C749.11,-807.59 756.33,-797.21 762.65,-788.12"/>
<polygon fill="midnightblue" stroke="midnightblue" points="765.53,-790.1 768.37,-779.89 759.79,-786.11 765.53,-790.1"/>
</g>
<!-- Node3 -->
<g id="node3" class="node">
<title>Node3</title>
<g id="a_node3"><a xlink:href="_window_8h.html" target="_top" xlink:title=" ">
<polygon fill="none" stroke="black" points="694.87,-626.5 694.87,-645.5 767.87,-645.5 767.87,-626.5 694.87,-626.5"/>
<text text-anchor="middle" x="731.37" y="-633.5" font-family="Helvetica,sans-Serif" font-size="10.00">../Window.h</text>
</a>
</g>
</g>
<!-- Node2&#45;&gt;Node3 -->
<g id="edge2" class="edge">
<title>Node2&#45;&gt;Node3</title>
<path fill="none" stroke="midnightblue" d="M697.8,-682.4C704.12,-673.84 712.24,-662.87 718.9,-653.86"/>
<polygon fill="midnightblue" stroke="midnightblue" points="721.84,-655.78 724.97,-645.66 716.21,-651.62 721.84,-655.78"/>
</g>
<!-- Node10 -->
<g id="node10" class="node">
<title>Node10</title>
<g id="a_node10"><a xlink:title=" ">
<polygon fill="none" stroke="#bfbfbf" points="205.87,-565 205.87,-584 298.87,-584 298.87,-565 205.87,-565"/>
<text text-anchor="middle" x="252.37" y="-572" font-family="Helvetica,sans-Serif" font-size="10.00">unordered_map</text>
</a>
</g>
</g>
<!-- Node2&#45;&gt;Node10 -->
<g id="edge73" class="edge">
<title>Node2&#45;&gt;Node10</title>
<path fill="none" stroke="midnightblue" d="M636.62,-682.38C549.25,-658.08 372.17,-608.82 292.64,-586.7"/>
<polygon fill="midnightblue" stroke="midnightblue" points="293.56,-583.32 282.99,-584.02 291.68,-590.07 293.56,-583.32"/>
</g>
<!-- Node4 -->
<g id="node4" class="node">
<title>Node4</title>
<g id="a_node4"><a xlink:href="_abstract_window_8h.html" target="_top" xlink:title=" ">
<polygon fill="none" stroke="black" points="1053.37,-263 1053.37,-282 1157.37,-282 1157.37,-263 1053.37,-263"/>
<text text-anchor="middle" x="1105.37" y="-270" font-family="Helvetica,sans-Serif" font-size="10.00">AbstractWindow.h</text>
</a>
</g>
</g>
<!-- Node3&#45;&gt;Node4 -->
<g id="edge3" class="edge">
<title>Node3&#45;&gt;Node4</title>
<path fill="none" stroke="midnightblue" d="M768.06,-633.12C833.18,-629.11 965.5,-617.7 1001.37,-590 1030.66,-567.38 1035.37,-551 1035.37,-514 1035.37,-514 1035.37,-514 1035.37,-389 1035.37,-348.46 1067.3,-309.99 1088.03,-289.29"/>
<polygon fill="midnightblue" stroke="midnightblue" points="1090.56,-291.72 1095.34,-282.26 1085.71,-286.67 1090.56,-291.72"/>
</g>
<!-- Node3&#45;&gt;Node10 -->
<g id="edge9" class="edge">
<title>Node3&#45;&gt;Node10</title>
<path fill="none" stroke="midnightblue" d="M694.62,-632.92C620.89,-628.34 449.88,-615.7 308.37,-590 303,-589.02 297.38,-587.81 291.87,-586.5"/>
<polygon fill="midnightblue" stroke="midnightblue" points="292.67,-583.09 282.12,-584.07 290.98,-589.89 292.67,-583.09"/>
</g>
<!-- Node11 -->
<g id="node11" class="node">
<title>Node11</title>
<g id="a_node11"><a xlink:href="_entity_8h.html" target="_top" xlink:title=" ">
<polygon fill="none" stroke="black" points="668.37,-56.5 668.37,-86.5 778.37,-86.5 778.37,-56.5 668.37,-56.5"/>
<text text-anchor="start" x="676.37" y="-74.5" font-family="Helvetica,sans-Serif" font-size="10.00">../../tank&#45;lib/include</text>
<text text-anchor="middle" x="723.37" y="-63.5" font-family="Helvetica,sans-Serif" font-size="10.00">/Entity.h</text>
</a>
</g>
</g>
<!-- Node3&#45;&gt;Node11 -->
<g id="edge10" class="edge">
<title>Node3&#45;&gt;Node11</title>
<path fill="none" stroke="midnightblue" d="M768.05,-633.99C838.83,-629.89 987.37,-609.86 987.37,-514 987.37,-514 987.37,-514 987.37,-389 987.37,-263.46 983.44,-209.4 892.37,-123 884.42,-115.46 832.5,-100.56 788.28,-88.89"/>
<polygon fill="midnightblue" stroke="midnightblue" points="788.96,-85.45 778.4,-86.3 787.19,-92.22 788.96,-85.45"/>
</g>
<!-- Node12 -->
<g id="node12" class="node">
<title>Node12</title>
<g id="a_node12"><a xlink:href="_grid_8h.html" target="_top" xlink:title=" ">
<polygon fill="none" stroke="black" points="673.37,-257.5 673.37,-287.5 789.37,-287.5 789.37,-257.5 673.37,-257.5"/>
<text text-anchor="start" x="681.37" y="-275.5" font-family="Helvetica,sans-Serif" font-size="10.00">../../board&#45;lib/include</text>
<text text-anchor="middle" x="731.37" y="-264.5" font-family="Helvetica,sans-Serif" font-size="10.00">/Grid.h</text>
</a>
</g>
</g>
<!-- Node3&#45;&gt;Node12 -->
<g id="edge11" class="edge">
<title>Node3&#45;&gt;Node12</title>
<path fill="none" stroke="midnightblue" d="M731.37,-626.49C731.37,-606.74 731.37,-556.22 731.37,-514 731.37,-514 731.37,-514 731.37,-389 731.37,-357.49 731.37,-321.16 731.37,-297.78"/>
<polygon fill="midnightblue" stroke="midnightblue" points="734.87,-297.72 731.37,-287.72 727.87,-297.72 734.87,-297.72"/>
</g>
<!-- Node15 -->
<g id="node15" class="node">
<title>Node15</title>
<g id="a_node15"><a xlink:href="_tank_8h.html" target="_top" xlink:title=" ">
<polygon fill="none" stroke="black" points="470.37,-190.5 470.37,-220.5 580.37,-220.5 580.37,-190.5 470.37,-190.5"/>
<text text-anchor="start" x="478.37" y="-208.5" font-family="Helvetica,sans-Serif" font-size="10.00">../../tank&#45;lib/include</text>
<text text-anchor="middle" x="525.37" y="-197.5" font-family="Helvetica,sans-Serif" font-size="10.00">/Tank.h</text>
</a>
</g>
</g>
<!-- Node3&#45;&gt;Node15 -->
<g id="edge25" class="edge">
<title>Node3&#45;&gt;Node15</title>
<path fill="none" stroke="midnightblue" d="M718.62,-626.33C694.01,-608.44 642.37,-564.85 642.37,-514 642.37,-514 642.37,-514 642.37,-333 642.37,-298.07 644.17,-284.29 622.37,-257 611.27,-243.11 595.32,-232.63 579.55,-224.92"/>
<polygon fill="midnightblue" stroke="midnightblue" points="580.87,-221.67 570.32,-220.69 577.95,-228.04 580.87,-221.67"/>
</g>
<!-- Node19 -->
<g id="node19" class="node">
<title>Node19</title>
<g id="a_node19"><a xlink:href="_bullet_8h.html" target="_top" xlink:title=" ">
<polygon fill="none" stroke="black" points="773.37,-123.5 773.37,-153.5 883.37,-153.5 883.37,-123.5 773.37,-123.5"/>
<text text-anchor="start" x="781.37" y="-141.5" font-family="Helvetica,sans-Serif" font-size="10.00">../../tank&#45;lib/include</text>
<text text-anchor="middle" x="828.37" y="-130.5" font-family="Helvetica,sans-Serif" font-size="10.00">/Bullet.h</text>
</a>
</g>
</g>
<!-- Node3&#45;&gt;Node19 -->
<g id="edge26" class="edge">
<title>Node3&#45;&gt;Node19</title>
<path fill="none" stroke="midnightblue" d="M768.23,-627.59C820.89,-614.6 911.37,-582.34 911.37,-514 911.37,-514 911.37,-514 911.37,-271.5 911.37,-226.85 876.92,-184.94 852.4,-160.78"/>
<polygon fill="midnightblue" stroke="midnightblue" points="854.82,-158.24 845.17,-153.86 849.98,-163.3 854.82,-158.24"/>
</g>
<!-- Node21 -->
<g id="node21" class="node">
<title>Node21</title>
<g id="a_node21"><a xlink:href="_game_state_8h.html" target="_top" xlink:title=" ">
<polygon fill="none" stroke="black" points="317.37,-559.5 317.37,-589.5 433.37,-589.5 433.37,-559.5 317.37,-559.5"/>
<text text-anchor="start" x="325.37" y="-577.5" font-family="Helvetica,sans-Serif" font-size="10.00">../../game&#45;lib/include</text>
<text text-anchor="middle" x="375.37" y="-566.5" font-family="Helvetica,sans-Serif" font-size="10.00">/GameState.h</text>
</a>
</g>
</g>
<!-- Node3&#45;&gt;Node21 -->
<g id="edge31" class="edge">
<title>Node3&#45;&gt;Node21</title>
<path fill="none" stroke="midnightblue" d="M694.61,-628.86C635.57,-618.99 518.65,-599.45 443.88,-586.95"/>
<polygon fill="midnightblue" stroke="midnightblue" points="444.06,-583.43 433.62,-585.24 442.91,-590.34 444.06,-583.43"/>
</g>
<!-- Node5 -->
<g id="node5" class="node">
<title>Node5</title>
<g id="a_node5"><a xlink:title=" ">
<polygon fill="none" stroke="#bfbfbf" points="1257.37,-196 1257.37,-215 1361.37,-215 1361.37,-196 1257.37,-196"/>
<text text-anchor="middle" x="1309.37" y="-203" font-family="Helvetica,sans-Serif" font-size="10.00">SFML/System.hpp</text>
</a>
</g>
</g>
<!-- Node4&#45;&gt;Node5 -->
<g id="edge4" class="edge">
<title>Node4&#45;&gt;Node5</title>
<path fill="none" stroke="midnightblue" d="M1132.46,-262.87C1168.53,-251.38 1232.45,-231.01 1272.78,-218.16"/>
<polygon fill="midnightblue" stroke="midnightblue" points="1274.03,-221.43 1282.49,-215.06 1271.9,-214.76 1274.03,-221.43"/>
</g>
<!-- Node6 -->
<g id="node6" class="node">
<title>Node6</title>
<g id="a_node6"><a xlink:title=" ">
<polygon fill="none" stroke="#bfbfbf" points="1091.37,-196 1091.37,-215 1201.37,-215 1201.37,-196 1091.37,-196"/>
<text text-anchor="middle" x="1146.37" y="-203" font-family="Helvetica,sans-Serif" font-size="10.00">SFML/Graphics.hpp</text>
</a>
</g>
</g>
<!-- Node4&#45;&gt;Node6 -->
<g id="edge5" class="edge">
<title>Node4&#45;&gt;Node6</title>
<path fill="none" stroke="midnightblue" d="M1110.9,-262.73C1117.17,-252.79 1127.55,-236.34 1135.46,-223.79"/>
<polygon fill="midnightblue" stroke="midnightblue" points="1138.55,-225.45 1140.93,-215.13 1132.63,-221.72 1138.55,-225.45"/>
</g>
<!-- Node7 -->
<g id="node7" class="node">
<title>Node7</title>
<g id="a_node7"><a xlink:title=" ">
<polygon fill="none" stroke="#bfbfbf" points="785.37,-196 785.37,-215 845.37,-215 845.37,-196 785.37,-196"/>
<text text-anchor="middle" x="815.37" y="-203" font-family="Helvetica,sans-Serif" font-size="10.00">iostream</text>
</a>
</g>
</g>
<!-- Node4&#45;&gt;Node7 -->
<g id="edge6" class="edge">
<title>Node4&#45;&gt;Node7</title>
<path fill="none" stroke="midnightblue" d="M1067.16,-262.94C1012.28,-250.64 911.62,-228.07 855.63,-215.52"/>
<polygon fill="midnightblue" stroke="midnightblue" points="856.24,-212.07 845.71,-213.3 854.71,-218.9 856.24,-212.07"/>
</g>
<!-- Node8 -->
<g id="node8" class="node">
<title>Node8</title>
<g id="a_node8"><a xlink:title=" ">
<polygon fill="none" stroke="#bfbfbf" points="936.87,-0.5 936.87,-19.5 983.87,-19.5 983.87,-0.5 936.87,-0.5"/>
<text text-anchor="middle" x="960.37" y="-7.5" font-family="Helvetica,sans-Serif" font-size="10.00">vector</text>
</a>
</g>
</g>
<!-- Node4&#45;&gt;Node8 -->
<g id="edge7" class="edge">
<title>Node4&#45;&gt;Node8</title>
<path fill="none" stroke="midnightblue" d="M1146.73,-262.94C1169.72,-255.84 1196.43,-243.18 1210.37,-221 1217.7,-209.34 1216.4,-202.39 1210.37,-190 1166.17,-99.22 1050.81,-44.87 993.57,-22.67"/>
<polygon fill="midnightblue" stroke="midnightblue" points="994.51,-19.29 983.92,-19.02 992.03,-25.83 994.51,-19.29"/>
</g>
<!-- Node9 -->
<g id="node9" class="node">
<title>Node9</title>
<g id="a_node9"><a xlink:title=" ">
<polygon fill="none" stroke="#bfbfbf" points="186.37,-0.5 186.37,-19.5 244.37,-19.5 244.37,-0.5 186.37,-0.5"/>
<text text-anchor="middle" x="215.37" y="-7.5" font-family="Helvetica,sans-Serif" font-size="10.00">memory</text>
</a>
</g>
</g>
<!-- Node4&#45;&gt;Node9 -->
<g id="edge8" class="edge">
<title>Node4&#45;&gt;Node9</title>
<path fill="none" stroke="midnightblue" d="M1083.94,-262.97C1041.07,-246.26 941.39,-209.18 854.37,-190 723.66,-161.2 681.54,-198.68 555.37,-154 478.19,-126.67 474.77,-87.91 399.37,-56 351.62,-35.79 292.89,-23.4 254.82,-16.87"/>
<polygon fill="midnightblue" stroke="midnightblue" points="255.09,-13.37 244.65,-15.18 253.94,-20.27 255.09,-13.37"/>
</g>
<!-- Node12&#45;&gt;Node8 -->
<g id="edge13" class="edge">
<title>Node12&#45;&gt;Node8</title>
<path fill="none" stroke="midnightblue" d="M786.86,-257.45C809.7,-249.58 835.23,-237.86 854.37,-221 915.43,-167.2 945.66,-69.92 956.06,-29.44"/>
<polygon fill="midnightblue" stroke="midnightblue" points="959.48,-30.16 958.47,-19.62 952.69,-28.49 959.48,-30.16"/>
</g>
<!-- Node13 -->
<g id="node13" class="node">
<title>Node13</title>
<g id="a_node13"><a xlink:title=" ">
<polygon fill="none" stroke="#bfbfbf" points="636.87,-196 636.87,-215 701.87,-215 701.87,-196 636.87,-196"/>
<text text-anchor="middle" x="669.37" y="-203" font-family="Helvetica,sans-Serif" font-size="10.00">exception</text>
</a>
</g>
</g>
<!-- Node12&#45;&gt;Node13 -->
<g id="edge12" class="edge">
<title>Node12&#45;&gt;Node13</title>
<path fill="none" stroke="midnightblue" d="M717.92,-257.4C708.15,-247.16 694.93,-233.3 684.75,-222.62"/>
<polygon fill="midnightblue" stroke="midnightblue" points="687.1,-220.01 677.66,-215.19 682.03,-224.85 687.1,-220.01"/>
</g>
<!-- Node14 -->
<g id="node14" class="node">
<title>Node14</title>
<g id="a_node14"><a xlink:title=" ">
<polygon fill="none" stroke="#bfbfbf" points="719.87,-196 719.87,-215 766.87,-215 766.87,-196 719.87,-196"/>
<text text-anchor="middle" x="743.37" y="-203" font-family="Helvetica,sans-Serif" font-size="10.00">queue</text>
</a>
</g>
</g>
<!-- Node12&#45;&gt;Node14 -->
<g id="edge14" class="edge">
<title>Node12&#45;&gt;Node14</title>
<path fill="none" stroke="midnightblue" d="M733.97,-257.4C735.71,-247.96 738.03,-235.45 739.92,-225.19"/>
<polygon fill="midnightblue" stroke="midnightblue" points="743.39,-225.66 741.76,-215.19 736.51,-224.39 743.39,-225.66"/>
</g>
<!-- Node12&#45;&gt;Node15 -->
<g id="edge15" class="edge">
<title>Node12&#45;&gt;Node15</title>
<path fill="none" stroke="midnightblue" d="M686.92,-257.48C655.49,-247.56 613.16,-234.2 579.72,-223.65"/>
<polygon fill="midnightblue" stroke="midnightblue" points="580.68,-220.28 570.09,-220.61 578.57,-226.96 580.68,-220.28"/>
</g>
<!-- Node15&#45;&gt;Node9 -->
<g id="edge16" class="edge">
<title>Node15&#45;&gt;Node9</title>
<path fill="none" stroke="midnightblue" d="M513.93,-190.24C489.4,-160.61 428.54,-92.17 362.37,-56 328.18,-37.31 285.18,-25.3 254.53,-18.43"/>
<polygon fill="midnightblue" stroke="midnightblue" points="255.16,-14.99 244.64,-16.3 253.68,-21.83 255.16,-14.99"/>
</g>
<!-- Node15&#45;&gt;Node11 -->
<g id="edge21" class="edge">
<title>Node15&#45;&gt;Node11</title>
<path fill="none" stroke="midnightblue" d="M580.67,-190.63C617.66,-180.52 662.24,-166.46 677.37,-154 695.7,-138.91 708.09,-114.49 715.35,-96.31"/>
<polygon fill="midnightblue" stroke="midnightblue" points="718.72,-97.29 718.95,-86.7 712.17,-94.83 718.72,-97.29"/>
</g>
<!-- Node16 -->
<g id="node16" class="node">
<title>Node16</title>
<g id="a_node16"><a xlink:title=" ">
<polygon fill="none" stroke="#bfbfbf" points="376.37,-129 376.37,-148 432.37,-148 432.37,-129 376.37,-129"/>
<text text-anchor="middle" x="404.37" y="-136" font-family="Helvetica,sans-Serif" font-size="10.00">optional</text>
</a>
</g>
</g>
<!-- Node15&#45;&gt;Node16 -->
<g id="edge17" class="edge">
<title>Node15&#45;&gt;Node16</title>
<path fill="none" stroke="midnightblue" d="M499.11,-190.4C478.35,-179.24 449.57,-163.78 429.19,-152.83"/>
<polygon fill="midnightblue" stroke="midnightblue" points="430.67,-149.66 420.21,-148.01 427.36,-155.82 430.67,-149.66"/>
</g>
<!-- Node17 -->
<g id="node17" class="node">
<title>Node17</title>
<g id="a_node17"><a xlink:href="_simple_subscriber_8h.html" target="_top" xlink:title=" ">
<polygon fill="none" stroke="black" points="536.87,-56.5 536.87,-86.5 649.87,-86.5 649.87,-56.5 536.87,-56.5"/>
<text text-anchor="start" x="544.87" y="-74.5" font-family="Helvetica,sans-Serif" font-size="10.00">../../core&#45;lib/include</text>
<text text-anchor="middle" x="593.37" y="-63.5" font-family="Helvetica,sans-Serif" font-size="10.00">/SimpleSubscriber.h</text>
</a>
</g>
</g>
<!-- Node15&#45;&gt;Node17 -->
<g id="edge18" class="edge">
<title>Node15&#45;&gt;Node17</title>
<path fill="none" stroke="midnightblue" d="M529.19,-190.41C534.01,-173.73 543.18,-145.38 555.37,-123 560.72,-113.17 567.84,-103.16 574.47,-94.67"/>
<polygon fill="midnightblue" stroke="midnightblue" points="577.31,-96.73 580.85,-86.75 571.86,-92.34 577.31,-96.73"/>
</g>
<!-- Node18 -->
<g id="node18" class="node">
<title>Node18</title>
<g id="a_node18"><a xlink:href="_bot_8h.html" target="_top" xlink:title=" ">
<polygon fill="none" stroke="black" points="564.37,-123.5 564.37,-153.5 668.37,-153.5 668.37,-123.5 564.37,-123.5"/>
<text text-anchor="start" x="572.37" y="-141.5" font-family="Helvetica,sans-Serif" font-size="10.00">../../bot&#45;lib/include</text>
<text text-anchor="middle" x="616.37" y="-130.5" font-family="Helvetica,sans-Serif" font-size="10.00">/Bot.h</text>
</a>
</g>
</g>
<!-- Node15&#45;&gt;Node18 -->
<g id="edge22" class="edge">
<title>Node15&#45;&gt;Node18</title>
<path fill="none" stroke="midnightblue" d="M545.12,-190.4C557.76,-181.37 574.35,-169.51 588.34,-159.52"/>
<polygon fill="midnightblue" stroke="midnightblue" points="590.56,-162.24 596.66,-153.58 586.49,-156.54 590.56,-162.24"/>
</g>
<!-- Node17&#45;&gt;Node8 -->
<g id="edge19" class="edge">
<title>Node17&#45;&gt;Node8</title>
<path fill="none" stroke="midnightblue" d="M650.2,-57.76C653.3,-57.14 656.37,-56.55 659.37,-56 756.02,-38.18 871.13,-22.5 926.85,-15.26"/>
<polygon fill="midnightblue" stroke="midnightblue" points="927.39,-18.71 936.86,-13.96 926.5,-11.77 927.39,-18.71"/>
</g>
<!-- Node17&#45;&gt;Node9 -->
<g id="edge20" class="edge">
<title>Node17&#45;&gt;Node9</title>
<path fill="none" stroke="midnightblue" d="M536.84,-58.66C531.95,-57.73 527.08,-56.83 522.37,-56 426.52,-39.2 313.07,-23.7 254.59,-16.03"/>
<polygon fill="midnightblue" stroke="midnightblue" points="255.03,-12.56 244.66,-14.74 254.13,-19.5 255.03,-12.56"/>
</g>
<!-- Node18&#45;&gt;Node11 -->
<g id="edge23" class="edge">
<title>Node18&#45;&gt;Node11</title>
<path fill="none" stroke="midnightblue" d="M639.59,-123.4C654.73,-114.2 674.7,-102.07 691.34,-91.95"/>
<polygon fill="midnightblue" stroke="midnightblue" points="693.47,-94.76 700.2,-86.58 689.83,-88.78 693.47,-94.76"/>
</g>
<!-- Node18&#45;&gt;Node17 -->
<g id="edge24" class="edge">
<title>Node18&#45;&gt;Node17</title>
<path fill="none" stroke="midnightblue" d="M611.38,-123.4C608.58,-115.47 605,-105.38 601.78,-96.27"/>
<polygon fill="midnightblue" stroke="midnightblue" points="604.99,-94.84 598.35,-86.58 598.39,-97.17 604.99,-94.84"/>
</g>
<!-- Node19&#45;&gt;Node11 -->
<g id="edge30" class="edge">
<title>Node19&#45;&gt;Node11</title>
<path fill="none" stroke="midnightblue" d="M805.59,-123.4C790.73,-114.2 771.13,-102.07 754.8,-91.95"/>
<polygon fill="midnightblue" stroke="midnightblue" points="756.45,-88.86 746.11,-86.58 752.77,-94.82 756.45,-88.86"/>
</g>
<!-- Node20 -->
<g id="node20" class="node">
<title>Node20</title>
<g id="a_node20"><a xlink:href="_simple_publisher_8h.html" target="_top" xlink:title=" ">
<polygon fill="none" stroke="black" points="796.37,-56.5 796.37,-86.5 906.37,-86.5 906.37,-56.5 796.37,-56.5"/>
<text text-anchor="start" x="804.37" y="-74.5" font-family="Helvetica,sans-Serif" font-size="10.00">../../core&#45;lib/include</text>
<text text-anchor="middle" x="851.37" y="-63.5" font-family="Helvetica,sans-Serif" font-size="10.00">/SimplePublisher.h</text>
</a>
</g>
</g>
<!-- Node19&#45;&gt;Node20 -->
<g id="edge27" class="edge">
<title>Node19&#45;&gt;Node20</title>
<path fill="none" stroke="midnightblue" d="M833.36,-123.4C836.16,-115.47 839.74,-105.38 842.96,-96.27"/>
<polygon fill="midnightblue" stroke="midnightblue" points="846.35,-97.17 846.39,-86.58 839.75,-94.84 846.35,-97.17"/>
</g>
<!-- Node20&#45;&gt;Node8 -->
<g id="edge29" class="edge">
<title>Node20&#45;&gt;Node8</title>
<path fill="none" stroke="midnightblue" d="M877.2,-56.4C894.84,-46.77 918.07,-34.09 935.5,-24.58"/>
<polygon fill="midnightblue" stroke="midnightblue" points="937.41,-27.52 944.51,-19.66 934.05,-21.38 937.41,-27.52"/>
</g>
<!-- Node20&#45;&gt;Node9 -->
<g id="edge28" class="edge">
<title>Node20&#45;&gt;Node9</title>
<path fill="none" stroke="midnightblue" d="M796.31,-57.49C793.29,-56.95 790.3,-56.44 787.37,-56 588.47,-25.81 347.38,-15.25 254.48,-12.13"/>
<polygon fill="midnightblue" stroke="midnightblue" points="254.51,-8.63 244.41,-11.81 254.29,-15.63 254.51,-8.63"/>
</g>
<!-- Node21&#45;&gt;Node9 -->
<g id="edge32" class="edge">
<title>Node21&#45;&gt;Node9</title>
<path fill="none" stroke="midnightblue" d="M317.19,-560.75C313.88,-560.13 310.58,-559.54 307.37,-559 243.99,-548.29 68.86,-565.2 20.37,-523 -4.11,-501.7 1.37,-484.95 1.37,-452.5 1.37,-452.5 1.37,-452.5 1.37,-137.5 1.37,-94.77 18.11,-81.54 52.37,-56 88.79,-28.85 140.73,-18.08 176.12,-13.81"/>
<polygon fill="midnightblue" stroke="midnightblue" points="176.53,-17.29 186.09,-12.73 175.77,-10.33 176.53,-17.29"/>
</g>
<!-- Node22 -->
<g id="node22" class="node">
<title>Node22</title>
<g id="a_node22"><a xlink:href="_active_event_handler_8h.html" target="_top" xlink:title=" ">
<polygon fill="none" stroke="black" points="452.37,-503.5 452.37,-522.5 574.37,-522.5 574.37,-503.5 452.37,-503.5"/>
<text text-anchor="middle" x="513.37" y="-510.5" font-family="Helvetica,sans-Serif" font-size="10.00">ActiveEventHandler.h</text>
</a>
</g>
</g>
<!-- Node21&#45;&gt;Node22 -->
<g id="edge33" class="edge">
<title>Node21&#45;&gt;Node22</title>
<path fill="none" stroke="midnightblue" d="M408.07,-559.4C431.12,-549.46 461.73,-536.26 484,-526.66"/>
<polygon fill="midnightblue" stroke="midnightblue" points="485.49,-529.83 493.29,-522.66 482.72,-523.4 485.49,-529.83"/>
</g>
<!-- Node33 -->
<g id="node33" class="node">
<title>Node33</title>
<g id="a_node33"><a xlink:href="_menu_event_handler_8h.html" target="_top" xlink:title=" ">
<polygon fill="none" stroke="black" points="316.37,-503.5 316.37,-522.5 434.37,-522.5 434.37,-503.5 316.37,-503.5"/>
<text text-anchor="middle" x="375.37" y="-510.5" font-family="Helvetica,sans-Serif" font-size="10.00">MenuEventHandler.h</text>
</a>
</g>
</g>
<!-- Node21&#45;&gt;Node33 -->
<g id="edge62" class="edge">
<title>Node21&#45;&gt;Node33</title>
<path fill="none" stroke="midnightblue" d="M369.53,-559.4C368.5,-551.38 368.34,-541.23 369.06,-532.57"/>
<polygon fill="midnightblue" stroke="midnightblue" points="372.53,-533.04 370.44,-522.66 365.6,-532.08 372.53,-533.04"/>
</g>
<!-- Node34 -->
<g id="node34" class="node">
<title>Node34</title>
<g id="a_node34"><a xlink:href="_pause_event_handler_8h.html" target="_top" xlink:title=" ">
<polygon fill="none" stroke="black" points="29.87,-503.5 29.87,-522.5 148.87,-522.5 148.87,-503.5 29.87,-503.5"/>
<text text-anchor="middle" x="89.37" y="-510.5" font-family="Helvetica,sans-Serif" font-size="10.00">PauseEventHandler.h</text>
</a>
</g>
</g>
<!-- Node21&#45;&gt;Node34 -->
<g id="edge66" class="edge">
<title>Node21&#45;&gt;Node34</title>
<path fill="none" stroke="midnightblue" d="M317.05,-562.93C310.72,-561.6 304.39,-560.26 298.37,-559 241.77,-547.12 176.84,-533.75 134.46,-524.7"/>
<polygon fill="midnightblue" stroke="midnightblue" points="134.97,-521.22 124.46,-522.55 133.5,-528.07 134.97,-521.22"/>
</g>
<!-- Node35 -->
<g id="node35" class="node">
<title>Node35</title>
<g id="a_node35"><a xlink:href="_finished_event_handler_8h.html" target="_top" xlink:title=" ">
<polygon fill="none" stroke="black" points="166.87,-503.5 166.87,-522.5 297.87,-522.5 297.87,-503.5 166.87,-503.5"/>
<text text-anchor="middle" x="232.37" y="-510.5" font-family="Helvetica,sans-Serif" font-size="10.00">FinishedEventHandler.h</text>
</a>
</g>
</g>
<!-- Node21&#45;&gt;Node35 -->
<g id="edge70" class="edge">
<title>Node21&#45;&gt;Node35</title>
<path fill="none" stroke="midnightblue" d="M341.48,-559.4C317.49,-549.42 285.6,-536.15 262.49,-526.53"/>
<polygon fill="midnightblue" stroke="midnightblue" points="263.75,-523.27 253.18,-522.66 261.07,-529.73 263.75,-523.27"/>
</g>
<!-- Node22&#45;&gt;Node9 -->
<g id="edge34" class="edge">
<title>Node22&#45;&gt;Node9</title>
<path fill="none" stroke="midnightblue" d="M493.8,-503.48C458.44,-487.36 383,-449.53 333.37,-400 246.99,-313.79 229.08,-274.75 211.37,-154 204.91,-109.92 209.46,-57.41 212.77,-29.92"/>
<polygon fill="midnightblue" stroke="midnightblue" points="216.27,-30.13 214.08,-19.77 209.33,-29.24 216.27,-30.13"/>
</g>
<!-- Node23 -->
<g id="node23" class="node">
<title>Node23</title>
<g id="a_node23"><a xlink:href="_event_handler_8h.html" target="_top" xlink:title=" ">
<polygon fill="none" stroke="black" points="176.37,-436.5 176.37,-466.5 286.37,-466.5 286.37,-436.5 176.37,-436.5"/>
<text text-anchor="start" x="184.37" y="-454.5" font-family="Helvetica,sans-Serif" font-size="10.00">../../core&#45;lib/include</text>
<text text-anchor="middle" x="231.37" y="-443.5" font-family="Helvetica,sans-Serif" font-size="10.00">/EventHandler.h</text>
</a>
</g>
</g>
<!-- Node22&#45;&gt;Node23 -->
<g id="edge35" class="edge">
<title>Node22&#45;&gt;Node23</title>
<path fill="none" stroke="midnightblue" d="M472.97,-503.48C426.87,-493.75 350.85,-477.71 296.39,-466.22"/>
<polygon fill="midnightblue" stroke="midnightblue" points="296.99,-462.77 286.48,-464.13 295.55,-469.62 296.99,-462.77"/>
</g>
<!-- Node31 -->
<g id="node31" class="node">
<title>Node31</title>
<g id="a_node31"><a xlink:href="_event_queue_8h.html" target="_top" xlink:title=" ">
<polygon fill="none" stroke="black" points="503.37,-257.5 503.37,-287.5 613.37,-287.5 613.37,-257.5 503.37,-257.5"/>
<text text-anchor="start" x="511.37" y="-275.5" font-family="Helvetica,sans-Serif" font-size="10.00">../../core&#45;lib/include</text>
<text text-anchor="middle" x="558.37" y="-264.5" font-family="Helvetica,sans-Serif" font-size="10.00">/EventQueue.h</text>
</a>
</g>
</g>
<!-- Node22&#45;&gt;Node31 -->
<g id="edge55" class="edge">
<title>Node22&#45;&gt;Node31</title>
<path fill="none" stroke="midnightblue" d="M517.75,-503.19C529.64,-478.71 562.38,-407.47 573.37,-344 576.08,-328.38 572.43,-310.95 568.05,-297.33"/>
<polygon fill="midnightblue" stroke="midnightblue" points="571.3,-296.01 564.66,-287.75 564.7,-298.35 571.3,-296.01"/>
</g>
<!-- Node32 -->
<g id="node32" class="node">
<title>Node32</title>
<g id="a_node32"><a xlink:href="_game_statistics_8h.html" target="_top" xlink:title=" ">
<polygon fill="none" stroke="black" points="464.37,-324.5 464.37,-343.5 564.37,-343.5 564.37,-324.5 464.37,-324.5"/>
<text text-anchor="middle" x="514.37" y="-331.5" font-family="Helvetica,sans-Serif" font-size="10.00">GameStatistics.h</text>
</a>
</g>
</g>
<!-- Node22&#45;&gt;Node32 -->
<g id="edge58" class="edge">
<title>Node22&#45;&gt;Node32</title>
<path fill="none" stroke="midnightblue" d="M513.42,-503.46C513.57,-476.43 514.05,-392.24 514.26,-354.11"/>
<polygon fill="midnightblue" stroke="midnightblue" points="517.76,-353.89 514.32,-343.87 510.76,-353.85 517.76,-353.89"/>
</g>
<!-- Node23&#45;&gt;Node9 -->
<g id="edge36" class="edge">
<title>Node23&#45;&gt;Node9</title>
<path fill="none" stroke="midnightblue" d="M214.8,-436.29C193.27,-416.13 158.37,-376.99 158.37,-335 158.37,-335 158.37,-335 158.37,-137.5 158.37,-99.74 165.62,-89.84 182.37,-56 187.36,-45.93 194.6,-35.74 201.03,-27.61"/>
<polygon fill="midnightblue" stroke="midnightblue" points="203.89,-29.65 207.55,-19.7 198.49,-25.2 203.89,-29.65"/>
</g>
<!-- Node24 -->
<g id="node24" class="node">
<title>Node24</title>
<g id="a_node24"><a xlink:href="_event_8h.html" target="_top" xlink:title=" ">
<polygon fill="none" stroke="black" points="373.87,-263 373.87,-282 426.87,-282 426.87,-263 373.87,-263"/>
<text text-anchor="middle" x="400.37" y="-270" font-family="Helvetica,sans-Serif" font-size="10.00">Event.h</text>
</a>
</g>
</g>
<!-- Node23&#45;&gt;Node24 -->
<g id="edge37" class="edge">
<title>Node23&#45;&gt;Node24</title>
<path fill="none" stroke="midnightblue" d="M239.77,-436.41C254.95,-411.72 288.84,-359.86 326.37,-324 341.36,-309.67 360.81,-296.57 376.01,-287.3"/>
<polygon fill="midnightblue" stroke="midnightblue" points="378.03,-290.17 384.84,-282.05 374.46,-284.15 378.03,-290.17"/>
</g>
<!-- Node27 -->
<g id="node27" class="node">
<title>Node27</title>
<g id="a_node27"><a xlink:href="_event_publisher_8h.html" target="_top" xlink:title=" ">
<polygon fill="none" stroke="black" points="342.37,-380.5 342.37,-399.5 440.37,-399.5 440.37,-380.5 342.37,-380.5"/>
<text text-anchor="middle" x="391.37" y="-387.5" font-family="Helvetica,sans-Serif" font-size="10.00">EventPublisher.h</text>
</a>
</g>
</g>
<!-- Node23&#45;&gt;Node27 -->
<g id="edge46" class="edge">
<title>Node23&#45;&gt;Node27</title>
<path fill="none" stroke="midnightblue" d="M269.29,-436.4C296.49,-426.28 332.77,-412.79 358.7,-403.15"/>
<polygon fill="midnightblue" stroke="midnightblue" points="359.94,-406.42 368.09,-399.66 357.5,-399.86 359.94,-406.42"/>
</g>
<!-- Node24&#45;&gt;Node7 -->
<g id="edge42" class="edge">
<title>Node24&#45;&gt;Node7</title>
<path fill="none" stroke="midnightblue" d="M419.79,-262.99C425.66,-260.71 432.19,-258.48 438.37,-257 585.28,-221.78 629.31,-255.59 776.37,-221 779.44,-220.28 782.59,-219.38 785.71,-218.39"/>
<polygon fill="midnightblue" stroke="midnightblue" points="787.13,-221.6 795.42,-215.01 784.83,-214.99 787.13,-221.6"/>
</g>
<!-- Node24&#45;&gt;Node9 -->
<g id="edge40" class="edge">
<title>Node24&#45;&gt;Node9</title>
<path fill="none" stroke="midnightblue" d="M373.69,-265.74C335.81,-257 269.23,-239.48 253.37,-221 205.6,-165.36 208.98,-70.23 212.97,-29.93"/>
<polygon fill="midnightblue" stroke="midnightblue" points="216.46,-30.22 214.1,-19.89 209.51,-29.44 216.46,-30.22"/>
</g>
<!-- Node24&#45;&gt;Node11 -->
<g id="edge44" class="edge">
<title>Node24&#45;&gt;Node11</title>
<path fill="none" stroke="midnightblue" d="M421.5,-262.88C426.95,-260.81 432.84,-258.71 438.37,-257 504.29,-236.66 527.33,-251.18 589.37,-221 609.28,-211.31 609.6,-201.75 628.37,-190 659.71,-170.37 680.06,-182.7 703.37,-154 716.45,-137.89 721.17,-114.48 722.78,-96.87"/>
<polygon fill="midnightblue" stroke="midnightblue" points="726.28,-96.99 723.42,-86.78 719.29,-96.54 726.28,-96.99"/>
</g>
<!-- Node24&#45;&gt;Node13 -->
<g id="edge38" class="edge">
<title>Node24&#45;&gt;Node13</title>
<path fill="none" stroke="midnightblue" d="M421.06,-262.87C426.62,-260.76 432.67,-258.63 438.37,-257 518.48,-234.06 541.55,-241.31 622.37,-221 625.98,-220.09 629.72,-219.08 633.44,-218.01"/>
<polygon fill="midnightblue" stroke="midnightblue" points="634.57,-221.33 643.16,-215.12 632.58,-214.62 634.57,-221.33"/>
</g>
<!-- Node24&#45;&gt;Node15 -->
<g id="edge45" class="edge">
<title>Node24&#45;&gt;Node15</title>
<path fill="none" stroke="midnightblue" d="M416.97,-262.87C435.26,-253.36 465.24,-237.77 489.05,-225.39"/>
<polygon fill="midnightblue" stroke="midnightblue" points="490.9,-228.37 498.16,-220.65 487.67,-222.16 490.9,-228.37"/>
</g>
<!-- Node24&#45;&gt;Node16 -->
<g id="edge43" class="edge">
<title>Node24&#45;&gt;Node16</title>
<path fill="none" stroke="midnightblue" d="M400.63,-262.84C401.27,-241.67 402.93,-186.95 403.81,-158.03"/>
<polygon fill="midnightblue" stroke="midnightblue" points="407.31,-158.12 404.11,-148.02 400.31,-157.91 407.31,-158.12"/>
</g>
<!-- Node25 -->
<g id="node25" class="node">
<title>Node25</title>
<g id="a_node25"><a xlink:title=" ">
<polygon fill="none" stroke="#bfbfbf" points="262.37,-196 262.37,-215 306.37,-215 306.37,-196 262.37,-196"/>
<text text-anchor="middle" x="284.37" y="-203" font-family="Helvetica,sans-Serif" font-size="10.00">string</text>
</a>
</g>
</g>
<!-- Node24&#45;&gt;Node25 -->
<g id="edge39" class="edge">
<title>Node24&#45;&gt;Node25</title>
<path fill="none" stroke="midnightblue" d="M384.73,-262.73C365.16,-251.77 331.45,-232.88 308.55,-220.05"/>
<polygon fill="midnightblue" stroke="midnightblue" points="310.2,-216.96 299.77,-215.13 306.78,-223.07 310.2,-216.96"/>
</g>
<!-- Node26 -->
<g id="node26" class="node">
<title>Node26</title>
<g id="a_node26"><a xlink:title=" ">
<polygon fill="none" stroke="#bfbfbf" points="324.87,-196 324.87,-215 375.87,-215 375.87,-196 324.87,-196"/>
<text text-anchor="middle" x="350.37" y="-203" font-family="Helvetica,sans-Serif" font-size="10.00">variant</text>
</a>
</g>
</g>
<!-- Node24&#45;&gt;Node26 -->
<g id="edge41" class="edge">
<title>Node24&#45;&gt;Node26</title>
<path fill="none" stroke="midnightblue" d="M393.63,-262.73C385.83,-252.6 372.82,-235.69 363.1,-223.06"/>
<polygon fill="midnightblue" stroke="midnightblue" points="365.88,-220.92 357.01,-215.13 360.33,-225.19 365.88,-220.92"/>
</g>
<!-- Node27&#45;&gt;Node8 -->
<g id="edge48" class="edge">
<title>Node27&#45;&gt;Node8</title>
<path fill="none" stroke="midnightblue" d="M440.59,-385.48C589.55,-373.5 1025.37,-328.05 1025.37,-206.5 1025.37,-206.5 1025.37,-206.5 1025.37,-137.5 1025.37,-93.93 994.49,-50.32 975.3,-27.43"/>
<polygon fill="midnightblue" stroke="midnightblue" points="977.8,-24.97 968.6,-19.71 972.51,-29.56 977.8,-24.97"/>
</g>
<!-- Node27&#45;&gt;Node24 -->
<g id="edge49" class="edge">
<title>Node27&#45;&gt;Node24</title>
<path fill="none" stroke="midnightblue" d="M373.35,-380.32C352.29,-368.87 321.7,-347.42 333.37,-324 341.42,-307.85 357.37,-295.51 371.68,-287.07"/>
<polygon fill="midnightblue" stroke="midnightblue" points="373.67,-289.97 380.75,-282.08 370.3,-283.83 373.67,-289.97"/>
</g>
<!-- Node28 -->
<g id="node28" class="node">
<title>Node28</title>
<g id="a_node28"><a xlink:title=" ">
<polygon fill="none" stroke="#bfbfbf" points="272.37,-263 272.37,-282 310.37,-282 310.37,-263 272.37,-263"/>
<text text-anchor="middle" x="291.37" y="-270" font-family="Helvetica,sans-Serif" font-size="10.00">map</text>
</a>
</g>
</g>
<!-- Node27&#45;&gt;Node28 -->
<g id="edge47" class="edge">
<title>Node27&#45;&gt;Node28</title>
<path fill="none" stroke="midnightblue" d="M374.38,-380.41C360.11,-372.52 339.93,-359.68 326.37,-344 312.99,-328.53 303.29,-307.05 297.54,-291.88"/>
<polygon fill="midnightblue" stroke="midnightblue" points="300.72,-290.36 294.06,-282.12 294.13,-292.71 300.72,-290.36"/>
</g>
<!-- Node29 -->
<g id="node29" class="node">
<title>Node29</title>
<g id="a_node29"><a xlink:href="_event_subscriber_8h.html" target="_top" xlink:title=" ">
<polygon fill="none" stroke="black" points="342.37,-324.5 342.37,-343.5 446.37,-343.5 446.37,-324.5 342.37,-324.5"/>
<text text-anchor="middle" x="394.37" y="-331.5" font-family="Helvetica,sans-Serif" font-size="10.00">EventSubscriber.h</text>
</a>
</g>
</g>
<!-- Node27&#45;&gt;Node29 -->
<g id="edge50" class="edge">
<title>Node27&#45;&gt;Node29</title>
<path fill="none" stroke="midnightblue" d="M391.87,-380.08C392.26,-373.01 392.82,-362.86 393.31,-353.99"/>
<polygon fill="midnightblue" stroke="midnightblue" points="396.82,-353.93 393.88,-343.75 389.83,-353.54 396.82,-353.93"/>
</g>
<!-- Node29&#45;&gt;Node8 -->
<g id="edge52" class="edge">
<title>Node29&#45;&gt;Node8</title>
<path fill="none" stroke="midnightblue" d="M446.59,-325.15C449.56,-324.75 452.5,-324.36 455.37,-324 575.49,-308.84 987.37,-327.57 987.37,-206.5 987.37,-206.5 987.37,-206.5 987.37,-137.5 987.37,-98.36 974.85,-53.87 966.86,-29.47"/>
<polygon fill="midnightblue" stroke="midnightblue" points="970.1,-28.1 963.57,-19.76 963.47,-30.35 970.1,-28.1"/>
</g>
<!-- Node29&#45;&gt;Node24 -->
<g id="edge54" class="edge">
<title>Node29&#45;&gt;Node24</title>
<path fill="none" stroke="midnightblue" d="M395.23,-324.48C396.08,-316.08 397.4,-302.98 398.49,-292.16"/>
<polygon fill="midnightblue" stroke="midnightblue" points="401.99,-292.31 399.51,-282.01 395.03,-291.61 401.99,-292.31"/>
</g>
<!-- Node29&#45;&gt;Node28 -->
<g id="edge51" class="edge">
<title>Node29&#45;&gt;Node28</title>
<path fill="none" stroke="midnightblue" d="M379.61,-324.48C362.71,-314.71 334.79,-298.58 314.88,-287.08"/>
<polygon fill="midnightblue" stroke="midnightblue" points="316.51,-283.98 306.1,-282.01 313.01,-290.04 316.51,-283.98"/>
</g>
<!-- Node30 -->
<g id="node30" class="node">
<title>Node30</title>
<g id="a_node30"><a xlink:title=" ">
<polygon fill="none" stroke="#bfbfbf" points="447.37,-263 447.37,-282 479.37,-282 479.37,-263 447.37,-263"/>
<text text-anchor="middle" x="463.37" y="-270" font-family="Helvetica,sans-Serif" font-size="10.00">list</text>
</a>
</g>
</g>
<!-- Node29&#45;&gt;Node30 -->
<g id="edge53" class="edge">
<title>Node29&#45;&gt;Node30</title>
<path fill="none" stroke="midnightblue" d="M404.26,-324.48C415.02,-315.2 432.44,-300.17 445.59,-288.83"/>
<polygon fill="midnightblue" stroke="midnightblue" points="448.21,-291.19 453.5,-282.01 443.64,-285.89 448.21,-291.19"/>
</g>
<!-- Node31&#45;&gt;Node9 -->
<g id="edge57" class="edge">
<title>Node31&#45;&gt;Node9</title>
<path fill="none" stroke="midnightblue" d="M528.49,-257.29C509.01,-247.7 483.23,-234.39 461.37,-221 417.62,-194.2 407.03,-186.54 367.37,-154 314.85,-110.91 257.73,-54.23 230.92,-26.98"/>
<polygon fill="midnightblue" stroke="midnightblue" points="233.39,-24.51 223.9,-19.82 228.39,-29.41 233.39,-24.51"/>
</g>
<!-- Node31&#45;&gt;Node14 -->
<g id="edge56" class="edge">
<title>Node31&#45;&gt;Node14</title>
<path fill="none" stroke="midnightblue" d="M605.36,-257.42C635.87,-247.92 676.32,-234.68 711.37,-221 712.79,-220.45 714.24,-219.86 715.7,-219.26"/>
<polygon fill="midnightblue" stroke="midnightblue" points="717.45,-222.31 725.24,-215.12 714.67,-215.89 717.45,-222.31"/>
</g>
<!-- Node32&#45;&gt;Node24 -->
<g id="edge61" class="edge">
<title>Node32&#45;&gt;Node24</title>
<path fill="none" stroke="midnightblue" d="M498.04,-324.48C479.16,-314.62 447.86,-298.29 425.79,-286.77"/>
<polygon fill="midnightblue" stroke="midnightblue" points="427.16,-283.53 416.67,-282.01 423.92,-289.74 427.16,-283.53"/>
</g>
<!-- Node32&#45;&gt;Node30 -->
<g id="edge59" class="edge">
<title>Node32&#45;&gt;Node30</title>
<path fill="none" stroke="midnightblue" d="M507.06,-324.48C499.34,-315.46 486.96,-301.02 477.35,-289.81"/>
<polygon fill="midnightblue" stroke="midnightblue" points="479.83,-287.32 470.66,-282.01 474.51,-291.88 479.83,-287.32"/>
</g>
<!-- Node32&#45;&gt;Node31 -->
<g id="edge60" class="edge">
<title>Node32&#45;&gt;Node31</title>
<path fill="none" stroke="midnightblue" d="M520.67,-324.48C526.24,-316.94 534.61,-305.63 542.05,-295.57"/>
<polygon fill="midnightblue" stroke="midnightblue" points="544.87,-297.64 548,-287.52 539.24,-293.48 544.87,-297.64"/>
</g>
<!-- Node33&#45;&gt;Node9 -->
<g id="edge63" class="edge">
<title>Node33&#45;&gt;Node9</title>
<path fill="none" stroke="midnightblue" d="M316.23,-504.45C263.46,-496.78 190.98,-483.68 167.37,-467 134.93,-444.09 120.37,-430.72 120.37,-391 120.37,-391 120.37,-391 120.37,-137.5 120.37,-88.93 165.71,-47.09 193.75,-25.87"/>
<polygon fill="midnightblue" stroke="midnightblue" points="196.15,-28.44 202.16,-19.72 192.02,-22.79 196.15,-28.44"/>
</g>
<!-- Node33&#45;&gt;Node21 -->
<g id="edge65" class="edge">
<title>Node33&#45;&gt;Node21</title>
<path fill="none" stroke="midnightblue" d="M380.3,-522.66C381.8,-529.65 382.38,-539.86 382.01,-549.29"/>
<polygon fill="midnightblue" stroke="midnightblue" points="378.51,-549.15 381.21,-559.4 385.49,-549.71 378.51,-549.15"/>
</g>
<!-- Node33&#45;&gt;Node23 -->
<g id="edge64" class="edge">
<title>Node33&#45;&gt;Node23</title>
<path fill="none" stroke="midnightblue" d="M354.74,-503.48C333.96,-494.89 301.27,-481.38 274.76,-470.43"/>
<polygon fill="midnightblue" stroke="midnightblue" points="275.89,-467.11 265.31,-466.52 273.21,-473.58 275.89,-467.11"/>
</g>
<!-- Node34&#45;&gt;Node9 -->
<g id="edge67" class="edge">
<title>Node34&#45;&gt;Node9</title>
<path fill="none" stroke="midnightblue" d="M83.67,-503.31C71.56,-483.98 44.37,-435.6 44.37,-391 44.37,-391 44.37,-391 44.37,-137.5 44.37,-97.34 53.35,-82.67 83.37,-56 109.32,-32.94 147.61,-21.59 176.28,-16.07"/>
<polygon fill="midnightblue" stroke="midnightblue" points="177.13,-19.48 186.37,-14.29 175.91,-12.59 177.13,-19.48"/>
</g>
<!-- Node34&#45;&gt;Node21 -->
<g id="edge69" class="edge">
<title>Node34&#45;&gt;Node21</title>
<path fill="none" stroke="midnightblue" d="M137.9,-522.55C181.64,-531.06 247.68,-544.62 308.42,-557.33"/>
<polygon fill="midnightblue" stroke="midnightblue" points="308,-560.82 318.51,-559.45 309.44,-553.97 308,-560.82"/>
</g>
<!-- Node34&#45;&gt;Node23 -->
<g id="edge68" class="edge">
<title>Node34&#45;&gt;Node23</title>
<path fill="none" stroke="midnightblue" d="M109.71,-503.48C130.2,-494.89 162.44,-481.38 188.58,-470.43"/>
<polygon fill="midnightblue" stroke="midnightblue" points="190.03,-473.62 197.9,-466.52 187.33,-467.16 190.03,-473.62"/>
</g>
<!-- Node35&#45;&gt;Node9 -->
<g id="edge71" class="edge">
<title>Node35&#45;&gt;Node9</title>
<path fill="none" stroke="midnightblue" d="M176.03,-503.42C151.74,-497.08 124.74,-486.07 106.37,-467 81.79,-441.49 82.37,-426.42 82.37,-391 82.37,-391 82.37,-391 82.37,-137.5 82.37,-99.74 81.11,-84.07 106.37,-56 124.5,-35.85 153.04,-24.51 176.36,-18.25"/>
<polygon fill="midnightblue" stroke="midnightblue" points="177.45,-21.59 186.33,-15.79 175.78,-14.79 177.45,-21.59"/>
</g>
<!-- Node35&#45;&gt;Node23 -->
<g id="edge72" class="edge">
<title>Node35&#45;&gt;Node23</title>
<path fill="none" stroke="midnightblue" d="M232.23,-503.48C232.11,-496.47 231.94,-486.19 231.78,-476.7"/>
<polygon fill="midnightblue" stroke="midnightblue" points="235.27,-476.46 231.61,-466.52 228.27,-476.58 235.27,-476.46"/>
</g>
<!-- Node36&#45;&gt;Node2 -->
<g id="edge76" class="edge">
<title>Node36&#45;&gt;Node2</title>
<path fill="none" stroke="midnightblue" d="M758.62,-749.4C745.98,-740.37 729.39,-728.51 715.4,-718.52"/>
<polygon fill="midnightblue" stroke="midnightblue" points="717.25,-715.54 707.08,-712.58 713.18,-721.24 717.25,-715.54"/>
</g>
<!-- Node36&#45;&gt;Node3 -->
<g id="edge77" class="edge">
<title>Node36&#45;&gt;Node3</title>
<path fill="none" stroke="midnightblue" d="M774.78,-749.43C770.42,-733 762.5,-705.13 753.37,-682 749.74,-672.8 744.99,-662.89 740.83,-654.72"/>
<polygon fill="midnightblue" stroke="midnightblue" points="743.9,-653.03 736.17,-645.78 737.69,-656.26 743.9,-653.03"/>
</g>
<!-- Node36&#45;&gt;Node4 -->
<g id="edge75" class="edge">
<title>Node36&#45;&gt;Node4</title>
<path fill="none" stroke="midnightblue" d="M846.94,-750.41C939.88,-730.66 1094.37,-689.89 1094.37,-637 1094.37,-637 1094.37,-637 1094.37,-389 1094.37,-354.71 1099.23,-314.95 1102.49,-292.16"/>
<polygon fill="midnightblue" stroke="midnightblue" points="1105.97,-292.57 1103.98,-282.17 1099.05,-291.54 1105.97,-292.57"/>
</g>
</g>
</svg>
        <g id="navigator" transform="translate(0 0)" fill="#404254">
                <rect fill="#f2f5e9" fill-opacity="0.5" stroke="#606060" stroke-width=".5" x="0" y="0" width="60" height="60"/>
                <use id="zoomplus" xlink:href="#zoomPlus" x="17" y="9" onmousedown="handleZoom(evt,'in')"/>
                <use id="zoomminus" xlink:href="#zoomMin" x="42" y="9" onmousedown="handleZoom(evt,'out')"/>
                <use id="reset" xlink:href="#resetDef" x="30" y="36" onmousedown="handleReset()"/>
                <g id="arrowUp" xlink:href="#dirArrow" transform="translate(30 24)" onmousedown="handlePan(0,-1)">
                  <use xlink:href="#rim" fill="#404040">
                        <set attributeName="fill" to="#808080" begin="arrowUp.mouseover" end="arrowUp.mouseout"/>
                  </use>
                  <path fill="none" stroke="white" stroke-width="1.5" d="M0,-3.0v7 M-2.5,-0.5L0,-3.0L2.5,-0.5"/>
                </g>
                <g id="arrowRight" xlink:href="#dirArrow" transform="rotate(90) translate(36 -43)" onmousedown="handlePan(1,0)">
                  <use xlink:href="#rim" fill="#404040">
                        <set attributeName="fill" to="#808080" begin="arrowRight.mouseover" end="arrowRight.mouseout"/>
                  </use>
                  <path fill="none" stroke="white" stroke-width="1.5" d="M0,-3.0v7 M-2.5,-0.5L0,-3.0L2.5,-0.5"/>
                </g>
                <g id="arrowDown" xlink:href="#dirArrow" transform="rotate(180) translate(-30 -48)" onmousedown="handlePan(0,1)">
                  <use xlink:href="#rim" fill="#404040">
                        <set attributeName="fill" to="#808080" begin="arrowDown.mouseover" end="arrowDown.mouseout"/>
                  </use>
                  <path fill="none" stroke="white" stroke-width="1.5" d="M0,-3.0v7 M-2.5,-0.5L0,-3.0L2.5,-0.5"/>
                </g>
                <g id="arrowLeft" xlink:href="#dirArrow" transform="rotate(270) translate(-36 17)" onmousedown="handlePan(-1,0)">
                  <use xlink:href="#rim" fill="#404040">
                        <set attributeName="fill" to="#808080" begin="arrowLeft.mouseover" end="arrowLeft.mouseout"/>
                  </use>
                  <path fill="none" stroke="white" stroke-width="1.5" d="M0,-3.0v7 M-2.5,-0.5L0,-3.0L2.5,-0.5"/>
                </g>
        </g>
        <svg viewBox="0 0 15 15" width="100%" height="30px" preserveAspectRatio="xMaxYMin meet">
         <g id="arrow_out" transform="scale(0.3 0.3)">
          <a xlink:href="_static_graphic_8cpp__incl_org.svg" target="_base">
           <rect id="button" ry="5" rx="5" y="6" x="6" height="38" width="38"
                fill="#f2f5e9" fill-opacity="0.5" stroke="#606060" stroke-width="1.0"/>
           <path id="arrow"
             d="M 11.500037,31.436501 C 11.940474,20.09759 22.043105,11.32322 32.158766,21.979434 L 37.068811,17.246167 C 37.068811,17.246167 37.088388,32 37.088388,32 L 22.160133,31.978069 C 22.160133,31.978069 26.997745,27.140456 26.997745,27.140456 C 18.528582,18.264221 13.291696,25.230495 11.500037,31.436501 z"
             style="fill:#404040;"/>
          </a>
         </g>
        </svg>
</svg>
