<?xml version="1.0" encoding="UTF-8" standalone="no"?>
<!DOCTYPE svg PUBLIC "-//W3C//DTD SVG 1.1//EN"
 "http://www.w3.org/Graphics/SVG/1.1/DTD/svg11.dtd">
<!-- Generated by graphviz version 2.50.0 (0)
 -->
<!-- Title: /home/tomek/trash/battle&#45;city/src/lib/graphic&#45;lib/include/StaticStates_dir/StaticGraphic.h Pages: 1 -->
<svg width="407pt" height="228pt"
 viewBox="0.00 0.00 407.00 228.00" xmlns="http://www.w3.org/2000/svg" xmlns:xlink="http://www.w3.org/1999/xlink">
<g id="graph0" class="graph" transform="scale(1 1) rotate(0) translate(4 224)">
<title>/home/tomek/trash/battle&#45;city/src/lib/graphic&#45;lib/include/StaticStates_dir/StaticGraphic.h</title>
<!-- Node1 -->
<g id="node1" class="node">
<title>Node1</title>
<g id="a_node1"><a xlink:title=" ">
<polygon fill="#bfbfbf" stroke="black" points="159,-167.5 159,-219.5 300,-219.5 300,-167.5 159,-167.5"/>
<text text-anchor="start" x="167" y="-207.5" font-family="Helvetica,sans-Serif" font-size="10.00">/home/tomek/trash/battle</text>
<text text-anchor="start" x="167" y="-196.5" font-family="Helvetica,sans-Serif" font-size="10.00">&#45;city/src/lib/graphic&#45;lib</text>
<text text-anchor="start" x="167" y="-185.5" font-family="Helvetica,sans-Serif" font-size="10.00">/include/StaticStates_dir</text>
<text text-anchor="middle" x="229.5" y="-174.5" font-family="Helvetica,sans-Serif" font-size="10.00">/StaticGraphic.h</text>
</a>
</g>
</g>
<!-- Node2 -->
<g id="node2" class="node">
<title>Node2</title>
<g id="a_node2"><a xlink:href="_menu_state_graphic_8h.html" target="_top" xlink:title=" ">
<polygon fill="none" stroke="black" points="60,-78.5 60,-130.5 201,-130.5 201,-78.5 60,-78.5"/>
<text text-anchor="start" x="68" y="-118.5" font-family="Helvetica,sans-Serif" font-size="10.00">/home/tomek/trash/battle</text>
<text text-anchor="start" x="68" y="-107.5" font-family="Helvetica,sans-Serif" font-size="10.00">&#45;city/src/lib/graphic&#45;lib</text>
<text text-anchor="start" x="68" y="-96.5" font-family="Helvetica,sans-Serif" font-size="10.00">/include/StaticStates_dir</text>
<text text-anchor="middle" x="130.5" y="-85.5" font-family="Helvetica,sans-Serif" font-size="10.00">/MenuStateGraphic.h</text>
</a>
</g>
</g>
<!-- Node1&#45;&gt;Node2 -->
<g id="edge1" class="edge">
<title>Node1&#45;&gt;Node2</title>
<path fill="none" stroke="midnightblue" d="M193.26,-160.65C181.99,-150.75 169.74,-139.98 159.07,-130.61"/>
<polygon fill="midnightblue" stroke="midnightblue" points="191.04,-163.36 200.87,-167.34 195.66,-158.11 191.04,-163.36"/>
</g>
<!-- Node4 -->
<g id="node4" class="node">
<title>Node4</title>
<g id="a_node4"><a xlink:href="_static_graphic_8cpp.html" target="_top" xlink:title=" ">
<polygon fill="none" stroke="black" points="159,-0.5 159,-41.5 300,-41.5 300,-0.5 159,-0.5"/>
<text text-anchor="start" x="167" y="-29.5" font-family="Helvetica,sans-Serif" font-size="10.00">/home/tomek/trash/battle</text>
<text text-anchor="start" x="167" y="-18.5" font-family="Helvetica,sans-Serif" font-size="10.00">&#45;city/src/lib/graphic&#45;lib</text>
<text text-anchor="middle" x="229.5" y="-7.5" font-family="Helvetica,sans-Serif" font-size="10.00">/StaticGraphic.cpp</text>
</a>
</g>
</g>
<!-- Node1&#45;&gt;Node4 -->
<g id="edge4" class="edge">
<title>Node1&#45;&gt;Node4</title>
<path fill="none" stroke="midnightblue" d="M229.5,-157.08C229.5,-122.09 229.5,-69.84 229.5,-41.68"/>
<polygon fill="midnightblue" stroke="midnightblue" points="226,-157.34 229.5,-167.34 233,-157.34 226,-157.34"/>
</g>
<!-- Node5 -->
<g id="node5" class="node">
<title>Node5</title>
<g id="a_node5"><a xlink:href="_window_8cpp.html" target="_top" xlink:title=" ">
<polygon fill="none" stroke="black" points="258,-84 258,-125 399,-125 399,-84 258,-84"/>
<text text-anchor="start" x="266" y="-113" font-family="Helvetica,sans-Serif" font-size="10.00">/home/tomek/trash/battle</text>
<text text-anchor="start" x="266" y="-102" font-family="Helvetica,sans-Serif" font-size="10.00">&#45;city/src/lib/graphic&#45;lib</text>
<text text-anchor="middle" x="328.5" y="-91" font-family="Helvetica,sans-Serif" font-size="10.00">/Window.cpp</text>
</a>
</g>
</g>
<!-- Node1&#45;&gt;Node5 -->
<g id="edge5" class="edge">
<title>Node1&#45;&gt;Node5</title>
<path fill="none" stroke="midnightblue" d="M265.9,-160.51C279.41,-148.64 294.33,-135.53 306.22,-125.08"/>
<polygon fill="midnightblue" stroke="midnightblue" points="263.34,-158.11 258.13,-167.34 267.96,-163.36 263.34,-158.11"/>
</g>
<!-- Node3 -->
<g id="node3" class="node">
<title>Node3</title>
<g id="a_node3"><a xlink:href="_menu_state_graphic_8cpp.html" target="_top" xlink:title=" ">
<polygon fill="none" stroke="black" points="0,-0.5 0,-41.5 141,-41.5 141,-0.5 0,-0.5"/>
<text text-anchor="start" x="8" y="-29.5" font-family="Helvetica,sans-Serif" font-size="10.00">/home/tomek/trash/battle</text>
<text text-anchor="start" x="8" y="-18.5" font-family="Helvetica,sans-Serif" font-size="10.00">&#45;city/src/lib/graphic&#45;lib</text>
<text text-anchor="middle" x="70.5" y="-7.5" font-family="Helvetica,sans-Serif" font-size="10.00">/MenuStateGraphic.cpp</text>
</a>
</g>
</g>
<!-- Node2&#45;&gt;Node3 -->
<g id="edge2" class="edge">
<title>Node2&#45;&gt;Node3</title>
<path fill="none" stroke="midnightblue" d="M105.77,-69.9C98.68,-60.28 91.2,-50.11 84.95,-41.63"/>
<polygon fill="midnightblue" stroke="midnightblue" points="103.1,-72.18 111.84,-78.16 108.73,-68.03 103.1,-72.18"/>
</g>
<!-- Node2&#45;&gt;Node4 -->
<g id="edge3" class="edge">
<title>Node2&#45;&gt;Node4</title>
<path fill="none" stroke="midnightblue" d="M168.94,-71.86C181.26,-61.71 194.55,-50.77 205.53,-41.73"/>
<polygon fill="midnightblue" stroke="midnightblue" points="166.51,-69.32 161.01,-78.38 170.96,-74.73 166.51,-69.32"/>
</g>
</g>
</svg>
