<?xml version="1.0" encoding="UTF-8" standalone="no"?>
<!DOCTYPE svg PUBLIC "-//W3C//DTD SVG 1.1//EN"
 "http://www.w3.org/Graphics/SVG/1.1/DTD/svg11.dtd">
<!-- Generated by graphviz version 2.43.0 (0)
 -->
<!-- Title: /home/tomek/CLionProjects/proi/proi&#45;projekt/src/tank&#45;lib/include/Tank.h Pages: 1 -->
<svg width="1136pt" height="362pt"
 viewBox="0.00 0.00 1135.50 362.00" xmlns="http://www.w3.org/2000/svg" xmlns:xlink="http://www.w3.org/1999/xlink">
<g id="graph0" class="graph" transform="scale(1 1) rotate(0) translate(4 358)">
<title>/home/tomek/CLionProjects/proi/proi&#45;projekt/src/tank&#45;lib/include/Tank.h</title>
<!-- Node1 -->
<g id="node1" class="node">
<title>Node1</title>
<g id="a_node1"><a xlink:title=" ">
<polygon fill="#bfbfbf" stroke="black" points="275.5,-312.5 275.5,-353.5 426.5,-353.5 426.5,-312.5 275.5,-312.5"/>
<text text-anchor="start" x="283.5" y="-341.5" font-family="Helvetica,sans-Serif" font-size="10.00">/home/tomek/CLionProjects</text>
<text text-anchor="start" x="283.5" y="-330.5" font-family="Helvetica,sans-Serif" font-size="10.00">/proi/proi&#45;projekt/src</text>
<text text-anchor="middle" x="351" y="-319.5" font-family="Helvetica,sans-Serif" font-size="10.00">/tank&#45;lib/include/Tank.h</text>
</a>
</g>
</g>
<!-- Node2 -->
<g id="node2" class="node">
<title>Node2</title>
<g id="a_node2"><a xlink:href="_board_8cpp.html" target="_top" xlink:title=" ">
<polygon fill="none" stroke="black" points="58.5,-78.5 58.5,-119.5 209.5,-119.5 209.5,-78.5 58.5,-78.5"/>
<text text-anchor="start" x="66.5" y="-107.5" font-family="Helvetica,sans-Serif" font-size="10.00">/home/tomek/CLionProjects</text>
<text text-anchor="start" x="66.5" y="-96.5" font-family="Helvetica,sans-Serif" font-size="10.00">/proi/proi&#45;projekt/src</text>
<text text-anchor="middle" x="134" y="-85.5" font-family="Helvetica,sans-Serif" font-size="10.00">/board&#45;lib/Board.cpp</text>
</a>
</g>
</g>
<!-- Node1&#45;&gt;Node2 -->
<g id="edge1" class="edge">
<title>Node1&#45;&gt;Node2</title>
<path fill="none" stroke="midnightblue" d="M265.39,-318.93C235.24,-310.75 202.93,-297.49 179,-276 133.84,-235.43 131.15,-156.36 132.6,-119.63"/>
<polygon fill="midnightblue" stroke="midnightblue" points="264.54,-322.32 275.1,-321.4 266.27,-315.54 264.54,-322.32"/>
</g>
<!-- Node3 -->
<g id="node3" class="node">
<title>Node3</title>
<g id="a_node3"><a xlink:href="_board_8h.html" target="_top" xlink:title=" ">
<polygon fill="none" stroke="black" points="181.5,-156.5 181.5,-197.5 332.5,-197.5 332.5,-156.5 181.5,-156.5"/>
<text text-anchor="start" x="189.5" y="-185.5" font-family="Helvetica,sans-Serif" font-size="10.00">/home/tomek/CLionProjects</text>
<text text-anchor="start" x="189.5" y="-174.5" font-family="Helvetica,sans-Serif" font-size="10.00">/proi/proi&#45;projekt/src</text>
<text text-anchor="middle" x="257" y="-163.5" font-family="Helvetica,sans-Serif" font-size="10.00">/board&#45;lib/include/Board.h</text>
</a>
</g>
</g>
<!-- Node1&#45;&gt;Node3 -->
<g id="edge2" class="edge">
<title>Node1&#45;&gt;Node3</title>
<path fill="none" stroke="midnightblue" d="M265.42,-322.06C237.03,-314.22 208.29,-300.37 191,-276 180.2,-260.78 183.16,-250.94 191,-234 197.82,-219.27 210.63,-207 223.17,-197.74"/>
<polygon fill="midnightblue" stroke="midnightblue" points="264.88,-325.53 275.43,-324.59 266.59,-318.74 264.88,-325.53"/>
</g>
<!-- Node11 -->
<g id="node11" class="node">
<title>Node11</title>
<g id="a_node11"><a xlink:href="_game_state_8cpp.html" target="_top" xlink:title=" ">
<polygon fill="none" stroke="black" points="439.5,-234.5 439.5,-275.5 590.5,-275.5 590.5,-234.5 439.5,-234.5"/>
<text text-anchor="start" x="447.5" y="-263.5" font-family="Helvetica,sans-Serif" font-size="10.00">/home/tomek/CLionProjects</text>
<text text-anchor="start" x="447.5" y="-252.5" font-family="Helvetica,sans-Serif" font-size="10.00">/proi/proi&#45;projekt/src</text>
<text text-anchor="middle" x="515" y="-241.5" font-family="Helvetica,sans-Serif" font-size="10.00">/game&#45;lib/GameState.cpp</text>
</a>
</g>
</g>
<!-- Node1&#45;&gt;Node11 -->
<g id="edge13" class="edge">
<title>Node1&#45;&gt;Node11</title>
<path fill="none" stroke="midnightblue" d="M402.38,-308.19C425.07,-297.67 451.41,-285.47 472.91,-275.51"/>
<polygon fill="midnightblue" stroke="midnightblue" points="400.84,-305.05 393.23,-312.43 403.78,-311.4 400.84,-305.05"/>
</g>
<!-- Node12 -->
<g id="node12" class="node">
<title>Node12</title>
<g id="a_node12"><a xlink:href="_entity_controller_8cpp.html" target="_top" xlink:title=" ">
<polygon fill="none" stroke="black" points="351,-156.5 351,-197.5 507,-197.5 507,-156.5 351,-156.5"/>
<text text-anchor="start" x="359" y="-185.5" font-family="Helvetica,sans-Serif" font-size="10.00">/home/tomek/CLionProjects</text>
<text text-anchor="start" x="359" y="-174.5" font-family="Helvetica,sans-Serif" font-size="10.00">/proi/proi&#45;projekt/src</text>
<text text-anchor="middle" x="429" y="-163.5" font-family="Helvetica,sans-Serif" font-size="10.00">/tank&#45;lib/EntityController.cpp</text>
</a>
</g>
</g>
<!-- Node1&#45;&gt;Node12 -->
<g id="edge14" class="edge">
<title>Node1&#45;&gt;Node12</title>
<path fill="none" stroke="midnightblue" d="M373.48,-304.41C379.98,-295.65 386.74,-285.71 392,-276 405.95,-250.26 416.99,-218.13 423.26,-197.83"/>
<polygon fill="midnightblue" stroke="midnightblue" points="370.67,-302.33 367.39,-312.4 376.24,-306.58 370.67,-302.33"/>
</g>
<!-- Node13 -->
<g id="node13" class="node">
<title>Node13</title>
<g id="a_node13"><a xlink:href="_tank_8cpp.html" target="_top" xlink:title=" ">
<polygon fill="none" stroke="black" points="608.5,-234.5 608.5,-275.5 759.5,-275.5 759.5,-234.5 608.5,-234.5"/>
<text text-anchor="start" x="616.5" y="-263.5" font-family="Helvetica,sans-Serif" font-size="10.00">/home/tomek/CLionProjects</text>
<text text-anchor="start" x="616.5" y="-252.5" font-family="Helvetica,sans-Serif" font-size="10.00">/proi/proi&#45;projekt/src</text>
<text text-anchor="middle" x="684" y="-241.5" font-family="Helvetica,sans-Serif" font-size="10.00">/tank&#45;lib/Tank.cpp</text>
</a>
</g>
</g>
<!-- Node1&#45;&gt;Node13 -->
<g id="edge15" class="edge">
<title>Node1&#45;&gt;Node13</title>
<path fill="none" stroke="midnightblue" d="M436.57,-313.03C484.63,-302.31 545.69,-288.57 600,-276 602.77,-275.36 605.6,-274.7 608.45,-274.03"/>
<polygon fill="midnightblue" stroke="midnightblue" points="435.51,-309.68 426.51,-315.27 437.04,-316.51 435.51,-309.68"/>
</g>
<!-- Node14 -->
<g id="node14" class="node">
<title>Node14</title>
<g id="a_node14"><a xlink:href="_entity_controller_8h.html" target="_top" xlink:title=" ">
<polygon fill="none" stroke="black" points="199.5,-234.5 199.5,-275.5 382.5,-275.5 382.5,-234.5 199.5,-234.5"/>
<text text-anchor="start" x="207.5" y="-263.5" font-family="Helvetica,sans-Serif" font-size="10.00">/home/tomek/CLionProjects</text>
<text text-anchor="start" x="207.5" y="-252.5" font-family="Helvetica,sans-Serif" font-size="10.00">/proi/proi&#45;projekt/src</text>
<text text-anchor="middle" x="291" y="-241.5" font-family="Helvetica,sans-Serif" font-size="10.00">/tank&#45;lib/include/EntityController.h</text>
</a>
</g>
</g>
<!-- Node1&#45;&gt;Node14 -->
<g id="edge16" class="edge">
<title>Node1&#45;&gt;Node14</title>
<path fill="none" stroke="midnightblue" d="M329.16,-304.34C321.61,-294.78 313.32,-284.27 306.4,-275.51"/>
<polygon fill="midnightblue" stroke="midnightblue" points="326.6,-306.75 335.55,-312.43 332.1,-302.41 326.6,-306.75"/>
</g>
<!-- Node3&#45;&gt;Node2 -->
<g id="edge3" class="edge">
<title>Node3&#45;&gt;Node2</title>
<path fill="none" stroke="midnightblue" d="M216.41,-150.92C199.87,-140.7 181.05,-129.07 165.57,-119.51"/>
<polygon fill="midnightblue" stroke="midnightblue" points="214.98,-154.15 225.32,-156.43 218.66,-148.19 214.98,-154.15"/>
</g>
<!-- Node4 -->
<g id="node4" class="node">
<title>Node4</title>
<g id="a_node4"><a xlink:href="_active_event_handler_8cpp.html" target="_top" xlink:title=" ">
<polygon fill="none" stroke="black" points="0,-0.5 0,-41.5 182,-41.5 182,-0.5 0,-0.5"/>
<text text-anchor="start" x="8" y="-29.5" font-family="Helvetica,sans-Serif" font-size="10.00">/home/tomek/CLionProjects</text>
<text text-anchor="start" x="8" y="-18.5" font-family="Helvetica,sans-Serif" font-size="10.00">/proi/proi&#45;projekt/src</text>
<text text-anchor="middle" x="91" y="-7.5" font-family="Helvetica,sans-Serif" font-size="10.00">/game&#45;lib/ActiveEventHandler.cpp</text>
</a>
</g>
</g>
<!-- Node3&#45;&gt;Node4 -->
<g id="edge4" class="edge">
<title>Node3&#45;&gt;Node4</title>
<path fill="none" stroke="midnightblue" d="M251.84,-146.43C246.75,-125.07 237.01,-96.79 219,-78 203.48,-61.8 182.46,-50 161.95,-41.53"/>
<polygon fill="midnightblue" stroke="midnightblue" points="248.44,-147.26 253.98,-156.29 255.28,-145.77 248.44,-147.26"/>
</g>
<!-- Node5 -->
<g id="node5" class="node">
<title>Node5</title>
<g id="a_node5"><a xlink:href="_game_8cpp.html" target="_top" xlink:title=" ">
<polygon fill="none" stroke="black" points="200.5,-0.5 200.5,-41.5 351.5,-41.5 351.5,-0.5 200.5,-0.5"/>
<text text-anchor="start" x="208.5" y="-29.5" font-family="Helvetica,sans-Serif" font-size="10.00">/home/tomek/CLionProjects</text>
<text text-anchor="start" x="208.5" y="-18.5" font-family="Helvetica,sans-Serif" font-size="10.00">/proi/proi&#45;projekt/src</text>
<text text-anchor="middle" x="276" y="-7.5" font-family="Helvetica,sans-Serif" font-size="10.00">/game&#45;lib/Game.cpp</text>
</a>
</g>
</g>
<!-- Node3&#45;&gt;Node5 -->
<g id="edge5" class="edge">
<title>Node3&#45;&gt;Node5</title>
<path fill="none" stroke="midnightblue" d="M260.66,-146.36C264.45,-115.61 270.28,-68.36 273.55,-41.83"/>
<polygon fill="midnightblue" stroke="midnightblue" points="257.16,-146.14 259.41,-156.5 264.1,-147 257.16,-146.14"/>
</g>
<!-- Node6 -->
<g id="node6" class="node">
<title>Node6</title>
<g id="a_node6"><a xlink:href="_game_8h.html" target="_top" xlink:title=" ">
<polygon fill="none" stroke="black" points="384.5,-78.5 384.5,-119.5 535.5,-119.5 535.5,-78.5 384.5,-78.5"/>
<text text-anchor="start" x="392.5" y="-107.5" font-family="Helvetica,sans-Serif" font-size="10.00">/home/tomek/CLionProjects</text>
<text text-anchor="start" x="392.5" y="-96.5" font-family="Helvetica,sans-Serif" font-size="10.00">/proi/proi&#45;projekt/src</text>
<text text-anchor="middle" x="460" y="-85.5" font-family="Helvetica,sans-Serif" font-size="10.00">/game&#45;lib/include/Game.h</text>
</a>
</g>
</g>
<!-- Node3&#45;&gt;Node6 -->
<g id="edge6" class="edge">
<title>Node3&#45;&gt;Node6</title>
<path fill="none" stroke="midnightblue" d="M318.74,-152.89C347.23,-142.22 380.7,-129.69 407.9,-119.51"/>
<polygon fill="midnightblue" stroke="midnightblue" points="317.42,-149.64 309.28,-156.43 319.87,-156.2 317.42,-149.64"/>
</g>
<!-- Node6&#45;&gt;Node4 -->
<g id="edge7" class="edge">
<title>Node6&#45;&gt;Node4</title>
<path fill="none" stroke="midnightblue" d="M374.62,-80.42C316.97,-68.54 240.94,-52.88 182.12,-40.77"/>
<polygon fill="midnightblue" stroke="midnightblue" points="373.94,-83.85 384.44,-82.44 375.35,-76.99 373.94,-83.85"/>
</g>
<!-- Node6&#45;&gt;Node5 -->
<g id="edge9" class="edge">
<title>Node6&#45;&gt;Node5</title>
<path fill="none" stroke="midnightblue" d="M403.37,-74.61C377.69,-64 347.67,-51.6 323.22,-41.51"/>
<polygon fill="midnightblue" stroke="midnightblue" points="402.04,-77.85 412.62,-78.43 404.71,-71.38 402.04,-77.85"/>
</g>
<!-- Node7 -->
<g id="node7" class="node">
<title>Node7</title>
<g id="a_node7"><a xlink:href="_finished_event_handler_8cpp.html" target="_top" xlink:title=" ">
<polygon fill="none" stroke="black" points="738,-0.5 738,-41.5 930,-41.5 930,-0.5 738,-0.5"/>
<text text-anchor="start" x="746" y="-29.5" font-family="Helvetica,sans-Serif" font-size="10.00">/home/tomek/CLionProjects</text>
<text text-anchor="start" x="746" y="-18.5" font-family="Helvetica,sans-Serif" font-size="10.00">/proi/proi&#45;projekt/src</text>
<text text-anchor="middle" x="834" y="-7.5" font-family="Helvetica,sans-Serif" font-size="10.00">/game&#45;lib/FinishedEventHandler.cpp</text>
</a>
</g>
</g>
<!-- Node6&#45;&gt;Node7 -->
<g id="edge8" class="edge">
<title>Node6&#45;&gt;Node7</title>
<path fill="none" stroke="midnightblue" d="M545.8,-80.57C603.07,-68.93 678.46,-53.61 737.77,-41.55"/>
<polygon fill="midnightblue" stroke="midnightblue" points="544.79,-77.2 535.68,-82.62 546.18,-84.06 544.79,-77.2"/>
</g>
<!-- Node8 -->
<g id="node8" class="node">
<title>Node8</title>
<g id="a_node8"><a xlink:href="_menu_event_handler_8cpp.html" target="_top" xlink:title=" ">
<polygon fill="none" stroke="black" points="948.5,-0.5 948.5,-41.5 1127.5,-41.5 1127.5,-0.5 948.5,-0.5"/>
<text text-anchor="start" x="956.5" y="-29.5" font-family="Helvetica,sans-Serif" font-size="10.00">/home/tomek/CLionProjects</text>
<text text-anchor="start" x="956.5" y="-18.5" font-family="Helvetica,sans-Serif" font-size="10.00">/proi/proi&#45;projekt/src</text>
<text text-anchor="middle" x="1038" y="-7.5" font-family="Helvetica,sans-Serif" font-size="10.00">/game&#45;lib/MenuEventHandler.cpp</text>
</a>
</g>
</g>
<!-- Node6&#45;&gt;Node8 -->
<g id="edge10" class="edge">
<title>Node6&#45;&gt;Node8</title>
<path fill="none" stroke="midnightblue" d="M545.72,-90.14C641.79,-80.83 802.04,-63.8 939,-42 942.12,-41.5 945.29,-40.98 948.48,-40.43"/>
<polygon fill="midnightblue" stroke="midnightblue" points="545.38,-86.66 535.76,-91.1 546.05,-93.63 545.38,-86.66"/>
</g>
<!-- Node9 -->
<g id="node9" class="node">
<title>Node9</title>
<g id="a_node9"><a xlink:href="_pause_event_handler_8cpp.html" target="_top" xlink:title=" ">
<polygon fill="none" stroke="black" points="370,-0.5 370,-41.5 550,-41.5 550,-0.5 370,-0.5"/>
<text text-anchor="start" x="378" y="-29.5" font-family="Helvetica,sans-Serif" font-size="10.00">/home/tomek/CLionProjects</text>
<text text-anchor="start" x="378" y="-18.5" font-family="Helvetica,sans-Serif" font-size="10.00">/proi/proi&#45;projekt/src</text>
<text text-anchor="middle" x="460" y="-7.5" font-family="Helvetica,sans-Serif" font-size="10.00">/game&#45;lib/PauseEventHandler.cpp</text>
</a>
</g>
</g>
<!-- Node6&#45;&gt;Node9 -->
<g id="edge11" class="edge">
<title>Node6&#45;&gt;Node9</title>
<path fill="none" stroke="midnightblue" d="M460,-68.3C460,-59.3 460,-49.65 460,-41.51"/>
<polygon fill="midnightblue" stroke="midnightblue" points="456.5,-68.43 460,-78.43 463.5,-68.43 456.5,-68.43"/>
</g>
<!-- Node10 -->
<g id="node10" class="node">
<title>Node10</title>
<g id="a_node10"><a xlink:href="tanks_8cpp.html" target="_top" xlink:title=" ">
<polygon fill="none" stroke="black" points="568.5,-0.5 568.5,-41.5 719.5,-41.5 719.5,-0.5 568.5,-0.5"/>
<text text-anchor="start" x="576.5" y="-29.5" font-family="Helvetica,sans-Serif" font-size="10.00">/home/tomek/CLionProjects</text>
<text text-anchor="start" x="576.5" y="-18.5" font-family="Helvetica,sans-Serif" font-size="10.00">/proi/proi&#45;projekt/src</text>
<text text-anchor="middle" x="644" y="-7.5" font-family="Helvetica,sans-Serif" font-size="10.00">/main/tanks.cpp</text>
</a>
</g>
</g>
<!-- Node6&#45;&gt;Node10 -->
<g id="edge12" class="edge">
<title>Node6&#45;&gt;Node10</title>
<path fill="none" stroke="midnightblue" d="M516.63,-74.61C542.31,-64 572.33,-51.6 596.78,-41.51"/>
<polygon fill="midnightblue" stroke="midnightblue" points="515.29,-71.38 507.38,-78.43 517.96,-77.85 515.29,-71.38"/>
</g>
<!-- Node14&#45;&gt;Node2 -->
<g id="edge17" class="edge">
<title>Node14&#45;&gt;Node2</title>
<path fill="none" stroke="midnightblue" d="M218.84,-230.18C202.16,-222.03 185.63,-211.47 173,-198 152.21,-175.83 141.98,-141.2 137.36,-119.6"/>
<polygon fill="midnightblue" stroke="midnightblue" points="217.55,-233.44 228.09,-234.46 220.48,-227.09 217.55,-233.44"/>
</g>
<!-- Node14&#45;&gt;Node3 -->
<g id="edge18" class="edge">
<title>Node14&#45;&gt;Node3</title>
<path fill="none" stroke="midnightblue" d="M278.1,-225.17C273.97,-215.93 269.49,-205.92 265.73,-197.51"/>
<polygon fill="midnightblue" stroke="midnightblue" points="274.97,-226.73 282.24,-234.43 281.36,-223.87 274.97,-226.73"/>
</g>
<!-- Node14&#45;&gt;Node12 -->
<g id="edge19" class="edge">
<title>Node14&#45;&gt;Node12</title>
<path fill="none" stroke="midnightblue" d="M335.51,-229.49C354.31,-219.13 375.89,-207.25 393.58,-197.51"/>
<polygon fill="midnightblue" stroke="midnightblue" points="333.61,-226.54 326.54,-234.43 336.99,-232.67 333.61,-226.54"/>
</g>
</g>
</svg>
