<?xml version="1.0" encoding="UTF-8" standalone="no"?>
<!DOCTYPE svg PUBLIC "-//W3C//DTD SVG 1.1//EN"
 "http://www.w3.org/Graphics/SVG/1.1/DTD/svg11.dtd">
<!-- Generated by graphviz version 2.43.0 (0)
 -->
<!-- Title: /home/tomek/CLionProjects/proi/proi&#45;projekt/src/graphic&#45;lib/include/ActiveState_dir/Borad_dir/TanksGraphic.h Pages: 1 -->
<!--zoomable 318 -->
<svg id="main" version="1.1" xmlns="http://www.w3.org/2000/svg" xmlns:xlink="http://www.w3.org/1999/xlink" xml:space="preserve" onload="init(evt)">
<style type="text/css"><![CDATA[
.edge:hover path { stroke: red; }
.edge:hover polygon { stroke: red; fill: red; }
]]></style>
<script type="text/javascript"><![CDATA[
var edges = document.getElementsByTagName('g');
if (edges && edges.length) {
  for (var i=0;i<edges.length;i++) {
    if (edges[i].id.substr(0,4)=='edge') {
      edges[i].setAttribute('class','edge');
    }
  }
}
]]></script>
        <defs>
                <circle id="rim" cx="0" cy="0" r="7"/>
                <circle id="rim2" cx="0" cy="0" r="3.5"/>
                <g id="zoomPlus">
                        <use xlink:href="#rim" target="_top" fill="#404040">
                                <set attributeName="fill" to="#808080" begin="zoomplus.mouseover" end="zoomplus.mouseout"/>
                        </use>
                        <path d="M-4,0h8M0,-4v8" fill="none" stroke="white" stroke-width="1.5" pointer-events="none"/>
                </g>
                <g id="zoomMin">
                        <use xlink:href="#rim" target="_top" fill="#404040">
                                <set attributeName="fill" to="#808080" begin="zoomminus.mouseover" end="zoomminus.mouseout"/>
                        </use>
                        <path d="M-4,0h8" fill="none" stroke="white" stroke-width="1.5" pointer-events="none"/>
                </g>
                <g id="dirArrow">
                        <path fill="none" stroke="white" stroke-width="1.5" d="M0,-3.0v7 M-2.5,-0.5L0,-3.0L2.5,-0.5"/>
                </g>
               <g id="resetDef">
                       <use xlink:href="#rim2" target="_top" fill="#404040">
                               <set attributeName="fill" to="#808080" begin="reset.mouseover" end="reset.mouseout"/>
                       </use>
               </g>
        </defs>

<script type="text/javascript">
var viewWidth = 538;
var viewHeight = 318;
var sectionId = 'dynsection-0';
</script>
<script xlink:href="svgpan.js" target="_top"/>
<svg id="graph" class="graph">
<g id="viewport">
<title>/home/tomek/CLionProjects/proi/proi&#45;projekt/src/graphic&#45;lib/include/ActiveState_dir/Borad_dir/TanksGraphic.h</title>
<!-- Node1 -->
<g id="node1" class="node">
<title>Node1</title>
<g id="a_node1"><a xlink:title=" ">
<polygon fill="#bfbfbf" stroke="black" points="304.5,-257.5 304.5,-309.5 473.5,-309.5 473.5,-257.5 304.5,-257.5"/>
<text text-anchor="start" x="312.5" y="-297.5" font-family="Helvetica,sans-Serif" font-size="10.00">/home/tomek/CLionProjects</text>
<text text-anchor="start" x="312.5" y="-286.5" font-family="Helvetica,sans-Serif" font-size="10.00">/proi/proi&#45;projekt/src</text>
<text text-anchor="start" x="312.5" y="-275.5" font-family="Helvetica,sans-Serif" font-size="10.00">/graphic&#45;lib/include/ActiveState</text>
<text text-anchor="middle" x="389" y="-264.5" font-family="Helvetica,sans-Serif" font-size="10.00">_dir/Borad_dir/TanksGraphic.h</text>
</a>
</g>
</g>
<!-- Node2 -->
<g id="node2" class="node">
<title>Node2</title>
<g id="a_node2"><a xlink:href="_abstract_window_8h.html" target="_top" target="_top" xlink:title=" ">
<polygon fill="none" stroke="black" points="185,-62 185,-81 307,-81 307,-62 185,-62"/>
<text text-anchor="middle" x="246" y="-69" font-family="Helvetica,sans-Serif" font-size="10.00">../../AbstractWindow.h</text>
</a>
</g>
</g>
<!-- Node1&#45;&gt;Node2 -->
<g id="edge1" class="edge">
<title>Node1&#45;&gt;Node2</title>
<path fill="none" stroke="midnightblue" d="M351.14,-257.28C320.01,-234.3 277.63,-197.39 256,-154 246.18,-134.3 244.57,-108.73 244.84,-91.52"/>
<polygon fill="midnightblue" stroke="midnightblue" points="248.35,-91.25 245.24,-81.12 241.35,-90.98 248.35,-91.25"/>
</g>
<!-- Node8 -->
<g id="node8" class="node">
<title>Node8</title>
<g id="a_node8"><a xlink:href="_tank_8h.html" target="_top" target="_top" xlink:title=" ">
<polygon fill="none" stroke="black" points="344,-190.5 344,-220.5 434,-220.5 434,-190.5 344,-190.5"/>
<text text-anchor="start" x="352" y="-208.5" font-family="Helvetica,sans-Serif" font-size="10.00">../../../../tank&#45;lib</text>
<text text-anchor="middle" x="389" y="-197.5" font-family="Helvetica,sans-Serif" font-size="10.00">/include/Tank.h</text>
</a>
</g>
</g>
<!-- Node1&#45;&gt;Node8 -->
<g id="edge7" class="edge">
<title>Node1&#45;&gt;Node8</title>
<path fill="none" stroke="midnightblue" d="M389,-257.19C389,-248.79 389,-239.44 389,-231.09"/>
<polygon fill="midnightblue" stroke="midnightblue" points="392.5,-230.85 389,-220.85 385.5,-230.85 392.5,-230.85"/>
</g>
<!-- Node13 -->
<g id="node13" class="node">
<title>Node13</title>
<g id="a_node13"><a xlink:title=" ">
<polygon fill="none" stroke="#bfbfbf" points="452.5,-196 452.5,-215 499.5,-215 499.5,-196 452.5,-196"/>
<text text-anchor="middle" x="476" y="-203" font-family="Helvetica,sans-Serif" font-size="10.00">queue</text>
</a>
</g>
</g>
<!-- Node1&#45;&gt;Node13 -->
<g id="edge17" class="edge">
<title>Node1&#45;&gt;Node13</title>
<path fill="none" stroke="midnightblue" d="M417.97,-257.19C431.33,-245.52 446.77,-232.04 458.36,-221.91"/>
<polygon fill="midnightblue" stroke="midnightblue" points="460.8,-224.42 466.03,-215.21 456.2,-219.15 460.8,-224.42"/>
</g>
<!-- Node3 -->
<g id="node3" class="node">
<title>Node3</title>
<g id="a_node3"><a xlink:title=" ">
<polygon fill="none" stroke="#bfbfbf" points="0,-0.5 0,-19.5 104,-19.5 104,-0.5 0,-0.5"/>
<text text-anchor="middle" x="52" y="-7.5" font-family="Helvetica,sans-Serif" font-size="10.00">SFML/System.hpp</text>
</a>
</g>
</g>
<!-- Node2&#45;&gt;Node3 -->
<g id="edge2" class="edge">
<title>Node2&#45;&gt;Node3</title>
<path fill="none" stroke="midnightblue" d="M218.2,-61.98C184.35,-51.59 127.03,-34.01 89.35,-22.45"/>
<polygon fill="midnightblue" stroke="midnightblue" points="90.33,-19.1 79.74,-19.51 88.28,-25.79 90.33,-19.1"/>
</g>
<!-- Node4 -->
<g id="node4" class="node">
<title>Node4</title>
<g id="a_node4"><a xlink:title=" ">
<polygon fill="none" stroke="#bfbfbf" points="122,-0.5 122,-19.5 232,-19.5 232,-0.5 122,-0.5"/>
<text text-anchor="middle" x="177" y="-7.5" font-family="Helvetica,sans-Serif" font-size="10.00">SFML/Graphics.hpp</text>
</a>
</g>
</g>
<!-- Node2&#45;&gt;Node4 -->
<g id="edge3" class="edge">
<title>Node2&#45;&gt;Node4</title>
<path fill="none" stroke="midnightblue" d="M236.11,-61.98C225.35,-52.7 207.93,-37.67 194.78,-26.33"/>
<polygon fill="midnightblue" stroke="midnightblue" points="196.73,-23.39 186.87,-19.51 192.16,-28.69 196.73,-23.39"/>
</g>
<!-- Node5 -->
<g id="node5" class="node">
<title>Node5</title>
<g id="a_node5"><a xlink:title=" ">
<polygon fill="none" stroke="#bfbfbf" points="250,-0.5 250,-19.5 310,-19.5 310,-0.5 250,-0.5"/>
<text text-anchor="middle" x="280" y="-7.5" font-family="Helvetica,sans-Serif" font-size="10.00">iostream</text>
</a>
</g>
</g>
<!-- Node2&#45;&gt;Node5 -->
<g id="edge4" class="edge">
<title>Node2&#45;&gt;Node5</title>
<path fill="none" stroke="midnightblue" d="M250.87,-61.98C255.87,-53.23 263.79,-39.37 270.11,-28.31"/>
<polygon fill="midnightblue" stroke="midnightblue" points="273.22,-29.93 275.14,-19.51 267.14,-26.46 273.22,-29.93"/>
</g>
<!-- Node6 -->
<g id="node6" class="node">
<title>Node6</title>
<g id="a_node6"><a xlink:title=" ">
<polygon fill="none" stroke="#bfbfbf" points="328.5,-0.5 328.5,-19.5 375.5,-19.5 375.5,-0.5 328.5,-0.5"/>
<text text-anchor="middle" x="352" y="-7.5" font-family="Helvetica,sans-Serif" font-size="10.00">vector</text>
</a>
</g>
</g>
<!-- Node2&#45;&gt;Node6 -->
<g id="edge5" class="edge">
<title>Node2&#45;&gt;Node6</title>
<path fill="none" stroke="midnightblue" d="M261.19,-61.98C278.66,-52.17 307.58,-35.93 328.08,-24.42"/>
<polygon fill="midnightblue" stroke="midnightblue" points="329.83,-27.46 336.84,-19.51 326.41,-21.35 329.83,-27.46"/>
</g>
<!-- Node7 -->
<g id="node7" class="node">
<title>Node7</title>
<g id="a_node7"><a xlink:title=" ">
<polygon fill="none" stroke="#bfbfbf" points="394,-0.5 394,-19.5 452,-19.5 452,-0.5 394,-0.5"/>
<text text-anchor="middle" x="423" y="-7.5" font-family="Helvetica,sans-Serif" font-size="10.00">memory</text>
</a>
</g>
</g>
<!-- Node2&#45;&gt;Node7 -->
<g id="edge6" class="edge">
<title>Node2&#45;&gt;Node7</title>
<path fill="none" stroke="midnightblue" d="M271.36,-61.98C301.98,-51.68 353.66,-34.31 388.05,-22.75"/>
<polygon fill="midnightblue" stroke="midnightblue" points="389.32,-26.01 397.69,-19.51 387.09,-19.38 389.32,-26.01"/>
</g>
<!-- Node8&#45;&gt;Node7 -->
<g id="edge8" class="edge">
<title>Node8&#45;&gt;Node7</title>
<path fill="none" stroke="midnightblue" d="M432.87,-190.42C462.32,-180.14 497.58,-165.98 508,-154 528.24,-130.74 521.97,-117.57 526,-87 527.8,-73.34 533.54,-67.53 526,-56 511.85,-34.38 484.79,-23.09 461.95,-17.22"/>
<polygon fill="midnightblue" stroke="midnightblue" points="462.67,-13.8 452.14,-14.96 461.1,-20.62 462.67,-13.8"/>
</g>
<!-- Node9 -->
<g id="node9" class="node">
<title>Node9</title>
<g id="a_node9"><a xlink:title=" ">
<polygon fill="none" stroke="#bfbfbf" points="265,-129 265,-148 321,-148 321,-129 265,-129"/>
<text text-anchor="middle" x="293" y="-136" font-family="Helvetica,sans-Serif" font-size="10.00">optional</text>
</a>
</g>
</g>
<!-- Node8&#45;&gt;Node9 -->
<g id="edge9" class="edge">
<title>Node8&#45;&gt;Node9</title>
<path fill="none" stroke="midnightblue" d="M368.17,-190.4C352.22,-179.6 330.3,-164.76 314.25,-153.89"/>
<polygon fill="midnightblue" stroke="midnightblue" points="315.81,-150.72 305.56,-148.01 311.88,-156.51 315.81,-150.72"/>
</g>
<!-- Node10 -->
<g id="node10" class="node">
<title>Node10</title>
<g id="a_node10"><a xlink:href="_simple_subscriber_8h.html" target="_top" target="_top" xlink:title=" ">
<polygon fill="none" stroke="black" points="328.5,-56.5 328.5,-86.5 441.5,-86.5 441.5,-56.5 328.5,-56.5"/>
<text text-anchor="start" x="336.5" y="-74.5" font-family="Helvetica,sans-Serif" font-size="10.00">../../core&#45;lib/include</text>
<text text-anchor="middle" x="385" y="-63.5" font-family="Helvetica,sans-Serif" font-size="10.00">/SimpleSubscriber.h</text>
</a>
</g>
</g>
<!-- Node8&#45;&gt;Node10 -->
<g id="edge10" class="edge">
<title>Node8&#45;&gt;Node10</title>
<path fill="none" stroke="midnightblue" d="M381.36,-190.39C376.47,-180.52 370.57,-166.85 368,-154 365.3,-140.49 365.77,-136.6 368,-123 369.47,-114.04 372.31,-104.53 375.25,-96.21"/>
<polygon fill="midnightblue" stroke="midnightblue" points="378.56,-97.36 378.81,-86.77 372.01,-94.89 378.56,-97.36"/>
</g>
<!-- Node11 -->
<g id="node11" class="node">
<title>Node11</title>
<g id="a_node11"><a xlink:href="_entity_8h.html" target="_top" target="_top" xlink:title=" ">
<polygon fill="none" stroke="black" points="463.5,-62 463.5,-81 516.5,-81 516.5,-62 463.5,-62"/>
<text text-anchor="middle" x="490" y="-69" font-family="Helvetica,sans-Serif" font-size="10.00">Entity.h</text>
</a>
</g>
</g>
<!-- Node8&#45;&gt;Node11 -->
<g id="edge13" class="edge">
<title>Node8&#45;&gt;Node11</title>
<path fill="none" stroke="midnightblue" d="M434.02,-193.74C454.86,-186.26 477.68,-173.93 490,-154 501.65,-135.14 499.04,-108.84 495.26,-91.27"/>
<polygon fill="midnightblue" stroke="midnightblue" points="498.56,-90.01 492.75,-81.15 491.76,-91.7 498.56,-90.01"/>
</g>
<!-- Node12 -->
<g id="node12" class="node">
<title>Node12</title>
<g id="a_node12"><a xlink:href="_bot_8h.html" target="_top" target="_top" xlink:title=" ">
<polygon fill="none" stroke="black" points="377,-123.5 377,-153.5 481,-153.5 481,-123.5 377,-123.5"/>
<text text-anchor="start" x="385" y="-141.5" font-family="Helvetica,sans-Serif" font-size="10.00">../../bot&#45;lib/include</text>
<text text-anchor="middle" x="429" y="-130.5" font-family="Helvetica,sans-Serif" font-size="10.00">/Bot.h</text>
</a>
</g>
</g>
<!-- Node8&#45;&gt;Node12 -->
<g id="edge14" class="edge">
<title>Node8&#45;&gt;Node12</title>
<path fill="none" stroke="midnightblue" d="M397.68,-190.4C402.76,-182.13 409.3,-171.51 415.09,-162.1"/>
<polygon fill="midnightblue" stroke="midnightblue" points="418.08,-163.93 420.34,-153.58 412.12,-160.26 418.08,-163.93"/>
</g>
<!-- Node10&#45;&gt;Node6 -->
<g id="edge11" class="edge">
<title>Node10&#45;&gt;Node6</title>
<path fill="none" stroke="midnightblue" d="M377.18,-56.4C372.53,-48.02 366.6,-37.33 361.66,-28.42"/>
<polygon fill="midnightblue" stroke="midnightblue" points="364.71,-26.71 356.8,-19.66 358.59,-30.1 364.71,-26.71"/>
</g>
<!-- Node10&#45;&gt;Node7 -->
<g id="edge12" class="edge">
<title>Node10&#45;&gt;Node7</title>
<path fill="none" stroke="midnightblue" d="M394.01,-56.4C399.41,-47.93 406.33,-37.1 412.05,-28.14"/>
<polygon fill="midnightblue" stroke="midnightblue" points="415.04,-29.97 417.47,-19.66 409.14,-26.2 415.04,-29.97"/>
</g>
<!-- Node12&#45;&gt;Node10 -->
<g id="edge16" class="edge">
<title>Node12&#45;&gt;Node10</title>
<path fill="none" stroke="midnightblue" d="M419.45,-123.4C413.86,-115.13 406.67,-104.51 400.3,-95.1"/>
<polygon fill="midnightblue" stroke="midnightblue" points="403.03,-92.9 394.53,-86.58 397.24,-96.82 403.03,-92.9"/>
</g>
<!-- Node12&#45;&gt;Node11 -->
<g id="edge15" class="edge">
<title>Node12&#45;&gt;Node11</title>
<path fill="none" stroke="midnightblue" d="M442.24,-123.4C451.84,-113.16 464.85,-99.3 474.87,-88.62"/>
<polygon fill="midnightblue" stroke="midnightblue" points="477.55,-90.88 481.84,-81.19 472.45,-86.09 477.55,-90.88"/>
</g>
</g>
</svg>
        <g id="navigator" transform="translate(0 0)" fill="#404254">
                <rect fill="#f2f5e9" fill-opacity="0.5" stroke="#606060" stroke-width=".5" x="0" y="0" width="60" height="60"/>
                <use id="zoomplus" xlink:href="#zoomPlus" target="_top" x="17" y="9" onmousedown="handleZoom(evt,'in')"/>
                <use id="zoomminus" xlink:href="#zoomMin" target="_top" x="42" y="9" onmousedown="handleZoom(evt,'out')"/>
                <use id="reset" xlink:href="#resetDef" target="_top" x="30" y="36" onmousedown="handleReset()"/>
                <g id="arrowUp" xlink:href="#dirArrow" target="_top" transform="translate(30 24)" onmousedown="handlePan(0,-1)">
                  <use xlink:href="#rim" target="_top" fill="#404040">
                        <set attributeName="fill" to="#808080" begin="arrowUp.mouseover" end="arrowUp.mouseout"/>
                  </use>
                  <path fill="none" stroke="white" stroke-width="1.5" d="M0,-3.0v7 M-2.5,-0.5L0,-3.0L2.5,-0.5"/>
                </g>
                <g id="arrowRight" xlink:href="#dirArrow" target="_top" transform="rotate(90) translate(36 -43)" onmousedown="handlePan(1,0)">
                  <use xlink:href="#rim" target="_top" fill="#404040">
                        <set attributeName="fill" to="#808080" begin="arrowRight.mouseover" end="arrowRight.mouseout"/>
                  </use>
                  <path fill="none" stroke="white" stroke-width="1.5" d="M0,-3.0v7 M-2.5,-0.5L0,-3.0L2.5,-0.5"/>
                </g>
                <g id="arrowDown" xlink:href="#dirArrow" target="_top" transform="rotate(180) translate(-30 -48)" onmousedown="handlePan(0,1)">
                  <use xlink:href="#rim" target="_top" fill="#404040">
                        <set attributeName="fill" to="#808080" begin="arrowDown.mouseover" end="arrowDown.mouseout"/>
                  </use>
                  <path fill="none" stroke="white" stroke-width="1.5" d="M0,-3.0v7 M-2.5,-0.5L0,-3.0L2.5,-0.5"/>
                </g>
                <g id="arrowLeft" xlink:href="#dirArrow" target="_top" transform="rotate(270) translate(-36 17)" onmousedown="handlePan(-1,0)">
                  <use xlink:href="#rim" target="_top" fill="#404040">
                        <set attributeName="fill" to="#808080" begin="arrowLeft.mouseover" end="arrowLeft.mouseout"/>
                  </use>
                  <path fill="none" stroke="white" stroke-width="1.5" d="M0,-3.0v7 M-2.5,-0.5L0,-3.0L2.5,-0.5"/>
                </g>
        </g>
        <svg viewBox="0 0 15 15" width="100%" height="30px" preserveAspectRatio="xMaxYMin meet">
         <g id="arrow_out" transform="scale(0.3 0.3)">
          <a xlink:href="_tanks_graphic_8h__incl_org.svg" target="_top" target="_base">
           <rect id="button" ry="5" rx="5" y="6" x="6" height="38" width="38"
                fill="#f2f5e9" fill-opacity="0.5" stroke="#606060" stroke-width="1.0"/>
           <path id="arrow"
             d="M 11.500037,31.436501 C 11.940474,20.09759 22.043105,11.32322 32.158766,21.979434 L 37.068811,17.246167 C 37.068811,17.246167 37.088388,32 37.088388,32 L 22.160133,31.978069 C 22.160133,31.978069 26.997745,27.140456 26.997745,27.140456 C 18.528582,18.264221 13.291696,25.230495 11.500037,31.436501 z"
             style="fill:#404040;"/>
          </a>
         </g>
        </svg>
</svg>
