<?xml version="1.0" encoding="UTF-8" standalone="no"?>
<!DOCTYPE svg PUBLIC "-//W3C//DTD SVG 1.1//EN"
 "http://www.w3.org/Graphics/SVG/1.1/DTD/svg11.dtd">
<!-- Generated by graphviz version 2.50.0 (0)
 -->
<!-- Title: /home/tomek/trash/battle&#45;city/src/lib/graphic&#45;lib/include/TextureLoadingError.h Pages: 1 -->
<svg width="1103pt" height="128pt"
 viewBox="0.00 0.00 1103.00 128.00" xmlns="http://www.w3.org/2000/svg" xmlns:xlink="http://www.w3.org/1999/xlink">
<g id="graph0" class="graph" transform="scale(1 1) rotate(0) translate(4 124)">
<title>/home/tomek/trash/battle&#45;city/src/lib/graphic&#45;lib/include/TextureLoadingError.h</title>
<!-- Node1 -->
<g id="node1" class="node">
<title>Node1</title>
<g id="a_node1"><a xlink:title=" ">
<polygon fill="#bfbfbf" stroke="black" points="465.5,-78.5 465.5,-119.5 629.5,-119.5 629.5,-78.5 465.5,-78.5"/>
<text text-anchor="start" x="473.5" y="-107.5" font-family="Helvetica,sans-Serif" font-size="10.00">/home/tomek/trash/battle</text>
<text text-anchor="start" x="473.5" y="-96.5" font-family="Helvetica,sans-Serif" font-size="10.00">&#45;city/src/lib/graphic&#45;lib</text>
<text text-anchor="middle" x="547.5" y="-85.5" font-family="Helvetica,sans-Serif" font-size="10.00">/include/TextureLoadingError.h</text>
</a>
</g>
</g>
<!-- Node2 -->
<g id="node2" class="node">
<title>Node2</title>
<g id="a_node2"><a xlink:href="_bullets_graphic_8cpp.html" target="_top" xlink:title=" ">
<polygon fill="none" stroke="black" points="0,-0.5 0,-41.5 141,-41.5 141,-0.5 0,-0.5"/>
<text text-anchor="start" x="8" y="-29.5" font-family="Helvetica,sans-Serif" font-size="10.00">/home/tomek/trash/battle</text>
<text text-anchor="start" x="8" y="-18.5" font-family="Helvetica,sans-Serif" font-size="10.00">&#45;city/src/lib/graphic&#45;lib</text>
<text text-anchor="middle" x="70.5" y="-7.5" font-family="Helvetica,sans-Serif" font-size="10.00">/BulletsGraphic.cpp</text>
</a>
</g>
</g>
<!-- Node1&#45;&gt;Node2 -->
<g id="edge1" class="edge">
<title>Node1&#45;&gt;Node2</title>
<path fill="none" stroke="midnightblue" d="M454.96,-87.85C373.99,-78.29 253.41,-62.4 149.5,-42 146.72,-41.45 143.9,-40.87 141.05,-40.26"/>
<polygon fill="midnightblue" stroke="midnightblue" points="454.79,-91.36 465.12,-89.05 455.6,-84.41 454.79,-91.36"/>
</g>
<!-- Node3 -->
<g id="node3" class="node">
<title>Node3</title>
<g id="a_node3"><a xlink:href="_eagle_graphic_8cpp.html" target="_top" xlink:title=" ">
<polygon fill="none" stroke="black" points="159,-0.5 159,-41.5 300,-41.5 300,-0.5 159,-0.5"/>
<text text-anchor="start" x="167" y="-29.5" font-family="Helvetica,sans-Serif" font-size="10.00">/home/tomek/trash/battle</text>
<text text-anchor="start" x="167" y="-18.5" font-family="Helvetica,sans-Serif" font-size="10.00">&#45;city/src/lib/graphic&#45;lib</text>
<text text-anchor="middle" x="229.5" y="-7.5" font-family="Helvetica,sans-Serif" font-size="10.00">/EagleGraphic.cpp</text>
</a>
</g>
</g>
<!-- Node1&#45;&gt;Node3 -->
<g id="edge2" class="edge">
<title>Node1&#45;&gt;Node3</title>
<path fill="none" stroke="midnightblue" d="M455.37,-76.82C410.94,-66.5 356.91,-53.8 308.5,-42 305.75,-41.33 302.95,-40.64 300.12,-39.94"/>
<polygon fill="midnightblue" stroke="midnightblue" points="454.75,-80.27 465.28,-79.12 456.33,-73.45 454.75,-80.27"/>
</g>
<!-- Node4 -->
<g id="node4" class="node">
<title>Node4</title>
<g id="a_node4"><a xlink:href="_game_info_graphic_8cpp.html" target="_top" xlink:title=" ">
<polygon fill="none" stroke="black" points="318,-0.5 318,-41.5 459,-41.5 459,-0.5 318,-0.5"/>
<text text-anchor="start" x="326" y="-29.5" font-family="Helvetica,sans-Serif" font-size="10.00">/home/tomek/trash/battle</text>
<text text-anchor="start" x="326" y="-18.5" font-family="Helvetica,sans-Serif" font-size="10.00">&#45;city/src/lib/graphic&#45;lib</text>
<text text-anchor="middle" x="388.5" y="-7.5" font-family="Helvetica,sans-Serif" font-size="10.00">/GameInfoGraphic.cpp</text>
</a>
</g>
</g>
<!-- Node1&#45;&gt;Node4 -->
<g id="edge3" class="edge">
<title>Node1&#45;&gt;Node4</title>
<path fill="none" stroke="midnightblue" d="M497.39,-74.05C475.46,-63.57 450.06,-51.42 429.31,-41.51"/>
<polygon fill="midnightblue" stroke="midnightblue" points="496.02,-77.27 506.55,-78.43 499.04,-70.96 496.02,-77.27"/>
</g>
<!-- Node5 -->
<g id="node5" class="node">
<title>Node5</title>
<g id="a_node5"><a xlink:href="_menu_state_graphic_8cpp.html" target="_top" xlink:title=" ">
<polygon fill="none" stroke="black" points="477,-0.5 477,-41.5 618,-41.5 618,-0.5 477,-0.5"/>
<text text-anchor="start" x="485" y="-29.5" font-family="Helvetica,sans-Serif" font-size="10.00">/home/tomek/trash/battle</text>
<text text-anchor="start" x="485" y="-18.5" font-family="Helvetica,sans-Serif" font-size="10.00">&#45;city/src/lib/graphic&#45;lib</text>
<text text-anchor="middle" x="547.5" y="-7.5" font-family="Helvetica,sans-Serif" font-size="10.00">/MenuStateGraphic.cpp</text>
</a>
</g>
</g>
<!-- Node1&#45;&gt;Node5 -->
<g id="edge4" class="edge">
<title>Node1&#45;&gt;Node5</title>
<path fill="none" stroke="midnightblue" d="M547.5,-68.3C547.5,-59.3 547.5,-49.65 547.5,-41.51"/>
<polygon fill="midnightblue" stroke="midnightblue" points="544,-68.43 547.5,-78.43 551,-68.43 544,-68.43"/>
</g>
<!-- Node6 -->
<g id="node6" class="node">
<title>Node6</title>
<g id="a_node6"><a xlink:href="_tanks_graphic_8cpp.html" target="_top" xlink:title=" ">
<polygon fill="none" stroke="black" points="636,-0.5 636,-41.5 777,-41.5 777,-0.5 636,-0.5"/>
<text text-anchor="start" x="644" y="-29.5" font-family="Helvetica,sans-Serif" font-size="10.00">/home/tomek/trash/battle</text>
<text text-anchor="start" x="644" y="-18.5" font-family="Helvetica,sans-Serif" font-size="10.00">&#45;city/src/lib/graphic&#45;lib</text>
<text text-anchor="middle" x="706.5" y="-7.5" font-family="Helvetica,sans-Serif" font-size="10.00">/TanksGraphic.cpp</text>
</a>
</g>
</g>
<!-- Node1&#45;&gt;Node6 -->
<g id="edge5" class="edge">
<title>Node1&#45;&gt;Node6</title>
<path fill="none" stroke="midnightblue" d="M597.61,-74.05C619.54,-63.57 644.94,-51.42 665.69,-41.51"/>
<polygon fill="midnightblue" stroke="midnightblue" points="595.96,-70.96 588.45,-78.43 598.98,-77.27 595.96,-70.96"/>
</g>
<!-- Node7 -->
<g id="node7" class="node">
<title>Node7</title>
<g id="a_node7"><a xlink:href="_texture_loading_error_8cpp.html" target="_top" xlink:title=" ">
<polygon fill="none" stroke="black" points="795,-0.5 795,-41.5 936,-41.5 936,-0.5 795,-0.5"/>
<text text-anchor="start" x="803" y="-29.5" font-family="Helvetica,sans-Serif" font-size="10.00">/home/tomek/trash/battle</text>
<text text-anchor="start" x="803" y="-18.5" font-family="Helvetica,sans-Serif" font-size="10.00">&#45;city/src/lib/graphic&#45;lib</text>
<text text-anchor="middle" x="865.5" y="-7.5" font-family="Helvetica,sans-Serif" font-size="10.00">/TextureLoadingError.cpp</text>
</a>
</g>
</g>
<!-- Node1&#45;&gt;Node7 -->
<g id="edge6" class="edge">
<title>Node1&#45;&gt;Node7</title>
<path fill="none" stroke="midnightblue" d="M639.63,-76.82C684.06,-66.5 738.09,-53.8 786.5,-42 789.25,-41.33 792.05,-40.64 794.88,-39.94"/>
<polygon fill="midnightblue" stroke="midnightblue" points="638.67,-73.45 629.72,-79.12 640.25,-80.27 638.67,-73.45"/>
</g>
<!-- Node8 -->
<g id="node8" class="node">
<title>Node8</title>
<g id="a_node8"><a xlink:href="_tiles_graphic_8cpp.html" target="_top" xlink:title=" ">
<polygon fill="none" stroke="black" points="954,-0.5 954,-41.5 1095,-41.5 1095,-0.5 954,-0.5"/>
<text text-anchor="start" x="962" y="-29.5" font-family="Helvetica,sans-Serif" font-size="10.00">/home/tomek/trash/battle</text>
<text text-anchor="start" x="962" y="-18.5" font-family="Helvetica,sans-Serif" font-size="10.00">&#45;city/src/lib/graphic&#45;lib</text>
<text text-anchor="middle" x="1024.5" y="-7.5" font-family="Helvetica,sans-Serif" font-size="10.00">/TilesGraphic.cpp</text>
</a>
</g>
</g>
<!-- Node1&#45;&gt;Node8 -->
<g id="edge7" class="edge">
<title>Node1&#45;&gt;Node8</title>
<path fill="none" stroke="midnightblue" d="M640.04,-87.85C721.01,-78.29 841.59,-62.4 945.5,-42 948.28,-41.45 951.1,-40.87 953.95,-40.26"/>
<polygon fill="midnightblue" stroke="midnightblue" points="639.4,-84.41 629.88,-89.05 640.21,-91.36 639.4,-84.41"/>
</g>
</g>
</svg>
