<?xml version="1.0" encoding="UTF-8" standalone="no"?>
<!DOCTYPE svg PUBLIC "-//W3C//DTD SVG 1.1//EN"
 "http://www.w3.org/Graphics/SVG/1.1/DTD/svg11.dtd">
<!-- Generated by graphviz version 2.50.0 (0)
 -->
<!-- Title: /home/tomek/trash/battle&#45;city/src/lib/graphic&#45;lib/include/ActiveState_dir/Borad_dir/TilesGraphic.h Pages: 1 -->
<!--zoomable 385 -->
<svg id="main" version="1.1" xmlns="http://www.w3.org/2000/svg" xmlns:xlink="http://www.w3.org/1999/xlink" xml:space="preserve" onload="init(evt)">
<style type="text/css"><![CDATA[
.edge:hover path { stroke: red; }
.edge:hover polygon { stroke: red; fill: red; }
]]></style>
<script type="text/javascript"><![CDATA[
var edges = document.getElementsByTagName('g');
if (edges && edges.length) {
  for (var i=0;i<edges.length;i++) {
    if (edges[i].id.substr(0,4)=='edge') {
      edges[i].setAttribute('class','edge');
    }
  }
}
]]></script>
        <defs>
                <circle id="rim" cx="0" cy="0" r="7"/>
                <circle id="rim2" cx="0" cy="0" r="3.5"/>
                <g id="zoomPlus">
                        <use xlink:href="#rim" fill="#404040">
                                <set attributeName="fill" to="#808080" begin="zoomplus.mouseover" end="zoomplus.mouseout"/>
                        </use>
                        <path d="M-4,0h8M0,-4v8" fill="none" stroke="white" stroke-width="1.5" pointer-events="none"/>
                </g>
                <g id="zoomMin">
                        <use xlink:href="#rim" fill="#404040">
                                <set attributeName="fill" to="#808080" begin="zoomminus.mouseover" end="zoomminus.mouseout"/>
                        </use>
                        <path d="M-4,0h8" fill="none" stroke="white" stroke-width="1.5" pointer-events="none"/>
                </g>
                <g id="dirArrow">
                        <path fill="none" stroke="white" stroke-width="1.5" d="M0,-3.0v7 M-2.5,-0.5L0,-3.0L2.5,-0.5"/>
                </g>
               <g id="resetDef">
                       <use xlink:href="#rim2" fill="#404040">
                               <set attributeName="fill" to="#808080" begin="reset.mouseover" end="reset.mouseout"/>
                       </use>
               </g>
        </defs>

<script type="text/javascript">
var viewWidth = 687;
var viewHeight = 385;
var sectionId = 'dynsection-0';
</script>
<script xlink:href="svgpan.js"/>
<svg id="graph" class="graph">
<g id="viewport">
<title>/home/tomek/trash/battle&#45;city/src/lib/graphic&#45;lib/include/ActiveState_dir/Borad_dir/TilesGraphic.h</title>
<!-- Node1 -->
<g id="node1" class="node">
<title>Node1</title>
<g id="a_node1"><a xlink:title=" ">
<polygon fill="#bfbfbf" stroke="black" points="448.5,-324.5 448.5,-376.5 589.5,-376.5 589.5,-324.5 448.5,-324.5"/>
<text text-anchor="start" x="456.5" y="-364.5" font-family="Helvetica,sans-Serif" font-size="10.00">/home/tomek/trash/battle</text>
<text text-anchor="start" x="456.5" y="-353.5" font-family="Helvetica,sans-Serif" font-size="10.00">&#45;city/src/lib/graphic&#45;lib</text>
<text text-anchor="start" x="456.5" y="-342.5" font-family="Helvetica,sans-Serif" font-size="10.00">/include/ActiveState_dir</text>
<text text-anchor="middle" x="519" y="-331.5" font-family="Helvetica,sans-Serif" font-size="10.00">/Borad_dir/TilesGraphic.h</text>
</a>
</g>
</g>
<!-- Node2 -->
<g id="node2" class="node">
<title>Node2</title>
<g id="a_node2"><a xlink:href="_abstract_window_8h.html" target="_top" xlink:title=" ">
<polygon fill="none" stroke="black" points="159,-62 159,-81 281,-81 281,-62 159,-62"/>
<text text-anchor="middle" x="220" y="-69" font-family="Helvetica,sans-Serif" font-size="10.00">../../AbstractWindow.h</text>
</a>
</g>
</g>
<!-- Node1&#45;&gt;Node2 -->
<g id="edge1" class="edge">
<title>Node1&#45;&gt;Node2</title>
<path fill="none" stroke="midnightblue" d="M478.27,-324.23C461.27,-313.4 441.45,-300.41 424,-288 384.51,-259.92 372.43,-255.1 338,-221 294.28,-177.7 251.51,-118.48 231.6,-89.66"/>
<polygon fill="midnightblue" stroke="midnightblue" points="234.29,-87.4 225.76,-81.12 228.51,-91.35 234.29,-87.4"/>
</g>
<!-- Node8 -->
<g id="node8" class="node">
<title>Node8</title>
<g id="a_node8"><a xlink:href="_grid_8h.html" target="_top" xlink:title=" ">
<polygon fill="none" stroke="black" points="433,-257.5 433,-287.5 529,-287.5 529,-257.5 433,-257.5"/>
<text text-anchor="start" x="441" y="-275.5" font-family="Helvetica,sans-Serif" font-size="10.00">../../../../board&#45;lib</text>
<text text-anchor="middle" x="481" y="-264.5" font-family="Helvetica,sans-Serif" font-size="10.00">/include/Grid.h</text>
</a>
</g>
</g>
<!-- Node1&#45;&gt;Node8 -->
<g id="edge7" class="edge">
<title>Node1&#45;&gt;Node8</title>
<path fill="none" stroke="midnightblue" d="M506.35,-324.19C501.95,-315.41 497.05,-305.6 492.74,-296.97"/>
<polygon fill="midnightblue" stroke="midnightblue" points="495.78,-295.22 488.17,-287.85 489.51,-298.35 495.78,-295.22"/>
</g>
<!-- Node10 -->
<g id="node10" class="node">
<title>Node10</title>
<g id="a_node10"><a xlink:title=" ">
<polygon fill="none" stroke="#bfbfbf" points="585.5,-196 585.5,-215 632.5,-215 632.5,-196 585.5,-196"/>
<text text-anchor="middle" x="609" y="-203" font-family="Helvetica,sans-Serif" font-size="10.00">queue</text>
</a>
</g>
</g>
<!-- Node1&#45;&gt;Node10 -->
<g id="edge22" class="edge">
<title>Node1&#45;&gt;Node10</title>
<path fill="none" stroke="midnightblue" d="M534.72,-324.35C546.37,-305.74 562.65,-279.77 577,-257 583.97,-245.94 591.83,-233.53 598.02,-223.78"/>
<polygon fill="midnightblue" stroke="midnightblue" points="601.15,-225.39 603.55,-215.07 595.24,-221.64 601.15,-225.39"/>
</g>
<!-- Node16 -->
<g id="node16" class="node">
<title>Node16</title>
<g id="a_node16"><a xlink:title=" ">
<polygon fill="none" stroke="#bfbfbf" points="585.5,-263 585.5,-282 678.5,-282 678.5,-263 585.5,-263"/>
<text text-anchor="middle" x="632" y="-270" font-family="Helvetica,sans-Serif" font-size="10.00">unordered_map</text>
</a>
</g>
</g>
<!-- Node1&#45;&gt;Node16 -->
<g id="edge21" class="edge">
<title>Node1&#45;&gt;Node16</title>
<path fill="none" stroke="midnightblue" d="M556.31,-324.4C574.31,-312.3 595.25,-298.22 610.53,-287.94"/>
<polygon fill="midnightblue" stroke="midnightblue" points="612.9,-290.56 619.25,-282.08 608.99,-284.75 612.9,-290.56"/>
</g>
<!-- Node3 -->
<g id="node3" class="node">
<title>Node3</title>
<g id="a_node3"><a xlink:title=" ">
<polygon fill="none" stroke="#bfbfbf" points="0,-0.5 0,-19.5 104,-19.5 104,-0.5 0,-0.5"/>
<text text-anchor="middle" x="52" y="-7.5" font-family="Helvetica,sans-Serif" font-size="10.00">SFML/System.hpp</text>
</a>
</g>
</g>
<!-- Node2&#45;&gt;Node3 -->
<g id="edge2" class="edge">
<title>Node2&#45;&gt;Node3</title>
<path fill="none" stroke="midnightblue" d="M195.93,-61.98C166.99,-51.72 118.24,-34.46 85.6,-22.9"/>
<polygon fill="midnightblue" stroke="midnightblue" points="86.62,-19.55 76.03,-19.51 84.28,-26.15 86.62,-19.55"/>
</g>
<!-- Node4 -->
<g id="node4" class="node">
<title>Node4</title>
<g id="a_node4"><a xlink:title=" ">
<polygon fill="none" stroke="#bfbfbf" points="122,-0.5 122,-19.5 232,-19.5 232,-0.5 122,-0.5"/>
<text text-anchor="middle" x="177" y="-7.5" font-family="Helvetica,sans-Serif" font-size="10.00">SFML/Graphics.hpp</text>
</a>
</g>
</g>
<!-- Node2&#45;&gt;Node4 -->
<g id="edge3" class="edge">
<title>Node2&#45;&gt;Node4</title>
<path fill="none" stroke="midnightblue" d="M213.84,-61.98C207.39,-53.05 197.1,-38.81 189.03,-27.64"/>
<polygon fill="midnightblue" stroke="midnightblue" points="191.84,-25.56 183.15,-19.51 186.17,-29.66 191.84,-25.56"/>
</g>
<!-- Node5 -->
<g id="node5" class="node">
<title>Node5</title>
<g id="a_node5"><a xlink:title=" ">
<polygon fill="none" stroke="#bfbfbf" points="250,-0.5 250,-19.5 310,-19.5 310,-0.5 250,-0.5"/>
<text text-anchor="middle" x="280" y="-7.5" font-family="Helvetica,sans-Serif" font-size="10.00">iostream</text>
</a>
</g>
</g>
<!-- Node2&#45;&gt;Node5 -->
<g id="edge4" class="edge">
<title>Node2&#45;&gt;Node5</title>
<path fill="none" stroke="midnightblue" d="M228.6,-61.98C237.86,-52.78 252.82,-37.96 264.21,-26.66"/>
<polygon fill="midnightblue" stroke="midnightblue" points="266.78,-29.04 271.42,-19.51 261.85,-24.07 266.78,-29.04"/>
</g>
<!-- Node6 -->
<g id="node6" class="node">
<title>Node6</title>
<g id="a_node6"><a xlink:title=" ">
<polygon fill="none" stroke="#bfbfbf" points="328.5,-0.5 328.5,-19.5 375.5,-19.5 375.5,-0.5 328.5,-0.5"/>
<text text-anchor="middle" x="352" y="-7.5" font-family="Helvetica,sans-Serif" font-size="10.00">vector</text>
</a>
</g>
</g>
<!-- Node2&#45;&gt;Node6 -->
<g id="edge5" class="edge">
<title>Node2&#45;&gt;Node6</title>
<path fill="none" stroke="midnightblue" d="M238.91,-61.98C261.16,-51.95 298.31,-35.2 323.93,-23.65"/>
<polygon fill="midnightblue" stroke="midnightblue" points="325.44,-26.81 333.12,-19.51 322.57,-20.43 325.44,-26.81"/>
</g>
<!-- Node7 -->
<g id="node7" class="node">
<title>Node7</title>
<g id="a_node7"><a xlink:title=" ">
<polygon fill="none" stroke="#bfbfbf" points="436,-0.5 436,-19.5 494,-19.5 494,-0.5 436,-0.5"/>
<text text-anchor="middle" x="465" y="-7.5" font-family="Helvetica,sans-Serif" font-size="10.00">memory</text>
</a>
</g>
</g>
<!-- Node2&#45;&gt;Node7 -->
<g id="edge6" class="edge">
<title>Node2&#45;&gt;Node7</title>
<path fill="none" stroke="midnightblue" d="M255.1,-61.98C300.34,-50.99 378.76,-31.94 425.88,-20.5"/>
<polygon fill="midnightblue" stroke="midnightblue" points="426.82,-23.87 435.72,-18.11 425.17,-17.07 426.82,-23.87"/>
</g>
<!-- Node8&#45;&gt;Node6 -->
<g id="edge9" class="edge">
<title>Node8&#45;&gt;Node6</title>
<path fill="none" stroke="midnightblue" d="M432.78,-260.93C409.29,-253.45 382.42,-241.07 365,-221 315.74,-164.24 309.77,-128.91 328,-56 330.44,-46.25 335.44,-36.29 340.24,-28.23"/>
<polygon fill="midnightblue" stroke="midnightblue" points="343.21,-30.08 345.63,-19.77 337.31,-26.32 343.21,-30.08"/>
</g>
<!-- Node9 -->
<g id="node9" class="node">
<title>Node9</title>
<g id="a_node9"><a xlink:title=" ">
<polygon fill="none" stroke="#bfbfbf" points="502.5,-196 502.5,-215 567.5,-215 567.5,-196 502.5,-196"/>
<text text-anchor="middle" x="535" y="-203" font-family="Helvetica,sans-Serif" font-size="10.00">exception</text>
</a>
</g>
</g>
<!-- Node8&#45;&gt;Node9 -->
<g id="edge8" class="edge">
<title>Node8&#45;&gt;Node9</title>
<path fill="none" stroke="midnightblue" d="M492.72,-257.4C501.14,-247.26 512.51,-233.57 521.34,-222.94"/>
<polygon fill="midnightblue" stroke="midnightblue" points="524.08,-225.12 527.78,-215.19 518.69,-220.65 524.08,-225.12"/>
</g>
<!-- Node8&#45;&gt;Node10 -->
<g id="edge10" class="edge">
<title>Node8&#45;&gt;Node10</title>
<path fill="none" stroke="midnightblue" d="M508.77,-257.4C530.94,-246.14 561.74,-230.5 583.33,-219.54"/>
<polygon fill="midnightblue" stroke="midnightblue" points="584.92,-222.66 592.25,-215.01 581.75,-216.41 584.92,-222.66"/>
</g>
<!-- Node11 -->
<g id="node11" class="node">
<title>Node11</title>
<g id="a_node11"><a xlink:href="_tank_8h.html" target="_top" xlink:title=" ">
<polygon fill="none" stroke="black" points="374,-190.5 374,-220.5 484,-220.5 484,-190.5 374,-190.5"/>
<text text-anchor="start" x="382" y="-208.5" font-family="Helvetica,sans-Serif" font-size="10.00">../../tank&#45;lib/include</text>
<text text-anchor="middle" x="429" y="-197.5" font-family="Helvetica,sans-Serif" font-size="10.00">/Tank.h</text>
</a>
</g>
</g>
<!-- Node8&#45;&gt;Node11 -->
<g id="edge11" class="edge">
<title>Node8&#45;&gt;Node11</title>
<path fill="none" stroke="midnightblue" d="M469.72,-257.4C462.97,-248.96 454.25,-238.07 446.62,-228.52"/>
<polygon fill="midnightblue" stroke="midnightblue" points="449.24,-226.2 440.26,-220.58 443.78,-230.57 449.24,-226.2"/>
</g>
<!-- Node11&#45;&gt;Node7 -->
<g id="edge12" class="edge">
<title>Node11&#45;&gt;Node7</title>
<path fill="none" stroke="midnightblue" d="M458.59,-190.49C474.18,-181.83 492.59,-169.43 505,-154 525.02,-129.11 525.12,-118.4 531,-87 533.54,-73.46 537.44,-68.18 531,-56 523.58,-41.95 509.58,-31.47 496.38,-24.17"/>
<polygon fill="midnightblue" stroke="midnightblue" points="497.96,-21.04 487.46,-19.62 494.78,-27.28 497.96,-21.04"/>
</g>
<!-- Node12 -->
<g id="node12" class="node">
<title>Node12</title>
<g id="a_node12"><a xlink:title=" ">
<polygon fill="none" stroke="#bfbfbf" points="578,-129 578,-148 634,-148 634,-129 578,-129"/>
<text text-anchor="middle" x="606" y="-136" font-family="Helvetica,sans-Serif" font-size="10.00">optional</text>
</a>
</g>
</g>
<!-- Node11&#45;&gt;Node12 -->
<g id="edge13" class="edge">
<title>Node11&#45;&gt;Node12</title>
<path fill="none" stroke="midnightblue" d="M467.41,-190.4C499.01,-178.79 543.33,-162.51 573.27,-151.52"/>
<polygon fill="midnightblue" stroke="midnightblue" points="574.65,-154.74 582.83,-148.01 572.24,-148.17 574.65,-154.74"/>
</g>
<!-- Node13 -->
<g id="node13" class="node">
<title>Node13</title>
<g id="a_node13"><a xlink:href="_simple_subscriber_8h.html" target="_top" xlink:title=" ">
<polygon fill="none" stroke="black" points="408.5,-56.5 408.5,-86.5 521.5,-86.5 521.5,-56.5 408.5,-56.5"/>
<text text-anchor="start" x="416.5" y="-74.5" font-family="Helvetica,sans-Serif" font-size="10.00">../../core&#45;lib/include</text>
<text text-anchor="middle" x="465" y="-63.5" font-family="Helvetica,sans-Serif" font-size="10.00">/SimpleSubscriber.h</text>
</a>
</g>
</g>
<!-- Node11&#45;&gt;Node13 -->
<g id="edge14" class="edge">
<title>Node11&#45;&gt;Node13</title>
<path fill="none" stroke="midnightblue" d="M455.14,-190.37C468.21,-181.76 482.74,-169.43 490,-154 498.93,-135.02 490.31,-112.07 480.83,-95.37"/>
<polygon fill="midnightblue" stroke="midnightblue" points="483.79,-93.5 475.58,-86.79 477.82,-97.15 483.79,-93.5"/>
</g>
<!-- Node14 -->
<g id="node14" class="node">
<title>Node14</title>
<g id="a_node14"><a xlink:href="_entity_8h.html" target="_top" xlink:title=" ">
<polygon fill="none" stroke="black" points="337.5,-62 337.5,-81 390.5,-81 390.5,-62 337.5,-62"/>
<text text-anchor="middle" x="364" y="-69" font-family="Helvetica,sans-Serif" font-size="10.00">Entity.h</text>
</a>
</g>
</g>
<!-- Node11&#45;&gt;Node14 -->
<g id="edge17" class="edge">
<title>Node11&#45;&gt;Node14</title>
<path fill="none" stroke="midnightblue" d="M403.47,-190.43C390.42,-181.77 375.69,-169.37 368,-154 358.12,-134.26 358.78,-108.34 360.82,-91.09"/>
<polygon fill="midnightblue" stroke="midnightblue" points="364.29,-91.56 362.26,-81.16 357.36,-90.55 364.29,-91.56"/>
</g>
<!-- Node15 -->
<g id="node15" class="node">
<title>Node15</title>
<g id="a_node15"><a xlink:href="_bot_8h.html" target="_top" xlink:title=" ">
<polygon fill="none" stroke="black" points="377,-123.5 377,-153.5 481,-153.5 481,-123.5 377,-123.5"/>
<text text-anchor="start" x="385" y="-141.5" font-family="Helvetica,sans-Serif" font-size="10.00">../../bot&#45;lib/include</text>
<text text-anchor="middle" x="429" y="-130.5" font-family="Helvetica,sans-Serif" font-size="10.00">/Bot.h</text>
</a>
</g>
</g>
<!-- Node11&#45;&gt;Node15 -->
<g id="edge18" class="edge">
<title>Node11&#45;&gt;Node15</title>
<path fill="none" stroke="midnightblue" d="M429,-190.4C429,-182.64 429,-172.81 429,-163.86"/>
<polygon fill="midnightblue" stroke="midnightblue" points="432.5,-163.58 429,-153.58 425.5,-163.58 432.5,-163.58"/>
</g>
<!-- Node13&#45;&gt;Node6 -->
<g id="edge15" class="edge">
<title>Node13&#45;&gt;Node6</title>
<path fill="none" stroke="midnightblue" d="M438.22,-56.4C419.94,-46.77 395.85,-34.09 377.79,-24.58"/>
<polygon fill="midnightblue" stroke="midnightblue" points="378.92,-21.22 368.44,-19.66 375.66,-27.41 378.92,-21.22"/>
</g>
<!-- Node13&#45;&gt;Node7 -->
<g id="edge16" class="edge">
<title>Node13&#45;&gt;Node7</title>
<path fill="none" stroke="midnightblue" d="M465,-56.4C465,-48.47 465,-38.46 465,-29.86"/>
<polygon fill="midnightblue" stroke="midnightblue" points="468.5,-29.66 465,-19.66 461.5,-29.66 468.5,-29.66"/>
</g>
<!-- Node15&#45;&gt;Node13 -->
<g id="edge20" class="edge">
<title>Node15&#45;&gt;Node13</title>
<path fill="none" stroke="midnightblue" d="M436.81,-123.4C441.34,-115.22 447.15,-104.73 452.32,-95.39"/>
<polygon fill="midnightblue" stroke="midnightblue" points="455.42,-97.02 457.2,-86.58 449.3,-93.63 455.42,-97.02"/>
</g>
<!-- Node15&#45;&gt;Node14 -->
<g id="edge19" class="edge">
<title>Node15&#45;&gt;Node14</title>
<path fill="none" stroke="midnightblue" d="M414.9,-123.4C404.56,-113.06 390.52,-99.02 379.81,-88.31"/>
<polygon fill="midnightblue" stroke="midnightblue" points="382.24,-85.79 372.69,-81.19 377.29,-90.74 382.24,-85.79"/>
</g>
</g>
</svg>
        <g id="navigator" transform="translate(0 0)" fill="#404254">
                <rect fill="#f2f5e9" fill-opacity="0.5" stroke="#606060" stroke-width=".5" x="0" y="0" width="60" height="60"/>
                <use id="zoomplus" xlink:href="#zoomPlus" x="17" y="9" onmousedown="handleZoom(evt,'in')"/>
                <use id="zoomminus" xlink:href="#zoomMin" x="42" y="9" onmousedown="handleZoom(evt,'out')"/>
                <use id="reset" xlink:href="#resetDef" x="30" y="36" onmousedown="handleReset()"/>
                <g id="arrowUp" xlink:href="#dirArrow" transform="translate(30 24)" onmousedown="handlePan(0,-1)">
                  <use xlink:href="#rim" fill="#404040">
                        <set attributeName="fill" to="#808080" begin="arrowUp.mouseover" end="arrowUp.mouseout"/>
                  </use>
                  <path fill="none" stroke="white" stroke-width="1.5" d="M0,-3.0v7 M-2.5,-0.5L0,-3.0L2.5,-0.5"/>
                </g>
                <g id="arrowRight" xlink:href="#dirArrow" transform="rotate(90) translate(36 -43)" onmousedown="handlePan(1,0)">
                  <use xlink:href="#rim" fill="#404040">
                        <set attributeName="fill" to="#808080" begin="arrowRight.mouseover" end="arrowRight.mouseout"/>
                  </use>
                  <path fill="none" stroke="white" stroke-width="1.5" d="M0,-3.0v7 M-2.5,-0.5L0,-3.0L2.5,-0.5"/>
                </g>
                <g id="arrowDown" xlink:href="#dirArrow" transform="rotate(180) translate(-30 -48)" onmousedown="handlePan(0,1)">
                  <use xlink:href="#rim" fill="#404040">
                        <set attributeName="fill" to="#808080" begin="arrowDown.mouseover" end="arrowDown.mouseout"/>
                  </use>
                  <path fill="none" stroke="white" stroke-width="1.5" d="M0,-3.0v7 M-2.5,-0.5L0,-3.0L2.5,-0.5"/>
                </g>
                <g id="arrowLeft" xlink:href="#dirArrow" transform="rotate(270) translate(-36 17)" onmousedown="handlePan(-1,0)">
                  <use xlink:href="#rim" fill="#404040">
                        <set attributeName="fill" to="#808080" begin="arrowLeft.mouseover" end="arrowLeft.mouseout"/>
                  </use>
                  <path fill="none" stroke="white" stroke-width="1.5" d="M0,-3.0v7 M-2.5,-0.5L0,-3.0L2.5,-0.5"/>
                </g>
        </g>
        <svg viewBox="0 0 15 15" width="100%" height="30px" preserveAspectRatio="xMaxYMin meet">
         <g id="arrow_out" transform="scale(0.3 0.3)">
          <a xlink:href="_tiles_graphic_8h__incl_org.svg" target="_base">
           <rect id="button" ry="5" rx="5" y="6" x="6" height="38" width="38"
                fill="#f2f5e9" fill-opacity="0.5" stroke="#606060" stroke-width="1.0"/>
           <path id="arrow"
             d="M 11.500037,31.436501 C 11.940474,20.09759 22.043105,11.32322 32.158766,21.979434 L 37.068811,17.246167 C 37.068811,17.246167 37.088388,32 37.088388,32 L 22.160133,31.978069 C 22.160133,31.978069 26.997745,27.140456 26.997745,27.140456 C 18.528582,18.264221 13.291696,25.230495 11.500037,31.436501 z"
             style="fill:#404040;"/>
          </a>
         </g>
        </svg>
</svg>
