<?xml version="1.0" encoding="UTF-8" standalone="no"?>
<!DOCTYPE svg PUBLIC "-//W3C//DTD SVG 1.1//EN"
 "http://www.w3.org/Graphics/SVG/1.1/DTD/svg11.dtd">
<!-- Generated by graphviz version 2.43.0 (0)
 -->
<!-- Title: BotController Pages: 1 -->
<!--zoomable 1085 -->
<svg id="main" version="1.1" xmlns="http://www.w3.org/2000/svg" xmlns:xlink="http://www.w3.org/1999/xlink" xml:space="preserve" onload="init(evt)">
<style type="text/css"><![CDATA[
.edge:hover path { stroke: red; }
.edge:hover polygon { stroke: red; fill: red; }
]]></style>
<script type="text/javascript"><![CDATA[
var edges = document.getElementsByTagName('g');
if (edges && edges.length) {
  for (var i=0;i<edges.length;i++) {
    if (edges[i].id.substr(0,4)=='edge') {
      edges[i].setAttribute('class','edge');
    }
  }
}
]]></script>
        <defs>
                <circle id="rim" cx="0" cy="0" r="7"/>
                <circle id="rim2" cx="0" cy="0" r="3.5"/>
                <g id="zoomPlus">
                        <use xlink:href="#rim" fill="#404040">
                                <set attributeName="fill" to="#808080" begin="zoomplus.mouseover" end="zoomplus.mouseout"/>
                        </use>
                        <path d="M-4,0h8M0,-4v8" fill="none" stroke="white" stroke-width="1.5" pointer-events="none"/>
                </g>
                <g id="zoomMin">
                        <use xlink:href="#rim" fill="#404040">
                                <set attributeName="fill" to="#808080" begin="zoomminus.mouseover" end="zoomminus.mouseout"/>
                        </use>
                        <path d="M-4,0h8" fill="none" stroke="white" stroke-width="1.5" pointer-events="none"/>
                </g>
                <g id="dirArrow">
                        <path fill="none" stroke="white" stroke-width="1.5" d="M0,-3.0v7 M-2.5,-0.5L0,-3.0L2.5,-0.5"/>
                </g>
               <g id="resetDef">
                       <use xlink:href="#rim2" fill="#404040">
                               <set attributeName="fill" to="#808080" begin="reset.mouseover" end="reset.mouseout"/>
                       </use>
               </g>
        </defs>

<script type="text/javascript">
var viewWidth = 1078;
var viewHeight = 1085;
var sectionId = 'dynsection-1';
</script>
<script xlink:href="svgpan.js"/>
<svg id="graph" class="graph">
<g id="viewport">
<title>BotController</title>
<!-- Node1 -->
<g id="node1" class="node">
<title>Node1</title>
<g id="a_node1"><a xlink:title=" ">
<polygon fill="#bfbfbf" stroke="black" points="404.5,-0.5 404.5,-387.5 586.5,-387.5 586.5,-0.5 404.5,-0.5"/>
<text text-anchor="middle" x="495.5" y="-375.5" font-family="Helvetica,sans-Serif" font-size="10.00">BotController</text>
<polyline fill="none" stroke="black" points="404.5,-368.5 586.5,-368.5 "/>
<text text-anchor="middle" x="495.5" y="-356.5" font-family="Helvetica,sans-Serif" font-size="10.00"> </text>
<polyline fill="none" stroke="black" points="404.5,-349.5 586.5,-349.5 "/>
<text text-anchor="start" x="412.5" y="-337.5" font-family="Helvetica,sans-Serif" font-size="10.00">+ BotController()=delete</text>
<text text-anchor="start" x="412.5" y="-326.5" font-family="Helvetica,sans-Serif" font-size="10.00">+ BotController &amp; operator</text>
<text text-anchor="start" x="412.5" y="-315.5" font-family="Helvetica,sans-Serif" font-size="10.00">=(const BotController &amp;other)</text>
<text text-anchor="start" x="412.5" y="-304.5" font-family="Helvetica,sans-Serif" font-size="10.00">=delete</text>
<text text-anchor="start" x="412.5" y="-293.5" font-family="Helvetica,sans-Serif" font-size="10.00">+ void makeBotDecision</text>
<text text-anchor="start" x="412.5" y="-282.5" font-family="Helvetica,sans-Serif" font-size="10.00">(const std::shared_ptr</text>
<text text-anchor="start" x="412.5" y="-271.5" font-family="Helvetica,sans-Serif" font-size="10.00">&lt; Bot &gt; &amp;bot)</text>
<text text-anchor="start" x="412.5" y="-260.5" font-family="Helvetica,sans-Serif" font-size="10.00">+ void registerBot()</text>
<text text-anchor="start" x="412.5" y="-249.5" font-family="Helvetica,sans-Serif" font-size="10.00">+ void deregisterBot()</text>
<text text-anchor="start" x="412.5" y="-238.5" font-family="Helvetica,sans-Serif" font-size="10.00">+ void deregisterAllBots()</text>
<text text-anchor="start" x="412.5" y="-227.5" font-family="Helvetica,sans-Serif" font-size="10.00">+ unsigned int getRegistered</text>
<text text-anchor="start" x="412.5" y="-216.5" font-family="Helvetica,sans-Serif" font-size="10.00">BotsCount() const</text>
<text text-anchor="start" x="412.5" y="-205.5" font-family="Helvetica,sans-Serif" font-size="10.00">+ void notify(SimplePublisher</text>
<text text-anchor="start" x="412.5" y="-194.5" font-family="Helvetica,sans-Serif" font-size="10.00"> *pub) override</text>
<text text-anchor="start" x="412.5" y="-183.5" font-family="Helvetica,sans-Serif" font-size="10.00">+ void setSpawnpoints</text>
<text text-anchor="start" x="412.5" y="-172.5" font-family="Helvetica,sans-Serif" font-size="10.00">(const std::vector&lt;</text>
<text text-anchor="start" x="412.5" y="-161.5" font-family="Helvetica,sans-Serif" font-size="10.00"> std::pair&lt; unsigned</text>
<text text-anchor="start" x="412.5" y="-150.5" font-family="Helvetica,sans-Serif" font-size="10.00"> int, unsigned int &gt; &gt;</text>
<text text-anchor="start" x="412.5" y="-139.5" font-family="Helvetica,sans-Serif" font-size="10.00"> &amp;spawnpoints)</text>
<text text-anchor="start" x="412.5" y="-128.5" font-family="Helvetica,sans-Serif" font-size="10.00">+ void setTypes(const</text>
<text text-anchor="start" x="412.5" y="-117.5" font-family="Helvetica,sans-Serif" font-size="10.00"> std::queue&lt; Tank::TankType</text>
<text text-anchor="start" x="412.5" y="-106.5" font-family="Helvetica,sans-Serif" font-size="10.00"> &gt; &amp;types)</text>
<text text-anchor="start" x="412.5" y="-95.5" font-family="Helvetica,sans-Serif" font-size="10.00">+ static BotController</text>
<text text-anchor="start" x="412.5" y="-84.5" font-family="Helvetica,sans-Serif" font-size="10.00"> * instance()</text>
<text text-anchor="start" x="412.5" y="-73.5" font-family="Helvetica,sans-Serif" font-size="10.00">+ static void initialize</text>
<text text-anchor="start" x="412.5" y="-62.5" font-family="Helvetica,sans-Serif" font-size="10.00">(unsigned int maxRegisteredBots,</text>
<text text-anchor="start" x="412.5" y="-51.5" font-family="Helvetica,sans-Serif" font-size="10.00"> unsigned int spawnCooldown)</text>
<text text-anchor="start" x="412.5" y="-40.5" font-family="Helvetica,sans-Serif" font-size="10.00"># BotController(unsigned</text>
<text text-anchor="start" x="412.5" y="-29.5" font-family="Helvetica,sans-Serif" font-size="10.00"> int n_maxRegisteredBots,</text>
<text text-anchor="start" x="412.5" y="-18.5" font-family="Helvetica,sans-Serif" font-size="10.00"> unsigned int n_spawnCooldown)</text>
<text text-anchor="start" x="412.5" y="-7.5" font-family="Helvetica,sans-Serif" font-size="10.00"># void requestSpawnBot()</text>
</a>
</g>
</g>
<!-- Node2 -->
<g id="node2" class="node">
<title>Node2</title>
<g id="a_node2"><a xlink:href="class_simple_subscriber.html" target="_top" xlink:title=" ">
<polygon fill="none" stroke="black" points="0,-512.5 0,-679.5 193,-679.5 193,-512.5 0,-512.5"/>
<text text-anchor="middle" x="96.5" y="-667.5" font-family="Helvetica,sans-Serif" font-size="10.00">SimpleSubscriber</text>
<polyline fill="none" stroke="black" points="0,-660.5 193,-660.5 "/>
<text text-anchor="middle" x="96.5" y="-648.5" font-family="Helvetica,sans-Serif" font-size="10.00"> </text>
<polyline fill="none" stroke="black" points="0,-641.5 193,-641.5 "/>
<text text-anchor="start" x="8" y="-629.5" font-family="Helvetica,sans-Serif" font-size="10.00">+ ~SimpleSubscriber()</text>
<text text-anchor="start" x="8" y="-618.5" font-family="Helvetica,sans-Serif" font-size="10.00">+ void subscribe(SimplePublisher</text>
<text text-anchor="start" x="8" y="-607.5" font-family="Helvetica,sans-Serif" font-size="10.00"> *pub)</text>
<text text-anchor="start" x="8" y="-596.5" font-family="Helvetica,sans-Serif" font-size="10.00">+ void unsubscribe(SimplePublisher</text>
<text text-anchor="start" x="8" y="-585.5" font-family="Helvetica,sans-Serif" font-size="10.00"> *pub)</text>
<text text-anchor="start" x="8" y="-574.5" font-family="Helvetica,sans-Serif" font-size="10.00">+ void removeDeletedSubject</text>
<text text-anchor="start" x="8" y="-563.5" font-family="Helvetica,sans-Serif" font-size="10.00">(SimplePublisher *pub)</text>
<text text-anchor="start" x="8" y="-552.5" font-family="Helvetica,sans-Serif" font-size="10.00">+ virtual void notify</text>
<text text-anchor="start" x="8" y="-541.5" font-family="Helvetica,sans-Serif" font-size="10.00">(SimplePublisher *pub)=0</text>
<text text-anchor="start" x="8" y="-530.5" font-family="Helvetica,sans-Serif" font-size="10.00"># SimpleSubscriber()</text>
<text text-anchor="start" x="8" y="-519.5" font-family="Helvetica,sans-Serif" font-size="10.00">=default</text>
</a>
</g>
</g>
<!-- Node2&#45;&gt;Node1 -->
<g id="edge1" class="edge">
<title>Node2&#45;&gt;Node1</title>
<path fill="none" stroke="midnightblue" d="M186.58,-504.69C251.57,-439.54 338.98,-351.91 404.23,-286.5"/>
<polygon fill="none" stroke="midnightblue" points="183.76,-502.57 179.17,-512.12 188.71,-507.51 183.76,-502.57"/>
</g>
<!-- Node3 -->
<g id="node3" class="node">
<title>Node3</title>
<g id="a_node3"><a xlink:title=" ">
<polygon fill="none" stroke="black" points="18,-826.5 18,-883.5 175,-883.5 175,-826.5 18,-826.5"/>
<text text-anchor="middle" x="96.5" y="-871.5" font-family="Helvetica,sans-Serif" font-size="10.00">vector&lt; SimplePublisher * &gt;</text>
<polyline fill="none" stroke="black" points="18,-864.5 175,-864.5 "/>
<text text-anchor="middle" x="96.5" y="-852.5" font-family="Helvetica,sans-Serif" font-size="10.00"> </text>
<polyline fill="none" stroke="black" points="18,-845.5 175,-845.5 "/>
<text text-anchor="middle" x="96.5" y="-833.5" font-family="Helvetica,sans-Serif" font-size="10.00"> </text>
</a>
</g>
</g>
<!-- Node3&#45;&gt;Node2 -->
<g id="edge2" class="edge">
<title>Node3&#45;&gt;Node2</title>
<path fill="none" stroke="#404040" d="M96.5,-826.5C96.5,-794.44 96.5,-739.75 96.5,-691.79"/>
<polygon fill="none" stroke="#404040" points="96.5,-691.76 92.5,-685.76 96.5,-679.76 100.5,-685.76 96.5,-691.76"/>
<text text-anchor="middle" x="152" y="-723" font-family="Helvetica,sans-Serif" font-size="10.00"> #subscribedSubjects_</text>
</g>
<!-- Node4 -->
<g id="node4" class="node">
<title>Node4</title>
<g id="a_node4"><a xlink:title=" ">
<polygon fill="none" stroke="black" points="211.5,-556.5 211.5,-635.5 341.5,-635.5 341.5,-556.5 211.5,-556.5"/>
<text text-anchor="start" x="219.5" y="-623.5" font-family="Helvetica,sans-Serif" font-size="10.00">vector&lt; std::pair&lt;</text>
<text text-anchor="start" x="219.5" y="-612.5" font-family="Helvetica,sans-Serif" font-size="10.00"> unsigned int, unsigned</text>
<text text-anchor="middle" x="276.5" y="-601.5" font-family="Helvetica,sans-Serif" font-size="10.00"> int &gt; &gt;</text>
<polyline fill="none" stroke="black" points="211.5,-594.5 341.5,-594.5 "/>
<text text-anchor="middle" x="276.5" y="-582.5" font-family="Helvetica,sans-Serif" font-size="10.00"> </text>
<polyline fill="none" stroke="black" points="211.5,-575.5 341.5,-575.5 "/>
<text text-anchor="middle" x="276.5" y="-563.5" font-family="Helvetica,sans-Serif" font-size="10.00"> </text>
</a>
</g>
</g>
<!-- Node4&#45;&gt;Node1 -->
<g id="edge3" class="edge">
<title>Node4&#45;&gt;Node1</title>
<path fill="none" stroke="#404040" d="M294.48,-556.16C312.58,-517.62 341.74,-457.09 369.5,-406 378.57,-389.31 388.29,-372.05 398.17,-354.92"/>
<polygon fill="none" stroke="#404040" points="398.32,-354.65 397.87,-347.46 404.34,-344.27 404.79,-351.47 398.32,-354.65"/>
<text text-anchor="middle" x="409" y="-436.5" font-family="Helvetica,sans-Serif" font-size="10.00"> #spawnpoints_</text>
</g>
<!-- Node5 -->
<g id="node5" class="node">
<title>Node5</title>
<g id="a_node5"><a xlink:title=" ">
<polygon fill="none" stroke="black" points="360,-567.5 360,-624.5 503,-624.5 503,-567.5 360,-567.5"/>
<text text-anchor="middle" x="431.5" y="-612.5" font-family="Helvetica,sans-Serif" font-size="10.00">queue&lt; Tank::TankType &gt;</text>
<polyline fill="none" stroke="black" points="360,-605.5 503,-605.5 "/>
<text text-anchor="middle" x="431.5" y="-593.5" font-family="Helvetica,sans-Serif" font-size="10.00"> </text>
<polyline fill="none" stroke="black" points="360,-586.5 503,-586.5 "/>
<text text-anchor="middle" x="431.5" y="-574.5" font-family="Helvetica,sans-Serif" font-size="10.00"> </text>
</a>
</g>
</g>
<!-- Node5&#45;&gt;Node1 -->
<g id="edge4" class="edge">
<title>Node5&#45;&gt;Node1</title>
<path fill="none" stroke="#404040" d="M435.95,-567.19C441.67,-531.42 452.14,-466 462.72,-399.86"/>
<polygon fill="none" stroke="#404040" points="462.73,-399.8 459.73,-393.24 464.63,-387.95 467.63,-394.51 462.73,-399.8"/>
<text text-anchor="middle" x="484.5" y="-436.5" font-family="Helvetica,sans-Serif" font-size="10.00"> #types_</text>
</g>
<!-- Node6 -->
<g id="node6" class="node">
<title>Node6</title>
<g id="a_node6"><a xlink:title=" ">
<polygon fill="none" stroke="black" points="521,-567.5 521,-624.5 598,-624.5 598,-567.5 521,-567.5"/>
<text text-anchor="middle" x="559.5" y="-612.5" font-family="Helvetica,sans-Serif" font-size="10.00">unsigned int</text>
<polyline fill="none" stroke="black" points="521,-605.5 598,-605.5 "/>
<text text-anchor="middle" x="559.5" y="-593.5" font-family="Helvetica,sans-Serif" font-size="10.00"> </text>
<polyline fill="none" stroke="black" points="521,-586.5 598,-586.5 "/>
<text text-anchor="middle" x="559.5" y="-574.5" font-family="Helvetica,sans-Serif" font-size="10.00"> </text>
</a>
</g>
</g>
<!-- Node6&#45;&gt;Node1 -->
<g id="edge5" class="edge">
<title>Node6&#45;&gt;Node1</title>
<path fill="none" stroke="#404040" d="M555.05,-567.19C549.33,-531.42 538.86,-466 528.28,-399.86"/>
<polygon fill="none" stroke="#404040" points="528.27,-399.8 523.37,-394.51 526.37,-387.95 531.27,-393.24 528.27,-399.8"/>
<text text-anchor="start" x="539.5" y="-464" font-family="Helvetica,sans-Serif" font-size="10.00"> #maxRegisteredBots</text>
<text text-anchor="middle" x="595" y="-453" font-family="Helvetica,sans-Serif" font-size="10.00">_</text>
<text text-anchor="middle" x="595" y="-442" font-family="Helvetica,sans-Serif" font-size="10.00">#maxSpawnCooldown</text>
<text text-anchor="start" x="539.5" y="-431" font-family="Helvetica,sans-Serif" font-size="10.00">#registeredBots</text>
<text text-anchor="middle" x="595" y="-420" font-family="Helvetica,sans-Serif" font-size="10.00">_</text>
<text text-anchor="middle" x="595" y="-409" font-family="Helvetica,sans-Serif" font-size="10.00">#spawnCooldown</text>
</g>
<!-- Node7 -->
<g id="node7" class="node">
<title>Node7</title>
<g id="a_node7"><a xlink:title=" ">
<polygon fill="none" stroke="black" points="616,-567.5 616,-624.5 771,-624.5 771,-567.5 616,-567.5"/>
<text text-anchor="middle" x="693.5" y="-612.5" font-family="Helvetica,sans-Serif" font-size="10.00">unique_ptr&lt; BotController &gt;</text>
<polyline fill="none" stroke="black" points="616,-605.5 771,-605.5 "/>
<text text-anchor="middle" x="693.5" y="-593.5" font-family="Helvetica,sans-Serif" font-size="10.00"> </text>
<polyline fill="none" stroke="black" points="616,-586.5 771,-586.5 "/>
<text text-anchor="middle" x="693.5" y="-574.5" font-family="Helvetica,sans-Serif" font-size="10.00"> </text>
</a>
</g>
</g>
<!-- Node7&#45;&gt;Node1 -->
<g id="edge6" class="edge">
<title>Node7&#45;&gt;Node1</title>
<path fill="none" stroke="#404040" d="M691.6,-567.23C688.17,-529.31 678.86,-459.88 654.5,-406 638.9,-371.49 616.82,-337.3 594.07,-306.8"/>
<polygon fill="none" stroke="#404040" points="593.91,-306.59 587.1,-304.23 586.66,-297.03 593.48,-299.4 593.91,-306.59"/>
<text text-anchor="middle" x="694" y="-436.5" font-family="Helvetica,sans-Serif" font-size="10.00"> #self_</text>
</g>
<!-- Node8 -->
<g id="node8" class="node">
<title>Node8</title>
<g id="a_node8"><a xlink:href="class_event_queue.html" target="_top" xlink:title=" ">
<polygon fill="none" stroke="black" points="789.5,-490.5 789.5,-701.5 939.5,-701.5 939.5,-490.5 789.5,-490.5"/>
<text text-anchor="middle" x="864.5" y="-689.5" font-family="Helvetica,sans-Serif" font-size="10.00">EventQueue&lt; Event &gt;</text>
<polyline fill="none" stroke="black" points="789.5,-682.5 939.5,-682.5 "/>
<text text-anchor="middle" x="864.5" y="-670.5" font-family="Helvetica,sans-Serif" font-size="10.00"> </text>
<polyline fill="none" stroke="black" points="789.5,-663.5 939.5,-663.5 "/>
<text text-anchor="start" x="797.5" y="-651.5" font-family="Helvetica,sans-Serif" font-size="10.00">+ EventQueue(EventQueue</text>
<text text-anchor="start" x="797.5" y="-640.5" font-family="Helvetica,sans-Serif" font-size="10.00"> &amp;)=delete</text>
<text text-anchor="start" x="797.5" y="-629.5" font-family="Helvetica,sans-Serif" font-size="10.00">+ bool operator=(const</text>
<text text-anchor="start" x="797.5" y="-618.5" font-family="Helvetica,sans-Serif" font-size="10.00"> EventQueue &amp;)=delete</text>
<text text-anchor="start" x="797.5" y="-607.5" font-family="Helvetica,sans-Serif" font-size="10.00">+ void registerEvent</text>
<text text-anchor="start" x="797.5" y="-596.5" font-family="Helvetica,sans-Serif" font-size="10.00">(std::unique_ptr&lt; Event</text>
<text text-anchor="start" x="797.5" y="-585.5" font-family="Helvetica,sans-Serif" font-size="10.00"> &gt; event)</text>
<text text-anchor="start" x="797.5" y="-574.5" font-family="Helvetica,sans-Serif" font-size="10.00">+ std::unique_ptr&lt; Event</text>
<text text-anchor="start" x="797.5" y="-563.5" font-family="Helvetica,sans-Serif" font-size="10.00"> &gt; pop()</text>
<text text-anchor="start" x="797.5" y="-552.5" font-family="Helvetica,sans-Serif" font-size="10.00">+ bool isEmpty()</text>
<text text-anchor="start" x="797.5" y="-541.5" font-family="Helvetica,sans-Serif" font-size="10.00">+ unsigned int size()</text>
<text text-anchor="start" x="797.5" y="-530.5" font-family="Helvetica,sans-Serif" font-size="10.00">+ void clear()</text>
<text text-anchor="start" x="797.5" y="-519.5" font-family="Helvetica,sans-Serif" font-size="10.00">+ static EventQueue *</text>
<text text-anchor="start" x="797.5" y="-508.5" font-family="Helvetica,sans-Serif" font-size="10.00"> instance()</text>
<text text-anchor="start" x="797.5" y="-497.5" font-family="Helvetica,sans-Serif" font-size="10.00">&#45; EventQueue()=default</text>
</a>
</g>
</g>
<!-- Node8&#45;&gt;Node1 -->
<g id="edge7" class="edge">
<title>Node8&#45;&gt;Node1</title>
<path fill="none" stroke="#404040" d="M789.29,-494.29C766.4,-465.12 740.63,-433.69 715.5,-406 678.13,-364.82 634.37,-321.9 595.77,-285.6"/>
<polygon fill="none" stroke="#404040" points="595.35,-285.21 588.23,-284.02 586.59,-277 593.7,-278.19 595.35,-285.21"/>
<text text-anchor="middle" x="809.5" y="-436.5" font-family="Helvetica,sans-Serif" font-size="10.00"> #eventQueue_</text>
</g>
<!-- Node9 -->
<g id="node9" class="node">
<title>Node9</title>
<g id="a_node9"><a xlink:href="classstd_1_1queue_3_01std_1_1unique__ptr_3_01_event_01_4_01_4.html" target="_top" xlink:title=" ">
<polygon fill="none" stroke="black" points="716.5,-821 716.5,-889 828.5,-889 828.5,-821 716.5,-821"/>
<text text-anchor="start" x="724.5" y="-877" font-family="Helvetica,sans-Serif" font-size="10.00">queue&lt; std::unique</text>
<text text-anchor="middle" x="772.5" y="-866" font-family="Helvetica,sans-Serif" font-size="10.00">_ptr&lt; Event &gt; &gt;</text>
<polyline fill="none" stroke="black" points="716.5,-859 828.5,-859 "/>
<text text-anchor="middle" x="772.5" y="-847" font-family="Helvetica,sans-Serif" font-size="10.00"> </text>
<polyline fill="none" stroke="black" points="716.5,-840 828.5,-840 "/>
<text text-anchor="middle" x="772.5" y="-828" font-family="Helvetica,sans-Serif" font-size="10.00"> </text>
</a>
</g>
</g>
<!-- Node9&#45;&gt;Node8 -->
<g id="edge8" class="edge">
<title>Node9&#45;&gt;Node8</title>
<path fill="none" stroke="#404040" d="M776.85,-820.82C781.06,-793.27 788.59,-753.35 800.5,-720 801.3,-717.75 802.14,-715.48 803.01,-713.21"/>
<polygon fill="none" stroke="#404040" points="803.11,-712.97 801.64,-705.91 807.59,-701.83 809.06,-708.89 803.11,-712.97"/>
<text text-anchor="middle" x="825.5" y="-723" font-family="Helvetica,sans-Serif" font-size="10.00"> #events_</text>
</g>
<!-- Node10 -->
<g id="node10" class="node">
<title>Node10</title>
<g id="a_node10"><a xlink:title=" ">
<polygon fill="none" stroke="black" points="789.5,-1014 789.5,-1071 939.5,-1071 939.5,-1014 789.5,-1014"/>
<text text-anchor="middle" x="864.5" y="-1059" font-family="Helvetica,sans-Serif" font-size="10.00">unique_ptr&lt; EventQueue &gt;</text>
<polyline fill="none" stroke="black" points="789.5,-1052 939.5,-1052 "/>
<text text-anchor="middle" x="864.5" y="-1040" font-family="Helvetica,sans-Serif" font-size="10.00"> </text>
<polyline fill="none" stroke="black" points="789.5,-1033 939.5,-1033 "/>
<text text-anchor="middle" x="864.5" y="-1021" font-family="Helvetica,sans-Serif" font-size="10.00"> </text>
</a>
</g>
</g>
<!-- Node10&#45;&gt;Node8 -->
<g id="edge9" class="edge">
<title>Node10&#45;&gt;Node8</title>
<path fill="none" stroke="#404040" d="M864.5,-1013.69C864.5,-954.98 864.5,-815.4 864.5,-713.93"/>
<polygon fill="none" stroke="#404040" points="864.5,-713.75 860.5,-707.75 864.5,-701.75 868.5,-707.75 864.5,-713.75"/>
<text text-anchor="middle" x="882" y="-852.5" font-family="Helvetica,sans-Serif" font-size="10.00"> #self_</text>
</g>
<!-- Node11 -->
<g id="node11" class="node">
<title>Node11</title>
<g id="a_node11"><a xlink:href="class_event_queue.html" target="_top" xlink:title="Singleton class wrapper for std::queue&lt;E&gt;.">
<polygon fill="none" stroke="black" points="917.5,-749.5 917.5,-960.5 1067.5,-960.5 1067.5,-749.5 917.5,-749.5"/>
<text text-anchor="middle" x="992.5" y="-948.5" font-family="Helvetica,sans-Serif" font-size="10.00">EventQueue&lt; E &gt;</text>
<polyline fill="none" stroke="black" points="917.5,-941.5 1067.5,-941.5 "/>
<text text-anchor="middle" x="992.5" y="-929.5" font-family="Helvetica,sans-Serif" font-size="10.00"> </text>
<polyline fill="none" stroke="black" points="917.5,-922.5 1067.5,-922.5 "/>
<text text-anchor="start" x="925.5" y="-910.5" font-family="Helvetica,sans-Serif" font-size="10.00">+ EventQueue(EventQueue</text>
<text text-anchor="start" x="925.5" y="-899.5" font-family="Helvetica,sans-Serif" font-size="10.00"> &amp;)=delete</text>
<text text-anchor="start" x="925.5" y="-888.5" font-family="Helvetica,sans-Serif" font-size="10.00">+ bool operator=(const</text>
<text text-anchor="start" x="925.5" y="-877.5" font-family="Helvetica,sans-Serif" font-size="10.00"> EventQueue &amp;)=delete</text>
<text text-anchor="start" x="925.5" y="-866.5" font-family="Helvetica,sans-Serif" font-size="10.00">+ void registerEvent</text>
<text text-anchor="start" x="925.5" y="-855.5" font-family="Helvetica,sans-Serif" font-size="10.00">(std::unique_ptr&lt; E</text>
<text text-anchor="start" x="925.5" y="-844.5" font-family="Helvetica,sans-Serif" font-size="10.00"> &gt; event)</text>
<text text-anchor="start" x="925.5" y="-833.5" font-family="Helvetica,sans-Serif" font-size="10.00">+ std::unique_ptr&lt; E</text>
<text text-anchor="start" x="925.5" y="-822.5" font-family="Helvetica,sans-Serif" font-size="10.00"> &gt; pop()</text>
<text text-anchor="start" x="925.5" y="-811.5" font-family="Helvetica,sans-Serif" font-size="10.00">+ bool isEmpty()</text>
<text text-anchor="start" x="925.5" y="-800.5" font-family="Helvetica,sans-Serif" font-size="10.00">+ unsigned int size()</text>
<text text-anchor="start" x="925.5" y="-789.5" font-family="Helvetica,sans-Serif" font-size="10.00">+ void clear()</text>
<text text-anchor="start" x="925.5" y="-778.5" font-family="Helvetica,sans-Serif" font-size="10.00">+ static EventQueue *</text>
<text text-anchor="start" x="925.5" y="-767.5" font-family="Helvetica,sans-Serif" font-size="10.00"> instance()</text>
<text text-anchor="start" x="925.5" y="-756.5" font-family="Helvetica,sans-Serif" font-size="10.00">&#45; EventQueue()=default</text>
</a>
</g>
</g>
<!-- Node10&#45;&gt;Node11 -->
<g id="edge12" class="edge">
<title>Node10&#45;&gt;Node11</title>
<path fill="none" stroke="#404040" d="M883.66,-1013.73C891.98,-1001.68 902.33,-986.68 913.31,-970.77"/>
<polygon fill="none" stroke="#404040" points="913.4,-970.64 913.51,-963.43 920.21,-960.76 920.1,-967.97 913.4,-970.64"/>
<text text-anchor="middle" x="924" y="-982" font-family="Helvetica,sans-Serif" font-size="10.00"> #self_</text>
</g>
<!-- Node11&#45;&gt;Node8 -->
<g id="edge10" class="edge">
<title>Node11&#45;&gt;Node8</title>
<path fill="none" stroke="orange" d="M935.83,-740.22C929.47,-727.46 923.02,-714.5 916.72,-701.86"/>
<polygon fill="orange" stroke="orange" points="932.85,-742.08 940.44,-749.47 939.11,-738.96 932.85,-742.08"/>
<text text-anchor="middle" x="955.5" y="-723" font-family="Helvetica,sans-Serif" font-size="10.00"> &lt; Event &gt;</text>
</g>
<!-- Node12 -->
<g id="node12" class="node">
<title>Node12</title>
<g id="a_node12"><a xlink:title=" ">
<polygon fill="none" stroke="black" points="957.5,-1008.5 957.5,-1076.5 1069.5,-1076.5 1069.5,-1008.5 957.5,-1008.5"/>
<text text-anchor="start" x="965.5" y="-1064.5" font-family="Helvetica,sans-Serif" font-size="10.00">queue&lt; std::unique</text>
<text text-anchor="middle" x="1013.5" y="-1053.5" font-family="Helvetica,sans-Serif" font-size="10.00">_ptr&lt; E &gt; &gt;</text>
<polyline fill="none" stroke="black" points="957.5,-1046.5 1069.5,-1046.5 "/>
<text text-anchor="middle" x="1013.5" y="-1034.5" font-family="Helvetica,sans-Serif" font-size="10.00"> </text>
<polyline fill="none" stroke="black" points="957.5,-1027.5 1069.5,-1027.5 "/>
<text text-anchor="middle" x="1013.5" y="-1015.5" font-family="Helvetica,sans-Serif" font-size="10.00"> </text>
</a>
</g>
</g>
<!-- Node12&#45;&gt;Node11 -->
<g id="edge11" class="edge">
<title>Node12&#45;&gt;Node11</title>
<path fill="none" stroke="#404040" d="M1009.75,-1008.34C1008.56,-997.88 1007.18,-985.68 1005.72,-972.81"/>
<polygon fill="none" stroke="#404040" points="1005.72,-972.77 1001.07,-967.25 1004.37,-960.84 1009.02,-966.36 1005.72,-972.77"/>
<text text-anchor="middle" x="1032.5" y="-982" font-family="Helvetica,sans-Serif" font-size="10.00"> #events_</text>
</g>
</g>
</svg>
        <g id="navigator" transform="translate(0 0)" fill="#404254">
                <rect fill="#f2f5e9" fill-opacity="0.5" stroke="#606060" stroke-width=".5" x="0" y="0" width="60" height="60"/>
                <use id="zoomplus" xlink:href="#zoomPlus" x="17" y="9" onmousedown="handleZoom(evt,'in')"/>
                <use id="zoomminus" xlink:href="#zoomMin" x="42" y="9" onmousedown="handleZoom(evt,'out')"/>
                <use id="reset" xlink:href="#resetDef" x="30" y="36" onmousedown="handleReset()"/>
                <g id="arrowUp" xlink:href="#dirArrow" transform="translate(30 24)" onmousedown="handlePan(0,-1)">
                  <use xlink:href="#rim" fill="#404040">
                        <set attributeName="fill" to="#808080" begin="arrowUp.mouseover" end="arrowUp.mouseout"/>
                  </use>
                  <path fill="none" stroke="white" stroke-width="1.5" d="M0,-3.0v7 M-2.5,-0.5L0,-3.0L2.5,-0.5"/>
                </g>
                <g id="arrowRight" xlink:href="#dirArrow" transform="rotate(90) translate(36 -43)" onmousedown="handlePan(1,0)">
                  <use xlink:href="#rim" fill="#404040">
                        <set attributeName="fill" to="#808080" begin="arrowRight.mouseover" end="arrowRight.mouseout"/>
                  </use>
                  <path fill="none" stroke="white" stroke-width="1.5" d="M0,-3.0v7 M-2.5,-0.5L0,-3.0L2.5,-0.5"/>
                </g>
                <g id="arrowDown" xlink:href="#dirArrow" transform="rotate(180) translate(-30 -48)" onmousedown="handlePan(0,1)">
                  <use xlink:href="#rim" fill="#404040">
                        <set attributeName="fill" to="#808080" begin="arrowDown.mouseover" end="arrowDown.mouseout"/>
                  </use>
                  <path fill="none" stroke="white" stroke-width="1.5" d="M0,-3.0v7 M-2.5,-0.5L0,-3.0L2.5,-0.5"/>
                </g>
                <g id="arrowLeft" xlink:href="#dirArrow" transform="rotate(270) translate(-36 17)" onmousedown="handlePan(-1,0)">
                  <use xlink:href="#rim" fill="#404040">
                        <set attributeName="fill" to="#808080" begin="arrowLeft.mouseover" end="arrowLeft.mouseout"/>
                  </use>
                  <path fill="none" stroke="white" stroke-width="1.5" d="M0,-3.0v7 M-2.5,-0.5L0,-3.0L2.5,-0.5"/>
                </g>
        </g>
        <svg viewBox="0 0 15 15" width="100%" height="30px" preserveAspectRatio="xMaxYMin meet">
         <g id="arrow_out" transform="scale(0.3 0.3)">
          <a xlink:href="class_bot_controller__coll__graph_org.svg" target="_base">
           <rect id="button" ry="5" rx="5" y="6" x="6" height="38" width="38"
                fill="#f2f5e9" fill-opacity="0.5" stroke="#606060" stroke-width="1.0"/>
           <path id="arrow"
             d="M 11.500037,31.436501 C 11.940474,20.09759 22.043105,11.32322 32.158766,21.979434 L 37.068811,17.246167 C 37.068811,17.246167 37.088388,32 37.088388,32 L 22.160133,31.978069 C 22.160133,31.978069 26.997745,27.140456 26.997745,27.140456 C 18.528582,18.264221 13.291696,25.230495 11.500037,31.436501 z"
             style="fill:#404040;"/>
          </a>
         </g>
        </svg>
</svg>
