<?xml version="1.0" encoding="UTF-8" standalone="no"?>
<!DOCTYPE svg PUBLIC "-//W3C//DTD SVG 1.1//EN"
 "http://www.w3.org/Graphics/SVG/1.1/DTD/svg11.dtd">
<!-- Generated by graphviz version 2.43.0 (0)
 -->
<!-- Title: TanksGraphic Pages: 1 -->
<svg width="1046pt" height="722pt"
 viewBox="0.00 0.00 1045.50 722.00" xmlns="http://www.w3.org/2000/svg" xmlns:xlink="http://www.w3.org/1999/xlink">
<g id="graph0" class="graph" transform="scale(1 1) rotate(0) translate(4 718)">
<title>TanksGraphic</title>
<!-- Node1 -->
<g id="node1" class="node">
<title>Node1</title>
<g id="a_node1"><a xlink:title="Class responsible for tanks updates and render.">
<polygon fill="#bfbfbf" stroke="black" points="522.5,-0.5 522.5,-277.5 680.5,-277.5 680.5,-0.5 522.5,-0.5"/>
<text text-anchor="middle" x="601.5" y="-265.5" font-family="Helvetica,sans-Serif" font-size="10.00">TanksGraphic</text>
<polyline fill="none" stroke="black" points="522.5,-258.5 680.5,-258.5 "/>
<text text-anchor="middle" x="601.5" y="-246.5" font-family="Helvetica,sans-Serif" font-size="10.00"> </text>
<polyline fill="none" stroke="black" points="522.5,-239.5 680.5,-239.5 "/>
<text text-anchor="start" x="530.5" y="-227.5" font-family="Helvetica,sans-Serif" font-size="10.00">+ virtual void render</text>
<text text-anchor="start" x="530.5" y="-216.5" font-family="Helvetica,sans-Serif" font-size="10.00">() override</text>
<text text-anchor="start" x="530.5" y="-205.5" font-family="Helvetica,sans-Serif" font-size="10.00">+ std::vector&lt; std::shared</text>
<text text-anchor="start" x="530.5" y="-194.5" font-family="Helvetica,sans-Serif" font-size="10.00">_ptr&lt; Tank &gt; &gt; * getTanks</text>
<text text-anchor="start" x="530.5" y="-183.5" font-family="Helvetica,sans-Serif" font-size="10.00">() const</text>
<text text-anchor="start" x="530.5" y="-172.5" font-family="Helvetica,sans-Serif" font-size="10.00">+ std::vector&lt; RenderObject</text>
<text text-anchor="start" x="530.5" y="-161.5" font-family="Helvetica,sans-Serif" font-size="10.00"> &gt; getRenderTanks()</text>
<text text-anchor="start" x="530.5" y="-150.5" font-family="Helvetica,sans-Serif" font-size="10.00">+ TanksGraphic(const</text>
<text text-anchor="start" x="530.5" y="-139.5" font-family="Helvetica,sans-Serif" font-size="10.00"> WindowView &amp;windowView,</text>
<text text-anchor="start" x="530.5" y="-128.5" font-family="Helvetica,sans-Serif" font-size="10.00"> std::shared_ptr&lt; std::</text>
<text text-anchor="start" x="530.5" y="-117.5" font-family="Helvetica,sans-Serif" font-size="10.00">vector&lt; std::shared_ptr</text>
<text text-anchor="start" x="530.5" y="-106.5" font-family="Helvetica,sans-Serif" font-size="10.00">&lt; Tank &gt; &gt; &gt; tanks, std::</text>
<text text-anchor="start" x="530.5" y="-95.5" font-family="Helvetica,sans-Serif" font-size="10.00">shared_ptr&lt; std::queue&lt; sf</text>
<text text-anchor="start" x="530.5" y="-84.5" font-family="Helvetica,sans-Serif" font-size="10.00">::Sprite &gt; &gt; specialQueue)</text>
<text text-anchor="start" x="530.5" y="-73.5" font-family="Helvetica,sans-Serif" font-size="10.00"># void setTankRotation</text>
<text text-anchor="start" x="530.5" y="-62.5" font-family="Helvetica,sans-Serif" font-size="10.00">(sf::Sprite &amp;sprite,</text>
<text text-anchor="start" x="530.5" y="-51.5" font-family="Helvetica,sans-Serif" font-size="10.00"> float angle)</text>
<text text-anchor="start" x="530.5" y="-40.5" font-family="Helvetica,sans-Serif" font-size="10.00"># void makeRenderTanks()</text>
<text text-anchor="start" x="530.5" y="-29.5" font-family="Helvetica,sans-Serif" font-size="10.00"># void loadTextures()</text>
<text text-anchor="start" x="530.5" y="-18.5" font-family="Helvetica,sans-Serif" font-size="10.00"># float getAngle(Direction</text>
<text text-anchor="start" x="530.5" y="-7.5" font-family="Helvetica,sans-Serif" font-size="10.00"> direction) const</text>
</a>
</g>
</g>
<!-- Node2 -->
<g id="node2" class="node">
<title>Node2</title>
<g id="a_node2"><a xlink:href="class_abstract_window.html" target="_top" xlink:title="Contains main SFML functions.">
<polygon fill="none" stroke="black" points="95.5,-325.5 95.5,-448.5 253.5,-448.5 253.5,-325.5 95.5,-325.5"/>
<text text-anchor="middle" x="174.5" y="-436.5" font-family="Helvetica,sans-Serif" font-size="10.00">AbstractWindow</text>
<polyline fill="none" stroke="black" points="95.5,-429.5 253.5,-429.5 "/>
<text text-anchor="middle" x="174.5" y="-417.5" font-family="Helvetica,sans-Serif" font-size="10.00"> </text>
<polyline fill="none" stroke="black" points="95.5,-410.5 253.5,-410.5 "/>
<text text-anchor="start" x="103.5" y="-398.5" font-family="Helvetica,sans-Serif" font-size="10.00">+ sf::RenderWindow *</text>
<text text-anchor="start" x="103.5" y="-387.5" font-family="Helvetica,sans-Serif" font-size="10.00"> getWindow()</text>
<text text-anchor="start" x="103.5" y="-376.5" font-family="Helvetica,sans-Serif" font-size="10.00">+ virtual void render()=0</text>
<text text-anchor="start" x="103.5" y="-365.5" font-family="Helvetica,sans-Serif" font-size="10.00">+ AbstractWindow()</text>
<text text-anchor="start" x="103.5" y="-354.5" font-family="Helvetica,sans-Serif" font-size="10.00">+ AbstractWindow(const</text>
<text text-anchor="start" x="103.5" y="-343.5" font-family="Helvetica,sans-Serif" font-size="10.00"> WindowView &amp;windowView)</text>
<text text-anchor="start" x="103.5" y="-332.5" font-family="Helvetica,sans-Serif" font-size="10.00">+ virtual ~AbstractWindow()</text>
</a>
</g>
</g>
<!-- Node2&#45;&gt;Node1 -->
<g id="edge1" class="edge">
<title>Node2&#45;&gt;Node1</title>
<path fill="none" stroke="midnightblue" d="M262.23,-325.16C262.32,-325.11 262.41,-325.05 262.5,-325 349.37,-271.4 452.82,-216.12 522.4,-180.12"/>
<polygon fill="none" stroke="midnightblue" points="260.48,-322.13 253.87,-330.42 264.2,-328.06 260.48,-322.13"/>
</g>
<!-- Node3 -->
<g id="node3" class="node">
<title>Node3</title>
<g id="a_node3"><a xlink:title=" ">
<polygon fill="none" stroke="black" points="0,-524 0,-581 65,-581 65,-524 0,-524"/>
<text text-anchor="middle" x="32.5" y="-569" font-family="Helvetica,sans-Serif" font-size="10.00">const uint</text>
<polyline fill="none" stroke="black" points="0,-562 65,-562 "/>
<text text-anchor="middle" x="32.5" y="-550" font-family="Helvetica,sans-Serif" font-size="10.00"> </text>
<polyline fill="none" stroke="black" points="0,-543 65,-543 "/>
<text text-anchor="middle" x="32.5" y="-531" font-family="Helvetica,sans-Serif" font-size="10.00"> </text>
</a>
</g>
</g>
<!-- Node3&#45;&gt;Node2 -->
<g id="edge2" class="edge">
<title>Node3&#45;&gt;Node2</title>
<path fill="none" stroke="#404040" d="M41.02,-523.71C47.3,-506.23 57.08,-483.87 70.5,-467 75.27,-461 80.59,-455.21 86.24,-449.68"/>
<polygon fill="none" stroke="#404040" points="86.56,-449.38 88.23,-442.36 95.35,-441.2 93.68,-448.22 86.56,-449.38"/>
<text text-anchor="middle" x="120.5" y="-481" font-family="Helvetica,sans-Serif" font-size="10.00"> #WINDOW_HEIGHT</text>
<text text-anchor="middle" x="120.5" y="-470" font-family="Helvetica,sans-Serif" font-size="10.00">#WINDOW_WIDTH</text>
</g>
<!-- Node4 -->
<g id="node4" class="node">
<title>Node4</title>
<g id="a_node4"><a xlink:href="struct_window_view.html" target="_top" xlink:title="Struct that contains the sf::RenderWindow nad offset of elements to render.">
<polygon fill="none" stroke="black" points="83.5,-507.5 83.5,-597.5 265.5,-597.5 265.5,-507.5 83.5,-507.5"/>
<text text-anchor="middle" x="174.5" y="-585.5" font-family="Helvetica,sans-Serif" font-size="10.00">WindowView</text>
<polyline fill="none" stroke="black" points="83.5,-578.5 265.5,-578.5 "/>
<text text-anchor="middle" x="174.5" y="-566.5" font-family="Helvetica,sans-Serif" font-size="10.00"> </text>
<polyline fill="none" stroke="black" points="83.5,-559.5 265.5,-559.5 "/>
<text text-anchor="start" x="91.5" y="-547.5" font-family="Helvetica,sans-Serif" font-size="10.00">+ WindowView(sf::RenderWindow</text>
<text text-anchor="start" x="91.5" y="-536.5" font-family="Helvetica,sans-Serif" font-size="10.00"> *window, float topOffset,</text>
<text text-anchor="start" x="91.5" y="-525.5" font-family="Helvetica,sans-Serif" font-size="10.00"> float leftOffset)</text>
<text text-anchor="start" x="91.5" y="-514.5" font-family="Helvetica,sans-Serif" font-size="10.00">+ WindowView()</text>
</a>
</g>
</g>
<!-- Node4&#45;&gt;Node2 -->
<g id="edge3" class="edge">
<title>Node4&#45;&gt;Node2</title>
<path fill="none" stroke="#404040" d="M174.5,-507.25C174.5,-492.86 174.5,-476.49 174.5,-460.58"/>
<polygon fill="none" stroke="#404040" points="174.5,-460.55 170.5,-454.55 174.5,-448.55 178.5,-454.55 174.5,-460.55"/>
<text text-anchor="middle" x="211" y="-475.5" font-family="Helvetica,sans-Serif" font-size="10.00"> #windowView</text>
</g>
<!-- Node5 -->
<g id="node5" class="node">
<title>Node5</title>
<g id="a_node5"><a xlink:title=" ">
<polygon fill="none" stroke="black" points="82.5,-656.5 82.5,-713.5 180.5,-713.5 180.5,-656.5 82.5,-656.5"/>
<text text-anchor="middle" x="131.5" y="-701.5" font-family="Helvetica,sans-Serif" font-size="10.00">RenderWindow *</text>
<polyline fill="none" stroke="black" points="82.5,-694.5 180.5,-694.5 "/>
<text text-anchor="middle" x="131.5" y="-682.5" font-family="Helvetica,sans-Serif" font-size="10.00"> </text>
<polyline fill="none" stroke="black" points="82.5,-675.5 180.5,-675.5 "/>
<text text-anchor="middle" x="131.5" y="-663.5" font-family="Helvetica,sans-Serif" font-size="10.00"> </text>
</a>
</g>
</g>
<!-- Node5&#45;&gt;Node4 -->
<g id="edge4" class="edge">
<title>Node5&#45;&gt;Node4</title>
<path fill="none" stroke="#404040" d="M136.3,-656.19C138.79,-643.74 142.21,-628.97 146.5,-616 147.24,-613.76 148.04,-611.48 148.87,-609.2"/>
<polygon fill="none" stroke="#404040" points="148.97,-608.96 147.42,-601.92 153.33,-597.79 154.88,-604.83 148.97,-608.96"/>
<text text-anchor="middle" x="171" y="-624.5" font-family="Helvetica,sans-Serif" font-size="10.00"> +window</text>
</g>
<!-- Node6 -->
<g id="node6" class="node">
<title>Node6</title>
<g id="a_node6"><a xlink:title=" ">
<polygon fill="none" stroke="black" points="198.5,-656.5 198.5,-713.5 236.5,-713.5 236.5,-656.5 198.5,-656.5"/>
<text text-anchor="middle" x="217.5" y="-701.5" font-family="Helvetica,sans-Serif" font-size="10.00">float</text>
<polyline fill="none" stroke="black" points="198.5,-694.5 236.5,-694.5 "/>
<text text-anchor="middle" x="217.5" y="-682.5" font-family="Helvetica,sans-Serif" font-size="10.00"> </text>
<polyline fill="none" stroke="black" points="198.5,-675.5 236.5,-675.5 "/>
<text text-anchor="middle" x="217.5" y="-663.5" font-family="Helvetica,sans-Serif" font-size="10.00"> </text>
</a>
</g>
</g>
<!-- Node6&#45;&gt;Node4 -->
<g id="edge5" class="edge">
<title>Node6&#45;&gt;Node4</title>
<path fill="none" stroke="#404040" d="M208.58,-656.19C204.61,-643.86 199.85,-629.2 195.5,-616 194.76,-613.76 194,-611.47 193.24,-609.16"/>
<polygon fill="none" stroke="#404040" points="193.15,-608.91 187.46,-604.48 189.36,-597.53 195.05,-601.96 193.15,-608.91"/>
<text text-anchor="middle" x="231" y="-630" font-family="Helvetica,sans-Serif" font-size="10.00"> +leftOffset</text>
<text text-anchor="middle" x="231" y="-619" font-family="Helvetica,sans-Serif" font-size="10.00">+topOffset</text>
</g>
<!-- Node7 -->
<g id="node7" class="node">
<title>Node7</title>
<g id="a_node7"><a xlink:title=" ">
<polygon fill="none" stroke="black" points="284,-518.5 284,-586.5 433,-586.5 433,-518.5 284,-518.5"/>
<text text-anchor="start" x="292" y="-574.5" font-family="Helvetica,sans-Serif" font-size="10.00">vector&lt; std::shared</text>
<text text-anchor="middle" x="358.5" y="-563.5" font-family="Helvetica,sans-Serif" font-size="10.00">_ptr&lt; AbstractWindow &gt; &gt;</text>
<polyline fill="none" stroke="black" points="284,-556.5 433,-556.5 "/>
<text text-anchor="middle" x="358.5" y="-544.5" font-family="Helvetica,sans-Serif" font-size="10.00"> </text>
<polyline fill="none" stroke="black" points="284,-537.5 433,-537.5 "/>
<text text-anchor="middle" x="358.5" y="-525.5" font-family="Helvetica,sans-Serif" font-size="10.00"> </text>
</a>
</g>
</g>
<!-- Node7&#45;&gt;Node2 -->
<g id="edge6" class="edge">
<title>Node7&#45;&gt;Node2</title>
<path fill="none" stroke="#404040" d="M321.26,-518.41C301.34,-500.71 276.02,-478.21 252.05,-456.91"/>
<polygon fill="none" stroke="#404040" points="251.91,-456.79 244.77,-455.79 242.94,-448.82 250.08,-449.81 251.91,-456.79"/>
<text text-anchor="middle" x="309" y="-475.5" font-family="Helvetica,sans-Serif" font-size="10.00"> #children</text>
</g>
<!-- Node8 -->
<g id="node8" class="node">
<title>Node8</title>
<g id="a_node8"><a xlink:title=" ">
<polygon fill="none" stroke="black" points="271.5,-353 271.5,-421 439.5,-421 439.5,-353 271.5,-353"/>
<text text-anchor="start" x="279.5" y="-409" font-family="Helvetica,sans-Serif" font-size="10.00">shared_ptr&lt; std::vector</text>
<text text-anchor="middle" x="355.5" y="-398" font-family="Helvetica,sans-Serif" font-size="10.00">&lt; std::shared_ptr&lt; Tank &gt; &gt; &gt;</text>
<polyline fill="none" stroke="black" points="271.5,-391 439.5,-391 "/>
<text text-anchor="middle" x="355.5" y="-379" font-family="Helvetica,sans-Serif" font-size="10.00"> </text>
<polyline fill="none" stroke="black" points="271.5,-372 439.5,-372 "/>
<text text-anchor="middle" x="355.5" y="-360" font-family="Helvetica,sans-Serif" font-size="10.00"> </text>
</a>
</g>
</g>
<!-- Node8&#45;&gt;Node1 -->
<g id="edge7" class="edge">
<title>Node8&#45;&gt;Node1</title>
<path fill="none" stroke="#404040" d="M388.68,-352.82C420.64,-320.86 470.41,-271.09 513.78,-227.72"/>
<polygon fill="none" stroke="#404040" points="513.88,-227.62 515.29,-220.55 522.36,-219.14 520.95,-226.21 513.88,-227.62"/>
<text text-anchor="middle" x="462" y="-299" font-family="Helvetica,sans-Serif" font-size="10.00"> #tanks</text>
</g>
<!-- Node9 -->
<g id="node9" class="node">
<title>Node9</title>
<g id="a_node9"><a xlink:title=" ">
<polygon fill="none" stroke="black" points="458,-353 458,-421 593,-421 593,-353 458,-353"/>
<text text-anchor="start" x="466" y="-409" font-family="Helvetica,sans-Serif" font-size="10.00">unordered_map&lt; Tank</text>
<text text-anchor="middle" x="525.5" y="-398" font-family="Helvetica,sans-Serif" font-size="10.00">::TankType, sf::Texture &gt;</text>
<polyline fill="none" stroke="black" points="458,-391 593,-391 "/>
<text text-anchor="middle" x="525.5" y="-379" font-family="Helvetica,sans-Serif" font-size="10.00"> </text>
<polyline fill="none" stroke="black" points="458,-372 593,-372 "/>
<text text-anchor="middle" x="525.5" y="-360" font-family="Helvetica,sans-Serif" font-size="10.00"> </text>
</a>
</g>
</g>
<!-- Node9&#45;&gt;Node1 -->
<g id="edge8" class="edge">
<title>Node9&#45;&gt;Node1</title>
<path fill="none" stroke="#404040" d="M535.75,-352.82C541.08,-335.58 548,-313.16 555.36,-289.35"/>
<polygon fill="none" stroke="#404040" points="555.46,-289.04 553.41,-282.12 559,-277.57 561.05,-284.49 555.46,-289.04"/>
<text text-anchor="middle" x="586.5" y="-299" font-family="Helvetica,sans-Serif" font-size="10.00"> #textureMap</text>
</g>
<!-- Node10 -->
<g id="node10" class="node">
<title>Node10</title>
<g id="a_node10"><a xlink:title=" ">
<polygon fill="none" stroke="black" points="611.5,-353 611.5,-421 745.5,-421 745.5,-353 611.5,-353"/>
<text text-anchor="start" x="619.5" y="-409" font-family="Helvetica,sans-Serif" font-size="10.00">unordered_map&lt; Tank</text>
<text text-anchor="middle" x="678.5" y="-398" font-family="Helvetica,sans-Serif" font-size="10.00">::TankType, std::string &gt;</text>
<polyline fill="none" stroke="black" points="611.5,-391 745.5,-391 "/>
<text text-anchor="middle" x="678.5" y="-379" font-family="Helvetica,sans-Serif" font-size="10.00"> </text>
<polyline fill="none" stroke="black" points="611.5,-372 745.5,-372 "/>
<text text-anchor="middle" x="678.5" y="-360" font-family="Helvetica,sans-Serif" font-size="10.00"> </text>
</a>
</g>
</g>
<!-- Node10&#45;&gt;Node1 -->
<g id="edge9" class="edge">
<title>Node10&#45;&gt;Node1</title>
<path fill="none" stroke="#404040" d="M668.12,-352.82C662.69,-335.5 655.64,-312.95 648.15,-289.03"/>
<polygon fill="none" stroke="#404040" points="648.15,-289.02 642.54,-284.49 644.56,-277.57 650.17,-282.1 648.15,-289.02"/>
<text text-anchor="middle" x="681" y="-299" font-family="Helvetica,sans-Serif" font-size="10.00"> #pathMap</text>
</g>
<!-- Node11 -->
<g id="node11" class="node">
<title>Node11</title>
<g id="a_node11"><a xlink:title=" ">
<polygon fill="none" stroke="black" points="764,-353 764,-421 895,-421 895,-353 764,-353"/>
<text text-anchor="start" x="772" y="-409" font-family="Helvetica,sans-Serif" font-size="10.00">shared_ptr&lt; std::queue</text>
<text text-anchor="middle" x="829.5" y="-398" font-family="Helvetica,sans-Serif" font-size="10.00">&lt; sf::Sprite &gt; &gt;</text>
<polyline fill="none" stroke="black" points="764,-391 895,-391 "/>
<text text-anchor="middle" x="829.5" y="-379" font-family="Helvetica,sans-Serif" font-size="10.00"> </text>
<polyline fill="none" stroke="black" points="764,-372 895,-372 "/>
<text text-anchor="middle" x="829.5" y="-360" font-family="Helvetica,sans-Serif" font-size="10.00"> </text>
</a>
</g>
</g>
<!-- Node11&#45;&gt;Node1 -->
<g id="edge10" class="edge">
<title>Node11&#45;&gt;Node1</title>
<path fill="none" stroke="#404040" d="M798.75,-352.82C770.61,-322.46 727.58,-276.04 688.89,-234.29"/>
<polygon fill="none" stroke="#404040" points="688.86,-234.26 681.85,-232.58 680.7,-225.46 687.72,-227.14 688.86,-234.26"/>
<text text-anchor="middle" x="794.5" y="-299" font-family="Helvetica,sans-Serif" font-size="10.00"> #specialQueue</text>
</g>
<!-- Node12 -->
<g id="node12" class="node">
<title>Node12</title>
<g id="a_node12"><a xlink:title=" ">
<polygon fill="none" stroke="black" points="913.5,-353 913.5,-421 1037.5,-421 1037.5,-353 913.5,-353"/>
<text text-anchor="start" x="921.5" y="-409" font-family="Helvetica,sans-Serif" font-size="10.00">vector&lt; TanksGraphic</text>
<text text-anchor="middle" x="975.5" y="-398" font-family="Helvetica,sans-Serif" font-size="10.00">::RenderObject &gt;</text>
<polyline fill="none" stroke="black" points="913.5,-391 1037.5,-391 "/>
<text text-anchor="middle" x="975.5" y="-379" font-family="Helvetica,sans-Serif" font-size="10.00"> </text>
<polyline fill="none" stroke="black" points="913.5,-372 1037.5,-372 "/>
<text text-anchor="middle" x="975.5" y="-360" font-family="Helvetica,sans-Serif" font-size="10.00"> </text>
</a>
</g>
</g>
<!-- Node12&#45;&gt;Node1 -->
<g id="edge11" class="edge">
<title>Node12&#45;&gt;Node1</title>
<path fill="none" stroke="#404040" d="M939.21,-352.85C928.34,-343.47 916.2,-333.51 904.5,-325 835.6,-274.87 752.74,-224.93 691.11,-189.59"/>
<polygon fill="none" stroke="#404040" points="691.05,-189.56 683.86,-190.06 680.63,-183.61 687.82,-183.11 691.05,-189.56"/>
<text text-anchor="middle" x="908" y="-299" font-family="Helvetica,sans-Serif" font-size="10.00"> #renderTanks</text>
</g>
</g>
</svg>
