<?xml version="1.0" encoding="UTF-8" standalone="no"?>
<!DOCTYPE svg PUBLIC "-//W3C//DTD SVG 1.1//EN"
 "http://www.w3.org/Graphics/SVG/1.1/DTD/svg11.dtd">
<!-- Generated by graphviz version 2.43.0 (0)
 -->
<!-- Title: KeyboardController Pages: 1 -->
<svg width="616pt" height="755pt"
 viewBox="0.00 0.00 615.50 755.00" xmlns="http://www.w3.org/2000/svg" xmlns:xlink="http://www.w3.org/1999/xlink">
<g id="graph0" class="graph" transform="scale(1 1) rotate(0) translate(4 751)">
<title>KeyboardController</title>
<!-- Node1 -->
<g id="node1" class="node">
<title>Node1</title>
<g id="a_node1"><a xlink:title=" ">
<polygon fill="#bfbfbf" stroke="black" points="179.5,-0.5 179.5,-134.5 341.5,-134.5 341.5,-0.5 179.5,-0.5"/>
<text text-anchor="middle" x="260.5" y="-122.5" font-family="Helvetica,sans-Serif" font-size="10.00">KeyboardController</text>
<polyline fill="none" stroke="black" points="179.5,-115.5 341.5,-115.5 "/>
<text text-anchor="middle" x="260.5" y="-103.5" font-family="Helvetica,sans-Serif" font-size="10.00"> </text>
<polyline fill="none" stroke="black" points="179.5,-96.5 341.5,-96.5 "/>
<text text-anchor="start" x="187.5" y="-84.5" font-family="Helvetica,sans-Serif" font-size="10.00">+ KeyboardController</text>
<text text-anchor="start" x="187.5" y="-73.5" font-family="Helvetica,sans-Serif" font-size="10.00">()=delete</text>
<text text-anchor="start" x="187.5" y="-62.5" font-family="Helvetica,sans-Serif" font-size="10.00">+ KeyboardController</text>
<text text-anchor="start" x="187.5" y="-51.5" font-family="Helvetica,sans-Serif" font-size="10.00">(sf::RenderWindow *window)</text>
<text text-anchor="start" x="187.5" y="-40.5" font-family="Helvetica,sans-Serif" font-size="10.00">+ void notify(SimplePublisher</text>
<text text-anchor="start" x="187.5" y="-29.5" font-family="Helvetica,sans-Serif" font-size="10.00"> *pub) override</text>
<text text-anchor="start" x="187.5" y="-18.5" font-family="Helvetica,sans-Serif" font-size="10.00">+ void fetchKeyboardEvent</text>
<text text-anchor="start" x="187.5" y="-7.5" font-family="Helvetica,sans-Serif" font-size="10.00">() const</text>
</a>
</g>
</g>
<!-- Node2 -->
<g id="node2" class="node">
<title>Node2</title>
<g id="a_node2"><a xlink:href="class_simple_subscriber.html" target="_top" xlink:title=" ">
<polygon fill="none" stroke="black" points="0,-199 0,-366 193,-366 193,-199 0,-199"/>
<text text-anchor="middle" x="96.5" y="-354" font-family="Helvetica,sans-Serif" font-size="10.00">SimpleSubscriber</text>
<polyline fill="none" stroke="black" points="0,-347 193,-347 "/>
<text text-anchor="middle" x="96.5" y="-335" font-family="Helvetica,sans-Serif" font-size="10.00"> </text>
<polyline fill="none" stroke="black" points="0,-328 193,-328 "/>
<text text-anchor="start" x="8" y="-316" font-family="Helvetica,sans-Serif" font-size="10.00">+ ~SimpleSubscriber()</text>
<text text-anchor="start" x="8" y="-305" font-family="Helvetica,sans-Serif" font-size="10.00">+ void subscribe(SimplePublisher</text>
<text text-anchor="start" x="8" y="-294" font-family="Helvetica,sans-Serif" font-size="10.00"> *pub)</text>
<text text-anchor="start" x="8" y="-283" font-family="Helvetica,sans-Serif" font-size="10.00">+ void unsubscribe(SimplePublisher</text>
<text text-anchor="start" x="8" y="-272" font-family="Helvetica,sans-Serif" font-size="10.00"> *pub)</text>
<text text-anchor="start" x="8" y="-261" font-family="Helvetica,sans-Serif" font-size="10.00">+ void removeDeletedSubject</text>
<text text-anchor="start" x="8" y="-250" font-family="Helvetica,sans-Serif" font-size="10.00">(SimplePublisher *pub)</text>
<text text-anchor="start" x="8" y="-239" font-family="Helvetica,sans-Serif" font-size="10.00">+ virtual void notify</text>
<text text-anchor="start" x="8" y="-228" font-family="Helvetica,sans-Serif" font-size="10.00">(SimplePublisher *pub)=0</text>
<text text-anchor="start" x="8" y="-217" font-family="Helvetica,sans-Serif" font-size="10.00"># SimpleSubscriber()</text>
<text text-anchor="start" x="8" y="-206" font-family="Helvetica,sans-Serif" font-size="10.00">=default</text>
</a>
</g>
</g>
<!-- Node2&#45;&gt;Node1 -->
<g id="edge1" class="edge">
<title>Node2&#45;&gt;Node1</title>
<path fill="none" stroke="midnightblue" d="M166.33,-190.81C180.86,-171.94 195.9,-152.4 209.59,-134.62"/>
<polygon fill="none" stroke="midnightblue" points="163.47,-188.79 160.14,-198.84 169.02,-193.06 163.47,-188.79"/>
</g>
<!-- Node3 -->
<g id="node3" class="node">
<title>Node3</title>
<g id="a_node3"><a xlink:title=" ">
<polygon fill="none" stroke="black" points="18,-502 18,-559 175,-559 175,-502 18,-502"/>
<text text-anchor="middle" x="96.5" y="-547" font-family="Helvetica,sans-Serif" font-size="10.00">vector&lt; SimplePublisher * &gt;</text>
<polyline fill="none" stroke="black" points="18,-540 175,-540 "/>
<text text-anchor="middle" x="96.5" y="-528" font-family="Helvetica,sans-Serif" font-size="10.00"> </text>
<polyline fill="none" stroke="black" points="18,-521 175,-521 "/>
<text text-anchor="middle" x="96.5" y="-509" font-family="Helvetica,sans-Serif" font-size="10.00"> </text>
</a>
</g>
</g>
<!-- Node3&#45;&gt;Node2 -->
<g id="edge2" class="edge">
<title>Node3&#45;&gt;Node2</title>
<path fill="none" stroke="#404040" d="M96.5,-501.76C96.5,-471.77 96.5,-422.33 96.5,-378.08"/>
<polygon fill="none" stroke="#404040" points="96.5,-378.06 92.5,-372.06 96.5,-366.06 100.5,-372.06 96.5,-378.06"/>
<text text-anchor="middle" x="152" y="-404" font-family="Helvetica,sans-Serif" font-size="10.00"> #subscribedSubjects_</text>
</g>
<!-- Node4 -->
<g id="node4" class="node">
<title>Node4</title>
<g id="a_node4"><a xlink:title=" ">
<polygon fill="none" stroke="black" points="211.5,-254 211.5,-311 309.5,-311 309.5,-254 211.5,-254"/>
<text text-anchor="middle" x="260.5" y="-299" font-family="Helvetica,sans-Serif" font-size="10.00">RenderWindow *</text>
<polyline fill="none" stroke="black" points="211.5,-292 309.5,-292 "/>
<text text-anchor="middle" x="260.5" y="-280" font-family="Helvetica,sans-Serif" font-size="10.00"> </text>
<polyline fill="none" stroke="black" points="211.5,-273 309.5,-273 "/>
<text text-anchor="middle" x="260.5" y="-261" font-family="Helvetica,sans-Serif" font-size="10.00"> </text>
</a>
</g>
</g>
<!-- Node4&#45;&gt;Node1 -->
<g id="edge3" class="edge">
<title>Node4&#45;&gt;Node1</title>
<path fill="none" stroke="#404040" d="M260.5,-253.65C260.5,-226.7 260.5,-184.57 260.5,-147.31"/>
<polygon fill="none" stroke="#404040" points="260.5,-146.88 256.5,-140.88 260.5,-134.88 264.5,-140.88 260.5,-146.88"/>
<text text-anchor="middle" x="288" y="-156" font-family="Helvetica,sans-Serif" font-size="10.00"> +window_</text>
</g>
<!-- Node5 -->
<g id="node5" class="node">
<title>Node5</title>
<g id="a_node5"><a xlink:href="class_event_queue.html" target="_top" xlink:title=" ">
<polygon fill="none" stroke="black" points="327.5,-182.5 327.5,-382.5 477.5,-382.5 477.5,-182.5 327.5,-182.5"/>
<text text-anchor="middle" x="402.5" y="-370.5" font-family="Helvetica,sans-Serif" font-size="10.00">EventQueue&lt; Event &gt;</text>
<polyline fill="none" stroke="black" points="327.5,-363.5 477.5,-363.5 "/>
<text text-anchor="middle" x="402.5" y="-351.5" font-family="Helvetica,sans-Serif" font-size="10.00"> </text>
<polyline fill="none" stroke="black" points="327.5,-344.5 477.5,-344.5 "/>
<text text-anchor="start" x="335.5" y="-332.5" font-family="Helvetica,sans-Serif" font-size="10.00">+ EventQueue(EventQueue</text>
<text text-anchor="start" x="335.5" y="-321.5" font-family="Helvetica,sans-Serif" font-size="10.00"> &amp;)=delete</text>
<text text-anchor="start" x="335.5" y="-310.5" font-family="Helvetica,sans-Serif" font-size="10.00">+ bool operator=(const</text>
<text text-anchor="start" x="335.5" y="-299.5" font-family="Helvetica,sans-Serif" font-size="10.00"> EventQueue &amp;)=delete</text>
<text text-anchor="start" x="335.5" y="-288.5" font-family="Helvetica,sans-Serif" font-size="10.00">+ void registerEvent</text>
<text text-anchor="start" x="335.5" y="-277.5" font-family="Helvetica,sans-Serif" font-size="10.00">(std::unique_ptr&lt; Event</text>
<text text-anchor="start" x="335.5" y="-266.5" font-family="Helvetica,sans-Serif" font-size="10.00"> &gt; event)</text>
<text text-anchor="start" x="335.5" y="-255.5" font-family="Helvetica,sans-Serif" font-size="10.00">+ std::unique_ptr&lt; Event</text>
<text text-anchor="start" x="335.5" y="-244.5" font-family="Helvetica,sans-Serif" font-size="10.00"> &gt; pop()</text>
<text text-anchor="start" x="335.5" y="-233.5" font-family="Helvetica,sans-Serif" font-size="10.00">+ bool isEmpty()</text>
<text text-anchor="start" x="335.5" y="-222.5" font-family="Helvetica,sans-Serif" font-size="10.00">+ void clear()</text>
<text text-anchor="start" x="335.5" y="-211.5" font-family="Helvetica,sans-Serif" font-size="10.00">+ static EventQueue *</text>
<text text-anchor="start" x="335.5" y="-200.5" font-family="Helvetica,sans-Serif" font-size="10.00"> instance()</text>
<text text-anchor="start" x="335.5" y="-189.5" font-family="Helvetica,sans-Serif" font-size="10.00">&#45; EventQueue()=default</text>
</a>
</g>
</g>
<!-- Node5&#45;&gt;Node1 -->
<g id="edge4" class="edge">
<title>Node5&#45;&gt;Node1</title>
<path fill="none" stroke="#404040" d="M338.96,-182.35C332.44,-172.4 325.87,-162.48 319.5,-153 317.69,-150.31 315.84,-147.57 313.97,-144.82"/>
<polygon fill="none" stroke="#404040" points="313.87,-144.68 307.19,-141.98 307.11,-134.77 313.79,-137.47 313.87,-144.68"/>
<text text-anchor="middle" x="364.5" y="-156" font-family="Helvetica,sans-Serif" font-size="10.00"> +eventQueue_</text>
</g>
<!-- Node6 -->
<g id="node6" class="node">
<title>Node6</title>
<g id="a_node6"><a xlink:href="classstd_1_1queue_3_01std_1_1unique__ptr_3_01_event_01_4_01_4.html" target="_top" xlink:title=" ">
<polygon fill="none" stroke="black" points="254.5,-496.5 254.5,-564.5 366.5,-564.5 366.5,-496.5 254.5,-496.5"/>
<text text-anchor="start" x="262.5" y="-552.5" font-family="Helvetica,sans-Serif" font-size="10.00">queue&lt; std::unique</text>
<text text-anchor="middle" x="310.5" y="-541.5" font-family="Helvetica,sans-Serif" font-size="10.00">_ptr&lt; Event &gt; &gt;</text>
<polyline fill="none" stroke="black" points="254.5,-534.5 366.5,-534.5 "/>
<text text-anchor="middle" x="310.5" y="-522.5" font-family="Helvetica,sans-Serif" font-size="10.00"> </text>
<polyline fill="none" stroke="black" points="254.5,-515.5 366.5,-515.5 "/>
<text text-anchor="middle" x="310.5" y="-503.5" font-family="Helvetica,sans-Serif" font-size="10.00"> </text>
</a>
</g>
</g>
<!-- Node6&#45;&gt;Node5 -->
<g id="edge5" class="edge">
<title>Node6&#45;&gt;Node5</title>
<path fill="none" stroke="#404040" d="M315.08,-496.29C319.34,-469.9 326.82,-432.34 338.5,-401 339.39,-398.62 340.32,-396.23 341.28,-393.83"/>
<polygon fill="none" stroke="#404040" points="341.36,-393.64 340.01,-386.56 346.03,-382.59 347.38,-389.67 341.36,-393.64"/>
<text text-anchor="middle" x="363.5" y="-404" font-family="Helvetica,sans-Serif" font-size="10.00"> #events_</text>
</g>
<!-- Node7 -->
<g id="node7" class="node">
<title>Node7</title>
<g id="a_node7"><a xlink:title=" ">
<polygon fill="none" stroke="black" points="327.5,-684 327.5,-741 477.5,-741 477.5,-684 327.5,-684"/>
<text text-anchor="middle" x="402.5" y="-729" font-family="Helvetica,sans-Serif" font-size="10.00">unique_ptr&lt; EventQueue &gt;</text>
<polyline fill="none" stroke="black" points="327.5,-722 477.5,-722 "/>
<text text-anchor="middle" x="402.5" y="-710" font-family="Helvetica,sans-Serif" font-size="10.00"> </text>
<polyline fill="none" stroke="black" points="327.5,-703 477.5,-703 "/>
<text text-anchor="middle" x="402.5" y="-691" font-family="Helvetica,sans-Serif" font-size="10.00"> </text>
</a>
</g>
</g>
<!-- Node7&#45;&gt;Node5 -->
<g id="edge6" class="edge">
<title>Node7&#45;&gt;Node5</title>
<path fill="none" stroke="#404040" d="M402.5,-683.75C402.5,-626.46 402.5,-492.34 402.5,-395.11"/>
<polygon fill="none" stroke="#404040" points="402.5,-394.85 398.5,-388.85 402.5,-382.85 406.5,-388.85 402.5,-394.85"/>
<text text-anchor="middle" x="420" y="-528" font-family="Helvetica,sans-Serif" font-size="10.00"> #self_</text>
</g>
<!-- Node8 -->
<g id="node8" class="node">
<title>Node8</title>
<g id="a_node8"><a xlink:href="class_event_queue.html" target="_top" xlink:title="Singleton class wrapper for std::queue&lt;E&gt;.">
<polygon fill="none" stroke="black" points="455.5,-430.5 455.5,-630.5 605.5,-630.5 605.5,-430.5 455.5,-430.5"/>
<text text-anchor="middle" x="530.5" y="-618.5" font-family="Helvetica,sans-Serif" font-size="10.00">EventQueue&lt; E &gt;</text>
<polyline fill="none" stroke="black" points="455.5,-611.5 605.5,-611.5 "/>
<text text-anchor="middle" x="530.5" y="-599.5" font-family="Helvetica,sans-Serif" font-size="10.00"> </text>
<polyline fill="none" stroke="black" points="455.5,-592.5 605.5,-592.5 "/>
<text text-anchor="start" x="463.5" y="-580.5" font-family="Helvetica,sans-Serif" font-size="10.00">+ EventQueue(EventQueue</text>
<text text-anchor="start" x="463.5" y="-569.5" font-family="Helvetica,sans-Serif" font-size="10.00"> &amp;)=delete</text>
<text text-anchor="start" x="463.5" y="-558.5" font-family="Helvetica,sans-Serif" font-size="10.00">+ bool operator=(const</text>
<text text-anchor="start" x="463.5" y="-547.5" font-family="Helvetica,sans-Serif" font-size="10.00"> EventQueue &amp;)=delete</text>
<text text-anchor="start" x="463.5" y="-536.5" font-family="Helvetica,sans-Serif" font-size="10.00">+ void registerEvent</text>
<text text-anchor="start" x="463.5" y="-525.5" font-family="Helvetica,sans-Serif" font-size="10.00">(std::unique_ptr&lt; E</text>
<text text-anchor="start" x="463.5" y="-514.5" font-family="Helvetica,sans-Serif" font-size="10.00"> &gt; event)</text>
<text text-anchor="start" x="463.5" y="-503.5" font-family="Helvetica,sans-Serif" font-size="10.00">+ std::unique_ptr&lt; E</text>
<text text-anchor="start" x="463.5" y="-492.5" font-family="Helvetica,sans-Serif" font-size="10.00"> &gt; pop()</text>
<text text-anchor="start" x="463.5" y="-481.5" font-family="Helvetica,sans-Serif" font-size="10.00">+ bool isEmpty()</text>
<text text-anchor="start" x="463.5" y="-470.5" font-family="Helvetica,sans-Serif" font-size="10.00">+ void clear()</text>
<text text-anchor="start" x="463.5" y="-459.5" font-family="Helvetica,sans-Serif" font-size="10.00">+ static EventQueue *</text>
<text text-anchor="start" x="463.5" y="-448.5" font-family="Helvetica,sans-Serif" font-size="10.00"> instance()</text>
<text text-anchor="start" x="463.5" y="-437.5" font-family="Helvetica,sans-Serif" font-size="10.00">&#45; EventQueue()=default</text>
</a>
</g>
</g>
<!-- Node7&#45;&gt;Node8 -->
<g id="edge9" class="edge">
<title>Node7&#45;&gt;Node8</title>
<path fill="none" stroke="#404040" d="M422.22,-683.77C430.81,-671.68 441.5,-656.66 452.78,-640.79"/>
<polygon fill="none" stroke="#404040" points="452.91,-640.6 453.13,-633.4 459.87,-630.82 459.65,-638.03 452.91,-640.6"/>
<text text-anchor="middle" x="462" y="-652" font-family="Helvetica,sans-Serif" font-size="10.00"> #self_</text>
</g>
<!-- Node8&#45;&gt;Node5 -->
<g id="edge7" class="edge">
<title>Node8&#45;&gt;Node5</title>
<path fill="none" stroke="orange" d="M474.02,-420.96C467.42,-408.27 460.71,-395.37 454.18,-382.82"/>
<polygon fill="orange" stroke="orange" points="471.09,-422.9 478.81,-430.15 477.3,-419.66 471.09,-422.9"/>
<text text-anchor="middle" x="493.5" y="-404" font-family="Helvetica,sans-Serif" font-size="10.00"> &lt; Event &gt;</text>
</g>
<!-- Node9 -->
<g id="node9" class="node">
<title>Node9</title>
<g id="a_node9"><a xlink:title=" ">
<polygon fill="none" stroke="black" points="495.5,-678.5 495.5,-746.5 607.5,-746.5 607.5,-678.5 495.5,-678.5"/>
<text text-anchor="start" x="503.5" y="-734.5" font-family="Helvetica,sans-Serif" font-size="10.00">queue&lt; std::unique</text>
<text text-anchor="middle" x="551.5" y="-723.5" font-family="Helvetica,sans-Serif" font-size="10.00">_ptr&lt; E &gt; &gt;</text>
<polyline fill="none" stroke="black" points="495.5,-716.5 607.5,-716.5 "/>
<text text-anchor="middle" x="551.5" y="-704.5" font-family="Helvetica,sans-Serif" font-size="10.00"> </text>
<polyline fill="none" stroke="black" points="495.5,-697.5 607.5,-697.5 "/>
<text text-anchor="middle" x="551.5" y="-685.5" font-family="Helvetica,sans-Serif" font-size="10.00"> </text>
</a>
</g>
</g>
<!-- Node9&#45;&gt;Node8 -->
<g id="edge8" class="edge">
<title>Node9&#45;&gt;Node8</title>
<path fill="none" stroke="#404040" d="M547.65,-678.49C546.42,-667.92 544.97,-655.57 543.46,-642.6"/>
<polygon fill="none" stroke="#404040" points="543.45,-642.47 538.78,-636.97 542.06,-630.55 546.72,-636.05 543.45,-642.47"/>
<text text-anchor="middle" x="570.5" y="-652" font-family="Helvetica,sans-Serif" font-size="10.00"> #events_</text>
</g>
</g>
</svg>
