<?xml version="1.0" encoding="UTF-8" standalone="no"?>
<!DOCTYPE svg PUBLIC "-//W3C//DTD SVG 1.1//EN"
 "http://www.w3.org/Graphics/SVG/1.1/DTD/svg11.dtd">
<!-- Generated by graphviz version 2.43.0 (0)
 -->
<!-- Title: GameState Pages: 1 -->
<svg width="648pt" height="325pt"
 viewBox="0.00 0.00 648.00 325.00" xmlns="http://www.w3.org/2000/svg" xmlns:xlink="http://www.w3.org/1999/xlink">
<g id="graph0" class="graph" transform="scale(1 1) rotate(0) translate(4 321)">
<title>GameState</title>
<!-- Node1 -->
<g id="node1" class="node">
<title>Node1</title>
<g id="a_node1"><a xlink:title=" ">
<polygon fill="#bfbfbf" stroke="black" points="223,-160.5 223,-316.5 391,-316.5 391,-160.5 223,-160.5"/>
<text text-anchor="middle" x="307" y="-304.5" font-family="Helvetica,sans-Serif" font-size="10.00">GameState</text>
<polyline fill="none" stroke="black" points="223,-297.5 391,-297.5 "/>
<text text-anchor="start" x="231" y="-285.5" font-family="Helvetica,sans-Serif" font-size="10.00"># std::unique_ptr&lt; Publisher</text>
<text text-anchor="start" x="231" y="-274.5" font-family="Helvetica,sans-Serif" font-size="10.00">EventHandler &gt; eventHandler_</text>
<text text-anchor="start" x="231" y="-263.5" font-family="Helvetica,sans-Serif" font-size="10.00"># Game * game_</text>
<polyline fill="none" stroke="black" points="223,-256.5 391,-256.5 "/>
<text text-anchor="start" x="231" y="-244.5" font-family="Helvetica,sans-Serif" font-size="10.00">+ virtual ~GameState</text>
<text text-anchor="start" x="231" y="-233.5" font-family="Helvetica,sans-Serif" font-size="10.00">()=default</text>
<text text-anchor="start" x="231" y="-222.5" font-family="Helvetica,sans-Serif" font-size="10.00">+ PublisherEventHandler</text>
<text text-anchor="start" x="231" y="-211.5" font-family="Helvetica,sans-Serif" font-size="10.00"> * getEventHandler()</text>
<text text-anchor="start" x="231" y="-200.5" font-family="Helvetica,sans-Serif" font-size="10.00"># GameState(Game *n</text>
<text text-anchor="start" x="231" y="-189.5" font-family="Helvetica,sans-Serif" font-size="10.00">_game, std::unique_ptr</text>
<text text-anchor="start" x="231" y="-178.5" font-family="Helvetica,sans-Serif" font-size="10.00">&lt; PublisherEventHandler</text>
<text text-anchor="start" x="231" y="-167.5" font-family="Helvetica,sans-Serif" font-size="10.00"> &gt; n_eventHandler)</text>
</a>
</g>
</g>
<!-- Node2 -->
<g id="node2" class="node">
<title>Node2</title>
<g id="a_node2"><a xlink:href="class_active_game_state.html" target="_top" xlink:title=" ">
<polygon fill="none" stroke="black" points="0,-0.5 0,-123.5 148,-123.5 148,-0.5 0,-0.5"/>
<text text-anchor="middle" x="74" y="-111.5" font-family="Helvetica,sans-Serif" font-size="10.00">ActiveGameState</text>
<polyline fill="none" stroke="black" points="0,-104.5 148,-104.5 "/>
<text text-anchor="start" x="8" y="-92.5" font-family="Helvetica,sans-Serif" font-size="10.00">&#45; Tank * player_tank_</text>
<text text-anchor="start" x="8" y="-81.5" font-family="Helvetica,sans-Serif" font-size="10.00">&#45; Board * board_</text>
<polyline fill="none" stroke="black" points="0,-74.5 148,-74.5 "/>
<text text-anchor="start" x="8" y="-62.5" font-family="Helvetica,sans-Serif" font-size="10.00">+ Board * get_board()</text>
<text text-anchor="start" x="8" y="-51.5" font-family="Helvetica,sans-Serif" font-size="10.00">+ Tank * get_player_tank()</text>
<text text-anchor="start" x="8" y="-40.5" font-family="Helvetica,sans-Serif" font-size="10.00">+ ActiveGameState()</text>
<text text-anchor="start" x="8" y="-29.5" font-family="Helvetica,sans-Serif" font-size="10.00">=delete</text>
<text text-anchor="start" x="8" y="-18.5" font-family="Helvetica,sans-Serif" font-size="10.00">+ ActiveGameState(Game</text>
<text text-anchor="start" x="8" y="-7.5" font-family="Helvetica,sans-Serif" font-size="10.00"> *game)</text>
</a>
</g>
</g>
<!-- Node1&#45;&gt;Node2 -->
<g id="edge1" class="edge">
<title>Node1&#45;&gt;Node2</title>
<path fill="none" stroke="midnightblue" d="M214.82,-168.46C192.76,-151.94 169.48,-134.51 148.34,-118.68"/>
<polygon fill="none" stroke="midnightblue" points="212.78,-171.31 222.88,-174.5 216.98,-165.71 212.78,-171.31"/>
</g>
<!-- Node3 -->
<g id="node3" class="node">
<title>Node3</title>
<g id="a_node3"><a xlink:href="class_finished_game_state.html" target="_top" xlink:title=" ">
<polygon fill="none" stroke="black" points="166.5,-17 166.5,-107 289.5,-107 289.5,-17 166.5,-17"/>
<text text-anchor="middle" x="228" y="-95" font-family="Helvetica,sans-Serif" font-size="10.00">FinishedGameState</text>
<polyline fill="none" stroke="black" points="166.5,-88 289.5,-88 "/>
<text text-anchor="middle" x="228" y="-76" font-family="Helvetica,sans-Serif" font-size="10.00"> </text>
<polyline fill="none" stroke="black" points="166.5,-69 289.5,-69 "/>
<text text-anchor="start" x="174.5" y="-57" font-family="Helvetica,sans-Serif" font-size="10.00">+ FinishedGameState</text>
<text text-anchor="start" x="174.5" y="-46" font-family="Helvetica,sans-Serif" font-size="10.00">()=delete</text>
<text text-anchor="start" x="174.5" y="-35" font-family="Helvetica,sans-Serif" font-size="10.00">+ FinishedGameState</text>
<text text-anchor="start" x="174.5" y="-24" font-family="Helvetica,sans-Serif" font-size="10.00">(Game *game)</text>
</a>
</g>
</g>
<!-- Node1&#45;&gt;Node3 -->
<g id="edge2" class="edge">
<title>Node1&#45;&gt;Node3</title>
<path fill="none" stroke="midnightblue" d="M267.84,-151C260.95,-135.79 254.05,-120.54 247.97,-107.12"/>
<polygon fill="none" stroke="midnightblue" points="264.81,-152.79 272.12,-160.45 271.18,-149.9 264.81,-152.79"/>
</g>
<!-- Node4 -->
<g id="node4" class="node">
<title>Node4</title>
<g id="a_node4"><a xlink:href="class_menu_game_state.html" target="_top" xlink:title=" ">
<polygon fill="none" stroke="black" points="308,-11.5 308,-112.5 464,-112.5 464,-11.5 308,-11.5"/>
<text text-anchor="middle" x="386" y="-100.5" font-family="Helvetica,sans-Serif" font-size="10.00">MenuGameState</text>
<polyline fill="none" stroke="black" points="308,-93.5 464,-93.5 "/>
<text text-anchor="start" x="316" y="-81.5" font-family="Helvetica,sans-Serif" font-size="10.00">&#45; std::unique_ptr&lt; Menu</text>
<text text-anchor="start" x="316" y="-70.5" font-family="Helvetica,sans-Serif" font-size="10.00"> &gt; menu_</text>
<polyline fill="none" stroke="black" points="308,-63.5 464,-63.5 "/>
<text text-anchor="start" x="316" y="-51.5" font-family="Helvetica,sans-Serif" font-size="10.00">+ Menu * get_menu()</text>
<text text-anchor="start" x="316" y="-40.5" font-family="Helvetica,sans-Serif" font-size="10.00">+ MenuGameState()=delete</text>
<text text-anchor="start" x="316" y="-29.5" font-family="Helvetica,sans-Serif" font-size="10.00">+ MenuGameState(Game</text>
<text text-anchor="start" x="316" y="-18.5" font-family="Helvetica,sans-Serif" font-size="10.00"> *game)</text>
</a>
</g>
</g>
<!-- Node1&#45;&gt;Node4 -->
<g id="edge3" class="edge">
<title>Node1&#45;&gt;Node4</title>
<path fill="none" stroke="midnightblue" d="M346.04,-151.28C352.05,-137.99 358.08,-124.68 363.56,-112.56"/>
<polygon fill="none" stroke="midnightblue" points="342.82,-149.9 341.88,-160.45 349.19,-152.79 342.82,-149.9"/>
</g>
<!-- Node5 -->
<g id="node5" class="node">
<title>Node5</title>
<g id="a_node5"><a xlink:href="class_pause_game_state.html" target="_top" xlink:title=" ">
<polygon fill="none" stroke="black" points="482,-11.5 482,-112.5 640,-112.5 640,-11.5 482,-11.5"/>
<text text-anchor="middle" x="561" y="-100.5" font-family="Helvetica,sans-Serif" font-size="10.00">PauseGameState</text>
<polyline fill="none" stroke="black" points="482,-93.5 640,-93.5 "/>
<text text-anchor="start" x="490" y="-81.5" font-family="Helvetica,sans-Serif" font-size="10.00">&#45; std::unique_ptr&lt; Menu</text>
<text text-anchor="start" x="490" y="-70.5" font-family="Helvetica,sans-Serif" font-size="10.00"> &gt; menu_</text>
<polyline fill="none" stroke="black" points="482,-63.5 640,-63.5 "/>
<text text-anchor="start" x="490" y="-51.5" font-family="Helvetica,sans-Serif" font-size="10.00">+ Menu * get_menu()</text>
<text text-anchor="start" x="490" y="-40.5" font-family="Helvetica,sans-Serif" font-size="10.00">+ PauseGameState()=delete</text>
<text text-anchor="start" x="490" y="-29.5" font-family="Helvetica,sans-Serif" font-size="10.00">+ PauseGameState(Game</text>
<text text-anchor="start" x="490" y="-18.5" font-family="Helvetica,sans-Serif" font-size="10.00"> *game)</text>
</a>
</g>
</g>
<!-- Node1&#45;&gt;Node5 -->
<g id="edge4" class="edge">
<title>Node1&#45;&gt;Node5</title>
<path fill="none" stroke="midnightblue" d="M399.49,-174.42C423.45,-158.03 449.21,-140.38 473,-124 478.36,-120.31 483.9,-116.49 489.47,-112.64"/>
<polygon fill="none" stroke="midnightblue" points="397.37,-171.62 391.09,-180.16 401.32,-177.4 397.37,-171.62"/>
</g>
</g>
</svg>
