<?xml version="1.0" encoding="UTF-8" standalone="no"?>
<!DOCTYPE svg PUBLIC "-//W3C//DTD SVG 1.1//EN"
 "http://www.w3.org/Graphics/SVG/1.1/DTD/svg11.dtd">
<!-- Generated by graphviz version 2.43.0 (0)
 -->
<!-- Title: Event Pages: 1 -->
<!--zoomable 805 -->
<svg id="main" version="1.1" xmlns="http://www.w3.org/2000/svg" xmlns:xlink="http://www.w3.org/1999/xlink" xml:space="preserve" onload="init(evt)">
<style type="text/css"><![CDATA[
.edge:hover path { stroke: red; }
.edge:hover polygon { stroke: red; fill: red; }
]]></style>
<script type="text/javascript"><![CDATA[
var edges = document.getElementsByTagName('g');
if (edges && edges.length) {
  for (var i=0;i<edges.length;i++) {
    if (edges[i].id.substr(0,4)=='edge') {
      edges[i].setAttribute('class','edge');
    }
  }
}
]]></script>
        <defs>
                <circle id="rim" cx="0" cy="0" r="7"/>
                <circle id="rim2" cx="0" cy="0" r="3.5"/>
                <g id="zoomPlus">
                        <use xlink:href="#rim" fill="#404040">
                                <set attributeName="fill" to="#808080" begin="zoomplus.mouseover" end="zoomplus.mouseout"/>
                        </use>
                        <path d="M-4,0h8M0,-4v8" fill="none" stroke="white" stroke-width="1.5" pointer-events="none"/>
                </g>
                <g id="zoomMin">
                        <use xlink:href="#rim" fill="#404040">
                                <set attributeName="fill" to="#808080" begin="zoomminus.mouseover" end="zoomminus.mouseout"/>
                        </use>
                        <path d="M-4,0h8" fill="none" stroke="white" stroke-width="1.5" pointer-events="none"/>
                </g>
                <g id="dirArrow">
                        <path fill="none" stroke="white" stroke-width="1.5" d="M0,-3.0v7 M-2.5,-0.5L0,-3.0L2.5,-0.5"/>
                </g>
               <g id="resetDef">
                       <use xlink:href="#rim2" fill="#404040">
                               <set attributeName="fill" to="#808080" begin="reset.mouseover" end="reset.mouseout"/>
                       </use>
               </g>
        </defs>

<script type="text/javascript">
var viewWidth = 463;
var viewHeight = 805;
var sectionId = 'dynsection-0';
</script>
<script xlink:href="svgpan.js"/>
<svg id="graph" class="graph">
<g id="viewport">
<title>Event</title>
<!-- Node1 -->
<g id="node1" class="node">
<title>Node1</title>
<g id="a_node1"><a xlink:title="Represents a single event of type Event::EventType.">
<polygon fill="#bfbfbf" stroke="black" points="4.5,-0.5 4.5,-112.5 164.5,-112.5 164.5,-0.5 4.5,-0.5"/>
<text text-anchor="middle" x="84.5" y="-100.5" font-family="Helvetica,sans-Serif" font-size="10.00">Event</text>
<polyline fill="none" stroke="black" points="4.5,-93.5 164.5,-93.5 "/>
<text text-anchor="middle" x="84.5" y="-81.5" font-family="Helvetica,sans-Serif" font-size="10.00"> </text>
<polyline fill="none" stroke="black" points="4.5,-74.5 164.5,-74.5 "/>
<text text-anchor="start" x="12.5" y="-62.5" font-family="Helvetica,sans-Serif" font-size="10.00">+ Event(EventType, unsigned</text>
<text text-anchor="start" x="12.5" y="-51.5" font-family="Helvetica,sans-Serif" font-size="10.00"> int ui1)</text>
<text text-anchor="start" x="12.5" y="-40.5" font-family="Helvetica,sans-Serif" font-size="10.00">+ Event(EventType)</text>
<text text-anchor="start" x="12.5" y="-29.5" font-family="Helvetica,sans-Serif" font-size="10.00">+ Event(EventType e,</text>
<text text-anchor="start" x="12.5" y="-18.5" font-family="Helvetica,sans-Serif" font-size="10.00"> Tank *tank)</text>
<text text-anchor="start" x="12.5" y="-7.5" font-family="Helvetica,sans-Serif" font-size="10.00">+ Event()=delete</text>
</a>
</g>
</g>
<!-- Node2 -->
<g id="node2" class="node">
<title>Node2</title>
<g id="a_node2"><a xlink:title=" ">
<polygon fill="none" stroke="black" points="23,-160.5 23,-217.5 90,-217.5 90,-160.5 23,-160.5"/>
<text text-anchor="middle" x="56.5" y="-205.5" font-family="Helvetica,sans-Serif" font-size="10.00">EventType</text>
<polyline fill="none" stroke="black" points="23,-198.5 90,-198.5 "/>
<text text-anchor="middle" x="56.5" y="-186.5" font-family="Helvetica,sans-Serif" font-size="10.00"> </text>
<polyline fill="none" stroke="black" points="23,-179.5 90,-179.5 "/>
<text text-anchor="middle" x="56.5" y="-167.5" font-family="Helvetica,sans-Serif" font-size="10.00"> </text>
</a>
</g>
</g>
<!-- Node2&#45;&gt;Node1 -->
<g id="edge1" class="edge">
<title>Node2&#45;&gt;Node1</title>
<path fill="none" stroke="#404040" d="M62.44,-160.32C64.7,-149.78 67.39,-137.25 70.1,-124.62"/>
<polygon fill="none" stroke="#404040" points="70.17,-124.28 67.52,-117.58 72.69,-112.55 75.34,-119.25 70.17,-124.28"/>
<text text-anchor="middle" x="85.5" y="-134" font-family="Helvetica,sans-Serif" font-size="10.00"> +type</text>
</g>
<!-- Node3 -->
<g id="node3" class="node">
<title>Node3</title>
<g id="a_node3"><a xlink:href="union_event_1_1info__u.html" target="_top" xlink:title=" ">
<polygon fill="none" stroke="black" points="108.5,-160.5 108.5,-217.5 188.5,-217.5 188.5,-160.5 108.5,-160.5"/>
<text text-anchor="middle" x="148.5" y="-205.5" font-family="Helvetica,sans-Serif" font-size="10.00">Event::info_u</text>
<polyline fill="none" stroke="black" points="108.5,-198.5 188.5,-198.5 "/>
<text text-anchor="middle" x="148.5" y="-186.5" font-family="Helvetica,sans-Serif" font-size="10.00"> </text>
<polyline fill="none" stroke="black" points="108.5,-179.5 188.5,-179.5 "/>
<text text-anchor="start" x="116.5" y="-167.5" font-family="Helvetica,sans-Serif" font-size="10.00">+ ~info_u()</text>
</a>
</g>
</g>
<!-- Node3&#45;&gt;Node1 -->
<g id="edge2" class="edge">
<title>Node3&#45;&gt;Node1</title>
<path fill="none" stroke="#404040" d="M134.93,-160.32C129.6,-149.45 123.23,-136.47 116.84,-123.45"/>
<polygon fill="none" stroke="#404040" points="116.78,-123.32 110.55,-119.7 111.5,-112.55 117.73,-116.17 116.78,-123.32"/>
<text text-anchor="middle" x="140" y="-134" font-family="Helvetica,sans-Serif" font-size="10.00"> +info</text>
</g>
<!-- Node4 -->
<g id="node4" class="node">
<title>Node4</title>
<g id="a_node4"><a xlink:href="struct_event_1_1_key_event_info.html" target="_top" xlink:title=" ">
<polygon fill="none" stroke="black" points="37,-486 37,-543 152,-543 152,-486 37,-486"/>
<text text-anchor="middle" x="94.5" y="-531" font-family="Helvetica,sans-Serif" font-size="10.00">Event::KeyEventInfo</text>
<polyline fill="none" stroke="black" points="37,-524 152,-524 "/>
<text text-anchor="middle" x="94.5" y="-512" font-family="Helvetica,sans-Serif" font-size="10.00"> </text>
<polyline fill="none" stroke="black" points="37,-505 152,-505 "/>
<text text-anchor="middle" x="94.5" y="-493" font-family="Helvetica,sans-Serif" font-size="10.00"> </text>
</a>
</g>
</g>
<!-- Node4&#45;&gt;Node3 -->
<g id="edge3" class="edge">
<title>Node4&#45;&gt;Node3</title>
<path fill="none" stroke="#404040" d="M97.67,-485.78C103.13,-439.73 115.21,-344.63 130.5,-265 132.73,-253.41 135.55,-240.91 138.3,-229.51"/>
<polygon fill="none" stroke="#404040" points="138.35,-229.3 135.9,-222.52 141.22,-217.65 143.67,-224.43 138.35,-229.3"/>
<text text-anchor="middle" x="154.5" y="-291.5" font-family="Helvetica,sans-Serif" font-size="10.00"> +keyInfo</text>
</g>
<!-- Node5 -->
<g id="node5" class="node">
<title>Node5</title>
<g id="a_node5"><a xlink:title=" ">
<polygon fill="none" stroke="black" points="102,-739.5 102,-796.5 179,-796.5 179,-739.5 102,-739.5"/>
<text text-anchor="middle" x="140.5" y="-784.5" font-family="Helvetica,sans-Serif" font-size="10.00">unsigned int</text>
<polyline fill="none" stroke="black" points="102,-777.5 179,-777.5 "/>
<text text-anchor="middle" x="140.5" y="-765.5" font-family="Helvetica,sans-Serif" font-size="10.00"> </text>
<polyline fill="none" stroke="black" points="102,-758.5 179,-758.5 "/>
<text text-anchor="middle" x="140.5" y="-746.5" font-family="Helvetica,sans-Serif" font-size="10.00"> </text>
</a>
</g>
</g>
<!-- Node5&#45;&gt;Node4 -->
<g id="edge4" class="edge">
<title>Node5&#45;&gt;Node4</title>
<path fill="none" stroke="#404040" d="M109.6,-739.29C105.1,-733.71 101.11,-727.53 98.5,-721 76.88,-666.82 81.24,-598.04 87.22,-555.39"/>
<polygon fill="none" stroke="#404040" points="87.25,-555.17 84.2,-548.64 89.05,-543.31 92.11,-549.84 87.25,-555.17"/>
<text text-anchor="middle" x="125.5" y="-696.5" font-family="Helvetica,sans-Serif" font-size="10.00"> +keyCode</text>
</g>
<!-- Node8 -->
<g id="node8" class="node">
<title>Node8</title>
<g id="a_node8"><a xlink:href="class_tank.html" target="_top" xlink:title="Base class for tank representation.">
<polygon fill="none" stroke="black" points="170.5,-370.5 170.5,-658.5 316.5,-658.5 316.5,-370.5 170.5,-370.5"/>
<text text-anchor="middle" x="243.5" y="-646.5" font-family="Helvetica,sans-Serif" font-size="10.00">Tank</text>
<polyline fill="none" stroke="black" points="170.5,-639.5 316.5,-639.5 "/>
<text text-anchor="middle" x="243.5" y="-627.5" font-family="Helvetica,sans-Serif" font-size="10.00"> </text>
<polyline fill="none" stroke="black" points="170.5,-620.5 316.5,-620.5 "/>
<text text-anchor="start" x="178.5" y="-608.5" font-family="Helvetica,sans-Serif" font-size="10.00">+ virtual ~Tank()=default</text>
<text text-anchor="start" x="178.5" y="-597.5" font-family="Helvetica,sans-Serif" font-size="10.00">+ void moveX(int delta_x)</text>
<text text-anchor="start" x="178.5" y="-586.5" font-family="Helvetica,sans-Serif" font-size="10.00">+ void moveY(int delta_y)</text>
<text text-anchor="start" x="178.5" y="-575.5" font-family="Helvetica,sans-Serif" font-size="10.00">+ void deltaLives(int</text>
<text text-anchor="start" x="178.5" y="-564.5" font-family="Helvetica,sans-Serif" font-size="10.00"> delta_l)</text>
<text text-anchor="start" x="178.5" y="-553.5" font-family="Helvetica,sans-Serif" font-size="10.00">+ TankType getType()</text>
<text text-anchor="start" x="178.5" y="-542.5" font-family="Helvetica,sans-Serif" font-size="10.00"> const</text>
<text text-anchor="start" x="178.5" y="-531.5" font-family="Helvetica,sans-Serif" font-size="10.00">+ unsigned int getX()</text>
<text text-anchor="start" x="178.5" y="-520.5" font-family="Helvetica,sans-Serif" font-size="10.00"> const</text>
<text text-anchor="start" x="178.5" y="-509.5" font-family="Helvetica,sans-Serif" font-size="10.00">+ unsigned int getY()</text>
<text text-anchor="start" x="178.5" y="-498.5" font-family="Helvetica,sans-Serif" font-size="10.00"> const</text>
<text text-anchor="start" x="178.5" y="-487.5" font-family="Helvetica,sans-Serif" font-size="10.00">+ unsigned int getLives</text>
<text text-anchor="start" x="178.5" y="-476.5" font-family="Helvetica,sans-Serif" font-size="10.00">() const</text>
<text text-anchor="start" x="178.5" y="-465.5" font-family="Helvetica,sans-Serif" font-size="10.00">+ double getTankSpeed</text>
<text text-anchor="start" x="178.5" y="-454.5" font-family="Helvetica,sans-Serif" font-size="10.00">() const</text>
<text text-anchor="start" x="178.5" y="-443.5" font-family="Helvetica,sans-Serif" font-size="10.00">+ double getBulletSpeed</text>
<text text-anchor="start" x="178.5" y="-432.5" font-family="Helvetica,sans-Serif" font-size="10.00">() const</text>
<text text-anchor="start" x="178.5" y="-421.5" font-family="Helvetica,sans-Serif" font-size="10.00">+ Direction getFacing</text>
<text text-anchor="start" x="178.5" y="-410.5" font-family="Helvetica,sans-Serif" font-size="10.00">() const</text>
<text text-anchor="start" x="178.5" y="-399.5" font-family="Helvetica,sans-Serif" font-size="10.00">+ unsigned int getPoints</text>
<text text-anchor="start" x="178.5" y="-388.5" font-family="Helvetica,sans-Serif" font-size="10.00">() const</text>
<text text-anchor="start" x="178.5" y="-377.5" font-family="Helvetica,sans-Serif" font-size="10.00"># Tank()=default</text>
</a>
</g>
</g>
<!-- Node5&#45;&gt;Node8 -->
<g id="edge9" class="edge">
<title>Node5&#45;&gt;Node8</title>
<path fill="none" stroke="#404040" d="M151.92,-739.12C159.26,-721.2 169.45,-696.32 180.37,-669.65"/>
<polygon fill="none" stroke="#404040" points="180.37,-669.64 178.95,-662.57 184.92,-658.53 186.35,-665.6 180.37,-669.64"/>
<text text-anchor="middle" x="199.5" y="-713" font-family="Helvetica,sans-Serif" font-size="10.00"> #lives_</text>
<text text-anchor="middle" x="199.5" y="-702" font-family="Helvetica,sans-Serif" font-size="10.00">#points_</text>
<text text-anchor="middle" x="199.5" y="-691" font-family="Helvetica,sans-Serif" font-size="10.00">#x_</text>
<text text-anchor="middle" x="199.5" y="-680" font-family="Helvetica,sans-Serif" font-size="10.00">#y_</text>
</g>
<!-- Node6 -->
<g id="node6" class="node">
<title>Node6</title>
<g id="a_node6"><a xlink:title=" ">
<polygon fill="none" stroke="black" points="0,-739.5 0,-796.5 65,-796.5 65,-739.5 0,-739.5"/>
<text text-anchor="middle" x="32.5" y="-784.5" font-family="Helvetica,sans-Serif" font-size="10.00">KeyAction</text>
<polyline fill="none" stroke="black" points="0,-777.5 65,-777.5 "/>
<text text-anchor="middle" x="32.5" y="-765.5" font-family="Helvetica,sans-Serif" font-size="10.00"> </text>
<polyline fill="none" stroke="black" points="0,-758.5 65,-758.5 "/>
<text text-anchor="middle" x="32.5" y="-746.5" font-family="Helvetica,sans-Serif" font-size="10.00"> </text>
</a>
</g>
</g>
<!-- Node6&#45;&gt;Node4 -->
<g id="edge5" class="edge">
<title>Node6&#45;&gt;Node4</title>
<path fill="none" stroke="#404040" d="M33.72,-739.19C34.89,-721.28 37.15,-697.59 41.5,-677 50.54,-634.25 66.86,-586.92 79,-554.61"/>
<polygon fill="none" stroke="#404040" points="79.16,-554.22 77.56,-547.18 83.43,-543 85.03,-550.04 79.16,-554.22"/>
<text text-anchor="middle" x="62.5" y="-696.5" font-family="Helvetica,sans-Serif" font-size="10.00"> +action</text>
</g>
<!-- Node7 -->
<g id="node7" class="node">
<title>Node7</title>
<g id="a_node7"><a xlink:href="struct_event_1_1_tank_info.html" target="_top" xlink:title=" ">
<polygon fill="none" stroke="black" points="187.5,-265.5 187.5,-322.5 279.5,-322.5 279.5,-265.5 187.5,-265.5"/>
<text text-anchor="middle" x="233.5" y="-310.5" font-family="Helvetica,sans-Serif" font-size="10.00">Event::TankInfo</text>
<polyline fill="none" stroke="black" points="187.5,-303.5 279.5,-303.5 "/>
<text text-anchor="middle" x="233.5" y="-291.5" font-family="Helvetica,sans-Serif" font-size="10.00"> </text>
<polyline fill="none" stroke="black" points="187.5,-284.5 279.5,-284.5 "/>
<text text-anchor="middle" x="233.5" y="-272.5" font-family="Helvetica,sans-Serif" font-size="10.00"> </text>
</a>
</g>
</g>
<!-- Node7&#45;&gt;Node3 -->
<g id="edge6" class="edge">
<title>Node7&#45;&gt;Node3</title>
<path fill="none" stroke="#404040" d="M210.72,-265.4C201,-253.62 189.52,-239.7 179.08,-227.05"/>
<polygon fill="none" stroke="#404040" points="178.98,-226.93 172.08,-224.85 171.34,-217.68 178.25,-219.76 178.98,-226.93"/>
<text text-anchor="middle" x="220.5" y="-239" font-family="Helvetica,sans-Serif" font-size="10.00"> +tankInfo</text>
</g>
<!-- Node8&#45;&gt;Node7 -->
<g id="edge7" class="edge">
<title>Node8&#45;&gt;Node7</title>
<path fill="none" stroke="#404040" d="M236.94,-370.2C236.36,-357.39 235.8,-345.27 235.31,-334.66"/>
<polygon fill="none" stroke="#404040" points="235.31,-334.49 231.04,-328.68 234.76,-322.51 239.03,-328.32 235.31,-334.49"/>
<text text-anchor="middle" x="253.5" y="-344" font-family="Helvetica,sans-Serif" font-size="10.00"> +tank</text>
</g>
<!-- Node9 -->
<g id="node9" class="node">
<title>Node9</title>
<g id="a_node9"><a xlink:title=" ">
<polygon fill="none" stroke="black" points="392.5,-739.5 392.5,-796.5 454.5,-796.5 454.5,-739.5 392.5,-739.5"/>
<text text-anchor="middle" x="423.5" y="-784.5" font-family="Helvetica,sans-Serif" font-size="10.00">TankType</text>
<polyline fill="none" stroke="black" points="392.5,-777.5 454.5,-777.5 "/>
<text text-anchor="middle" x="423.5" y="-765.5" font-family="Helvetica,sans-Serif" font-size="10.00"> </text>
<polyline fill="none" stroke="black" points="392.5,-758.5 454.5,-758.5 "/>
<text text-anchor="middle" x="423.5" y="-746.5" font-family="Helvetica,sans-Serif" font-size="10.00"> </text>
</a>
</g>
</g>
<!-- Node9&#45;&gt;Node8 -->
<g id="edge8" class="edge">
<title>Node9&#45;&gt;Node8</title>
<path fill="none" stroke="#404040" d="M413.98,-739.12C407.1,-720.76 396.87,-696.58 384.5,-677 367.4,-649.93 345.88,-622.82 324.83,-598.75"/>
<polygon fill="none" stroke="#404040" points="324.76,-598.67 317.78,-596.83 316.8,-589.69 323.77,-591.52 324.76,-598.67"/>
<text text-anchor="middle" x="425" y="-696.5" font-family="Helvetica,sans-Serif" font-size="10.00"> #type_</text>
</g>
<!-- Node10 -->
<g id="node10" class="node">
<title>Node10</title>
<g id="a_node10"><a xlink:title=" ">
<polygon fill="none" stroke="black" points="216.5,-739.5 216.5,-796.5 266.5,-796.5 266.5,-739.5 216.5,-739.5"/>
<text text-anchor="middle" x="241.5" y="-784.5" font-family="Helvetica,sans-Serif" font-size="10.00">double</text>
<polyline fill="none" stroke="black" points="216.5,-777.5 266.5,-777.5 "/>
<text text-anchor="middle" x="241.5" y="-765.5" font-family="Helvetica,sans-Serif" font-size="10.00"> </text>
<polyline fill="none" stroke="black" points="216.5,-758.5 266.5,-758.5 "/>
<text text-anchor="middle" x="241.5" y="-746.5" font-family="Helvetica,sans-Serif" font-size="10.00"> </text>
</a>
</g>
</g>
<!-- Node10&#45;&gt;Node8 -->
<g id="edge10" class="edge">
<title>Node10&#45;&gt;Node8</title>
<path fill="none" stroke="#404040" d="M241.72,-739.12C241.86,-721.43 242.06,-696.98 242.27,-670.71"/>
<polygon fill="none" stroke="#404040" points="242.27,-670.53 238.31,-664.5 242.36,-658.53 246.31,-664.56 242.27,-670.53"/>
<text text-anchor="middle" x="282" y="-702" font-family="Helvetica,sans-Serif" font-size="10.00"> #bullet_speed_</text>
<text text-anchor="middle" x="282" y="-691" font-family="Helvetica,sans-Serif" font-size="10.00">#tank_speed_</text>
</g>
<!-- Node11 -->
<g id="node11" class="node">
<title>Node11</title>
<g id="a_node11"><a xlink:title=" ">
<polygon fill="none" stroke="black" points="313,-739.5 313,-796.5 374,-796.5 374,-739.5 313,-739.5"/>
<text text-anchor="middle" x="343.5" y="-784.5" font-family="Helvetica,sans-Serif" font-size="10.00">Direction</text>
<polyline fill="none" stroke="black" points="313,-777.5 374,-777.5 "/>
<text text-anchor="middle" x="343.5" y="-765.5" font-family="Helvetica,sans-Serif" font-size="10.00"> </text>
<polyline fill="none" stroke="black" points="313,-758.5 374,-758.5 "/>
<text text-anchor="middle" x="343.5" y="-746.5" font-family="Helvetica,sans-Serif" font-size="10.00"> </text>
</a>
</g>
</g>
<!-- Node11&#45;&gt;Node8 -->
<g id="edge11" class="edge">
<title>Node11&#45;&gt;Node8</title>
<path fill="none" stroke="#404040" d="M338.32,-739.38C334.56,-721.35 328.84,-697.44 321.5,-677 320.69,-674.75 319.86,-672.48 319.01,-670.21"/>
<polygon fill="none" stroke="#404040" points="318.93,-670 313.03,-665.85 314.6,-658.81 320.5,-662.96 318.93,-670"/>
<text text-anchor="middle" x="357" y="-696.5" font-family="Helvetica,sans-Serif" font-size="10.00"> #facing_</text>
</g>
</g>
</svg>
        <g id="navigator" transform="translate(0 0)" fill="#404254">
                <rect fill="#f2f5e9" fill-opacity="0.5" stroke="#606060" stroke-width=".5" x="0" y="0" width="60" height="60"/>
                <use id="zoomplus" xlink:href="#zoomPlus" x="17" y="9" onmousedown="handleZoom(evt,'in')"/>
                <use id="zoomminus" xlink:href="#zoomMin" x="42" y="9" onmousedown="handleZoom(evt,'out')"/>
                <use id="reset" xlink:href="#resetDef" x="30" y="36" onmousedown="handleReset()"/>
                <g id="arrowUp" xlink:href="#dirArrow" transform="translate(30 24)" onmousedown="handlePan(0,-1)">
                  <use xlink:href="#rim" fill="#404040">
                        <set attributeName="fill" to="#808080" begin="arrowUp.mouseover" end="arrowUp.mouseout"/>
                  </use>
                  <path fill="none" stroke="white" stroke-width="1.5" d="M0,-3.0v7 M-2.5,-0.5L0,-3.0L2.5,-0.5"/>
                </g>
                <g id="arrowRight" xlink:href="#dirArrow" transform="rotate(90) translate(36 -43)" onmousedown="handlePan(1,0)">
                  <use xlink:href="#rim" fill="#404040">
                        <set attributeName="fill" to="#808080" begin="arrowRight.mouseover" end="arrowRight.mouseout"/>
                  </use>
                  <path fill="none" stroke="white" stroke-width="1.5" d="M0,-3.0v7 M-2.5,-0.5L0,-3.0L2.5,-0.5"/>
                </g>
                <g id="arrowDown" xlink:href="#dirArrow" transform="rotate(180) translate(-30 -48)" onmousedown="handlePan(0,1)">
                  <use xlink:href="#rim" fill="#404040">
                        <set attributeName="fill" to="#808080" begin="arrowDown.mouseover" end="arrowDown.mouseout"/>
                  </use>
                  <path fill="none" stroke="white" stroke-width="1.5" d="M0,-3.0v7 M-2.5,-0.5L0,-3.0L2.5,-0.5"/>
                </g>
                <g id="arrowLeft" xlink:href="#dirArrow" transform="rotate(270) translate(-36 17)" onmousedown="handlePan(-1,0)">
                  <use xlink:href="#rim" fill="#404040">
                        <set attributeName="fill" to="#808080" begin="arrowLeft.mouseover" end="arrowLeft.mouseout"/>
                  </use>
                  <path fill="none" stroke="white" stroke-width="1.5" d="M0,-3.0v7 M-2.5,-0.5L0,-3.0L2.5,-0.5"/>
                </g>
        </g>
        <svg viewBox="0 0 15 15" width="100%" height="30px" preserveAspectRatio="xMaxYMin meet">
         <g id="arrow_out" transform="scale(0.3 0.3)">
          <a xlink:href="class_event__coll__graph_org.svg" target="_base">
           <rect id="button" ry="5" rx="5" y="6" x="6" height="38" width="38"
                fill="#f2f5e9" fill-opacity="0.5" stroke="#606060" stroke-width="1.0"/>
           <path id="arrow"
             d="M 11.500037,31.436501 C 11.940474,20.09759 22.043105,11.32322 32.158766,21.979434 L 37.068811,17.246167 C 37.068811,17.246167 37.088388,32 37.088388,32 L 22.160133,31.978069 C 22.160133,31.978069 26.997745,27.140456 26.997745,27.140456 C 18.528582,18.264221 13.291696,25.230495 11.500037,31.436501 z"
             style="fill:#404040;"/>
          </a>
         </g>
        </svg>
</svg>
