<?xml version="1.0" encoding="UTF-8" standalone="no"?>
<!DOCTYPE svg PUBLIC "-//W3C//DTD SVG 1.1//EN"
 "http://www.w3.org/Graphics/SVG/1.1/DTD/svg11.dtd">
<!-- Generated by graphviz version 2.43.0 (0)
 -->
<!-- Title: Tank Pages: 1 -->
<svg width="716pt" height="512pt"
 viewBox="0.00 0.00 716.00 512.00" xmlns="http://www.w3.org/2000/svg" xmlns:xlink="http://www.w3.org/1999/xlink">
<g id="graph0" class="graph" transform="scale(1 1) rotate(0) translate(4 508)">
<title>Tank</title>
<!-- Node1 -->
<g id="node1" class="node">
<title>Node1</title>
<g id="a_node1"><a xlink:title="Base class for tank representation.">
<polygon fill="#bfbfbf" stroke="black" points="276,-138.5 276,-503.5 422,-503.5 422,-138.5 276,-138.5"/>
<text text-anchor="middle" x="349" y="-491.5" font-family="Helvetica,sans-Serif" font-size="10.00">Tank</text>
<polyline fill="none" stroke="black" points="276,-484.5 422,-484.5 "/>
<text text-anchor="start" x="284" y="-472.5" font-family="Helvetica,sans-Serif" font-size="10.00"># TankType type_</text>
<text text-anchor="start" x="284" y="-461.5" font-family="Helvetica,sans-Serif" font-size="10.00"># unsigned int x_</text>
<text text-anchor="start" x="284" y="-450.5" font-family="Helvetica,sans-Serif" font-size="10.00"># unsigned int y_</text>
<text text-anchor="start" x="284" y="-439.5" font-family="Helvetica,sans-Serif" font-size="10.00"># unsigned int lives_</text>
<text text-anchor="start" x="284" y="-428.5" font-family="Helvetica,sans-Serif" font-size="10.00"># double tank_speed_</text>
<text text-anchor="start" x="284" y="-417.5" font-family="Helvetica,sans-Serif" font-size="10.00"># double bullet_speed_</text>
<text text-anchor="start" x="284" y="-406.5" font-family="Helvetica,sans-Serif" font-size="10.00"># Direction facing_</text>
<text text-anchor="start" x="284" y="-395.5" font-family="Helvetica,sans-Serif" font-size="10.00"># unsigned int points_</text>
<polyline fill="none" stroke="black" points="276,-388.5 422,-388.5 "/>
<text text-anchor="start" x="284" y="-376.5" font-family="Helvetica,sans-Serif" font-size="10.00">+ virtual ~Tank()=default</text>
<text text-anchor="start" x="284" y="-365.5" font-family="Helvetica,sans-Serif" font-size="10.00">+ void moveX(int delta_x)</text>
<text text-anchor="start" x="284" y="-354.5" font-family="Helvetica,sans-Serif" font-size="10.00">+ void moveY(int delta_y)</text>
<text text-anchor="start" x="284" y="-343.5" font-family="Helvetica,sans-Serif" font-size="10.00">+ void deltaLives(int</text>
<text text-anchor="start" x="284" y="-332.5" font-family="Helvetica,sans-Serif" font-size="10.00"> delta_l)</text>
<text text-anchor="start" x="284" y="-321.5" font-family="Helvetica,sans-Serif" font-size="10.00">+ TankType getType()</text>
<text text-anchor="start" x="284" y="-310.5" font-family="Helvetica,sans-Serif" font-size="10.00"> const</text>
<text text-anchor="start" x="284" y="-299.5" font-family="Helvetica,sans-Serif" font-size="10.00">+ unsigned int getX()</text>
<text text-anchor="start" x="284" y="-288.5" font-family="Helvetica,sans-Serif" font-size="10.00"> const</text>
<text text-anchor="start" x="284" y="-277.5" font-family="Helvetica,sans-Serif" font-size="10.00">+ unsigned int getY()</text>
<text text-anchor="start" x="284" y="-266.5" font-family="Helvetica,sans-Serif" font-size="10.00"> const</text>
<text text-anchor="start" x="284" y="-255.5" font-family="Helvetica,sans-Serif" font-size="10.00">+ unsigned int getLives</text>
<text text-anchor="start" x="284" y="-244.5" font-family="Helvetica,sans-Serif" font-size="10.00">() const</text>
<text text-anchor="start" x="284" y="-233.5" font-family="Helvetica,sans-Serif" font-size="10.00">+ double getTankSpeed</text>
<text text-anchor="start" x="284" y="-222.5" font-family="Helvetica,sans-Serif" font-size="10.00">() const</text>
<text text-anchor="start" x="284" y="-211.5" font-family="Helvetica,sans-Serif" font-size="10.00">+ double getBulletSpeed</text>
<text text-anchor="start" x="284" y="-200.5" font-family="Helvetica,sans-Serif" font-size="10.00">() const</text>
<text text-anchor="start" x="284" y="-189.5" font-family="Helvetica,sans-Serif" font-size="10.00">+ Direction getFacing</text>
<text text-anchor="start" x="284" y="-178.5" font-family="Helvetica,sans-Serif" font-size="10.00">() const</text>
<text text-anchor="start" x="284" y="-167.5" font-family="Helvetica,sans-Serif" font-size="10.00">+ unsigned int getPoints</text>
<text text-anchor="start" x="284" y="-156.5" font-family="Helvetica,sans-Serif" font-size="10.00">() const</text>
<text text-anchor="start" x="284" y="-145.5" font-family="Helvetica,sans-Serif" font-size="10.00"># Tank()=default</text>
</a>
</g>
</g>
<!-- Node2 -->
<g id="node2" class="node">
<title>Node2</title>
<g id="a_node2"><a xlink:href="class_armor_tank.html" target="_top" xlink:title=" ">
<polygon fill="none" stroke="black" points="0,-0.5 0,-101.5 128,-101.5 128,-0.5 0,-0.5"/>
<text text-anchor="middle" x="64" y="-89.5" font-family="Helvetica,sans-Serif" font-size="10.00">ArmorTank</text>
<polyline fill="none" stroke="black" points="0,-82.5 128,-82.5 "/>
<text text-anchor="middle" x="64" y="-70.5" font-family="Helvetica,sans-Serif" font-size="10.00"> </text>
<polyline fill="none" stroke="black" points="0,-63.5 128,-63.5 "/>
<text text-anchor="start" x="8" y="-51.5" font-family="Helvetica,sans-Serif" font-size="10.00">+ ArmorTank()=delete</text>
<text text-anchor="start" x="8" y="-40.5" font-family="Helvetica,sans-Serif" font-size="10.00">+ ArmorTank(unsigned</text>
<text text-anchor="start" x="8" y="-29.5" font-family="Helvetica,sans-Serif" font-size="10.00"> int x, unsigned int</text>
<text text-anchor="start" x="8" y="-18.5" font-family="Helvetica,sans-Serif" font-size="10.00"> y, Direction facing</text>
<text text-anchor="start" x="8" y="-7.5" font-family="Helvetica,sans-Serif" font-size="10.00">=North)</text>
</a>
</g>
</g>
<!-- Node1&#45;&gt;Node2 -->
<g id="edge1" class="edge">
<title>Node1&#45;&gt;Node2</title>
<path fill="none" stroke="midnightblue" d="M268.6,-244.4C220.08,-198.77 159.61,-141.91 117.04,-101.87"/>
<polygon fill="none" stroke="midnightblue" points="266.29,-247.03 275.98,-251.33 271.09,-241.93 266.29,-247.03"/>
</g>
<!-- Node3 -->
<g id="node3" class="node">
<title>Node3</title>
<g id="a_node3"><a xlink:href="class_basic_tank.html" target="_top" xlink:title=" ">
<polygon fill="none" stroke="black" points="146.5,-0.5 146.5,-101.5 271.5,-101.5 271.5,-0.5 146.5,-0.5"/>
<text text-anchor="middle" x="209" y="-89.5" font-family="Helvetica,sans-Serif" font-size="10.00">BasicTank</text>
<polyline fill="none" stroke="black" points="146.5,-82.5 271.5,-82.5 "/>
<text text-anchor="middle" x="209" y="-70.5" font-family="Helvetica,sans-Serif" font-size="10.00"> </text>
<polyline fill="none" stroke="black" points="146.5,-63.5 271.5,-63.5 "/>
<text text-anchor="start" x="154.5" y="-51.5" font-family="Helvetica,sans-Serif" font-size="10.00">+ BasicTank()=delete</text>
<text text-anchor="start" x="154.5" y="-40.5" font-family="Helvetica,sans-Serif" font-size="10.00">+ BasicTank(unsigned</text>
<text text-anchor="start" x="154.5" y="-29.5" font-family="Helvetica,sans-Serif" font-size="10.00"> int x, unsigned int</text>
<text text-anchor="start" x="154.5" y="-18.5" font-family="Helvetica,sans-Serif" font-size="10.00"> y, Direction facing</text>
<text text-anchor="start" x="154.5" y="-7.5" font-family="Helvetica,sans-Serif" font-size="10.00">=North)</text>
</a>
</g>
</g>
<!-- Node1&#45;&gt;Node3 -->
<g id="edge2" class="edge">
<title>Node1&#45;&gt;Node3</title>
<path fill="none" stroke="midnightblue" d="M271.28,-171.22C258.17,-146.13 245.43,-121.74 234.92,-101.63"/>
<polygon fill="none" stroke="midnightblue" points="268.19,-172.87 275.92,-180.11 274.4,-169.63 268.19,-172.87"/>
</g>
<!-- Node4 -->
<g id="node4" class="node">
<title>Node4</title>
<g id="a_node4"><a xlink:href="class_fast_tank.html" target="_top" xlink:title=" ">
<polygon fill="none" stroke="black" points="290,-0.5 290,-101.5 408,-101.5 408,-0.5 290,-0.5"/>
<text text-anchor="middle" x="349" y="-89.5" font-family="Helvetica,sans-Serif" font-size="10.00">FastTank</text>
<polyline fill="none" stroke="black" points="290,-82.5 408,-82.5 "/>
<text text-anchor="middle" x="349" y="-70.5" font-family="Helvetica,sans-Serif" font-size="10.00"> </text>
<polyline fill="none" stroke="black" points="290,-63.5 408,-63.5 "/>
<text text-anchor="start" x="298" y="-51.5" font-family="Helvetica,sans-Serif" font-size="10.00">+ FastTank()=delete</text>
<text text-anchor="start" x="298" y="-40.5" font-family="Helvetica,sans-Serif" font-size="10.00">+ FastTank(unsigned</text>
<text text-anchor="start" x="298" y="-29.5" font-family="Helvetica,sans-Serif" font-size="10.00"> int x, unsigned int</text>
<text text-anchor="start" x="298" y="-18.5" font-family="Helvetica,sans-Serif" font-size="10.00"> y, Direction facing</text>
<text text-anchor="start" x="298" y="-7.5" font-family="Helvetica,sans-Serif" font-size="10.00">=North)</text>
</a>
</g>
</g>
<!-- Node1&#45;&gt;Node4 -->
<g id="edge3" class="edge">
<title>Node1&#45;&gt;Node4</title>
<path fill="none" stroke="midnightblue" d="M349,-128.02C349,-118.72 349,-109.89 349,-101.75"/>
<polygon fill="none" stroke="midnightblue" points="345.5,-128.27 349,-138.27 352.5,-128.27 345.5,-128.27"/>
</g>
<!-- Node5 -->
<g id="node5" class="node">
<title>Node5</title>
<g id="a_node5"><a xlink:href="class_player_tank.html" target="_top" xlink:title=" ">
<polygon fill="none" stroke="black" points="426,-0.5 426,-101.5 562,-101.5 562,-0.5 426,-0.5"/>
<text text-anchor="middle" x="494" y="-89.5" font-family="Helvetica,sans-Serif" font-size="10.00">PlayerTank</text>
<polyline fill="none" stroke="black" points="426,-82.5 562,-82.5 "/>
<text text-anchor="middle" x="494" y="-70.5" font-family="Helvetica,sans-Serif" font-size="10.00"> </text>
<polyline fill="none" stroke="black" points="426,-63.5 562,-63.5 "/>
<text text-anchor="start" x="434" y="-51.5" font-family="Helvetica,sans-Serif" font-size="10.00">+ PlayerTank()=delete</text>
<text text-anchor="start" x="434" y="-40.5" font-family="Helvetica,sans-Serif" font-size="10.00">+ PlayerTank(unsigned</text>
<text text-anchor="start" x="434" y="-29.5" font-family="Helvetica,sans-Serif" font-size="10.00"> int x, unsigned int</text>
<text text-anchor="start" x="434" y="-18.5" font-family="Helvetica,sans-Serif" font-size="10.00"> y, unsigned int lives,</text>
<text text-anchor="start" x="434" y="-7.5" font-family="Helvetica,sans-Serif" font-size="10.00"> Direction facing=North)</text>
</a>
</g>
</g>
<!-- Node1&#45;&gt;Node5 -->
<g id="edge4" class="edge">
<title>Node1&#45;&gt;Node5</title>
<path fill="none" stroke="midnightblue" d="M427.04,-175.75C441.49,-149.06 455.64,-122.91 467.18,-101.57"/>
<polygon fill="none" stroke="midnightblue" points="423.82,-174.36 422.14,-184.82 429.97,-177.69 423.82,-174.36"/>
</g>
<!-- Node6 -->
<g id="node6" class="node">
<title>Node6</title>
<g id="a_node6"><a xlink:href="class_power_tank.html" target="_top" xlink:title=" ">
<polygon fill="none" stroke="black" points="580,-0.5 580,-101.5 708,-101.5 708,-0.5 580,-0.5"/>
<text text-anchor="middle" x="644" y="-89.5" font-family="Helvetica,sans-Serif" font-size="10.00">PowerTank</text>
<polyline fill="none" stroke="black" points="580,-82.5 708,-82.5 "/>
<text text-anchor="middle" x="644" y="-70.5" font-family="Helvetica,sans-Serif" font-size="10.00"> </text>
<polyline fill="none" stroke="black" points="580,-63.5 708,-63.5 "/>
<text text-anchor="start" x="588" y="-51.5" font-family="Helvetica,sans-Serif" font-size="10.00">+ PowerTank()=delete</text>
<text text-anchor="start" x="588" y="-40.5" font-family="Helvetica,sans-Serif" font-size="10.00">+ PowerTank(unsigned</text>
<text text-anchor="start" x="588" y="-29.5" font-family="Helvetica,sans-Serif" font-size="10.00"> int x, unsigned int</text>
<text text-anchor="start" x="588" y="-18.5" font-family="Helvetica,sans-Serif" font-size="10.00"> y, Direction facing</text>
<text text-anchor="start" x="588" y="-7.5" font-family="Helvetica,sans-Serif" font-size="10.00">=North)</text>
</a>
</g>
</g>
<!-- Node1&#45;&gt;Node6 -->
<g id="edge5" class="edge">
<title>Node1&#45;&gt;Node6</title>
<path fill="none" stroke="midnightblue" d="M429.99,-246.42C480.61,-200.44 544.45,-142.44 589.18,-101.8"/>
<polygon fill="none" stroke="midnightblue" points="427.35,-244.09 422.3,-253.41 432.06,-249.27 427.35,-244.09"/>
</g>
</g>
</svg>
