<?xml version="1.0" encoding="UTF-8" standalone="no"?>
<!DOCTYPE svg PUBLIC "-//W3C//DTD SVG 1.1//EN"
 "http://www.w3.org/Graphics/SVG/1.1/DTD/svg11.dtd">
<!-- Generated by graphviz version 2.43.0 (0)
 -->
<!-- Title: EagleGraphic Pages: 1 -->
<!--zoomable 590 -->
<svg id="main" version="1.1" xmlns="http://www.w3.org/2000/svg" xmlns:xlink="http://www.w3.org/1999/xlink" xml:space="preserve" onload="init(evt)">
<style type="text/css"><![CDATA[
.edge:hover path { stroke: red; }
.edge:hover polygon { stroke: red; fill: red; }
]]></style>
<script type="text/javascript"><![CDATA[
var edges = document.getElementsByTagName('g');
if (edges && edges.length) {
  for (var i=0;i<edges.length;i++) {
    if (edges[i].id.substr(0,4)=='edge') {
      edges[i].setAttribute('class','edge');
    }
  }
}
]]></script>
        <defs>
                <circle id="rim" cx="0" cy="0" r="7"/>
                <circle id="rim2" cx="0" cy="0" r="3.5"/>
                <g id="zoomPlus">
                        <use xlink:href="#rim" fill="#404040">
                                <set attributeName="fill" to="#808080" begin="zoomplus.mouseover" end="zoomplus.mouseout"/>
                        </use>
                        <path d="M-4,0h8M0,-4v8" fill="none" stroke="white" stroke-width="1.5" pointer-events="none"/>
                </g>
                <g id="zoomMin">
                        <use xlink:href="#rim" fill="#404040">
                                <set attributeName="fill" to="#808080" begin="zoomminus.mouseover" end="zoomminus.mouseout"/>
                        </use>
                        <path d="M-4,0h8" fill="none" stroke="white" stroke-width="1.5" pointer-events="none"/>
                </g>
                <g id="dirArrow">
                        <path fill="none" stroke="white" stroke-width="1.5" d="M0,-3.0v7 M-2.5,-0.5L0,-3.0L2.5,-0.5"/>
                </g>
               <g id="resetDef">
                       <use xlink:href="#rim2" fill="#404040">
                               <set attributeName="fill" to="#808080" begin="reset.mouseover" end="reset.mouseout"/>
                       </use>
               </g>
        </defs>

<script type="text/javascript">
var viewWidth = 769;
var viewHeight = 590;
var sectionId = 'dynsection-1';
</script>
<script xlink:href="svgpan.js"/>
<svg id="graph" class="graph">
<g id="viewport">
<title>EagleGraphic</title>
<!-- Node1 -->
<g id="node1" class="node">
<title>Node1</title>
<g id="a_node1"><a xlink:title="Class responsible for eagle rendering.">
<polygon fill="#bfbfbf" stroke="black" points="383.5,-0.5 383.5,-145.5 585.5,-145.5 585.5,-0.5 383.5,-0.5"/>
<text text-anchor="middle" x="484.5" y="-133.5" font-family="Helvetica,sans-Serif" font-size="10.00">EagleGraphic</text>
<polyline fill="none" stroke="black" points="383.5,-126.5 585.5,-126.5 "/>
<text text-anchor="middle" x="484.5" y="-114.5" font-family="Helvetica,sans-Serif" font-size="10.00"> </text>
<polyline fill="none" stroke="black" points="383.5,-107.5 585.5,-107.5 "/>
<text text-anchor="start" x="391.5" y="-95.5" font-family="Helvetica,sans-Serif" font-size="10.00">+ virtual void render</text>
<text text-anchor="start" x="391.5" y="-84.5" font-family="Helvetica,sans-Serif" font-size="10.00">() override</text>
<text text-anchor="start" x="391.5" y="-73.5" font-family="Helvetica,sans-Serif" font-size="10.00">+ EagleGraphic(const</text>
<text text-anchor="start" x="391.5" y="-62.5" font-family="Helvetica,sans-Serif" font-size="10.00"> WindowView &amp;windowView,</text>
<text text-anchor="start" x="391.5" y="-51.5" font-family="Helvetica,sans-Serif" font-size="10.00"> std::shared_ptr&lt; sf::Vector2f</text>
<text text-anchor="start" x="391.5" y="-40.5" font-family="Helvetica,sans-Serif" font-size="10.00"> &gt; eagle, std::shared_ptr&lt; std</text>
<text text-anchor="start" x="391.5" y="-29.5" font-family="Helvetica,sans-Serif" font-size="10.00">::queue&lt; sf::Sprite &gt; &gt; specialQueue)</text>
<text text-anchor="start" x="391.5" y="-18.5" font-family="Helvetica,sans-Serif" font-size="10.00"># void setEaglePos()</text>
<text text-anchor="start" x="391.5" y="-7.5" font-family="Helvetica,sans-Serif" font-size="10.00"># void loadTexture()</text>
</a>
</g>
</g>
<!-- Node2 -->
<g id="node2" class="node">
<title>Node2</title>
<g id="a_node2"><a xlink:href="class_abstract_window.html" target="_top" xlink:title="Contains main SFML functions.">
<polygon fill="none" stroke="black" points="95.5,-193.5 95.5,-316.5 253.5,-316.5 253.5,-193.5 95.5,-193.5"/>
<text text-anchor="middle" x="174.5" y="-304.5" font-family="Helvetica,sans-Serif" font-size="10.00">AbstractWindow</text>
<polyline fill="none" stroke="black" points="95.5,-297.5 253.5,-297.5 "/>
<text text-anchor="middle" x="174.5" y="-285.5" font-family="Helvetica,sans-Serif" font-size="10.00"> </text>
<polyline fill="none" stroke="black" points="95.5,-278.5 253.5,-278.5 "/>
<text text-anchor="start" x="103.5" y="-266.5" font-family="Helvetica,sans-Serif" font-size="10.00">+ sf::RenderWindow *</text>
<text text-anchor="start" x="103.5" y="-255.5" font-family="Helvetica,sans-Serif" font-size="10.00"> getWindow()</text>
<text text-anchor="start" x="103.5" y="-244.5" font-family="Helvetica,sans-Serif" font-size="10.00">+ virtual void render()=0</text>
<text text-anchor="start" x="103.5" y="-233.5" font-family="Helvetica,sans-Serif" font-size="10.00">+ AbstractWindow()</text>
<text text-anchor="start" x="103.5" y="-222.5" font-family="Helvetica,sans-Serif" font-size="10.00">+ AbstractWindow(const</text>
<text text-anchor="start" x="103.5" y="-211.5" font-family="Helvetica,sans-Serif" font-size="10.00"> WindowView &amp;windowView)</text>
<text text-anchor="start" x="103.5" y="-200.5" font-family="Helvetica,sans-Serif" font-size="10.00">+ virtual ~AbstractWindow()</text>
</a>
</g>
</g>
<!-- Node2&#45;&gt;Node1 -->
<g id="edge1" class="edge">
<title>Node2&#45;&gt;Node1</title>
<path fill="none" stroke="midnightblue" d="M262.23,-193.16C262.32,-193.11 262.41,-193.05 262.5,-193 301.2,-169.32 344.99,-145.29 383.4,-125.08"/>
<polygon fill="none" stroke="midnightblue" points="260.49,-190.13 253.86,-198.39 264.19,-196.07 260.49,-190.13"/>
</g>
<!-- Node3 -->
<g id="node3" class="node">
<title>Node3</title>
<g id="a_node3"><a xlink:title=" ">
<polygon fill="none" stroke="black" points="0,-392 0,-449 65,-449 65,-392 0,-392"/>
<text text-anchor="middle" x="32.5" y="-437" font-family="Helvetica,sans-Serif" font-size="10.00">const uint</text>
<polyline fill="none" stroke="black" points="0,-430 65,-430 "/>
<text text-anchor="middle" x="32.5" y="-418" font-family="Helvetica,sans-Serif" font-size="10.00"> </text>
<polyline fill="none" stroke="black" points="0,-411 65,-411 "/>
<text text-anchor="middle" x="32.5" y="-399" font-family="Helvetica,sans-Serif" font-size="10.00"> </text>
</a>
</g>
</g>
<!-- Node3&#45;&gt;Node2 -->
<g id="edge2" class="edge">
<title>Node3&#45;&gt;Node2</title>
<path fill="none" stroke="#404040" d="M41.02,-391.71C47.3,-374.23 57.08,-351.87 70.5,-335 75.27,-329 80.59,-323.21 86.24,-317.68"/>
<polygon fill="none" stroke="#404040" points="86.56,-317.38 88.23,-310.36 95.35,-309.2 93.68,-316.22 86.56,-317.38"/>
<text text-anchor="middle" x="120.5" y="-349" font-family="Helvetica,sans-Serif" font-size="10.00"> #WINDOW_HEIGHT</text>
<text text-anchor="middle" x="120.5" y="-338" font-family="Helvetica,sans-Serif" font-size="10.00">#WINDOW_WIDTH</text>
</g>
<!-- Node4 -->
<g id="node4" class="node">
<title>Node4</title>
<g id="a_node4"><a xlink:href="struct_window_view.html" target="_top" xlink:title="Struct that contains the sf::RenderWindow nad offset of elements to render.">
<polygon fill="none" stroke="black" points="83.5,-375.5 83.5,-465.5 265.5,-465.5 265.5,-375.5 83.5,-375.5"/>
<text text-anchor="middle" x="174.5" y="-453.5" font-family="Helvetica,sans-Serif" font-size="10.00">WindowView</text>
<polyline fill="none" stroke="black" points="83.5,-446.5 265.5,-446.5 "/>
<text text-anchor="middle" x="174.5" y="-434.5" font-family="Helvetica,sans-Serif" font-size="10.00"> </text>
<polyline fill="none" stroke="black" points="83.5,-427.5 265.5,-427.5 "/>
<text text-anchor="start" x="91.5" y="-415.5" font-family="Helvetica,sans-Serif" font-size="10.00">+ WindowView(sf::RenderWindow</text>
<text text-anchor="start" x="91.5" y="-404.5" font-family="Helvetica,sans-Serif" font-size="10.00"> *window, float topOffset,</text>
<text text-anchor="start" x="91.5" y="-393.5" font-family="Helvetica,sans-Serif" font-size="10.00"> float leftOffset)</text>
<text text-anchor="start" x="91.5" y="-382.5" font-family="Helvetica,sans-Serif" font-size="10.00">+ WindowView()</text>
</a>
</g>
</g>
<!-- Node4&#45;&gt;Node2 -->
<g id="edge3" class="edge">
<title>Node4&#45;&gt;Node2</title>
<path fill="none" stroke="#404040" d="M174.5,-375.25C174.5,-360.86 174.5,-344.49 174.5,-328.58"/>
<polygon fill="none" stroke="#404040" points="174.5,-328.55 170.5,-322.55 174.5,-316.55 178.5,-322.55 174.5,-328.55"/>
<text text-anchor="middle" x="211" y="-343.5" font-family="Helvetica,sans-Serif" font-size="10.00"> #windowView</text>
</g>
<!-- Node5 -->
<g id="node5" class="node">
<title>Node5</title>
<g id="a_node5"><a xlink:title=" ">
<polygon fill="none" stroke="black" points="82.5,-524.5 82.5,-581.5 180.5,-581.5 180.5,-524.5 82.5,-524.5"/>
<text text-anchor="middle" x="131.5" y="-569.5" font-family="Helvetica,sans-Serif" font-size="10.00">RenderWindow *</text>
<polyline fill="none" stroke="black" points="82.5,-562.5 180.5,-562.5 "/>
<text text-anchor="middle" x="131.5" y="-550.5" font-family="Helvetica,sans-Serif" font-size="10.00"> </text>
<polyline fill="none" stroke="black" points="82.5,-543.5 180.5,-543.5 "/>
<text text-anchor="middle" x="131.5" y="-531.5" font-family="Helvetica,sans-Serif" font-size="10.00"> </text>
</a>
</g>
</g>
<!-- Node5&#45;&gt;Node4 -->
<g id="edge4" class="edge">
<title>Node5&#45;&gt;Node4</title>
<path fill="none" stroke="#404040" d="M136.3,-524.19C138.79,-511.74 142.21,-496.97 146.5,-484 147.24,-481.76 148.04,-479.48 148.87,-477.2"/>
<polygon fill="none" stroke="#404040" points="148.97,-476.96 147.42,-469.92 153.33,-465.79 154.88,-472.83 148.97,-476.96"/>
<text text-anchor="middle" x="171" y="-492.5" font-family="Helvetica,sans-Serif" font-size="10.00"> +window</text>
</g>
<!-- Node6 -->
<g id="node6" class="node">
<title>Node6</title>
<g id="a_node6"><a xlink:title=" ">
<polygon fill="none" stroke="black" points="198.5,-524.5 198.5,-581.5 236.5,-581.5 236.5,-524.5 198.5,-524.5"/>
<text text-anchor="middle" x="217.5" y="-569.5" font-family="Helvetica,sans-Serif" font-size="10.00">float</text>
<polyline fill="none" stroke="black" points="198.5,-562.5 236.5,-562.5 "/>
<text text-anchor="middle" x="217.5" y="-550.5" font-family="Helvetica,sans-Serif" font-size="10.00"> </text>
<polyline fill="none" stroke="black" points="198.5,-543.5 236.5,-543.5 "/>
<text text-anchor="middle" x="217.5" y="-531.5" font-family="Helvetica,sans-Serif" font-size="10.00"> </text>
</a>
</g>
</g>
<!-- Node6&#45;&gt;Node4 -->
<g id="edge5" class="edge">
<title>Node6&#45;&gt;Node4</title>
<path fill="none" stroke="#404040" d="M208.58,-524.19C204.61,-511.86 199.85,-497.2 195.5,-484 194.76,-481.76 194,-479.47 193.24,-477.16"/>
<polygon fill="none" stroke="#404040" points="193.15,-476.91 187.46,-472.48 189.36,-465.53 195.05,-469.96 193.15,-476.91"/>
<text text-anchor="middle" x="231" y="-498" font-family="Helvetica,sans-Serif" font-size="10.00"> +leftOffset</text>
<text text-anchor="middle" x="231" y="-487" font-family="Helvetica,sans-Serif" font-size="10.00">+topOffset</text>
</g>
<!-- Node7 -->
<g id="node7" class="node">
<title>Node7</title>
<g id="a_node7"><a xlink:title=" ">
<polygon fill="none" stroke="black" points="284,-386.5 284,-454.5 433,-454.5 433,-386.5 284,-386.5"/>
<text text-anchor="start" x="292" y="-442.5" font-family="Helvetica,sans-Serif" font-size="10.00">vector&lt; std::shared</text>
<text text-anchor="middle" x="358.5" y="-431.5" font-family="Helvetica,sans-Serif" font-size="10.00">_ptr&lt; AbstractWindow &gt; &gt;</text>
<polyline fill="none" stroke="black" points="284,-424.5 433,-424.5 "/>
<text text-anchor="middle" x="358.5" y="-412.5" font-family="Helvetica,sans-Serif" font-size="10.00"> </text>
<polyline fill="none" stroke="black" points="284,-405.5 433,-405.5 "/>
<text text-anchor="middle" x="358.5" y="-393.5" font-family="Helvetica,sans-Serif" font-size="10.00"> </text>
</a>
</g>
</g>
<!-- Node7&#45;&gt;Node2 -->
<g id="edge6" class="edge">
<title>Node7&#45;&gt;Node2</title>
<path fill="none" stroke="#404040" d="M321.26,-386.41C301.34,-368.71 276.02,-346.21 252.05,-324.91"/>
<polygon fill="none" stroke="#404040" points="251.91,-324.79 244.77,-323.79 242.94,-316.82 250.08,-317.81 251.91,-324.79"/>
<text text-anchor="middle" x="309" y="-343.5" font-family="Helvetica,sans-Serif" font-size="10.00"> #children</text>
</g>
<!-- Node8 -->
<g id="node8" class="node">
<title>Node8</title>
<g id="a_node8"><a xlink:title=" ">
<polygon fill="none" stroke="black" points="271.5,-226.5 271.5,-283.5 417.5,-283.5 417.5,-226.5 271.5,-226.5"/>
<text text-anchor="middle" x="344.5" y="-271.5" font-family="Helvetica,sans-Serif" font-size="10.00">shared_ptr&lt; sf::Vector2f &gt;</text>
<polyline fill="none" stroke="black" points="271.5,-264.5 417.5,-264.5 "/>
<text text-anchor="middle" x="344.5" y="-252.5" font-family="Helvetica,sans-Serif" font-size="10.00"> </text>
<polyline fill="none" stroke="black" points="271.5,-245.5 417.5,-245.5 "/>
<text text-anchor="middle" x="344.5" y="-233.5" font-family="Helvetica,sans-Serif" font-size="10.00"> </text>
</a>
</g>
</g>
<!-- Node8&#45;&gt;Node1 -->
<g id="edge7" class="edge">
<title>Node8&#45;&gt;Node1</title>
<path fill="none" stroke="#404040" d="M348.76,-226.16C352.65,-207.36 359.79,-182.67 372.5,-164 374.61,-160.9 376.85,-157.86 379.21,-154.88"/>
<polygon fill="none" stroke="#404040" points="379.36,-154.71 380.18,-147.54 387.11,-145.55 386.29,-152.71 379.36,-154.71"/>
<text text-anchor="middle" x="400.5" y="-167" font-family="Helvetica,sans-Serif" font-size="10.00"> #eaglePos</text>
</g>
<!-- Node9 -->
<g id="node9" class="node">
<title>Node9</title>
<g id="a_node9"><a xlink:title=" ">
<polygon fill="none" stroke="black" points="435.5,-226.5 435.5,-283.5 479.5,-283.5 479.5,-226.5 435.5,-226.5"/>
<text text-anchor="middle" x="457.5" y="-271.5" font-family="Helvetica,sans-Serif" font-size="10.00">string</text>
<polyline fill="none" stroke="black" points="435.5,-264.5 479.5,-264.5 "/>
<text text-anchor="middle" x="457.5" y="-252.5" font-family="Helvetica,sans-Serif" font-size="10.00"> </text>
<polyline fill="none" stroke="black" points="435.5,-245.5 479.5,-245.5 "/>
<text text-anchor="middle" x="457.5" y="-233.5" font-family="Helvetica,sans-Serif" font-size="10.00"> </text>
</a>
</g>
</g>
<!-- Node9&#45;&gt;Node1 -->
<g id="edge8" class="edge">
<title>Node9&#45;&gt;Node1</title>
<path fill="none" stroke="#404040" d="M443.11,-226.41C435.64,-208.6 429.08,-184.92 434.5,-164 435.1,-161.7 435.77,-159.39 436.5,-157.08"/>
<polygon fill="none" stroke="#404040" points="436.57,-156.9 434.85,-149.89 440.66,-145.62 442.37,-152.62 436.57,-156.9"/>
<text text-anchor="middle" x="474.5" y="-167" font-family="Helvetica,sans-Serif" font-size="10.00"> #pathToTexture</text>
</g>
<!-- Node10 -->
<g id="node10" class="node">
<title>Node10</title>
<g id="a_node10"><a xlink:title=" ">
<polygon fill="none" stroke="black" points="502.5,-226.5 502.5,-283.5 540.5,-283.5 540.5,-226.5 502.5,-226.5"/>
<text text-anchor="middle" x="521.5" y="-271.5" font-family="Helvetica,sans-Serif" font-size="10.00">bool</text>
<polyline fill="none" stroke="black" points="502.5,-264.5 540.5,-264.5 "/>
<text text-anchor="middle" x="521.5" y="-252.5" font-family="Helvetica,sans-Serif" font-size="10.00"> </text>
<polyline fill="none" stroke="black" points="502.5,-245.5 540.5,-245.5 "/>
<text text-anchor="middle" x="521.5" y="-233.5" font-family="Helvetica,sans-Serif" font-size="10.00"> </text>
</a>
</g>
</g>
<!-- Node10&#45;&gt;Node1 -->
<g id="edge9" class="edge">
<title>Node10&#45;&gt;Node1</title>
<path fill="none" stroke="#404040" d="M521.08,-226.19C520.39,-208.28 518.67,-184.58 514.5,-164 514.07,-161.85 513.6,-159.69 513.09,-157.51"/>
<polygon fill="none" stroke="#404040" points="513.07,-157.43 507.73,-152.58 510.15,-145.79 515.49,-150.63 513.07,-157.43"/>
<text text-anchor="middle" x="543" y="-167" font-family="Helvetica,sans-Serif" font-size="10.00"> #eagleSet</text>
</g>
<!-- Node11 -->
<g id="node11" class="node">
<title>Node11</title>
<g id="a_node11"><a xlink:title=" ">
<polygon fill="none" stroke="black" points="559,-221 559,-289 690,-289 690,-221 559,-221"/>
<text text-anchor="start" x="567" y="-277" font-family="Helvetica,sans-Serif" font-size="10.00">shared_ptr&lt; std::queue</text>
<text text-anchor="middle" x="624.5" y="-266" font-family="Helvetica,sans-Serif" font-size="10.00">&lt; sf::Sprite &gt; &gt;</text>
<polyline fill="none" stroke="black" points="559,-259 690,-259 "/>
<text text-anchor="middle" x="624.5" y="-247" font-family="Helvetica,sans-Serif" font-size="10.00"> </text>
<polyline fill="none" stroke="black" points="559,-240 690,-240 "/>
<text text-anchor="middle" x="624.5" y="-228" font-family="Helvetica,sans-Serif" font-size="10.00"> </text>
</a>
</g>
</g>
<!-- Node11&#45;&gt;Node1 -->
<g id="edge10" class="edge">
<title>Node11&#45;&gt;Node1</title>
<path fill="none" stroke="#404040" d="M608.76,-220.58C599.8,-203.01 587.74,-181.55 574.5,-164 572.24,-161.01 569.89,-158.02 567.47,-155.04"/>
<polygon fill="none" stroke="#404040" points="567.24,-154.78 560.31,-152.77 559.5,-145.61 566.43,-147.61 567.24,-154.78"/>
<text text-anchor="middle" x="619.5" y="-167" font-family="Helvetica,sans-Serif" font-size="10.00"> #specialQueue</text>
</g>
<!-- Node12 -->
<g id="node12" class="node">
<title>Node12</title>
<g id="a_node12"><a xlink:title=" ">
<polygon fill="none" stroke="black" points="708,-226.5 708,-283.5 761,-283.5 761,-226.5 708,-226.5"/>
<text text-anchor="middle" x="734.5" y="-271.5" font-family="Helvetica,sans-Serif" font-size="10.00">Texture</text>
<polyline fill="none" stroke="black" points="708,-264.5 761,-264.5 "/>
<text text-anchor="middle" x="734.5" y="-252.5" font-family="Helvetica,sans-Serif" font-size="10.00"> </text>
<polyline fill="none" stroke="black" points="708,-245.5 761,-245.5 "/>
<text text-anchor="middle" x="734.5" y="-233.5" font-family="Helvetica,sans-Serif" font-size="10.00"> </text>
</a>
</g>
</g>
<!-- Node12&#45;&gt;Node1 -->
<g id="edge11" class="edge">
<title>Node12&#45;&gt;Node1</title>
<path fill="none" stroke="#404040" d="M721.58,-226.41C715.71,-215.38 708.13,-202.97 699.5,-193 671.8,-161 633.28,-135.93 596.49,-117.22"/>
<polygon fill="none" stroke="#404040" points="596.41,-117.19 589.26,-118.12 585.66,-111.87 592.81,-110.94 596.41,-117.19"/>
<text text-anchor="middle" x="718" y="-167" font-family="Helvetica,sans-Serif" font-size="10.00"> #eagleTexture</text>
</g>
</g>
</svg>
        <g id="navigator" transform="translate(0 0)" fill="#404254">
                <rect fill="#f2f5e9" fill-opacity="0.5" stroke="#606060" stroke-width=".5" x="0" y="0" width="60" height="60"/>
                <use id="zoomplus" xlink:href="#zoomPlus" x="17" y="9" onmousedown="handleZoom(evt,'in')"/>
                <use id="zoomminus" xlink:href="#zoomMin" x="42" y="9" onmousedown="handleZoom(evt,'out')"/>
                <use id="reset" xlink:href="#resetDef" x="30" y="36" onmousedown="handleReset()"/>
                <g id="arrowUp" xlink:href="#dirArrow" transform="translate(30 24)" onmousedown="handlePan(0,-1)">
                  <use xlink:href="#rim" fill="#404040">
                        <set attributeName="fill" to="#808080" begin="arrowUp.mouseover" end="arrowUp.mouseout"/>
                  </use>
                  <path fill="none" stroke="white" stroke-width="1.5" d="M0,-3.0v7 M-2.5,-0.5L0,-3.0L2.5,-0.5"/>
                </g>
                <g id="arrowRight" xlink:href="#dirArrow" transform="rotate(90) translate(36 -43)" onmousedown="handlePan(1,0)">
                  <use xlink:href="#rim" fill="#404040">
                        <set attributeName="fill" to="#808080" begin="arrowRight.mouseover" end="arrowRight.mouseout"/>
                  </use>
                  <path fill="none" stroke="white" stroke-width="1.5" d="M0,-3.0v7 M-2.5,-0.5L0,-3.0L2.5,-0.5"/>
                </g>
                <g id="arrowDown" xlink:href="#dirArrow" transform="rotate(180) translate(-30 -48)" onmousedown="handlePan(0,1)">
                  <use xlink:href="#rim" fill="#404040">
                        <set attributeName="fill" to="#808080" begin="arrowDown.mouseover" end="arrowDown.mouseout"/>
                  </use>
                  <path fill="none" stroke="white" stroke-width="1.5" d="M0,-3.0v7 M-2.5,-0.5L0,-3.0L2.5,-0.5"/>
                </g>
                <g id="arrowLeft" xlink:href="#dirArrow" transform="rotate(270) translate(-36 17)" onmousedown="handlePan(-1,0)">
                  <use xlink:href="#rim" fill="#404040">
                        <set attributeName="fill" to="#808080" begin="arrowLeft.mouseover" end="arrowLeft.mouseout"/>
                  </use>
                  <path fill="none" stroke="white" stroke-width="1.5" d="M0,-3.0v7 M-2.5,-0.5L0,-3.0L2.5,-0.5"/>
                </g>
        </g>
        <svg viewBox="0 0 15 15" width="100%" height="30px" preserveAspectRatio="xMaxYMin meet">
         <g id="arrow_out" transform="scale(0.3 0.3)">
          <a xlink:href="class_eagle_graphic__coll__graph_org.svg" target="_base">
           <rect id="button" ry="5" rx="5" y="6" x="6" height="38" width="38"
                fill="#f2f5e9" fill-opacity="0.5" stroke="#606060" stroke-width="1.0"/>
           <path id="arrow"
             d="M 11.500037,31.436501 C 11.940474,20.09759 22.043105,11.32322 32.158766,21.979434 L 37.068811,17.246167 C 37.068811,17.246167 37.088388,32 37.088388,32 L 22.160133,31.978069 C 22.160133,31.978069 26.997745,27.140456 26.997745,27.140456 C 18.528582,18.264221 13.291696,25.230495 11.500037,31.436501 z"
             style="fill:#404040;"/>
          </a>
         </g>
        </svg>
</svg>
