<?xml version="1.0" encoding="UTF-8" standalone="no"?>
<!DOCTYPE svg PUBLIC "-//W3C//DTD SVG 1.1//EN"
 "http://www.w3.org/Graphics/SVG/1.1/DTD/svg11.dtd">
<!-- Generated by graphviz version 2.50.0 (0)
 -->
<!-- Title: KeyboardController Pages: 1 -->
<svg width="561pt" height="810pt"
 viewBox="0.00 0.00 560.50 810.00" xmlns="http://www.w3.org/2000/svg" xmlns:xlink="http://www.w3.org/1999/xlink">
<g id="graph0" class="graph" transform="scale(1 1) rotate(0) translate(4 806)">
<title>KeyboardController</title>
<!-- Node1 -->
<g id="node1" class="node">
<title>Node1</title>
<g id="a_node1"><a xlink:title=" ">
<polygon fill="#bfbfbf" stroke="black" points="179.5,-0.5 179.5,-134.5 341.5,-134.5 341.5,-0.5 179.5,-0.5"/>
<text text-anchor="middle" x="260.5" y="-122.5" font-family="Helvetica,sans-Serif" font-size="10.00">KeyboardController</text>
<polyline fill="none" stroke="black" points="179.5,-115.5 341.5,-115.5 "/>
<text text-anchor="middle" x="260.5" y="-103.5" font-family="Helvetica,sans-Serif" font-size="10.00"> </text>
<polyline fill="none" stroke="black" points="179.5,-96.5 341.5,-96.5 "/>
<text text-anchor="start" x="187.5" y="-84.5" font-family="Helvetica,sans-Serif" font-size="10.00">+ KeyboardController</text>
<text text-anchor="start" x="187.5" y="-73.5" font-family="Helvetica,sans-Serif" font-size="10.00">()=delete</text>
<text text-anchor="start" x="187.5" y="-62.5" font-family="Helvetica,sans-Serif" font-size="10.00">+ KeyboardController</text>
<text text-anchor="start" x="187.5" y="-51.5" font-family="Helvetica,sans-Serif" font-size="10.00">(sf::RenderWindow *window)</text>
<text text-anchor="start" x="187.5" y="-40.5" font-family="Helvetica,sans-Serif" font-size="10.00">+ void notify(SimplePublisher</text>
<text text-anchor="start" x="187.5" y="-29.5" font-family="Helvetica,sans-Serif" font-size="10.00"> *pub) override</text>
<text text-anchor="start" x="187.5" y="-18.5" font-family="Helvetica,sans-Serif" font-size="10.00">+ void fetchKeyboardEvent</text>
<text text-anchor="start" x="187.5" y="-7.5" font-family="Helvetica,sans-Serif" font-size="10.00">() const</text>
</a>
</g>
</g>
<!-- Node2 -->
<g id="node2" class="node">
<title>Node2</title>
<g id="a_node2"><a xlink:href="class_simple_subscriber.html" target="_top" xlink:title=" ">
<polygon fill="none" stroke="black" points="0,-221 0,-388 193,-388 193,-221 0,-221"/>
<text text-anchor="middle" x="96.5" y="-376" font-family="Helvetica,sans-Serif" font-size="10.00">SimpleSubscriber</text>
<polyline fill="none" stroke="black" points="0,-369 193,-369 "/>
<text text-anchor="middle" x="96.5" y="-357" font-family="Helvetica,sans-Serif" font-size="10.00"> </text>
<polyline fill="none" stroke="black" points="0,-350 193,-350 "/>
<text text-anchor="start" x="8" y="-338" font-family="Helvetica,sans-Serif" font-size="10.00">+ ~SimpleSubscriber()</text>
<text text-anchor="start" x="8" y="-327" font-family="Helvetica,sans-Serif" font-size="10.00">+ void subscribe(SimplePublisher</text>
<text text-anchor="start" x="8" y="-316" font-family="Helvetica,sans-Serif" font-size="10.00"> *pub)</text>
<text text-anchor="start" x="8" y="-305" font-family="Helvetica,sans-Serif" font-size="10.00">+ void unsubscribe(SimplePublisher</text>
<text text-anchor="start" x="8" y="-294" font-family="Helvetica,sans-Serif" font-size="10.00"> *pub)</text>
<text text-anchor="start" x="8" y="-283" font-family="Helvetica,sans-Serif" font-size="10.00">+ void removeDeletedSubject</text>
<text text-anchor="start" x="8" y="-272" font-family="Helvetica,sans-Serif" font-size="10.00">(SimplePublisher *pub)</text>
<text text-anchor="start" x="8" y="-261" font-family="Helvetica,sans-Serif" font-size="10.00">+ virtual void notify</text>
<text text-anchor="start" x="8" y="-250" font-family="Helvetica,sans-Serif" font-size="10.00">(SimplePublisher *pub)=0</text>
<text text-anchor="start" x="8" y="-239" font-family="Helvetica,sans-Serif" font-size="10.00"># SimpleSubscriber()</text>
<text text-anchor="start" x="8" y="-228" font-family="Helvetica,sans-Serif" font-size="10.00">=default</text>
</a>
</g>
</g>
<!-- Node2&#45;&gt;Node1 -->
<g id="edge1" class="edge">
<title>Node2&#45;&gt;Node1</title>
<path fill="none" stroke="midnightblue" d="M159.93,-212.61C178.07,-186.61 197.5,-158.78 214.39,-134.57"/>
<polygon fill="none" stroke="midnightblue" points="156.94,-210.77 154.09,-220.98 162.68,-214.78 156.94,-210.77"/>
</g>
<!-- Node3 -->
<g id="node3" class="node">
<title>Node3</title>
<g id="a_node3"><a xlink:title=" ">
<polygon fill="none" stroke="#bfbfbf" points="18,-551.5 18,-608.5 175,-608.5 175,-551.5 18,-551.5"/>
<text text-anchor="middle" x="96.5" y="-596.5" font-family="Helvetica,sans-Serif" font-size="10.00">vector&lt; SimplePublisher * &gt;</text>
<polyline fill="none" stroke="#bfbfbf" points="18,-589.5 175,-589.5 "/>
<text text-anchor="middle" x="96.5" y="-577.5" font-family="Helvetica,sans-Serif" font-size="10.00"> </text>
<polyline fill="none" stroke="#bfbfbf" points="18,-570.5 175,-570.5 "/>
<text text-anchor="middle" x="96.5" y="-558.5" font-family="Helvetica,sans-Serif" font-size="10.00"> </text>
</a>
</g>
</g>
<!-- Node3&#45;&gt;Node2 -->
<g id="edge2" class="edge">
<title>Node3&#45;&gt;Node2</title>
<path fill="none" stroke="#404040" d="M96.5,-551.27C96.5,-516.06 96.5,-453.47 96.5,-400.27"/>
<polygon fill="none" stroke="#404040" points="96.5,-400.03 92.5,-394.03 96.5,-388.03 100.5,-394.03 96.5,-400.03"/>
<text text-anchor="middle" x="152" y="-448" font-family="Helvetica,sans-Serif" font-size="10.00"> #subscribedSubjects_</text>
</g>
<!-- Node4 -->
<g id="node4" class="node">
<title>Node4</title>
<g id="a_node4"><a xlink:title=" ">
<polygon fill="none" stroke="#bfbfbf" points="211.5,-276 211.5,-333 309.5,-333 309.5,-276 211.5,-276"/>
<text text-anchor="middle" x="260.5" y="-321" font-family="Helvetica,sans-Serif" font-size="10.00">RenderWindow *</text>
<polyline fill="none" stroke="#bfbfbf" points="211.5,-314 309.5,-314 "/>
<text text-anchor="middle" x="260.5" y="-302" font-family="Helvetica,sans-Serif" font-size="10.00"> </text>
<polyline fill="none" stroke="#bfbfbf" points="211.5,-295 309.5,-295 "/>
<text text-anchor="middle" x="260.5" y="-283" font-family="Helvetica,sans-Serif" font-size="10.00"> </text>
</a>
</g>
</g>
<!-- Node4&#45;&gt;Node1 -->
<g id="edge3" class="edge">
<title>Node4&#45;&gt;Node1</title>
<path fill="none" stroke="#404040" d="M260.5,-275.62C260.5,-244.06 260.5,-191.26 260.5,-146.87"/>
<polygon fill="none" stroke="#404040" points="260.5,-146.6 256.5,-140.6 260.5,-134.6 264.5,-140.6 260.5,-146.6"/>
<text text-anchor="middle" x="288" y="-156" font-family="Helvetica,sans-Serif" font-size="10.00"> +window_</text>
</g>
<!-- Node5 -->
<g id="node5" class="node">
<title>Node5</title>
<g id="a_node5"><a xlink:href="class_event_queue.html" target="_top" xlink:title=" ">
<polygon fill="none" stroke="black" points="327.5,-182.5 327.5,-426.5 477.5,-426.5 477.5,-182.5 327.5,-182.5"/>
<text text-anchor="middle" x="402.5" y="-414.5" font-family="Helvetica,sans-Serif" font-size="10.00">EventQueue&lt; Event &gt;</text>
<polyline fill="none" stroke="black" points="327.5,-407.5 477.5,-407.5 "/>
<text text-anchor="start" x="335.5" y="-395.5" font-family="Helvetica,sans-Serif" font-size="10.00"># std::queue&lt; std::unique</text>
<text text-anchor="start" x="335.5" y="-384.5" font-family="Helvetica,sans-Serif" font-size="10.00">_ptr&lt; Event &gt; &gt; events_</text>
<text text-anchor="start" x="335.5" y="-373.5" font-family="Helvetica,sans-Serif" font-size="10.00"># static std::unique</text>
<text text-anchor="start" x="335.5" y="-362.5" font-family="Helvetica,sans-Serif" font-size="10.00">_ptr&lt; EventQueue &gt; self_</text>
<polyline fill="none" stroke="black" points="327.5,-355.5 477.5,-355.5 "/>
<text text-anchor="start" x="335.5" y="-343.5" font-family="Helvetica,sans-Serif" font-size="10.00">+ EventQueue(EventQueue</text>
<text text-anchor="start" x="335.5" y="-332.5" font-family="Helvetica,sans-Serif" font-size="10.00"> &amp;)=delete</text>
<text text-anchor="start" x="335.5" y="-321.5" font-family="Helvetica,sans-Serif" font-size="10.00">+ bool operator=(const</text>
<text text-anchor="start" x="335.5" y="-310.5" font-family="Helvetica,sans-Serif" font-size="10.00"> EventQueue &amp;)=delete</text>
<text text-anchor="start" x="335.5" y="-299.5" font-family="Helvetica,sans-Serif" font-size="10.00">+ void registerEvent</text>
<text text-anchor="start" x="335.5" y="-288.5" font-family="Helvetica,sans-Serif" font-size="10.00">(std::unique_ptr&lt; Event</text>
<text text-anchor="start" x="335.5" y="-277.5" font-family="Helvetica,sans-Serif" font-size="10.00"> &gt; event)</text>
<text text-anchor="start" x="335.5" y="-266.5" font-family="Helvetica,sans-Serif" font-size="10.00">+ std::unique_ptr&lt; Event</text>
<text text-anchor="start" x="335.5" y="-255.5" font-family="Helvetica,sans-Serif" font-size="10.00"> &gt; pop()</text>
<text text-anchor="start" x="335.5" y="-244.5" font-family="Helvetica,sans-Serif" font-size="10.00">+ bool isEmpty()</text>
<text text-anchor="start" x="335.5" y="-233.5" font-family="Helvetica,sans-Serif" font-size="10.00">+ unsigned int size()</text>
<text text-anchor="start" x="335.5" y="-222.5" font-family="Helvetica,sans-Serif" font-size="10.00">+ void clear()</text>
<text text-anchor="start" x="335.5" y="-211.5" font-family="Helvetica,sans-Serif" font-size="10.00">+ static EventQueue *</text>
<text text-anchor="start" x="335.5" y="-200.5" font-family="Helvetica,sans-Serif" font-size="10.00"> instance()</text>
<text text-anchor="start" x="335.5" y="-189.5" font-family="Helvetica,sans-Serif" font-size="10.00">&#45; EventQueue()=default</text>
</a>
</g>
</g>
<!-- Node5&#45;&gt;Node1 -->
<g id="edge4" class="edge">
<title>Node5&#45;&gt;Node1</title>
<path fill="none" stroke="#404040" d="M337.01,-182.1C331.22,-172.18 325.33,-162.37 319.5,-153 317.89,-150.41 316.23,-147.79 314.53,-145.15"/>
<polygon fill="none" stroke="#404040" points="314.43,-144.99 307.8,-142.16 307.86,-134.94 314.49,-137.78 314.43,-144.99"/>
<text text-anchor="middle" x="362.5" y="-156" font-family="Helvetica,sans-Serif" font-size="10.00"> +eventQueue_</text>
</g>
<!-- Node6 -->
<g id="node6" class="node">
<title>Node6</title>
<g id="a_node6"><a xlink:href="class_event_queue.html" target="_top" xlink:title="Singleton class wrapper for std::queue&lt;E&gt;.">
<polygon fill="none" stroke="black" points="327.5,-474.5 327.5,-685.5 477.5,-685.5 477.5,-474.5 327.5,-474.5"/>
<text text-anchor="middle" x="402.5" y="-673.5" font-family="Helvetica,sans-Serif" font-size="10.00">EventQueue&lt; E &gt;</text>
<polyline fill="none" stroke="black" points="327.5,-666.5 477.5,-666.5 "/>
<text text-anchor="middle" x="402.5" y="-654.5" font-family="Helvetica,sans-Serif" font-size="10.00"> </text>
<polyline fill="none" stroke="black" points="327.5,-647.5 477.5,-647.5 "/>
<text text-anchor="start" x="335.5" y="-635.5" font-family="Helvetica,sans-Serif" font-size="10.00">+ EventQueue(EventQueue</text>
<text text-anchor="start" x="335.5" y="-624.5" font-family="Helvetica,sans-Serif" font-size="10.00"> &amp;)=delete</text>
<text text-anchor="start" x="335.5" y="-613.5" font-family="Helvetica,sans-Serif" font-size="10.00">+ bool operator=(const</text>
<text text-anchor="start" x="335.5" y="-602.5" font-family="Helvetica,sans-Serif" font-size="10.00"> EventQueue &amp;)=delete</text>
<text text-anchor="start" x="335.5" y="-591.5" font-family="Helvetica,sans-Serif" font-size="10.00">+ void registerEvent</text>
<text text-anchor="start" x="335.5" y="-580.5" font-family="Helvetica,sans-Serif" font-size="10.00">(std::unique_ptr&lt; E</text>
<text text-anchor="start" x="335.5" y="-569.5" font-family="Helvetica,sans-Serif" font-size="10.00"> &gt; event)</text>
<text text-anchor="start" x="335.5" y="-558.5" font-family="Helvetica,sans-Serif" font-size="10.00">+ std::unique_ptr&lt; E</text>
<text text-anchor="start" x="335.5" y="-547.5" font-family="Helvetica,sans-Serif" font-size="10.00"> &gt; pop()</text>
<text text-anchor="start" x="335.5" y="-536.5" font-family="Helvetica,sans-Serif" font-size="10.00">+ bool isEmpty()</text>
<text text-anchor="start" x="335.5" y="-525.5" font-family="Helvetica,sans-Serif" font-size="10.00">+ unsigned int size()</text>
<text text-anchor="start" x="335.5" y="-514.5" font-family="Helvetica,sans-Serif" font-size="10.00">+ void clear()</text>
<text text-anchor="start" x="335.5" y="-503.5" font-family="Helvetica,sans-Serif" font-size="10.00">+ static EventQueue *</text>
<text text-anchor="start" x="335.5" y="-492.5" font-family="Helvetica,sans-Serif" font-size="10.00"> instance()</text>
<text text-anchor="start" x="335.5" y="-481.5" font-family="Helvetica,sans-Serif" font-size="10.00">&#45; EventQueue()=default</text>
</a>
</g>
</g>
<!-- Node6&#45;&gt;Node5 -->
<g id="edge5" class="edge">
<title>Node6&#45;&gt;Node5</title>
<path fill="none" stroke="orange" d="M402.5,-464.16C402.5,-451.86 402.5,-439.31 402.5,-426.94"/>
<polygon fill="orange" stroke="orange" points="399,-464.43 402.5,-474.43 406,-464.43 399,-464.43"/>
<text text-anchor="middle" x="429.5" y="-448" font-family="Helvetica,sans-Serif" font-size="10.00"> &lt; Event &gt;</text>
</g>
<!-- Node7 -->
<g id="node7" class="node">
<title>Node7</title>
<g id="a_node7"><a xlink:title=" ">
<polygon fill="none" stroke="#bfbfbf" points="272.5,-733.5 272.5,-801.5 384.5,-801.5 384.5,-733.5 272.5,-733.5"/>
<text text-anchor="start" x="280.5" y="-789.5" font-family="Helvetica,sans-Serif" font-size="10.00">queue&lt; std::unique</text>
<text text-anchor="middle" x="328.5" y="-778.5" font-family="Helvetica,sans-Serif" font-size="10.00">_ptr&lt; E &gt; &gt;</text>
<polyline fill="none" stroke="#bfbfbf" points="272.5,-771.5 384.5,-771.5 "/>
<text text-anchor="middle" x="328.5" y="-759.5" font-family="Helvetica,sans-Serif" font-size="10.00"> </text>
<polyline fill="none" stroke="#bfbfbf" points="272.5,-752.5 384.5,-752.5 "/>
<text text-anchor="middle" x="328.5" y="-740.5" font-family="Helvetica,sans-Serif" font-size="10.00"> </text>
</a>
</g>
</g>
<!-- Node7&#45;&gt;Node6 -->
<g id="edge6" class="edge">
<title>Node7&#45;&gt;Node6</title>
<path fill="none" stroke="#404040" d="M341.73,-733.34C345.98,-722.67 350.97,-710.18 356.21,-697.03"/>
<polygon fill="none" stroke="#404040" points="356.23,-696.99 354.74,-689.93 360.68,-685.84 362.17,-692.9 356.23,-696.99"/>
<text text-anchor="middle" x="377.5" y="-707" font-family="Helvetica,sans-Serif" font-size="10.00"> #events_</text>
</g>
<!-- Node8 -->
<g id="node8" class="node">
<title>Node8</title>
<g id="a_node8"><a xlink:title=" ">
<polygon fill="none" stroke="#bfbfbf" points="402.5,-739 402.5,-796 552.5,-796 552.5,-739 402.5,-739"/>
<text text-anchor="middle" x="477.5" y="-784" font-family="Helvetica,sans-Serif" font-size="10.00">unique_ptr&lt; EventQueue &gt;</text>
<polyline fill="none" stroke="#bfbfbf" points="402.5,-777 552.5,-777 "/>
<text text-anchor="middle" x="477.5" y="-765" font-family="Helvetica,sans-Serif" font-size="10.00"> </text>
<polyline fill="none" stroke="#bfbfbf" points="402.5,-758 552.5,-758 "/>
<text text-anchor="middle" x="477.5" y="-746" font-family="Helvetica,sans-Serif" font-size="10.00"> </text>
</a>
</g>
</g>
<!-- Node8&#45;&gt;Node6 -->
<g id="edge7" class="edge">
<title>Node8&#45;&gt;Node6</title>
<path fill="none" stroke="#404040" d="M466.27,-738.73C461.54,-727.02 455.68,-712.53 449.45,-697.12"/>
<polygon fill="none" stroke="#404040" points="449.35,-696.89 443.4,-692.82 444.86,-685.76 450.81,-689.82 449.35,-696.89"/>
<text text-anchor="middle" x="472" y="-707" font-family="Helvetica,sans-Serif" font-size="10.00"> #self_</text>
</g>
</g>
</svg>
