<?xml version="1.0" encoding="UTF-8" standalone="no"?>
<!DOCTYPE svg PUBLIC "-//W3C//DTD SVG 1.1//EN"
 "http://www.w3.org/Graphics/SVG/1.1/DTD/svg11.dtd">
<!-- Generated by graphviz version 2.50.0 (0)
 -->
<!-- Title: TilesGraphic Pages: 1 -->
<svg width="881pt" height="689pt"
 viewBox="0.00 0.00 881.00 689.00" xmlns="http://www.w3.org/2000/svg" xmlns:xlink="http://www.w3.org/1999/xlink">
<g id="graph0" class="graph" transform="scale(1 1) rotate(0) translate(4 685)">
<title>TilesGraphic</title>
<!-- Node1 -->
<g id="node1" class="node">
<title>Node1</title>
<g id="a_node1"><a xlink:title="Class responsible for board updates and render.">
<polygon fill="#bfbfbf" stroke="black" points="404.5,-0.5 404.5,-244.5 562.5,-244.5 562.5,-0.5 404.5,-0.5"/>
<text text-anchor="middle" x="483.5" y="-232.5" font-family="Helvetica,sans-Serif" font-size="10.00">TilesGraphic</text>
<polyline fill="none" stroke="black" points="404.5,-225.5 562.5,-225.5 "/>
<text text-anchor="middle" x="483.5" y="-213.5" font-family="Helvetica,sans-Serif" font-size="10.00"> </text>
<polyline fill="none" stroke="black" points="404.5,-206.5 562.5,-206.5 "/>
<text text-anchor="start" x="412.5" y="-194.5" font-family="Helvetica,sans-Serif" font-size="10.00">+ virtual void render</text>
<text text-anchor="start" x="412.5" y="-183.5" font-family="Helvetica,sans-Serif" font-size="10.00">() override</text>
<text text-anchor="start" x="412.5" y="-172.5" font-family="Helvetica,sans-Serif" font-size="10.00">+ Grid ** getGrid()</text>
<text text-anchor="start" x="412.5" y="-161.5" font-family="Helvetica,sans-Serif" font-size="10.00">+ std::vector&lt; RenderObject</text>
<text text-anchor="start" x="412.5" y="-150.5" font-family="Helvetica,sans-Serif" font-size="10.00"> &gt; getRenderTiles()</text>
<text text-anchor="start" x="412.5" y="-139.5" font-family="Helvetica,sans-Serif" font-size="10.00">+ TilesGraphic(const</text>
<text text-anchor="start" x="412.5" y="-128.5" font-family="Helvetica,sans-Serif" font-size="10.00"> WindowView &amp;windowView,</text>
<text text-anchor="start" x="412.5" y="-117.5" font-family="Helvetica,sans-Serif" font-size="10.00"> std::shared_ptr&lt; Grid</text>
<text text-anchor="start" x="412.5" y="-106.5" font-family="Helvetica,sans-Serif" font-size="10.00"> * &gt; grid, std::shared_ptr</text>
<text text-anchor="start" x="412.5" y="-95.5" font-family="Helvetica,sans-Serif" font-size="10.00">&lt; std::queue&lt; sf::Sprite &gt;</text>
<text text-anchor="start" x="412.5" y="-84.5" font-family="Helvetica,sans-Serif" font-size="10.00">&gt; specialQueue)</text>
<text text-anchor="start" x="412.5" y="-73.5" font-family="Helvetica,sans-Serif" font-size="10.00"># void loadTextures()</text>
<text text-anchor="start" x="412.5" y="-62.5" font-family="Helvetica,sans-Serif" font-size="10.00"># void setTileTexture</text>
<text text-anchor="start" x="412.5" y="-51.5" font-family="Helvetica,sans-Serif" font-size="10.00">(sf::Sprite &amp;tile, TileType</text>
<text text-anchor="start" x="412.5" y="-40.5" font-family="Helvetica,sans-Serif" font-size="10.00"> tileType, float x_pos, float</text>
<text text-anchor="start" x="412.5" y="-29.5" font-family="Helvetica,sans-Serif" font-size="10.00"> y_pos, float tile_height, float</text>
<text text-anchor="start" x="412.5" y="-18.5" font-family="Helvetica,sans-Serif" font-size="10.00"> tile_width, sf::Vector2f scale</text>
<text text-anchor="start" x="412.5" y="-7.5" font-family="Helvetica,sans-Serif" font-size="10.00">=sf::Vector2f(1.f, 1.f))</text>
</a>
</g>
</g>
<!-- Node2 -->
<g id="node2" class="node">
<title>Node2</title>
<g id="a_node2"><a xlink:href="class_abstract_window.html" target="_top" xlink:title="Contains main SFML functions.">
<polygon fill="none" stroke="black" points="95.5,-292.5 95.5,-415.5 253.5,-415.5 253.5,-292.5 95.5,-292.5"/>
<text text-anchor="middle" x="174.5" y="-403.5" font-family="Helvetica,sans-Serif" font-size="10.00">AbstractWindow</text>
<polyline fill="none" stroke="black" points="95.5,-396.5 253.5,-396.5 "/>
<text text-anchor="middle" x="174.5" y="-384.5" font-family="Helvetica,sans-Serif" font-size="10.00"> </text>
<polyline fill="none" stroke="black" points="95.5,-377.5 253.5,-377.5 "/>
<text text-anchor="start" x="103.5" y="-365.5" font-family="Helvetica,sans-Serif" font-size="10.00">+ sf::RenderWindow *</text>
<text text-anchor="start" x="103.5" y="-354.5" font-family="Helvetica,sans-Serif" font-size="10.00"> getWindow()</text>
<text text-anchor="start" x="103.5" y="-343.5" font-family="Helvetica,sans-Serif" font-size="10.00">+ virtual void render()=0</text>
<text text-anchor="start" x="103.5" y="-332.5" font-family="Helvetica,sans-Serif" font-size="10.00">+ AbstractWindow()</text>
<text text-anchor="start" x="103.5" y="-321.5" font-family="Helvetica,sans-Serif" font-size="10.00">+ AbstractWindow(const</text>
<text text-anchor="start" x="103.5" y="-310.5" font-family="Helvetica,sans-Serif" font-size="10.00"> WindowView &amp;windowView)</text>
<text text-anchor="start" x="103.5" y="-299.5" font-family="Helvetica,sans-Serif" font-size="10.00">+ virtual ~AbstractWindow()</text>
</a>
</g>
</g>
<!-- Node2&#45;&gt;Node1 -->
<g id="edge1" class="edge">
<title>Node2&#45;&gt;Node1</title>
<path fill="none" stroke="midnightblue" d="M261.92,-288.07C306.67,-254.84 360.74,-214.68 404.26,-182.35"/>
<polygon fill="none" stroke="midnightblue" points="259.62,-285.42 253.67,-294.2 263.79,-291.04 259.62,-285.42"/>
</g>
<!-- Node3 -->
<g id="node3" class="node">
<title>Node3</title>
<g id="a_node3"><a xlink:title=" ">
<polygon fill="none" stroke="#bfbfbf" points="0,-491 0,-548 65,-548 65,-491 0,-491"/>
<text text-anchor="middle" x="32.5" y="-536" font-family="Helvetica,sans-Serif" font-size="10.00">const uint</text>
<polyline fill="none" stroke="#bfbfbf" points="0,-529 65,-529 "/>
<text text-anchor="middle" x="32.5" y="-517" font-family="Helvetica,sans-Serif" font-size="10.00"> </text>
<polyline fill="none" stroke="#bfbfbf" points="0,-510 65,-510 "/>
<text text-anchor="middle" x="32.5" y="-498" font-family="Helvetica,sans-Serif" font-size="10.00"> </text>
</a>
</g>
</g>
<!-- Node3&#45;&gt;Node2 -->
<g id="edge2" class="edge">
<title>Node3&#45;&gt;Node2</title>
<path fill="none" stroke="#404040" d="M41.02,-490.71C47.3,-473.23 57.08,-450.87 70.5,-434 75.27,-428 80.59,-422.21 86.24,-416.68"/>
<polygon fill="none" stroke="#404040" points="86.56,-416.38 88.23,-409.36 95.35,-408.2 93.68,-415.22 86.56,-416.38"/>
<text text-anchor="middle" x="120.5" y="-448" font-family="Helvetica,sans-Serif" font-size="10.00"> #WINDOW_HEIGHT</text>
<text text-anchor="middle" x="120.5" y="-437" font-family="Helvetica,sans-Serif" font-size="10.00">#WINDOW_WIDTH</text>
</g>
<!-- Node4 -->
<g id="node4" class="node">
<title>Node4</title>
<g id="a_node4"><a xlink:href="struct_window_view.html" target="_top" xlink:title="Struct that contains the sf::RenderWindow nad offset of elements to render.">
<polygon fill="none" stroke="black" points="83.5,-474.5 83.5,-564.5 265.5,-564.5 265.5,-474.5 83.5,-474.5"/>
<text text-anchor="middle" x="174.5" y="-552.5" font-family="Helvetica,sans-Serif" font-size="10.00">WindowView</text>
<polyline fill="none" stroke="black" points="83.5,-545.5 265.5,-545.5 "/>
<text text-anchor="middle" x="174.5" y="-533.5" font-family="Helvetica,sans-Serif" font-size="10.00"> </text>
<polyline fill="none" stroke="black" points="83.5,-526.5 265.5,-526.5 "/>
<text text-anchor="start" x="91.5" y="-514.5" font-family="Helvetica,sans-Serif" font-size="10.00">+ WindowView(sf::RenderWindow</text>
<text text-anchor="start" x="91.5" y="-503.5" font-family="Helvetica,sans-Serif" font-size="10.00"> *window, float topOffset,</text>
<text text-anchor="start" x="91.5" y="-492.5" font-family="Helvetica,sans-Serif" font-size="10.00"> float leftOffset)</text>
<text text-anchor="start" x="91.5" y="-481.5" font-family="Helvetica,sans-Serif" font-size="10.00">+ WindowView()</text>
</a>
</g>
</g>
<!-- Node4&#45;&gt;Node2 -->
<g id="edge3" class="edge">
<title>Node4&#45;&gt;Node2</title>
<path fill="none" stroke="#404040" d="M174.5,-474.25C174.5,-459.86 174.5,-443.49 174.5,-427.58"/>
<polygon fill="none" stroke="#404040" points="174.5,-427.55 170.5,-421.55 174.5,-415.55 178.5,-421.55 174.5,-427.55"/>
<text text-anchor="middle" x="211" y="-442.5" font-family="Helvetica,sans-Serif" font-size="10.00"> #windowView</text>
</g>
<!-- Node5 -->
<g id="node5" class="node">
<title>Node5</title>
<g id="a_node5"><a xlink:title=" ">
<polygon fill="none" stroke="#bfbfbf" points="82.5,-623.5 82.5,-680.5 180.5,-680.5 180.5,-623.5 82.5,-623.5"/>
<text text-anchor="middle" x="131.5" y="-668.5" font-family="Helvetica,sans-Serif" font-size="10.00">RenderWindow *</text>
<polyline fill="none" stroke="#bfbfbf" points="82.5,-661.5 180.5,-661.5 "/>
<text text-anchor="middle" x="131.5" y="-649.5" font-family="Helvetica,sans-Serif" font-size="10.00"> </text>
<polyline fill="none" stroke="#bfbfbf" points="82.5,-642.5 180.5,-642.5 "/>
<text text-anchor="middle" x="131.5" y="-630.5" font-family="Helvetica,sans-Serif" font-size="10.00"> </text>
</a>
</g>
</g>
<!-- Node5&#45;&gt;Node4 -->
<g id="edge4" class="edge">
<title>Node5&#45;&gt;Node4</title>
<path fill="none" stroke="#404040" d="M136.3,-623.19C138.79,-610.74 142.21,-595.97 146.5,-583 147.24,-580.76 148.04,-578.48 148.87,-576.2"/>
<polygon fill="none" stroke="#404040" points="148.97,-575.96 147.42,-568.92 153.33,-564.79 154.88,-571.83 148.97,-575.96"/>
<text text-anchor="middle" x="171" y="-591.5" font-family="Helvetica,sans-Serif" font-size="10.00"> +window</text>
</g>
<!-- Node6 -->
<g id="node6" class="node">
<title>Node6</title>
<g id="a_node6"><a xlink:title=" ">
<polygon fill="none" stroke="#bfbfbf" points="198.5,-623.5 198.5,-680.5 236.5,-680.5 236.5,-623.5 198.5,-623.5"/>
<text text-anchor="middle" x="217.5" y="-668.5" font-family="Helvetica,sans-Serif" font-size="10.00">float</text>
<polyline fill="none" stroke="#bfbfbf" points="198.5,-661.5 236.5,-661.5 "/>
<text text-anchor="middle" x="217.5" y="-649.5" font-family="Helvetica,sans-Serif" font-size="10.00"> </text>
<polyline fill="none" stroke="#bfbfbf" points="198.5,-642.5 236.5,-642.5 "/>
<text text-anchor="middle" x="217.5" y="-630.5" font-family="Helvetica,sans-Serif" font-size="10.00"> </text>
</a>
</g>
</g>
<!-- Node6&#45;&gt;Node4 -->
<g id="edge5" class="edge">
<title>Node6&#45;&gt;Node4</title>
<path fill="none" stroke="#404040" d="M208.58,-623.19C204.61,-610.86 199.85,-596.2 195.5,-583 194.76,-580.76 194,-578.47 193.24,-576.16"/>
<polygon fill="none" stroke="#404040" points="193.15,-575.91 187.46,-571.48 189.36,-564.53 195.05,-568.96 193.15,-575.91"/>
<text text-anchor="middle" x="231" y="-597" font-family="Helvetica,sans-Serif" font-size="10.00"> +leftOffset</text>
<text text-anchor="middle" x="231" y="-586" font-family="Helvetica,sans-Serif" font-size="10.00">+topOffset</text>
</g>
<!-- Node7 -->
<g id="node7" class="node">
<title>Node7</title>
<g id="a_node7"><a xlink:title=" ">
<polygon fill="none" stroke="#bfbfbf" points="284,-485.5 284,-553.5 433,-553.5 433,-485.5 284,-485.5"/>
<text text-anchor="start" x="292" y="-541.5" font-family="Helvetica,sans-Serif" font-size="10.00">vector&lt; std::shared</text>
<text text-anchor="middle" x="358.5" y="-530.5" font-family="Helvetica,sans-Serif" font-size="10.00">_ptr&lt; AbstractWindow &gt; &gt;</text>
<polyline fill="none" stroke="#bfbfbf" points="284,-523.5 433,-523.5 "/>
<text text-anchor="middle" x="358.5" y="-511.5" font-family="Helvetica,sans-Serif" font-size="10.00"> </text>
<polyline fill="none" stroke="#bfbfbf" points="284,-504.5 433,-504.5 "/>
<text text-anchor="middle" x="358.5" y="-492.5" font-family="Helvetica,sans-Serif" font-size="10.00"> </text>
</a>
</g>
</g>
<!-- Node7&#45;&gt;Node2 -->
<g id="edge6" class="edge">
<title>Node7&#45;&gt;Node2</title>
<path fill="none" stroke="#404040" d="M321.26,-485.41C301.34,-467.71 276.02,-445.21 252.05,-423.91"/>
<polygon fill="none" stroke="#404040" points="251.91,-423.79 244.77,-422.79 242.94,-415.82 250.08,-416.81 251.91,-423.79"/>
<text text-anchor="middle" x="309" y="-442.5" font-family="Helvetica,sans-Serif" font-size="10.00"> #children</text>
</g>
<!-- Node8 -->
<g id="node8" class="node">
<title>Node8</title>
<g id="a_node8"><a xlink:title=" ">
<polygon fill="none" stroke="#bfbfbf" points="272,-325.5 272,-382.5 391,-382.5 391,-325.5 272,-325.5"/>
<text text-anchor="middle" x="331.5" y="-370.5" font-family="Helvetica,sans-Serif" font-size="10.00">shared_ptr&lt; Grid * &gt;</text>
<polyline fill="none" stroke="#bfbfbf" points="272,-363.5 391,-363.5 "/>
<text text-anchor="middle" x="331.5" y="-351.5" font-family="Helvetica,sans-Serif" font-size="10.00"> </text>
<polyline fill="none" stroke="#bfbfbf" points="272,-344.5 391,-344.5 "/>
<text text-anchor="middle" x="331.5" y="-332.5" font-family="Helvetica,sans-Serif" font-size="10.00"> </text>
</a>
</g>
</g>
<!-- Node8&#45;&gt;Node1 -->
<g id="edge7" class="edge">
<title>Node8&#45;&gt;Node1</title>
<path fill="none" stroke="#404040" d="M349.83,-325.32C362.25,-306.58 379.64,-280.32 397.78,-252.93"/>
<polygon fill="none" stroke="#404040" points="397.86,-252.8 397.84,-245.59 404.49,-242.8 404.51,-250.01 397.86,-252.8"/>
<text text-anchor="middle" x="405" y="-266" font-family="Helvetica,sans-Serif" font-size="10.00"> #grid</text>
</g>
<!-- Node9 -->
<g id="node9" class="node">
<title>Node9</title>
<g id="a_node9"><a xlink:title=" ">
<polygon fill="none" stroke="#bfbfbf" points="409.5,-320 409.5,-388 557.5,-388 557.5,-320 409.5,-320"/>
<text text-anchor="start" x="417.5" y="-376" font-family="Helvetica,sans-Serif" font-size="10.00">unordered_map&lt; TileType,</text>
<text text-anchor="middle" x="483.5" y="-365" font-family="Helvetica,sans-Serif" font-size="10.00"> sf::Texture &gt;</text>
<polyline fill="none" stroke="#bfbfbf" points="409.5,-358 557.5,-358 "/>
<text text-anchor="middle" x="483.5" y="-346" font-family="Helvetica,sans-Serif" font-size="10.00"> </text>
<polyline fill="none" stroke="#bfbfbf" points="409.5,-339 557.5,-339 "/>
<text text-anchor="middle" x="483.5" y="-327" font-family="Helvetica,sans-Serif" font-size="10.00"> </text>
</a>
</g>
</g>
<!-- Node9&#45;&gt;Node1 -->
<g id="edge8" class="edge">
<title>Node9&#45;&gt;Node1</title>
<path fill="none" stroke="#404040" d="M483.5,-319.63C483.5,-302.43 483.5,-280.19 483.5,-256.91"/>
<polygon fill="none" stroke="#404040" points="483.5,-256.66 479.5,-250.66 483.5,-244.66 487.5,-250.66 483.5,-256.66"/>
<text text-anchor="middle" x="517.5" y="-266" font-family="Helvetica,sans-Serif" font-size="10.00"> #textureMap</text>
</g>
<!-- Node10 -->
<g id="node10" class="node">
<title>Node10</title>
<g id="a_node10"><a xlink:title=" ">
<polygon fill="none" stroke="#bfbfbf" points="575.5,-320 575.5,-388 723.5,-388 723.5,-320 575.5,-320"/>
<text text-anchor="start" x="583.5" y="-376" font-family="Helvetica,sans-Serif" font-size="10.00">unordered_map&lt; TileType,</text>
<text text-anchor="middle" x="649.5" y="-365" font-family="Helvetica,sans-Serif" font-size="10.00"> std::string &gt;</text>
<polyline fill="none" stroke="#bfbfbf" points="575.5,-358 723.5,-358 "/>
<text text-anchor="middle" x="649.5" y="-346" font-family="Helvetica,sans-Serif" font-size="10.00"> </text>
<polyline fill="none" stroke="#bfbfbf" points="575.5,-339 723.5,-339 "/>
<text text-anchor="middle" x="649.5" y="-327" font-family="Helvetica,sans-Serif" font-size="10.00"> </text>
</a>
</g>
</g>
<!-- Node10&#45;&gt;Node1 -->
<g id="edge9" class="edge">
<title>Node10&#45;&gt;Node1</title>
<path fill="none" stroke="#404040" d="M625.36,-319.63C610.44,-299 590.29,-271.14 569.87,-242.91"/>
<polygon fill="none" stroke="#404040" points="569.67,-242.64 562.92,-240.12 562.64,-232.92 569.4,-235.43 569.67,-242.64"/>
<text text-anchor="middle" x="618" y="-266" font-family="Helvetica,sans-Serif" font-size="10.00"> #pathMap</text>
</g>
<!-- Node11 -->
<g id="node11" class="node">
<title>Node11</title>
<g id="a_node11"><a xlink:title=" ">
<polygon fill="none" stroke="#bfbfbf" points="742,-320 742,-388 873,-388 873,-320 742,-320"/>
<text text-anchor="start" x="750" y="-376" font-family="Helvetica,sans-Serif" font-size="10.00">shared_ptr&lt; std::queue</text>
<text text-anchor="middle" x="807.5" y="-365" font-family="Helvetica,sans-Serif" font-size="10.00">&lt; sf::Sprite &gt; &gt;</text>
<polyline fill="none" stroke="#bfbfbf" points="742,-358 873,-358 "/>
<text text-anchor="middle" x="807.5" y="-346" font-family="Helvetica,sans-Serif" font-size="10.00"> </text>
<polyline fill="none" stroke="#bfbfbf" points="742,-339 873,-339 "/>
<text text-anchor="middle" x="807.5" y="-327" font-family="Helvetica,sans-Serif" font-size="10.00"> </text>
</a>
</g>
</g>
<!-- Node11&#45;&gt;Node1 -->
<g id="edge10" class="edge">
<title>Node11&#45;&gt;Node1</title>
<path fill="none" stroke="#404040" d="M767.92,-319.73C756.64,-310.54 744.22,-300.71 732.5,-292 680.67,-253.5 620.79,-212.86 572.74,-181.14"/>
<polygon fill="none" stroke="#404040" points="572.7,-181.12 565.48,-181.16 562.67,-174.52 569.88,-174.47 572.7,-181.12"/>
<text text-anchor="middle" x="744.5" y="-266" font-family="Helvetica,sans-Serif" font-size="10.00"> #specialQueue</text>
</g>
</g>
</svg>
