<?xml version="1.0" encoding="UTF-8" standalone="no"?>
<!DOCTYPE svg PUBLIC "-//W3C//DTD SVG 1.1//EN"
 "http://www.w3.org/Graphics/SVG/1.1/DTD/svg11.dtd">
<!-- Generated by graphviz version 2.43.0 (0)
 -->
<!-- Title: Board Pages: 1 -->
<!--zoomable 1861 -->
<svg id="main" version="1.1" xmlns="http://www.w3.org/2000/svg" xmlns:xlink="http://www.w3.org/1999/xlink" xml:space="preserve" onload="init(evt)">
<style type="text/css"><![CDATA[
.edge:hover path { stroke: red; }
.edge:hover polygon { stroke: red; fill: red; }
]]></style>
<script type="text/javascript"><![CDATA[
var edges = document.getElementsByTagName('g');
if (edges && edges.length) {
  for (var i=0;i<edges.length;i++) {
    if (edges[i].id.substr(0,4)=='edge') {
      edges[i].setAttribute('class','edge');
    }
  }
}
]]></script>
        <defs>
                <circle id="rim" cx="0" cy="0" r="7"/>
                <circle id="rim2" cx="0" cy="0" r="3.5"/>
                <g id="zoomPlus">
                        <use xlink:href="#rim" fill="#404040">
                                <set attributeName="fill" to="#808080" begin="zoomplus.mouseover" end="zoomplus.mouseout"/>
                        </use>
                        <path d="M-4,0h8M0,-4v8" fill="none" stroke="white" stroke-width="1.5" pointer-events="none"/>
                </g>
                <g id="zoomMin">
                        <use xlink:href="#rim" fill="#404040">
                                <set attributeName="fill" to="#808080" begin="zoomminus.mouseover" end="zoomminus.mouseout"/>
                        </use>
                        <path d="M-4,0h8" fill="none" stroke="white" stroke-width="1.5" pointer-events="none"/>
                </g>
                <g id="dirArrow">
                        <path fill="none" stroke="white" stroke-width="1.5" d="M0,-3.0v7 M-2.5,-0.5L0,-3.0L2.5,-0.5"/>
                </g>
               <g id="resetDef">
                       <use xlink:href="#rim2" fill="#404040">
                               <set attributeName="fill" to="#808080" begin="reset.mouseover" end="reset.mouseout"/>
                       </use>
               </g>
        </defs>

<script type="text/javascript">
var viewWidth = 1135;
var viewHeight = 1861;
var sectionId = 'dynsection-0';
</script>
<script xlink:href="svgpan.js"/>
<svg id="graph" class="graph">
<g id="viewport">
<title>Board</title>
<!-- Node1 -->
<g id="node1" class="node">
<title>Node1</title>
<g id="a_node1"><a xlink:title="Aggregates and manipulates tank, bullet, and tile objects.">
<polygon fill="#bfbfbf" stroke="black" points="387.5,-0.5 387.5,-706.5 555.5,-706.5 555.5,-0.5 387.5,-0.5"/>
<text text-anchor="middle" x="471.5" y="-694.5" font-family="Helvetica,sans-Serif" font-size="10.00">Board</text>
<polyline fill="none" stroke="black" points="387.5,-687.5 555.5,-687.5 "/>
<text text-anchor="middle" x="471.5" y="-675.5" font-family="Helvetica,sans-Serif" font-size="10.00"> </text>
<polyline fill="none" stroke="black" points="387.5,-668.5 555.5,-668.5 "/>
<text text-anchor="start" x="395.5" y="-656.5" font-family="Helvetica,sans-Serif" font-size="10.00">+ Board()</text>
<text text-anchor="start" x="395.5" y="-645.5" font-family="Helvetica,sans-Serif" font-size="10.00">+ void setTankMoving</text>
<text text-anchor="start" x="395.5" y="-634.5" font-family="Helvetica,sans-Serif" font-size="10.00">(const std::shared_ptr</text>
<text text-anchor="start" x="395.5" y="-623.5" font-family="Helvetica,sans-Serif" font-size="10.00">&lt; Tank &gt; &amp;target, bool</text>
<text text-anchor="start" x="395.5" y="-612.5" font-family="Helvetica,sans-Serif" font-size="10.00"> isMoving)</text>
<text text-anchor="start" x="395.5" y="-601.5" font-family="Helvetica,sans-Serif" font-size="10.00">+ void setTankDirection</text>
<text text-anchor="start" x="395.5" y="-590.5" font-family="Helvetica,sans-Serif" font-size="10.00">(const std::shared_ptr</text>
<text text-anchor="start" x="395.5" y="-579.5" font-family="Helvetica,sans-Serif" font-size="10.00">&lt; Tank &gt; &amp;tank, Direction</text>
<text text-anchor="start" x="395.5" y="-568.5" font-family="Helvetica,sans-Serif" font-size="10.00"> targetDirection)</text>
<text text-anchor="start" x="395.5" y="-557.5" font-family="Helvetica,sans-Serif" font-size="10.00">+ void moveAllEntities()</text>
<text text-anchor="start" x="395.5" y="-546.5" font-family="Helvetica,sans-Serif" font-size="10.00">+ bool moveEntity(const</text>
<text text-anchor="start" x="395.5" y="-535.5" font-family="Helvetica,sans-Serif" font-size="10.00"> std::shared_ptr&lt; Entity</text>
<text text-anchor="start" x="395.5" y="-524.5" font-family="Helvetica,sans-Serif" font-size="10.00"> &gt; &amp;target)</text>
<text text-anchor="start" x="395.5" y="-513.5" font-family="Helvetica,sans-Serif" font-size="10.00">+ bool fireTank(const</text>
<text text-anchor="start" x="395.5" y="-502.5" font-family="Helvetica,sans-Serif" font-size="10.00"> std::shared_ptr&lt; Tank</text>
<text text-anchor="start" x="395.5" y="-491.5" font-family="Helvetica,sans-Serif" font-size="10.00"> &gt; &amp;target)</text>
<text text-anchor="start" x="395.5" y="-480.5" font-family="Helvetica,sans-Serif" font-size="10.00">+ bool spawnTank(unsigned</text>
<text text-anchor="start" x="395.5" y="-469.5" font-family="Helvetica,sans-Serif" font-size="10.00"> int x, unsigned int y,</text>
<text text-anchor="start" x="395.5" y="-458.5" font-family="Helvetica,sans-Serif" font-size="10.00"> Tank::TankType type, Direction</text>
<text text-anchor="start" x="395.5" y="-447.5" font-family="Helvetica,sans-Serif" font-size="10.00"> facing=North)</text>
<text text-anchor="start" x="395.5" y="-436.5" font-family="Helvetica,sans-Serif" font-size="10.00">+ bool spawnPlayer(Direction</text>
<text text-anchor="start" x="395.5" y="-425.5" font-family="Helvetica,sans-Serif" font-size="10.00"> facing=North)</text>
<text text-anchor="start" x="395.5" y="-414.5" font-family="Helvetica,sans-Serif" font-size="10.00">+ bool spawnPlayer(unsigned</text>
<text text-anchor="start" x="395.5" y="-403.5" font-family="Helvetica,sans-Serif" font-size="10.00"> int x, unsigned int y,</text>
<text text-anchor="start" x="395.5" y="-392.5" font-family="Helvetica,sans-Serif" font-size="10.00"> Direction facing=North)</text>
<text text-anchor="start" x="395.5" y="-381.5" font-family="Helvetica,sans-Serif" font-size="10.00">+ void setGrid(std::unique</text>
<text text-anchor="start" x="395.5" y="-370.5" font-family="Helvetica,sans-Serif" font-size="10.00">_ptr&lt; Grid &gt; grid)</text>
<text text-anchor="start" x="395.5" y="-359.5" font-family="Helvetica,sans-Serif" font-size="10.00">+ void deleteTile(unsigned</text>
<text text-anchor="start" x="395.5" y="-348.5" font-family="Helvetica,sans-Serif" font-size="10.00"> int x, unsigned int y)</text>
<text text-anchor="start" x="395.5" y="-337.5" font-family="Helvetica,sans-Serif" font-size="10.00">+ void killAllEnemyEntities()</text>
<text text-anchor="start" x="395.5" y="-326.5" font-family="Helvetica,sans-Serif" font-size="10.00">+ void removeEntity(std</text>
<text text-anchor="start" x="395.5" y="-315.5" font-family="Helvetica,sans-Serif" font-size="10.00">::shared_ptr&lt; Entity</text>
<text text-anchor="start" x="395.5" y="-304.5" font-family="Helvetica,sans-Serif" font-size="10.00"> &gt; entity)</text>
<text text-anchor="start" x="395.5" y="-293.5" font-family="Helvetica,sans-Serif" font-size="10.00">+ void removeAllEntities()</text>
<text text-anchor="start" x="395.5" y="-282.5" font-family="Helvetica,sans-Serif" font-size="10.00">+ unsigned int getSizeX()</text>
<text text-anchor="start" x="395.5" y="-271.5" font-family="Helvetica,sans-Serif" font-size="10.00">+ unsigned int getSizeY()</text>
<text text-anchor="start" x="395.5" y="-260.5" font-family="Helvetica,sans-Serif" font-size="10.00">+ bool snapTankToGrid</text>
<text text-anchor="start" x="395.5" y="-249.5" font-family="Helvetica,sans-Serif" font-size="10.00">(const std::shared_ptr</text>
<text text-anchor="start" x="395.5" y="-238.5" font-family="Helvetica,sans-Serif" font-size="10.00">&lt; Tank &gt; &amp;target, bool</text>
<text text-anchor="start" x="395.5" y="-227.5" font-family="Helvetica,sans-Serif" font-size="10.00"> snap_x=true, bool snap</text>
<text text-anchor="start" x="395.5" y="-216.5" font-family="Helvetica,sans-Serif" font-size="10.00">_y=true)</text>
<text text-anchor="start" x="395.5" y="-205.5" font-family="Helvetica,sans-Serif" font-size="10.00">+ void loadLevel(unsigned</text>
<text text-anchor="start" x="395.5" y="-194.5" font-family="Helvetica,sans-Serif" font-size="10.00"> int levelNum)</text>
<text text-anchor="start" x="395.5" y="-183.5" font-family="Helvetica,sans-Serif" font-size="10.00">+ std::shared_ptr&lt; PlayerTank</text>
<text text-anchor="start" x="395.5" y="-172.5" font-family="Helvetica,sans-Serif" font-size="10.00"> &gt; getPlayerTank()</text>
<text text-anchor="start" x="395.5" y="-161.5" font-family="Helvetica,sans-Serif" font-size="10.00">+ void removeEntity(Entity</text>
<text text-anchor="start" x="395.5" y="-150.5" font-family="Helvetica,sans-Serif" font-size="10.00"> *entity)</text>
<text text-anchor="start" x="395.5" y="-139.5" font-family="Helvetica,sans-Serif" font-size="10.00">+ EntityController *</text>
<text text-anchor="start" x="395.5" y="-128.5" font-family="Helvetica,sans-Serif" font-size="10.00"> getEntityController()</text>
<text text-anchor="start" x="395.5" y="-117.5" font-family="Helvetica,sans-Serif" font-size="10.00">+ void hitTank(std::shared</text>
<text text-anchor="start" x="395.5" y="-106.5" font-family="Helvetica,sans-Serif" font-size="10.00">_ptr&lt; Tank &gt; target, unsigned</text>
<text text-anchor="start" x="395.5" y="-95.5" font-family="Helvetica,sans-Serif" font-size="10.00"> int damage)</text>
<text text-anchor="start" x="395.5" y="-84.5" font-family="Helvetica,sans-Serif" font-size="10.00">+ Grid * getGrid()</text>
<text text-anchor="start" x="395.5" y="-73.5" font-family="Helvetica,sans-Serif" font-size="10.00"># bool validateEntityPosition</text>
<text text-anchor="start" x="395.5" y="-62.5" font-family="Helvetica,sans-Serif" font-size="10.00">(const std::shared_ptr&lt;</text>
<text text-anchor="start" x="395.5" y="-51.5" font-family="Helvetica,sans-Serif" font-size="10.00"> Entity &gt; &amp;target)</text>
<text text-anchor="start" x="395.5" y="-40.5" font-family="Helvetica,sans-Serif" font-size="10.00"># std::unique_ptr&lt; Event</text>
<text text-anchor="start" x="395.5" y="-29.5" font-family="Helvetica,sans-Serif" font-size="10.00"> &gt; createCollisionEvent</text>
<text text-anchor="start" x="395.5" y="-18.5" font-family="Helvetica,sans-Serif" font-size="10.00">(std::shared_ptr&lt; Entity</text>
<text text-anchor="start" x="395.5" y="-7.5" font-family="Helvetica,sans-Serif" font-size="10.00"> &gt; entity)</text>
</a>
</g>
</g>
<!-- Node2 -->
<g id="node2" class="node">
<title>Node2</title>
<g id="a_node2"><a xlink:title=" ">
<polygon fill="none" stroke="black" points="182,-930.5 182,-987.5 293,-987.5 293,-930.5 182,-930.5"/>
<text text-anchor="middle" x="237.5" y="-975.5" font-family="Helvetica,sans-Serif" font-size="10.00">unique_ptr&lt; Grid &gt;</text>
<polyline fill="none" stroke="black" points="182,-968.5 293,-968.5 "/>
<text text-anchor="middle" x="237.5" y="-956.5" font-family="Helvetica,sans-Serif" font-size="10.00"> </text>
<polyline fill="none" stroke="black" points="182,-949.5 293,-949.5 "/>
<text text-anchor="middle" x="237.5" y="-937.5" font-family="Helvetica,sans-Serif" font-size="10.00"> </text>
</a>
</g>
</g>
<!-- Node2&#45;&gt;Node1 -->
<g id="edge1" class="edge">
<title>Node2&#45;&gt;Node1</title>
<path fill="none" stroke="#404040" d="M245.24,-930.32C256.51,-890.82 278.58,-816.17 301.5,-754 325.91,-687.78 355.2,-616.56 382.54,-552.86"/>
<polygon fill="none" stroke="#404040" points="382.7,-552.49 381.4,-545.4 387.45,-541.47 388.75,-548.56 382.7,-552.49"/>
<text text-anchor="middle" x="328.5" y="-728" font-family="Helvetica,sans-Serif" font-size="10.00"> #grid_</text>
</g>
<!-- Node3 -->
<g id="node3" class="node">
<title>Node3</title>
<g id="a_node3"><a xlink:title=" ">
<polygon fill="none" stroke="black" points="311,-930.5 311,-987.5 478,-987.5 478,-930.5 311,-930.5"/>
<text text-anchor="middle" x="394.5" y="-975.5" font-family="Helvetica,sans-Serif" font-size="10.00">unique_ptr&lt; EntityController &gt;</text>
<polyline fill="none" stroke="black" points="311,-968.5 478,-968.5 "/>
<text text-anchor="middle" x="394.5" y="-956.5" font-family="Helvetica,sans-Serif" font-size="10.00"> </text>
<polyline fill="none" stroke="black" points="311,-949.5 478,-949.5 "/>
<text text-anchor="middle" x="394.5" y="-937.5" font-family="Helvetica,sans-Serif" font-size="10.00"> </text>
</a>
</g>
</g>
<!-- Node3&#45;&gt;Node1 -->
<g id="edge2" class="edge">
<title>Node3&#45;&gt;Node1</title>
<path fill="none" stroke="#404040" d="M398.06,-930.1C403.29,-889.11 413.66,-807.79 425.01,-718.88"/>
<polygon fill="none" stroke="#404040" points="425.02,-718.76 421.82,-712.31 426.54,-706.86 429.75,-713.32 425.02,-718.76"/>
<text text-anchor="middle" x="471.5" y="-728" font-family="Helvetica,sans-Serif" font-size="10.00"> #entityController_</text>
</g>
<!-- Node4 -->
<g id="node4" class="node">
<title>Node4</title>
<g id="a_node4"><a xlink:href="class_event_queue.html" target="_top" xlink:title=" ">
<polygon fill="none" stroke="black" points="846.5,-1266.5 846.5,-1477.5 996.5,-1477.5 996.5,-1266.5 846.5,-1266.5"/>
<text text-anchor="middle" x="921.5" y="-1465.5" font-family="Helvetica,sans-Serif" font-size="10.00">EventQueue&lt; Event &gt;</text>
<polyline fill="none" stroke="black" points="846.5,-1458.5 996.5,-1458.5 "/>
<text text-anchor="middle" x="921.5" y="-1446.5" font-family="Helvetica,sans-Serif" font-size="10.00"> </text>
<polyline fill="none" stroke="black" points="846.5,-1439.5 996.5,-1439.5 "/>
<text text-anchor="start" x="854.5" y="-1427.5" font-family="Helvetica,sans-Serif" font-size="10.00">+ EventQueue(EventQueue</text>
<text text-anchor="start" x="854.5" y="-1416.5" font-family="Helvetica,sans-Serif" font-size="10.00"> &amp;)=delete</text>
<text text-anchor="start" x="854.5" y="-1405.5" font-family="Helvetica,sans-Serif" font-size="10.00">+ bool operator=(const</text>
<text text-anchor="start" x="854.5" y="-1394.5" font-family="Helvetica,sans-Serif" font-size="10.00"> EventQueue &amp;)=delete</text>
<text text-anchor="start" x="854.5" y="-1383.5" font-family="Helvetica,sans-Serif" font-size="10.00">+ void registerEvent</text>
<text text-anchor="start" x="854.5" y="-1372.5" font-family="Helvetica,sans-Serif" font-size="10.00">(std::unique_ptr&lt; Event</text>
<text text-anchor="start" x="854.5" y="-1361.5" font-family="Helvetica,sans-Serif" font-size="10.00"> &gt; event)</text>
<text text-anchor="start" x="854.5" y="-1350.5" font-family="Helvetica,sans-Serif" font-size="10.00">+ std::unique_ptr&lt; Event</text>
<text text-anchor="start" x="854.5" y="-1339.5" font-family="Helvetica,sans-Serif" font-size="10.00"> &gt; pop()</text>
<text text-anchor="start" x="854.5" y="-1328.5" font-family="Helvetica,sans-Serif" font-size="10.00">+ bool isEmpty()</text>
<text text-anchor="start" x="854.5" y="-1317.5" font-family="Helvetica,sans-Serif" font-size="10.00">+ unsigned int size()</text>
<text text-anchor="start" x="854.5" y="-1306.5" font-family="Helvetica,sans-Serif" font-size="10.00">+ void clear()</text>
<text text-anchor="start" x="854.5" y="-1295.5" font-family="Helvetica,sans-Serif" font-size="10.00">+ static EventQueue *</text>
<text text-anchor="start" x="854.5" y="-1284.5" font-family="Helvetica,sans-Serif" font-size="10.00"> instance()</text>
<text text-anchor="start" x="854.5" y="-1273.5" font-family="Helvetica,sans-Serif" font-size="10.00">&#45; EventQueue()=default</text>
</a>
</g>
</g>
<!-- Node4&#45;&gt;Node1 -->
<g id="edge3" class="edge">
<title>Node4&#45;&gt;Node1</title>
<path fill="none" stroke="#404040" d="M913.75,-1266.23C910.04,-1238.47 904.57,-1208.78 896.5,-1182 818.76,-924.22 662.03,-651.24 562.16,-492.19"/>
<polygon fill="none" stroke="#404040" points="562.06,-492.03 555.48,-489.09 555.67,-481.88 562.25,-484.82 562.06,-492.03"/>
<text text-anchor="middle" x="926.5" y="-956.5" font-family="Helvetica,sans-Serif" font-size="10.00"> #eventQueue_</text>
</g>
<!-- Node9 -->
<g id="node9" class="node">
<title>Node9</title>
<g id="a_node9"><a xlink:href="class_bot_controller.html" target="_top" xlink:title=" ">
<polygon fill="none" stroke="black" points="496.5,-754.5 496.5,-1163.5 678.5,-1163.5 678.5,-754.5 496.5,-754.5"/>
<text text-anchor="middle" x="587.5" y="-1151.5" font-family="Helvetica,sans-Serif" font-size="10.00">BotController</text>
<polyline fill="none" stroke="black" points="496.5,-1144.5 678.5,-1144.5 "/>
<text text-anchor="middle" x="587.5" y="-1132.5" font-family="Helvetica,sans-Serif" font-size="10.00"> </text>
<polyline fill="none" stroke="black" points="496.5,-1125.5 678.5,-1125.5 "/>
<text text-anchor="start" x="504.5" y="-1113.5" font-family="Helvetica,sans-Serif" font-size="10.00">+ BotController()=delete</text>
<text text-anchor="start" x="504.5" y="-1102.5" font-family="Helvetica,sans-Serif" font-size="10.00">+ BotController &amp; operator</text>
<text text-anchor="start" x="504.5" y="-1091.5" font-family="Helvetica,sans-Serif" font-size="10.00">=(const BotController &amp;other)</text>
<text text-anchor="start" x="504.5" y="-1080.5" font-family="Helvetica,sans-Serif" font-size="10.00">=delete</text>
<text text-anchor="start" x="504.5" y="-1069.5" font-family="Helvetica,sans-Serif" font-size="10.00">+ void makeBotDecision</text>
<text text-anchor="start" x="504.5" y="-1058.5" font-family="Helvetica,sans-Serif" font-size="10.00">(const std::shared_ptr</text>
<text text-anchor="start" x="504.5" y="-1047.5" font-family="Helvetica,sans-Serif" font-size="10.00">&lt; Bot &gt; &amp;bot)</text>
<text text-anchor="start" x="504.5" y="-1036.5" font-family="Helvetica,sans-Serif" font-size="10.00">+ void registerBot()</text>
<text text-anchor="start" x="504.5" y="-1025.5" font-family="Helvetica,sans-Serif" font-size="10.00">+ void deregisterBot()</text>
<text text-anchor="start" x="504.5" y="-1014.5" font-family="Helvetica,sans-Serif" font-size="10.00">+ void deregisterAllBots()</text>
<text text-anchor="start" x="504.5" y="-1003.5" font-family="Helvetica,sans-Serif" font-size="10.00">+ unsigned int getRegistered</text>
<text text-anchor="start" x="504.5" y="-992.5" font-family="Helvetica,sans-Serif" font-size="10.00">BotsCount() const</text>
<text text-anchor="start" x="504.5" y="-981.5" font-family="Helvetica,sans-Serif" font-size="10.00">+ void notify(SimplePublisher</text>
<text text-anchor="start" x="504.5" y="-970.5" font-family="Helvetica,sans-Serif" font-size="10.00"> *pub) override</text>
<text text-anchor="start" x="504.5" y="-959.5" font-family="Helvetica,sans-Serif" font-size="10.00">+ void setSpawnpoints</text>
<text text-anchor="start" x="504.5" y="-948.5" font-family="Helvetica,sans-Serif" font-size="10.00">(const std::vector&lt;</text>
<text text-anchor="start" x="504.5" y="-937.5" font-family="Helvetica,sans-Serif" font-size="10.00"> std::pair&lt; unsigned</text>
<text text-anchor="start" x="504.5" y="-926.5" font-family="Helvetica,sans-Serif" font-size="10.00"> int, unsigned int &gt; &gt;</text>
<text text-anchor="start" x="504.5" y="-915.5" font-family="Helvetica,sans-Serif" font-size="10.00"> &amp;spawnpoints)</text>
<text text-anchor="start" x="504.5" y="-904.5" font-family="Helvetica,sans-Serif" font-size="10.00">+ void setTypes(const</text>
<text text-anchor="start" x="504.5" y="-893.5" font-family="Helvetica,sans-Serif" font-size="10.00"> std::queue&lt; Tank::TankType</text>
<text text-anchor="start" x="504.5" y="-882.5" font-family="Helvetica,sans-Serif" font-size="10.00"> &gt; &amp;types)</text>
<text text-anchor="start" x="504.5" y="-871.5" font-family="Helvetica,sans-Serif" font-size="10.00">+ void setCounting(bool</text>
<text text-anchor="start" x="504.5" y="-860.5" font-family="Helvetica,sans-Serif" font-size="10.00"> counting)</text>
<text text-anchor="start" x="504.5" y="-849.5" font-family="Helvetica,sans-Serif" font-size="10.00">+ static BotController</text>
<text text-anchor="start" x="504.5" y="-838.5" font-family="Helvetica,sans-Serif" font-size="10.00"> * instance()</text>
<text text-anchor="start" x="504.5" y="-827.5" font-family="Helvetica,sans-Serif" font-size="10.00">+ static void initialize</text>
<text text-anchor="start" x="504.5" y="-816.5" font-family="Helvetica,sans-Serif" font-size="10.00">(unsigned int maxRegisteredBots,</text>
<text text-anchor="start" x="504.5" y="-805.5" font-family="Helvetica,sans-Serif" font-size="10.00"> unsigned int spawnCooldown)</text>
<text text-anchor="start" x="504.5" y="-794.5" font-family="Helvetica,sans-Serif" font-size="10.00"># BotController(unsigned</text>
<text text-anchor="start" x="504.5" y="-783.5" font-family="Helvetica,sans-Serif" font-size="10.00"> int n_maxRegisteredBots,</text>
<text text-anchor="start" x="504.5" y="-772.5" font-family="Helvetica,sans-Serif" font-size="10.00"> unsigned int n_spawnCooldown)</text>
<text text-anchor="start" x="504.5" y="-761.5" font-family="Helvetica,sans-Serif" font-size="10.00"># void requestSpawnBot()</text>
</a>
</g>
</g>
<!-- Node4&#45;&gt;Node9 -->
<g id="edge17" class="edge">
<title>Node4&#45;&gt;Node9</title>
<path fill="none" stroke="#404040" d="M846.43,-1278.23C843.07,-1274.1 839.75,-1270.01 836.5,-1266 787.13,-1205.17 732.17,-1137.61 686.47,-1081.48"/>
<polygon fill="none" stroke="#404040" points="686.21,-1081.16 679.32,-1079.03 678.63,-1071.85 685.52,-1073.98 686.21,-1081.16"/>
<text text-anchor="middle" x="854.5" y="-1212.5" font-family="Helvetica,sans-Serif" font-size="10.00"> #eventQueue_</text>
</g>
<!-- Node5 -->
<g id="node5" class="node">
<title>Node5</title>
<g id="a_node5"><a xlink:href="classstd_1_1queue_3_01std_1_1unique__ptr_3_01_event_01_4_01_4.html" target="_top" xlink:title=" ">
<polygon fill="none" stroke="black" points="773.5,-1597 773.5,-1665 885.5,-1665 885.5,-1597 773.5,-1597"/>
<text text-anchor="start" x="781.5" y="-1653" font-family="Helvetica,sans-Serif" font-size="10.00">queue&lt; std::unique</text>
<text text-anchor="middle" x="829.5" y="-1642" font-family="Helvetica,sans-Serif" font-size="10.00">_ptr&lt; Event &gt; &gt;</text>
<polyline fill="none" stroke="black" points="773.5,-1635 885.5,-1635 "/>
<text text-anchor="middle" x="829.5" y="-1623" font-family="Helvetica,sans-Serif" font-size="10.00"> </text>
<polyline fill="none" stroke="black" points="773.5,-1616 885.5,-1616 "/>
<text text-anchor="middle" x="829.5" y="-1604" font-family="Helvetica,sans-Serif" font-size="10.00"> </text>
</a>
</g>
</g>
<!-- Node5&#45;&gt;Node4 -->
<g id="edge4" class="edge">
<title>Node5&#45;&gt;Node4</title>
<path fill="none" stroke="#404040" d="M833.85,-1596.82C838.06,-1569.27 845.59,-1529.35 857.5,-1496 858.3,-1493.75 859.14,-1491.48 860.01,-1489.21"/>
<polygon fill="none" stroke="#404040" points="860.11,-1488.97 858.64,-1481.91 864.59,-1477.83 866.06,-1484.89 860.11,-1488.97"/>
<text text-anchor="middle" x="882.5" y="-1499" font-family="Helvetica,sans-Serif" font-size="10.00"> #events_</text>
</g>
<!-- Node6 -->
<g id="node6" class="node">
<title>Node6</title>
<g id="a_node6"><a xlink:title=" ">
<polygon fill="none" stroke="black" points="846.5,-1790 846.5,-1847 996.5,-1847 996.5,-1790 846.5,-1790"/>
<text text-anchor="middle" x="921.5" y="-1835" font-family="Helvetica,sans-Serif" font-size="10.00">unique_ptr&lt; EventQueue &gt;</text>
<polyline fill="none" stroke="black" points="846.5,-1828 996.5,-1828 "/>
<text text-anchor="middle" x="921.5" y="-1816" font-family="Helvetica,sans-Serif" font-size="10.00"> </text>
<polyline fill="none" stroke="black" points="846.5,-1809 996.5,-1809 "/>
<text text-anchor="middle" x="921.5" y="-1797" font-family="Helvetica,sans-Serif" font-size="10.00"> </text>
</a>
</g>
</g>
<!-- Node6&#45;&gt;Node4 -->
<g id="edge5" class="edge">
<title>Node6&#45;&gt;Node4</title>
<path fill="none" stroke="#404040" d="M921.5,-1789.69C921.5,-1730.98 921.5,-1591.4 921.5,-1489.93"/>
<polygon fill="none" stroke="#404040" points="921.5,-1489.75 917.5,-1483.75 921.5,-1477.75 925.5,-1483.75 921.5,-1489.75"/>
<text text-anchor="middle" x="939" y="-1628.5" font-family="Helvetica,sans-Serif" font-size="10.00"> #self_</text>
</g>
<!-- Node7 -->
<g id="node7" class="node">
<title>Node7</title>
<g id="a_node7"><a xlink:href="class_event_queue.html" target="_top" xlink:title="Singleton class wrapper for std::queue&lt;E&gt;.">
<polygon fill="none" stroke="black" points="974.5,-1525.5 974.5,-1736.5 1124.5,-1736.5 1124.5,-1525.5 974.5,-1525.5"/>
<text text-anchor="middle" x="1049.5" y="-1724.5" font-family="Helvetica,sans-Serif" font-size="10.00">EventQueue&lt; E &gt;</text>
<polyline fill="none" stroke="black" points="974.5,-1717.5 1124.5,-1717.5 "/>
<text text-anchor="middle" x="1049.5" y="-1705.5" font-family="Helvetica,sans-Serif" font-size="10.00"> </text>
<polyline fill="none" stroke="black" points="974.5,-1698.5 1124.5,-1698.5 "/>
<text text-anchor="start" x="982.5" y="-1686.5" font-family="Helvetica,sans-Serif" font-size="10.00">+ EventQueue(EventQueue</text>
<text text-anchor="start" x="982.5" y="-1675.5" font-family="Helvetica,sans-Serif" font-size="10.00"> &amp;)=delete</text>
<text text-anchor="start" x="982.5" y="-1664.5" font-family="Helvetica,sans-Serif" font-size="10.00">+ bool operator=(const</text>
<text text-anchor="start" x="982.5" y="-1653.5" font-family="Helvetica,sans-Serif" font-size="10.00"> EventQueue &amp;)=delete</text>
<text text-anchor="start" x="982.5" y="-1642.5" font-family="Helvetica,sans-Serif" font-size="10.00">+ void registerEvent</text>
<text text-anchor="start" x="982.5" y="-1631.5" font-family="Helvetica,sans-Serif" font-size="10.00">(std::unique_ptr&lt; E</text>
<text text-anchor="start" x="982.5" y="-1620.5" font-family="Helvetica,sans-Serif" font-size="10.00"> &gt; event)</text>
<text text-anchor="start" x="982.5" y="-1609.5" font-family="Helvetica,sans-Serif" font-size="10.00">+ std::unique_ptr&lt; E</text>
<text text-anchor="start" x="982.5" y="-1598.5" font-family="Helvetica,sans-Serif" font-size="10.00"> &gt; pop()</text>
<text text-anchor="start" x="982.5" y="-1587.5" font-family="Helvetica,sans-Serif" font-size="10.00">+ bool isEmpty()</text>
<text text-anchor="start" x="982.5" y="-1576.5" font-family="Helvetica,sans-Serif" font-size="10.00">+ unsigned int size()</text>
<text text-anchor="start" x="982.5" y="-1565.5" font-family="Helvetica,sans-Serif" font-size="10.00">+ void clear()</text>
<text text-anchor="start" x="982.5" y="-1554.5" font-family="Helvetica,sans-Serif" font-size="10.00">+ static EventQueue *</text>
<text text-anchor="start" x="982.5" y="-1543.5" font-family="Helvetica,sans-Serif" font-size="10.00"> instance()</text>
<text text-anchor="start" x="982.5" y="-1532.5" font-family="Helvetica,sans-Serif" font-size="10.00">&#45; EventQueue()=default</text>
</a>
</g>
</g>
<!-- Node6&#45;&gt;Node7 -->
<g id="edge8" class="edge">
<title>Node6&#45;&gt;Node7</title>
<path fill="none" stroke="#404040" d="M940.66,-1789.73C948.98,-1777.68 959.33,-1762.68 970.31,-1746.77"/>
<polygon fill="none" stroke="#404040" points="970.4,-1746.64 970.51,-1739.43 977.21,-1736.76 977.1,-1743.97 970.4,-1746.64"/>
<text text-anchor="middle" x="981" y="-1758" font-family="Helvetica,sans-Serif" font-size="10.00"> #self_</text>
</g>
<!-- Node7&#45;&gt;Node4 -->
<g id="edge6" class="edge">
<title>Node7&#45;&gt;Node4</title>
<path fill="none" stroke="orange" d="M992.83,-1516.22C986.47,-1503.46 980.02,-1490.5 973.72,-1477.86"/>
<polygon fill="orange" stroke="orange" points="989.85,-1518.08 997.44,-1525.47 996.11,-1514.96 989.85,-1518.08"/>
<text text-anchor="middle" x="1012.5" y="-1499" font-family="Helvetica,sans-Serif" font-size="10.00"> &lt; Event &gt;</text>
</g>
<!-- Node8 -->
<g id="node8" class="node">
<title>Node8</title>
<g id="a_node8"><a xlink:title=" ">
<polygon fill="none" stroke="black" points="1014.5,-1784.5 1014.5,-1852.5 1126.5,-1852.5 1126.5,-1784.5 1014.5,-1784.5"/>
<text text-anchor="start" x="1022.5" y="-1840.5" font-family="Helvetica,sans-Serif" font-size="10.00">queue&lt; std::unique</text>
<text text-anchor="middle" x="1070.5" y="-1829.5" font-family="Helvetica,sans-Serif" font-size="10.00">_ptr&lt; E &gt; &gt;</text>
<polyline fill="none" stroke="black" points="1014.5,-1822.5 1126.5,-1822.5 "/>
<text text-anchor="middle" x="1070.5" y="-1810.5" font-family="Helvetica,sans-Serif" font-size="10.00"> </text>
<polyline fill="none" stroke="black" points="1014.5,-1803.5 1126.5,-1803.5 "/>
<text text-anchor="middle" x="1070.5" y="-1791.5" font-family="Helvetica,sans-Serif" font-size="10.00"> </text>
</a>
</g>
</g>
<!-- Node8&#45;&gt;Node7 -->
<g id="edge7" class="edge">
<title>Node8&#45;&gt;Node7</title>
<path fill="none" stroke="#404040" d="M1066.75,-1784.34C1065.56,-1773.88 1064.18,-1761.68 1062.72,-1748.81"/>
<polygon fill="none" stroke="#404040" points="1062.72,-1748.77 1058.07,-1743.25 1061.37,-1736.84 1066.02,-1742.36 1062.72,-1748.77"/>
<text text-anchor="middle" x="1089.5" y="-1758" font-family="Helvetica,sans-Serif" font-size="10.00"> #events_</text>
</g>
<!-- Node9&#45;&gt;Node1 -->
<g id="edge9" class="edge">
<title>Node9&#45;&gt;Node1</title>
<path fill="none" stroke="#404040" d="M548.31,-754.1C546.08,-742.49 543.8,-730.67 541.5,-718.71"/>
<polygon fill="none" stroke="#404040" points="541.46,-718.48 536.4,-713.35 539.2,-706.7 544.26,-711.84 541.46,-718.48"/>
<text text-anchor="middle" x="581.5" y="-728" font-family="Helvetica,sans-Serif" font-size="10.00"> #botController</text>
</g>
<!-- Node10 -->
<g id="node10" class="node">
<title>Node10</title>
<g id="a_node10"><a xlink:href="class_simple_subscriber.html" target="_top" xlink:title=" ">
<polygon fill="none" stroke="black" points="0,-1288.5 0,-1455.5 193,-1455.5 193,-1288.5 0,-1288.5"/>
<text text-anchor="middle" x="96.5" y="-1443.5" font-family="Helvetica,sans-Serif" font-size="10.00">SimpleSubscriber</text>
<polyline fill="none" stroke="black" points="0,-1436.5 193,-1436.5 "/>
<text text-anchor="middle" x="96.5" y="-1424.5" font-family="Helvetica,sans-Serif" font-size="10.00"> </text>
<polyline fill="none" stroke="black" points="0,-1417.5 193,-1417.5 "/>
<text text-anchor="start" x="8" y="-1405.5" font-family="Helvetica,sans-Serif" font-size="10.00">+ ~SimpleSubscriber()</text>
<text text-anchor="start" x="8" y="-1394.5" font-family="Helvetica,sans-Serif" font-size="10.00">+ void subscribe(SimplePublisher</text>
<text text-anchor="start" x="8" y="-1383.5" font-family="Helvetica,sans-Serif" font-size="10.00"> *pub)</text>
<text text-anchor="start" x="8" y="-1372.5" font-family="Helvetica,sans-Serif" font-size="10.00">+ void unsubscribe(SimplePublisher</text>
<text text-anchor="start" x="8" y="-1361.5" font-family="Helvetica,sans-Serif" font-size="10.00"> *pub)</text>
<text text-anchor="start" x="8" y="-1350.5" font-family="Helvetica,sans-Serif" font-size="10.00">+ void removeDeletedSubject</text>
<text text-anchor="start" x="8" y="-1339.5" font-family="Helvetica,sans-Serif" font-size="10.00">(SimplePublisher *pub)</text>
<text text-anchor="start" x="8" y="-1328.5" font-family="Helvetica,sans-Serif" font-size="10.00">+ virtual void notify</text>
<text text-anchor="start" x="8" y="-1317.5" font-family="Helvetica,sans-Serif" font-size="10.00">(SimplePublisher *pub)=0</text>
<text text-anchor="start" x="8" y="-1306.5" font-family="Helvetica,sans-Serif" font-size="10.00"># SimpleSubscriber()</text>
<text text-anchor="start" x="8" y="-1295.5" font-family="Helvetica,sans-Serif" font-size="10.00">=default</text>
</a>
</g>
</g>
<!-- Node10&#45;&gt;Node9 -->
<g id="edge10" class="edge">
<title>Node10&#45;&gt;Node9</title>
<path fill="none" stroke="midnightblue" d="M172.21,-1280.85C209.56,-1243.08 257.88,-1203.11 310.5,-1182 346.99,-1167.36 454.2,-1186.41 486.5,-1164 489.91,-1161.63 493.21,-1159.12 496.4,-1156.47"/>
<polygon fill="none" stroke="midnightblue" points="169.36,-1278.76 164.88,-1288.37 174.37,-1283.64 169.36,-1278.76"/>
</g>
<!-- Node11 -->
<g id="node11" class="node">
<title>Node11</title>
<g id="a_node11"><a xlink:title=" ">
<polygon fill="none" stroke="black" points="18,-1602.5 18,-1659.5 175,-1659.5 175,-1602.5 18,-1602.5"/>
<text text-anchor="middle" x="96.5" y="-1647.5" font-family="Helvetica,sans-Serif" font-size="10.00">vector&lt; SimplePublisher * &gt;</text>
<polyline fill="none" stroke="black" points="18,-1640.5 175,-1640.5 "/>
<text text-anchor="middle" x="96.5" y="-1628.5" font-family="Helvetica,sans-Serif" font-size="10.00"> </text>
<polyline fill="none" stroke="black" points="18,-1621.5 175,-1621.5 "/>
<text text-anchor="middle" x="96.5" y="-1609.5" font-family="Helvetica,sans-Serif" font-size="10.00"> </text>
</a>
</g>
</g>
<!-- Node11&#45;&gt;Node10 -->
<g id="edge11" class="edge">
<title>Node11&#45;&gt;Node10</title>
<path fill="none" stroke="#404040" d="M96.5,-1602.5C96.5,-1570.44 96.5,-1515.75 96.5,-1467.79"/>
<polygon fill="none" stroke="#404040" points="96.5,-1467.76 92.5,-1461.76 96.5,-1455.76 100.5,-1461.76 96.5,-1467.76"/>
<text text-anchor="middle" x="152" y="-1499" font-family="Helvetica,sans-Serif" font-size="10.00"> #subscribedSubjects_</text>
</g>
<!-- Node12 -->
<g id="node12" class="node">
<title>Node12</title>
<g id="a_node12"><a xlink:title=" ">
<polygon fill="none" stroke="black" points="211.5,-1332.5 211.5,-1411.5 341.5,-1411.5 341.5,-1332.5 211.5,-1332.5"/>
<text text-anchor="start" x="219.5" y="-1399.5" font-family="Helvetica,sans-Serif" font-size="10.00">vector&lt; std::pair&lt;</text>
<text text-anchor="start" x="219.5" y="-1388.5" font-family="Helvetica,sans-Serif" font-size="10.00"> unsigned int, unsigned</text>
<text text-anchor="middle" x="276.5" y="-1377.5" font-family="Helvetica,sans-Serif" font-size="10.00"> int &gt; &gt;</text>
<polyline fill="none" stroke="black" points="211.5,-1370.5 341.5,-1370.5 "/>
<text text-anchor="middle" x="276.5" y="-1358.5" font-family="Helvetica,sans-Serif" font-size="10.00"> </text>
<polyline fill="none" stroke="black" points="211.5,-1351.5 341.5,-1351.5 "/>
<text text-anchor="middle" x="276.5" y="-1339.5" font-family="Helvetica,sans-Serif" font-size="10.00"> </text>
</a>
</g>
</g>
<!-- Node12&#45;&gt;Node9 -->
<g id="edge12" class="edge">
<title>Node12&#45;&gt;Node9</title>
<path fill="none" stroke="#404040" d="M283.7,-1332.24C294.01,-1288.38 317.44,-1218.35 366.5,-1182 409.83,-1149.9 442.92,-1195.77 486.5,-1164 486.6,-1163.92 486.71,-1163.85 486.81,-1163.77"/>
<polygon fill="none" stroke="#404040" points="486.86,-1163.73 489.06,-1156.86 496.25,-1156.25 494.05,-1163.12 486.86,-1163.73"/>
<text text-anchor="middle" x="406" y="-1212.5" font-family="Helvetica,sans-Serif" font-size="10.00"> #spawnpoints_</text>
</g>
<!-- Node13 -->
<g id="node13" class="node">
<title>Node13</title>
<g id="a_node13"><a xlink:title=" ">
<polygon fill="none" stroke="black" points="360,-1343.5 360,-1400.5 503,-1400.5 503,-1343.5 360,-1343.5"/>
<text text-anchor="middle" x="431.5" y="-1388.5" font-family="Helvetica,sans-Serif" font-size="10.00">queue&lt; Tank::TankType &gt;</text>
<polyline fill="none" stroke="black" points="360,-1381.5 503,-1381.5 "/>
<text text-anchor="middle" x="431.5" y="-1369.5" font-family="Helvetica,sans-Serif" font-size="10.00"> </text>
<polyline fill="none" stroke="black" points="360,-1362.5 503,-1362.5 "/>
<text text-anchor="middle" x="431.5" y="-1350.5" font-family="Helvetica,sans-Serif" font-size="10.00"> </text>
</a>
</g>
</g>
<!-- Node13&#45;&gt;Node9 -->
<g id="edge13" class="edge">
<title>Node13&#45;&gt;Node9</title>
<path fill="none" stroke="#404040" d="M433.17,-1343.37C436.39,-1305.32 445.59,-1235.41 471.5,-1182 476.05,-1172.63 480.82,-1172.73 486.5,-1164 487.65,-1162.24 488.79,-1160.46 489.93,-1158.66"/>
<polygon fill="none" stroke="#404040" points="490.07,-1158.44 489.85,-1151.23 496.42,-1148.26 496.64,-1155.46 490.07,-1158.44"/>
<text text-anchor="middle" x="493.5" y="-1212.5" font-family="Helvetica,sans-Serif" font-size="10.00"> #types_</text>
</g>
<!-- Node14 -->
<g id="node14" class="node">
<title>Node14</title>
<g id="a_node14"><a xlink:title=" ">
<polygon fill="none" stroke="black" points="521,-1343.5 521,-1400.5 598,-1400.5 598,-1343.5 521,-1343.5"/>
<text text-anchor="middle" x="559.5" y="-1388.5" font-family="Helvetica,sans-Serif" font-size="10.00">unsigned int</text>
<polyline fill="none" stroke="black" points="521,-1381.5 598,-1381.5 "/>
<text text-anchor="middle" x="559.5" y="-1369.5" font-family="Helvetica,sans-Serif" font-size="10.00"> </text>
<polyline fill="none" stroke="black" points="521,-1362.5 598,-1362.5 "/>
<text text-anchor="middle" x="559.5" y="-1350.5" font-family="Helvetica,sans-Serif" font-size="10.00"> </text>
</a>
</g>
</g>
<!-- Node14&#45;&gt;Node9 -->
<g id="edge14" class="edge">
<title>Node14&#45;&gt;Node9</title>
<path fill="none" stroke="#404040" d="M548.29,-1343.23C539.02,-1318.66 526.57,-1281.59 521.5,-1248 517.96,-1224.57 517.85,-1200.22 520.04,-1176.04"/>
<polygon fill="none" stroke="#404040" points="520.08,-1175.74 516.74,-1169.35 521.35,-1163.8 524.69,-1170.19 520.08,-1175.74"/>
<text text-anchor="start" x="521.5" y="-1240" font-family="Helvetica,sans-Serif" font-size="10.00"> #maxRegisteredBots</text>
<text text-anchor="middle" x="577" y="-1229" font-family="Helvetica,sans-Serif" font-size="10.00">_</text>
<text text-anchor="middle" x="577" y="-1218" font-family="Helvetica,sans-Serif" font-size="10.00">#maxSpawnCooldown</text>
<text text-anchor="start" x="521.5" y="-1207" font-family="Helvetica,sans-Serif" font-size="10.00">#registeredBots</text>
<text text-anchor="middle" x="577" y="-1196" font-family="Helvetica,sans-Serif" font-size="10.00">_</text>
<text text-anchor="middle" x="577" y="-1185" font-family="Helvetica,sans-Serif" font-size="10.00">#spawnCooldown</text>
</g>
<!-- Node15 -->
<g id="node15" class="node">
<title>Node15</title>
<g id="a_node15"><a xlink:title=" ">
<polygon fill="none" stroke="black" points="616.5,-1343.5 616.5,-1400.5 654.5,-1400.5 654.5,-1343.5 616.5,-1343.5"/>
<text text-anchor="middle" x="635.5" y="-1388.5" font-family="Helvetica,sans-Serif" font-size="10.00">bool</text>
<polyline fill="none" stroke="black" points="616.5,-1381.5 654.5,-1381.5 "/>
<text text-anchor="middle" x="635.5" y="-1369.5" font-family="Helvetica,sans-Serif" font-size="10.00"> </text>
<polyline fill="none" stroke="black" points="616.5,-1362.5 654.5,-1362.5 "/>
<text text-anchor="middle" x="635.5" y="-1350.5" font-family="Helvetica,sans-Serif" font-size="10.00"> </text>
</a>
</g>
</g>
<!-- Node15&#45;&gt;Node9 -->
<g id="edge15" class="edge">
<title>Node15&#45;&gt;Node9</title>
<path fill="none" stroke="#404040" d="M636.65,-1343.36C637.82,-1306.45 638.69,-1239.09 632.5,-1182 632.27,-1179.92 632.04,-1177.82 631.79,-1175.72"/>
<polygon fill="none" stroke="#404040" points="631.77,-1175.52 627.06,-1170.06 630.29,-1163.61 635,-1169.07 631.77,-1175.52"/>
<text text-anchor="middle" x="664.5" y="-1212.5" font-family="Helvetica,sans-Serif" font-size="10.00"> #counting</text>
</g>
<!-- Node16 -->
<g id="node16" class="node">
<title>Node16</title>
<g id="a_node16"><a xlink:title=" ">
<polygon fill="none" stroke="black" points="673,-1343.5 673,-1400.5 828,-1400.5 828,-1343.5 673,-1343.5"/>
<text text-anchor="middle" x="750.5" y="-1388.5" font-family="Helvetica,sans-Serif" font-size="10.00">unique_ptr&lt; BotController &gt;</text>
<polyline fill="none" stroke="black" points="673,-1381.5 828,-1381.5 "/>
<text text-anchor="middle" x="750.5" y="-1369.5" font-family="Helvetica,sans-Serif" font-size="10.00"> </text>
<polyline fill="none" stroke="black" points="673,-1362.5 828,-1362.5 "/>
<text text-anchor="middle" x="750.5" y="-1350.5" font-family="Helvetica,sans-Serif" font-size="10.00"> </text>
</a>
</g>
</g>
<!-- Node16&#45;&gt;Node9 -->
<g id="edge16" class="edge">
<title>Node16&#45;&gt;Node9</title>
<path fill="none" stroke="#404040" d="M744,-1343.29C734.92,-1306.02 717.07,-1237.96 695.5,-1182 691.72,-1172.19 687.67,-1162.23 683.44,-1152.23"/>
<polygon fill="none" stroke="#404040" points="683.33,-1151.95 677.29,-1148.01 678.6,-1140.92 684.64,-1144.86 683.33,-1151.95"/>
<text text-anchor="middle" x="735" y="-1212.5" font-family="Helvetica,sans-Serif" font-size="10.00"> #self_</text>
</g>
</g>
</svg>
        <g id="navigator" transform="translate(0 0)" fill="#404254">
                <rect fill="#f2f5e9" fill-opacity="0.5" stroke="#606060" stroke-width=".5" x="0" y="0" width="60" height="60"/>
                <use id="zoomplus" xlink:href="#zoomPlus" x="17" y="9" onmousedown="handleZoom(evt,'in')"/>
                <use id="zoomminus" xlink:href="#zoomMin" x="42" y="9" onmousedown="handleZoom(evt,'out')"/>
                <use id="reset" xlink:href="#resetDef" x="30" y="36" onmousedown="handleReset()"/>
                <g id="arrowUp" xlink:href="#dirArrow" transform="translate(30 24)" onmousedown="handlePan(0,-1)">
                  <use xlink:href="#rim" fill="#404040">
                        <set attributeName="fill" to="#808080" begin="arrowUp.mouseover" end="arrowUp.mouseout"/>
                  </use>
                  <path fill="none" stroke="white" stroke-width="1.5" d="M0,-3.0v7 M-2.5,-0.5L0,-3.0L2.5,-0.5"/>
                </g>
                <g id="arrowRight" xlink:href="#dirArrow" transform="rotate(90) translate(36 -43)" onmousedown="handlePan(1,0)">
                  <use xlink:href="#rim" fill="#404040">
                        <set attributeName="fill" to="#808080" begin="arrowRight.mouseover" end="arrowRight.mouseout"/>
                  </use>
                  <path fill="none" stroke="white" stroke-width="1.5" d="M0,-3.0v7 M-2.5,-0.5L0,-3.0L2.5,-0.5"/>
                </g>
                <g id="arrowDown" xlink:href="#dirArrow" transform="rotate(180) translate(-30 -48)" onmousedown="handlePan(0,1)">
                  <use xlink:href="#rim" fill="#404040">
                        <set attributeName="fill" to="#808080" begin="arrowDown.mouseover" end="arrowDown.mouseout"/>
                  </use>
                  <path fill="none" stroke="white" stroke-width="1.5" d="M0,-3.0v7 M-2.5,-0.5L0,-3.0L2.5,-0.5"/>
                </g>
                <g id="arrowLeft" xlink:href="#dirArrow" transform="rotate(270) translate(-36 17)" onmousedown="handlePan(-1,0)">
                  <use xlink:href="#rim" fill="#404040">
                        <set attributeName="fill" to="#808080" begin="arrowLeft.mouseover" end="arrowLeft.mouseout"/>
                  </use>
                  <path fill="none" stroke="white" stroke-width="1.5" d="M0,-3.0v7 M-2.5,-0.5L0,-3.0L2.5,-0.5"/>
                </g>
        </g>
        <svg viewBox="0 0 15 15" width="100%" height="30px" preserveAspectRatio="xMaxYMin meet">
         <g id="arrow_out" transform="scale(0.3 0.3)">
          <a xlink:href="class_board__coll__graph_org.svg" target="_base">
           <rect id="button" ry="5" rx="5" y="6" x="6" height="38" width="38"
                fill="#f2f5e9" fill-opacity="0.5" stroke="#606060" stroke-width="1.0"/>
           <path id="arrow"
             d="M 11.500037,31.436501 C 11.940474,20.09759 22.043105,11.32322 32.158766,21.979434 L 37.068811,17.246167 C 37.068811,17.246167 37.088388,32 37.088388,32 L 22.160133,31.978069 C 22.160133,31.978069 26.997745,27.140456 26.997745,27.140456 C 18.528582,18.264221 13.291696,25.230495 11.500037,31.436501 z"
             style="fill:#404040;"/>
          </a>
         </g>
        </svg>
</svg>
