<?xml version="1.0" encoding="UTF-8" standalone="no"?>
<!DOCTYPE svg PUBLIC "-//W3C//DTD SVG 1.1//EN"
 "http://www.w3.org/Graphics/SVG/1.1/DTD/svg11.dtd">
<!-- Generated by graphviz version 2.50.0 (0)
 -->
<!-- Title: Bot Pages: 1 -->
<svg width="1176pt" height="1366pt"
 viewBox="0.00 0.00 1175.50 1366.00" xmlns="http://www.w3.org/2000/svg" xmlns:xlink="http://www.w3.org/1999/xlink">
<g id="graph0" class="graph" transform="scale(1 1) rotate(0) translate(4 1362)">
<title>Bot</title>
<!-- Node1 -->
<g id="node1" class="node">
<title>Node1</title>
<g id="a_node1"><a xlink:title=" ">
<polygon fill="#bfbfbf" stroke="black" points="571.5,-0.5 571.5,-145.5 733.5,-145.5 733.5,-0.5 571.5,-0.5"/>
<text text-anchor="middle" x="652.5" y="-133.5" font-family="Helvetica,sans-Serif" font-size="10.00">Bot</text>
<polyline fill="none" stroke="black" points="571.5,-126.5 733.5,-126.5 "/>
<text text-anchor="middle" x="652.5" y="-114.5" font-family="Helvetica,sans-Serif" font-size="10.00"> </text>
<polyline fill="none" stroke="black" points="571.5,-107.5 733.5,-107.5 "/>
<text text-anchor="start" x="579.5" y="-95.5" font-family="Helvetica,sans-Serif" font-size="10.00">+ ~Bot() override</text>
<text text-anchor="start" x="579.5" y="-84.5" font-family="Helvetica,sans-Serif" font-size="10.00">+ void notify(SimplePublisher</text>
<text text-anchor="start" x="579.5" y="-73.5" font-family="Helvetica,sans-Serif" font-size="10.00"> *pub) override</text>
<text text-anchor="start" x="579.5" y="-62.5" font-family="Helvetica,sans-Serif" font-size="10.00">+ void requestDecision()</text>
<text text-anchor="start" x="579.5" y="-51.5" font-family="Helvetica,sans-Serif" font-size="10.00"># Bot()=default</text>
<text text-anchor="start" x="579.5" y="-40.5" font-family="Helvetica,sans-Serif" font-size="10.00"># Bot(float x, float</text>
<text text-anchor="start" x="579.5" y="-29.5" font-family="Helvetica,sans-Serif" font-size="10.00"> y, float sizeX, float</text>
<text text-anchor="start" x="579.5" y="-18.5" font-family="Helvetica,sans-Serif" font-size="10.00"> sizeY, float speed, Direction</text>
<text text-anchor="start" x="579.5" y="-7.5" font-family="Helvetica,sans-Serif" font-size="10.00"> facing)</text>
</a>
</g>
</g>
<!-- Node2 -->
<g id="node2" class="node">
<title>Node2</title>
<g id="a_node2"><a xlink:href="class_entity.html" target="_top" xlink:title=" ">
<polygon fill="none" stroke="black" points="10.5,-309 10.5,-520 170.5,-520 170.5,-309 10.5,-309"/>
<text text-anchor="middle" x="90.5" y="-508" font-family="Helvetica,sans-Serif" font-size="10.00">Entity</text>
<polyline fill="none" stroke="black" points="10.5,-501 170.5,-501 "/>
<text text-anchor="middle" x="90.5" y="-489" font-family="Helvetica,sans-Serif" font-size="10.00"> </text>
<polyline fill="none" stroke="black" points="10.5,-482 170.5,-482 "/>
<text text-anchor="start" x="18.5" y="-470" font-family="Helvetica,sans-Serif" font-size="10.00">+ virtual ~Entity()=default</text>
<text text-anchor="start" x="18.5" y="-459" font-family="Helvetica,sans-Serif" font-size="10.00">+ virtual bool move()=0</text>
<text text-anchor="start" x="18.5" y="-448" font-family="Helvetica,sans-Serif" font-size="10.00">+ virtual bool moveBack()=0</text>
<text text-anchor="start" x="18.5" y="-437" font-family="Helvetica,sans-Serif" font-size="10.00">+ float getX() const</text>
<text text-anchor="start" x="18.5" y="-426" font-family="Helvetica,sans-Serif" font-size="10.00">+ float getY() const</text>
<text text-anchor="start" x="18.5" y="-415" font-family="Helvetica,sans-Serif" font-size="10.00">+ float getSpeed() const</text>
<text text-anchor="start" x="18.5" y="-404" font-family="Helvetica,sans-Serif" font-size="10.00">+ Direction getFacing</text>
<text text-anchor="start" x="18.5" y="-393" font-family="Helvetica,sans-Serif" font-size="10.00">() const</text>
<text text-anchor="start" x="18.5" y="-382" font-family="Helvetica,sans-Serif" font-size="10.00">+ float getSizeX() const</text>
<text text-anchor="start" x="18.5" y="-371" font-family="Helvetica,sans-Serif" font-size="10.00">+ float getSizeY() const</text>
<text text-anchor="start" x="18.5" y="-360" font-family="Helvetica,sans-Serif" font-size="10.00"># Entity()=default</text>
<text text-anchor="start" x="18.5" y="-349" font-family="Helvetica,sans-Serif" font-size="10.00"># Entity(float x, float</text>
<text text-anchor="start" x="18.5" y="-338" font-family="Helvetica,sans-Serif" font-size="10.00"> y, float sizeX, float</text>
<text text-anchor="start" x="18.5" y="-327" font-family="Helvetica,sans-Serif" font-size="10.00"> sizeY, float speed, Direction</text>
<text text-anchor="start" x="18.5" y="-316" font-family="Helvetica,sans-Serif" font-size="10.00"> facing)</text>
</a>
</g>
</g>
<!-- Node2&#45;&gt;Node1 -->
<g id="edge1" class="edge">
<title>Node2&#45;&gt;Node1</title>
<path fill="none" stroke="midnightblue" d="M111.92,-299.21C126.69,-250.75 151.41,-197.78 192.5,-164 249.31,-117.3 455.22,-91.68 571.36,-80.65"/>
<polygon fill="none" stroke="midnightblue" points="108.55,-298.26 109.1,-308.84 115.27,-300.23 108.55,-298.26"/>
</g>
<!-- Node3 -->
<g id="node3" class="node">
<title>Node3</title>
<g id="a_node3"><a xlink:title=" ">
<polygon fill="none" stroke="#bfbfbf" points="81.5,-832 81.5,-889 119.5,-889 119.5,-832 81.5,-832"/>
<text text-anchor="middle" x="100.5" y="-877" font-family="Helvetica,sans-Serif" font-size="10.00">float</text>
<polyline fill="none" stroke="#bfbfbf" points="81.5,-870 119.5,-870 "/>
<text text-anchor="middle" x="100.5" y="-858" font-family="Helvetica,sans-Serif" font-size="10.00"> </text>
<polyline fill="none" stroke="#bfbfbf" points="81.5,-851 119.5,-851 "/>
<text text-anchor="middle" x="100.5" y="-839" font-family="Helvetica,sans-Serif" font-size="10.00"> </text>
</a>
</g>
</g>
<!-- Node3&#45;&gt;Node2 -->
<g id="edge2" class="edge">
<title>Node3&#45;&gt;Node2</title>
<path fill="none" stroke="#404040" d="M99.87,-831.73C98.55,-773.07 95.41,-633.66 93.13,-532.3"/>
<polygon fill="none" stroke="#404040" points="93.13,-532.13 88.99,-526.22 92.86,-520.14 96.99,-526.04 93.13,-532.13"/>
<text text-anchor="middle" x="121.5" y="-706.5" font-family="Helvetica,sans-Serif" font-size="10.00"> #size_x_</text>
<text text-anchor="middle" x="121.5" y="-695.5" font-family="Helvetica,sans-Serif" font-size="10.00">#size_y_</text>
<text text-anchor="middle" x="121.5" y="-684.5" font-family="Helvetica,sans-Serif" font-size="10.00">#speed_</text>
<text text-anchor="middle" x="121.5" y="-673.5" font-family="Helvetica,sans-Serif" font-size="10.00">#x_</text>
<text text-anchor="middle" x="121.5" y="-662.5" font-family="Helvetica,sans-Serif" font-size="10.00">#y_</text>
</g>
<!-- Node4 -->
<g id="node4" class="node">
<title>Node4</title>
<g id="a_node4"><a xlink:title=" ">
<polygon fill="none" stroke="#bfbfbf" points="0,-832 0,-889 61,-889 61,-832 0,-832"/>
<text text-anchor="middle" x="30.5" y="-877" font-family="Helvetica,sans-Serif" font-size="10.00">Direction</text>
<polyline fill="none" stroke="#bfbfbf" points="0,-870 61,-870 "/>
<text text-anchor="middle" x="30.5" y="-858" font-family="Helvetica,sans-Serif" font-size="10.00"> </text>
<polyline fill="none" stroke="#bfbfbf" points="0,-851 61,-851 "/>
<text text-anchor="middle" x="30.5" y="-839" font-family="Helvetica,sans-Serif" font-size="10.00"> </text>
</a>
</g>
</g>
<!-- Node4&#45;&gt;Node2 -->
<g id="edge3" class="edge">
<title>Node4&#45;&gt;Node2</title>
<path fill="none" stroke="#404040" d="M31.52,-831.81C33.21,-792.25 37.24,-717.32 45.5,-654 50.71,-614.05 58.3,-570.68 65.78,-532"/>
<polygon fill="none" stroke="#404040" points="65.79,-531.94 63.01,-525.29 68.09,-520.16 70.86,-526.82 65.79,-531.94"/>
<text text-anchor="middle" x="69" y="-684.5" font-family="Helvetica,sans-Serif" font-size="10.00"> #facing_</text>
</g>
<!-- Node5 -->
<g id="node5" class="node">
<title>Node5</title>
<g id="a_node5"><a xlink:href="class_simple_subscriber.html" target="_top" xlink:title=" ">
<polygon fill="none" stroke="black" points="960,-777 960,-944 1153,-944 1153,-777 960,-777"/>
<text text-anchor="middle" x="1056.5" y="-932" font-family="Helvetica,sans-Serif" font-size="10.00">SimpleSubscriber</text>
<polyline fill="none" stroke="black" points="960,-925 1153,-925 "/>
<text text-anchor="middle" x="1056.5" y="-913" font-family="Helvetica,sans-Serif" font-size="10.00"> </text>
<polyline fill="none" stroke="black" points="960,-906 1153,-906 "/>
<text text-anchor="start" x="968" y="-894" font-family="Helvetica,sans-Serif" font-size="10.00">+ ~SimpleSubscriber()</text>
<text text-anchor="start" x="968" y="-883" font-family="Helvetica,sans-Serif" font-size="10.00">+ void subscribe(SimplePublisher</text>
<text text-anchor="start" x="968" y="-872" font-family="Helvetica,sans-Serif" font-size="10.00"> *pub)</text>
<text text-anchor="start" x="968" y="-861" font-family="Helvetica,sans-Serif" font-size="10.00">+ void unsubscribe(SimplePublisher</text>
<text text-anchor="start" x="968" y="-850" font-family="Helvetica,sans-Serif" font-size="10.00"> *pub)</text>
<text text-anchor="start" x="968" y="-839" font-family="Helvetica,sans-Serif" font-size="10.00">+ void removeDeletedSubject</text>
<text text-anchor="start" x="968" y="-828" font-family="Helvetica,sans-Serif" font-size="10.00">(SimplePublisher *pub)</text>
<text text-anchor="start" x="968" y="-817" font-family="Helvetica,sans-Serif" font-size="10.00">+ virtual void notify</text>
<text text-anchor="start" x="968" y="-806" font-family="Helvetica,sans-Serif" font-size="10.00">(SimplePublisher *pub)=0</text>
<text text-anchor="start" x="968" y="-795" font-family="Helvetica,sans-Serif" font-size="10.00"># SimpleSubscriber()</text>
<text text-anchor="start" x="968" y="-784" font-family="Helvetica,sans-Serif" font-size="10.00">=default</text>
</a>
</g>
</g>
<!-- Node5&#45;&gt;Node1 -->
<g id="edge4" class="edge">
<title>Node5&#45;&gt;Node1</title>
<path fill="none" stroke="midnightblue" d="M1022.49,-767.45C1008.83,-731.75 992.54,-690.72 976.5,-654 885.33,-445.25 867.27,-389.77 752.5,-193 743.05,-176.8 731.36,-160.62 719.35,-145.66"/>
<polygon fill="none" stroke="midnightblue" points="1019.25,-768.78 1026.09,-776.88 1025.79,-766.29 1019.25,-768.78"/>
</g>
<!-- Node8 -->
<g id="node8" class="node">
<title>Node8</title>
<g id="a_node8"><a xlink:href="class_bot_controller.html" target="_top" xlink:title=" ">
<polygon fill="none" stroke="black" points="561.5,-193.5 561.5,-635.5 743.5,-635.5 743.5,-193.5 561.5,-193.5"/>
<text text-anchor="middle" x="652.5" y="-623.5" font-family="Helvetica,sans-Serif" font-size="10.00">BotController</text>
<polyline fill="none" stroke="black" points="561.5,-616.5 743.5,-616.5 "/>
<text text-anchor="middle" x="652.5" y="-604.5" font-family="Helvetica,sans-Serif" font-size="10.00"> </text>
<polyline fill="none" stroke="black" points="561.5,-597.5 743.5,-597.5 "/>
<text text-anchor="start" x="569.5" y="-585.5" font-family="Helvetica,sans-Serif" font-size="10.00">+ BotController()=delete</text>
<text text-anchor="start" x="569.5" y="-574.5" font-family="Helvetica,sans-Serif" font-size="10.00">+ BotController &amp; operator</text>
<text text-anchor="start" x="569.5" y="-563.5" font-family="Helvetica,sans-Serif" font-size="10.00">=(const BotController &amp;other)</text>
<text text-anchor="start" x="569.5" y="-552.5" font-family="Helvetica,sans-Serif" font-size="10.00">=delete</text>
<text text-anchor="start" x="569.5" y="-541.5" font-family="Helvetica,sans-Serif" font-size="10.00">+ void makeBotDecision</text>
<text text-anchor="start" x="569.5" y="-530.5" font-family="Helvetica,sans-Serif" font-size="10.00">(const std::shared_ptr</text>
<text text-anchor="start" x="569.5" y="-519.5" font-family="Helvetica,sans-Serif" font-size="10.00">&lt; Bot &gt; &amp;bot)</text>
<text text-anchor="start" x="569.5" y="-508.5" font-family="Helvetica,sans-Serif" font-size="10.00">+ void registerBot()</text>
<text text-anchor="start" x="569.5" y="-497.5" font-family="Helvetica,sans-Serif" font-size="10.00">+ void deregisterBot()</text>
<text text-anchor="start" x="569.5" y="-486.5" font-family="Helvetica,sans-Serif" font-size="10.00">+ void deregisterAllBots()</text>
<text text-anchor="start" x="569.5" y="-475.5" font-family="Helvetica,sans-Serif" font-size="10.00">+ unsigned int getRegistered</text>
<text text-anchor="start" x="569.5" y="-464.5" font-family="Helvetica,sans-Serif" font-size="10.00">BotsCount() const</text>
<text text-anchor="start" x="569.5" y="-453.5" font-family="Helvetica,sans-Serif" font-size="10.00">+ void notify(SimplePublisher</text>
<text text-anchor="start" x="569.5" y="-442.5" font-family="Helvetica,sans-Serif" font-size="10.00"> *pub) override</text>
<text text-anchor="start" x="569.5" y="-431.5" font-family="Helvetica,sans-Serif" font-size="10.00">+ void setSpawnpoints</text>
<text text-anchor="start" x="569.5" y="-420.5" font-family="Helvetica,sans-Serif" font-size="10.00">(const std::vector&lt;</text>
<text text-anchor="start" x="569.5" y="-409.5" font-family="Helvetica,sans-Serif" font-size="10.00"> std::pair&lt; unsigned</text>
<text text-anchor="start" x="569.5" y="-398.5" font-family="Helvetica,sans-Serif" font-size="10.00"> int, unsigned int &gt;&gt;</text>
<text text-anchor="start" x="569.5" y="-387.5" font-family="Helvetica,sans-Serif" font-size="10.00"> &amp;spawnpoints)</text>
<text text-anchor="start" x="569.5" y="-376.5" font-family="Helvetica,sans-Serif" font-size="10.00">+ void setTypes(const</text>
<text text-anchor="start" x="569.5" y="-365.5" font-family="Helvetica,sans-Serif" font-size="10.00"> std::queue&lt; Tank::TankType</text>
<text text-anchor="start" x="569.5" y="-354.5" font-family="Helvetica,sans-Serif" font-size="10.00"> &gt; &amp;types)</text>
<text text-anchor="start" x="569.5" y="-343.5" font-family="Helvetica,sans-Serif" font-size="10.00">+ void setCounting(bool</text>
<text text-anchor="start" x="569.5" y="-332.5" font-family="Helvetica,sans-Serif" font-size="10.00"> counting)</text>
<text text-anchor="start" x="569.5" y="-321.5" font-family="Helvetica,sans-Serif" font-size="10.00">+ void zeroCooldown()</text>
<text text-anchor="start" x="569.5" y="-310.5" font-family="Helvetica,sans-Serif" font-size="10.00">+ unsigned int getRemaining</text>
<text text-anchor="start" x="569.5" y="-299.5" font-family="Helvetica,sans-Serif" font-size="10.00">BotsCount()</text>
<text text-anchor="start" x="569.5" y="-288.5" font-family="Helvetica,sans-Serif" font-size="10.00">+ static BotController</text>
<text text-anchor="start" x="569.5" y="-277.5" font-family="Helvetica,sans-Serif" font-size="10.00"> * instance()</text>
<text text-anchor="start" x="569.5" y="-266.5" font-family="Helvetica,sans-Serif" font-size="10.00">+ static void initialize</text>
<text text-anchor="start" x="569.5" y="-255.5" font-family="Helvetica,sans-Serif" font-size="10.00">(unsigned int maxRegisteredBots,</text>
<text text-anchor="start" x="569.5" y="-244.5" font-family="Helvetica,sans-Serif" font-size="10.00"> unsigned int spawnCooldown)</text>
<text text-anchor="start" x="569.5" y="-233.5" font-family="Helvetica,sans-Serif" font-size="10.00"># BotController(unsigned</text>
<text text-anchor="start" x="569.5" y="-222.5" font-family="Helvetica,sans-Serif" font-size="10.00"> int n_maxRegisteredBots,</text>
<text text-anchor="start" x="569.5" y="-211.5" font-family="Helvetica,sans-Serif" font-size="10.00"> unsigned int n_spawnCooldown)</text>
<text text-anchor="start" x="569.5" y="-200.5" font-family="Helvetica,sans-Serif" font-size="10.00"># void requestSpawnBot()</text>
</a>
</g>
</g>
<!-- Node5&#45;&gt;Node8 -->
<g id="edge8" class="edge">
<title>Node5&#45;&gt;Node8</title>
<path fill="none" stroke="midnightblue" d="M1008.62,-767.83C982.18,-717.92 953,-664.25 944.5,-654 886.52,-584.1 805.61,-519.91 743.66,-475.77"/>
<polygon fill="none" stroke="midnightblue" points="1005.58,-769.57 1013.35,-776.77 1011.77,-766.3 1005.58,-769.57"/>
</g>
<!-- Node6 -->
<g id="node6" class="node">
<title>Node6</title>
<g id="a_node6"><a xlink:title=" ">
<polygon fill="none" stroke="#bfbfbf" points="978,-1107.5 978,-1164.5 1135,-1164.5 1135,-1107.5 978,-1107.5"/>
<text text-anchor="middle" x="1056.5" y="-1152.5" font-family="Helvetica,sans-Serif" font-size="10.00">vector&lt; SimplePublisher * &gt;</text>
<polyline fill="none" stroke="#bfbfbf" points="978,-1145.5 1135,-1145.5 "/>
<text text-anchor="middle" x="1056.5" y="-1133.5" font-family="Helvetica,sans-Serif" font-size="10.00"> </text>
<polyline fill="none" stroke="#bfbfbf" points="978,-1126.5 1135,-1126.5 "/>
<text text-anchor="middle" x="1056.5" y="-1114.5" font-family="Helvetica,sans-Serif" font-size="10.00"> </text>
</a>
</g>
</g>
<!-- Node6&#45;&gt;Node5 -->
<g id="edge5" class="edge">
<title>Node6&#45;&gt;Node5</title>
<path fill="none" stroke="#404040" d="M1056.5,-1107.27C1056.5,-1072.06 1056.5,-1009.47 1056.5,-956.27"/>
<polygon fill="none" stroke="#404040" points="1056.5,-956.03 1052.5,-950.03 1056.5,-944.03 1060.5,-950.03 1056.5,-956.03"/>
<text text-anchor="middle" x="1112" y="-1004" font-family="Helvetica,sans-Serif" font-size="10.00"> #subscribedSubjects_</text>
</g>
<!-- Node7 -->
<g id="node7" class="node">
<title>Node7</title>
<g id="a_node7"><a xlink:title=" ">
<polygon fill="none" stroke="#bfbfbf" points="1024,-380.5 1024,-448.5 1133,-448.5 1133,-380.5 1024,-380.5"/>
<text text-anchor="start" x="1032" y="-436.5" font-family="Helvetica,sans-Serif" font-size="10.00">std::enable_shared</text>
<text text-anchor="middle" x="1078.5" y="-425.5" font-family="Helvetica,sans-Serif" font-size="10.00">_from_this&lt; Bot &gt;</text>
<polyline fill="none" stroke="#bfbfbf" points="1024,-418.5 1133,-418.5 "/>
<text text-anchor="middle" x="1078.5" y="-406.5" font-family="Helvetica,sans-Serif" font-size="10.00"> </text>
<polyline fill="none" stroke="#bfbfbf" points="1024,-399.5 1133,-399.5 "/>
<text text-anchor="middle" x="1078.5" y="-387.5" font-family="Helvetica,sans-Serif" font-size="10.00"> </text>
</a>
</g>
</g>
<!-- Node7&#45;&gt;Node1 -->
<g id="edge6" class="edge">
<title>Node7&#45;&gt;Node1</title>
<path fill="none" stroke="midnightblue" d="M1079.02,-370.18C1077.24,-314.57 1065.51,-218.74 1009.5,-164 970.7,-126.08 826.39,-98.88 733.55,-84.85"/>
<polygon fill="none" stroke="midnightblue" points="1075.52,-370.49 1079.25,-380.41 1082.52,-370.34 1075.52,-370.49"/>
</g>
<!-- Node8&#45;&gt;Node1 -->
<g id="edge7" class="edge">
<title>Node8&#45;&gt;Node1</title>
<path fill="none" stroke="#404040" d="M652.5,-193.22C652.5,-181.03 652.5,-169.23 652.5,-158.09"/>
<polygon fill="none" stroke="#404040" points="652.5,-157.81 648.5,-151.81 652.5,-145.81 656.5,-151.81 652.5,-157.81"/>
<text text-anchor="middle" x="690.5" y="-167" font-family="Helvetica,sans-Serif" font-size="10.00"> #botController</text>
</g>
<!-- Node9 -->
<g id="node9" class="node">
<title>Node9</title>
<g id="a_node9"><a xlink:title=" ">
<polygon fill="none" stroke="#bfbfbf" points="253,-832 253,-889 408,-889 408,-832 253,-832"/>
<text text-anchor="middle" x="330.5" y="-877" font-family="Helvetica,sans-Serif" font-size="10.00">unique_ptr&lt; BotController &gt;</text>
<polyline fill="none" stroke="#bfbfbf" points="253,-870 408,-870 "/>
<text text-anchor="middle" x="330.5" y="-858" font-family="Helvetica,sans-Serif" font-size="10.00"> </text>
<polyline fill="none" stroke="#bfbfbf" points="253,-851 408,-851 "/>
<text text-anchor="middle" x="330.5" y="-839" font-family="Helvetica,sans-Serif" font-size="10.00"> </text>
</a>
</g>
</g>
<!-- Node9&#45;&gt;Node8 -->
<g id="edge9" class="edge">
<title>Node9&#45;&gt;Node8</title>
<path fill="none" stroke="#404040" d="M349.85,-831.91C367.19,-807.22 393.4,-770.09 416.5,-738 461.33,-675.72 511.47,-607.06 553.97,-549.15"/>
<polygon fill="none" stroke="#404040" points="554.16,-548.89 554.49,-541.68 561.27,-539.21 560.94,-546.42 554.16,-548.89"/>
<text text-anchor="middle" x="492" y="-684.5" font-family="Helvetica,sans-Serif" font-size="10.00"> #self_</text>
</g>
<!-- Node10 -->
<g id="node10" class="node">
<title>Node10</title>
<g id="a_node10"><a xlink:title=" ">
<polygon fill="none" stroke="#bfbfbf" points="587.5,-821 587.5,-900 717.5,-900 717.5,-821 587.5,-821"/>
<text text-anchor="start" x="595.5" y="-888" font-family="Helvetica,sans-Serif" font-size="10.00">vector&lt; std::pair&lt;</text>
<text text-anchor="start" x="595.5" y="-877" font-family="Helvetica,sans-Serif" font-size="10.00"> unsigned int, unsigned</text>
<text text-anchor="middle" x="652.5" y="-866" font-family="Helvetica,sans-Serif" font-size="10.00"> int &gt; &gt;</text>
<polyline fill="none" stroke="#bfbfbf" points="587.5,-859 717.5,-859 "/>
<text text-anchor="middle" x="652.5" y="-847" font-family="Helvetica,sans-Serif" font-size="10.00"> </text>
<polyline fill="none" stroke="#bfbfbf" points="587.5,-840 717.5,-840 "/>
<text text-anchor="middle" x="652.5" y="-828" font-family="Helvetica,sans-Serif" font-size="10.00"> </text>
</a>
</g>
</g>
<!-- Node10&#45;&gt;Node8 -->
<g id="edge10" class="edge">
<title>Node10&#45;&gt;Node8</title>
<path fill="none" stroke="#404040" d="M652.5,-820.87C652.5,-780.87 652.5,-714.9 652.5,-647.68"/>
<polygon fill="none" stroke="#404040" points="652.5,-647.56 648.5,-641.56 652.5,-635.56 656.5,-641.56 652.5,-647.56"/>
<text text-anchor="middle" x="692" y="-684.5" font-family="Helvetica,sans-Serif" font-size="10.00"> #spawnpoints_</text>
</g>
<!-- Node11 -->
<g id="node11" class="node">
<title>Node11</title>
<g id="a_node11"><a xlink:href="class_event_queue.html" target="_top" xlink:title=" ">
<polygon fill="none" stroke="black" points="735.5,-738.5 735.5,-982.5 885.5,-982.5 885.5,-738.5 735.5,-738.5"/>
<text text-anchor="middle" x="810.5" y="-970.5" font-family="Helvetica,sans-Serif" font-size="10.00">EventQueue&lt; Event &gt;</text>
<polyline fill="none" stroke="black" points="735.5,-963.5 885.5,-963.5 "/>
<text text-anchor="start" x="743.5" y="-951.5" font-family="Helvetica,sans-Serif" font-size="10.00"># std::queue&lt; std::unique</text>
<text text-anchor="start" x="743.5" y="-940.5" font-family="Helvetica,sans-Serif" font-size="10.00">_ptr&lt; Event &gt; &gt; events_</text>
<text text-anchor="start" x="743.5" y="-929.5" font-family="Helvetica,sans-Serif" font-size="10.00"># static std::unique</text>
<text text-anchor="start" x="743.5" y="-918.5" font-family="Helvetica,sans-Serif" font-size="10.00">_ptr&lt; EventQueue &gt; self_</text>
<polyline fill="none" stroke="black" points="735.5,-911.5 885.5,-911.5 "/>
<text text-anchor="start" x="743.5" y="-899.5" font-family="Helvetica,sans-Serif" font-size="10.00">+ EventQueue(EventQueue</text>
<text text-anchor="start" x="743.5" y="-888.5" font-family="Helvetica,sans-Serif" font-size="10.00"> &amp;)=delete</text>
<text text-anchor="start" x="743.5" y="-877.5" font-family="Helvetica,sans-Serif" font-size="10.00">+ bool operator=(const</text>
<text text-anchor="start" x="743.5" y="-866.5" font-family="Helvetica,sans-Serif" font-size="10.00"> EventQueue &amp;)=delete</text>
<text text-anchor="start" x="743.5" y="-855.5" font-family="Helvetica,sans-Serif" font-size="10.00">+ void registerEvent</text>
<text text-anchor="start" x="743.5" y="-844.5" font-family="Helvetica,sans-Serif" font-size="10.00">(std::unique_ptr&lt; Event</text>
<text text-anchor="start" x="743.5" y="-833.5" font-family="Helvetica,sans-Serif" font-size="10.00"> &gt; event)</text>
<text text-anchor="start" x="743.5" y="-822.5" font-family="Helvetica,sans-Serif" font-size="10.00">+ std::unique_ptr&lt; Event</text>
<text text-anchor="start" x="743.5" y="-811.5" font-family="Helvetica,sans-Serif" font-size="10.00"> &gt; pop()</text>
<text text-anchor="start" x="743.5" y="-800.5" font-family="Helvetica,sans-Serif" font-size="10.00">+ bool isEmpty()</text>
<text text-anchor="start" x="743.5" y="-789.5" font-family="Helvetica,sans-Serif" font-size="10.00">+ unsigned int size()</text>
<text text-anchor="start" x="743.5" y="-778.5" font-family="Helvetica,sans-Serif" font-size="10.00">+ void clear()</text>
<text text-anchor="start" x="743.5" y="-767.5" font-family="Helvetica,sans-Serif" font-size="10.00">+ static EventQueue *</text>
<text text-anchor="start" x="743.5" y="-756.5" font-family="Helvetica,sans-Serif" font-size="10.00"> instance()</text>
<text text-anchor="start" x="743.5" y="-745.5" font-family="Helvetica,sans-Serif" font-size="10.00">&#45; EventQueue()=default</text>
</a>
</g>
</g>
<!-- Node11&#45;&gt;Node8 -->
<g id="edge11" class="edge">
<title>Node11&#45;&gt;Node8</title>
<path fill="none" stroke="#404040" d="M767.43,-738.47C757.3,-710 746.16,-678.71 734.94,-647.16"/>
<polygon fill="none" stroke="#404040" points="734.82,-646.84 729.04,-642.52 730.8,-635.53 736.58,-639.84 734.82,-646.84"/>
<text text-anchor="middle" x="797.5" y="-684.5" font-family="Helvetica,sans-Serif" font-size="10.00"> #eventQueue_</text>
</g>
<!-- Node12 -->
<g id="node12" class="node">
<title>Node12</title>
<g id="a_node12"><a xlink:href="class_event_queue.html" target="_top" xlink:title="Singleton class wrapper for std::queue&lt;E&gt;.">
<polygon fill="none" stroke="black" points="735.5,-1030.5 735.5,-1241.5 885.5,-1241.5 885.5,-1030.5 735.5,-1030.5"/>
<text text-anchor="middle" x="810.5" y="-1229.5" font-family="Helvetica,sans-Serif" font-size="10.00">EventQueue&lt; E &gt;</text>
<polyline fill="none" stroke="black" points="735.5,-1222.5 885.5,-1222.5 "/>
<text text-anchor="middle" x="810.5" y="-1210.5" font-family="Helvetica,sans-Serif" font-size="10.00"> </text>
<polyline fill="none" stroke="black" points="735.5,-1203.5 885.5,-1203.5 "/>
<text text-anchor="start" x="743.5" y="-1191.5" font-family="Helvetica,sans-Serif" font-size="10.00">+ EventQueue(EventQueue</text>
<text text-anchor="start" x="743.5" y="-1180.5" font-family="Helvetica,sans-Serif" font-size="10.00"> &amp;)=delete</text>
<text text-anchor="start" x="743.5" y="-1169.5" font-family="Helvetica,sans-Serif" font-size="10.00">+ bool operator=(const</text>
<text text-anchor="start" x="743.5" y="-1158.5" font-family="Helvetica,sans-Serif" font-size="10.00"> EventQueue &amp;)=delete</text>
<text text-anchor="start" x="743.5" y="-1147.5" font-family="Helvetica,sans-Serif" font-size="10.00">+ void registerEvent</text>
<text text-anchor="start" x="743.5" y="-1136.5" font-family="Helvetica,sans-Serif" font-size="10.00">(std::unique_ptr&lt; E</text>
<text text-anchor="start" x="743.5" y="-1125.5" font-family="Helvetica,sans-Serif" font-size="10.00"> &gt; event)</text>
<text text-anchor="start" x="743.5" y="-1114.5" font-family="Helvetica,sans-Serif" font-size="10.00">+ std::unique_ptr&lt; E</text>
<text text-anchor="start" x="743.5" y="-1103.5" font-family="Helvetica,sans-Serif" font-size="10.00"> &gt; pop()</text>
<text text-anchor="start" x="743.5" y="-1092.5" font-family="Helvetica,sans-Serif" font-size="10.00">+ bool isEmpty()</text>
<text text-anchor="start" x="743.5" y="-1081.5" font-family="Helvetica,sans-Serif" font-size="10.00">+ unsigned int size()</text>
<text text-anchor="start" x="743.5" y="-1070.5" font-family="Helvetica,sans-Serif" font-size="10.00">+ void clear()</text>
<text text-anchor="start" x="743.5" y="-1059.5" font-family="Helvetica,sans-Serif" font-size="10.00">+ static EventQueue *</text>
<text text-anchor="start" x="743.5" y="-1048.5" font-family="Helvetica,sans-Serif" font-size="10.00"> instance()</text>
<text text-anchor="start" x="743.5" y="-1037.5" font-family="Helvetica,sans-Serif" font-size="10.00">&#45; EventQueue()=default</text>
</a>
</g>
</g>
<!-- Node12&#45;&gt;Node11 -->
<g id="edge12" class="edge">
<title>Node12&#45;&gt;Node11</title>
<path fill="none" stroke="orange" d="M810.5,-1020.16C810.5,-1007.86 810.5,-995.31 810.5,-982.94"/>
<polygon fill="orange" stroke="orange" points="807,-1020.43 810.5,-1030.43 814,-1020.43 807,-1020.43"/>
<text text-anchor="middle" x="837.5" y="-1004" font-family="Helvetica,sans-Serif" font-size="10.00"> &lt; Event &gt;</text>
</g>
<!-- Node13 -->
<g id="node13" class="node">
<title>Node13</title>
<g id="a_node13"><a xlink:title=" ">
<polygon fill="none" stroke="#bfbfbf" points="680.5,-1289.5 680.5,-1357.5 792.5,-1357.5 792.5,-1289.5 680.5,-1289.5"/>
<text text-anchor="start" x="688.5" y="-1345.5" font-family="Helvetica,sans-Serif" font-size="10.00">queue&lt; std::unique</text>
<text text-anchor="middle" x="736.5" y="-1334.5" font-family="Helvetica,sans-Serif" font-size="10.00">_ptr&lt; E &gt; &gt;</text>
<polyline fill="none" stroke="#bfbfbf" points="680.5,-1327.5 792.5,-1327.5 "/>
<text text-anchor="middle" x="736.5" y="-1315.5" font-family="Helvetica,sans-Serif" font-size="10.00"> </text>
<polyline fill="none" stroke="#bfbfbf" points="680.5,-1308.5 792.5,-1308.5 "/>
<text text-anchor="middle" x="736.5" y="-1296.5" font-family="Helvetica,sans-Serif" font-size="10.00"> </text>
</a>
</g>
</g>
<!-- Node13&#45;&gt;Node12 -->
<g id="edge13" class="edge">
<title>Node13&#45;&gt;Node12</title>
<path fill="none" stroke="#404040" d="M749.73,-1289.34C753.98,-1278.67 758.97,-1266.18 764.21,-1253.03"/>
<polygon fill="none" stroke="#404040" points="764.23,-1252.99 762.74,-1245.93 768.68,-1241.84 770.17,-1248.9 764.23,-1252.99"/>
<text text-anchor="middle" x="785.5" y="-1263" font-family="Helvetica,sans-Serif" font-size="10.00"> #events_</text>
</g>
<!-- Node14 -->
<g id="node14" class="node">
<title>Node14</title>
<g id="a_node14"><a xlink:title=" ">
<polygon fill="none" stroke="#bfbfbf" points="810.5,-1295 810.5,-1352 960.5,-1352 960.5,-1295 810.5,-1295"/>
<text text-anchor="middle" x="885.5" y="-1340" font-family="Helvetica,sans-Serif" font-size="10.00">unique_ptr&lt; EventQueue &gt;</text>
<polyline fill="none" stroke="#bfbfbf" points="810.5,-1333 960.5,-1333 "/>
<text text-anchor="middle" x="885.5" y="-1321" font-family="Helvetica,sans-Serif" font-size="10.00"> </text>
<polyline fill="none" stroke="#bfbfbf" points="810.5,-1314 960.5,-1314 "/>
<text text-anchor="middle" x="885.5" y="-1302" font-family="Helvetica,sans-Serif" font-size="10.00"> </text>
</a>
</g>
</g>
<!-- Node14&#45;&gt;Node12 -->
<g id="edge14" class="edge">
<title>Node14&#45;&gt;Node12</title>
<path fill="none" stroke="#404040" d="M874.27,-1294.73C869.54,-1283.02 863.68,-1268.53 857.45,-1253.12"/>
<polygon fill="none" stroke="#404040" points="857.35,-1252.89 851.4,-1248.82 852.86,-1241.76 858.81,-1245.82 857.35,-1252.89"/>
<text text-anchor="middle" x="881" y="-1263" font-family="Helvetica,sans-Serif" font-size="10.00"> #self_</text>
</g>
<!-- Node15 -->
<g id="node15" class="node">
<title>Node15</title>
<g id="a_node15"><a xlink:title=" ">
<polygon fill="none" stroke="#bfbfbf" points="903.5,-832 903.5,-889 941.5,-889 941.5,-832 903.5,-832"/>
<text text-anchor="middle" x="922.5" y="-877" font-family="Helvetica,sans-Serif" font-size="10.00">bool</text>
<polyline fill="none" stroke="#bfbfbf" points="903.5,-870 941.5,-870 "/>
<text text-anchor="middle" x="922.5" y="-858" font-family="Helvetica,sans-Serif" font-size="10.00"> </text>
<polyline fill="none" stroke="#bfbfbf" points="903.5,-851 941.5,-851 "/>
<text text-anchor="middle" x="922.5" y="-839" font-family="Helvetica,sans-Serif" font-size="10.00"> </text>
</a>
</g>
</g>
<!-- Node15&#45;&gt;Node8 -->
<g id="edge15" class="edge">
<title>Node15&#45;&gt;Node8</title>
<path fill="none" stroke="#404040" d="M918.93,-831.61C915.05,-806.4 907.58,-768.66 894.5,-738 860.35,-657.93 802.28,-579.56 751.59,-520.12"/>
<polygon fill="none" stroke="#404040" points="751.35,-519.85 744.4,-517.91 743.52,-510.75 750.46,-512.69 751.35,-519.85"/>
<text text-anchor="middle" x="913.5" y="-684.5" font-family="Helvetica,sans-Serif" font-size="10.00"> #counting</text>
</g>
<!-- Node16 -->
<g id="node16" class="node">
<title>Node16</title>
<g id="a_node16"><a xlink:title=" ">
<polygon fill="none" stroke="#bfbfbf" points="158,-832 158,-889 235,-889 235,-832 158,-832"/>
<text text-anchor="middle" x="196.5" y="-877" font-family="Helvetica,sans-Serif" font-size="10.00">unsigned int</text>
<polyline fill="none" stroke="#bfbfbf" points="158,-870 235,-870 "/>
<text text-anchor="middle" x="196.5" y="-858" font-family="Helvetica,sans-Serif" font-size="10.00"> </text>
<polyline fill="none" stroke="#bfbfbf" points="158,-851 235,-851 "/>
<text text-anchor="middle" x="196.5" y="-839" font-family="Helvetica,sans-Serif" font-size="10.00"> </text>
</a>
</g>
</g>
<!-- Node16&#45;&gt;Node1 -->
<g id="edge18" class="edge">
<title>Node16&#45;&gt;Node1</title>
<path fill="none" stroke="#404040" d="M198.91,-831.69C208.88,-732.64 255.03,-392.36 431.5,-193 465.91,-154.13 516.15,-125.66 560.04,-106.34"/>
<polygon fill="none" stroke="#404040" points="560.31,-106.22 564.25,-100.19 571.34,-101.5 567.4,-107.54 560.31,-106.22"/>
<text text-anchor="middle" x="492" y="-417.5" font-family="Helvetica,sans-Serif" font-size="10.00"> #decisionCooldown</text>
<text text-anchor="middle" x="492" y="-406.5" font-family="Helvetica,sans-Serif" font-size="10.00">#maxDecisionCooldown</text>
</g>
<!-- Node16&#45;&gt;Node8 -->
<g id="edge16" class="edge">
<title>Node16&#45;&gt;Node8</title>
<path fill="none" stroke="#404040" d="M204.04,-831.59C211.68,-806.04 225.01,-767.78 243.5,-738 270.21,-694.97 282.62,-687.62 320.5,-654 393.2,-589.47 483.15,-525.72 551.07,-480.39"/>
<polygon fill="none" stroke="#404040" points="551.36,-480.2 554.14,-473.54 561.35,-473.55 558.57,-480.21 551.36,-480.2"/>
<text text-anchor="start" x="320.5" y="-712" font-family="Helvetica,sans-Serif" font-size="10.00"> #maxRegisteredBots</text>
<text text-anchor="middle" x="376" y="-701" font-family="Helvetica,sans-Serif" font-size="10.00">_</text>
<text text-anchor="middle" x="376" y="-690" font-family="Helvetica,sans-Serif" font-size="10.00">#maxSpawnCooldown</text>
<text text-anchor="start" x="320.5" y="-679" font-family="Helvetica,sans-Serif" font-size="10.00">#registeredBots</text>
<text text-anchor="middle" x="376" y="-668" font-family="Helvetica,sans-Serif" font-size="10.00">_</text>
<text text-anchor="middle" x="376" y="-657" font-family="Helvetica,sans-Serif" font-size="10.00">#spawnCooldown</text>
</g>
<!-- Node17 -->
<g id="node17" class="node">
<title>Node17</title>
<g id="a_node17"><a xlink:title=" ">
<polygon fill="none" stroke="#bfbfbf" points="426,-832 426,-889 569,-889 569,-832 426,-832"/>
<text text-anchor="middle" x="497.5" y="-877" font-family="Helvetica,sans-Serif" font-size="10.00">queue&lt; Tank::TankType &gt;</text>
<polyline fill="none" stroke="#bfbfbf" points="426,-870 569,-870 "/>
<text text-anchor="middle" x="497.5" y="-858" font-family="Helvetica,sans-Serif" font-size="10.00"> </text>
<polyline fill="none" stroke="#bfbfbf" points="426,-851 569,-851 "/>
<text text-anchor="middle" x="497.5" y="-839" font-family="Helvetica,sans-Serif" font-size="10.00"> </text>
</a>
</g>
</g>
<!-- Node17&#45;&gt;Node8 -->
<g id="edge17" class="edge">
<title>Node17&#45;&gt;Node8</title>
<path fill="none" stroke="#404040" d="M507.2,-831.73C520.54,-793.49 545.88,-720.92 571.7,-646.96"/>
<polygon fill="none" stroke="#404040" points="571.72,-646.89 569.92,-639.91 575.68,-635.56 577.48,-642.54 571.72,-646.89"/>
<text text-anchor="middle" x="588.5" y="-684.5" font-family="Helvetica,sans-Serif" font-size="10.00"> #types_</text>
</g>
</g>
</svg>
