<?xml version="1.0" encoding="UTF-8" standalone="no"?>
<!DOCTYPE svg PUBLIC "-//W3C//DTD SVG 1.1//EN"
 "http://www.w3.org/Graphics/SVG/1.1/DTD/svg11.dtd">
<!-- Generated by graphviz version 2.43.0 (0)
 -->
<!-- Title: Board Pages: 1 -->
<svg width="1135pt" height="1905pt"
 viewBox="0.00 0.00 1134.50 1905.00" xmlns="http://www.w3.org/2000/svg" xmlns:xlink="http://www.w3.org/1999/xlink">
<g id="graph0" class="graph" transform="scale(1 1) rotate(0) translate(4 1901)">
<title>Board</title>
<!-- Node1 -->
<g id="node1" class="node">
<title>Node1</title>
<g id="a_node1"><a xlink:title="Aggregates and manipulates tank, bullet, and tile objects.">
<polygon fill="#bfbfbf" stroke="black" points="387.5,-0.5 387.5,-717.5 555.5,-717.5 555.5,-0.5 387.5,-0.5"/>
<text text-anchor="middle" x="471.5" y="-705.5" font-family="Helvetica,sans-Serif" font-size="10.00">Board</text>
<polyline fill="none" stroke="black" points="387.5,-698.5 555.5,-698.5 "/>
<text text-anchor="middle" x="471.5" y="-686.5" font-family="Helvetica,sans-Serif" font-size="10.00"> </text>
<polyline fill="none" stroke="black" points="387.5,-679.5 555.5,-679.5 "/>
<text text-anchor="start" x="395.5" y="-667.5" font-family="Helvetica,sans-Serif" font-size="10.00">+ Board()</text>
<text text-anchor="start" x="395.5" y="-656.5" font-family="Helvetica,sans-Serif" font-size="10.00">+ void setTankMoving</text>
<text text-anchor="start" x="395.5" y="-645.5" font-family="Helvetica,sans-Serif" font-size="10.00">(const std::shared_ptr</text>
<text text-anchor="start" x="395.5" y="-634.5" font-family="Helvetica,sans-Serif" font-size="10.00">&lt; Tank &gt; &amp;target, bool</text>
<text text-anchor="start" x="395.5" y="-623.5" font-family="Helvetica,sans-Serif" font-size="10.00"> isMoving)</text>
<text text-anchor="start" x="395.5" y="-612.5" font-family="Helvetica,sans-Serif" font-size="10.00">+ void setTankDirection</text>
<text text-anchor="start" x="395.5" y="-601.5" font-family="Helvetica,sans-Serif" font-size="10.00">(const std::shared_ptr</text>
<text text-anchor="start" x="395.5" y="-590.5" font-family="Helvetica,sans-Serif" font-size="10.00">&lt; Tank &gt; &amp;tank, Direction</text>
<text text-anchor="start" x="395.5" y="-579.5" font-family="Helvetica,sans-Serif" font-size="10.00"> targetDirection)</text>
<text text-anchor="start" x="395.5" y="-568.5" font-family="Helvetica,sans-Serif" font-size="10.00">+ void moveAllEntities()</text>
<text text-anchor="start" x="395.5" y="-557.5" font-family="Helvetica,sans-Serif" font-size="10.00">+ bool moveEntity(const</text>
<text text-anchor="start" x="395.5" y="-546.5" font-family="Helvetica,sans-Serif" font-size="10.00"> std::shared_ptr&lt; Entity</text>
<text text-anchor="start" x="395.5" y="-535.5" font-family="Helvetica,sans-Serif" font-size="10.00"> &gt; &amp;target)</text>
<text text-anchor="start" x="395.5" y="-524.5" font-family="Helvetica,sans-Serif" font-size="10.00">+ bool fireTank(const</text>
<text text-anchor="start" x="395.5" y="-513.5" font-family="Helvetica,sans-Serif" font-size="10.00"> std::shared_ptr&lt; Tank</text>
<text text-anchor="start" x="395.5" y="-502.5" font-family="Helvetica,sans-Serif" font-size="10.00"> &gt; &amp;target)</text>
<text text-anchor="start" x="395.5" y="-491.5" font-family="Helvetica,sans-Serif" font-size="10.00">+ bool spawnTank(unsigned</text>
<text text-anchor="start" x="395.5" y="-480.5" font-family="Helvetica,sans-Serif" font-size="10.00"> int x, unsigned int y,</text>
<text text-anchor="start" x="395.5" y="-469.5" font-family="Helvetica,sans-Serif" font-size="10.00"> Tank::TankType type, Direction</text>
<text text-anchor="start" x="395.5" y="-458.5" font-family="Helvetica,sans-Serif" font-size="10.00"> facing=North)</text>
<text text-anchor="start" x="395.5" y="-447.5" font-family="Helvetica,sans-Serif" font-size="10.00">+ bool spawnPlayer(Direction</text>
<text text-anchor="start" x="395.5" y="-436.5" font-family="Helvetica,sans-Serif" font-size="10.00"> facing=North)</text>
<text text-anchor="start" x="395.5" y="-425.5" font-family="Helvetica,sans-Serif" font-size="10.00">+ bool spawnPlayer(unsigned</text>
<text text-anchor="start" x="395.5" y="-414.5" font-family="Helvetica,sans-Serif" font-size="10.00"> int x, unsigned int y,</text>
<text text-anchor="start" x="395.5" y="-403.5" font-family="Helvetica,sans-Serif" font-size="10.00"> Direction facing=North)</text>
<text text-anchor="start" x="395.5" y="-392.5" font-family="Helvetica,sans-Serif" font-size="10.00">+ void setGrid(std::unique</text>
<text text-anchor="start" x="395.5" y="-381.5" font-family="Helvetica,sans-Serif" font-size="10.00">_ptr&lt; Grid &gt; grid)</text>
<text text-anchor="start" x="395.5" y="-370.5" font-family="Helvetica,sans-Serif" font-size="10.00">+ void deleteTile(unsigned</text>
<text text-anchor="start" x="395.5" y="-359.5" font-family="Helvetica,sans-Serif" font-size="10.00"> int x, unsigned int y)</text>
<text text-anchor="start" x="395.5" y="-348.5" font-family="Helvetica,sans-Serif" font-size="10.00">+ void killAllEnemyEntities()</text>
<text text-anchor="start" x="395.5" y="-337.5" font-family="Helvetica,sans-Serif" font-size="10.00">+ void removeEntity(std</text>
<text text-anchor="start" x="395.5" y="-326.5" font-family="Helvetica,sans-Serif" font-size="10.00">::shared_ptr&lt; Entity</text>
<text text-anchor="start" x="395.5" y="-315.5" font-family="Helvetica,sans-Serif" font-size="10.00"> &gt; entity)</text>
<text text-anchor="start" x="395.5" y="-304.5" font-family="Helvetica,sans-Serif" font-size="10.00">+ void removeAllEntities()</text>
<text text-anchor="start" x="395.5" y="-293.5" font-family="Helvetica,sans-Serif" font-size="10.00">+ unsigned int getSizeX()</text>
<text text-anchor="start" x="395.5" y="-282.5" font-family="Helvetica,sans-Serif" font-size="10.00">+ unsigned int getSizeY()</text>
<text text-anchor="start" x="395.5" y="-271.5" font-family="Helvetica,sans-Serif" font-size="10.00">+ bool snapTankToGrid</text>
<text text-anchor="start" x="395.5" y="-260.5" font-family="Helvetica,sans-Serif" font-size="10.00">(const std::shared_ptr</text>
<text text-anchor="start" x="395.5" y="-249.5" font-family="Helvetica,sans-Serif" font-size="10.00">&lt; Tank &gt; &amp;target, bool</text>
<text text-anchor="start" x="395.5" y="-238.5" font-family="Helvetica,sans-Serif" font-size="10.00"> snap_x=true, bool snap</text>
<text text-anchor="start" x="395.5" y="-227.5" font-family="Helvetica,sans-Serif" font-size="10.00">_y=true)</text>
<text text-anchor="start" x="395.5" y="-216.5" font-family="Helvetica,sans-Serif" font-size="10.00">+ void loadLevel(unsigned</text>
<text text-anchor="start" x="395.5" y="-205.5" font-family="Helvetica,sans-Serif" font-size="10.00"> int levelNum)</text>
<text text-anchor="start" x="395.5" y="-194.5" font-family="Helvetica,sans-Serif" font-size="10.00">+ std::shared_ptr&lt; PlayerTank</text>
<text text-anchor="start" x="395.5" y="-183.5" font-family="Helvetica,sans-Serif" font-size="10.00"> &gt; getPlayerTank()</text>
<text text-anchor="start" x="395.5" y="-172.5" font-family="Helvetica,sans-Serif" font-size="10.00">+ void removeEntity(Entity</text>
<text text-anchor="start" x="395.5" y="-161.5" font-family="Helvetica,sans-Serif" font-size="10.00"> *entity)</text>
<text text-anchor="start" x="395.5" y="-150.5" font-family="Helvetica,sans-Serif" font-size="10.00">+ EntityController *</text>
<text text-anchor="start" x="395.5" y="-139.5" font-family="Helvetica,sans-Serif" font-size="10.00"> getEntityController()</text>
<text text-anchor="start" x="395.5" y="-128.5" font-family="Helvetica,sans-Serif" font-size="10.00">+ void hitTank(std::shared</text>
<text text-anchor="start" x="395.5" y="-117.5" font-family="Helvetica,sans-Serif" font-size="10.00">_ptr&lt; Tank &gt; target, unsigned</text>
<text text-anchor="start" x="395.5" y="-106.5" font-family="Helvetica,sans-Serif" font-size="10.00"> int damage)</text>
<text text-anchor="start" x="395.5" y="-95.5" font-family="Helvetica,sans-Serif" font-size="10.00">+ Grid * getGrid()</text>
<text text-anchor="start" x="395.5" y="-84.5" font-family="Helvetica,sans-Serif" font-size="10.00"># bool validateEntityPosition</text>
<text text-anchor="start" x="395.5" y="-73.5" font-family="Helvetica,sans-Serif" font-size="10.00">(const std::shared_ptr&lt;</text>
<text text-anchor="start" x="395.5" y="-62.5" font-family="Helvetica,sans-Serif" font-size="10.00"> Entity &gt; &amp;target)</text>
<text text-anchor="start" x="395.5" y="-51.5" font-family="Helvetica,sans-Serif" font-size="10.00"># std::unique_ptr&lt; Event</text>
<text text-anchor="start" x="395.5" y="-40.5" font-family="Helvetica,sans-Serif" font-size="10.00"> &gt; createCollisionEvent</text>
<text text-anchor="start" x="395.5" y="-29.5" font-family="Helvetica,sans-Serif" font-size="10.00">(std::shared_ptr&lt; Entity</text>
<text text-anchor="start" x="395.5" y="-18.5" font-family="Helvetica,sans-Serif" font-size="10.00"> &gt; entity)</text>
<text text-anchor="start" x="395.5" y="-7.5" font-family="Helvetica,sans-Serif" font-size="10.00"># void endIfNoBotsLeft()</text>
</a>
</g>
</g>
<!-- Node2 -->
<g id="node2" class="node">
<title>Node2</title>
<g id="a_node2"><a xlink:title=" ">
<polygon fill="none" stroke="black" points="182,-958 182,-1015 293,-1015 293,-958 182,-958"/>
<text text-anchor="middle" x="237.5" y="-1003" font-family="Helvetica,sans-Serif" font-size="10.00">unique_ptr&lt; Grid &gt;</text>
<polyline fill="none" stroke="black" points="182,-996 293,-996 "/>
<text text-anchor="middle" x="237.5" y="-984" font-family="Helvetica,sans-Serif" font-size="10.00"> </text>
<polyline fill="none" stroke="black" points="182,-977 293,-977 "/>
<text text-anchor="middle" x="237.5" y="-965" font-family="Helvetica,sans-Serif" font-size="10.00"> </text>
</a>
</g>
</g>
<!-- Node2&#45;&gt;Node1 -->
<g id="edge1" class="edge">
<title>Node2&#45;&gt;Node1</title>
<path fill="none" stroke="#404040" d="M244.48,-957.68C255.29,-915.54 277.38,-833.21 301.5,-765 325.57,-696.96 355.08,-623.86 382.71,-558.76"/>
<polygon fill="none" stroke="#404040" points="382.79,-558.58 381.46,-551.5 387.49,-547.54 388.82,-554.63 382.79,-558.58"/>
<text text-anchor="middle" x="327.5" y="-739" font-family="Helvetica,sans-Serif" font-size="10.00"> #grid_</text>
</g>
<!-- Node3 -->
<g id="node3" class="node">
<title>Node3</title>
<g id="a_node3"><a xlink:title=" ">
<polygon fill="none" stroke="black" points="311,-958 311,-1015 478,-1015 478,-958 311,-958"/>
<text text-anchor="middle" x="394.5" y="-1003" font-family="Helvetica,sans-Serif" font-size="10.00">unique_ptr&lt; EntityController &gt;</text>
<polyline fill="none" stroke="black" points="311,-996 478,-996 "/>
<text text-anchor="middle" x="394.5" y="-984" font-family="Helvetica,sans-Serif" font-size="10.00"> </text>
<polyline fill="none" stroke="black" points="311,-977 478,-977 "/>
<text text-anchor="middle" x="394.5" y="-965" font-family="Helvetica,sans-Serif" font-size="10.00"> </text>
</a>
</g>
</g>
<!-- Node3&#45;&gt;Node1 -->
<g id="edge2" class="edge">
<title>Node3&#45;&gt;Node1</title>
<path fill="none" stroke="#404040" d="M397.91,-957.82C403.23,-914.58 414.14,-825.96 425.96,-729.9"/>
<polygon fill="none" stroke="#404040" points="425.98,-729.75 422.75,-723.31 427.45,-717.84 430.69,-724.29 425.98,-729.75"/>
<text text-anchor="middle" x="472.5" y="-739" font-family="Helvetica,sans-Serif" font-size="10.00"> #entityController_</text>
</g>
<!-- Node4 -->
<g id="node4" class="node">
<title>Node4</title>
<g id="a_node4"><a xlink:href="class_event_queue.html" target="_top" xlink:title=" ">
<polygon fill="none" stroke="black" points="846.5,-1310.5 846.5,-1521.5 996.5,-1521.5 996.5,-1310.5 846.5,-1310.5"/>
<text text-anchor="middle" x="921.5" y="-1509.5" font-family="Helvetica,sans-Serif" font-size="10.00">EventQueue&lt; Event &gt;</text>
<polyline fill="none" stroke="black" points="846.5,-1502.5 996.5,-1502.5 "/>
<text text-anchor="middle" x="921.5" y="-1490.5" font-family="Helvetica,sans-Serif" font-size="10.00"> </text>
<polyline fill="none" stroke="black" points="846.5,-1483.5 996.5,-1483.5 "/>
<text text-anchor="start" x="854.5" y="-1471.5" font-family="Helvetica,sans-Serif" font-size="10.00">+ EventQueue(EventQueue</text>
<text text-anchor="start" x="854.5" y="-1460.5" font-family="Helvetica,sans-Serif" font-size="10.00"> &amp;)=delete</text>
<text text-anchor="start" x="854.5" y="-1449.5" font-family="Helvetica,sans-Serif" font-size="10.00">+ bool operator=(const</text>
<text text-anchor="start" x="854.5" y="-1438.5" font-family="Helvetica,sans-Serif" font-size="10.00"> EventQueue &amp;)=delete</text>
<text text-anchor="start" x="854.5" y="-1427.5" font-family="Helvetica,sans-Serif" font-size="10.00">+ void registerEvent</text>
<text text-anchor="start" x="854.5" y="-1416.5" font-family="Helvetica,sans-Serif" font-size="10.00">(std::unique_ptr&lt; Event</text>
<text text-anchor="start" x="854.5" y="-1405.5" font-family="Helvetica,sans-Serif" font-size="10.00"> &gt; event)</text>
<text text-anchor="start" x="854.5" y="-1394.5" font-family="Helvetica,sans-Serif" font-size="10.00">+ std::unique_ptr&lt; Event</text>
<text text-anchor="start" x="854.5" y="-1383.5" font-family="Helvetica,sans-Serif" font-size="10.00"> &gt; pop()</text>
<text text-anchor="start" x="854.5" y="-1372.5" font-family="Helvetica,sans-Serif" font-size="10.00">+ bool isEmpty()</text>
<text text-anchor="start" x="854.5" y="-1361.5" font-family="Helvetica,sans-Serif" font-size="10.00">+ unsigned int size()</text>
<text text-anchor="start" x="854.5" y="-1350.5" font-family="Helvetica,sans-Serif" font-size="10.00">+ void clear()</text>
<text text-anchor="start" x="854.5" y="-1339.5" font-family="Helvetica,sans-Serif" font-size="10.00">+ static EventQueue *</text>
<text text-anchor="start" x="854.5" y="-1328.5" font-family="Helvetica,sans-Serif" font-size="10.00"> instance()</text>
<text text-anchor="start" x="854.5" y="-1317.5" font-family="Helvetica,sans-Serif" font-size="10.00">&#45; EventQueue()=default</text>
</a>
</g>
</g>
<!-- Node4&#45;&gt;Node1 -->
<g id="edge3" class="edge">
<title>Node4&#45;&gt;Node1</title>
<path fill="none" stroke="#404040" d="M916.61,-1310.36C913.64,-1282.59 908.94,-1252.87 901.5,-1226 826.17,-953.84 664.16,-665.41 561.92,-499.62"/>
<polygon fill="none" stroke="#404040" points="561.89,-499.57 555.33,-496.57 555.58,-489.37 562.13,-492.36 561.89,-499.57"/>
<text text-anchor="middle" x="932.5" y="-984" font-family="Helvetica,sans-Serif" font-size="10.00"> #eventQueue_</text>
</g>
<!-- Node9 -->
<g id="node9" class="node">
<title>Node9</title>
<g id="a_node9"><a xlink:href="class_bot_controller.html" target="_top" xlink:title=" ">
<polygon fill="none" stroke="black" points="496.5,-765.5 496.5,-1207.5 678.5,-1207.5 678.5,-765.5 496.5,-765.5"/>
<text text-anchor="middle" x="587.5" y="-1195.5" font-family="Helvetica,sans-Serif" font-size="10.00">BotController</text>
<polyline fill="none" stroke="black" points="496.5,-1188.5 678.5,-1188.5 "/>
<text text-anchor="middle" x="587.5" y="-1176.5" font-family="Helvetica,sans-Serif" font-size="10.00"> </text>
<polyline fill="none" stroke="black" points="496.5,-1169.5 678.5,-1169.5 "/>
<text text-anchor="start" x="504.5" y="-1157.5" font-family="Helvetica,sans-Serif" font-size="10.00">+ BotController()=delete</text>
<text text-anchor="start" x="504.5" y="-1146.5" font-family="Helvetica,sans-Serif" font-size="10.00">+ BotController &amp; operator</text>
<text text-anchor="start" x="504.5" y="-1135.5" font-family="Helvetica,sans-Serif" font-size="10.00">=(const BotController &amp;other)</text>
<text text-anchor="start" x="504.5" y="-1124.5" font-family="Helvetica,sans-Serif" font-size="10.00">=delete</text>
<text text-anchor="start" x="504.5" y="-1113.5" font-family="Helvetica,sans-Serif" font-size="10.00">+ void makeBotDecision</text>
<text text-anchor="start" x="504.5" y="-1102.5" font-family="Helvetica,sans-Serif" font-size="10.00">(const std::shared_ptr</text>
<text text-anchor="start" x="504.5" y="-1091.5" font-family="Helvetica,sans-Serif" font-size="10.00">&lt; Bot &gt; &amp;bot)</text>
<text text-anchor="start" x="504.5" y="-1080.5" font-family="Helvetica,sans-Serif" font-size="10.00">+ void registerBot()</text>
<text text-anchor="start" x="504.5" y="-1069.5" font-family="Helvetica,sans-Serif" font-size="10.00">+ void deregisterBot()</text>
<text text-anchor="start" x="504.5" y="-1058.5" font-family="Helvetica,sans-Serif" font-size="10.00">+ void deregisterAllBots()</text>
<text text-anchor="start" x="504.5" y="-1047.5" font-family="Helvetica,sans-Serif" font-size="10.00">+ unsigned int getRegistered</text>
<text text-anchor="start" x="504.5" y="-1036.5" font-family="Helvetica,sans-Serif" font-size="10.00">BotsCount() const</text>
<text text-anchor="start" x="504.5" y="-1025.5" font-family="Helvetica,sans-Serif" font-size="10.00">+ void notify(SimplePublisher</text>
<text text-anchor="start" x="504.5" y="-1014.5" font-family="Helvetica,sans-Serif" font-size="10.00"> *pub) override</text>
<text text-anchor="start" x="504.5" y="-1003.5" font-family="Helvetica,sans-Serif" font-size="10.00">+ void setSpawnpoints</text>
<text text-anchor="start" x="504.5" y="-992.5" font-family="Helvetica,sans-Serif" font-size="10.00">(const std::vector&lt;</text>
<text text-anchor="start" x="504.5" y="-981.5" font-family="Helvetica,sans-Serif" font-size="10.00"> std::pair&lt; unsigned</text>
<text text-anchor="start" x="504.5" y="-970.5" font-family="Helvetica,sans-Serif" font-size="10.00"> int, unsigned int &gt; &gt;</text>
<text text-anchor="start" x="504.5" y="-959.5" font-family="Helvetica,sans-Serif" font-size="10.00"> &amp;spawnpoints)</text>
<text text-anchor="start" x="504.5" y="-948.5" font-family="Helvetica,sans-Serif" font-size="10.00">+ void setTypes(const</text>
<text text-anchor="start" x="504.5" y="-937.5" font-family="Helvetica,sans-Serif" font-size="10.00"> std::queue&lt; Tank::TankType</text>
<text text-anchor="start" x="504.5" y="-926.5" font-family="Helvetica,sans-Serif" font-size="10.00"> &gt; &amp;types)</text>
<text text-anchor="start" x="504.5" y="-915.5" font-family="Helvetica,sans-Serif" font-size="10.00">+ void setCounting(bool</text>
<text text-anchor="start" x="504.5" y="-904.5" font-family="Helvetica,sans-Serif" font-size="10.00"> counting)</text>
<text text-anchor="start" x="504.5" y="-893.5" font-family="Helvetica,sans-Serif" font-size="10.00">+ void zeroCooldown()</text>
<text text-anchor="start" x="504.5" y="-882.5" font-family="Helvetica,sans-Serif" font-size="10.00">+ unsigned int getRemaining</text>
<text text-anchor="start" x="504.5" y="-871.5" font-family="Helvetica,sans-Serif" font-size="10.00">BotsCount()</text>
<text text-anchor="start" x="504.5" y="-860.5" font-family="Helvetica,sans-Serif" font-size="10.00">+ static BotController</text>
<text text-anchor="start" x="504.5" y="-849.5" font-family="Helvetica,sans-Serif" font-size="10.00"> * instance()</text>
<text text-anchor="start" x="504.5" y="-838.5" font-family="Helvetica,sans-Serif" font-size="10.00">+ static void initialize</text>
<text text-anchor="start" x="504.5" y="-827.5" font-family="Helvetica,sans-Serif" font-size="10.00">(unsigned int maxRegisteredBots,</text>
<text text-anchor="start" x="504.5" y="-816.5" font-family="Helvetica,sans-Serif" font-size="10.00"> unsigned int spawnCooldown)</text>
<text text-anchor="start" x="504.5" y="-805.5" font-family="Helvetica,sans-Serif" font-size="10.00"># BotController(unsigned</text>
<text text-anchor="start" x="504.5" y="-794.5" font-family="Helvetica,sans-Serif" font-size="10.00"> int n_maxRegisteredBots,</text>
<text text-anchor="start" x="504.5" y="-783.5" font-family="Helvetica,sans-Serif" font-size="10.00"> unsigned int n_spawnCooldown)</text>
<text text-anchor="start" x="504.5" y="-772.5" font-family="Helvetica,sans-Serif" font-size="10.00"># void requestSpawnBot()</text>
</a>
</g>
</g>
<!-- Node4&#45;&gt;Node9 -->
<g id="edge17" class="edge">
<title>Node4&#45;&gt;Node9</title>
<path fill="none" stroke="#404040" d="M846.34,-1318.79C799.03,-1258.25 737.46,-1179.44 686.24,-1113.88"/>
<polygon fill="none" stroke="#404040" points="686.15,-1113.76 679.3,-1111.49 678.76,-1104.3 685.6,-1106.57 686.15,-1113.76"/>
<text text-anchor="middle" x="861.5" y="-1256.5" font-family="Helvetica,sans-Serif" font-size="10.00"> #eventQueue_</text>
</g>
<!-- Node5 -->
<g id="node5" class="node">
<title>Node5</title>
<g id="a_node5"><a xlink:href="classstd_1_1queue_3_01std_1_1unique__ptr_3_01_event_01_4_01_4.html" target="_top" xlink:title=" ">
<polygon fill="none" stroke="black" points="773.5,-1641 773.5,-1709 885.5,-1709 885.5,-1641 773.5,-1641"/>
<text text-anchor="start" x="781.5" y="-1697" font-family="Helvetica,sans-Serif" font-size="10.00">queue&lt; std::unique</text>
<text text-anchor="middle" x="829.5" y="-1686" font-family="Helvetica,sans-Serif" font-size="10.00">_ptr&lt; Event &gt; &gt;</text>
<polyline fill="none" stroke="black" points="773.5,-1679 885.5,-1679 "/>
<text text-anchor="middle" x="829.5" y="-1667" font-family="Helvetica,sans-Serif" font-size="10.00"> </text>
<polyline fill="none" stroke="black" points="773.5,-1660 885.5,-1660 "/>
<text text-anchor="middle" x="829.5" y="-1648" font-family="Helvetica,sans-Serif" font-size="10.00"> </text>
</a>
</g>
</g>
<!-- Node5&#45;&gt;Node4 -->
<g id="edge4" class="edge">
<title>Node5&#45;&gt;Node4</title>
<path fill="none" stroke="#404040" d="M833.85,-1640.82C838.06,-1613.27 845.59,-1573.35 857.5,-1540 858.3,-1537.75 859.14,-1535.48 860.01,-1533.21"/>
<polygon fill="none" stroke="#404040" points="860.11,-1532.97 858.64,-1525.91 864.59,-1521.83 866.06,-1528.89 860.11,-1532.97"/>
<text text-anchor="middle" x="882.5" y="-1543" font-family="Helvetica,sans-Serif" font-size="10.00"> #events_</text>
</g>
<!-- Node6 -->
<g id="node6" class="node">
<title>Node6</title>
<g id="a_node6"><a xlink:title=" ">
<polygon fill="none" stroke="black" points="846.5,-1834 846.5,-1891 996.5,-1891 996.5,-1834 846.5,-1834"/>
<text text-anchor="middle" x="921.5" y="-1879" font-family="Helvetica,sans-Serif" font-size="10.00">unique_ptr&lt; EventQueue &gt;</text>
<polyline fill="none" stroke="black" points="846.5,-1872 996.5,-1872 "/>
<text text-anchor="middle" x="921.5" y="-1860" font-family="Helvetica,sans-Serif" font-size="10.00"> </text>
<polyline fill="none" stroke="black" points="846.5,-1853 996.5,-1853 "/>
<text text-anchor="middle" x="921.5" y="-1841" font-family="Helvetica,sans-Serif" font-size="10.00"> </text>
</a>
</g>
</g>
<!-- Node6&#45;&gt;Node4 -->
<g id="edge5" class="edge">
<title>Node6&#45;&gt;Node4</title>
<path fill="none" stroke="#404040" d="M921.5,-1833.69C921.5,-1774.98 921.5,-1635.4 921.5,-1533.93"/>
<polygon fill="none" stroke="#404040" points="921.5,-1533.75 917.5,-1527.75 921.5,-1521.75 925.5,-1527.75 921.5,-1533.75"/>
<text text-anchor="middle" x="939" y="-1672.5" font-family="Helvetica,sans-Serif" font-size="10.00"> #self_</text>
</g>
<!-- Node7 -->
<g id="node7" class="node">
<title>Node7</title>
<g id="a_node7"><a xlink:href="class_event_queue.html" target="_top" xlink:title="Singleton class wrapper for std::queue&lt;E&gt;.">
<polygon fill="none" stroke="black" points="974.5,-1569.5 974.5,-1780.5 1124.5,-1780.5 1124.5,-1569.5 974.5,-1569.5"/>
<text text-anchor="middle" x="1049.5" y="-1768.5" font-family="Helvetica,sans-Serif" font-size="10.00">EventQueue&lt; E &gt;</text>
<polyline fill="none" stroke="black" points="974.5,-1761.5 1124.5,-1761.5 "/>
<text text-anchor="middle" x="1049.5" y="-1749.5" font-family="Helvetica,sans-Serif" font-size="10.00"> </text>
<polyline fill="none" stroke="black" points="974.5,-1742.5 1124.5,-1742.5 "/>
<text text-anchor="start" x="982.5" y="-1730.5" font-family="Helvetica,sans-Serif" font-size="10.00">+ EventQueue(EventQueue</text>
<text text-anchor="start" x="982.5" y="-1719.5" font-family="Helvetica,sans-Serif" font-size="10.00"> &amp;)=delete</text>
<text text-anchor="start" x="982.5" y="-1708.5" font-family="Helvetica,sans-Serif" font-size="10.00">+ bool operator=(const</text>
<text text-anchor="start" x="982.5" y="-1697.5" font-family="Helvetica,sans-Serif" font-size="10.00"> EventQueue &amp;)=delete</text>
<text text-anchor="start" x="982.5" y="-1686.5" font-family="Helvetica,sans-Serif" font-size="10.00">+ void registerEvent</text>
<text text-anchor="start" x="982.5" y="-1675.5" font-family="Helvetica,sans-Serif" font-size="10.00">(std::unique_ptr&lt; E</text>
<text text-anchor="start" x="982.5" y="-1664.5" font-family="Helvetica,sans-Serif" font-size="10.00"> &gt; event)</text>
<text text-anchor="start" x="982.5" y="-1653.5" font-family="Helvetica,sans-Serif" font-size="10.00">+ std::unique_ptr&lt; E</text>
<text text-anchor="start" x="982.5" y="-1642.5" font-family="Helvetica,sans-Serif" font-size="10.00"> &gt; pop()</text>
<text text-anchor="start" x="982.5" y="-1631.5" font-family="Helvetica,sans-Serif" font-size="10.00">+ bool isEmpty()</text>
<text text-anchor="start" x="982.5" y="-1620.5" font-family="Helvetica,sans-Serif" font-size="10.00">+ unsigned int size()</text>
<text text-anchor="start" x="982.5" y="-1609.5" font-family="Helvetica,sans-Serif" font-size="10.00">+ void clear()</text>
<text text-anchor="start" x="982.5" y="-1598.5" font-family="Helvetica,sans-Serif" font-size="10.00">+ static EventQueue *</text>
<text text-anchor="start" x="982.5" y="-1587.5" font-family="Helvetica,sans-Serif" font-size="10.00"> instance()</text>
<text text-anchor="start" x="982.5" y="-1576.5" font-family="Helvetica,sans-Serif" font-size="10.00">&#45; EventQueue()=default</text>
</a>
</g>
</g>
<!-- Node6&#45;&gt;Node7 -->
<g id="edge8" class="edge">
<title>Node6&#45;&gt;Node7</title>
<path fill="none" stroke="#404040" d="M940.66,-1833.73C948.98,-1821.68 959.33,-1806.68 970.31,-1790.77"/>
<polygon fill="none" stroke="#404040" points="970.4,-1790.64 970.51,-1783.43 977.21,-1780.76 977.1,-1787.97 970.4,-1790.64"/>
<text text-anchor="middle" x="981" y="-1802" font-family="Helvetica,sans-Serif" font-size="10.00"> #self_</text>
</g>
<!-- Node7&#45;&gt;Node4 -->
<g id="edge6" class="edge">
<title>Node7&#45;&gt;Node4</title>
<path fill="none" stroke="orange" d="M992.83,-1560.22C986.47,-1547.46 980.02,-1534.5 973.72,-1521.86"/>
<polygon fill="orange" stroke="orange" points="989.85,-1562.08 997.44,-1569.47 996.11,-1558.96 989.85,-1562.08"/>
<text text-anchor="middle" x="1012.5" y="-1543" font-family="Helvetica,sans-Serif" font-size="10.00"> &lt; Event &gt;</text>
</g>
<!-- Node8 -->
<g id="node8" class="node">
<title>Node8</title>
<g id="a_node8"><a xlink:title=" ">
<polygon fill="none" stroke="black" points="1014.5,-1828.5 1014.5,-1896.5 1126.5,-1896.5 1126.5,-1828.5 1014.5,-1828.5"/>
<text text-anchor="start" x="1022.5" y="-1884.5" font-family="Helvetica,sans-Serif" font-size="10.00">queue&lt; std::unique</text>
<text text-anchor="middle" x="1070.5" y="-1873.5" font-family="Helvetica,sans-Serif" font-size="10.00">_ptr&lt; E &gt; &gt;</text>
<polyline fill="none" stroke="black" points="1014.5,-1866.5 1126.5,-1866.5 "/>
<text text-anchor="middle" x="1070.5" y="-1854.5" font-family="Helvetica,sans-Serif" font-size="10.00"> </text>
<polyline fill="none" stroke="black" points="1014.5,-1847.5 1126.5,-1847.5 "/>
<text text-anchor="middle" x="1070.5" y="-1835.5" font-family="Helvetica,sans-Serif" font-size="10.00"> </text>
</a>
</g>
</g>
<!-- Node8&#45;&gt;Node7 -->
<g id="edge7" class="edge">
<title>Node8&#45;&gt;Node7</title>
<path fill="none" stroke="#404040" d="M1066.75,-1828.34C1065.56,-1817.88 1064.18,-1805.68 1062.72,-1792.81"/>
<polygon fill="none" stroke="#404040" points="1062.72,-1792.77 1058.07,-1787.25 1061.37,-1780.84 1066.02,-1786.36 1062.72,-1792.77"/>
<text text-anchor="middle" x="1089.5" y="-1802" font-family="Helvetica,sans-Serif" font-size="10.00"> #events_</text>
</g>
<!-- Node9&#45;&gt;Node1 -->
<g id="edge9" class="edge">
<title>Node9&#45;&gt;Node1</title>
<path fill="none" stroke="#404040" d="M546.68,-765.41C544.51,-753.67 542.29,-741.73 540.06,-729.68"/>
<polygon fill="none" stroke="#404040" points="540,-729.39 534.98,-724.22 537.82,-717.59 542.84,-722.76 540,-729.39"/>
<text text-anchor="middle" x="580.5" y="-739" font-family="Helvetica,sans-Serif" font-size="10.00"> #botController</text>
</g>
<!-- Node10 -->
<g id="node10" class="node">
<title>Node10</title>
<g id="a_node10"><a xlink:href="class_simple_subscriber.html" target="_top" xlink:title=" ">
<polygon fill="none" stroke="black" points="0,-1332.5 0,-1499.5 193,-1499.5 193,-1332.5 0,-1332.5"/>
<text text-anchor="middle" x="96.5" y="-1487.5" font-family="Helvetica,sans-Serif" font-size="10.00">SimpleSubscriber</text>
<polyline fill="none" stroke="black" points="0,-1480.5 193,-1480.5 "/>
<text text-anchor="middle" x="96.5" y="-1468.5" font-family="Helvetica,sans-Serif" font-size="10.00"> </text>
<polyline fill="none" stroke="black" points="0,-1461.5 193,-1461.5 "/>
<text text-anchor="start" x="8" y="-1449.5" font-family="Helvetica,sans-Serif" font-size="10.00">+ ~SimpleSubscriber()</text>
<text text-anchor="start" x="8" y="-1438.5" font-family="Helvetica,sans-Serif" font-size="10.00">+ void subscribe(SimplePublisher</text>
<text text-anchor="start" x="8" y="-1427.5" font-family="Helvetica,sans-Serif" font-size="10.00"> *pub)</text>
<text text-anchor="start" x="8" y="-1416.5" font-family="Helvetica,sans-Serif" font-size="10.00">+ void unsubscribe(SimplePublisher</text>
<text text-anchor="start" x="8" y="-1405.5" font-family="Helvetica,sans-Serif" font-size="10.00"> *pub)</text>
<text text-anchor="start" x="8" y="-1394.5" font-family="Helvetica,sans-Serif" font-size="10.00">+ void removeDeletedSubject</text>
<text text-anchor="start" x="8" y="-1383.5" font-family="Helvetica,sans-Serif" font-size="10.00">(SimplePublisher *pub)</text>
<text text-anchor="start" x="8" y="-1372.5" font-family="Helvetica,sans-Serif" font-size="10.00">+ virtual void notify</text>
<text text-anchor="start" x="8" y="-1361.5" font-family="Helvetica,sans-Serif" font-size="10.00">(SimplePublisher *pub)=0</text>
<text text-anchor="start" x="8" y="-1350.5" font-family="Helvetica,sans-Serif" font-size="10.00"># SimpleSubscriber()</text>
<text text-anchor="start" x="8" y="-1339.5" font-family="Helvetica,sans-Serif" font-size="10.00">=default</text>
</a>
</g>
</g>
<!-- Node10&#45;&gt;Node9 -->
<g id="edge10" class="edge">
<title>Node10&#45;&gt;Node9</title>
<path fill="none" stroke="midnightblue" d="M171.79,-1324.89C208.96,-1287.13 257.06,-1247.15 309.5,-1226 346.17,-1211.21 454.35,-1231.01 486.5,-1208 489.92,-1205.55 493.23,-1202.95 496.43,-1200.23"/>
<polygon fill="none" stroke="midnightblue" points="168.95,-1322.79 164.51,-1332.41 173.98,-1327.66 168.95,-1322.79"/>
</g>
<!-- Node11 -->
<g id="node11" class="node">
<title>Node11</title>
<g id="a_node11"><a xlink:title=" ">
<polygon fill="none" stroke="black" points="18,-1646.5 18,-1703.5 175,-1703.5 175,-1646.5 18,-1646.5"/>
<text text-anchor="middle" x="96.5" y="-1691.5" font-family="Helvetica,sans-Serif" font-size="10.00">vector&lt; SimplePublisher * &gt;</text>
<polyline fill="none" stroke="black" points="18,-1684.5 175,-1684.5 "/>
<text text-anchor="middle" x="96.5" y="-1672.5" font-family="Helvetica,sans-Serif" font-size="10.00"> </text>
<polyline fill="none" stroke="black" points="18,-1665.5 175,-1665.5 "/>
<text text-anchor="middle" x="96.5" y="-1653.5" font-family="Helvetica,sans-Serif" font-size="10.00"> </text>
</a>
</g>
</g>
<!-- Node11&#45;&gt;Node10 -->
<g id="edge11" class="edge">
<title>Node11&#45;&gt;Node10</title>
<path fill="none" stroke="#404040" d="M96.5,-1646.5C96.5,-1614.44 96.5,-1559.75 96.5,-1511.79"/>
<polygon fill="none" stroke="#404040" points="96.5,-1511.76 92.5,-1505.76 96.5,-1499.76 100.5,-1505.76 96.5,-1511.76"/>
<text text-anchor="middle" x="152" y="-1543" font-family="Helvetica,sans-Serif" font-size="10.00"> #subscribedSubjects_</text>
</g>
<!-- Node12 -->
<g id="node12" class="node">
<title>Node12</title>
<g id="a_node12"><a xlink:title=" ">
<polygon fill="none" stroke="black" points="211.5,-1376.5 211.5,-1455.5 341.5,-1455.5 341.5,-1376.5 211.5,-1376.5"/>
<text text-anchor="start" x="219.5" y="-1443.5" font-family="Helvetica,sans-Serif" font-size="10.00">vector&lt; std::pair&lt;</text>
<text text-anchor="start" x="219.5" y="-1432.5" font-family="Helvetica,sans-Serif" font-size="10.00"> unsigned int, unsigned</text>
<text text-anchor="middle" x="276.5" y="-1421.5" font-family="Helvetica,sans-Serif" font-size="10.00"> int &gt; &gt;</text>
<polyline fill="none" stroke="black" points="211.5,-1414.5 341.5,-1414.5 "/>
<text text-anchor="middle" x="276.5" y="-1402.5" font-family="Helvetica,sans-Serif" font-size="10.00"> </text>
<polyline fill="none" stroke="black" points="211.5,-1395.5 341.5,-1395.5 "/>
<text text-anchor="middle" x="276.5" y="-1383.5" font-family="Helvetica,sans-Serif" font-size="10.00"> </text>
</a>
</g>
</g>
<!-- Node12&#45;&gt;Node9 -->
<g id="edge12" class="edge">
<title>Node12&#45;&gt;Node9</title>
<path fill="none" stroke="#404040" d="M283.48,-1376.24C293.55,-1332.38 316.6,-1262.35 365.5,-1226 409.14,-1193.57 443.04,-1240.66 486.5,-1208 486.61,-1207.92 486.71,-1207.84 486.82,-1207.76"/>
<polygon fill="none" stroke="#404040" points="486.99,-1207.62 489.1,-1200.72 496.27,-1200.01 494.17,-1206.91 486.99,-1207.62"/>
<text text-anchor="middle" x="405" y="-1256.5" font-family="Helvetica,sans-Serif" font-size="10.00"> #spawnpoints_</text>
</g>
<!-- Node13 -->
<g id="node13" class="node">
<title>Node13</title>
<g id="a_node13"><a xlink:title=" ">
<polygon fill="none" stroke="black" points="360,-1387.5 360,-1444.5 503,-1444.5 503,-1387.5 360,-1387.5"/>
<text text-anchor="middle" x="431.5" y="-1432.5" font-family="Helvetica,sans-Serif" font-size="10.00">queue&lt; Tank::TankType &gt;</text>
<polyline fill="none" stroke="black" points="360,-1425.5 503,-1425.5 "/>
<text text-anchor="middle" x="431.5" y="-1413.5" font-family="Helvetica,sans-Serif" font-size="10.00"> </text>
<polyline fill="none" stroke="black" points="360,-1406.5 503,-1406.5 "/>
<text text-anchor="middle" x="431.5" y="-1394.5" font-family="Helvetica,sans-Serif" font-size="10.00"> </text>
</a>
</g>
</g>
<!-- Node13&#45;&gt;Node9 -->
<g id="edge13" class="edge">
<title>Node13&#45;&gt;Node9</title>
<path fill="none" stroke="#404040" d="M432.75,-1387.26C435.44,-1349.06 443.9,-1279 470.5,-1226 475.3,-1216.43 480.65,-1216.96 486.5,-1208 487.65,-1206.24 488.79,-1204.47 489.92,-1202.68"/>
<polygon fill="none" stroke="#404040" points="490.03,-1202.51 489.78,-1195.3 496.34,-1192.31 496.59,-1199.51 490.03,-1202.51"/>
<text text-anchor="middle" x="492.5" y="-1256.5" font-family="Helvetica,sans-Serif" font-size="10.00"> #types_</text>
</g>
<!-- Node14 -->
<g id="node14" class="node">
<title>Node14</title>
<g id="a_node14"><a xlink:title=" ">
<polygon fill="none" stroke="black" points="521,-1387.5 521,-1444.5 598,-1444.5 598,-1387.5 521,-1387.5"/>
<text text-anchor="middle" x="559.5" y="-1432.5" font-family="Helvetica,sans-Serif" font-size="10.00">unsigned int</text>
<polyline fill="none" stroke="black" points="521,-1425.5 598,-1425.5 "/>
<text text-anchor="middle" x="559.5" y="-1413.5" font-family="Helvetica,sans-Serif" font-size="10.00"> </text>
<polyline fill="none" stroke="black" points="521,-1406.5 598,-1406.5 "/>
<text text-anchor="middle" x="559.5" y="-1394.5" font-family="Helvetica,sans-Serif" font-size="10.00"> </text>
</a>
</g>
</g>
<!-- Node14&#45;&gt;Node9 -->
<g id="edge14" class="edge">
<title>Node14&#45;&gt;Node9</title>
<path fill="none" stroke="#404040" d="M548.29,-1387.23C539.02,-1362.66 526.57,-1325.59 521.5,-1292 517.96,-1268.55 517.57,-1244.2 519.35,-1219.95"/>
<polygon fill="none" stroke="#404040" points="519.38,-1219.62 515.92,-1213.29 520.44,-1207.67 523.89,-1214 519.38,-1219.62"/>
<text text-anchor="start" x="521.5" y="-1284" font-family="Helvetica,sans-Serif" font-size="10.00"> #maxRegisteredBots</text>
<text text-anchor="middle" x="577" y="-1273" font-family="Helvetica,sans-Serif" font-size="10.00">_</text>
<text text-anchor="middle" x="577" y="-1262" font-family="Helvetica,sans-Serif" font-size="10.00">#maxSpawnCooldown</text>
<text text-anchor="start" x="521.5" y="-1251" font-family="Helvetica,sans-Serif" font-size="10.00">#registeredBots</text>
<text text-anchor="middle" x="577" y="-1240" font-family="Helvetica,sans-Serif" font-size="10.00">_</text>
<text text-anchor="middle" x="577" y="-1229" font-family="Helvetica,sans-Serif" font-size="10.00">#spawnCooldown</text>
</g>
<!-- Node15 -->
<g id="node15" class="node">
<title>Node15</title>
<g id="a_node15"><a xlink:title=" ">
<polygon fill="none" stroke="black" points="616.5,-1387.5 616.5,-1444.5 654.5,-1444.5 654.5,-1387.5 616.5,-1387.5"/>
<text text-anchor="middle" x="635.5" y="-1432.5" font-family="Helvetica,sans-Serif" font-size="10.00">bool</text>
<polyline fill="none" stroke="black" points="616.5,-1425.5 654.5,-1425.5 "/>
<text text-anchor="middle" x="635.5" y="-1413.5" font-family="Helvetica,sans-Serif" font-size="10.00"> </text>
<polyline fill="none" stroke="black" points="616.5,-1406.5 654.5,-1406.5 "/>
<text text-anchor="middle" x="635.5" y="-1394.5" font-family="Helvetica,sans-Serif" font-size="10.00"> </text>
</a>
</g>
</g>
<!-- Node15&#45;&gt;Node9 -->
<g id="edge15" class="edge">
<title>Node15&#45;&gt;Node9</title>
<path fill="none" stroke="#404040" d="M636.53,-1387.37C637.57,-1350.48 638.3,-1283.14 632.5,-1226 632.29,-1223.91 632.07,-1221.81 631.84,-1219.71"/>
<polygon fill="none" stroke="#404040" points="631.81,-1219.48 627.15,-1213.98 630.44,-1207.56 635.1,-1213.06 631.81,-1219.48"/>
<text text-anchor="middle" x="663.5" y="-1256.5" font-family="Helvetica,sans-Serif" font-size="10.00"> #counting</text>
</g>
<!-- Node16 -->
<g id="node16" class="node">
<title>Node16</title>
<g id="a_node16"><a xlink:title=" ">
<polygon fill="none" stroke="black" points="673,-1387.5 673,-1444.5 828,-1444.5 828,-1387.5 673,-1387.5"/>
<text text-anchor="middle" x="750.5" y="-1432.5" font-family="Helvetica,sans-Serif" font-size="10.00">unique_ptr&lt; BotController &gt;</text>
<polyline fill="none" stroke="black" points="673,-1425.5 828,-1425.5 "/>
<text text-anchor="middle" x="750.5" y="-1413.5" font-family="Helvetica,sans-Serif" font-size="10.00"> </text>
<polyline fill="none" stroke="black" points="673,-1406.5 828,-1406.5 "/>
<text text-anchor="middle" x="750.5" y="-1394.5" font-family="Helvetica,sans-Serif" font-size="10.00"> </text>
</a>
</g>
</g>
<!-- Node16&#45;&gt;Node9 -->
<g id="edge16" class="edge">
<title>Node16&#45;&gt;Node9</title>
<path fill="none" stroke="#404040" d="M743.56,-1387.39C733.94,-1350.24 715.37,-1282.32 694.5,-1226 690.89,-1216.26 687.07,-1206.36 683.11,-1196.39"/>
<polygon fill="none" stroke="#404040" points="683.06,-1196.26 677.11,-1192.19 678.58,-1185.13 684.53,-1189.2 683.06,-1196.26"/>
<text text-anchor="middle" x="733" y="-1256.5" font-family="Helvetica,sans-Serif" font-size="10.00"> #self_</text>
</g>
</g>
</svg>
