<?xml version="1.0" encoding="UTF-8" standalone="no"?>
<!DOCTYPE svg PUBLIC "-//W3C//DTD SVG 1.1//EN"
 "http://www.w3.org/Graphics/SVG/1.1/DTD/svg11.dtd">
<!-- Generated by graphviz version 2.43.0 (0)
 -->
<!-- Title: MenuStateGraphic Pages: 1 -->
<!--zoomable 810 -->
<svg id="main" version="1.1" xmlns="http://www.w3.org/2000/svg" xmlns:xlink="http://www.w3.org/1999/xlink" xml:space="preserve" onload="init(evt)">
<style type="text/css"><![CDATA[
.edge:hover path { stroke: red; }
.edge:hover polygon { stroke: red; fill: red; }
]]></style>
<script type="text/javascript"><![CDATA[
var edges = document.getElementsByTagName('g');
if (edges && edges.length) {
  for (var i=0;i<edges.length;i++) {
    if (edges[i].id.substr(0,4)=='edge') {
      edges[i].setAttribute('class','edge');
    }
  }
}
]]></script>
        <defs>
                <circle id="rim" cx="0" cy="0" r="7"/>
                <circle id="rim2" cx="0" cy="0" r="3.5"/>
                <g id="zoomPlus">
                        <use xlink:href="#rim" target="_top" fill="#404040">
                                <set attributeName="fill" to="#808080" begin="zoomplus.mouseover" end="zoomplus.mouseout"/>
                        </use>
                        <path d="M-4,0h8M0,-4v8" fill="none" stroke="white" stroke-width="1.5" pointer-events="none"/>
                </g>
                <g id="zoomMin">
                        <use xlink:href="#rim" target="_top" fill="#404040">
                                <set attributeName="fill" to="#808080" begin="zoomminus.mouseover" end="zoomminus.mouseout"/>
                        </use>
                        <path d="M-4,0h8" fill="none" stroke="white" stroke-width="1.5" pointer-events="none"/>
                </g>
                <g id="dirArrow">
                        <path fill="none" stroke="white" stroke-width="1.5" d="M0,-3.0v7 M-2.5,-0.5L0,-3.0L2.5,-0.5"/>
                </g>
               <g id="resetDef">
                       <use xlink:href="#rim2" target="_top" fill="#404040">
                               <set attributeName="fill" to="#808080" begin="reset.mouseover" end="reset.mouseout"/>
                       </use>
               </g>
        </defs>

<script type="text/javascript">
var viewWidth = 976;
var viewHeight = 810;
var sectionId = 'dynsection-1';
</script>
<script xlink:href="svgpan.js" target="_top"/>
<svg id="graph" class="graph">
<g id="viewport">
<title>MenuStateGraphic</title>
<!-- Node1 -->
<g id="node1" class="node">
<title>Node1</title>
<g id="a_node1"><a xlink:title="Class responsible for rendering static states graphic.">
<polygon fill="#bfbfbf" stroke="black" points="615,-0.5 615,-288.5 812,-288.5 812,-0.5 615,-0.5"/>
<text text-anchor="middle" x="713.5" y="-276.5" font-family="Helvetica,sans-Serif" font-size="10.00">MenuStateGraphic</text>
<polyline fill="none" stroke="black" points="615,-269.5 812,-269.5 "/>
<text text-anchor="middle" x="713.5" y="-257.5" font-family="Helvetica,sans-Serif" font-size="10.00"> </text>
<polyline fill="none" stroke="black" points="615,-250.5 812,-250.5 "/>
<text text-anchor="start" x="623" y="-238.5" font-family="Helvetica,sans-Serif" font-size="10.00">+ MenuStateGraphic(const</text>
<text text-anchor="start" x="623" y="-227.5" font-family="Helvetica,sans-Serif" font-size="10.00"> WindowView &amp;windowView,</text>
<text text-anchor="start" x="623" y="-216.5" font-family="Helvetica,sans-Serif" font-size="10.00"> const StaticGraphic::ButtonsPosition</text>
<text text-anchor="start" x="623" y="-205.5" font-family="Helvetica,sans-Serif" font-size="10.00">Menu &amp;buttonPos, const Window::</text>
<text text-anchor="start" x="623" y="-194.5" font-family="Helvetica,sans-Serif" font-size="10.00">StaticStatePointers &amp;staticPointers)</text>
<text text-anchor="start" x="623" y="-183.5" font-family="Helvetica,sans-Serif" font-size="10.00">+ virtual void render</text>
<text text-anchor="start" x="623" y="-172.5" font-family="Helvetica,sans-Serif" font-size="10.00">() override</text>
<text text-anchor="start" x="623" y="-161.5" font-family="Helvetica,sans-Serif" font-size="10.00">+ const Window::StaticState</text>
<text text-anchor="start" x="623" y="-150.5" font-family="Helvetica,sans-Serif" font-size="10.00">Pointers &amp; getStaticPointers()</text>
<text text-anchor="start" x="623" y="-139.5" font-family="Helvetica,sans-Serif" font-size="10.00"># void loadFont()</text>
<text text-anchor="start" x="623" y="-128.5" font-family="Helvetica,sans-Serif" font-size="10.00"># void renderText(std</text>
<text text-anchor="start" x="623" y="-117.5" font-family="Helvetica,sans-Serif" font-size="10.00">::string renderText,</text>
<text text-anchor="start" x="623" y="-106.5" font-family="Helvetica,sans-Serif" font-size="10.00"> float leftOffset, float</text>
<text text-anchor="start" x="623" y="-95.5" font-family="Helvetica,sans-Serif" font-size="10.00"> topOffset, float fontSize</text>
<text text-anchor="start" x="623" y="-84.5" font-family="Helvetica,sans-Serif" font-size="10.00">=25, sf::Color color=sf::Color::Black)</text>
<text text-anchor="start" x="623" y="-73.5" font-family="Helvetica,sans-Serif" font-size="10.00"># void initiatePointsState</text>
<text text-anchor="start" x="623" y="-62.5" font-family="Helvetica,sans-Serif" font-size="10.00">Header()</text>
<text text-anchor="start" x="623" y="-51.5" font-family="Helvetica,sans-Serif" font-size="10.00"># void renderHeader(Window</text>
<text text-anchor="start" x="623" y="-40.5" font-family="Helvetica,sans-Serif" font-size="10.00">::GameStateGraphic gameState)</text>
<text text-anchor="start" x="623" y="-29.5" font-family="Helvetica,sans-Serif" font-size="10.00"># void renderButtons</text>
<text text-anchor="start" x="623" y="-18.5" font-family="Helvetica,sans-Serif" font-size="10.00">(Window::GameStateGraphic</text>
<text text-anchor="start" x="623" y="-7.5" font-family="Helvetica,sans-Serif" font-size="10.00"> gameState)</text>
</a>
</g>
</g>
<!-- Node2 -->
<g id="node2" class="node">
<title>Node2</title>
<g id="a_node2"><a xlink:href="class_abstract_window.html" target="_top" target="_top" xlink:title="Contains main SFML functions.">
<polygon fill="none" stroke="black" points="141.5,-391.5 141.5,-514.5 299.5,-514.5 299.5,-391.5 141.5,-391.5"/>
<text text-anchor="middle" x="220.5" y="-502.5" font-family="Helvetica,sans-Serif" font-size="10.00">AbstractWindow</text>
<polyline fill="none" stroke="black" points="141.5,-495.5 299.5,-495.5 "/>
<text text-anchor="middle" x="220.5" y="-483.5" font-family="Helvetica,sans-Serif" font-size="10.00"> </text>
<polyline fill="none" stroke="black" points="141.5,-476.5 299.5,-476.5 "/>
<text text-anchor="start" x="149.5" y="-464.5" font-family="Helvetica,sans-Serif" font-size="10.00">+ sf::RenderWindow *</text>
<text text-anchor="start" x="149.5" y="-453.5" font-family="Helvetica,sans-Serif" font-size="10.00"> getWindow()</text>
<text text-anchor="start" x="149.5" y="-442.5" font-family="Helvetica,sans-Serif" font-size="10.00">+ virtual void render()=0</text>
<text text-anchor="start" x="149.5" y="-431.5" font-family="Helvetica,sans-Serif" font-size="10.00">+ AbstractWindow()</text>
<text text-anchor="start" x="149.5" y="-420.5" font-family="Helvetica,sans-Serif" font-size="10.00">+ AbstractWindow(const</text>
<text text-anchor="start" x="149.5" y="-409.5" font-family="Helvetica,sans-Serif" font-size="10.00"> WindowView &amp;windowView)</text>
<text text-anchor="start" x="149.5" y="-398.5" font-family="Helvetica,sans-Serif" font-size="10.00">+ virtual ~AbstractWindow()</text>
</a>
</g>
</g>
<!-- Node2&#45;&gt;Node1 -->
<g id="edge1" class="edge">
<title>Node2&#45;&gt;Node1</title>
<path fill="none" stroke="midnightblue" d="M308.41,-397.34C394.49,-343.83 525.39,-262.45 614.94,-206.77"/>
<polygon fill="none" stroke="midnightblue" points="306.35,-394.5 299.71,-402.76 310.05,-400.45 306.35,-394.5"/>
</g>
<!-- Node3 -->
<g id="node3" class="node">
<title>Node3</title>
<g id="a_node3"><a xlink:title=" ">
<polygon fill="none" stroke="black" points="0,-612 0,-669 65,-669 65,-612 0,-612"/>
<text text-anchor="middle" x="32.5" y="-657" font-family="Helvetica,sans-Serif" font-size="10.00">const uint</text>
<polyline fill="none" stroke="black" points="0,-650 65,-650 "/>
<text text-anchor="middle" x="32.5" y="-638" font-family="Helvetica,sans-Serif" font-size="10.00"> </text>
<polyline fill="none" stroke="black" points="0,-631 65,-631 "/>
<text text-anchor="middle" x="32.5" y="-619" font-family="Helvetica,sans-Serif" font-size="10.00"> </text>
</a>
</g>
</g>
<!-- Node3&#45;&gt;Node2 -->
<g id="edge2" class="edge">
<title>Node3&#45;&gt;Node2</title>
<path fill="none" stroke="#404040" d="M41.79,-611.99C50.69,-588.81 65.95,-555.87 87.5,-533 100.04,-519.69 115.32,-507.88 130.99,-497.7"/>
<polygon fill="none" stroke="#404040" points="131.14,-497.6 134.11,-491.03 141.32,-491.25 138.35,-497.82 131.14,-497.6"/>
<text text-anchor="middle" x="137.5" y="-558" font-family="Helvetica,sans-Serif" font-size="10.00"> #WINDOW_HEIGHT</text>
<text text-anchor="middle" x="137.5" y="-547" font-family="Helvetica,sans-Serif" font-size="10.00">#WINDOW_WIDTH</text>
</g>
<!-- Node4 -->
<g id="node4" class="node">
<title>Node4</title>
<g id="a_node4"><a xlink:href="struct_window_view.html" target="_top" target="_top" xlink:title="Struct that contains the sf::RenderWindow nad offset of elements to render.">
<polygon fill="none" stroke="black" points="83.5,-595.5 83.5,-685.5 265.5,-685.5 265.5,-595.5 83.5,-595.5"/>
<text text-anchor="middle" x="174.5" y="-673.5" font-family="Helvetica,sans-Serif" font-size="10.00">WindowView</text>
<polyline fill="none" stroke="black" points="83.5,-666.5 265.5,-666.5 "/>
<text text-anchor="middle" x="174.5" y="-654.5" font-family="Helvetica,sans-Serif" font-size="10.00"> </text>
<polyline fill="none" stroke="black" points="83.5,-647.5 265.5,-647.5 "/>
<text text-anchor="start" x="91.5" y="-635.5" font-family="Helvetica,sans-Serif" font-size="10.00">+ WindowView(sf::RenderWindow</text>
<text text-anchor="start" x="91.5" y="-624.5" font-family="Helvetica,sans-Serif" font-size="10.00"> *window, float topOffset,</text>
<text text-anchor="start" x="91.5" y="-613.5" font-family="Helvetica,sans-Serif" font-size="10.00"> float leftOffset)</text>
<text text-anchor="start" x="91.5" y="-602.5" font-family="Helvetica,sans-Serif" font-size="10.00">+ WindowView()</text>
</a>
</g>
</g>
<!-- Node4&#45;&gt;Node2 -->
<g id="edge3" class="edge">
<title>Node4&#45;&gt;Node2</title>
<path fill="none" stroke="#404040" d="M185.52,-595.07C190.61,-574.53 196.79,-549.61 202.53,-526.46"/>
<polygon fill="none" stroke="#404040" points="202.6,-526.2 200.16,-519.41 205.48,-514.55 207.92,-521.34 202.6,-526.2"/>
<text text-anchor="middle" x="237" y="-552.5" font-family="Helvetica,sans-Serif" font-size="10.00"> #windowView</text>
</g>
<!-- Node5 -->
<g id="node5" class="node">
<title>Node5</title>
<g id="a_node5"><a xlink:title=" ">
<polygon fill="none" stroke="black" points="82.5,-744.5 82.5,-801.5 180.5,-801.5 180.5,-744.5 82.5,-744.5"/>
<text text-anchor="middle" x="131.5" y="-789.5" font-family="Helvetica,sans-Serif" font-size="10.00">RenderWindow *</text>
<polyline fill="none" stroke="black" points="82.5,-782.5 180.5,-782.5 "/>
<text text-anchor="middle" x="131.5" y="-770.5" font-family="Helvetica,sans-Serif" font-size="10.00"> </text>
<polyline fill="none" stroke="black" points="82.5,-763.5 180.5,-763.5 "/>
<text text-anchor="middle" x="131.5" y="-751.5" font-family="Helvetica,sans-Serif" font-size="10.00"> </text>
</a>
</g>
</g>
<!-- Node5&#45;&gt;Node4 -->
<g id="edge4" class="edge">
<title>Node5&#45;&gt;Node4</title>
<path fill="none" stroke="#404040" d="M136.3,-744.19C138.79,-731.74 142.21,-716.97 146.5,-704 147.24,-701.76 148.04,-699.48 148.87,-697.2"/>
<polygon fill="none" stroke="#404040" points="148.97,-696.96 147.42,-689.92 153.33,-685.79 154.88,-692.83 148.97,-696.96"/>
<text text-anchor="middle" x="171" y="-712.5" font-family="Helvetica,sans-Serif" font-size="10.00"> +window</text>
</g>
<!-- Node6 -->
<g id="node6" class="node">
<title>Node6</title>
<g id="a_node6"><a xlink:title=" ">
<polygon fill="none" stroke="black" points="198.5,-744.5 198.5,-801.5 236.5,-801.5 236.5,-744.5 198.5,-744.5"/>
<text text-anchor="middle" x="217.5" y="-789.5" font-family="Helvetica,sans-Serif" font-size="10.00">float</text>
<polyline fill="none" stroke="black" points="198.5,-782.5 236.5,-782.5 "/>
<text text-anchor="middle" x="217.5" y="-770.5" font-family="Helvetica,sans-Serif" font-size="10.00"> </text>
<polyline fill="none" stroke="black" points="198.5,-763.5 236.5,-763.5 "/>
<text text-anchor="middle" x="217.5" y="-751.5" font-family="Helvetica,sans-Serif" font-size="10.00"> </text>
</a>
</g>
</g>
<!-- Node6&#45;&gt;Node4 -->
<g id="edge5" class="edge">
<title>Node6&#45;&gt;Node4</title>
<path fill="none" stroke="#404040" d="M208.58,-744.19C204.61,-731.86 199.85,-717.2 195.5,-704 194.76,-701.76 194,-699.47 193.24,-697.16"/>
<polygon fill="none" stroke="#404040" points="193.15,-696.91 187.46,-692.48 189.36,-685.53 195.05,-689.96 193.15,-696.91"/>
<text text-anchor="middle" x="231" y="-718" font-family="Helvetica,sans-Serif" font-size="10.00"> +leftOffset</text>
<text text-anchor="middle" x="231" y="-707" font-family="Helvetica,sans-Serif" font-size="10.00">+topOffset</text>
</g>
<!-- Node7 -->
<g id="node7" class="node">
<title>Node7</title>
<g id="a_node7"><a xlink:title=" ">
<polygon fill="none" stroke="black" points="284,-606.5 284,-674.5 433,-674.5 433,-606.5 284,-606.5"/>
<text text-anchor="start" x="292" y="-662.5" font-family="Helvetica,sans-Serif" font-size="10.00">vector&lt; std::shared</text>
<text text-anchor="middle" x="358.5" y="-651.5" font-family="Helvetica,sans-Serif" font-size="10.00">_ptr&lt; AbstractWindow &gt; &gt;</text>
<polyline fill="none" stroke="black" points="284,-644.5 433,-644.5 "/>
<text text-anchor="middle" x="358.5" y="-632.5" font-family="Helvetica,sans-Serif" font-size="10.00"> </text>
<polyline fill="none" stroke="black" points="284,-625.5 433,-625.5 "/>
<text text-anchor="middle" x="358.5" y="-613.5" font-family="Helvetica,sans-Serif" font-size="10.00"> </text>
</a>
</g>
</g>
<!-- Node7&#45;&gt;Node2 -->
<g id="edge6" class="edge">
<title>Node7&#45;&gt;Node2</title>
<path fill="none" stroke="#404040" d="M333.83,-606.34C316.91,-583.59 293.82,-552.55 272.89,-524.43"/>
<polygon fill="none" stroke="#404040" points="272.76,-524.25 265.97,-521.82 265.6,-514.62 272.39,-517.05 272.76,-524.25"/>
<text text-anchor="middle" x="336" y="-552.5" font-family="Helvetica,sans-Serif" font-size="10.00"> #children</text>
</g>
<!-- Node8 -->
<g id="node8" class="node">
<title>Node8</title>
<g id="a_node8"><a xlink:href="struct_static_graphic_1_1_buttons_position_menu.html" target="_top" target="_top" xlink:title="Struct containing children&#39;s buttons setup.">
<polygon fill="none" stroke="black" points="364,-424.5 364,-481.5 555,-481.5 555,-424.5 364,-424.5"/>
<text text-anchor="middle" x="459.5" y="-469.5" font-family="Helvetica,sans-Serif" font-size="10.00">StaticGraphic::ButtonsPositionMenu</text>
<polyline fill="none" stroke="black" points="364,-462.5 555,-462.5 "/>
<text text-anchor="middle" x="459.5" y="-450.5" font-family="Helvetica,sans-Serif" font-size="10.00"> </text>
<polyline fill="none" stroke="black" points="364,-443.5 555,-443.5 "/>
<text text-anchor="middle" x="459.5" y="-431.5" font-family="Helvetica,sans-Serif" font-size="10.00"> </text>
</a>
</g>
</g>
<!-- Node8&#45;&gt;Node1 -->
<g id="edge7" class="edge">
<title>Node8&#45;&gt;Node1</title>
<path fill="none" stroke="#404040" d="M482.49,-424.26C510.83,-390.06 560.94,-329.59 607.27,-273.69"/>
<polygon fill="none" stroke="#404040" points="607.31,-273.64 608.05,-266.47 614.96,-264.4 614.21,-271.58 607.31,-273.64"/>
<text text-anchor="middle" x="610" y="-337.5" font-family="Helvetica,sans-Serif" font-size="10.00"> #buttonPos</text>
</g>
<!-- Node9 -->
<g id="node9" class="node">
<title>Node9</title>
<g id="a_node9"><a xlink:title=" ">
<polygon fill="none" stroke="black" points="451,-612 451,-669 508,-669 508,-612 451,-612"/>
<text text-anchor="middle" x="479.5" y="-657" font-family="Helvetica,sans-Serif" font-size="10.00">Vector2f</text>
<polyline fill="none" stroke="black" points="451,-650 508,-650 "/>
<text text-anchor="middle" x="479.5" y="-638" font-family="Helvetica,sans-Serif" font-size="10.00"> </text>
<polyline fill="none" stroke="black" points="451,-631 508,-631 "/>
<text text-anchor="middle" x="479.5" y="-619" font-family="Helvetica,sans-Serif" font-size="10.00"> </text>
</a>
</g>
</g>
<!-- Node9&#45;&gt;Node8 -->
<g id="edge8" class="edge">
<title>Node9&#45;&gt;Node8</title>
<path fill="none" stroke="#404040" d="M476.51,-611.73C473.14,-580.49 467.64,-529.5 463.81,-493.98"/>
<polygon fill="none" stroke="#404040" points="463.77,-493.59 459.15,-488.05 462.48,-481.66 467.1,-487.19 463.77,-493.59"/>
<text text-anchor="middle" x="506" y="-569" font-family="Helvetica,sans-Serif" font-size="10.00"> +button1Pos</text>
<text text-anchor="middle" x="506" y="-558" font-family="Helvetica,sans-Serif" font-size="10.00">+button1Size</text>
<text text-anchor="middle" x="506" y="-547" font-family="Helvetica,sans-Serif" font-size="10.00">+button2Pos</text>
<text text-anchor="middle" x="506" y="-536" font-family="Helvetica,sans-Serif" font-size="10.00">+button2Size</text>
</g>
<!-- Node10 -->
<g id="node10" class="node">
<title>Node10</title>
<g id="a_node10"><a xlink:href="struct_window_1_1_static_state_pointers.html" target="_top" target="_top" xlink:title="Stores MenuState pointers.">
<polygon fill="none" stroke="black" points="573.5,-424.5 573.5,-481.5 727.5,-481.5 727.5,-424.5 573.5,-424.5"/>
<text text-anchor="middle" x="650.5" y="-469.5" font-family="Helvetica,sans-Serif" font-size="10.00">Window::StaticStatePointers</text>
<polyline fill="none" stroke="black" points="573.5,-462.5 727.5,-462.5 "/>
<text text-anchor="middle" x="650.5" y="-450.5" font-family="Helvetica,sans-Serif" font-size="10.00"> </text>
<polyline fill="none" stroke="black" points="573.5,-443.5 727.5,-443.5 "/>
<text text-anchor="middle" x="650.5" y="-431.5" font-family="Helvetica,sans-Serif" font-size="10.00"> </text>
</a>
</g>
</g>
<!-- Node10&#45;&gt;Node1 -->
<g id="edge9" class="edge">
<title>Node10&#45;&gt;Node1</title>
<path fill="none" stroke="#404040" d="M650.09,-424.47C650.14,-395.1 651.64,-347.35 659.5,-307 659.93,-304.81 660.37,-302.61 660.84,-300.4"/>
<polygon fill="none" stroke="#404040" points="660.88,-300.22 658.31,-293.48 663.53,-288.51 666.11,-295.25 660.88,-300.22"/>
<text text-anchor="middle" x="699" y="-337.5" font-family="Helvetica,sans-Serif" font-size="10.00"> #staticPointers</text>
</g>
<!-- Node11 -->
<g id="node11" class="node">
<title>Node11</title>
<g id="a_node11"><a xlink:title=" ">
<polygon fill="none" stroke="black" points="564.5,-606.5 564.5,-674.5 698.5,-674.5 698.5,-606.5 564.5,-606.5"/>
<text text-anchor="start" x="572.5" y="-662.5" font-family="Helvetica,sans-Serif" font-size="10.00">shared_ptr&lt; Window</text>
<text text-anchor="middle" x="631.5" y="-651.5" font-family="Helvetica,sans-Serif" font-size="10.00">::GameStateGraphic * &gt;</text>
<polyline fill="none" stroke="black" points="564.5,-644.5 698.5,-644.5 "/>
<text text-anchor="middle" x="631.5" y="-632.5" font-family="Helvetica,sans-Serif" font-size="10.00"> </text>
<polyline fill="none" stroke="black" points="564.5,-625.5 698.5,-625.5 "/>
<text text-anchor="middle" x="631.5" y="-613.5" font-family="Helvetica,sans-Serif" font-size="10.00"> </text>
</a>
</g>
</g>
<!-- Node11&#45;&gt;Node10 -->
<g id="edge10" class="edge">
<title>Node11&#45;&gt;Node10</title>
<path fill="none" stroke="#404040" d="M634.9,-606.34C638.12,-574.83 642.98,-527.4 646.42,-493.85"/>
<polygon fill="none" stroke="#404040" points="646.44,-493.67 643.07,-487.3 647.66,-481.74 651.03,-488.11 646.44,-493.67"/>
<text text-anchor="middle" x="675" y="-552.5" font-family="Helvetica,sans-Serif" font-size="10.00"> +gameState</text>
</g>
<!-- Node12 -->
<g id="node12" class="node">
<title>Node12</title>
<g id="a_node12"><a xlink:title=" ">
<polygon fill="none" stroke="black" points="716.5,-612 716.5,-669 820.5,-669 820.5,-612 716.5,-612"/>
<text text-anchor="middle" x="768.5" y="-657" font-family="Helvetica,sans-Serif" font-size="10.00">shared_ptr&lt; int &gt;</text>
<polyline fill="none" stroke="black" points="716.5,-650 820.5,-650 "/>
<text text-anchor="middle" x="768.5" y="-638" font-family="Helvetica,sans-Serif" font-size="10.00"> </text>
<polyline fill="none" stroke="black" points="716.5,-631 820.5,-631 "/>
<text text-anchor="middle" x="768.5" y="-619" font-family="Helvetica,sans-Serif" font-size="10.00"> </text>
</a>
</g>
</g>
<!-- Node12&#45;&gt;Node10 -->
<g id="edge11" class="edge">
<title>Node12&#45;&gt;Node10</title>
<path fill="none" stroke="#404040" d="M755.19,-611.65C744.34,-589.73 728.14,-558.7 711.5,-533 702.35,-518.86 691.35,-504.06 681.23,-491.15"/>
<polygon fill="none" stroke="#404040" points="681.17,-491.08 674.3,-488.87 673.7,-481.69 680.57,-483.9 681.17,-491.08"/>
<text text-anchor="middle" x="766" y="-558" font-family="Helvetica,sans-Serif" font-size="10.00"> +menuPos</text>
<text text-anchor="middle" x="766" y="-547" font-family="Helvetica,sans-Serif" font-size="10.00">+points</text>
</g>
<!-- Node13 -->
<g id="node13" class="node">
<title>Node13</title>
<g id="a_node13"><a xlink:title=" ">
<polygon fill="none" stroke="black" points="745.5,-424.5 745.5,-481.5 787.5,-481.5 787.5,-424.5 745.5,-424.5"/>
<text text-anchor="middle" x="766.5" y="-469.5" font-family="Helvetica,sans-Serif" font-size="10.00">Color</text>
<polyline fill="none" stroke="black" points="745.5,-462.5 787.5,-462.5 "/>
<text text-anchor="middle" x="766.5" y="-450.5" font-family="Helvetica,sans-Serif" font-size="10.00"> </text>
<polyline fill="none" stroke="black" points="745.5,-443.5 787.5,-443.5 "/>
<text text-anchor="middle" x="766.5" y="-431.5" font-family="Helvetica,sans-Serif" font-size="10.00"> </text>
</a>
</g>
</g>
<!-- Node13&#45;&gt;Node1 -->
<g id="edge12" class="edge">
<title>Node13&#45;&gt;Node1</title>
<path fill="none" stroke="#404040" d="M761.7,-424.26C756.73,-395.53 748.56,-348.25 740.34,-300.73"/>
<polygon fill="none" stroke="#404040" points="740.3,-300.47 735.33,-295.24 738.25,-288.65 743.22,-293.88 740.3,-300.47"/>
<text text-anchor="middle" x="770.5" y="-337.5" font-family="Helvetica,sans-Serif" font-size="10.00"> #color</text>
</g>
<!-- Node14 -->
<g id="node14" class="node">
<title>Node14</title>
<g id="a_node14"><a xlink:title=" ">
<polygon fill="none" stroke="black" points="805.5,-424.5 805.5,-481.5 843.5,-481.5 843.5,-424.5 805.5,-424.5"/>
<text text-anchor="middle" x="824.5" y="-469.5" font-family="Helvetica,sans-Serif" font-size="10.00">Font</text>
<polyline fill="none" stroke="black" points="805.5,-462.5 843.5,-462.5 "/>
<text text-anchor="middle" x="824.5" y="-450.5" font-family="Helvetica,sans-Serif" font-size="10.00"> </text>
<polyline fill="none" stroke="black" points="805.5,-443.5 843.5,-443.5 "/>
<text text-anchor="middle" x="824.5" y="-431.5" font-family="Helvetica,sans-Serif" font-size="10.00"> </text>
</a>
</g>
</g>
<!-- Node14&#45;&gt;Node1 -->
<g id="edge13" class="edge">
<title>Node14&#45;&gt;Node1</title>
<path fill="none" stroke="#404040" d="M820.43,-424.47C815.6,-394.9 806.4,-346.79 792.5,-307 791.71,-304.73 790.89,-302.46 790.06,-300.18"/>
<polygon fill="none" stroke="#404040" points="789.97,-299.94 784.1,-295.75 785.7,-288.72 791.57,-292.91 789.97,-299.94"/>
<text text-anchor="middle" x="826" y="-337.5" font-family="Helvetica,sans-Serif" font-size="10.00"> #font</text>
</g>
<!-- Node15 -->
<g id="node15" class="node">
<title>Node15</title>
<g id="a_node15"><a xlink:href="struct_text.html" target="_top" target="_top" xlink:title="Struct used for text storing.">
<polygon fill="none" stroke="black" points="862,-424.5 862,-481.5 899,-481.5 899,-424.5 862,-424.5"/>
<text text-anchor="middle" x="880.5" y="-469.5" font-family="Helvetica,sans-Serif" font-size="10.00">Text</text>
<polyline fill="none" stroke="black" points="862,-462.5 899,-462.5 "/>
<text text-anchor="middle" x="880.5" y="-450.5" font-family="Helvetica,sans-Serif" font-size="10.00"> </text>
<polyline fill="none" stroke="black" points="862,-443.5 899,-443.5 "/>
<text text-anchor="middle" x="880.5" y="-431.5" font-family="Helvetica,sans-Serif" font-size="10.00"> </text>
</a>
</g>
</g>
<!-- Node15&#45;&gt;Node1 -->
<g id="edge14" class="edge">
<title>Node15&#45;&gt;Node1</title>
<path fill="none" stroke="#404040" d="M877.55,-424.29C873.5,-394.14 864.45,-345.15 845.5,-307 838.04,-291.98 828.96,-277.11 819.09,-262.83"/>
<polygon fill="none" stroke="#404040" points="819.08,-262.82 812.35,-260.24 812.14,-253.04 818.87,-255.61 819.08,-262.82"/>
<text text-anchor="middle" x="918" y="-365" font-family="Helvetica,sans-Serif" font-size="10.00"> #finishStateHeader</text>
<text text-anchor="middle" x="918" y="-354" font-family="Helvetica,sans-Serif" font-size="10.00">#finishStateText</text>
<text text-anchor="middle" x="918" y="-343" font-family="Helvetica,sans-Serif" font-size="10.00">#menuStateHeader</text>
<text text-anchor="middle" x="918" y="-332" font-family="Helvetica,sans-Serif" font-size="10.00">#menuStateText</text>
<text text-anchor="middle" x="918" y="-321" font-family="Helvetica,sans-Serif" font-size="10.00">#pauseStateHeader</text>
<text text-anchor="middle" x="918" y="-310" font-family="Helvetica,sans-Serif" font-size="10.00">#pauseStateText</text>
</g>
<!-- Node16 -->
<g id="node16" class="node">
<title>Node16</title>
<g id="a_node16"><a xlink:title=" ">
<polygon fill="none" stroke="black" points="858.5,-612 858.5,-669 902.5,-669 902.5,-612 858.5,-612"/>
<text text-anchor="middle" x="880.5" y="-657" font-family="Helvetica,sans-Serif" font-size="10.00">string</text>
<polyline fill="none" stroke="black" points="858.5,-650 902.5,-650 "/>
<text text-anchor="middle" x="880.5" y="-638" font-family="Helvetica,sans-Serif" font-size="10.00"> </text>
<polyline fill="none" stroke="black" points="858.5,-631 902.5,-631 "/>
<text text-anchor="middle" x="880.5" y="-619" font-family="Helvetica,sans-Serif" font-size="10.00"> </text>
</a>
</g>
</g>
<!-- Node16&#45;&gt;Node15 -->
<g id="edge15" class="edge">
<title>Node16&#45;&gt;Node15</title>
<path fill="none" stroke="#404040" d="M880.5,-611.73C880.5,-580.49 880.5,-529.5 880.5,-493.98"/>
<polygon fill="none" stroke="#404040" points="880.5,-493.66 876.5,-487.66 880.5,-481.66 884.5,-487.66 880.5,-493.66"/>
<text text-anchor="middle" x="899" y="-558" font-family="Helvetica,sans-Serif" font-size="10.00"> +text1</text>
<text text-anchor="middle" x="899" y="-547" font-family="Helvetica,sans-Serif" font-size="10.00">+text2</text>
</g>
</g>
</svg>
        <g id="navigator" transform="translate(0 0)" fill="#404254">
                <rect fill="#f2f5e9" fill-opacity="0.5" stroke="#606060" stroke-width=".5" x="0" y="0" width="60" height="60"/>
                <use id="zoomplus" xlink:href="#zoomPlus" target="_top" x="17" y="9" onmousedown="handleZoom(evt,'in')"/>
                <use id="zoomminus" xlink:href="#zoomMin" target="_top" x="42" y="9" onmousedown="handleZoom(evt,'out')"/>
                <use id="reset" xlink:href="#resetDef" target="_top" x="30" y="36" onmousedown="handleReset()"/>
                <g id="arrowUp" xlink:href="#dirArrow" target="_top" transform="translate(30 24)" onmousedown="handlePan(0,-1)">
                  <use xlink:href="#rim" target="_top" fill="#404040">
                        <set attributeName="fill" to="#808080" begin="arrowUp.mouseover" end="arrowUp.mouseout"/>
                  </use>
                  <path fill="none" stroke="white" stroke-width="1.5" d="M0,-3.0v7 M-2.5,-0.5L0,-3.0L2.5,-0.5"/>
                </g>
                <g id="arrowRight" xlink:href="#dirArrow" target="_top" transform="rotate(90) translate(36 -43)" onmousedown="handlePan(1,0)">
                  <use xlink:href="#rim" target="_top" fill="#404040">
                        <set attributeName="fill" to="#808080" begin="arrowRight.mouseover" end="arrowRight.mouseout"/>
                  </use>
                  <path fill="none" stroke="white" stroke-width="1.5" d="M0,-3.0v7 M-2.5,-0.5L0,-3.0L2.5,-0.5"/>
                </g>
                <g id="arrowDown" xlink:href="#dirArrow" target="_top" transform="rotate(180) translate(-30 -48)" onmousedown="handlePan(0,1)">
                  <use xlink:href="#rim" target="_top" fill="#404040">
                        <set attributeName="fill" to="#808080" begin="arrowDown.mouseover" end="arrowDown.mouseout"/>
                  </use>
                  <path fill="none" stroke="white" stroke-width="1.5" d="M0,-3.0v7 M-2.5,-0.5L0,-3.0L2.5,-0.5"/>
                </g>
                <g id="arrowLeft" xlink:href="#dirArrow" target="_top" transform="rotate(270) translate(-36 17)" onmousedown="handlePan(-1,0)">
                  <use xlink:href="#rim" target="_top" fill="#404040">
                        <set attributeName="fill" to="#808080" begin="arrowLeft.mouseover" end="arrowLeft.mouseout"/>
                  </use>
                  <path fill="none" stroke="white" stroke-width="1.5" d="M0,-3.0v7 M-2.5,-0.5L0,-3.0L2.5,-0.5"/>
                </g>
        </g>
        <svg viewBox="0 0 15 15" width="100%" height="30px" preserveAspectRatio="xMaxYMin meet">
         <g id="arrow_out" transform="scale(0.3 0.3)">
          <a xlink:href="class_menu_state_graphic__coll__graph_org.svg" target="_top" target="_base">
           <rect id="button" ry="5" rx="5" y="6" x="6" height="38" width="38"
                fill="#f2f5e9" fill-opacity="0.5" stroke="#606060" stroke-width="1.0"/>
           <path id="arrow"
             d="M 11.500037,31.436501 C 11.940474,20.09759 22.043105,11.32322 32.158766,21.979434 L 37.068811,17.246167 C 37.068811,17.246167 37.088388,32 37.088388,32 L 22.160133,31.978069 C 22.160133,31.978069 26.997745,27.140456 26.997745,27.140456 C 18.528582,18.264221 13.291696,25.230495 11.500037,31.436501 z"
             style="fill:#404040;"/>
          </a>
         </g>
        </svg>
</svg>
