<?xml version="1.0" encoding="UTF-8" standalone="no"?>
<!DOCTYPE svg PUBLIC "-//W3C//DTD SVG 1.1//EN"
 "http://www.w3.org/Graphics/SVG/1.1/DTD/svg11.dtd">
<!-- Generated by graphviz version 2.50.0 (0)
 -->
<!-- Title: FrameGraphic Pages: 1 -->
<!--zoomable 667 -->
<svg id="main" version="1.1" xmlns="http://www.w3.org/2000/svg" xmlns:xlink="http://www.w3.org/1999/xlink" xml:space="preserve" onload="init(evt)">
<style type="text/css"><![CDATA[
.edge:hover path { stroke: red; }
.edge:hover polygon { stroke: red; fill: red; }
]]></style>
<script type="text/javascript"><![CDATA[
var edges = document.getElementsByTagName('g');
if (edges && edges.length) {
  for (var i=0;i<edges.length;i++) {
    if (edges[i].id.substr(0,4)=='edge') {
      edges[i].setAttribute('class','edge');
    }
  }
}
]]></script>
        <defs>
                <circle id="rim" cx="0" cy="0" r="7"/>
                <circle id="rim2" cx="0" cy="0" r="3.5"/>
                <g id="zoomPlus">
                        <use xlink:href="#rim" fill="#404040">
                                <set attributeName="fill" to="#808080" begin="zoomplus.mouseover" end="zoomplus.mouseout"/>
                        </use>
                        <path d="M-4,0h8M0,-4v8" fill="none" stroke="white" stroke-width="1.5" pointer-events="none"/>
                </g>
                <g id="zoomMin">
                        <use xlink:href="#rim" fill="#404040">
                                <set attributeName="fill" to="#808080" begin="zoomminus.mouseover" end="zoomminus.mouseout"/>
                        </use>
                        <path d="M-4,0h8" fill="none" stroke="white" stroke-width="1.5" pointer-events="none"/>
                </g>
                <g id="dirArrow">
                        <path fill="none" stroke="white" stroke-width="1.5" d="M0,-3.0v7 M-2.5,-0.5L0,-3.0L2.5,-0.5"/>
                </g>
               <g id="resetDef">
                       <use xlink:href="#rim2" fill="#404040">
                               <set attributeName="fill" to="#808080" begin="reset.mouseover" end="reset.mouseout"/>
                       </use>
               </g>
        </defs>

<script type="text/javascript">
var viewWidth = 833;
var viewHeight = 667;
var sectionId = 'dynsection-1';
</script>
<script xlink:href="svgpan.js"/>
<svg id="graph" class="graph">
<g id="viewport">
<title>FrameGraphic</title>
<!-- Node1 -->
<g id="node1" class="node">
<title>Node1</title>
<g id="a_node1"><a xlink:title="Class responsible for frame upadates and render.">
<polygon fill="#bfbfbf" stroke="black" points="366,-0.5 366,-200.5 548,-200.5 548,-0.5 366,-0.5"/>
<text text-anchor="middle" x="457" y="-188.5" font-family="Helvetica,sans-Serif" font-size="10.00">FrameGraphic</text>
<polyline fill="none" stroke="black" points="366,-181.5 548,-181.5 "/>
<text text-anchor="middle" x="457" y="-169.5" font-family="Helvetica,sans-Serif" font-size="10.00"> </text>
<polyline fill="none" stroke="black" points="366,-162.5 548,-162.5 "/>
<text text-anchor="start" x="374" y="-150.5" font-family="Helvetica,sans-Serif" font-size="10.00">+ virtual void render</text>
<text text-anchor="start" x="374" y="-139.5" font-family="Helvetica,sans-Serif" font-size="10.00">() override</text>
<text text-anchor="start" x="374" y="-128.5" font-family="Helvetica,sans-Serif" font-size="10.00">+ const ActiveStateGraphic</text>
<text text-anchor="start" x="374" y="-117.5" font-family="Helvetica,sans-Serif" font-size="10.00">::FramePointers &amp; getPointers</text>
<text text-anchor="start" x="374" y="-106.5" font-family="Helvetica,sans-Serif" font-size="10.00">() const</text>
<text text-anchor="start" x="374" y="-95.5" font-family="Helvetica,sans-Serif" font-size="10.00">+ FrameGraphic(const</text>
<text text-anchor="start" x="374" y="-84.5" font-family="Helvetica,sans-Serif" font-size="10.00"> WindowView &amp;windowView,</text>
<text text-anchor="start" x="374" y="-73.5" font-family="Helvetica,sans-Serif" font-size="10.00"> const ActiveStateGraphic</text>
<text text-anchor="start" x="374" y="-62.5" font-family="Helvetica,sans-Serif" font-size="10.00">::FramePointers &amp;frameObjects)</text>
<text text-anchor="start" x="374" y="-51.5" font-family="Helvetica,sans-Serif" font-size="10.00">&#45; void conscructComposite()</text>
<text text-anchor="start" x="374" y="-40.5" font-family="Helvetica,sans-Serif" font-size="10.00">&#45; void calculateBareFrameSize()</text>
<text text-anchor="start" x="374" y="-29.5" font-family="Helvetica,sans-Serif" font-size="10.00">&#45; void calculateInfoTextPoistion()</text>
<text text-anchor="start" x="374" y="-18.5" font-family="Helvetica,sans-Serif" font-size="10.00">&#45; void initiatesGameInfoPointers()</text>
<text text-anchor="start" x="374" y="-7.5" font-family="Helvetica,sans-Serif" font-size="10.00">&#45; void makeGamePointers()</text>
</a>
</g>
</g>
<!-- Node2 -->
<g id="node2" class="node">
<title>Node2</title>
<g id="a_node2"><a xlink:href="class_abstract_window.html" target="_top" xlink:title="Contains main SFML functions.">
<polygon fill="none" stroke="black" points="199,-248.5 199,-371.5 357,-371.5 357,-248.5 199,-248.5"/>
<text text-anchor="middle" x="278" y="-359.5" font-family="Helvetica,sans-Serif" font-size="10.00">AbstractWindow</text>
<polyline fill="none" stroke="black" points="199,-352.5 357,-352.5 "/>
<text text-anchor="middle" x="278" y="-340.5" font-family="Helvetica,sans-Serif" font-size="10.00"> </text>
<polyline fill="none" stroke="black" points="199,-333.5 357,-333.5 "/>
<text text-anchor="start" x="207" y="-321.5" font-family="Helvetica,sans-Serif" font-size="10.00">+ sf::RenderWindow *</text>
<text text-anchor="start" x="207" y="-310.5" font-family="Helvetica,sans-Serif" font-size="10.00"> getWindow()</text>
<text text-anchor="start" x="207" y="-299.5" font-family="Helvetica,sans-Serif" font-size="10.00">+ virtual void render()=0</text>
<text text-anchor="start" x="207" y="-288.5" font-family="Helvetica,sans-Serif" font-size="10.00">+ AbstractWindow()</text>
<text text-anchor="start" x="207" y="-277.5" font-family="Helvetica,sans-Serif" font-size="10.00">+ AbstractWindow(const</text>
<text text-anchor="start" x="207" y="-266.5" font-family="Helvetica,sans-Serif" font-size="10.00"> WindowView &amp;windowView)</text>
<text text-anchor="start" x="207" y="-255.5" font-family="Helvetica,sans-Serif" font-size="10.00">+ virtual ~AbstractWindow()</text>
</a>
</g>
</g>
<!-- Node2&#45;&gt;Node1 -->
<g id="edge1" class="edge">
<title>Node2&#45;&gt;Node1</title>
<path fill="none" stroke="midnightblue" d="M337.01,-240.59C348.02,-227.84 359.72,-214.27 371.34,-200.8"/>
<polygon fill="none" stroke="midnightblue" points="334.14,-238.57 330.26,-248.42 339.44,-243.14 334.14,-238.57"/>
</g>
<!-- Node3 -->
<g id="node3" class="node">
<title>Node3</title>
<g id="a_node3"><a xlink:title=" ">
<polygon fill="none" stroke="#bfbfbf" points="368.5,-469 368.5,-526 433.5,-526 433.5,-469 368.5,-469"/>
<text text-anchor="middle" x="401" y="-514" font-family="Helvetica,sans-Serif" font-size="10.00">const uint</text>
<polyline fill="none" stroke="#bfbfbf" points="368.5,-507 433.5,-507 "/>
<text text-anchor="middle" x="401" y="-495" font-family="Helvetica,sans-Serif" font-size="10.00"> </text>
<polyline fill="none" stroke="#bfbfbf" points="368.5,-488 433.5,-488 "/>
<text text-anchor="middle" x="401" y="-476" font-family="Helvetica,sans-Serif" font-size="10.00"> </text>
</a>
</g>
</g>
<!-- Node3&#45;&gt;Node2 -->
<g id="edge2" class="edge">
<title>Node3&#45;&gt;Node2</title>
<path fill="none" stroke="#404040" d="M383.69,-468.72C370.12,-447.12 350.65,-416.46 333,-390 331.19,-387.29 329.34,-384.54 327.47,-381.76"/>
<polygon fill="none" stroke="#404040" points="327.34,-381.57 320.65,-378.86 320.59,-371.65 327.27,-374.36 327.34,-381.57"/>
<text text-anchor="middle" x="412" y="-415" font-family="Helvetica,sans-Serif" font-size="10.00"> #WINDOW_HEIGHT</text>
<text text-anchor="middle" x="412" y="-404" font-family="Helvetica,sans-Serif" font-size="10.00">#WINDOW_WIDTH</text>
</g>
<!-- Node4 -->
<g id="node4" class="node">
<title>Node4</title>
<g id="a_node4"><a xlink:href="struct_window_view.html" target="_top" xlink:title="Struct that contains the sf::RenderWindow nad offset of elements to render.">
<polygon fill="none" stroke="black" points="1,-452.5 1,-542.5 183,-542.5 183,-452.5 1,-452.5"/>
<text text-anchor="middle" x="92" y="-530.5" font-family="Helvetica,sans-Serif" font-size="10.00">WindowView</text>
<polyline fill="none" stroke="black" points="1,-523.5 183,-523.5 "/>
<text text-anchor="middle" x="92" y="-511.5" font-family="Helvetica,sans-Serif" font-size="10.00"> </text>
<polyline fill="none" stroke="black" points="1,-504.5 183,-504.5 "/>
<text text-anchor="start" x="9" y="-492.5" font-family="Helvetica,sans-Serif" font-size="10.00">+ WindowView(sf::RenderWindow</text>
<text text-anchor="start" x="9" y="-481.5" font-family="Helvetica,sans-Serif" font-size="10.00"> *window, float topOffset,</text>
<text text-anchor="start" x="9" y="-470.5" font-family="Helvetica,sans-Serif" font-size="10.00"> float leftOffset)</text>
<text text-anchor="start" x="9" y="-459.5" font-family="Helvetica,sans-Serif" font-size="10.00">+ WindowView()</text>
</a>
</g>
</g>
<!-- Node4&#45;&gt;Node1 -->
<g id="edge7" class="edge">
<title>Node4&#45;&gt;Node1</title>
<path fill="none" stroke="#404040" d="M80.27,-452.07C68.91,-398.58 58.94,-308.4 101,-248 158.24,-165.8 270.49,-129.63 353.7,-113.78"/>
<polygon fill="none" stroke="#404040" points="353.96,-113.73 359.14,-108.72 365.76,-111.58 360.58,-116.59 353.96,-113.73"/>
<text text-anchor="middle" x="145.5" y="-307.5" font-family="Helvetica,sans-Serif" font-size="10.00"> &#45;infoWindowView</text>
</g>
<!-- Node4&#45;&gt;Node2 -->
<g id="edge3" class="edge">
<title>Node4&#45;&gt;Node2</title>
<path fill="none" stroke="#404040" d="M136.55,-452.07C158.09,-430.59 184.43,-404.31 208.53,-380.29"/>
<polygon fill="none" stroke="#404040" points="208.79,-380.02 210.21,-372.95 217.29,-371.55 215.86,-378.62 208.79,-380.02"/>
<text text-anchor="middle" x="233.5" y="-409.5" font-family="Helvetica,sans-Serif" font-size="10.00"> #windowView</text>
</g>
<!-- Node5 -->
<g id="node5" class="node">
<title>Node5</title>
<g id="a_node5"><a xlink:title=" ">
<polygon fill="none" stroke="#bfbfbf" points="0,-601.5 0,-658.5 98,-658.5 98,-601.5 0,-601.5"/>
<text text-anchor="middle" x="49" y="-646.5" font-family="Helvetica,sans-Serif" font-size="10.00">RenderWindow *</text>
<polyline fill="none" stroke="#bfbfbf" points="0,-639.5 98,-639.5 "/>
<text text-anchor="middle" x="49" y="-627.5" font-family="Helvetica,sans-Serif" font-size="10.00"> </text>
<polyline fill="none" stroke="#bfbfbf" points="0,-620.5 98,-620.5 "/>
<text text-anchor="middle" x="49" y="-608.5" font-family="Helvetica,sans-Serif" font-size="10.00"> </text>
</a>
</g>
</g>
<!-- Node5&#45;&gt;Node4 -->
<g id="edge4" class="edge">
<title>Node5&#45;&gt;Node4</title>
<path fill="none" stroke="#404040" d="M53.8,-601.19C56.29,-588.74 59.71,-573.97 64,-561 64.74,-558.76 65.54,-556.48 66.37,-554.2"/>
<polygon fill="none" stroke="#404040" points="66.47,-553.96 64.92,-546.92 70.83,-542.79 72.38,-549.83 66.47,-553.96"/>
<text text-anchor="middle" x="88.5" y="-569.5" font-family="Helvetica,sans-Serif" font-size="10.00"> +window</text>
</g>
<!-- Node6 -->
<g id="node6" class="node">
<title>Node6</title>
<g id="a_node6"><a xlink:title=" ">
<polygon fill="none" stroke="#bfbfbf" points="116,-601.5 116,-658.5 154,-658.5 154,-601.5 116,-601.5"/>
<text text-anchor="middle" x="135" y="-646.5" font-family="Helvetica,sans-Serif" font-size="10.00">float</text>
<polyline fill="none" stroke="#bfbfbf" points="116,-639.5 154,-639.5 "/>
<text text-anchor="middle" x="135" y="-627.5" font-family="Helvetica,sans-Serif" font-size="10.00"> </text>
<polyline fill="none" stroke="#bfbfbf" points="116,-620.5 154,-620.5 "/>
<text text-anchor="middle" x="135" y="-608.5" font-family="Helvetica,sans-Serif" font-size="10.00"> </text>
</a>
</g>
</g>
<!-- Node6&#45;&gt;Node4 -->
<g id="edge5" class="edge">
<title>Node6&#45;&gt;Node4</title>
<path fill="none" stroke="#404040" d="M126.08,-601.19C122.11,-588.86 117.35,-574.2 113,-561 112.26,-558.76 111.5,-556.47 110.74,-554.16"/>
<polygon fill="none" stroke="#404040" points="110.65,-553.91 104.96,-549.48 106.86,-542.53 112.55,-546.96 110.65,-553.91"/>
<text text-anchor="middle" x="148.5" y="-575" font-family="Helvetica,sans-Serif" font-size="10.00"> +leftOffset</text>
<text text-anchor="middle" x="148.5" y="-564" font-family="Helvetica,sans-Serif" font-size="10.00">+topOffset</text>
</g>
<!-- Node7 -->
<g id="node7" class="node">
<title>Node7</title>
<g id="a_node7"><a xlink:title=" ">
<polygon fill="none" stroke="#bfbfbf" points="201.5,-463.5 201.5,-531.5 350.5,-531.5 350.5,-463.5 201.5,-463.5"/>
<text text-anchor="start" x="209.5" y="-519.5" font-family="Helvetica,sans-Serif" font-size="10.00">vector&lt; std::shared</text>
<text text-anchor="middle" x="276" y="-508.5" font-family="Helvetica,sans-Serif" font-size="10.00">_ptr&lt; AbstractWindow &gt; &gt;</text>
<polyline fill="none" stroke="#bfbfbf" points="201.5,-501.5 350.5,-501.5 "/>
<text text-anchor="middle" x="276" y="-489.5" font-family="Helvetica,sans-Serif" font-size="10.00"> </text>
<polyline fill="none" stroke="#bfbfbf" points="201.5,-482.5 350.5,-482.5 "/>
<text text-anchor="middle" x="276" y="-470.5" font-family="Helvetica,sans-Serif" font-size="10.00"> </text>
</a>
</g>
</g>
<!-- Node7&#45;&gt;Node2 -->
<g id="edge6" class="edge">
<title>Node7&#45;&gt;Node2</title>
<path fill="none" stroke="#404040" d="M276.36,-463.34C276.6,-441.19 276.92,-411.17 277.22,-383.64"/>
<polygon fill="none" stroke="#404040" points="277.22,-383.62 273.28,-377.58 277.35,-371.62 281.28,-377.66 277.22,-383.62"/>
<text text-anchor="middle" x="303.5" y="-409.5" font-family="Helvetica,sans-Serif" font-size="10.00"> #children</text>
</g>
<!-- Node8 -->
<g id="node8" class="node">
<title>Node8</title>
<g id="a_node8"><a xlink:href="struct_frame_graphic_1_1_bare_frame_size.html" target="_top" xlink:title="Struct containing params which dictates how to draw the bare frame.">
<polygon fill="none" stroke="black" points="375,-281.5 375,-338.5 539,-338.5 539,-281.5 375,-281.5"/>
<text text-anchor="middle" x="457" y="-326.5" font-family="Helvetica,sans-Serif" font-size="10.00">FrameGraphic::BareFrameSize</text>
<polyline fill="none" stroke="black" points="375,-319.5 539,-319.5 "/>
<text text-anchor="middle" x="457" y="-307.5" font-family="Helvetica,sans-Serif" font-size="10.00"> </text>
<polyline fill="none" stroke="black" points="375,-300.5 539,-300.5 "/>
<text text-anchor="middle" x="457" y="-288.5" font-family="Helvetica,sans-Serif" font-size="10.00"> </text>
</a>
</g>
</g>
<!-- Node8&#45;&gt;Node1 -->
<g id="edge8" class="edge">
<title>Node8&#45;&gt;Node1</title>
<path fill="none" stroke="#404040" d="M457,-281.45C457,-263.36 457,-238.4 457,-212.82"/>
<polygon fill="none" stroke="#404040" points="457,-212.64 453,-206.64 457,-200.64 461,-206.64 457,-212.64"/>
<text text-anchor="middle" x="497" y="-222" font-family="Helvetica,sans-Serif" font-size="10.00"> &#45;bareFrameSize</text>
</g>
<!-- Node9 -->
<g id="node9" class="node">
<title>Node9</title>
<g id="a_node9"><a xlink:title=" ">
<polygon fill="none" stroke="#bfbfbf" points="485.5,-469 485.5,-526 548.5,-526 548.5,-469 485.5,-469"/>
<text text-anchor="middle" x="517" y="-514" font-family="Helvetica,sans-Serif" font-size="10.00">FloatRect</text>
<polyline fill="none" stroke="#bfbfbf" points="485.5,-507 548.5,-507 "/>
<text text-anchor="middle" x="517" y="-495" font-family="Helvetica,sans-Serif" font-size="10.00"> </text>
<polyline fill="none" stroke="#bfbfbf" points="485.5,-488 548.5,-488 "/>
<text text-anchor="middle" x="517" y="-476" font-family="Helvetica,sans-Serif" font-size="10.00"> </text>
</a>
</g>
</g>
<!-- Node9&#45;&gt;Node8 -->
<g id="edge9" class="edge">
<title>Node9&#45;&gt;Node8</title>
<path fill="none" stroke="#404040" d="M513.2,-468.87C509.74,-447.08 503.83,-416.11 495,-390 490.45,-376.53 484.16,-362.38 478,-349.83"/>
<polygon fill="none" stroke="#404040" points="477.86,-349.53 471.58,-345.98 472.45,-338.82 478.72,-342.37 477.86,-349.53"/>
<text text-anchor="middle" x="537" y="-426" font-family="Helvetica,sans-Serif" font-size="10.00"> +downRect</text>
<text text-anchor="middle" x="537" y="-415" font-family="Helvetica,sans-Serif" font-size="10.00">+leftRect</text>
<text text-anchor="middle" x="537" y="-404" font-family="Helvetica,sans-Serif" font-size="10.00">+rightRect</text>
<text text-anchor="middle" x="537" y="-393" font-family="Helvetica,sans-Serif" font-size="10.00">+upRect</text>
</g>
<!-- Node10 -->
<g id="node10" class="node">
<title>Node10</title>
<g id="a_node10"><a xlink:href="struct_frame_graphic_1_1_game_info.html" target="_top" xlink:title="Struct contains pointers for GameInfoGraphic class.">
<polygon fill="none" stroke="black" points="685.5,-281.5 685.5,-338.5 824.5,-338.5 824.5,-281.5 685.5,-281.5"/>
<text text-anchor="middle" x="755" y="-326.5" font-family="Helvetica,sans-Serif" font-size="10.00">FrameGraphic::GameInfo</text>
<polyline fill="none" stroke="black" points="685.5,-319.5 824.5,-319.5 "/>
<text text-anchor="middle" x="755" y="-307.5" font-family="Helvetica,sans-Serif" font-size="10.00"> </text>
<polyline fill="none" stroke="black" points="685.5,-300.5 824.5,-300.5 "/>
<text text-anchor="middle" x="755" y="-288.5" font-family="Helvetica,sans-Serif" font-size="10.00"> </text>
</a>
</g>
</g>
<!-- Node10&#45;&gt;Node1 -->
<g id="edge10" class="edge">
<title>Node10&#45;&gt;Node1</title>
<path fill="none" stroke="#404040" d="M720.38,-281.46C706.71,-270.8 690.77,-258.62 676,-248 638.24,-220.84 595.92,-192.14 558.62,-167.41"/>
<polygon fill="none" stroke="#404040" points="558.26,-167.17 551.04,-167.19 548.25,-160.54 555.46,-160.52 558.26,-167.17"/>
<text text-anchor="middle" x="693" y="-222" font-family="Helvetica,sans-Serif" font-size="10.00"> &#45;gameInfoPointers</text>
</g>
<!-- Node11 -->
<g id="node11" class="node">
<title>Node11</title>
<g id="a_node11"><a xlink:title=" ">
<polygon fill="none" stroke="#bfbfbf" points="607,-469 607,-526 711,-526 711,-469 607,-469"/>
<text text-anchor="middle" x="659" y="-514" font-family="Helvetica,sans-Serif" font-size="10.00">shared_ptr&lt; int &gt;</text>
<polyline fill="none" stroke="#bfbfbf" points="607,-507 711,-507 "/>
<text text-anchor="middle" x="659" y="-495" font-family="Helvetica,sans-Serif" font-size="10.00"> </text>
<polyline fill="none" stroke="#bfbfbf" points="607,-488 711,-488 "/>
<text text-anchor="middle" x="659" y="-476" font-family="Helvetica,sans-Serif" font-size="10.00"> </text>
</a>
</g>
</g>
<!-- Node11&#45;&gt;Node10 -->
<g id="edge11" class="edge">
<title>Node11&#45;&gt;Node10</title>
<path fill="none" stroke="#404040" d="M685.6,-468.82C694.54,-458.48 704,-446.26 711,-434 726.07,-407.6 737.43,-375.11 744.82,-350.16"/>
<polygon fill="none" stroke="#404040" points="744.84,-350.12 742.64,-343.25 748.13,-338.58 750.33,-345.45 744.84,-350.12"/>
<text text-anchor="middle" x="762.5" y="-420.5" font-family="Helvetica,sans-Serif" font-size="10.00"> +level</text>
<text text-anchor="middle" x="762.5" y="-409.5" font-family="Helvetica,sans-Serif" font-size="10.00">+playerLives</text>
<text text-anchor="middle" x="762.5" y="-398.5" font-family="Helvetica,sans-Serif" font-size="10.00">+points</text>
</g>
<!-- Node12 -->
<g id="node12" class="node">
<title>Node12</title>
<g id="a_node12"><a xlink:href="struct_active_state_graphic_1_1_frame_pointers.html" target="_top" xlink:title="Stores given frame object pointers.">
<polygon fill="none" stroke="black" points="557,-276 557,-344 667,-344 667,-276 557,-276"/>
<text text-anchor="start" x="565" y="-332" font-family="Helvetica,sans-Serif" font-size="10.00">ActiveStateGraphic</text>
<text text-anchor="middle" x="612" y="-321" font-family="Helvetica,sans-Serif" font-size="10.00">::FramePointers</text>
<polyline fill="none" stroke="black" points="557,-314 667,-314 "/>
<text text-anchor="middle" x="612" y="-302" font-family="Helvetica,sans-Serif" font-size="10.00"> </text>
<polyline fill="none" stroke="black" points="557,-295 667,-295 "/>
<text text-anchor="middle" x="612" y="-283" font-family="Helvetica,sans-Serif" font-size="10.00"> </text>
</a>
</g>
</g>
<!-- Node11&#45;&gt;Node12 -->
<g id="edge13" class="edge">
<title>Node11&#45;&gt;Node12</title>
<path fill="none" stroke="#404040" d="M651.96,-468.73C644.43,-438.98 632.35,-391.32 623.44,-356.16"/>
<polygon fill="none" stroke="#404040" points="623.39,-355.93 618.03,-351.1 620.44,-344.3 625.79,-349.14 623.39,-355.93"/>
<text text-anchor="middle" x="674.5" y="-420.5" font-family="Helvetica,sans-Serif" font-size="10.00"> +level</text>
<text text-anchor="middle" x="674.5" y="-409.5" font-family="Helvetica,sans-Serif" font-size="10.00">+playerLives</text>
<text text-anchor="middle" x="674.5" y="-398.5" font-family="Helvetica,sans-Serif" font-size="10.00">+points</text>
</g>
<!-- Node12&#45;&gt;Node1 -->
<g id="edge12" class="edge">
<title>Node12&#45;&gt;Node1</title>
<path fill="none" stroke="#404040" d="M587.1,-275.66C573.63,-257.64 556.16,-234.25 538.41,-210.49"/>
<polygon fill="none" stroke="#404040" points="538.25,-210.28 531.46,-207.86 531.07,-200.66 537.87,-203.07 538.25,-210.28"/>
<text text-anchor="middle" x="589.5" y="-222" font-family="Helvetica,sans-Serif" font-size="10.00"> &#45;frameObjects</text>
</g>
</g>
</svg>
        <g id="navigator" transform="translate(0 0)" fill="#404254">
                <rect fill="#f2f5e9" fill-opacity="0.5" stroke="#606060" stroke-width=".5" x="0" y="0" width="60" height="60"/>
                <use id="zoomplus" xlink:href="#zoomPlus" x="17" y="9" onmousedown="handleZoom(evt,'in')"/>
                <use id="zoomminus" xlink:href="#zoomMin" x="42" y="9" onmousedown="handleZoom(evt,'out')"/>
                <use id="reset" xlink:href="#resetDef" x="30" y="36" onmousedown="handleReset()"/>
                <g id="arrowUp" xlink:href="#dirArrow" transform="translate(30 24)" onmousedown="handlePan(0,-1)">
                  <use xlink:href="#rim" fill="#404040">
                        <set attributeName="fill" to="#808080" begin="arrowUp.mouseover" end="arrowUp.mouseout"/>
                  </use>
                  <path fill="none" stroke="white" stroke-width="1.5" d="M0,-3.0v7 M-2.5,-0.5L0,-3.0L2.5,-0.5"/>
                </g>
                <g id="arrowRight" xlink:href="#dirArrow" transform="rotate(90) translate(36 -43)" onmousedown="handlePan(1,0)">
                  <use xlink:href="#rim" fill="#404040">
                        <set attributeName="fill" to="#808080" begin="arrowRight.mouseover" end="arrowRight.mouseout"/>
                  </use>
                  <path fill="none" stroke="white" stroke-width="1.5" d="M0,-3.0v7 M-2.5,-0.5L0,-3.0L2.5,-0.5"/>
                </g>
                <g id="arrowDown" xlink:href="#dirArrow" transform="rotate(180) translate(-30 -48)" onmousedown="handlePan(0,1)">
                  <use xlink:href="#rim" fill="#404040">
                        <set attributeName="fill" to="#808080" begin="arrowDown.mouseover" end="arrowDown.mouseout"/>
                  </use>
                  <path fill="none" stroke="white" stroke-width="1.5" d="M0,-3.0v7 M-2.5,-0.5L0,-3.0L2.5,-0.5"/>
                </g>
                <g id="arrowLeft" xlink:href="#dirArrow" transform="rotate(270) translate(-36 17)" onmousedown="handlePan(-1,0)">
                  <use xlink:href="#rim" fill="#404040">
                        <set attributeName="fill" to="#808080" begin="arrowLeft.mouseover" end="arrowLeft.mouseout"/>
                  </use>
                  <path fill="none" stroke="white" stroke-width="1.5" d="M0,-3.0v7 M-2.5,-0.5L0,-3.0L2.5,-0.5"/>
                </g>
        </g>
        <svg viewBox="0 0 15 15" width="100%" height="30px" preserveAspectRatio="xMaxYMin meet">
         <g id="arrow_out" transform="scale(0.3 0.3)">
          <a xlink:href="class_frame_graphic__coll__graph_org.svg" target="_base">
           <rect id="button" ry="5" rx="5" y="6" x="6" height="38" width="38"
                fill="#f2f5e9" fill-opacity="0.5" stroke="#606060" stroke-width="1.0"/>
           <path id="arrow"
             d="M 11.500037,31.436501 C 11.940474,20.09759 22.043105,11.32322 32.158766,21.979434 L 37.068811,17.246167 C 37.068811,17.246167 37.088388,32 37.088388,32 L 22.160133,31.978069 C 22.160133,31.978069 26.997745,27.140456 26.997745,27.140456 C 18.528582,18.264221 13.291696,25.230495 11.500037,31.436501 z"
             style="fill:#404040;"/>
          </a>
         </g>
        </svg>
</svg>
