<?xml version="1.0" encoding="UTF-8" standalone="no"?>
<!DOCTYPE svg PUBLIC "-//W3C//DTD SVG 1.1//EN"
 "http://www.w3.org/Graphics/SVG/1.1/DTD/svg11.dtd">
<!-- Generated by graphviz version 2.43.0 (0)
 -->
<!-- Title: BasicTank Pages: 1 -->
<svg width="1551pt" height="1505pt"
 viewBox="0.00 0.00 1551.00 1505.00" xmlns="http://www.w3.org/2000/svg" xmlns:xlink="http://www.w3.org/1999/xlink">
<g id="graph0" class="graph" transform="scale(1 1) rotate(0) translate(4 1501)">
<title>BasicTank</title>
<!-- Node1 -->
<g id="node1" class="node">
<title>Node1</title>
<g id="a_node1"><a xlink:title=" ">
<polygon fill="#bfbfbf" stroke="black" points="331.5,-0.5 331.5,-90.5 454.5,-90.5 454.5,-0.5 331.5,-0.5"/>
<text text-anchor="middle" x="393" y="-78.5" font-family="Helvetica,sans-Serif" font-size="10.00">BasicTank</text>
<polyline fill="none" stroke="black" points="331.5,-71.5 454.5,-71.5 "/>
<text text-anchor="middle" x="393" y="-59.5" font-family="Helvetica,sans-Serif" font-size="10.00"> </text>
<polyline fill="none" stroke="black" points="331.5,-52.5 454.5,-52.5 "/>
<text text-anchor="start" x="339.5" y="-40.5" font-family="Helvetica,sans-Serif" font-size="10.00">+ BasicTank()=delete</text>
<text text-anchor="start" x="339.5" y="-29.5" font-family="Helvetica,sans-Serif" font-size="10.00">+ BasicTank(float x,</text>
<text text-anchor="start" x="339.5" y="-18.5" font-family="Helvetica,sans-Serif" font-size="10.00"> float y, Direction</text>
<text text-anchor="start" x="339.5" y="-7.5" font-family="Helvetica,sans-Serif" font-size="10.00"> facing=North)</text>
</a>
</g>
</g>
<!-- Node2 -->
<g id="node2" class="node">
<title>Node2</title>
<g id="a_node2"><a xlink:href="class_tank.html" target="_top" xlink:title="Base class for tank representation.">
<polygon fill="none" stroke="black" points="253.5,-349 253.5,-736 422.5,-736 422.5,-349 253.5,-349"/>
<text text-anchor="middle" x="338" y="-724" font-family="Helvetica,sans-Serif" font-size="10.00">Tank</text>
<polyline fill="none" stroke="black" points="253.5,-717 422.5,-717 "/>
<text text-anchor="middle" x="338" y="-705" font-family="Helvetica,sans-Serif" font-size="10.00"> </text>
<polyline fill="none" stroke="black" points="253.5,-698 422.5,-698 "/>
<text text-anchor="start" x="261.5" y="-686" font-family="Helvetica,sans-Serif" font-size="10.00">+ void setFacing(Direction</text>
<text text-anchor="start" x="261.5" y="-675" font-family="Helvetica,sans-Serif" font-size="10.00"> direction)</text>
<text text-anchor="start" x="261.5" y="-664" font-family="Helvetica,sans-Serif" font-size="10.00">+ bool move() override</text>
<text text-anchor="start" x="261.5" y="-653" font-family="Helvetica,sans-Serif" font-size="10.00">+ bool moveBack() override</text>
<text text-anchor="start" x="261.5" y="-642" font-family="Helvetica,sans-Serif" font-size="10.00">+ void deltaLives(int</text>
<text text-anchor="start" x="261.5" y="-631" font-family="Helvetica,sans-Serif" font-size="10.00"> delta_l)</text>
<text text-anchor="start" x="261.5" y="-620" font-family="Helvetica,sans-Serif" font-size="10.00">+ TankType getType()</text>
<text text-anchor="start" x="261.5" y="-609" font-family="Helvetica,sans-Serif" font-size="10.00"> const</text>
<text text-anchor="start" x="261.5" y="-598" font-family="Helvetica,sans-Serif" font-size="10.00">+ unsigned int getLives</text>
<text text-anchor="start" x="261.5" y="-587" font-family="Helvetica,sans-Serif" font-size="10.00">() const</text>
<text text-anchor="start" x="261.5" y="-576" font-family="Helvetica,sans-Serif" font-size="10.00">+ void setMoving(bool</text>
<text text-anchor="start" x="261.5" y="-565" font-family="Helvetica,sans-Serif" font-size="10.00"> isMoving)</text>
<text text-anchor="start" x="261.5" y="-554" font-family="Helvetica,sans-Serif" font-size="10.00">+ bool isMoving() const</text>
<text text-anchor="start" x="261.5" y="-543" font-family="Helvetica,sans-Serif" font-size="10.00">+ unsigned int getPoints</text>
<text text-anchor="start" x="261.5" y="-532" font-family="Helvetica,sans-Serif" font-size="10.00">() const</text>
<text text-anchor="start" x="261.5" y="-521" font-family="Helvetica,sans-Serif" font-size="10.00">+ void setX(float x)</text>
<text text-anchor="start" x="261.5" y="-510" font-family="Helvetica,sans-Serif" font-size="10.00">+ void setY(float y)</text>
<text text-anchor="start" x="261.5" y="-499" font-family="Helvetica,sans-Serif" font-size="10.00">+ void offsetInCurrentDirection</text>
<text text-anchor="start" x="261.5" y="-488" font-family="Helvetica,sans-Serif" font-size="10.00">(float offset)</text>
<text text-anchor="start" x="261.5" y="-477" font-family="Helvetica,sans-Serif" font-size="10.00">+ std::optional&lt; std</text>
<text text-anchor="start" x="261.5" y="-466" font-family="Helvetica,sans-Serif" font-size="10.00">::shared_ptr&lt; Bullet</text>
<text text-anchor="start" x="261.5" y="-455" font-family="Helvetica,sans-Serif" font-size="10.00"> &gt; &gt; createBullet()</text>
<text text-anchor="start" x="261.5" y="-444" font-family="Helvetica,sans-Serif" font-size="10.00">+ void notify(SimplePublisher</text>
<text text-anchor="start" x="261.5" y="-433" font-family="Helvetica,sans-Serif" font-size="10.00"> *pub) override</text>
<text text-anchor="start" x="261.5" y="-422" font-family="Helvetica,sans-Serif" font-size="10.00">+ std::optional&lt; Bullet</text>
<text text-anchor="start" x="261.5" y="-411" font-family="Helvetica,sans-Serif" font-size="10.00"> * &gt; getBullet()</text>
<text text-anchor="start" x="261.5" y="-400" font-family="Helvetica,sans-Serif" font-size="10.00"># Tank(TankType type,</text>
<text text-anchor="start" x="261.5" y="-389" font-family="Helvetica,sans-Serif" font-size="10.00"> float x, float y, float</text>
<text text-anchor="start" x="261.5" y="-378" font-family="Helvetica,sans-Serif" font-size="10.00"> speed, float bulletSpeed,</text>
<text text-anchor="start" x="261.5" y="-367" font-family="Helvetica,sans-Serif" font-size="10.00"> unsigned int lives, Direction</text>
<text text-anchor="start" x="261.5" y="-356" font-family="Helvetica,sans-Serif" font-size="10.00"> direction, unsigned int points)</text>
</a>
</g>
</g>
<!-- Node2&#45;&gt;Node1 -->
<g id="edge1" class="edge">
<title>Node2&#45;&gt;Node1</title>
<path fill="none" stroke="midnightblue" d="M360.53,-338.7C370.74,-246.86 381.89,-146.53 388.1,-90.58"/>
<polygon fill="none" stroke="midnightblue" points="357.05,-338.38 359.42,-348.7 364,-339.15 357.05,-338.38"/>
</g>
<!-- Node3 -->
<g id="node3" class="node">
<title>Node3</title>
<g id="a_node3"><a xlink:href="class_entity.html" target="_top" xlink:title=" ">
<polygon fill="none" stroke="black" points="0,-866.5 0,-1077.5 160,-1077.5 160,-866.5 0,-866.5"/>
<text text-anchor="middle" x="80" y="-1065.5" font-family="Helvetica,sans-Serif" font-size="10.00">Entity</text>
<polyline fill="none" stroke="black" points="0,-1058.5 160,-1058.5 "/>
<text text-anchor="middle" x="80" y="-1046.5" font-family="Helvetica,sans-Serif" font-size="10.00"> </text>
<polyline fill="none" stroke="black" points="0,-1039.5 160,-1039.5 "/>
<text text-anchor="start" x="8" y="-1027.5" font-family="Helvetica,sans-Serif" font-size="10.00">+ virtual ~Entity()=default</text>
<text text-anchor="start" x="8" y="-1016.5" font-family="Helvetica,sans-Serif" font-size="10.00">+ virtual bool move()=0</text>
<text text-anchor="start" x="8" y="-1005.5" font-family="Helvetica,sans-Serif" font-size="10.00">+ virtual bool moveBack()=0</text>
<text text-anchor="start" x="8" y="-994.5" font-family="Helvetica,sans-Serif" font-size="10.00">+ float getX() const</text>
<text text-anchor="start" x="8" y="-983.5" font-family="Helvetica,sans-Serif" font-size="10.00">+ float getY() const</text>
<text text-anchor="start" x="8" y="-972.5" font-family="Helvetica,sans-Serif" font-size="10.00">+ float getSpeed() const</text>
<text text-anchor="start" x="8" y="-961.5" font-family="Helvetica,sans-Serif" font-size="10.00">+ Direction getFacing</text>
<text text-anchor="start" x="8" y="-950.5" font-family="Helvetica,sans-Serif" font-size="10.00">() const</text>
<text text-anchor="start" x="8" y="-939.5" font-family="Helvetica,sans-Serif" font-size="10.00">+ float getSizeX() const</text>
<text text-anchor="start" x="8" y="-928.5" font-family="Helvetica,sans-Serif" font-size="10.00">+ float getSizeY() const</text>
<text text-anchor="start" x="8" y="-917.5" font-family="Helvetica,sans-Serif" font-size="10.00"># Entity()=default</text>
<text text-anchor="start" x="8" y="-906.5" font-family="Helvetica,sans-Serif" font-size="10.00"># Entity(float x, float</text>
<text text-anchor="start" x="8" y="-895.5" font-family="Helvetica,sans-Serif" font-size="10.00"> y, float sizeX, float</text>
<text text-anchor="start" x="8" y="-884.5" font-family="Helvetica,sans-Serif" font-size="10.00"> sizeY, float speed, Direction</text>
<text text-anchor="start" x="8" y="-873.5" font-family="Helvetica,sans-Serif" font-size="10.00"> facing)</text>
</a>
</g>
</g>
<!-- Node3&#45;&gt;Node2 -->
<g id="edge2" class="edge">
<title>Node3&#45;&gt;Node2</title>
<path fill="none" stroke="midnightblue" d="M139.33,-857.34C152.96,-832.3 167.67,-806.07 182,-782 204.28,-744.59 229.67,-704.72 253.41,-668.5"/>
<polygon fill="none" stroke="midnightblue" points="136.25,-855.68 134.56,-866.14 142.4,-859.01 136.25,-855.68"/>
</g>
<!-- Node11 -->
<g id="node11" class="node">
<title>Node11</title>
<g id="a_node11"><a xlink:href="class_bot.html" target="_top" xlink:title=" ">
<polygon fill="none" stroke="black" points="449,-128.5 449,-273.5 611,-273.5 611,-128.5 449,-128.5"/>
<text text-anchor="middle" x="530" y="-261.5" font-family="Helvetica,sans-Serif" font-size="10.00">Bot</text>
<polyline fill="none" stroke="black" points="449,-254.5 611,-254.5 "/>
<text text-anchor="middle" x="530" y="-242.5" font-family="Helvetica,sans-Serif" font-size="10.00"> </text>
<polyline fill="none" stroke="black" points="449,-235.5 611,-235.5 "/>
<text text-anchor="start" x="457" y="-223.5" font-family="Helvetica,sans-Serif" font-size="10.00">+ ~Bot() override</text>
<text text-anchor="start" x="457" y="-212.5" font-family="Helvetica,sans-Serif" font-size="10.00">+ void notify(SimplePublisher</text>
<text text-anchor="start" x="457" y="-201.5" font-family="Helvetica,sans-Serif" font-size="10.00"> *pub) override</text>
<text text-anchor="start" x="457" y="-190.5" font-family="Helvetica,sans-Serif" font-size="10.00">+ void requestDecision()</text>
<text text-anchor="start" x="457" y="-179.5" font-family="Helvetica,sans-Serif" font-size="10.00"># Bot()=default</text>
<text text-anchor="start" x="457" y="-168.5" font-family="Helvetica,sans-Serif" font-size="10.00"># Bot(float x, float</text>
<text text-anchor="start" x="457" y="-157.5" font-family="Helvetica,sans-Serif" font-size="10.00"> y, float sizeX, float</text>
<text text-anchor="start" x="457" y="-146.5" font-family="Helvetica,sans-Serif" font-size="10.00"> sizeY, float speed, Direction</text>
<text text-anchor="start" x="457" y="-135.5" font-family="Helvetica,sans-Serif" font-size="10.00"> facing)</text>
</a>
</g>
</g>
<!-- Node3&#45;&gt;Node11 -->
<g id="edge12" class="edge">
<title>Node3&#45;&gt;Node11</title>
<path fill="none" stroke="midnightblue" d="M79.37,-856.24C84.62,-714.25 114.09,-472.72 245,-321 297.02,-260.72 384.59,-230.33 448.96,-215.44"/>
<polygon fill="none" stroke="midnightblue" points="75.87,-856.18 79.03,-866.29 82.87,-856.42 75.87,-856.18"/>
</g>
<!-- Node4 -->
<g id="node4" class="node">
<title>Node4</title>
<g id="a_node4"><a xlink:title=" ">
<polygon fill="none" stroke="black" points="128,-1246.5 128,-1303.5 166,-1303.5 166,-1246.5 128,-1246.5"/>
<text text-anchor="middle" x="147" y="-1291.5" font-family="Helvetica,sans-Serif" font-size="10.00">float</text>
<polyline fill="none" stroke="black" points="128,-1284.5 166,-1284.5 "/>
<text text-anchor="middle" x="147" y="-1272.5" font-family="Helvetica,sans-Serif" font-size="10.00"> </text>
<polyline fill="none" stroke="black" points="128,-1265.5 166,-1265.5 "/>
<text text-anchor="middle" x="147" y="-1253.5" font-family="Helvetica,sans-Serif" font-size="10.00"> </text>
</a>
</g>
</g>
<!-- Node4&#45;&gt;Node2 -->
<g id="edge10" class="edge">
<title>Node4&#45;&gt;Node2</title>
<path fill="none" stroke="#404040" d="M153.34,-1246.28C158.85,-1221.43 166.76,-1183.93 172,-1151 192.05,-1025.07 173.06,-989.45 205,-866 216.21,-822.67 232.03,-777.49 248.87,-735.13"/>
<polygon fill="none" stroke="#404040" points="248.93,-734.98 247.45,-727.92 253.4,-723.84 254.88,-730.9 248.93,-734.98"/>
<text text-anchor="middle" x="242.5" y="-969.5" font-family="Helvetica,sans-Serif" font-size="10.00"> #bulletSpeed_</text>
</g>
<!-- Node4&#45;&gt;Node3 -->
<g id="edge3" class="edge">
<title>Node4&#45;&gt;Node3</title>
<path fill="none" stroke="#404040" d="M140.88,-1246.49C132.96,-1210.92 118.67,-1146.72 105.92,-1089.47"/>
<polygon fill="none" stroke="#404040" points="105.92,-1089.46 100.71,-1084.47 103.31,-1077.74 108.52,-1082.73 105.92,-1089.46"/>
<text text-anchor="middle" x="144" y="-1143" font-family="Helvetica,sans-Serif" font-size="10.00"> #size_x_</text>
<text text-anchor="middle" x="144" y="-1132" font-family="Helvetica,sans-Serif" font-size="10.00">#size_y_</text>
<text text-anchor="middle" x="144" y="-1121" font-family="Helvetica,sans-Serif" font-size="10.00">#speed_</text>
<text text-anchor="middle" x="144" y="-1110" font-family="Helvetica,sans-Serif" font-size="10.00">#x_</text>
<text text-anchor="middle" x="144" y="-1099" font-family="Helvetica,sans-Serif" font-size="10.00">#y_</text>
</g>
<!-- Node5 -->
<g id="node5" class="node">
<title>Node5</title>
<g id="a_node5"><a xlink:title=" ">
<polygon fill="none" stroke="black" points="198.5,-1246.5 198.5,-1303.5 259.5,-1303.5 259.5,-1246.5 198.5,-1246.5"/>
<text text-anchor="middle" x="229" y="-1291.5" font-family="Helvetica,sans-Serif" font-size="10.00">Direction</text>
<polyline fill="none" stroke="black" points="198.5,-1284.5 259.5,-1284.5 "/>
<text text-anchor="middle" x="229" y="-1272.5" font-family="Helvetica,sans-Serif" font-size="10.00"> </text>
<polyline fill="none" stroke="black" points="198.5,-1265.5 259.5,-1265.5 "/>
<text text-anchor="middle" x="229" y="-1253.5" font-family="Helvetica,sans-Serif" font-size="10.00"> </text>
</a>
</g>
</g>
<!-- Node5&#45;&gt;Node3 -->
<g id="edge4" class="edge">
<title>Node5&#45;&gt;Node3</title>
<path fill="none" stroke="#404040" d="M223.17,-1246.36C214.91,-1210.38 197.87,-1146.18 172,-1096 170.2,-1092.5 168.3,-1089 166.32,-1085.51"/>
<polygon fill="none" stroke="#404040" points="166.25,-1085.39 159.75,-1082.26 160.15,-1075.06 166.64,-1078.19 166.25,-1085.39"/>
<text text-anchor="middle" x="218.5" y="-1121" font-family="Helvetica,sans-Serif" font-size="10.00"> #facing_</text>
</g>
<!-- Node6 -->
<g id="node6" class="node">
<title>Node6</title>
<g id="a_node6"><a xlink:href="class_simple_subscriber.html" target="_top" xlink:title=" ">
<polygon fill="none" stroke="black" points="369.5,-888.5 369.5,-1055.5 562.5,-1055.5 562.5,-888.5 369.5,-888.5"/>
<text text-anchor="middle" x="466" y="-1043.5" font-family="Helvetica,sans-Serif" font-size="10.00">SimpleSubscriber</text>
<polyline fill="none" stroke="black" points="369.5,-1036.5 562.5,-1036.5 "/>
<text text-anchor="middle" x="466" y="-1024.5" font-family="Helvetica,sans-Serif" font-size="10.00"> </text>
<polyline fill="none" stroke="black" points="369.5,-1017.5 562.5,-1017.5 "/>
<text text-anchor="start" x="377.5" y="-1005.5" font-family="Helvetica,sans-Serif" font-size="10.00">+ ~SimpleSubscriber()</text>
<text text-anchor="start" x="377.5" y="-994.5" font-family="Helvetica,sans-Serif" font-size="10.00">+ void subscribe(SimplePublisher</text>
<text text-anchor="start" x="377.5" y="-983.5" font-family="Helvetica,sans-Serif" font-size="10.00"> *pub)</text>
<text text-anchor="start" x="377.5" y="-972.5" font-family="Helvetica,sans-Serif" font-size="10.00">+ void unsubscribe(SimplePublisher</text>
<text text-anchor="start" x="377.5" y="-961.5" font-family="Helvetica,sans-Serif" font-size="10.00"> *pub)</text>
<text text-anchor="start" x="377.5" y="-950.5" font-family="Helvetica,sans-Serif" font-size="10.00">+ void removeDeletedSubject</text>
<text text-anchor="start" x="377.5" y="-939.5" font-family="Helvetica,sans-Serif" font-size="10.00">(SimplePublisher *pub)</text>
<text text-anchor="start" x="377.5" y="-928.5" font-family="Helvetica,sans-Serif" font-size="10.00">+ virtual void notify</text>
<text text-anchor="start" x="377.5" y="-917.5" font-family="Helvetica,sans-Serif" font-size="10.00">(SimplePublisher *pub)=0</text>
<text text-anchor="start" x="377.5" y="-906.5" font-family="Helvetica,sans-Serif" font-size="10.00"># SimpleSubscriber()</text>
<text text-anchor="start" x="377.5" y="-895.5" font-family="Helvetica,sans-Serif" font-size="10.00">=default</text>
</a>
</g>
</g>
<!-- Node6&#45;&gt;Node2 -->
<g id="edge5" class="edge">
<title>Node6&#45;&gt;Node2</title>
<path fill="none" stroke="midnightblue" d="M438.37,-878.72C425.85,-836.9 410.55,-785.8 395.7,-736.22"/>
<polygon fill="none" stroke="midnightblue" points="435.02,-879.74 441.24,-888.32 441.73,-877.74 435.02,-879.74"/>
</g>
<!-- Node6&#45;&gt;Node11 -->
<g id="edge13" class="edge">
<title>Node6&#45;&gt;Node11</title>
<path fill="none" stroke="midnightblue" d="M463.25,-877.92C462.95,-847.34 463.26,-813.2 465,-782 475.27,-598.13 503.72,-382.99 519.36,-273.67"/>
<polygon fill="none" stroke="midnightblue" points="459.75,-878.19 463.37,-888.14 466.75,-878.1 459.75,-878.19"/>
</g>
<!-- Node13 -->
<g id="node13" class="node">
<title>Node13</title>
<g id="a_node13"><a xlink:href="class_bot_controller.html" target="_top" xlink:title=" ">
<polygon fill="none" stroke="black" points="824,-321.5 824,-763.5 1006,-763.5 1006,-321.5 824,-321.5"/>
<text text-anchor="middle" x="915" y="-751.5" font-family="Helvetica,sans-Serif" font-size="10.00">BotController</text>
<polyline fill="none" stroke="black" points="824,-744.5 1006,-744.5 "/>
<text text-anchor="middle" x="915" y="-732.5" font-family="Helvetica,sans-Serif" font-size="10.00"> </text>
<polyline fill="none" stroke="black" points="824,-725.5 1006,-725.5 "/>
<text text-anchor="start" x="832" y="-713.5" font-family="Helvetica,sans-Serif" font-size="10.00">+ BotController()=delete</text>
<text text-anchor="start" x="832" y="-702.5" font-family="Helvetica,sans-Serif" font-size="10.00">+ BotController &amp; operator</text>
<text text-anchor="start" x="832" y="-691.5" font-family="Helvetica,sans-Serif" font-size="10.00">=(const BotController &amp;other)</text>
<text text-anchor="start" x="832" y="-680.5" font-family="Helvetica,sans-Serif" font-size="10.00">=delete</text>
<text text-anchor="start" x="832" y="-669.5" font-family="Helvetica,sans-Serif" font-size="10.00">+ void makeBotDecision</text>
<text text-anchor="start" x="832" y="-658.5" font-family="Helvetica,sans-Serif" font-size="10.00">(const std::shared_ptr</text>
<text text-anchor="start" x="832" y="-647.5" font-family="Helvetica,sans-Serif" font-size="10.00">&lt; Bot &gt; &amp;bot)</text>
<text text-anchor="start" x="832" y="-636.5" font-family="Helvetica,sans-Serif" font-size="10.00">+ void registerBot()</text>
<text text-anchor="start" x="832" y="-625.5" font-family="Helvetica,sans-Serif" font-size="10.00">+ void deregisterBot()</text>
<text text-anchor="start" x="832" y="-614.5" font-family="Helvetica,sans-Serif" font-size="10.00">+ void deregisterAllBots()</text>
<text text-anchor="start" x="832" y="-603.5" font-family="Helvetica,sans-Serif" font-size="10.00">+ unsigned int getRegistered</text>
<text text-anchor="start" x="832" y="-592.5" font-family="Helvetica,sans-Serif" font-size="10.00">BotsCount() const</text>
<text text-anchor="start" x="832" y="-581.5" font-family="Helvetica,sans-Serif" font-size="10.00">+ void notify(SimplePublisher</text>
<text text-anchor="start" x="832" y="-570.5" font-family="Helvetica,sans-Serif" font-size="10.00"> *pub) override</text>
<text text-anchor="start" x="832" y="-559.5" font-family="Helvetica,sans-Serif" font-size="10.00">+ void setSpawnpoints</text>
<text text-anchor="start" x="832" y="-548.5" font-family="Helvetica,sans-Serif" font-size="10.00">(const std::vector&lt;</text>
<text text-anchor="start" x="832" y="-537.5" font-family="Helvetica,sans-Serif" font-size="10.00"> std::pair&lt; unsigned</text>
<text text-anchor="start" x="832" y="-526.5" font-family="Helvetica,sans-Serif" font-size="10.00"> int, unsigned int &gt; &gt;</text>
<text text-anchor="start" x="832" y="-515.5" font-family="Helvetica,sans-Serif" font-size="10.00"> &amp;spawnpoints)</text>
<text text-anchor="start" x="832" y="-504.5" font-family="Helvetica,sans-Serif" font-size="10.00">+ void setTypes(const</text>
<text text-anchor="start" x="832" y="-493.5" font-family="Helvetica,sans-Serif" font-size="10.00"> std::queue&lt; Tank::TankType</text>
<text text-anchor="start" x="832" y="-482.5" font-family="Helvetica,sans-Serif" font-size="10.00"> &gt; &amp;types)</text>
<text text-anchor="start" x="832" y="-471.5" font-family="Helvetica,sans-Serif" font-size="10.00">+ void setCounting(bool</text>
<text text-anchor="start" x="832" y="-460.5" font-family="Helvetica,sans-Serif" font-size="10.00"> counting)</text>
<text text-anchor="start" x="832" y="-449.5" font-family="Helvetica,sans-Serif" font-size="10.00">+ void zeroCooldown()</text>
<text text-anchor="start" x="832" y="-438.5" font-family="Helvetica,sans-Serif" font-size="10.00">+ unsigned int getRemaining</text>
<text text-anchor="start" x="832" y="-427.5" font-family="Helvetica,sans-Serif" font-size="10.00">BotsCount()</text>
<text text-anchor="start" x="832" y="-416.5" font-family="Helvetica,sans-Serif" font-size="10.00">+ static BotController</text>
<text text-anchor="start" x="832" y="-405.5" font-family="Helvetica,sans-Serif" font-size="10.00"> * instance()</text>
<text text-anchor="start" x="832" y="-394.5" font-family="Helvetica,sans-Serif" font-size="10.00">+ static void initialize</text>
<text text-anchor="start" x="832" y="-383.5" font-family="Helvetica,sans-Serif" font-size="10.00">(unsigned int maxRegisteredBots,</text>
<text text-anchor="start" x="832" y="-372.5" font-family="Helvetica,sans-Serif" font-size="10.00"> unsigned int spawnCooldown)</text>
<text text-anchor="start" x="832" y="-361.5" font-family="Helvetica,sans-Serif" font-size="10.00"># BotController(unsigned</text>
<text text-anchor="start" x="832" y="-350.5" font-family="Helvetica,sans-Serif" font-size="10.00"> int n_maxRegisteredBots,</text>
<text text-anchor="start" x="832" y="-339.5" font-family="Helvetica,sans-Serif" font-size="10.00"> unsigned int n_spawnCooldown)</text>
<text text-anchor="start" x="832" y="-328.5" font-family="Helvetica,sans-Serif" font-size="10.00"># void requestSpawnBot()</text>
</a>
</g>
</g>
<!-- Node6&#45;&gt;Node13 -->
<g id="edge17" class="edge">
<title>Node6&#45;&gt;Node13</title>
<path fill="none" stroke="midnightblue" d="M466.36,-878.28C468.65,-837.35 474.62,-795.46 489,-782 515.48,-757.21 785.06,-784.49 815,-764 817.95,-761.98 820.81,-759.86 823.59,-757.63"/>
<polygon fill="none" stroke="midnightblue" points="462.86,-878.21 465.87,-888.37 469.86,-878.55 462.86,-878.21"/>
</g>
<!-- Node7 -->
<g id="node7" class="node">
<title>Node7</title>
<g id="a_node7"><a xlink:title=" ">
<polygon fill="none" stroke="black" points="387.5,-1246.5 387.5,-1303.5 544.5,-1303.5 544.5,-1246.5 387.5,-1246.5"/>
<text text-anchor="middle" x="466" y="-1291.5" font-family="Helvetica,sans-Serif" font-size="10.00">vector&lt; SimplePublisher * &gt;</text>
<polyline fill="none" stroke="black" points="387.5,-1284.5 544.5,-1284.5 "/>
<text text-anchor="middle" x="466" y="-1272.5" font-family="Helvetica,sans-Serif" font-size="10.00"> </text>
<polyline fill="none" stroke="black" points="387.5,-1265.5 544.5,-1265.5 "/>
<text text-anchor="middle" x="466" y="-1253.5" font-family="Helvetica,sans-Serif" font-size="10.00"> </text>
</a>
</g>
</g>
<!-- Node7&#45;&gt;Node6 -->
<g id="edge6" class="edge">
<title>Node7&#45;&gt;Node6</title>
<path fill="none" stroke="#404040" d="M466,-1246.49C466,-1206.35 466,-1129.78 466,-1067.84"/>
<polygon fill="none" stroke="#404040" points="466,-1067.67 462,-1061.67 466,-1055.67 470,-1061.67 466,-1067.67"/>
<text text-anchor="middle" x="521.5" y="-1121" font-family="Helvetica,sans-Serif" font-size="10.00"> #subscribedSubjects_</text>
</g>
<!-- Node8 -->
<g id="node8" class="node">
<title>Node8</title>
<g id="a_node8"><a xlink:title=" ">
<polygon fill="none" stroke="black" points="289,-943.5 289,-1000.5 351,-1000.5 351,-943.5 289,-943.5"/>
<text text-anchor="middle" x="320" y="-988.5" font-family="Helvetica,sans-Serif" font-size="10.00">TankType</text>
<polyline fill="none" stroke="black" points="289,-981.5 351,-981.5 "/>
<text text-anchor="middle" x="320" y="-969.5" font-family="Helvetica,sans-Serif" font-size="10.00"> </text>
<polyline fill="none" stroke="black" points="289,-962.5 351,-962.5 "/>
<text text-anchor="middle" x="320" y="-950.5" font-family="Helvetica,sans-Serif" font-size="10.00"> </text>
</a>
</g>
</g>
<!-- Node8&#45;&gt;Node2 -->
<g id="edge7" class="edge">
<title>Node8&#45;&gt;Node2</title>
<path fill="none" stroke="#404040" d="M321.17,-943.28C322.86,-903.06 326.15,-824.93 329.38,-748.34"/>
<polygon fill="none" stroke="#404040" points="329.39,-748.05 325.64,-741.89 329.89,-736.06 333.64,-742.22 329.39,-748.05"/>
<text text-anchor="middle" x="346.5" y="-812.5" font-family="Helvetica,sans-Serif" font-size="10.00"> #type_</text>
</g>
<!-- Node9 -->
<g id="node9" class="node">
<title>Node9</title>
<g id="a_node9"><a xlink:title=" ">
<polygon fill="none" stroke="black" points="580.5,-943.5 580.5,-1000.5 657.5,-1000.5 657.5,-943.5 580.5,-943.5"/>
<text text-anchor="middle" x="619" y="-988.5" font-family="Helvetica,sans-Serif" font-size="10.00">unsigned int</text>
<polyline fill="none" stroke="black" points="580.5,-981.5 657.5,-981.5 "/>
<text text-anchor="middle" x="619" y="-969.5" font-family="Helvetica,sans-Serif" font-size="10.00"> </text>
<polyline fill="none" stroke="black" points="580.5,-962.5 657.5,-962.5 "/>
<text text-anchor="middle" x="619" y="-950.5" font-family="Helvetica,sans-Serif" font-size="10.00"> </text>
</a>
</g>
</g>
<!-- Node9&#45;&gt;Node2 -->
<g id="edge8" class="edge">
<title>Node9&#45;&gt;Node2</title>
<path fill="none" stroke="#404040" d="M613.51,-943.4C607.37,-919.61 595.09,-886.01 572,-866 549.99,-846.93 531.85,-866.05 509,-848 474.65,-820.86 446.07,-784.8 422.74,-747.01"/>
<polygon fill="none" stroke="#404040" points="422.49,-746.6 415.97,-743.52 416.3,-736.32 422.82,-739.39 422.49,-746.6"/>
<text text-anchor="middle" x="531" y="-818" font-family="Helvetica,sans-Serif" font-size="10.00"> #lives_</text>
<text text-anchor="middle" x="531" y="-807" font-family="Helvetica,sans-Serif" font-size="10.00">#points_</text>
</g>
<!-- Node9&#45;&gt;Node11 -->
<g id="edge15" class="edge">
<title>Node9&#45;&gt;Node11</title>
<path fill="none" stroke="#404040" d="M609.7,-943.4C601.59,-918.64 589.93,-881.18 582,-848 573.19,-811.11 571.59,-801.65 567,-764 546.42,-595.07 536.72,-396.08 532.62,-285.98"/>
<polygon fill="none" stroke="#404040" points="532.61,-285.65 528.39,-279.79 532.17,-273.65 536.39,-279.5 532.61,-285.65"/>
<text text-anchor="middle" x="627.5" y="-545.5" font-family="Helvetica,sans-Serif" font-size="10.00"> #decisionCooldown</text>
<text text-anchor="middle" x="627.5" y="-534.5" font-family="Helvetica,sans-Serif" font-size="10.00">#maxDecisionCooldown</text>
</g>
<!-- Node9&#45;&gt;Node13 -->
<g id="edge20" class="edge">
<title>Node9&#45;&gt;Node13</title>
<path fill="none" stroke="#404040" d="M606.92,-943.47C591.08,-902.59 569.73,-825.96 610,-782 638.78,-750.58 759.48,-785.02 813.28,-762.92"/>
<polygon fill="none" stroke="#404040" points="813.44,-762.83 816.8,-756.45 823.98,-757.09 820.63,-763.48 813.44,-762.83"/>
<text text-anchor="start" x="610" y="-840" font-family="Helvetica,sans-Serif" font-size="10.00"> #maxRegisteredBots</text>
<text text-anchor="middle" x="665.5" y="-829" font-family="Helvetica,sans-Serif" font-size="10.00">_</text>
<text text-anchor="middle" x="665.5" y="-818" font-family="Helvetica,sans-Serif" font-size="10.00">#maxSpawnCooldown</text>
<text text-anchor="start" x="610" y="-807" font-family="Helvetica,sans-Serif" font-size="10.00">#registeredBots</text>
<text text-anchor="middle" x="665.5" y="-796" font-family="Helvetica,sans-Serif" font-size="10.00">_</text>
<text text-anchor="middle" x="665.5" y="-785" font-family="Helvetica,sans-Serif" font-size="10.00">#spawnCooldown</text>
</g>
<!-- Node10 -->
<g id="node10" class="node">
<title>Node10</title>
<g id="a_node10"><a xlink:title=" ">
<polygon fill="none" stroke="black" points="724,-943.5 724,-1000.5 762,-1000.5 762,-943.5 724,-943.5"/>
<text text-anchor="middle" x="743" y="-988.5" font-family="Helvetica,sans-Serif" font-size="10.00">bool</text>
<polyline fill="none" stroke="black" points="724,-981.5 762,-981.5 "/>
<text text-anchor="middle" x="743" y="-969.5" font-family="Helvetica,sans-Serif" font-size="10.00"> </text>
<polyline fill="none" stroke="black" points="724,-962.5 762,-962.5 "/>
<text text-anchor="middle" x="743" y="-950.5" font-family="Helvetica,sans-Serif" font-size="10.00"> </text>
</a>
</g>
</g>
<!-- Node10&#45;&gt;Node2 -->
<g id="edge9" class="edge">
<title>Node10&#45;&gt;Node2</title>
<path fill="none" stroke="#404040" d="M741.66,-943.16C739,-893.34 732.29,-793.07 721,-782 691.35,-752.92 572.04,-782.77 535,-764 495.45,-743.96 460.16,-712.33 430.76,-679.23"/>
<polygon fill="none" stroke="#404040" points="430.49,-678.92 423.54,-677.01 422.62,-669.86 429.58,-671.77 430.49,-678.92"/>
<text text-anchor="middle" x="761" y="-812.5" font-family="Helvetica,sans-Serif" font-size="10.00"> #moving_</text>
</g>
<!-- Node10&#45;&gt;Node13 -->
<g id="edge21" class="edge">
<title>Node10&#45;&gt;Node13</title>
<path fill="none" stroke="#404040" d="M745.01,-943.28C747.83,-920.67 754.63,-888.85 771,-866 779.4,-854.28 789.49,-859.64 798,-848 816.02,-823.36 806.96,-810.83 817,-782 817.95,-779.28 818.91,-776.55 819.88,-773.8"/>
<polygon fill="none" stroke="#404040" points="819.9,-773.75 818.17,-766.75 823.96,-762.46 825.69,-769.46 819.9,-773.75"/>
<text text-anchor="middle" x="844" y="-812.5" font-family="Helvetica,sans-Serif" font-size="10.00"> #counting</text>
</g>
<!-- Node11&#45;&gt;Node1 -->
<g id="edge11" class="edge">
<title>Node11&#45;&gt;Node1</title>
<path fill="none" stroke="midnightblue" d="M459.21,-120.69C450.01,-110.37 440.86,-100.12 432.43,-90.68"/>
<polygon fill="none" stroke="midnightblue" points="456.64,-123.06 465.91,-128.19 461.86,-118.4 456.64,-123.06"/>
</g>
<!-- Node12 -->
<g id="node12" class="node">
<title>Node12</title>
<g id="a_node12"><a xlink:title=" ">
<polygon fill="none" stroke="black" points="696.5,-508.5 696.5,-576.5 805.5,-576.5 805.5,-508.5 696.5,-508.5"/>
<text text-anchor="start" x="704.5" y="-564.5" font-family="Helvetica,sans-Serif" font-size="10.00">std::enable_shared</text>
<text text-anchor="middle" x="751" y="-553.5" font-family="Helvetica,sans-Serif" font-size="10.00">_from_this&lt; Bot &gt;</text>
<polyline fill="none" stroke="black" points="696.5,-546.5 805.5,-546.5 "/>
<text text-anchor="middle" x="751" y="-534.5" font-family="Helvetica,sans-Serif" font-size="10.00"> </text>
<polyline fill="none" stroke="black" points="696.5,-527.5 805.5,-527.5 "/>
<text text-anchor="middle" x="751" y="-515.5" font-family="Helvetica,sans-Serif" font-size="10.00"> </text>
</a>
</g>
</g>
<!-- Node12&#45;&gt;Node11 -->
<g id="edge14" class="edge">
<title>Node12&#45;&gt;Node11</title>
<path fill="none" stroke="midnightblue" d="M745.3,-498.27C737.4,-451.21 719.62,-375.41 682,-321 663.42,-294.12 636.94,-270.46 611.28,-251.45"/>
<polygon fill="none" stroke="midnightblue" points="741.84,-498.83 746.88,-508.15 748.75,-497.72 741.84,-498.83"/>
</g>
<!-- Node13&#45;&gt;Node11 -->
<g id="edge16" class="edge">
<title>Node13&#45;&gt;Node11</title>
<path fill="none" stroke="#404040" d="M823.8,-330.09C820.95,-326.96 818.02,-323.93 815,-321 762.13,-269.7 683.91,-239.19 622.79,-221.93"/>
<polygon fill="none" stroke="#404040" points="622.77,-221.92 615.93,-224.2 611.2,-218.75 618.04,-216.48 622.77,-221.92"/>
<text text-anchor="middle" x="827" y="-295" font-family="Helvetica,sans-Serif" font-size="10.00"> #botController</text>
</g>
<!-- Node14 -->
<g id="node14" class="node">
<title>Node14</title>
<g id="a_node14"><a xlink:title=" ">
<polygon fill="none" stroke="black" points="780,-932.5 780,-1011.5 910,-1011.5 910,-932.5 780,-932.5"/>
<text text-anchor="start" x="788" y="-999.5" font-family="Helvetica,sans-Serif" font-size="10.00">vector&lt; std::pair&lt;</text>
<text text-anchor="start" x="788" y="-988.5" font-family="Helvetica,sans-Serif" font-size="10.00"> unsigned int, unsigned</text>
<text text-anchor="middle" x="845" y="-977.5" font-family="Helvetica,sans-Serif" font-size="10.00"> int &gt; &gt;</text>
<polyline fill="none" stroke="black" points="780,-970.5 910,-970.5 "/>
<text text-anchor="middle" x="845" y="-958.5" font-family="Helvetica,sans-Serif" font-size="10.00"> </text>
<polyline fill="none" stroke="black" points="780,-951.5 910,-951.5 "/>
<text text-anchor="middle" x="845" y="-939.5" font-family="Helvetica,sans-Serif" font-size="10.00"> </text>
</a>
</g>
</g>
<!-- Node14&#45;&gt;Node13 -->
<g id="edge18" class="edge">
<title>Node14&#45;&gt;Node13</title>
<path fill="none" stroke="#404040" d="M855.54,-932.46C861.86,-908.33 869.67,-876.52 875,-848 879.36,-824.69 883.41,-800.29 887.13,-775.88"/>
<polygon fill="none" stroke="#404040" points="887.15,-775.77 884.08,-769.25 888.93,-763.91 892,-770.43 887.15,-775.77"/>
<text text-anchor="middle" x="923.5" y="-812.5" font-family="Helvetica,sans-Serif" font-size="10.00"> #spawnpoints_</text>
</g>
<!-- Node15 -->
<g id="node15" class="node">
<title>Node15</title>
<g id="a_node15"><a xlink:title=" ">
<polygon fill="none" stroke="black" points="928.5,-943.5 928.5,-1000.5 1071.5,-1000.5 1071.5,-943.5 928.5,-943.5"/>
<text text-anchor="middle" x="1000" y="-988.5" font-family="Helvetica,sans-Serif" font-size="10.00">queue&lt; Tank::TankType &gt;</text>
<polyline fill="none" stroke="black" points="928.5,-981.5 1071.5,-981.5 "/>
<text text-anchor="middle" x="1000" y="-969.5" font-family="Helvetica,sans-Serif" font-size="10.00"> </text>
<polyline fill="none" stroke="black" points="928.5,-962.5 1071.5,-962.5 "/>
<text text-anchor="middle" x="1000" y="-950.5" font-family="Helvetica,sans-Serif" font-size="10.00"> </text>
</a>
</g>
</g>
<!-- Node15&#45;&gt;Node13 -->
<g id="edge19" class="edge">
<title>Node15&#45;&gt;Node13</title>
<path fill="none" stroke="#404040" d="M995.55,-943.39C989.52,-906.52 978.22,-839.2 967,-782 966.57,-779.83 966.15,-777.66 965.71,-775.47"/>
<polygon fill="none" stroke="#404040" points="965.71,-775.46 960.61,-770.36 963.36,-763.69 968.46,-768.79 965.71,-775.46"/>
<text text-anchor="middle" x="1000" y="-812.5" font-family="Helvetica,sans-Serif" font-size="10.00"> #types_</text>
</g>
<!-- Node16 -->
<g id="node16" class="node">
<title>Node16</title>
<g id="a_node16"><a xlink:title=" ">
<polygon fill="none" stroke="black" points="1089.5,-943.5 1089.5,-1000.5 1244.5,-1000.5 1244.5,-943.5 1089.5,-943.5"/>
<text text-anchor="middle" x="1167" y="-988.5" font-family="Helvetica,sans-Serif" font-size="10.00">unique_ptr&lt; BotController &gt;</text>
<polyline fill="none" stroke="black" points="1089.5,-981.5 1244.5,-981.5 "/>
<text text-anchor="middle" x="1167" y="-969.5" font-family="Helvetica,sans-Serif" font-size="10.00"> </text>
<polyline fill="none" stroke="black" points="1089.5,-962.5 1244.5,-962.5 "/>
<text text-anchor="middle" x="1167" y="-950.5" font-family="Helvetica,sans-Serif" font-size="10.00"> </text>
</a>
</g>
</g>
<!-- Node16&#45;&gt;Node13 -->
<g id="edge22" class="edge">
<title>Node16&#45;&gt;Node13</title>
<path fill="none" stroke="#404040" d="M1150.66,-943.28C1122.81,-896.03 1064.11,-796.45 1012.26,-708.5"/>
<polygon fill="none" stroke="#404040" points="1012.23,-708.45 1005.74,-705.31 1006.14,-698.11 1012.63,-701.25 1012.23,-708.45"/>
<text text-anchor="middle" x="1109.5" y="-812.5" font-family="Helvetica,sans-Serif" font-size="10.00"> #self_</text>
</g>
<!-- Node17 -->
<g id="node17" class="node">
<title>Node17</title>
<g id="a_node17"><a xlink:href="class_event_queue.html" target="_top" xlink:title=" ">
<polygon fill="none" stroke="black" points="1263,-866.5 1263,-1077.5 1413,-1077.5 1413,-866.5 1263,-866.5"/>
<text text-anchor="middle" x="1338" y="-1065.5" font-family="Helvetica,sans-Serif" font-size="10.00">EventQueue&lt; Event &gt;</text>
<polyline fill="none" stroke="black" points="1263,-1058.5 1413,-1058.5 "/>
<text text-anchor="middle" x="1338" y="-1046.5" font-family="Helvetica,sans-Serif" font-size="10.00"> </text>
<polyline fill="none" stroke="black" points="1263,-1039.5 1413,-1039.5 "/>
<text text-anchor="start" x="1271" y="-1027.5" font-family="Helvetica,sans-Serif" font-size="10.00">+ EventQueue(EventQueue</text>
<text text-anchor="start" x="1271" y="-1016.5" font-family="Helvetica,sans-Serif" font-size="10.00"> &amp;)=delete</text>
<text text-anchor="start" x="1271" y="-1005.5" font-family="Helvetica,sans-Serif" font-size="10.00">+ bool operator=(const</text>
<text text-anchor="start" x="1271" y="-994.5" font-family="Helvetica,sans-Serif" font-size="10.00"> EventQueue &amp;)=delete</text>
<text text-anchor="start" x="1271" y="-983.5" font-family="Helvetica,sans-Serif" font-size="10.00">+ void registerEvent</text>
<text text-anchor="start" x="1271" y="-972.5" font-family="Helvetica,sans-Serif" font-size="10.00">(std::unique_ptr&lt; Event</text>
<text text-anchor="start" x="1271" y="-961.5" font-family="Helvetica,sans-Serif" font-size="10.00"> &gt; event)</text>
<text text-anchor="start" x="1271" y="-950.5" font-family="Helvetica,sans-Serif" font-size="10.00">+ std::unique_ptr&lt; Event</text>
<text text-anchor="start" x="1271" y="-939.5" font-family="Helvetica,sans-Serif" font-size="10.00"> &gt; pop()</text>
<text text-anchor="start" x="1271" y="-928.5" font-family="Helvetica,sans-Serif" font-size="10.00">+ bool isEmpty()</text>
<text text-anchor="start" x="1271" y="-917.5" font-family="Helvetica,sans-Serif" font-size="10.00">+ unsigned int size()</text>
<text text-anchor="start" x="1271" y="-906.5" font-family="Helvetica,sans-Serif" font-size="10.00">+ void clear()</text>
<text text-anchor="start" x="1271" y="-895.5" font-family="Helvetica,sans-Serif" font-size="10.00">+ static EventQueue *</text>
<text text-anchor="start" x="1271" y="-884.5" font-family="Helvetica,sans-Serif" font-size="10.00"> instance()</text>
<text text-anchor="start" x="1271" y="-873.5" font-family="Helvetica,sans-Serif" font-size="10.00">&#45; EventQueue()=default</text>
</a>
</g>
</g>
<!-- Node17&#45;&gt;Node13 -->
<g id="edge23" class="edge">
<title>Node17&#45;&gt;Node13</title>
<path fill="none" stroke="#404040" d="M1262.79,-875.78C1259.86,-872.45 1256.92,-869.18 1254,-866 1177.78,-782.95 1084.58,-695.17 1015.21,-632.2"/>
<polygon fill="none" stroke="#404040" points="1014.91,-631.93 1007.77,-630.86 1006.01,-623.87 1013.14,-624.93 1014.91,-631.93"/>
<text text-anchor="middle" x="1274" y="-812.5" font-family="Helvetica,sans-Serif" font-size="10.00"> #eventQueue_</text>
</g>
<!-- Node18 -->
<g id="node18" class="node">
<title>Node18</title>
<g id="a_node18"><a xlink:href="classstd_1_1queue_3_01std_1_1unique__ptr_3_01_event_01_4_01_4.html" target="_top" xlink:title=" ">
<polygon fill="none" stroke="black" points="1190,-1241 1190,-1309 1302,-1309 1302,-1241 1190,-1241"/>
<text text-anchor="start" x="1198" y="-1297" font-family="Helvetica,sans-Serif" font-size="10.00">queue&lt; std::unique</text>
<text text-anchor="middle" x="1246" y="-1286" font-family="Helvetica,sans-Serif" font-size="10.00">_ptr&lt; Event &gt; &gt;</text>
<polyline fill="none" stroke="black" points="1190,-1279 1302,-1279 "/>
<text text-anchor="middle" x="1246" y="-1267" font-family="Helvetica,sans-Serif" font-size="10.00"> </text>
<polyline fill="none" stroke="black" points="1190,-1260 1302,-1260 "/>
<text text-anchor="middle" x="1246" y="-1248" font-family="Helvetica,sans-Serif" font-size="10.00"> </text>
</a>
</g>
</g>
<!-- Node18&#45;&gt;Node17 -->
<g id="edge24" class="edge">
<title>Node18&#45;&gt;Node17</title>
<path fill="none" stroke="#404040" d="M1248.01,-1240.77C1250.94,-1204.44 1257.91,-1144.88 1274,-1096 1274.75,-1093.73 1275.53,-1091.45 1276.35,-1089.16"/>
<polygon fill="none" stroke="#404040" points="1276.45,-1088.92 1274.85,-1081.89 1280.72,-1077.71 1282.32,-1084.74 1276.45,-1088.92"/>
<text text-anchor="middle" x="1299" y="-1121" font-family="Helvetica,sans-Serif" font-size="10.00"> #events_</text>
</g>
<!-- Node19 -->
<g id="node19" class="node">
<title>Node19</title>
<g id="a_node19"><a xlink:title=" ">
<polygon fill="none" stroke="black" points="1263,-1434 1263,-1491 1413,-1491 1413,-1434 1263,-1434"/>
<text text-anchor="middle" x="1338" y="-1479" font-family="Helvetica,sans-Serif" font-size="10.00">unique_ptr&lt; EventQueue &gt;</text>
<polyline fill="none" stroke="black" points="1263,-1472 1413,-1472 "/>
<text text-anchor="middle" x="1338" y="-1460" font-family="Helvetica,sans-Serif" font-size="10.00"> </text>
<polyline fill="none" stroke="black" points="1263,-1453 1413,-1453 "/>
<text text-anchor="middle" x="1338" y="-1441" font-family="Helvetica,sans-Serif" font-size="10.00"> </text>
</a>
</g>
</g>
<!-- Node19&#45;&gt;Node17 -->
<g id="edge25" class="edge">
<title>Node19&#45;&gt;Node17</title>
<path fill="none" stroke="#404040" d="M1338,-1433.84C1338,-1368.94 1338,-1203.81 1338,-1089.93"/>
<polygon fill="none" stroke="#404040" points="1338,-1089.69 1334,-1083.69 1338,-1077.69 1342,-1083.69 1338,-1089.69"/>
<text text-anchor="middle" x="1355.5" y="-1272.5" font-family="Helvetica,sans-Serif" font-size="10.00"> #self_</text>
</g>
<!-- Node20 -->
<g id="node20" class="node">
<title>Node20</title>
<g id="a_node20"><a xlink:href="class_event_queue.html" target="_top" xlink:title="Singleton class wrapper for std::queue&lt;E&gt;.">
<polygon fill="none" stroke="black" points="1391,-1169.5 1391,-1380.5 1541,-1380.5 1541,-1169.5 1391,-1169.5"/>
<text text-anchor="middle" x="1466" y="-1368.5" font-family="Helvetica,sans-Serif" font-size="10.00">EventQueue&lt; E &gt;</text>
<polyline fill="none" stroke="black" points="1391,-1361.5 1541,-1361.5 "/>
<text text-anchor="middle" x="1466" y="-1349.5" font-family="Helvetica,sans-Serif" font-size="10.00"> </text>
<polyline fill="none" stroke="black" points="1391,-1342.5 1541,-1342.5 "/>
<text text-anchor="start" x="1399" y="-1330.5" font-family="Helvetica,sans-Serif" font-size="10.00">+ EventQueue(EventQueue</text>
<text text-anchor="start" x="1399" y="-1319.5" font-family="Helvetica,sans-Serif" font-size="10.00"> &amp;)=delete</text>
<text text-anchor="start" x="1399" y="-1308.5" font-family="Helvetica,sans-Serif" font-size="10.00">+ bool operator=(const</text>
<text text-anchor="start" x="1399" y="-1297.5" font-family="Helvetica,sans-Serif" font-size="10.00"> EventQueue &amp;)=delete</text>
<text text-anchor="start" x="1399" y="-1286.5" font-family="Helvetica,sans-Serif" font-size="10.00">+ void registerEvent</text>
<text text-anchor="start" x="1399" y="-1275.5" font-family="Helvetica,sans-Serif" font-size="10.00">(std::unique_ptr&lt; E</text>
<text text-anchor="start" x="1399" y="-1264.5" font-family="Helvetica,sans-Serif" font-size="10.00"> &gt; event)</text>
<text text-anchor="start" x="1399" y="-1253.5" font-family="Helvetica,sans-Serif" font-size="10.00">+ std::unique_ptr&lt; E</text>
<text text-anchor="start" x="1399" y="-1242.5" font-family="Helvetica,sans-Serif" font-size="10.00"> &gt; pop()</text>
<text text-anchor="start" x="1399" y="-1231.5" font-family="Helvetica,sans-Serif" font-size="10.00">+ bool isEmpty()</text>
<text text-anchor="start" x="1399" y="-1220.5" font-family="Helvetica,sans-Serif" font-size="10.00">+ unsigned int size()</text>
<text text-anchor="start" x="1399" y="-1209.5" font-family="Helvetica,sans-Serif" font-size="10.00">+ void clear()</text>
<text text-anchor="start" x="1399" y="-1198.5" font-family="Helvetica,sans-Serif" font-size="10.00">+ static EventQueue *</text>
<text text-anchor="start" x="1399" y="-1187.5" font-family="Helvetica,sans-Serif" font-size="10.00"> instance()</text>
<text text-anchor="start" x="1399" y="-1176.5" font-family="Helvetica,sans-Serif" font-size="10.00">&#45; EventQueue()=default</text>
</a>
</g>
</g>
<!-- Node19&#45;&gt;Node20 -->
<g id="edge28" class="edge">
<title>Node19&#45;&gt;Node20</title>
<path fill="none" stroke="#404040" d="M1357.16,-1433.73C1365.48,-1421.68 1375.83,-1406.68 1386.81,-1390.77"/>
<polygon fill="none" stroke="#404040" points="1386.9,-1390.64 1387.01,-1383.43 1393.71,-1380.76 1393.6,-1387.97 1386.9,-1390.64"/>
<text text-anchor="middle" x="1396.5" y="-1402" font-family="Helvetica,sans-Serif" font-size="10.00"> #self_</text>
</g>
<!-- Node20&#45;&gt;Node17 -->
<g id="edge26" class="edge">
<title>Node20&#45;&gt;Node17</title>
<path fill="none" stroke="orange" d="M1417.39,-1159.7C1405.94,-1132.78 1393.8,-1104.21 1382.54,-1077.73"/>
<polygon fill="orange" stroke="orange" points="1414.28,-1161.31 1421.41,-1169.15 1420.72,-1158.58 1414.28,-1161.31"/>
<text text-anchor="middle" x="1440" y="-1121" font-family="Helvetica,sans-Serif" font-size="10.00"> &lt; Event &gt;</text>
</g>
<!-- Node21 -->
<g id="node21" class="node">
<title>Node21</title>
<g id="a_node21"><a xlink:title=" ">
<polygon fill="none" stroke="black" points="1431,-1428.5 1431,-1496.5 1543,-1496.5 1543,-1428.5 1431,-1428.5"/>
<text text-anchor="start" x="1439" y="-1484.5" font-family="Helvetica,sans-Serif" font-size="10.00">queue&lt; std::unique</text>
<text text-anchor="middle" x="1487" y="-1473.5" font-family="Helvetica,sans-Serif" font-size="10.00">_ptr&lt; E &gt; &gt;</text>
<polyline fill="none" stroke="black" points="1431,-1466.5 1543,-1466.5 "/>
<text text-anchor="middle" x="1487" y="-1454.5" font-family="Helvetica,sans-Serif" font-size="10.00"> </text>
<polyline fill="none" stroke="black" points="1431,-1447.5 1543,-1447.5 "/>
<text text-anchor="middle" x="1487" y="-1435.5" font-family="Helvetica,sans-Serif" font-size="10.00"> </text>
</a>
</g>
</g>
<!-- Node21&#45;&gt;Node20 -->
<g id="edge27" class="edge">
<title>Node21&#45;&gt;Node20</title>
<path fill="none" stroke="#404040" d="M1483.25,-1428.34C1482.06,-1417.88 1480.68,-1405.68 1479.22,-1392.81"/>
<polygon fill="none" stroke="#404040" points="1479.22,-1392.77 1474.57,-1387.25 1477.87,-1380.84 1482.52,-1386.36 1479.22,-1392.77"/>
<text text-anchor="middle" x="1505" y="-1402" font-family="Helvetica,sans-Serif" font-size="10.00"> #events_</text>
</g>
</g>
</svg>
