<?xml version="1.0" encoding="UTF-8" standalone="no"?>
<!DOCTYPE svg PUBLIC "-//W3C//DTD SVG 1.1//EN"
 "http://www.w3.org/Graphics/SVG/1.1/DTD/svg11.dtd">
<!-- Generated by graphviz version 2.43.0 (0)
 -->
<!-- Title: BoardGraphic Pages: 1 -->
<!--zoomable 645 -->
<svg id="main" version="1.1" xmlns="http://www.w3.org/2000/svg" xmlns:xlink="http://www.w3.org/1999/xlink" xml:space="preserve" onload="init(evt)">
<style type="text/css"><![CDATA[
.edge:hover path { stroke: red; }
.edge:hover polygon { stroke: red; fill: red; }
]]></style>
<script type="text/javascript"><![CDATA[
var edges = document.getElementsByTagName('g');
if (edges && edges.length) {
  for (var i=0;i<edges.length;i++) {
    if (edges[i].id.substr(0,4)=='edge') {
      edges[i].setAttribute('class','edge');
    }
  }
}
]]></script>
        <defs>
                <circle id="rim" cx="0" cy="0" r="7"/>
                <circle id="rim2" cx="0" cy="0" r="3.5"/>
                <g id="zoomPlus">
                        <use xlink:href="#rim" fill="#404040">
                                <set attributeName="fill" to="#808080" begin="zoomplus.mouseover" end="zoomplus.mouseout"/>
                        </use>
                        <path d="M-4,0h8M0,-4v8" fill="none" stroke="white" stroke-width="1.5" pointer-events="none"/>
                </g>
                <g id="zoomMin">
                        <use xlink:href="#rim" fill="#404040">
                                <set attributeName="fill" to="#808080" begin="zoomminus.mouseover" end="zoomminus.mouseout"/>
                        </use>
                        <path d="M-4,0h8" fill="none" stroke="white" stroke-width="1.5" pointer-events="none"/>
                </g>
                <g id="dirArrow">
                        <path fill="none" stroke="white" stroke-width="1.5" d="M0,-3.0v7 M-2.5,-0.5L0,-3.0L2.5,-0.5"/>
                </g>
               <g id="resetDef">
                       <use xlink:href="#rim2" fill="#404040">
                               <set attributeName="fill" to="#808080" begin="reset.mouseover" end="reset.mouseout"/>
                       </use>
               </g>
        </defs>

<script type="text/javascript">
var viewWidth = 1121;
var viewHeight = 645;
var sectionId = 'dynsection-1';
</script>
<script xlink:href="svgpan.js"/>
<svg id="graph" class="graph">
<g id="viewport">
<title>BoardGraphic</title>
<!-- Node1 -->
<g id="node1" class="node">
<title>Node1</title>
<g id="a_node1"><a xlink:title="Class responsible for board updates and render.">
<polygon fill="#bfbfbf" stroke="black" points="636.5,-0.5 636.5,-200.5 810.5,-200.5 810.5,-0.5 636.5,-0.5"/>
<text text-anchor="middle" x="723.5" y="-188.5" font-family="Helvetica,sans-Serif" font-size="10.00">BoardGraphic</text>
<polyline fill="none" stroke="black" points="636.5,-181.5 810.5,-181.5 "/>
<text text-anchor="middle" x="723.5" y="-169.5" font-family="Helvetica,sans-Serif" font-size="10.00"> </text>
<polyline fill="none" stroke="black" points="636.5,-162.5 810.5,-162.5 "/>
<text text-anchor="start" x="644.5" y="-150.5" font-family="Helvetica,sans-Serif" font-size="10.00">+ virtual void render</text>
<text text-anchor="start" x="644.5" y="-139.5" font-family="Helvetica,sans-Serif" font-size="10.00">() override</text>
<text text-anchor="start" x="644.5" y="-128.5" font-family="Helvetica,sans-Serif" font-size="10.00">+ const ActiveStateGraphic</text>
<text text-anchor="start" x="644.5" y="-117.5" font-family="Helvetica,sans-Serif" font-size="10.00">::BoardPointers &amp; getPointers</text>
<text text-anchor="start" x="644.5" y="-106.5" font-family="Helvetica,sans-Serif" font-size="10.00">() const</text>
<text text-anchor="start" x="644.5" y="-95.5" font-family="Helvetica,sans-Serif" font-size="10.00">+ const std::vector&lt;</text>
<text text-anchor="start" x="644.5" y="-84.5" font-family="Helvetica,sans-Serif" font-size="10.00"> std::shared_ptr&lt; Abstract</text>
<text text-anchor="start" x="644.5" y="-73.5" font-family="Helvetica,sans-Serif" font-size="10.00">Window &gt; &gt; getChildren() const</text>
<text text-anchor="start" x="644.5" y="-62.5" font-family="Helvetica,sans-Serif" font-size="10.00">+ void initiateRenderQueue()</text>
<text text-anchor="start" x="644.5" y="-51.5" font-family="Helvetica,sans-Serif" font-size="10.00">+ BoardGraphic(const</text>
<text text-anchor="start" x="644.5" y="-40.5" font-family="Helvetica,sans-Serif" font-size="10.00"> WindowView &amp;windowView,</text>
<text text-anchor="start" x="644.5" y="-29.5" font-family="Helvetica,sans-Serif" font-size="10.00"> const ActiveStateGraphic</text>
<text text-anchor="start" x="644.5" y="-18.5" font-family="Helvetica,sans-Serif" font-size="10.00">::BoardPointers &amp;boardObjects)</text>
<text text-anchor="start" x="644.5" y="-7.5" font-family="Helvetica,sans-Serif" font-size="10.00"># void conscructComposite()</text>
</a>
</g>
</g>
<!-- Node2 -->
<g id="node2" class="node">
<title>Node2</title>
<g id="a_node2"><a xlink:href="class_abstract_window.html" target="_top" xlink:title="Contains main SFML functions.">
<polygon fill="none" stroke="black" points="209.5,-248.5 209.5,-371.5 367.5,-371.5 367.5,-248.5 209.5,-248.5"/>
<text text-anchor="middle" x="288.5" y="-359.5" font-family="Helvetica,sans-Serif" font-size="10.00">AbstractWindow</text>
<polyline fill="none" stroke="black" points="209.5,-352.5 367.5,-352.5 "/>
<text text-anchor="middle" x="288.5" y="-340.5" font-family="Helvetica,sans-Serif" font-size="10.00"> </text>
<polyline fill="none" stroke="black" points="209.5,-333.5 367.5,-333.5 "/>
<text text-anchor="start" x="217.5" y="-321.5" font-family="Helvetica,sans-Serif" font-size="10.00">+ sf::RenderWindow *</text>
<text text-anchor="start" x="217.5" y="-310.5" font-family="Helvetica,sans-Serif" font-size="10.00"> getWindow()</text>
<text text-anchor="start" x="217.5" y="-299.5" font-family="Helvetica,sans-Serif" font-size="10.00">+ virtual void render()=0</text>
<text text-anchor="start" x="217.5" y="-288.5" font-family="Helvetica,sans-Serif" font-size="10.00">+ AbstractWindow()</text>
<text text-anchor="start" x="217.5" y="-277.5" font-family="Helvetica,sans-Serif" font-size="10.00">+ AbstractWindow(const</text>
<text text-anchor="start" x="217.5" y="-266.5" font-family="Helvetica,sans-Serif" font-size="10.00"> WindowView &amp;windowView)</text>
<text text-anchor="start" x="217.5" y="-255.5" font-family="Helvetica,sans-Serif" font-size="10.00">+ virtual ~AbstractWindow()</text>
</a>
</g>
</g>
<!-- Node2&#45;&gt;Node1 -->
<g id="edge1" class="edge">
<title>Node2&#45;&gt;Node1</title>
<path fill="none" stroke="midnightblue" d="M376.6,-266.98C452.35,-230.84 561.01,-179.01 636.45,-143.02"/>
<polygon fill="none" stroke="midnightblue" points="375.05,-263.84 367.53,-271.3 378.06,-270.16 375.05,-263.84"/>
</g>
<!-- Node3 -->
<g id="node3" class="node">
<title>Node3</title>
<g id="a_node3"><a xlink:title=" ">
<polygon fill="none" stroke="black" points="0,-447 0,-504 65,-504 65,-447 0,-447"/>
<text text-anchor="middle" x="32.5" y="-492" font-family="Helvetica,sans-Serif" font-size="10.00">const uint</text>
<polyline fill="none" stroke="black" points="0,-485 65,-485 "/>
<text text-anchor="middle" x="32.5" y="-473" font-family="Helvetica,sans-Serif" font-size="10.00"> </text>
<polyline fill="none" stroke="black" points="0,-466 65,-466 "/>
<text text-anchor="middle" x="32.5" y="-454" font-family="Helvetica,sans-Serif" font-size="10.00"> </text>
</a>
</g>
</g>
<!-- Node3&#45;&gt;Node2 -->
<g id="edge2" class="edge">
<title>Node3&#45;&gt;Node2</title>
<path fill="none" stroke="#404040" d="M57.99,-446.93C63.37,-441.27 69.07,-435.39 74.5,-430 93.02,-411.61 95.83,-404.54 117.5,-390 142.32,-373.34 171.22,-358.51 198.12,-346.32"/>
<polygon fill="none" stroke="#404040" points="198.14,-346.31 202,-340.22 209.1,-341.44 205.25,-347.53 198.14,-346.31"/>
<text text-anchor="middle" x="167.5" y="-404" font-family="Helvetica,sans-Serif" font-size="10.00"> #WINDOW_HEIGHT</text>
<text text-anchor="middle" x="167.5" y="-393" font-family="Helvetica,sans-Serif" font-size="10.00">#WINDOW_WIDTH</text>
</g>
<!-- Node4 -->
<g id="node4" class="node">
<title>Node4</title>
<g id="a_node4"><a xlink:href="struct_window_view.html" target="_top" xlink:title="Struct that contains the sf::RenderWindow nad offset of elements to render.">
<polygon fill="none" stroke="black" points="83.5,-430.5 83.5,-520.5 265.5,-520.5 265.5,-430.5 83.5,-430.5"/>
<text text-anchor="middle" x="174.5" y="-508.5" font-family="Helvetica,sans-Serif" font-size="10.00">WindowView</text>
<polyline fill="none" stroke="black" points="83.5,-501.5 265.5,-501.5 "/>
<text text-anchor="middle" x="174.5" y="-489.5" font-family="Helvetica,sans-Serif" font-size="10.00"> </text>
<polyline fill="none" stroke="black" points="83.5,-482.5 265.5,-482.5 "/>
<text text-anchor="start" x="91.5" y="-470.5" font-family="Helvetica,sans-Serif" font-size="10.00">+ WindowView(sf::RenderWindow</text>
<text text-anchor="start" x="91.5" y="-459.5" font-family="Helvetica,sans-Serif" font-size="10.00"> *window, float topOffset,</text>
<text text-anchor="start" x="91.5" y="-448.5" font-family="Helvetica,sans-Serif" font-size="10.00"> float leftOffset)</text>
<text text-anchor="start" x="91.5" y="-437.5" font-family="Helvetica,sans-Serif" font-size="10.00">+ WindowView()</text>
</a>
</g>
</g>
<!-- Node4&#45;&gt;Node2 -->
<g id="edge3" class="edge">
<title>Node4&#45;&gt;Node2</title>
<path fill="none" stroke="#404040" d="M205.35,-430.25C215.78,-415.3 227.7,-398.2 239.2,-381.71"/>
<polygon fill="none" stroke="#404040" points="239.42,-381.39 239.57,-374.18 246.28,-371.55 246.13,-378.76 239.42,-381.39"/>
<text text-anchor="middle" x="268" y="-398.5" font-family="Helvetica,sans-Serif" font-size="10.00"> #windowView</text>
</g>
<!-- Node5 -->
<g id="node5" class="node">
<title>Node5</title>
<g id="a_node5"><a xlink:title=" ">
<polygon fill="none" stroke="black" points="82.5,-579.5 82.5,-636.5 180.5,-636.5 180.5,-579.5 82.5,-579.5"/>
<text text-anchor="middle" x="131.5" y="-624.5" font-family="Helvetica,sans-Serif" font-size="10.00">RenderWindow *</text>
<polyline fill="none" stroke="black" points="82.5,-617.5 180.5,-617.5 "/>
<text text-anchor="middle" x="131.5" y="-605.5" font-family="Helvetica,sans-Serif" font-size="10.00"> </text>
<polyline fill="none" stroke="black" points="82.5,-598.5 180.5,-598.5 "/>
<text text-anchor="middle" x="131.5" y="-586.5" font-family="Helvetica,sans-Serif" font-size="10.00"> </text>
</a>
</g>
</g>
<!-- Node5&#45;&gt;Node4 -->
<g id="edge4" class="edge">
<title>Node5&#45;&gt;Node4</title>
<path fill="none" stroke="#404040" d="M136.3,-579.19C138.79,-566.74 142.21,-551.97 146.5,-539 147.24,-536.76 148.04,-534.48 148.87,-532.2"/>
<polygon fill="none" stroke="#404040" points="148.97,-531.96 147.42,-524.92 153.33,-520.79 154.88,-527.83 148.97,-531.96"/>
<text text-anchor="middle" x="171" y="-547.5" font-family="Helvetica,sans-Serif" font-size="10.00"> +window</text>
</g>
<!-- Node6 -->
<g id="node6" class="node">
<title>Node6</title>
<g id="a_node6"><a xlink:title=" ">
<polygon fill="none" stroke="black" points="198.5,-579.5 198.5,-636.5 236.5,-636.5 236.5,-579.5 198.5,-579.5"/>
<text text-anchor="middle" x="217.5" y="-624.5" font-family="Helvetica,sans-Serif" font-size="10.00">float</text>
<polyline fill="none" stroke="black" points="198.5,-617.5 236.5,-617.5 "/>
<text text-anchor="middle" x="217.5" y="-605.5" font-family="Helvetica,sans-Serif" font-size="10.00"> </text>
<polyline fill="none" stroke="black" points="198.5,-598.5 236.5,-598.5 "/>
<text text-anchor="middle" x="217.5" y="-586.5" font-family="Helvetica,sans-Serif" font-size="10.00"> </text>
</a>
</g>
</g>
<!-- Node6&#45;&gt;Node4 -->
<g id="edge5" class="edge">
<title>Node6&#45;&gt;Node4</title>
<path fill="none" stroke="#404040" d="M208.58,-579.19C204.61,-566.86 199.85,-552.2 195.5,-539 194.76,-536.76 194,-534.47 193.24,-532.16"/>
<polygon fill="none" stroke="#404040" points="193.15,-531.91 187.46,-527.48 189.36,-520.53 195.05,-524.96 193.15,-531.91"/>
<text text-anchor="middle" x="231" y="-553" font-family="Helvetica,sans-Serif" font-size="10.00"> +leftOffset</text>
<text text-anchor="middle" x="231" y="-542" font-family="Helvetica,sans-Serif" font-size="10.00">+topOffset</text>
</g>
<!-- Node7 -->
<g id="node7" class="node">
<title>Node7</title>
<g id="a_node7"><a xlink:title=" ">
<polygon fill="none" stroke="black" points="284,-441.5 284,-509.5 433,-509.5 433,-441.5 284,-441.5"/>
<text text-anchor="start" x="292" y="-497.5" font-family="Helvetica,sans-Serif" font-size="10.00">vector&lt; std::shared</text>
<text text-anchor="middle" x="358.5" y="-486.5" font-family="Helvetica,sans-Serif" font-size="10.00">_ptr&lt; AbstractWindow &gt; &gt;</text>
<polyline fill="none" stroke="black" points="284,-479.5 433,-479.5 "/>
<text text-anchor="middle" x="358.5" y="-467.5" font-family="Helvetica,sans-Serif" font-size="10.00"> </text>
<polyline fill="none" stroke="black" points="284,-460.5 433,-460.5 "/>
<text text-anchor="middle" x="358.5" y="-448.5" font-family="Helvetica,sans-Serif" font-size="10.00"> </text>
</a>
</g>
</g>
<!-- Node7&#45;&gt;Node2 -->
<g id="edge6" class="edge">
<title>Node7&#45;&gt;Node2</title>
<path fill="none" stroke="#404040" d="M344.33,-441.41C337.12,-424.56 328.05,-403.38 319.33,-383.01"/>
<polygon fill="none" stroke="#404040" points="319.26,-382.85 313.22,-378.91 314.54,-371.82 320.58,-375.76 319.26,-382.85"/>
<text text-anchor="middle" x="356" y="-398.5" font-family="Helvetica,sans-Serif" font-size="10.00"> #children</text>
</g>
<!-- Node8 -->
<g id="node8" class="node">
<title>Node8</title>
<g id="a_node8"><a xlink:href="struct_active_state_graphic_1_1_board_pointers.html" target="_top" xlink:title="Stores given board object pointers.">
<polygon fill="none" stroke="black" points="668.5,-276 668.5,-344 778.5,-344 778.5,-276 668.5,-276"/>
<text text-anchor="start" x="676.5" y="-332" font-family="Helvetica,sans-Serif" font-size="10.00">ActiveStateGraphic</text>
<text text-anchor="middle" x="723.5" y="-321" font-family="Helvetica,sans-Serif" font-size="10.00">::BoardPointers</text>
<polyline fill="none" stroke="black" points="668.5,-314 778.5,-314 "/>
<text text-anchor="middle" x="723.5" y="-302" font-family="Helvetica,sans-Serif" font-size="10.00"> </text>
<polyline fill="none" stroke="black" points="668.5,-295 778.5,-295 "/>
<text text-anchor="middle" x="723.5" y="-283" font-family="Helvetica,sans-Serif" font-size="10.00"> </text>
</a>
</g>
</g>
<!-- Node8&#45;&gt;Node1 -->
<g id="edge7" class="edge">
<title>Node8&#45;&gt;Node1</title>
<path fill="none" stroke="#404040" d="M723.5,-275.66C723.5,-258.2 723.5,-235.7 723.5,-212.71"/>
<polygon fill="none" stroke="#404040" points="723.5,-212.66 719.5,-206.66 723.5,-200.66 727.5,-206.66 723.5,-212.66"/>
<text text-anchor="middle" x="761.5" y="-222" font-family="Helvetica,sans-Serif" font-size="10.00"> #boardObjects</text>
</g>
<!-- Node9 -->
<g id="node9" class="node">
<title>Node9</title>
<g id="a_node9"><a xlink:title=" ">
<polygon fill="none" stroke="black" points="450.5,-441.5 450.5,-509.5 618.5,-509.5 618.5,-441.5 450.5,-441.5"/>
<text text-anchor="start" x="458.5" y="-497.5" font-family="Helvetica,sans-Serif" font-size="10.00">shared_ptr&lt; std::vector</text>
<text text-anchor="middle" x="534.5" y="-486.5" font-family="Helvetica,sans-Serif" font-size="10.00">&lt; std::shared_ptr&lt; Tank &gt; &gt; &gt;</text>
<polyline fill="none" stroke="black" points="450.5,-479.5 618.5,-479.5 "/>
<text text-anchor="middle" x="534.5" y="-467.5" font-family="Helvetica,sans-Serif" font-size="10.00"> </text>
<polyline fill="none" stroke="black" points="450.5,-460.5 618.5,-460.5 "/>
<text text-anchor="middle" x="534.5" y="-448.5" font-family="Helvetica,sans-Serif" font-size="10.00"> </text>
</a>
</g>
</g>
<!-- Node9&#45;&gt;Node8 -->
<g id="edge8" class="edge">
<title>Node9&#45;&gt;Node8</title>
<path fill="none" stroke="#404040" d="M572.75,-441.41C602.59,-415.6 644.21,-379.6 676.15,-351.96"/>
<polygon fill="none" stroke="#404040" points="676.23,-351.89 678.16,-344.94 685.31,-344.04 683.39,-350.99 676.23,-351.89"/>
<text text-anchor="middle" x="649" y="-398.5" font-family="Helvetica,sans-Serif" font-size="10.00"> +tanks</text>
</g>
<!-- Node10 -->
<g id="node10" class="node">
<title>Node10</title>
<g id="a_node10"><a xlink:title=" ">
<polygon fill="none" stroke="black" points="636.5,-441.5 636.5,-509.5 810.5,-509.5 810.5,-441.5 636.5,-441.5"/>
<text text-anchor="start" x="644.5" y="-497.5" font-family="Helvetica,sans-Serif" font-size="10.00">shared_ptr&lt; std::vector</text>
<text text-anchor="middle" x="723.5" y="-486.5" font-family="Helvetica,sans-Serif" font-size="10.00">&lt; std::shared_ptr&lt; Bullet &gt; &gt; &gt;</text>
<polyline fill="none" stroke="black" points="636.5,-479.5 810.5,-479.5 "/>
<text text-anchor="middle" x="723.5" y="-467.5" font-family="Helvetica,sans-Serif" font-size="10.00"> </text>
<polyline fill="none" stroke="black" points="636.5,-460.5 810.5,-460.5 "/>
<text text-anchor="middle" x="723.5" y="-448.5" font-family="Helvetica,sans-Serif" font-size="10.00"> </text>
</a>
</g>
</g>
<!-- Node10&#45;&gt;Node8 -->
<g id="edge9" class="edge">
<title>Node10&#45;&gt;Node8</title>
<path fill="none" stroke="#404040" d="M723.5,-441.41C723.5,-416.93 723.5,-383.28 723.5,-356.29"/>
<polygon fill="none" stroke="#404040" points="723.5,-356.04 719.5,-350.04 723.5,-344.04 727.5,-350.04 723.5,-356.04"/>
<text text-anchor="middle" x="746" y="-398.5" font-family="Helvetica,sans-Serif" font-size="10.00"> +bullets</text>
</g>
<!-- Node11 -->
<g id="node11" class="node">
<title>Node11</title>
<g id="a_node11"><a xlink:title=" ">
<polygon fill="none" stroke="black" points="829,-447 829,-504 948,-504 948,-447 829,-447"/>
<text text-anchor="middle" x="888.5" y="-492" font-family="Helvetica,sans-Serif" font-size="10.00">shared_ptr&lt; Grid * &gt;</text>
<polyline fill="none" stroke="black" points="829,-485 948,-485 "/>
<text text-anchor="middle" x="888.5" y="-473" font-family="Helvetica,sans-Serif" font-size="10.00"> </text>
<polyline fill="none" stroke="black" points="829,-466 948,-466 "/>
<text text-anchor="middle" x="888.5" y="-454" font-family="Helvetica,sans-Serif" font-size="10.00"> </text>
</a>
</g>
</g>
<!-- Node11&#45;&gt;Node8 -->
<g id="edge10" class="edge">
<title>Node11&#45;&gt;Node8</title>
<path fill="none" stroke="#404040" d="M860.51,-446.76C834.48,-420.98 795.36,-382.21 765.57,-352.69"/>
<polygon fill="none" stroke="#404040" points="765.57,-352.69 758.49,-351.31 757.05,-344.24 764.12,-345.62 765.57,-352.69"/>
<text text-anchor="middle" x="837" y="-398.5" font-family="Helvetica,sans-Serif" font-size="10.00"> +tiles</text>
</g>
<!-- Node12 -->
<g id="node12" class="node">
<title>Node12</title>
<g id="a_node12"><a xlink:title=" ">
<polygon fill="none" stroke="black" points="966.5,-447 966.5,-504 1112.5,-504 1112.5,-447 966.5,-447"/>
<text text-anchor="middle" x="1039.5" y="-492" font-family="Helvetica,sans-Serif" font-size="10.00">shared_ptr&lt; sf::Vector2f &gt;</text>
<polyline fill="none" stroke="black" points="966.5,-485 1112.5,-485 "/>
<text text-anchor="middle" x="1039.5" y="-473" font-family="Helvetica,sans-Serif" font-size="10.00"> </text>
<polyline fill="none" stroke="black" points="966.5,-466 1112.5,-466 "/>
<text text-anchor="middle" x="1039.5" y="-454" font-family="Helvetica,sans-Serif" font-size="10.00"> </text>
</a>
</g>
</g>
<!-- Node12&#45;&gt;Node8 -->
<g id="edge11" class="edge">
<title>Node12&#45;&gt;Node8</title>
<path fill="none" stroke="#404040" d="M990.98,-446.96C980.09,-441.12 968.5,-435.16 957.5,-430 914.17,-409.66 902.97,-404.96 857.5,-390 827.39,-380.1 816.25,-387.32 788.5,-372 779.05,-366.78 769.92,-359.88 761.65,-352.6"/>
<polygon fill="none" stroke="#404040" points="761.49,-352.45 754.37,-351.3 752.69,-344.28 759.81,-345.44 761.49,-352.45"/>
<text text-anchor="middle" x="944.5" y="-398.5" font-family="Helvetica,sans-Serif" font-size="10.00"> +eaglePos</text>
</g>
<!-- Node13 -->
<g id="node13" class="node">
<title>Node13</title>
<g id="a_node13"><a xlink:title=" ">
<polygon fill="none" stroke="black" points="797,-276 797,-344 928,-344 928,-276 797,-276"/>
<text text-anchor="start" x="805" y="-332" font-family="Helvetica,sans-Serif" font-size="10.00">shared_ptr&lt; std::queue</text>
<text text-anchor="middle" x="862.5" y="-321" font-family="Helvetica,sans-Serif" font-size="10.00">&lt; sf::Sprite &gt; &gt;</text>
<polyline fill="none" stroke="black" points="797,-314 928,-314 "/>
<text text-anchor="middle" x="862.5" y="-302" font-family="Helvetica,sans-Serif" font-size="10.00"> </text>
<polyline fill="none" stroke="black" points="797,-295 928,-295 "/>
<text text-anchor="middle" x="862.5" y="-283" font-family="Helvetica,sans-Serif" font-size="10.00"> </text>
</a>
</g>
</g>
<!-- Node13&#45;&gt;Node1 -->
<g id="edge12" class="edge">
<title>Node13&#45;&gt;Node1</title>
<path fill="none" stroke="#404040" d="M841.06,-275.99C829.93,-258.93 816.06,-237.8 803.5,-219 801.7,-216.3 799.87,-213.57 798.03,-210.82"/>
<polygon fill="none" stroke="#404040" points="797.97,-210.74 791.3,-207.99 791.27,-200.78 797.94,-203.53 797.97,-210.74"/>
<text text-anchor="middle" x="861" y="-222" font-family="Helvetica,sans-Serif" font-size="10.00"> #extraRenderQueue</text>
</g>
</g>
</svg>
        <g id="navigator" transform="translate(0 0)" fill="#404254">
                <rect fill="#f2f5e9" fill-opacity="0.5" stroke="#606060" stroke-width=".5" x="0" y="0" width="60" height="60"/>
                <use id="zoomplus" xlink:href="#zoomPlus" x="17" y="9" onmousedown="handleZoom(evt,'in')"/>
                <use id="zoomminus" xlink:href="#zoomMin" x="42" y="9" onmousedown="handleZoom(evt,'out')"/>
                <use id="reset" xlink:href="#resetDef" x="30" y="36" onmousedown="handleReset()"/>
                <g id="arrowUp" xlink:href="#dirArrow" transform="translate(30 24)" onmousedown="handlePan(0,-1)">
                  <use xlink:href="#rim" fill="#404040">
                        <set attributeName="fill" to="#808080" begin="arrowUp.mouseover" end="arrowUp.mouseout"/>
                  </use>
                  <path fill="none" stroke="white" stroke-width="1.5" d="M0,-3.0v7 M-2.5,-0.5L0,-3.0L2.5,-0.5"/>
                </g>
                <g id="arrowRight" xlink:href="#dirArrow" transform="rotate(90) translate(36 -43)" onmousedown="handlePan(1,0)">
                  <use xlink:href="#rim" fill="#404040">
                        <set attributeName="fill" to="#808080" begin="arrowRight.mouseover" end="arrowRight.mouseout"/>
                  </use>
                  <path fill="none" stroke="white" stroke-width="1.5" d="M0,-3.0v7 M-2.5,-0.5L0,-3.0L2.5,-0.5"/>
                </g>
                <g id="arrowDown" xlink:href="#dirArrow" transform="rotate(180) translate(-30 -48)" onmousedown="handlePan(0,1)">
                  <use xlink:href="#rim" fill="#404040">
                        <set attributeName="fill" to="#808080" begin="arrowDown.mouseover" end="arrowDown.mouseout"/>
                  </use>
                  <path fill="none" stroke="white" stroke-width="1.5" d="M0,-3.0v7 M-2.5,-0.5L0,-3.0L2.5,-0.5"/>
                </g>
                <g id="arrowLeft" xlink:href="#dirArrow" transform="rotate(270) translate(-36 17)" onmousedown="handlePan(-1,0)">
                  <use xlink:href="#rim" fill="#404040">
                        <set attributeName="fill" to="#808080" begin="arrowLeft.mouseover" end="arrowLeft.mouseout"/>
                  </use>
                  <path fill="none" stroke="white" stroke-width="1.5" d="M0,-3.0v7 M-2.5,-0.5L0,-3.0L2.5,-0.5"/>
                </g>
        </g>
        <svg viewBox="0 0 15 15" width="100%" height="30px" preserveAspectRatio="xMaxYMin meet">
         <g id="arrow_out" transform="scale(0.3 0.3)">
          <a xlink:href="class_board_graphic__coll__graph_org.svg" target="_base">
           <rect id="button" ry="5" rx="5" y="6" x="6" height="38" width="38"
                fill="#f2f5e9" fill-opacity="0.5" stroke="#606060" stroke-width="1.0"/>
           <path id="arrow"
             d="M 11.500037,31.436501 C 11.940474,20.09759 22.043105,11.32322 32.158766,21.979434 L 37.068811,17.246167 C 37.068811,17.246167 37.088388,32 37.088388,32 L 22.160133,31.978069 C 22.160133,31.978069 26.997745,27.140456 26.997745,27.140456 C 18.528582,18.264221 13.291696,25.230495 11.500037,31.436501 z"
             style="fill:#404040;"/>
          </a>
         </g>
        </svg>
</svg>
