<?xml version="1.0" encoding="UTF-8" standalone="no"?>
<!DOCTYPE svg PUBLIC "-//W3C//DTD SVG 1.1//EN"
 "http://www.w3.org/Graphics/SVG/1.1/DTD/svg11.dtd">
<!-- Generated by graphviz version 2.43.0 (0)
 -->
<!-- Title: TankController Pages: 1 -->
<svg width="363pt" height="832pt"
 viewBox="0.00 0.00 362.50 832.00" xmlns="http://www.w3.org/2000/svg" xmlns:xlink="http://www.w3.org/1999/xlink">
<g id="graph0" class="graph" transform="scale(1 1) rotate(0) translate(4 828)">
<title>TankController</title>
<!-- Node1 -->
<g id="node1" class="node">
<title>Node1</title>
<g id="a_node1"><a xlink:title=" ">
<polygon fill="#bfbfbf" stroke="black" points="146,-0.5 146,-233.5 300,-233.5 300,-0.5 146,-0.5"/>
<text text-anchor="middle" x="223" y="-221.5" font-family="Helvetica,sans-Serif" font-size="10.00">TankController</text>
<polyline fill="none" stroke="black" points="146,-214.5 300,-214.5 "/>
<text text-anchor="middle" x="223" y="-202.5" font-family="Helvetica,sans-Serif" font-size="10.00"> </text>
<polyline fill="none" stroke="black" points="146,-195.5 300,-195.5 "/>
<text text-anchor="start" x="154" y="-183.5" font-family="Helvetica,sans-Serif" font-size="10.00">+ TankController()</text>
<text text-anchor="start" x="154" y="-172.5" font-family="Helvetica,sans-Serif" font-size="10.00">+ void spawnTank(unsigned</text>
<text text-anchor="start" x="154" y="-161.5" font-family="Helvetica,sans-Serif" font-size="10.00"> int x, unsigned int y,</text>
<text text-anchor="start" x="154" y="-150.5" font-family="Helvetica,sans-Serif" font-size="10.00"> Tank::TankType type)</text>
<text text-anchor="start" x="154" y="-139.5" font-family="Helvetica,sans-Serif" font-size="10.00">+ void hitTank(Tank *target,</text>
<text text-anchor="start" x="154" y="-128.5" font-family="Helvetica,sans-Serif" font-size="10.00"> unsigned int damage=1)</text>
<text text-anchor="start" x="154" y="-117.5" font-family="Helvetica,sans-Serif" font-size="10.00">+ void killTank(Tank</text>
<text text-anchor="start" x="154" y="-106.5" font-family="Helvetica,sans-Serif" font-size="10.00"> *target)</text>
<text text-anchor="start" x="154" y="-95.5" font-family="Helvetica,sans-Serif" font-size="10.00">+ void removeTank(Tank</text>
<text text-anchor="start" x="154" y="-84.5" font-family="Helvetica,sans-Serif" font-size="10.00"> *target)</text>
<text text-anchor="start" x="154" y="-73.5" font-family="Helvetica,sans-Serif" font-size="10.00">+ void moveTank(Tank</text>
<text text-anchor="start" x="154" y="-62.5" font-family="Helvetica,sans-Serif" font-size="10.00"> *target, Direction</text>
<text text-anchor="start" x="154" y="-51.5" font-family="Helvetica,sans-Serif" font-size="10.00"> direction)</text>
<text text-anchor="start" x="154" y="-40.5" font-family="Helvetica,sans-Serif" font-size="10.00">+ std::optional&lt; Tank</text>
<text text-anchor="start" x="154" y="-29.5" font-family="Helvetica,sans-Serif" font-size="10.00"> * &gt; getTankAtPosition</text>
<text text-anchor="start" x="154" y="-18.5" font-family="Helvetica,sans-Serif" font-size="10.00">(unsigned int x, unsigned</text>
<text text-anchor="start" x="154" y="-7.5" font-family="Helvetica,sans-Serif" font-size="10.00"> int y)</text>
</a>
</g>
</g>
<!-- Node2 -->
<g id="node2" class="node">
<title>Node2</title>
<g id="a_node2"><a xlink:href="class_event_queue.html" target="_top" xlink:title=" ">
<polygon fill="none" stroke="black" points="73,-281.5 73,-470.5 223,-470.5 223,-281.5 73,-281.5"/>
<text text-anchor="middle" x="148" y="-458.5" font-family="Helvetica,sans-Serif" font-size="10.00">EventQueue&lt; Event &gt;</text>
<polyline fill="none" stroke="black" points="73,-451.5 223,-451.5 "/>
<text text-anchor="middle" x="148" y="-439.5" font-family="Helvetica,sans-Serif" font-size="10.00"> </text>
<polyline fill="none" stroke="black" points="73,-432.5 223,-432.5 "/>
<text text-anchor="start" x="81" y="-420.5" font-family="Helvetica,sans-Serif" font-size="10.00">+ EventQueue(EventQueue</text>
<text text-anchor="start" x="81" y="-409.5" font-family="Helvetica,sans-Serif" font-size="10.00"> &amp;)=delete</text>
<text text-anchor="start" x="81" y="-398.5" font-family="Helvetica,sans-Serif" font-size="10.00">+ bool operator=(const</text>
<text text-anchor="start" x="81" y="-387.5" font-family="Helvetica,sans-Serif" font-size="10.00"> EventQueue &amp;)=delete</text>
<text text-anchor="start" x="81" y="-376.5" font-family="Helvetica,sans-Serif" font-size="10.00">+ void registerEvent</text>
<text text-anchor="start" x="81" y="-365.5" font-family="Helvetica,sans-Serif" font-size="10.00">(std::unique_ptr&lt; Event</text>
<text text-anchor="start" x="81" y="-354.5" font-family="Helvetica,sans-Serif" font-size="10.00"> &gt; event)</text>
<text text-anchor="start" x="81" y="-343.5" font-family="Helvetica,sans-Serif" font-size="10.00">+ std::unique_ptr&lt; Event</text>
<text text-anchor="start" x="81" y="-332.5" font-family="Helvetica,sans-Serif" font-size="10.00"> &gt; pop()</text>
<text text-anchor="start" x="81" y="-321.5" font-family="Helvetica,sans-Serif" font-size="10.00">+ bool isEmpty()</text>
<text text-anchor="start" x="81" y="-310.5" font-family="Helvetica,sans-Serif" font-size="10.00">+ static EventQueue *</text>
<text text-anchor="start" x="81" y="-299.5" font-family="Helvetica,sans-Serif" font-size="10.00"> instance()</text>
<text text-anchor="start" x="81" y="-288.5" font-family="Helvetica,sans-Serif" font-size="10.00">&#45; EventQueue()=default</text>
</a>
</g>
</g>
<!-- Node2&#45;&gt;Node1 -->
<g id="edge1" class="edge">
<title>Node2&#45;&gt;Node1</title>
<path fill="none" stroke="#404040" d="M175.29,-281.49C178.72,-269.74 182.27,-257.58 185.82,-245.42"/>
<polygon fill="none" stroke="#404040" points="185.85,-245.3 183.69,-238.42 189.21,-233.78 191.37,-240.66 185.85,-245.3"/>
<text text-anchor="middle" x="222" y="-255" font-family="Helvetica,sans-Serif" font-size="10.00"> #eventQueue_</text>
</g>
<!-- Node3 -->
<g id="node3" class="node">
<title>Node3</title>
<g id="a_node3"><a xlink:href="classstd_1_1queue_3_01std_1_1unique__ptr_3_01_event_01_4_01_4.html" target="_top" xlink:title=" ">
<polygon fill="none" stroke="black" points="0,-579 0,-647 112,-647 112,-579 0,-579"/>
<text text-anchor="start" x="8" y="-635" font-family="Helvetica,sans-Serif" font-size="10.00">queue&lt; std::unique</text>
<text text-anchor="middle" x="56" y="-624" font-family="Helvetica,sans-Serif" font-size="10.00">_ptr&lt; Event &gt; &gt;</text>
<polyline fill="none" stroke="black" points="0,-617 112,-617 "/>
<text text-anchor="middle" x="56" y="-605" font-family="Helvetica,sans-Serif" font-size="10.00"> </text>
<polyline fill="none" stroke="black" points="0,-598 112,-598 "/>
<text text-anchor="middle" x="56" y="-586" font-family="Helvetica,sans-Serif" font-size="10.00"> </text>
</a>
</g>
</g>
<!-- Node3&#45;&gt;Node2 -->
<g id="edge2" class="edge">
<title>Node3&#45;&gt;Node2</title>
<path fill="none" stroke="#404040" d="M60.82,-578.84C65.12,-553.63 72.55,-518.39 84,-489 84.92,-486.64 85.89,-484.26 86.89,-481.88"/>
<polygon fill="none" stroke="#404040" points="86.97,-481.71 85.75,-474.6 91.84,-470.74 93.06,-477.85 86.97,-481.71"/>
<text text-anchor="middle" x="109" y="-492" font-family="Helvetica,sans-Serif" font-size="10.00"> #events_</text>
</g>
<!-- Node4 -->
<g id="node4" class="node">
<title>Node4</title>
<g id="a_node4"><a xlink:title=" ">
<polygon fill="none" stroke="black" points="73,-761 73,-818 223,-818 223,-761 73,-761"/>
<text text-anchor="middle" x="148" y="-806" font-family="Helvetica,sans-Serif" font-size="10.00">unique_ptr&lt; EventQueue &gt;</text>
<polyline fill="none" stroke="black" points="73,-799 223,-799 "/>
<text text-anchor="middle" x="148" y="-787" font-family="Helvetica,sans-Serif" font-size="10.00"> </text>
<polyline fill="none" stroke="black" points="73,-780 223,-780 "/>
<text text-anchor="middle" x="148" y="-768" font-family="Helvetica,sans-Serif" font-size="10.00"> </text>
</a>
</g>
</g>
<!-- Node4&#45;&gt;Node2 -->
<g id="edge3" class="edge">
<title>Node4&#45;&gt;Node2</title>
<path fill="none" stroke="#404040" d="M148,-760.86C148,-704.93 148,-575.73 148,-482.66"/>
<polygon fill="none" stroke="#404040" points="148,-482.64 144,-476.64 148,-470.64 152,-476.64 148,-482.64"/>
<text text-anchor="middle" x="165.5" y="-610.5" font-family="Helvetica,sans-Serif" font-size="10.00"> #self_</text>
</g>
<!-- Node5 -->
<g id="node5" class="node">
<title>Node5</title>
<g id="a_node5"><a xlink:href="class_event_queue.html" target="_top" xlink:title="Singleton class wrapper for std::queue&lt;E&gt;.">
<polygon fill="none" stroke="black" points="201,-518.5 201,-707.5 351,-707.5 351,-518.5 201,-518.5"/>
<text text-anchor="middle" x="276" y="-695.5" font-family="Helvetica,sans-Serif" font-size="10.00">EventQueue&lt; E &gt;</text>
<polyline fill="none" stroke="black" points="201,-688.5 351,-688.5 "/>
<text text-anchor="middle" x="276" y="-676.5" font-family="Helvetica,sans-Serif" font-size="10.00"> </text>
<polyline fill="none" stroke="black" points="201,-669.5 351,-669.5 "/>
<text text-anchor="start" x="209" y="-657.5" font-family="Helvetica,sans-Serif" font-size="10.00">+ EventQueue(EventQueue</text>
<text text-anchor="start" x="209" y="-646.5" font-family="Helvetica,sans-Serif" font-size="10.00"> &amp;)=delete</text>
<text text-anchor="start" x="209" y="-635.5" font-family="Helvetica,sans-Serif" font-size="10.00">+ bool operator=(const</text>
<text text-anchor="start" x="209" y="-624.5" font-family="Helvetica,sans-Serif" font-size="10.00"> EventQueue &amp;)=delete</text>
<text text-anchor="start" x="209" y="-613.5" font-family="Helvetica,sans-Serif" font-size="10.00">+ void registerEvent</text>
<text text-anchor="start" x="209" y="-602.5" font-family="Helvetica,sans-Serif" font-size="10.00">(std::unique_ptr&lt; E</text>
<text text-anchor="start" x="209" y="-591.5" font-family="Helvetica,sans-Serif" font-size="10.00"> &gt; event)</text>
<text text-anchor="start" x="209" y="-580.5" font-family="Helvetica,sans-Serif" font-size="10.00">+ std::unique_ptr&lt; E</text>
<text text-anchor="start" x="209" y="-569.5" font-family="Helvetica,sans-Serif" font-size="10.00"> &gt; pop()</text>
<text text-anchor="start" x="209" y="-558.5" font-family="Helvetica,sans-Serif" font-size="10.00">+ bool isEmpty()</text>
<text text-anchor="start" x="209" y="-547.5" font-family="Helvetica,sans-Serif" font-size="10.00">+ static EventQueue *</text>
<text text-anchor="start" x="209" y="-536.5" font-family="Helvetica,sans-Serif" font-size="10.00"> instance()</text>
<text text-anchor="start" x="209" y="-525.5" font-family="Helvetica,sans-Serif" font-size="10.00">&#45; EventQueue()=default</text>
</a>
</g>
</g>
<!-- Node4&#45;&gt;Node5 -->
<g id="edge6" class="edge">
<title>Node4&#45;&gt;Node5</title>
<path fill="none" stroke="#404040" d="M168.28,-760.85C177.21,-748.67 188.32,-733.53 199.98,-717.63"/>
<polygon fill="none" stroke="#404040" points="200.2,-717.34 200.52,-710.13 207.3,-707.66 206.97,-714.86 200.2,-717.34"/>
<text text-anchor="middle" x="211.5" y="-729" font-family="Helvetica,sans-Serif" font-size="10.00"> #self_</text>
</g>
<!-- Node5&#45;&gt;Node2 -->
<g id="edge4" class="edge">
<title>Node5&#45;&gt;Node2</title>
<path fill="none" stroke="orange" d="M220.19,-509.54C213.14,-496.6 205.96,-483.41 198.99,-470.62"/>
<polygon fill="orange" stroke="orange" points="217.19,-511.34 225.04,-518.45 223.33,-507.99 217.19,-511.34"/>
<text text-anchor="middle" x="239" y="-492" font-family="Helvetica,sans-Serif" font-size="10.00"> &lt; Event &gt;</text>
</g>
<!-- Node6 -->
<g id="node6" class="node">
<title>Node6</title>
<g id="a_node6"><a xlink:title=" ">
<polygon fill="none" stroke="black" points="241,-755.5 241,-823.5 353,-823.5 353,-755.5 241,-755.5"/>
<text text-anchor="start" x="249" y="-811.5" font-family="Helvetica,sans-Serif" font-size="10.00">queue&lt; std::unique</text>
<text text-anchor="middle" x="297" y="-800.5" font-family="Helvetica,sans-Serif" font-size="10.00">_ptr&lt; E &gt; &gt;</text>
<polyline fill="none" stroke="black" points="241,-793.5 353,-793.5 "/>
<text text-anchor="middle" x="297" y="-781.5" font-family="Helvetica,sans-Serif" font-size="10.00"> </text>
<polyline fill="none" stroke="black" points="241,-774.5 353,-774.5 "/>
<text text-anchor="middle" x="297" y="-762.5" font-family="Helvetica,sans-Serif" font-size="10.00"> </text>
</a>
</g>
</g>
<!-- Node6&#45;&gt;Node5 -->
<g id="edge5" class="edge">
<title>Node6&#45;&gt;Node5</title>
<path fill="none" stroke="#404040" d="M293,-755.27C291.75,-744.85 290.29,-732.74 288.77,-720.08"/>
<polygon fill="none" stroke="#404040" points="288.72,-719.71 284.03,-714.23 287.29,-707.8 291.98,-713.28 288.72,-719.71"/>
<text text-anchor="middle" x="315" y="-729" font-family="Helvetica,sans-Serif" font-size="10.00"> #events_</text>
</g>
<!-- Node7 -->
<g id="node7" class="node">
<title>Node7</title>
<g id="a_node7"><a xlink:title=" ">
<polygon fill="none" stroke="black" points="241.5,-342 241.5,-410 354.5,-410 354.5,-342 241.5,-342"/>
<text text-anchor="start" x="249.5" y="-398" font-family="Helvetica,sans-Serif" font-size="10.00">vector&lt; std::unique</text>
<text text-anchor="middle" x="298" y="-387" font-family="Helvetica,sans-Serif" font-size="10.00">_ptr&lt; Tank &gt; &gt;</text>
<polyline fill="none" stroke="black" points="241.5,-380 354.5,-380 "/>
<text text-anchor="middle" x="298" y="-368" font-family="Helvetica,sans-Serif" font-size="10.00"> </text>
<polyline fill="none" stroke="black" points="241.5,-361 354.5,-361 "/>
<text text-anchor="middle" x="298" y="-349" font-family="Helvetica,sans-Serif" font-size="10.00"> </text>
</a>
</g>
</g>
<!-- Node7&#45;&gt;Node1 -->
<g id="edge7" class="edge">
<title>Node7&#45;&gt;Node1</title>
<path fill="none" stroke="#404040" d="M289.08,-341.78C282.36,-316.99 272.83,-282.31 264,-252 263.38,-249.86 262.75,-247.7 262.11,-245.53"/>
<polygon fill="none" stroke="#404040" points="262.04,-245.3 256.51,-240.68 258.64,-233.79 264.18,-238.41 262.04,-245.3"/>
<text text-anchor="middle" x="288" y="-255" font-family="Helvetica,sans-Serif" font-size="10.00"> #tanks_</text>
</g>
</g>
</svg>
