<?xml version="1.0" encoding="UTF-8" standalone="no"?>
<!DOCTYPE svg PUBLIC "-//W3C//DTD SVG 1.1//EN"
 "http://www.w3.org/Graphics/SVG/1.1/DTD/svg11.dtd">
<!-- Generated by graphviz version 2.43.0 (0)
 -->
<!-- Title: ActiveEventHandler Pages: 1 -->
<svg width="1619pt" height="981pt"
 viewBox="0.00 0.00 1619.00 981.00" xmlns="http://www.w3.org/2000/svg" xmlns:xlink="http://www.w3.org/1999/xlink">
<g id="graph0" class="graph" transform="scale(1 1) rotate(0) translate(4 977)">
<title>ActiveEventHandler</title>
<!-- Node1 -->
<g id="node1" class="node">
<title>Node1</title>
<g id="a_node1"><a xlink:title=" ">
<polygon fill="#bfbfbf" stroke="black" points="359,-0.5 359,-123.5 495,-123.5 495,-0.5 359,-0.5"/>
<text text-anchor="middle" x="427" y_="-111.5" font-family="Helvetica,sans-Serif" font-size="10.00">ActiveEventHandler</text>
<polyline fill="none" stroke="black" points="359,-104.5 495,-104.5 "/>
<text text-anchor="middle" x="427" y_="-92.5" font-family="Helvetica,sans-Serif" font-size="10.00"> </text>
<polyline fill="none" stroke="black" points="359,-85.5 495,-85.5 "/>
<text text-anchor="start" x="367" y_="-73.5" font-family="Helvetica,sans-Serif" font-size="10.00">+ ActiveEventHandler</text>
<text text-anchor="start" x="367" y_="-62.5" font-family="Helvetica,sans-Serif" font-size="10.00">()=delete</text>
<text text-anchor="start" x="367" y_="-51.5" font-family="Helvetica,sans-Serif" font-size="10.00">+ ActiveEventHandler</text>
<text text-anchor="start" x="367" y_="-40.5" font-family="Helvetica,sans-Serif" font-size="10.00">(Game *game)</text>
<text text-anchor="start" x="367" y_="-29.5" font-family="Helvetica,sans-Serif" font-size="10.00">+ void processEvent(std</text>
<text text-anchor="start" x="367" y_="-18.5" font-family="Helvetica,sans-Serif" font-size="10.00">::unique_ptr&lt; Event &gt;</text>
<text text-anchor="start" x="367" y_="-7.5" font-family="Helvetica,sans-Serif" font-size="10.00"> event) override</text>
</a>
</g>
</g>
<!-- Node2 -->
<g id="node2" class="node">
<title>Node2</title>
<g id="a_node2"><a xlink:href="class_publisher_event_handler.html" target="_top" xlink:title="Extended EventHandler for Event class events with publisher capabilities.">
<polygon fill="none" stroke="black" points="200,-171.5 200,-305.5 352,-305.5 352,-171.5 200,-171.5"/>
<text text-anchor="middle" x="276" y_="-293.5" font-family="Helvetica,sans-Serif" font-size="10.00">PublisherEventHandler</text>
<polyline fill="none" stroke="black" points="200,-286.5 352,-286.5 "/>
<text text-anchor="middle" x="276" y_="-274.5" font-family="Helvetica,sans-Serif" font-size="10.00"> </text>
<polyline fill="none" stroke="black" points="200,-267.5 352,-267.5 "/>
<text text-anchor="start" x="208" y_="-255.5" font-family="Helvetica,sans-Serif" font-size="10.00">+ void handleEvent(std</text>
<text text-anchor="start" x="208" y_="-244.5" font-family="Helvetica,sans-Serif" font-size="10.00">::unique_ptr&lt; Event &gt;</text>
<text text-anchor="start" x="208" y_="-233.5" font-family="Helvetica,sans-Serif" font-size="10.00"> event) override</text>
<text text-anchor="start" x="208" y_="-222.5" font-family="Helvetica,sans-Serif" font-size="10.00">+ virtual void processEvent</text>
<text text-anchor="start" x="208" y_="-211.5" font-family="Helvetica,sans-Serif" font-size="10.00">(std::unique_ptr&lt; Event</text>
<text text-anchor="start" x="208" y_="-200.5" font-family="Helvetica,sans-Serif" font-size="10.00"> &gt; event)=0</text>
<text text-anchor="start" x="208" y_="-189.5" font-family="Helvetica,sans-Serif" font-size="10.00"># PublisherEventHandler</text>
<text text-anchor="start" x="208" y_="-178.5" font-family="Helvetica,sans-Serif" font-size="10.00">()=default</text>
</a>
</g>
</g>
<!-- Node2&#45;&gt;Node1 -->
<g id="edge1" class="edge">
<title>Node2&#45;&gt;Node1</title>
<path fill="none" stroke="midnightblue" d="M340.22,-163.29C351.69,-150.03 363.51,-136.37 374.6,-123.56"/>
<polygon fill="none" stroke="midnightblue" points="337.41,-161.18 333.52,-171.03 342.71,-165.76 337.41,-161.18"/>
</g>
<!-- Node3 -->
<g id="node3" class="node">
<title>Node3</title>
<g id="a_node3"><a xlink:href="class_event_publisher.html" target="_top" xlink:title=" ">
<polygon fill="none" stroke="black" points="194,-353.5 194,-608.5 358,-608.5 358,-353.5 194,-353.5"/>
<text text-anchor="middle" x="276" y_="-596.5" font-family="Helvetica,sans-Serif" font-size="10.00">EventPublisher</text>
<polyline fill="none" stroke="black" points="194,-589.5 358,-589.5 "/>
<text text-anchor="middle" x="276" y_="-577.5" font-family="Helvetica,sans-Serif" font-size="10.00"> </text>
<polyline fill="none" stroke="black" points="194,-570.5 358,-570.5 "/>
<text text-anchor="start" x="202" y_="-558.5" font-family="Helvetica,sans-Serif" font-size="10.00">+ ~EventPublisher()</text>
<text text-anchor="start" x="202" y_="-547.5" font-family="Helvetica,sans-Serif" font-size="10.00">+ virtual void notifyEvent</text>
<text text-anchor="start" x="202" y_="-536.5" font-family="Helvetica,sans-Serif" font-size="10.00">Subscribers(Event::EventType</text>
<text text-anchor="start" x="202" y_="-525.5" font-family="Helvetica,sans-Serif" font-size="10.00"> eventType)</text>
<text text-anchor="start" x="202" y_="-514.5" font-family="Helvetica,sans-Serif" font-size="10.00">+ void attachEventSubscriber</text>
<text text-anchor="start" x="202" y_="-503.5" font-family="Helvetica,sans-Serif" font-size="10.00">(EventSubscriber *sub, Event</text>
<text text-anchor="start" x="202" y_="-492.5" font-family="Helvetica,sans-Serif" font-size="10.00">::EventType eventType)</text>
<text text-anchor="start" x="202" y_="-481.5" font-family="Helvetica,sans-Serif" font-size="10.00">+ void detachEventSubscriber</text>
<text text-anchor="start" x="202" y_="-470.5" font-family="Helvetica,sans-Serif" font-size="10.00">(EventSubscriber *sub, Event</text>
<text text-anchor="start" x="202" y_="-459.5" font-family="Helvetica,sans-Serif" font-size="10.00">::EventType eventType)</text>
<text text-anchor="start" x="202" y_="-448.5" font-family="Helvetica,sans-Serif" font-size="10.00">+ bool operator==(const</text>
<text text-anchor="start" x="202" y_="-437.5" font-family="Helvetica,sans-Serif" font-size="10.00"> EventPublisher &amp;rhs)</text>
<text text-anchor="start" x="202" y_="-426.5" font-family="Helvetica,sans-Serif" font-size="10.00"> const</text>
<text text-anchor="start" x="202" y_="-415.5" font-family="Helvetica,sans-Serif" font-size="10.00">+ bool operator!=(const</text>
<text text-anchor="start" x="202" y_="-404.5" font-family="Helvetica,sans-Serif" font-size="10.00"> EventPublisher &amp;rhs)</text>
<text text-anchor="start" x="202" y_="-393.5" font-family="Helvetica,sans-Serif" font-size="10.00"> const</text>
<text text-anchor="start" x="202" y_="-382.5" font-family="Helvetica,sans-Serif" font-size="10.00"># EventPublisher()=default</text>
<text text-anchor="start" x="202" y_="-371.5" font-family="Helvetica,sans-Serif" font-size="10.00">&#45; void ensureEntryExists</text>
<text text-anchor="start" x="202" y_="-360.5" font-family="Helvetica,sans-Serif" font-size="10.00">(Event::EventType eventType)</text>
</a>
</g>
</g>
<!-- Node3&#45;&gt;Node2 -->
<g id="edge2" class="edge">
<title>Node3&#45;&gt;Node2</title>
<path fill="none" stroke="midnightblue" d="M276,-343.37C276,-330.3 276,-317.49 276,-305.58"/>
<polygon fill="none" stroke="midnightblue" points="272.5,-343.41 276,-353.41 279.5,-343.41 272.5,-343.41"/>
</g>
<!-- Node4 -->
<g id="node4" class="node">
<title>Node4</title>
<g id="a_node4"><a xlink:title=" ">
<polygon fill="none" stroke="black" points="188,-722.5 188,-790.5 364,-790.5 364,-722.5 188,-722.5"/>
<text text-anchor="start" x="196" y_="-778.5" font-family="Helvetica,sans-Serif" font-size="10.00">map&lt; Event::EventType,</text>
<text text-anchor="middle" x="276" y_="-767.5" font-family="Helvetica,sans-Serif" font-size="10.00"> std::list&lt; EventSubscriber * &gt; &gt;</text>
<polyline fill="none" stroke="black" points="188,-760.5 364,-760.5 "/>
<text text-anchor="middle" x="276" y_="-748.5" font-family="Helvetica,sans-Serif" font-size="10.00"> </text>
<polyline fill="none" stroke="black" points="188,-741.5 364,-741.5 "/>
<text text-anchor="middle" x="276" y_="-729.5" font-family="Helvetica,sans-Serif" font-size="10.00"> </text>
</a>
</g>
</g>
<!-- Node4&#45;&gt;Node3 -->
<g id="edge3" class="edge">
<title>Node4&#45;&gt;Node3</title>
<path fill="none" stroke="#404040" d="M276,-722.24C276,-696.42 276,-658.74 276,-620.85"/>
<polygon fill="none" stroke="#404040" points="276,-620.56 272,-614.56 276,-608.56 280,-614.56 276,-620.56"/>
<text text-anchor="middle" x="329" y_="-630" font-family="Helvetica,sans-Serif" font-size="10.00"> #event_subscribers_</text>
</g>
<!-- Node5 -->
<g id="node5" class="node">
<title>Node5</title>
<g id="a_node5"><a xlink:href="class_event_handler.html" target="_top" xlink:title=" ">
<polygon fill="none" stroke="black" points="20.5,-436 20.5,-526 167.5,-526 167.5,-436 20.5,-436"/>
<text text-anchor="middle" x="94" y_="-514" font-family="Helvetica,sans-Serif" font-size="10.00">EventHandler&lt; Event &gt;</text>
<polyline fill="none" stroke="black" points="20.5,-507 167.5,-507 "/>
<text text-anchor="middle" x="94" y_="-495" font-family="Helvetica,sans-Serif" font-size="10.00"> </text>
<polyline fill="none" stroke="black" points="20.5,-488 167.5,-488 "/>
<text text-anchor="start" x="28.5" y_="-476" font-family="Helvetica,sans-Serif" font-size="10.00">+ virtual void handleEvent</text>
<text text-anchor="start" x="28.5" y_="-465" font-family="Helvetica,sans-Serif" font-size="10.00">(std::unique_ptr&lt; Event</text>
<text text-anchor="start" x="28.5" y_="-454" font-family="Helvetica,sans-Serif" font-size="10.00"> &gt; event)=0</text>
<text text-anchor="start" x="28.5" y_="-443" font-family="Helvetica,sans-Serif" font-size="10.00"># EventHandler()=default</text>
</a>
</g>
</g>
<!-- Node5&#45;&gt;Node2 -->
<g id="edge4" class="edge">
<title>Node5&#45;&gt;Node2</title>
<path fill="none" stroke="midnightblue" d="M130.66,-427.49C147.01,-404.43 166.68,-377.16 185,-353 196.75,-337.5 209.66,-321.06 221.98,-305.64"/>
<polygon fill="none" stroke="midnightblue" points="127.71,-425.6 124.8,-435.79 133.43,-429.64 127.71,-425.6"/>
</g>
<!-- Node6 -->
<g id="node6" class="node">
<title>Node6</title>
<g id="a_node6"><a xlink:href="class_event_handler.html" target="_top" xlink:title=" ">
<polygon fill="none" stroke="black" points="0,-717 0,-796 170,-796 170,-717 0,-717"/>
<text text-anchor="middle" x="85" y_="-784" font-family="Helvetica,sans-Serif" font-size="10.00">EventHandler&lt; E &gt;</text>
<polyline fill="none" stroke="black" points="0,-777 170,-777 "/>
<text text-anchor="middle" x="85" y_="-765" font-family="Helvetica,sans-Serif" font-size="10.00"> </text>
<polyline fill="none" stroke="black" points="0,-758 170,-758 "/>
<text text-anchor="start" x="8" y_="-746" font-family="Helvetica,sans-Serif" font-size="10.00">+ virtual void handleEvent</text>
<text text-anchor="start" x="8" y_="-735" font-family="Helvetica,sans-Serif" font-size="10.00">(std::unique_ptr&lt; E &gt; event)=0</text>
<text text-anchor="start" x="8" y_="-724" font-family="Helvetica,sans-Serif" font-size="10.00"># EventHandler()=default</text>
</a>
</g>
</g>
<!-- Node6&#45;&gt;Node5 -->
<g id="edge5" class="edge">
<title>Node6&#45;&gt;Node5</title>
<path fill="none" stroke="orange" d="M86.6,-706.74C88.29,-655.54 90.91,-575.75 92.54,-526.3"/>
<polygon fill="orange" stroke="orange" points="83.1,-706.78 86.27,-716.89 90.1,-707.01 83.1,-706.78"/>
<text text-anchor="middle" x="116" y_="-630" font-family="Helvetica,sans-Serif" font-size="10.00"> &lt; Event &gt;</text>
</g>
<!-- Node7 -->
<g id="node7" class="node">
<title>Node7</title>
<g id="a_node7"><a xlink:href="class_game.html" target="_top" xlink:title=" ">
<polygon fill="none" stroke="black" points="770.5,-177 770.5,-300 929.5,-300 929.5,-177 770.5,-177"/>
<text text-anchor="middle" x="850" y_="-288" font-family="Helvetica,sans-Serif" font-size="10.00">Game</text>
<polyline fill="none" stroke="black" points="770.5,-281 929.5,-281 "/>
<text text-anchor="middle" x="850" y_="-269" font-family="Helvetica,sans-Serif" font-size="10.00"> </text>
<polyline fill="none" stroke="black" points="770.5,-262 929.5,-262 "/>
<text text-anchor="start" x="778.5" y_="-250" font-family="Helvetica,sans-Serif" font-size="10.00">+ Game()=delete</text>
<text text-anchor="start" x="778.5" y_="-239" font-family="Helvetica,sans-Serif" font-size="10.00">+ Game(unsigned int</text>
<text text-anchor="start" x="778.5" y_="-228" font-family="Helvetica,sans-Serif" font-size="10.00"> clock_freq)</text>
<text text-anchor="start" x="778.5" y_="-217" font-family="Helvetica,sans-Serif" font-size="10.00">+ void run()</text>
<text text-anchor="start" x="778.5" y_="-206" font-family="Helvetica,sans-Serif" font-size="10.00">+ void setActiveState()</text>
<text text-anchor="start" x="778.5" y_="-195" font-family="Helvetica,sans-Serif" font-size="10.00">&#45; void setup()</text>
<text text-anchor="start" x="778.5" y_="-184" font-family="Helvetica,sans-Serif" font-size="10.00">&#45; void createRenderWindow()</text>
</a>
</g>
</g>
<!-- Node7&#45;&gt;Node1 -->
<g id="edge6" class="edge">
<title>Node7&#45;&gt;Node1</title>
<path fill="none" stroke="#404040" d="M770.44,-204.68C694.86,-173.5 581.86,-126.89 506.36,-95.74"/>
<polygon fill="none" stroke="#404040" points="506.13,-95.64 499.06,-97.05 495.04,-91.07 502.11,-89.66 506.13,-95.64"/>
<text text-anchor="middle" x="659" y_="-145" font-family="Helvetica,sans-Serif" font-size="10.00"> &#45;game_</text>
</g>
<!-- Node9 -->
<g id="node9" class="node">
<title>Node9</title>
<g id="a_node9"><a xlink:href="class_game_state.html" target="_top" xlink:title=" ">
<polygon fill="none" stroke="black" points="848.5,-11.5 848.5,-112.5 987.5,-112.5 987.5,-11.5 848.5,-11.5"/>
<text text-anchor="middle" x="918" y_="-100.5" font-family="Helvetica,sans-Serif" font-size="10.00">GameState</text>
<polyline fill="none" stroke="black" points="848.5,-93.5 987.5,-93.5 "/>
<text text-anchor="middle" x="918" y_="-81.5" font-family="Helvetica,sans-Serif" font-size="10.00"> </text>
<polyline fill="none" stroke="black" points="848.5,-74.5 987.5,-74.5 "/>
<text text-anchor="start" x="856.5" y_="-62.5" font-family="Helvetica,sans-Serif" font-size="10.00">+ virtual ~GameState</text>
<text text-anchor="start" x="856.5" y_="-51.5" font-family="Helvetica,sans-Serif" font-size="10.00">()=default</text>
<text text-anchor="start" x="856.5" y_="-40.5" font-family="Helvetica,sans-Serif" font-size="10.00">+ PublisherEventHandler</text>
<text text-anchor="start" x="856.5" y_="-29.5" font-family="Helvetica,sans-Serif" font-size="10.00"> * getEventHandler()</text>
<text text-anchor="start" x="856.5" y_="-18.5" font-family="Helvetica,sans-Serif" font-size="10.00"># GameState()=default</text>
</a>
</g>
</g>
<!-- Node7&#45;&gt;Node9 -->
<g id="edge10" class="edge">
<title>Node7&#45;&gt;Node9</title>
<path fill="none" stroke="#404040" d="M840.96,-176.94C841.16,-165.07 842.81,-152.92 847,-142 849.54,-135.38 852.91,-128.97 856.82,-122.85"/>
<polygon fill="none" stroke="#404040" points="856.94,-122.67 857.12,-115.46 863.84,-112.85 863.67,-120.06 856.94,-122.67"/>
<text text-anchor="middle" x="869.5" y_="-145" font-family="Helvetica,sans-Serif" font-size="10.00"> #game_</text>
</g>
<!-- Node8 -->
<g id="node8" class="node">
<title>Node8</title>
<g id="a_node8"><a xlink:title=" ">
<polygon fill="none" stroke="black" points="1061,-452.5 1061,-509.5 1207,-509.5 1207,-452.5 1061,-452.5"/>
<text text-anchor="middle" x="1134" y_="-497.5" font-family="Helvetica,sans-Serif" font-size="10.00">unique_ptr&lt; GameState &gt;</text>
<polyline fill="none" stroke="black" points="1061,-490.5 1207,-490.5 "/>
<text text-anchor="middle" x="1134" y_="-478.5" font-family="Helvetica,sans-Serif" font-size="10.00"> </text>
<polyline fill="none" stroke="black" points="1061,-471.5 1207,-471.5 "/>
<text text-anchor="middle" x="1134" y_="-459.5" font-family="Helvetica,sans-Serif" font-size="10.00"> </text>
</a>
</g>
</g>
<!-- Node8&#45;&gt;Node7 -->
<g id="edge7" class="edge">
<title>Node8&#45;&gt;Node7</title>
<path fill="none" stroke="#404040" d="M1121.29,-452.4C1107.4,-424.59 1082.94,-381.77 1052,-353 1032.34,-334.72 1023.77,-334.36 999,-324 973.31,-313.26 963.86,-318.52 939,-306 938.89,-305.94 938.77,-305.89 938.66,-305.83"/>
<polygon fill="none" stroke="#404040" points="938.7,-305.85 931.52,-306.5 928.16,-300.12 935.34,-299.47 938.7,-305.85"/>
<text text-anchor="middle" x="1061.5" y_="-327" font-family="Helvetica,sans-Serif" font-size="10.00"> &#45;active_state_</text>
</g>
<!-- Node9&#45;&gt;Node7 -->
<g id="edge8" class="edge">
<title>Node9&#45;&gt;Node7</title>
<path fill="none" stroke="#404040" d="M908.27,-112.75C905.02,-126.04 900.93,-140.25 896,-153 894.4,-157.14 892.64,-161.33 890.76,-165.51"/>
<polygon fill="none" stroke="#404040" points="890.68,-165.68 891.74,-172.82 885.57,-176.54 884.5,-169.41 890.68,-165.68"/>
<text text-anchor="middle" x="917.5" y_="-145" font-family="Helvetica,sans-Serif" font-size="10.00"> &#45;state_</text>
</g>
<!-- Node10 -->
<g id="node10" class="node">
<title>Node10</title>
<g id="a_node10"><a xlink:title=" ">
<polygon fill="none" stroke="black" points="948,-204.5 948,-272.5 1100,-272.5 1100,-204.5 948,-204.5"/>
<text text-anchor="start" x="956" y_="-260.5" font-family="Helvetica,sans-Serif" font-size="10.00">unique_ptr&lt; PublisherEvent</text>
<text text-anchor="middle" x="1024" y_="-249.5" font-family="Helvetica,sans-Serif" font-size="10.00">Handler &gt;</text>
<polyline fill="none" stroke="black" points="948,-242.5 1100,-242.5 "/>
<text text-anchor="middle" x="1024" y_="-230.5" font-family="Helvetica,sans-Serif" font-size="10.00"> </text>
<polyline fill="none" stroke="black" points="948,-223.5 1100,-223.5 "/>
<text text-anchor="middle" x="1024" y_="-211.5" font-family="Helvetica,sans-Serif" font-size="10.00"> </text>
</a>
</g>
</g>
<!-- Node10&#45;&gt;Node9 -->
<g id="edge9" class="edge">
<title>Node10&#45;&gt;Node9</title>
<path fill="none" stroke="#404040" d="M1003.81,-204.27C989.92,-181.4 971.07,-150.36 954.57,-123.2"/>
<polygon fill="none" stroke="#404040" points="954.37,-122.88 947.84,-119.82 948.14,-112.62 954.68,-115.67 954.37,-122.88"/>
<text text-anchor="middle" x="1012.5" y_="-145" font-family="Helvetica,sans-Serif" font-size="10.00"> #eventHandler_</text>
</g>
<!-- Node11 -->
<g id="node11" class="node">
<title>Node11</title>
<g id="a_node11"><a xlink:href="class_clock.html" target="_top" xlink:title="Represents an externally controlled clock running at a given frequency.">
<polygon fill="none" stroke="black" points="1225.5,-392 1225.5,-570 1370.5,-570 1370.5,-392 1225.5,-392"/>
<text text-anchor="middle" x="1298" y_="-558" font-family="Helvetica,sans-Serif" font-size="10.00">Clock</text>
<polyline fill="none" stroke="black" points="1225.5,-551 1370.5,-551 "/>
<text text-anchor="middle" x="1298" y_="-539" font-family="Helvetica,sans-Serif" font-size="10.00"> </text>
<polyline fill="none" stroke="black" points="1225.5,-532 1370.5,-532 "/>
<text text-anchor="start" x="1233.5" y_="-520" font-family="Helvetica,sans-Serif" font-size="10.00">+ Clock()=delete</text>
<text text-anchor="start" x="1233.5" y_="-509" font-family="Helvetica,sans-Serif" font-size="10.00">+ Clock(const Clock</text>
<text text-anchor="start" x="1233.5" y_="-498" font-family="Helvetica,sans-Serif" font-size="10.00"> &amp;)=delete</text>
<text text-anchor="start" x="1233.5" y_="-487" font-family="Helvetica,sans-Serif" font-size="10.00">+ Clock operator=(const</text>
<text text-anchor="start" x="1233.5" y_="-476" font-family="Helvetica,sans-Serif" font-size="10.00"> Clock &amp;)=delete</text>
<text text-anchor="start" x="1233.5" y_="-465" font-family="Helvetica,sans-Serif" font-size="10.00">+ void tick()</text>
<text text-anchor="start" x="1233.5" y_="-454" font-family="Helvetica,sans-Serif" font-size="10.00">+ void sleep()</text>
<text text-anchor="start" x="1233.5" y_="-443" font-family="Helvetica,sans-Serif" font-size="10.00">+ static void initialize</text>
<text text-anchor="start" x="1233.5" y_="-432" font-family="Helvetica,sans-Serif" font-size="10.00">(unsigned int frequency)</text>
<text text-anchor="start" x="1233.5" y_="-421" font-family="Helvetica,sans-Serif" font-size="10.00">+ static Clock * instance()</text>
<text text-anchor="start" x="1233.5" y_="-410" font-family="Helvetica,sans-Serif" font-size="10.00">&#45; Clock(unsigned int</text>
<text text-anchor="start" x="1233.5" y_="-399" font-family="Helvetica,sans-Serif" font-size="10.00"> frequency)</text>
</a>
</g>
</g>
<!-- Node11&#45;&gt;Node7 -->
<g id="edge11" class="edge">
<title>Node11&#45;&gt;Node7</title>
<path fill="none" stroke="#404040" d="M1253.73,-391.98C1243.07,-377.26 1230.49,-363.42 1216,-353 1114.61,-280.11 1055.15,-351.83 939,-306 938.31,-305.73 937.63,-305.45 936.94,-305.17"/>
<polygon fill="none" stroke="#404040" points="936.8,-305.1 929.68,-306.19 925.93,-300.03 933.05,-298.94 936.8,-305.1"/>
<text text-anchor="middle" x="1200" y_="-327" font-family="Helvetica,sans-Serif" font-size="10.00"> &#45;clock_</text>
</g>
<!-- Node12 -->
<g id="node12" class="node">
<title>Node12</title>
<g id="a_node12"><a xlink:href="class_simple_publisher.html" target="_top" xlink:title=" ">
<polygon fill="none" stroke="black" points="1433,-656.5 1433,-856.5 1611,-856.5 1611,-656.5 1433,-656.5"/>
<text text-anchor="middle" x="1522" y_="-844.5" font-family="Helvetica,sans-Serif" font-size="10.00">SimplePublisher</text>
<polyline fill="none" stroke="black" points="1433,-837.5 1611,-837.5 "/>
<text text-anchor="middle" x="1522" y_="-825.5" font-family="Helvetica,sans-Serif" font-size="10.00"> </text>
<polyline fill="none" stroke="black" points="1433,-818.5 1611,-818.5 "/>
<text text-anchor="start" x="1441" y_="-806.5" font-family="Helvetica,sans-Serif" font-size="10.00">+ ~SimplePublisher()</text>
<text text-anchor="start" x="1441" y_="-795.5" font-family="Helvetica,sans-Serif" font-size="10.00">+ virtual void notifySubscribers()</text>
<text text-anchor="start" x="1441" y_="-784.5" font-family="Helvetica,sans-Serif" font-size="10.00">+ void attachSubscriber</text>
<text text-anchor="start" x="1441" y_="-773.5" font-family="Helvetica,sans-Serif" font-size="10.00">(SimpleSubscriber *)</text>
<text text-anchor="start" x="1441" y_="-762.5" font-family="Helvetica,sans-Serif" font-size="10.00">+ void detachSubscriber</text>
<text text-anchor="start" x="1441" y_="-751.5" font-family="Helvetica,sans-Serif" font-size="10.00">(SimpleSubscriber *)</text>
<text text-anchor="start" x="1441" y_="-740.5" font-family="Helvetica,sans-Serif" font-size="10.00">+ bool operator==(const</text>
<text text-anchor="start" x="1441" y_="-729.5" font-family="Helvetica,sans-Serif" font-size="10.00"> SimplePublisher &amp;rhs)</text>
<text text-anchor="start" x="1441" y_="-718.5" font-family="Helvetica,sans-Serif" font-size="10.00"> const</text>
<text text-anchor="start" x="1441" y_="-707.5" font-family="Helvetica,sans-Serif" font-size="10.00">+ bool operator!=(const</text>
<text text-anchor="start" x="1441" y_="-696.5" font-family="Helvetica,sans-Serif" font-size="10.00"> SimplePublisher &amp;rhs)</text>
<text text-anchor="start" x="1441" y_="-685.5" font-family="Helvetica,sans-Serif" font-size="10.00"> const</text>
<text text-anchor="start" x="1441" y_="-674.5" font-family="Helvetica,sans-Serif" font-size="10.00"># SimplePublisher()</text>
<text text-anchor="start" x="1441" y_="-663.5" font-family="Helvetica,sans-Serif" font-size="10.00">=default</text>
</a>
</g>
</g>
<!-- Node12&#45;&gt;Node11 -->
<g id="edge12" class="edge">
<title>Node12&#45;&gt;Node11</title>
<path fill="none" stroke="midnightblue" d="M1434.29,-648.41C1413.12,-622.57 1390.75,-595.24 1370.37,-570.37"/>
<polygon fill="none" stroke="midnightblue" points="1431.77,-650.85 1440.81,-656.37 1437.19,-646.42 1431.77,-650.85"/>
</g>
<!-- Node13 -->
<g id="node13" class="node">
<title>Node13</title>
<g id="a_node13"><a xlink:title=" ">
<polygon fill="none" stroke="black" points="1440.5,-910 1440.5,-967 1603.5,-967 1603.5,-910 1440.5,-910"/>
<text text-anchor="middle" x="1522" y_="-955" font-family="Helvetica,sans-Serif" font-size="10.00">vector&lt; SimpleSubscriber * &gt;</text>
<polyline fill="none" stroke="black" points="1440.5,-948 1603.5,-948 "/>
<text text-anchor="middle" x="1522" y_="-936" font-family="Helvetica,sans-Serif" font-size="10.00"> </text>
<polyline fill="none" stroke="black" points="1440.5,-929 1603.5,-929 "/>
<text text-anchor="middle" x="1522" y_="-917" font-family="Helvetica,sans-Serif" font-size="10.00"> </text>
</a>
</g>
</g>
<!-- Node13&#45;&gt;Node12 -->
<g id="edge13" class="edge">
<title>Node13&#45;&gt;Node12</title>
<path fill="none" stroke="#404040" d="M1522,-909.77C1522,-898.25 1522,-884.07 1522,-869.03"/>
<polygon fill="none" stroke="#404040" points="1522,-868.82 1518,-862.82 1522,-856.82 1526,-862.82 1522,-868.82"/>
<text text-anchor="middle" x="1558.5" y_="-878" font-family="Helvetica,sans-Serif" font-size="10.00"> #subscribers_</text>
</g>
<!-- Node14 -->
<g id="node14" class="node">
<title>Node14</title>
<g id="a_node14"><a xlink:title=" ">
<polygon fill="none" stroke="black" points="1047,-722.5 1047,-790.5 1181,-790.5 1181,-722.5 1047,-722.5"/>
<text text-anchor="start" x="1055" y_="-778.5" font-family="Helvetica,sans-Serif" font-size="10.00">time_point&lt; std::chrono</text>
<text text-anchor="middle" x="1114" y_="-767.5" font-family="Helvetica,sans-Serif" font-size="10.00">::steady_clock &gt;</text>
<polyline fill="none" stroke="black" points="1047,-760.5 1181,-760.5 "/>
<text text-anchor="middle" x="1114" y_="-748.5" font-family="Helvetica,sans-Serif" font-size="10.00"> </text>
<polyline fill="none" stroke="black" points="1047,-741.5 1181,-741.5 "/>
<text text-anchor="middle" x="1114" y_="-729.5" font-family="Helvetica,sans-Serif" font-size="10.00"> </text>
</a>
</g>
</g>
<!-- Node14&#45;&gt;Node11 -->
<g id="edge14" class="edge">
<title>Node14&#45;&gt;Node11</title>
<path fill="none" stroke="#404040" d="M1137.63,-722.27C1158.52,-692.73 1189.68,-648.25 1216,-609 1222.24,-599.7 1228.68,-589.97 1235.07,-580.21"/>
<polygon fill="none" stroke="#404040" points="1235.15,-580.1 1235.08,-572.88 1241.71,-570.05 1241.78,-577.26 1235.15,-580.1"/>
<text text-anchor="middle" x="1229" y_="-630" font-family="Helvetica,sans-Serif" font-size="10.00"> &#45;last_tick_</text>
</g>
<!-- Node15 -->
<g id="node15" class="node">
<title>Node15</title>
<g id="a_node15"><a xlink:title=" ">
<polygon fill="none" stroke="black" points="1199,-728 1199,-785 1279,-785 1279,-728 1199,-728"/>
<text text-anchor="middle" x="1239" y_="-773" font-family="Helvetica,sans-Serif" font-size="10.00">nanoseconds</text>
<polyline fill="none" stroke="black" points="1199,-766 1279,-766 "/>
<text text-anchor="middle" x="1239" y_="-754" font-family="Helvetica,sans-Serif" font-size="10.00"> </text>
<polyline fill="none" stroke="black" points="1199,-747 1279,-747 "/>
<text text-anchor="middle" x="1239" y_="-735" font-family="Helvetica,sans-Serif" font-size="10.00"> </text>
</a>
</g>
</g>
<!-- Node15&#45;&gt;Node11 -->
<g id="edge15" class="edge">
<title>Node15&#45;&gt;Node11</title>
<path fill="none" stroke="#404040" d="M1244.98,-727.77C1252.32,-693.75 1265.17,-634.2 1276.38,-582.23"/>
<polygon fill="none" stroke="#404040" points="1276.43,-581.97 1273.79,-575.26 1278.96,-570.24 1281.61,-576.95 1276.43,-581.97"/>
<text text-anchor="middle" x="1289" y_="-630" font-family="Helvetica,sans-Serif" font-size="10.00"> &#45;interval_</text>
</g>
<!-- Node16 -->
<g id="node16" class="node">
<title>Node16</title>
<g id="a_node16"><a xlink:title=" ">
<polygon fill="none" stroke="black" points="1297,-728 1297,-785 1415,-785 1415,-728 1297,-728"/>
<text text-anchor="middle" x="1356" y_="-773" font-family="Helvetica,sans-Serif" font-size="10.00">unique_ptr&lt; Clock &gt;</text>
<polyline fill="none" stroke="black" points="1297,-766 1415,-766 "/>
<text text-anchor="middle" x="1356" y_="-754" font-family="Helvetica,sans-Serif" font-size="10.00"> </text>
<polyline fill="none" stroke="black" points="1297,-747 1415,-747 "/>
<text text-anchor="middle" x="1356" y_="-735" font-family="Helvetica,sans-Serif" font-size="10.00"> </text>
</a>
</g>
</g>
<!-- Node16&#45;&gt;Node11 -->
<g id="edge16" class="edge">
<title>Node16&#45;&gt;Node11</title>
<path fill="none" stroke="#404040" d="M1350.12,-727.77C1342.91,-693.75 1330.28,-634.2 1319.26,-582.23"/>
<polygon fill="none" stroke="#404040" points="1319.2,-581.98 1314.04,-576.94 1316.71,-570.24 1321.87,-575.28 1319.2,-581.98"/>
<text text-anchor="middle" x="1345.5" y_="-630" font-family="Helvetica,sans-Serif" font-size="10.00"> &#45;self_</text>
</g>
<!-- Node17 -->
<g id="node17" class="node">
<title>Node17</title>
<g id="a_node17"><a xlink:href="class_event_queue.html" target="_top" xlink:title=" ">
<polygon fill="none" stroke="black" points="492,-386.5 492,-575.5 642,-575.5 642,-386.5 492,-386.5"/>
<text text-anchor="middle" x="567" y_="-563.5" font-family="Helvetica,sans-Serif" font-size="10.00">EventQueue&lt; Event &gt;</text>
<polyline fill="none" stroke="black" points="492,-556.5 642,-556.5 "/>
<text text-anchor="middle" x="567" y_="-544.5" font-family="Helvetica,sans-Serif" font-size="10.00"> </text>
<polyline fill="none" stroke="black" points="492,-537.5 642,-537.5 "/>
<text text-anchor="start" x="500" y_="-525.5" font-family="Helvetica,sans-Serif" font-size="10.00">+ EventQueue(EventQueue</text>
<text text-anchor="start" x="500" y_="-514.5" font-family="Helvetica,sans-Serif" font-size="10.00"> &amp;)=delete</text>
<text text-anchor="start" x="500" y_="-503.5" font-family="Helvetica,sans-Serif" font-size="10.00">+ bool operator=(const</text>
<text text-anchor="start" x="500" y_="-492.5" font-family="Helvetica,sans-Serif" font-size="10.00"> EventQueue &amp;)=delete</text>
<text text-anchor="start" x="500" y_="-481.5" font-family="Helvetica,sans-Serif" font-size="10.00">+ void registerEvent</text>
<text text-anchor="start" x="500" y_="-470.5" font-family="Helvetica,sans-Serif" font-size="10.00">(std::unique_ptr&lt; Event</text>
<text text-anchor="start" x="500" y_="-459.5" font-family="Helvetica,sans-Serif" font-size="10.00"> &gt; event)</text>
<text text-anchor="start" x="500" y_="-448.5" font-family="Helvetica,sans-Serif" font-size="10.00">+ std::unique_ptr&lt; Event</text>
<text text-anchor="start" x="500" y_="-437.5" font-family="Helvetica,sans-Serif" font-size="10.00"> &gt; pop()</text>
<text text-anchor="start" x="500" y_="-426.5" font-family="Helvetica,sans-Serif" font-size="10.00">+ bool isEmpty()</text>
<text text-anchor="start" x="500" y_="-415.5" font-family="Helvetica,sans-Serif" font-size="10.00">+ static EventQueue *</text>
<text text-anchor="start" x="500" y_="-404.5" font-family="Helvetica,sans-Serif" font-size="10.00"> instance()</text>
<text text-anchor="start" x="500" y_="-393.5" font-family="Helvetica,sans-Serif" font-size="10.00">&#45; EventQueue()=default</text>
</a>
</g>
</g>
<!-- Node17&#45;&gt;Node7 -->
<g id="edge17" class="edge">
<title>Node17&#45;&gt;Node7</title>
<path fill="none" stroke="#404040" d="M621.4,-386.44C630.45,-374.46 640.39,-362.94 651,-353 682.45,-323.56 722.9,-298.72 759.11,-279.85"/>
<polygon fill="none" stroke="#404040" points="759.51,-279.65 763.04,-273.36 770.2,-274.19 766.67,-280.48 759.51,-279.65"/>
<text text-anchor="middle" x="721" y_="-327" font-family="Helvetica,sans-Serif" font-size="10.00"> &#45;eventQueue_</text>
</g>
<!-- Node18 -->
<g id="node18" class="node">
<title>Node18</title>
<g id="a_node18"><a xlink:href="classstd_1_1queue_3_01std_1_1unique__ptr_3_01_event_01_4_01_4.html" target="_top" xlink:title=" ">
<polygon fill="none" stroke="black" points="550,-722.5 550,-790.5 662,-790.5 662,-722.5 550,-722.5"/>
<text text-anchor="start" x="558" y_="-778.5" font-family="Helvetica,sans-Serif" font-size="10.00">queue&lt; std::unique</text>
<text text-anchor="middle" x="606" y_="-767.5" font-family="Helvetica,sans-Serif" font-size="10.00">_ptr&lt; Event &gt; &gt;</text>
<polyline fill="none" stroke="black" points="550,-760.5 662,-760.5 "/>
<text text-anchor="middle" x="606" y_="-748.5" font-family="Helvetica,sans-Serif" font-size="10.00"> </text>
<polyline fill="none" stroke="black" points="550,-741.5 662,-741.5 "/>
<text text-anchor="middle" x="606" y_="-729.5" font-family="Helvetica,sans-Serif" font-size="10.00"> </text>
</a>
</g>
</g>
<!-- Node18&#45;&gt;Node17 -->
<g id="edge18" class="edge">
<title>Node18&#45;&gt;Node17</title>
<path fill="none" stroke="#404040" d="M601.26,-722.24C596.49,-688.84 588.9,-635.6 582.08,-587.72"/>
<polygon fill="none" stroke="#404040" points="582.05,-587.56 577.25,-582.19 580.36,-575.68 585.17,-581.06 582.05,-587.56"/>
<text text-anchor="middle" x="614" y_="-630" font-family="Helvetica,sans-Serif" font-size="10.00"> #events_</text>
</g>
<!-- Node19 -->
<g id="node19" class="node">
<title>Node19</title>
<g id="a_node19"><a xlink:title=" ">
<polygon fill="none" stroke="black" points="577,-910 577,-967 727,-967 727,-910 577,-910"/>
<text text-anchor="middle" x="652" y_="-955" font-family="Helvetica,sans-Serif" font-size="10.00">unique_ptr&lt; EventQueue &gt;</text>
<polyline fill="none" stroke="black" points="577,-948 727,-948 "/>
<text text-anchor="middle" x="652" y_="-936" font-family="Helvetica,sans-Serif" font-size="10.00"> </text>
<polyline fill="none" stroke="black" points="577,-929 727,-929 "/>
<text text-anchor="middle" x="652" y_="-917" font-family="Helvetica,sans-Serif" font-size="10.00"> </text>
</a>
</g>
</g>
<!-- Node19&#45;&gt;Node17 -->
<g id="edge19" class="edge">
<title>Node19&#45;&gt;Node17</title>
<path fill="none" stroke="#404040" d="M659.87,-909.71C673.07,-858.49 695.9,-746.18 671,-656 666.73,-640.52 652.27,-613.95 635.45,-586.17"/>
<polygon fill="none" stroke="#404040" points="635.43,-586.13 628.88,-583.11 629.16,-575.9 635.7,-578.93 635.43,-586.13"/>
<text text-anchor="middle" x="700.5" y_="-754" font-family="Helvetica,sans-Serif" font-size="10.00"> #self_</text>
</g>
<!-- Node20 -->
<g id="node20" class="node">
<title>Node20</title>
<g id="a_node20"><a xlink:href="class_event_queue.html" target="_top" xlink:title="Singleton class wrapper for std::queue&lt;E&gt;.">
<polygon fill="none" stroke="black" points="382,-662 382,-851 532,-851 532,-662 382,-662"/>
<text text-anchor="middle" x="457" y_="-839" font-family="Helvetica,sans-Serif" font-size="10.00">EventQueue&lt; E &gt;</text>
<polyline fill="none" stroke="black" points="382,-832 532,-832 "/>
<text text-anchor="middle" x="457" y_="-820" font-family="Helvetica,sans-Serif" font-size="10.00"> </text>
<polyline fill="none" stroke="black" points="382,-813 532,-813 "/>
<text text-anchor="start" x="390" y_="-801" font-family="Helvetica,sans-Serif" font-size="10.00">+ EventQueue(EventQueue</text>
<text text-anchor="start" x="390" y_="-790" font-family="Helvetica,sans-Serif" font-size="10.00"> &amp;)=delete</text>
<text text-anchor="start" x="390" y_="-779" font-family="Helvetica,sans-Serif" font-size="10.00">+ bool operator=(const</text>
<text text-anchor="start" x="390" y_="-768" font-family="Helvetica,sans-Serif" font-size="10.00"> EventQueue &amp;)=delete</text>
<text text-anchor="start" x="390" y_="-757" font-family="Helvetica,sans-Serif" font-size="10.00">+ void registerEvent</text>
<text text-anchor="start" x="390" y_="-746" font-family="Helvetica,sans-Serif" font-size="10.00">(std::unique_ptr&lt; E</text>
<text text-anchor="start" x="390" y_="-735" font-family="Helvetica,sans-Serif" font-size="10.00"> &gt; event)</text>
<text text-anchor="start" x="390" y_="-724" font-family="Helvetica,sans-Serif" font-size="10.00">+ std::unique_ptr&lt; E</text>
<text text-anchor="start" x="390" y_="-713" font-family="Helvetica,sans-Serif" font-size="10.00"> &gt; pop()</text>
<text text-anchor="start" x="390" y_="-702" font-family="Helvetica,sans-Serif" font-size="10.00">+ bool isEmpty()</text>
<text text-anchor="start" x="390" y_="-691" font-family="Helvetica,sans-Serif" font-size="10.00">+ static EventQueue *</text>
<text text-anchor="start" x="390" y_="-680" font-family="Helvetica,sans-Serif" font-size="10.00"> instance()</text>
<text text-anchor="start" x="390" y_="-669" font-family="Helvetica,sans-Serif" font-size="10.00">&#45; EventQueue()=default</text>
</a>
</g>
</g>
<!-- Node19&#45;&gt;Node20 -->
<g id="edge22" class="edge">
<title>Node19&#45;&gt;Node20</title>
<path fill="none" stroke="#404040" d="M609.02,-909.94C587.63,-895.34 561.93,-876.44 541,-857 540.91,-856.91 540.81,-856.83 540.72,-856.74"/>
<polygon fill="none" stroke="#404040" points="540.72,-856.74 533.63,-855.46 532.08,-848.41 539.18,-849.7 540.72,-856.74"/>
<text text-anchor="middle" x="593.5" y_="-878" font-family="Helvetica,sans-Serif" font-size="10.00"> #self_</text>
</g>
<!-- Node20&#45;&gt;Node17 -->
<g id="edge20" class="edge">
<title>Node20&#45;&gt;Node17</title>
<path fill="none" stroke="orange" d="M498.54,-652.21C508.66,-627.05 519.42,-600.29 529.35,-575.62"/>
<polygon fill="orange" stroke="orange" points="495.19,-651.18 494.7,-661.76 501.68,-653.79 495.19,-651.18"/>
<text text-anchor="middle" x="533" y_="-630" font-family="Helvetica,sans-Serif" font-size="10.00"> &lt; Event &gt;</text>
</g>
<!-- Node21 -->
<g id="node21" class="node">
<title>Node21</title>
<g id="a_node21"><a xlink:title=" ">
<polygon fill="none" stroke="black" points="401,-904.5 401,-972.5 513,-972.5 513,-904.5 401,-904.5"/>
<text text-anchor="start" x="409" y_="-960.5" font-family="Helvetica,sans-Serif" font-size="10.00">queue&lt; std::unique</text>
<text text-anchor="middle" x="457" y_="-949.5" font-family="Helvetica,sans-Serif" font-size="10.00">_ptr&lt; E &gt; &gt;</text>
<polyline fill="none" stroke="black" points="401,-942.5 513,-942.5 "/>
<text text-anchor="middle" x="457" y_="-930.5" font-family="Helvetica,sans-Serif" font-size="10.00"> </text>
<polyline fill="none" stroke="black" points="401,-923.5 513,-923.5 "/>
<text text-anchor="middle" x="457" y_="-911.5" font-family="Helvetica,sans-Serif" font-size="10.00"> </text>
</a>
</g>
</g>
<!-- Node21&#45;&gt;Node20 -->
<g id="edge21" class="edge">
<title>Node21&#45;&gt;Node20</title>
<path fill="none" stroke="#404040" d="M457,-904.49C457,-892.47 457,-878.16 457,-863.25"/>
<polygon fill="none" stroke="#404040" points="457,-863.2 453,-857.2 457,-851.2 461,-857.2 457,-863.2"/>
<text text-anchor="middle" x="482" y_="-878" font-family="Helvetica,sans-Serif" font-size="10.00"> #events_</text>
</g>
<!-- Node22 -->
<g id="node22" class="node">
<title>Node22</title>
<g id="a_node22"><a xlink:title=" ">
<polygon fill="none" stroke="black" points="660.5,-452.5 660.5,-509.5 839.5,-509.5 839.5,-452.5 660.5,-452.5"/>
<text text-anchor="middle" x="750" y_="-497.5" font-family="Helvetica,sans-Serif" font-size="10.00">unique_ptr&lt; sf::RenderWindow &gt;</text>
<polyline fill="none" stroke="black" points="660.5,-490.5 839.5,-490.5 "/>
<text text-anchor="middle" x="750" y_="-478.5" font-family="Helvetica,sans-Serif" font-size="10.00"> </text>
<polyline fill="none" stroke="black" points="660.5,-471.5 839.5,-471.5 "/>
<text text-anchor="middle" x="750" y_="-459.5" font-family="Helvetica,sans-Serif" font-size="10.00"> </text>
</a>
</g>
</g>
<!-- Node22&#45;&gt;Node7 -->
<g id="edge23" class="edge">
<title>Node22&#45;&gt;Node7</title>
<path fill="none" stroke="#404040" d="M761.47,-452.41C775.67,-418.26 800.39,-358.8 820.11,-311.38"/>
<polygon fill="none" stroke="#404040" points="820.14,-311.31 818.75,-304.24 824.75,-300.23 826.14,-307.31 820.14,-311.31"/>
<text text-anchor="middle" x="840" y_="-327" font-family="Helvetica,sans-Serif" font-size="10.00"> &#45;window_</text>
</g>
<!-- Node23 -->
<g id="node23" class="node">
<title>Node23</title>
<g id="a_node23"><a xlink:title=" ">
<polygon fill="none" stroke="black" points="857.5,-452.5 857.5,-509.5 1042.5,-509.5 1042.5,-452.5 857.5,-452.5"/>
<text text-anchor="middle" x="950" y_="-497.5" font-family="Helvetica,sans-Serif" font-size="10.00">unique_ptr&lt; KeyboardController &gt;</text>
<polyline fill="none" stroke="black" points="857.5,-490.5 1042.5,-490.5 "/>
<text text-anchor="middle" x="950" y_="-478.5" font-family="Helvetica,sans-Serif" font-size="10.00"> </text>
<polyline fill="none" stroke="black" points="857.5,-471.5 1042.5,-471.5 "/>
<text text-anchor="middle" x="950" y_="-459.5" font-family="Helvetica,sans-Serif" font-size="10.00"> </text>
</a>
</g>
</g>
<!-- Node23&#45;&gt;Node7 -->
<g id="edge24" class="edge">
<title>Node23&#45;&gt;Node7</title>
<path fill="none" stroke="#404040" d="M938.53,-452.41C924.33,-418.26 899.61,-358.8 879.89,-311.38"/>
<polygon fill="none" stroke="#404040" points="879.86,-311.31 873.86,-307.31 875.25,-300.23 881.25,-304.24 879.86,-311.31"/>
<text text-anchor="middle" x="942" y_="-327" font-family="Helvetica,sans-Serif" font-size="10.00"> &#45;keyboardController_</text>
</g>
</g>
</svg>
