<?xml version="1.0" encoding="UTF-8" standalone="no"?>
<!DOCTYPE svg PUBLIC "-//W3C//DTD SVG 1.1//EN"
 "http://www.w3.org/Graphics/SVG/1.1/DTD/svg11.dtd">
<!-- Generated by graphviz version 2.43.0 (0)
 -->
<!-- Title: ArmorTank Pages: 1 -->
<svg width="726pt" height="921pt"
 viewBox="0.00 0.00 726.23 921.00" xmlns="http://www.w3.org/2000/svg" xmlns:xlink="http://www.w3.org/1999/xlink">
<g id="graph0" class="graph" transform="scale(1 1) rotate(0) translate(4 917)">
<title>ArmorTank</title>
<!-- Node1 -->
<g id="node1" class="node">
<title>Node1</title>
<g id="a_node1"><a xlink:title=" ">
<polygon fill="#bfbfbf" stroke="black" points="434.73,-0.5 434.73,-90.5 561.73,-90.5 561.73,-0.5 434.73,-0.5"/>
<text text-anchor="middle" x="498.23" y="-78.5" font-family="Helvetica,sans-Serif" font-size="10.00">ArmorTank</text>
<polyline fill="none" stroke="black" points="434.73,-71.5 561.73,-71.5 "/>
<text text-anchor="middle" x="498.23" y="-59.5" font-family="Helvetica,sans-Serif" font-size="10.00"> </text>
<polyline fill="none" stroke="black" points="434.73,-52.5 561.73,-52.5 "/>
<text text-anchor="start" x="442.73" y="-40.5" font-family="Helvetica,sans-Serif" font-size="10.00">+ ArmorTank()=delete</text>
<text text-anchor="start" x="442.73" y="-29.5" font-family="Helvetica,sans-Serif" font-size="10.00">+ ArmorTank(float x,</text>
<text text-anchor="start" x="442.73" y="-18.5" font-family="Helvetica,sans-Serif" font-size="10.00"> float y, Direction</text>
<text text-anchor="start" x="442.73" y="-7.5" font-family="Helvetica,sans-Serif" font-size="10.00"> facing=North)</text>
</a>
</g>
</g>
<!-- Node2 -->
<g id="node2" class="node">
<title>Node2</title>
<g id="a_node2"><a xlink:href="class_tank.html" target="_top" xlink:title="Base class for tank representation.">
<polygon fill="none" stroke="black" points="413.73,-128.5 413.73,-493.5 582.73,-493.5 582.73,-128.5 413.73,-128.5"/>
<text text-anchor="middle" x="498.23" y="-481.5" font-family="Helvetica,sans-Serif" font-size="10.00">Tank</text>
<polyline fill="none" stroke="black" points="413.73,-474.5 582.73,-474.5 "/>
<text text-anchor="middle" x="498.23" y="-462.5" font-family="Helvetica,sans-Serif" font-size="10.00"> </text>
<polyline fill="none" stroke="black" points="413.73,-455.5 582.73,-455.5 "/>
<text text-anchor="start" x="421.73" y="-443.5" font-family="Helvetica,sans-Serif" font-size="10.00">+ void setFacing(Direction</text>
<text text-anchor="start" x="421.73" y="-432.5" font-family="Helvetica,sans-Serif" font-size="10.00"> direction)</text>
<text text-anchor="start" x="421.73" y="-421.5" font-family="Helvetica,sans-Serif" font-size="10.00">+ bool move() override</text>
<text text-anchor="start" x="421.73" y="-410.5" font-family="Helvetica,sans-Serif" font-size="10.00">+ bool moveBack() override</text>
<text text-anchor="start" x="421.73" y="-399.5" font-family="Helvetica,sans-Serif" font-size="10.00">+ void deltaLives(int</text>
<text text-anchor="start" x="421.73" y="-388.5" font-family="Helvetica,sans-Serif" font-size="10.00"> delta_l)</text>
<text text-anchor="start" x="421.73" y="-377.5" font-family="Helvetica,sans-Serif" font-size="10.00">+ TankType getType()</text>
<text text-anchor="start" x="421.73" y="-366.5" font-family="Helvetica,sans-Serif" font-size="10.00"> const</text>
<text text-anchor="start" x="421.73" y="-355.5" font-family="Helvetica,sans-Serif" font-size="10.00">+ unsigned int getLives</text>
<text text-anchor="start" x="421.73" y="-344.5" font-family="Helvetica,sans-Serif" font-size="10.00">() const</text>
<text text-anchor="start" x="421.73" y="-333.5" font-family="Helvetica,sans-Serif" font-size="10.00">+ void setMoving(bool</text>
<text text-anchor="start" x="421.73" y="-322.5" font-family="Helvetica,sans-Serif" font-size="10.00"> isMoving)</text>
<text text-anchor="start" x="421.73" y="-311.5" font-family="Helvetica,sans-Serif" font-size="10.00">+ bool isMoving() const</text>
<text text-anchor="start" x="421.73" y="-300.5" font-family="Helvetica,sans-Serif" font-size="10.00">+ unsigned int getPoints</text>
<text text-anchor="start" x="421.73" y="-289.5" font-family="Helvetica,sans-Serif" font-size="10.00">() const</text>
<text text-anchor="start" x="421.73" y="-278.5" font-family="Helvetica,sans-Serif" font-size="10.00">+ void setX(float x)</text>
<text text-anchor="start" x="421.73" y="-267.5" font-family="Helvetica,sans-Serif" font-size="10.00">+ void setY(float y)</text>
<text text-anchor="start" x="421.73" y="-256.5" font-family="Helvetica,sans-Serif" font-size="10.00">+ void offsetInCurrentDirection</text>
<text text-anchor="start" x="421.73" y="-245.5" font-family="Helvetica,sans-Serif" font-size="10.00">(float offset)</text>
<text text-anchor="start" x="421.73" y="-234.5" font-family="Helvetica,sans-Serif" font-size="10.00">+ std::optional&lt; std</text>
<text text-anchor="start" x="421.73" y="-223.5" font-family="Helvetica,sans-Serif" font-size="10.00">::unique_ptr&lt; Bullet</text>
<text text-anchor="start" x="421.73" y="-212.5" font-family="Helvetica,sans-Serif" font-size="10.00"> &gt; &gt; createBullet()</text>
<text text-anchor="start" x="421.73" y="-201.5" font-family="Helvetica,sans-Serif" font-size="10.00">+ void notify(SimplePublisher</text>
<text text-anchor="start" x="421.73" y="-190.5" font-family="Helvetica,sans-Serif" font-size="10.00"> *pub) override</text>
<text text-anchor="start" x="421.73" y="-179.5" font-family="Helvetica,sans-Serif" font-size="10.00"># Tank(TankType type,</text>
<text text-anchor="start" x="421.73" y="-168.5" font-family="Helvetica,sans-Serif" font-size="10.00"> float x, float y, float</text>
<text text-anchor="start" x="421.73" y="-157.5" font-family="Helvetica,sans-Serif" font-size="10.00"> speed, float bulletSpeed,</text>
<text text-anchor="start" x="421.73" y="-146.5" font-family="Helvetica,sans-Serif" font-size="10.00"> unsigned int lives, Direction</text>
<text text-anchor="start" x="421.73" y="-135.5" font-family="Helvetica,sans-Serif" font-size="10.00"> direction, unsigned int points)</text>
</a>
</g>
</g>
<!-- Node2&#45;&gt;Node1 -->
<g id="edge1" class="edge">
<title>Node2&#45;&gt;Node1</title>
<path fill="none" stroke="midnightblue" d="M498.23,-118.3C498.23,-108.36 498.23,-98.99 498.23,-90.52"/>
<polygon fill="none" stroke="midnightblue" points="494.73,-118.43 498.23,-128.43 501.73,-118.43 494.73,-118.43"/>
</g>
<!-- Node3 -->
<g id="node3" class="node">
<title>Node3</title>
<g id="a_node3"><a xlink:href="class_entity.html" target="_top" xlink:title=" ">
<polygon fill="none" stroke="black" points="114.23,-552.5 114.23,-763.5 274.23,-763.5 274.23,-552.5 114.23,-552.5"/>
<text text-anchor="middle" x="194.23" y="-751.5" font-family="Helvetica,sans-Serif" font-size="10.00">Entity</text>
<polyline fill="none" stroke="black" points="114.23,-744.5 274.23,-744.5 "/>
<text text-anchor="middle" x="194.23" y="-732.5" font-family="Helvetica,sans-Serif" font-size="10.00"> </text>
<polyline fill="none" stroke="black" points="114.23,-725.5 274.23,-725.5 "/>
<text text-anchor="start" x="122.23" y="-713.5" font-family="Helvetica,sans-Serif" font-size="10.00">+ virtual ~Entity()=default</text>
<text text-anchor="start" x="122.23" y="-702.5" font-family="Helvetica,sans-Serif" font-size="10.00">+ virtual bool move()=0</text>
<text text-anchor="start" x="122.23" y="-691.5" font-family="Helvetica,sans-Serif" font-size="10.00">+ virtual bool moveBack()=0</text>
<text text-anchor="start" x="122.23" y="-680.5" font-family="Helvetica,sans-Serif" font-size="10.00">+ float getX() const</text>
<text text-anchor="start" x="122.23" y="-669.5" font-family="Helvetica,sans-Serif" font-size="10.00">+ float getY() const</text>
<text text-anchor="start" x="122.23" y="-658.5" font-family="Helvetica,sans-Serif" font-size="10.00">+ float getSpeed() const</text>
<text text-anchor="start" x="122.23" y="-647.5" font-family="Helvetica,sans-Serif" font-size="10.00">+ Direction getFacing</text>
<text text-anchor="start" x="122.23" y="-636.5" font-family="Helvetica,sans-Serif" font-size="10.00">() const</text>
<text text-anchor="start" x="122.23" y="-625.5" font-family="Helvetica,sans-Serif" font-size="10.00">+ float getSizeX() const</text>
<text text-anchor="start" x="122.23" y="-614.5" font-family="Helvetica,sans-Serif" font-size="10.00">+ float getSizeY() const</text>
<text text-anchor="start" x="122.23" y="-603.5" font-family="Helvetica,sans-Serif" font-size="10.00"># Entity()=default</text>
<text text-anchor="start" x="122.23" y="-592.5" font-family="Helvetica,sans-Serif" font-size="10.00"># Entity(float x, float</text>
<text text-anchor="start" x="122.23" y="-581.5" font-family="Helvetica,sans-Serif" font-size="10.00"> y, float sizeX, float</text>
<text text-anchor="start" x="122.23" y="-570.5" font-family="Helvetica,sans-Serif" font-size="10.00"> sizeY, float speed, Direction</text>
<text text-anchor="start" x="122.23" y="-559.5" font-family="Helvetica,sans-Serif" font-size="10.00"> facing)</text>
</a>
</g>
</g>
<!-- Node3&#45;&gt;Node2 -->
<g id="edge2" class="edge">
<title>Node3&#45;&gt;Node2</title>
<path fill="none" stroke="midnightblue" d="M281.04,-554.51C281.77,-553.67 282.5,-552.83 283.23,-552 325.77,-503.18 373.79,-449.45 413.65,-405.22"/>
<polygon fill="none" stroke="midnightblue" points="278.31,-552.32 274.4,-562.17 283.6,-556.91 278.31,-552.32"/>
</g>
<!-- Node4 -->
<g id="node4" class="node">
<title>Node4</title>
<g id="a_node4"><a xlink:title=" ">
<polygon fill="none" stroke="black" points="28.23,-855.5 28.23,-912.5 66.23,-912.5 66.23,-855.5 28.23,-855.5"/>
<text text-anchor="middle" x="47.23" y="-900.5" font-family="Helvetica,sans-Serif" font-size="10.00">float</text>
<polyline fill="none" stroke="black" points="28.23,-893.5 66.23,-893.5 "/>
<text text-anchor="middle" x="47.23" y="-881.5" font-family="Helvetica,sans-Serif" font-size="10.00"> </text>
<polyline fill="none" stroke="black" points="28.23,-874.5 66.23,-874.5 "/>
<text text-anchor="middle" x="47.23" y="-862.5" font-family="Helvetica,sans-Serif" font-size="10.00"> </text>
</a>
</g>
</g>
<!-- Node4&#45;&gt;Node2 -->
<g id="edge10" class="edge">
<title>Node4&#45;&gt;Node2</title>
<path fill="none" stroke="#404040" d="M36.03,-855.16C13.7,-794.79 -29.32,-649.47 30.23,-552 110.84,-420.06 289.57,-357.66 401.34,-330.53"/>
<polygon fill="none" stroke="#404040" points="401.61,-330.47 406.53,-325.19 413.29,-327.7 408.37,-332.98 401.61,-330.47"/>
<text text-anchor="middle" x="67.73" y="-655.5" font-family="Helvetica,sans-Serif" font-size="10.00"> #bulletSpeed_</text>
</g>
<!-- Node4&#45;&gt;Node3 -->
<g id="edge3" class="edge">
<title>Node4&#45;&gt;Node3</title>
<path fill="none" stroke="#404040" d="M65.55,-855.08C79.24,-834.22 98.95,-804.18 118.85,-773.87"/>
<polygon fill="none" stroke="#404040" points="119.01,-773.62 118.96,-766.41 125.59,-763.59 125.64,-770.8 119.01,-773.62"/>
<text text-anchor="middle" x="136.23" y="-829" font-family="Helvetica,sans-Serif" font-size="10.00"> #size_x_</text>
<text text-anchor="middle" x="136.23" y="-818" font-family="Helvetica,sans-Serif" font-size="10.00">#size_y_</text>
<text text-anchor="middle" x="136.23" y="-807" font-family="Helvetica,sans-Serif" font-size="10.00">#speed_</text>
<text text-anchor="middle" x="136.23" y="-796" font-family="Helvetica,sans-Serif" font-size="10.00">#x_</text>
<text text-anchor="middle" x="136.23" y="-785" font-family="Helvetica,sans-Serif" font-size="10.00">#y_</text>
</g>
<!-- Node5 -->
<g id="node5" class="node">
<title>Node5</title>
<g id="a_node5"><a xlink:title=" ">
<polygon fill="none" stroke="black" points="163.73,-855.5 163.73,-912.5 224.73,-912.5 224.73,-855.5 163.73,-855.5"/>
<text text-anchor="middle" x="194.23" y="-900.5" font-family="Helvetica,sans-Serif" font-size="10.00">Direction</text>
<polyline fill="none" stroke="black" points="163.73,-893.5 224.73,-893.5 "/>
<text text-anchor="middle" x="194.23" y="-881.5" font-family="Helvetica,sans-Serif" font-size="10.00"> </text>
<polyline fill="none" stroke="black" points="163.73,-874.5 224.73,-874.5 "/>
<text text-anchor="middle" x="194.23" y="-862.5" font-family="Helvetica,sans-Serif" font-size="10.00"> </text>
</a>
</g>
</g>
<!-- Node5&#45;&gt;Node3 -->
<g id="edge4" class="edge">
<title>Node5&#45;&gt;Node3</title>
<path fill="none" stroke="#404040" d="M194.23,-855.08C194.23,-834.67 194.23,-805.49 194.23,-775.84"/>
<polygon fill="none" stroke="#404040" points="194.23,-775.59 190.23,-769.59 194.23,-763.59 198.23,-769.59 194.23,-775.59"/>
<text text-anchor="middle" x="217.73" y="-807" font-family="Helvetica,sans-Serif" font-size="10.00"> #facing_</text>
</g>
<!-- Node6 -->
<g id="node6" class="node">
<title>Node6</title>
<g id="a_node6"><a xlink:href="class_simple_subscriber.html" target="_top" xlink:title=" ">
<polygon fill="none" stroke="black" points="292.73,-574.5 292.73,-741.5 485.73,-741.5 485.73,-574.5 292.73,-574.5"/>
<text text-anchor="middle" x="389.23" y="-729.5" font-family="Helvetica,sans-Serif" font-size="10.00">SimpleSubscriber</text>
<polyline fill="none" stroke="black" points="292.73,-722.5 485.73,-722.5 "/>
<text text-anchor="middle" x="389.23" y="-710.5" font-family="Helvetica,sans-Serif" font-size="10.00"> </text>
<polyline fill="none" stroke="black" points="292.73,-703.5 485.73,-703.5 "/>
<text text-anchor="start" x="300.73" y="-691.5" font-family="Helvetica,sans-Serif" font-size="10.00">+ ~SimpleSubscriber()</text>
<text text-anchor="start" x="300.73" y="-680.5" font-family="Helvetica,sans-Serif" font-size="10.00">+ void subscribe(SimplePublisher</text>
<text text-anchor="start" x="300.73" y="-669.5" font-family="Helvetica,sans-Serif" font-size="10.00"> *pub)</text>
<text text-anchor="start" x="300.73" y="-658.5" font-family="Helvetica,sans-Serif" font-size="10.00">+ void unsubscribe(SimplePublisher</text>
<text text-anchor="start" x="300.73" y="-647.5" font-family="Helvetica,sans-Serif" font-size="10.00"> *pub)</text>
<text text-anchor="start" x="300.73" y="-636.5" font-family="Helvetica,sans-Serif" font-size="10.00">+ void removeDeletedSubject</text>
<text text-anchor="start" x="300.73" y="-625.5" font-family="Helvetica,sans-Serif" font-size="10.00">(SimplePublisher *pub)</text>
<text text-anchor="start" x="300.73" y="-614.5" font-family="Helvetica,sans-Serif" font-size="10.00">+ virtual void notify</text>
<text text-anchor="start" x="300.73" y="-603.5" font-family="Helvetica,sans-Serif" font-size="10.00">(SimplePublisher *pub)=0</text>
<text text-anchor="start" x="300.73" y="-592.5" font-family="Helvetica,sans-Serif" font-size="10.00"># SimpleSubscriber()</text>
<text text-anchor="start" x="300.73" y="-581.5" font-family="Helvetica,sans-Serif" font-size="10.00">=default</text>
</a>
</g>
</g>
<!-- Node6&#45;&gt;Node2 -->
<g id="edge5" class="edge">
<title>Node6&#45;&gt;Node2</title>
<path fill="none" stroke="midnightblue" d="M418.38,-564.72C425.36,-542.65 433.04,-518.33 440.81,-493.75"/>
<polygon fill="none" stroke="midnightblue" points="415.01,-563.77 415.34,-574.36 421.69,-565.88 415.01,-563.77"/>
</g>
<!-- Node7 -->
<g id="node7" class="node">
<title>Node7</title>
<g id="a_node7"><a xlink:title=" ">
<polygon fill="none" stroke="black" points="310.73,-855.5 310.73,-912.5 467.73,-912.5 467.73,-855.5 310.73,-855.5"/>
<text text-anchor="middle" x="389.23" y="-900.5" font-family="Helvetica,sans-Serif" font-size="10.00">vector&lt; SimplePublisher * &gt;</text>
<polyline fill="none" stroke="black" points="310.73,-893.5 467.73,-893.5 "/>
<text text-anchor="middle" x="389.23" y="-881.5" font-family="Helvetica,sans-Serif" font-size="10.00"> </text>
<polyline fill="none" stroke="black" points="310.73,-874.5 467.73,-874.5 "/>
<text text-anchor="middle" x="389.23" y="-862.5" font-family="Helvetica,sans-Serif" font-size="10.00"> </text>
</a>
</g>
</g>
<!-- Node7&#45;&gt;Node6 -->
<g id="edge6" class="edge">
<title>Node7&#45;&gt;Node6</title>
<path fill="none" stroke="#404040" d="M389.23,-855.08C389.23,-829.69 389.23,-790.71 389.23,-754.17"/>
<polygon fill="none" stroke="#404040" points="389.23,-753.89 385.23,-747.89 389.23,-741.89 393.23,-747.89 389.23,-753.89"/>
<text text-anchor="middle" x="444.73" y="-807" font-family="Helvetica,sans-Serif" font-size="10.00"> #subscribedSubjects_</text>
</g>
<!-- Node8 -->
<g id="node8" class="node">
<title>Node8</title>
<g id="a_node8"><a xlink:title=" ">
<polygon fill="none" stroke="black" points="504.23,-629.5 504.23,-686.5 566.23,-686.5 566.23,-629.5 504.23,-629.5"/>
<text text-anchor="middle" x="535.23" y="-674.5" font-family="Helvetica,sans-Serif" font-size="10.00">TankType</text>
<polyline fill="none" stroke="black" points="504.23,-667.5 566.23,-667.5 "/>
<text text-anchor="middle" x="535.23" y="-655.5" font-family="Helvetica,sans-Serif" font-size="10.00"> </text>
<polyline fill="none" stroke="black" points="504.23,-648.5 566.23,-648.5 "/>
<text text-anchor="middle" x="535.23" y="-636.5" font-family="Helvetica,sans-Serif" font-size="10.00"> </text>
</a>
</g>
</g>
<!-- Node8&#45;&gt;Node2 -->
<g id="edge7" class="edge">
<title>Node8&#45;&gt;Node2</title>
<path fill="none" stroke="#404040" d="M532.26,-629.35C529.24,-601.14 524.25,-554.68 519.02,-505.9"/>
<polygon fill="none" stroke="#404040" points="519.01,-505.73 514.39,-500.19 517.73,-493.8 522.34,-499.34 519.01,-505.73"/>
<text text-anchor="middle" x="539.73" y="-520.5" font-family="Helvetica,sans-Serif" font-size="10.00"> #type_</text>
</g>
<!-- Node9 -->
<g id="node9" class="node">
<title>Node9</title>
<g id="a_node9"><a xlink:title=" ">
<polygon fill="none" stroke="black" points="584.73,-629.5 584.73,-686.5 661.73,-686.5 661.73,-629.5 584.73,-629.5"/>
<text text-anchor="middle" x="623.23" y="-674.5" font-family="Helvetica,sans-Serif" font-size="10.00">unsigned int</text>
<polyline fill="none" stroke="black" points="584.73,-667.5 661.73,-667.5 "/>
<text text-anchor="middle" x="623.23" y="-655.5" font-family="Helvetica,sans-Serif" font-size="10.00"> </text>
<polyline fill="none" stroke="black" points="584.73,-648.5 661.73,-648.5 "/>
<text text-anchor="middle" x="623.23" y="-636.5" font-family="Helvetica,sans-Serif" font-size="10.00"> </text>
</a>
</g>
</g>
<!-- Node9&#45;&gt;Node2 -->
<g id="edge8" class="edge">
<title>Node9&#45;&gt;Node2</title>
<path fill="none" stroke="#404040" d="M613.21,-629.35C602.95,-601.02 586.01,-554.28 568.26,-505.28"/>
<polygon fill="none" stroke="#404040" points="568.18,-505.08 562.38,-500.8 564.1,-493.8 569.9,-498.07 568.18,-505.08"/>
<text text-anchor="middle" x="597.23" y="-526" font-family="Helvetica,sans-Serif" font-size="10.00"> #lives_</text>
<text text-anchor="middle" x="597.23" y="-515" font-family="Helvetica,sans-Serif" font-size="10.00">#points_</text>
</g>
<!-- Node10 -->
<g id="node10" class="node">
<title>Node10</title>
<g id="a_node10"><a xlink:title=" ">
<polygon fill="none" stroke="black" points="680.23,-629.5 680.23,-686.5 718.23,-686.5 718.23,-629.5 680.23,-629.5"/>
<text text-anchor="middle" x="699.23" y="-674.5" font-family="Helvetica,sans-Serif" font-size="10.00">bool</text>
<polyline fill="none" stroke="black" points="680.23,-667.5 718.23,-667.5 "/>
<text text-anchor="middle" x="699.23" y="-655.5" font-family="Helvetica,sans-Serif" font-size="10.00"> </text>
<polyline fill="none" stroke="black" points="680.23,-648.5 718.23,-648.5 "/>
<text text-anchor="middle" x="699.23" y="-636.5" font-family="Helvetica,sans-Serif" font-size="10.00"> </text>
</a>
</g>
</g>
<!-- Node10&#45;&gt;Node2 -->
<g id="edge9" class="edge">
<title>Node10&#45;&gt;Node2</title>
<path fill="none" stroke="#404040" d="M694.7,-629.29C690.47,-607.54 683.03,-576.89 671.23,-552 649.73,-506.64 619.44,-460.95 590.2,-421.77"/>
<polygon fill="none" stroke="#404040" points="590.02,-421.54 583.21,-419.16 582.79,-411.96 589.6,-414.34 590.02,-421.54"/>
<text text-anchor="middle" x="687.23" y="-520.5" font-family="Helvetica,sans-Serif" font-size="10.00"> #moving_</text>
</g>
</g>
</svg>
