<?xml version="1.0" encoding="UTF-8" standalone="no"?>
<!DOCTYPE svg PUBLIC "-//W3C//DTD SVG 1.1//EN"
 "http://www.w3.org/Graphics/SVG/1.1/DTD/svg11.dtd">
<!-- Generated by graphviz version 2.50.0 (0)
 -->
<!-- Title: BoardGraphic Pages: 1 -->
<svg width="1121pt" height="645pt"
 viewBox="0.00 0.00 1120.50 645.00" xmlns="http://www.w3.org/2000/svg" xmlns:xlink="http://www.w3.org/1999/xlink">
<g id="graph0" class="graph" transform="scale(1 1) rotate(0) translate(4 641)">
<title>BoardGraphic</title>
<!-- Node1 -->
<g id="node1" class="node">
<title>Node1</title>
<g id="a_node1"><a xlink:title="Class responsible for board updates and render.">
<polygon fill="#bfbfbf" stroke="black" points="574.5,-0.5 574.5,-200.5 748.5,-200.5 748.5,-0.5 574.5,-0.5"/>
<text text-anchor="middle" x="661.5" y="-188.5" font-family="Helvetica,sans-Serif" font-size="10.00">BoardGraphic</text>
<polyline fill="none" stroke="black" points="574.5,-181.5 748.5,-181.5 "/>
<text text-anchor="middle" x="661.5" y="-169.5" font-family="Helvetica,sans-Serif" font-size="10.00"> </text>
<polyline fill="none" stroke="black" points="574.5,-162.5 748.5,-162.5 "/>
<text text-anchor="start" x="582.5" y="-150.5" font-family="Helvetica,sans-Serif" font-size="10.00">+ virtual void render</text>
<text text-anchor="start" x="582.5" y="-139.5" font-family="Helvetica,sans-Serif" font-size="10.00">() override</text>
<text text-anchor="start" x="582.5" y="-128.5" font-family="Helvetica,sans-Serif" font-size="10.00">+ const ActiveStateGraphic</text>
<text text-anchor="start" x="582.5" y="-117.5" font-family="Helvetica,sans-Serif" font-size="10.00">::BoardPointers &amp; getPointers</text>
<text text-anchor="start" x="582.5" y="-106.5" font-family="Helvetica,sans-Serif" font-size="10.00">() const</text>
<text text-anchor="start" x="582.5" y="-95.5" font-family="Helvetica,sans-Serif" font-size="10.00">+ const std::vector&lt;</text>
<text text-anchor="start" x="582.5" y="-84.5" font-family="Helvetica,sans-Serif" font-size="10.00"> std::shared_ptr&lt; Abstract</text>
<text text-anchor="start" x="582.5" y="-73.5" font-family="Helvetica,sans-Serif" font-size="10.00">Window &gt; &gt; getChildren() const</text>
<text text-anchor="start" x="582.5" y="-62.5" font-family="Helvetica,sans-Serif" font-size="10.00">+ void initiateRenderQueue()</text>
<text text-anchor="start" x="582.5" y="-51.5" font-family="Helvetica,sans-Serif" font-size="10.00">+ BoardGraphic(const</text>
<text text-anchor="start" x="582.5" y="-40.5" font-family="Helvetica,sans-Serif" font-size="10.00"> WindowView &amp;windowView,</text>
<text text-anchor="start" x="582.5" y="-29.5" font-family="Helvetica,sans-Serif" font-size="10.00"> const ActiveStateGraphic</text>
<text text-anchor="start" x="582.5" y="-18.5" font-family="Helvetica,sans-Serif" font-size="10.00">::BoardPointers &amp;boardObjects)</text>
<text text-anchor="start" x="582.5" y="-7.5" font-family="Helvetica,sans-Serif" font-size="10.00"># void conscructComposite()</text>
</a>
</g>
</g>
<!-- Node2 -->
<g id="node2" class="node">
<title>Node2</title>
<g id="a_node2"><a xlink:href="class_abstract_window.html" target="_top" xlink:title="Contains main SFML functions.">
<polygon fill="none" stroke="black" points="209.5,-248.5 209.5,-371.5 367.5,-371.5 367.5,-248.5 209.5,-248.5"/>
<text text-anchor="middle" x="288.5" y="-359.5" font-family="Helvetica,sans-Serif" font-size="10.00">AbstractWindow</text>
<polyline fill="none" stroke="black" points="209.5,-352.5 367.5,-352.5 "/>
<text text-anchor="middle" x="288.5" y="-340.5" font-family="Helvetica,sans-Serif" font-size="10.00"> </text>
<polyline fill="none" stroke="black" points="209.5,-333.5 367.5,-333.5 "/>
<text text-anchor="start" x="217.5" y="-321.5" font-family="Helvetica,sans-Serif" font-size="10.00">+ sf::RenderWindow *</text>
<text text-anchor="start" x="217.5" y="-310.5" font-family="Helvetica,sans-Serif" font-size="10.00"> getWindow()</text>
<text text-anchor="start" x="217.5" y="-299.5" font-family="Helvetica,sans-Serif" font-size="10.00">+ virtual void render()=0</text>
<text text-anchor="start" x="217.5" y="-288.5" font-family="Helvetica,sans-Serif" font-size="10.00">+ AbstractWindow()</text>
<text text-anchor="start" x="217.5" y="-277.5" font-family="Helvetica,sans-Serif" font-size="10.00">+ AbstractWindow(const</text>
<text text-anchor="start" x="217.5" y="-266.5" font-family="Helvetica,sans-Serif" font-size="10.00"> WindowView &amp;windowView)</text>
<text text-anchor="start" x="217.5" y="-255.5" font-family="Helvetica,sans-Serif" font-size="10.00">+ virtual ~AbstractWindow()</text>
</a>
</g>
</g>
<!-- Node2&#45;&gt;Node1 -->
<g id="edge1" class="edge">
<title>Node2&#45;&gt;Node1</title>
<path fill="none" stroke="midnightblue" d="M376.64,-259.97C436.34,-226.75 514.88,-183.07 574.36,-149.97"/>
<polygon fill="none" stroke="midnightblue" points="374.64,-257.07 367.6,-264.99 378.04,-263.19 374.64,-257.07"/>
</g>
<!-- Node3 -->
<g id="node3" class="node">
<title>Node3</title>
<g id="a_node3"><a xlink:title=" ">
<polygon fill="none" stroke="#bfbfbf" points="0,-447 0,-504 65,-504 65,-447 0,-447"/>
<text text-anchor="middle" x="32.5" y="-492" font-family="Helvetica,sans-Serif" font-size="10.00">const uint</text>
<polyline fill="none" stroke="#bfbfbf" points="0,-485 65,-485 "/>
<text text-anchor="middle" x="32.5" y="-473" font-family="Helvetica,sans-Serif" font-size="10.00"> </text>
<polyline fill="none" stroke="#bfbfbf" points="0,-466 65,-466 "/>
<text text-anchor="middle" x="32.5" y="-454" font-family="Helvetica,sans-Serif" font-size="10.00"> </text>
</a>
</g>
</g>
<!-- Node3&#45;&gt;Node2 -->
<g id="edge2" class="edge">
<title>Node3&#45;&gt;Node2</title>
<path fill="none" stroke="#404040" d="M57.99,-446.93C63.37,-441.27 69.07,-435.39 74.5,-430 93.02,-411.61 95.83,-404.54 117.5,-390 142.32,-373.34 171.22,-358.51 198.12,-346.32"/>
<polygon fill="none" stroke="#404040" points="198.14,-346.31 202,-340.22 209.1,-341.44 205.25,-347.53 198.14,-346.31"/>
<text text-anchor="middle" x="167.5" y="-404" font-family="Helvetica,sans-Serif" font-size="10.00"> #WINDOW_HEIGHT</text>
<text text-anchor="middle" x="167.5" y="-393" font-family="Helvetica,sans-Serif" font-size="10.00">#WINDOW_WIDTH</text>
</g>
<!-- Node4 -->
<g id="node4" class="node">
<title>Node4</title>
<g id="a_node4"><a xlink:href="struct_window_view.html" target="_top" xlink:title="Struct that contains the sf::RenderWindow nad offset of elements to render.">
<polygon fill="none" stroke="black" points="83.5,-430.5 83.5,-520.5 265.5,-520.5 265.5,-430.5 83.5,-430.5"/>
<text text-anchor="middle" x="174.5" y="-508.5" font-family="Helvetica,sans-Serif" font-size="10.00">WindowView</text>
<polyline fill="none" stroke="black" points="83.5,-501.5 265.5,-501.5 "/>
<text text-anchor="middle" x="174.5" y="-489.5" font-family="Helvetica,sans-Serif" font-size="10.00"> </text>
<polyline fill="none" stroke="black" points="83.5,-482.5 265.5,-482.5 "/>
<text text-anchor="start" x="91.5" y="-470.5" font-family="Helvetica,sans-Serif" font-size="10.00">+ WindowView(sf::RenderWindow</text>
<text text-anchor="start" x="91.5" y="-459.5" font-family="Helvetica,sans-Serif" font-size="10.00"> *window, float topOffset,</text>
<text text-anchor="start" x="91.5" y="-448.5" font-family="Helvetica,sans-Serif" font-size="10.00"> float leftOffset)</text>
<text text-anchor="start" x="91.5" y="-437.5" font-family="Helvetica,sans-Serif" font-size="10.00">+ WindowView()</text>
</a>
</g>
</g>
<!-- Node4&#45;&gt;Node2 -->
<g id="edge3" class="edge">
<title>Node4&#45;&gt;Node2</title>
<path fill="none" stroke="#404040" d="M205.35,-430.25C215.78,-415.3 227.7,-398.2 239.2,-381.71"/>
<polygon fill="none" stroke="#404040" points="239.42,-381.39 239.57,-374.18 246.28,-371.55 246.13,-378.76 239.42,-381.39"/>
<text text-anchor="middle" x="268" y="-398.5" font-family="Helvetica,sans-Serif" font-size="10.00"> #windowView</text>
</g>
<!-- Node5 -->
<g id="node5" class="node">
<title>Node5</title>
<g id="a_node5"><a xlink:title=" ">
<polygon fill="none" stroke="#bfbfbf" points="82.5,-579.5 82.5,-636.5 180.5,-636.5 180.5,-579.5 82.5,-579.5"/>
<text text-anchor="middle" x="131.5" y="-624.5" font-family="Helvetica,sans-Serif" font-size="10.00">RenderWindow *</text>
<polyline fill="none" stroke="#bfbfbf" points="82.5,-617.5 180.5,-617.5 "/>
<text text-anchor="middle" x="131.5" y="-605.5" font-family="Helvetica,sans-Serif" font-size="10.00"> </text>
<polyline fill="none" stroke="#bfbfbf" points="82.5,-598.5 180.5,-598.5 "/>
<text text-anchor="middle" x="131.5" y="-586.5" font-family="Helvetica,sans-Serif" font-size="10.00"> </text>
</a>
</g>
</g>
<!-- Node5&#45;&gt;Node4 -->
<g id="edge4" class="edge">
<title>Node5&#45;&gt;Node4</title>
<path fill="none" stroke="#404040" d="M136.3,-579.19C138.79,-566.74 142.21,-551.97 146.5,-539 147.24,-536.76 148.04,-534.48 148.87,-532.2"/>
<polygon fill="none" stroke="#404040" points="148.97,-531.96 147.42,-524.92 153.33,-520.79 154.88,-527.83 148.97,-531.96"/>
<text text-anchor="middle" x="171" y="-547.5" font-family="Helvetica,sans-Serif" font-size="10.00"> +window</text>
</g>
<!-- Node6 -->
<g id="node6" class="node">
<title>Node6</title>
<g id="a_node6"><a xlink:title=" ">
<polygon fill="none" stroke="#bfbfbf" points="198.5,-579.5 198.5,-636.5 236.5,-636.5 236.5,-579.5 198.5,-579.5"/>
<text text-anchor="middle" x="217.5" y="-624.5" font-family="Helvetica,sans-Serif" font-size="10.00">float</text>
<polyline fill="none" stroke="#bfbfbf" points="198.5,-617.5 236.5,-617.5 "/>
<text text-anchor="middle" x="217.5" y="-605.5" font-family="Helvetica,sans-Serif" font-size="10.00"> </text>
<polyline fill="none" stroke="#bfbfbf" points="198.5,-598.5 236.5,-598.5 "/>
<text text-anchor="middle" x="217.5" y="-586.5" font-family="Helvetica,sans-Serif" font-size="10.00"> </text>
</a>
</g>
</g>
<!-- Node6&#45;&gt;Node4 -->
<g id="edge5" class="edge">
<title>Node6&#45;&gt;Node4</title>
<path fill="none" stroke="#404040" d="M208.58,-579.19C204.61,-566.86 199.85,-552.2 195.5,-539 194.76,-536.76 194,-534.47 193.24,-532.16"/>
<polygon fill="none" stroke="#404040" points="193.15,-531.91 187.46,-527.48 189.36,-520.53 195.05,-524.96 193.15,-531.91"/>
<text text-anchor="middle" x="231" y="-553" font-family="Helvetica,sans-Serif" font-size="10.00"> +leftOffset</text>
<text text-anchor="middle" x="231" y="-542" font-family="Helvetica,sans-Serif" font-size="10.00">+topOffset</text>
</g>
<!-- Node7 -->
<g id="node7" class="node">
<title>Node7</title>
<g id="a_node7"><a xlink:title=" ">
<polygon fill="none" stroke="#bfbfbf" points="284,-441.5 284,-509.5 433,-509.5 433,-441.5 284,-441.5"/>
<text text-anchor="start" x="292" y="-497.5" font-family="Helvetica,sans-Serif" font-size="10.00">vector&lt; std::shared</text>
<text text-anchor="middle" x="358.5" y="-486.5" font-family="Helvetica,sans-Serif" font-size="10.00">_ptr&lt; AbstractWindow &gt; &gt;</text>
<polyline fill="none" stroke="#bfbfbf" points="284,-479.5 433,-479.5 "/>
<text text-anchor="middle" x="358.5" y="-467.5" font-family="Helvetica,sans-Serif" font-size="10.00"> </text>
<polyline fill="none" stroke="#bfbfbf" points="284,-460.5 433,-460.5 "/>
<text text-anchor="middle" x="358.5" y="-448.5" font-family="Helvetica,sans-Serif" font-size="10.00"> </text>
</a>
</g>
</g>
<!-- Node7&#45;&gt;Node2 -->
<g id="edge6" class="edge">
<title>Node7&#45;&gt;Node2</title>
<path fill="none" stroke="#404040" d="M344.33,-441.41C337.12,-424.56 328.05,-403.38 319.33,-383.01"/>
<polygon fill="none" stroke="#404040" points="319.26,-382.85 313.22,-378.91 314.54,-371.82 320.58,-375.76 319.26,-382.85"/>
<text text-anchor="middle" x="356" y="-398.5" font-family="Helvetica,sans-Serif" font-size="10.00"> #children</text>
</g>
<!-- Node8 -->
<g id="node8" class="node">
<title>Node8</title>
<g id="a_node8"><a xlink:href="struct_active_state_graphic_1_1_board_pointers.html" target="_top" xlink:title="Stores given board object pointers.">
<polygon fill="none" stroke="black" points="606.5,-276 606.5,-344 716.5,-344 716.5,-276 606.5,-276"/>
<text text-anchor="start" x="614.5" y="-332" font-family="Helvetica,sans-Serif" font-size="10.00">ActiveStateGraphic</text>
<text text-anchor="middle" x="661.5" y="-321" font-family="Helvetica,sans-Serif" font-size="10.00">::BoardPointers</text>
<polyline fill="none" stroke="black" points="606.5,-314 716.5,-314 "/>
<text text-anchor="middle" x="661.5" y="-302" font-family="Helvetica,sans-Serif" font-size="10.00"> </text>
<polyline fill="none" stroke="black" points="606.5,-295 716.5,-295 "/>
<text text-anchor="middle" x="661.5" y="-283" font-family="Helvetica,sans-Serif" font-size="10.00"> </text>
</a>
</g>
</g>
<!-- Node8&#45;&gt;Node1 -->
<g id="edge7" class="edge">
<title>Node8&#45;&gt;Node1</title>
<path fill="none" stroke="#404040" d="M661.5,-275.66C661.5,-258.2 661.5,-235.7 661.5,-212.71"/>
<polygon fill="none" stroke="#404040" points="661.5,-212.66 657.5,-206.66 661.5,-200.66 665.5,-206.66 661.5,-212.66"/>
<text text-anchor="middle" x="699.5" y="-222" font-family="Helvetica,sans-Serif" font-size="10.00"> #boardObjects</text>
</g>
<!-- Node9 -->
<g id="node9" class="node">
<title>Node9</title>
<g id="a_node9"><a xlink:title=" ">
<polygon fill="none" stroke="#bfbfbf" points="451,-447 451,-504 570,-504 570,-447 451,-447"/>
<text text-anchor="middle" x="510.5" y="-492" font-family="Helvetica,sans-Serif" font-size="10.00">shared_ptr&lt; Grid * &gt;</text>
<polyline fill="none" stroke="#bfbfbf" points="451,-485 570,-485 "/>
<text text-anchor="middle" x="510.5" y="-473" font-family="Helvetica,sans-Serif" font-size="10.00"> </text>
<polyline fill="none" stroke="#bfbfbf" points="451,-466 570,-466 "/>
<text text-anchor="middle" x="510.5" y="-454" font-family="Helvetica,sans-Serif" font-size="10.00"> </text>
</a>
</g>
</g>
<!-- Node9&#45;&gt;Node8 -->
<g id="edge8" class="edge">
<title>Node9&#45;&gt;Node8</title>
<path fill="none" stroke="#404040" d="M536.12,-446.76C559.83,-421.09 595.43,-382.54 622.65,-353.07"/>
<polygon fill="none" stroke="#404040" points="622.66,-353.06 623.79,-345.94 630.8,-344.24 629.67,-351.36 622.66,-353.06"/>
<text text-anchor="middle" x="603" y="-398.5" font-family="Helvetica,sans-Serif" font-size="10.00"> +tiles</text>
</g>
<!-- Node10 -->
<g id="node10" class="node">
<title>Node10</title>
<g id="a_node10"><a xlink:title=" ">
<polygon fill="none" stroke="#bfbfbf" points="588.5,-447 588.5,-504 734.5,-504 734.5,-447 588.5,-447"/>
<text text-anchor="middle" x="661.5" y="-492" font-family="Helvetica,sans-Serif" font-size="10.00">shared_ptr&lt; sf::Vector2f &gt;</text>
<polyline fill="none" stroke="#bfbfbf" points="588.5,-485 734.5,-485 "/>
<text text-anchor="middle" x="661.5" y="-473" font-family="Helvetica,sans-Serif" font-size="10.00"> </text>
<polyline fill="none" stroke="#bfbfbf" points="588.5,-466 734.5,-466 "/>
<text text-anchor="middle" x="661.5" y="-454" font-family="Helvetica,sans-Serif" font-size="10.00"> </text>
</a>
</g>
</g>
<!-- Node10&#45;&gt;Node8 -->
<g id="edge9" class="edge">
<title>Node10&#45;&gt;Node8</title>
<path fill="none" stroke="#404040" d="M661.5,-446.76C661.5,-422.08 661.5,-385.51 661.5,-356.54"/>
<polygon fill="none" stroke="#404040" points="661.5,-356.24 657.5,-350.24 661.5,-344.24 665.5,-350.24 661.5,-356.24"/>
<text text-anchor="middle" x="689.5" y="-398.5" font-family="Helvetica,sans-Serif" font-size="10.00"> +eaglePos</text>
</g>
<!-- Node11 -->
<g id="node11" class="node">
<title>Node11</title>
<g id="a_node11"><a xlink:title=" ">
<polygon fill="none" stroke="#bfbfbf" points="752.5,-441.5 752.5,-509.5 926.5,-509.5 926.5,-441.5 752.5,-441.5"/>
<text text-anchor="start" x="760.5" y="-497.5" font-family="Helvetica,sans-Serif" font-size="10.00">shared_ptr&lt; std::vector</text>
<text text-anchor="middle" x="839.5" y="-486.5" font-family="Helvetica,sans-Serif" font-size="10.00">&lt; std::shared_ptr&lt; Bullet &gt; &gt; &gt;</text>
<polyline fill="none" stroke="#bfbfbf" points="752.5,-479.5 926.5,-479.5 "/>
<text text-anchor="middle" x="839.5" y="-467.5" font-family="Helvetica,sans-Serif" font-size="10.00"> </text>
<polyline fill="none" stroke="#bfbfbf" points="752.5,-460.5 926.5,-460.5 "/>
<text text-anchor="middle" x="839.5" y="-448.5" font-family="Helvetica,sans-Serif" font-size="10.00"> </text>
</a>
</g>
</g>
<!-- Node11&#45;&gt;Node8 -->
<g id="edge10" class="edge">
<title>Node11&#45;&gt;Node8</title>
<path fill="none" stroke="#404040" d="M802.72,-441.42C780.55,-421.42 751.81,-395.35 726.5,-372 719.62,-365.65 712.37,-358.9 705.3,-352.29"/>
<polygon fill="none" stroke="#404040" points="705.24,-352.24 698.13,-351.05 696.48,-344.03 703.59,-345.22 705.24,-352.24"/>
<text text-anchor="middle" x="792" y="-398.5" font-family="Helvetica,sans-Serif" font-size="10.00"> +bullets</text>
</g>
<!-- Node12 -->
<g id="node12" class="node">
<title>Node12</title>
<g id="a_node12"><a xlink:title=" ">
<polygon fill="none" stroke="#bfbfbf" points="944.5,-441.5 944.5,-509.5 1112.5,-509.5 1112.5,-441.5 944.5,-441.5"/>
<text text-anchor="start" x="952.5" y="-497.5" font-family="Helvetica,sans-Serif" font-size="10.00">shared_ptr&lt; std::vector</text>
<text text-anchor="middle" x="1028.5" y="-486.5" font-family="Helvetica,sans-Serif" font-size="10.00">&lt; std::shared_ptr&lt; Tank &gt; &gt; &gt;</text>
<polyline fill="none" stroke="#bfbfbf" points="944.5,-479.5 1112.5,-479.5 "/>
<text text-anchor="middle" x="1028.5" y="-467.5" font-family="Helvetica,sans-Serif" font-size="10.00"> </text>
<polyline fill="none" stroke="#bfbfbf" points="944.5,-460.5 1112.5,-460.5 "/>
<text text-anchor="middle" x="1028.5" y="-448.5" font-family="Helvetica,sans-Serif" font-size="10.00"> </text>
</a>
</g>
</g>
<!-- Node12&#45;&gt;Node8 -->
<g id="edge11" class="edge">
<title>Node12&#45;&gt;Node8</title>
<path fill="none" stroke="#404040" d="M961.87,-441.47C953.07,-437.45 944.12,-433.52 935.5,-430 884.63,-409.22 871.59,-404.2 818.5,-390 778.25,-379.24 763.58,-391 726.5,-372 716.59,-366.92 707.11,-359.88 698.61,-352.37"/>
<polygon fill="none" stroke="#404040" points="698.55,-352.32 691.44,-351.14 689.79,-344.12 696.91,-345.3 698.55,-352.32"/>
<text text-anchor="middle" x="909" y="-398.5" font-family="Helvetica,sans-Serif" font-size="10.00"> +tanks</text>
</g>
<!-- Node13 -->
<g id="node13" class="node">
<title>Node13</title>
<g id="a_node13"><a xlink:title=" ">
<polygon fill="none" stroke="#bfbfbf" points="735,-276 735,-344 866,-344 866,-276 735,-276"/>
<text text-anchor="start" x="743" y="-332" font-family="Helvetica,sans-Serif" font-size="10.00">shared_ptr&lt; std::queue</text>
<text text-anchor="middle" x="800.5" y="-321" font-family="Helvetica,sans-Serif" font-size="10.00">&lt; sf::Sprite &gt; &gt;</text>
<polyline fill="none" stroke="#bfbfbf" points="735,-314 866,-314 "/>
<text text-anchor="middle" x="800.5" y="-302" font-family="Helvetica,sans-Serif" font-size="10.00"> </text>
<polyline fill="none" stroke="#bfbfbf" points="735,-295 866,-295 "/>
<text text-anchor="middle" x="800.5" y="-283" font-family="Helvetica,sans-Serif" font-size="10.00"> </text>
</a>
</g>
</g>
<!-- Node13&#45;&gt;Node1 -->
<g id="edge12" class="edge">
<title>Node13&#45;&gt;Node1</title>
<path fill="none" stroke="#404040" d="M779.06,-275.99C767.93,-258.93 754.06,-237.8 741.5,-219 739.7,-216.3 737.87,-213.57 736.03,-210.82"/>
<polygon fill="none" stroke="#404040" points="735.97,-210.74 729.3,-207.99 729.27,-200.78 735.94,-203.53 735.97,-210.74"/>
<text text-anchor="middle" x="799" y="-222" font-family="Helvetica,sans-Serif" font-size="10.00"> #extraRenderQueue</text>
</g>
</g>
</svg>
