<?xml version="1.0" encoding="UTF-8" standalone="no"?>
<!DOCTYPE svg PUBLIC "-//W3C//DTD SVG 1.1//EN"
 "http://www.w3.org/Graphics/SVG/1.1/DTD/svg11.dtd">
<!-- Generated by graphviz version 2.43.0 (0)
 -->
<!-- Title: EventHandler&lt; E &gt; Pages: 1 -->
<!--zoomable 559 -->
<svg id="main" version="1.1" xmlns="http://www.w3.org/2000/svg" xmlns:xlink="http://www.w3.org/1999/xlink" xml:space="preserve" onload="init(evt)">
<style type="text/css"><![CDATA[
.edge:hover path { stroke: red; }
.edge:hover polygon { stroke: red; fill: red; }
]]></style>
<script type="text/javascript"><![CDATA[
var edges = document.getElementsByTagName('g');
if (edges && edges.length) {
  for (var i=0;i<edges.length;i++) {
    if (edges[i].id.substr(0,4)=='edge') {
      edges[i].setAttribute('class','edge');
    }
  }
}
]]></script>
        <defs>
                <circle id="rim" cx="0" cy="0" r="7"/>
                <circle id="rim2" cx="0" cy="0" r="3.5"/>
                <g id="zoomPlus">
                        <use xlink:href="#rim" fill="#404040">
                                <set attributeName="fill" to="#808080" begin="zoomplus.mouseover" end="zoomplus.mouseout"/>
                        </use>
                        <path d="M-4,0h8M0,-4v8" fill="none" stroke="white" stroke-width="1.5" pointer-events="none"/>
                </g>
                <g id="zoomMin">
                        <use xlink:href="#rim" fill="#404040">
                                <set attributeName="fill" to="#808080" begin="zoomminus.mouseover" end="zoomminus.mouseout"/>
                        </use>
                        <path d="M-4,0h8" fill="none" stroke="white" stroke-width="1.5" pointer-events="none"/>
                </g>
                <g id="dirArrow">
                        <path fill="none" stroke="white" stroke-width="1.5" d="M0,-3.0v7 M-2.5,-0.5L0,-3.0L2.5,-0.5"/>
                </g>
               <g id="resetDef">
                       <use xlink:href="#rim2" fill="#404040">
                               <set attributeName="fill" to="#808080" begin="reset.mouseover" end="reset.mouseout"/>
                       </use>
               </g>
        </defs>

<script type="text/javascript">
var viewWidth = 178;
var viewHeight = 559;
var sectionId = 'dynsection-0';
</script>
<script xlink:href="svgpan.js"/>
<svg id="graph" class="graph">
<g id="viewport">
<title>EventHandler&lt; E &gt;</title>
<!-- Node1 -->
<g id="node1" class="node">
<title>Node1</title>
<g id="a_node1"><a xlink:title=" ">
<polygon fill="#bfbfbf" stroke="black" points="0,-471.5 0,-550.5 170,-550.5 170,-471.5 0,-471.5"/>
<text text-anchor="middle" x="85" y="-538.5" font-family="Helvetica,sans-Serif" font-size="10.00">EventHandler&lt; E &gt;</text>
<polyline fill="none" stroke="black" points="0,-531.5 170,-531.5 "/>
<text text-anchor="middle" x="85" y="-519.5" font-family="Helvetica,sans-Serif" font-size="10.00"> </text>
<polyline fill="none" stroke="black" points="0,-512.5 170,-512.5 "/>
<text text-anchor="start" x="8" y="-500.5" font-family="Helvetica,sans-Serif" font-size="10.00">+ virtual void handleEvent</text>
<text text-anchor="start" x="8" y="-489.5" font-family="Helvetica,sans-Serif" font-size="10.00">(std::unique_ptr&lt; E &gt; event)=0</text>
<text text-anchor="start" x="8" y="-478.5" font-family="Helvetica,sans-Serif" font-size="10.00"># EventHandler()=default</text>
</a>
</g>
</g>
<!-- Node2 -->
<g id="node2" class="node">
<title>Node2</title>
<g id="a_node2"><a xlink:href="class_event_handler.html" target="_top" xlink:title=" ">
<polygon fill="none" stroke="black" points="11.5,-333.5 11.5,-423.5 158.5,-423.5 158.5,-333.5 11.5,-333.5"/>
<text text-anchor="middle" x="85" y="-411.5" font-family="Helvetica,sans-Serif" font-size="10.00">EventHandler&lt; Event &gt;</text>
<polyline fill="none" stroke="black" points="11.5,-404.5 158.5,-404.5 "/>
<text text-anchor="middle" x="85" y="-392.5" font-family="Helvetica,sans-Serif" font-size="10.00"> </text>
<polyline fill="none" stroke="black" points="11.5,-385.5 158.5,-385.5 "/>
<text text-anchor="start" x="19.5" y="-373.5" font-family="Helvetica,sans-Serif" font-size="10.00">+ virtual void handleEvent</text>
<text text-anchor="start" x="19.5" y="-362.5" font-family="Helvetica,sans-Serif" font-size="10.00">(std::unique_ptr&lt; Event</text>
<text text-anchor="start" x="19.5" y="-351.5" font-family="Helvetica,sans-Serif" font-size="10.00"> &gt; event)=0</text>
<text text-anchor="start" x="19.5" y="-340.5" font-family="Helvetica,sans-Serif" font-size="10.00"># EventHandler()=default</text>
</a>
</g>
</g>
<!-- Node1&#45;&gt;Node2 -->
<g id="edge1" class="edge">
<title>Node1&#45;&gt;Node2</title>
<path fill="none" stroke="orange" d="M85,-461.16C85,-448.93 85,-435.88 85,-423.88"/>
<polygon fill="orange" stroke="orange" points="81.5,-461.2 85,-471.2 88.5,-461.2 81.5,-461.2"/>
<text text-anchor="middle" x="112" y="-445" font-family="Helvetica,sans-Serif" font-size="10.00"> &lt; Event &gt;</text>
</g>
<!-- Node3 -->
<g id="node3" class="node">
<title>Node3</title>
<g id="a_node3"><a xlink:href="class_publisher_event_handler.html" target="_top" xlink:title="Extended EventHandler for Event class events with publisher capabilities.">
<polygon fill="none" stroke="black" points="9,-161.5 9,-295.5 161,-295.5 161,-161.5 9,-161.5"/>
<text text-anchor="middle" x="85" y="-283.5" font-family="Helvetica,sans-Serif" font-size="10.00">PublisherEventHandler</text>
<polyline fill="none" stroke="black" points="9,-276.5 161,-276.5 "/>
<text text-anchor="middle" x="85" y="-264.5" font-family="Helvetica,sans-Serif" font-size="10.00"> </text>
<polyline fill="none" stroke="black" points="9,-257.5 161,-257.5 "/>
<text text-anchor="start" x="17" y="-245.5" font-family="Helvetica,sans-Serif" font-size="10.00">+ void handleEvent(std</text>
<text text-anchor="start" x="17" y="-234.5" font-family="Helvetica,sans-Serif" font-size="10.00">::unique_ptr&lt; Event &gt;</text>
<text text-anchor="start" x="17" y="-223.5" font-family="Helvetica,sans-Serif" font-size="10.00"> event) override</text>
<text text-anchor="start" x="17" y="-212.5" font-family="Helvetica,sans-Serif" font-size="10.00">+ virtual void processEvent</text>
<text text-anchor="start" x="17" y="-201.5" font-family="Helvetica,sans-Serif" font-size="10.00">(std::unique_ptr&lt; Event</text>
<text text-anchor="start" x="17" y="-190.5" font-family="Helvetica,sans-Serif" font-size="10.00"> &gt; event)=0</text>
<text text-anchor="start" x="17" y="-179.5" font-family="Helvetica,sans-Serif" font-size="10.00"># PublisherEventHandler</text>
<text text-anchor="start" x="17" y="-168.5" font-family="Helvetica,sans-Serif" font-size="10.00">()=default</text>
</a>
</g>
</g>
<!-- Node2&#45;&gt;Node3 -->
<g id="edge2" class="edge">
<title>Node2&#45;&gt;Node3</title>
<path fill="none" stroke="midnightblue" d="M85,-323.46C85,-314.38 85,-304.87 85,-295.53"/>
<polygon fill="none" stroke="midnightblue" points="81.5,-323.5 85,-333.5 88.5,-323.5 81.5,-323.5"/>
</g>
<!-- Node4 -->
<g id="node4" class="node">
<title>Node4</title>
<g id="a_node4"><a xlink:href="class_active_event_handler.html" target="_top" xlink:title=" ">
<polygon fill="none" stroke="black" points="17,-0.5 17,-123.5 153,-123.5 153,-0.5 17,-0.5"/>
<text text-anchor="middle" x="85" y="-111.5" font-family="Helvetica,sans-Serif" font-size="10.00">ActiveEventHandler</text>
<polyline fill="none" stroke="black" points="17,-104.5 153,-104.5 "/>
<text text-anchor="start" x="25" y="-92.5" font-family="Helvetica,sans-Serif" font-size="10.00">&#45; Game * game_</text>
<polyline fill="none" stroke="black" points="17,-85.5 153,-85.5 "/>
<text text-anchor="start" x="25" y="-73.5" font-family="Helvetica,sans-Serif" font-size="10.00">+ ActiveEventHandler</text>
<text text-anchor="start" x="25" y="-62.5" font-family="Helvetica,sans-Serif" font-size="10.00">()=delete</text>
<text text-anchor="start" x="25" y="-51.5" font-family="Helvetica,sans-Serif" font-size="10.00">+ ActiveEventHandler</text>
<text text-anchor="start" x="25" y="-40.5" font-family="Helvetica,sans-Serif" font-size="10.00">(Game *game)</text>
<text text-anchor="start" x="25" y="-29.5" font-family="Helvetica,sans-Serif" font-size="10.00">+ void processEvent(std</text>
<text text-anchor="start" x="25" y="-18.5" font-family="Helvetica,sans-Serif" font-size="10.00">::unique_ptr&lt; Event &gt;</text>
<text text-anchor="start" x="25" y="-7.5" font-family="Helvetica,sans-Serif" font-size="10.00"> event) override</text>
</a>
</g>
</g>
<!-- Node3&#45;&gt;Node4 -->
<g id="edge3" class="edge">
<title>Node3&#45;&gt;Node4</title>
<path fill="none" stroke="midnightblue" d="M85,-150.81C85,-141.67 85,-132.44 85,-123.57"/>
<polygon fill="none" stroke="midnightblue" points="81.5,-151.07 85,-161.07 88.5,-151.07 81.5,-151.07"/>
</g>
</g>
</svg>
        <g id="navigator" transform="translate(0 0)" fill="#404254">
                <rect fill="#f2f5e9" fill-opacity="0.5" stroke="#606060" stroke-width=".5" x="0" y="0" width="60" height="60"/>
                <use id="zoomplus" xlink:href="#zoomPlus" x="17" y="9" onmousedown="handleZoom(evt,'in')"/>
                <use id="zoomminus" xlink:href="#zoomMin" x="42" y="9" onmousedown="handleZoom(evt,'out')"/>
                <use id="reset" xlink:href="#resetDef" x="30" y="36" onmousedown="handleReset()"/>
                <g id="arrowUp" xlink:href="#dirArrow" transform="translate(30 24)" onmousedown="handlePan(0,-1)">
                  <use xlink:href="#rim" fill="#404040">
                        <set attributeName="fill" to="#808080" begin="arrowUp.mouseover" end="arrowUp.mouseout"/>
                  </use>
                  <path fill="none" stroke="white" stroke-width="1.5" d="M0,-3.0v7 M-2.5,-0.5L0,-3.0L2.5,-0.5"/>
                </g>
                <g id="arrowRight" xlink:href="#dirArrow" transform="rotate(90) translate(36 -43)" onmousedown="handlePan(1,0)">
                  <use xlink:href="#rim" fill="#404040">
                        <set attributeName="fill" to="#808080" begin="arrowRight.mouseover" end="arrowRight.mouseout"/>
                  </use>
                  <path fill="none" stroke="white" stroke-width="1.5" d="M0,-3.0v7 M-2.5,-0.5L0,-3.0L2.5,-0.5"/>
                </g>
                <g id="arrowDown" xlink:href="#dirArrow" transform="rotate(180) translate(-30 -48)" onmousedown="handlePan(0,1)">
                  <use xlink:href="#rim" fill="#404040">
                        <set attributeName="fill" to="#808080" begin="arrowDown.mouseover" end="arrowDown.mouseout"/>
                  </use>
                  <path fill="none" stroke="white" stroke-width="1.5" d="M0,-3.0v7 M-2.5,-0.5L0,-3.0L2.5,-0.5"/>
                </g>
                <g id="arrowLeft" xlink:href="#dirArrow" transform="rotate(270) translate(-36 17)" onmousedown="handlePan(-1,0)">
                  <use xlink:href="#rim" fill="#404040">
                        <set attributeName="fill" to="#808080" begin="arrowLeft.mouseover" end="arrowLeft.mouseout"/>
                  </use>
                  <path fill="none" stroke="white" stroke-width="1.5" d="M0,-3.0v7 M-2.5,-0.5L0,-3.0L2.5,-0.5"/>
                </g>
        </g>
        <svg viewBox="0 0 15 15" width="100%" height="30px" preserveAspectRatio="xMaxYMin meet">
         <g id="arrow_out" transform="scale(0.3 0.3)">
          <a xlink:href="class_event_handler__inherit__graph_org.svg" target="_base">
           <rect id="button" ry="5" rx="5" y="6" x="6" height="38" width="38"
                fill="#f2f5e9" fill-opacity="0.5" stroke="#606060" stroke-width="1.0"/>
           <path id="arrow"
             d="M 11.500037,31.436501 C 11.940474,20.09759 22.043105,11.32322 32.158766,21.979434 L 37.068811,17.246167 C 37.068811,17.246167 37.088388,32 37.088388,32 L 22.160133,31.978069 C 22.160133,31.978069 26.997745,27.140456 26.997745,27.140456 C 18.528582,18.264221 13.291696,25.230495 11.500037,31.436501 z"
             style="fill:#404040;"/>
          </a>
         </g>
        </svg>
</svg>
