<?xml version="1.0" encoding="UTF-8" standalone="no"?>
<!DOCTYPE svg PUBLIC "-//W3C//DTD SVG 1.1//EN"
 "http://www.w3.org/Graphics/SVG/1.1/DTD/svg11.dtd">
<!-- Generated by graphviz version 2.43.0 (0)
 -->
<!-- Title: Entity Pages: 1 -->
<!--zoomable 848 -->
<svg id="main" version="1.1" xmlns="http://www.w3.org/2000/svg" xmlns:xlink="http://www.w3.org/1999/xlink" xml:space="preserve" onload="init(evt)">
<style type="text/css"><![CDATA[
.edge:hover path { stroke: red; }
.edge:hover polygon { stroke: red; fill: red; }
]]></style>
<script type="text/javascript"><![CDATA[
var edges = document.getElementsByTagName('g');
if (edges && edges.length) {
  for (var i=0;i<edges.length;i++) {
    if (edges[i].id.substr(0,4)=='edge') {
      edges[i].setAttribute('class','edge');
    }
  }
}
]]></script>
        <defs>
                <circle id="rim" cx="0" cy="0" r="7"/>
                <circle id="rim2" cx="0" cy="0" r="3.5"/>
                <g id="zoomPlus">
                        <use xlink:href="#rim" fill="#404040">
                                <set attributeName="fill" to="#808080" begin="zoomplus.mouseover" end="zoomplus.mouseout"/>
                        </use>
                        <path d="M-4,0h8M0,-4v8" fill="none" stroke="white" stroke-width="1.5" pointer-events="none"/>
                </g>
                <g id="zoomMin">
                        <use xlink:href="#rim" fill="#404040">
                                <set attributeName="fill" to="#808080" begin="zoomminus.mouseover" end="zoomminus.mouseout"/>
                        </use>
                        <path d="M-4,0h8" fill="none" stroke="white" stroke-width="1.5" pointer-events="none"/>
                </g>
                <g id="dirArrow">
                        <path fill="none" stroke="white" stroke-width="1.5" d="M0,-3.0v7 M-2.5,-0.5L0,-3.0L2.5,-0.5"/>
                </g>
               <g id="resetDef">
                       <use xlink:href="#rim2" fill="#404040">
                               <set attributeName="fill" to="#808080" begin="reset.mouseover" end="reset.mouseout"/>
                       </use>
               </g>
        </defs>

<script type="text/javascript">
var viewWidth = 702;
var viewHeight = 848;
var sectionId = 'dynsection-0';
</script>
<script xlink:href="svgpan.js"/>
<svg id="graph" class="graph">
<g id="viewport">
<title>Entity</title>
<!-- Node1 -->
<g id="node1" class="node">
<title>Node1</title>
<g id="a_node1"><a xlink:title=" ">
<polygon fill="#bfbfbf" stroke="black" points="170.5,-573.5 170.5,-839.5 330.5,-839.5 330.5,-573.5 170.5,-573.5"/>
<text text-anchor="middle" x="250.5" y="-827.5" font-family="Helvetica,sans-Serif" font-size="10.00">Entity</text>
<polyline fill="none" stroke="black" points="170.5,-820.5 330.5,-820.5 "/>
<text text-anchor="start" x="178.5" y="-808.5" font-family="Helvetica,sans-Serif" font-size="10.00"># float x_</text>
<text text-anchor="start" x="178.5" y="-797.5" font-family="Helvetica,sans-Serif" font-size="10.00"># float y_</text>
<text text-anchor="start" x="178.5" y="-786.5" font-family="Helvetica,sans-Serif" font-size="10.00"># float size_x_</text>
<text text-anchor="start" x="178.5" y="-775.5" font-family="Helvetica,sans-Serif" font-size="10.00"># float size_y_</text>
<text text-anchor="start" x="178.5" y="-764.5" font-family="Helvetica,sans-Serif" font-size="10.00"># float speed_</text>
<text text-anchor="start" x="178.5" y="-753.5" font-family="Helvetica,sans-Serif" font-size="10.00"># Direction facing_</text>
<polyline fill="none" stroke="black" points="170.5,-746.5 330.5,-746.5 "/>
<text text-anchor="start" x="178.5" y="-734.5" font-family="Helvetica,sans-Serif" font-size="10.00">+ virtual ~Entity()=default</text>
<text text-anchor="start" x="178.5" y="-723.5" font-family="Helvetica,sans-Serif" font-size="10.00">+ virtual bool move()=0</text>
<text text-anchor="start" x="178.5" y="-712.5" font-family="Helvetica,sans-Serif" font-size="10.00">+ virtual bool moveBack()=0</text>
<text text-anchor="start" x="178.5" y="-701.5" font-family="Helvetica,sans-Serif" font-size="10.00">+ float getX() const</text>
<text text-anchor="start" x="178.5" y="-690.5" font-family="Helvetica,sans-Serif" font-size="10.00">+ float getY() const</text>
<text text-anchor="start" x="178.5" y="-679.5" font-family="Helvetica,sans-Serif" font-size="10.00">+ float getSpeed() const</text>
<text text-anchor="start" x="178.5" y="-668.5" font-family="Helvetica,sans-Serif" font-size="10.00">+ Direction getFacing</text>
<text text-anchor="start" x="178.5" y="-657.5" font-family="Helvetica,sans-Serif" font-size="10.00">() const</text>
<text text-anchor="start" x="178.5" y="-646.5" font-family="Helvetica,sans-Serif" font-size="10.00">+ float getSizeX() const</text>
<text text-anchor="start" x="178.5" y="-635.5" font-family="Helvetica,sans-Serif" font-size="10.00">+ float getSizeY() const</text>
<text text-anchor="start" x="178.5" y="-624.5" font-family="Helvetica,sans-Serif" font-size="10.00"># Entity()=default</text>
<text text-anchor="start" x="178.5" y="-613.5" font-family="Helvetica,sans-Serif" font-size="10.00"># Entity(float x, float</text>
<text text-anchor="start" x="178.5" y="-602.5" font-family="Helvetica,sans-Serif" font-size="10.00"> y, float sizeX, float</text>
<text text-anchor="start" x="178.5" y="-591.5" font-family="Helvetica,sans-Serif" font-size="10.00"> sizeY, float speed, Direction</text>
<text text-anchor="start" x="178.5" y="-580.5" font-family="Helvetica,sans-Serif" font-size="10.00"> facing)</text>
</a>
</g>
</g>
<!-- Node2 -->
<g id="node2" class="node">
<title>Node2</title>
<g id="a_node2"><a xlink:href="class_bullet.html" target="_top" xlink:title=" ">
<polygon fill="none" stroke="black" points="73,-259.5 73,-404.5 242,-404.5 242,-259.5 73,-259.5"/>
<text text-anchor="middle" x="157.5" y="-392.5" font-family="Helvetica,sans-Serif" font-size="10.00">Bullet</text>
<polyline fill="none" stroke="black" points="73,-385.5 242,-385.5 "/>
<text text-anchor="start" x="81" y="-373.5" font-family="Helvetica,sans-Serif" font-size="10.00"># BulletType type_</text>
<polyline fill="none" stroke="black" points="73,-366.5 242,-366.5 "/>
<text text-anchor="start" x="81" y="-354.5" font-family="Helvetica,sans-Serif" font-size="10.00">+ Bullet()=delete</text>
<text text-anchor="start" x="81" y="-343.5" font-family="Helvetica,sans-Serif" font-size="10.00">+ Bullet(float x, float</text>
<text text-anchor="start" x="81" y="-332.5" font-family="Helvetica,sans-Serif" font-size="10.00"> y, Direction direction,</text>
<text text-anchor="start" x="81" y="-321.5" font-family="Helvetica,sans-Serif" font-size="10.00"> float speed, BulletType type)</text>
<text text-anchor="start" x="81" y="-310.5" font-family="Helvetica,sans-Serif" font-size="10.00">+ bool move() override</text>
<text text-anchor="start" x="81" y="-299.5" font-family="Helvetica,sans-Serif" font-size="10.00">+ bool moveBack() override</text>
<text text-anchor="start" x="81" y="-288.5" font-family="Helvetica,sans-Serif" font-size="10.00">+ bool isFriendly()</text>
<text text-anchor="start" x="81" y="-277.5" font-family="Helvetica,sans-Serif" font-size="10.00"># void offsetInCurrentDirection</text>
<text text-anchor="start" x="81" y="-266.5" font-family="Helvetica,sans-Serif" font-size="10.00">(float offset)</text>
</a>
</g>
</g>
<!-- Node1&#45;&gt;Node2 -->
<g id="edge1" class="edge">
<title>Node1&#45;&gt;Node2</title>
<path fill="none" stroke="midnightblue" d="M215.09,-563.67C201.53,-509.37 186.64,-449.73 175.4,-404.69"/>
<polygon fill="none" stroke="midnightblue" points="211.7,-564.53 217.52,-573.38 218.49,-562.83 211.7,-564.53"/>
</g>
<!-- Node3 -->
<g id="node3" class="node">
<title>Node3</title>
<g id="a_node3"><a xlink:href="class_tank.html" target="_top" xlink:title="Base class for tank representation.">
<polygon fill="none" stroke="black" points="260,-127.5 260,-536.5 429,-536.5 429,-127.5 260,-127.5"/>
<text text-anchor="middle" x="344.5" y="-524.5" font-family="Helvetica,sans-Serif" font-size="10.00">Tank</text>
<polyline fill="none" stroke="black" points="260,-517.5 429,-517.5 "/>
<text text-anchor="start" x="268" y="-505.5" font-family="Helvetica,sans-Serif" font-size="10.00"># TankType type_</text>
<text text-anchor="start" x="268" y="-494.5" font-family="Helvetica,sans-Serif" font-size="10.00"># unsigned int lives_</text>
<text text-anchor="start" x="268" y="-483.5" font-family="Helvetica,sans-Serif" font-size="10.00"># bool moving_</text>
<text text-anchor="start" x="268" y="-472.5" font-family="Helvetica,sans-Serif" font-size="10.00"># unsigned int points_</text>
<text text-anchor="start" x="268" y="-461.5" font-family="Helvetica,sans-Serif" font-size="10.00"># float bulletSpeed_</text>
<polyline fill="none" stroke="black" points="260,-454.5 429,-454.5 "/>
<text text-anchor="start" x="268" y="-442.5" font-family="Helvetica,sans-Serif" font-size="10.00">+ void setFacing(Direction</text>
<text text-anchor="start" x="268" y="-431.5" font-family="Helvetica,sans-Serif" font-size="10.00"> direction)</text>
<text text-anchor="start" x="268" y="-420.5" font-family="Helvetica,sans-Serif" font-size="10.00">+ bool move() override</text>
<text text-anchor="start" x="268" y="-409.5" font-family="Helvetica,sans-Serif" font-size="10.00">+ bool moveBack() override</text>
<text text-anchor="start" x="268" y="-398.5" font-family="Helvetica,sans-Serif" font-size="10.00">+ void deltaLives(int</text>
<text text-anchor="start" x="268" y="-387.5" font-family="Helvetica,sans-Serif" font-size="10.00"> delta_l)</text>
<text text-anchor="start" x="268" y="-376.5" font-family="Helvetica,sans-Serif" font-size="10.00">+ TankType getType()</text>
<text text-anchor="start" x="268" y="-365.5" font-family="Helvetica,sans-Serif" font-size="10.00"> const</text>
<text text-anchor="start" x="268" y="-354.5" font-family="Helvetica,sans-Serif" font-size="10.00">+ unsigned int getLives</text>
<text text-anchor="start" x="268" y="-343.5" font-family="Helvetica,sans-Serif" font-size="10.00">() const</text>
<text text-anchor="start" x="268" y="-332.5" font-family="Helvetica,sans-Serif" font-size="10.00">+ void setMoving(bool</text>
<text text-anchor="start" x="268" y="-321.5" font-family="Helvetica,sans-Serif" font-size="10.00"> isMoving)</text>
<text text-anchor="start" x="268" y="-310.5" font-family="Helvetica,sans-Serif" font-size="10.00">+ bool isMoving() const</text>
<text text-anchor="start" x="268" y="-299.5" font-family="Helvetica,sans-Serif" font-size="10.00">+ unsigned int getPoints</text>
<text text-anchor="start" x="268" y="-288.5" font-family="Helvetica,sans-Serif" font-size="10.00">() const</text>
<text text-anchor="start" x="268" y="-277.5" font-family="Helvetica,sans-Serif" font-size="10.00">+ void setX(float x)</text>
<text text-anchor="start" x="268" y="-266.5" font-family="Helvetica,sans-Serif" font-size="10.00">+ void setY(float y)</text>
<text text-anchor="start" x="268" y="-255.5" font-family="Helvetica,sans-Serif" font-size="10.00">+ void offsetInCurrentDirection</text>
<text text-anchor="start" x="268" y="-244.5" font-family="Helvetica,sans-Serif" font-size="10.00">(float offset)</text>
<text text-anchor="start" x="268" y="-233.5" font-family="Helvetica,sans-Serif" font-size="10.00">+ std::optional&lt; std</text>
<text text-anchor="start" x="268" y="-222.5" font-family="Helvetica,sans-Serif" font-size="10.00">::shared_ptr&lt; Bullet</text>
<text text-anchor="start" x="268" y="-211.5" font-family="Helvetica,sans-Serif" font-size="10.00"> &gt; &gt; createBullet()</text>
<text text-anchor="start" x="268" y="-200.5" font-family="Helvetica,sans-Serif" font-size="10.00">+ void notify(SimplePublisher</text>
<text text-anchor="start" x="268" y="-189.5" font-family="Helvetica,sans-Serif" font-size="10.00"> *pub) override</text>
<text text-anchor="start" x="268" y="-178.5" font-family="Helvetica,sans-Serif" font-size="10.00"># Tank(TankType type,</text>
<text text-anchor="start" x="268" y="-167.5" font-family="Helvetica,sans-Serif" font-size="10.00"> float x, float y, float</text>
<text text-anchor="start" x="268" y="-156.5" font-family="Helvetica,sans-Serif" font-size="10.00"> speed, float bulletSpeed,</text>
<text text-anchor="start" x="268" y="-145.5" font-family="Helvetica,sans-Serif" font-size="10.00"> unsigned int lives, Direction</text>
<text text-anchor="start" x="268" y="-134.5" font-family="Helvetica,sans-Serif" font-size="10.00"> direction, unsigned int points)</text>
</a>
</g>
</g>
<!-- Node1&#45;&gt;Node3 -->
<g id="edge2" class="edge">
<title>Node1&#45;&gt;Node3</title>
<path fill="none" stroke="midnightblue" d="M286.35,-563.45C288.58,-554.59 290.85,-545.59 293.14,-536.53"/>
<polygon fill="none" stroke="midnightblue" points="282.89,-562.83 283.84,-573.38 289.68,-564.54 282.89,-562.83"/>
</g>
<!-- Node4 -->
<g id="node4" class="node">
<title>Node4</title>
<g id="a_node4"><a xlink:href="class_armor_tank.html" target="_top" xlink:title=" ">
<polygon fill="none" stroke="black" points="0,-0.5 0,-90.5 127,-90.5 127,-0.5 0,-0.5"/>
<text text-anchor="middle" x="63.5" y="-78.5" font-family="Helvetica,sans-Serif" font-size="10.00">ArmorTank</text>
<polyline fill="none" stroke="black" points="0,-71.5 127,-71.5 "/>
<text text-anchor="middle" x="63.5" y="-59.5" font-family="Helvetica,sans-Serif" font-size="10.00"> </text>
<polyline fill="none" stroke="black" points="0,-52.5 127,-52.5 "/>
<text text-anchor="start" x="8" y="-40.5" font-family="Helvetica,sans-Serif" font-size="10.00">+ ArmorTank()=delete</text>
<text text-anchor="start" x="8" y="-29.5" font-family="Helvetica,sans-Serif" font-size="10.00">+ ArmorTank(float x,</text>
<text text-anchor="start" x="8" y="-18.5" font-family="Helvetica,sans-Serif" font-size="10.00"> float y, Direction</text>
<text text-anchor="start" x="8" y="-7.5" font-family="Helvetica,sans-Serif" font-size="10.00"> facing=North)</text>
</a>
</g>
</g>
<!-- Node3&#45;&gt;Node4 -->
<g id="edge3" class="edge">
<title>Node3&#45;&gt;Node4</title>
<path fill="none" stroke="midnightblue" d="M252.6,-128.88C251.9,-128.25 251.2,-127.62 250.5,-127 210.28,-91.64 184.22,-113.25 135.5,-91 132.69,-89.72 129.86,-88.35 127.03,-86.91"/>
<polygon fill="none" stroke="midnightblue" points="250.23,-131.46 259.86,-135.88 255.09,-126.42 250.23,-131.46"/>
</g>
<!-- Node5 -->
<g id="node5" class="node">
<title>Node5</title>
<g id="a_node5"><a xlink:href="class_basic_tank.html" target="_top" xlink:title=" ">
<polygon fill="none" stroke="black" points="145,-0.5 145,-90.5 268,-90.5 268,-0.5 145,-0.5"/>
<text text-anchor="middle" x="206.5" y="-78.5" font-family="Helvetica,sans-Serif" font-size="10.00">BasicTank</text>
<polyline fill="none" stroke="black" points="145,-71.5 268,-71.5 "/>
<text text-anchor="middle" x="206.5" y="-59.5" font-family="Helvetica,sans-Serif" font-size="10.00"> </text>
<polyline fill="none" stroke="black" points="145,-52.5 268,-52.5 "/>
<text text-anchor="start" x="153" y="-40.5" font-family="Helvetica,sans-Serif" font-size="10.00">+ BasicTank()=delete</text>
<text text-anchor="start" x="153" y="-29.5" font-family="Helvetica,sans-Serif" font-size="10.00">+ BasicTank(float x,</text>
<text text-anchor="start" x="153" y="-18.5" font-family="Helvetica,sans-Serif" font-size="10.00"> float y, Direction</text>
<text text-anchor="start" x="153" y="-7.5" font-family="Helvetica,sans-Serif" font-size="10.00"> facing=North)</text>
</a>
</g>
</g>
<!-- Node3&#45;&gt;Node5 -->
<g id="edge4" class="edge">
<title>Node3&#45;&gt;Node5</title>
<path fill="none" stroke="midnightblue" d="M255.32,-136.66C253.71,-133.41 252.1,-130.19 250.5,-127 244.49,-115.05 237.68,-102.27 231.26,-90.5"/>
<polygon fill="none" stroke="midnightblue" points="252.31,-138.46 259.87,-145.87 258.59,-135.36 252.31,-138.46"/>
</g>
<!-- Node6 -->
<g id="node6" class="node">
<title>Node6</title>
<g id="a_node6"><a xlink:href="class_fast_tank.html" target="_top" xlink:title=" ">
<polygon fill="none" stroke="black" points="286.5,-0.5 286.5,-90.5 402.5,-90.5 402.5,-0.5 286.5,-0.5"/>
<text text-anchor="middle" x="344.5" y="-78.5" font-family="Helvetica,sans-Serif" font-size="10.00">FastTank</text>
<polyline fill="none" stroke="black" points="286.5,-71.5 402.5,-71.5 "/>
<text text-anchor="middle" x="344.5" y="-59.5" font-family="Helvetica,sans-Serif" font-size="10.00"> </text>
<polyline fill="none" stroke="black" points="286.5,-52.5 402.5,-52.5 "/>
<text text-anchor="start" x="294.5" y="-40.5" font-family="Helvetica,sans-Serif" font-size="10.00">+ FastTank()=delete</text>
<text text-anchor="start" x="294.5" y="-29.5" font-family="Helvetica,sans-Serif" font-size="10.00">+ FastTank(float x,</text>
<text text-anchor="start" x="294.5" y="-18.5" font-family="Helvetica,sans-Serif" font-size="10.00"> float y, Direction</text>
<text text-anchor="start" x="294.5" y="-7.5" font-family="Helvetica,sans-Serif" font-size="10.00"> facing=North)</text>
</a>
</g>
</g>
<!-- Node3&#45;&gt;Node6 -->
<g id="edge5" class="edge">
<title>Node3&#45;&gt;Node6</title>
<path fill="none" stroke="midnightblue" d="M344.5,-117.25C344.5,-107.83 344.5,-98.98 344.5,-90.93"/>
<polygon fill="none" stroke="midnightblue" points="341,-117.27 344.5,-127.27 348,-117.27 341,-117.27"/>
</g>
<!-- Node7 -->
<g id="node7" class="node">
<title>Node7</title>
<g id="a_node7"><a xlink:href="class_player_tank.html" target="_top" xlink:title=" ">
<polygon fill="none" stroke="black" points="420.5,-0.5 420.5,-90.5 548.5,-90.5 548.5,-0.5 420.5,-0.5"/>
<text text-anchor="middle" x="484.5" y="-78.5" font-family="Helvetica,sans-Serif" font-size="10.00">PlayerTank</text>
<polyline fill="none" stroke="black" points="420.5,-71.5 548.5,-71.5 "/>
<text text-anchor="middle" x="484.5" y="-59.5" font-family="Helvetica,sans-Serif" font-size="10.00"> </text>
<polyline fill="none" stroke="black" points="420.5,-52.5 548.5,-52.5 "/>
<text text-anchor="start" x="428.5" y="-40.5" font-family="Helvetica,sans-Serif" font-size="10.00">+ PlayerTank()=delete</text>
<text text-anchor="start" x="428.5" y="-29.5" font-family="Helvetica,sans-Serif" font-size="10.00">+ PlayerTank(float x,</text>
<text text-anchor="start" x="428.5" y="-18.5" font-family="Helvetica,sans-Serif" font-size="10.00"> float y, Direction</text>
<text text-anchor="start" x="428.5" y="-7.5" font-family="Helvetica,sans-Serif" font-size="10.00"> facing=North)</text>
</a>
</g>
</g>
<!-- Node3&#45;&gt;Node7 -->
<g id="edge6" class="edge">
<title>Node3&#45;&gt;Node7</title>
<path fill="none" stroke="midnightblue" d="M433.63,-149.87C444.36,-128.07 454.43,-107.6 462.74,-90.71"/>
<polygon fill="none" stroke="midnightblue" points="430.44,-148.42 429.17,-158.94 436.72,-151.51 430.44,-148.42"/>
</g>
<!-- Node8 -->
<g id="node8" class="node">
<title>Node8</title>
<g id="a_node8"><a xlink:href="class_power_tank.html" target="_top" xlink:title=" ">
<polygon fill="none" stroke="black" points="567,-0.5 567,-90.5 694,-90.5 694,-0.5 567,-0.5"/>
<text text-anchor="middle" x="630.5" y="-78.5" font-family="Helvetica,sans-Serif" font-size="10.00">PowerTank</text>
<polyline fill="none" stroke="black" points="567,-71.5 694,-71.5 "/>
<text text-anchor="middle" x="630.5" y="-59.5" font-family="Helvetica,sans-Serif" font-size="10.00"> </text>
<polyline fill="none" stroke="black" points="567,-52.5 694,-52.5 "/>
<text text-anchor="start" x="575" y="-40.5" font-family="Helvetica,sans-Serif" font-size="10.00">+ PowerTank()=delete</text>
<text text-anchor="start" x="575" y="-29.5" font-family="Helvetica,sans-Serif" font-size="10.00">+ PowerTank(float x,</text>
<text text-anchor="start" x="575" y="-18.5" font-family="Helvetica,sans-Serif" font-size="10.00"> float y, Direction</text>
<text text-anchor="start" x="575" y="-7.5" font-family="Helvetica,sans-Serif" font-size="10.00"> facing=North)</text>
</a>
</g>
</g>
<!-- Node3&#45;&gt;Node8 -->
<g id="edge7" class="edge">
<title>Node3&#45;&gt;Node8</title>
<path fill="none" stroke="midnightblue" d="M436.48,-239.51C486.63,-189.61 546.43,-130.13 586.26,-90.51"/>
<polygon fill="none" stroke="midnightblue" points="433.77,-237.26 429.15,-246.8 438.71,-242.22 433.77,-237.26"/>
</g>
</g>
</svg>
        <g id="navigator" transform="translate(0 0)" fill="#404254">
                <rect fill="#f2f5e9" fill-opacity="0.5" stroke="#606060" stroke-width=".5" x="0" y="0" width="60" height="60"/>
                <use id="zoomplus" xlink:href="#zoomPlus" x="17" y="9" onmousedown="handleZoom(evt,'in')"/>
                <use id="zoomminus" xlink:href="#zoomMin" x="42" y="9" onmousedown="handleZoom(evt,'out')"/>
                <use id="reset" xlink:href="#resetDef" x="30" y="36" onmousedown="handleReset()"/>
                <g id="arrowUp" xlink:href="#dirArrow" transform="translate(30 24)" onmousedown="handlePan(0,-1)">
                  <use xlink:href="#rim" fill="#404040">
                        <set attributeName="fill" to="#808080" begin="arrowUp.mouseover" end="arrowUp.mouseout"/>
                  </use>
                  <path fill="none" stroke="white" stroke-width="1.5" d="M0,-3.0v7 M-2.5,-0.5L0,-3.0L2.5,-0.5"/>
                </g>
                <g id="arrowRight" xlink:href="#dirArrow" transform="rotate(90) translate(36 -43)" onmousedown="handlePan(1,0)">
                  <use xlink:href="#rim" fill="#404040">
                        <set attributeName="fill" to="#808080" begin="arrowRight.mouseover" end="arrowRight.mouseout"/>
                  </use>
                  <path fill="none" stroke="white" stroke-width="1.5" d="M0,-3.0v7 M-2.5,-0.5L0,-3.0L2.5,-0.5"/>
                </g>
                <g id="arrowDown" xlink:href="#dirArrow" transform="rotate(180) translate(-30 -48)" onmousedown="handlePan(0,1)">
                  <use xlink:href="#rim" fill="#404040">
                        <set attributeName="fill" to="#808080" begin="arrowDown.mouseover" end="arrowDown.mouseout"/>
                  </use>
                  <path fill="none" stroke="white" stroke-width="1.5" d="M0,-3.0v7 M-2.5,-0.5L0,-3.0L2.5,-0.5"/>
                </g>
                <g id="arrowLeft" xlink:href="#dirArrow" transform="rotate(270) translate(-36 17)" onmousedown="handlePan(-1,0)">
                  <use xlink:href="#rim" fill="#404040">
                        <set attributeName="fill" to="#808080" begin="arrowLeft.mouseover" end="arrowLeft.mouseout"/>
                  </use>
                  <path fill="none" stroke="white" stroke-width="1.5" d="M0,-3.0v7 M-2.5,-0.5L0,-3.0L2.5,-0.5"/>
                </g>
        </g>
        <svg viewBox="0 0 15 15" width="100%" height="30px" preserveAspectRatio="xMaxYMin meet">
         <g id="arrow_out" transform="scale(0.3 0.3)">
          <a xlink:href="class_entity__inherit__graph_org.svg" target="_base">
           <rect id="button" ry="5" rx="5" y="6" x="6" height="38" width="38"
                fill="#f2f5e9" fill-opacity="0.5" stroke="#606060" stroke-width="1.0"/>
           <path id="arrow"
             d="M 11.500037,31.436501 C 11.940474,20.09759 22.043105,11.32322 32.158766,21.979434 L 37.068811,17.246167 C 37.068811,17.246167 37.088388,32 37.088388,32 L 22.160133,31.978069 C 22.160133,31.978069 26.997745,27.140456 26.997745,27.140456 C 18.528582,18.264221 13.291696,25.230495 11.500037,31.436501 z"
             style="fill:#404040;"/>
          </a>
         </g>
        </svg>
</svg>
