<?xml version="1.0" encoding="UTF-8" standalone="no"?>
<!DOCTYPE svg PUBLIC "-//W3C//DTD SVG 1.1//EN"
 "http://www.w3.org/Graphics/SVG/1.1/DTD/svg11.dtd">
<!-- Generated by graphviz version 2.43.0 (0)
 -->
<!-- Title: EntityController Pages: 1 -->
<svg width="525pt" height="1327pt"
 viewBox="0.00 0.00 525.00 1327.00" xmlns="http://www.w3.org/2000/svg" xmlns:xlink="http://www.w3.org/1999/xlink">
<g id="graph0" class="graph" transform="scale(1 1) rotate(0) translate(4 1323)">
<title>EntityController</title>
<!-- Node1 -->
<g id="node1" class="node">
<title>Node1</title>
<g id="a_node1"><a xlink:title="Aggregates and manipulates Entity objects.">
<polygon fill="#bfbfbf" stroke="black" points="207,-0.5 207,-684.5 389,-684.5 389,-0.5 207,-0.5"/>
<text text-anchor="middle" x="298" y="-672.5" font-family="Helvetica,sans-Serif" font-size="10.00">EntityController</text>
<polyline fill="none" stroke="black" points="207,-665.5 389,-665.5 "/>
<text text-anchor="middle" x="298" y="-653.5" font-family="Helvetica,sans-Serif" font-size="10.00"> </text>
<polyline fill="none" stroke="black" points="207,-646.5 389,-646.5 "/>
<text text-anchor="start" x="215" y="-634.5" font-family="Helvetica,sans-Serif" font-size="10.00">+ EntityController()</text>
<text text-anchor="start" x="215" y="-623.5" font-family="Helvetica,sans-Serif" font-size="10.00">+ std::shared_ptr&lt; Tank</text>
<text text-anchor="start" x="215" y="-612.5" font-family="Helvetica,sans-Serif" font-size="10.00"> &gt; createTank(unsigned</text>
<text text-anchor="start" x="215" y="-601.5" font-family="Helvetica,sans-Serif" font-size="10.00"> int x, unsigned int y,</text>
<text text-anchor="start" x="215" y="-590.5" font-family="Helvetica,sans-Serif" font-size="10.00"> Tank::TankType type, Direction</text>
<text text-anchor="start" x="215" y="-579.5" font-family="Helvetica,sans-Serif" font-size="10.00"> facing=North)</text>
<text text-anchor="start" x="215" y="-568.5" font-family="Helvetica,sans-Serif" font-size="10.00">+ void hitTank(const</text>
<text text-anchor="start" x="215" y="-557.5" font-family="Helvetica,sans-Serif" font-size="10.00"> std::shared_ptr&lt; Tank</text>
<text text-anchor="start" x="215" y="-546.5" font-family="Helvetica,sans-Serif" font-size="10.00"> &gt; &amp;target, unsigned int</text>
<text text-anchor="start" x="215" y="-535.5" font-family="Helvetica,sans-Serif" font-size="10.00"> damage=1)</text>
<text text-anchor="start" x="215" y="-524.5" font-family="Helvetica,sans-Serif" font-size="10.00">+ void killTank(const</text>
<text text-anchor="start" x="215" y="-513.5" font-family="Helvetica,sans-Serif" font-size="10.00"> std::shared_ptr&lt; Tank</text>
<text text-anchor="start" x="215" y="-502.5" font-family="Helvetica,sans-Serif" font-size="10.00"> &gt; &amp;tank)</text>
<text text-anchor="start" x="215" y="-491.5" font-family="Helvetica,sans-Serif" font-size="10.00">+ void removeEntity(const</text>
<text text-anchor="start" x="215" y="-480.5" font-family="Helvetica,sans-Serif" font-size="10.00"> std::shared_ptr&lt; Entity</text>
<text text-anchor="start" x="215" y="-469.5" font-family="Helvetica,sans-Serif" font-size="10.00"> &gt; &amp;entity)</text>
<text text-anchor="start" x="215" y="-458.5" font-family="Helvetica,sans-Serif" font-size="10.00">+ void moveAllEntities()</text>
<text text-anchor="start" x="215" y="-447.5" font-family="Helvetica,sans-Serif" font-size="10.00">+ bool moveEntity(const</text>
<text text-anchor="start" x="215" y="-436.5" font-family="Helvetica,sans-Serif" font-size="10.00"> std::shared_ptr&lt; Entity</text>
<text text-anchor="start" x="215" y="-425.5" font-family="Helvetica,sans-Serif" font-size="10.00"> &gt; &amp;target)</text>
<text text-anchor="start" x="215" y="-414.5" font-family="Helvetica,sans-Serif" font-size="10.00">+ void setTankMoving</text>
<text text-anchor="start" x="215" y="-403.5" font-family="Helvetica,sans-Serif" font-size="10.00">(const std::shared_ptr</text>
<text text-anchor="start" x="215" y="-392.5" font-family="Helvetica,sans-Serif" font-size="10.00">&lt; Tank &gt; &amp;target, bool</text>
<text text-anchor="start" x="215" y="-381.5" font-family="Helvetica,sans-Serif" font-size="10.00"> isMoving)</text>
<text text-anchor="start" x="215" y="-370.5" font-family="Helvetica,sans-Serif" font-size="10.00">+ void setTankDirection</text>
<text text-anchor="start" x="215" y="-359.5" font-family="Helvetica,sans-Serif" font-size="10.00">(const std::shared_ptr</text>
<text text-anchor="start" x="215" y="-348.5" font-family="Helvetica,sans-Serif" font-size="10.00">&lt; Tank &gt; &amp;target, Direction</text>
<text text-anchor="start" x="215" y="-337.5" font-family="Helvetica,sans-Serif" font-size="10.00"> direction)</text>
<text text-anchor="start" x="215" y="-326.5" font-family="Helvetica,sans-Serif" font-size="10.00">+ std::optional&lt; std</text>
<text text-anchor="start" x="215" y="-315.5" font-family="Helvetica,sans-Serif" font-size="10.00">::shared_ptr&lt; Entity</text>
<text text-anchor="start" x="215" y="-304.5" font-family="Helvetica,sans-Serif" font-size="10.00"> &gt; &gt; findEntityAtPosition</text>
<text text-anchor="start" x="215" y="-293.5" font-family="Helvetica,sans-Serif" font-size="10.00">(float x, float y, std::</text>
<text text-anchor="start" x="215" y="-282.5" font-family="Helvetica,sans-Serif" font-size="10.00">optional&lt; std::shared_ptr</text>
<text text-anchor="start" x="215" y="-271.5" font-family="Helvetica,sans-Serif" font-size="10.00">&lt; Entity &gt; &gt; ignored=std::</text>
<text text-anchor="start" x="215" y="-260.5" font-family="Helvetica,sans-Serif" font-size="10.00">nullopt)</text>
<text text-anchor="start" x="215" y="-249.5" font-family="Helvetica,sans-Serif" font-size="10.00">+ std::shared_ptr&lt; PlayerTank</text>
<text text-anchor="start" x="215" y="-238.5" font-family="Helvetica,sans-Serif" font-size="10.00"> &gt; getPlayer()</text>
<text text-anchor="start" x="215" y="-227.5" font-family="Helvetica,sans-Serif" font-size="10.00">+ std::shared_ptr&lt; PlayerTank</text>
<text text-anchor="start" x="215" y="-216.5" font-family="Helvetica,sans-Serif" font-size="10.00"> &gt; addEntity(const std::</text>
<text text-anchor="start" x="215" y="-205.5" font-family="Helvetica,sans-Serif" font-size="10.00">shared_ptr&lt; PlayerTank &gt;</text>
<text text-anchor="start" x="215" y="-194.5" font-family="Helvetica,sans-Serif" font-size="10.00"> &amp;playerTank)</text>
<text text-anchor="start" x="215" y="-183.5" font-family="Helvetica,sans-Serif" font-size="10.00">+ std::shared_ptr&lt; Tank</text>
<text text-anchor="start" x="215" y="-172.5" font-family="Helvetica,sans-Serif" font-size="10.00"> &gt; addEntity(std::shared</text>
<text text-anchor="start" x="215" y="-161.5" font-family="Helvetica,sans-Serif" font-size="10.00">_ptr&lt; Tank &gt; newTank)</text>
<text text-anchor="start" x="215" y="-150.5" font-family="Helvetica,sans-Serif" font-size="10.00">+ std::shared_ptr&lt; Bullet</text>
<text text-anchor="start" x="215" y="-139.5" font-family="Helvetica,sans-Serif" font-size="10.00"> &gt; addEntity(std::shared</text>
<text text-anchor="start" x="215" y="-128.5" font-family="Helvetica,sans-Serif" font-size="10.00">_ptr&lt; Bullet &gt; newBullet)</text>
<text text-anchor="start" x="215" y="-117.5" font-family="Helvetica,sans-Serif" font-size="10.00">+ std::shared_ptr&lt; Entity</text>
<text text-anchor="start" x="215" y="-106.5" font-family="Helvetica,sans-Serif" font-size="10.00"> &gt; addEntity(std::shared</text>
<text text-anchor="start" x="215" y="-95.5" font-family="Helvetica,sans-Serif" font-size="10.00">_ptr&lt; Entity &gt; newEntity)</text>
<text text-anchor="start" x="215" y="-84.5" font-family="Helvetica,sans-Serif" font-size="10.00">+ std::optional&lt; std</text>
<text text-anchor="start" x="215" y="-73.5" font-family="Helvetica,sans-Serif" font-size="10.00">::shared_ptr&lt; Entity</text>
<text text-anchor="start" x="215" y="-62.5" font-family="Helvetica,sans-Serif" font-size="10.00"> &gt; &gt; checkEntityCollisions</text>
<text text-anchor="start" x="215" y="-51.5" font-family="Helvetica,sans-Serif" font-size="10.00">(const std::shared_ptr&lt; Entity</text>
<text text-anchor="start" x="215" y="-40.5" font-family="Helvetica,sans-Serif" font-size="10.00"> &gt; &amp;target)</text>
<text text-anchor="start" x="215" y="-29.5" font-family="Helvetica,sans-Serif" font-size="10.00">+ std::vector&lt; std::shared</text>
<text text-anchor="start" x="215" y="-18.5" font-family="Helvetica,sans-Serif" font-size="10.00">_ptr&lt; Entity &gt; &gt; * getAllEntities()</text>
<text text-anchor="start" x="215" y="-7.5" font-family="Helvetica,sans-Serif" font-size="10.00">+ void clear()</text>
</a>
</g>
</g>
<!-- Node2 -->
<g id="node2" class="node">
<title>Node2</title>
<g id="a_node2"><a xlink:href="class_event_queue.html" target="_top" xlink:title=" ">
<polygon fill="none" stroke="black" points="73,-732.5 73,-943.5 223,-943.5 223,-732.5 73,-732.5"/>
<text text-anchor="middle" x="148" y="-931.5" font-family="Helvetica,sans-Serif" font-size="10.00">EventQueue&lt; Event &gt;</text>
<polyline fill="none" stroke="black" points="73,-924.5 223,-924.5 "/>
<text text-anchor="middle" x="148" y="-912.5" font-family="Helvetica,sans-Serif" font-size="10.00"> </text>
<polyline fill="none" stroke="black" points="73,-905.5 223,-905.5 "/>
<text text-anchor="start" x="81" y="-893.5" font-family="Helvetica,sans-Serif" font-size="10.00">+ EventQueue(EventQueue</text>
<text text-anchor="start" x="81" y="-882.5" font-family="Helvetica,sans-Serif" font-size="10.00"> &amp;)=delete</text>
<text text-anchor="start" x="81" y="-871.5" font-family="Helvetica,sans-Serif" font-size="10.00">+ bool operator=(const</text>
<text text-anchor="start" x="81" y="-860.5" font-family="Helvetica,sans-Serif" font-size="10.00"> EventQueue &amp;)=delete</text>
<text text-anchor="start" x="81" y="-849.5" font-family="Helvetica,sans-Serif" font-size="10.00">+ void registerEvent</text>
<text text-anchor="start" x="81" y="-838.5" font-family="Helvetica,sans-Serif" font-size="10.00">(std::unique_ptr&lt; Event</text>
<text text-anchor="start" x="81" y="-827.5" font-family="Helvetica,sans-Serif" font-size="10.00"> &gt; event)</text>
<text text-anchor="start" x="81" y="-816.5" font-family="Helvetica,sans-Serif" font-size="10.00">+ std::unique_ptr&lt; Event</text>
<text text-anchor="start" x="81" y="-805.5" font-family="Helvetica,sans-Serif" font-size="10.00"> &gt; pop()</text>
<text text-anchor="start" x="81" y="-794.5" font-family="Helvetica,sans-Serif" font-size="10.00">+ bool isEmpty()</text>
<text text-anchor="start" x="81" y="-783.5" font-family="Helvetica,sans-Serif" font-size="10.00">+ unsigned int size()</text>
<text text-anchor="start" x="81" y="-772.5" font-family="Helvetica,sans-Serif" font-size="10.00">+ void clear()</text>
<text text-anchor="start" x="81" y="-761.5" font-family="Helvetica,sans-Serif" font-size="10.00">+ static EventQueue *</text>
<text text-anchor="start" x="81" y="-750.5" font-family="Helvetica,sans-Serif" font-size="10.00"> instance()</text>
<text text-anchor="start" x="81" y="-739.5" font-family="Helvetica,sans-Serif" font-size="10.00">&#45; EventQueue()=default</text>
</a>
</g>
</g>
<!-- Node2&#45;&gt;Node1 -->
<g id="edge1" class="edge">
<title>Node2&#45;&gt;Node1</title>
<path fill="none" stroke="#404040" d="M179.81,-732.34C187,-708.7 194.99,-682.42 203.32,-654.98"/>
<polygon fill="none" stroke="#404040" points="203.43,-654.64 201.35,-647.74 206.92,-643.16 209,-650.07 203.43,-654.64"/>
<text text-anchor="middle" x="227" y="-706" font-family="Helvetica,sans-Serif" font-size="10.00"> #eventQueue_</text>
</g>
<!-- Node3 -->
<g id="node3" class="node">
<title>Node3</title>
<g id="a_node3"><a xlink:href="classstd_1_1queue_3_01std_1_1unique__ptr_3_01_event_01_4_01_4.html" target="_top" xlink:title=" ">
<polygon fill="none" stroke="black" points="0,-1063 0,-1131 112,-1131 112,-1063 0,-1063"/>
<text text-anchor="start" x="8" y="-1119" font-family="Helvetica,sans-Serif" font-size="10.00">queue&lt; std::unique</text>
<text text-anchor="middle" x="56" y="-1108" font-family="Helvetica,sans-Serif" font-size="10.00">_ptr&lt; Event &gt; &gt;</text>
<polyline fill="none" stroke="black" points="0,-1101 112,-1101 "/>
<text text-anchor="middle" x="56" y="-1089" font-family="Helvetica,sans-Serif" font-size="10.00"> </text>
<polyline fill="none" stroke="black" points="0,-1082 112,-1082 "/>
<text text-anchor="middle" x="56" y="-1070" font-family="Helvetica,sans-Serif" font-size="10.00"> </text>
</a>
</g>
</g>
<!-- Node3&#45;&gt;Node2 -->
<g id="edge2" class="edge">
<title>Node3&#45;&gt;Node2</title>
<path fill="none" stroke="#404040" d="M60.35,-1062.82C64.56,-1035.27 72.09,-995.35 84,-962 84.8,-959.75 85.64,-957.48 86.51,-955.21"/>
<polygon fill="none" stroke="#404040" points="86.61,-954.97 85.14,-947.91 91.09,-943.83 92.56,-950.89 86.61,-954.97"/>
<text text-anchor="middle" x="109" y="-965" font-family="Helvetica,sans-Serif" font-size="10.00"> #events_</text>
</g>
<!-- Node4 -->
<g id="node4" class="node">
<title>Node4</title>
<g id="a_node4"><a xlink:title=" ">
<polygon fill="none" stroke="black" points="73,-1256 73,-1313 223,-1313 223,-1256 73,-1256"/>
<text text-anchor="middle" x="148" y="-1301" font-family="Helvetica,sans-Serif" font-size="10.00">unique_ptr&lt; EventQueue &gt;</text>
<polyline fill="none" stroke="black" points="73,-1294 223,-1294 "/>
<text text-anchor="middle" x="148" y="-1282" font-family="Helvetica,sans-Serif" font-size="10.00"> </text>
<polyline fill="none" stroke="black" points="73,-1275 223,-1275 "/>
<text text-anchor="middle" x="148" y="-1263" font-family="Helvetica,sans-Serif" font-size="10.00"> </text>
</a>
</g>
</g>
<!-- Node4&#45;&gt;Node2 -->
<g id="edge3" class="edge">
<title>Node4&#45;&gt;Node2</title>
<path fill="none" stroke="#404040" d="M148,-1255.69C148,-1196.98 148,-1057.4 148,-955.93"/>
<polygon fill="none" stroke="#404040" points="148,-955.75 144,-949.75 148,-943.75 152,-949.75 148,-955.75"/>
<text text-anchor="middle" x="165.5" y="-1094.5" font-family="Helvetica,sans-Serif" font-size="10.00"> #self_</text>
</g>
<!-- Node5 -->
<g id="node5" class="node">
<title>Node5</title>
<g id="a_node5"><a xlink:href="class_event_queue.html" target="_top" xlink:title="Singleton class wrapper for std::queue&lt;E&gt;.">
<polygon fill="none" stroke="black" points="201,-991.5 201,-1202.5 351,-1202.5 351,-991.5 201,-991.5"/>
<text text-anchor="middle" x="276" y="-1190.5" font-family="Helvetica,sans-Serif" font-size="10.00">EventQueue&lt; E &gt;</text>
<polyline fill="none" stroke="black" points="201,-1183.5 351,-1183.5 "/>
<text text-anchor="middle" x="276" y="-1171.5" font-family="Helvetica,sans-Serif" font-size="10.00"> </text>
<polyline fill="none" stroke="black" points="201,-1164.5 351,-1164.5 "/>
<text text-anchor="start" x="209" y="-1152.5" font-family="Helvetica,sans-Serif" font-size="10.00">+ EventQueue(EventQueue</text>
<text text-anchor="start" x="209" y="-1141.5" font-family="Helvetica,sans-Serif" font-size="10.00"> &amp;)=delete</text>
<text text-anchor="start" x="209" y="-1130.5" font-family="Helvetica,sans-Serif" font-size="10.00">+ bool operator=(const</text>
<text text-anchor="start" x="209" y="-1119.5" font-family="Helvetica,sans-Serif" font-size="10.00"> EventQueue &amp;)=delete</text>
<text text-anchor="start" x="209" y="-1108.5" font-family="Helvetica,sans-Serif" font-size="10.00">+ void registerEvent</text>
<text text-anchor="start" x="209" y="-1097.5" font-family="Helvetica,sans-Serif" font-size="10.00">(std::unique_ptr&lt; E</text>
<text text-anchor="start" x="209" y="-1086.5" font-family="Helvetica,sans-Serif" font-size="10.00"> &gt; event)</text>
<text text-anchor="start" x="209" y="-1075.5" font-family="Helvetica,sans-Serif" font-size="10.00">+ std::unique_ptr&lt; E</text>
<text text-anchor="start" x="209" y="-1064.5" font-family="Helvetica,sans-Serif" font-size="10.00"> &gt; pop()</text>
<text text-anchor="start" x="209" y="-1053.5" font-family="Helvetica,sans-Serif" font-size="10.00">+ bool isEmpty()</text>
<text text-anchor="start" x="209" y="-1042.5" font-family="Helvetica,sans-Serif" font-size="10.00">+ unsigned int size()</text>
<text text-anchor="start" x="209" y="-1031.5" font-family="Helvetica,sans-Serif" font-size="10.00">+ void clear()</text>
<text text-anchor="start" x="209" y="-1020.5" font-family="Helvetica,sans-Serif" font-size="10.00">+ static EventQueue *</text>
<text text-anchor="start" x="209" y="-1009.5" font-family="Helvetica,sans-Serif" font-size="10.00"> instance()</text>
<text text-anchor="start" x="209" y="-998.5" font-family="Helvetica,sans-Serif" font-size="10.00">&#45; EventQueue()=default</text>
</a>
</g>
</g>
<!-- Node4&#45;&gt;Node5 -->
<g id="edge6" class="edge">
<title>Node4&#45;&gt;Node5</title>
<path fill="none" stroke="#404040" d="M167.16,-1255.73C175.48,-1243.68 185.83,-1228.68 196.81,-1212.77"/>
<polygon fill="none" stroke="#404040" points="196.9,-1212.64 197.01,-1205.43 203.71,-1202.76 203.6,-1209.97 196.9,-1212.64"/>
<text text-anchor="middle" x="207.5" y="-1224" font-family="Helvetica,sans-Serif" font-size="10.00"> #self_</text>
</g>
<!-- Node5&#45;&gt;Node2 -->
<g id="edge4" class="edge">
<title>Node5&#45;&gt;Node2</title>
<path fill="none" stroke="orange" d="M219.33,-982.22C212.97,-969.46 206.52,-956.5 200.22,-943.86"/>
<polygon fill="orange" stroke="orange" points="216.35,-984.08 223.94,-991.47 222.61,-980.96 216.35,-984.08"/>
<text text-anchor="middle" x="239" y="-965" font-family="Helvetica,sans-Serif" font-size="10.00"> &lt; Event &gt;</text>
</g>
<!-- Node6 -->
<g id="node6" class="node">
<title>Node6</title>
<g id="a_node6"><a xlink:title=" ">
<polygon fill="none" stroke="black" points="241,-1250.5 241,-1318.5 353,-1318.5 353,-1250.5 241,-1250.5"/>
<text text-anchor="start" x="249" y="-1306.5" font-family="Helvetica,sans-Serif" font-size="10.00">queue&lt; std::unique</text>
<text text-anchor="middle" x="297" y="-1295.5" font-family="Helvetica,sans-Serif" font-size="10.00">_ptr&lt; E &gt; &gt;</text>
<polyline fill="none" stroke="black" points="241,-1288.5 353,-1288.5 "/>
<text text-anchor="middle" x="297" y="-1276.5" font-family="Helvetica,sans-Serif" font-size="10.00"> </text>
<polyline fill="none" stroke="black" points="241,-1269.5 353,-1269.5 "/>
<text text-anchor="middle" x="297" y="-1257.5" font-family="Helvetica,sans-Serif" font-size="10.00"> </text>
</a>
</g>
</g>
<!-- Node6&#45;&gt;Node5 -->
<g id="edge5" class="edge">
<title>Node6&#45;&gt;Node5</title>
<path fill="none" stroke="#404040" d="M293.25,-1250.34C292.06,-1239.88 290.68,-1227.68 289.22,-1214.81"/>
<polygon fill="none" stroke="#404040" points="289.22,-1214.77 284.57,-1209.25 287.87,-1202.84 292.52,-1208.36 289.22,-1214.77"/>
<text text-anchor="middle" x="315" y="-1224" font-family="Helvetica,sans-Serif" font-size="10.00"> #events_</text>
</g>
<!-- Node7 -->
<g id="node7" class="node">
<title>Node7</title>
<g id="a_node7"><a xlink:title=" ">
<polygon fill="none" stroke="black" points="241.5,-804 241.5,-872 354.5,-872 354.5,-804 241.5,-804"/>
<text text-anchor="start" x="249.5" y="-860" font-family="Helvetica,sans-Serif" font-size="10.00">vector&lt; std::shared</text>
<text text-anchor="middle" x="298" y="-849" font-family="Helvetica,sans-Serif" font-size="10.00">_ptr&lt; Entity &gt; &gt;</text>
<polyline fill="none" stroke="black" points="241.5,-842 354.5,-842 "/>
<text text-anchor="middle" x="298" y="-830" font-family="Helvetica,sans-Serif" font-size="10.00"> </text>
<polyline fill="none" stroke="black" points="241.5,-823 354.5,-823 "/>
<text text-anchor="middle" x="298" y="-811" font-family="Helvetica,sans-Serif" font-size="10.00"> </text>
</a>
</g>
</g>
<!-- Node7&#45;&gt;Node1 -->
<g id="edge7" class="edge">
<title>Node7&#45;&gt;Node1</title>
<path fill="none" stroke="#404040" d="M298,-803.85C298,-778.42 298,-740.34 298,-696.79"/>
<polygon fill="none" stroke="#404040" points="298,-696.68 294,-690.68 298,-684.68 302,-690.68 298,-696.68"/>
<text text-anchor="middle" x="325" y="-706" font-family="Helvetica,sans-Serif" font-size="10.00"> #entities_</text>
</g>
<!-- Node8 -->
<g id="node8" class="node">
<title>Node8</title>
<g id="a_node8"><a xlink:title=" ">
<polygon fill="none" stroke="black" points="373,-809.5 373,-866.5 517,-866.5 517,-809.5 373,-809.5"/>
<text text-anchor="middle" x="445" y="-854.5" font-family="Helvetica,sans-Serif" font-size="10.00">shared_ptr&lt; PlayerTank &gt;</text>
<polyline fill="none" stroke="black" points="373,-847.5 517,-847.5 "/>
<text text-anchor="middle" x="445" y="-835.5" font-family="Helvetica,sans-Serif" font-size="10.00"> </text>
<polyline fill="none" stroke="black" points="373,-828.5 517,-828.5 "/>
<text text-anchor="middle" x="445" y="-816.5" font-family="Helvetica,sans-Serif" font-size="10.00"> </text>
</a>
</g>
</g>
<!-- Node8&#45;&gt;Node1 -->
<g id="edge8" class="edge">
<title>Node8&#45;&gt;Node1</title>
<path fill="none" stroke="#404040" d="M436.78,-809.41C427.39,-777.88 410.92,-722.6 392.54,-660.88"/>
<polygon fill="none" stroke="#404040" points="392.51,-660.78 386.96,-656.18 389.08,-649.28 394.63,-653.89 392.51,-660.78"/>
<text text-anchor="middle" x="429" y="-706" font-family="Helvetica,sans-Serif" font-size="10.00"> #player_</text>
</g>
</g>
</svg>
