<?xml version="1.0" encoding="UTF-8" standalone="no"?>
<!DOCTYPE svg PUBLIC "-//W3C//DTD SVG 1.1//EN"
 "http://www.w3.org/Graphics/SVG/1.1/DTD/svg11.dtd">
<!-- Generated by graphviz version 2.43.0 (0)
 -->
<!-- Title: KeyboardController Pages: 1 -->
<svg width="616pt" height="777pt"
 viewBox="0.00 0.00 615.50 777.00" xmlns="http://www.w3.org/2000/svg" xmlns:xlink="http://www.w3.org/1999/xlink">
<g id="graph0" class="graph" transform="scale(1 1) rotate(0) translate(4 773)">
<title>KeyboardController</title>
<!-- Node1 -->
<g id="node1" class="node">
<title>Node1</title>
<g id="a_node1"><a xlink:title=" ">
<polygon fill="#bfbfbf" stroke="black" points="179.5,-0.5 179.5,-134.5 341.5,-134.5 341.5,-0.5 179.5,-0.5"/>
<text text-anchor="middle" x="260.5" y="-122.5" font-family="Helvetica,sans-Serif" font-size="10.00">KeyboardController</text>
<polyline fill="none" stroke="black" points="179.5,-115.5 341.5,-115.5 "/>
<text text-anchor="middle" x="260.5" y="-103.5" font-family="Helvetica,sans-Serif" font-size="10.00"> </text>
<polyline fill="none" stroke="black" points="179.5,-96.5 341.5,-96.5 "/>
<text text-anchor="start" x="187.5" y="-84.5" font-family="Helvetica,sans-Serif" font-size="10.00">+ KeyboardController</text>
<text text-anchor="start" x="187.5" y="-73.5" font-family="Helvetica,sans-Serif" font-size="10.00">()=delete</text>
<text text-anchor="start" x="187.5" y="-62.5" font-family="Helvetica,sans-Serif" font-size="10.00">+ KeyboardController</text>
<text text-anchor="start" x="187.5" y="-51.5" font-family="Helvetica,sans-Serif" font-size="10.00">(sf::RenderWindow *window)</text>
<text text-anchor="start" x="187.5" y="-40.5" font-family="Helvetica,sans-Serif" font-size="10.00">+ void notify(SimplePublisher</text>
<text text-anchor="start" x="187.5" y="-29.5" font-family="Helvetica,sans-Serif" font-size="10.00"> *pub) override</text>
<text text-anchor="start" x="187.5" y="-18.5" font-family="Helvetica,sans-Serif" font-size="10.00">+ void fetchKeyboardEvent</text>
<text text-anchor="start" x="187.5" y="-7.5" font-family="Helvetica,sans-Serif" font-size="10.00">() const</text>
</a>
</g>
</g>
<!-- Node2 -->
<g id="node2" class="node">
<title>Node2</title>
<g id="a_node2"><a xlink:href="class_simple_subscriber.html" target="_top" xlink:title=" ">
<polygon fill="none" stroke="black" points="0,-204.5 0,-371.5 193,-371.5 193,-204.5 0,-204.5"/>
<text text-anchor="middle" x="96.5" y="-359.5" font-family="Helvetica,sans-Serif" font-size="10.00">SimpleSubscriber</text>
<polyline fill="none" stroke="black" points="0,-352.5 193,-352.5 "/>
<text text-anchor="middle" x="96.5" y="-340.5" font-family="Helvetica,sans-Serif" font-size="10.00"> </text>
<polyline fill="none" stroke="black" points="0,-333.5 193,-333.5 "/>
<text text-anchor="start" x="8" y="-321.5" font-family="Helvetica,sans-Serif" font-size="10.00">+ ~SimpleSubscriber()</text>
<text text-anchor="start" x="8" y="-310.5" font-family="Helvetica,sans-Serif" font-size="10.00">+ void subscribe(SimplePublisher</text>
<text text-anchor="start" x="8" y="-299.5" font-family="Helvetica,sans-Serif" font-size="10.00"> *pub)</text>
<text text-anchor="start" x="8" y="-288.5" font-family="Helvetica,sans-Serif" font-size="10.00">+ void unsubscribe(SimplePublisher</text>
<text text-anchor="start" x="8" y="-277.5" font-family="Helvetica,sans-Serif" font-size="10.00"> *pub)</text>
<text text-anchor="start" x="8" y="-266.5" font-family="Helvetica,sans-Serif" font-size="10.00">+ void removeDeletedSubject</text>
<text text-anchor="start" x="8" y="-255.5" font-family="Helvetica,sans-Serif" font-size="10.00">(SimplePublisher *pub)</text>
<text text-anchor="start" x="8" y="-244.5" font-family="Helvetica,sans-Serif" font-size="10.00">+ virtual void notify</text>
<text text-anchor="start" x="8" y="-233.5" font-family="Helvetica,sans-Serif" font-size="10.00">(SimplePublisher *pub)=0</text>
<text text-anchor="start" x="8" y="-222.5" font-family="Helvetica,sans-Serif" font-size="10.00"># SimpleSubscriber()</text>
<text text-anchor="start" x="8" y="-211.5" font-family="Helvetica,sans-Serif" font-size="10.00">=default</text>
</a>
</g>
</g>
<!-- Node2&#45;&gt;Node1 -->
<g id="edge1" class="edge">
<title>Node2&#45;&gt;Node1</title>
<path fill="none" stroke="midnightblue" d="M164.64,-196.22C180.16,-175.54 196.35,-153.96 210.92,-134.55"/>
<polygon fill="none" stroke="midnightblue" points="161.71,-194.3 158.5,-204.39 167.3,-198.5 161.71,-194.3"/>
</g>
<!-- Node3 -->
<g id="node3" class="node">
<title>Node3</title>
<g id="a_node3"><a xlink:title=" ">
<polygon fill="none" stroke="black" points="18,-518.5 18,-575.5 175,-575.5 175,-518.5 18,-518.5"/>
<text text-anchor="middle" x="96.5" y="-563.5" font-family="Helvetica,sans-Serif" font-size="10.00">vector&lt; SimplePublisher * &gt;</text>
<polyline fill="none" stroke="black" points="18,-556.5 175,-556.5 "/>
<text text-anchor="middle" x="96.5" y="-544.5" font-family="Helvetica,sans-Serif" font-size="10.00"> </text>
<polyline fill="none" stroke="black" points="18,-537.5 175,-537.5 "/>
<text text-anchor="middle" x="96.5" y="-525.5" font-family="Helvetica,sans-Serif" font-size="10.00"> </text>
</a>
</g>
</g>
<!-- Node3&#45;&gt;Node2 -->
<g id="edge2" class="edge">
<title>Node3&#45;&gt;Node2</title>
<path fill="none" stroke="#404040" d="M96.5,-518.5C96.5,-486.44 96.5,-431.75 96.5,-383.79"/>
<polygon fill="none" stroke="#404040" points="96.5,-383.76 92.5,-377.76 96.5,-371.76 100.5,-377.76 96.5,-383.76"/>
<text text-anchor="middle" x="152" y="-415" font-family="Helvetica,sans-Serif" font-size="10.00"> #subscribedSubjects_</text>
</g>
<!-- Node4 -->
<g id="node4" class="node">
<title>Node4</title>
<g id="a_node4"><a xlink:title=" ">
<polygon fill="none" stroke="black" points="211.5,-259.5 211.5,-316.5 309.5,-316.5 309.5,-259.5 211.5,-259.5"/>
<text text-anchor="middle" x="260.5" y="-304.5" font-family="Helvetica,sans-Serif" font-size="10.00">RenderWindow *</text>
<polyline fill="none" stroke="black" points="211.5,-297.5 309.5,-297.5 "/>
<text text-anchor="middle" x="260.5" y="-285.5" font-family="Helvetica,sans-Serif" font-size="10.00"> </text>
<polyline fill="none" stroke="black" points="211.5,-278.5 309.5,-278.5 "/>
<text text-anchor="middle" x="260.5" y="-266.5" font-family="Helvetica,sans-Serif" font-size="10.00"> </text>
</a>
</g>
</g>
<!-- Node4&#45;&gt;Node1 -->
<g id="edge3" class="edge">
<title>Node4&#45;&gt;Node1</title>
<path fill="none" stroke="#404040" d="M260.5,-259.33C260.5,-231.18 260.5,-186.26 260.5,-147.08"/>
<polygon fill="none" stroke="#404040" points="260.5,-146.85 256.5,-140.85 260.5,-134.85 264.5,-140.85 260.5,-146.85"/>
<text text-anchor="middle" x="288" y="-156" font-family="Helvetica,sans-Serif" font-size="10.00"> +window_</text>
</g>
<!-- Node5 -->
<g id="node5" class="node">
<title>Node5</title>
<g id="a_node5"><a xlink:href="class_event_queue.html" target="_top" xlink:title=" ">
<polygon fill="none" stroke="black" points="327.5,-182.5 327.5,-393.5 477.5,-393.5 477.5,-182.5 327.5,-182.5"/>
<text text-anchor="middle" x="402.5" y="-381.5" font-family="Helvetica,sans-Serif" font-size="10.00">EventQueue&lt; Event &gt;</text>
<polyline fill="none" stroke="black" points="327.5,-374.5 477.5,-374.5 "/>
<text text-anchor="middle" x="402.5" y="-362.5" font-family="Helvetica,sans-Serif" font-size="10.00"> </text>
<polyline fill="none" stroke="black" points="327.5,-355.5 477.5,-355.5 "/>
<text text-anchor="start" x="335.5" y="-343.5" font-family="Helvetica,sans-Serif" font-size="10.00">+ EventQueue(EventQueue</text>
<text text-anchor="start" x="335.5" y="-332.5" font-family="Helvetica,sans-Serif" font-size="10.00"> &amp;)=delete</text>
<text text-anchor="start" x="335.5" y="-321.5" font-family="Helvetica,sans-Serif" font-size="10.00">+ bool operator=(const</text>
<text text-anchor="start" x="335.5" y="-310.5" font-family="Helvetica,sans-Serif" font-size="10.00"> EventQueue &amp;)=delete</text>
<text text-anchor="start" x="335.5" y="-299.5" font-family="Helvetica,sans-Serif" font-size="10.00">+ void registerEvent</text>
<text text-anchor="start" x="335.5" y="-288.5" font-family="Helvetica,sans-Serif" font-size="10.00">(std::unique_ptr&lt; Event</text>
<text text-anchor="start" x="335.5" y="-277.5" font-family="Helvetica,sans-Serif" font-size="10.00"> &gt; event)</text>
<text text-anchor="start" x="335.5" y="-266.5" font-family="Helvetica,sans-Serif" font-size="10.00">+ std::unique_ptr&lt; Event</text>
<text text-anchor="start" x="335.5" y="-255.5" font-family="Helvetica,sans-Serif" font-size="10.00"> &gt; pop()</text>
<text text-anchor="start" x="335.5" y="-244.5" font-family="Helvetica,sans-Serif" font-size="10.00">+ bool isEmpty()</text>
<text text-anchor="start" x="335.5" y="-233.5" font-family="Helvetica,sans-Serif" font-size="10.00">+ unsigned int size()</text>
<text text-anchor="start" x="335.5" y="-222.5" font-family="Helvetica,sans-Serif" font-size="10.00">+ void clear()</text>
<text text-anchor="start" x="335.5" y="-211.5" font-family="Helvetica,sans-Serif" font-size="10.00">+ static EventQueue *</text>
<text text-anchor="start" x="335.5" y="-200.5" font-family="Helvetica,sans-Serif" font-size="10.00"> instance()</text>
<text text-anchor="start" x="335.5" y="-189.5" font-family="Helvetica,sans-Serif" font-size="10.00">&#45; EventQueue()=default</text>
</a>
</g>
</g>
<!-- Node5&#45;&gt;Node1 -->
<g id="edge4" class="edge">
<title>Node5&#45;&gt;Node1</title>
<path fill="none" stroke="#404040" d="M338.49,-182.4C332.14,-172.42 325.74,-162.49 319.5,-153 317.72,-150.29 315.89,-147.54 314.04,-144.77"/>
<polygon fill="none" stroke="#404040" points="313.94,-144.63 307.27,-141.9 307.23,-134.69 313.9,-137.42 313.94,-144.63"/>
<text text-anchor="middle" x="364.5" y="-156" font-family="Helvetica,sans-Serif" font-size="10.00"> +eventQueue_</text>
</g>
<!-- Node6 -->
<g id="node6" class="node">
<title>Node6</title>
<g id="a_node6"><a xlink:href="classstd_1_1queue_3_01std_1_1unique__ptr_3_01_event_01_4_01_4.html" target="_top" xlink:title=" ">
<polygon fill="none" stroke="black" points="254.5,-513 254.5,-581 366.5,-581 366.5,-513 254.5,-513"/>
<text text-anchor="start" x="262.5" y="-569" font-family="Helvetica,sans-Serif" font-size="10.00">queue&lt; std::unique</text>
<text text-anchor="middle" x="310.5" y="-558" font-family="Helvetica,sans-Serif" font-size="10.00">_ptr&lt; Event &gt; &gt;</text>
<polyline fill="none" stroke="black" points="254.5,-551 366.5,-551 "/>
<text text-anchor="middle" x="310.5" y="-539" font-family="Helvetica,sans-Serif" font-size="10.00"> </text>
<polyline fill="none" stroke="black" points="254.5,-532 366.5,-532 "/>
<text text-anchor="middle" x="310.5" y="-520" font-family="Helvetica,sans-Serif" font-size="10.00"> </text>
</a>
</g>
</g>
<!-- Node6&#45;&gt;Node5 -->
<g id="edge5" class="edge">
<title>Node6&#45;&gt;Node5</title>
<path fill="none" stroke="#404040" d="M314.85,-512.82C319.06,-485.27 326.59,-445.35 338.5,-412 339.3,-409.75 340.14,-407.48 341.01,-405.21"/>
<polygon fill="none" stroke="#404040" points="341.11,-404.97 339.64,-397.91 345.59,-393.83 347.06,-400.89 341.11,-404.97"/>
<text text-anchor="middle" x="363.5" y="-415" font-family="Helvetica,sans-Serif" font-size="10.00"> #events_</text>
</g>
<!-- Node7 -->
<g id="node7" class="node">
<title>Node7</title>
<g id="a_node7"><a xlink:title=" ">
<polygon fill="none" stroke="black" points="327.5,-706 327.5,-763 477.5,-763 477.5,-706 327.5,-706"/>
<text text-anchor="middle" x="402.5" y="-751" font-family="Helvetica,sans-Serif" font-size="10.00">unique_ptr&lt; EventQueue &gt;</text>
<polyline fill="none" stroke="black" points="327.5,-744 477.5,-744 "/>
<text text-anchor="middle" x="402.5" y="-732" font-family="Helvetica,sans-Serif" font-size="10.00"> </text>
<polyline fill="none" stroke="black" points="327.5,-725 477.5,-725 "/>
<text text-anchor="middle" x="402.5" y="-713" font-family="Helvetica,sans-Serif" font-size="10.00"> </text>
</a>
</g>
</g>
<!-- Node7&#45;&gt;Node5 -->
<g id="edge6" class="edge">
<title>Node7&#45;&gt;Node5</title>
<path fill="none" stroke="#404040" d="M402.5,-705.69C402.5,-646.98 402.5,-507.4 402.5,-405.93"/>
<polygon fill="none" stroke="#404040" points="402.5,-405.75 398.5,-399.75 402.5,-393.75 406.5,-399.75 402.5,-405.75"/>
<text text-anchor="middle" x="420" y="-544.5" font-family="Helvetica,sans-Serif" font-size="10.00"> #self_</text>
</g>
<!-- Node8 -->
<g id="node8" class="node">
<title>Node8</title>
<g id="a_node8"><a xlink:href="class_event_queue.html" target="_top" xlink:title="Singleton class wrapper for std::queue&lt;E&gt;.">
<polygon fill="none" stroke="black" points="455.5,-441.5 455.5,-652.5 605.5,-652.5 605.5,-441.5 455.5,-441.5"/>
<text text-anchor="middle" x="530.5" y="-640.5" font-family="Helvetica,sans-Serif" font-size="10.00">EventQueue&lt; E &gt;</text>
<polyline fill="none" stroke="black" points="455.5,-633.5 605.5,-633.5 "/>
<text text-anchor="middle" x="530.5" y="-621.5" font-family="Helvetica,sans-Serif" font-size="10.00"> </text>
<polyline fill="none" stroke="black" points="455.5,-614.5 605.5,-614.5 "/>
<text text-anchor="start" x="463.5" y="-602.5" font-family="Helvetica,sans-Serif" font-size="10.00">+ EventQueue(EventQueue</text>
<text text-anchor="start" x="463.5" y="-591.5" font-family="Helvetica,sans-Serif" font-size="10.00"> &amp;)=delete</text>
<text text-anchor="start" x="463.5" y="-580.5" font-family="Helvetica,sans-Serif" font-size="10.00">+ bool operator=(const</text>
<text text-anchor="start" x="463.5" y="-569.5" font-family="Helvetica,sans-Serif" font-size="10.00"> EventQueue &amp;)=delete</text>
<text text-anchor="start" x="463.5" y="-558.5" font-family="Helvetica,sans-Serif" font-size="10.00">+ void registerEvent</text>
<text text-anchor="start" x="463.5" y="-547.5" font-family="Helvetica,sans-Serif" font-size="10.00">(std::unique_ptr&lt; E</text>
<text text-anchor="start" x="463.5" y="-536.5" font-family="Helvetica,sans-Serif" font-size="10.00"> &gt; event)</text>
<text text-anchor="start" x="463.5" y="-525.5" font-family="Helvetica,sans-Serif" font-size="10.00">+ std::unique_ptr&lt; E</text>
<text text-anchor="start" x="463.5" y="-514.5" font-family="Helvetica,sans-Serif" font-size="10.00"> &gt; pop()</text>
<text text-anchor="start" x="463.5" y="-503.5" font-family="Helvetica,sans-Serif" font-size="10.00">+ bool isEmpty()</text>
<text text-anchor="start" x="463.5" y="-492.5" font-family="Helvetica,sans-Serif" font-size="10.00">+ unsigned int size()</text>
<text text-anchor="start" x="463.5" y="-481.5" font-family="Helvetica,sans-Serif" font-size="10.00">+ void clear()</text>
<text text-anchor="start" x="463.5" y="-470.5" font-family="Helvetica,sans-Serif" font-size="10.00">+ static EventQueue *</text>
<text text-anchor="start" x="463.5" y="-459.5" font-family="Helvetica,sans-Serif" font-size="10.00"> instance()</text>
<text text-anchor="start" x="463.5" y="-448.5" font-family="Helvetica,sans-Serif" font-size="10.00">&#45; EventQueue()=default</text>
</a>
</g>
</g>
<!-- Node7&#45;&gt;Node8 -->
<g id="edge9" class="edge">
<title>Node7&#45;&gt;Node8</title>
<path fill="none" stroke="#404040" d="M421.66,-705.73C429.98,-693.68 440.33,-678.68 451.31,-662.77"/>
<polygon fill="none" stroke="#404040" points="451.4,-662.64 451.51,-655.43 458.21,-652.76 458.1,-659.97 451.4,-662.64"/>
<text text-anchor="middle" x="462" y="-674" font-family="Helvetica,sans-Serif" font-size="10.00"> #self_</text>
</g>
<!-- Node8&#45;&gt;Node5 -->
<g id="edge7" class="edge">
<title>Node8&#45;&gt;Node5</title>
<path fill="none" stroke="orange" d="M473.83,-432.22C467.47,-419.46 461.02,-406.5 454.72,-393.86"/>
<polygon fill="orange" stroke="orange" points="470.85,-434.08 478.44,-441.47 477.11,-430.96 470.85,-434.08"/>
<text text-anchor="middle" x="493.5" y="-415" font-family="Helvetica,sans-Serif" font-size="10.00"> &lt; Event &gt;</text>
</g>
<!-- Node9 -->
<g id="node9" class="node">
<title>Node9</title>
<g id="a_node9"><a xlink:title=" ">
<polygon fill="none" stroke="black" points="495.5,-700.5 495.5,-768.5 607.5,-768.5 607.5,-700.5 495.5,-700.5"/>
<text text-anchor="start" x="503.5" y="-756.5" font-family="Helvetica,sans-Serif" font-size="10.00">queue&lt; std::unique</text>
<text text-anchor="middle" x="551.5" y="-745.5" font-family="Helvetica,sans-Serif" font-size="10.00">_ptr&lt; E &gt; &gt;</text>
<polyline fill="none" stroke="black" points="495.5,-738.5 607.5,-738.5 "/>
<text text-anchor="middle" x="551.5" y="-726.5" font-family="Helvetica,sans-Serif" font-size="10.00"> </text>
<polyline fill="none" stroke="black" points="495.5,-719.5 607.5,-719.5 "/>
<text text-anchor="middle" x="551.5" y="-707.5" font-family="Helvetica,sans-Serif" font-size="10.00"> </text>
</a>
</g>
</g>
<!-- Node9&#45;&gt;Node8 -->
<g id="edge8" class="edge">
<title>Node9&#45;&gt;Node8</title>
<path fill="none" stroke="#404040" d="M547.75,-700.34C546.56,-689.88 545.18,-677.68 543.72,-664.81"/>
<polygon fill="none" stroke="#404040" points="543.72,-664.77 539.07,-659.25 542.37,-652.84 547.02,-658.36 543.72,-664.77"/>
<text text-anchor="middle" x="570.5" y="-674" font-family="Helvetica,sans-Serif" font-size="10.00"> #events_</text>
</g>
</g>
</svg>
