<?xml version="1.0" encoding="UTF-8" standalone="no"?>
<!DOCTYPE svg PUBLIC "-//W3C//DTD SVG 1.1//EN"
 "http://www.w3.org/Graphics/SVG/1.1/DTD/svg11.dtd">
<!-- Generated by graphviz version 2.43.0 (0)
 -->
<!-- Title: ArmorTank Pages: 1 -->
<svg width="507pt" height="848pt"
 viewBox="0.00 0.00 507.00 848.00" xmlns="http://www.w3.org/2000/svg" xmlns:xlink="http://www.w3.org/1999/xlink">
<g id="graph0" class="graph" transform="scale(1 1) rotate(0) translate(4 844)">
<title>ArmorTank</title>
<!-- Node1 -->
<g id="node1" class="node">
<title>Node1</title>
<g id="a_node1"><a xlink:title=" ">
<polygon fill="#bfbfbf" stroke="black" points="132,-0.5 132,-90.5 259,-90.5 259,-0.5 132,-0.5"/>
<text text-anchor="middle" x="195.5" y="-78.5" font-family="Helvetica,sans-Serif" font-size="10.00">ArmorTank</text>
<polyline fill="none" stroke="black" points="132,-71.5 259,-71.5 "/>
<text text-anchor="middle" x="195.5" y="-59.5" font-family="Helvetica,sans-Serif" font-size="10.00"> </text>
<polyline fill="none" stroke="black" points="132,-52.5 259,-52.5 "/>
<text text-anchor="start" x="140" y="-40.5" font-family="Helvetica,sans-Serif" font-size="10.00">+ ArmorTank()=delete</text>
<text text-anchor="start" x="140" y="-29.5" font-family="Helvetica,sans-Serif" font-size="10.00">+ ArmorTank(float x,</text>
<text text-anchor="start" x="140" y="-18.5" font-family="Helvetica,sans-Serif" font-size="10.00"> float y, Direction</text>
<text text-anchor="start" x="140" y="-7.5" font-family="Helvetica,sans-Serif" font-size="10.00"> facing=North)</text>
</a>
</g>
</g>
<!-- Node2 -->
<g id="node2" class="node">
<title>Node2</title>
<g id="a_node2"><a xlink:href="class_tank.html" target="_top" xlink:title="Base class for tank representation.">
<polygon fill="none" stroke="black" points="15,-127.5 15,-536.5 184,-536.5 184,-127.5 15,-127.5"/>
<text text-anchor="middle" x="99.5" y="-524.5" font-family="Helvetica,sans-Serif" font-size="10.00">Tank</text>
<polyline fill="none" stroke="black" points="15,-517.5 184,-517.5 "/>
<text text-anchor="start" x="23" y="-505.5" font-family="Helvetica,sans-Serif" font-size="10.00"># TankType type_</text>
<text text-anchor="start" x="23" y="-494.5" font-family="Helvetica,sans-Serif" font-size="10.00"># unsigned int lives_</text>
<text text-anchor="start" x="23" y="-483.5" font-family="Helvetica,sans-Serif" font-size="10.00"># bool moving_</text>
<text text-anchor="start" x="23" y="-472.5" font-family="Helvetica,sans-Serif" font-size="10.00"># unsigned int points_</text>
<text text-anchor="start" x="23" y="-461.5" font-family="Helvetica,sans-Serif" font-size="10.00"># float bulletSpeed_</text>
<polyline fill="none" stroke="black" points="15,-454.5 184,-454.5 "/>
<text text-anchor="start" x="23" y="-442.5" font-family="Helvetica,sans-Serif" font-size="10.00">+ void setFacing(Direction</text>
<text text-anchor="start" x="23" y="-431.5" font-family="Helvetica,sans-Serif" font-size="10.00"> direction)</text>
<text text-anchor="start" x="23" y="-420.5" font-family="Helvetica,sans-Serif" font-size="10.00">+ bool move() override</text>
<text text-anchor="start" x="23" y="-409.5" font-family="Helvetica,sans-Serif" font-size="10.00">+ bool moveBack() override</text>
<text text-anchor="start" x="23" y="-398.5" font-family="Helvetica,sans-Serif" font-size="10.00">+ void deltaLives(int</text>
<text text-anchor="start" x="23" y="-387.5" font-family="Helvetica,sans-Serif" font-size="10.00"> delta_l)</text>
<text text-anchor="start" x="23" y="-376.5" font-family="Helvetica,sans-Serif" font-size="10.00">+ TankType getType()</text>
<text text-anchor="start" x="23" y="-365.5" font-family="Helvetica,sans-Serif" font-size="10.00"> const</text>
<text text-anchor="start" x="23" y="-354.5" font-family="Helvetica,sans-Serif" font-size="10.00">+ unsigned int getLives</text>
<text text-anchor="start" x="23" y="-343.5" font-family="Helvetica,sans-Serif" font-size="10.00">() const</text>
<text text-anchor="start" x="23" y="-332.5" font-family="Helvetica,sans-Serif" font-size="10.00">+ void setMoving(bool</text>
<text text-anchor="start" x="23" y="-321.5" font-family="Helvetica,sans-Serif" font-size="10.00"> isMoving)</text>
<text text-anchor="start" x="23" y="-310.5" font-family="Helvetica,sans-Serif" font-size="10.00">+ bool isMoving() const</text>
<text text-anchor="start" x="23" y="-299.5" font-family="Helvetica,sans-Serif" font-size="10.00">+ unsigned int getPoints</text>
<text text-anchor="start" x="23" y="-288.5" font-family="Helvetica,sans-Serif" font-size="10.00">() const</text>
<text text-anchor="start" x="23" y="-277.5" font-family="Helvetica,sans-Serif" font-size="10.00">+ void setX(float x)</text>
<text text-anchor="start" x="23" y="-266.5" font-family="Helvetica,sans-Serif" font-size="10.00">+ void setY(float y)</text>
<text text-anchor="start" x="23" y="-255.5" font-family="Helvetica,sans-Serif" font-size="10.00">+ void offsetInCurrentDirection</text>
<text text-anchor="start" x="23" y="-244.5" font-family="Helvetica,sans-Serif" font-size="10.00">(float offset)</text>
<text text-anchor="start" x="23" y="-233.5" font-family="Helvetica,sans-Serif" font-size="10.00">+ std::optional&lt; std</text>
<text text-anchor="start" x="23" y="-222.5" font-family="Helvetica,sans-Serif" font-size="10.00">::shared_ptr&lt; Bullet</text>
<text text-anchor="start" x="23" y="-211.5" font-family="Helvetica,sans-Serif" font-size="10.00"> &gt; &gt; createBullet()</text>
<text text-anchor="start" x="23" y="-200.5" font-family="Helvetica,sans-Serif" font-size="10.00">+ void notify(SimplePublisher</text>
<text text-anchor="start" x="23" y="-189.5" font-family="Helvetica,sans-Serif" font-size="10.00"> *pub) override</text>
<text text-anchor="start" x="23" y="-178.5" font-family="Helvetica,sans-Serif" font-size="10.00"># Tank(TankType type,</text>
<text text-anchor="start" x="23" y="-167.5" font-family="Helvetica,sans-Serif" font-size="10.00"> float x, float y, float</text>
<text text-anchor="start" x="23" y="-156.5" font-family="Helvetica,sans-Serif" font-size="10.00"> speed, float bulletSpeed,</text>
<text text-anchor="start" x="23" y="-145.5" font-family="Helvetica,sans-Serif" font-size="10.00"> unsigned int lives, Direction</text>
<text text-anchor="start" x="23" y="-134.5" font-family="Helvetica,sans-Serif" font-size="10.00"> direction, unsigned int points)</text>
</a>
</g>
</g>
<!-- Node2&#45;&gt;Node1 -->
<g id="edge1" class="edge">
<title>Node2&#45;&gt;Node1</title>
<path fill="none" stroke="midnightblue" d="M171.52,-117.55C174.74,-108.02 177.76,-99.06 180.51,-90.93"/>
<polygon fill="none" stroke="midnightblue" points="168.13,-116.67 168.25,-127.27 174.76,-118.91 168.13,-116.67"/>
</g>
<!-- Node3 -->
<g id="node3" class="node">
<title>Node3</title>
<g id="a_node3"><a xlink:href="class_entity.html" target="_top" xlink:title=" ">
<polygon fill="none" stroke="black" points="211.5,-573.5 211.5,-839.5 371.5,-839.5 371.5,-573.5 211.5,-573.5"/>
<text text-anchor="middle" x="291.5" y="-827.5" font-family="Helvetica,sans-Serif" font-size="10.00">Entity</text>
<polyline fill="none" stroke="black" points="211.5,-820.5 371.5,-820.5 "/>
<text text-anchor="start" x="219.5" y="-808.5" font-family="Helvetica,sans-Serif" font-size="10.00"># float x_</text>
<text text-anchor="start" x="219.5" y="-797.5" font-family="Helvetica,sans-Serif" font-size="10.00"># float y_</text>
<text text-anchor="start" x="219.5" y="-786.5" font-family="Helvetica,sans-Serif" font-size="10.00"># float size_x_</text>
<text text-anchor="start" x="219.5" y="-775.5" font-family="Helvetica,sans-Serif" font-size="10.00"># float size_y_</text>
<text text-anchor="start" x="219.5" y="-764.5" font-family="Helvetica,sans-Serif" font-size="10.00"># float speed_</text>
<text text-anchor="start" x="219.5" y="-753.5" font-family="Helvetica,sans-Serif" font-size="10.00"># Direction facing_</text>
<polyline fill="none" stroke="black" points="211.5,-746.5 371.5,-746.5 "/>
<text text-anchor="start" x="219.5" y="-734.5" font-family="Helvetica,sans-Serif" font-size="10.00">+ virtual ~Entity()=default</text>
<text text-anchor="start" x="219.5" y="-723.5" font-family="Helvetica,sans-Serif" font-size="10.00">+ virtual bool move()=0</text>
<text text-anchor="start" x="219.5" y="-712.5" font-family="Helvetica,sans-Serif" font-size="10.00">+ virtual bool moveBack()=0</text>
<text text-anchor="start" x="219.5" y="-701.5" font-family="Helvetica,sans-Serif" font-size="10.00">+ float getX() const</text>
<text text-anchor="start" x="219.5" y="-690.5" font-family="Helvetica,sans-Serif" font-size="10.00">+ float getY() const</text>
<text text-anchor="start" x="219.5" y="-679.5" font-family="Helvetica,sans-Serif" font-size="10.00">+ float getSpeed() const</text>
<text text-anchor="start" x="219.5" y="-668.5" font-family="Helvetica,sans-Serif" font-size="10.00">+ Direction getFacing</text>
<text text-anchor="start" x="219.5" y="-657.5" font-family="Helvetica,sans-Serif" font-size="10.00">() const</text>
<text text-anchor="start" x="219.5" y="-646.5" font-family="Helvetica,sans-Serif" font-size="10.00">+ float getSizeX() const</text>
<text text-anchor="start" x="219.5" y="-635.5" font-family="Helvetica,sans-Serif" font-size="10.00">+ float getSizeY() const</text>
<text text-anchor="start" x="219.5" y="-624.5" font-family="Helvetica,sans-Serif" font-size="10.00"># Entity()=default</text>
<text text-anchor="start" x="219.5" y="-613.5" font-family="Helvetica,sans-Serif" font-size="10.00"># Entity(float x, float</text>
<text text-anchor="start" x="219.5" y="-602.5" font-family="Helvetica,sans-Serif" font-size="10.00"> y, float sizeX, float</text>
<text text-anchor="start" x="219.5" y="-591.5" font-family="Helvetica,sans-Serif" font-size="10.00"> sizeY, float speed, Direction</text>
<text text-anchor="start" x="219.5" y="-580.5" font-family="Helvetica,sans-Serif" font-size="10.00"> facing)</text>
</a>
</g>
</g>
<!-- Node3&#45;&gt;Node2 -->
<g id="edge2" class="edge">
<title>Node3&#45;&gt;Node2</title>
<path fill="none" stroke="midnightblue" d="M208.13,-564.4C203.09,-555.18 198.17,-545.99 193.5,-537 190.35,-530.94 187.2,-524.76 184.05,-518.5"/>
<polygon fill="none" stroke="midnightblue" points="205.12,-566.18 213.01,-573.25 211.25,-562.8 205.12,-566.18"/>
</g>
<!-- Node5 -->
<g id="node5" class="node">
<title>Node5</title>
<g id="a_node5"><a xlink:href="class_bot.html" target="_top" xlink:title=" ">
<polygon fill="none" stroke="black" points="202,-243 202,-421 381,-421 381,-243 202,-243"/>
<text text-anchor="middle" x="291.5" y="-409" font-family="Helvetica,sans-Serif" font-size="10.00">Bot</text>
<polyline fill="none" stroke="black" points="202,-402 381,-402 "/>
<text text-anchor="start" x="210" y="-390" font-family="Helvetica,sans-Serif" font-size="10.00"># unsigned int maxDecision</text>
<text text-anchor="start" x="210" y="-379" font-family="Helvetica,sans-Serif" font-size="10.00">Cooldown</text>
<text text-anchor="start" x="210" y="-368" font-family="Helvetica,sans-Serif" font-size="10.00"># unsigned int decisionCooldown</text>
<text text-anchor="start" x="210" y="-357" font-family="Helvetica,sans-Serif" font-size="10.00"># BotController * botController</text>
<polyline fill="none" stroke="black" points="202,-350 381,-350 "/>
<text text-anchor="start" x="210" y="-338" font-family="Helvetica,sans-Serif" font-size="10.00">+ ~Bot() override</text>
<text text-anchor="start" x="210" y="-327" font-family="Helvetica,sans-Serif" font-size="10.00">+ void notify(SimplePublisher</text>
<text text-anchor="start" x="210" y="-316" font-family="Helvetica,sans-Serif" font-size="10.00"> *pub) override</text>
<text text-anchor="start" x="210" y="-305" font-family="Helvetica,sans-Serif" font-size="10.00">+ void requestDecision()</text>
<text text-anchor="start" x="210" y="-294" font-family="Helvetica,sans-Serif" font-size="10.00"># Bot()=default</text>
<text text-anchor="start" x="210" y="-283" font-family="Helvetica,sans-Serif" font-size="10.00"># Bot(float x, float</text>
<text text-anchor="start" x="210" y="-272" font-family="Helvetica,sans-Serif" font-size="10.00"> y, float sizeX, float</text>
<text text-anchor="start" x="210" y="-261" font-family="Helvetica,sans-Serif" font-size="10.00"> sizeY, float speed, Direction</text>
<text text-anchor="start" x="210" y="-250" font-family="Helvetica,sans-Serif" font-size="10.00"> facing)</text>
</a>
</g>
</g>
<!-- Node3&#45;&gt;Node5 -->
<g id="edge5" class="edge">
<title>Node3&#45;&gt;Node5</title>
<path fill="none" stroke="midnightblue" d="M291.5,-563.25C291.5,-515.43 291.5,-463.5 291.5,-421.09"/>
<polygon fill="none" stroke="midnightblue" points="288,-563.38 291.5,-573.38 295,-563.38 288,-563.38"/>
</g>
<!-- Node4 -->
<g id="node4" class="node">
<title>Node4</title>
<g id="a_node4"><a xlink:href="class_simple_subscriber.html" target="_top" xlink:title=" ">
<polygon fill="none" stroke="black" points="0,-617.5 0,-795.5 193,-795.5 193,-617.5 0,-617.5"/>
<text text-anchor="middle" x="96.5" y="-783.5" font-family="Helvetica,sans-Serif" font-size="10.00">SimpleSubscriber</text>
<polyline fill="none" stroke="black" points="0,-776.5 193,-776.5 "/>
<text text-anchor="start" x="8" y="-764.5" font-family="Helvetica,sans-Serif" font-size="10.00"># std::vector&lt; SimplePublisher</text>
<text text-anchor="start" x="8" y="-753.5" font-family="Helvetica,sans-Serif" font-size="10.00"> * &gt; subscribedSubjects_</text>
<polyline fill="none" stroke="black" points="0,-746.5 193,-746.5 "/>
<text text-anchor="start" x="8" y="-734.5" font-family="Helvetica,sans-Serif" font-size="10.00">+ ~SimpleSubscriber()</text>
<text text-anchor="start" x="8" y="-723.5" font-family="Helvetica,sans-Serif" font-size="10.00">+ void subscribe(SimplePublisher</text>
<text text-anchor="start" x="8" y="-712.5" font-family="Helvetica,sans-Serif" font-size="10.00"> *pub)</text>
<text text-anchor="start" x="8" y="-701.5" font-family="Helvetica,sans-Serif" font-size="10.00">+ void unsubscribe(SimplePublisher</text>
<text text-anchor="start" x="8" y="-690.5" font-family="Helvetica,sans-Serif" font-size="10.00"> *pub)</text>
<text text-anchor="start" x="8" y="-679.5" font-family="Helvetica,sans-Serif" font-size="10.00">+ void removeDeletedSubject</text>
<text text-anchor="start" x="8" y="-668.5" font-family="Helvetica,sans-Serif" font-size="10.00">(SimplePublisher *pub)</text>
<text text-anchor="start" x="8" y="-657.5" font-family="Helvetica,sans-Serif" font-size="10.00">+ virtual void notify</text>
<text text-anchor="start" x="8" y="-646.5" font-family="Helvetica,sans-Serif" font-size="10.00">(SimplePublisher *pub)=0</text>
<text text-anchor="start" x="8" y="-635.5" font-family="Helvetica,sans-Serif" font-size="10.00"># SimpleSubscriber()</text>
<text text-anchor="start" x="8" y="-624.5" font-family="Helvetica,sans-Serif" font-size="10.00">=default</text>
</a>
</g>
</g>
<!-- Node4&#45;&gt;Node2 -->
<g id="edge3" class="edge">
<title>Node4&#45;&gt;Node2</title>
<path fill="none" stroke="midnightblue" d="M97.29,-606.99C97.47,-585.11 97.66,-561.14 97.86,-536.76"/>
<polygon fill="none" stroke="midnightblue" points="93.79,-607.19 97.21,-617.22 100.79,-607.25 93.79,-607.19"/>
</g>
<!-- Node4&#45;&gt;Node5 -->
<g id="edge6" class="edge">
<title>Node4&#45;&gt;Node5</title>
<path fill="none" stroke="midnightblue" d="M153.2,-608.52C166.4,-585.25 180.19,-560.38 192.5,-537 212.27,-499.47 232.94,-457.39 250.24,-421.25"/>
<polygon fill="none" stroke="midnightblue" points="150.08,-606.92 148.18,-617.35 156.17,-610.39 150.08,-606.92"/>
</g>
<!-- Node5&#45;&gt;Node1 -->
<g id="edge4" class="edge">
<title>Node5&#45;&gt;Node1</title>
<path fill="none" stroke="midnightblue" d="M258.55,-233.36C242.22,-184.95 223.29,-128.86 210.47,-90.87"/>
<polygon fill="none" stroke="midnightblue" points="255.27,-234.57 261.78,-242.93 261.9,-232.34 255.27,-234.57"/>
</g>
<!-- Node6 -->
<g id="node6" class="node">
<title>Node6</title>
<g id="a_node6"><a xlink:title=" ">
<polygon fill="none" stroke="black" points="390,-672.5 390,-740.5 499,-740.5 499,-672.5 390,-672.5"/>
<text text-anchor="start" x="398" y="-728.5" font-family="Helvetica,sans-Serif" font-size="10.00">std::enable_shared</text>
<text text-anchor="middle" x="444.5" y="-717.5" font-family="Helvetica,sans-Serif" font-size="10.00">_from_this&lt; Bot &gt;</text>
<polyline fill="none" stroke="black" points="390,-710.5 499,-710.5 "/>
<text text-anchor="middle" x="444.5" y="-698.5" font-family="Helvetica,sans-Serif" font-size="10.00"> </text>
<polyline fill="none" stroke="black" points="390,-691.5 499,-691.5 "/>
<text text-anchor="middle" x="444.5" y="-679.5" font-family="Helvetica,sans-Serif" font-size="10.00"> </text>
</a>
</g>
</g>
<!-- Node6&#45;&gt;Node5 -->
<g id="edge7" class="edge">
<title>Node6&#45;&gt;Node5</title>
<path fill="none" stroke="midnightblue" d="M427.1,-663.13C403.06,-604.62 359.13,-497.65 327.78,-421.33"/>
<polygon fill="none" stroke="midnightblue" points="423.89,-664.52 430.92,-672.44 430.36,-661.86 423.89,-664.52"/>
</g>
</g>
</svg>
