<?xml version="1.0" encoding="UTF-8" standalone="no"?>
<!DOCTYPE svg PUBLIC "-//W3C//DTD SVG 1.1//EN"
 "http://www.w3.org/Graphics/SVG/1.1/DTD/svg11.dtd">
<!-- Generated by graphviz version 2.50.0 (0)
 -->
<!-- Title: StaticGraphic Pages: 1 -->
<!--zoomable 645 -->
<svg id="main" version="1.1" xmlns="http://www.w3.org/2000/svg" xmlns:xlink="http://www.w3.org/1999/xlink" xml:space="preserve" onload="init(evt)">
<style type="text/css"><![CDATA[
.edge:hover path { stroke: red; }
.edge:hover polygon { stroke: red; fill: red; }
]]></style>
<script type="text/javascript"><![CDATA[
var edges = document.getElementsByTagName('g');
if (edges && edges.length) {
  for (var i=0;i<edges.length;i++) {
    if (edges[i].id.substr(0,4)=='edge') {
      edges[i].setAttribute('class','edge');
    }
  }
}
]]></script>
        <defs>
                <circle id="rim" cx="0" cy="0" r="7"/>
                <circle id="rim2" cx="0" cy="0" r="3.5"/>
                <g id="zoomPlus">
                        <use xlink:href="#rim" fill="#404040">
                                <set attributeName="fill" to="#808080" begin="zoomplus.mouseover" end="zoomplus.mouseout"/>
                        </use>
                        <path d="M-4,0h8M0,-4v8" fill="none" stroke="white" stroke-width="1.5" pointer-events="none"/>
                </g>
                <g id="zoomMin">
                        <use xlink:href="#rim" fill="#404040">
                                <set attributeName="fill" to="#808080" begin="zoomminus.mouseover" end="zoomminus.mouseout"/>
                        </use>
                        <path d="M-4,0h8" fill="none" stroke="white" stroke-width="1.5" pointer-events="none"/>
                </g>
                <g id="dirArrow">
                        <path fill="none" stroke="white" stroke-width="1.5" d="M0,-3.0v7 M-2.5,-0.5L0,-3.0L2.5,-0.5"/>
                </g>
               <g id="resetDef">
                       <use xlink:href="#rim2" fill="#404040">
                               <set attributeName="fill" to="#808080" begin="reset.mouseover" end="reset.mouseout"/>
                       </use>
               </g>
        </defs>

<script type="text/javascript">
var viewWidth = 970;
var viewHeight = 645;
var sectionId = 'dynsection-1';
</script>
<script xlink:href="svgpan.js"/>
<svg id="graph" class="graph">
<g id="viewport">
<title>StaticGraphic</title>
<!-- Node1 -->
<g id="node1" class="node">
<title>Node1</title>
<g id="a_node1"><a xlink:title="Class responsible for static graphic settings.">
<polygon fill="#bfbfbf" stroke="black" points="403,-0.5 403,-178.5 589,-178.5 589,-0.5 403,-0.5"/>
<text text-anchor="middle" x="496" y="-166.5" font-family="Helvetica,sans-Serif" font-size="10.00">StaticGraphic</text>
<polyline fill="none" stroke="black" points="403,-159.5 589,-159.5 "/>
<text text-anchor="middle" x="496" y="-147.5" font-family="Helvetica,sans-Serif" font-size="10.00"> </text>
<polyline fill="none" stroke="black" points="403,-140.5 589,-140.5 "/>
<text text-anchor="start" x="411" y="-128.5" font-family="Helvetica,sans-Serif" font-size="10.00">+ StaticGraphic(const</text>
<text text-anchor="start" x="411" y="-117.5" font-family="Helvetica,sans-Serif" font-size="10.00"> WindowView &amp;windowView,</text>
<text text-anchor="start" x="411" y="-106.5" font-family="Helvetica,sans-Serif" font-size="10.00"> const Window::StaticStatePointers</text>
<text text-anchor="start" x="411" y="-95.5" font-family="Helvetica,sans-Serif" font-size="10.00"> &amp;staticPointers)</text>
<text text-anchor="start" x="411" y="-84.5" font-family="Helvetica,sans-Serif" font-size="10.00">+ void constructComposite()</text>
<text text-anchor="start" x="411" y="-73.5" font-family="Helvetica,sans-Serif" font-size="10.00">+ virtual void render</text>
<text text-anchor="start" x="411" y="-62.5" font-family="Helvetica,sans-Serif" font-size="10.00">() override</text>
<text text-anchor="start" x="411" y="-51.5" font-family="Helvetica,sans-Serif" font-size="10.00">+ const std::vector&lt;</text>
<text text-anchor="start" x="411" y="-40.5" font-family="Helvetica,sans-Serif" font-size="10.00"> std::shared_ptr&lt; Abstract</text>
<text text-anchor="start" x="411" y="-29.5" font-family="Helvetica,sans-Serif" font-size="10.00">Window &gt; &gt; &amp; getChildren()</text>
<text text-anchor="start" x="411" y="-18.5" font-family="Helvetica,sans-Serif" font-size="10.00"># void setMenuView()</text>
<text text-anchor="start" x="411" y="-7.5" font-family="Helvetica,sans-Serif" font-size="10.00"># void calculateButtonsPos()</text>
</a>
</g>
</g>
<!-- Node2 -->
<g id="node2" class="node">
<title>Node2</title>
<g id="a_node2"><a xlink:href="class_abstract_window.html" target="_top" xlink:title="Contains main SFML functions.">
<polygon fill="none" stroke="black" points="247,-226.5 247,-349.5 405,-349.5 405,-226.5 247,-226.5"/>
<text text-anchor="middle" x="326" y="-337.5" font-family="Helvetica,sans-Serif" font-size="10.00">AbstractWindow</text>
<polyline fill="none" stroke="black" points="247,-330.5 405,-330.5 "/>
<text text-anchor="middle" x="326" y="-318.5" font-family="Helvetica,sans-Serif" font-size="10.00"> </text>
<polyline fill="none" stroke="black" points="247,-311.5 405,-311.5 "/>
<text text-anchor="start" x="255" y="-299.5" font-family="Helvetica,sans-Serif" font-size="10.00">+ sf::RenderWindow *</text>
<text text-anchor="start" x="255" y="-288.5" font-family="Helvetica,sans-Serif" font-size="10.00"> getWindow()</text>
<text text-anchor="start" x="255" y="-277.5" font-family="Helvetica,sans-Serif" font-size="10.00">+ virtual void render()=0</text>
<text text-anchor="start" x="255" y="-266.5" font-family="Helvetica,sans-Serif" font-size="10.00">+ AbstractWindow()</text>
<text text-anchor="start" x="255" y="-255.5" font-family="Helvetica,sans-Serif" font-size="10.00">+ AbstractWindow(const</text>
<text text-anchor="start" x="255" y="-244.5" font-family="Helvetica,sans-Serif" font-size="10.00"> WindowView &amp;windowView)</text>
<text text-anchor="start" x="255" y="-233.5" font-family="Helvetica,sans-Serif" font-size="10.00">+ virtual ~AbstractWindow()</text>
</a>
</g>
</g>
<!-- Node2&#45;&gt;Node1 -->
<g id="edge1" class="edge">
<title>Node2&#45;&gt;Node1</title>
<path fill="none" stroke="midnightblue" d="M385.23,-218.53C396.37,-205.66 408.15,-192.04 419.72,-178.67"/>
<polygon fill="none" stroke="midnightblue" points="382.29,-216.59 378.39,-226.44 387.58,-221.17 382.29,-216.59"/>
</g>
<!-- Node3 -->
<g id="node3" class="node">
<title>Node3</title>
<g id="a_node3"><a xlink:title=" ">
<polygon fill="none" stroke="#bfbfbf" points="201.5,-447 201.5,-504 266.5,-504 266.5,-447 201.5,-447"/>
<text text-anchor="middle" x="234" y="-492" font-family="Helvetica,sans-Serif" font-size="10.00">const uint</text>
<polyline fill="none" stroke="#bfbfbf" points="201.5,-485 266.5,-485 "/>
<text text-anchor="middle" x="234" y="-473" font-family="Helvetica,sans-Serif" font-size="10.00"> </text>
<polyline fill="none" stroke="#bfbfbf" points="201.5,-466 266.5,-466 "/>
<text text-anchor="middle" x="234" y="-454" font-family="Helvetica,sans-Serif" font-size="10.00"> </text>
</a>
</g>
</g>
<!-- Node3&#45;&gt;Node2 -->
<g id="edge2" class="edge">
<title>Node3&#45;&gt;Node2</title>
<path fill="none" stroke="#404040" d="M228.97,-446.88C226.23,-424.53 225.43,-392.81 237,-368 238.32,-365.17 239.79,-362.41 241.39,-359.7"/>
<polygon fill="none" stroke="#404040" points="241.5,-359.54 241.52,-352.33 248.18,-349.58 248.16,-356.79 241.5,-359.54"/>
<text text-anchor="middle" x="287" y="-393" font-family="Helvetica,sans-Serif" font-size="10.00"> #WINDOW_HEIGHT</text>
<text text-anchor="middle" x="287" y="-382" font-family="Helvetica,sans-Serif" font-size="10.00">#WINDOW_WIDTH</text>
</g>
<!-- Node4 -->
<g id="node4" class="node">
<title>Node4</title>
<g id="a_node4"><a xlink:href="struct_window_view.html" target="_top" xlink:title="Struct that contains the sf::RenderWindow nad offset of elements to render.">
<polygon fill="none" stroke="black" points="1,-430.5 1,-520.5 183,-520.5 183,-430.5 1,-430.5"/>
<text text-anchor="middle" x="92" y="-508.5" font-family="Helvetica,sans-Serif" font-size="10.00">WindowView</text>
<polyline fill="none" stroke="black" points="1,-501.5 183,-501.5 "/>
<text text-anchor="middle" x="92" y="-489.5" font-family="Helvetica,sans-Serif" font-size="10.00"> </text>
<polyline fill="none" stroke="black" points="1,-482.5 183,-482.5 "/>
<text text-anchor="start" x="9" y="-470.5" font-family="Helvetica,sans-Serif" font-size="10.00">+ WindowView(sf::RenderWindow</text>
<text text-anchor="start" x="9" y="-459.5" font-family="Helvetica,sans-Serif" font-size="10.00"> *window, float topOffset,</text>
<text text-anchor="start" x="9" y="-448.5" font-family="Helvetica,sans-Serif" font-size="10.00"> float leftOffset)</text>
<text text-anchor="start" x="9" y="-437.5" font-family="Helvetica,sans-Serif" font-size="10.00">+ WindowView()</text>
</a>
</g>
</g>
<!-- Node4&#45;&gt;Node1 -->
<g id="edge8" class="edge">
<title>Node4&#45;&gt;Node1</title>
<path fill="none" stroke="#404040" d="M87.98,-430.5C85.48,-376.18 89.61,-283.91 138,-226 200.68,-150.98 309.54,-117.43 390.8,-102.47"/>
<polygon fill="none" stroke="#404040" points="391.02,-102.43 396.24,-97.45 402.84,-100.35 397.62,-105.33 391.02,-102.43"/>
<text text-anchor="middle" x="188" y="-291" font-family="Helvetica,sans-Serif" font-size="10.00"> #finishedStateView</text>
<text text-anchor="middle" x="188" y="-280" font-family="Helvetica,sans-Serif" font-size="10.00">#menuStatesView</text>
</g>
<!-- Node4&#45;&gt;Node2 -->
<g id="edge3" class="edge">
<title>Node4&#45;&gt;Node2</title>
<path fill="none" stroke="#404040" d="M107.95,-430.24C117.57,-408.94 131.74,-384.5 151,-368 168.62,-352.9 178.64,-359.07 200,-350 211.73,-345.02 223.95,-339.52 235.95,-333.92"/>
<polygon fill="none" stroke="#404040" points="236.04,-333.88 239.77,-327.7 246.9,-328.77 243.17,-334.94 236.04,-333.88"/>
<text text-anchor="middle" x="187.5" y="-387.5" font-family="Helvetica,sans-Serif" font-size="10.00"> #windowView</text>
</g>
<!-- Node5 -->
<g id="node5" class="node">
<title>Node5</title>
<g id="a_node5"><a xlink:title=" ">
<polygon fill="none" stroke="#bfbfbf" points="0,-579.5 0,-636.5 98,-636.5 98,-579.5 0,-579.5"/>
<text text-anchor="middle" x="49" y="-624.5" font-family="Helvetica,sans-Serif" font-size="10.00">RenderWindow *</text>
<polyline fill="none" stroke="#bfbfbf" points="0,-617.5 98,-617.5 "/>
<text text-anchor="middle" x="49" y="-605.5" font-family="Helvetica,sans-Serif" font-size="10.00"> </text>
<polyline fill="none" stroke="#bfbfbf" points="0,-598.5 98,-598.5 "/>
<text text-anchor="middle" x="49" y="-586.5" font-family="Helvetica,sans-Serif" font-size="10.00"> </text>
</a>
</g>
</g>
<!-- Node5&#45;&gt;Node4 -->
<g id="edge4" class="edge">
<title>Node5&#45;&gt;Node4</title>
<path fill="none" stroke="#404040" d="M53.8,-579.19C56.29,-566.74 59.71,-551.97 64,-539 64.74,-536.76 65.54,-534.48 66.37,-532.2"/>
<polygon fill="none" stroke="#404040" points="66.47,-531.96 64.92,-524.92 70.83,-520.79 72.38,-527.83 66.47,-531.96"/>
<text text-anchor="middle" x="88.5" y="-547.5" font-family="Helvetica,sans-Serif" font-size="10.00"> +window</text>
</g>
<!-- Node6 -->
<g id="node6" class="node">
<title>Node6</title>
<g id="a_node6"><a xlink:title=" ">
<polygon fill="none" stroke="#bfbfbf" points="116,-579.5 116,-636.5 154,-636.5 154,-579.5 116,-579.5"/>
<text text-anchor="middle" x="135" y="-624.5" font-family="Helvetica,sans-Serif" font-size="10.00">float</text>
<polyline fill="none" stroke="#bfbfbf" points="116,-617.5 154,-617.5 "/>
<text text-anchor="middle" x="135" y="-605.5" font-family="Helvetica,sans-Serif" font-size="10.00"> </text>
<polyline fill="none" stroke="#bfbfbf" points="116,-598.5 154,-598.5 "/>
<text text-anchor="middle" x="135" y="-586.5" font-family="Helvetica,sans-Serif" font-size="10.00"> </text>
</a>
</g>
</g>
<!-- Node6&#45;&gt;Node4 -->
<g id="edge5" class="edge">
<title>Node6&#45;&gt;Node4</title>
<path fill="none" stroke="#404040" d="M126.08,-579.19C122.11,-566.86 117.35,-552.2 113,-539 112.26,-536.76 111.5,-534.47 110.74,-532.16"/>
<polygon fill="none" stroke="#404040" points="110.65,-531.91 104.96,-527.48 106.86,-520.53 112.55,-524.96 110.65,-531.91"/>
<text text-anchor="middle" x="148.5" y="-553" font-family="Helvetica,sans-Serif" font-size="10.00"> +leftOffset</text>
<text text-anchor="middle" x="148.5" y="-542" font-family="Helvetica,sans-Serif" font-size="10.00">+topOffset</text>
</g>
<!-- Node7 -->
<g id="node7" class="node">
<title>Node7</title>
<g id="a_node7"><a xlink:title=" ">
<polygon fill="none" stroke="#bfbfbf" points="284.5,-441.5 284.5,-509.5 433.5,-509.5 433.5,-441.5 284.5,-441.5"/>
<text text-anchor="start" x="292.5" y="-497.5" font-family="Helvetica,sans-Serif" font-size="10.00">vector&lt; std::shared</text>
<text text-anchor="middle" x="359" y="-486.5" font-family="Helvetica,sans-Serif" font-size="10.00">_ptr&lt; AbstractWindow &gt; &gt;</text>
<polyline fill="none" stroke="#bfbfbf" points="284.5,-479.5 433.5,-479.5 "/>
<text text-anchor="middle" x="359" y="-467.5" font-family="Helvetica,sans-Serif" font-size="10.00"> </text>
<polyline fill="none" stroke="#bfbfbf" points="284.5,-460.5 433.5,-460.5 "/>
<text text-anchor="middle" x="359" y="-448.5" font-family="Helvetica,sans-Serif" font-size="10.00"> </text>
</a>
</g>
</g>
<!-- Node7&#45;&gt;Node2 -->
<g id="edge6" class="edge">
<title>Node7&#45;&gt;Node2</title>
<path fill="none" stroke="#404040" d="M353.1,-441.34C349.16,-419.19 343.82,-389.17 338.92,-361.64"/>
<polygon fill="none" stroke="#404040" points="338.89,-361.43 333.9,-356.23 336.78,-349.62 341.77,-354.83 338.89,-361.43"/>
<text text-anchor="middle" x="373.5" y="-387.5" font-family="Helvetica,sans-Serif" font-size="10.00"> #children</text>
</g>
<!-- Node8 -->
<g id="node8" class="node">
<title>Node8</title>
<g id="a_node8"><a xlink:title=" ">
<polygon fill="none" stroke="#bfbfbf" points="452,-441.5 452,-509.5 586,-509.5 586,-441.5 452,-441.5"/>
<text text-anchor="start" x="460" y="-497.5" font-family="Helvetica,sans-Serif" font-size="10.00">shared_ptr&lt; Window</text>
<text text-anchor="middle" x="519" y="-486.5" font-family="Helvetica,sans-Serif" font-size="10.00">::GameStateGraphic * &gt;</text>
<polyline fill="none" stroke="#bfbfbf" points="452,-479.5 586,-479.5 "/>
<text text-anchor="middle" x="519" y="-467.5" font-family="Helvetica,sans-Serif" font-size="10.00"> </text>
<polyline fill="none" stroke="#bfbfbf" points="452,-460.5 586,-460.5 "/>
<text text-anchor="middle" x="519" y="-448.5" font-family="Helvetica,sans-Serif" font-size="10.00"> </text>
</a>
</g>
</g>
<!-- Node8&#45;&gt;Node1 -->
<g id="edge7" class="edge">
<title>Node8&#45;&gt;Node1</title>
<path fill="none" stroke="#404040" d="M514.56,-441.27C511.38,-416.23 507.28,-381.02 505,-350 501.14,-297.47 498.93,-238.83 497.67,-190.6"/>
<polygon fill="none" stroke="#404040" points="497.67,-190.57 493.52,-184.67 497.36,-178.57 501.51,-184.47 497.67,-190.57"/>
<text text-anchor="middle" x="537.5" y="-285.5" font-family="Helvetica,sans-Serif" font-size="10.00"> #gameState</text>
</g>
<!-- Node11 -->
<g id="node11" class="node">
<title>Node11</title>
<g id="a_node11"><a xlink:href="struct_window_1_1_static_state_pointers.html" target="_top" xlink:title="Stores MenuState pointers.">
<polygon fill="none" stroke="black" points="579,-259.5 579,-316.5 733,-316.5 733,-259.5 579,-259.5"/>
<text text-anchor="middle" x="656" y="-304.5" font-family="Helvetica,sans-Serif" font-size="10.00">Window::StaticStatePointers</text>
<polyline fill="none" stroke="black" points="579,-297.5 733,-297.5 "/>
<text text-anchor="middle" x="656" y="-285.5" font-family="Helvetica,sans-Serif" font-size="10.00"> </text>
<polyline fill="none" stroke="black" points="579,-278.5 733,-278.5 "/>
<text text-anchor="middle" x="656" y="-266.5" font-family="Helvetica,sans-Serif" font-size="10.00"> </text>
</a>
</g>
</g>
<!-- Node8&#45;&gt;Node11 -->
<g id="edge14" class="edge">
<title>Node8&#45;&gt;Node11</title>
<path fill="none" stroke="#404040" d="M538.31,-441.5C551.3,-420.02 569.24,-391.7 587,-368 597.72,-353.69 610.37,-338.74 621.88,-325.74"/>
<polygon fill="none" stroke="#404040" points="622.02,-325.6 623.04,-318.46 630.03,-316.66 629,-323.8 622.02,-325.6"/>
<text text-anchor="middle" x="619.5" y="-387.5" font-family="Helvetica,sans-Serif" font-size="10.00"> +gameState</text>
</g>
<!-- Node9 -->
<g id="node9" class="node">
<title>Node9</title>
<g id="a_node9"><a xlink:href="struct_static_graphic_1_1_buttons_position_menu.html" target="_top" xlink:title="Struct containing children&#39;s buttons setup.">
<polygon fill="none" stroke="black" points="770.5,-259.5 770.5,-316.5 961.5,-316.5 961.5,-259.5 770.5,-259.5"/>
<text text-anchor="middle" x="866" y="-304.5" font-family="Helvetica,sans-Serif" font-size="10.00">StaticGraphic::ButtonsPositionMenu</text>
<polyline fill="none" stroke="black" points="770.5,-297.5 961.5,-297.5 "/>
<text text-anchor="middle" x="866" y="-285.5" font-family="Helvetica,sans-Serif" font-size="10.00"> </text>
<polyline fill="none" stroke="black" points="770.5,-278.5 961.5,-278.5 "/>
<text text-anchor="middle" x="866" y="-266.5" font-family="Helvetica,sans-Serif" font-size="10.00"> </text>
</a>
</g>
</g>
<!-- Node9&#45;&gt;Node1 -->
<g id="edge9" class="edge">
<title>Node9&#45;&gt;Node1</title>
<path fill="none" stroke="#404040" d="M814.16,-259.47C758.83,-230.08 669.69,-182.74 599.81,-145.63"/>
<polygon fill="none" stroke="#404040" points="599.81,-145.63 592.64,-146.35 589.21,-140 596.39,-139.29 599.81,-145.63"/>
<text text-anchor="middle" x="759" y="-200" font-family="Helvetica,sans-Serif" font-size="10.00"> #buttonsPosition</text>
</g>
<!-- Node10 -->
<g id="node10" class="node">
<title>Node10</title>
<g id="a_node10"><a xlink:title=" ">
<polygon fill="none" stroke="#bfbfbf" points="856.5,-447 856.5,-504 913.5,-504 913.5,-447 856.5,-447"/>
<text text-anchor="middle" x="885" y="-492" font-family="Helvetica,sans-Serif" font-size="10.00">Vector2f</text>
<polyline fill="none" stroke="#bfbfbf" points="856.5,-485 913.5,-485 "/>
<text text-anchor="middle" x="885" y="-473" font-family="Helvetica,sans-Serif" font-size="10.00"> </text>
<polyline fill="none" stroke="#bfbfbf" points="856.5,-466 913.5,-466 "/>
<text text-anchor="middle" x="885" y="-454" font-family="Helvetica,sans-Serif" font-size="10.00"> </text>
</a>
</g>
</g>
<!-- Node10&#45;&gt;Node9 -->
<g id="edge10" class="edge">
<title>Node10&#45;&gt;Node9</title>
<path fill="none" stroke="#404040" d="M882.16,-446.73C878.96,-415.49 873.73,-364.5 870.09,-328.98"/>
<polygon fill="none" stroke="#404040" points="870.06,-328.6 865.47,-323.03 868.83,-316.66 873.42,-322.22 870.06,-328.6"/>
<text text-anchor="middle" x="912.5" y="-404" font-family="Helvetica,sans-Serif" font-size="10.00"> +button1Pos</text>
<text text-anchor="middle" x="912.5" y="-393" font-family="Helvetica,sans-Serif" font-size="10.00">+button1Size</text>
<text text-anchor="middle" x="912.5" y="-382" font-family="Helvetica,sans-Serif" font-size="10.00">+button2Pos</text>
<text text-anchor="middle" x="912.5" y="-371" font-family="Helvetica,sans-Serif" font-size="10.00">+button2Size</text>
</g>
<!-- Node11&#45;&gt;Node1 -->
<g id="edge11" class="edge">
<title>Node11&#45;&gt;Node1</title>
<path fill="none" stroke="#404040" d="M633.42,-259.26C618.07,-240.42 596.77,-214.26 575.52,-188.16"/>
<polygon fill="none" stroke="#404040" points="575.28,-187.86 568.39,-185.74 567.7,-178.56 574.59,-180.68 575.28,-187.86"/>
<text text-anchor="middle" x="630.5" y="-200" font-family="Helvetica,sans-Serif" font-size="10.00"> #staticPointers</text>
</g>
<!-- Node12 -->
<g id="node12" class="node">
<title>Node12</title>
<g id="a_node12"><a xlink:title=" ">
<polygon fill="none" stroke="#bfbfbf" points="604,-447 604,-504 708,-504 708,-447 604,-447"/>
<text text-anchor="middle" x="656" y="-492" font-family="Helvetica,sans-Serif" font-size="10.00">shared_ptr&lt; int &gt;</text>
<polyline fill="none" stroke="#bfbfbf" points="604,-485 708,-485 "/>
<text text-anchor="middle" x="656" y="-473" font-family="Helvetica,sans-Serif" font-size="10.00"> </text>
<polyline fill="none" stroke="#bfbfbf" points="604,-466 708,-466 "/>
<text text-anchor="middle" x="656" y="-454" font-family="Helvetica,sans-Serif" font-size="10.00"> </text>
</a>
</g>
</g>
<!-- Node12&#45;&gt;Node11 -->
<g id="edge12" class="edge">
<title>Node12&#45;&gt;Node11</title>
<path fill="none" stroke="#404040" d="M656,-446.73C656,-415.49 656,-364.5 656,-328.98"/>
<polygon fill="none" stroke="#404040" points="656,-328.66 652,-322.66 656,-316.66 660,-322.66 656,-328.66"/>
<text text-anchor="middle" x="684.5" y="-393" font-family="Helvetica,sans-Serif" font-size="10.00"> +menuPos</text>
<text text-anchor="middle" x="684.5" y="-382" font-family="Helvetica,sans-Serif" font-size="10.00">+points</text>
</g>
<!-- Node13 -->
<g id="node13" class="node">
<title>Node13</title>
<g id="a_node13"><a xlink:title=" ">
<polygon fill="none" stroke="#bfbfbf" points="726,-447 726,-504 838,-504 838,-447 726,-447"/>
<text text-anchor="middle" x="782" y="-492" font-family="Helvetica,sans-Serif" font-size="10.00">shared_ptr&lt; bool &gt;</text>
<polyline fill="none" stroke="#bfbfbf" points="726,-485 838,-485 "/>
<text text-anchor="middle" x="782" y="-473" font-family="Helvetica,sans-Serif" font-size="10.00"> </text>
<polyline fill="none" stroke="#bfbfbf" points="726,-466 838,-466 "/>
<text text-anchor="middle" x="782" y="-454" font-family="Helvetica,sans-Serif" font-size="10.00"> </text>
</a>
</g>
</g>
<!-- Node13&#45;&gt;Node11 -->
<g id="edge13" class="edge">
<title>Node13&#45;&gt;Node11</title>
<path fill="none" stroke="#404040" d="M766.24,-446.84C753.55,-425.03 734.93,-394.05 717,-368 707.37,-354.01 696.17,-339.15 686.02,-326.14"/>
<polygon fill="none" stroke="#404040" points="685.93,-326.02 679.07,-323.78 678.5,-316.6 685.36,-318.83 685.93,-326.02"/>
<text text-anchor="middle" x="775.5" y="-387.5" font-family="Helvetica,sans-Serif" font-size="10.00"> +gameWon</text>
</g>
</g>
</svg>
        <g id="navigator" transform="translate(0 0)" fill="#404254">
                <rect fill="#f2f5e9" fill-opacity="0.5" stroke="#606060" stroke-width=".5" x="0" y="0" width="60" height="60"/>
                <use id="zoomplus" xlink:href="#zoomPlus" x="17" y="9" onmousedown="handleZoom(evt,'in')"/>
                <use id="zoomminus" xlink:href="#zoomMin" x="42" y="9" onmousedown="handleZoom(evt,'out')"/>
                <use id="reset" xlink:href="#resetDef" x="30" y="36" onmousedown="handleReset()"/>
                <g id="arrowUp" xlink:href="#dirArrow" transform="translate(30 24)" onmousedown="handlePan(0,-1)">
                  <use xlink:href="#rim" fill="#404040">
                        <set attributeName="fill" to="#808080" begin="arrowUp.mouseover" end="arrowUp.mouseout"/>
                  </use>
                  <path fill="none" stroke="white" stroke-width="1.5" d="M0,-3.0v7 M-2.5,-0.5L0,-3.0L2.5,-0.5"/>
                </g>
                <g id="arrowRight" xlink:href="#dirArrow" transform="rotate(90) translate(36 -43)" onmousedown="handlePan(1,0)">
                  <use xlink:href="#rim" fill="#404040">
                        <set attributeName="fill" to="#808080" begin="arrowRight.mouseover" end="arrowRight.mouseout"/>
                  </use>
                  <path fill="none" stroke="white" stroke-width="1.5" d="M0,-3.0v7 M-2.5,-0.5L0,-3.0L2.5,-0.5"/>
                </g>
                <g id="arrowDown" xlink:href="#dirArrow" transform="rotate(180) translate(-30 -48)" onmousedown="handlePan(0,1)">
                  <use xlink:href="#rim" fill="#404040">
                        <set attributeName="fill" to="#808080" begin="arrowDown.mouseover" end="arrowDown.mouseout"/>
                  </use>
                  <path fill="none" stroke="white" stroke-width="1.5" d="M0,-3.0v7 M-2.5,-0.5L0,-3.0L2.5,-0.5"/>
                </g>
                <g id="arrowLeft" xlink:href="#dirArrow" transform="rotate(270) translate(-36 17)" onmousedown="handlePan(-1,0)">
                  <use xlink:href="#rim" fill="#404040">
                        <set attributeName="fill" to="#808080" begin="arrowLeft.mouseover" end="arrowLeft.mouseout"/>
                  </use>
                  <path fill="none" stroke="white" stroke-width="1.5" d="M0,-3.0v7 M-2.5,-0.5L0,-3.0L2.5,-0.5"/>
                </g>
        </g>
        <svg viewBox="0 0 15 15" width="100%" height="30px" preserveAspectRatio="xMaxYMin meet">
         <g id="arrow_out" transform="scale(0.3 0.3)">
          <a xlink:href="class_static_graphic__coll__graph_org.svg" target="_base">
           <rect id="button" ry="5" rx="5" y="6" x="6" height="38" width="38"
                fill="#f2f5e9" fill-opacity="0.5" stroke="#606060" stroke-width="1.0"/>
           <path id="arrow"
             d="M 11.500037,31.436501 C 11.940474,20.09759 22.043105,11.32322 32.158766,21.979434 L 37.068811,17.246167 C 37.068811,17.246167 37.088388,32 37.088388,32 L 22.160133,31.978069 C 22.160133,31.978069 26.997745,27.140456 26.997745,27.140456 C 18.528582,18.264221 13.291696,25.230495 11.500037,31.436501 z"
             style="fill:#404040;"/>
          </a>
         </g>
        </svg>
</svg>
