<?xml version="1.0" encoding="UTF-8" standalone="no"?>
<!DOCTYPE svg PUBLIC "-//W3C//DTD SVG 1.1//EN"
 "http://www.w3.org/Graphics/SVG/1.1/DTD/svg11.dtd">
<!-- Generated by graphviz version 2.43.0 (0)
 -->
<!-- Title: InvalidLevelFile Pages: 1 -->
<svg width="196pt" height="182pt"
 viewBox="0.00 0.00 196.00 182.00" xmlns="http://www.w3.org/2000/svg" xmlns:xlink="http://www.w3.org/1999/xlink">
<g id="graph0" class="graph" transform="scale(1 1) rotate(0) translate(4 178)">
<title>InvalidLevelFile</title>
<!-- Node1 -->
<g id="node1" class="node">
<title>Node1</title>
<g id="a_node1"><a xlink:title=" ">
<polygon fill="#bfbfbf" stroke="black" points="15.5,-0.5 15.5,-68.5 152.5,-68.5 152.5,-0.5 15.5,-0.5"/>
<text text-anchor="middle" x="84" y="-56.5" font-family="Helvetica,sans-Serif" font-size="10.00">InvalidLevelFile</text>
<polyline fill="none" stroke="black" points="15.5,-49.5 152.5,-49.5 "/>
<text text-anchor="middle" x="84" y="-37.5" font-family="Helvetica,sans-Serif" font-size="10.00"> </text>
<polyline fill="none" stroke="black" points="15.5,-30.5 152.5,-30.5 "/>
<text text-anchor="start" x="23.5" y="-18.5" font-family="Helvetica,sans-Serif" font-size="10.00">+ const char * what()</text>
<text text-anchor="start" x="23.5" y="-7.5" font-family="Helvetica,sans-Serif" font-size="10.00"> const noexcept override</text>
</a>
</g>
</g>
<!-- Node2 -->
<g id="node2" class="node">
<title>Node2</title>
<g id="a_node2"><a xlink:title=" ">
<polygon fill="none" stroke="black" points="0,-116.5 0,-173.5 86,-173.5 86,-116.5 0,-116.5"/>
<text text-anchor="middle" x="43" y="-161.5" font-family="Helvetica,sans-Serif" font-size="10.00">std::exception</text>
<polyline fill="none" stroke="black" points="0,-154.5 86,-154.5 "/>
<text text-anchor="middle" x="43" y="-142.5" font-family="Helvetica,sans-Serif" font-size="10.00"> </text>
<polyline fill="none" stroke="black" points="0,-135.5 86,-135.5 "/>
<text text-anchor="middle" x="43" y="-123.5" font-family="Helvetica,sans-Serif" font-size="10.00"> </text>
</a>
</g>
</g>
<!-- Node2&#45;&gt;Node1 -->
<g id="edge1" class="edge">
<title>Node2&#45;&gt;Node1</title>
<path fill="none" stroke="midnightblue" d="M57.09,-106.73C61.78,-94.31 66.96,-80.58 71.52,-68.52"/>
<polygon fill="none" stroke="midnightblue" points="53.71,-105.75 53.45,-116.34 60.26,-108.22 53.71,-105.75"/>
</g>
<!-- Node3 -->
<g id="node3" class="node">
<title>Node3</title>
<g id="a_node3"><a xlink:title=" ">
<polygon fill="none" stroke="black" points="104,-116.5 104,-173.5 148,-173.5 148,-116.5 104,-116.5"/>
<text text-anchor="middle" x="126" y="-161.5" font-family="Helvetica,sans-Serif" font-size="10.00">string</text>
<polyline fill="none" stroke="black" points="104,-154.5 148,-154.5 "/>
<text text-anchor="middle" x="126" y="-142.5" font-family="Helvetica,sans-Serif" font-size="10.00"> </text>
<polyline fill="none" stroke="black" points="104,-135.5 148,-135.5 "/>
<text text-anchor="middle" x="126" y="-123.5" font-family="Helvetica,sans-Serif" font-size="10.00"> </text>
</a>
</g>
</g>
<!-- Node3&#45;&gt;Node1 -->
<g id="edge2" class="edge">
<title>Node3&#45;&gt;Node1</title>
<path fill="none" stroke="#404040" d="M115.29,-116.34C111.02,-105.3 105.99,-92.31 101.23,-80.01"/>
<polygon fill="none" stroke="#404040" points="101.11,-79.71 95.22,-75.56 96.78,-68.52 102.68,-72.67 101.11,-79.71"/>
<text text-anchor="middle" x="147.5" y="-90" font-family="Helvetica,sans-Serif" font-size="10.00"> &#45;what_message</text>
</g>
</g>
</svg>
