<?xml version="1.0" encoding="UTF-8" standalone="no"?>
<!DOCTYPE svg PUBLIC "-//W3C//DTD SVG 1.1//EN"
 "http://www.w3.org/Graphics/SVG/1.1/DTD/svg11.dtd">
<!-- Generated by graphviz version 2.43.0 (0)
 -->
<!-- Title: Bot Pages: 1 -->
<!--zoomable 1300 -->
<svg id="main" version="1.1" xmlns="http://www.w3.org/2000/svg" xmlns:xlink="http://www.w3.org/1999/xlink" xml:space="preserve" onload="init(evt)">
<style type="text/css"><![CDATA[
.edge:hover path { stroke: red; }
.edge:hover polygon { stroke: red; fill: red; }
]]></style>
<script type="text/javascript"><![CDATA[
var edges = document.getElementsByTagName('g');
if (edges && edges.length) {
  for (var i=0;i<edges.length;i++) {
    if (edges[i].id.substr(0,4)=='edge') {
      edges[i].setAttribute('class','edge');
    }
  }
}
]]></script>
        <defs>
                <circle id="rim" cx="0" cy="0" r="7"/>
                <circle id="rim2" cx="0" cy="0" r="3.5"/>
                <g id="zoomPlus">
                        <use xlink:href="#rim" fill="#404040">
                                <set attributeName="fill" to="#808080" begin="zoomplus.mouseover" end="zoomplus.mouseout"/>
                        </use>
                        <path d="M-4,0h8M0,-4v8" fill="none" stroke="white" stroke-width="1.5" pointer-events="none"/>
                </g>
                <g id="zoomMin">
                        <use xlink:href="#rim" fill="#404040">
                                <set attributeName="fill" to="#808080" begin="zoomminus.mouseover" end="zoomminus.mouseout"/>
                        </use>
                        <path d="M-4,0h8" fill="none" stroke="white" stroke-width="1.5" pointer-events="none"/>
                </g>
                <g id="dirArrow">
                        <path fill="none" stroke="white" stroke-width="1.5" d="M0,-3.0v7 M-2.5,-0.5L0,-3.0L2.5,-0.5"/>
                </g>
               <g id="resetDef">
                       <use xlink:href="#rim2" fill="#404040">
                               <set attributeName="fill" to="#808080" begin="reset.mouseover" end="reset.mouseout"/>
                       </use>
               </g>
        </defs>

<script type="text/javascript">
var viewWidth = 1194;
var viewHeight = 1300;
var sectionId = 'dynsection-1';
</script>
<script xlink:href="svgpan.js"/>
<svg id="graph" class="graph">
<g id="viewport">
<title>Bot</title>
<!-- Node1 -->
<g id="node1" class="node">
<title>Node1</title>
<g id="a_node1"><a xlink:title=" ">
<polygon fill="#bfbfbf" stroke="black" points="497,-0.5 497,-145.5 659,-145.5 659,-0.5 497,-0.5"/>
<text text-anchor="middle" x="578" y="-133.5" font-family="Helvetica,sans-Serif" font-size="10.00">Bot</text>
<polyline fill="none" stroke="black" points="497,-126.5 659,-126.5 "/>
<text text-anchor="middle" x="578" y="-114.5" font-family="Helvetica,sans-Serif" font-size="10.00"> </text>
<polyline fill="none" stroke="black" points="497,-107.5 659,-107.5 "/>
<text text-anchor="start" x="505" y="-95.5" font-family="Helvetica,sans-Serif" font-size="10.00">+ ~Bot() override</text>
<text text-anchor="start" x="505" y="-84.5" font-family="Helvetica,sans-Serif" font-size="10.00">+ void notify(SimplePublisher</text>
<text text-anchor="start" x="505" y="-73.5" font-family="Helvetica,sans-Serif" font-size="10.00"> *pub) override</text>
<text text-anchor="start" x="505" y="-62.5" font-family="Helvetica,sans-Serif" font-size="10.00">+ void requestDecision()</text>
<text text-anchor="start" x="505" y="-51.5" font-family="Helvetica,sans-Serif" font-size="10.00"># Bot()=default</text>
<text text-anchor="start" x="505" y="-40.5" font-family="Helvetica,sans-Serif" font-size="10.00"># Bot(float x, float</text>
<text text-anchor="start" x="505" y="-29.5" font-family="Helvetica,sans-Serif" font-size="10.00"> y, float sizeX, float</text>
<text text-anchor="start" x="505" y="-18.5" font-family="Helvetica,sans-Serif" font-size="10.00"> sizeY, float speed, Direction</text>
<text text-anchor="start" x="505" y="-7.5" font-family="Helvetica,sans-Serif" font-size="10.00"> facing)</text>
</a>
</g>
</g>
<!-- Node2 -->
<g id="node2" class="node">
<title>Node2</title>
<g id="a_node2"><a xlink:href="class_entity.html" target="_top" xlink:title=" ">
<polygon fill="none" stroke="black" points="0,-292.5 0,-503.5 160,-503.5 160,-292.5 0,-292.5"/>
<text text-anchor="middle" x="80" y="-491.5" font-family="Helvetica,sans-Serif" font-size="10.00">Entity</text>
<polyline fill="none" stroke="black" points="0,-484.5 160,-484.5 "/>
<text text-anchor="middle" x="80" y="-472.5" font-family="Helvetica,sans-Serif" font-size="10.00"> </text>
<polyline fill="none" stroke="black" points="0,-465.5 160,-465.5 "/>
<text text-anchor="start" x="8" y="-453.5" font-family="Helvetica,sans-Serif" font-size="10.00">+ virtual ~Entity()=default</text>
<text text-anchor="start" x="8" y="-442.5" font-family="Helvetica,sans-Serif" font-size="10.00">+ virtual bool move()=0</text>
<text text-anchor="start" x="8" y="-431.5" font-family="Helvetica,sans-Serif" font-size="10.00">+ virtual bool moveBack()=0</text>
<text text-anchor="start" x="8" y="-420.5" font-family="Helvetica,sans-Serif" font-size="10.00">+ float getX() const</text>
<text text-anchor="start" x="8" y="-409.5" font-family="Helvetica,sans-Serif" font-size="10.00">+ float getY() const</text>
<text text-anchor="start" x="8" y="-398.5" font-family="Helvetica,sans-Serif" font-size="10.00">+ float getSpeed() const</text>
<text text-anchor="start" x="8" y="-387.5" font-family="Helvetica,sans-Serif" font-size="10.00">+ Direction getFacing</text>
<text text-anchor="start" x="8" y="-376.5" font-family="Helvetica,sans-Serif" font-size="10.00">() const</text>
<text text-anchor="start" x="8" y="-365.5" font-family="Helvetica,sans-Serif" font-size="10.00">+ float getSizeX() const</text>
<text text-anchor="start" x="8" y="-354.5" font-family="Helvetica,sans-Serif" font-size="10.00">+ float getSizeY() const</text>
<text text-anchor="start" x="8" y="-343.5" font-family="Helvetica,sans-Serif" font-size="10.00"># Entity()=default</text>
<text text-anchor="start" x="8" y="-332.5" font-family="Helvetica,sans-Serif" font-size="10.00"># Entity(float x, float</text>
<text text-anchor="start" x="8" y="-321.5" font-family="Helvetica,sans-Serif" font-size="10.00"> y, float sizeX, float</text>
<text text-anchor="start" x="8" y="-310.5" font-family="Helvetica,sans-Serif" font-size="10.00"> sizeY, float speed, Direction</text>
<text text-anchor="start" x="8" y="-299.5" font-family="Helvetica,sans-Serif" font-size="10.00"> facing)</text>
</a>
</g>
</g>
<!-- Node2&#45;&gt;Node1 -->
<g id="edge1" class="edge">
<title>Node2&#45;&gt;Node1</title>
<path fill="none" stroke="midnightblue" d="M106.47,-282.58C121.83,-239.68 145.61,-194.08 182,-164 229.27,-124.92 395.23,-97.39 496.69,-83.76"/>
<polygon fill="none" stroke="midnightblue" points="103.08,-281.67 103.12,-292.26 109.7,-283.95 103.08,-281.67"/>
</g>
<!-- Node3 -->
<g id="node3" class="node">
<title>Node3</title>
<g id="a_node3"><a xlink:title=" ">
<polygon fill="none" stroke="black" points="5,-782.5 5,-839.5 43,-839.5 43,-782.5 5,-782.5"/>
<text text-anchor="middle" x="24" y="-827.5" font-family="Helvetica,sans-Serif" font-size="10.00">float</text>
<polyline fill="none" stroke="black" points="5,-820.5 43,-820.5 "/>
<text text-anchor="middle" x="24" y="-808.5" font-family="Helvetica,sans-Serif" font-size="10.00"> </text>
<polyline fill="none" stroke="black" points="5,-801.5 43,-801.5 "/>
<text text-anchor="middle" x="24" y="-789.5" font-family="Helvetica,sans-Serif" font-size="10.00"> </text>
</a>
</g>
</g>
<!-- Node3&#45;&gt;Node2 -->
<g id="edge2" class="edge">
<title>Node3&#45;&gt;Node2</title>
<path fill="none" stroke="#404040" d="M24.84,-782.35C26.2,-745.44 29.54,-678.07 37,-621 41.51,-586.53 48.04,-549.34 54.66,-515.44"/>
<polygon fill="none" stroke="#404040" points="54.68,-515.37 51.92,-508.7 57,-503.59 59.76,-510.26 54.68,-515.37"/>
<text text-anchor="middle" x="61" y="-673.5" font-family="Helvetica,sans-Serif" font-size="10.00"> #size_x_</text>
<text text-anchor="middle" x="61" y="-662.5" font-family="Helvetica,sans-Serif" font-size="10.00">#size_y_</text>
<text text-anchor="middle" x="61" y="-651.5" font-family="Helvetica,sans-Serif" font-size="10.00">#speed_</text>
<text text-anchor="middle" x="61" y="-640.5" font-family="Helvetica,sans-Serif" font-size="10.00">#x_</text>
<text text-anchor="middle" x="61" y="-629.5" font-family="Helvetica,sans-Serif" font-size="10.00">#y_</text>
</g>
<!-- Node4 -->
<g id="node4" class="node">
<title>Node4</title>
<g id="a_node4"><a xlink:title=" ">
<polygon fill="none" stroke="black" points="64.5,-782.5 64.5,-839.5 125.5,-839.5 125.5,-782.5 64.5,-782.5"/>
<text text-anchor="middle" x="95" y="-827.5" font-family="Helvetica,sans-Serif" font-size="10.00">Direction</text>
<polyline fill="none" stroke="black" points="64.5,-820.5 125.5,-820.5 "/>
<text text-anchor="middle" x="95" y="-808.5" font-family="Helvetica,sans-Serif" font-size="10.00"> </text>
<polyline fill="none" stroke="black" points="64.5,-801.5 125.5,-801.5 "/>
<text text-anchor="middle" x="95" y="-789.5" font-family="Helvetica,sans-Serif" font-size="10.00"> </text>
</a>
</g>
</g>
<!-- Node4&#45;&gt;Node2 -->
<g id="edge3" class="edge">
<title>Node4&#45;&gt;Node2</title>
<path fill="none" stroke="#404040" d="M93.99,-782.39C92.03,-728.74 87.61,-607.59 84.26,-515.73"/>
<polygon fill="none" stroke="#404040" points="84.25,-515.53 80.04,-509.68 83.82,-503.54 88.03,-509.39 84.25,-515.53"/>
<text text-anchor="middle" x="114.5" y="-651.5" font-family="Helvetica,sans-Serif" font-size="10.00"> #facing_</text>
</g>
<!-- Node5 -->
<g id="node5" class="node">
<title>Node5</title>
<g id="a_node5"><a xlink:href="class_simple_subscriber.html" target="_top" xlink:title=" ">
<polygon fill="none" stroke="black" points="957.5,-727.5 957.5,-894.5 1150.5,-894.5 1150.5,-727.5 957.5,-727.5"/>
<text text-anchor="middle" x="1054" y="-882.5" font-family="Helvetica,sans-Serif" font-size="10.00">SimpleSubscriber</text>
<polyline fill="none" stroke="black" points="957.5,-875.5 1150.5,-875.5 "/>
<text text-anchor="middle" x="1054" y="-863.5" font-family="Helvetica,sans-Serif" font-size="10.00"> </text>
<polyline fill="none" stroke="black" points="957.5,-856.5 1150.5,-856.5 "/>
<text text-anchor="start" x="965.5" y="-844.5" font-family="Helvetica,sans-Serif" font-size="10.00">+ ~SimpleSubscriber()</text>
<text text-anchor="start" x="965.5" y="-833.5" font-family="Helvetica,sans-Serif" font-size="10.00">+ void subscribe(SimplePublisher</text>
<text text-anchor="start" x="965.5" y="-822.5" font-family="Helvetica,sans-Serif" font-size="10.00"> *pub)</text>
<text text-anchor="start" x="965.5" y="-811.5" font-family="Helvetica,sans-Serif" font-size="10.00">+ void unsubscribe(SimplePublisher</text>
<text text-anchor="start" x="965.5" y="-800.5" font-family="Helvetica,sans-Serif" font-size="10.00"> *pub)</text>
<text text-anchor="start" x="965.5" y="-789.5" font-family="Helvetica,sans-Serif" font-size="10.00">+ void removeDeletedSubject</text>
<text text-anchor="start" x="965.5" y="-778.5" font-family="Helvetica,sans-Serif" font-size="10.00">(SimplePublisher *pub)</text>
<text text-anchor="start" x="965.5" y="-767.5" font-family="Helvetica,sans-Serif" font-size="10.00">+ virtual void notify</text>
<text text-anchor="start" x="965.5" y="-756.5" font-family="Helvetica,sans-Serif" font-size="10.00">(SimplePublisher *pub)=0</text>
<text text-anchor="start" x="965.5" y="-745.5" font-family="Helvetica,sans-Serif" font-size="10.00"># SimpleSubscriber()</text>
<text text-anchor="start" x="965.5" y="-734.5" font-family="Helvetica,sans-Serif" font-size="10.00">=default</text>
</a>
</g>
</g>
<!-- Node5&#45;&gt;Node1 -->
<g id="edge4" class="edge">
<title>Node5&#45;&gt;Node1</title>
<path fill="none" stroke="midnightblue" d="M962.28,-719.82C930,-685.17 895.07,-644.04 868,-603 757.44,-435.34 777.59,-367.41 678,-193 668.7,-176.71 657.08,-160.5 645.08,-145.52"/>
<polygon fill="none" stroke="midnightblue" points="959.73,-722.21 969.12,-727.11 964.83,-717.42 959.73,-722.21"/>
</g>
<!-- Node9 -->
<g id="node9" class="node">
<title>Node9</title>
<g id="a_node9"><a xlink:href="class_bot_controller.html" target="_top" xlink:title=" ">
<polygon fill="none" stroke="black" points="487,-193.5 487,-602.5 669,-602.5 669,-193.5 487,-193.5"/>
<text text-anchor="middle" x="578" y="-590.5" font-family="Helvetica,sans-Serif" font-size="10.00">BotController</text>
<polyline fill="none" stroke="black" points="487,-583.5 669,-583.5 "/>
<text text-anchor="middle" x="578" y="-571.5" font-family="Helvetica,sans-Serif" font-size="10.00"> </text>
<polyline fill="none" stroke="black" points="487,-564.5 669,-564.5 "/>
<text text-anchor="start" x="495" y="-552.5" font-family="Helvetica,sans-Serif" font-size="10.00">+ BotController()=delete</text>
<text text-anchor="start" x="495" y="-541.5" font-family="Helvetica,sans-Serif" font-size="10.00">+ BotController &amp; operator</text>
<text text-anchor="start" x="495" y="-530.5" font-family="Helvetica,sans-Serif" font-size="10.00">=(const BotController &amp;other)</text>
<text text-anchor="start" x="495" y="-519.5" font-family="Helvetica,sans-Serif" font-size="10.00">=delete</text>
<text text-anchor="start" x="495" y="-508.5" font-family="Helvetica,sans-Serif" font-size="10.00">+ void makeBotDecision</text>
<text text-anchor="start" x="495" y="-497.5" font-family="Helvetica,sans-Serif" font-size="10.00">(const std::shared_ptr</text>
<text text-anchor="start" x="495" y="-486.5" font-family="Helvetica,sans-Serif" font-size="10.00">&lt; Bot &gt; &amp;bot)</text>
<text text-anchor="start" x="495" y="-475.5" font-family="Helvetica,sans-Serif" font-size="10.00">+ void registerBot()</text>
<text text-anchor="start" x="495" y="-464.5" font-family="Helvetica,sans-Serif" font-size="10.00">+ void deregisterBot()</text>
<text text-anchor="start" x="495" y="-453.5" font-family="Helvetica,sans-Serif" font-size="10.00">+ void deregisterAllBots()</text>
<text text-anchor="start" x="495" y="-442.5" font-family="Helvetica,sans-Serif" font-size="10.00">+ unsigned int getRegistered</text>
<text text-anchor="start" x="495" y="-431.5" font-family="Helvetica,sans-Serif" font-size="10.00">BotsCount() const</text>
<text text-anchor="start" x="495" y="-420.5" font-family="Helvetica,sans-Serif" font-size="10.00">+ void notify(SimplePublisher</text>
<text text-anchor="start" x="495" y="-409.5" font-family="Helvetica,sans-Serif" font-size="10.00"> *pub) override</text>
<text text-anchor="start" x="495" y="-398.5" font-family="Helvetica,sans-Serif" font-size="10.00">+ void setSpawnpoints</text>
<text text-anchor="start" x="495" y="-387.5" font-family="Helvetica,sans-Serif" font-size="10.00">(const std::vector&lt;</text>
<text text-anchor="start" x="495" y="-376.5" font-family="Helvetica,sans-Serif" font-size="10.00"> std::pair&lt; unsigned</text>
<text text-anchor="start" x="495" y="-365.5" font-family="Helvetica,sans-Serif" font-size="10.00"> int, unsigned int &gt; &gt;</text>
<text text-anchor="start" x="495" y="-354.5" font-family="Helvetica,sans-Serif" font-size="10.00"> &amp;spawnpoints)</text>
<text text-anchor="start" x="495" y="-343.5" font-family="Helvetica,sans-Serif" font-size="10.00">+ void setTypes(const</text>
<text text-anchor="start" x="495" y="-332.5" font-family="Helvetica,sans-Serif" font-size="10.00"> std::queue&lt; Tank::TankType</text>
<text text-anchor="start" x="495" y="-321.5" font-family="Helvetica,sans-Serif" font-size="10.00"> &gt; &amp;types)</text>
<text text-anchor="start" x="495" y="-310.5" font-family="Helvetica,sans-Serif" font-size="10.00">+ void setCounting(bool</text>
<text text-anchor="start" x="495" y="-299.5" font-family="Helvetica,sans-Serif" font-size="10.00"> counting)</text>
<text text-anchor="start" x="495" y="-288.5" font-family="Helvetica,sans-Serif" font-size="10.00">+ static BotController</text>
<text text-anchor="start" x="495" y="-277.5" font-family="Helvetica,sans-Serif" font-size="10.00"> * instance()</text>
<text text-anchor="start" x="495" y="-266.5" font-family="Helvetica,sans-Serif" font-size="10.00">+ static void initialize</text>
<text text-anchor="start" x="495" y="-255.5" font-family="Helvetica,sans-Serif" font-size="10.00">(unsigned int maxRegisteredBots,</text>
<text text-anchor="start" x="495" y="-244.5" font-family="Helvetica,sans-Serif" font-size="10.00"> unsigned int spawnCooldown)</text>
<text text-anchor="start" x="495" y="-233.5" font-family="Helvetica,sans-Serif" font-size="10.00"># BotController(unsigned</text>
<text text-anchor="start" x="495" y="-222.5" font-family="Helvetica,sans-Serif" font-size="10.00"> int n_maxRegisteredBots,</text>
<text text-anchor="start" x="495" y="-211.5" font-family="Helvetica,sans-Serif" font-size="10.00"> unsigned int n_spawnCooldown)</text>
<text text-anchor="start" x="495" y="-200.5" font-family="Helvetica,sans-Serif" font-size="10.00"># void requestSpawnBot()</text>
</a>
</g>
</g>
<!-- Node5&#45;&gt;Node9 -->
<g id="edge9" class="edge">
<title>Node5&#45;&gt;Node9</title>
<path fill="none" stroke="midnightblue" d="M973.56,-721.08C965.39,-714.99 956.83,-709.49 948,-705 903.46,-682.33 876.32,-717.85 837,-687 811.93,-667.33 827.08,-647.24 809,-621 770.27,-564.77 715.57,-511.43 669.12,-471.13"/>
<polygon fill="none" stroke="midnightblue" points="971.56,-723.97 981.59,-727.37 975.87,-718.45 971.56,-723.97"/>
</g>
<!-- Node6 -->
<g id="node6" class="node">
<title>Node6</title>
<g id="a_node6"><a xlink:title=" ">
<polygon fill="none" stroke="black" points="1018.5,-1041.5 1018.5,-1098.5 1175.5,-1098.5 1175.5,-1041.5 1018.5,-1041.5"/>
<text text-anchor="middle" x="1097" y="-1086.5" font-family="Helvetica,sans-Serif" font-size="10.00">vector&lt; SimplePublisher * &gt;</text>
<polyline fill="none" stroke="black" points="1018.5,-1079.5 1175.5,-1079.5 "/>
<text text-anchor="middle" x="1097" y="-1067.5" font-family="Helvetica,sans-Serif" font-size="10.00"> </text>
<polyline fill="none" stroke="black" points="1018.5,-1060.5 1175.5,-1060.5 "/>
<text text-anchor="middle" x="1097" y="-1048.5" font-family="Helvetica,sans-Serif" font-size="10.00"> </text>
</a>
</g>
</g>
<!-- Node6&#45;&gt;Node5 -->
<g id="edge5" class="edge">
<title>Node6&#45;&gt;Node5</title>
<path fill="none" stroke="#404040" d="M1092.4,-1041.5C1087.04,-1009.44 1077.88,-954.75 1069.86,-906.79"/>
<polygon fill="none" stroke="#404040" points="1069.83,-906.59 1064.89,-901.34 1067.85,-894.76 1072.78,-900.02 1069.83,-906.59"/>
<text text-anchor="middle" x="1130.5" y="-938" font-family="Helvetica,sans-Serif" font-size="10.00"> #subscribedSubjects_</text>
</g>
<!-- Node7 -->
<g id="node7" class="node">
<title>Node7</title>
<g id="a_node7"><a xlink:title=" ">
<polygon fill="none" stroke="black" points="876.5,-364 876.5,-432 985.5,-432 985.5,-364 876.5,-364"/>
<text text-anchor="start" x="884.5" y="-420" font-family="Helvetica,sans-Serif" font-size="10.00">std::enable_shared</text>
<text text-anchor="middle" x="931" y="-409" font-family="Helvetica,sans-Serif" font-size="10.00">_from_this&lt; Bot &gt;</text>
<polyline fill="none" stroke="black" points="876.5,-402 985.5,-402 "/>
<text text-anchor="middle" x="931" y="-390" font-family="Helvetica,sans-Serif" font-size="10.00"> </text>
<polyline fill="none" stroke="black" points="876.5,-383 985.5,-383 "/>
<text text-anchor="middle" x="931" y="-371" font-family="Helvetica,sans-Serif" font-size="10.00"> </text>
</a>
</g>
</g>
<!-- Node7&#45;&gt;Node1 -->
<g id="edge6" class="edge">
<title>Node7&#45;&gt;Node1</title>
<path fill="none" stroke="midnightblue" d="M929.92,-353.79C926.3,-301.89 912.45,-215.41 862,-164 808.57,-109.55 722.43,-87.96 659.01,-79.45"/>
<polygon fill="none" stroke="midnightblue" points="926.44,-354.23 930.54,-364 933.43,-353.81 926.44,-354.23"/>
</g>
<!-- Node8 -->
<g id="node8" class="node">
<title>Node8</title>
<g id="a_node8"><a xlink:title=" ">
<polygon fill="none" stroke="black" points="153.5,-782.5 153.5,-839.5 230.5,-839.5 230.5,-782.5 153.5,-782.5"/>
<text text-anchor="middle" x="192" y="-827.5" font-family="Helvetica,sans-Serif" font-size="10.00">unsigned int</text>
<polyline fill="none" stroke="black" points="153.5,-820.5 230.5,-820.5 "/>
<text text-anchor="middle" x="192" y="-808.5" font-family="Helvetica,sans-Serif" font-size="10.00"> </text>
<polyline fill="none" stroke="black" points="153.5,-801.5 230.5,-801.5 "/>
<text text-anchor="middle" x="192" y="-789.5" font-family="Helvetica,sans-Serif" font-size="10.00"> </text>
</a>
</g>
</g>
<!-- Node8&#45;&gt;Node1 -->
<g id="edge7" class="edge">
<title>Node8&#45;&gt;Node1</title>
<path fill="none" stroke="#404040" d="M191.66,-782.39C191.94,-688.52 204.87,-377.27 357,-193 390.38,-152.57 441.19,-123.86 485.68,-104.78"/>
<polygon fill="none" stroke="#404040" points="485.76,-104.75 489.76,-98.75 496.84,-100.14 492.84,-106.14 485.76,-104.75"/>
<text text-anchor="middle" x="417.5" y="-401" font-family="Helvetica,sans-Serif" font-size="10.00"> #decisionCooldown</text>
<text text-anchor="middle" x="417.5" y="-390" font-family="Helvetica,sans-Serif" font-size="10.00">#maxDecisionCooldown</text>
</g>
<!-- Node8&#45;&gt;Node9 -->
<g id="edge12" class="edge">
<title>Node8&#45;&gt;Node9</title>
<path fill="none" stroke="#404040" d="M196.16,-782.23C203.7,-741.4 223.4,-665.23 270,-621 287.43,-604.45 299.96,-614.63 321,-603 376.5,-572.31 432.33,-529.73 477.71,-491.41"/>
<polygon fill="none" stroke="#404040" points="477.8,-491.33 479.78,-484.4 486.94,-483.56 484.96,-490.49 477.8,-491.33"/>
<text text-anchor="start" x="270" y="-679" font-family="Helvetica,sans-Serif" font-size="10.00"> #maxRegisteredBots</text>
<text text-anchor="middle" x="325.5" y="-668" font-family="Helvetica,sans-Serif" font-size="10.00">_</text>
<text text-anchor="middle" x="325.5" y="-657" font-family="Helvetica,sans-Serif" font-size="10.00">#maxSpawnCooldown</text>
<text text-anchor="start" x="270" y="-646" font-family="Helvetica,sans-Serif" font-size="10.00">#registeredBots</text>
<text text-anchor="middle" x="325.5" y="-635" font-family="Helvetica,sans-Serif" font-size="10.00">_</text>
<text text-anchor="middle" x="325.5" y="-624" font-family="Helvetica,sans-Serif" font-size="10.00">#spawnCooldown</text>
</g>
<!-- Node9&#45;&gt;Node1 -->
<g id="edge8" class="edge">
<title>Node9&#45;&gt;Node1</title>
<path fill="none" stroke="#404040" d="M578,-193.36C578,-180.96 578,-168.92 578,-157.56"/>
<polygon fill="none" stroke="#404040" points="578,-157.51 574,-151.51 578,-145.51 582,-151.51 578,-157.51"/>
<text text-anchor="middle" x="616" y="-167" font-family="Helvetica,sans-Serif" font-size="10.00"> #botController</text>
</g>
<!-- Node10 -->
<g id="node10" class="node">
<title>Node10</title>
<g id="a_node10"><a xlink:title=" ">
<polygon fill="none" stroke="black" points="249,-771.5 249,-850.5 379,-850.5 379,-771.5 249,-771.5"/>
<text text-anchor="start" x="257" y="-838.5" font-family="Helvetica,sans-Serif" font-size="10.00">vector&lt; std::pair&lt;</text>
<text text-anchor="start" x="257" y="-827.5" font-family="Helvetica,sans-Serif" font-size="10.00"> unsigned int, unsigned</text>
<text text-anchor="middle" x="314" y="-816.5" font-family="Helvetica,sans-Serif" font-size="10.00"> int &gt; &gt;</text>
<polyline fill="none" stroke="black" points="249,-809.5 379,-809.5 "/>
<text text-anchor="middle" x="314" y="-797.5" font-family="Helvetica,sans-Serif" font-size="10.00"> </text>
<polyline fill="none" stroke="black" points="249,-790.5 379,-790.5 "/>
<text text-anchor="middle" x="314" y="-778.5" font-family="Helvetica,sans-Serif" font-size="10.00"> </text>
</a>
</g>
</g>
<!-- Node10&#45;&gt;Node9 -->
<g id="edge10" class="edge">
<title>Node10&#45;&gt;Node9</title>
<path fill="none" stroke="#404040" d="M334.69,-771.37C355.71,-732.73 389.68,-671.88 422,-621 440.07,-592.54 460.23,-562.65 479.9,-534.34"/>
<polygon fill="none" stroke="#404040" points="479.97,-534.25 480.12,-527.04 486.83,-524.4 486.68,-531.61 479.97,-534.25"/>
<text text-anchor="middle" x="461.5" y="-651.5" font-family="Helvetica,sans-Serif" font-size="10.00"> #spawnpoints_</text>
</g>
<!-- Node11 -->
<g id="node11" class="node">
<title>Node11</title>
<g id="a_node11"><a xlink:title=" ">
<polygon fill="none" stroke="black" points="397.5,-782.5 397.5,-839.5 540.5,-839.5 540.5,-782.5 397.5,-782.5"/>
<text text-anchor="middle" x="469" y="-827.5" font-family="Helvetica,sans-Serif" font-size="10.00">queue&lt; Tank::TankType &gt;</text>
<polyline fill="none" stroke="black" points="397.5,-820.5 540.5,-820.5 "/>
<text text-anchor="middle" x="469" y="-808.5" font-family="Helvetica,sans-Serif" font-size="10.00"> </text>
<polyline fill="none" stroke="black" points="397.5,-801.5 540.5,-801.5 "/>
<text text-anchor="middle" x="469" y="-789.5" font-family="Helvetica,sans-Serif" font-size="10.00"> </text>
</a>
</g>
</g>
<!-- Node11&#45;&gt;Node9 -->
<g id="edge11" class="edge">
<title>Node11&#45;&gt;Node9</title>
<path fill="none" stroke="#404040" d="M476.32,-782.39C485.79,-746.71 503.17,-681.16 520.92,-614.24"/>
<polygon fill="none" stroke="#404040" points="520.92,-614.21 518.6,-607.39 524,-602.61 526.33,-609.44 520.92,-614.21"/>
<text text-anchor="middle" x="539" y="-651.5" font-family="Helvetica,sans-Serif" font-size="10.00"> #types_</text>
</g>
<!-- Node12 -->
<g id="node12" class="node">
<title>Node12</title>
<g id="a_node12"><a xlink:title=" ">
<polygon fill="none" stroke="black" points="559,-782.5 559,-839.5 597,-839.5 597,-782.5 559,-782.5"/>
<text text-anchor="middle" x="578" y="-827.5" font-family="Helvetica,sans-Serif" font-size="10.00">bool</text>
<polyline fill="none" stroke="black" points="559,-820.5 597,-820.5 "/>
<text text-anchor="middle" x="578" y="-808.5" font-family="Helvetica,sans-Serif" font-size="10.00"> </text>
<polyline fill="none" stroke="black" points="559,-801.5 597,-801.5 "/>
<text text-anchor="middle" x="578" y="-789.5" font-family="Helvetica,sans-Serif" font-size="10.00"> </text>
</a>
</g>
</g>
<!-- Node12&#45;&gt;Node9 -->
<g id="edge13" class="edge">
<title>Node12&#45;&gt;Node9</title>
<path fill="none" stroke="#404040" d="M578,-782.39C578,-746.78 578,-681.43 578,-614.65"/>
<polygon fill="none" stroke="#404040" points="578,-614.61 574,-608.61 578,-602.61 582,-608.61 578,-614.61"/>
<text text-anchor="middle" x="605" y="-651.5" font-family="Helvetica,sans-Serif" font-size="10.00"> #counting</text>
</g>
<!-- Node13 -->
<g id="node13" class="node">
<title>Node13</title>
<g id="a_node13"><a xlink:title=" ">
<polygon fill="none" stroke="black" points="615.5,-782.5 615.5,-839.5 770.5,-839.5 770.5,-782.5 615.5,-782.5"/>
<text text-anchor="middle" x="693" y="-827.5" font-family="Helvetica,sans-Serif" font-size="10.00">unique_ptr&lt; BotController &gt;</text>
<polyline fill="none" stroke="black" points="615.5,-820.5 770.5,-820.5 "/>
<text text-anchor="middle" x="693" y="-808.5" font-family="Helvetica,sans-Serif" font-size="10.00"> </text>
<polyline fill="none" stroke="black" points="615.5,-801.5 770.5,-801.5 "/>
<text text-anchor="middle" x="693" y="-789.5" font-family="Helvetica,sans-Serif" font-size="10.00"> </text>
</a>
</g>
</g>
<!-- Node13&#45;&gt;Node9 -->
<g id="edge14" class="edge">
<title>Node13&#45;&gt;Node9</title>
<path fill="none" stroke="#404040" d="M685.28,-782.39C675.29,-746.71 656.95,-681.16 638.22,-614.24"/>
<polygon fill="none" stroke="#404040" points="638.21,-614.17 632.74,-609.47 634.97,-602.61 640.44,-607.31 638.21,-614.17"/>
<text text-anchor="middle" x="673.5" y="-651.5" font-family="Helvetica,sans-Serif" font-size="10.00"> #self_</text>
</g>
<!-- Node14 -->
<g id="node14" class="node">
<title>Node14</title>
<g id="a_node14"><a xlink:href="class_event_queue.html" target="_top" xlink:title=" ">
<polygon fill="none" stroke="black" points="789,-705.5 789,-916.5 939,-916.5 939,-705.5 789,-705.5"/>
<text text-anchor="middle" x="864" y="-904.5" font-family="Helvetica,sans-Serif" font-size="10.00">EventQueue&lt; Event &gt;</text>
<polyline fill="none" stroke="black" points="789,-897.5 939,-897.5 "/>
<text text-anchor="middle" x="864" y="-885.5" font-family="Helvetica,sans-Serif" font-size="10.00"> </text>
<polyline fill="none" stroke="black" points="789,-878.5 939,-878.5 "/>
<text text-anchor="start" x="797" y="-866.5" font-family="Helvetica,sans-Serif" font-size="10.00">+ EventQueue(EventQueue</text>
<text text-anchor="start" x="797" y="-855.5" font-family="Helvetica,sans-Serif" font-size="10.00"> &amp;)=delete</text>
<text text-anchor="start" x="797" y="-844.5" font-family="Helvetica,sans-Serif" font-size="10.00">+ bool operator=(const</text>
<text text-anchor="start" x="797" y="-833.5" font-family="Helvetica,sans-Serif" font-size="10.00"> EventQueue &amp;)=delete</text>
<text text-anchor="start" x="797" y="-822.5" font-family="Helvetica,sans-Serif" font-size="10.00">+ void registerEvent</text>
<text text-anchor="start" x="797" y="-811.5" font-family="Helvetica,sans-Serif" font-size="10.00">(std::unique_ptr&lt; Event</text>
<text text-anchor="start" x="797" y="-800.5" font-family="Helvetica,sans-Serif" font-size="10.00"> &gt; event)</text>
<text text-anchor="start" x="797" y="-789.5" font-family="Helvetica,sans-Serif" font-size="10.00">+ std::unique_ptr&lt; Event</text>
<text text-anchor="start" x="797" y="-778.5" font-family="Helvetica,sans-Serif" font-size="10.00"> &gt; pop()</text>
<text text-anchor="start" x="797" y="-767.5" font-family="Helvetica,sans-Serif" font-size="10.00">+ bool isEmpty()</text>
<text text-anchor="start" x="797" y="-756.5" font-family="Helvetica,sans-Serif" font-size="10.00">+ unsigned int size()</text>
<text text-anchor="start" x="797" y="-745.5" font-family="Helvetica,sans-Serif" font-size="10.00">+ void clear()</text>
<text text-anchor="start" x="797" y="-734.5" font-family="Helvetica,sans-Serif" font-size="10.00">+ static EventQueue *</text>
<text text-anchor="start" x="797" y="-723.5" font-family="Helvetica,sans-Serif" font-size="10.00"> instance()</text>
<text text-anchor="start" x="797" y="-712.5" font-family="Helvetica,sans-Serif" font-size="10.00">&#45; EventQueue()=default</text>
</a>
</g>
</g>
<!-- Node14&#45;&gt;Node9 -->
<g id="edge15" class="edge">
<title>Node14&#45;&gt;Node9</title>
<path fill="none" stroke="#404040" d="M788.9,-711.99C785.98,-709.54 783.02,-707.2 780,-705 761.94,-691.81 749.8,-701.77 733,-687 730.25,-684.58 704.58,-637.4 674.88,-581.89"/>
<polygon fill="none" stroke="#404040" points="674.76,-581.65 668.4,-578.25 669.1,-571.07 675.45,-574.48 674.76,-581.65"/>
<text text-anchor="middle" x="771" y="-651.5" font-family="Helvetica,sans-Serif" font-size="10.00"> #eventQueue_</text>
</g>
<!-- Node15 -->
<g id="node15" class="node">
<title>Node15</title>
<g id="a_node15"><a xlink:href="classstd_1_1queue_3_01std_1_1unique__ptr_3_01_event_01_4_01_4.html" target="_top" xlink:title=" ">
<polygon fill="none" stroke="black" points="649,-1036 649,-1104 761,-1104 761,-1036 649,-1036"/>
<text text-anchor="start" x="657" y="-1092" font-family="Helvetica,sans-Serif" font-size="10.00">queue&lt; std::unique</text>
<text text-anchor="middle" x="705" y="-1081" font-family="Helvetica,sans-Serif" font-size="10.00">_ptr&lt; Event &gt; &gt;</text>
<polyline fill="none" stroke="black" points="649,-1074 761,-1074 "/>
<text text-anchor="middle" x="705" y="-1062" font-family="Helvetica,sans-Serif" font-size="10.00"> </text>
<polyline fill="none" stroke="black" points="649,-1055 761,-1055 "/>
<text text-anchor="middle" x="705" y="-1043" font-family="Helvetica,sans-Serif" font-size="10.00"> </text>
</a>
</g>
</g>
<!-- Node15&#45;&gt;Node14 -->
<g id="edge16" class="edge">
<title>Node15&#45;&gt;Node14</title>
<path fill="none" stroke="#404040" d="M703.48,-1035.98C703.89,-1006.25 709.11,-963.04 733,-935 745.58,-920.23 758.1,-927.46 778.79,-916.48"/>
<polygon fill="none" stroke="#404040" points="778.79,-916.48 781.69,-909.88 788.9,-910.01 786,-916.62 778.79,-916.48"/>
<text text-anchor="middle" x="758" y="-938" font-family="Helvetica,sans-Serif" font-size="10.00"> #events_</text>
</g>
<!-- Node16 -->
<g id="node16" class="node">
<title>Node16</title>
<g id="a_node16"><a xlink:title=" ">
<polygon fill="none" stroke="black" points="722,-1229 722,-1286 872,-1286 872,-1229 722,-1229"/>
<text text-anchor="middle" x="797" y="-1274" font-family="Helvetica,sans-Serif" font-size="10.00">unique_ptr&lt; EventQueue &gt;</text>
<polyline fill="none" stroke="black" points="722,-1267 872,-1267 "/>
<text text-anchor="middle" x="797" y="-1255" font-family="Helvetica,sans-Serif" font-size="10.00"> </text>
<polyline fill="none" stroke="black" points="722,-1248 872,-1248 "/>
<text text-anchor="middle" x="797" y="-1236" font-family="Helvetica,sans-Serif" font-size="10.00"> </text>
</a>
</g>
</g>
<!-- Node16&#45;&gt;Node14 -->
<g id="edge17" class="edge">
<title>Node16&#45;&gt;Node14</title>
<path fill="none" stroke="#404040" d="M794.81,-1228.73C791.36,-1176.35 786.85,-1059.65 806,-964 808.37,-952.14 811.58,-940 815.26,-928"/>
<polygon fill="none" stroke="#404040" points="815.27,-927.97 813.3,-921.04 818.94,-916.55 820.91,-923.48 815.27,-927.97"/>
<text text-anchor="middle" x="823.5" y="-1067.5" font-family="Helvetica,sans-Serif" font-size="10.00"> #self_</text>
</g>
<!-- Node17 -->
<g id="node17" class="node">
<title>Node17</title>
<g id="a_node17"><a xlink:href="class_event_queue.html" target="_top" xlink:title="Singleton class wrapper for std::queue&lt;E&gt;.">
<polygon fill="none" stroke="black" points="850,-964.5 850,-1175.5 1000,-1175.5 1000,-964.5 850,-964.5"/>
<text text-anchor="middle" x="925" y="-1163.5" font-family="Helvetica,sans-Serif" font-size="10.00">EventQueue&lt; E &gt;</text>
<polyline fill="none" stroke="black" points="850,-1156.5 1000,-1156.5 "/>
<text text-anchor="middle" x="925" y="-1144.5" font-family="Helvetica,sans-Serif" font-size="10.00"> </text>
<polyline fill="none" stroke="black" points="850,-1137.5 1000,-1137.5 "/>
<text text-anchor="start" x="858" y="-1125.5" font-family="Helvetica,sans-Serif" font-size="10.00">+ EventQueue(EventQueue</text>
<text text-anchor="start" x="858" y="-1114.5" font-family="Helvetica,sans-Serif" font-size="10.00"> &amp;)=delete</text>
<text text-anchor="start" x="858" y="-1103.5" font-family="Helvetica,sans-Serif" font-size="10.00">+ bool operator=(const</text>
<text text-anchor="start" x="858" y="-1092.5" font-family="Helvetica,sans-Serif" font-size="10.00"> EventQueue &amp;)=delete</text>
<text text-anchor="start" x="858" y="-1081.5" font-family="Helvetica,sans-Serif" font-size="10.00">+ void registerEvent</text>
<text text-anchor="start" x="858" y="-1070.5" font-family="Helvetica,sans-Serif" font-size="10.00">(std::unique_ptr&lt; E</text>
<text text-anchor="start" x="858" y="-1059.5" font-family="Helvetica,sans-Serif" font-size="10.00"> &gt; event)</text>
<text text-anchor="start" x="858" y="-1048.5" font-family="Helvetica,sans-Serif" font-size="10.00">+ std::unique_ptr&lt; E</text>
<text text-anchor="start" x="858" y="-1037.5" font-family="Helvetica,sans-Serif" font-size="10.00"> &gt; pop()</text>
<text text-anchor="start" x="858" y="-1026.5" font-family="Helvetica,sans-Serif" font-size="10.00">+ bool isEmpty()</text>
<text text-anchor="start" x="858" y="-1015.5" font-family="Helvetica,sans-Serif" font-size="10.00">+ unsigned int size()</text>
<text text-anchor="start" x="858" y="-1004.5" font-family="Helvetica,sans-Serif" font-size="10.00">+ void clear()</text>
<text text-anchor="start" x="858" y="-993.5" font-family="Helvetica,sans-Serif" font-size="10.00">+ static EventQueue *</text>
<text text-anchor="start" x="858" y="-982.5" font-family="Helvetica,sans-Serif" font-size="10.00"> instance()</text>
<text text-anchor="start" x="858" y="-971.5" font-family="Helvetica,sans-Serif" font-size="10.00">&#45; EventQueue()=default</text>
</a>
</g>
</g>
<!-- Node16&#45;&gt;Node17 -->
<g id="edge20" class="edge">
<title>Node16&#45;&gt;Node17</title>
<path fill="none" stroke="#404040" d="M816.16,-1228.73C824.48,-1216.68 834.83,-1201.68 845.81,-1185.77"/>
<polygon fill="none" stroke="#404040" points="845.9,-1185.64 846.01,-1178.43 852.71,-1175.76 852.6,-1182.97 845.9,-1185.64"/>
<text text-anchor="middle" x="855.5" y="-1197" font-family="Helvetica,sans-Serif" font-size="10.00"> #self_</text>
</g>
<!-- Node17&#45;&gt;Node14 -->
<g id="edge18" class="edge">
<title>Node17&#45;&gt;Node14</title>
<path fill="none" stroke="orange" d="M897.82,-954.47C894.84,-941.95 891.83,-929.25 888.89,-916.86"/>
<polygon fill="orange" stroke="orange" points="894.47,-955.55 900.19,-964.47 901.28,-953.93 894.47,-955.55"/>
<text text-anchor="middle" x="921" y="-938" font-family="Helvetica,sans-Serif" font-size="10.00"> &lt; Event &gt;</text>
</g>
<!-- Node18 -->
<g id="node18" class="node">
<title>Node18</title>
<g id="a_node18"><a xlink:title=" ">
<polygon fill="none" stroke="black" points="890,-1223.5 890,-1291.5 1002,-1291.5 1002,-1223.5 890,-1223.5"/>
<text text-anchor="start" x="898" y="-1279.5" font-family="Helvetica,sans-Serif" font-size="10.00">queue&lt; std::unique</text>
<text text-anchor="middle" x="946" y="-1268.5" font-family="Helvetica,sans-Serif" font-size="10.00">_ptr&lt; E &gt; &gt;</text>
<polyline fill="none" stroke="black" points="890,-1261.5 1002,-1261.5 "/>
<text text-anchor="middle" x="946" y="-1249.5" font-family="Helvetica,sans-Serif" font-size="10.00"> </text>
<polyline fill="none" stroke="black" points="890,-1242.5 1002,-1242.5 "/>
<text text-anchor="middle" x="946" y="-1230.5" font-family="Helvetica,sans-Serif" font-size="10.00"> </text>
</a>
</g>
</g>
<!-- Node18&#45;&gt;Node17 -->
<g id="edge19" class="edge">
<title>Node18&#45;&gt;Node17</title>
<path fill="none" stroke="#404040" d="M942.25,-1223.34C941.06,-1212.88 939.68,-1200.68 938.22,-1187.81"/>
<polygon fill="none" stroke="#404040" points="938.22,-1187.77 933.57,-1182.25 936.87,-1175.84 941.52,-1181.36 938.22,-1187.77"/>
<text text-anchor="middle" x="964" y="-1197" font-family="Helvetica,sans-Serif" font-size="10.00"> #events_</text>
</g>
</g>
</svg>
        <g id="navigator" transform="translate(0 0)" fill="#404254">
                <rect fill="#f2f5e9" fill-opacity="0.5" stroke="#606060" stroke-width=".5" x="0" y="0" width="60" height="60"/>
                <use id="zoomplus" xlink:href="#zoomPlus" x="17" y="9" onmousedown="handleZoom(evt,'in')"/>
                <use id="zoomminus" xlink:href="#zoomMin" x="42" y="9" onmousedown="handleZoom(evt,'out')"/>
                <use id="reset" xlink:href="#resetDef" x="30" y="36" onmousedown="handleReset()"/>
                <g id="arrowUp" xlink:href="#dirArrow" transform="translate(30 24)" onmousedown="handlePan(0,-1)">
                  <use xlink:href="#rim" fill="#404040">
                        <set attributeName="fill" to="#808080" begin="arrowUp.mouseover" end="arrowUp.mouseout"/>
                  </use>
                  <path fill="none" stroke="white" stroke-width="1.5" d="M0,-3.0v7 M-2.5,-0.5L0,-3.0L2.5,-0.5"/>
                </g>
                <g id="arrowRight" xlink:href="#dirArrow" transform="rotate(90) translate(36 -43)" onmousedown="handlePan(1,0)">
                  <use xlink:href="#rim" fill="#404040">
                        <set attributeName="fill" to="#808080" begin="arrowRight.mouseover" end="arrowRight.mouseout"/>
                  </use>
                  <path fill="none" stroke="white" stroke-width="1.5" d="M0,-3.0v7 M-2.5,-0.5L0,-3.0L2.5,-0.5"/>
                </g>
                <g id="arrowDown" xlink:href="#dirArrow" transform="rotate(180) translate(-30 -48)" onmousedown="handlePan(0,1)">
                  <use xlink:href="#rim" fill="#404040">
                        <set attributeName="fill" to="#808080" begin="arrowDown.mouseover" end="arrowDown.mouseout"/>
                  </use>
                  <path fill="none" stroke="white" stroke-width="1.5" d="M0,-3.0v7 M-2.5,-0.5L0,-3.0L2.5,-0.5"/>
                </g>
                <g id="arrowLeft" xlink:href="#dirArrow" transform="rotate(270) translate(-36 17)" onmousedown="handlePan(-1,0)">
                  <use xlink:href="#rim" fill="#404040">
                        <set attributeName="fill" to="#808080" begin="arrowLeft.mouseover" end="arrowLeft.mouseout"/>
                  </use>
                  <path fill="none" stroke="white" stroke-width="1.5" d="M0,-3.0v7 M-2.5,-0.5L0,-3.0L2.5,-0.5"/>
                </g>
        </g>
        <svg viewBox="0 0 15 15" width="100%" height="30px" preserveAspectRatio="xMaxYMin meet">
         <g id="arrow_out" transform="scale(0.3 0.3)">
          <a xlink:href="class_bot__coll__graph_org.svg" target="_base">
           <rect id="button" ry="5" rx="5" y="6" x="6" height="38" width="38"
                fill="#f2f5e9" fill-opacity="0.5" stroke="#606060" stroke-width="1.0"/>
           <path id="arrow"
             d="M 11.500037,31.436501 C 11.940474,20.09759 22.043105,11.32322 32.158766,21.979434 L 37.068811,17.246167 C 37.068811,17.246167 37.088388,32 37.088388,32 L 22.160133,31.978069 C 22.160133,31.978069 26.997745,27.140456 26.997745,27.140456 C 18.528582,18.264221 13.291696,25.230495 11.500037,31.436501 z"
             style="fill:#404040;"/>
          </a>
         </g>
        </svg>
</svg>
