<?xml version="1.0" encoding="UTF-8" standalone="no"?>
<!DOCTYPE svg PUBLIC "-//W3C//DTD SVG 1.1//EN"
 "http://www.w3.org/Graphics/SVG/1.1/DTD/svg11.dtd">
<!-- Generated by graphviz version 2.43.0 (0)
 -->
<!-- Title: PlayerTank Pages: 1 -->
<!--zoomable 640 -->
<svg id="main" version="1.1" xmlns="http://www.w3.org/2000/svg" xmlns:xlink="http://www.w3.org/1999/xlink" xml:space="preserve" onload="init(evt)">
<style type="text/css"><![CDATA[
.edge:hover path { stroke: red; }
.edge:hover polygon { stroke: red; fill: red; }
]]></style>
<script type="text/javascript"><![CDATA[
var edges = document.getElementsByTagName('g');
if (edges && edges.length) {
  for (var i=0;i<edges.length;i++) {
    if (edges[i].id.substr(0,4)=='edge') {
      edges[i].setAttribute('class','edge');
    }
  }
}
]]></script>
        <defs>
                <circle id="rim" cx="0" cy="0" r="7"/>
                <circle id="rim2" cx="0" cy="0" r="3.5"/>
                <g id="zoomPlus">
                        <use xlink:href="#rim" fill="#404040">
                                <set attributeName="fill" to="#808080" begin="zoomplus.mouseover" end="zoomplus.mouseout"/>
                        </use>
                        <path d="M-4,0h8M0,-4v8" fill="none" stroke="white" stroke-width="1.5" pointer-events="none"/>
                </g>
                <g id="zoomMin">
                        <use xlink:href="#rim" fill="#404040">
                                <set attributeName="fill" to="#808080" begin="zoomminus.mouseover" end="zoomminus.mouseout"/>
                        </use>
                        <path d="M-4,0h8" fill="none" stroke="white" stroke-width="1.5" pointer-events="none"/>
                </g>
                <g id="dirArrow">
                        <path fill="none" stroke="white" stroke-width="1.5" d="M0,-3.0v7 M-2.5,-0.5L0,-3.0L2.5,-0.5"/>
                </g>
               <g id="resetDef">
                       <use xlink:href="#rim2" fill="#404040">
                               <set attributeName="fill" to="#808080" begin="reset.mouseover" end="reset.mouseout"/>
                       </use>
               </g>
        </defs>

<script type="text/javascript">
var viewWidth = 395;
var viewHeight = 640;
var sectionId = 'dynsection-1';
</script>
<script xlink:href="svgpan.js"/>
<svg id="graph" class="graph">
<g id="viewport">
<title>PlayerTank</title>
<!-- Node1 -->
<g id="node1" class="node">
<title>Node1</title>
<g id="a_node1"><a xlink:title=" ">
<polygon fill="#bfbfbf" stroke="black" points="137,-0.5 137,-101.5 265,-101.5 265,-0.5 137,-0.5"/>
<text text-anchor="middle" x="201" y="-89.5" font-family="Helvetica,sans-Serif" font-size="10.00">PlayerTank</text>
<polyline fill="none" stroke="black" points="137,-82.5 265,-82.5 "/>
<text text-anchor="middle" x="201" y="-70.5" font-family="Helvetica,sans-Serif" font-size="10.00"> </text>
<polyline fill="none" stroke="black" points="137,-63.5 265,-63.5 "/>
<text text-anchor="start" x="145" y="-51.5" font-family="Helvetica,sans-Serif" font-size="10.00">+ PlayerTank()=delete</text>
<text text-anchor="start" x="145" y="-40.5" font-family="Helvetica,sans-Serif" font-size="10.00">+ PlayerTank(float x,</text>
<text text-anchor="start" x="145" y="-29.5" font-family="Helvetica,sans-Serif" font-size="10.00"> float y, unsigned int</text>
<text text-anchor="start" x="145" y="-18.5" font-family="Helvetica,sans-Serif" font-size="10.00"> lives, Direction facing</text>
<text text-anchor="start" x="145" y="-7.5" font-family="Helvetica,sans-Serif" font-size="10.00">=North)</text>
</a>
</g>
</g>
<!-- Node2 -->
<g id="node2" class="node">
<title>Node2</title>
<g id="a_node2"><a xlink:href="class_tank.html" target="_top" xlink:title="Base class for tank representation.">
<polygon fill="none" stroke="black" points="116.5,-139.5 116.5,-493.5 285.5,-493.5 285.5,-139.5 116.5,-139.5"/>
<text text-anchor="middle" x="201" y="-481.5" font-family="Helvetica,sans-Serif" font-size="10.00">Tank</text>
<polyline fill="none" stroke="black" points="116.5,-474.5 285.5,-474.5 "/>
<text text-anchor="middle" x="201" y="-462.5" font-family="Helvetica,sans-Serif" font-size="10.00"> </text>
<polyline fill="none" stroke="black" points="116.5,-455.5 285.5,-455.5 "/>
<text text-anchor="start" x="124.5" y="-443.5" font-family="Helvetica,sans-Serif" font-size="10.00">+ virtual ~Tank()=default</text>
<text text-anchor="start" x="124.5" y="-432.5" font-family="Helvetica,sans-Serif" font-size="10.00">+ void setFacing(Direction</text>
<text text-anchor="start" x="124.5" y="-421.5" font-family="Helvetica,sans-Serif" font-size="10.00"> direction)</text>
<text text-anchor="start" x="124.5" y="-410.5" font-family="Helvetica,sans-Serif" font-size="10.00">+ void move()</text>
<text text-anchor="start" x="124.5" y="-399.5" font-family="Helvetica,sans-Serif" font-size="10.00">+ void deltaLives(int</text>
<text text-anchor="start" x="124.5" y="-388.5" font-family="Helvetica,sans-Serif" font-size="10.00"> delta_l)</text>
<text text-anchor="start" x="124.5" y="-377.5" font-family="Helvetica,sans-Serif" font-size="10.00">+ TankType getType()</text>
<text text-anchor="start" x="124.5" y="-366.5" font-family="Helvetica,sans-Serif" font-size="10.00"> const</text>
<text text-anchor="start" x="124.5" y="-355.5" font-family="Helvetica,sans-Serif" font-size="10.00">+ float getX() const</text>
<text text-anchor="start" x="124.5" y="-344.5" font-family="Helvetica,sans-Serif" font-size="10.00">+ float getY() const</text>
<text text-anchor="start" x="124.5" y="-333.5" font-family="Helvetica,sans-Serif" font-size="10.00">+ unsigned int getLives</text>
<text text-anchor="start" x="124.5" y="-322.5" font-family="Helvetica,sans-Serif" font-size="10.00">() const</text>
<text text-anchor="start" x="124.5" y="-311.5" font-family="Helvetica,sans-Serif" font-size="10.00">+ float getTankSpeed</text>
<text text-anchor="start" x="124.5" y="-300.5" font-family="Helvetica,sans-Serif" font-size="10.00">() const</text>
<text text-anchor="start" x="124.5" y="-289.5" font-family="Helvetica,sans-Serif" font-size="10.00">+ void setMoving(bool</text>
<text text-anchor="start" x="124.5" y="-278.5" font-family="Helvetica,sans-Serif" font-size="10.00"> isMoving)</text>
<text text-anchor="start" x="124.5" y="-267.5" font-family="Helvetica,sans-Serif" font-size="10.00">+ bool isMoving() const</text>
<text text-anchor="start" x="124.5" y="-256.5" font-family="Helvetica,sans-Serif" font-size="10.00">+ float getBulletSpeed</text>
<text text-anchor="start" x="124.5" y="-245.5" font-family="Helvetica,sans-Serif" font-size="10.00">() const</text>
<text text-anchor="start" x="124.5" y="-234.5" font-family="Helvetica,sans-Serif" font-size="10.00">+ Direction getFacing</text>
<text text-anchor="start" x="124.5" y="-223.5" font-family="Helvetica,sans-Serif" font-size="10.00">() const</text>
<text text-anchor="start" x="124.5" y="-212.5" font-family="Helvetica,sans-Serif" font-size="10.00">+ unsigned int getPoints</text>
<text text-anchor="start" x="124.5" y="-201.5" font-family="Helvetica,sans-Serif" font-size="10.00">() const</text>
<text text-anchor="start" x="124.5" y="-190.5" font-family="Helvetica,sans-Serif" font-size="10.00">+ void setX(float x)</text>
<text text-anchor="start" x="124.5" y="-179.5" font-family="Helvetica,sans-Serif" font-size="10.00">+ void setY(float y)</text>
<text text-anchor="start" x="124.5" y="-168.5" font-family="Helvetica,sans-Serif" font-size="10.00">+ void offsetInCurrentDirection</text>
<text text-anchor="start" x="124.5" y="-157.5" font-family="Helvetica,sans-Serif" font-size="10.00">(float offset)</text>
<text text-anchor="start" x="124.5" y="-146.5" font-family="Helvetica,sans-Serif" font-size="10.00"># Tank()=default</text>
</a>
</g>
</g>
<!-- Node2&#45;&gt;Node1 -->
<g id="edge1" class="edge">
<title>Node2&#45;&gt;Node1</title>
<path fill="none" stroke="midnightblue" d="M201,-129.36C201,-119.5 201,-110.13 201,-101.53"/>
<polygon fill="none" stroke="midnightblue" points="197.5,-129.38 201,-139.38 204.5,-129.38 197.5,-129.38"/>
</g>
<!-- Node3 -->
<g id="node3" class="node">
<title>Node3</title>
<g id="a_node3"><a xlink:title=" ">
<polygon fill="none" stroke="black" points="0,-574.5 0,-631.5 62,-631.5 62,-574.5 0,-574.5"/>
<text text-anchor="middle" x="31" y="-619.5" font-family="Helvetica,sans-Serif" font-size="10.00">TankType</text>
<polyline fill="none" stroke="black" points="0,-612.5 62,-612.5 "/>
<text text-anchor="middle" x="31" y="-600.5" font-family="Helvetica,sans-Serif" font-size="10.00"> </text>
<polyline fill="none" stroke="black" points="0,-593.5 62,-593.5 "/>
<text text-anchor="middle" x="31" y="-581.5" font-family="Helvetica,sans-Serif" font-size="10.00"> </text>
</a>
</g>
</g>
<!-- Node3&#45;&gt;Node2 -->
<g id="edge2" class="edge">
<title>Node3&#45;&gt;Node2</title>
<path fill="none" stroke="#404040" d="M36.71,-574.3C41.1,-556.01 48.1,-531.85 58,-512 72.18,-483.57 90.51,-454.92 109.28,-428.67"/>
<polygon fill="none" stroke="#404040" points="109.44,-428.45 109.72,-421.24 116.48,-418.73 116.2,-425.94 109.44,-428.45"/>
<text text-anchor="middle" x="77.5" y="-531.5" font-family="Helvetica,sans-Serif" font-size="10.00"> #type_</text>
</g>
<!-- Node4 -->
<g id="node4" class="node">
<title>Node4</title>
<g id="a_node4"><a xlink:title=" ">
<polygon fill="none" stroke="black" points="80,-574.5 80,-631.5 118,-631.5 118,-574.5 80,-574.5"/>
<text text-anchor="middle" x="99" y="-619.5" font-family="Helvetica,sans-Serif" font-size="10.00">float</text>
<polyline fill="none" stroke="black" points="80,-612.5 118,-612.5 "/>
<text text-anchor="middle" x="99" y="-600.5" font-family="Helvetica,sans-Serif" font-size="10.00"> </text>
<polyline fill="none" stroke="black" points="80,-593.5 118,-593.5 "/>
<text text-anchor="middle" x="99" y="-581.5" font-family="Helvetica,sans-Serif" font-size="10.00"> </text>
</a>
</g>
</g>
<!-- Node4&#45;&gt;Node2 -->
<g id="edge3" class="edge">
<title>Node4&#45;&gt;Node2</title>
<path fill="none" stroke="#404040" d="M100.12,-574.38C101.4,-556.34 104.14,-532.43 110,-512 110.86,-509.02 111.75,-506.03 112.68,-503.03"/>
<polygon fill="none" stroke="#404040" points="112.74,-502.85 110.8,-495.91 116.46,-491.44 118.4,-498.38 112.74,-502.85"/>
<text text-anchor="middle" x="149.5" y="-548" font-family="Helvetica,sans-Serif" font-size="10.00"> #bullet_speed_</text>
<text text-anchor="middle" x="149.5" y="-537" font-family="Helvetica,sans-Serif" font-size="10.00">#tank_speed_</text>
<text text-anchor="middle" x="149.5" y="-526" font-family="Helvetica,sans-Serif" font-size="10.00">#x_</text>
<text text-anchor="middle" x="149.5" y="-515" font-family="Helvetica,sans-Serif" font-size="10.00">#y_</text>
</g>
<!-- Node5 -->
<g id="node5" class="node">
<title>Node5</title>
<g id="a_node5"><a xlink:title=" ">
<polygon fill="none" stroke="black" points="153.5,-574.5 153.5,-631.5 230.5,-631.5 230.5,-574.5 153.5,-574.5"/>
<text text-anchor="middle" x="192" y="-619.5" font-family="Helvetica,sans-Serif" font-size="10.00">unsigned int</text>
<polyline fill="none" stroke="black" points="153.5,-612.5 230.5,-612.5 "/>
<text text-anchor="middle" x="192" y="-600.5" font-family="Helvetica,sans-Serif" font-size="10.00"> </text>
<polyline fill="none" stroke="black" points="153.5,-593.5 230.5,-593.5 "/>
<text text-anchor="middle" x="192" y="-581.5" font-family="Helvetica,sans-Serif" font-size="10.00"> </text>
</a>
</g>
</g>
<!-- Node5&#45;&gt;Node2 -->
<g id="edge4" class="edge">
<title>Node5&#45;&gt;Node2</title>
<path fill="none" stroke="#404040" d="M192.87,-574.46C193.42,-556.97 194.19,-532.63 195.04,-505.84"/>
<polygon fill="none" stroke="#404040" points="195.04,-505.79 191.24,-499.67 195.42,-493.8 199.23,-499.92 195.04,-505.79"/>
<text text-anchor="middle" x="216" y="-537" font-family="Helvetica,sans-Serif" font-size="10.00"> #lives_</text>
<text text-anchor="middle" x="216" y="-526" font-family="Helvetica,sans-Serif" font-size="10.00">#points_</text>
</g>
<!-- Node6 -->
<g id="node6" class="node">
<title>Node6</title>
<g id="a_node6"><a xlink:title=" ">
<polygon fill="none" stroke="black" points="248.5,-574.5 248.5,-631.5 309.5,-631.5 309.5,-574.5 248.5,-574.5"/>
<text text-anchor="middle" x="279" y="-619.5" font-family="Helvetica,sans-Serif" font-size="10.00">Direction</text>
<polyline fill="none" stroke="black" points="248.5,-612.5 309.5,-612.5 "/>
<text text-anchor="middle" x="279" y="-600.5" font-family="Helvetica,sans-Serif" font-size="10.00"> </text>
<polyline fill="none" stroke="black" points="248.5,-593.5 309.5,-593.5 "/>
<text text-anchor="middle" x="279" y="-581.5" font-family="Helvetica,sans-Serif" font-size="10.00"> </text>
</a>
</g>
</g>
<!-- Node6&#45;&gt;Node2 -->
<g id="edge5" class="edge">
<title>Node6&#45;&gt;Node2</title>
<path fill="none" stroke="#404040" d="M271.45,-574.46C266.63,-556.89 259.92,-532.41 252.54,-505.48"/>
<polygon fill="none" stroke="#404040" points="252.51,-505.37 247.06,-500.64 249.33,-493.8 254.78,-498.52 252.51,-505.37"/>
<text text-anchor="middle" x="288.5" y="-531.5" font-family="Helvetica,sans-Serif" font-size="10.00"> #facing_</text>
</g>
<!-- Node7 -->
<g id="node7" class="node">
<title>Node7</title>
<g id="a_node7"><a xlink:title=" ">
<polygon fill="none" stroke="black" points="329,-574.5 329,-631.5 367,-631.5 367,-574.5 329,-574.5"/>
<text text-anchor="middle" x="348" y="-619.5" font-family="Helvetica,sans-Serif" font-size="10.00">bool</text>
<polyline fill="none" stroke="black" points="329,-612.5 367,-612.5 "/>
<text text-anchor="middle" x="348" y="-600.5" font-family="Helvetica,sans-Serif" font-size="10.00"> </text>
<polyline fill="none" stroke="black" points="329,-593.5 367,-593.5 "/>
<text text-anchor="middle" x="348" y="-581.5" font-family="Helvetica,sans-Serif" font-size="10.00"> </text>
</a>
</g>
</g>
<!-- Node7&#45;&gt;Node2 -->
<g id="edge6" class="edge">
<title>Node7&#45;&gt;Node2</title>
<path fill="none" stroke="#404040" d="M339.67,-574.28C333.87,-556.2 325.49,-532.28 316,-512 308.53,-496.04 300.14,-479.7 291.39,-463.59"/>
<polygon fill="none" stroke="#404040" points="291.37,-463.57 284.98,-460.24 285.59,-453.05 291.99,-456.38 291.37,-463.57"/>
<text text-anchor="middle" x="360" y="-531.5" font-family="Helvetica,sans-Serif" font-size="10.00"> #moving_</text>
</g>
</g>
</svg>
        <g id="navigator" transform="translate(0 0)" fill="#404254">
                <rect fill="#f2f5e9" fill-opacity="0.5" stroke="#606060" stroke-width=".5" x="0" y="0" width="60" height="60"/>
                <use id="zoomplus" xlink:href="#zoomPlus" x="17" y="9" onmousedown="handleZoom(evt,'in')"/>
                <use id="zoomminus" xlink:href="#zoomMin" x="42" y="9" onmousedown="handleZoom(evt,'out')"/>
                <use id="reset" xlink:href="#resetDef" x="30" y="36" onmousedown="handleReset()"/>
                <g id="arrowUp" xlink:href="#dirArrow" transform="translate(30 24)" onmousedown="handlePan(0,-1)">
                  <use xlink:href="#rim" fill="#404040">
                        <set attributeName="fill" to="#808080" begin="arrowUp.mouseover" end="arrowUp.mouseout"/>
                  </use>
                  <path fill="none" stroke="white" stroke-width="1.5" d="M0,-3.0v7 M-2.5,-0.5L0,-3.0L2.5,-0.5"/>
                </g>
                <g id="arrowRight" xlink:href="#dirArrow" transform="rotate(90) translate(36 -43)" onmousedown="handlePan(1,0)">
                  <use xlink:href="#rim" fill="#404040">
                        <set attributeName="fill" to="#808080" begin="arrowRight.mouseover" end="arrowRight.mouseout"/>
                  </use>
                  <path fill="none" stroke="white" stroke-width="1.5" d="M0,-3.0v7 M-2.5,-0.5L0,-3.0L2.5,-0.5"/>
                </g>
                <g id="arrowDown" xlink:href="#dirArrow" transform="rotate(180) translate(-30 -48)" onmousedown="handlePan(0,1)">
                  <use xlink:href="#rim" fill="#404040">
                        <set attributeName="fill" to="#808080" begin="arrowDown.mouseover" end="arrowDown.mouseout"/>
                  </use>
                  <path fill="none" stroke="white" stroke-width="1.5" d="M0,-3.0v7 M-2.5,-0.5L0,-3.0L2.5,-0.5"/>
                </g>
                <g id="arrowLeft" xlink:href="#dirArrow" transform="rotate(270) translate(-36 17)" onmousedown="handlePan(-1,0)">
                  <use xlink:href="#rim" fill="#404040">
                        <set attributeName="fill" to="#808080" begin="arrowLeft.mouseover" end="arrowLeft.mouseout"/>
                  </use>
                  <path fill="none" stroke="white" stroke-width="1.5" d="M0,-3.0v7 M-2.5,-0.5L0,-3.0L2.5,-0.5"/>
                </g>
        </g>
        <svg viewBox="0 0 15 15" width="100%" height="30px" preserveAspectRatio="xMaxYMin meet">
         <g id="arrow_out" transform="scale(0.3 0.3)">
          <a xlink:href="class_player_tank__coll__graph_org.svg" target="_base">
           <rect id="button" ry="5" rx="5" y="6" x="6" height="38" width="38"
                fill="#f2f5e9" fill-opacity="0.5" stroke="#606060" stroke-width="1.0"/>
           <path id="arrow"
             d="M 11.500037,31.436501 C 11.940474,20.09759 22.043105,11.32322 32.158766,21.979434 L 37.068811,17.246167 C 37.068811,17.246167 37.088388,32 37.088388,32 L 22.160133,31.978069 C 22.160133,31.978069 26.997745,27.140456 26.997745,27.140456 C 18.528582,18.264221 13.291696,25.230495 11.500037,31.436501 z"
             style="fill:#404040;"/>
          </a>
         </g>
        </svg>
</svg>
