<?xml version="1.0" encoding="UTF-8" standalone="no"?>
<!DOCTYPE svg PUBLIC "-//W3C//DTD SVG 1.1//EN"
 "http://www.w3.org/Graphics/SVG/1.1/DTD/svg11.dtd">
<!-- Generated by graphviz version 2.43.0 (0)
 -->
<!-- Title: PlayerTank Pages: 1 -->
<!--zoomable 943 -->
<svg id="main" version="1.1" xmlns="http://www.w3.org/2000/svg" xmlns:xlink="http://www.w3.org/1999/xlink" xml:space="preserve" onload="init(evt)">
<style type="text/css"><![CDATA[
.edge:hover path { stroke: red; }
.edge:hover polygon { stroke: red; fill: red; }
]]></style>
<script type="text/javascript"><![CDATA[
var edges = document.getElementsByTagName('g');
if (edges && edges.length) {
  for (var i=0;i<edges.length;i++) {
    if (edges[i].id.substr(0,4)=='edge') {
      edges[i].setAttribute('class','edge');
    }
  }
}
]]></script>
        <defs>
                <circle id="rim" cx="0" cy="0" r="7"/>
                <circle id="rim2" cx="0" cy="0" r="3.5"/>
                <g id="zoomPlus">
                        <use xlink:href="#rim" target="_top" fill="#404040">
                                <set attributeName="fill" to="#808080" begin="zoomplus.mouseover" end="zoomplus.mouseout"/>
                        </use>
                        <path d="M-4,0h8M0,-4v8" fill="none" stroke="white" stroke-width="1.5" pointer-events="none"/>
                </g>
                <g id="zoomMin">
                        <use xlink:href="#rim" target="_top" fill="#404040">
                                <set attributeName="fill" to="#808080" begin="zoomminus.mouseover" end="zoomminus.mouseout"/>
                        </use>
                        <path d="M-4,0h8" fill="none" stroke="white" stroke-width="1.5" pointer-events="none"/>
                </g>
                <g id="dirArrow">
                        <path fill="none" stroke="white" stroke-width="1.5" d="M0,-3.0v7 M-2.5,-0.5L0,-3.0L2.5,-0.5"/>
                </g>
               <g id="resetDef">
                       <use xlink:href="#rim2" target="_top" fill="#404040">
                               <set attributeName="fill" to="#808080" begin="reset.mouseover" end="reset.mouseout"/>
                       </use>
               </g>
        </defs>

<script type="text/javascript">
var viewWidth = 726;
var viewHeight = 943;
var sectionId = 'dynsection-1';
</script>
<script xlink:href="svgpan.js" target="_top"/>
<svg id="graph" class="graph">
<g id="viewport">
<title>PlayerTank</title>
<!-- Node1 -->
<g id="node1" class="node">
<title>Node1</title>
<g id="a_node1"><a xlink:title=" ">
<polygon fill="#bfbfbf" stroke="black" points="433.73,-0.5 433.73,-90.5 561.73,-90.5 561.73,-0.5 433.73,-0.5"/>
<text text-anchor="middle" x="497.73" y="-78.5" font-family="Helvetica,sans-Serif" font-size="10.00">PlayerTank</text>
<polyline fill="none" stroke="black" points="433.73,-71.5 561.73,-71.5 "/>
<text text-anchor="middle" x="497.73" y="-59.5" font-family="Helvetica,sans-Serif" font-size="10.00"> </text>
<polyline fill="none" stroke="black" points="433.73,-52.5 561.73,-52.5 "/>
<text text-anchor="start" x="441.73" y="-40.5" font-family="Helvetica,sans-Serif" font-size="10.00">+ PlayerTank()=delete</text>
<text text-anchor="start" x="441.73" y="-29.5" font-family="Helvetica,sans-Serif" font-size="10.00">+ PlayerTank(float x,</text>
<text text-anchor="start" x="441.73" y="-18.5" font-family="Helvetica,sans-Serif" font-size="10.00"> float y, Direction</text>
<text text-anchor="start" x="441.73" y="-7.5" font-family="Helvetica,sans-Serif" font-size="10.00"> facing=North)</text>
</a>
</g>
</g>
<!-- Node2 -->
<g id="node2" class="node">
<title>Node2</title>
<g id="a_node2"><a xlink:href="class_tank.html" target="_top" target="_top" xlink:title="Base class for tank representation.">
<polygon fill="none" stroke="black" points="413.23,-128.5 413.23,-515.5 582.23,-515.5 582.23,-128.5 413.23,-128.5"/>
<text text-anchor="middle" x="497.73" y="-503.5" font-family="Helvetica,sans-Serif" font-size="10.00">Tank</text>
<polyline fill="none" stroke="black" points="413.23,-496.5 582.23,-496.5 "/>
<text text-anchor="middle" x="497.73" y="-484.5" font-family="Helvetica,sans-Serif" font-size="10.00"> </text>
<polyline fill="none" stroke="black" points="413.23,-477.5 582.23,-477.5 "/>
<text text-anchor="start" x="421.23" y="-465.5" font-family="Helvetica,sans-Serif" font-size="10.00">+ void setFacing(Direction</text>
<text text-anchor="start" x="421.23" y="-454.5" font-family="Helvetica,sans-Serif" font-size="10.00"> direction)</text>
<text text-anchor="start" x="421.23" y="-443.5" font-family="Helvetica,sans-Serif" font-size="10.00">+ bool move() override</text>
<text text-anchor="start" x="421.23" y="-432.5" font-family="Helvetica,sans-Serif" font-size="10.00">+ bool moveBack() override</text>
<text text-anchor="start" x="421.23" y="-421.5" font-family="Helvetica,sans-Serif" font-size="10.00">+ void deltaLives(int</text>
<text text-anchor="start" x="421.23" y="-410.5" font-family="Helvetica,sans-Serif" font-size="10.00"> delta_l)</text>
<text text-anchor="start" x="421.23" y="-399.5" font-family="Helvetica,sans-Serif" font-size="10.00">+ TankType getType()</text>
<text text-anchor="start" x="421.23" y="-388.5" font-family="Helvetica,sans-Serif" font-size="10.00"> const</text>
<text text-anchor="start" x="421.23" y="-377.5" font-family="Helvetica,sans-Serif" font-size="10.00">+ unsigned int getLives</text>
<text text-anchor="start" x="421.23" y="-366.5" font-family="Helvetica,sans-Serif" font-size="10.00">() const</text>
<text text-anchor="start" x="421.23" y="-355.5" font-family="Helvetica,sans-Serif" font-size="10.00">+ void setMoving(bool</text>
<text text-anchor="start" x="421.23" y="-344.5" font-family="Helvetica,sans-Serif" font-size="10.00"> isMoving)</text>
<text text-anchor="start" x="421.23" y="-333.5" font-family="Helvetica,sans-Serif" font-size="10.00">+ bool isMoving() const</text>
<text text-anchor="start" x="421.23" y="-322.5" font-family="Helvetica,sans-Serif" font-size="10.00">+ unsigned int getPoints</text>
<text text-anchor="start" x="421.23" y="-311.5" font-family="Helvetica,sans-Serif" font-size="10.00">() const</text>
<text text-anchor="start" x="421.23" y="-300.5" font-family="Helvetica,sans-Serif" font-size="10.00">+ void setX(float x)</text>
<text text-anchor="start" x="421.23" y="-289.5" font-family="Helvetica,sans-Serif" font-size="10.00">+ void setY(float y)</text>
<text text-anchor="start" x="421.23" y="-278.5" font-family="Helvetica,sans-Serif" font-size="10.00">+ void offsetInCurrentDirection</text>
<text text-anchor="start" x="421.23" y="-267.5" font-family="Helvetica,sans-Serif" font-size="10.00">(float offset)</text>
<text text-anchor="start" x="421.23" y="-256.5" font-family="Helvetica,sans-Serif" font-size="10.00">+ std::optional&lt; std</text>
<text text-anchor="start" x="421.23" y="-245.5" font-family="Helvetica,sans-Serif" font-size="10.00">::shared_ptr&lt; Bullet</text>
<text text-anchor="start" x="421.23" y="-234.5" font-family="Helvetica,sans-Serif" font-size="10.00"> &gt; &gt; createBullet()</text>
<text text-anchor="start" x="421.23" y="-223.5" font-family="Helvetica,sans-Serif" font-size="10.00">+ void notify(SimplePublisher</text>
<text text-anchor="start" x="421.23" y="-212.5" font-family="Helvetica,sans-Serif" font-size="10.00"> *pub) override</text>
<text text-anchor="start" x="421.23" y="-201.5" font-family="Helvetica,sans-Serif" font-size="10.00">+ std::optional&lt; Bullet</text>
<text text-anchor="start" x="421.23" y="-190.5" font-family="Helvetica,sans-Serif" font-size="10.00"> * &gt; getBullet()</text>
<text text-anchor="start" x="421.23" y="-179.5" font-family="Helvetica,sans-Serif" font-size="10.00"># Tank(TankType type,</text>
<text text-anchor="start" x="421.23" y="-168.5" font-family="Helvetica,sans-Serif" font-size="10.00"> float x, float y, float</text>
<text text-anchor="start" x="421.23" y="-157.5" font-family="Helvetica,sans-Serif" font-size="10.00"> speed, float bulletSpeed,</text>
<text text-anchor="start" x="421.23" y="-146.5" font-family="Helvetica,sans-Serif" font-size="10.00"> unsigned int lives, Direction</text>
<text text-anchor="start" x="421.23" y="-135.5" font-family="Helvetica,sans-Serif" font-size="10.00"> direction, unsigned int points)</text>
</a>
</g>
</g>
<!-- Node2&#45;&gt;Node1 -->
<g id="edge1" class="edge">
<title>Node2&#45;&gt;Node1</title>
<path fill="none" stroke="midnightblue" d="M497.73,-118.43C497.73,-108.56 497.73,-99.27 497.73,-90.87"/>
<polygon fill="none" stroke="midnightblue" points="494.23,-118.49 497.73,-128.49 501.23,-118.49 494.23,-118.49"/>
</g>
<!-- Node3 -->
<g id="node3" class="node">
<title>Node3</title>
<g id="a_node3"><a xlink:href="class_entity.html" target="_top" target="_top" xlink:title=" ">
<polygon fill="none" stroke="black" points="113.73,-574.5 113.73,-785.5 273.73,-785.5 273.73,-574.5 113.73,-574.5"/>
<text text-anchor="middle" x="193.73" y="-773.5" font-family="Helvetica,sans-Serif" font-size="10.00">Entity</text>
<polyline fill="none" stroke="black" points="113.73,-766.5 273.73,-766.5 "/>
<text text-anchor="middle" x="193.73" y="-754.5" font-family="Helvetica,sans-Serif" font-size="10.00"> </text>
<polyline fill="none" stroke="black" points="113.73,-747.5 273.73,-747.5 "/>
<text text-anchor="start" x="121.73" y="-735.5" font-family="Helvetica,sans-Serif" font-size="10.00">+ virtual ~Entity()=default</text>
<text text-anchor="start" x="121.73" y="-724.5" font-family="Helvetica,sans-Serif" font-size="10.00">+ virtual bool move()=0</text>
<text text-anchor="start" x="121.73" y="-713.5" font-family="Helvetica,sans-Serif" font-size="10.00">+ virtual bool moveBack()=0</text>
<text text-anchor="start" x="121.73" y="-702.5" font-family="Helvetica,sans-Serif" font-size="10.00">+ float getX() const</text>
<text text-anchor="start" x="121.73" y="-691.5" font-family="Helvetica,sans-Serif" font-size="10.00">+ float getY() const</text>
<text text-anchor="start" x="121.73" y="-680.5" font-family="Helvetica,sans-Serif" font-size="10.00">+ float getSpeed() const</text>
<text text-anchor="start" x="121.73" y="-669.5" font-family="Helvetica,sans-Serif" font-size="10.00">+ Direction getFacing</text>
<text text-anchor="start" x="121.73" y="-658.5" font-family="Helvetica,sans-Serif" font-size="10.00">() const</text>
<text text-anchor="start" x="121.73" y="-647.5" font-family="Helvetica,sans-Serif" font-size="10.00">+ float getSizeX() const</text>
<text text-anchor="start" x="121.73" y="-636.5" font-family="Helvetica,sans-Serif" font-size="10.00">+ float getSizeY() const</text>
<text text-anchor="start" x="121.73" y="-625.5" font-family="Helvetica,sans-Serif" font-size="10.00"># Entity()=default</text>
<text text-anchor="start" x="121.73" y="-614.5" font-family="Helvetica,sans-Serif" font-size="10.00"># Entity(float x, float</text>
<text text-anchor="start" x="121.73" y="-603.5" font-family="Helvetica,sans-Serif" font-size="10.00"> y, float sizeX, float</text>
<text text-anchor="start" x="121.73" y="-592.5" font-family="Helvetica,sans-Serif" font-size="10.00"> sizeY, float speed, Direction</text>
<text text-anchor="start" x="121.73" y="-581.5" font-family="Helvetica,sans-Serif" font-size="10.00"> facing)</text>
</a>
</g>
</g>
<!-- Node3&#45;&gt;Node2 -->
<g id="edge2" class="edge">
<title>Node3&#45;&gt;Node2</title>
<path fill="none" stroke="midnightblue" d="M280.51,-576.6C281.25,-575.73 281.99,-574.86 282.73,-574 325.62,-523.67 373.46,-467.78 413.11,-421.54"/>
<polygon fill="none" stroke="midnightblue" points="277.58,-574.65 273.76,-584.54 282.91,-579.19 277.58,-574.65"/>
</g>
<!-- Node4 -->
<g id="node4" class="node">
<title>Node4</title>
<g id="a_node4"><a xlink:title=" ">
<polygon fill="none" stroke="black" points="27.73,-877.5 27.73,-934.5 65.73,-934.5 65.73,-877.5 27.73,-877.5"/>
<text text-anchor="middle" x="46.73" y="-922.5" font-family="Helvetica,sans-Serif" font-size="10.00">float</text>
<polyline fill="none" stroke="black" points="27.73,-915.5 65.73,-915.5 "/>
<text text-anchor="middle" x="46.73" y="-903.5" font-family="Helvetica,sans-Serif" font-size="10.00"> </text>
<polyline fill="none" stroke="black" points="27.73,-896.5 65.73,-896.5 "/>
<text text-anchor="middle" x="46.73" y="-884.5" font-family="Helvetica,sans-Serif" font-size="10.00"> </text>
</a>
</g>
</g>
<!-- Node4&#45;&gt;Node2 -->
<g id="edge10" class="edge">
<title>Node4&#45;&gt;Node2</title>
<path fill="none" stroke="#404040" d="M35.66,-877.24C13.6,-817.04 -28.92,-672.01 29.73,-574 110.01,-439.85 289.28,-373.29 401.17,-343.64"/>
<polygon fill="none" stroke="#404040" points="401.51,-343.55 406.31,-338.17 413.12,-340.54 408.32,-345.92 401.51,-343.55"/>
<text text-anchor="middle" x="67.23" y="-677.5" font-family="Helvetica,sans-Serif" font-size="10.00"> #bulletSpeed_</text>
</g>
<!-- Node4&#45;&gt;Node3 -->
<g id="edge3" class="edge">
<title>Node4&#45;&gt;Node3</title>
<path fill="none" stroke="#404040" d="M65.05,-877.08C78.74,-856.22 98.45,-826.18 118.35,-795.87"/>
<polygon fill="none" stroke="#404040" points="118.51,-795.62 118.46,-788.41 125.09,-785.59 125.15,-792.8 118.51,-795.62"/>
<text text-anchor="middle" x="135.73" y="-851" font-family="Helvetica,sans-Serif" font-size="10.00"> #size_x_</text>
<text text-anchor="middle" x="135.73" y="-840" font-family="Helvetica,sans-Serif" font-size="10.00">#size_y_</text>
<text text-anchor="middle" x="135.73" y="-829" font-family="Helvetica,sans-Serif" font-size="10.00">#speed_</text>
<text text-anchor="middle" x="135.73" y="-818" font-family="Helvetica,sans-Serif" font-size="10.00">#x_</text>
<text text-anchor="middle" x="135.73" y="-807" font-family="Helvetica,sans-Serif" font-size="10.00">#y_</text>
</g>
<!-- Node5 -->
<g id="node5" class="node">
<title>Node5</title>
<g id="a_node5"><a xlink:title=" ">
<polygon fill="none" stroke="black" points="163.23,-877.5 163.23,-934.5 224.23,-934.5 224.23,-877.5 163.23,-877.5"/>
<text text-anchor="middle" x="193.73" y="-922.5" font-family="Helvetica,sans-Serif" font-size="10.00">Direction</text>
<polyline fill="none" stroke="black" points="163.23,-915.5 224.23,-915.5 "/>
<text text-anchor="middle" x="193.73" y="-903.5" font-family="Helvetica,sans-Serif" font-size="10.00"> </text>
<polyline fill="none" stroke="black" points="163.23,-896.5 224.23,-896.5 "/>
<text text-anchor="middle" x="193.73" y="-884.5" font-family="Helvetica,sans-Serif" font-size="10.00"> </text>
</a>
</g>
</g>
<!-- Node5&#45;&gt;Node3 -->
<g id="edge4" class="edge">
<title>Node5&#45;&gt;Node3</title>
<path fill="none" stroke="#404040" d="M193.73,-877.08C193.73,-856.67 193.73,-827.49 193.73,-797.84"/>
<polygon fill="none" stroke="#404040" points="193.73,-797.59 189.73,-791.59 193.73,-785.59 197.73,-791.59 193.73,-797.59"/>
<text text-anchor="middle" x="217.23" y="-829" font-family="Helvetica,sans-Serif" font-size="10.00"> #facing_</text>
</g>
<!-- Node6 -->
<g id="node6" class="node">
<title>Node6</title>
<g id="a_node6"><a xlink:href="class_simple_subscriber.html" target="_top" target="_top" xlink:title=" ">
<polygon fill="none" stroke="black" points="292.23,-596.5 292.23,-763.5 485.23,-763.5 485.23,-596.5 292.23,-596.5"/>
<text text-anchor="middle" x="388.73" y="-751.5" font-family="Helvetica,sans-Serif" font-size="10.00">SimpleSubscriber</text>
<polyline fill="none" stroke="black" points="292.23,-744.5 485.23,-744.5 "/>
<text text-anchor="middle" x="388.73" y="-732.5" font-family="Helvetica,sans-Serif" font-size="10.00"> </text>
<polyline fill="none" stroke="black" points="292.23,-725.5 485.23,-725.5 "/>
<text text-anchor="start" x="300.23" y="-713.5" font-family="Helvetica,sans-Serif" font-size="10.00">+ ~SimpleSubscriber()</text>
<text text-anchor="start" x="300.23" y="-702.5" font-family="Helvetica,sans-Serif" font-size="10.00">+ void subscribe(SimplePublisher</text>
<text text-anchor="start" x="300.23" y="-691.5" font-family="Helvetica,sans-Serif" font-size="10.00"> *pub)</text>
<text text-anchor="start" x="300.23" y="-680.5" font-family="Helvetica,sans-Serif" font-size="10.00">+ void unsubscribe(SimplePublisher</text>
<text text-anchor="start" x="300.23" y="-669.5" font-family="Helvetica,sans-Serif" font-size="10.00"> *pub)</text>
<text text-anchor="start" x="300.23" y="-658.5" font-family="Helvetica,sans-Serif" font-size="10.00">+ void removeDeletedSubject</text>
<text text-anchor="start" x="300.23" y="-647.5" font-family="Helvetica,sans-Serif" font-size="10.00">(SimplePublisher *pub)</text>
<text text-anchor="start" x="300.23" y="-636.5" font-family="Helvetica,sans-Serif" font-size="10.00">+ virtual void notify</text>
<text text-anchor="start" x="300.23" y="-625.5" font-family="Helvetica,sans-Serif" font-size="10.00">(SimplePublisher *pub)=0</text>
<text text-anchor="start" x="300.23" y="-614.5" font-family="Helvetica,sans-Serif" font-size="10.00"># SimpleSubscriber()</text>
<text text-anchor="start" x="300.23" y="-603.5" font-family="Helvetica,sans-Serif" font-size="10.00">=default</text>
</a>
</g>
</g>
<!-- Node6&#45;&gt;Node2 -->
<g id="edge5" class="edge">
<title>Node6&#45;&gt;Node2</title>
<path fill="none" stroke="midnightblue" d="M416.95,-586.82C423.69,-564.8 431.14,-540.48 438.7,-515.78"/>
<polygon fill="none" stroke="midnightblue" points="413.59,-585.85 414.01,-596.43 420.28,-587.89 413.59,-585.85"/>
</g>
<!-- Node7 -->
<g id="node7" class="node">
<title>Node7</title>
<g id="a_node7"><a xlink:title=" ">
<polygon fill="none" stroke="black" points="310.23,-877.5 310.23,-934.5 467.23,-934.5 467.23,-877.5 310.23,-877.5"/>
<text text-anchor="middle" x="388.73" y="-922.5" font-family="Helvetica,sans-Serif" font-size="10.00">vector&lt; SimplePublisher * &gt;</text>
<polyline fill="none" stroke="black" points="310.23,-915.5 467.23,-915.5 "/>
<text text-anchor="middle" x="388.73" y="-903.5" font-family="Helvetica,sans-Serif" font-size="10.00"> </text>
<polyline fill="none" stroke="black" points="310.23,-896.5 467.23,-896.5 "/>
<text text-anchor="middle" x="388.73" y="-884.5" font-family="Helvetica,sans-Serif" font-size="10.00"> </text>
</a>
</g>
</g>
<!-- Node7&#45;&gt;Node6 -->
<g id="edge6" class="edge">
<title>Node7&#45;&gt;Node6</title>
<path fill="none" stroke="#404040" d="M388.73,-877.08C388.73,-851.69 388.73,-812.71 388.73,-776.17"/>
<polygon fill="none" stroke="#404040" points="388.73,-775.89 384.73,-769.89 388.73,-763.89 392.73,-769.89 388.73,-775.89"/>
<text text-anchor="middle" x="444.23" y="-829" font-family="Helvetica,sans-Serif" font-size="10.00"> #subscribedSubjects_</text>
</g>
<!-- Node8 -->
<g id="node8" class="node">
<title>Node8</title>
<g id="a_node8"><a xlink:title=" ">
<polygon fill="none" stroke="black" points="503.73,-651.5 503.73,-708.5 565.73,-708.5 565.73,-651.5 503.73,-651.5"/>
<text text-anchor="middle" x="534.73" y="-696.5" font-family="Helvetica,sans-Serif" font-size="10.00">TankType</text>
<polyline fill="none" stroke="black" points="503.73,-689.5 565.73,-689.5 "/>
<text text-anchor="middle" x="534.73" y="-677.5" font-family="Helvetica,sans-Serif" font-size="10.00"> </text>
<polyline fill="none" stroke="black" points="503.73,-670.5 565.73,-670.5 "/>
<text text-anchor="middle" x="534.73" y="-658.5" font-family="Helvetica,sans-Serif" font-size="10.00"> </text>
</a>
</g>
</g>
<!-- Node8&#45;&gt;Node2 -->
<g id="edge7" class="edge">
<title>Node8&#45;&gt;Node2</title>
<path fill="none" stroke="#404040" d="M531.86,-651.36C528.94,-623.29 524.14,-577.08 519.04,-528.06"/>
<polygon fill="none" stroke="#404040" points="519.02,-527.82 514.42,-522.27 517.78,-515.89 522.38,-521.44 519.02,-527.82"/>
<text text-anchor="middle" x="540.23" y="-542.5" font-family="Helvetica,sans-Serif" font-size="10.00"> #type_</text>
</g>
<!-- Node9 -->
<g id="node9" class="node">
<title>Node9</title>
<g id="a_node9"><a xlink:title=" ">
<polygon fill="none" stroke="black" points="584.23,-651.5 584.23,-708.5 661.23,-708.5 661.23,-651.5 584.23,-651.5"/>
<text text-anchor="middle" x="622.73" y="-696.5" font-family="Helvetica,sans-Serif" font-size="10.00">unsigned int</text>
<polyline fill="none" stroke="black" points="584.23,-689.5 661.23,-689.5 "/>
<text text-anchor="middle" x="622.73" y="-677.5" font-family="Helvetica,sans-Serif" font-size="10.00"> </text>
<polyline fill="none" stroke="black" points="584.23,-670.5 661.23,-670.5 "/>
<text text-anchor="middle" x="622.73" y="-658.5" font-family="Helvetica,sans-Serif" font-size="10.00"> </text>
</a>
</g>
</g>
<!-- Node9&#45;&gt;Node2 -->
<g id="edge8" class="edge">
<title>Node9&#45;&gt;Node2</title>
<path fill="none" stroke="#404040" d="M613.02,-651.36C603.13,-623.17 586.8,-576.68 569.51,-527.44"/>
<polygon fill="none" stroke="#404040" points="569.43,-527.21 563.67,-522.87 565.46,-515.89 571.22,-520.22 569.43,-527.21"/>
<text text-anchor="middle" x="600.73" y="-548" font-family="Helvetica,sans-Serif" font-size="10.00"> #lives_</text>
<text text-anchor="middle" x="600.73" y="-537" font-family="Helvetica,sans-Serif" font-size="10.00">#points_</text>
</g>
<!-- Node10 -->
<g id="node10" class="node">
<title>Node10</title>
<g id="a_node10"><a xlink:title=" ">
<polygon fill="none" stroke="black" points="679.73,-651.5 679.73,-708.5 717.73,-708.5 717.73,-651.5 679.73,-651.5"/>
<text text-anchor="middle" x="698.73" y="-696.5" font-family="Helvetica,sans-Serif" font-size="10.00">bool</text>
<polyline fill="none" stroke="black" points="679.73,-689.5 717.73,-689.5 "/>
<text text-anchor="middle" x="698.73" y="-677.5" font-family="Helvetica,sans-Serif" font-size="10.00"> </text>
<polyline fill="none" stroke="black" points="679.73,-670.5 717.73,-670.5 "/>
<text text-anchor="middle" x="698.73" y="-658.5" font-family="Helvetica,sans-Serif" font-size="10.00"> </text>
</a>
</g>
</g>
<!-- Node10&#45;&gt;Node2 -->
<g id="edge9" class="edge">
<title>Node10&#45;&gt;Node2</title>
<path fill="none" stroke="#404040" d="M694.05,-651.36C689.75,-629.65 682.26,-599.01 670.73,-574 649.03,-526.95 618.63,-479.17 589.35,-438.11"/>
<polygon fill="none" stroke="#404040" points="589.35,-438.11 582.6,-435.58 582.34,-428.37 589.09,-430.9 589.35,-438.11"/>
<text text-anchor="middle" x="686.73" y="-542.5" font-family="Helvetica,sans-Serif" font-size="10.00"> #moving_</text>
</g>
</g>
</svg>
        <g id="navigator" transform="translate(0 0)" fill="#404254">
                <rect fill="#f2f5e9" fill-opacity="0.5" stroke="#606060" stroke-width=".5" x="0" y="0" width="60" height="60"/>
                <use id="zoomplus" xlink:href="#zoomPlus" target="_top" x="17" y="9" onmousedown="handleZoom(evt,'in')"/>
                <use id="zoomminus" xlink:href="#zoomMin" target="_top" x="42" y="9" onmousedown="handleZoom(evt,'out')"/>
                <use id="reset" xlink:href="#resetDef" target="_top" x="30" y="36" onmousedown="handleReset()"/>
                <g id="arrowUp" xlink:href="#dirArrow" target="_top" transform="translate(30 24)" onmousedown="handlePan(0,-1)">
                  <use xlink:href="#rim" target="_top" fill="#404040">
                        <set attributeName="fill" to="#808080" begin="arrowUp.mouseover" end="arrowUp.mouseout"/>
                  </use>
                  <path fill="none" stroke="white" stroke-width="1.5" d="M0,-3.0v7 M-2.5,-0.5L0,-3.0L2.5,-0.5"/>
                </g>
                <g id="arrowRight" xlink:href="#dirArrow" target="_top" transform="rotate(90) translate(36 -43)" onmousedown="handlePan(1,0)">
                  <use xlink:href="#rim" target="_top" fill="#404040">
                        <set attributeName="fill" to="#808080" begin="arrowRight.mouseover" end="arrowRight.mouseout"/>
                  </use>
                  <path fill="none" stroke="white" stroke-width="1.5" d="M0,-3.0v7 M-2.5,-0.5L0,-3.0L2.5,-0.5"/>
                </g>
                <g id="arrowDown" xlink:href="#dirArrow" target="_top" transform="rotate(180) translate(-30 -48)" onmousedown="handlePan(0,1)">
                  <use xlink:href="#rim" target="_top" fill="#404040">
                        <set attributeName="fill" to="#808080" begin="arrowDown.mouseover" end="arrowDown.mouseout"/>
                  </use>
                  <path fill="none" stroke="white" stroke-width="1.5" d="M0,-3.0v7 M-2.5,-0.5L0,-3.0L2.5,-0.5"/>
                </g>
                <g id="arrowLeft" xlink:href="#dirArrow" target="_top" transform="rotate(270) translate(-36 17)" onmousedown="handlePan(-1,0)">
                  <use xlink:href="#rim" target="_top" fill="#404040">
                        <set attributeName="fill" to="#808080" begin="arrowLeft.mouseover" end="arrowLeft.mouseout"/>
                  </use>
                  <path fill="none" stroke="white" stroke-width="1.5" d="M0,-3.0v7 M-2.5,-0.5L0,-3.0L2.5,-0.5"/>
                </g>
        </g>
        <svg viewBox="0 0 15 15" width="100%" height="30px" preserveAspectRatio="xMaxYMin meet">
         <g id="arrow_out" transform="scale(0.3 0.3)">
          <a xlink:href="class_player_tank__coll__graph_org.svg" target="_top" target="_base">
           <rect id="button" ry="5" rx="5" y="6" x="6" height="38" width="38"
                fill="#f2f5e9" fill-opacity="0.5" stroke="#606060" stroke-width="1.0"/>
           <path id="arrow"
             d="M 11.500037,31.436501 C 11.940474,20.09759 22.043105,11.32322 32.158766,21.979434 L 37.068811,17.246167 C 37.068811,17.246167 37.088388,32 37.088388,32 L 22.160133,31.978069 C 22.160133,31.978069 26.997745,27.140456 26.997745,27.140456 C 18.528582,18.264221 13.291696,25.230495 11.500037,31.436501 z"
             style="fill:#404040;"/>
          </a>
         </g>
        </svg>
</svg>
