<?xml version="1.0" encoding="UTF-8" standalone="no"?>
<!DOCTYPE svg PUBLIC "-//W3C//DTD SVG 1.1//EN"
 "http://www.w3.org/Graphics/SVG/1.1/DTD/svg11.dtd">
<!-- Generated by graphviz version 2.43.0 (0)
 -->
<!-- Title: Game Pages: 1 -->
<svg width="1437pt" height="1146pt"
 viewBox="0.00 0.00 1436.50 1146.00" xmlns="http://www.w3.org/2000/svg" xmlns:xlink="http://www.w3.org/1999/xlink">
<g id="graph0" class="graph" transform="scale(1 1) rotate(0) translate(4 1142)">
<title>Game</title>
<!-- Node1 -->
<g id="node1" class="node">
<title>Node1</title>
<g id="a_node1"><a xlink:title=" ">
<polygon fill="#bfbfbf" stroke="black" points="595,-182.5 595,-470.5 759,-470.5 759,-182.5 595,-182.5"/>
<text text-anchor="middle" x="677" y="-458.5" font-family="Helvetica,sans-Serif" font-size="10.00">Game</text>
<polyline fill="none" stroke="black" points="595,-451.5 759,-451.5 "/>
<text text-anchor="middle" x="677" y="-439.5" font-family="Helvetica,sans-Serif" font-size="10.00"> </text>
<polyline fill="none" stroke="black" points="595,-432.5 759,-432.5 "/>
<text text-anchor="start" x="603" y="-420.5" font-family="Helvetica,sans-Serif" font-size="10.00">+ Game()=delete</text>
<text text-anchor="start" x="603" y="-409.5" font-family="Helvetica,sans-Serif" font-size="10.00">+ Game(unsigned int</text>
<text text-anchor="start" x="603" y="-398.5" font-family="Helvetica,sans-Serif" font-size="10.00"> clockFreq)</text>
<text text-anchor="start" x="603" y="-387.5" font-family="Helvetica,sans-Serif" font-size="10.00">+ void run()</text>
<text text-anchor="start" x="603" y="-376.5" font-family="Helvetica,sans-Serif" font-size="10.00">+ void setActiveState()</text>
<text text-anchor="start" x="603" y="-365.5" font-family="Helvetica,sans-Serif" font-size="10.00">+ void setFinishedState()</text>
<text text-anchor="start" x="603" y="-354.5" font-family="Helvetica,sans-Serif" font-size="10.00">+ void setPauseState()</text>
<text text-anchor="start" x="603" y="-343.5" font-family="Helvetica,sans-Serif" font-size="10.00">+ void setMenuState()</text>
<text text-anchor="start" x="603" y="-332.5" font-family="Helvetica,sans-Serif" font-size="10.00">+ void quit()</text>
<text text-anchor="start" x="603" y="-321.5" font-family="Helvetica,sans-Serif" font-size="10.00">+ GameState * getState()</text>
<text text-anchor="start" x="603" y="-310.5" font-family="Helvetica,sans-Serif" font-size="10.00">+ GameStatistics * getStats()</text>
<text text-anchor="start" x="603" y="-299.5" font-family="Helvetica,sans-Serif" font-size="10.00"># void setup()</text>
<text text-anchor="start" x="603" y="-288.5" font-family="Helvetica,sans-Serif" font-size="10.00"># void initStates()</text>
<text text-anchor="start" x="603" y="-277.5" font-family="Helvetica,sans-Serif" font-size="10.00"># void initComponents()</text>
<text text-anchor="start" x="603" y="-266.5" font-family="Helvetica,sans-Serif" font-size="10.00"># void initScoreboard()</text>
<text text-anchor="start" x="603" y="-255.5" font-family="Helvetica,sans-Serif" font-size="10.00"># void initUI()</text>
<text text-anchor="start" x="603" y="-244.5" font-family="Helvetica,sans-Serif" font-size="10.00"># void start()</text>
<text text-anchor="start" x="603" y="-233.5" font-family="Helvetica,sans-Serif" font-size="10.00"># void reset()</text>
<text text-anchor="start" x="603" y="-222.5" font-family="Helvetica,sans-Serif" font-size="10.00"># void prepareLevel(unsigned</text>
<text text-anchor="start" x="603" y="-211.5" font-family="Helvetica,sans-Serif" font-size="10.00"> int levelNum)</text>
<text text-anchor="start" x="603" y="-200.5" font-family="Helvetica,sans-Serif" font-size="10.00"># void end()</text>
<text text-anchor="start" x="603" y="-189.5" font-family="Helvetica,sans-Serif" font-size="10.00"># void redrawUI()</text>
</a>
</g>
</g>
<!-- Node3 -->
<g id="node3" class="node">
<title>Node3</title>
<g id="a_node3"><a xlink:href="class_game_state.html" target="_top" xlink:title=" ">
<polygon fill="none" stroke="black" points="539.5,-0.5 539.5,-134.5 678.5,-134.5 678.5,-0.5 539.5,-0.5"/>
<text text-anchor="middle" x="609" y="-122.5" font-family="Helvetica,sans-Serif" font-size="10.00">GameState</text>
<polyline fill="none" stroke="black" points="539.5,-115.5 678.5,-115.5 "/>
<text text-anchor="middle" x="609" y="-103.5" font-family="Helvetica,sans-Serif" font-size="10.00"> </text>
<polyline fill="none" stroke="black" points="539.5,-96.5 678.5,-96.5 "/>
<text text-anchor="start" x="547.5" y="-84.5" font-family="Helvetica,sans-Serif" font-size="10.00">+ virtual ~GameState</text>
<text text-anchor="start" x="547.5" y="-73.5" font-family="Helvetica,sans-Serif" font-size="10.00">()=default</text>
<text text-anchor="start" x="547.5" y="-62.5" font-family="Helvetica,sans-Serif" font-size="10.00">+ PublisherEventHandler</text>
<text text-anchor="start" x="547.5" y="-51.5" font-family="Helvetica,sans-Serif" font-size="10.00"> * getEventHandler()</text>
<text text-anchor="start" x="547.5" y="-40.5" font-family="Helvetica,sans-Serif" font-size="10.00"># GameState(Game *n</text>
<text text-anchor="start" x="547.5" y="-29.5" font-family="Helvetica,sans-Serif" font-size="10.00">_game, std::unique_ptr</text>
<text text-anchor="start" x="547.5" y="-18.5" font-family="Helvetica,sans-Serif" font-size="10.00">&lt; PublisherEventHandler</text>
<text text-anchor="start" x="547.5" y="-7.5" font-family="Helvetica,sans-Serif" font-size="10.00"> &gt; n_eventHandler)</text>
</a>
</g>
</g>
<!-- Node1&#45;&gt;Node3 -->
<g id="edge4" class="edge">
<title>Node1&#45;&gt;Node3</title>
<path fill="none" stroke="#404040" d="M610.44,-182.09C608.76,-176.04 607.26,-169.99 606,-164 604.83,-158.41 604.02,-152.6 603.51,-146.72"/>
<polygon fill="none" stroke="#404040" points="603.5,-146.6 599.18,-140.83 602.84,-134.62 607.17,-140.39 603.5,-146.6"/>
<text text-anchor="middle" x="628.5" y="-156" font-family="Helvetica,sans-Serif" font-size="10.00"> #game_</text>
</g>
<!-- Node2 -->
<g id="node2" class="node">
<title>Node2</title>
<g id="a_node2"><a xlink:title=" ">
<polygon fill="none" stroke="black" points="0,-628.5 0,-685.5 146,-685.5 146,-628.5 0,-628.5"/>
<text text-anchor="middle" x="73" y="-673.5" font-family="Helvetica,sans-Serif" font-size="10.00">unique_ptr&lt; GameState &gt;</text>
<polyline fill="none" stroke="black" points="0,-666.5 146,-666.5 "/>
<text text-anchor="middle" x="73" y="-654.5" font-family="Helvetica,sans-Serif" font-size="10.00"> </text>
<polyline fill="none" stroke="black" points="0,-647.5 146,-647.5 "/>
<text text-anchor="middle" x="73" y="-635.5" font-family="Helvetica,sans-Serif" font-size="10.00"> </text>
</a>
</g>
</g>
<!-- Node2&#45;&gt;Node1 -->
<g id="edge1" class="edge">
<title>Node2&#45;&gt;Node1</title>
<path fill="none" stroke="#404040" d="M87.91,-628.48C111.57,-588.25 161.96,-515.3 229,-489 299.77,-461.23 499.22,-506.78 584.18,-470.6"/>
<polygon fill="none" stroke="#404040" points="584.19,-470.6 587.76,-464.34 594.91,-465.22 591.34,-471.49 584.19,-470.6"/>
<text text-anchor="middle" x="270" y="-525" font-family="Helvetica,sans-Serif" font-size="10.00"> #active_state_</text>
<text text-anchor="middle" x="270" y="-514" font-family="Helvetica,sans-Serif" font-size="10.00">#finished_state_</text>
<text text-anchor="middle" x="270" y="-503" font-family="Helvetica,sans-Serif" font-size="10.00">#menu_state_</text>
<text text-anchor="middle" x="270" y="-492" font-family="Helvetica,sans-Serif" font-size="10.00">#pause_state_</text>
</g>
<!-- Node3&#45;&gt;Node1 -->
<g id="edge2" class="edge">
<title>Node3&#45;&gt;Node1</title>
<path fill="none" stroke="#404040" d="M648.01,-134.83C650.66,-140.85 653.05,-146.96 655,-153 656.87,-158.78 658.58,-164.71 660.14,-170.74"/>
<polygon fill="none" stroke="#404040" points="660.15,-170.78 665.45,-175.67 662.98,-182.44 657.68,-177.55 660.15,-170.78"/>
<text text-anchor="middle" x="678" y="-156" font-family="Helvetica,sans-Serif" font-size="10.00"> #state_</text>
</g>
<!-- Node4 -->
<g id="node4" class="node">
<title>Node4</title>
<g id="a_node4"><a xlink:title=" ">
<polygon fill="none" stroke="black" points="425,-292.5 425,-360.5 577,-360.5 577,-292.5 425,-292.5"/>
<text text-anchor="start" x="433" y="-348.5" font-family="Helvetica,sans-Serif" font-size="10.00">unique_ptr&lt; PublisherEvent</text>
<text text-anchor="middle" x="501" y="-337.5" font-family="Helvetica,sans-Serif" font-size="10.00">Handler &gt;</text>
<polyline fill="none" stroke="black" points="425,-330.5 577,-330.5 "/>
<text text-anchor="middle" x="501" y="-318.5" font-family="Helvetica,sans-Serif" font-size="10.00"> </text>
<polyline fill="none" stroke="black" points="425,-311.5 577,-311.5 "/>
<text text-anchor="middle" x="501" y="-299.5" font-family="Helvetica,sans-Serif" font-size="10.00"> </text>
</a>
</g>
</g>
<!-- Node4&#45;&gt;Node3 -->
<g id="edge3" class="edge">
<title>Node4&#45;&gt;Node3</title>
<path fill="none" stroke="#404040" d="M497.56,-292.47C495.26,-256.29 495.94,-197.48 518,-153 521.67,-145.6 526.27,-138.53 531.46,-131.84"/>
<polygon fill="none" stroke="#404040" points="531.71,-131.54 532.5,-124.37 539.42,-122.34 538.63,-129.51 531.71,-131.54"/>
<text text-anchor="middle" x="559.5" y="-156" font-family="Helvetica,sans-Serif" font-size="10.00"> #eventHandler_</text>
</g>
<!-- Node5 -->
<g id="node5" class="node">
<title>Node5</title>
<g id="a_node5"><a xlink:title=" ">
<polygon fill="none" stroke="black" points="164.5,-628.5 164.5,-685.5 283.5,-685.5 283.5,-628.5 164.5,-628.5"/>
<text text-anchor="middle" x="224" y="-673.5" font-family="Helvetica,sans-Serif" font-size="10.00">unique_ptr&lt; Board &gt;</text>
<polyline fill="none" stroke="black" points="164.5,-666.5 283.5,-666.5 "/>
<text text-anchor="middle" x="224" y="-654.5" font-family="Helvetica,sans-Serif" font-size="10.00"> </text>
<polyline fill="none" stroke="black" points="164.5,-647.5 283.5,-647.5 "/>
<text text-anchor="middle" x="224" y="-635.5" font-family="Helvetica,sans-Serif" font-size="10.00"> </text>
</a>
</g>
</g>
<!-- Node5&#45;&gt;Node1 -->
<g id="edge5" class="edge">
<title>Node5&#45;&gt;Node1</title>
<path fill="none" stroke="#404040" d="M236.89,-628.14C248.64,-605.14 267.83,-572.84 292,-551 336.83,-510.49 355.07,-506.2 413,-489 483.49,-468.07 516.95,-507.5 584.16,-471.21"/>
<polygon fill="none" stroke="#404040" points="584.42,-471.05 587.58,-464.57 594.78,-465 591.62,-471.48 584.42,-471.05"/>
<text text-anchor="middle" x="435.5" y="-508.5" font-family="Helvetica,sans-Serif" font-size="10.00"> #board_</text>
</g>
<!-- Node6 -->
<g id="node6" class="node">
<title>Node6</title>
<g id="a_node6"><a xlink:title=" ">
<polygon fill="none" stroke="black" points="301.5,-628.5 301.5,-685.5 466.5,-685.5 466.5,-628.5 301.5,-628.5"/>
<text text-anchor="middle" x="384" y="-673.5" font-family="Helvetica,sans-Serif" font-size="10.00">unique_ptr&lt; GameStatistics &gt;</text>
<polyline fill="none" stroke="black" points="301.5,-666.5 466.5,-666.5 "/>
<text text-anchor="middle" x="384" y="-654.5" font-family="Helvetica,sans-Serif" font-size="10.00"> </text>
<polyline fill="none" stroke="black" points="301.5,-647.5 466.5,-647.5 "/>
<text text-anchor="middle" x="384" y="-635.5" font-family="Helvetica,sans-Serif" font-size="10.00"> </text>
</a>
</g>
</g>
<!-- Node6&#45;&gt;Node1 -->
<g id="edge6" class="edge">
<title>Node6&#45;&gt;Node1</title>
<path fill="none" stroke="#404040" d="M396.7,-628.42C415.49,-590.81 454.37,-524.1 508,-489 534.98,-471.35 553.27,-487.79 584.62,-470.68"/>
<polygon fill="none" stroke="#404040" points="584.67,-470.66 587.59,-464.06 594.8,-464.22 591.88,-470.82 584.67,-470.66"/>
<text text-anchor="middle" x="543" y="-508.5" font-family="Helvetica,sans-Serif" font-size="10.00"> #gameStats_</text>
</g>
<!-- Node7 -->
<g id="node7" class="node">
<title>Node7</title>
<g id="a_node7"><a xlink:title=" ">
<polygon fill="none" stroke="black" points="484.5,-628.5 484.5,-685.5 639.5,-685.5 639.5,-628.5 484.5,-628.5"/>
<text text-anchor="middle" x="562" y="-673.5" font-family="Helvetica,sans-Serif" font-size="10.00">unique_ptr&lt; GameStatsIO &gt;</text>
<polyline fill="none" stroke="black" points="484.5,-666.5 639.5,-666.5 "/>
<text text-anchor="middle" x="562" y="-654.5" font-family="Helvetica,sans-Serif" font-size="10.00"> </text>
<polyline fill="none" stroke="black" points="484.5,-647.5 639.5,-647.5 "/>
<text text-anchor="middle" x="562" y="-635.5" font-family="Helvetica,sans-Serif" font-size="10.00"> </text>
</a>
</g>
</g>
<!-- Node7&#45;&gt;Node1 -->
<g id="edge7" class="edge">
<title>Node7&#45;&gt;Node1</title>
<path fill="none" stroke="#404040" d="M564.59,-628.47C568.32,-594.83 576.63,-536.54 593,-489 593.82,-486.61 594.68,-484.21 595.56,-481.8"/>
<polygon fill="none" stroke="#404040" points="595.59,-481.71 594,-474.68 599.88,-470.51 601.47,-477.54 595.59,-481.71"/>
<text text-anchor="middle" x="633" y="-508.5" font-family="Helvetica,sans-Serif" font-size="10.00"> #gameStatsIO_</text>
</g>
<!-- Node8 -->
<g id="node8" class="node">
<title>Node8</title>
<g id="a_node8"><a xlink:title=" ">
<polygon fill="none" stroke="black" points="658,-628.5 658,-685.5 696,-685.5 696,-628.5 658,-628.5"/>
<text text-anchor="middle" x="677" y="-673.5" font-family="Helvetica,sans-Serif" font-size="10.00">bool</text>
<polyline fill="none" stroke="black" points="658,-666.5 696,-666.5 "/>
<text text-anchor="middle" x="677" y="-654.5" font-family="Helvetica,sans-Serif" font-size="10.00"> </text>
<polyline fill="none" stroke="black" points="658,-647.5 696,-647.5 "/>
<text text-anchor="middle" x="677" y="-635.5" font-family="Helvetica,sans-Serif" font-size="10.00"> </text>
</a>
</g>
</g>
<!-- Node8&#45;&gt;Node1 -->
<g id="edge8" class="edge">
<title>Node8&#45;&gt;Node1</title>
<path fill="none" stroke="#404040" d="M677,-628.28C677,-595.56 677,-538.56 677,-482.91"/>
<polygon fill="none" stroke="#404040" points="677,-482.69 673,-476.69 677,-470.69 681,-476.69 677,-482.69"/>
<text text-anchor="middle" x="704" y="-508.5" font-family="Helvetica,sans-Serif" font-size="10.00"> #running_</text>
</g>
<!-- Node9 -->
<g id="node9" class="node">
<title>Node9</title>
<g id="a_node9"><a xlink:href="class_clock.html" target="_top" xlink:title="Represents an externally controlled clock running at a given frequency.">
<polygon fill="none" stroke="black" points="714.5,-568 714.5,-746 859.5,-746 859.5,-568 714.5,-568"/>
<text text-anchor="middle" x="787" y="-734" font-family="Helvetica,sans-Serif" font-size="10.00">Clock</text>
<polyline fill="none" stroke="black" points="714.5,-727 859.5,-727 "/>
<text text-anchor="middle" x="787" y="-715" font-family="Helvetica,sans-Serif" font-size="10.00"> </text>
<polyline fill="none" stroke="black" points="714.5,-708 859.5,-708 "/>
<text text-anchor="start" x="722.5" y="-696" font-family="Helvetica,sans-Serif" font-size="10.00">+ Clock()=delete</text>
<text text-anchor="start" x="722.5" y="-685" font-family="Helvetica,sans-Serif" font-size="10.00">+ Clock(const Clock</text>
<text text-anchor="start" x="722.5" y="-674" font-family="Helvetica,sans-Serif" font-size="10.00"> &amp;)=delete</text>
<text text-anchor="start" x="722.5" y="-663" font-family="Helvetica,sans-Serif" font-size="10.00">+ Clock operator=(const</text>
<text text-anchor="start" x="722.5" y="-652" font-family="Helvetica,sans-Serif" font-size="10.00"> Clock &amp;)=delete</text>
<text text-anchor="start" x="722.5" y="-641" font-family="Helvetica,sans-Serif" font-size="10.00">+ void tick()</text>
<text text-anchor="start" x="722.5" y="-630" font-family="Helvetica,sans-Serif" font-size="10.00">+ void sleep()</text>
<text text-anchor="start" x="722.5" y="-619" font-family="Helvetica,sans-Serif" font-size="10.00">+ static void initialize</text>
<text text-anchor="start" x="722.5" y="-608" font-family="Helvetica,sans-Serif" font-size="10.00">(unsigned int frequency)</text>
<text text-anchor="start" x="722.5" y="-597" font-family="Helvetica,sans-Serif" font-size="10.00">+ static Clock * instance()</text>
<text text-anchor="start" x="722.5" y="-586" font-family="Helvetica,sans-Serif" font-size="10.00">&#45; Clock(unsigned int</text>
<text text-anchor="start" x="722.5" y="-575" font-family="Helvetica,sans-Serif" font-size="10.00"> frequency)</text>
</a>
</g>
</g>
<!-- Node9&#45;&gt;Node1 -->
<g id="edge9" class="edge">
<title>Node9&#45;&gt;Node1</title>
<path fill="none" stroke="#404040" d="M760.31,-567.8C752.39,-542.3 743.54,-514.48 735,-489 734.25,-486.78 733.5,-484.54 732.74,-482.28"/>
<polygon fill="none" stroke="#404040" points="732.74,-482.28 727.02,-477.89 728.87,-470.92 734.59,-475.31 732.74,-482.28"/>
<text text-anchor="middle" x="769.5" y="-508.5" font-family="Helvetica,sans-Serif" font-size="10.00"> #clock_</text>
</g>
<!-- Node10 -->
<g id="node10" class="node">
<title>Node10</title>
<g id="a_node10"><a xlink:href="class_simple_publisher.html" target="_top" xlink:title=" ">
<polygon fill="none" stroke="black" points="315,-816 315,-1016 493,-1016 493,-816 315,-816"/>
<text text-anchor="middle" x="404" y="-1004" font-family="Helvetica,sans-Serif" font-size="10.00">SimplePublisher</text>
<polyline fill="none" stroke="black" points="315,-997 493,-997 "/>
<text text-anchor="middle" x="404" y="-985" font-family="Helvetica,sans-Serif" font-size="10.00"> </text>
<polyline fill="none" stroke="black" points="315,-978 493,-978 "/>
<text text-anchor="start" x="323" y="-966" font-family="Helvetica,sans-Serif" font-size="10.00">+ ~SimplePublisher()</text>
<text text-anchor="start" x="323" y="-955" font-family="Helvetica,sans-Serif" font-size="10.00">+ virtual void notifySubscribers()</text>
<text text-anchor="start" x="323" y="-944" font-family="Helvetica,sans-Serif" font-size="10.00">+ void attachSubscriber</text>
<text text-anchor="start" x="323" y="-933" font-family="Helvetica,sans-Serif" font-size="10.00">(SimpleSubscriber *)</text>
<text text-anchor="start" x="323" y="-922" font-family="Helvetica,sans-Serif" font-size="10.00">+ void detachSubscriber</text>
<text text-anchor="start" x="323" y="-911" font-family="Helvetica,sans-Serif" font-size="10.00">(SimpleSubscriber *)</text>
<text text-anchor="start" x="323" y="-900" font-family="Helvetica,sans-Serif" font-size="10.00">+ bool operator==(const</text>
<text text-anchor="start" x="323" y="-889" font-family="Helvetica,sans-Serif" font-size="10.00"> SimplePublisher &amp;rhs)</text>
<text text-anchor="start" x="323" y="-878" font-family="Helvetica,sans-Serif" font-size="10.00"> const</text>
<text text-anchor="start" x="323" y="-867" font-family="Helvetica,sans-Serif" font-size="10.00">+ bool operator!=(const</text>
<text text-anchor="start" x="323" y="-856" font-family="Helvetica,sans-Serif" font-size="10.00"> SimplePublisher &amp;rhs)</text>
<text text-anchor="start" x="323" y="-845" font-family="Helvetica,sans-Serif" font-size="10.00"> const</text>
<text text-anchor="start" x="323" y="-834" font-family="Helvetica,sans-Serif" font-size="10.00"># SimplePublisher()</text>
<text text-anchor="start" x="323" y="-823" font-family="Helvetica,sans-Serif" font-size="10.00">=default</text>
</a>
</g>
</g>
<!-- Node10&#45;&gt;Node9 -->
<g id="edge10" class="edge">
<title>Node10&#45;&gt;Node9</title>
<path fill="none" stroke="midnightblue" d="M501.41,-810.34C501.61,-810.23 501.8,-810.11 502,-810 582.2,-763.69 626.92,-812.79 705,-763 712.51,-758.21 719.61,-752.49 726.27,-746.22"/>
<polygon fill="none" stroke="midnightblue" points="499.33,-807.51 492.73,-815.8 503.06,-813.44 499.33,-807.51"/>
</g>
<!-- Node11 -->
<g id="node11" class="node">
<title>Node11</title>
<g id="a_node11"><a xlink:title=" ">
<polygon fill="none" stroke="black" points="322.5,-1075 322.5,-1132 485.5,-1132 485.5,-1075 322.5,-1075"/>
<text text-anchor="middle" x="404" y="-1120" font-family="Helvetica,sans-Serif" font-size="10.00">vector&lt; SimpleSubscriber * &gt;</text>
<polyline fill="none" stroke="black" points="322.5,-1113 485.5,-1113 "/>
<text text-anchor="middle" x="404" y="-1101" font-family="Helvetica,sans-Serif" font-size="10.00"> </text>
<polyline fill="none" stroke="black" points="322.5,-1094 485.5,-1094 "/>
<text text-anchor="middle" x="404" y="-1082" font-family="Helvetica,sans-Serif" font-size="10.00"> </text>
</a>
</g>
</g>
<!-- Node11&#45;&gt;Node10 -->
<g id="edge11" class="edge">
<title>Node11&#45;&gt;Node10</title>
<path fill="none" stroke="#404040" d="M404,-1074.73C404,-1061.75 404,-1045.37 404,-1028.1"/>
<polygon fill="none" stroke="#404040" points="404,-1028.04 400,-1022.04 404,-1016.04 408,-1022.04 404,-1028.04"/>
<text text-anchor="middle" x="440.5" y="-1043" font-family="Helvetica,sans-Serif" font-size="10.00"> #subscribers_</text>
</g>
<!-- Node12 -->
<g id="node12" class="node">
<title>Node12</title>
<g id="a_node12"><a xlink:title=" ">
<polygon fill="none" stroke="black" points="511,-882 511,-950 645,-950 645,-882 511,-882"/>
<text text-anchor="start" x="519" y="-938" font-family="Helvetica,sans-Serif" font-size="10.00">time_point&lt; std::chrono</text>
<text text-anchor="middle" x="578" y="-927" font-family="Helvetica,sans-Serif" font-size="10.00">::steady_clock &gt;</text>
<polyline fill="none" stroke="black" points="511,-920 645,-920 "/>
<text text-anchor="middle" x="578" y="-908" font-family="Helvetica,sans-Serif" font-size="10.00"> </text>
<polyline fill="none" stroke="black" points="511,-901 645,-901 "/>
<text text-anchor="middle" x="578" y="-889" font-family="Helvetica,sans-Serif" font-size="10.00"> </text>
</a>
</g>
</g>
<!-- Node12&#45;&gt;Node9 -->
<g id="edge12" class="edge">
<title>Node12&#45;&gt;Node9</title>
<path fill="none" stroke="#404040" d="M599.68,-881.55C614.09,-860.26 633.97,-832.54 654,-810 674.47,-786.96 684.11,-785.67 705,-763 707.24,-760.57 709.48,-758.09 711.72,-755.56"/>
<polygon fill="none" stroke="#404040" points="711.94,-755.32 712.85,-748.16 719.81,-746.26 718.89,-753.41 711.94,-755.32"/>
<text text-anchor="middle" x="712" y="-784" font-family="Helvetica,sans-Serif" font-size="10.00"> &#45;last_tick_</text>
</g>
<!-- Node13 -->
<g id="node13" class="node">
<title>Node13</title>
<g id="a_node13"><a xlink:title=" ">
<polygon fill="none" stroke="black" points="663,-887.5 663,-944.5 743,-944.5 743,-887.5 663,-887.5"/>
<text text-anchor="middle" x="703" y="-932.5" font-family="Helvetica,sans-Serif" font-size="10.00">nanoseconds</text>
<polyline fill="none" stroke="black" points="663,-925.5 743,-925.5 "/>
<text text-anchor="middle" x="703" y="-913.5" font-family="Helvetica,sans-Serif" font-size="10.00"> </text>
<polyline fill="none" stroke="black" points="663,-906.5 743,-906.5 "/>
<text text-anchor="middle" x="703" y="-894.5" font-family="Helvetica,sans-Serif" font-size="10.00"> </text>
</a>
</g>
</g>
<!-- Node13&#45;&gt;Node9 -->
<g id="edge13" class="edge">
<title>Node13&#45;&gt;Node9</title>
<path fill="none" stroke="#404040" d="M711.99,-887.5C722.12,-856.51 739.16,-804.37 754.44,-757.61"/>
<polygon fill="none" stroke="#404040" points="754.46,-757.57 752.52,-750.62 758.18,-746.16 760.12,-753.11 754.46,-757.57"/>
<text text-anchor="middle" x="770" y="-784" font-family="Helvetica,sans-Serif" font-size="10.00"> &#45;interval_</text>
</g>
<!-- Node14 -->
<g id="node14" class="node">
<title>Node14</title>
<g id="a_node14"><a xlink:title=" ">
<polygon fill="none" stroke="black" points="761,-887.5 761,-944.5 879,-944.5 879,-887.5 761,-887.5"/>
<text text-anchor="middle" x="820" y="-932.5" font-family="Helvetica,sans-Serif" font-size="10.00">unique_ptr&lt; Clock &gt;</text>
<polyline fill="none" stroke="black" points="761,-925.5 879,-925.5 "/>
<text text-anchor="middle" x="820" y="-913.5" font-family="Helvetica,sans-Serif" font-size="10.00"> </text>
<polyline fill="none" stroke="black" points="761,-906.5 879,-906.5 "/>
<text text-anchor="middle" x="820" y="-894.5" font-family="Helvetica,sans-Serif" font-size="10.00"> </text>
</a>
</g>
</g>
<!-- Node14&#45;&gt;Node9 -->
<g id="edge14" class="edge">
<title>Node14&#45;&gt;Node9</title>
<path fill="none" stroke="#404040" d="M816.47,-887.5C812.51,-856.64 805.85,-804.81 799.87,-758.2"/>
<polygon fill="none" stroke="#404040" points="799.85,-758.07 795.12,-752.62 798.32,-746.16 803.05,-751.61 799.85,-758.07"/>
<text text-anchor="middle" x="818.5" y="-784" font-family="Helvetica,sans-Serif" font-size="10.00"> &#45;self_</text>
</g>
<!-- Node15 -->
<g id="node15" class="node">
<title>Node15</title>
<g id="a_node15"><a xlink:href="class_event_queue.html" target="_top" xlink:title=" ">
<polygon fill="none" stroke="black" points="878,-551.5 878,-762.5 1028,-762.5 1028,-551.5 878,-551.5"/>
<text text-anchor="middle" x="953" y="-750.5" font-family="Helvetica,sans-Serif" font-size="10.00">EventQueue&lt; Event &gt;</text>
<polyline fill="none" stroke="black" points="878,-743.5 1028,-743.5 "/>
<text text-anchor="middle" x="953" y="-731.5" font-family="Helvetica,sans-Serif" font-size="10.00"> </text>
<polyline fill="none" stroke="black" points="878,-724.5 1028,-724.5 "/>
<text text-anchor="start" x="886" y="-712.5" font-family="Helvetica,sans-Serif" font-size="10.00">+ EventQueue(EventQueue</text>
<text text-anchor="start" x="886" y="-701.5" font-family="Helvetica,sans-Serif" font-size="10.00"> &amp;)=delete</text>
<text text-anchor="start" x="886" y="-690.5" font-family="Helvetica,sans-Serif" font-size="10.00">+ bool operator=(const</text>
<text text-anchor="start" x="886" y="-679.5" font-family="Helvetica,sans-Serif" font-size="10.00"> EventQueue &amp;)=delete</text>
<text text-anchor="start" x="886" y="-668.5" font-family="Helvetica,sans-Serif" font-size="10.00">+ void registerEvent</text>
<text text-anchor="start" x="886" y="-657.5" font-family="Helvetica,sans-Serif" font-size="10.00">(std::unique_ptr&lt; Event</text>
<text text-anchor="start" x="886" y="-646.5" font-family="Helvetica,sans-Serif" font-size="10.00"> &gt; event)</text>
<text text-anchor="start" x="886" y="-635.5" font-family="Helvetica,sans-Serif" font-size="10.00">+ std::unique_ptr&lt; Event</text>
<text text-anchor="start" x="886" y="-624.5" font-family="Helvetica,sans-Serif" font-size="10.00"> &gt; pop()</text>
<text text-anchor="start" x="886" y="-613.5" font-family="Helvetica,sans-Serif" font-size="10.00">+ bool isEmpty()</text>
<text text-anchor="start" x="886" y="-602.5" font-family="Helvetica,sans-Serif" font-size="10.00">+ unsigned int size()</text>
<text text-anchor="start" x="886" y="-591.5" font-family="Helvetica,sans-Serif" font-size="10.00">+ void clear()</text>
<text text-anchor="start" x="886" y="-580.5" font-family="Helvetica,sans-Serif" font-size="10.00">+ static EventQueue *</text>
<text text-anchor="start" x="886" y="-569.5" font-family="Helvetica,sans-Serif" font-size="10.00"> instance()</text>
<text text-anchor="start" x="886" y="-558.5" font-family="Helvetica,sans-Serif" font-size="10.00">&#45; EventQueue()=default</text>
</a>
</g>
</g>
<!-- Node15&#45;&gt;Node1 -->
<g id="edge15" class="edge">
<title>Node15&#45;&gt;Node1</title>
<path fill="none" stroke="#404040" d="M877.83,-561.71C874.86,-558.08 871.91,-554.5 869,-551 836.19,-511.43 799.56,-468.49 767.16,-430.92"/>
<polygon fill="none" stroke="#404040" points="766.86,-430.57 759.91,-428.65 759.02,-421.49 765.96,-423.42 766.86,-430.57"/>
<text text-anchor="middle" x="891" y="-508.5" font-family="Helvetica,sans-Serif" font-size="10.00"> #eventQueue_</text>
</g>
<!-- Node16 -->
<g id="node16" class="node">
<title>Node16</title>
<g id="a_node16"><a xlink:href="classstd_1_1queue_3_01std_1_1unique__ptr_3_01_event_01_4_01_4.html" target="_top" xlink:title=" ">
<polygon fill="none" stroke="black" points="897,-882 897,-950 1009,-950 1009,-882 897,-882"/>
<text text-anchor="start" x="905" y="-938" font-family="Helvetica,sans-Serif" font-size="10.00">queue&lt; std::unique</text>
<text text-anchor="middle" x="953" y="-927" font-family="Helvetica,sans-Serif" font-size="10.00">_ptr&lt; Event &gt; &gt;</text>
<polyline fill="none" stroke="black" points="897,-920 1009,-920 "/>
<text text-anchor="middle" x="953" y="-908" font-family="Helvetica,sans-Serif" font-size="10.00"> </text>
<polyline fill="none" stroke="black" points="897,-901 1009,-901 "/>
<text text-anchor="middle" x="953" y="-889" font-family="Helvetica,sans-Serif" font-size="10.00"> </text>
</a>
</g>
</g>
<!-- Node16&#45;&gt;Node15 -->
<g id="edge16" class="edge">
<title>Node16&#45;&gt;Node15</title>
<path fill="none" stroke="#404040" d="M953,-881.93C953,-854.53 953,-813.87 953,-774.69"/>
<polygon fill="none" stroke="#404040" points="953,-774.6 949,-768.6 953,-762.6 957,-768.6 953,-774.6"/>
<text text-anchor="middle" x="978" y="-784" font-family="Helvetica,sans-Serif" font-size="10.00"> #events_</text>
</g>
<!-- Node17 -->
<g id="node17" class="node">
<title>Node17</title>
<g id="a_node17"><a xlink:title=" ">
<polygon fill="none" stroke="black" points="970,-1075 970,-1132 1120,-1132 1120,-1075 970,-1075"/>
<text text-anchor="middle" x="1045" y="-1120" font-family="Helvetica,sans-Serif" font-size="10.00">unique_ptr&lt; EventQueue &gt;</text>
<polyline fill="none" stroke="black" points="970,-1113 1120,-1113 "/>
<text text-anchor="middle" x="1045" y="-1101" font-family="Helvetica,sans-Serif" font-size="10.00"> </text>
<polyline fill="none" stroke="black" points="970,-1094 1120,-1094 "/>
<text text-anchor="middle" x="1045" y="-1082" font-family="Helvetica,sans-Serif" font-size="10.00"> </text>
</a>
</g>
</g>
<!-- Node17&#45;&gt;Node15 -->
<g id="edge17" class="edge">
<title>Node17&#45;&gt;Node15</title>
<path fill="none" stroke="#404040" d="M1044.92,-1074.68C1044.22,-1022.23 1040.06,-905.4 1018,-810 1014.89,-796.57 1012.22,-793.76 1007,-781 1006.03,-778.64 1005.05,-776.26 1004.06,-773.85"/>
<polygon fill="none" stroke="#404040" points="1003.95,-773.6 997.95,-769.6 999.32,-762.52 1005.33,-766.52 1003.95,-773.6"/>
<text text-anchor="middle" x="1060.5" y="-913.5" font-family="Helvetica,sans-Serif" font-size="10.00"> #self_</text>
</g>
<!-- Node18 -->
<g id="node18" class="node">
<title>Node18</title>
<g id="a_node18"><a xlink:href="class_event_queue.html" target="_top" xlink:title="Singleton class wrapper for std::queue&lt;E&gt;.">
<polygon fill="none" stroke="black" points="1098,-810.5 1098,-1021.5 1248,-1021.5 1248,-810.5 1098,-810.5"/>
<text text-anchor="middle" x="1173" y="-1009.5" font-family="Helvetica,sans-Serif" font-size="10.00">EventQueue&lt; E &gt;</text>
<polyline fill="none" stroke="black" points="1098,-1002.5 1248,-1002.5 "/>
<text text-anchor="middle" x="1173" y="-990.5" font-family="Helvetica,sans-Serif" font-size="10.00"> </text>
<polyline fill="none" stroke="black" points="1098,-983.5 1248,-983.5 "/>
<text text-anchor="start" x="1106" y="-971.5" font-family="Helvetica,sans-Serif" font-size="10.00">+ EventQueue(EventQueue</text>
<text text-anchor="start" x="1106" y="-960.5" font-family="Helvetica,sans-Serif" font-size="10.00"> &amp;)=delete</text>
<text text-anchor="start" x="1106" y="-949.5" font-family="Helvetica,sans-Serif" font-size="10.00">+ bool operator=(const</text>
<text text-anchor="start" x="1106" y="-938.5" font-family="Helvetica,sans-Serif" font-size="10.00"> EventQueue &amp;)=delete</text>
<text text-anchor="start" x="1106" y="-927.5" font-family="Helvetica,sans-Serif" font-size="10.00">+ void registerEvent</text>
<text text-anchor="start" x="1106" y="-916.5" font-family="Helvetica,sans-Serif" font-size="10.00">(std::unique_ptr&lt; E</text>
<text text-anchor="start" x="1106" y="-905.5" font-family="Helvetica,sans-Serif" font-size="10.00"> &gt; event)</text>
<text text-anchor="start" x="1106" y="-894.5" font-family="Helvetica,sans-Serif" font-size="10.00">+ std::unique_ptr&lt; E</text>
<text text-anchor="start" x="1106" y="-883.5" font-family="Helvetica,sans-Serif" font-size="10.00"> &gt; pop()</text>
<text text-anchor="start" x="1106" y="-872.5" font-family="Helvetica,sans-Serif" font-size="10.00">+ bool isEmpty()</text>
<text text-anchor="start" x="1106" y="-861.5" font-family="Helvetica,sans-Serif" font-size="10.00">+ unsigned int size()</text>
<text text-anchor="start" x="1106" y="-850.5" font-family="Helvetica,sans-Serif" font-size="10.00">+ void clear()</text>
<text text-anchor="start" x="1106" y="-839.5" font-family="Helvetica,sans-Serif" font-size="10.00">+ static EventQueue *</text>
<text text-anchor="start" x="1106" y="-828.5" font-family="Helvetica,sans-Serif" font-size="10.00"> instance()</text>
<text text-anchor="start" x="1106" y="-817.5" font-family="Helvetica,sans-Serif" font-size="10.00">&#45; EventQueue()=default</text>
</a>
</g>
</g>
<!-- Node17&#45;&gt;Node18 -->
<g id="edge20" class="edge">
<title>Node17&#45;&gt;Node18</title>
<path fill="none" stroke="#404040" d="M1064.16,-1074.73C1072.48,-1062.68 1082.83,-1047.68 1093.81,-1031.77"/>
<polygon fill="none" stroke="#404040" points="1093.9,-1031.64 1094.01,-1024.43 1100.71,-1021.76 1100.6,-1028.97 1093.9,-1031.64"/>
<text text-anchor="middle" x="1103.5" y="-1043" font-family="Helvetica,sans-Serif" font-size="10.00"> #self_</text>
</g>
<!-- Node18&#45;&gt;Node15 -->
<g id="edge18" class="edge">
<title>Node18&#45;&gt;Node15</title>
<path fill="none" stroke="orange" d="M1091.12,-815.02C1080.59,-803.29 1069.73,-791.7 1059,-781 1050.3,-772.32 1046.57,-771.81 1038,-763 1034.73,-759.64 1031.45,-756.16 1028.19,-752.6"/>
<polygon fill="orange" stroke="orange" points="1088.72,-817.6 1097.99,-822.74 1093.95,-812.95 1088.72,-817.6"/>
<text text-anchor="middle" x="1095" y="-784" font-family="Helvetica,sans-Serif" font-size="10.00"> &lt; Event &gt;</text>
</g>
<!-- Node19 -->
<g id="node19" class="node">
<title>Node19</title>
<g id="a_node19"><a xlink:title=" ">
<polygon fill="none" stroke="black" points="1138,-1069.5 1138,-1137.5 1250,-1137.5 1250,-1069.5 1138,-1069.5"/>
<text text-anchor="start" x="1146" y="-1125.5" font-family="Helvetica,sans-Serif" font-size="10.00">queue&lt; std::unique</text>
<text text-anchor="middle" x="1194" y="-1114.5" font-family="Helvetica,sans-Serif" font-size="10.00">_ptr&lt; E &gt; &gt;</text>
<polyline fill="none" stroke="black" points="1138,-1107.5 1250,-1107.5 "/>
<text text-anchor="middle" x="1194" y="-1095.5" font-family="Helvetica,sans-Serif" font-size="10.00"> </text>
<polyline fill="none" stroke="black" points="1138,-1088.5 1250,-1088.5 "/>
<text text-anchor="middle" x="1194" y="-1076.5" font-family="Helvetica,sans-Serif" font-size="10.00"> </text>
</a>
</g>
</g>
<!-- Node19&#45;&gt;Node18 -->
<g id="edge19" class="edge">
<title>Node19&#45;&gt;Node18</title>
<path fill="none" stroke="#404040" d="M1190.25,-1069.34C1189.06,-1058.88 1187.68,-1046.68 1186.22,-1033.81"/>
<polygon fill="none" stroke="#404040" points="1186.22,-1033.77 1181.57,-1028.25 1184.87,-1021.84 1189.52,-1027.36 1186.22,-1033.77"/>
<text text-anchor="middle" x="1212" y="-1043" font-family="Helvetica,sans-Serif" font-size="10.00"> #events_</text>
</g>
<!-- Node20 -->
<g id="node20" class="node">
<title>Node20</title>
<g id="a_node20"><a xlink:title=" ">
<polygon fill="none" stroke="black" points="1046.5,-628.5 1046.5,-685.5 1225.5,-685.5 1225.5,-628.5 1046.5,-628.5"/>
<text text-anchor="middle" x="1136" y="-673.5" font-family="Helvetica,sans-Serif" font-size="10.00">unique_ptr&lt; sf::RenderWindow &gt;</text>
<polyline fill="none" stroke="black" points="1046.5,-666.5 1225.5,-666.5 "/>
<text text-anchor="middle" x="1136" y="-654.5" font-family="Helvetica,sans-Serif" font-size="10.00"> </text>
<polyline fill="none" stroke="black" points="1046.5,-647.5 1225.5,-647.5 "/>
<text text-anchor="middle" x="1136" y="-635.5" font-family="Helvetica,sans-Serif" font-size="10.00"> </text>
</a>
</g>
</g>
<!-- Node20&#45;&gt;Node1 -->
<g id="edge21" class="edge">
<title>Node20&#45;&gt;Node1</title>
<path fill="none" stroke="#404040" d="M1113.34,-628.23C1094.31,-605.89 1065.71,-574.47 1037,-551 952.71,-482.11 845.59,-418.19 770.19,-376.51"/>
<polygon fill="none" stroke="#404040" points="769.81,-376.3 762.63,-376.92 759.3,-370.52 766.48,-369.91 769.81,-376.3"/>
<text text-anchor="middle" x="1037.5" y="-508.5" font-family="Helvetica,sans-Serif" font-size="10.00"> #window_</text>
</g>
<!-- Node21 -->
<g id="node21" class="node">
<title>Node21</title>
<g id="a_node21"><a xlink:title=" ">
<polygon fill="none" stroke="black" points="1243.5,-628.5 1243.5,-685.5 1428.5,-685.5 1428.5,-628.5 1243.5,-628.5"/>
<text text-anchor="middle" x="1336" y="-673.5" font-family="Helvetica,sans-Serif" font-size="10.00">unique_ptr&lt; KeyboardController &gt;</text>
<polyline fill="none" stroke="black" points="1243.5,-666.5 1428.5,-666.5 "/>
<text text-anchor="middle" x="1336" y="-654.5" font-family="Helvetica,sans-Serif" font-size="10.00"> </text>
<polyline fill="none" stroke="black" points="1243.5,-647.5 1428.5,-647.5 "/>
<text text-anchor="middle" x="1336" y="-635.5" font-family="Helvetica,sans-Serif" font-size="10.00"> </text>
</a>
</g>
</g>
<!-- Node21&#45;&gt;Node1 -->
<g id="edge22" class="edge">
<title>Node21&#45;&gt;Node1</title>
<path fill="none" stroke="#404040" d="M1314.95,-628.27C1296.12,-605.04 1266.67,-572.34 1235,-551 1086.69,-451.08 886.9,-384.78 771.01,-351.87"/>
<polygon fill="none" stroke="#404040" points="770.92,-351.84 764.07,-354.07 759.37,-348.6 766.23,-346.37 770.92,-351.84"/>
<text text-anchor="middle" x="1248" y="-508.5" font-family="Helvetica,sans-Serif" font-size="10.00"> #keyboardController_</text>
</g>
</g>
</svg>
