<?xml version="1.0" encoding="UTF-8" standalone="no"?>
<!DOCTYPE svg PUBLIC "-//W3C//DTD SVG 1.1//EN"
 "http://www.w3.org/Graphics/SVG/1.1/DTD/svg11.dtd">
<!-- Generated by graphviz version 2.50.0 (0)
 -->
<!-- Title: Bullet Pages: 1 -->
<!--zoomable 573 -->
<svg id="main" version="1.1" xmlns="http://www.w3.org/2000/svg" xmlns:xlink="http://www.w3.org/1999/xlink" xml:space="preserve" onload="init(evt)">
<style type="text/css"><![CDATA[
.edge:hover path { stroke: red; }
.edge:hover polygon { stroke: red; fill: red; }
]]></style>
<script type="text/javascript"><![CDATA[
var edges = document.getElementsByTagName('g');
if (edges && edges.length) {
  for (var i=0;i<edges.length;i++) {
    if (edges[i].id.substr(0,4)=='edge') {
      edges[i].setAttribute('class','edge');
    }
  }
}
]]></script>
        <defs>
                <circle id="rim" cx="0" cy="0" r="7"/>
                <circle id="rim2" cx="0" cy="0" r="3.5"/>
                <g id="zoomPlus">
                        <use xlink:href="#rim" fill="#404040">
                                <set attributeName="fill" to="#808080" begin="zoomplus.mouseover" end="zoomplus.mouseout"/>
                        </use>
                        <path d="M-4,0h8M0,-4v8" fill="none" stroke="white" stroke-width="1.5" pointer-events="none"/>
                </g>
                <g id="zoomMin">
                        <use xlink:href="#rim" fill="#404040">
                                <set attributeName="fill" to="#808080" begin="zoomminus.mouseover" end="zoomminus.mouseout"/>
                        </use>
                        <path d="M-4,0h8" fill="none" stroke="white" stroke-width="1.5" pointer-events="none"/>
                </g>
                <g id="dirArrow">
                        <path fill="none" stroke="white" stroke-width="1.5" d="M0,-3.0v7 M-2.5,-0.5L0,-3.0L2.5,-0.5"/>
                </g>
               <g id="resetDef">
                       <use xlink:href="#rim2" fill="#404040">
                               <set attributeName="fill" to="#808080" begin="reset.mouseover" end="reset.mouseout"/>
                       </use>
               </g>
        </defs>

<script type="text/javascript">
var viewWidth = 450;
var viewHeight = 573;
var sectionId = 'dynsection-1';
</script>
<script xlink:href="svgpan.js"/>
<svg id="graph" class="graph">
<g id="viewport">
<title>Bullet</title>
<!-- Node1 -->
<g id="node1" class="node">
<title>Node1</title>
<g id="a_node1"><a xlink:title=" ">
<polygon fill="#bfbfbf" stroke="black" points="182.5,-0.5 182.5,-156.5 351.5,-156.5 351.5,-0.5 182.5,-0.5"/>
<text text-anchor="middle" x="267" y="-144.5" font-family="Helvetica,sans-Serif" font-size="10.00">Bullet</text>
<polyline fill="none" stroke="black" points="182.5,-137.5 351.5,-137.5 "/>
<text text-anchor="middle" x="267" y="-125.5" font-family="Helvetica,sans-Serif" font-size="10.00"> </text>
<polyline fill="none" stroke="black" points="182.5,-118.5 351.5,-118.5 "/>
<text text-anchor="start" x="190.5" y="-106.5" font-family="Helvetica,sans-Serif" font-size="10.00">+ Bullet()=delete</text>
<text text-anchor="start" x="190.5" y="-95.5" font-family="Helvetica,sans-Serif" font-size="10.00">+ Bullet(float x, float</text>
<text text-anchor="start" x="190.5" y="-84.5" font-family="Helvetica,sans-Serif" font-size="10.00"> y, Direction direction,</text>
<text text-anchor="start" x="190.5" y="-73.5" font-family="Helvetica,sans-Serif" font-size="10.00"> float speed, BulletType type)</text>
<text text-anchor="start" x="190.5" y="-62.5" font-family="Helvetica,sans-Serif" font-size="10.00">+ bool move() override</text>
<text text-anchor="start" x="190.5" y="-51.5" font-family="Helvetica,sans-Serif" font-size="10.00">+ bool moveBack() override</text>
<text text-anchor="start" x="190.5" y="-40.5" font-family="Helvetica,sans-Serif" font-size="10.00">+ bool isFriendly()</text>
<text text-anchor="start" x="190.5" y="-29.5" font-family="Helvetica,sans-Serif" font-size="10.00">+ void unlink()</text>
<text text-anchor="start" x="190.5" y="-18.5" font-family="Helvetica,sans-Serif" font-size="10.00"># void offsetInCurrentDirection</text>
<text text-anchor="start" x="190.5" y="-7.5" font-family="Helvetica,sans-Serif" font-size="10.00">(float offset)</text>
</a>
</g>
</g>
<!-- Node2 -->
<g id="node2" class="node">
<title>Node2</title>
<g id="a_node2"><a xlink:href="class_entity.html" target="_top" xlink:title=" ">
<polygon fill="none" stroke="black" points="0,-204.5 0,-415.5 160,-415.5 160,-204.5 0,-204.5"/>
<text text-anchor="middle" x="80" y="-403.5" font-family="Helvetica,sans-Serif" font-size="10.00">Entity</text>
<polyline fill="none" stroke="black" points="0,-396.5 160,-396.5 "/>
<text text-anchor="middle" x="80" y="-384.5" font-family="Helvetica,sans-Serif" font-size="10.00"> </text>
<polyline fill="none" stroke="black" points="0,-377.5 160,-377.5 "/>
<text text-anchor="start" x="8" y="-365.5" font-family="Helvetica,sans-Serif" font-size="10.00">+ virtual ~Entity()=default</text>
<text text-anchor="start" x="8" y="-354.5" font-family="Helvetica,sans-Serif" font-size="10.00">+ virtual bool move()=0</text>
<text text-anchor="start" x="8" y="-343.5" font-family="Helvetica,sans-Serif" font-size="10.00">+ virtual bool moveBack()=0</text>
<text text-anchor="start" x="8" y="-332.5" font-family="Helvetica,sans-Serif" font-size="10.00">+ float getX() const</text>
<text text-anchor="start" x="8" y="-321.5" font-family="Helvetica,sans-Serif" font-size="10.00">+ float getY() const</text>
<text text-anchor="start" x="8" y="-310.5" font-family="Helvetica,sans-Serif" font-size="10.00">+ float getSpeed() const</text>
<text text-anchor="start" x="8" y="-299.5" font-family="Helvetica,sans-Serif" font-size="10.00">+ Direction getFacing</text>
<text text-anchor="start" x="8" y="-288.5" font-family="Helvetica,sans-Serif" font-size="10.00">() const</text>
<text text-anchor="start" x="8" y="-277.5" font-family="Helvetica,sans-Serif" font-size="10.00">+ float getSizeX() const</text>
<text text-anchor="start" x="8" y="-266.5" font-family="Helvetica,sans-Serif" font-size="10.00">+ float getSizeY() const</text>
<text text-anchor="start" x="8" y="-255.5" font-family="Helvetica,sans-Serif" font-size="10.00"># Entity()=default</text>
<text text-anchor="start" x="8" y="-244.5" font-family="Helvetica,sans-Serif" font-size="10.00"># Entity(float x, float</text>
<text text-anchor="start" x="8" y="-233.5" font-family="Helvetica,sans-Serif" font-size="10.00"> y, float sizeX, float</text>
<text text-anchor="start" x="8" y="-222.5" font-family="Helvetica,sans-Serif" font-size="10.00"> sizeY, float speed, Direction</text>
<text text-anchor="start" x="8" y="-211.5" font-family="Helvetica,sans-Serif" font-size="10.00"> facing)</text>
</a>
</g>
</g>
<!-- Node2&#45;&gt;Node1 -->
<g id="edge1" class="edge">
<title>Node2&#45;&gt;Node1</title>
<path fill="none" stroke="midnightblue" d="M166.68,-202.62C179.26,-187.19 192,-171.54 203.99,-156.83"/>
<polygon fill="none" stroke="midnightblue" points="163.72,-200.71 160.12,-210.67 169.15,-205.13 163.72,-200.71"/>
</g>
<!-- Node3 -->
<g id="node3" class="node">
<title>Node3</title>
<g id="a_node3"><a xlink:title=" ">
<polygon fill="none" stroke="#bfbfbf" points="19,-507.5 19,-564.5 57,-564.5 57,-507.5 19,-507.5"/>
<text text-anchor="middle" x="38" y="-552.5" font-family="Helvetica,sans-Serif" font-size="10.00">float</text>
<polyline fill="none" stroke="#bfbfbf" points="19,-545.5 57,-545.5 "/>
<text text-anchor="middle" x="38" y="-533.5" font-family="Helvetica,sans-Serif" font-size="10.00"> </text>
<polyline fill="none" stroke="#bfbfbf" points="19,-526.5 57,-526.5 "/>
<text text-anchor="middle" x="38" y="-514.5" font-family="Helvetica,sans-Serif" font-size="10.00"> </text>
</a>
</g>
</g>
<!-- Node3&#45;&gt;Node2 -->
<g id="edge2" class="edge">
<title>Node3&#45;&gt;Node2</title>
<path fill="none" stroke="#404040" d="M38.37,-507.38C39.02,-486.97 40.7,-458.59 45,-434 45.38,-431.84 45.78,-429.66 46.2,-427.47"/>
<polygon fill="none" stroke="#404040" points="46.21,-427.42 43.51,-420.74 48.64,-415.67 51.34,-422.36 46.21,-427.42"/>
<text text-anchor="middle" x="69" y="-481" font-family="Helvetica,sans-Serif" font-size="10.00"> #size_x_</text>
<text text-anchor="middle" x="69" y="-470" font-family="Helvetica,sans-Serif" font-size="10.00">#size_y_</text>
<text text-anchor="middle" x="69" y="-459" font-family="Helvetica,sans-Serif" font-size="10.00">#speed_</text>
<text text-anchor="middle" x="69" y="-448" font-family="Helvetica,sans-Serif" font-size="10.00">#x_</text>
<text text-anchor="middle" x="69" y="-437" font-family="Helvetica,sans-Serif" font-size="10.00">#y_</text>
</g>
<!-- Node4 -->
<g id="node4" class="node">
<title>Node4</title>
<g id="a_node4"><a xlink:title=" ">
<polygon fill="none" stroke="#bfbfbf" points="78.5,-507.5 78.5,-564.5 139.5,-564.5 139.5,-507.5 78.5,-507.5"/>
<text text-anchor="middle" x="109" y="-552.5" font-family="Helvetica,sans-Serif" font-size="10.00">Direction</text>
<polyline fill="none" stroke="#bfbfbf" points="78.5,-545.5 139.5,-545.5 "/>
<text text-anchor="middle" x="109" y="-533.5" font-family="Helvetica,sans-Serif" font-size="10.00"> </text>
<polyline fill="none" stroke="#bfbfbf" points="78.5,-526.5 139.5,-526.5 "/>
<text text-anchor="middle" x="109" y="-514.5" font-family="Helvetica,sans-Serif" font-size="10.00"> </text>
</a>
</g>
</g>
<!-- Node4&#45;&gt;Node2 -->
<g id="edge3" class="edge">
<title>Node4&#45;&gt;Node2</title>
<path fill="none" stroke="#404040" d="M105.39,-507.08C102.74,-486.67 98.96,-457.49 95.13,-427.84"/>
<polygon fill="none" stroke="#404040" points="95.08,-427.49 90.34,-422.05 93.54,-415.59 98.28,-421.03 95.08,-427.49"/>
<text text-anchor="middle" x="126.5" y="-459" font-family="Helvetica,sans-Serif" font-size="10.00"> #facing_</text>
</g>
<!-- Node5 -->
<g id="node5" class="node">
<title>Node5</title>
<g id="a_node5"><a xlink:href="class_simple_publisher.html" target="_top" xlink:title=" ">
<polygon fill="none" stroke="black" points="178,-210 178,-410 356,-410 356,-210 178,-210"/>
<text text-anchor="middle" x="267" y="-398" font-family="Helvetica,sans-Serif" font-size="10.00">SimplePublisher</text>
<polyline fill="none" stroke="black" points="178,-391 356,-391 "/>
<text text-anchor="middle" x="267" y="-379" font-family="Helvetica,sans-Serif" font-size="10.00"> </text>
<polyline fill="none" stroke="black" points="178,-372 356,-372 "/>
<text text-anchor="start" x="186" y="-360" font-family="Helvetica,sans-Serif" font-size="10.00">+ ~SimplePublisher()</text>
<text text-anchor="start" x="186" y="-349" font-family="Helvetica,sans-Serif" font-size="10.00">+ virtual void notifySubscribers()</text>
<text text-anchor="start" x="186" y="-338" font-family="Helvetica,sans-Serif" font-size="10.00">+ void attachSubscriber</text>
<text text-anchor="start" x="186" y="-327" font-family="Helvetica,sans-Serif" font-size="10.00">(SimpleSubscriber *)</text>
<text text-anchor="start" x="186" y="-316" font-family="Helvetica,sans-Serif" font-size="10.00">+ void detachSubscriber</text>
<text text-anchor="start" x="186" y="-305" font-family="Helvetica,sans-Serif" font-size="10.00">(SimpleSubscriber *)</text>
<text text-anchor="start" x="186" y="-294" font-family="Helvetica,sans-Serif" font-size="10.00">+ bool operator==(const</text>
<text text-anchor="start" x="186" y="-283" font-family="Helvetica,sans-Serif" font-size="10.00"> SimplePublisher &amp;rhs)</text>
<text text-anchor="start" x="186" y="-272" font-family="Helvetica,sans-Serif" font-size="10.00"> const</text>
<text text-anchor="start" x="186" y="-261" font-family="Helvetica,sans-Serif" font-size="10.00">+ bool operator!=(const</text>
<text text-anchor="start" x="186" y="-250" font-family="Helvetica,sans-Serif" font-size="10.00"> SimplePublisher &amp;rhs)</text>
<text text-anchor="start" x="186" y="-239" font-family="Helvetica,sans-Serif" font-size="10.00"> const</text>
<text text-anchor="start" x="186" y="-228" font-family="Helvetica,sans-Serif" font-size="10.00"># SimplePublisher()</text>
<text text-anchor="start" x="186" y="-217" font-family="Helvetica,sans-Serif" font-size="10.00">=default</text>
</a>
</g>
</g>
<!-- Node5&#45;&gt;Node1 -->
<g id="edge4" class="edge">
<title>Node5&#45;&gt;Node1</title>
<path fill="none" stroke="midnightblue" d="M267,-199.27C267,-184.93 267,-170.49 267,-156.84"/>
<polygon fill="none" stroke="midnightblue" points="263.5,-199.67 267,-209.67 270.5,-199.67 263.5,-199.67"/>
</g>
<!-- Node6 -->
<g id="node6" class="node">
<title>Node6</title>
<g id="a_node6"><a xlink:title=" ">
<polygon fill="none" stroke="#bfbfbf" points="185.5,-507.5 185.5,-564.5 348.5,-564.5 348.5,-507.5 185.5,-507.5"/>
<text text-anchor="middle" x="267" y="-552.5" font-family="Helvetica,sans-Serif" font-size="10.00">vector&lt; SimpleSubscriber * &gt;</text>
<polyline fill="none" stroke="#bfbfbf" points="185.5,-545.5 348.5,-545.5 "/>
<text text-anchor="middle" x="267" y="-533.5" font-family="Helvetica,sans-Serif" font-size="10.00"> </text>
<polyline fill="none" stroke="#bfbfbf" points="185.5,-526.5 348.5,-526.5 "/>
<text text-anchor="middle" x="267" y="-514.5" font-family="Helvetica,sans-Serif" font-size="10.00"> </text>
</a>
</g>
</g>
<!-- Node6&#45;&gt;Node5 -->
<g id="edge5" class="edge">
<title>Node6&#45;&gt;Node5</title>
<path fill="none" stroke="#404040" d="M267,-507.08C267,-485.4 267,-453.81 267,-422.29"/>
<polygon fill="none" stroke="#404040" points="267,-422.24 263,-416.24 267,-410.24 271,-416.24 267,-422.24"/>
<text text-anchor="middle" x="303.5" y="-459" font-family="Helvetica,sans-Serif" font-size="10.00"> #subscribers_</text>
</g>
<!-- Node7 -->
<g id="node7" class="node">
<title>Node7</title>
<g id="a_node7"><a xlink:title=" ">
<polygon fill="none" stroke="#bfbfbf" points="374,-281.5 374,-338.5 442,-338.5 442,-281.5 374,-281.5"/>
<text text-anchor="middle" x="408" y="-326.5" font-family="Helvetica,sans-Serif" font-size="10.00">BulletType</text>
<polyline fill="none" stroke="#bfbfbf" points="374,-319.5 442,-319.5 "/>
<text text-anchor="middle" x="408" y="-307.5" font-family="Helvetica,sans-Serif" font-size="10.00"> </text>
<polyline fill="none" stroke="#bfbfbf" points="374,-300.5 442,-300.5 "/>
<text text-anchor="middle" x="408" y="-288.5" font-family="Helvetica,sans-Serif" font-size="10.00"> </text>
</a>
</g>
</g>
<!-- Node7&#45;&gt;Node1 -->
<g id="edge6" class="edge">
<title>Node7&#45;&gt;Node1</title>
<path fill="none" stroke="#404040" d="M399.03,-281.26C391.43,-259.5 379.48,-228.85 365,-204 357.62,-191.34 349.07,-178.56 340.16,-166.26"/>
<polygon fill="none" stroke="#404040" points="340.08,-166.15 333.3,-163.71 332.94,-156.51 339.73,-158.95 340.08,-166.15"/>
<text text-anchor="middle" x="372.5" y="-178" font-family="Helvetica,sans-Serif" font-size="10.00"> #type_</text>
</g>
</g>
</svg>
        <g id="navigator" transform="translate(0 0)" fill="#404254">
                <rect fill="#f2f5e9" fill-opacity="0.5" stroke="#606060" stroke-width=".5" x="0" y="0" width="60" height="60"/>
                <use id="zoomplus" xlink:href="#zoomPlus" x="17" y="9" onmousedown="handleZoom(evt,'in')"/>
                <use id="zoomminus" xlink:href="#zoomMin" x="42" y="9" onmousedown="handleZoom(evt,'out')"/>
                <use id="reset" xlink:href="#resetDef" x="30" y="36" onmousedown="handleReset()"/>
                <g id="arrowUp" xlink:href="#dirArrow" transform="translate(30 24)" onmousedown="handlePan(0,-1)">
                  <use xlink:href="#rim" fill="#404040">
                        <set attributeName="fill" to="#808080" begin="arrowUp.mouseover" end="arrowUp.mouseout"/>
                  </use>
                  <path fill="none" stroke="white" stroke-width="1.5" d="M0,-3.0v7 M-2.5,-0.5L0,-3.0L2.5,-0.5"/>
                </g>
                <g id="arrowRight" xlink:href="#dirArrow" transform="rotate(90) translate(36 -43)" onmousedown="handlePan(1,0)">
                  <use xlink:href="#rim" fill="#404040">
                        <set attributeName="fill" to="#808080" begin="arrowRight.mouseover" end="arrowRight.mouseout"/>
                  </use>
                  <path fill="none" stroke="white" stroke-width="1.5" d="M0,-3.0v7 M-2.5,-0.5L0,-3.0L2.5,-0.5"/>
                </g>
                <g id="arrowDown" xlink:href="#dirArrow" transform="rotate(180) translate(-30 -48)" onmousedown="handlePan(0,1)">
                  <use xlink:href="#rim" fill="#404040">
                        <set attributeName="fill" to="#808080" begin="arrowDown.mouseover" end="arrowDown.mouseout"/>
                  </use>
                  <path fill="none" stroke="white" stroke-width="1.5" d="M0,-3.0v7 M-2.5,-0.5L0,-3.0L2.5,-0.5"/>
                </g>
                <g id="arrowLeft" xlink:href="#dirArrow" transform="rotate(270) translate(-36 17)" onmousedown="handlePan(-1,0)">
                  <use xlink:href="#rim" fill="#404040">
                        <set attributeName="fill" to="#808080" begin="arrowLeft.mouseover" end="arrowLeft.mouseout"/>
                  </use>
                  <path fill="none" stroke="white" stroke-width="1.5" d="M0,-3.0v7 M-2.5,-0.5L0,-3.0L2.5,-0.5"/>
                </g>
        </g>
        <svg viewBox="0 0 15 15" width="100%" height="30px" preserveAspectRatio="xMaxYMin meet">
         <g id="arrow_out" transform="scale(0.3 0.3)">
          <a xlink:href="class_bullet__coll__graph_org.svg" target="_base">
           <rect id="button" ry="5" rx="5" y="6" x="6" height="38" width="38"
                fill="#f2f5e9" fill-opacity="0.5" stroke="#606060" stroke-width="1.0"/>
           <path id="arrow"
             d="M 11.500037,31.436501 C 11.940474,20.09759 22.043105,11.32322 32.158766,21.979434 L 37.068811,17.246167 C 37.068811,17.246167 37.088388,32 37.088388,32 L 22.160133,31.978069 C 22.160133,31.978069 26.997745,27.140456 26.997745,27.140456 C 18.528582,18.264221 13.291696,25.230495 11.500037,31.436501 z"
             style="fill:#404040;"/>
          </a>
         </g>
        </svg>
</svg>
