<?xml version="1.0" encoding="UTF-8" standalone="no"?>
<!DOCTYPE svg PUBLIC "-//W3C//DTD SVG 1.1//EN"
 "http://www.w3.org/Graphics/SVG/1.1/DTD/svg11.dtd">
<!-- Generated by graphviz version 2.43.0 (0)
 -->
<!-- Title: Game Pages: 1 -->
<svg width="1551pt" height="1157pt"
 viewBox="0.00 0.00 1550.50 1157.00" xmlns="http://www.w3.org/2000/svg" xmlns:xlink="http://www.w3.org/1999/xlink">
<g id="graph0" class="graph" transform="scale(1 1) rotate(0) translate(4 1153)">
<title>Game</title>
<!-- Node1 -->
<g id="node1" class="node">
<title>Node1</title>
<g id="a_node1"><a xlink:title=" ">
<polygon fill="#bfbfbf" stroke="black" points="642,-182.5 642,-481.5 806,-481.5 806,-182.5 642,-182.5"/>
<text text-anchor="middle" x="724" y="-469.5" font-family="Helvetica,sans-Serif" font-size="10.00">Game</text>
<polyline fill="none" stroke="black" points="642,-462.5 806,-462.5 "/>
<text text-anchor="middle" x="724" y="-450.5" font-family="Helvetica,sans-Serif" font-size="10.00"> </text>
<polyline fill="none" stroke="black" points="642,-443.5 806,-443.5 "/>
<text text-anchor="start" x="650" y="-431.5" font-family="Helvetica,sans-Serif" font-size="10.00">+ Game()=delete</text>
<text text-anchor="start" x="650" y="-420.5" font-family="Helvetica,sans-Serif" font-size="10.00">+ Game(unsigned int</text>
<text text-anchor="start" x="650" y="-409.5" font-family="Helvetica,sans-Serif" font-size="10.00"> clockFreq)</text>
<text text-anchor="start" x="650" y="-398.5" font-family="Helvetica,sans-Serif" font-size="10.00">+ void run()</text>
<text text-anchor="start" x="650" y="-387.5" font-family="Helvetica,sans-Serif" font-size="10.00">+ void setActiveState()</text>
<text text-anchor="start" x="650" y="-376.5" font-family="Helvetica,sans-Serif" font-size="10.00">+ void setFinishedState()</text>
<text text-anchor="start" x="650" y="-365.5" font-family="Helvetica,sans-Serif" font-size="10.00">+ void setPauseState()</text>
<text text-anchor="start" x="650" y="-354.5" font-family="Helvetica,sans-Serif" font-size="10.00">+ void setMenuState()</text>
<text text-anchor="start" x="650" y="-343.5" font-family="Helvetica,sans-Serif" font-size="10.00">+ void quit()</text>
<text text-anchor="start" x="650" y="-332.5" font-family="Helvetica,sans-Serif" font-size="10.00">+ GameState * getState()</text>
<text text-anchor="start" x="650" y="-321.5" font-family="Helvetica,sans-Serif" font-size="10.00">+ GameStatistics * getStats()</text>
<text text-anchor="start" x="650" y="-310.5" font-family="Helvetica,sans-Serif" font-size="10.00">+ Board * getBoard()</text>
<text text-anchor="start" x="650" y="-299.5" font-family="Helvetica,sans-Serif" font-size="10.00">+ void start()</text>
<text text-anchor="start" x="650" y="-288.5" font-family="Helvetica,sans-Serif" font-size="10.00">+ void end()</text>
<text text-anchor="start" x="650" y="-277.5" font-family="Helvetica,sans-Serif" font-size="10.00"># void setup()</text>
<text text-anchor="start" x="650" y="-266.5" font-family="Helvetica,sans-Serif" font-size="10.00"># void initStates()</text>
<text text-anchor="start" x="650" y="-255.5" font-family="Helvetica,sans-Serif" font-size="10.00"># void initComponents()</text>
<text text-anchor="start" x="650" y="-244.5" font-family="Helvetica,sans-Serif" font-size="10.00"># void initScoreboard()</text>
<text text-anchor="start" x="650" y="-233.5" font-family="Helvetica,sans-Serif" font-size="10.00"># void initUI()</text>
<text text-anchor="start" x="650" y="-222.5" font-family="Helvetica,sans-Serif" font-size="10.00"># void reset()</text>
<text text-anchor="start" x="650" y="-211.5" font-family="Helvetica,sans-Serif" font-size="10.00"># void prepareLevel(unsigned</text>
<text text-anchor="start" x="650" y="-200.5" font-family="Helvetica,sans-Serif" font-size="10.00"> int levelNum)</text>
<text text-anchor="start" x="650" y="-189.5" font-family="Helvetica,sans-Serif" font-size="10.00"># void redrawUI()</text>
</a>
</g>
</g>
<!-- Node3 -->
<g id="node3" class="node">
<title>Node3</title>
<g id="a_node3"><a xlink:href="class_game_state.html" target="_top" xlink:title=" ">
<polygon fill="none" stroke="black" points="586.5,-0.5 586.5,-134.5 725.5,-134.5 725.5,-0.5 586.5,-0.5"/>
<text text-anchor="middle" x="656" y="-122.5" font-family="Helvetica,sans-Serif" font-size="10.00">GameState</text>
<polyline fill="none" stroke="black" points="586.5,-115.5 725.5,-115.5 "/>
<text text-anchor="middle" x="656" y="-103.5" font-family="Helvetica,sans-Serif" font-size="10.00"> </text>
<polyline fill="none" stroke="black" points="586.5,-96.5 725.5,-96.5 "/>
<text text-anchor="start" x="594.5" y="-84.5" font-family="Helvetica,sans-Serif" font-size="10.00">+ virtual ~GameState</text>
<text text-anchor="start" x="594.5" y="-73.5" font-family="Helvetica,sans-Serif" font-size="10.00">()=default</text>
<text text-anchor="start" x="594.5" y="-62.5" font-family="Helvetica,sans-Serif" font-size="10.00">+ PublisherEventHandler</text>
<text text-anchor="start" x="594.5" y="-51.5" font-family="Helvetica,sans-Serif" font-size="10.00"> * getEventHandler()</text>
<text text-anchor="start" x="594.5" y="-40.5" font-family="Helvetica,sans-Serif" font-size="10.00"># GameState(Game *n</text>
<text text-anchor="start" x="594.5" y="-29.5" font-family="Helvetica,sans-Serif" font-size="10.00">_game, std::unique_ptr</text>
<text text-anchor="start" x="594.5" y="-18.5" font-family="Helvetica,sans-Serif" font-size="10.00">&lt; PublisherEventHandler</text>
<text text-anchor="start" x="594.5" y="-7.5" font-family="Helvetica,sans-Serif" font-size="10.00"> &gt; n_eventHandler)</text>
</a>
</g>
</g>
<!-- Node1&#45;&gt;Node3 -->
<g id="edge4" class="edge">
<title>Node1&#45;&gt;Node3</title>
<path fill="none" stroke="#404040" d="M657.31,-182.17C655.68,-176.09 654.23,-170.02 653,-164 651.86,-158.4 651.08,-152.58 650.59,-146.7"/>
<polygon fill="none" stroke="#404040" points="650.58,-146.58 646.27,-140.8 649.95,-134.6 654.26,-140.38 650.58,-146.58"/>
<text text-anchor="middle" x="675.5" y="-156" font-family="Helvetica,sans-Serif" font-size="10.00"> #game_</text>
</g>
<!-- Node2 -->
<g id="node2" class="node">
<title>Node2</title>
<g id="a_node2"><a xlink:title=" ">
<polygon fill="none" stroke="black" points="0,-639.5 0,-696.5 146,-696.5 146,-639.5 0,-639.5"/>
<text text-anchor="middle" x="73" y="-684.5" font-family="Helvetica,sans-Serif" font-size="10.00">unique_ptr&lt; GameState &gt;</text>
<polyline fill="none" stroke="black" points="0,-677.5 146,-677.5 "/>
<text text-anchor="middle" x="73" y="-665.5" font-family="Helvetica,sans-Serif" font-size="10.00"> </text>
<polyline fill="none" stroke="black" points="0,-658.5 146,-658.5 "/>
<text text-anchor="middle" x="73" y="-646.5" font-family="Helvetica,sans-Serif" font-size="10.00"> </text>
</a>
</g>
</g>
<!-- Node2&#45;&gt;Node1 -->
<g id="edge1" class="edge">
<title>Node2&#45;&gt;Node1</title>
<path fill="none" stroke="#404040" d="M87.76,-639.47C111.19,-599.22 161.17,-526.25 228,-500 308.58,-468.35 536.64,-523.21 630.93,-481.81"/>
<polygon fill="none" stroke="#404040" points="631.07,-481.74 634.58,-475.45 641.75,-476.27 638.23,-482.57 631.07,-481.74"/>
<text text-anchor="middle" x="269" y="-536" font-family="Helvetica,sans-Serif" font-size="10.00"> #active_state_</text>
<text text-anchor="middle" x="269" y="-525" font-family="Helvetica,sans-Serif" font-size="10.00">#finished_state_</text>
<text text-anchor="middle" x="269" y="-514" font-family="Helvetica,sans-Serif" font-size="10.00">#menu_state_</text>
<text text-anchor="middle" x="269" y="-503" font-family="Helvetica,sans-Serif" font-size="10.00">#pause_state_</text>
</g>
<!-- Node3&#45;&gt;Node1 -->
<g id="edge2" class="edge">
<title>Node3&#45;&gt;Node1</title>
<path fill="none" stroke="#404040" d="M695.04,-134.82C697.68,-140.85 700.06,-146.96 702,-153 703.86,-158.78 705.56,-164.71 707.12,-170.74"/>
<polygon fill="none" stroke="#404040" points="707.12,-170.77 712.42,-175.67 709.94,-182.44 704.65,-177.55 707.12,-170.77"/>
<text text-anchor="middle" x="725" y="-156" font-family="Helvetica,sans-Serif" font-size="10.00"> #state_</text>
</g>
<!-- Node4 -->
<g id="node4" class="node">
<title>Node4</title>
<g id="a_node4"><a xlink:title=" ">
<polygon fill="none" stroke="black" points="472,-298 472,-366 624,-366 624,-298 472,-298"/>
<text text-anchor="start" x="480" y="-354" font-family="Helvetica,sans-Serif" font-size="10.00">unique_ptr&lt; PublisherEvent</text>
<text text-anchor="middle" x="548" y="-343" font-family="Helvetica,sans-Serif" font-size="10.00">Handler &gt;</text>
<polyline fill="none" stroke="black" points="472,-336 624,-336 "/>
<text text-anchor="middle" x="548" y="-324" font-family="Helvetica,sans-Serif" font-size="10.00"> </text>
<polyline fill="none" stroke="black" points="472,-317 624,-317 "/>
<text text-anchor="middle" x="548" y="-305" font-family="Helvetica,sans-Serif" font-size="10.00"> </text>
</a>
</g>
</g>
<!-- Node4&#45;&gt;Node3 -->
<g id="edge3" class="edge">
<title>Node4&#45;&gt;Node3</title>
<path fill="none" stroke="#404040" d="M544.11,-297.93C541.24,-260.68 541.12,-199.32 564,-153 567.9,-145.11 572.87,-137.6 578.47,-130.55"/>
<polygon fill="none" stroke="#404040" points="578.66,-130.33 579.53,-123.17 586.47,-121.22 585.6,-128.38 578.66,-130.33"/>
<text text-anchor="middle" x="605.5" y="-156" font-family="Helvetica,sans-Serif" font-size="10.00"> #eventHandler_</text>
</g>
<!-- Node5 -->
<g id="node5" class="node">
<title>Node5</title>
<g id="a_node5"><a xlink:title=" ">
<polygon fill="none" stroke="black" points="164.5,-639.5 164.5,-696.5 283.5,-696.5 283.5,-639.5 164.5,-639.5"/>
<text text-anchor="middle" x="224" y="-684.5" font-family="Helvetica,sans-Serif" font-size="10.00">unique_ptr&lt; Board &gt;</text>
<polyline fill="none" stroke="black" points="164.5,-677.5 283.5,-677.5 "/>
<text text-anchor="middle" x="224" y="-665.5" font-family="Helvetica,sans-Serif" font-size="10.00"> </text>
<polyline fill="none" stroke="black" points="164.5,-658.5 283.5,-658.5 "/>
<text text-anchor="middle" x="224" y="-646.5" font-family="Helvetica,sans-Serif" font-size="10.00"> </text>
</a>
</g>
</g>
<!-- Node5&#45;&gt;Node1 -->
<g id="edge5" class="edge">
<title>Node5&#45;&gt;Node1</title>
<path fill="none" stroke="#404040" d="M236.95,-639.2C248.73,-616.24 267.94,-583.96 292,-562 335.75,-522.06 353.1,-516.5 410,-500 454.67,-487.05 573.88,-505.38 630.82,-481.65"/>
<polygon fill="none" stroke="#404040" points="630.97,-481.58 634.5,-475.29 641.66,-476.13 638.13,-482.42 630.97,-481.58"/>
<text text-anchor="middle" x="432.5" y="-519.5" font-family="Helvetica,sans-Serif" font-size="10.00"> #board_</text>
</g>
<!-- Node6 -->
<g id="node6" class="node">
<title>Node6</title>
<g id="a_node6"><a xlink:title=" ">
<polygon fill="none" stroke="black" points="301.5,-639.5 301.5,-696.5 466.5,-696.5 466.5,-639.5 301.5,-639.5"/>
<text text-anchor="middle" x="384" y="-684.5" font-family="Helvetica,sans-Serif" font-size="10.00">unique_ptr&lt; GameStatistics &gt;</text>
<polyline fill="none" stroke="black" points="301.5,-677.5 466.5,-677.5 "/>
<text text-anchor="middle" x="384" y="-665.5" font-family="Helvetica,sans-Serif" font-size="10.00"> </text>
<polyline fill="none" stroke="black" points="301.5,-658.5 466.5,-658.5 "/>
<text text-anchor="middle" x="384" y="-646.5" font-family="Helvetica,sans-Serif" font-size="10.00"> </text>
</a>
</g>
</g>
<!-- Node6&#45;&gt;Node1 -->
<g id="edge6" class="edge">
<title>Node6&#45;&gt;Node1</title>
<path fill="none" stroke="#404040" d="M396.32,-639.44C414.97,-601.2 454.22,-533.05 510,-500 554.47,-473.65 583.04,-507.51 631.53,-481.79"/>
<polygon fill="none" stroke="#404040" points="631.57,-481.77 634.65,-475.25 641.85,-475.58 638.77,-482.1 631.57,-481.77"/>
<text text-anchor="middle" x="545" y="-519.5" font-family="Helvetica,sans-Serif" font-size="10.00"> #gameStats_</text>
</g>
<!-- Node7 -->
<g id="node7" class="node">
<title>Node7</title>
<g id="a_node7"><a xlink:title=" ">
<polygon fill="none" stroke="black" points="484.5,-639.5 484.5,-696.5 639.5,-696.5 639.5,-639.5 484.5,-639.5"/>
<text text-anchor="middle" x="562" y="-684.5" font-family="Helvetica,sans-Serif" font-size="10.00">unique_ptr&lt; GameStatsIO &gt;</text>
<polyline fill="none" stroke="black" points="484.5,-677.5 639.5,-677.5 "/>
<text text-anchor="middle" x="562" y="-665.5" font-family="Helvetica,sans-Serif" font-size="10.00"> </text>
<polyline fill="none" stroke="black" points="484.5,-658.5 639.5,-658.5 "/>
<text text-anchor="middle" x="562" y="-646.5" font-family="Helvetica,sans-Serif" font-size="10.00"> </text>
</a>
</g>
</g>
<!-- Node7&#45;&gt;Node1 -->
<g id="edge7" class="edge">
<title>Node7&#45;&gt;Node1</title>
<path fill="none" stroke="#404040" d="M563.04,-639.26C565.64,-603.84 574.58,-542.1 605,-500 613.66,-488.01 622.66,-492.58 633,-482 633.19,-481.81 633.37,-481.62 633.56,-481.43"/>
<polygon fill="none" stroke="#404040" points="633.59,-481.39 634.73,-474.27 641.74,-472.58 640.6,-479.7 633.59,-481.39"/>
<text text-anchor="middle" x="645" y="-519.5" font-family="Helvetica,sans-Serif" font-size="10.00"> #gameStatsIO_</text>
</g>
<!-- Node8 -->
<g id="node8" class="node">
<title>Node8</title>
<g id="a_node8"><a xlink:title=" ">
<polygon fill="none" stroke="black" points="658,-639.5 658,-696.5 696,-696.5 696,-639.5 658,-639.5"/>
<text text-anchor="middle" x="677" y="-684.5" font-family="Helvetica,sans-Serif" font-size="10.00">bool</text>
<polyline fill="none" stroke="black" points="658,-677.5 696,-677.5 "/>
<text text-anchor="middle" x="677" y="-665.5" font-family="Helvetica,sans-Serif" font-size="10.00"> </text>
<polyline fill="none" stroke="black" points="658,-658.5 696,-658.5 "/>
<text text-anchor="middle" x="677" y="-646.5" font-family="Helvetica,sans-Serif" font-size="10.00"> </text>
</a>
</g>
</g>
<!-- Node8&#45;&gt;Node1 -->
<g id="edge8" class="edge">
<title>Node8&#45;&gt;Node1</title>
<path fill="none" stroke="#404040" d="M679.42,-639.45C682.46,-606.29 688.12,-548.95 695,-500 695.29,-497.95 695.58,-495.88 695.88,-493.8"/>
<polygon fill="none" stroke="#404040" points="695.9,-493.66 692.83,-487.14 697.66,-481.79 700.74,-488.31 695.9,-493.66"/>
<text text-anchor="middle" x="722" y="-519.5" font-family="Helvetica,sans-Serif" font-size="10.00"> #running_</text>
</g>
<!-- Node9 -->
<g id="node9" class="node">
<title>Node9</title>
<g id="a_node9"><a xlink:href="class_clock.html" target="_top" xlink:title="Represents an externally controlled clock running at a given frequency.">
<polygon fill="none" stroke="black" points="714.5,-579 714.5,-757 859.5,-757 859.5,-579 714.5,-579"/>
<text text-anchor="middle" x="787" y="-745" font-family="Helvetica,sans-Serif" font-size="10.00">Clock</text>
<polyline fill="none" stroke="black" points="714.5,-738 859.5,-738 "/>
<text text-anchor="middle" x="787" y="-726" font-family="Helvetica,sans-Serif" font-size="10.00"> </text>
<polyline fill="none" stroke="black" points="714.5,-719 859.5,-719 "/>
<text text-anchor="start" x="722.5" y="-707" font-family="Helvetica,sans-Serif" font-size="10.00">+ Clock()=delete</text>
<text text-anchor="start" x="722.5" y="-696" font-family="Helvetica,sans-Serif" font-size="10.00">+ Clock(const Clock</text>
<text text-anchor="start" x="722.5" y="-685" font-family="Helvetica,sans-Serif" font-size="10.00"> &amp;)=delete</text>
<text text-anchor="start" x="722.5" y="-674" font-family="Helvetica,sans-Serif" font-size="10.00">+ Clock operator=(const</text>
<text text-anchor="start" x="722.5" y="-663" font-family="Helvetica,sans-Serif" font-size="10.00"> Clock &amp;)=delete</text>
<text text-anchor="start" x="722.5" y="-652" font-family="Helvetica,sans-Serif" font-size="10.00">+ void tick()</text>
<text text-anchor="start" x="722.5" y="-641" font-family="Helvetica,sans-Serif" font-size="10.00">+ void sleep()</text>
<text text-anchor="start" x="722.5" y="-630" font-family="Helvetica,sans-Serif" font-size="10.00">+ static void initialize</text>
<text text-anchor="start" x="722.5" y="-619" font-family="Helvetica,sans-Serif" font-size="10.00">(unsigned int frequency)</text>
<text text-anchor="start" x="722.5" y="-608" font-family="Helvetica,sans-Serif" font-size="10.00">+ static Clock * instance()</text>
<text text-anchor="start" x="722.5" y="-597" font-family="Helvetica,sans-Serif" font-size="10.00">&#45; Clock(unsigned int</text>
<text text-anchor="start" x="722.5" y="-586" font-family="Helvetica,sans-Serif" font-size="10.00"> frequency)</text>
</a>
</g>
</g>
<!-- Node9&#45;&gt;Node1 -->
<g id="edge9" class="edge">
<title>Node9&#45;&gt;Node1</title>
<path fill="none" stroke="#404040" d="M770.37,-578.81C765.43,-552.65 759.87,-523.14 754.35,-493.89"/>
<polygon fill="none" stroke="#404040" points="754.29,-493.61 749.25,-488.45 752.07,-481.82 757.11,-486.97 754.29,-493.61"/>
<text text-anchor="middle" x="783.5" y="-519.5" font-family="Helvetica,sans-Serif" font-size="10.00"> #clock_</text>
</g>
<!-- Node10 -->
<g id="node10" class="node">
<title>Node10</title>
<g id="a_node10"><a xlink:href="class_simple_publisher.html" target="_top" xlink:title=" ">
<polygon fill="none" stroke="black" points="315,-827 315,-1027 493,-1027 493,-827 315,-827"/>
<text text-anchor="middle" x="404" y="-1015" font-family="Helvetica,sans-Serif" font-size="10.00">SimplePublisher</text>
<polyline fill="none" stroke="black" points="315,-1008 493,-1008 "/>
<text text-anchor="middle" x="404" y="-996" font-family="Helvetica,sans-Serif" font-size="10.00"> </text>
<polyline fill="none" stroke="black" points="315,-989 493,-989 "/>
<text text-anchor="start" x="323" y="-977" font-family="Helvetica,sans-Serif" font-size="10.00">+ ~SimplePublisher()</text>
<text text-anchor="start" x="323" y="-966" font-family="Helvetica,sans-Serif" font-size="10.00">+ virtual void notifySubscribers()</text>
<text text-anchor="start" x="323" y="-955" font-family="Helvetica,sans-Serif" font-size="10.00">+ void attachSubscriber</text>
<text text-anchor="start" x="323" y="-944" font-family="Helvetica,sans-Serif" font-size="10.00">(SimpleSubscriber *)</text>
<text text-anchor="start" x="323" y="-933" font-family="Helvetica,sans-Serif" font-size="10.00">+ void detachSubscriber</text>
<text text-anchor="start" x="323" y="-922" font-family="Helvetica,sans-Serif" font-size="10.00">(SimpleSubscriber *)</text>
<text text-anchor="start" x="323" y="-911" font-family="Helvetica,sans-Serif" font-size="10.00">+ bool operator==(const</text>
<text text-anchor="start" x="323" y="-900" font-family="Helvetica,sans-Serif" font-size="10.00"> SimplePublisher &amp;rhs)</text>
<text text-anchor="start" x="323" y="-889" font-family="Helvetica,sans-Serif" font-size="10.00"> const</text>
<text text-anchor="start" x="323" y="-878" font-family="Helvetica,sans-Serif" font-size="10.00">+ bool operator!=(const</text>
<text text-anchor="start" x="323" y="-867" font-family="Helvetica,sans-Serif" font-size="10.00"> SimplePublisher &amp;rhs)</text>
<text text-anchor="start" x="323" y="-856" font-family="Helvetica,sans-Serif" font-size="10.00"> const</text>
<text text-anchor="start" x="323" y="-845" font-family="Helvetica,sans-Serif" font-size="10.00"># SimplePublisher()</text>
<text text-anchor="start" x="323" y="-834" font-family="Helvetica,sans-Serif" font-size="10.00">=default</text>
</a>
</g>
</g>
<!-- Node10&#45;&gt;Node9 -->
<g id="edge10" class="edge">
<title>Node10&#45;&gt;Node9</title>
<path fill="none" stroke="midnightblue" d="M501.41,-821.34C501.61,-821.23 501.8,-821.11 502,-821 582.2,-774.69 626.92,-823.79 705,-774 712.51,-769.21 719.61,-763.49 726.27,-757.22"/>
<polygon fill="none" stroke="midnightblue" points="499.33,-818.51 492.73,-826.8 503.06,-824.44 499.33,-818.51"/>
</g>
<!-- Node11 -->
<g id="node11" class="node">
<title>Node11</title>
<g id="a_node11"><a xlink:title=" ">
<polygon fill="none" stroke="black" points="322.5,-1086 322.5,-1143 485.5,-1143 485.5,-1086 322.5,-1086"/>
<text text-anchor="middle" x="404" y="-1131" font-family="Helvetica,sans-Serif" font-size="10.00">vector&lt; SimpleSubscriber * &gt;</text>
<polyline fill="none" stroke="black" points="322.5,-1124 485.5,-1124 "/>
<text text-anchor="middle" x="404" y="-1112" font-family="Helvetica,sans-Serif" font-size="10.00"> </text>
<polyline fill="none" stroke="black" points="322.5,-1105 485.5,-1105 "/>
<text text-anchor="middle" x="404" y="-1093" font-family="Helvetica,sans-Serif" font-size="10.00"> </text>
</a>
</g>
</g>
<!-- Node11&#45;&gt;Node10 -->
<g id="edge11" class="edge">
<title>Node11&#45;&gt;Node10</title>
<path fill="none" stroke="#404040" d="M404,-1085.73C404,-1072.75 404,-1056.37 404,-1039.1"/>
<polygon fill="none" stroke="#404040" points="404,-1039.04 400,-1033.04 404,-1027.04 408,-1033.04 404,-1039.04"/>
<text text-anchor="middle" x="440.5" y="-1054" font-family="Helvetica,sans-Serif" font-size="10.00"> #subscribers_</text>
</g>
<!-- Node12 -->
<g id="node12" class="node">
<title>Node12</title>
<g id="a_node12"><a xlink:title=" ">
<polygon fill="none" stroke="black" points="511,-893 511,-961 645,-961 645,-893 511,-893"/>
<text text-anchor="start" x="519" y="-949" font-family="Helvetica,sans-Serif" font-size="10.00">time_point&lt; std::chrono</text>
<text text-anchor="middle" x="578" y="-938" font-family="Helvetica,sans-Serif" font-size="10.00">::steady_clock &gt;</text>
<polyline fill="none" stroke="black" points="511,-931 645,-931 "/>
<text text-anchor="middle" x="578" y="-919" font-family="Helvetica,sans-Serif" font-size="10.00"> </text>
<polyline fill="none" stroke="black" points="511,-912 645,-912 "/>
<text text-anchor="middle" x="578" y="-900" font-family="Helvetica,sans-Serif" font-size="10.00"> </text>
</a>
</g>
</g>
<!-- Node12&#45;&gt;Node9 -->
<g id="edge12" class="edge">
<title>Node12&#45;&gt;Node9</title>
<path fill="none" stroke="#404040" d="M599.68,-892.55C614.09,-871.26 633.97,-843.54 654,-821 674.47,-797.96 684.11,-796.67 705,-774 707.24,-771.57 709.48,-769.09 711.72,-766.56"/>
<polygon fill="none" stroke="#404040" points="711.94,-766.32 712.85,-759.16 719.81,-757.26 718.89,-764.41 711.94,-766.32"/>
<text text-anchor="middle" x="712" y="-795" font-family="Helvetica,sans-Serif" font-size="10.00"> &#45;last_tick_</text>
</g>
<!-- Node13 -->
<g id="node13" class="node">
<title>Node13</title>
<g id="a_node13"><a xlink:title=" ">
<polygon fill="none" stroke="black" points="663,-898.5 663,-955.5 743,-955.5 743,-898.5 663,-898.5"/>
<text text-anchor="middle" x="703" y="-943.5" font-family="Helvetica,sans-Serif" font-size="10.00">nanoseconds</text>
<polyline fill="none" stroke="black" points="663,-936.5 743,-936.5 "/>
<text text-anchor="middle" x="703" y="-924.5" font-family="Helvetica,sans-Serif" font-size="10.00"> </text>
<polyline fill="none" stroke="black" points="663,-917.5 743,-917.5 "/>
<text text-anchor="middle" x="703" y="-905.5" font-family="Helvetica,sans-Serif" font-size="10.00"> </text>
</a>
</g>
</g>
<!-- Node13&#45;&gt;Node9 -->
<g id="edge13" class="edge">
<title>Node13&#45;&gt;Node9</title>
<path fill="none" stroke="#404040" d="M711.99,-898.5C722.12,-867.51 739.16,-815.37 754.44,-768.61"/>
<polygon fill="none" stroke="#404040" points="754.46,-768.57 752.52,-761.62 758.18,-757.16 760.12,-764.11 754.46,-768.57"/>
<text text-anchor="middle" x="770" y="-795" font-family="Helvetica,sans-Serif" font-size="10.00"> &#45;interval_</text>
</g>
<!-- Node14 -->
<g id="node14" class="node">
<title>Node14</title>
<g id="a_node14"><a xlink:title=" ">
<polygon fill="none" stroke="black" points="761,-898.5 761,-955.5 879,-955.5 879,-898.5 761,-898.5"/>
<text text-anchor="middle" x="820" y="-943.5" font-family="Helvetica,sans-Serif" font-size="10.00">unique_ptr&lt; Clock &gt;</text>
<polyline fill="none" stroke="black" points="761,-936.5 879,-936.5 "/>
<text text-anchor="middle" x="820" y="-924.5" font-family="Helvetica,sans-Serif" font-size="10.00"> </text>
<polyline fill="none" stroke="black" points="761,-917.5 879,-917.5 "/>
<text text-anchor="middle" x="820" y="-905.5" font-family="Helvetica,sans-Serif" font-size="10.00"> </text>
</a>
</g>
</g>
<!-- Node14&#45;&gt;Node9 -->
<g id="edge14" class="edge">
<title>Node14&#45;&gt;Node9</title>
<path fill="none" stroke="#404040" d="M816.47,-898.5C812.51,-867.64 805.85,-815.81 799.87,-769.2"/>
<polygon fill="none" stroke="#404040" points="799.85,-769.07 795.12,-763.62 798.32,-757.16 803.05,-762.61 799.85,-769.07"/>
<text text-anchor="middle" x="818.5" y="-795" font-family="Helvetica,sans-Serif" font-size="10.00"> &#45;self_</text>
</g>
<!-- Node15 -->
<g id="node15" class="node">
<title>Node15</title>
<g id="a_node15"><a xlink:href="class_event_queue.html" target="_top" xlink:title=" ">
<polygon fill="none" stroke="black" points="878,-562.5 878,-773.5 1028,-773.5 1028,-562.5 878,-562.5"/>
<text text-anchor="middle" x="953" y="-761.5" font-family="Helvetica,sans-Serif" font-size="10.00">EventQueue&lt; Event &gt;</text>
<polyline fill="none" stroke="black" points="878,-754.5 1028,-754.5 "/>
<text text-anchor="middle" x="953" y="-742.5" font-family="Helvetica,sans-Serif" font-size="10.00"> </text>
<polyline fill="none" stroke="black" points="878,-735.5 1028,-735.5 "/>
<text text-anchor="start" x="886" y="-723.5" font-family="Helvetica,sans-Serif" font-size="10.00">+ EventQueue(EventQueue</text>
<text text-anchor="start" x="886" y="-712.5" font-family="Helvetica,sans-Serif" font-size="10.00"> &amp;)=delete</text>
<text text-anchor="start" x="886" y="-701.5" font-family="Helvetica,sans-Serif" font-size="10.00">+ bool operator=(const</text>
<text text-anchor="start" x="886" y="-690.5" font-family="Helvetica,sans-Serif" font-size="10.00"> EventQueue &amp;)=delete</text>
<text text-anchor="start" x="886" y="-679.5" font-family="Helvetica,sans-Serif" font-size="10.00">+ void registerEvent</text>
<text text-anchor="start" x="886" y="-668.5" font-family="Helvetica,sans-Serif" font-size="10.00">(std::unique_ptr&lt; Event</text>
<text text-anchor="start" x="886" y="-657.5" font-family="Helvetica,sans-Serif" font-size="10.00"> &gt; event)</text>
<text text-anchor="start" x="886" y="-646.5" font-family="Helvetica,sans-Serif" font-size="10.00">+ std::unique_ptr&lt; Event</text>
<text text-anchor="start" x="886" y="-635.5" font-family="Helvetica,sans-Serif" font-size="10.00"> &gt; pop()</text>
<text text-anchor="start" x="886" y="-624.5" font-family="Helvetica,sans-Serif" font-size="10.00">+ bool isEmpty()</text>
<text text-anchor="start" x="886" y="-613.5" font-family="Helvetica,sans-Serif" font-size="10.00">+ unsigned int size()</text>
<text text-anchor="start" x="886" y="-602.5" font-family="Helvetica,sans-Serif" font-size="10.00">+ void clear()</text>
<text text-anchor="start" x="886" y="-591.5" font-family="Helvetica,sans-Serif" font-size="10.00">+ static EventQueue *</text>
<text text-anchor="start" x="886" y="-580.5" font-family="Helvetica,sans-Serif" font-size="10.00"> instance()</text>
<text text-anchor="start" x="886" y="-569.5" font-family="Helvetica,sans-Serif" font-size="10.00">&#45; EventQueue()=default</text>
</a>
</g>
</g>
<!-- Node15&#45;&gt;Node1 -->
<g id="edge15" class="edge">
<title>Node15&#45;&gt;Node1</title>
<path fill="none" stroke="#404040" d="M881.17,-562.24C859.6,-530.77 835.66,-495.86 813.11,-462.97"/>
<polygon fill="none" stroke="#404040" points="812.95,-462.73 806.26,-460.04 806.16,-452.83 812.85,-455.52 812.95,-462.73"/>
<text text-anchor="middle" x="903" y="-519.5" font-family="Helvetica,sans-Serif" font-size="10.00"> #eventQueue_</text>
</g>
<!-- Node16 -->
<g id="node16" class="node">
<title>Node16</title>
<g id="a_node16"><a xlink:href="classstd_1_1queue_3_01std_1_1unique__ptr_3_01_event_01_4_01_4.html" target="_top" xlink:title=" ">
<polygon fill="none" stroke="black" points="897,-893 897,-961 1009,-961 1009,-893 897,-893"/>
<text text-anchor="start" x="905" y="-949" font-family="Helvetica,sans-Serif" font-size="10.00">queue&lt; std::unique</text>
<text text-anchor="middle" x="953" y="-938" font-family="Helvetica,sans-Serif" font-size="10.00">_ptr&lt; Event &gt; &gt;</text>
<polyline fill="none" stroke="black" points="897,-931 1009,-931 "/>
<text text-anchor="middle" x="953" y="-919" font-family="Helvetica,sans-Serif" font-size="10.00"> </text>
<polyline fill="none" stroke="black" points="897,-912 1009,-912 "/>
<text text-anchor="middle" x="953" y="-900" font-family="Helvetica,sans-Serif" font-size="10.00"> </text>
</a>
</g>
</g>
<!-- Node16&#45;&gt;Node15 -->
<g id="edge16" class="edge">
<title>Node16&#45;&gt;Node15</title>
<path fill="none" stroke="#404040" d="M953,-892.93C953,-865.53 953,-824.87 953,-785.69"/>
<polygon fill="none" stroke="#404040" points="953,-785.6 949,-779.6 953,-773.6 957,-779.6 953,-785.6"/>
<text text-anchor="middle" x="978" y="-795" font-family="Helvetica,sans-Serif" font-size="10.00"> #events_</text>
</g>
<!-- Node17 -->
<g id="node17" class="node">
<title>Node17</title>
<g id="a_node17"><a xlink:title=" ">
<polygon fill="none" stroke="black" points="970,-1086 970,-1143 1120,-1143 1120,-1086 970,-1086"/>
<text text-anchor="middle" x="1045" y="-1131" font-family="Helvetica,sans-Serif" font-size="10.00">unique_ptr&lt; EventQueue &gt;</text>
<polyline fill="none" stroke="black" points="970,-1124 1120,-1124 "/>
<text text-anchor="middle" x="1045" y="-1112" font-family="Helvetica,sans-Serif" font-size="10.00"> </text>
<polyline fill="none" stroke="black" points="970,-1105 1120,-1105 "/>
<text text-anchor="middle" x="1045" y="-1093" font-family="Helvetica,sans-Serif" font-size="10.00"> </text>
</a>
</g>
</g>
<!-- Node17&#45;&gt;Node15 -->
<g id="edge17" class="edge">
<title>Node17&#45;&gt;Node15</title>
<path fill="none" stroke="#404040" d="M1044.92,-1085.68C1044.22,-1033.23 1040.06,-916.4 1018,-821 1014.89,-807.57 1012.22,-804.76 1007,-792 1006.03,-789.64 1005.05,-787.26 1004.06,-784.85"/>
<polygon fill="none" stroke="#404040" points="1003.95,-784.6 997.95,-780.6 999.32,-773.52 1005.33,-777.52 1003.95,-784.6"/>
<text text-anchor="middle" x="1060.5" y="-924.5" font-family="Helvetica,sans-Serif" font-size="10.00"> #self_</text>
</g>
<!-- Node18 -->
<g id="node18" class="node">
<title>Node18</title>
<g id="a_node18"><a xlink:href="class_event_queue.html" target="_top" xlink:title="Singleton class wrapper for std::queue&lt;E&gt;.">
<polygon fill="none" stroke="black" points="1098,-821.5 1098,-1032.5 1248,-1032.5 1248,-821.5 1098,-821.5"/>
<text text-anchor="middle" x="1173" y="-1020.5" font-family="Helvetica,sans-Serif" font-size="10.00">EventQueue&lt; E &gt;</text>
<polyline fill="none" stroke="black" points="1098,-1013.5 1248,-1013.5 "/>
<text text-anchor="middle" x="1173" y="-1001.5" font-family="Helvetica,sans-Serif" font-size="10.00"> </text>
<polyline fill="none" stroke="black" points="1098,-994.5 1248,-994.5 "/>
<text text-anchor="start" x="1106" y="-982.5" font-family="Helvetica,sans-Serif" font-size="10.00">+ EventQueue(EventQueue</text>
<text text-anchor="start" x="1106" y="-971.5" font-family="Helvetica,sans-Serif" font-size="10.00"> &amp;)=delete</text>
<text text-anchor="start" x="1106" y="-960.5" font-family="Helvetica,sans-Serif" font-size="10.00">+ bool operator=(const</text>
<text text-anchor="start" x="1106" y="-949.5" font-family="Helvetica,sans-Serif" font-size="10.00"> EventQueue &amp;)=delete</text>
<text text-anchor="start" x="1106" y="-938.5" font-family="Helvetica,sans-Serif" font-size="10.00">+ void registerEvent</text>
<text text-anchor="start" x="1106" y="-927.5" font-family="Helvetica,sans-Serif" font-size="10.00">(std::unique_ptr&lt; E</text>
<text text-anchor="start" x="1106" y="-916.5" font-family="Helvetica,sans-Serif" font-size="10.00"> &gt; event)</text>
<text text-anchor="start" x="1106" y="-905.5" font-family="Helvetica,sans-Serif" font-size="10.00">+ std::unique_ptr&lt; E</text>
<text text-anchor="start" x="1106" y="-894.5" font-family="Helvetica,sans-Serif" font-size="10.00"> &gt; pop()</text>
<text text-anchor="start" x="1106" y="-883.5" font-family="Helvetica,sans-Serif" font-size="10.00">+ bool isEmpty()</text>
<text text-anchor="start" x="1106" y="-872.5" font-family="Helvetica,sans-Serif" font-size="10.00">+ unsigned int size()</text>
<text text-anchor="start" x="1106" y="-861.5" font-family="Helvetica,sans-Serif" font-size="10.00">+ void clear()</text>
<text text-anchor="start" x="1106" y="-850.5" font-family="Helvetica,sans-Serif" font-size="10.00">+ static EventQueue *</text>
<text text-anchor="start" x="1106" y="-839.5" font-family="Helvetica,sans-Serif" font-size="10.00"> instance()</text>
<text text-anchor="start" x="1106" y="-828.5" font-family="Helvetica,sans-Serif" font-size="10.00">&#45; EventQueue()=default</text>
</a>
</g>
</g>
<!-- Node17&#45;&gt;Node18 -->
<g id="edge20" class="edge">
<title>Node17&#45;&gt;Node18</title>
<path fill="none" stroke="#404040" d="M1064.16,-1085.73C1072.48,-1073.68 1082.83,-1058.68 1093.81,-1042.77"/>
<polygon fill="none" stroke="#404040" points="1093.9,-1042.64 1094.01,-1035.43 1100.71,-1032.76 1100.6,-1039.97 1093.9,-1042.64"/>
<text text-anchor="middle" x="1103.5" y="-1054" font-family="Helvetica,sans-Serif" font-size="10.00"> #self_</text>
</g>
<!-- Node18&#45;&gt;Node15 -->
<g id="edge18" class="edge">
<title>Node18&#45;&gt;Node15</title>
<path fill="none" stroke="orange" d="M1091.09,-825.49C1080.61,-813.9 1069.77,-802.49 1059,-792 1049.95,-783.18 1045.88,-782.98 1037,-774 1034.05,-771.01 1031.09,-767.93 1028.15,-764.77"/>
<polygon fill="orange" stroke="orange" points="1088.65,-828.01 1097.93,-833.13 1093.87,-823.34 1088.65,-828.01"/>
<text text-anchor="middle" x="1096" y="-795" font-family="Helvetica,sans-Serif" font-size="10.00"> &lt; Event &gt;</text>
</g>
<!-- Node19 -->
<g id="node19" class="node">
<title>Node19</title>
<g id="a_node19"><a xlink:title=" ">
<polygon fill="none" stroke="black" points="1138,-1080.5 1138,-1148.5 1250,-1148.5 1250,-1080.5 1138,-1080.5"/>
<text text-anchor="start" x="1146" y="-1136.5" font-family="Helvetica,sans-Serif" font-size="10.00">queue&lt; std::unique</text>
<text text-anchor="middle" x="1194" y="-1125.5" font-family="Helvetica,sans-Serif" font-size="10.00">_ptr&lt; E &gt; &gt;</text>
<polyline fill="none" stroke="black" points="1138,-1118.5 1250,-1118.5 "/>
<text text-anchor="middle" x="1194" y="-1106.5" font-family="Helvetica,sans-Serif" font-size="10.00"> </text>
<polyline fill="none" stroke="black" points="1138,-1099.5 1250,-1099.5 "/>
<text text-anchor="middle" x="1194" y="-1087.5" font-family="Helvetica,sans-Serif" font-size="10.00"> </text>
</a>
</g>
</g>
<!-- Node19&#45;&gt;Node18 -->
<g id="edge19" class="edge">
<title>Node19&#45;&gt;Node18</title>
<path fill="none" stroke="#404040" d="M1190.25,-1080.34C1189.06,-1069.88 1187.68,-1057.68 1186.22,-1044.81"/>
<polygon fill="none" stroke="#404040" points="1186.22,-1044.77 1181.57,-1039.25 1184.87,-1032.84 1189.52,-1038.36 1186.22,-1044.77"/>
<text text-anchor="middle" x="1212" y="-1054" font-family="Helvetica,sans-Serif" font-size="10.00"> #events_</text>
</g>
<!-- Node20 -->
<g id="node20" class="node">
<title>Node20</title>
<g id="a_node20"><a xlink:title=" ">
<polygon fill="none" stroke="black" points="1046,-639.5 1046,-696.5 1176,-696.5 1176,-639.5 1046,-639.5"/>
<text text-anchor="middle" x="1111" y="-684.5" font-family="Helvetica,sans-Serif" font-size="10.00">unique_ptr&lt; Window &gt;</text>
<polyline fill="none" stroke="black" points="1046,-677.5 1176,-677.5 "/>
<text text-anchor="middle" x="1111" y="-665.5" font-family="Helvetica,sans-Serif" font-size="10.00"> </text>
<polyline fill="none" stroke="black" points="1046,-658.5 1176,-658.5 "/>
<text text-anchor="middle" x="1111" y="-646.5" font-family="Helvetica,sans-Serif" font-size="10.00"> </text>
</a>
</g>
</g>
<!-- Node20&#45;&gt;Node1 -->
<g id="edge21" class="edge">
<title>Node20&#45;&gt;Node1</title>
<path fill="none" stroke="#404040" d="M1094.95,-639.28C1081.25,-616.96 1060.13,-585.54 1037,-562 970.49,-494.3 882.32,-431.72 816.52,-389.15"/>
<polygon fill="none" stroke="#404040" points="816.25,-388.98 809.04,-389.11 806.16,-382.5 813.37,-382.38 816.25,-388.98"/>
<text text-anchor="middle" x="1041.5" y="-519.5" font-family="Helvetica,sans-Serif" font-size="10.00"> #window_</text>
</g>
<!-- Node21 -->
<g id="node21" class="node">
<title>Node21</title>
<g id="a_node21"><a xlink:title=" ">
<polygon fill="none" stroke="black" points="1194.5,-639.5 1194.5,-696.5 1379.5,-696.5 1379.5,-639.5 1194.5,-639.5"/>
<text text-anchor="middle" x="1287" y="-684.5" font-family="Helvetica,sans-Serif" font-size="10.00">unique_ptr&lt; KeyboardController &gt;</text>
<polyline fill="none" stroke="black" points="1194.5,-677.5 1379.5,-677.5 "/>
<text text-anchor="middle" x="1287" y="-665.5" font-family="Helvetica,sans-Serif" font-size="10.00"> </text>
<polyline fill="none" stroke="black" points="1194.5,-658.5 1379.5,-658.5 "/>
<text text-anchor="middle" x="1287" y="-646.5" font-family="Helvetica,sans-Serif" font-size="10.00"> </text>
</a>
</g>
</g>
<!-- Node21&#45;&gt;Node1 -->
<g id="edge22" class="edge">
<title>Node21&#45;&gt;Node1</title>
<path fill="none" stroke="#404040" d="M1264.2,-639.36C1244.7,-616.8 1215.08,-585 1185,-562 1069.76,-473.9 915.32,-405.45 817.72,-367.16"/>
<polygon fill="none" stroke="#404040" points="817.58,-367.1 810.54,-368.66 806.4,-362.75 813.44,-361.2 817.58,-367.1"/>
<text text-anchor="middle" x="1206" y="-519.5" font-family="Helvetica,sans-Serif" font-size="10.00"> #keyboardController_</text>
</g>
<!-- Node22 -->
<g id="node22" class="node">
<title>Node22</title>
<g id="a_node22"><a xlink:title=" ">
<polygon fill="none" stroke="black" points="1397.5,-634 1397.5,-702 1542.5,-702 1542.5,-634 1397.5,-634"/>
<text text-anchor="start" x="1405.5" y="-690" font-family="Helvetica,sans-Serif" font-size="10.00">unique_ptr&lt; GraphicEvent</text>
<text text-anchor="middle" x="1470" y="-679" font-family="Helvetica,sans-Serif" font-size="10.00">Handler &gt;</text>
<polyline fill="none" stroke="black" points="1397.5,-672 1542.5,-672 "/>
<text text-anchor="middle" x="1470" y="-660" font-family="Helvetica,sans-Serif" font-size="10.00"> </text>
<polyline fill="none" stroke="black" points="1397.5,-653 1542.5,-653 "/>
<text text-anchor="middle" x="1470" y="-641" font-family="Helvetica,sans-Serif" font-size="10.00"> </text>
</a>
</g>
</g>
<!-- Node22&#45;&gt;Node1 -->
<g id="edge23" class="edge">
<title>Node22&#45;&gt;Node1</title>
<path fill="none" stroke="#404040" d="M1450.19,-634C1435.46,-611.55 1413.71,-582.34 1389,-562 1218.56,-421.7 957.19,-365.35 818.33,-344.35"/>
<polygon fill="none" stroke="#404040" points="817.97,-344.3 811.45,-347.38 806.09,-342.55 812.61,-339.47 817.97,-344.3"/>
<text text-anchor="middle" x="1418.5" y="-519.5" font-family="Helvetica,sans-Serif" font-size="10.00"> #graphicEventHandler_</text>
</g>
</g>
</svg>
