<?xml version="1.0" encoding="UTF-8" standalone="no"?>
<!DOCTYPE svg PUBLIC "-//W3C//DTD SVG 1.1//EN"
 "http://www.w3.org/Graphics/SVG/1.1/DTD/svg11.dtd">
<!-- Generated by graphviz version 2.43.0 (0)
 -->
<!-- Title: /home/tomek/CLionProjects/proi/proi&#45;projekt/src Pages: 1 -->
<svg width="174pt" height="436pt"
 viewBox="0.00 0.00 174.00 436.00" xmlns="http://www.w3.org/2000/svg" xmlns:xlink="http://www.w3.org/1999/xlink">
<g id="graph0" class="graph" transform="scale(1 1) rotate(0) translate(4 432)">
<title>/home/tomek/CLionProjects/proi/proi&#45;projekt/src</title>
<g id="clust1" class="cluster">
<title>clusterdir_68267d1309a1af8e8297ef4c3efbcdba</title>
<g id="a_clust1"><a xlink:href="dir_68267d1309a1af8e8297ef4c3efbcdba.html" target="_top">
<polygon fill="#edf0f7" stroke="#404040" stroke-width="2" points="8,-8 8,-420 158,-420 158,-8 8,-8"/>
</a>
</g>
</g>
<!-- dir_68267d1309a1af8e8297ef4c3efbcdba -->
<g id="node1" class="node">
<title>dir_68267d1309a1af8e8297ef4c3efbcdba</title>
<text text-anchor="middle" x="123" y="-391.5" font-family="Helvetica,sans-Serif" font-size="10.00">src</text>
</g>
<!-- dir_f9968d1aa079c8b4e4a8682b301a0233 -->
<g id="node2" class="node">
<title>dir_f9968d1aa079c8b4e4a8682b301a0233</title>
<g id="a_node2"><a xlink:href="dir_f9968d1aa079c8b4e4a8682b301a0233.html" target="_top" xlink:title="board&#45;lib">
<polygon fill="#a2b4d6" stroke="#404040" points="76,-268 16,-268 16,-232 76,-232 76,-268"/>
<text text-anchor="middle" x="46" y="-247.5" font-family="Helvetica,sans-Serif" font-size="10.00">board&#45;lib</text>
</a>
</g>
</g>
<!-- dir_bca8c228595a97e53e081df8126faa1b -->
<g id="node3" class="node">
<title>dir_bca8c228595a97e53e081df8126faa1b</title>
<g id="a_node3"><a xlink:href="dir_bca8c228595a97e53e081df8126faa1b.html" target="_top" xlink:title="bot&#45;lib">
<polygon fill="#a2b4d6" stroke="#404040" points="130,-196 76,-196 76,-160 130,-160 130,-196"/>
<text text-anchor="middle" x="103" y="-175.5" font-family="Helvetica,sans-Serif" font-size="10.00">bot&#45;lib</text>
</a>
</g>
</g>
<!-- dir_f9968d1aa079c8b4e4a8682b301a0233&#45;&gt;dir_bca8c228595a97e53e081df8126faa1b -->
<g id="edge2" class="edge">
<title>dir_f9968d1aa079c8b4e4a8682b301a0233&#45;&gt;dir_bca8c228595a97e53e081df8126faa1b</title>
<path fill="none" stroke="black" d="M60.09,-231.7C66.92,-223.3 75.26,-213.07 82.76,-203.86"/>
<polygon fill="black" stroke="black" points="85.47,-206.07 89.07,-196.1 80.04,-201.65 85.47,-206.07"/>
<g id="a_edge2&#45;headlabel"><a xlink:href="dir_000000_000001.html" target="_top" xlink:title="1">
<text text-anchor="middle" x="85.4" y="-208.15" font-family="Helvetica,sans-Serif" font-size="10.00">1</text>
</a>
</g>
</g>
<!-- dir_dd008488fb0da8829e2acca19721471d -->
<g id="node4" class="node">
<title>dir_dd008488fb0da8829e2acca19721471d</title>
<g id="a_node4"><a xlink:href="dir_dd008488fb0da8829e2acca19721471d.html" target="_top" xlink:title="core&#45;lib">
<polygon fill="#a2b4d6" stroke="#404040" points="90,-124 36,-124 36,-88 90,-88 90,-124"/>
<text text-anchor="middle" x="63" y="-103.5" font-family="Helvetica,sans-Serif" font-size="10.00">core&#45;lib</text>
</a>
</g>
</g>
<!-- dir_f9968d1aa079c8b4e4a8682b301a0233&#45;&gt;dir_dd008488fb0da8829e2acca19721471d -->
<g id="edge3" class="edge">
<title>dir_f9968d1aa079c8b4e4a8682b301a0233&#45;&gt;dir_dd008488fb0da8829e2acca19721471d</title>
<path fill="none" stroke="black" d="M46.46,-231.87C47.1,-213.89 48.6,-184.86 52,-160 53.16,-151.49 54.9,-142.3 56.65,-134"/>
<polygon fill="black" stroke="black" points="60.1,-134.6 58.83,-124.08 53.26,-133.1 60.1,-134.6"/>
<g id="a_edge3&#45;headlabel"><a xlink:href="dir_000000_000002.html" target="_top" xlink:title="5">
<text text-anchor="middle" x="62.1" y="-136.22" font-family="Helvetica,sans-Serif" font-size="10.00">5</text>
</a>
</g>
</g>
<!-- dir_09862807db2014add90ed94978e55931 -->
<g id="node7" class="node">
<title>dir_09862807db2014add90ed94978e55931</title>
<g id="a_node7"><a xlink:href="dir_09862807db2014add90ed94978e55931.html" target="_top" xlink:title="tank&#45;lib">
<polygon fill="#a2b4d6" stroke="#404040" points="113,-52 59,-52 59,-16 113,-16 113,-52"/>
<text text-anchor="middle" x="86" y="-31.5" font-family="Helvetica,sans-Serif" font-size="10.00">tank&#45;lib</text>
</a>
</g>
</g>
<!-- dir_f9968d1aa079c8b4e4a8682b301a0233&#45;&gt;dir_09862807db2014add90ed94978e55931 -->
<g id="edge1" class="edge">
<title>dir_f9968d1aa079c8b4e4a8682b301a0233&#45;&gt;dir_09862807db2014add90ed94978e55931</title>
<path fill="none" stroke="black" d="M38.33,-231.67C26.02,-201.18 5.34,-136.58 27,-88 32.17,-76.41 41.27,-66.29 50.79,-58.09"/>
<polygon fill="black" stroke="black" points="53.2,-60.65 58.82,-51.66 48.83,-55.18 53.2,-60.65"/>
<g id="a_edge1&#45;headlabel"><a xlink:href="dir_000000_000011.html" target="_top" xlink:title="5">
<text text-anchor="middle" x="52.17" y="-62.61" font-family="Helvetica,sans-Serif" font-size="10.00">5</text>
</a>
</g>
</g>
<!-- dir_bca8c228595a97e53e081df8126faa1b&#45;&gt;dir_dd008488fb0da8829e2acca19721471d -->
<g id="edge4" class="edge">
<title>dir_bca8c228595a97e53e081df8126faa1b&#45;&gt;dir_dd008488fb0da8829e2acca19721471d</title>
<path fill="none" stroke="black" d="M87.2,-159.7C81.82,-151.73 76.1,-142.1 71.45,-133.26"/>
<polygon fill="black" stroke="black" points="74.47,-131.49 66.88,-124.1 68.21,-134.62 74.47,-131.49"/>
<g id="a_edge4&#45;headlabel"><a xlink:href="dir_000001_000002.html" target="_top" xlink:title="9">
<text text-anchor="middle" x="78.62" y="-130.94" font-family="Helvetica,sans-Serif" font-size="10.00">9</text>
</a>
</g>
</g>
<!-- dir_bca8c228595a97e53e081df8126faa1b&#45;&gt;dir_09862807db2014add90ed94978e55931 -->
<g id="edge5" class="edge">
<title>dir_bca8c228595a97e53e081df8126faa1b&#45;&gt;dir_09862807db2014add90ed94978e55931</title>
<path fill="none" stroke="black" d="M96.5,-159.85C94.22,-141.85 93.56,-112.8 90,-88 88.77,-79.43 86.76,-70.22 85.09,-61.92"/>
<polygon fill="black" stroke="black" points="88.52,-61.21 83.25,-52.02 81.64,-62.49 88.52,-61.21"/>
<g id="a_edge5&#45;headlabel"><a xlink:href="dir_000001_000011.html" target="_top" xlink:title="1">
<text text-anchor="middle" x="91.97" y="-61.73" font-family="Helvetica,sans-Serif" font-size="10.00">1</text>
</a>
</g>
</g>
<!-- dir_dd008488fb0da8829e2acca19721471d&#45;&gt;dir_bca8c228595a97e53e081df8126faa1b -->
<g id="edge7" class="edge">
<title>dir_dd008488fb0da8829e2acca19721471d&#45;&gt;dir_bca8c228595a97e53e081df8126faa1b</title>
<path fill="none" stroke="black" d="M78.67,-124.1C84.04,-132.04 89.76,-141.67 94.43,-150.51"/>
<polygon fill="black" stroke="black" points="91.42,-152.32 99.03,-159.7 97.68,-149.19 91.42,-152.32"/>
<g id="a_edge7&#45;headlabel"><a xlink:href="dir_000002_000001.html" target="_top" xlink:title="1">
<text text-anchor="middle" x="87.28" y="-147.87" font-family="Helvetica,sans-Serif" font-size="10.00">1</text>
</a>
</g>
</g>
<!-- dir_dd008488fb0da8829e2acca19721471d&#45;&gt;dir_09862807db2014add90ed94978e55931 -->
<g id="edge6" class="edge">
<title>dir_dd008488fb0da8829e2acca19721471d&#45;&gt;dir_09862807db2014add90ed94978e55931</title>
<path fill="none" stroke="black" d="M62.77,-87.7C64.55,-79.81 67.45,-70.3 70.71,-61.55"/>
<polygon fill="black" stroke="black" points="74.02,-62.69 74.48,-52.1 67.52,-60.09 74.02,-62.69"/>
<g id="a_edge6&#45;headlabel"><a xlink:href="dir_000002_000011.html" target="_top" xlink:title="3">
<text text-anchor="middle" x="75.32" y="-64.58" font-family="Helvetica,sans-Serif" font-size="10.00">3</text>
</a>
</g>
</g>
<!-- dir_ababdeb7394d8224d3e296f78088442b -->
<g id="node5" class="node">
<title>dir_ababdeb7394d8224d3e296f78088442b</title>
<g id="a_node5"><a xlink:href="dir_ababdeb7394d8224d3e296f78088442b.html" target="_top" xlink:title="game&#45;lib">
<polygon fill="#a2b4d6" stroke="#404040" points="125,-340 65,-340 65,-304 125,-304 125,-340"/>
<text text-anchor="middle" x="95" y="-319.5" font-family="Helvetica,sans-Serif" font-size="10.00">game&#45;lib</text>
</a>
</g>
</g>
<!-- dir_ababdeb7394d8224d3e296f78088442b&#45;&gt;dir_f9968d1aa079c8b4e4a8682b301a0233 -->
<g id="edge11" class="edge">
<title>dir_ababdeb7394d8224d3e296f78088442b&#45;&gt;dir_f9968d1aa079c8b4e4a8682b301a0233</title>
<path fill="none" stroke="black" d="M82.89,-303.7C77.13,-295.47 70.14,-285.48 63.79,-276.42"/>
<polygon fill="black" stroke="black" points="66.58,-274.29 57.97,-268.1 60.84,-278.3 66.58,-274.29"/>
<g id="a_edge11&#45;headlabel"><a xlink:href="dir_000003_000000.html" target="_top" xlink:title="4">
<text text-anchor="middle" x="70.96" y="-273.11" font-family="Helvetica,sans-Serif" font-size="10.00">4</text>
</a>
</g>
</g>
<!-- dir_ababdeb7394d8224d3e296f78088442b&#45;&gt;dir_bca8c228595a97e53e081df8126faa1b -->
<g id="edge9" class="edge">
<title>dir_ababdeb7394d8224d3e296f78088442b&#45;&gt;dir_bca8c228595a97e53e081df8126faa1b</title>
<path fill="none" stroke="black" d="M96.88,-303.84C97.96,-293.47 99.23,-279.99 100,-268 101.32,-247.3 102.08,-223.86 102.51,-206.23"/>
<polygon fill="black" stroke="black" points="106.01,-206.15 102.73,-196.08 99.01,-206 106.01,-206.15"/>
<g id="a_edge9&#45;headlabel"><a xlink:href="dir_000003_000001.html" target="_top" xlink:title="1">
<text text-anchor="middle" x="108.77" y="-207.31" font-family="Helvetica,sans-Serif" font-size="10.00">1</text>
</a>
</g>
</g>
<!-- dir_ababdeb7394d8224d3e296f78088442b&#45;&gt;dir_dd008488fb0da8829e2acca19721471d -->
<g id="edge10" class="edge">
<title>dir_ababdeb7394d8224d3e296f78088442b&#45;&gt;dir_dd008488fb0da8829e2acca19721471d</title>
<path fill="none" stroke="black" d="M94.85,-303.92C94.28,-285.74 92.19,-256.3 85,-232 79.92,-214.85 71.5,-213.31 67,-196 61.72,-175.7 60.91,-151.93 61.32,-134.06"/>
<polygon fill="black" stroke="black" points="64.82,-134.16 61.69,-124.04 57.82,-133.91 64.82,-134.16"/>
<g id="a_edge10&#45;headlabel"><a xlink:href="dir_000003_000002.html" target="_top" xlink:title="19">
<text text-anchor="middle" x="67.53" y="-135.36" font-family="Helvetica,sans-Serif" font-size="10.00">19</text>
</a>
</g>
</g>
<!-- dir_ababdeb7394d8224d3e296f78088442b&#45;&gt;dir_09862807db2014add90ed94978e55931 -->
<g id="edge8" class="edge">
<title>dir_ababdeb7394d8224d3e296f78088442b&#45;&gt;dir_09862807db2014add90ed94978e55931</title>
<path fill="none" stroke="black" d="M105.22,-303.79C121.34,-274.53 149.79,-213.1 139,-160 131.71,-124.11 113.74,-85.74 100.75,-61.12"/>
<polygon fill="black" stroke="black" points="103.7,-59.22 95.87,-52.08 97.54,-62.54 103.7,-59.22"/>
<g id="a_edge8&#45;headlabel"><a xlink:href="dir_000003_000011.html" target="_top" xlink:title="2">
<text text-anchor="middle" x="107.9" y="-58.54" font-family="Helvetica,sans-Serif" font-size="10.00">2</text>
</a>
</g>
</g>
<!-- dir_5eb159725f84c66aafd839904a4acdd0 -->
<g id="node6" class="node">
<title>dir_5eb159725f84c66aafd839904a4acdd0</title>
<g id="a_node6"><a xlink:href="dir_5eb159725f84c66aafd839904a4acdd0.html" target="_top" xlink:title="main">
<polygon fill="#a2b4d6" stroke="#404040" points="78,-412 24,-412 24,-376 78,-376 78,-412"/>
<text text-anchor="middle" x="51" y="-391.5" font-family="Helvetica,sans-Serif" font-size="10.00">main</text>
</a>
</g>
</g>
<!-- dir_5eb159725f84c66aafd839904a4acdd0&#45;&gt;dir_ababdeb7394d8224d3e296f78088442b -->
<g id="edge12" class="edge">
<title>dir_5eb159725f84c66aafd839904a4acdd0&#45;&gt;dir_ababdeb7394d8224d3e296f78088442b</title>
<path fill="none" stroke="black" d="M61.88,-375.7C66.99,-367.56 73.2,-357.69 78.84,-348.7"/>
<polygon fill="black" stroke="black" points="81.89,-350.43 84.25,-340.1 75.96,-346.71 81.89,-350.43"/>
<g id="a_edge12&#45;headlabel"><a xlink:href="dir_000009_000003.html" target="_top" xlink:title="1">
<text text-anchor="middle" x="82.38" y="-352.49" font-family="Helvetica,sans-Serif" font-size="10.00">1</text>
</a>
</g>
</g>
<!-- dir_09862807db2014add90ed94978e55931&#45;&gt;dir_bca8c228595a97e53e081df8126faa1b -->
<g id="edge13" class="edge">
<title>dir_09862807db2014add90ed94978e55931&#45;&gt;dir_bca8c228595a97e53e081df8126faa1b</title>
<path fill="none" stroke="black" d="M98.9,-52.02C102.92,-62.33 106.25,-75.81 108,-88 110.95,-108.54 111.91,-131.99 110.85,-149.67"/>
<polygon fill="black" stroke="black" points="107.35,-149.57 109.94,-159.85 114.32,-150.2 107.35,-149.57"/>
<g id="a_edge13&#45;headlabel"><a xlink:href="dir_000011_000001.html" target="_top" xlink:title="1">
<text text-anchor="middle" x="104.84" y="-143.24" font-family="Helvetica,sans-Serif" font-size="10.00">1</text>
</a>
</g>
</g>
<!-- dir_09862807db2014add90ed94978e55931&#45;&gt;dir_dd008488fb0da8829e2acca19721471d -->
<g id="edge14" class="edge">
<title>dir_09862807db2014add90ed94978e55931&#45;&gt;dir_dd008488fb0da8829e2acca19721471d</title>
<path fill="none" stroke="black" d="M86.28,-52.1C84.52,-59.96 81.62,-69.46 78.38,-78.23"/>
<polygon fill="black" stroke="black" points="75.06,-77.11 74.6,-87.7 81.56,-79.71 75.06,-77.11"/>
<g id="a_edge14&#45;headlabel"><a xlink:href="dir_000011_000002.html" target="_top" xlink:title="8">
<text text-anchor="middle" x="73.75" y="-70.22" font-family="Helvetica,sans-Serif" font-size="10.00">8</text>
</a>
</g>
</g>
</g>
</svg>
