<?xml version="1.0" encoding="UTF-8" standalone="no"?>
<!DOCTYPE svg PUBLIC "-//W3C//DTD SVG 1.1//EN"
 "http://www.w3.org/Graphics/SVG/1.1/DTD/svg11.dtd">
<!-- Generated by graphviz version 2.50.0 (0)
 -->
<!-- Title: /home/tomek/trash/battle&#45;city/src/lib Pages: 1 -->
<svg width="230pt" height="471pt"
 viewBox="0.00 0.00 230.00 471.00" xmlns="http://www.w3.org/2000/svg" xmlns:xlink="http://www.w3.org/1999/xlink">
<g id="graph0" class="graph" transform="scale(1 1) rotate(0) translate(4 467)">
<title>/home/tomek/trash/battle&#45;city/src/lib</title>
<g id="clust1" class="cluster">
<title>clusterdir_68267d1309a1af8e8297ef4c3efbcdba</title>
<g id="a_clust1"><a xlink:href="dir_68267d1309a1af8e8297ef4c3efbcdba.html" target="_top" xlink:title="src">
<polygon fill="#ddddee" stroke="black" points="8,-8 8,-455 214,-455 214,-8 8,-8"/>
<text text-anchor="middle" x="111" y="-443" font-family="Helvetica,sans-Serif" font-size="10.00">src</text>
</a>
</g>
</g>
<g id="clust2" class="cluster">
<title>clusterdir_c85d3e3c5052e9ad9ce18c6863244a25</title>
<g id="a_clust2"><a xlink:href="dir_c85d3e3c5052e9ad9ce18c6863244a25.html" target="_top">
<polygon fill="#eeeeff" stroke="black" points="16,-16 16,-428 206,-428 206,-16 16,-16"/>
</a>
</g>
</g>
<!-- dir_c85d3e3c5052e9ad9ce18c6863244a25 -->
<g id="node1" class="node">
<title>dir_c85d3e3c5052e9ad9ce18c6863244a25</title>
<text text-anchor="middle" x="169" y="-399.5" font-family="Helvetica,sans-Serif" font-size="10.00">lib</text>
</g>
<!-- dir_cacc18bc85170f9fa04943c8ab019291 -->
<g id="node2" class="node">
<title>dir_cacc18bc85170f9fa04943c8ab019291</title>
<g id="a_node2"><a xlink:href="dir_cacc18bc85170f9fa04943c8ab019291.html" target="_top" xlink:title="board&#45;lib">
<polygon fill="white" stroke="red" points="118,-276 58,-276 58,-240 118,-240 118,-276"/>
<text text-anchor="middle" x="88" y="-255.5" font-family="Helvetica,sans-Serif" font-size="10.00">board&#45;lib</text>
</a>
</g>
</g>
<!-- dir_38ffd869ea1e3ea20201c988a7100f97 -->
<g id="node3" class="node">
<title>dir_38ffd869ea1e3ea20201c988a7100f97</title>
<g id="a_node3"><a xlink:href="dir_38ffd869ea1e3ea20201c988a7100f97.html" target="_top" xlink:title="bot&#45;lib">
<polygon fill="white" stroke="red" points="78,-204 24,-204 24,-168 78,-168 78,-204"/>
<text text-anchor="middle" x="51" y="-183.5" font-family="Helvetica,sans-Serif" font-size="10.00">bot&#45;lib</text>
</a>
</g>
</g>
<!-- dir_cacc18bc85170f9fa04943c8ab019291&#45;&gt;dir_38ffd869ea1e3ea20201c988a7100f97 -->
<g id="edge4" class="edge">
<title>dir_cacc18bc85170f9fa04943c8ab019291&#45;&gt;dir_38ffd869ea1e3ea20201c988a7100f97</title>
<path fill="none" stroke="black" d="M78.85,-239.7C74.6,-231.64 69.44,-221.89 64.73,-212.98"/>
<polygon fill="black" stroke="black" points="67.81,-211.31 60.04,-204.1 61.62,-214.58 67.81,-211.31"/>
<g id="a_edge4&#45;headlabel"><a xlink:href="dir_000002_000004.html" target="_top" xlink:title="1">
<text text-anchor="middle" x="72" y="-210.66" font-family="Helvetica,sans-Serif" font-size="10.00">1</text>
</a>
</g>
</g>
<!-- dir_23789bfc1eecc7b2a8e34646554d91fc -->
<g id="node4" class="node">
<title>dir_23789bfc1eecc7b2a8e34646554d91fc</title>
<g id="a_node4"><a xlink:href="dir_23789bfc1eecc7b2a8e34646554d91fc.html" target="_top" xlink:title="core&#45;lib">
<polygon fill="white" stroke="red" points="158,-132 104,-132 104,-96 158,-96 158,-132"/>
<text text-anchor="middle" x="131" y="-111.5" font-family="Helvetica,sans-Serif" font-size="10.00">core&#45;lib</text>
</a>
</g>
</g>
<!-- dir_cacc18bc85170f9fa04943c8ab019291&#45;&gt;dir_23789bfc1eecc7b2a8e34646554d91fc -->
<g id="edge3" class="edge">
<title>dir_cacc18bc85170f9fa04943c8ab019291&#45;&gt;dir_23789bfc1eecc7b2a8e34646554d91fc</title>
<path fill="none" stroke="black" d="M93.19,-239.87C100.55,-215.56 114.1,-170.82 122.82,-142.01"/>
<polygon fill="black" stroke="black" points="126.25,-142.77 125.79,-132.19 119.55,-140.75 126.25,-142.77"/>
<g id="a_edge3&#45;headlabel"><a xlink:href="dir_000002_000006.html" target="_top" xlink:title="8">
<text text-anchor="middle" x="127.92" y="-144.54" font-family="Helvetica,sans-Serif" font-size="10.00">8</text>
</a>
</g>
</g>
<!-- dir_e1f35f9bd0e5733c0b6830a2848b421d -->
<g id="node7" class="node">
<title>dir_e1f35f9bd0e5733c0b6830a2848b421d</title>
<g id="a_node7"><a xlink:href="dir_e1f35f9bd0e5733c0b6830a2848b421d.html" target="_top" xlink:title="tank&#45;lib">
<polygon fill="white" stroke="red" points="158,-60 104,-60 104,-24 158,-24 158,-60"/>
<text text-anchor="middle" x="131" y="-39.5" font-family="Helvetica,sans-Serif" font-size="10.00">tank&#45;lib</text>
</a>
</g>
</g>
<!-- dir_cacc18bc85170f9fa04943c8ab019291&#45;&gt;dir_e1f35f9bd0e5733c0b6830a2848b421d -->
<g id="edge5" class="edge">
<title>dir_cacc18bc85170f9fa04943c8ab019291&#45;&gt;dir_e1f35f9bd0e5733c0b6830a2848b421d</title>
<path fill="none" stroke="black" d="M87.57,-239.73C86.86,-203.81 86.31,-122.23 95,-96 98.22,-86.28 103.78,-76.7 109.58,-68.42"/>
<polygon fill="black" stroke="black" points="112.46,-70.41 115.62,-60.3 106.84,-66.23 112.46,-70.41"/>
<g id="a_edge5&#45;headlabel"><a xlink:href="dir_000002_000016.html" target="_top" xlink:title="5">
<text text-anchor="middle" x="112.59" y="-72.49" font-family="Helvetica,sans-Serif" font-size="10.00">5</text>
</a>
</g>
</g>
<!-- dir_38ffd869ea1e3ea20201c988a7100f97&#45;&gt;dir_23789bfc1eecc7b2a8e34646554d91fc -->
<g id="edge1" class="edge">
<title>dir_38ffd869ea1e3ea20201c988a7100f97&#45;&gt;dir_23789bfc1eecc7b2a8e34646554d91fc</title>
<path fill="none" stroke="black" d="M70.78,-167.7C80.75,-158.97 93.01,-148.24 103.86,-138.75"/>
<polygon fill="black" stroke="black" points="106.23,-141.32 111.45,-132.1 101.62,-136.06 106.23,-141.32"/>
<g id="a_edge1&#45;headlabel"><a xlink:href="dir_000004_000006.html" target="_top" xlink:title="9">
<text text-anchor="middle" x="105.4" y="-143.33" font-family="Helvetica,sans-Serif" font-size="10.00">9</text>
</a>
</g>
</g>
<!-- dir_38ffd869ea1e3ea20201c988a7100f97&#45;&gt;dir_e1f35f9bd0e5733c0b6830a2848b421d -->
<g id="edge2" class="edge">
<title>dir_38ffd869ea1e3ea20201c988a7100f97&#45;&gt;dir_e1f35f9bd0e5733c0b6830a2848b421d</title>
<path fill="none" stroke="black" d="M47.57,-167.97C49.14,-149.32 57.2,-118.99 71,-96 77.64,-84.94 86.98,-74.36 96.4,-65.6"/>
<polygon fill="black" stroke="black" points="98.73,-68.22 103.93,-58.99 94.11,-62.96 98.73,-68.22"/>
<g id="a_edge2&#45;headlabel"><a xlink:href="dir_000004_000016.html" target="_top" xlink:title="1">
<text text-anchor="middle" x="97.9" y="-70.22" font-family="Helvetica,sans-Serif" font-size="10.00">1</text>
</a>
</g>
</g>
<!-- dir_23789bfc1eecc7b2a8e34646554d91fc&#45;&gt;dir_e1f35f9bd0e5733c0b6830a2848b421d -->
<g id="edge15" class="edge">
<title>dir_23789bfc1eecc7b2a8e34646554d91fc&#45;&gt;dir_e1f35f9bd0e5733c0b6830a2848b421d</title>
<path fill="none" stroke="black" d="M125.08,-95.7C124.29,-87.98 124.06,-78.71 124.4,-70.11"/>
<polygon fill="black" stroke="black" points="127.9,-70.32 125.1,-60.1 120.92,-69.84 127.9,-70.32"/>
<g id="a_edge15&#45;headlabel"><a xlink:href="dir_000006_000016.html" target="_top" xlink:title="2">
<text text-anchor="middle" x="130.48" y="-71.61" font-family="Helvetica,sans-Serif" font-size="10.00">2</text>
</a>
</g>
</g>
<!-- dir_9f356855affb7a049aa63cb8a5ea3820 -->
<g id="node5" class="node">
<title>dir_9f356855affb7a049aa63cb8a5ea3820</title>
<g id="a_node5"><a xlink:href="dir_9f356855affb7a049aa63cb8a5ea3820.html" target="_top" xlink:title="game&#45;lib">
<polygon fill="white" stroke="red" points="122,-420 62,-420 62,-384 122,-384 122,-420"/>
<text text-anchor="middle" x="92" y="-399.5" font-family="Helvetica,sans-Serif" font-size="10.00">game&#45;lib</text>
</a>
</g>
</g>
<!-- dir_9f356855affb7a049aa63cb8a5ea3820&#45;&gt;dir_cacc18bc85170f9fa04943c8ab019291 -->
<g id="edge8" class="edge">
<title>dir_9f356855affb7a049aa63cb8a5ea3820&#45;&gt;dir_cacc18bc85170f9fa04943c8ab019291</title>
<path fill="none" stroke="black" d="M89.56,-383.86C88.21,-373.5 86.68,-360.02 86,-348 84.83,-327.3 85.44,-303.85 86.28,-286.22"/>
<polygon fill="black" stroke="black" points="89.78,-286.25 86.82,-276.08 82.79,-285.88 89.78,-286.25"/>
<g id="a_edge8&#45;headlabel"><a xlink:href="dir_000008_000002.html" target="_top" xlink:title="4">
<text text-anchor="middle" x="92.43" y="-287.49" font-family="Helvetica,sans-Serif" font-size="10.00">4</text>
</a>
</g>
</g>
<!-- dir_9f356855affb7a049aa63cb8a5ea3820&#45;&gt;dir_38ffd869ea1e3ea20201c988a7100f97 -->
<g id="edge7" class="edge">
<title>dir_9f356855affb7a049aa63cb8a5ea3820&#45;&gt;dir_38ffd869ea1e3ea20201c988a7100f97</title>
<path fill="none" stroke="black" d="M83.98,-383.68C73.49,-359.98 55.66,-315.84 49,-276 46.36,-260.22 48.7,-256 49,-240 49.16,-231.68 49.45,-222.63 49.77,-214.4"/>
<polygon fill="black" stroke="black" points="53.28,-214.32 50.19,-204.18 46.28,-214.03 53.28,-214.32"/>
<g id="a_edge7&#45;headlabel"><a xlink:href="dir_000008_000004.html" target="_top" xlink:title="2">
<text text-anchor="middle" x="55.96" y="-215.52" font-family="Helvetica,sans-Serif" font-size="10.00">2</text>
</a>
</g>
</g>
<!-- dir_9f356855affb7a049aa63cb8a5ea3820&#45;&gt;dir_23789bfc1eecc7b2a8e34646554d91fc -->
<g id="edge6" class="edge">
<title>dir_9f356855affb7a049aa63cb8a5ea3820&#45;&gt;dir_23789bfc1eecc7b2a8e34646554d91fc</title>
<path fill="none" stroke="black" d="M91.14,-383.67C90.82,-365.27 92.01,-335.66 101,-312 108.01,-293.55 120.69,-294.7 127,-276 142.17,-231.01 138.97,-174.87 135.1,-142.16"/>
<polygon fill="black" stroke="black" points="138.55,-141.49 133.79,-132.02 131.6,-142.39 138.55,-141.49"/>
<g id="a_edge6&#45;headlabel"><a xlink:href="dir_000008_000006.html" target="_top" xlink:title="14">
<text text-anchor="middle" x="141.82" y="-142.19" font-family="Helvetica,sans-Serif" font-size="10.00">14</text>
</a>
</g>
</g>
<!-- dir_55b16b46ae894073050a70b0a57e429a -->
<g id="node6" class="node">
<title>dir_55b16b46ae894073050a70b0a57e429a</title>
<g id="a_node6"><a xlink:href="dir_55b16b46ae894073050a70b0a57e429a.html" target="_top" xlink:title="graphic&#45;lib">
<polygon fill="white" stroke="red" points="178,-348 110,-348 110,-312 178,-312 178,-348"/>
<text text-anchor="middle" x="144" y="-327.5" font-family="Helvetica,sans-Serif" font-size="10.00">graphic&#45;lib</text>
</a>
</g>
</g>
<!-- dir_9f356855affb7a049aa63cb8a5ea3820&#45;&gt;dir_55b16b46ae894073050a70b0a57e429a -->
<g id="edge10" class="edge">
<title>dir_9f356855affb7a049aa63cb8a5ea3820&#45;&gt;dir_55b16b46ae894073050a70b0a57e429a</title>
<path fill="none" stroke="black" d="M98.94,-383.7C104.31,-375.3 111.72,-365.07 119.04,-355.86"/>
<polygon fill="black" stroke="black" points="121.77,-358.06 125.4,-348.1 116.35,-353.62 121.77,-358.06"/>
<g id="a_edge10&#45;headlabel"><a xlink:href="dir_000008_000010.html" target="_top" xlink:title="2">
<text text-anchor="middle" x="121.68" y="-360.14" font-family="Helvetica,sans-Serif" font-size="10.00">2</text>
</a>
</g>
</g>
<!-- dir_9f356855affb7a049aa63cb8a5ea3820&#45;&gt;dir_e1f35f9bd0e5733c0b6830a2848b421d -->
<g id="edge9" class="edge">
<title>dir_9f356855affb7a049aa63cb8a5ea3820&#45;&gt;dir_e1f35f9bd0e5733c0b6830a2848b421d</title>
<path fill="none" stroke="black" d="M122.36,-387.78C147.05,-376.4 179.05,-359.95 187,-348 209.04,-314.86 197,-298.8 197,-259 197,-259 197,-259 197,-185 197,-144.25 193.37,-132.37 175,-96 169.93,-85.97 162.66,-76.16 155.48,-67.76"/>
<polygon fill="black" stroke="black" points="157.98,-65.3 148.7,-60.18 152.76,-69.97 157.98,-65.3"/>
<g id="a_edge9&#45;headlabel"><a xlink:href="dir_000008_000016.html" target="_top" xlink:title="1">
<text text-anchor="middle" x="162.49" y="-63.59" font-family="Helvetica,sans-Serif" font-size="10.00">1</text>
</a>
</g>
</g>
<!-- dir_55b16b46ae894073050a70b0a57e429a&#45;&gt;dir_cacc18bc85170f9fa04943c8ab019291 -->
<g id="edge12" class="edge">
<title>dir_55b16b46ae894073050a70b0a57e429a&#45;&gt;dir_cacc18bc85170f9fa04943c8ab019291</title>
<path fill="none" stroke="black" d="M130.16,-311.7C123.51,-303.39 115.42,-293.28 108.11,-284.14"/>
<polygon fill="black" stroke="black" points="110.66,-281.73 101.68,-276.1 105.2,-286.1 110.66,-281.73"/>
<g id="a_edge12&#45;headlabel"><a xlink:href="dir_000010_000002.html" target="_top" xlink:title="6">
<text text-anchor="middle" x="115.13" y="-280.26" font-family="Helvetica,sans-Serif" font-size="10.00">6</text>
</a>
</g>
</g>
<!-- dir_55b16b46ae894073050a70b0a57e429a&#45;&gt;dir_23789bfc1eecc7b2a8e34646554d91fc -->
<g id="edge14" class="edge">
<title>dir_55b16b46ae894073050a70b0a57e429a&#45;&gt;dir_23789bfc1eecc7b2a8e34646554d91fc</title>
<path fill="none" stroke="black" d="M144.88,-311.54C146.12,-281.92 147.66,-219.97 142,-168 141.07,-159.46 139.4,-150.26 137.64,-141.96"/>
<polygon fill="black" stroke="black" points="141.02,-141.04 135.41,-132.05 134.19,-142.58 141.02,-141.04"/>
<g id="a_edge14&#45;headlabel"><a xlink:href="dir_000010_000006.html" target="_top" xlink:title="1">
<text text-anchor="middle" x="144.58" y="-141.42" font-family="Helvetica,sans-Serif" font-size="10.00">1</text>
</a>
</g>
</g>
<!-- dir_55b16b46ae894073050a70b0a57e429a&#45;&gt;dir_9f356855affb7a049aa63cb8a5ea3820 -->
<g id="edge11" class="edge">
<title>dir_55b16b46ae894073050a70b0a57e429a&#45;&gt;dir_9f356855affb7a049aa63cb8a5ea3820</title>
<path fill="none" stroke="black" d="M137.19,-348.1C131.85,-356.47 124.46,-366.69 117.13,-375.92"/>
<polygon fill="black" stroke="black" points="114.39,-373.74 110.77,-383.7 119.81,-378.17 114.39,-373.74"/>
<g id="a_edge11&#45;headlabel"><a xlink:href="dir_000010_000008.html" target="_top" xlink:title="3">
<text text-anchor="middle" x="114.47" y="-366.66" font-family="Helvetica,sans-Serif" font-size="10.00">3</text>
</a>
</g>
</g>
<!-- dir_55b16b46ae894073050a70b0a57e429a&#45;&gt;dir_e1f35f9bd0e5733c0b6830a2848b421d -->
<g id="edge13" class="edge">
<title>dir_55b16b46ae894073050a70b0a57e429a&#45;&gt;dir_e1f35f9bd0e5733c0b6830a2848b421d</title>
<path fill="none" stroke="black" d="M150.15,-311.88C163.28,-272.7 190.95,-173.9 167,-96 163.99,-86.22 158.49,-76.62 152.68,-68.33"/>
<polygon fill="black" stroke="black" points="155.41,-66.13 146.61,-60.23 149.81,-70.33 155.41,-66.13"/>
<g id="a_edge13&#45;headlabel"><a xlink:href="dir_000010_000016.html" target="_top" xlink:title="7">
<text text-anchor="middle" x="159.83" y="-64.8" font-family="Helvetica,sans-Serif" font-size="10.00">7</text>
</a>
</g>
</g>
<!-- dir_e1f35f9bd0e5733c0b6830a2848b421d&#45;&gt;dir_38ffd869ea1e3ea20201c988a7100f97 -->
<g id="edge17" class="edge">
<title>dir_e1f35f9bd0e5733c0b6830a2848b421d&#45;&gt;dir_38ffd869ea1e3ea20201c988a7100f97</title>
<path fill="none" stroke="black" d="M118.32,-60.38C108.98,-69.98 97.02,-82.64 89,-96 77.36,-115.4 69.8,-140.02 63.88,-158.45"/>
<polygon fill="black" stroke="black" points="60.55,-157.38 60.75,-167.97 67.2,-159.57 60.55,-157.38"/>
<g id="a_edge17&#45;headlabel"><a xlink:href="dir_000016_000004.html" target="_top" xlink:title="2">
<text text-anchor="middle" x="58.97" y="-150.58" font-family="Helvetica,sans-Serif" font-size="10.00">2</text>
</a>
</g>
</g>
<!-- dir_e1f35f9bd0e5733c0b6830a2848b421d&#45;&gt;dir_23789bfc1eecc7b2a8e34646554d91fc -->
<g id="edge16" class="edge">
<title>dir_e1f35f9bd0e5733c0b6830a2848b421d&#45;&gt;dir_23789bfc1eecc7b2a8e34646554d91fc</title>
<path fill="none" stroke="black" d="M136.9,-60.1C137.7,-67.79 137.94,-77.05 137.6,-85.67"/>
<polygon fill="black" stroke="black" points="134.11,-85.48 136.92,-95.7 141.09,-85.96 134.11,-85.48"/>
<g id="a_edge16&#45;headlabel"><a xlink:href="dir_000016_000006.html" target="_top" xlink:title="9">
<text text-anchor="middle" x="131.52" y="-79.2" font-family="Helvetica,sans-Serif" font-size="10.00">9</text>
</a>
</g>
</g>
</g>
</svg>
