<?xml version="1.0" encoding="UTF-8" standalone="no"?>
<!DOCTYPE svg PUBLIC "-//W3C//DTD SVG 1.1//EN"
 "http://www.w3.org/Graphics/SVG/1.1/DTD/svg11.dtd">
<!-- Generated by graphviz version 2.43.0 (0)
 -->
<!-- Title: /home/tomek/CLionProjects/proi/proi&#45;projekt/src/bot&#45;lib Pages: 1 -->
<svg width="166pt" height="247pt"
 viewBox="0.00 0.00 166.00 247.00" xmlns="http://www.w3.org/2000/svg" xmlns:xlink="http://www.w3.org/1999/xlink">
<g id="graph0" class="graph" transform="scale(1 1) rotate(0) translate(4 243)">
<title>/home/tomek/CLionProjects/proi/proi&#45;projekt/src/bot&#45;lib</title>
<g id="clust1" class="cluster">
<title>clusterdir_68267d1309a1af8e8297ef4c3efbcdba</title>
<g id="a_clust1"><a xlink:href="dir_68267d1309a1af8e8297ef4c3efbcdba.html" target="_top" target="_top" xlink:title="src">
<polygon fill="#edf0f7" stroke="#404040" stroke-dasharray="5,2" points="8,-8 8,-231 150,-231 150,-8 8,-8"/>
<text text-anchor="middle" x="79" y="-219" font-family="Helvetica,sans-Serif" font-size="10.00">src</text>
</a>
</g>
</g>
<g id="clust2" class="cluster">
<title>clusterdir_bca8c228595a97e53e081df8126faa1b</title>
<g id="a_clust2"><a xlink:href="dir_bca8c228595a97e53e081df8126faa1b.html" target="_top" target="_top">
<polygon fill="#edf0f7" stroke="#404040" stroke-width="2" points="34,-80 34,-204 104,-204 104,-80 34,-80"/>
</a>
</g>
</g>
<!-- dir_dd008488fb0da8829e2acca19721471d -->
<g id="node1" class="node">
<title>dir_dd008488fb0da8829e2acca19721471d</title>
<g id="a_node1"><a xlink:href="dir_dd008488fb0da8829e2acca19721471d.html" target="_top" target="_top" xlink:title="core&#45;lib">
<polygon fill="#a2b4d6" stroke="red" points="142,-52 88,-52 88,-16 142,-16 142,-52"/>
<text text-anchor="middle" x="115" y="-31.5" font-family="Helvetica,sans-Serif" font-size="10.00">core&#45;lib</text>
</a>
</g>
</g>
<!-- dir_09862807db2014add90ed94978e55931 -->
<g id="node2" class="node">
<title>dir_09862807db2014add90ed94978e55931</title>
<g id="a_node2"><a xlink:href="dir_09862807db2014add90ed94978e55931.html" target="_top" target="_top" xlink:title="tank&#45;lib">
<polygon fill="#a2b4d6" stroke="red" points="70,-52 16,-52 16,-16 70,-16 70,-52"/>
<text text-anchor="middle" x="43" y="-31.5" font-family="Helvetica,sans-Serif" font-size="10.00">tank&#45;lib</text>
</a>
</g>
</g>
<!-- dir_bca8c228595a97e53e081df8126faa1b -->
<g id="node3" class="node">
<title>dir_bca8c228595a97e53e081df8126faa1b</title>
<text text-anchor="middle" x="69" y="-175.5" font-family="Helvetica,sans-Serif" font-size="10.00">bot&#45;lib</text>
</g>
<!-- dir_bca8c228595a97e53e081df8126faa1b&#45;&gt;dir_dd008488fb0da8829e2acca19721471d -->
<g id="edge2" class="edge">
<title>dir_bca8c228595a97e53e081df8126faa1b&#45;&gt;dir_dd008488fb0da8829e2acca19721471d</title>
<path fill="none" stroke="black" d="M84.03,-159.58C91.62,-149.78 100.22,-136.94 105,-124 112.32,-104.22 114.69,-80.42 115.3,-62.41"/>
<polygon fill="black" stroke="black" points="118.8,-62.35 115.48,-52.29 111.8,-62.23 118.8,-62.35"/>
<g id="a_edge2&#45;headlabel"><a xlink:href="dir_000003_000004.html" target="_top" target="_top" xlink:title="9">
<text text-anchor="middle" x="121.57" y="-63.5" font-family="Helvetica,sans-Serif" font-size="10.00">9</text>
</a>
</g>
</g>
<!-- dir_cc5f298c3e331e2c9c702316b142ba7a -->
<g id="node4" class="node">
<title>dir_cc5f298c3e331e2c9c702316b142ba7a</title>
<g id="a_node4"><a xlink:href="dir_cc5f298c3e331e2c9c702316b142ba7a.html" target="_top" target="_top" xlink:title="include">
<polygon fill="#a2b4d6" stroke="#404040" points="96,-124 42,-124 42,-88 96,-88 96,-124"/>
<text text-anchor="middle" x="69" y="-103.5" font-family="Helvetica,sans-Serif" font-size="10.00">include</text>
</a>
</g>
</g>
<!-- dir_bca8c228595a97e53e081df8126faa1b&#45;&gt;dir_cc5f298c3e331e2c9c702316b142ba7a -->
<g id="edge1" class="edge">
<title>dir_bca8c228595a97e53e081df8126faa1b&#45;&gt;dir_cc5f298c3e331e2c9c702316b142ba7a</title>
<path fill="none" stroke="black" d="M69,-159.7C69,-151.98 69,-142.71 69,-134.11"/>
<polygon fill="black" stroke="black" points="72.5,-134.1 69,-124.1 65.5,-134.1 72.5,-134.1"/>
<g id="a_edge1&#45;headlabel"><a xlink:href="dir_000003_000009.html" target="_top" target="_top" xlink:title="4">
<text text-anchor="middle" x="75.34" y="-135.2" font-family="Helvetica,sans-Serif" font-size="10.00">4</text>
</a>
</g>
</g>
<!-- dir_cc5f298c3e331e2c9c702316b142ba7a&#45;&gt;dir_dd008488fb0da8829e2acca19721471d -->
<g id="edge4" class="edge">
<title>dir_cc5f298c3e331e2c9c702316b142ba7a&#45;&gt;dir_dd008488fb0da8829e2acca19721471d</title>
<path fill="none" stroke="black" d="M80.37,-87.7C85.72,-79.56 92.2,-69.69 98.11,-60.7"/>
<polygon fill="black" stroke="black" points="101.19,-62.38 103.76,-52.1 95.34,-58.54 101.19,-62.38"/>
<g id="a_edge4&#45;headlabel"><a xlink:href="dir_000009_000004.html" target="_top" target="_top" xlink:title="4">
<text text-anchor="middle" x="101.59" y="-64.45" font-family="Helvetica,sans-Serif" font-size="10.00">4</text>
</a>
</g>
</g>
<!-- dir_cc5f298c3e331e2c9c702316b142ba7a&#45;&gt;dir_09862807db2014add90ed94978e55931 -->
<g id="edge3" class="edge">
<title>dir_cc5f298c3e331e2c9c702316b142ba7a&#45;&gt;dir_09862807db2014add90ed94978e55931</title>
<path fill="none" stroke="black" d="M62.57,-87.7C59.64,-79.81 56.11,-70.3 52.86,-61.55"/>
<polygon fill="black" stroke="black" points="56.12,-60.26 49.35,-52.1 49.55,-62.7 56.12,-60.26"/>
<g id="a_edge3&#45;headlabel"><a xlink:href="dir_000009_000017.html" target="_top" target="_top" xlink:title="1">
<text text-anchor="middle" x="60.03" y="-60.14" font-family="Helvetica,sans-Serif" font-size="10.00">1</text>
</a>
</g>
</g>
</g>
</svg>
