<?xml version="1.0" encoding="UTF-8" standalone="no"?>
<!DOCTYPE svg PUBLIC "-//W3C//DTD SVG 1.1//EN"
 "http://www.w3.org/Graphics/SVG/1.1/DTD/svg11.dtd">
<!-- Generated by graphviz version 2.50.0 (0)
 -->
<!-- Title: /home/tomek/trash/battle&#45;city/src/lib/core&#45;lib Pages: 1 -->
<svg width="110pt" height="247pt"
 viewBox="0.00 0.00 110.00 247.00" xmlns="http://www.w3.org/2000/svg" xmlns:xlink="http://www.w3.org/1999/xlink">
<g id="graph0" class="graph" transform="scale(1 1) rotate(0) translate(4 243)">
<title>/home/tomek/trash/battle&#45;city/src/lib/core&#45;lib</title>
<g id="clust1" class="cluster">
<title>clusterdir_c85d3e3c5052e9ad9ce18c6863244a25</title>
<g id="a_clust1"><a xlink:href="dir_c85d3e3c5052e9ad9ce18c6863244a25.html" target="_top" xlink:title="lib">
<polygon fill="#ddddee" stroke="black" points="8,-8 8,-231 94,-231 94,-8 8,-8"/>
<text text-anchor="middle" x="51" y="-219" font-family="Helvetica,sans-Serif" font-size="10.00">lib</text>
</a>
</g>
</g>
<g id="clust2" class="cluster">
<title>clusterdir_23789bfc1eecc7b2a8e34646554d91fc</title>
<g id="a_clust2"><a xlink:href="dir_23789bfc1eecc7b2a8e34646554d91fc.html" target="_top">
<polygon fill="#eeeeff" stroke="black" points="16,-80 16,-204 86,-204 86,-80 16,-80"/>
</a>
</g>
</g>
<!-- dir_e1f35f9bd0e5733c0b6830a2848b421d -->
<g id="node1" class="node">
<title>dir_e1f35f9bd0e5733c0b6830a2848b421d</title>
<g id="a_node1"><a xlink:href="dir_e1f35f9bd0e5733c0b6830a2848b421d.html" target="_top" xlink:title="tank&#45;lib">
<polygon fill="none" stroke="red" points="78,-52 24,-52 24,-16 78,-16 78,-52"/>
<text text-anchor="middle" x="51" y="-31.5" font-family="Helvetica,sans-Serif" font-size="10.00">tank&#45;lib</text>
</a>
</g>
</g>
<!-- dir_50c493885f3f469b492d01a4888c6d61 -->
<g id="node3" class="node">
<title>dir_50c493885f3f469b492d01a4888c6d61</title>
<g id="a_node3"><a xlink:href="dir_50c493885f3f469b492d01a4888c6d61.html" target="_top" xlink:title="include">
<polygon fill="white" stroke="black" points="78,-124 24,-124 24,-88 78,-88 78,-124"/>
<text text-anchor="middle" x="51" y="-103.5" font-family="Helvetica,sans-Serif" font-size="10.00">include</text>
</a>
</g>
</g>
<!-- dir_e1f35f9bd0e5733c0b6830a2848b421d&#45;&gt;dir_50c493885f3f469b492d01a4888c6d61 -->
<g id="edge2" class="edge">
<title>dir_e1f35f9bd0e5733c0b6830a2848b421d&#45;&gt;dir_50c493885f3f469b492d01a4888c6d61</title>
<path fill="none" stroke="black" d="M56.9,-52.1C57.7,-59.79 57.94,-69.05 57.6,-77.67"/>
<polygon fill="black" stroke="black" points="54.11,-77.48 56.92,-87.7 61.09,-77.96 54.11,-77.48"/>
<g id="a_edge2&#45;headlabel"><a xlink:href="dir_000016_000007.html" target="_top" xlink:title="9">
<text text-anchor="middle" x="51.52" y="-71.2" font-family="Helvetica,sans-Serif" font-size="10.00">9</text>
</a>
</g>
</g>
<!-- dir_23789bfc1eecc7b2a8e34646554d91fc -->
<g id="node2" class="node">
<title>dir_23789bfc1eecc7b2a8e34646554d91fc</title>
<text text-anchor="middle" x="51" y="-175.5" font-family="Helvetica,sans-Serif" font-size="10.00">core&#45;lib</text>
</g>
<!-- dir_23789bfc1eecc7b2a8e34646554d91fc&#45;&gt;dir_50c493885f3f469b492d01a4888c6d61 -->
<g id="edge1" class="edge">
<title>dir_23789bfc1eecc7b2a8e34646554d91fc&#45;&gt;dir_50c493885f3f469b492d01a4888c6d61</title>
<path fill="none" stroke="black" d="M51,-159.7C51,-151.98 51,-142.71 51,-134.11"/>
<polygon fill="black" stroke="black" points="54.5,-134.1 51,-124.1 47.5,-134.1 54.5,-134.1"/>
<g id="a_edge1&#45;headlabel"><a xlink:href="dir_000006_000007.html" target="_top" xlink:title="16">
<text text-anchor="middle" x="57.34" y="-135.2" font-family="Helvetica,sans-Serif" font-size="10.00">16</text>
</a>
</g>
</g>
<!-- dir_50c493885f3f469b492d01a4888c6d61&#45;&gt;dir_e1f35f9bd0e5733c0b6830a2848b421d -->
<g id="edge3" class="edge">
<title>dir_50c493885f3f469b492d01a4888c6d61&#45;&gt;dir_e1f35f9bd0e5733c0b6830a2848b421d</title>
<path fill="none" stroke="black" d="M45.08,-87.7C44.29,-79.98 44.06,-70.71 44.4,-62.11"/>
<polygon fill="black" stroke="black" points="47.9,-62.32 45.1,-52.1 40.92,-61.84 47.9,-62.32"/>
<g id="a_edge3&#45;headlabel"><a xlink:href="dir_000007_000016.html" target="_top" xlink:title="2">
<text text-anchor="middle" x="50.48" y="-63.61" font-family="Helvetica,sans-Serif" font-size="10.00">2</text>
</a>
</g>
</g>
</g>
</svg>
