<?xml version="1.0" encoding="UTF-8" standalone="no"?>
<!DOCTYPE svg PUBLIC "-//W3C//DTD SVG 1.1//EN"
 "http://www.w3.org/Graphics/SVG/1.1/DTD/svg11.dtd">
<!-- Generated by graphviz version 2.43.0 (0)
 -->
<!-- Title: /home/tomek/CLionProjects/proi/proi&#45;projekt/src/game&#45;lib Pages: 1 -->
<svg width="278pt" height="247pt"
 viewBox="0.00 0.00 278.00 247.00" xmlns="http://www.w3.org/2000/svg" xmlns:xlink="http://www.w3.org/1999/xlink">
<g id="graph0" class="graph" transform="scale(1 1) rotate(0) translate(4 243)">
<title>/home/tomek/CLionProjects/proi/proi&#45;projekt/src/game&#45;lib</title>
<g id="clust1" class="cluster">
<title>clusterdir_68267d1309a1af8e8297ef4c3efbcdba</title>
<g id="a_clust1"><a xlink:href="dir_68267d1309a1af8e8297ef4c3efbcdba.html" target="_top" xlink:title="src">
<polygon fill="#edf0f7" stroke="#404040" stroke-dasharray="5,2" points="8,-8 8,-231 262,-231 262,-8 8,-8"/>
<text text-anchor="middle" x="135" y="-219" font-family="Helvetica,sans-Serif" font-size="10.00">src</text>
</a>
</g>
</g>
<g id="clust2" class="cluster">
<title>clusterdir_ababdeb7394d8224d3e296f78088442b</title>
<g id="a_clust2"><a xlink:href="dir_ababdeb7394d8224d3e296f78088442b.html" target="_top">
<polygon fill="#edf0f7" stroke="#404040" stroke-width="2" points="170,-80 170,-204 246,-204 246,-80 170,-80"/>
</a>
</g>
</g>
<!-- dir_09862807db2014add90ed94978e55931 -->
<g id="node1" class="node">
<title>dir_09862807db2014add90ed94978e55931</title>
<g id="a_node1"><a xlink:href="dir_09862807db2014add90ed94978e55931.html" target="_top" xlink:title="tank&#45;lib">
<polygon fill="#a2b4d6" stroke="red" points="90,-124 36,-124 36,-88 90,-88 90,-124"/>
<text text-anchor="middle" x="63" y="-103.5" font-family="Helvetica,sans-Serif" font-size="10.00">tank&#45;lib</text>
</a>
</g>
</g>
<!-- dir_bca8c228595a97e53e081df8126faa1b -->
<g id="node2" class="node">
<title>dir_bca8c228595a97e53e081df8126faa1b</title>
<g id="a_node2"><a xlink:href="dir_bca8c228595a97e53e081df8126faa1b.html" target="_top" xlink:title="bot&#45;lib">
<polygon fill="#a2b4d6" stroke="red" points="162,-124 108,-124 108,-88 162,-88 162,-124"/>
<text text-anchor="middle" x="135" y="-103.5" font-family="Helvetica,sans-Serif" font-size="10.00">bot&#45;lib</text>
</a>
</g>
</g>
<!-- dir_dd008488fb0da8829e2acca19721471d -->
<g id="node3" class="node">
<title>dir_dd008488fb0da8829e2acca19721471d</title>
<g id="a_node3"><a xlink:href="dir_dd008488fb0da8829e2acca19721471d.html" target="_top" xlink:title="core&#45;lib">
<polygon fill="#a2b4d6" stroke="red" points="80,-52 26,-52 26,-16 80,-16 80,-52"/>
<text text-anchor="middle" x="53" y="-31.5" font-family="Helvetica,sans-Serif" font-size="10.00">core&#45;lib</text>
</a>
</g>
</g>
<!-- dir_f9968d1aa079c8b4e4a8682b301a0233 -->
<g id="node4" class="node">
<title>dir_f9968d1aa079c8b4e4a8682b301a0233</title>
<g id="a_node4"><a xlink:href="dir_f9968d1aa079c8b4e4a8682b301a0233.html" target="_top" xlink:title="board&#45;lib">
<polygon fill="#a2b4d6" stroke="red" points="254,-52 194,-52 194,-16 254,-16 254,-52"/>
<text text-anchor="middle" x="224" y="-31.5" font-family="Helvetica,sans-Serif" font-size="10.00">board&#45;lib</text>
</a>
</g>
</g>
<!-- dir_021a303b9ea6a16d17d203ae5eaa9600 -->
<g id="node5" class="node">
<title>dir_021a303b9ea6a16d17d203ae5eaa9600</title>
<g id="a_node5"><a xlink:href="dir_021a303b9ea6a16d17d203ae5eaa9600.html" target="_top" xlink:title="graphic&#45;lib">
<polygon fill="#a2b4d6" stroke="red" points="176,-52 108,-52 108,-16 176,-16 176,-52"/>
<text text-anchor="middle" x="142" y="-31.5" font-family="Helvetica,sans-Serif" font-size="10.00">graphic&#45;lib</text>
</a>
</g>
</g>
<!-- dir_ababdeb7394d8224d3e296f78088442b -->
<g id="node6" class="node">
<title>dir_ababdeb7394d8224d3e296f78088442b</title>
<text text-anchor="middle" x="208" y="-175.5" font-family="Helvetica,sans-Serif" font-size="10.00">game&#45;lib</text>
</g>
<!-- dir_ababdeb7394d8224d3e296f78088442b&#45;&gt;dir_09862807db2014add90ed94978e55931 -->
<g id="edge1" class="edge">
<title>dir_ababdeb7394d8224d3e296f78088442b&#45;&gt;dir_09862807db2014add90ed94978e55931</title>
<path fill="none" stroke="black" d="M177.96,-162.5C155.11,-151.47 123.57,-136.24 99.31,-124.53"/>
<polygon fill="black" stroke="black" points="100.6,-121.26 90.07,-120.07 97.56,-127.57 100.6,-121.26"/>
<g id="a_edge1&#45;headlabel"><a xlink:href="dir_000006_000017.html" target="_top" xlink:title="2">
<text text-anchor="middle" x="105.07" y="-117.77" font-family="Helvetica,sans-Serif" font-size="10.00">2</text>
</a>
</g>
</g>
<!-- dir_ababdeb7394d8224d3e296f78088442b&#45;&gt;dir_bca8c228595a97e53e081df8126faa1b -->
<g id="edge3" class="edge">
<title>dir_ababdeb7394d8224d3e296f78088442b&#45;&gt;dir_bca8c228595a97e53e081df8126faa1b</title>
<path fill="none" stroke="black" d="M189.96,-159.7C180.94,-151.05 169.88,-140.45 160.06,-131.03"/>
<polygon fill="black" stroke="black" points="162.48,-128.5 152.84,-124.1 157.63,-133.55 162.48,-128.5"/>
<g id="a_edge3&#45;headlabel"><a xlink:href="dir_000006_000003.html" target="_top" xlink:title="2">
<text text-anchor="middle" x="167.04" y="-126.44" font-family="Helvetica,sans-Serif" font-size="10.00">2</text>
</a>
</g>
</g>
<!-- dir_ababdeb7394d8224d3e296f78088442b&#45;&gt;dir_dd008488fb0da8829e2acca19721471d -->
<g id="edge4" class="edge">
<title>dir_ababdeb7394d8224d3e296f78088442b&#45;&gt;dir_dd008488fb0da8829e2acca19721471d</title>
<path fill="none" stroke="black" d="M177.77,-172.56C131.13,-165.03 45.11,-148.17 27,-124 13.17,-105.54 22.97,-79.86 34.28,-60.82"/>
<polygon fill="black" stroke="black" points="37.26,-62.65 39.68,-52.34 31.36,-58.9 37.26,-62.65"/>
<g id="a_edge4&#45;headlabel"><a xlink:href="dir_000006_000004.html" target="_top" xlink:title="20">
<text text-anchor="middle" x="37.73" y="-64.71" font-family="Helvetica,sans-Serif" font-size="10.00">20</text>
</a>
</g>
</g>
<!-- dir_ababdeb7394d8224d3e296f78088442b&#45;&gt;dir_f9968d1aa079c8b4e4a8682b301a0233 -->
<g id="edge5" class="edge">
<title>dir_ababdeb7394d8224d3e296f78088442b&#45;&gt;dir_f9968d1aa079c8b4e4a8682b301a0233</title>
<path fill="none" stroke="black" d="M223.18,-159.7C230.73,-149.94 239.07,-137.1 243,-124 248.63,-105.27 246.88,-99.17 243,-80 241.75,-73.82 239.62,-67.44 237.24,-61.49"/>
<polygon fill="black" stroke="black" points="240.3,-59.76 233.08,-52 233.89,-62.57 240.3,-59.76"/>
<g id="a_edge5&#45;headlabel"><a xlink:href="dir_000006_000001.html" target="_top" xlink:title="6">
<text text-anchor="middle" x="244.34" y="-59.41" font-family="Helvetica,sans-Serif" font-size="10.00">6</text>
</a>
</g>
</g>
<!-- dir_810fd887183ef9ca5ceb867dba4c2553 -->
<g id="node7" class="node">
<title>dir_810fd887183ef9ca5ceb867dba4c2553</title>
<g id="a_node7"><a xlink:href="dir_810fd887183ef9ca5ceb867dba4c2553.html" target="_top" xlink:title="include">
<polygon fill="#a2b4d6" stroke="#404040" points="234,-124 180,-124 180,-88 234,-88 234,-124"/>
<text text-anchor="middle" x="207" y="-103.5" font-family="Helvetica,sans-Serif" font-size="10.00">include</text>
</a>
</g>
</g>
<!-- dir_ababdeb7394d8224d3e296f78088442b&#45;&gt;dir_810fd887183ef9ca5ceb867dba4c2553 -->
<g id="edge2" class="edge">
<title>dir_ababdeb7394d8224d3e296f78088442b&#45;&gt;dir_810fd887183ef9ca5ceb867dba4c2553</title>
<path fill="none" stroke="black" d="M207.75,-159.7C207.64,-151.98 207.51,-142.71 207.39,-134.11"/>
<polygon fill="black" stroke="black" points="210.89,-134.05 207.24,-124.1 203.89,-134.15 210.89,-134.05"/>
<g id="a_edge2&#45;headlabel"><a xlink:href="dir_000006_000011.html" target="_top" xlink:title="25">
<text text-anchor="middle" x="213.78" y="-135.11" font-family="Helvetica,sans-Serif" font-size="10.00">25</text>
</a>
</g>
</g>
<!-- dir_810fd887183ef9ca5ceb867dba4c2553&#45;&gt;dir_dd008488fb0da8829e2acca19721471d -->
<g id="edge7" class="edge">
<title>dir_810fd887183ef9ca5ceb867dba4c2553&#45;&gt;dir_dd008488fb0da8829e2acca19721471d</title>
<path fill="none" stroke="black" d="M187.69,-87.83C183.96,-84.99 179.97,-82.24 176,-80 144.29,-62.11 133.19,-64.53 99,-52 95.96,-50.89 92.81,-49.73 89.65,-48.56"/>
<polygon fill="black" stroke="black" points="90.83,-45.27 80.23,-45.09 88.41,-51.84 90.83,-45.27"/>
<g id="a_edge7&#45;headlabel"><a xlink:href="dir_000011_000004.html" target="_top" xlink:title="10">
<text text-anchor="middle" x="95.18" y="-41.35" font-family="Helvetica,sans-Serif" font-size="10.00">10</text>
</a>
</g>
</g>
<!-- dir_810fd887183ef9ca5ceb867dba4c2553&#45;&gt;dir_f9968d1aa079c8b4e4a8682b301a0233 -->
<g id="edge8" class="edge">
<title>dir_810fd887183ef9ca5ceb867dba4c2553&#45;&gt;dir_f9968d1aa079c8b4e4a8682b301a0233</title>
<path fill="none" stroke="black" d="M211.2,-87.7C213.1,-79.9 215.38,-70.51 217.48,-61.83"/>
<polygon fill="black" stroke="black" points="220.89,-62.65 219.85,-52.1 214.08,-61 220.89,-62.65"/>
<g id="a_edge8&#45;headlabel"><a xlink:href="dir_000011_000001.html" target="_top" xlink:title="1">
<text text-anchor="middle" x="222.8" y="-64.31" font-family="Helvetica,sans-Serif" font-size="10.00">1</text>
</a>
</g>
</g>
<!-- dir_810fd887183ef9ca5ceb867dba4c2553&#45;&gt;dir_021a303b9ea6a16d17d203ae5eaa9600 -->
<g id="edge6" class="edge">
<title>dir_810fd887183ef9ca5ceb867dba4c2553&#45;&gt;dir_021a303b9ea6a16d17d203ae5eaa9600</title>
<path fill="none" stroke="black" d="M190.93,-87.7C183.06,-79.22 173.44,-68.86 164.83,-59.58"/>
<polygon fill="black" stroke="black" points="167.25,-57.05 157.88,-52.1 162.12,-61.81 167.25,-57.05"/>
<g id="a_edge6&#45;headlabel"><a xlink:href="dir_000011_000007.html" target="_top" xlink:title="2">
<text text-anchor="middle" x="171.78" y="-55.25" font-family="Helvetica,sans-Serif" font-size="10.00">2</text>
</a>
</g>
</g>
</g>
</svg>
