<?xml version="1.0" encoding="UTF-8" standalone="no"?>
<!DOCTYPE svg PUBLIC "-//W3C//DTD SVG 1.1//EN"
 "http://www.w3.org/Graphics/SVG/1.1/DTD/svg11.dtd">
<!-- Generated by graphviz version 2.43.0 (0)
 -->
<!-- Title: Graphical Class Hierarchy Pages: 1 -->
<svg width="306pt" height="142pt"
 viewBox="0.00 0.00 306.00 142.00" xmlns="http://www.w3.org/2000/svg" xmlns:xlink="http://www.w3.org/1999/xlink">
<g id="graph0" class="graph" transform="scale(1 1) rotate(0) translate(4 138)">
<title>Graphical Class Hierarchy</title>
<!-- Node0 -->
<g id="node1" class="node">
<title>Node0</title>
<g id="a_node1"><a xlink:title=" ">
<polygon fill="none" stroke="#bfbfbf" points="0,-57.5 0,-76.5 86,-76.5 86,-57.5 0,-57.5"/>
<text text-anchor="middle" x="43" y="-64.5" font-family="Helvetica,sans-Serif" font-size="10.00">std::exception</text>
</a>
</g>
</g>
<!-- Node1 -->
<g id="node2" class="node">
<title>Node1</title>
<g id="a_node2"><a xlink:href="struct_event_construction_exception.html" target="_top" xlink:title=" ">
<polygon fill="none" stroke="black" points="133,-114.5 133,-133.5 287,-133.5 287,-114.5 133,-114.5"/>
<text text-anchor="middle" x="210" y="-121.5" font-family="Helvetica,sans-Serif" font-size="10.00">EventConstructionException</text>
</a>
</g>
</g>
<!-- Node0&#45;&gt;Node1 -->
<g id="edge1" class="edge">
<title>Node0&#45;&gt;Node1</title>
<path fill="none" stroke="midnightblue" d="M69.64,-81.42C84.55,-89.3 103.91,-98.72 122,-105 132.66,-108.7 144.32,-111.84 155.53,-114.43"/>
<polygon fill="midnightblue" stroke="midnightblue" points="71.01,-78.18 60.54,-76.5 67.68,-84.33 71.01,-78.18"/>
</g>
<!-- Node2 -->
<g id="node3" class="node">
<title>Node2</title>
<g id="a_node3"><a xlink:href="class_invalid_event_exception.html" target="_top" xlink:title=" ">
<polygon fill="none" stroke="black" points="147.5,-76.5 147.5,-95.5 272.5,-95.5 272.5,-76.5 147.5,-76.5"/>
<text text-anchor="middle" x="210" y="-83.5" font-family="Helvetica,sans-Serif" font-size="10.00">InvalidEventException</text>
</a>
</g>
</g>
<!-- Node0&#45;&gt;Node2 -->
<g id="edge2" class="edge">
<title>Node0&#45;&gt;Node2</title>
<path fill="none" stroke="midnightblue" d="M96.42,-73.04C112.63,-74.9 130.62,-76.97 147.39,-78.91"/>
<polygon fill="midnightblue" stroke="midnightblue" points="96.4,-69.51 86.06,-71.84 95.6,-76.46 96.4,-69.51"/>
</g>
<!-- Node3 -->
<g id="node4" class="node">
<title>Node3</title>
<g id="a_node4"><a xlink:href="class_observer_exception.html" target="_top" xlink:title=" ">
<polygon fill="none" stroke="black" points="155.5,-38.5 155.5,-57.5 264.5,-57.5 264.5,-38.5 155.5,-38.5"/>
<text text-anchor="middle" x="210" y="-45.5" font-family="Helvetica,sans-Serif" font-size="10.00">ObserverException</text>
</a>
</g>
</g>
<!-- Node0&#45;&gt;Node3 -->
<g id="edge3" class="edge">
<title>Node0&#45;&gt;Node3</title>
<path fill="none" stroke="midnightblue" d="M96.01,-61.01C114.95,-58.83 136.38,-56.36 155.45,-54.17"/>
<polygon fill="midnightblue" stroke="midnightblue" points="95.6,-57.54 86.06,-62.16 96.4,-64.49 95.6,-57.54"/>
</g>
<!-- Node4 -->
<g id="node5" class="node">
<title>Node4</title>
<g id="a_node5"><a xlink:href="class_singleton_not_initialized_exception.html" target="_top" xlink:title=" ">
<polygon fill="none" stroke="black" points="122,-0.5 122,-19.5 298,-19.5 298,-0.5 122,-0.5"/>
<text text-anchor="middle" x="210" y="-7.5" font-family="Helvetica,sans-Serif" font-size="10.00">SingletonNotInitializedException</text>
</a>
</g>
</g>
<!-- Node0&#45;&gt;Node4 -->
<g id="edge4" class="edge">
<title>Node0&#45;&gt;Node4</title>
<path fill="none" stroke="midnightblue" d="M69.64,-52.58C84.55,-44.7 103.91,-35.28 122,-29 132.66,-25.3 144.32,-22.16 155.53,-19.57"/>
<polygon fill="midnightblue" stroke="midnightblue" points="67.68,-49.67 60.54,-57.5 71.01,-55.82 67.68,-49.67"/>
</g>
</g>
</svg>
