<?xml version="1.0" encoding="UTF-8" standalone="no"?>
<!DOCTYPE svg PUBLIC "-//W3C//DTD SVG 1.1//EN"
 "http://www.w3.org/Graphics/SVG/1.1/DTD/svg11.dtd">
<!-- Generated by graphviz version 2.43.0 (0)
 -->
<!-- Title: Graphical Class Hierarchy Pages: 1 -->
<svg width="306pt" height="294pt"
 viewBox="0.00 0.00 306.00 294.00" xmlns="http://www.w3.org/2000/svg" xmlns:xlink="http://www.w3.org/1999/xlink">
<g id="graph0" class="graph" transform="scale(1 1) rotate(0) translate(4 290)">
<title>Graphical Class Hierarchy</title>
<!-- Node0 -->
<g id="node1" class="node">
<title>Node0</title>
<g id="a_node1"><a xlink:title=" ">
<polygon fill="none" stroke="#bfbfbf" points="0,-133.5 0,-152.5 86,-152.5 86,-133.5 0,-133.5"/>
<text text-anchor="middle" x="43" y="-140.5" font-family="Helvetica,sans-Serif" font-size="10.00">std::exception</text>
</a>
</g>
</g>
<!-- Node1 -->
<g id="node2" class="node">
<title>Node1</title>
<g id="a_node2"><a xlink:href="class_entity_does_not_exist_exception.html" target="_top" xlink:title=" ">
<polygon fill="none" stroke="black" points="130.5,-266.5 130.5,-285.5 289.5,-285.5 289.5,-266.5 130.5,-266.5"/>
<text text-anchor="middle" x="210" y="-273.5" font-family="Helvetica,sans-Serif" font-size="10.00">EntityDoesNotExistException</text>
</a>
</g>
</g>
<!-- Node0&#45;&gt;Node1 -->
<g id="edge1" class="edge">
<title>Node0&#45;&gt;Node1</title>
<path fill="none" stroke="midnightblue" d="M51.71,-162.24C63.08,-188.04 86.87,-233.33 122,-257 127.77,-260.89 134.2,-264 140.88,-266.48"/>
<polygon fill="midnightblue" stroke="midnightblue" points="54.83,-160.65 47.72,-152.8 48.39,-163.37 54.83,-160.65"/>
</g>
<!-- Node2 -->
<g id="node3" class="node">
<title>Node2</title>
<g id="a_node3"><a xlink:href="struct_event_construction_exception.html" target="_top" xlink:title=" ">
<polygon fill="none" stroke="black" points="133,-228.5 133,-247.5 287,-247.5 287,-228.5 133,-228.5"/>
<text text-anchor="middle" x="210" y="-235.5" font-family="Helvetica,sans-Serif" font-size="10.00">EventConstructionException</text>
</a>
</g>
</g>
<!-- Node0&#45;&gt;Node2 -->
<g id="edge2" class="edge">
<title>Node0&#45;&gt;Node2</title>
<path fill="none" stroke="midnightblue" d="M57.42,-160.97C71.52,-178.53 95.35,-204.66 122,-219 129.22,-222.88 137.17,-225.97 145.25,-228.43"/>
<polygon fill="midnightblue" stroke="midnightblue" points="59.86,-158.42 50.96,-152.67 54.34,-162.71 59.86,-158.42"/>
</g>
<!-- Node3 -->
<g id="node4" class="node">
<title>Node3</title>
<g id="a_node4"><a xlink:href="class_invalid_event_exception.html" target="_top" xlink:title=" ">
<polygon fill="none" stroke="black" points="147.5,-190.5 147.5,-209.5 272.5,-209.5 272.5,-190.5 147.5,-190.5"/>
<text text-anchor="middle" x="210" y="-197.5" font-family="Helvetica,sans-Serif" font-size="10.00">InvalidEventException</text>
</a>
</g>
</g>
<!-- Node0&#45;&gt;Node3 -->
<g id="edge3" class="edge">
<title>Node0&#45;&gt;Node3</title>
<path fill="none" stroke="midnightblue" d="M69.64,-157.42C84.55,-165.3 103.91,-174.72 122,-181 132.66,-184.7 144.32,-187.84 155.53,-190.43"/>
<polygon fill="midnightblue" stroke="midnightblue" points="71.01,-154.18 60.54,-152.5 67.68,-160.33 71.01,-154.18"/>
</g>
<!-- Node4 -->
<g id="node5" class="node">
<title>Node4</title>
<g id="a_node5"><a xlink:href="class_no_spawnpoint_exception.html" target="_top" xlink:title=" ">
<polygon fill="none" stroke="black" points="142.5,-152.5 142.5,-171.5 277.5,-171.5 277.5,-152.5 142.5,-152.5"/>
<text text-anchor="middle" x="210" y="-159.5" font-family="Helvetica,sans-Serif" font-size="10.00">NoSpawnpointException</text>
</a>
</g>
</g>
<!-- Node0&#45;&gt;Node4 -->
<g id="edge4" class="edge">
<title>Node0&#45;&gt;Node4</title>
<path fill="none" stroke="midnightblue" d="M96.4,-149.03C110.99,-150.71 127.03,-152.56 142.32,-154.32"/>
<polygon fill="midnightblue" stroke="midnightblue" points="96.4,-145.51 86.06,-147.84 95.6,-152.46 96.4,-145.51"/>
</g>
<!-- Node5 -->
<g id="node6" class="node">
<title>Node5</title>
<g id="a_node6"><a xlink:href="class_observer_exception.html" target="_top" xlink:title=" ">
<polygon fill="none" stroke="black" points="155.5,-114.5 155.5,-133.5 264.5,-133.5 264.5,-114.5 155.5,-114.5"/>
<text text-anchor="middle" x="210" y="-121.5" font-family="Helvetica,sans-Serif" font-size="10.00">ObserverException</text>
</a>
</g>
</g>
<!-- Node0&#45;&gt;Node5 -->
<g id="edge5" class="edge">
<title>Node0&#45;&gt;Node5</title>
<path fill="none" stroke="midnightblue" d="M96.01,-137.01C114.95,-134.83 136.38,-132.36 155.45,-130.17"/>
<polygon fill="midnightblue" stroke="midnightblue" points="95.6,-133.54 86.06,-138.16 96.4,-140.49 95.6,-133.54"/>
</g>
<!-- Node6 -->
<g id="node7" class="node">
<title>Node6</title>
<g id="a_node7"><a xlink:href="class_out_of_grid_exception.html" target="_top" xlink:title=" ">
<polygon fill="none" stroke="black" points="153.5,-76.5 153.5,-95.5 266.5,-95.5 266.5,-76.5 153.5,-76.5"/>
<text text-anchor="middle" x="210" y="-83.5" font-family="Helvetica,sans-Serif" font-size="10.00">OutOfGridException</text>
</a>
</g>
</g>
<!-- Node0&#45;&gt;Node6 -->
<g id="edge6" class="edge">
<title>Node0&#45;&gt;Node6</title>
<path fill="none" stroke="midnightblue" d="M69.64,-128.58C84.55,-120.7 103.91,-111.28 122,-105 132.66,-101.3 144.32,-98.16 155.53,-95.57"/>
<polygon fill="midnightblue" stroke="midnightblue" points="67.68,-125.67 60.54,-133.5 71.01,-131.82 67.68,-125.67"/>
</g>
<!-- Node7 -->
<g id="node8" class="node">
<title>Node7</title>
<g id="a_node8"><a xlink:href="class_singleton_not_initialized_exception.html" target="_top" xlink:title=" ">
<polygon fill="none" stroke="black" points="122,-38.5 122,-57.5 298,-57.5 298,-38.5 122,-38.5"/>
<text text-anchor="middle" x="210" y="-45.5" font-family="Helvetica,sans-Serif" font-size="10.00">SingletonNotInitializedException</text>
</a>
</g>
</g>
<!-- Node0&#45;&gt;Node7 -->
<g id="edge7" class="edge">
<title>Node0&#45;&gt;Node7</title>
<path fill="none" stroke="midnightblue" d="M57.42,-125.03C71.52,-107.47 95.35,-81.34 122,-67 129.22,-63.12 137.17,-60.03 145.25,-57.57"/>
<polygon fill="midnightblue" stroke="midnightblue" points="54.34,-123.29 50.96,-133.33 59.86,-127.58 54.34,-123.29"/>
</g>
<!-- Node8 -->
<g id="node9" class="node">
<title>Node8</title>
<g id="a_node9"><a xlink:href="class_texture_loading_error.html" target="_top" xlink:title=" ">
<polygon fill="none" stroke="black" points="153,-0.5 153,-19.5 267,-19.5 267,-0.5 153,-0.5"/>
<text text-anchor="middle" x="210" y="-7.5" font-family="Helvetica,sans-Serif" font-size="10.00">TextureLoadingError</text>
</a>
</g>
</g>
<!-- Node0&#45;&gt;Node8 -->
<g id="edge8" class="edge">
<title>Node0&#45;&gt;Node8</title>
<path fill="none" stroke="midnightblue" d="M51.71,-123.76C63.08,-97.96 86.87,-52.67 122,-29 131.1,-22.87 141.85,-18.67 152.63,-15.82"/>
<polygon fill="midnightblue" stroke="midnightblue" points="48.39,-122.63 47.72,-133.2 54.83,-125.35 48.39,-122.63"/>
</g>
</g>
</svg>
