<?xml version="1.0" encoding="UTF-8" standalone="no"?>
<!DOCTYPE svg PUBLIC "-//W3C//DTD SVG 1.1//EN"
 "http://www.w3.org/Graphics/SVG/1.1/DTD/svg11.dtd">
<!-- Generated by graphviz version 2.43.0 (0)
 -->
<!-- Title: Event::RotateDecisionInfo Pages: 1 -->
<svg width="195pt" height="171pt"
 viewBox="0.00 0.00 194.50 171.00" xmlns="http://www.w3.org/2000/svg" xmlns:xlink="http://www.w3.org/1999/xlink">
<g id="graph0" class="graph" transform="scale(1 1) rotate(0) translate(4 167)">
<title>Event::RotateDecisionInfo</title>
<!-- Node1 -->
<g id="node1" class="node">
<title>Node1</title>
<g id="a_node1"><a xlink:title=" ">
<polygon fill="#bfbfbf" stroke="black" points="33,-0.5 33,-57.5 176,-57.5 176,-0.5 33,-0.5"/>
<text text-anchor="middle" x="104.5" y="-45.5" font-family="Helvetica,sans-Serif" font-size="10.00">Event::RotateDecisionInfo</text>
<polyline fill="none" stroke="black" points="33,-38.5 176,-38.5 "/>
<text text-anchor="middle" x="104.5" y="-26.5" font-family="Helvetica,sans-Serif" font-size="10.00"> </text>
<polyline fill="none" stroke="black" points="33,-19.5 176,-19.5 "/>
<text text-anchor="middle" x="104.5" y="-7.5" font-family="Helvetica,sans-Serif" font-size="10.00"> </text>
</a>
</g>
</g>
<!-- Node2 -->
<g id="node2" class="node">
<title>Node2</title>
<g id="a_node2"><a xlink:title=" ">
<polygon fill="none" stroke="black" points="0,-105.5 0,-162.5 107,-162.5 107,-105.5 0,-105.5"/>
<text text-anchor="middle" x="53.5" y="-150.5" font-family="Helvetica,sans-Serif" font-size="10.00">shared_ptr&lt; Bot &gt;</text>
<polyline fill="none" stroke="black" points="0,-143.5 107,-143.5 "/>
<text text-anchor="middle" x="53.5" y="-131.5" font-family="Helvetica,sans-Serif" font-size="10.00"> </text>
<polyline fill="none" stroke="black" points="0,-124.5 107,-124.5 "/>
<text text-anchor="middle" x="53.5" y="-112.5" font-family="Helvetica,sans-Serif" font-size="10.00"> </text>
</a>
</g>
</g>
<!-- Node2&#45;&gt;Node1 -->
<g id="edge1" class="edge">
<title>Node2&#45;&gt;Node1</title>
<path fill="none" stroke="#404040" d="M67.17,-105.4C72.77,-94.08 79.35,-80.79 85.41,-68.54"/>
<polygon fill="none" stroke="#404040" points="85.47,-68.43 84.55,-61.28 90.8,-57.68 91.72,-64.83 85.47,-68.43"/>
<text text-anchor="middle" x="95.5" y="-79" font-family="Helvetica,sans-Serif" font-size="10.00"> +bot</text>
</g>
<!-- Node3 -->
<g id="node3" class="node">
<title>Node3</title>
<g id="a_node3"><a xlink:title=" ">
<polygon fill="none" stroke="black" points="125,-105.5 125,-162.5 186,-162.5 186,-105.5 125,-105.5"/>
<text text-anchor="middle" x="155.5" y="-150.5" font-family="Helvetica,sans-Serif" font-size="10.00">Direction</text>
<polyline fill="none" stroke="black" points="125,-143.5 186,-143.5 "/>
<text text-anchor="middle" x="155.5" y="-131.5" font-family="Helvetica,sans-Serif" font-size="10.00"> </text>
<polyline fill="none" stroke="black" points="125,-124.5 186,-124.5 "/>
<text text-anchor="middle" x="155.5" y="-112.5" font-family="Helvetica,sans-Serif" font-size="10.00"> </text>
</a>
</g>
</g>
<!-- Node3&#45;&gt;Node1 -->
<g id="edge2" class="edge">
<title>Node3&#45;&gt;Node1</title>
<path fill="none" stroke="#404040" d="M141.83,-105.4C136.23,-94.08 129.65,-80.79 123.59,-68.54"/>
<polygon fill="none" stroke="#404040" points="123.53,-68.43 117.28,-64.83 118.2,-57.68 124.45,-61.28 123.53,-68.43"/>
<text text-anchor="middle" x="159" y="-79" font-family="Helvetica,sans-Serif" font-size="10.00"> +direction</text>
</g>
</g>
</svg>
