<?xml version="1.0" encoding="UTF-8" standalone="no"?>
<!DOCTYPE svg PUBLIC "-//W3C//DTD SVG 1.1//EN"
 "http://www.w3.org/Graphics/SVG/1.1/DTD/svg11.dtd">
<!-- Generated by graphviz version 2.43.0 (0)
 -->
<!-- Title: Event::TankInfo Pages: 1 -->
<svg width="342pt" height="540pt"
 viewBox="0.00 0.00 342.00 540.00" xmlns="http://www.w3.org/2000/svg" xmlns:xlink="http://www.w3.org/1999/xlink">
<g id="graph0" class="graph" transform="scale(1 1) rotate(0) translate(4 536)">
<title>Event::TankInfo</title>
<!-- Node1 -->
<g id="node1" class="node">
<title>Node1</title>
<g id="a_node1"><a xlink:title=" ">
<polygon fill="#bfbfbf" stroke="black" points="110,-0.5 110,-57.5 202,-57.5 202,-0.5 110,-0.5"/>
<text text-anchor="middle" x="156" y="-45.5" font-family="Helvetica,sans-Serif" font-size="10.00">Event::TankInfo</text>
<polyline fill="none" stroke="black" points="110,-38.5 202,-38.5 "/>
<text text-anchor="middle" x="156" y="-26.5" font-family="Helvetica,sans-Serif" font-size="10.00"> </text>
<polyline fill="none" stroke="black" points="110,-19.5 202,-19.5 "/>
<text text-anchor="middle" x="156" y="-7.5" font-family="Helvetica,sans-Serif" font-size="10.00"> </text>
</a>
</g>
</g>
<!-- Node2 -->
<g id="node2" class="node">
<title>Node2</title>
<g id="a_node2"><a xlink:href="class_tank.html" target="_top" xlink:title="Base class for tank representation.">
<polygon fill="none" stroke="black" points="83,-105.5 83,-393.5 229,-393.5 229,-105.5 83,-105.5"/>
<text text-anchor="middle" x="156" y="-381.5" font-family="Helvetica,sans-Serif" font-size="10.00">Tank</text>
<polyline fill="none" stroke="black" points="83,-374.5 229,-374.5 "/>
<text text-anchor="middle" x="156" y="-362.5" font-family="Helvetica,sans-Serif" font-size="10.00"> </text>
<polyline fill="none" stroke="black" points="83,-355.5 229,-355.5 "/>
<text text-anchor="start" x="91" y="-343.5" font-family="Helvetica,sans-Serif" font-size="10.00">+ virtual ~Tank()=default</text>
<text text-anchor="start" x="91" y="-332.5" font-family="Helvetica,sans-Serif" font-size="10.00">+ void moveX(int delta_x)</text>
<text text-anchor="start" x="91" y="-321.5" font-family="Helvetica,sans-Serif" font-size="10.00">+ void moveY(int delta_y)</text>
<text text-anchor="start" x="91" y="-310.5" font-family="Helvetica,sans-Serif" font-size="10.00">+ void deltaLives(int</text>
<text text-anchor="start" x="91" y="-299.5" font-family="Helvetica,sans-Serif" font-size="10.00"> delta_l)</text>
<text text-anchor="start" x="91" y="-288.5" font-family="Helvetica,sans-Serif" font-size="10.00">+ TankType getType()</text>
<text text-anchor="start" x="91" y="-277.5" font-family="Helvetica,sans-Serif" font-size="10.00"> const</text>
<text text-anchor="start" x="91" y="-266.5" font-family="Helvetica,sans-Serif" font-size="10.00">+ unsigned int getX()</text>
<text text-anchor="start" x="91" y="-255.5" font-family="Helvetica,sans-Serif" font-size="10.00"> const</text>
<text text-anchor="start" x="91" y="-244.5" font-family="Helvetica,sans-Serif" font-size="10.00">+ unsigned int getY()</text>
<text text-anchor="start" x="91" y="-233.5" font-family="Helvetica,sans-Serif" font-size="10.00"> const</text>
<text text-anchor="start" x="91" y="-222.5" font-family="Helvetica,sans-Serif" font-size="10.00">+ unsigned int getLives</text>
<text text-anchor="start" x="91" y="-211.5" font-family="Helvetica,sans-Serif" font-size="10.00">() const</text>
<text text-anchor="start" x="91" y="-200.5" font-family="Helvetica,sans-Serif" font-size="10.00">+ double getTankSpeed</text>
<text text-anchor="start" x="91" y="-189.5" font-family="Helvetica,sans-Serif" font-size="10.00">() const</text>
<text text-anchor="start" x="91" y="-178.5" font-family="Helvetica,sans-Serif" font-size="10.00">+ double getBulletSpeed</text>
<text text-anchor="start" x="91" y="-167.5" font-family="Helvetica,sans-Serif" font-size="10.00">() const</text>
<text text-anchor="start" x="91" y="-156.5" font-family="Helvetica,sans-Serif" font-size="10.00">+ Direction getFacing</text>
<text text-anchor="start" x="91" y="-145.5" font-family="Helvetica,sans-Serif" font-size="10.00">() const</text>
<text text-anchor="start" x="91" y="-134.5" font-family="Helvetica,sans-Serif" font-size="10.00">+ unsigned int getPoints</text>
<text text-anchor="start" x="91" y="-123.5" font-family="Helvetica,sans-Serif" font-size="10.00">() const</text>
<text text-anchor="start" x="91" y="-112.5" font-family="Helvetica,sans-Serif" font-size="10.00"># Tank()=default</text>
</a>
</g>
</g>
<!-- Node2&#45;&gt;Node1 -->
<g id="edge1" class="edge">
<title>Node2&#45;&gt;Node1</title>
<path fill="none" stroke="#404040" d="M156,-105.2C156,-92.39 156,-80.27 156,-69.66"/>
<polygon fill="none" stroke="#404040" points="156,-69.51 152,-63.51 156,-57.51 160,-63.51 156,-69.51"/>
<text text-anchor="middle" x="173" y="-79" font-family="Helvetica,sans-Serif" font-size="10.00"> +tank</text>
</g>
<!-- Node3 -->
<g id="node3" class="node">
<title>Node3</title>
<g id="a_node3"><a xlink:title=" ">
<polygon fill="none" stroke="black" points="0,-474.5 0,-531.5 62,-531.5 62,-474.5 0,-474.5"/>
<text text-anchor="middle" x="31" y="-519.5" font-family="Helvetica,sans-Serif" font-size="10.00">TankType</text>
<polyline fill="none" stroke="black" points="0,-512.5 62,-512.5 "/>
<text text-anchor="middle" x="31" y="-500.5" font-family="Helvetica,sans-Serif" font-size="10.00"> </text>
<polyline fill="none" stroke="black" points="0,-493.5 62,-493.5 "/>
<text text-anchor="middle" x="31" y="-481.5" font-family="Helvetica,sans-Serif" font-size="10.00"> </text>
</a>
</g>
</g>
<!-- Node3&#45;&gt;Node2 -->
<g id="edge2" class="edge">
<title>Node3&#45;&gt;Node2</title>
<path fill="none" stroke="#404040" d="M44.85,-474.12C53.81,-456.12 66.24,-431.1 79.56,-404.29"/>
<polygon fill="none" stroke="#404040" points="79.57,-404.28 78.66,-397.12 84.91,-393.53 85.82,-400.69 79.57,-404.28"/>
<text text-anchor="middle" x="94.5" y="-431.5" font-family="Helvetica,sans-Serif" font-size="10.00"> #type_</text>
</g>
<!-- Node4 -->
<g id="node4" class="node">
<title>Node4</title>
<g id="a_node4"><a xlink:title=" ">
<polygon fill="none" stroke="black" points="80.5,-474.5 80.5,-531.5 157.5,-531.5 157.5,-474.5 80.5,-474.5"/>
<text text-anchor="middle" x="119" y="-519.5" font-family="Helvetica,sans-Serif" font-size="10.00">unsigned int</text>
<polyline fill="none" stroke="black" points="80.5,-512.5 157.5,-512.5 "/>
<text text-anchor="middle" x="119" y="-500.5" font-family="Helvetica,sans-Serif" font-size="10.00"> </text>
<polyline fill="none" stroke="black" points="80.5,-493.5 157.5,-493.5 "/>
<text text-anchor="middle" x="119" y="-481.5" font-family="Helvetica,sans-Serif" font-size="10.00"> </text>
</a>
</g>
</g>
<!-- Node4&#45;&gt;Node2 -->
<g id="edge3" class="edge">
<title>Node4&#45;&gt;Node2</title>
<path fill="none" stroke="#404040" d="M120.82,-474.36C122.15,-456.52 124.21,-432.83 127,-412 127.27,-409.96 127.55,-407.91 127.84,-405.85"/>
<polygon fill="none" stroke="#404040" points="127.85,-405.81 124.75,-399.3 129.56,-393.93 132.66,-400.44 127.85,-405.81"/>
<text text-anchor="middle" x="149" y="-448" font-family="Helvetica,sans-Serif" font-size="10.00"> #lives_</text>
<text text-anchor="middle" x="149" y="-437" font-family="Helvetica,sans-Serif" font-size="10.00">#points_</text>
<text text-anchor="middle" x="149" y="-426" font-family="Helvetica,sans-Serif" font-size="10.00">#x_</text>
<text text-anchor="middle" x="149" y="-415" font-family="Helvetica,sans-Serif" font-size="10.00">#y_</text>
</g>
<!-- Node5 -->
<g id="node5" class="node">
<title>Node5</title>
<g id="a_node5"><a xlink:title=" ">
<polygon fill="none" stroke="black" points="176,-474.5 176,-531.5 226,-531.5 226,-474.5 176,-474.5"/>
<text text-anchor="middle" x="201" y="-519.5" font-family="Helvetica,sans-Serif" font-size="10.00">double</text>
<polyline fill="none" stroke="black" points="176,-512.5 226,-512.5 "/>
<text text-anchor="middle" x="201" y="-500.5" font-family="Helvetica,sans-Serif" font-size="10.00"> </text>
<polyline fill="none" stroke="black" points="176,-493.5 226,-493.5 "/>
<text text-anchor="middle" x="201" y="-481.5" font-family="Helvetica,sans-Serif" font-size="10.00"> </text>
</a>
</g>
</g>
<!-- Node5&#45;&gt;Node2 -->
<g id="edge4" class="edge">
<title>Node5&#45;&gt;Node2</title>
<path fill="none" stroke="#404040" d="M196.01,-474.12C192.83,-456.35 188.43,-431.76 183.71,-405.36"/>
<polygon fill="none" stroke="#404040" points="183.71,-405.34 178.71,-400.14 181.59,-393.53 186.59,-398.73 183.71,-405.34"/>
<text text-anchor="middle" x="231.5" y="-437" font-family="Helvetica,sans-Serif" font-size="10.00"> #bullet_speed_</text>
<text text-anchor="middle" x="231.5" y="-426" font-family="Helvetica,sans-Serif" font-size="10.00">#tank_speed_</text>
</g>
<!-- Node6 -->
<g id="node6" class="node">
<title>Node6</title>
<g id="a_node6"><a xlink:title=" ">
<polygon fill="none" stroke="black" points="264.5,-474.5 264.5,-531.5 325.5,-531.5 325.5,-474.5 264.5,-474.5"/>
<text text-anchor="middle" x="295" y="-519.5" font-family="Helvetica,sans-Serif" font-size="10.00">Direction</text>
<polyline fill="none" stroke="black" points="264.5,-512.5 325.5,-512.5 "/>
<text text-anchor="middle" x="295" y="-500.5" font-family="Helvetica,sans-Serif" font-size="10.00"> </text>
<polyline fill="none" stroke="black" points="264.5,-493.5 325.5,-493.5 "/>
<text text-anchor="middle" x="295" y="-481.5" font-family="Helvetica,sans-Serif" font-size="10.00"> </text>
</a>
</g>
</g>
<!-- Node6&#45;&gt;Node2 -->
<g id="edge5" class="edge">
<title>Node6&#45;&gt;Node2</title>
<path fill="none" stroke="#404040" d="M291.09,-474.3C287.82,-456.01 282.19,-431.85 273,-412 262.99,-390.36 249.9,-368.68 236.11,-348.54"/>
<polygon fill="none" stroke="#404040" points="235.94,-348.31 229.23,-345.68 229.07,-338.47 235.78,-341.1 235.94,-348.31"/>
<text text-anchor="middle" x="310.5" y="-431.5" font-family="Helvetica,sans-Serif" font-size="10.00"> #facing_</text>
</g>
</g>
</svg>
