<?xml version="1.0" encoding="UTF-8" standalone="no"?>
<!DOCTYPE svg PUBLIC "-//W3C//DTD SVG 1.1//EN"
 "http://www.w3.org/Graphics/SVG/1.1/DTD/svg11.dtd">
<!-- Generated by graphviz version 2.50.0 (0)
 -->
<!-- Title: Window::StaticStatePointers Pages: 1 -->
<svg width="394pt" height="193pt"
 viewBox="0.00 0.00 394.00 193.00" xmlns="http://www.w3.org/2000/svg" xmlns:xlink="http://www.w3.org/1999/xlink">
<g id="graph0" class="graph" transform="scale(1 1) rotate(0) translate(4 189)">
<title>Window::StaticStatePointers</title>
<!-- Node1 -->
<g id="node1" class="node">
<title>Node1</title>
<g id="a_node1"><a xlink:title="Stores MenuState pointers.">
<polygon fill="#bfbfbf" stroke="black" points="101,-0.5 101,-57.5 255,-57.5 255,-0.5 101,-0.5"/>
<text text-anchor="middle" x="178" y="-45.5" font-family="Helvetica,sans-Serif" font-size="10.00">Window::StaticStatePointers</text>
<polyline fill="none" stroke="black" points="101,-38.5 255,-38.5 "/>
<text text-anchor="middle" x="178" y="-26.5" font-family="Helvetica,sans-Serif" font-size="10.00"> </text>
<polyline fill="none" stroke="black" points="101,-19.5 255,-19.5 "/>
<text text-anchor="middle" x="178" y="-7.5" font-family="Helvetica,sans-Serif" font-size="10.00"> </text>
</a>
</g>
</g>
<!-- Node2 -->
<g id="node2" class="node">
<title>Node2</title>
<g id="a_node2"><a xlink:title=" ">
<polygon fill="none" stroke="#bfbfbf" points="0,-122 0,-179 104,-179 104,-122 0,-122"/>
<text text-anchor="middle" x="52" y="-167" font-family="Helvetica,sans-Serif" font-size="10.00">shared_ptr&lt; int &gt;</text>
<polyline fill="none" stroke="#bfbfbf" points="0,-160 104,-160 "/>
<text text-anchor="middle" x="52" y="-148" font-family="Helvetica,sans-Serif" font-size="10.00"> </text>
<polyline fill="none" stroke="#bfbfbf" points="0,-141 104,-141 "/>
<text text-anchor="middle" x="52" y="-129" font-family="Helvetica,sans-Serif" font-size="10.00"> </text>
</a>
</g>
</g>
<!-- Node2&#45;&gt;Node1 -->
<g id="edge1" class="edge">
<title>Node2&#45;&gt;Node1</title>
<path fill="none" stroke="#404040" d="M74.24,-121.77C86.27,-107.47 101.74,-90.11 117,-76 120.94,-72.36 125.16,-68.71 129.47,-65.16"/>
<polygon fill="none" stroke="#404040" points="129.6,-65.06 131.8,-58.19 138.98,-57.58 136.79,-64.45 129.6,-65.06"/>
<text text-anchor="middle" x="145.5" y="-90" font-family="Helvetica,sans-Serif" font-size="10.00"> +menuPos</text>
<text text-anchor="middle" x="145.5" y="-79" font-family="Helvetica,sans-Serif" font-size="10.00">+points</text>
</g>
<!-- Node3 -->
<g id="node3" class="node">
<title>Node3</title>
<g id="a_node3"><a xlink:title=" ">
<polygon fill="none" stroke="#bfbfbf" points="122,-122 122,-179 234,-179 234,-122 122,-122"/>
<text text-anchor="middle" x="178" y="-167" font-family="Helvetica,sans-Serif" font-size="10.00">shared_ptr&lt; bool &gt;</text>
<polyline fill="none" stroke="#bfbfbf" points="122,-160 234,-160 "/>
<text text-anchor="middle" x="178" y="-148" font-family="Helvetica,sans-Serif" font-size="10.00"> </text>
<polyline fill="none" stroke="#bfbfbf" points="122,-141 234,-141 "/>
<text text-anchor="middle" x="178" y="-129" font-family="Helvetica,sans-Serif" font-size="10.00"> </text>
</a>
</g>
</g>
<!-- Node3&#45;&gt;Node1 -->
<g id="edge2" class="edge">
<title>Node3&#45;&gt;Node1</title>
<path fill="none" stroke="#404040" d="M178,-121.78C178,-106.4 178,-86.99 178,-69.99"/>
<polygon fill="none" stroke="#404040" points="178,-69.57 174,-63.57 178,-57.57 182,-63.57 178,-69.57"/>
<text text-anchor="middle" x="208.5" y="-84.5" font-family="Helvetica,sans-Serif" font-size="10.00"> +gameWon</text>
</g>
<!-- Node4 -->
<g id="node4" class="node">
<title>Node4</title>
<g id="a_node4"><a xlink:title=" ">
<polygon fill="none" stroke="#bfbfbf" points="252,-116.5 252,-184.5 386,-184.5 386,-116.5 252,-116.5"/>
<text text-anchor="start" x="260" y="-172.5" font-family="Helvetica,sans-Serif" font-size="10.00">shared_ptr&lt; Window</text>
<text text-anchor="middle" x="319" y="-161.5" font-family="Helvetica,sans-Serif" font-size="10.00">::GameStateGraphic * &gt;</text>
<polyline fill="none" stroke="#bfbfbf" points="252,-154.5 386,-154.5 "/>
<text text-anchor="middle" x="319" y="-142.5" font-family="Helvetica,sans-Serif" font-size="10.00"> </text>
<polyline fill="none" stroke="#bfbfbf" points="252,-135.5 386,-135.5 "/>
<text text-anchor="middle" x="319" y="-123.5" font-family="Helvetica,sans-Serif" font-size="10.00"> </text>
</a>
</g>
</g>
<!-- Node4&#45;&gt;Node1 -->
<g id="edge3" class="edge">
<title>Node4&#45;&gt;Node1</title>
<path fill="none" stroke="#404040" d="M286.73,-116.16C273.58,-103.15 257.98,-88.42 243,-76 238.51,-72.28 233.74,-68.54 228.9,-64.88"/>
<polygon fill="none" stroke="#404040" points="228.59,-64.65 221.39,-64.31 218.94,-57.53 226.14,-57.87 228.59,-64.65"/>
<text text-anchor="middle" x="298.5" y="-84.5" font-family="Helvetica,sans-Serif" font-size="10.00"> +gameState</text>
</g>
</g>
</svg>
