<?xml version="1.0" encoding="UTF-8" standalone="no"?>
<!DOCTYPE svg PUBLIC "-//W3C//DTD SVG 1.1//EN"
 "http://www.w3.org/Graphics/SVG/1.1/DTD/svg11.dtd">
<!-- Generated by graphviz version 2.50.0 (0)
 -->
<!-- Title: FrameGraphic::BareFrameSize Pages: 1 -->
<svg width="172pt" height="204pt"
 viewBox="0.00 0.00 172.00 204.00" xmlns="http://www.w3.org/2000/svg" xmlns:xlink="http://www.w3.org/1999/xlink">
<g id="graph0" class="graph" transform="scale(1 1) rotate(0) translate(4 200)">
<title>FrameGraphic::BareFrameSize</title>
<!-- Node1 -->
<g id="node1" class="node">
<title>Node1</title>
<g id="a_node1"><a xlink:title="Struct containing params which dictates how to draw the bare frame.">
<polygon fill="#bfbfbf" stroke="black" points="0,-0.5 0,-57.5 164,-57.5 164,-0.5 0,-0.5"/>
<text text-anchor="middle" x="82" y="-45.5" font-family="Helvetica,sans-Serif" font-size="10.00">FrameGraphic::BareFrameSize</text>
<polyline fill="none" stroke="black" points="0,-38.5 164,-38.5 "/>
<text text-anchor="middle" x="82" y="-26.5" font-family="Helvetica,sans-Serif" font-size="10.00"> </text>
<polyline fill="none" stroke="black" points="0,-19.5 164,-19.5 "/>
<text text-anchor="middle" x="82" y="-7.5" font-family="Helvetica,sans-Serif" font-size="10.00"> </text>
</a>
</g>
</g>
<!-- Node2 -->
<g id="node2" class="node">
<title>Node2</title>
<g id="a_node2"><a xlink:title=" ">
<polygon fill="none" stroke="#bfbfbf" points="50.5,-138.5 50.5,-195.5 113.5,-195.5 113.5,-138.5 50.5,-138.5"/>
<text text-anchor="middle" x="82" y="-183.5" font-family="Helvetica,sans-Serif" font-size="10.00">FloatRect</text>
<polyline fill="none" stroke="#bfbfbf" points="50.5,-176.5 113.5,-176.5 "/>
<text text-anchor="middle" x="82" y="-164.5" font-family="Helvetica,sans-Serif" font-size="10.00"> </text>
<polyline fill="none" stroke="#bfbfbf" points="50.5,-157.5 113.5,-157.5 "/>
<text text-anchor="middle" x="82" y="-145.5" font-family="Helvetica,sans-Serif" font-size="10.00"> </text>
</a>
</g>
</g>
<!-- Node2&#45;&gt;Node1 -->
<g id="edge1" class="edge">
<title>Node2&#45;&gt;Node1</title>
<path fill="none" stroke="#404040" d="M82,-138.48C82,-118.79 82,-91.99 82,-69.95"/>
<polygon fill="none" stroke="#404040" points="82,-69.95 78,-63.95 82,-57.95 86,-63.95 82,-69.95"/>
<text text-anchor="middle" x="112" y="-112" font-family="Helvetica,sans-Serif" font-size="10.00"> +downRect</text>
<text text-anchor="middle" x="112" y="-101" font-family="Helvetica,sans-Serif" font-size="10.00">+leftRect</text>
<text text-anchor="middle" x="112" y="-90" font-family="Helvetica,sans-Serif" font-size="10.00">+rightRect</text>
<text text-anchor="middle" x="112" y="-79" font-family="Helvetica,sans-Serif" font-size="10.00">+upRect</text>
</g>
</g>
</svg>
