<?xml version="1.0" encoding="UTF-8" standalone="no"?>
<!DOCTYPE svg PUBLIC "-//W3C//DTD SVG 1.1//EN"
 "http://www.w3.org/Graphics/SVG/1.1/DTD/svg11.dtd">
<!-- Generated by graphviz version 2.50.0 (0)
 -->
<!-- Title: Event::StatsInfo Pages: 1 -->
<!--zoomable 1080 -->
<svg id="main" version="1.1" xmlns="http://www.w3.org/2000/svg" xmlns:xlink="http://www.w3.org/1999/xlink" xml:space="preserve" onload="init(evt)">
<style type="text/css"><![CDATA[
.edge:hover path { stroke: red; }
.edge:hover polygon { stroke: red; fill: red; }
]]></style>
<script type="text/javascript"><![CDATA[
var edges = document.getElementsByTagName('g');
if (edges && edges.length) {
  for (var i=0;i<edges.length;i++) {
    if (edges[i].id.substr(0,4)=='edge') {
      edges[i].setAttribute('class','edge');
    }
  }
}
]]></script>
        <defs>
                <circle id="rim" cx="0" cy="0" r="7"/>
                <circle id="rim2" cx="0" cy="0" r="3.5"/>
                <g id="zoomPlus">
                        <use xlink:href="#rim" fill="#404040">
                                <set attributeName="fill" to="#808080" begin="zoomplus.mouseover" end="zoomplus.mouseout"/>
                        </use>
                        <path d="M-4,0h8M0,-4v8" fill="none" stroke="white" stroke-width="1.5" pointer-events="none"/>
                </g>
                <g id="zoomMin">
                        <use xlink:href="#rim" fill="#404040">
                                <set attributeName="fill" to="#808080" begin="zoomminus.mouseover" end="zoomminus.mouseout"/>
                        </use>
                        <path d="M-4,0h8" fill="none" stroke="white" stroke-width="1.5" pointer-events="none"/>
                </g>
                <g id="dirArrow">
                        <path fill="none" stroke="white" stroke-width="1.5" d="M0,-3.0v7 M-2.5,-0.5L0,-3.0L2.5,-0.5"/>
                </g>
               <g id="resetDef">
                       <use xlink:href="#rim2" fill="#404040">
                               <set attributeName="fill" to="#808080" begin="reset.mouseover" end="reset.mouseout"/>
                       </use>
               </g>
        </defs>

<script type="text/javascript">
var viewWidth = 441;
var viewHeight = 1080;
var sectionId = 'dynsection-0';
</script>
<script xlink:href="svgpan.js"/>
<svg id="graph" class="graph">
<g id="viewport">
<title>Event::StatsInfo</title>
<!-- Node1 -->
<g id="node1" class="node">
<title>Node1</title>
<g id="a_node1"><a xlink:title=" ">
<polygon fill="#bfbfbf" stroke="black" points="215,-0.5 215,-57.5 309,-57.5 309,-0.5 215,-0.5"/>
<text text-anchor="middle" x="262" y="-45.5" font-family="Helvetica,sans-Serif" font-size="10.00">Event::StatsInfo</text>
<polyline fill="none" stroke="black" points="215,-38.5 309,-38.5 "/>
<text text-anchor="middle" x="262" y="-26.5" font-family="Helvetica,sans-Serif" font-size="10.00"> </text>
<polyline fill="none" stroke="black" points="215,-19.5 309,-19.5 "/>
<text text-anchor="middle" x="262" y="-7.5" font-family="Helvetica,sans-Serif" font-size="10.00"> </text>
</a>
</g>
</g>
<!-- Node2 -->
<g id="node2" class="node">
<title>Node2</title>
<g id="a_node2"><a xlink:href="class_game_statistics.html" target="_top" xlink:title=" ">
<polygon fill="none" stroke="black" points="187,-105.5 187,-382.5 337,-382.5 337,-105.5 187,-105.5"/>
<text text-anchor="middle" x="262" y="-370.5" font-family="Helvetica,sans-Serif" font-size="10.00">GameStatistics</text>
<polyline fill="none" stroke="black" points="187,-363.5 337,-363.5 "/>
<text text-anchor="middle" x="262" y="-351.5" font-family="Helvetica,sans-Serif" font-size="10.00"> </text>
<polyline fill="none" stroke="black" points="187,-344.5 337,-344.5 "/>
<text text-anchor="start" x="195" y="-332.5" font-family="Helvetica,sans-Serif" font-size="10.00">+ GameStatistics(unsigned</text>
<text text-anchor="start" x="195" y="-321.5" font-family="Helvetica,sans-Serif" font-size="10.00"> int startPoints, unsigned</text>
<text text-anchor="start" x="195" y="-310.5" font-family="Helvetica,sans-Serif" font-size="10.00"> int startLevel, unsigned</text>
<text text-anchor="start" x="195" y="-299.5" font-family="Helvetica,sans-Serif" font-size="10.00"> int startLives)</text>
<text text-anchor="start" x="195" y="-288.5" font-family="Helvetica,sans-Serif" font-size="10.00">+ unsigned int getPoints</text>
<text text-anchor="start" x="195" y="-277.5" font-family="Helvetica,sans-Serif" font-size="10.00">() const</text>
<text text-anchor="start" x="195" y="-266.5" font-family="Helvetica,sans-Serif" font-size="10.00">+ void setPoints(unsigned</text>
<text text-anchor="start" x="195" y="-255.5" font-family="Helvetica,sans-Serif" font-size="10.00"> int pts)</text>
<text text-anchor="start" x="195" y="-244.5" font-family="Helvetica,sans-Serif" font-size="10.00">+ void addPoints(unsigned</text>
<text text-anchor="start" x="195" y="-233.5" font-family="Helvetica,sans-Serif" font-size="10.00"> int pts)</text>
<text text-anchor="start" x="195" y="-222.5" font-family="Helvetica,sans-Serif" font-size="10.00">+ unsigned int getLevel</text>
<text text-anchor="start" x="195" y="-211.5" font-family="Helvetica,sans-Serif" font-size="10.00">() const</text>
<text text-anchor="start" x="195" y="-200.5" font-family="Helvetica,sans-Serif" font-size="10.00">+ void setLevel(unsigned</text>
<text text-anchor="start" x="195" y="-189.5" font-family="Helvetica,sans-Serif" font-size="10.00"> int level)</text>
<text text-anchor="start" x="195" y="-178.5" font-family="Helvetica,sans-Serif" font-size="10.00">+ unsigned int getLives</text>
<text text-anchor="start" x="195" y="-167.5" font-family="Helvetica,sans-Serif" font-size="10.00">() const</text>
<text text-anchor="start" x="195" y="-156.5" font-family="Helvetica,sans-Serif" font-size="10.00">+ void setLives(unsigned</text>
<text text-anchor="start" x="195" y="-145.5" font-family="Helvetica,sans-Serif" font-size="10.00"> int lives)</text>
<text text-anchor="start" x="195" y="-134.5" font-family="Helvetica,sans-Serif" font-size="10.00">+ void decrementLives</text>
<text text-anchor="start" x="195" y="-123.5" font-family="Helvetica,sans-Serif" font-size="10.00">(unsigned int deltaLives)</text>
<text text-anchor="start" x="195" y="-112.5" font-family="Helvetica,sans-Serif" font-size="10.00">+ void resetStats()</text>
</a>
</g>
</g>
<!-- Node2&#45;&gt;Node1 -->
<g id="edge1" class="edge">
<title>Node2&#45;&gt;Node1</title>
<path fill="none" stroke="#404040" d="M262,-105.4C262,-92.62 262,-80.49 262,-69.85"/>
<polygon fill="none" stroke="#404040" points="262,-69.67 258,-63.67 262,-57.67 266,-63.67 262,-69.67"/>
<text text-anchor="middle" x="282.5" y="-79" font-family="Helvetica,sans-Serif" font-size="10.00"> +stats_</text>
</g>
<!-- Node3 -->
<g id="node3" class="node">
<title>Node3</title>
<g id="a_node3"><a xlink:href="class_event_queue.html" target="_top" xlink:title=" ">
<polygon fill="none" stroke="black" points="55,-452.5 55,-696.5 205,-696.5 205,-452.5 55,-452.5"/>
<text text-anchor="middle" x="130" y="-684.5" font-family="Helvetica,sans-Serif" font-size="10.00">EventQueue&lt; Event &gt;</text>
<polyline fill="none" stroke="black" points="55,-677.5 205,-677.5 "/>
<text text-anchor="start" x="63" y="-665.5" font-family="Helvetica,sans-Serif" font-size="10.00"># std::queue&lt; std::unique</text>
<text text-anchor="start" x="63" y="-654.5" font-family="Helvetica,sans-Serif" font-size="10.00">_ptr&lt; Event &gt; &gt; events_</text>
<text text-anchor="start" x="63" y="-643.5" font-family="Helvetica,sans-Serif" font-size="10.00"># static std::unique</text>
<text text-anchor="start" x="63" y="-632.5" font-family="Helvetica,sans-Serif" font-size="10.00">_ptr&lt; EventQueue &gt; self_</text>
<polyline fill="none" stroke="black" points="55,-625.5 205,-625.5 "/>
<text text-anchor="start" x="63" y="-613.5" font-family="Helvetica,sans-Serif" font-size="10.00">+ EventQueue(EventQueue</text>
<text text-anchor="start" x="63" y="-602.5" font-family="Helvetica,sans-Serif" font-size="10.00"> &amp;)=delete</text>
<text text-anchor="start" x="63" y="-591.5" font-family="Helvetica,sans-Serif" font-size="10.00">+ bool operator=(const</text>
<text text-anchor="start" x="63" y="-580.5" font-family="Helvetica,sans-Serif" font-size="10.00"> EventQueue &amp;)=delete</text>
<text text-anchor="start" x="63" y="-569.5" font-family="Helvetica,sans-Serif" font-size="10.00">+ void registerEvent</text>
<text text-anchor="start" x="63" y="-558.5" font-family="Helvetica,sans-Serif" font-size="10.00">(std::unique_ptr&lt; Event</text>
<text text-anchor="start" x="63" y="-547.5" font-family="Helvetica,sans-Serif" font-size="10.00"> &gt; event)</text>
<text text-anchor="start" x="63" y="-536.5" font-family="Helvetica,sans-Serif" font-size="10.00">+ std::unique_ptr&lt; Event</text>
<text text-anchor="start" x="63" y="-525.5" font-family="Helvetica,sans-Serif" font-size="10.00"> &gt; pop()</text>
<text text-anchor="start" x="63" y="-514.5" font-family="Helvetica,sans-Serif" font-size="10.00">+ bool isEmpty()</text>
<text text-anchor="start" x="63" y="-503.5" font-family="Helvetica,sans-Serif" font-size="10.00">+ unsigned int size()</text>
<text text-anchor="start" x="63" y="-492.5" font-family="Helvetica,sans-Serif" font-size="10.00">+ void clear()</text>
<text text-anchor="start" x="63" y="-481.5" font-family="Helvetica,sans-Serif" font-size="10.00">+ static EventQueue *</text>
<text text-anchor="start" x="63" y="-470.5" font-family="Helvetica,sans-Serif" font-size="10.00"> instance()</text>
<text text-anchor="start" x="63" y="-459.5" font-family="Helvetica,sans-Serif" font-size="10.00">&#45; EventQueue()=default</text>
</a>
</g>
</g>
<!-- Node3&#45;&gt;Node2 -->
<g id="edge2" class="edge">
<title>Node3&#45;&gt;Node2</title>
<path fill="none" stroke="#404040" d="M167.05,-452.09C173.01,-434.8 179.4,-417.35 186,-401 186.95,-398.65 187.91,-396.29 188.9,-393.92"/>
<polygon fill="none" stroke="#404040" points="188.94,-393.82 187.6,-386.73 193.62,-382.76 194.97,-389.85 188.94,-393.82"/>
<text text-anchor="middle" x="222" y="-415" font-family="Helvetica,sans-Serif" font-size="10.00"> &#45;eventQueue_</text>
</g>
<!-- Node4 -->
<g id="node4" class="node">
<title>Node4</title>
<g id="a_node4"><a xlink:href="class_event_queue.html" target="_top" xlink:title="Singleton class wrapper for std::queue&lt;E&gt;.">
<polygon fill="none" stroke="black" points="55,-744.5 55,-955.5 205,-955.5 205,-744.5 55,-744.5"/>
<text text-anchor="middle" x="130" y="-943.5" font-family="Helvetica,sans-Serif" font-size="10.00">EventQueue&lt; E &gt;</text>
<polyline fill="none" stroke="black" points="55,-936.5 205,-936.5 "/>
<text text-anchor="middle" x="130" y="-924.5" font-family="Helvetica,sans-Serif" font-size="10.00"> </text>
<polyline fill="none" stroke="black" points="55,-917.5 205,-917.5 "/>
<text text-anchor="start" x="63" y="-905.5" font-family="Helvetica,sans-Serif" font-size="10.00">+ EventQueue(EventQueue</text>
<text text-anchor="start" x="63" y="-894.5" font-family="Helvetica,sans-Serif" font-size="10.00"> &amp;)=delete</text>
<text text-anchor="start" x="63" y="-883.5" font-family="Helvetica,sans-Serif" font-size="10.00">+ bool operator=(const</text>
<text text-anchor="start" x="63" y="-872.5" font-family="Helvetica,sans-Serif" font-size="10.00"> EventQueue &amp;)=delete</text>
<text text-anchor="start" x="63" y="-861.5" font-family="Helvetica,sans-Serif" font-size="10.00">+ void registerEvent</text>
<text text-anchor="start" x="63" y="-850.5" font-family="Helvetica,sans-Serif" font-size="10.00">(std::unique_ptr&lt; E</text>
<text text-anchor="start" x="63" y="-839.5" font-family="Helvetica,sans-Serif" font-size="10.00"> &gt; event)</text>
<text text-anchor="start" x="63" y="-828.5" font-family="Helvetica,sans-Serif" font-size="10.00">+ std::unique_ptr&lt; E</text>
<text text-anchor="start" x="63" y="-817.5" font-family="Helvetica,sans-Serif" font-size="10.00"> &gt; pop()</text>
<text text-anchor="start" x="63" y="-806.5" font-family="Helvetica,sans-Serif" font-size="10.00">+ bool isEmpty()</text>
<text text-anchor="start" x="63" y="-795.5" font-family="Helvetica,sans-Serif" font-size="10.00">+ unsigned int size()</text>
<text text-anchor="start" x="63" y="-784.5" font-family="Helvetica,sans-Serif" font-size="10.00">+ void clear()</text>
<text text-anchor="start" x="63" y="-773.5" font-family="Helvetica,sans-Serif" font-size="10.00">+ static EventQueue *</text>
<text text-anchor="start" x="63" y="-762.5" font-family="Helvetica,sans-Serif" font-size="10.00"> instance()</text>
<text text-anchor="start" x="63" y="-751.5" font-family="Helvetica,sans-Serif" font-size="10.00">&#45; EventQueue()=default</text>
</a>
</g>
</g>
<!-- Node4&#45;&gt;Node3 -->
<g id="edge3" class="edge">
<title>Node4&#45;&gt;Node3</title>
<path fill="none" stroke="orange" d="M130,-734.16C130,-721.86 130,-709.31 130,-696.94"/>
<polygon fill="orange" stroke="orange" points="126.5,-734.43 130,-744.43 133.5,-734.43 126.5,-734.43"/>
<text text-anchor="middle" x="157" y="-718" font-family="Helvetica,sans-Serif" font-size="10.00"> &lt; Event &gt;</text>
</g>
<!-- Node5 -->
<g id="node5" class="node">
<title>Node5</title>
<g id="a_node5"><a xlink:title=" ">
<polygon fill="none" stroke="#bfbfbf" points="0,-1003.5 0,-1071.5 112,-1071.5 112,-1003.5 0,-1003.5"/>
<text text-anchor="start" x="8" y="-1059.5" font-family="Helvetica,sans-Serif" font-size="10.00">queue&lt; std::unique</text>
<text text-anchor="middle" x="56" y="-1048.5" font-family="Helvetica,sans-Serif" font-size="10.00">_ptr&lt; E &gt; &gt;</text>
<polyline fill="none" stroke="#bfbfbf" points="0,-1041.5 112,-1041.5 "/>
<text text-anchor="middle" x="56" y="-1029.5" font-family="Helvetica,sans-Serif" font-size="10.00"> </text>
<polyline fill="none" stroke="#bfbfbf" points="0,-1022.5 112,-1022.5 "/>
<text text-anchor="middle" x="56" y="-1010.5" font-family="Helvetica,sans-Serif" font-size="10.00"> </text>
</a>
</g>
</g>
<!-- Node5&#45;&gt;Node4 -->
<g id="edge4" class="edge">
<title>Node5&#45;&gt;Node4</title>
<path fill="none" stroke="#404040" d="M69.23,-1003.34C73.48,-992.67 78.47,-980.18 83.71,-967.03"/>
<polygon fill="none" stroke="#404040" points="83.73,-966.99 82.24,-959.93 88.18,-955.84 89.67,-962.9 83.73,-966.99"/>
<text text-anchor="middle" x="105" y="-977" font-family="Helvetica,sans-Serif" font-size="10.00"> #events_</text>
</g>
<!-- Node6 -->
<g id="node6" class="node">
<title>Node6</title>
<g id="a_node6"><a xlink:title=" ">
<polygon fill="none" stroke="#bfbfbf" points="130,-1009 130,-1066 280,-1066 280,-1009 130,-1009"/>
<text text-anchor="middle" x="205" y="-1054" font-family="Helvetica,sans-Serif" font-size="10.00">unique_ptr&lt; EventQueue &gt;</text>
<polyline fill="none" stroke="#bfbfbf" points="130,-1047 280,-1047 "/>
<text text-anchor="middle" x="205" y="-1035" font-family="Helvetica,sans-Serif" font-size="10.00"> </text>
<polyline fill="none" stroke="#bfbfbf" points="130,-1028 280,-1028 "/>
<text text-anchor="middle" x="205" y="-1016" font-family="Helvetica,sans-Serif" font-size="10.00"> </text>
</a>
</g>
</g>
<!-- Node6&#45;&gt;Node4 -->
<g id="edge5" class="edge">
<title>Node6&#45;&gt;Node4</title>
<path fill="none" stroke="#404040" d="M193.77,-1008.73C189.04,-997.02 183.18,-982.53 176.95,-967.12"/>
<polygon fill="none" stroke="#404040" points="176.85,-966.89 170.9,-962.82 172.36,-955.76 178.31,-959.82 176.85,-966.89"/>
<text text-anchor="middle" x="200.5" y="-977" font-family="Helvetica,sans-Serif" font-size="10.00"> #self_</text>
</g>
<!-- Node7 -->
<g id="node7" class="node">
<title>Node7</title>
<g id="a_node7"><a xlink:title=" ">
<polygon fill="none" stroke="#bfbfbf" points="223.5,-546 223.5,-603 300.5,-603 300.5,-546 223.5,-546"/>
<text text-anchor="middle" x="262" y="-591" font-family="Helvetica,sans-Serif" font-size="10.00">unsigned int</text>
<polyline fill="none" stroke="#bfbfbf" points="223.5,-584 300.5,-584 "/>
<text text-anchor="middle" x="262" y="-572" font-family="Helvetica,sans-Serif" font-size="10.00"> </text>
<polyline fill="none" stroke="#bfbfbf" points="223.5,-565 300.5,-565 "/>
<text text-anchor="middle" x="262" y="-553" font-family="Helvetica,sans-Serif" font-size="10.00"> </text>
</a>
</g>
</g>
<!-- Node7&#45;&gt;Node2 -->
<g id="edge6" class="edge">
<title>Node7&#45;&gt;Node2</title>
<path fill="none" stroke="#404040" d="M262,-545.78C262,-511.98 262,-452.27 262,-394.91"/>
<polygon fill="none" stroke="#404040" points="262,-394.71 258,-388.71 262,-382.71 266,-388.71 262,-394.71"/>
<text text-anchor="middle" x="282" y="-426" font-family="Helvetica,sans-Serif" font-size="10.00"> &#45;level_</text>
<text text-anchor="middle" x="282" y="-415" font-family="Helvetica,sans-Serif" font-size="10.00">&#45;lives_</text>
<text text-anchor="middle" x="282" y="-404" font-family="Helvetica,sans-Serif" font-size="10.00">&#45;points_</text>
</g>
<!-- Node8 -->
<g id="node8" class="node">
<title>Node8</title>
<g id="a_node8"><a xlink:title=" ">
<polygon fill="none" stroke="#bfbfbf" points="319,-546 319,-603 433,-603 433,-546 319,-546"/>
<text text-anchor="middle" x="376" y="-591" font-family="Helvetica,sans-Serif" font-size="10.00">list&lt; unsigned int &gt;</text>
<polyline fill="none" stroke="#bfbfbf" points="319,-584 433,-584 "/>
<text text-anchor="middle" x="376" y="-572" font-family="Helvetica,sans-Serif" font-size="10.00"> </text>
<polyline fill="none" stroke="#bfbfbf" points="319,-565 433,-565 "/>
<text text-anchor="middle" x="376" y="-553" font-family="Helvetica,sans-Serif" font-size="10.00"> </text>
</a>
</g>
</g>
<!-- Node8&#45;&gt;Node2 -->
<g id="edge7" class="edge">
<title>Node8&#45;&gt;Node2</title>
<path fill="none" stroke="#404040" d="M366.38,-545.78C354.6,-511.84 333.76,-451.77 313.77,-394.19"/>
<polygon fill="none" stroke="#404040" points="313.73,-394.05 307.98,-389.69 309.79,-382.71 315.54,-387.07 313.73,-394.05"/>
<text text-anchor="middle" x="358.5" y="-415" font-family="Helvetica,sans-Serif" font-size="10.00"> &#45;scoreboard_</text>
</g>
</g>
</svg>
        <g id="navigator" transform="translate(0 0)" fill="#404254">
                <rect fill="#f2f5e9" fill-opacity="0.5" stroke="#606060" stroke-width=".5" x="0" y="0" width="60" height="60"/>
                <use id="zoomplus" xlink:href="#zoomPlus" x="17" y="9" onmousedown="handleZoom(evt,'in')"/>
                <use id="zoomminus" xlink:href="#zoomMin" x="42" y="9" onmousedown="handleZoom(evt,'out')"/>
                <use id="reset" xlink:href="#resetDef" x="30" y="36" onmousedown="handleReset()"/>
                <g id="arrowUp" xlink:href="#dirArrow" transform="translate(30 24)" onmousedown="handlePan(0,-1)">
                  <use xlink:href="#rim" fill="#404040">
                        <set attributeName="fill" to="#808080" begin="arrowUp.mouseover" end="arrowUp.mouseout"/>
                  </use>
                  <path fill="none" stroke="white" stroke-width="1.5" d="M0,-3.0v7 M-2.5,-0.5L0,-3.0L2.5,-0.5"/>
                </g>
                <g id="arrowRight" xlink:href="#dirArrow" transform="rotate(90) translate(36 -43)" onmousedown="handlePan(1,0)">
                  <use xlink:href="#rim" fill="#404040">
                        <set attributeName="fill" to="#808080" begin="arrowRight.mouseover" end="arrowRight.mouseout"/>
                  </use>
                  <path fill="none" stroke="white" stroke-width="1.5" d="M0,-3.0v7 M-2.5,-0.5L0,-3.0L2.5,-0.5"/>
                </g>
                <g id="arrowDown" xlink:href="#dirArrow" transform="rotate(180) translate(-30 -48)" onmousedown="handlePan(0,1)">
                  <use xlink:href="#rim" fill="#404040">
                        <set attributeName="fill" to="#808080" begin="arrowDown.mouseover" end="arrowDown.mouseout"/>
                  </use>
                  <path fill="none" stroke="white" stroke-width="1.5" d="M0,-3.0v7 M-2.5,-0.5L0,-3.0L2.5,-0.5"/>
                </g>
                <g id="arrowLeft" xlink:href="#dirArrow" transform="rotate(270) translate(-36 17)" onmousedown="handlePan(-1,0)">
                  <use xlink:href="#rim" fill="#404040">
                        <set attributeName="fill" to="#808080" begin="arrowLeft.mouseover" end="arrowLeft.mouseout"/>
                  </use>
                  <path fill="none" stroke="white" stroke-width="1.5" d="M0,-3.0v7 M-2.5,-0.5L0,-3.0L2.5,-0.5"/>
                </g>
        </g>
        <svg viewBox="0 0 15 15" width="100%" height="30px" preserveAspectRatio="xMaxYMin meet">
         <g id="arrow_out" transform="scale(0.3 0.3)">
          <a xlink:href="struct_event_1_1_stats_info__coll__graph_org.svg" target="_base">
           <rect id="button" ry="5" rx="5" y="6" x="6" height="38" width="38"
                fill="#f2f5e9" fill-opacity="0.5" stroke="#606060" stroke-width="1.0"/>
           <path id="arrow"
             d="M 11.500037,31.436501 C 11.940474,20.09759 22.043105,11.32322 32.158766,21.979434 L 37.068811,17.246167 C 37.068811,17.246167 37.088388,32 37.088388,32 L 22.160133,31.978069 C 22.160133,31.978069 26.997745,27.140456 26.997745,27.140456 C 18.528582,18.264221 13.291696,25.230495 11.500037,31.436501 z"
             style="fill:#404040;"/>
          </a>
         </g>
        </svg>
</svg>
