<?xml version="1.0" encoding="UTF-8" standalone="no"?>
<!DOCTYPE svg PUBLIC "-//W3C//DTD SVG 1.1//EN"
 "http://www.w3.org/Graphics/SVG/1.1/DTD/svg11.dtd">
<!-- Generated by graphviz version 2.43.0 (0)
 -->
<!-- Title: Event::LevelInfo Pages: 1 -->
<svg width="483pt" height="915pt"
 viewBox="0.00 0.00 482.50 915.00" xmlns="http://www.w3.org/2000/svg" xmlns:xlink="http://www.w3.org/1999/xlink">
<g id="graph0" class="graph" transform="scale(1 1) rotate(0) translate(4 911)">
<title>Event::LevelInfo</title>
<!-- Node1 -->
<g id="node1" class="node">
<title>Node1</title>
<g id="a_node1"><a xlink:title=" ">
<polygon fill="#bfbfbf" stroke="black" points="0,-0.5 0,-57.5 95,-57.5 95,-0.5 0,-0.5"/>
<text text-anchor="middle" x="47.5" y="-45.5" font-family="Helvetica,sans-Serif" font-size="10.00">Event::LevelInfo</text>
<polyline fill="none" stroke="black" points="0,-38.5 95,-38.5 "/>
<text text-anchor="middle" x="47.5" y="-26.5" font-family="Helvetica,sans-Serif" font-size="10.00"> </text>
<polyline fill="none" stroke="black" points="0,-19.5 95,-19.5 "/>
<text text-anchor="middle" x="47.5" y="-7.5" font-family="Helvetica,sans-Serif" font-size="10.00"> </text>
</a>
</g>
</g>
<!-- Node2 -->
<g id="node2" class="node">
<title>Node2</title>
<g id="a_node2"><a xlink:title=" ">
<polygon fill="none" stroke="black" points="18,-414 18,-471 95,-471 95,-414 18,-414"/>
<text text-anchor="middle" x="56.5" y="-459" font-family="Helvetica,sans-Serif" font-size="10.00">unsigned int</text>
<polyline fill="none" stroke="black" points="18,-452 95,-452 "/>
<text text-anchor="middle" x="56.5" y="-440" font-family="Helvetica,sans-Serif" font-size="10.00"> </text>
<polyline fill="none" stroke="black" points="18,-433 95,-433 "/>
<text text-anchor="middle" x="56.5" y="-421" font-family="Helvetica,sans-Serif" font-size="10.00"> </text>
</a>
</g>
</g>
<!-- Node2&#45;&gt;Node1 -->
<g id="edge1" class="edge">
<title>Node2&#45;&gt;Node1</title>
<path fill="none" stroke="#404040" d="M52.85,-413.97C48.89,-382.58 42.82,-329.7 40.5,-284 36.47,-204.55 36.8,-184.47 40.5,-105 41.03,-93.61 42.01,-81.28 43.07,-69.97"/>
<polygon fill="none" stroke="#404040" points="43.1,-69.68 39.72,-63.31 44.29,-57.74 47.68,-64.1 43.1,-69.68"/>
<text text-anchor="middle" x="78" y="-192" font-family="Helvetica,sans-Serif" font-size="10.00"> +levelNumber</text>
</g>
<!-- Node3 -->
<g id="node3" class="node">
<title>Node3</title>
<g id="a_node3"><a xlink:href="class_grid.html" target="_top" xlink:title="Represents a grid of tiles.">
<polygon fill="none" stroke="black" points="124.5,-105.5 124.5,-283.5 292.5,-283.5 292.5,-105.5 124.5,-105.5"/>
<text text-anchor="middle" x="208.5" y="-271.5" font-family="Helvetica,sans-Serif" font-size="10.00">Grid</text>
<polyline fill="none" stroke="black" points="124.5,-264.5 292.5,-264.5 "/>
<text text-anchor="middle" x="208.5" y="-252.5" font-family="Helvetica,sans-Serif" font-size="10.00"> </text>
<polyline fill="none" stroke="black" points="124.5,-245.5 292.5,-245.5 "/>
<text text-anchor="start" x="132.5" y="-233.5" font-family="Helvetica,sans-Serif" font-size="10.00">+ Grid()</text>
<text text-anchor="start" x="132.5" y="-222.5" font-family="Helvetica,sans-Serif" font-size="10.00">+ TileType getTileAtPosition</text>
<text text-anchor="start" x="132.5" y="-211.5" font-family="Helvetica,sans-Serif" font-size="10.00">(unsigned int x, unsigned int y)</text>
<text text-anchor="start" x="132.5" y="-200.5" font-family="Helvetica,sans-Serif" font-size="10.00">+ void setTile(unsigned</text>
<text text-anchor="start" x="132.5" y="-189.5" font-family="Helvetica,sans-Serif" font-size="10.00"> int x, unsigned int</text>
<text text-anchor="start" x="132.5" y="-178.5" font-family="Helvetica,sans-Serif" font-size="10.00"> y, TileType newTile)</text>
<text text-anchor="start" x="132.5" y="-167.5" font-family="Helvetica,sans-Serif" font-size="10.00">+ void deleteTile(unsigned</text>
<text text-anchor="start" x="132.5" y="-156.5" font-family="Helvetica,sans-Serif" font-size="10.00"> int x, unsigned int y)</text>
<text text-anchor="start" x="132.5" y="-145.5" font-family="Helvetica,sans-Serif" font-size="10.00">+ unsigned int getSizeX</text>
<text text-anchor="start" x="132.5" y="-134.5" font-family="Helvetica,sans-Serif" font-size="10.00">() const</text>
<text text-anchor="start" x="132.5" y="-123.5" font-family="Helvetica,sans-Serif" font-size="10.00">+ unsigned int getSizeY</text>
<text text-anchor="start" x="132.5" y="-112.5" font-family="Helvetica,sans-Serif" font-size="10.00">() const</text>
</a>
</g>
</g>
<!-- Node2&#45;&gt;Node3 -->
<g id="edge3" class="edge">
<title>Node2&#45;&gt;Node3</title>
<path fill="none" stroke="#404040" d="M69.98,-413.89C84.25,-385.3 107.92,-339.63 131.5,-302 133.23,-299.24 135,-296.46 136.82,-293.66"/>
<polygon fill="none" stroke="#404040" points="136.91,-293.52 136.87,-286.31 143.51,-283.51 143.55,-290.72 136.91,-293.52"/>
<text text-anchor="middle" x="153" y="-316" font-family="Helvetica,sans-Serif" font-size="10.00"> #size_x</text>
<text text-anchor="middle" x="153" y="-305" font-family="Helvetica,sans-Serif" font-size="10.00">#size_y</text>
</g>
<!-- Node3&#45;&gt;Node1 -->
<g id="edge2" class="edge">
<title>Node3&#45;&gt;Node1</title>
<path fill="none" stroke="#404040" d="M124.23,-107.92C109.78,-93.25 95.49,-78.74 83.24,-66.29"/>
<polygon fill="none" stroke="#404040" points="83.12,-66.17 76.06,-64.7 74.7,-57.62 81.76,-59.09 83.12,-66.17"/>
<text text-anchor="middle" x="116" y="-79" font-family="Helvetica,sans-Serif" font-size="10.00"> +grid</text>
</g>
<!-- Node4 -->
<g id="node4" class="node">
<title>Node4</title>
<g id="a_node4"><a xlink:title=" ">
<polygon fill="none" stroke="black" points="120,-414 120,-471 177,-471 177,-414 120,-414"/>
<text text-anchor="middle" x="148.5" y="-459" font-family="Helvetica,sans-Serif" font-size="10.00">TileType</text>
<polyline fill="none" stroke="black" points="120,-452 177,-452 "/>
<text text-anchor="middle" x="148.5" y="-440" font-family="Helvetica,sans-Serif" font-size="10.00"> </text>
<polyline fill="none" stroke="black" points="120,-433 177,-433 "/>
<text text-anchor="middle" x="148.5" y="-421" font-family="Helvetica,sans-Serif" font-size="10.00"> </text>
</a>
</g>
</g>
<!-- Node4&#45;&gt;Node3 -->
<g id="edge4" class="edge">
<title>Node4&#45;&gt;Node3</title>
<path fill="none" stroke="#404040" d="M155.27,-413.76C162.3,-384.93 173.72,-338.1 184.18,-295.2"/>
<polygon fill="none" stroke="#404040" points="184.19,-295.17 181.73,-288.39 187.03,-283.51 189.5,-290.29 184.19,-295.17"/>
<text text-anchor="middle" x="198" y="-310.5" font-family="Helvetica,sans-Serif" font-size="10.00"> #grid</text>
</g>
<!-- Node5 -->
<g id="node5" class="node">
<title>Node5</title>
<g id="a_node5"><a xlink:href="class_event_queue.html" target="_top" xlink:title=" ">
<polygon fill="none" stroke="black" points="194.5,-342.5 194.5,-542.5 344.5,-542.5 344.5,-342.5 194.5,-342.5"/>
<text text-anchor="middle" x="269.5" y="-530.5" font-family="Helvetica,sans-Serif" font-size="10.00">EventQueue&lt; Event &gt;</text>
<polyline fill="none" stroke="black" points="194.5,-523.5 344.5,-523.5 "/>
<text text-anchor="middle" x="269.5" y="-511.5" font-family="Helvetica,sans-Serif" font-size="10.00"> </text>
<polyline fill="none" stroke="black" points="194.5,-504.5 344.5,-504.5 "/>
<text text-anchor="start" x="202.5" y="-492.5" font-family="Helvetica,sans-Serif" font-size="10.00">+ EventQueue(EventQueue</text>
<text text-anchor="start" x="202.5" y="-481.5" font-family="Helvetica,sans-Serif" font-size="10.00"> &amp;)=delete</text>
<text text-anchor="start" x="202.5" y="-470.5" font-family="Helvetica,sans-Serif" font-size="10.00">+ bool operator=(const</text>
<text text-anchor="start" x="202.5" y="-459.5" font-family="Helvetica,sans-Serif" font-size="10.00"> EventQueue &amp;)=delete</text>
<text text-anchor="start" x="202.5" y="-448.5" font-family="Helvetica,sans-Serif" font-size="10.00">+ void registerEvent</text>
<text text-anchor="start" x="202.5" y="-437.5" font-family="Helvetica,sans-Serif" font-size="10.00">(std::unique_ptr&lt; Event</text>
<text text-anchor="start" x="202.5" y="-426.5" font-family="Helvetica,sans-Serif" font-size="10.00"> &gt; event)</text>
<text text-anchor="start" x="202.5" y="-415.5" font-family="Helvetica,sans-Serif" font-size="10.00">+ std::unique_ptr&lt; Event</text>
<text text-anchor="start" x="202.5" y="-404.5" font-family="Helvetica,sans-Serif" font-size="10.00"> &gt; pop()</text>
<text text-anchor="start" x="202.5" y="-393.5" font-family="Helvetica,sans-Serif" font-size="10.00">+ bool isEmpty()</text>
<text text-anchor="start" x="202.5" y="-382.5" font-family="Helvetica,sans-Serif" font-size="10.00">+ void clear()</text>
<text text-anchor="start" x="202.5" y="-371.5" font-family="Helvetica,sans-Serif" font-size="10.00">+ static EventQueue *</text>
<text text-anchor="start" x="202.5" y="-360.5" font-family="Helvetica,sans-Serif" font-size="10.00"> instance()</text>
<text text-anchor="start" x="202.5" y="-349.5" font-family="Helvetica,sans-Serif" font-size="10.00">&#45; EventQueue()=default</text>
</a>
</g>
</g>
<!-- Node5&#45;&gt;Node3 -->
<g id="edge5" class="edge">
<title>Node5&#45;&gt;Node3</title>
<path fill="none" stroke="#404040" d="M244.86,-342.15C241.04,-326.74 237.1,-310.82 233.27,-295.4"/>
<polygon fill="none" stroke="#404040" points="233.26,-295.37 227.94,-290.51 230.38,-283.72 235.7,-288.58 233.26,-295.37"/>
<text text-anchor="middle" x="277.5" y="-310.5" font-family="Helvetica,sans-Serif" font-size="10.00"> #eventQueue_</text>
</g>
<!-- Node6 -->
<g id="node6" class="node">
<title>Node6</title>
<g id="a_node6"><a xlink:href="classstd_1_1queue_3_01std_1_1unique__ptr_3_01_event_01_4_01_4.html" target="_top" xlink:title=" ">
<polygon fill="none" stroke="black" points="121.5,-656.5 121.5,-724.5 233.5,-724.5 233.5,-656.5 121.5,-656.5"/>
<text text-anchor="start" x="129.5" y="-712.5" font-family="Helvetica,sans-Serif" font-size="10.00">queue&lt; std::unique</text>
<text text-anchor="middle" x="177.5" y="-701.5" font-family="Helvetica,sans-Serif" font-size="10.00">_ptr&lt; Event &gt; &gt;</text>
<polyline fill="none" stroke="black" points="121.5,-694.5 233.5,-694.5 "/>
<text text-anchor="middle" x="177.5" y="-682.5" font-family="Helvetica,sans-Serif" font-size="10.00"> </text>
<polyline fill="none" stroke="black" points="121.5,-675.5 233.5,-675.5 "/>
<text text-anchor="middle" x="177.5" y="-663.5" font-family="Helvetica,sans-Serif" font-size="10.00"> </text>
</a>
</g>
</g>
<!-- Node6&#45;&gt;Node5 -->
<g id="edge6" class="edge">
<title>Node6&#45;&gt;Node5</title>
<path fill="none" stroke="#404040" d="M182.08,-656.29C186.34,-629.9 193.82,-592.34 205.5,-561 206.39,-558.62 207.32,-556.23 208.28,-553.83"/>
<polygon fill="none" stroke="#404040" points="208.36,-553.64 207.01,-546.56 213.03,-542.59 214.38,-549.67 208.36,-553.64"/>
<text text-anchor="middle" x="230.5" y="-564" font-family="Helvetica,sans-Serif" font-size="10.00"> #events_</text>
</g>
<!-- Node7 -->
<g id="node7" class="node">
<title>Node7</title>
<g id="a_node7"><a xlink:title=" ">
<polygon fill="none" stroke="black" points="194.5,-844 194.5,-901 344.5,-901 344.5,-844 194.5,-844"/>
<text text-anchor="middle" x="269.5" y="-889" font-family="Helvetica,sans-Serif" font-size="10.00">unique_ptr&lt; EventQueue &gt;</text>
<polyline fill="none" stroke="black" points="194.5,-882 344.5,-882 "/>
<text text-anchor="middle" x="269.5" y="-870" font-family="Helvetica,sans-Serif" font-size="10.00"> </text>
<polyline fill="none" stroke="black" points="194.5,-863 344.5,-863 "/>
<text text-anchor="middle" x="269.5" y="-851" font-family="Helvetica,sans-Serif" font-size="10.00"> </text>
</a>
</g>
</g>
<!-- Node7&#45;&gt;Node5 -->
<g id="edge7" class="edge">
<title>Node7&#45;&gt;Node5</title>
<path fill="none" stroke="#404040" d="M269.5,-843.75C269.5,-786.46 269.5,-652.34 269.5,-555.11"/>
<polygon fill="none" stroke="#404040" points="269.5,-554.85 265.5,-548.85 269.5,-542.85 273.5,-548.85 269.5,-554.85"/>
<text text-anchor="middle" x="287" y="-688" font-family="Helvetica,sans-Serif" font-size="10.00"> #self_</text>
</g>
<!-- Node8 -->
<g id="node8" class="node">
<title>Node8</title>
<g id="a_node8"><a xlink:href="class_event_queue.html" target="_top" xlink:title="Singleton class wrapper for std::queue&lt;E&gt;.">
<polygon fill="none" stroke="black" points="322.5,-590.5 322.5,-790.5 472.5,-790.5 472.5,-590.5 322.5,-590.5"/>
<text text-anchor="middle" x="397.5" y="-778.5" font-family="Helvetica,sans-Serif" font-size="10.00">EventQueue&lt; E &gt;</text>
<polyline fill="none" stroke="black" points="322.5,-771.5 472.5,-771.5 "/>
<text text-anchor="middle" x="397.5" y="-759.5" font-family="Helvetica,sans-Serif" font-size="10.00"> </text>
<polyline fill="none" stroke="black" points="322.5,-752.5 472.5,-752.5 "/>
<text text-anchor="start" x="330.5" y="-740.5" font-family="Helvetica,sans-Serif" font-size="10.00">+ EventQueue(EventQueue</text>
<text text-anchor="start" x="330.5" y="-729.5" font-family="Helvetica,sans-Serif" font-size="10.00"> &amp;)=delete</text>
<text text-anchor="start" x="330.5" y="-718.5" font-family="Helvetica,sans-Serif" font-size="10.00">+ bool operator=(const</text>
<text text-anchor="start" x="330.5" y="-707.5" font-family="Helvetica,sans-Serif" font-size="10.00"> EventQueue &amp;)=delete</text>
<text text-anchor="start" x="330.5" y="-696.5" font-family="Helvetica,sans-Serif" font-size="10.00">+ void registerEvent</text>
<text text-anchor="start" x="330.5" y="-685.5" font-family="Helvetica,sans-Serif" font-size="10.00">(std::unique_ptr&lt; E</text>
<text text-anchor="start" x="330.5" y="-674.5" font-family="Helvetica,sans-Serif" font-size="10.00"> &gt; event)</text>
<text text-anchor="start" x="330.5" y="-663.5" font-family="Helvetica,sans-Serif" font-size="10.00">+ std::unique_ptr&lt; E</text>
<text text-anchor="start" x="330.5" y="-652.5" font-family="Helvetica,sans-Serif" font-size="10.00"> &gt; pop()</text>
<text text-anchor="start" x="330.5" y="-641.5" font-family="Helvetica,sans-Serif" font-size="10.00">+ bool isEmpty()</text>
<text text-anchor="start" x="330.5" y="-630.5" font-family="Helvetica,sans-Serif" font-size="10.00">+ void clear()</text>
<text text-anchor="start" x="330.5" y="-619.5" font-family="Helvetica,sans-Serif" font-size="10.00">+ static EventQueue *</text>
<text text-anchor="start" x="330.5" y="-608.5" font-family="Helvetica,sans-Serif" font-size="10.00"> instance()</text>
<text text-anchor="start" x="330.5" y="-597.5" font-family="Helvetica,sans-Serif" font-size="10.00">&#45; EventQueue()=default</text>
</a>
</g>
</g>
<!-- Node7&#45;&gt;Node8 -->
<g id="edge10" class="edge">
<title>Node7&#45;&gt;Node8</title>
<path fill="none" stroke="#404040" d="M289.22,-843.77C297.81,-831.68 308.5,-816.66 319.78,-800.79"/>
<polygon fill="none" stroke="#404040" points="319.91,-800.6 320.13,-793.4 326.87,-790.82 326.65,-798.03 319.91,-800.6"/>
<text text-anchor="middle" x="329" y="-812" font-family="Helvetica,sans-Serif" font-size="10.00"> #self_</text>
</g>
<!-- Node8&#45;&gt;Node5 -->
<g id="edge8" class="edge">
<title>Node8&#45;&gt;Node5</title>
<path fill="none" stroke="orange" d="M341.02,-580.96C334.42,-568.27 327.71,-555.37 321.18,-542.82"/>
<polygon fill="orange" stroke="orange" points="338.09,-582.9 345.81,-590.15 344.3,-579.66 338.09,-582.9"/>
<text text-anchor="middle" x="360.5" y="-564" font-family="Helvetica,sans-Serif" font-size="10.00"> &lt; Event &gt;</text>
</g>
<!-- Node9 -->
<g id="node9" class="node">
<title>Node9</title>
<g id="a_node9"><a xlink:title=" ">
<polygon fill="none" stroke="black" points="362.5,-838.5 362.5,-906.5 474.5,-906.5 474.5,-838.5 362.5,-838.5"/>
<text text-anchor="start" x="370.5" y="-894.5" font-family="Helvetica,sans-Serif" font-size="10.00">queue&lt; std::unique</text>
<text text-anchor="middle" x="418.5" y="-883.5" font-family="Helvetica,sans-Serif" font-size="10.00">_ptr&lt; E &gt; &gt;</text>
<polyline fill="none" stroke="black" points="362.5,-876.5 474.5,-876.5 "/>
<text text-anchor="middle" x="418.5" y="-864.5" font-family="Helvetica,sans-Serif" font-size="10.00"> </text>
<polyline fill="none" stroke="black" points="362.5,-857.5 474.5,-857.5 "/>
<text text-anchor="middle" x="418.5" y="-845.5" font-family="Helvetica,sans-Serif" font-size="10.00"> </text>
</a>
</g>
</g>
<!-- Node9&#45;&gt;Node8 -->
<g id="edge9" class="edge">
<title>Node9&#45;&gt;Node8</title>
<path fill="none" stroke="#404040" d="M414.65,-838.49C413.42,-827.92 411.97,-815.57 410.46,-802.6"/>
<polygon fill="none" stroke="#404040" points="410.45,-802.47 405.78,-796.97 409.06,-790.55 413.72,-796.05 410.45,-802.47"/>
<text text-anchor="middle" x="437.5" y="-812" font-family="Helvetica,sans-Serif" font-size="10.00"> #events_</text>
</g>
</g>
</svg>
