<?xml version="1.0" encoding="UTF-8" standalone="no"?>
<!DOCTYPE svg PUBLIC "-//W3C//DTD SVG 1.1//EN"
 "http://www.w3.org/Graphics/SVG/1.1/DTD/svg11.dtd">
<!-- Generated by graphviz version 2.50.0 (0)
 -->
<!-- Title: Event::TileInfo Pages: 1 -->
<svg width="766pt" height="1113pt"
 viewBox="0.00 0.00 766.00 1113.00" xmlns="http://www.w3.org/2000/svg" xmlns:xlink="http://www.w3.org/1999/xlink">
<g id="graph0" class="graph" transform="scale(1 1) rotate(0) translate(4 1109)">
<title>Event::TileInfo</title>
<!-- Node1 -->
<g id="node1" class="node">
<title>Node1</title>
<g id="a_node1"><a xlink:title=" ">
<polygon fill="#bfbfbf" stroke="black" points="442.5,-0.5 442.5,-57.5 529.5,-57.5 529.5,-0.5 442.5,-0.5"/>
<text text-anchor="middle" x="486" y="-45.5" font-family="Helvetica,sans-Serif" font-size="10.00">Event::TileInfo</text>
<polyline fill="none" stroke="black" points="442.5,-38.5 529.5,-38.5 "/>
<text text-anchor="middle" x="486" y="-26.5" font-family="Helvetica,sans-Serif" font-size="10.00"> </text>
<polyline fill="none" stroke="black" points="442.5,-19.5 529.5,-19.5 "/>
<text text-anchor="middle" x="486" y="-7.5" font-family="Helvetica,sans-Serif" font-size="10.00"> </text>
</a>
</g>
</g>
<!-- Node2 -->
<g id="node2" class="node">
<title>Node2</title>
<g id="a_node2"><a xlink:href="class_grid.html" target="_top" xlink:title="Represents a grid of tiles.">
<polygon fill="none" stroke="black" points="331,-105.5 331,-426.5 499,-426.5 499,-105.5 331,-105.5"/>
<text text-anchor="middle" x="415" y="-414.5" font-family="Helvetica,sans-Serif" font-size="10.00">Grid</text>
<polyline fill="none" stroke="black" points="331,-407.5 499,-407.5 "/>
<text text-anchor="middle" x="415" y="-395.5" font-family="Helvetica,sans-Serif" font-size="10.00"> </text>
<polyline fill="none" stroke="black" points="331,-388.5 499,-388.5 "/>
<text text-anchor="start" x="339" y="-376.5" font-family="Helvetica,sans-Serif" font-size="10.00">+ Grid()</text>
<text text-anchor="start" x="339" y="-365.5" font-family="Helvetica,sans-Serif" font-size="10.00">+ TileType getTileAtPosition</text>
<text text-anchor="start" x="339" y="-354.5" font-family="Helvetica,sans-Serif" font-size="10.00">(unsigned int x, unsigned int y)</text>
<text text-anchor="start" x="339" y="-343.5" font-family="Helvetica,sans-Serif" font-size="10.00">+ void setTile(unsigned</text>
<text text-anchor="start" x="339" y="-332.5" font-family="Helvetica,sans-Serif" font-size="10.00"> int x, unsigned int</text>
<text text-anchor="start" x="339" y="-321.5" font-family="Helvetica,sans-Serif" font-size="10.00"> y, TileType newTile)</text>
<text text-anchor="start" x="339" y="-310.5" font-family="Helvetica,sans-Serif" font-size="10.00">+ void deleteTile(unsigned</text>
<text text-anchor="start" x="339" y="-299.5" font-family="Helvetica,sans-Serif" font-size="10.00"> int x, unsigned int y)</text>
<text text-anchor="start" x="339" y="-288.5" font-family="Helvetica,sans-Serif" font-size="10.00">+ unsigned int getSizeX</text>
<text text-anchor="start" x="339" y="-277.5" font-family="Helvetica,sans-Serif" font-size="10.00">() const</text>
<text text-anchor="start" x="339" y="-266.5" font-family="Helvetica,sans-Serif" font-size="10.00">+ unsigned int getSizeY</text>
<text text-anchor="start" x="339" y="-255.5" font-family="Helvetica,sans-Serif" font-size="10.00">() const</text>
<text text-anchor="start" x="339" y="-244.5" font-family="Helvetica,sans-Serif" font-size="10.00">+ const std::vector&lt;</text>
<text text-anchor="start" x="339" y="-233.5" font-family="Helvetica,sans-Serif" font-size="10.00"> std::pair&lt; unsigned</text>
<text text-anchor="start" x="339" y="-222.5" font-family="Helvetica,sans-Serif" font-size="10.00"> int, unsigned int &gt;</text>
<text text-anchor="start" x="339" y="-211.5" font-family="Helvetica,sans-Serif" font-size="10.00"> &gt; &amp; getSpawnpoints() const</text>
<text text-anchor="start" x="339" y="-200.5" font-family="Helvetica,sans-Serif" font-size="10.00">+ const std::queue&lt; Tank</text>
<text text-anchor="start" x="339" y="-189.5" font-family="Helvetica,sans-Serif" font-size="10.00">::TankType &gt; &amp; getTankTypes</text>
<text text-anchor="start" x="339" y="-178.5" font-family="Helvetica,sans-Serif" font-size="10.00">() const</text>
<text text-anchor="start" x="339" y="-167.5" font-family="Helvetica,sans-Serif" font-size="10.00">+ const std::pair&lt; unsigned</text>
<text text-anchor="start" x="339" y="-156.5" font-family="Helvetica,sans-Serif" font-size="10.00"> int, unsigned int &gt; &amp;</text>
<text text-anchor="start" x="339" y="-145.5" font-family="Helvetica,sans-Serif" font-size="10.00"> getPlayerSpawnpoint() const</text>
<text text-anchor="start" x="339" y="-134.5" font-family="Helvetica,sans-Serif" font-size="10.00">+ const std::pair&lt; unsigned</text>
<text text-anchor="start" x="339" y="-123.5" font-family="Helvetica,sans-Serif" font-size="10.00"> int, unsigned int &gt; &amp;</text>
<text text-anchor="start" x="339" y="-112.5" font-family="Helvetica,sans-Serif" font-size="10.00"> getEagleLocation() const</text>
</a>
</g>
</g>
<!-- Node2&#45;&gt;Node1 -->
<g id="edge1" class="edge">
<title>Node2&#45;&gt;Node1</title>
<path fill="none" stroke="#404040" d="M463.24,-105.33C467.17,-92.31 470.87,-80.09 474.08,-69.44"/>
<polygon fill="none" stroke="#404040" points="474.16,-69.18 472.07,-62.28 477.63,-57.69 479.73,-64.6 474.16,-69.18"/>
<text text-anchor="middle" x="485.5" y="-79" font-family="Helvetica,sans-Serif" font-size="10.00"> +grid</text>
</g>
<!-- Node3 -->
<g id="node3" class="node">
<title>Node3</title>
<g id="a_node3"><a xlink:title=" ">
<polygon fill="none" stroke="#bfbfbf" points="0,-568 0,-647 130,-647 130,-568 0,-568"/>
<text text-anchor="start" x="8" y="-635" font-family="Helvetica,sans-Serif" font-size="10.00">vector&lt; std::pair&lt;</text>
<text text-anchor="start" x="8" y="-624" font-family="Helvetica,sans-Serif" font-size="10.00"> unsigned int, unsigned</text>
<text text-anchor="middle" x="65" y="-613" font-family="Helvetica,sans-Serif" font-size="10.00"> int &gt; &gt;</text>
<polyline fill="none" stroke="#bfbfbf" points="0,-606 130,-606 "/>
<text text-anchor="middle" x="65" y="-594" font-family="Helvetica,sans-Serif" font-size="10.00"> </text>
<polyline fill="none" stroke="#bfbfbf" points="0,-587 130,-587 "/>
<text text-anchor="middle" x="65" y="-575" font-family="Helvetica,sans-Serif" font-size="10.00"> </text>
</a>
</g>
</g>
<!-- Node3&#45;&gt;Node2 -->
<g id="edge2" class="edge">
<title>Node3&#45;&gt;Node2</title>
<path fill="none" stroke="#404040" d="M86.78,-567.94C100.92,-543.65 120.16,-511.91 139,-485 186.43,-417.27 260.91,-360.19 320.55,-321.46"/>
<polygon fill="none" stroke="#404040" points="320.64,-321.4 323.53,-314.79 330.74,-314.92 327.85,-321.52 320.64,-321.4"/>
<text text-anchor="middle" x="223" y="-453.5" font-family="Helvetica,sans-Serif" font-size="10.00"> #enemySpawnpoints</text>
</g>
<!-- Node4 -->
<g id="node4" class="node">
<title>Node4</title>
<g id="a_node4"><a xlink:href="class_event_queue.html" target="_top" xlink:title=" ">
<polygon fill="none" stroke="black" points="148,-485.5 148,-729.5 298,-729.5 298,-485.5 148,-485.5"/>
<text text-anchor="middle" x="223" y="-717.5" font-family="Helvetica,sans-Serif" font-size="10.00">EventQueue&lt; Event &gt;</text>
<polyline fill="none" stroke="black" points="148,-710.5 298,-710.5 "/>
<text text-anchor="start" x="156" y="-698.5" font-family="Helvetica,sans-Serif" font-size="10.00"># std::queue&lt; std::unique</text>
<text text-anchor="start" x="156" y="-687.5" font-family="Helvetica,sans-Serif" font-size="10.00">_ptr&lt; Event &gt; &gt; events_</text>
<text text-anchor="start" x="156" y="-676.5" font-family="Helvetica,sans-Serif" font-size="10.00"># static std::unique</text>
<text text-anchor="start" x="156" y="-665.5" font-family="Helvetica,sans-Serif" font-size="10.00">_ptr&lt; EventQueue &gt; self_</text>
<polyline fill="none" stroke="black" points="148,-658.5 298,-658.5 "/>
<text text-anchor="start" x="156" y="-646.5" font-family="Helvetica,sans-Serif" font-size="10.00">+ EventQueue(EventQueue</text>
<text text-anchor="start" x="156" y="-635.5" font-family="Helvetica,sans-Serif" font-size="10.00"> &amp;)=delete</text>
<text text-anchor="start" x="156" y="-624.5" font-family="Helvetica,sans-Serif" font-size="10.00">+ bool operator=(const</text>
<text text-anchor="start" x="156" y="-613.5" font-family="Helvetica,sans-Serif" font-size="10.00"> EventQueue &amp;)=delete</text>
<text text-anchor="start" x="156" y="-602.5" font-family="Helvetica,sans-Serif" font-size="10.00">+ void registerEvent</text>
<text text-anchor="start" x="156" y="-591.5" font-family="Helvetica,sans-Serif" font-size="10.00">(std::unique_ptr&lt; Event</text>
<text text-anchor="start" x="156" y="-580.5" font-family="Helvetica,sans-Serif" font-size="10.00"> &gt; event)</text>
<text text-anchor="start" x="156" y="-569.5" font-family="Helvetica,sans-Serif" font-size="10.00">+ std::unique_ptr&lt; Event</text>
<text text-anchor="start" x="156" y="-558.5" font-family="Helvetica,sans-Serif" font-size="10.00"> &gt; pop()</text>
<text text-anchor="start" x="156" y="-547.5" font-family="Helvetica,sans-Serif" font-size="10.00">+ bool isEmpty()</text>
<text text-anchor="start" x="156" y="-536.5" font-family="Helvetica,sans-Serif" font-size="10.00">+ unsigned int size()</text>
<text text-anchor="start" x="156" y="-525.5" font-family="Helvetica,sans-Serif" font-size="10.00">+ void clear()</text>
<text text-anchor="start" x="156" y="-514.5" font-family="Helvetica,sans-Serif" font-size="10.00">+ static EventQueue *</text>
<text text-anchor="start" x="156" y="-503.5" font-family="Helvetica,sans-Serif" font-size="10.00"> instance()</text>
<text text-anchor="start" x="156" y="-492.5" font-family="Helvetica,sans-Serif" font-size="10.00">&#45; EventQueue()=default</text>
</a>
</g>
</g>
<!-- Node4&#45;&gt;Node2 -->
<g id="edge3" class="edge">
<title>Node4&#45;&gt;Node2</title>
<path fill="none" stroke="#404040" d="M274.2,-485.43C280.86,-471.62 287.85,-457.89 295,-445 303.9,-428.96 313.81,-412.5 324.01,-396.39"/>
<polygon fill="none" stroke="#404040" points="324.28,-395.97 324.15,-388.76 330.75,-385.86 330.89,-393.07 324.28,-395.97"/>
<text text-anchor="middle" x="333" y="-453.5" font-family="Helvetica,sans-Serif" font-size="10.00"> #eventQueue_</text>
</g>
<!-- Node5 -->
<g id="node5" class="node">
<title>Node5</title>
<g id="a_node5"><a xlink:href="class_event_queue.html" target="_top" xlink:title="Singleton class wrapper for std::queue&lt;E&gt;.">
<polygon fill="none" stroke="black" points="148,-777.5 148,-988.5 298,-988.5 298,-777.5 148,-777.5"/>
<text text-anchor="middle" x="223" y="-976.5" font-family="Helvetica,sans-Serif" font-size="10.00">EventQueue&lt; E &gt;</text>
<polyline fill="none" stroke="black" points="148,-969.5 298,-969.5 "/>
<text text-anchor="middle" x="223" y="-957.5" font-family="Helvetica,sans-Serif" font-size="10.00"> </text>
<polyline fill="none" stroke="black" points="148,-950.5 298,-950.5 "/>
<text text-anchor="start" x="156" y="-938.5" font-family="Helvetica,sans-Serif" font-size="10.00">+ EventQueue(EventQueue</text>
<text text-anchor="start" x="156" y="-927.5" font-family="Helvetica,sans-Serif" font-size="10.00"> &amp;)=delete</text>
<text text-anchor="start" x="156" y="-916.5" font-family="Helvetica,sans-Serif" font-size="10.00">+ bool operator=(const</text>
<text text-anchor="start" x="156" y="-905.5" font-family="Helvetica,sans-Serif" font-size="10.00"> EventQueue &amp;)=delete</text>
<text text-anchor="start" x="156" y="-894.5" font-family="Helvetica,sans-Serif" font-size="10.00">+ void registerEvent</text>
<text text-anchor="start" x="156" y="-883.5" font-family="Helvetica,sans-Serif" font-size="10.00">(std::unique_ptr&lt; E</text>
<text text-anchor="start" x="156" y="-872.5" font-family="Helvetica,sans-Serif" font-size="10.00"> &gt; event)</text>
<text text-anchor="start" x="156" y="-861.5" font-family="Helvetica,sans-Serif" font-size="10.00">+ std::unique_ptr&lt; E</text>
<text text-anchor="start" x="156" y="-850.5" font-family="Helvetica,sans-Serif" font-size="10.00"> &gt; pop()</text>
<text text-anchor="start" x="156" y="-839.5" font-family="Helvetica,sans-Serif" font-size="10.00">+ bool isEmpty()</text>
<text text-anchor="start" x="156" y="-828.5" font-family="Helvetica,sans-Serif" font-size="10.00">+ unsigned int size()</text>
<text text-anchor="start" x="156" y="-817.5" font-family="Helvetica,sans-Serif" font-size="10.00">+ void clear()</text>
<text text-anchor="start" x="156" y="-806.5" font-family="Helvetica,sans-Serif" font-size="10.00">+ static EventQueue *</text>
<text text-anchor="start" x="156" y="-795.5" font-family="Helvetica,sans-Serif" font-size="10.00"> instance()</text>
<text text-anchor="start" x="156" y="-784.5" font-family="Helvetica,sans-Serif" font-size="10.00">&#45; EventQueue()=default</text>
</a>
</g>
</g>
<!-- Node5&#45;&gt;Node4 -->
<g id="edge4" class="edge">
<title>Node5&#45;&gt;Node4</title>
<path fill="none" stroke="orange" d="M223,-767.16C223,-754.86 223,-742.31 223,-729.94"/>
<polygon fill="orange" stroke="orange" points="219.5,-767.43 223,-777.43 226.5,-767.43 219.5,-767.43"/>
<text text-anchor="middle" x="250" y="-751" font-family="Helvetica,sans-Serif" font-size="10.00"> &lt; Event &gt;</text>
</g>
<!-- Node6 -->
<g id="node6" class="node">
<title>Node6</title>
<g id="a_node6"><a xlink:title=" ">
<polygon fill="none" stroke="#bfbfbf" points="93,-1036.5 93,-1104.5 205,-1104.5 205,-1036.5 93,-1036.5"/>
<text text-anchor="start" x="101" y="-1092.5" font-family="Helvetica,sans-Serif" font-size="10.00">queue&lt; std::unique</text>
<text text-anchor="middle" x="149" y="-1081.5" font-family="Helvetica,sans-Serif" font-size="10.00">_ptr&lt; E &gt; &gt;</text>
<polyline fill="none" stroke="#bfbfbf" points="93,-1074.5 205,-1074.5 "/>
<text text-anchor="middle" x="149" y="-1062.5" font-family="Helvetica,sans-Serif" font-size="10.00"> </text>
<polyline fill="none" stroke="#bfbfbf" points="93,-1055.5 205,-1055.5 "/>
<text text-anchor="middle" x="149" y="-1043.5" font-family="Helvetica,sans-Serif" font-size="10.00"> </text>
</a>
</g>
</g>
<!-- Node6&#45;&gt;Node5 -->
<g id="edge5" class="edge">
<title>Node6&#45;&gt;Node5</title>
<path fill="none" stroke="#404040" d="M162.23,-1036.34C166.48,-1025.67 171.47,-1013.18 176.71,-1000.03"/>
<polygon fill="none" stroke="#404040" points="176.73,-999.99 175.24,-992.93 181.18,-988.84 182.67,-995.9 176.73,-999.99"/>
<text text-anchor="middle" x="198" y="-1010" font-family="Helvetica,sans-Serif" font-size="10.00"> #events_</text>
</g>
<!-- Node7 -->
<g id="node7" class="node">
<title>Node7</title>
<g id="a_node7"><a xlink:title=" ">
<polygon fill="none" stroke="#bfbfbf" points="223,-1042 223,-1099 373,-1099 373,-1042 223,-1042"/>
<text text-anchor="middle" x="298" y="-1087" font-family="Helvetica,sans-Serif" font-size="10.00">unique_ptr&lt; EventQueue &gt;</text>
<polyline fill="none" stroke="#bfbfbf" points="223,-1080 373,-1080 "/>
<text text-anchor="middle" x="298" y="-1068" font-family="Helvetica,sans-Serif" font-size="10.00"> </text>
<polyline fill="none" stroke="#bfbfbf" points="223,-1061 373,-1061 "/>
<text text-anchor="middle" x="298" y="-1049" font-family="Helvetica,sans-Serif" font-size="10.00"> </text>
</a>
</g>
</g>
<!-- Node7&#45;&gt;Node5 -->
<g id="edge6" class="edge">
<title>Node7&#45;&gt;Node5</title>
<path fill="none" stroke="#404040" d="M286.77,-1041.73C282.04,-1030.02 276.18,-1015.53 269.95,-1000.12"/>
<polygon fill="none" stroke="#404040" points="269.85,-999.89 263.9,-995.82 265.36,-988.76 271.31,-992.82 269.85,-999.89"/>
<text text-anchor="middle" x="292.5" y="-1010" font-family="Helvetica,sans-Serif" font-size="10.00"> #self_</text>
</g>
<!-- Node8 -->
<g id="node8" class="node">
<title>Node8</title>
<g id="a_node8"><a xlink:title=" ">
<polygon fill="none" stroke="#bfbfbf" points="316.5,-579 316.5,-636 373.5,-636 373.5,-579 316.5,-579"/>
<text text-anchor="middle" x="345" y="-624" font-family="Helvetica,sans-Serif" font-size="10.00">TileType</text>
<polyline fill="none" stroke="#bfbfbf" points="316.5,-617 373.5,-617 "/>
<text text-anchor="middle" x="345" y="-605" font-family="Helvetica,sans-Serif" font-size="10.00"> </text>
<polyline fill="none" stroke="#bfbfbf" points="316.5,-598 373.5,-598 "/>
<text text-anchor="middle" x="345" y="-586" font-family="Helvetica,sans-Serif" font-size="10.00"> </text>
</a>
</g>
</g>
<!-- Node8&#45;&gt;Node2 -->
<g id="edge7" class="edge">
<title>Node8&#45;&gt;Node2</title>
<path fill="none" stroke="#404040" d="M350.73,-578.72C357.22,-547.22 368.37,-493.15 379.58,-438.8"/>
<polygon fill="none" stroke="#404040" points="379.62,-438.59 376.91,-431.91 382.04,-426.84 384.75,-433.52 379.62,-438.59"/>
<text text-anchor="middle" x="392.5" y="-453.5" font-family="Helvetica,sans-Serif" font-size="10.00"> #grid</text>
</g>
<!-- Node9 -->
<g id="node9" class="node">
<title>Node9</title>
<g id="a_node9"><a xlink:title=" ">
<polygon fill="none" stroke="#bfbfbf" points="391.5,-579 391.5,-636 468.5,-636 468.5,-579 391.5,-579"/>
<text text-anchor="middle" x="430" y="-624" font-family="Helvetica,sans-Serif" font-size="10.00">unsigned int</text>
<polyline fill="none" stroke="#bfbfbf" points="391.5,-617 468.5,-617 "/>
<text text-anchor="middle" x="430" y="-605" font-family="Helvetica,sans-Serif" font-size="10.00"> </text>
<polyline fill="none" stroke="#bfbfbf" points="391.5,-598 468.5,-598 "/>
<text text-anchor="middle" x="430" y="-586" font-family="Helvetica,sans-Serif" font-size="10.00"> </text>
</a>
</g>
</g>
<!-- Node9&#45;&gt;Node1 -->
<g id="edge11" class="edge">
<title>Node9&#45;&gt;Node1</title>
<path fill="none" stroke="#404040" d="M433.71,-578.81C438.86,-551.18 450.85,-509.41 478,-485 500.29,-464.96 524.85,-490.86 543,-467 634.8,-346.32 550.31,-150.6 507.46,-68.34"/>
<polygon fill="none" stroke="#404040" points="507.34,-68.11 500.99,-64.68 501.71,-57.51 508.06,-60.93 507.34,-68.11"/>
<text text-anchor="middle" x="603.5" y="-269" font-family="Helvetica,sans-Serif" font-size="10.00"> +tile_x</text>
<text text-anchor="middle" x="603.5" y="-258" font-family="Helvetica,sans-Serif" font-size="10.00">+tile_y</text>
</g>
<!-- Node9&#45;&gt;Node2 -->
<g id="edge8" class="edge">
<title>Node9&#45;&gt;Node2</title>
<path fill="none" stroke="#404040" d="M426.43,-578.77C423,-550.66 418.04,-505.89 416,-467 415.52,-457.8 415.12,-448.35 414.8,-438.81"/>
<polygon fill="none" stroke="#404040" points="414.8,-438.69 410.62,-432.81 414.44,-426.69 418.62,-432.57 414.8,-438.69"/>
<text text-anchor="middle" x="437.5" y="-459" font-family="Helvetica,sans-Serif" font-size="10.00"> #size_x</text>
<text text-anchor="middle" x="437.5" y="-448" font-family="Helvetica,sans-Serif" font-size="10.00">#size_y</text>
</g>
<!-- Node10 -->
<g id="node10" class="node">
<title>Node10</title>
<g id="a_node10"><a xlink:title=" ">
<polygon fill="none" stroke="#bfbfbf" points="486.5,-579 486.5,-636 629.5,-636 629.5,-579 486.5,-579"/>
<text text-anchor="middle" x="558" y="-624" font-family="Helvetica,sans-Serif" font-size="10.00">queue&lt; Tank::TankType &gt;</text>
<polyline fill="none" stroke="#bfbfbf" points="486.5,-617 629.5,-617 "/>
<text text-anchor="middle" x="558" y="-605" font-family="Helvetica,sans-Serif" font-size="10.00"> </text>
<polyline fill="none" stroke="#bfbfbf" points="486.5,-598 629.5,-598 "/>
<text text-anchor="middle" x="558" y="-586" font-family="Helvetica,sans-Serif" font-size="10.00"> </text>
</a>
</g>
</g>
<!-- Node10&#45;&gt;Node2 -->
<g id="edge9" class="edge">
<title>Node10&#45;&gt;Node2</title>
<path fill="none" stroke="#404040" d="M546.3,-578.72C532.97,-547.09 510.06,-492.69 487.07,-438.11"/>
<polygon fill="none" stroke="#404040" points="486.98,-437.9 480.97,-433.92 482.32,-426.84 488.34,-430.81 486.98,-437.9"/>
<text text-anchor="middle" x="525.5" y="-453.5" font-family="Helvetica,sans-Serif" font-size="10.00"> #tankTypes</text>
</g>
<!-- Node11 -->
<g id="node11" class="node">
<title>Node11</title>
<g id="a_node11"><a xlink:title=" ">
<polygon fill="none" stroke="#bfbfbf" points="648,-573.5 648,-641.5 758,-641.5 758,-573.5 648,-573.5"/>
<text text-anchor="start" x="656" y="-629.5" font-family="Helvetica,sans-Serif" font-size="10.00">pair&lt; unsigned int,</text>
<text text-anchor="middle" x="703" y="-618.5" font-family="Helvetica,sans-Serif" font-size="10.00"> unsigned int &gt;</text>
<polyline fill="none" stroke="#bfbfbf" points="648,-611.5 758,-611.5 "/>
<text text-anchor="middle" x="703" y="-599.5" font-family="Helvetica,sans-Serif" font-size="10.00"> </text>
<polyline fill="none" stroke="#bfbfbf" points="648,-592.5 758,-592.5 "/>
<text text-anchor="middle" x="703" y="-580.5" font-family="Helvetica,sans-Serif" font-size="10.00"> </text>
</a>
</g>
</g>
<!-- Node11&#45;&gt;Node2 -->
<g id="edge10" class="edge">
<title>Node11&#45;&gt;Node2</title>
<path fill="none" stroke="#404040" d="M691.6,-573.35C681.19,-546.91 663.65,-510.25 639,-485 602.03,-447.13 574.86,-461.82 535,-427 525.39,-418.61 516.07,-409.32 507.14,-399.58"/>
<polygon fill="none" stroke="#404040" points="507.05,-399.48 500.07,-397.66 499.07,-390.52 506.05,-392.34 507.05,-399.48"/>
<text text-anchor="middle" x="663.5" y="-459" font-family="Helvetica,sans-Serif" font-size="10.00"> #eagleLocation</text>
<text text-anchor="middle" x="663.5" y="-448" font-family="Helvetica,sans-Serif" font-size="10.00">#playerSpawnpoint</text>
</g>
</g>
</svg>
