<?xml version="1.0" encoding="UTF-8" standalone="no"?>
<!DOCTYPE svg PUBLIC "-//W3C//DTD SVG 1.1//EN"
 "http://www.w3.org/Graphics/SVG/1.1/DTD/svg11.dtd">
<!-- Generated by graphviz version 2.50.0 (0)
 -->
<!-- Title: ActiveStateGraphic::BoardPointers Pages: 1 -->
<svg width="670pt" height="193pt"
 viewBox="0.00 0.00 669.50 193.00" xmlns="http://www.w3.org/2000/svg" xmlns:xlink="http://www.w3.org/1999/xlink">
<g id="graph0" class="graph" transform="scale(1 1) rotate(0) translate(4 189)">
<title>ActiveStateGraphic::BoardPointers</title>
<!-- Node1 -->
<g id="node1" class="node">
<title>Node1</title>
<g id="a_node1"><a xlink:title="Stores given board object pointers.">
<polygon fill="#bfbfbf" stroke="black" points="244.5,-0.5 244.5,-68.5 354.5,-68.5 354.5,-0.5 244.5,-0.5"/>
<text text-anchor="start" x="252.5" y="-56.5" font-family="Helvetica,sans-Serif" font-size="10.00">ActiveStateGraphic</text>
<text text-anchor="middle" x="299.5" y="-45.5" font-family="Helvetica,sans-Serif" font-size="10.00">::BoardPointers</text>
<polyline fill="none" stroke="black" points="244.5,-38.5 354.5,-38.5 "/>
<text text-anchor="middle" x="299.5" y="-26.5" font-family="Helvetica,sans-Serif" font-size="10.00"> </text>
<polyline fill="none" stroke="black" points="244.5,-19.5 354.5,-19.5 "/>
<text text-anchor="middle" x="299.5" y="-7.5" font-family="Helvetica,sans-Serif" font-size="10.00"> </text>
</a>
</g>
</g>
<!-- Node2 -->
<g id="node2" class="node">
<title>Node2</title>
<g id="a_node2"><a xlink:title=" ">
<polygon fill="none" stroke="#bfbfbf" points="0,-122 0,-179 119,-179 119,-122 0,-122"/>
<text text-anchor="middle" x="59.5" y="-167" font-family="Helvetica,sans-Serif" font-size="10.00">shared_ptr&lt; Grid * &gt;</text>
<polyline fill="none" stroke="#bfbfbf" points="0,-160 119,-160 "/>
<text text-anchor="middle" x="59.5" y="-148" font-family="Helvetica,sans-Serif" font-size="10.00"> </text>
<polyline fill="none" stroke="#bfbfbf" points="0,-141 119,-141 "/>
<text text-anchor="middle" x="59.5" y="-129" font-family="Helvetica,sans-Serif" font-size="10.00"> </text>
</a>
</g>
</g>
<!-- Node2&#45;&gt;Node1 -->
<g id="edge1" class="edge">
<title>Node2&#45;&gt;Node1</title>
<path fill="none" stroke="#404040" d="M116.33,-121.84C120.45,-119.86 124.54,-117.9 128.5,-116 163.06,-99.48 201.66,-81.28 233.42,-66.38"/>
<polygon fill="none" stroke="#404040" points="233.49,-66.35 237.23,-60.18 244.36,-61.25 240.62,-67.42 233.49,-66.35"/>
<text text-anchor="middle" x="207" y="-90" font-family="Helvetica,sans-Serif" font-size="10.00"> +tiles</text>
</g>
<!-- Node3 -->
<g id="node3" class="node">
<title>Node3</title>
<g id="a_node3"><a xlink:title=" ">
<polygon fill="none" stroke="#bfbfbf" points="137.5,-122 137.5,-179 283.5,-179 283.5,-122 137.5,-122"/>
<text text-anchor="middle" x="210.5" y="-167" font-family="Helvetica,sans-Serif" font-size="10.00">shared_ptr&lt; sf::Vector2f &gt;</text>
<polyline fill="none" stroke="#bfbfbf" points="137.5,-160 283.5,-160 "/>
<text text-anchor="middle" x="210.5" y="-148" font-family="Helvetica,sans-Serif" font-size="10.00"> </text>
<polyline fill="none" stroke="#bfbfbf" points="137.5,-141 283.5,-141 "/>
<text text-anchor="middle" x="210.5" y="-129" font-family="Helvetica,sans-Serif" font-size="10.00"> </text>
</a>
</g>
</g>
<!-- Node3&#45;&gt;Node1 -->
<g id="edge2" class="edge">
<title>Node3&#45;&gt;Node1</title>
<path fill="none" stroke="#404040" d="M232.04,-121.9C242.24,-108.84 254.66,-92.94 266.04,-78.36"/>
<polygon fill="none" stroke="#404040" points="266.34,-77.98 266.87,-70.79 273.72,-68.52 273.18,-75.71 266.34,-77.98"/>
<text text-anchor="middle" x="286.5" y="-90" font-family="Helvetica,sans-Serif" font-size="10.00"> +eaglePos</text>
</g>
<!-- Node4 -->
<g id="node4" class="node">
<title>Node4</title>
<g id="a_node4"><a xlink:title=" ">
<polygon fill="none" stroke="#bfbfbf" points="301.5,-116.5 301.5,-184.5 475.5,-184.5 475.5,-116.5 301.5,-116.5"/>
<text text-anchor="start" x="309.5" y="-172.5" font-family="Helvetica,sans-Serif" font-size="10.00">shared_ptr&lt; std::vector</text>
<text text-anchor="middle" x="388.5" y="-161.5" font-family="Helvetica,sans-Serif" font-size="10.00">&lt; std::shared_ptr&lt; Bullet &gt; &gt; &gt;</text>
<polyline fill="none" stroke="#bfbfbf" points="301.5,-154.5 475.5,-154.5 "/>
<text text-anchor="middle" x="388.5" y="-142.5" font-family="Helvetica,sans-Serif" font-size="10.00"> </text>
<polyline fill="none" stroke="#bfbfbf" points="301.5,-135.5 475.5,-135.5 "/>
<text text-anchor="middle" x="388.5" y="-123.5" font-family="Helvetica,sans-Serif" font-size="10.00"> </text>
</a>
</g>
</g>
<!-- Node4&#45;&gt;Node1 -->
<g id="edge3" class="edge">
<title>Node4&#45;&gt;Node1</title>
<path fill="none" stroke="#404040" d="M362.52,-116.22C353.29,-104.4 342.76,-90.92 332.99,-78.4"/>
<polygon fill="none" stroke="#404040" points="332.74,-78.08 325.9,-75.82 325.36,-68.62 332.21,-70.89 332.74,-78.08"/>
<text text-anchor="middle" x="370" y="-90" font-family="Helvetica,sans-Serif" font-size="10.00"> +bullets</text>
</g>
<!-- Node5 -->
<g id="node5" class="node">
<title>Node5</title>
<g id="a_node5"><a xlink:title=" ">
<polygon fill="none" stroke="#bfbfbf" points="493.5,-116.5 493.5,-184.5 661.5,-184.5 661.5,-116.5 493.5,-116.5"/>
<text text-anchor="start" x="501.5" y="-172.5" font-family="Helvetica,sans-Serif" font-size="10.00">shared_ptr&lt; std::vector</text>
<text text-anchor="middle" x="577.5" y="-161.5" font-family="Helvetica,sans-Serif" font-size="10.00">&lt; std::shared_ptr&lt; Tank &gt; &gt; &gt;</text>
<polyline fill="none" stroke="#bfbfbf" points="493.5,-154.5 661.5,-154.5 "/>
<text text-anchor="middle" x="577.5" y="-142.5" font-family="Helvetica,sans-Serif" font-size="10.00"> </text>
<polyline fill="none" stroke="#bfbfbf" points="493.5,-135.5 661.5,-135.5 "/>
<text text-anchor="middle" x="577.5" y="-123.5" font-family="Helvetica,sans-Serif" font-size="10.00"> </text>
</a>
</g>
</g>
<!-- Node5&#45;&gt;Node1 -->
<g id="edge4" class="edge">
<title>Node5&#45;&gt;Node1</title>
<path fill="none" stroke="#404040" d="M496.72,-116.37C455.28,-99.38 405.42,-78.93 366.19,-62.85"/>
<polygon fill="none" stroke="#404040" points="366.01,-62.77 358.94,-64.2 354.91,-58.22 361.98,-56.8 366.01,-62.77"/>
<text text-anchor="middle" x="466" y="-90" font-family="Helvetica,sans-Serif" font-size="10.00"> +tanks</text>
</g>
</g>
</svg>
