<?xml version="1.0" encoding="UTF-8" standalone="no"?>
<!DOCTYPE svg PUBLIC "-//W3C//DTD SVG 1.1//EN"
 "http://www.w3.org/Graphics/SVG/1.1/DTD/svg11.dtd">
<!-- Generated by graphviz version 2.43.0 (0)
 -->
<!-- Title: Event::TileInfo Pages: 1 -->
<svg width="492pt" height="937pt"
 viewBox="0.00 0.00 491.50 937.00" xmlns="http://www.w3.org/2000/svg" xmlns:xlink="http://www.w3.org/1999/xlink">
<g id="graph0" class="graph" transform="scale(1 1) rotate(0) translate(4 933)">
<title>Event::TileInfo</title>
<!-- Node1 -->
<g id="node1" class="node">
<title>Node1</title>
<g id="a_node1"><a xlink:title=" ">
<polygon fill="#bfbfbf" stroke="black" points="0,-0.5 0,-57.5 87,-57.5 87,-0.5 0,-0.5"/>
<text text-anchor="middle" x="43.5" y="-45.5" font-family="Helvetica,sans-Serif" font-size="10.00">Event::TileInfo</text>
<polyline fill="none" stroke="black" points="0,-38.5 87,-38.5 "/>
<text text-anchor="middle" x="43.5" y="-26.5" font-family="Helvetica,sans-Serif" font-size="10.00"> </text>
<polyline fill="none" stroke="black" points="0,-19.5 87,-19.5 "/>
<text text-anchor="middle" x="43.5" y="-7.5" font-family="Helvetica,sans-Serif" font-size="10.00"> </text>
</a>
</g>
</g>
<!-- Node2 -->
<g id="node2" class="node">
<title>Node2</title>
<g id="a_node2"><a xlink:title=" ">
<polygon fill="none" stroke="black" points="27,-419.5 27,-476.5 104,-476.5 104,-419.5 27,-419.5"/>
<text text-anchor="middle" x="65.5" y="-464.5" font-family="Helvetica,sans-Serif" font-size="10.00">unsigned int</text>
<polyline fill="none" stroke="black" points="27,-457.5 104,-457.5 "/>
<text text-anchor="middle" x="65.5" y="-445.5" font-family="Helvetica,sans-Serif" font-size="10.00"> </text>
<polyline fill="none" stroke="black" points="27,-438.5 104,-438.5 "/>
<text text-anchor="middle" x="65.5" y="-426.5" font-family="Helvetica,sans-Serif" font-size="10.00"> </text>
</a>
</g>
</g>
<!-- Node2&#45;&gt;Node1 -->
<g id="edge1" class="edge">
<title>Node2&#45;&gt;Node1</title>
<path fill="none" stroke="#404040" d="M59.02,-419.22C51.84,-386.94 40.73,-331.96 36.5,-284 29.51,-204.75 32.8,-184.47 36.5,-105 37.03,-93.61 38.01,-81.28 39.07,-69.97"/>
<polygon fill="none" stroke="#404040" points="39.1,-69.68 35.72,-63.31 40.29,-57.74 43.68,-64.1 39.1,-69.68"/>
<text text-anchor="middle" x="56" y="-197.5" font-family="Helvetica,sans-Serif" font-size="10.00"> +tile_x</text>
<text text-anchor="middle" x="56" y="-186.5" font-family="Helvetica,sans-Serif" font-size="10.00">+tile_y</text>
</g>
<!-- Node3 -->
<g id="node3" class="node">
<title>Node3</title>
<g id="a_node3"><a xlink:href="class_grid.html" target="_top" xlink:title="Represents a grid of tiles.">
<polygon fill="none" stroke="black" points="84.5,-105.5 84.5,-283.5 252.5,-283.5 252.5,-105.5 84.5,-105.5"/>
<text text-anchor="middle" x="168.5" y="-271.5" font-family="Helvetica,sans-Serif" font-size="10.00">Grid</text>
<polyline fill="none" stroke="black" points="84.5,-264.5 252.5,-264.5 "/>
<text text-anchor="middle" x="168.5" y="-252.5" font-family="Helvetica,sans-Serif" font-size="10.00"> </text>
<polyline fill="none" stroke="black" points="84.5,-245.5 252.5,-245.5 "/>
<text text-anchor="start" x="92.5" y="-233.5" font-family="Helvetica,sans-Serif" font-size="10.00">+ Grid()</text>
<text text-anchor="start" x="92.5" y="-222.5" font-family="Helvetica,sans-Serif" font-size="10.00">+ TileType getTileAtPosition</text>
<text text-anchor="start" x="92.5" y="-211.5" font-family="Helvetica,sans-Serif" font-size="10.00">(unsigned int x, unsigned int y)</text>
<text text-anchor="start" x="92.5" y="-200.5" font-family="Helvetica,sans-Serif" font-size="10.00">+ void setTile(unsigned</text>
<text text-anchor="start" x="92.5" y="-189.5" font-family="Helvetica,sans-Serif" font-size="10.00"> int x, unsigned int</text>
<text text-anchor="start" x="92.5" y="-178.5" font-family="Helvetica,sans-Serif" font-size="10.00"> y, TileType newTile)</text>
<text text-anchor="start" x="92.5" y="-167.5" font-family="Helvetica,sans-Serif" font-size="10.00">+ void deleteTile(unsigned</text>
<text text-anchor="start" x="92.5" y="-156.5" font-family="Helvetica,sans-Serif" font-size="10.00"> int x, unsigned int y)</text>
<text text-anchor="start" x="92.5" y="-145.5" font-family="Helvetica,sans-Serif" font-size="10.00">+ unsigned int getSizeX</text>
<text text-anchor="start" x="92.5" y="-134.5" font-family="Helvetica,sans-Serif" font-size="10.00">() const</text>
<text text-anchor="start" x="92.5" y="-123.5" font-family="Helvetica,sans-Serif" font-size="10.00">+ unsigned int getSizeY</text>
<text text-anchor="start" x="92.5" y="-112.5" font-family="Helvetica,sans-Serif" font-size="10.00">() const</text>
</a>
</g>
</g>
<!-- Node2&#45;&gt;Node3 -->
<g id="edge3" class="edge">
<title>Node2&#45;&gt;Node3</title>
<path fill="none" stroke="#404040" d="M74.16,-419.38C83.63,-389.94 99.71,-342.13 116.5,-302 117.48,-299.66 118.48,-297.31 119.51,-294.94"/>
<polygon fill="none" stroke="#404040" points="119.59,-294.74 118.36,-287.64 124.44,-283.76 125.67,-290.87 119.59,-294.74"/>
<text text-anchor="middle" x="138" y="-316" font-family="Helvetica,sans-Serif" font-size="10.00"> #size_x</text>
<text text-anchor="middle" x="138" y="-305" font-family="Helvetica,sans-Serif" font-size="10.00">#size_y</text>
</g>
<!-- Node3&#45;&gt;Node1 -->
<g id="edge2" class="edge">
<title>Node3&#45;&gt;Node1</title>
<path fill="none" stroke="#404040" d="M100.88,-105.05C90.73,-91.78 80.77,-78.75 72.07,-67.37"/>
<polygon fill="none" stroke="#404040" points="72.06,-67.36 65.24,-65.02 64.77,-57.82 71.59,-60.16 72.06,-67.36"/>
<text text-anchor="middle" x="100" y="-79" font-family="Helvetica,sans-Serif" font-size="10.00"> +grid</text>
</g>
<!-- Node4 -->
<g id="node4" class="node">
<title>Node4</title>
<g id="a_node4"><a xlink:title=" ">
<polygon fill="none" stroke="black" points="129,-419.5 129,-476.5 186,-476.5 186,-419.5 129,-419.5"/>
<text text-anchor="middle" x="157.5" y="-464.5" font-family="Helvetica,sans-Serif" font-size="10.00">TileType</text>
<polyline fill="none" stroke="black" points="129,-457.5 186,-457.5 "/>
<text text-anchor="middle" x="157.5" y="-445.5" font-family="Helvetica,sans-Serif" font-size="10.00"> </text>
<polyline fill="none" stroke="black" points="129,-438.5 186,-438.5 "/>
<text text-anchor="middle" x="157.5" y="-426.5" font-family="Helvetica,sans-Serif" font-size="10.00"> </text>
</a>
</g>
</g>
<!-- Node4&#45;&gt;Node3 -->
<g id="edge4" class="edge">
<title>Node4&#45;&gt;Node3</title>
<path fill="none" stroke="#404040" d="M158.72,-419.12C160.02,-389.31 162.17,-340.28 164.12,-295.72"/>
<polygon fill="none" stroke="#404040" points="164.12,-295.58 160.39,-289.42 164.65,-283.6 168.38,-289.77 164.12,-295.58"/>
<text text-anchor="middle" x="180" y="-310.5" font-family="Helvetica,sans-Serif" font-size="10.00"> #grid</text>
</g>
<!-- Node5 -->
<g id="node5" class="node">
<title>Node5</title>
<g id="a_node5"><a xlink:href="class_event_queue.html" target="_top" xlink:title=" ">
<polygon fill="none" stroke="black" points="203.5,-342.5 203.5,-553.5 353.5,-553.5 353.5,-342.5 203.5,-342.5"/>
<text text-anchor="middle" x="278.5" y="-541.5" font-family="Helvetica,sans-Serif" font-size="10.00">EventQueue&lt; Event &gt;</text>
<polyline fill="none" stroke="black" points="203.5,-534.5 353.5,-534.5 "/>
<text text-anchor="middle" x="278.5" y="-522.5" font-family="Helvetica,sans-Serif" font-size="10.00"> </text>
<polyline fill="none" stroke="black" points="203.5,-515.5 353.5,-515.5 "/>
<text text-anchor="start" x="211.5" y="-503.5" font-family="Helvetica,sans-Serif" font-size="10.00">+ EventQueue(EventQueue</text>
<text text-anchor="start" x="211.5" y="-492.5" font-family="Helvetica,sans-Serif" font-size="10.00"> &amp;)=delete</text>
<text text-anchor="start" x="211.5" y="-481.5" font-family="Helvetica,sans-Serif" font-size="10.00">+ bool operator=(const</text>
<text text-anchor="start" x="211.5" y="-470.5" font-family="Helvetica,sans-Serif" font-size="10.00"> EventQueue &amp;)=delete</text>
<text text-anchor="start" x="211.5" y="-459.5" font-family="Helvetica,sans-Serif" font-size="10.00">+ void registerEvent</text>
<text text-anchor="start" x="211.5" y="-448.5" font-family="Helvetica,sans-Serif" font-size="10.00">(std::unique_ptr&lt; Event</text>
<text text-anchor="start" x="211.5" y="-437.5" font-family="Helvetica,sans-Serif" font-size="10.00"> &gt; event)</text>
<text text-anchor="start" x="211.5" y="-426.5" font-family="Helvetica,sans-Serif" font-size="10.00">+ std::unique_ptr&lt; Event</text>
<text text-anchor="start" x="211.5" y="-415.5" font-family="Helvetica,sans-Serif" font-size="10.00"> &gt; pop()</text>
<text text-anchor="start" x="211.5" y="-404.5" font-family="Helvetica,sans-Serif" font-size="10.00">+ bool isEmpty()</text>
<text text-anchor="start" x="211.5" y="-393.5" font-family="Helvetica,sans-Serif" font-size="10.00">+ unsigned int size()</text>
<text text-anchor="start" x="211.5" y="-382.5" font-family="Helvetica,sans-Serif" font-size="10.00">+ void clear()</text>
<text text-anchor="start" x="211.5" y="-371.5" font-family="Helvetica,sans-Serif" font-size="10.00">+ static EventQueue *</text>
<text text-anchor="start" x="211.5" y="-360.5" font-family="Helvetica,sans-Serif" font-size="10.00"> instance()</text>
<text text-anchor="start" x="211.5" y="-349.5" font-family="Helvetica,sans-Serif" font-size="10.00">&#45; EventQueue()=default</text>
</a>
</g>
</g>
<!-- Node5&#45;&gt;Node3 -->
<g id="edge5" class="edge">
<title>Node5&#45;&gt;Node3</title>
<path fill="none" stroke="#404040" d="M232.65,-342.16C225.82,-326.54 218.79,-310.48 212.01,-294.98"/>
<polygon fill="none" stroke="#404040" points="211.93,-294.8 205.86,-290.9 207.12,-283.8 213.19,-287.7 211.93,-294.8"/>
<text text-anchor="middle" x="261.5" y="-310.5" font-family="Helvetica,sans-Serif" font-size="10.00"> #eventQueue_</text>
</g>
<!-- Node6 -->
<g id="node6" class="node">
<title>Node6</title>
<g id="a_node6"><a xlink:href="classstd_1_1queue_3_01std_1_1unique__ptr_3_01_event_01_4_01_4.html" target="_top" xlink:title=" ">
<polygon fill="none" stroke="black" points="130.5,-673 130.5,-741 242.5,-741 242.5,-673 130.5,-673"/>
<text text-anchor="start" x="138.5" y="-729" font-family="Helvetica,sans-Serif" font-size="10.00">queue&lt; std::unique</text>
<text text-anchor="middle" x="186.5" y="-718" font-family="Helvetica,sans-Serif" font-size="10.00">_ptr&lt; Event &gt; &gt;</text>
<polyline fill="none" stroke="black" points="130.5,-711 242.5,-711 "/>
<text text-anchor="middle" x="186.5" y="-699" font-family="Helvetica,sans-Serif" font-size="10.00"> </text>
<polyline fill="none" stroke="black" points="130.5,-692 242.5,-692 "/>
<text text-anchor="middle" x="186.5" y="-680" font-family="Helvetica,sans-Serif" font-size="10.00"> </text>
</a>
</g>
</g>
<!-- Node6&#45;&gt;Node5 -->
<g id="edge6" class="edge">
<title>Node6&#45;&gt;Node5</title>
<path fill="none" stroke="#404040" d="M190.85,-672.82C195.06,-645.27 202.59,-605.35 214.5,-572 215.3,-569.75 216.14,-567.48 217.01,-565.21"/>
<polygon fill="none" stroke="#404040" points="217.11,-564.97 215.64,-557.91 221.59,-553.83 223.06,-560.89 217.11,-564.97"/>
<text text-anchor="middle" x="239.5" y="-575" font-family="Helvetica,sans-Serif" font-size="10.00"> #events_</text>
</g>
<!-- Node7 -->
<g id="node7" class="node">
<title>Node7</title>
<g id="a_node7"><a xlink:title=" ">
<polygon fill="none" stroke="black" points="203.5,-866 203.5,-923 353.5,-923 353.5,-866 203.5,-866"/>
<text text-anchor="middle" x="278.5" y="-911" font-family="Helvetica,sans-Serif" font-size="10.00">unique_ptr&lt; EventQueue &gt;</text>
<polyline fill="none" stroke="black" points="203.5,-904 353.5,-904 "/>
<text text-anchor="middle" x="278.5" y="-892" font-family="Helvetica,sans-Serif" font-size="10.00"> </text>
<polyline fill="none" stroke="black" points="203.5,-885 353.5,-885 "/>
<text text-anchor="middle" x="278.5" y="-873" font-family="Helvetica,sans-Serif" font-size="10.00"> </text>
</a>
</g>
</g>
<!-- Node7&#45;&gt;Node5 -->
<g id="edge7" class="edge">
<title>Node7&#45;&gt;Node5</title>
<path fill="none" stroke="#404040" d="M278.5,-865.69C278.5,-806.98 278.5,-667.4 278.5,-565.93"/>
<polygon fill="none" stroke="#404040" points="278.5,-565.75 274.5,-559.75 278.5,-553.75 282.5,-559.75 278.5,-565.75"/>
<text text-anchor="middle" x="296" y="-704.5" font-family="Helvetica,sans-Serif" font-size="10.00"> #self_</text>
</g>
<!-- Node8 -->
<g id="node8" class="node">
<title>Node8</title>
<g id="a_node8"><a xlink:href="class_event_queue.html" target="_top" xlink:title="Singleton class wrapper for std::queue&lt;E&gt;.">
<polygon fill="none" stroke="black" points="331.5,-601.5 331.5,-812.5 481.5,-812.5 481.5,-601.5 331.5,-601.5"/>
<text text-anchor="middle" x="406.5" y="-800.5" font-family="Helvetica,sans-Serif" font-size="10.00">EventQueue&lt; E &gt;</text>
<polyline fill="none" stroke="black" points="331.5,-793.5 481.5,-793.5 "/>
<text text-anchor="middle" x="406.5" y="-781.5" font-family="Helvetica,sans-Serif" font-size="10.00"> </text>
<polyline fill="none" stroke="black" points="331.5,-774.5 481.5,-774.5 "/>
<text text-anchor="start" x="339.5" y="-762.5" font-family="Helvetica,sans-Serif" font-size="10.00">+ EventQueue(EventQueue</text>
<text text-anchor="start" x="339.5" y="-751.5" font-family="Helvetica,sans-Serif" font-size="10.00"> &amp;)=delete</text>
<text text-anchor="start" x="339.5" y="-740.5" font-family="Helvetica,sans-Serif" font-size="10.00">+ bool operator=(const</text>
<text text-anchor="start" x="339.5" y="-729.5" font-family="Helvetica,sans-Serif" font-size="10.00"> EventQueue &amp;)=delete</text>
<text text-anchor="start" x="339.5" y="-718.5" font-family="Helvetica,sans-Serif" font-size="10.00">+ void registerEvent</text>
<text text-anchor="start" x="339.5" y="-707.5" font-family="Helvetica,sans-Serif" font-size="10.00">(std::unique_ptr&lt; E</text>
<text text-anchor="start" x="339.5" y="-696.5" font-family="Helvetica,sans-Serif" font-size="10.00"> &gt; event)</text>
<text text-anchor="start" x="339.5" y="-685.5" font-family="Helvetica,sans-Serif" font-size="10.00">+ std::unique_ptr&lt; E</text>
<text text-anchor="start" x="339.5" y="-674.5" font-family="Helvetica,sans-Serif" font-size="10.00"> &gt; pop()</text>
<text text-anchor="start" x="339.5" y="-663.5" font-family="Helvetica,sans-Serif" font-size="10.00">+ bool isEmpty()</text>
<text text-anchor="start" x="339.5" y="-652.5" font-family="Helvetica,sans-Serif" font-size="10.00">+ unsigned int size()</text>
<text text-anchor="start" x="339.5" y="-641.5" font-family="Helvetica,sans-Serif" font-size="10.00">+ void clear()</text>
<text text-anchor="start" x="339.5" y="-630.5" font-family="Helvetica,sans-Serif" font-size="10.00">+ static EventQueue *</text>
<text text-anchor="start" x="339.5" y="-619.5" font-family="Helvetica,sans-Serif" font-size="10.00"> instance()</text>
<text text-anchor="start" x="339.5" y="-608.5" font-family="Helvetica,sans-Serif" font-size="10.00">&#45; EventQueue()=default</text>
</a>
</g>
</g>
<!-- Node7&#45;&gt;Node8 -->
<g id="edge10" class="edge">
<title>Node7&#45;&gt;Node8</title>
<path fill="none" stroke="#404040" d="M297.66,-865.73C305.98,-853.68 316.33,-838.68 327.31,-822.77"/>
<polygon fill="none" stroke="#404040" points="327.4,-822.64 327.51,-815.43 334.21,-812.76 334.1,-819.97 327.4,-822.64"/>
<text text-anchor="middle" x="338" y="-834" font-family="Helvetica,sans-Serif" font-size="10.00"> #self_</text>
</g>
<!-- Node8&#45;&gt;Node5 -->
<g id="edge8" class="edge">
<title>Node8&#45;&gt;Node5</title>
<path fill="none" stroke="orange" d="M349.83,-592.22C343.47,-579.46 337.02,-566.5 330.72,-553.86"/>
<polygon fill="orange" stroke="orange" points="346.85,-594.08 354.44,-601.47 353.11,-590.96 346.85,-594.08"/>
<text text-anchor="middle" x="369.5" y="-575" font-family="Helvetica,sans-Serif" font-size="10.00"> &lt; Event &gt;</text>
</g>
<!-- Node9 -->
<g id="node9" class="node">
<title>Node9</title>
<g id="a_node9"><a xlink:title=" ">
<polygon fill="none" stroke="black" points="371.5,-860.5 371.5,-928.5 483.5,-928.5 483.5,-860.5 371.5,-860.5"/>
<text text-anchor="start" x="379.5" y="-916.5" font-family="Helvetica,sans-Serif" font-size="10.00">queue&lt; std::unique</text>
<text text-anchor="middle" x="427.5" y="-905.5" font-family="Helvetica,sans-Serif" font-size="10.00">_ptr&lt; E &gt; &gt;</text>
<polyline fill="none" stroke="black" points="371.5,-898.5 483.5,-898.5 "/>
<text text-anchor="middle" x="427.5" y="-886.5" font-family="Helvetica,sans-Serif" font-size="10.00"> </text>
<polyline fill="none" stroke="black" points="371.5,-879.5 483.5,-879.5 "/>
<text text-anchor="middle" x="427.5" y="-867.5" font-family="Helvetica,sans-Serif" font-size="10.00"> </text>
</a>
</g>
</g>
<!-- Node9&#45;&gt;Node8 -->
<g id="edge9" class="edge">
<title>Node9&#45;&gt;Node8</title>
<path fill="none" stroke="#404040" d="M423.75,-860.34C422.56,-849.88 421.18,-837.68 419.72,-824.81"/>
<polygon fill="none" stroke="#404040" points="419.72,-824.77 415.07,-819.25 418.37,-812.84 423.02,-818.36 419.72,-824.77"/>
<text text-anchor="middle" x="446.5" y="-834" font-family="Helvetica,sans-Serif" font-size="10.00"> #events_</text>
</g>
</g>
</svg>
