<?xml version="1.0" encoding="UTF-8" standalone="no"?>
<!DOCTYPE svg PUBLIC "-//W3C//DTD SVG 1.1//EN"
 "http://www.w3.org/Graphics/SVG/1.1/DTD/svg11.dtd">
<!-- Generated by graphviz version 2.50.0 (0)
 -->
<!-- Title: TanksGraphic::RenderObject Pages: 1 -->
<svg width="240pt" height="215pt"
 viewBox="0.00 0.00 240.00 215.00" xmlns="http://www.w3.org/2000/svg" xmlns:xlink="http://www.w3.org/1999/xlink">
<g id="graph0" class="graph" transform="scale(1 1) rotate(0) translate(4 211)">
<title>TanksGraphic::RenderObject</title>
<!-- Node1 -->
<g id="node1" class="node">
<title>Node1</title>
<g id="a_node1"><a xlink:title="Sturct that links object position with its texture.">
<polygon fill="#bfbfbf" stroke="black" points="31.5,-0.5 31.5,-101.5 189.5,-101.5 189.5,-0.5 31.5,-0.5"/>
<text text-anchor="middle" x="110.5" y="-89.5" font-family="Helvetica,sans-Serif" font-size="10.00">TanksGraphic::RenderObject</text>
<polyline fill="none" stroke="black" points="31.5,-82.5 189.5,-82.5 "/>
<text text-anchor="middle" x="110.5" y="-70.5" font-family="Helvetica,sans-Serif" font-size="10.00"> </text>
<polyline fill="none" stroke="black" points="31.5,-63.5 189.5,-63.5 "/>
<text text-anchor="start" x="39.5" y="-51.5" font-family="Helvetica,sans-Serif" font-size="10.00">+ RenderObject(const</text>
<text text-anchor="start" x="39.5" y="-40.5" font-family="Helvetica,sans-Serif" font-size="10.00"> sf::Vector2f &amp;coords,</text>
<text text-anchor="start" x="39.5" y="-29.5" font-family="Helvetica,sans-Serif" font-size="10.00"> Direction direction,</text>
<text text-anchor="start" x="39.5" y="-18.5" font-family="Helvetica,sans-Serif" font-size="10.00"> Tank::TankType textureType)</text>
<text text-anchor="start" x="39.5" y="-7.5" font-family="Helvetica,sans-Serif" font-size="10.00">+ RenderObject()</text>
</a>
</g>
</g>
<!-- Node2 -->
<g id="node2" class="node">
<title>Node2</title>
<g id="a_node2"><a xlink:title=" ">
<polygon fill="none" stroke="#bfbfbf" points="0,-149.5 0,-206.5 61,-206.5 61,-149.5 0,-149.5"/>
<text text-anchor="middle" x="30.5" y="-194.5" font-family="Helvetica,sans-Serif" font-size="10.00">Direction</text>
<polyline fill="none" stroke="#bfbfbf" points="0,-187.5 61,-187.5 "/>
<text text-anchor="middle" x="30.5" y="-175.5" font-family="Helvetica,sans-Serif" font-size="10.00"> </text>
<polyline fill="none" stroke="#bfbfbf" points="0,-168.5 61,-168.5 "/>
<text text-anchor="middle" x="30.5" y="-156.5" font-family="Helvetica,sans-Serif" font-size="10.00"> </text>
</a>
</g>
</g>
<!-- Node2&#45;&gt;Node1 -->
<g id="edge1" class="edge">
<title>Node2&#45;&gt;Node1</title>
<path fill="none" stroke="#404040" d="M38.41,-149.41C41.76,-139.76 46.13,-129.08 51.5,-120 53.16,-117.2 54.94,-114.4 56.81,-111.62"/>
<polygon fill="none" stroke="#404040" points="56.92,-111.46 57.17,-104.25 63.92,-101.71 63.67,-108.91 56.92,-111.46"/>
<text text-anchor="middle" x="79" y="-123" font-family="Helvetica,sans-Serif" font-size="10.00"> +direction</text>
</g>
<!-- Node3 -->
<g id="node3" class="node">
<title>Node3</title>
<g id="a_node3"><a xlink:title=" ">
<polygon fill="none" stroke="#bfbfbf" points="79.5,-149.5 79.5,-206.5 141.5,-206.5 141.5,-149.5 79.5,-149.5"/>
<text text-anchor="middle" x="110.5" y="-194.5" font-family="Helvetica,sans-Serif" font-size="10.00">TankType</text>
<polyline fill="none" stroke="#bfbfbf" points="79.5,-187.5 141.5,-187.5 "/>
<text text-anchor="middle" x="110.5" y="-175.5" font-family="Helvetica,sans-Serif" font-size="10.00"> </text>
<polyline fill="none" stroke="#bfbfbf" points="79.5,-168.5 141.5,-168.5 "/>
<text text-anchor="middle" x="110.5" y="-156.5" font-family="Helvetica,sans-Serif" font-size="10.00"> </text>
</a>
</g>
</g>
<!-- Node3&#45;&gt;Node1 -->
<g id="edge2" class="edge">
<title>Node3&#45;&gt;Node1</title>
<path fill="none" stroke="#404040" d="M110.5,-149.26C110.5,-138.79 110.5,-126.42 110.5,-114.07"/>
<polygon fill="none" stroke="#404040" points="110.5,-113.8 106.5,-107.8 110.5,-101.8 114.5,-107.8 110.5,-113.8"/>
<text text-anchor="middle" x="145.5" y="-123" font-family="Helvetica,sans-Serif" font-size="10.00"> +textureType</text>
</g>
<!-- Node4 -->
<g id="node4" class="node">
<title>Node4</title>
<g id="a_node4"><a xlink:title=" ">
<polygon fill="none" stroke="#bfbfbf" points="175,-149.5 175,-206.5 232,-206.5 232,-149.5 175,-149.5"/>
<text text-anchor="middle" x="203.5" y="-194.5" font-family="Helvetica,sans-Serif" font-size="10.00">Vector2f</text>
<polyline fill="none" stroke="#bfbfbf" points="175,-187.5 232,-187.5 "/>
<text text-anchor="middle" x="203.5" y="-175.5" font-family="Helvetica,sans-Serif" font-size="10.00"> </text>
<polyline fill="none" stroke="#bfbfbf" points="175,-168.5 232,-168.5 "/>
<text text-anchor="middle" x="203.5" y="-156.5" font-family="Helvetica,sans-Serif" font-size="10.00"> </text>
</a>
</g>
</g>
<!-- Node4&#45;&gt;Node1 -->
<g id="edge3" class="edge">
<title>Node4&#45;&gt;Node1</title>
<path fill="none" stroke="#404040" d="M195.6,-149.42C192.12,-139.67 187.44,-128.92 181.5,-120 179.55,-117.07 177.45,-114.17 175.24,-111.32"/>
<polygon fill="none" stroke="#404040" points="175.02,-111.05 168.11,-108.98 167.36,-101.81 174.27,-103.87 175.02,-111.05"/>
<text text-anchor="middle" x="208.5" y="-123" font-family="Helvetica,sans-Serif" font-size="10.00"> +coords</text>
</g>
</g>
</svg>
