<?xml version="1.0" encoding="UTF-8" standalone="no"?>
<!DOCTYPE svg PUBLIC "-//W3C//DTD SVG 1.1//EN"
 "http://www.w3.org/Graphics/SVG/1.1/DTD/svg11.dtd">
<!-- Generated by graphviz version 2.50.0 (0)
 -->
<!-- Title: Event::MoveDecisionInfo Pages: 1 -->
<svg width="177pt" height="171pt"
 viewBox="0.00 0.00 176.50 171.00" xmlns="http://www.w3.org/2000/svg" xmlns:xlink="http://www.w3.org/1999/xlink">
<g id="graph0" class="graph" transform="scale(1 1) rotate(0) translate(4 167)">
<title>Event::MoveDecisionInfo</title>
<!-- Node1 -->
<g id="node1" class="node">
<title>Node1</title>
<g id="a_node1"><a xlink:title=" ">
<polygon fill="#bfbfbf" stroke="black" points="0,-0.5 0,-57.5 138,-57.5 138,-0.5 0,-0.5"/>
<text text-anchor="middle" x="69" y="-45.5" font-family="Helvetica,sans-Serif" font-size="10.00">Event::MoveDecisionInfo</text>
<polyline fill="none" stroke="black" points="0,-38.5 138,-38.5 "/>
<text text-anchor="middle" x="69" y="-26.5" font-family="Helvetica,sans-Serif" font-size="10.00"> </text>
<polyline fill="none" stroke="black" points="0,-19.5 138,-19.5 "/>
<text text-anchor="middle" x="69" y="-7.5" font-family="Helvetica,sans-Serif" font-size="10.00"> </text>
</a>
</g>
</g>
<!-- Node2 -->
<g id="node2" class="node">
<title>Node2</title>
<g id="a_node2"><a xlink:title=" ">
<polygon fill="none" stroke="#bfbfbf" points="5,-105.5 5,-162.5 43,-162.5 43,-105.5 5,-105.5"/>
<text text-anchor="middle" x="24" y="-150.5" font-family="Helvetica,sans-Serif" font-size="10.00">bool</text>
<polyline fill="none" stroke="#bfbfbf" points="5,-143.5 43,-143.5 "/>
<text text-anchor="middle" x="24" y="-131.5" font-family="Helvetica,sans-Serif" font-size="10.00"> </text>
<polyline fill="none" stroke="#bfbfbf" points="5,-124.5 43,-124.5 "/>
<text text-anchor="middle" x="24" y="-112.5" font-family="Helvetica,sans-Serif" font-size="10.00"> </text>
</a>
</g>
</g>
<!-- Node2&#45;&gt;Node1 -->
<g id="edge1" class="edge">
<title>Node2&#45;&gt;Node1</title>
<path fill="none" stroke="#404040" d="M36.06,-105.4C40.95,-94.2 46.69,-81.06 52,-68.92"/>
<polygon fill="none" stroke="#404040" points="52.1,-68.67 50.84,-61.58 56.91,-57.68 58.17,-64.78 52.1,-68.67"/>
<text text-anchor="middle" x="63" y="-79" font-family="Helvetica,sans-Serif" font-size="10.00"> +flag</text>
</g>
<!-- Node3 -->
<g id="node3" class="node">
<title>Node3</title>
<g id="a_node3"><a xlink:title=" ">
<polygon fill="none" stroke="#bfbfbf" points="61.5,-105.5 61.5,-162.5 168.5,-162.5 168.5,-105.5 61.5,-105.5"/>
<text text-anchor="middle" x="115" y="-150.5" font-family="Helvetica,sans-Serif" font-size="10.00">shared_ptr&lt; Bot &gt;</text>
<polyline fill="none" stroke="#bfbfbf" points="61.5,-143.5 168.5,-143.5 "/>
<text text-anchor="middle" x="115" y="-131.5" font-family="Helvetica,sans-Serif" font-size="10.00"> </text>
<polyline fill="none" stroke="#bfbfbf" points="61.5,-124.5 168.5,-124.5 "/>
<text text-anchor="middle" x="115" y="-112.5" font-family="Helvetica,sans-Serif" font-size="10.00"> </text>
</a>
</g>
</g>
<!-- Node3&#45;&gt;Node1 -->
<g id="edge2" class="edge">
<title>Node3&#45;&gt;Node1</title>
<path fill="none" stroke="#404040" d="M102.67,-105.4C97.67,-94.2 91.8,-81.06 86.38,-68.92"/>
<polygon fill="none" stroke="#404040" points="86.25,-68.64 80.16,-64.79 81.36,-57.68 87.46,-61.53 86.25,-68.64"/>
<text text-anchor="middle" x="107" y="-79" font-family="Helvetica,sans-Serif" font-size="10.00"> +bot</text>
</g>
</g>
</svg>
