<?xml version="1.0" encoding="UTF-8" standalone="no"?>
<!DOCTYPE svg PUBLIC "-//W3C//DTD SVG 1.1//EN"
 "http://www.w3.org/Graphics/SVG/1.1/DTD/svg11.dtd">
<!-- Generated by graphviz version 2.43.0 (0)
 -->
<!-- Title: Event::FriendlyBulletCollisionInfo Pages: 1 -->
<svg width="187pt" height="171pt"
 viewBox="0.00 0.00 187.00 171.00" xmlns="http://www.w3.org/2000/svg" xmlns:xlink="http://www.w3.org/1999/xlink">
<g id="graph0" class="graph" transform="scale(1 1) rotate(0) translate(4 167)">
<title>Event::FriendlyBulletCollisionInfo</title>
<!-- Node1 -->
<g id="node1" class="node">
<title>Node1</title>
<g id="a_node1"><a xlink:title=" ">
<polygon fill="#bfbfbf" stroke="black" points="0,-0.5 0,-57.5 179,-57.5 179,-0.5 0,-0.5"/>
<text text-anchor="middle" x="89.5" y="-45.5" font-family="Helvetica,sans-Serif" font-size="10.00">Event::FriendlyBulletCollisionInfo</text>
<polyline fill="none" stroke="black" points="0,-38.5 179,-38.5 "/>
<text text-anchor="middle" x="89.5" y="-26.5" font-family="Helvetica,sans-Serif" font-size="10.00"> </text>
<polyline fill="none" stroke="black" points="0,-19.5 179,-19.5 "/>
<text text-anchor="middle" x="89.5" y="-7.5" font-family="Helvetica,sans-Serif" font-size="10.00"> </text>
</a>
</g>
</g>
<!-- Node2 -->
<g id="node2" class="node">
<title>Node2</title>
<g id="a_node2"><a xlink:title=" ">
<polygon fill="none" stroke="black" points="30,-105.5 30,-162.5 149,-162.5 149,-105.5 30,-105.5"/>
<text text-anchor="middle" x="89.5" y="-150.5" font-family="Helvetica,sans-Serif" font-size="10.00">shared_ptr&lt; Bullet &gt;</text>
<polyline fill="none" stroke="black" points="30,-143.5 149,-143.5 "/>
<text text-anchor="middle" x="89.5" y="-131.5" font-family="Helvetica,sans-Serif" font-size="10.00"> </text>
<polyline fill="none" stroke="black" points="30,-124.5 149,-124.5 "/>
<text text-anchor="middle" x="89.5" y="-112.5" font-family="Helvetica,sans-Serif" font-size="10.00"> </text>
</a>
</g>
</g>
<!-- Node2&#45;&gt;Node1 -->
<g id="edge1" class="edge">
<title>Node2&#45;&gt;Node1</title>
<path fill="none" stroke="#404040" d="M89.5,-105.4C89.5,-94.55 89.5,-81.87 89.5,-70.05"/>
<polygon fill="none" stroke="#404040" points="89.5,-69.68 85.5,-63.68 89.5,-57.68 93.5,-63.68 89.5,-69.68"/>
<text text-anchor="middle" x="128.5" y="-79" font-family="Helvetica,sans-Serif" font-size="10.00"> +friendlyBullet</text>
</g>
</g>
</svg>
