<?xml version="1.0" encoding="UTF-8" standalone="no"?>
<!DOCTYPE svg PUBLIC "-//W3C//DTD SVG 1.1//EN"
 "http://www.w3.org/Graphics/SVG/1.1/DTD/svg11.dtd">
<!-- Generated by graphviz version 2.43.0 (0)
 -->
<!-- Title: /home/tomek/CLionProjects/proi/proi&#45;projekt/src/main/tanks.cpp Pages: 1 -->
<!--zoomable 520 -->
<svg id="main" version="1.1" xmlns="http://www.w3.org/2000/svg" xmlns:xlink="http://www.w3.org/1999/xlink" xml:space="preserve" onload="init(evt)">
<style type="text/css"><![CDATA[
.edge:hover path { stroke: red; }
.edge:hover polygon { stroke: red; fill: red; }
]]></style>
<script type="text/javascript"><![CDATA[
var edges = document.getElementsByTagName('g');
if (edges && edges.length) {
  for (var i=0;i<edges.length;i++) {
    if (edges[i].id.substr(0,4)=='edge') {
      edges[i].setAttribute('class','edge');
    }
  }
}
]]></script>
        <defs>
                <circle id="rim" cx="0" cy="0" r="7"/>
                <circle id="rim2" cx="0" cy="0" r="3.5"/>
                <g id="zoomPlus">
                        <use xlink:href="#rim" fill="#404040">
                                <set attributeName="fill" to="#808080" begin="zoomplus.mouseover" end="zoomplus.mouseout"/>
                        </use>
                        <path d="M-4,0h8M0,-4v8" fill="none" stroke="white" stroke-width="1.5" pointer-events="none"/>
                </g>
                <g id="zoomMin">
                        <use xlink:href="#rim" fill="#404040">
                                <set attributeName="fill" to="#808080" begin="zoomminus.mouseover" end="zoomminus.mouseout"/>
                        </use>
                        <path d="M-4,0h8" fill="none" stroke="white" stroke-width="1.5" pointer-events="none"/>
                </g>
                <g id="dirArrow">
                        <path fill="none" stroke="white" stroke-width="1.5" d="M0,-3.0v7 M-2.5,-0.5L0,-3.0L2.5,-0.5"/>
                </g>
               <g id="resetDef">
                       <use xlink:href="#rim2" fill="#404040">
                               <set attributeName="fill" to="#808080" begin="reset.mouseover" end="reset.mouseout"/>
                       </use>
               </g>
        </defs>

<script type="text/javascript">
var viewWidth = 627;
var viewHeight = 520;
var sectionId = 'dynsection-0';
</script>
<script xlink:href="svgpan.js"/>
<svg id="graph" class="graph">
<g id="viewport">
<title>/home/tomek/CLionProjects/proi/proi&#45;projekt/src/main/tanks.cpp</title>
<!-- Node1 -->
<g id="node1" class="node">
<title>Node1</title>
<g id="a_node1"><a xlink:title=" ">
<polygon fill="#bfbfbf" stroke="black" points="279.5,-470.5 279.5,-511.5 430.5,-511.5 430.5,-470.5 279.5,-470.5"/>
<text text-anchor="start" x="287.5" y="-499.5" font-family="Helvetica,sans-Serif" font-size="10.00">/home/tomek/CLionProjects</text>
<text text-anchor="start" x="287.5" y="-488.5" font-family="Helvetica,sans-Serif" font-size="10.00">/proi/proi&#45;projekt/src</text>
<text text-anchor="middle" x="355" y="-477.5" font-family="Helvetica,sans-Serif" font-size="10.00">/main/tanks.cpp</text>
</a>
</g>
</g>
<!-- Node2 -->
<g id="node2" class="node">
<title>Node2</title>
<g id="a_node2"><a xlink:href="_game_8h.html" target="_top" xlink:title=" ">
<polygon fill="none" stroke="black" points="301.5,-403.5 301.5,-433.5 408.5,-433.5 408.5,-403.5 301.5,-403.5"/>
<text text-anchor="start" x="309.5" y="-421.5" font-family="Helvetica,sans-Serif" font-size="10.00">../game&#45;lib/include</text>
<text text-anchor="middle" x="355" y="-410.5" font-family="Helvetica,sans-Serif" font-size="10.00">/Game.h</text>
</a>
</g>
</g>
<!-- Node1&#45;&gt;Node2 -->
<g id="edge1" class="edge">
<title>Node1&#45;&gt;Node2</title>
<path fill="none" stroke="midnightblue" d="M355,-470.36C355,-462.23 355,-452.7 355,-444.11"/>
<polygon fill="midnightblue" stroke="midnightblue" points="358.5,-443.89 355,-433.89 351.5,-443.89 358.5,-443.89"/>
</g>
<!-- Node3 -->
<g id="node3" class="node">
<title>Node3</title>
<g id="a_node3"><a xlink:title=" ">
<polygon fill="none" stroke="#bfbfbf" points="275,-168.5 275,-187.5 333,-187.5 333,-168.5 275,-168.5"/>
<text text-anchor="middle" x="304" y="-175.5" font-family="Helvetica,sans-Serif" font-size="10.00">memory</text>
</a>
</g>
</g>
<!-- Node2&#45;&gt;Node3 -->
<g id="edge2" class="edge">
<title>Node2&#45;&gt;Node3</title>
<path fill="none" stroke="midnightblue" d="M351.96,-403.29C343.21,-362.35 317.91,-244.05 308.03,-197.83"/>
<polygon fill="midnightblue" stroke="midnightblue" points="311.43,-196.99 305.91,-187.95 304.58,-198.46 311.43,-196.99"/>
</g>
<!-- Node4 -->
<g id="node4" class="node">
<title>Node4</title>
<g id="a_node4"><a xlink:title=" ">
<polygon fill="none" stroke="#bfbfbf" points="509,-230 509,-249 619,-249 619,-230 509,-230"/>
<text text-anchor="middle" x="564" y="-237" font-family="Helvetica,sans-Serif" font-size="10.00">SFML/Graphics.hpp</text>
</a>
</g>
</g>
<!-- Node2&#45;&gt;Node4 -->
<g id="edge3" class="edge">
<title>Node2&#45;&gt;Node4</title>
<path fill="none" stroke="midnightblue" d="M372.86,-403.26C398.1,-383.06 445.53,-344.75 485,-311 506.65,-292.48 531.04,-270.55 546.92,-256.12"/>
<polygon fill="midnightblue" stroke="midnightblue" points="549.35,-258.64 554.39,-249.32 544.64,-253.46 549.35,-258.64"/>
</g>
<!-- Node5 -->
<g id="node5" class="node">
<title>Node5</title>
<g id="a_node5"><a xlink:href="_game_state_8h.html" target="_top" xlink:title=" ">
<polygon fill="none" stroke="black" points="203,-347.5 203,-366.5 283,-366.5 283,-347.5 203,-347.5"/>
<text text-anchor="middle" x="243" y="-354.5" font-family="Helvetica,sans-Serif" font-size="10.00">GameState.h</text>
</a>
</g>
</g>
<!-- Node2&#45;&gt;Node5 -->
<g id="edge4" class="edge">
<title>Node2&#45;&gt;Node5</title>
<path fill="none" stroke="midnightblue" d="M328.46,-403.4C310.34,-393.77 286.46,-381.09 268.56,-371.58"/>
<polygon fill="midnightblue" stroke="midnightblue" points="269.77,-368.26 259.3,-366.66 266.49,-374.44 269.77,-368.26"/>
</g>
<!-- Node16 -->
<g id="node16" class="node">
<title>Node16</title>
<g id="a_node16"><a xlink:href="_keyboard_controller_8h.html" target="_top" xlink:title=" ">
<polygon fill="none" stroke="black" points="356.5,-291.5 356.5,-310.5 475.5,-310.5 475.5,-291.5 356.5,-291.5"/>
<text text-anchor="middle" x="416" y="-298.5" font-family="Helvetica,sans-Serif" font-size="10.00">KeyboardController.h</text>
</a>
</g>
</g>
<!-- Node2&#45;&gt;Node16 -->
<g id="edge22" class="edge">
<title>Node2&#45;&gt;Node16</title>
<path fill="none" stroke="midnightblue" d="M362.48,-403.34C373.62,-382.24 394.56,-342.6 406.68,-319.65"/>
<polygon fill="midnightblue" stroke="midnightblue" points="409.85,-321.15 411.42,-310.67 403.66,-317.88 409.85,-321.15"/>
</g>
<!-- Node5&#45;&gt;Node3 -->
<g id="edge5" class="edge">
<title>Node5&#45;&gt;Node3</title>
<path fill="none" stroke="midnightblue" d="M245.94,-347.46C255.3,-320.31 284.52,-235.51 297.58,-197.62"/>
<polygon fill="midnightblue" stroke="midnightblue" points="300.99,-198.46 300.94,-187.87 294.38,-196.18 300.99,-198.46"/>
</g>
<!-- Node6 -->
<g id="node6" class="node">
<title>Node6</title>
<g id="a_node6"><a xlink:href="_active_event_handler_8h.html" target="_top" xlink:title=" ">
<polygon fill="none" stroke="black" points="123,-291.5 123,-310.5 245,-310.5 245,-291.5 123,-291.5"/>
<text text-anchor="middle" x="184" y="-298.5" font-family="Helvetica,sans-Serif" font-size="10.00">ActiveEventHandler.h</text>
</a>
</g>
</g>
<!-- Node5&#45;&gt;Node6 -->
<g id="edge6" class="edge">
<title>Node5&#45;&gt;Node6</title>
<path fill="none" stroke="midnightblue" d="M233.52,-347.32C224.8,-339.34 211.66,-327.31 201.1,-317.65"/>
<polygon fill="midnightblue" stroke="midnightblue" points="203.39,-315 193.65,-310.83 198.67,-320.17 203.39,-315"/>
</g>
<!-- Node6&#45;&gt;Node3 -->
<g id="edge7" class="edge">
<title>Node6&#45;&gt;Node3</title>
<path fill="none" stroke="midnightblue" d="M192.76,-291.09C206.73,-276.87 234.96,-248.2 259,-224 268.66,-214.28 279.52,-203.41 288.15,-194.8"/>
<polygon fill="midnightblue" stroke="midnightblue" points="290.75,-197.15 295.36,-187.61 285.8,-192.19 290.75,-197.15"/>
</g>
<!-- Node7 -->
<g id="node7" class="node">
<title>Node7</title>
<g id="a_node7"><a xlink:href="_event_handler_8h.html" target="_top" xlink:title=" ">
<polygon fill="none" stroke="black" points="97,-224.5 97,-254.5 207,-254.5 207,-224.5 97,-224.5"/>
<text text-anchor="start" x="105" y="-242.5" font-family="Helvetica,sans-Serif" font-size="10.00">../../core&#45;lib/include</text>
<text text-anchor="middle" x="152" y="-231.5" font-family="Helvetica,sans-Serif" font-size="10.00">/EventHandler.h</text>
</a>
</g>
</g>
<!-- Node6&#45;&gt;Node7 -->
<g id="edge8" class="edge">
<title>Node6&#45;&gt;Node7</title>
<path fill="none" stroke="midnightblue" d="M179.42,-291.48C175.49,-284.17 169.64,-273.3 164.36,-263.47"/>
<polygon fill="midnightblue" stroke="midnightblue" points="167.36,-261.67 159.54,-254.52 161.2,-264.99 167.36,-261.67"/>
</g>
<!-- Node7&#45;&gt;Node3 -->
<g id="edge9" class="edge">
<title>Node7&#45;&gt;Node3</title>
<path fill="none" stroke="midnightblue" d="M188.02,-224.4C213.64,-214.37 247.73,-201.03 272.31,-191.4"/>
<polygon fill="midnightblue" stroke="midnightblue" points="273.85,-194.56 281.88,-187.66 271.29,-188.04 273.85,-194.56"/>
</g>
<!-- Node8 -->
<g id="node8" class="node">
<title>Node8</title>
<g id="a_node8"><a xlink:href="_event_8h.html" target="_top" xlink:title=" ">
<polygon fill="none" stroke="black" points="128.5,-56.5 128.5,-75.5 181.5,-75.5 181.5,-56.5 128.5,-56.5"/>
<text text-anchor="middle" x="155" y="-63.5" font-family="Helvetica,sans-Serif" font-size="10.00">Event.h</text>
</a>
</g>
</g>
<!-- Node7&#45;&gt;Node8 -->
<g id="edge10" class="edge">
<title>Node7&#45;&gt;Node8</title>
<path fill="none" stroke="midnightblue" d="M176.59,-224.29C189.09,-215.59 203.09,-203.19 210,-188 227.19,-150.24 193.1,-105.83 171.29,-82.74"/>
<polygon fill="midnightblue" stroke="midnightblue" points="173.69,-80.19 164.19,-75.51 168.69,-85.1 173.69,-80.19"/>
</g>
<!-- Node11 -->
<g id="node11" class="node">
<title>Node11</title>
<g id="a_node11"><a xlink:href="_event_publisher_8h.html" target="_top" xlink:title=" ">
<polygon fill="none" stroke="black" points="103,-168.5 103,-187.5 201,-187.5 201,-168.5 103,-168.5"/>
<text text-anchor="middle" x="152" y="-175.5" font-family="Helvetica,sans-Serif" font-size="10.00">EventPublisher.h</text>
</a>
</g>
</g>
<!-- Node7&#45;&gt;Node11 -->
<g id="edge13" class="edge">
<title>Node7&#45;&gt;Node11</title>
<path fill="none" stroke="midnightblue" d="M152,-224.4C152,-216.47 152,-206.46 152,-197.86"/>
<polygon fill="midnightblue" stroke="midnightblue" points="155.5,-197.66 152,-187.66 148.5,-197.66 155.5,-197.66"/>
</g>
<!-- Node9 -->
<g id="node9" class="node">
<title>Node9</title>
<g id="a_node9"><a xlink:title=" ">
<polygon fill="none" stroke="#bfbfbf" points="85.5,-0.5 85.5,-19.5 150.5,-19.5 150.5,-0.5 85.5,-0.5"/>
<text text-anchor="middle" x="118" y="-7.5" font-family="Helvetica,sans-Serif" font-size="10.00">exception</text>
</a>
</g>
</g>
<!-- Node8&#45;&gt;Node9 -->
<g id="edge11" class="edge">
<title>Node8&#45;&gt;Node9</title>
<path fill="none" stroke="midnightblue" d="M148.89,-56.08C143.72,-48.53 136.15,-37.49 129.81,-28.23"/>
<polygon fill="midnightblue" stroke="midnightblue" points="132.54,-26.02 124,-19.75 126.76,-29.98 132.54,-26.02"/>
</g>
<!-- Node10 -->
<g id="node10" class="node">
<title>Node10</title>
<g id="a_node10"><a xlink:title=" ">
<polygon fill="none" stroke="#bfbfbf" points="169,-0.5 169,-19.5 213,-19.5 213,-0.5 169,-0.5"/>
<text text-anchor="middle" x="191" y="-7.5" font-family="Helvetica,sans-Serif" font-size="10.00">string</text>
</a>
</g>
</g>
<!-- Node8&#45;&gt;Node10 -->
<g id="edge12" class="edge">
<title>Node8&#45;&gt;Node10</title>
<path fill="none" stroke="midnightblue" d="M160.94,-56.08C165.98,-48.53 173.34,-37.49 179.51,-28.23"/>
<polygon fill="midnightblue" stroke="midnightblue" points="182.53,-30.01 185.17,-19.75 176.71,-26.13 182.53,-30.01"/>
</g>
<!-- Node11&#45;&gt;Node8 -->
<g id="edge16" class="edge">
<title>Node11&#45;&gt;Node8</title>
<path fill="none" stroke="midnightblue" d="M152.24,-168.37C152.72,-150.62 153.84,-109.67 154.49,-85.6"/>
<polygon fill="midnightblue" stroke="midnightblue" points="157.99,-85.68 154.77,-75.59 150.99,-85.49 157.99,-85.68"/>
</g>
<!-- Node12 -->
<g id="node12" class="node">
<title>Node12</title>
<g id="a_node12"><a xlink:title=" ">
<polygon fill="none" stroke="#bfbfbf" points="0,-56.5 0,-75.5 38,-75.5 38,-56.5 0,-56.5"/>
<text text-anchor="middle" x="19" y="-63.5" font-family="Helvetica,sans-Serif" font-size="10.00">map</text>
</a>
</g>
</g>
<!-- Node11&#45;&gt;Node12 -->
<g id="edge14" class="edge">
<title>Node11&#45;&gt;Node12</title>
<path fill="none" stroke="midnightblue" d="M102.73,-172.62C75.11,-167.43 42.58,-156.2 24,-132 13.99,-118.97 13.73,-99.81 15.37,-85.67"/>
<polygon fill="midnightblue" stroke="midnightblue" points="18.86,-86.03 16.95,-75.61 11.94,-84.95 18.86,-86.03"/>
</g>
<!-- Node13 -->
<g id="node13" class="node">
<title>Node13</title>
<g id="a_node13"><a xlink:title=" ">
<polygon fill="none" stroke="#bfbfbf" points="199.5,-56.5 199.5,-75.5 246.5,-75.5 246.5,-56.5 199.5,-56.5"/>
<text text-anchor="middle" x="223" y="-63.5" font-family="Helvetica,sans-Serif" font-size="10.00">vector</text>
</a>
</g>
</g>
<!-- Node11&#45;&gt;Node13 -->
<g id="edge15" class="edge">
<title>Node11&#45;&gt;Node13</title>
<path fill="none" stroke="midnightblue" d="M157.57,-168.37C169.24,-150.3 196.42,-108.18 211.83,-84.31"/>
<polygon fill="midnightblue" stroke="midnightblue" points="214.97,-85.89 217.45,-75.59 209.09,-82.1 214.97,-85.89"/>
</g>
<!-- Node14 -->
<g id="node14" class="node">
<title>Node14</title>
<g id="a_node14"><a xlink:href="_event_subscriber_8h.html" target="_top" xlink:title=" ">
<polygon fill="none" stroke="black" points="33,-112.5 33,-131.5 137,-131.5 137,-112.5 33,-112.5"/>
<text text-anchor="middle" x="85" y="-119.5" font-family="Helvetica,sans-Serif" font-size="10.00">EventSubscriber.h</text>
</a>
</g>
</g>
<!-- Node11&#45;&gt;Node14 -->
<g id="edge17" class="edge">
<title>Node11&#45;&gt;Node14</title>
<path fill="none" stroke="midnightblue" d="M141.24,-168.32C131.23,-160.26 116.11,-148.08 104.07,-138.37"/>
<polygon fill="midnightblue" stroke="midnightblue" points="105.94,-135.38 95.96,-131.83 101.55,-140.83 105.94,-135.38"/>
</g>
<!-- Node14&#45;&gt;Node8 -->
<g id="edge21" class="edge">
<title>Node14&#45;&gt;Node8</title>
<path fill="none" stroke="midnightblue" d="M96.25,-112.32C106.8,-104.18 122.8,-91.84 135.44,-82.09"/>
<polygon fill="midnightblue" stroke="midnightblue" points="137.77,-84.71 143.55,-75.83 133.49,-79.17 137.77,-84.71"/>
</g>
<!-- Node14&#45;&gt;Node12 -->
<g id="edge18" class="edge">
<title>Node14&#45;&gt;Node12</title>
<path fill="none" stroke="midnightblue" d="M74.4,-112.32C64.54,-104.26 49.65,-92.08 37.78,-82.37"/>
<polygon fill="midnightblue" stroke="midnightblue" points="39.75,-79.46 29.8,-75.83 35.32,-84.88 39.75,-79.46"/>
</g>
<!-- Node14&#45;&gt;Node13 -->
<g id="edge19" class="edge">
<title>Node14&#45;&gt;Node13</title>
<path fill="none" stroke="midnightblue" d="M106.87,-112.44C129.78,-103.48 165.98,-89.31 191.87,-79.18"/>
<polygon fill="midnightblue" stroke="midnightblue" points="193.2,-82.42 201.24,-75.52 190.65,-75.9 193.2,-82.42"/>
</g>
<!-- Node15 -->
<g id="node15" class="node">
<title>Node15</title>
<g id="a_node15"><a xlink:title=" ">
<polygon fill="none" stroke="#bfbfbf" points="69,-56.5 69,-75.5 101,-75.5 101,-56.5 69,-56.5"/>
<text text-anchor="middle" x="85" y="-63.5" font-family="Helvetica,sans-Serif" font-size="10.00">list</text>
</a>
</g>
</g>
<!-- Node14&#45;&gt;Node15 -->
<g id="edge20" class="edge">
<title>Node14&#45;&gt;Node15</title>
<path fill="none" stroke="midnightblue" d="M85,-112.08C85,-105.01 85,-94.86 85,-85.99"/>
<polygon fill="midnightblue" stroke="midnightblue" points="88.5,-85.75 85,-75.75 81.5,-85.75 88.5,-85.75"/>
</g>
<!-- Node16&#45;&gt;Node3 -->
<g id="edge23" class="edge">
<title>Node16&#45;&gt;Node3</title>
<path fill="none" stroke="midnightblue" d="M406.12,-291.36C396.18,-282.53 380.57,-268.26 368,-255 349.55,-235.54 329.9,-211.68 317.32,-195.95"/>
<polygon fill="midnightblue" stroke="midnightblue" points="319.74,-193.38 310.79,-187.72 314.26,-197.73 319.74,-193.38"/>
</g>
<!-- Node16&#45;&gt;Node4 -->
<g id="edge24" class="edge">
<title>Node16&#45;&gt;Node4</title>
<path fill="none" stroke="midnightblue" d="M437.2,-291.48C462.37,-281.36 504.54,-264.4 533.28,-252.85"/>
<polygon fill="midnightblue" stroke="midnightblue" points="534.86,-255.99 542.83,-249.01 532.25,-249.49 534.86,-255.99"/>
</g>
<!-- Node17 -->
<g id="node17" class="node">
<title>Node17</title>
<g id="a_node17"><a xlink:href="_simple_subscriber_8h.html" target="_top" xlink:title=" ">
<polygon fill="none" stroke="black" points="377.5,-224.5 377.5,-254.5 490.5,-254.5 490.5,-224.5 377.5,-224.5"/>
<text text-anchor="start" x="385.5" y="-242.5" font-family="Helvetica,sans-Serif" font-size="10.00">../../core&#45;lib/include</text>
<text text-anchor="middle" x="434" y="-231.5" font-family="Helvetica,sans-Serif" font-size="10.00">/SimpleSubscriber.h</text>
</a>
</g>
</g>
<!-- Node16&#45;&gt;Node17 -->
<g id="edge25" class="edge">
<title>Node16&#45;&gt;Node17</title>
<path fill="none" stroke="midnightblue" d="M418.58,-291.48C420.72,-284.4 423.87,-273.97 426.77,-264.39"/>
<polygon fill="midnightblue" stroke="midnightblue" points="430.21,-265.11 429.76,-254.52 423.51,-263.08 430.21,-265.11"/>
</g>
<!-- Node17&#45;&gt;Node3 -->
<g id="edge27" class="edge">
<title>Node17&#45;&gt;Node3</title>
<path fill="none" stroke="midnightblue" d="M403.19,-224.4C381.67,-214.55 353.16,-201.5 332.23,-191.92"/>
<polygon fill="midnightblue" stroke="midnightblue" points="333.47,-188.64 322.92,-187.66 330.55,-195 333.47,-188.64"/>
</g>
<!-- Node17&#45;&gt;Node13 -->
<g id="edge26" class="edge">
<title>Node17&#45;&gt;Node13</title>
<path fill="none" stroke="midnightblue" d="M416.73,-224.47C377.49,-192.57 281.87,-114.85 241.48,-82.02"/>
<polygon fill="midnightblue" stroke="midnightblue" points="243.5,-79.15 233.53,-75.56 239.08,-84.58 243.5,-79.15"/>
</g>
</g>
</svg>
        <g id="navigator" transform="translate(0 0)" fill="#404254">
                <rect fill="#f2f5e9" fill-opacity="0.5" stroke="#606060" stroke-width=".5" x="0" y="0" width="60" height="60"/>
                <use id="zoomplus" xlink:href="#zoomPlus" x="17" y="9" onmousedown="handleZoom(evt,'in')"/>
                <use id="zoomminus" xlink:href="#zoomMin" x="42" y="9" onmousedown="handleZoom(evt,'out')"/>
                <use id="reset" xlink:href="#resetDef" x="30" y="36" onmousedown="handleReset()"/>
                <g id="arrowUp" xlink:href="#dirArrow" transform="translate(30 24)" onmousedown="handlePan(0,-1)">
                  <use xlink:href="#rim" fill="#404040">
                        <set attributeName="fill" to="#808080" begin="arrowUp.mouseover" end="arrowUp.mouseout"/>
                  </use>
                  <path fill="none" stroke="white" stroke-width="1.5" d="M0,-3.0v7 M-2.5,-0.5L0,-3.0L2.5,-0.5"/>
                </g>
                <g id="arrowRight" xlink:href="#dirArrow" transform="rotate(90) translate(36 -43)" onmousedown="handlePan(1,0)">
                  <use xlink:href="#rim" fill="#404040">
                        <set attributeName="fill" to="#808080" begin="arrowRight.mouseover" end="arrowRight.mouseout"/>
                  </use>
                  <path fill="none" stroke="white" stroke-width="1.5" d="M0,-3.0v7 M-2.5,-0.5L0,-3.0L2.5,-0.5"/>
                </g>
                <g id="arrowDown" xlink:href="#dirArrow" transform="rotate(180) translate(-30 -48)" onmousedown="handlePan(0,1)">
                  <use xlink:href="#rim" fill="#404040">
                        <set attributeName="fill" to="#808080" begin="arrowDown.mouseover" end="arrowDown.mouseout"/>
                  </use>
                  <path fill="none" stroke="white" stroke-width="1.5" d="M0,-3.0v7 M-2.5,-0.5L0,-3.0L2.5,-0.5"/>
                </g>
                <g id="arrowLeft" xlink:href="#dirArrow" transform="rotate(270) translate(-36 17)" onmousedown="handlePan(-1,0)">
                  <use xlink:href="#rim" fill="#404040">
                        <set attributeName="fill" to="#808080" begin="arrowLeft.mouseover" end="arrowLeft.mouseout"/>
                  </use>
                  <path fill="none" stroke="white" stroke-width="1.5" d="M0,-3.0v7 M-2.5,-0.5L0,-3.0L2.5,-0.5"/>
                </g>
        </g>
        <svg viewBox="0 0 15 15" width="100%" height="30px" preserveAspectRatio="xMaxYMin meet">
         <g id="arrow_out" transform="scale(0.3 0.3)">
          <a xlink:href="tanks_8cpp__incl_org.svg" target="_base">
           <rect id="button" ry="5" rx="5" y="6" x="6" height="38" width="38"
                fill="#f2f5e9" fill-opacity="0.5" stroke="#606060" stroke-width="1.0"/>
           <path id="arrow"
             d="M 11.500037,31.436501 C 11.940474,20.09759 22.043105,11.32322 32.158766,21.979434 L 37.068811,17.246167 C 37.068811,17.246167 37.088388,32 37.088388,32 L 22.160133,31.978069 C 22.160133,31.978069 26.997745,27.140456 26.997745,27.140456 C 18.528582,18.264221 13.291696,25.230495 11.500037,31.436501 z"
             style="fill:#404040;"/>
          </a>
         </g>
        </svg>
</svg>
