<?xml version="1.0" encoding="UTF-8" standalone="no"?>
<!DOCTYPE svg PUBLIC "-//W3C//DTD SVG 1.1//EN"
 "http://www.w3.org/Graphics/SVG/1.1/DTD/svg11.dtd">
<!-- Generated by graphviz version 2.43.0 (0)
 -->
<!-- Title: /home/tomek/CLionProjects/proi/proi&#45;projekt/src/main/tanks.cpp Pages: 1 -->
<!--zoomable 743 -->
<svg id="main" version="1.1" xmlns="http://www.w3.org/2000/svg" xmlns:xlink="http://www.w3.org/1999/xlink" xml:space="preserve" onload="init(evt)">
<style type="text/css"><![CDATA[
.edge:hover path { stroke: red; }
.edge:hover polygon { stroke: red; fill: red; }
]]></style>
<script type="text/javascript"><![CDATA[
var edges = document.getElementsByTagName('g');
if (edges && edges.length) {
  for (var i=0;i<edges.length;i++) {
    if (edges[i].id.substr(0,4)=='edge') {
      edges[i].setAttribute('class','edge');
    }
  }
}
]]></script>
        <defs>
                <circle id="rim" cx="0" cy="0" r="7"/>
                <circle id="rim2" cx="0" cy="0" r="3.5"/>
                <g id="zoomPlus">
                        <use xlink:href="#rim" fill="#404040">
                                <set attributeName="fill" to="#808080" begin="zoomplus.mouseover" end="zoomplus.mouseout"/>
                        </use>
                        <path d="M-4,0h8M0,-4v8" fill="none" stroke="white" stroke-width="1.5" pointer-events="none"/>
                </g>
                <g id="zoomMin">
                        <use xlink:href="#rim" fill="#404040">
                                <set attributeName="fill" to="#808080" begin="zoomminus.mouseover" end="zoomminus.mouseout"/>
                        </use>
                        <path d="M-4,0h8" fill="none" stroke="white" stroke-width="1.5" pointer-events="none"/>
                </g>
                <g id="dirArrow">
                        <path fill="none" stroke="white" stroke-width="1.5" d="M0,-3.0v7 M-2.5,-0.5L0,-3.0L2.5,-0.5"/>
                </g>
               <g id="resetDef">
                       <use xlink:href="#rim2" fill="#404040">
                               <set attributeName="fill" to="#808080" begin="reset.mouseover" end="reset.mouseout"/>
                       </use>
               </g>
        </defs>

<script type="text/javascript">
var viewWidth = 1353;
var viewHeight = 743;
var sectionId = 'dynsection-0';
</script>
<script xlink:href="svgpan.js"/>
<svg id="graph" class="graph">
<g id="viewport">
<title>/home/tomek/CLionProjects/proi/proi&#45;projekt/src/main/tanks.cpp</title>
<!-- Node1 -->
<g id="node1" class="node">
<title>Node1</title>
<g id="a_node1"><a xlink:title=" ">
<polygon fill="#bfbfbf" stroke="black" points="699.5,-693.5 699.5,-734.5 850.5,-734.5 850.5,-693.5 699.5,-693.5"/>
<text text-anchor="start" x="707.5" y="-722.5" font-family="Helvetica,sans-Serif" font-size="10.00">/home/tomek/CLionProjects</text>
<text text-anchor="start" x="707.5" y="-711.5" font-family="Helvetica,sans-Serif" font-size="10.00">/proi/proi&#45;projekt/src</text>
<text text-anchor="middle" x="775" y="-700.5" font-family="Helvetica,sans-Serif" font-size="10.00">/main/tanks.cpp</text>
</a>
</g>
</g>
<!-- Node2 -->
<g id="node2" class="node">
<title>Node2</title>
<g id="a_node2"><a xlink:href="_game_8h.html" target="_top" xlink:title=" ">
<polygon fill="none" stroke="black" points="721.5,-626.5 721.5,-656.5 828.5,-656.5 828.5,-626.5 721.5,-626.5"/>
<text text-anchor="start" x="729.5" y="-644.5" font-family="Helvetica,sans-Serif" font-size="10.00">../game&#45;lib/include</text>
<text text-anchor="middle" x="775" y="-633.5" font-family="Helvetica,sans-Serif" font-size="10.00">/Game.h</text>
</a>
</g>
</g>
<!-- Node1&#45;&gt;Node2 -->
<g id="edge1" class="edge">
<title>Node1&#45;&gt;Node2</title>
<path fill="none" stroke="midnightblue" d="M775,-693.36C775,-685.23 775,-675.7 775,-667.11"/>
<polygon fill="midnightblue" stroke="midnightblue" points="778.5,-666.89 775,-656.89 771.5,-666.89 778.5,-666.89"/>
</g>
<!-- Node3 -->
<g id="node3" class="node">
<title>Node3</title>
<g id="a_node3"><a xlink:title=" ">
<polygon fill="none" stroke="#bfbfbf" points="521,-0.5 521,-19.5 579,-19.5 579,-0.5 521,-0.5"/>
<text text-anchor="middle" x="550" y="-7.5" font-family="Helvetica,sans-Serif" font-size="10.00">memory</text>
</a>
</g>
</g>
<!-- Node2&#45;&gt;Node3 -->
<g id="edge2" class="edge">
<title>Node2&#45;&gt;Node3</title>
<path fill="none" stroke="midnightblue" d="M782.25,-626.33C792.5,-604.96 810,-562.92 810,-525 810,-525 810,-525 810,-400 810,-335.32 812.79,-314.41 783,-257 753.62,-200.37 726.95,-200.25 683,-154 639.8,-108.54 589.59,-54.11 565.05,-27.41"/>
<polygon fill="midnightblue" stroke="midnightblue" points="567.37,-24.76 558.03,-19.77 562.22,-29.5 567.37,-24.76"/>
</g>
<!-- Node4 -->
<g id="node4" class="node">
<title>Node4</title>
<g id="a_node4"><a xlink:href="_game_state_8h.html" target="_top" xlink:title=" ">
<polygon fill="none" stroke="black" points="309,-570.5 309,-589.5 389,-589.5 389,-570.5 309,-570.5"/>
<text text-anchor="middle" x="349" y="-577.5" font-family="Helvetica,sans-Serif" font-size="10.00">GameState.h</text>
</a>
</g>
</g>
<!-- Node2&#45;&gt;Node4 -->
<g id="edge3" class="edge">
<title>Node2&#45;&gt;Node4</title>
<path fill="none" stroke="midnightblue" d="M721.48,-633.02C638.44,-621.43 479.72,-599.26 398.93,-587.97"/>
<polygon fill="midnightblue" stroke="midnightblue" points="399.39,-584.5 389,-586.59 398.42,-591.44 399.39,-584.5"/>
</g>
<!-- Node27 -->
<g id="node27" class="node">
<title>Node27</title>
<g id="a_node27"><a xlink:href="_keyboard_controller_8h.html" target="_top" xlink:title=" ">
<polygon fill="none" stroke="black" points="692.5,-129 692.5,-148 811.5,-148 811.5,-129 692.5,-129"/>
<text text-anchor="middle" x="752" y="-136" font-family="Helvetica,sans-Serif" font-size="10.00">KeyboardController.h</text>
</a>
</g>
</g>
<!-- Node2&#45;&gt;Node27 -->
<g id="edge52" class="edge">
<title>Node2&#45;&gt;Node27</title>
<path fill="none" stroke="midnightblue" d="M791.84,-626.46C802.26,-617.04 815.28,-603.85 824,-590 840.41,-563.94 848,-555.8 848,-525 848,-525 848,-525 848,-400 848,-334.87 838.91,-317.97 816,-257 801.91,-219.5 777.75,-179.19 763.49,-156.88"/>
<polygon fill="midnightblue" stroke="midnightblue" points="766.26,-154.71 757.88,-148.23 760.38,-158.52 766.26,-154.71"/>
</g>
<!-- Node29 -->
<g id="node29" class="node">
<title>Node29</title>
<g id="a_node29"><a xlink:href="_menu_8h.html" target="_top" xlink:title=" ">
<polygon fill="none" stroke="black" points="690.5,-330 690.5,-349 743.5,-349 743.5,-330 690.5,-330"/>
<text text-anchor="middle" x="717" y="-337" font-family="Helvetica,sans-Serif" font-size="10.00">Menu.h</text>
</a>
</g>
</g>
<!-- Node2&#45;&gt;Node29 -->
<g id="edge56" class="edge">
<title>Node2&#45;&gt;Node29</title>
<path fill="none" stroke="midnightblue" d="M765.46,-626.25C752.25,-605.1 730,-563.74 730,-525 730,-525 730,-525 730,-461.5 730,-425.19 724.14,-383.09 720.29,-359.35"/>
<polygon fill="midnightblue" stroke="midnightblue" points="723.7,-358.55 718.59,-349.27 716.8,-359.71 723.7,-358.55"/>
</g>
<!-- Node30 -->
<g id="node30" class="node">
<title>Node30</title>
<g id="a_node30"><a xlink:href="_game_stats_i_o_8h.html" target="_top" xlink:title=" ">
<polygon fill="none" stroke="black" points="0,-263 0,-282 90,-282 90,-263 0,-263"/>
<text text-anchor="middle" x="45" y="-270" font-family="Helvetica,sans-Serif" font-size="10.00">GameStatsIO.h</text>
</a>
</g>
</g>
<!-- Node2&#45;&gt;Node30 -->
<g id="edge59" class="edge">
<title>Node2&#45;&gt;Node30</title>
<path fill="none" stroke="midnightblue" d="M721.48,-637.46C555.9,-627.36 63,-591.68 63,-525 63,-525 63,-525 63,-400 63,-361.32 54.65,-316.64 49.32,-292.08"/>
<polygon fill="midnightblue" stroke="midnightblue" points="52.67,-291.02 47.06,-282.03 45.84,-292.55 52.67,-291.02"/>
</g>
<!-- Node32 -->
<g id="node32" class="node">
<title>Node32</title>
<g id="a_node32"><a xlink:href="_board_8h.html" target="_top" xlink:title=" ">
<polygon fill="none" stroke="black" points="923,-324.5 923,-354.5 1039,-354.5 1039,-324.5 923,-324.5"/>
<text text-anchor="start" x="931" y="-342.5" font-family="Helvetica,sans-Serif" font-size="10.00">../../board&#45;lib/include</text>
<text text-anchor="middle" x="981" y="-331.5" font-family="Helvetica,sans-Serif" font-size="10.00">/Board.h</text>
</a>
</g>
</g>
<!-- Node2&#45;&gt;Node32 -->
<g id="edge63" class="edge">
<title>Node2&#45;&gt;Node32</title>
<path fill="none" stroke="midnightblue" d="M828.79,-628.61C879.57,-613.84 948,-583.14 948,-525 948,-525 948,-525 948,-461.5 948,-426.63 960.91,-388.05 970.58,-364.03"/>
<polygon fill="midnightblue" stroke="midnightblue" points="973.86,-365.26 974.48,-354.69 967.4,-362.57 973.86,-365.26"/>
</g>
<!-- Node4&#45;&gt;Node3 -->
<g id="edge4" class="edge">
<title>Node4&#45;&gt;Node3</title>
<path fill="none" stroke="midnightblue" d="M308.98,-574.79C256.5,-568.51 168.24,-555.13 144,-534 118.82,-512.06 118,-496.9 118,-463.5 118,-463.5 118,-463.5 118,-137.5 118,-93.04 137.78,-78.71 176,-56 231.88,-22.81 426.42,-14.03 510.64,-11.77"/>
<polygon fill="midnightblue" stroke="midnightblue" points="510.91,-15.26 520.82,-11.51 510.73,-8.26 510.91,-15.26"/>
</g>
<!-- Node5 -->
<g id="node5" class="node">
<title>Node5</title>
<g id="a_node5"><a xlink:href="_active_event_handler_8h.html" target="_top" xlink:title=" ">
<polygon fill="none" stroke="black" points="427,-514.5 427,-533.5 549,-533.5 549,-514.5 427,-514.5"/>
<text text-anchor="middle" x="488" y="-521.5" font-family="Helvetica,sans-Serif" font-size="10.00">ActiveEventHandler.h</text>
</a>
</g>
</g>
<!-- Node4&#45;&gt;Node5 -->
<g id="edge5" class="edge">
<title>Node4&#45;&gt;Node5</title>
<path fill="none" stroke="midnightblue" d="M371.02,-570.44C394.1,-561.48 430.56,-547.31 456.64,-537.18"/>
<polygon fill="midnightblue" stroke="midnightblue" points="458.02,-540.4 466.08,-533.52 455.49,-533.88 458.02,-540.4"/>
</g>
<!-- Node24 -->
<g id="node24" class="node">
<title>Node24</title>
<g id="a_node24"><a xlink:href="_menu_event_handler_8h.html" target="_top" xlink:title=" ">
<polygon fill="none" stroke="black" points="153,-514.5 153,-533.5 271,-533.5 271,-514.5 153,-514.5"/>
<text text-anchor="middle" x="212" y="-521.5" font-family="Helvetica,sans-Serif" font-size="10.00">MenuEventHandler.h</text>
</a>
</g>
</g>
<!-- Node4&#45;&gt;Node24 -->
<g id="edge41" class="edge">
<title>Node4&#45;&gt;Node24</title>
<path fill="none" stroke="midnightblue" d="M322.2,-570.44C297.71,-561.56 261.97,-547.56 237.8,-537.45"/>
<polygon fill="midnightblue" stroke="midnightblue" points="239.1,-534.2 228.53,-533.52 236.36,-540.64 239.1,-534.2"/>
</g>
<!-- Node25 -->
<g id="node25" class="node">
<title>Node25</title>
<g id="a_node25"><a xlink:href="_pause_event_handler_8h.html" target="_top" xlink:title=" ">
<polygon fill="none" stroke="black" points="289.5,-514.5 289.5,-533.5 408.5,-533.5 408.5,-514.5 289.5,-514.5"/>
<text text-anchor="middle" x="349" y="-521.5" font-family="Helvetica,sans-Serif" font-size="10.00">PauseEventHandler.h</text>
</a>
</g>
</g>
<!-- Node4&#45;&gt;Node25 -->
<g id="edge45" class="edge">
<title>Node4&#45;&gt;Node25</title>
<path fill="none" stroke="midnightblue" d="M343.83,-570.08C342.32,-562.93 341.89,-552.64 342.54,-543.69"/>
<polygon fill="midnightblue" stroke="midnightblue" points="346.02,-544.13 343.87,-533.75 339.08,-543.2 346.02,-544.13"/>
</g>
<!-- Node26 -->
<g id="node26" class="node">
<title>Node26</title>
<g id="a_node26"><a xlink:href="_finished_event_handler_8h.html" target="_top" xlink:title=" ">
<polygon fill="none" stroke="black" points="567.5,-514.5 567.5,-533.5 698.5,-533.5 698.5,-514.5 567.5,-514.5"/>
<text text-anchor="middle" x="633" y="-521.5" font-family="Helvetica,sans-Serif" font-size="10.00">FinishedEventHandler.h</text>
</a>
</g>
</g>
<!-- Node4&#45;&gt;Node26 -->
<g id="edge49" class="edge">
<title>Node4&#45;&gt;Node26</title>
<path fill="none" stroke="midnightblue" d="M389.09,-571.38C438.46,-561.99 522.57,-546 577.97,-535.46"/>
<polygon fill="midnightblue" stroke="midnightblue" points="578.79,-538.87 587.96,-533.56 577.48,-531.99 578.79,-538.87"/>
</g>
<!-- Node5&#45;&gt;Node3 -->
<g id="edge6" class="edge">
<title>Node5&#45;&gt;Node3</title>
<path fill="none" stroke="midnightblue" d="M445.99,-514.5C409.03,-506.2 358.99,-492.71 345,-478 296.83,-427.34 306.31,-393.59 313,-324 326.02,-188.56 353.03,-138.81 461,-56 478.39,-42.66 500.34,-31.52 518.09,-23.65"/>
<polygon fill="midnightblue" stroke="midnightblue" points="519.65,-26.79 527.46,-19.63 516.89,-20.36 519.65,-26.79"/>
</g>
<!-- Node6 -->
<g id="node6" class="node">
<title>Node6</title>
<g id="a_node6"><a xlink:href="_event_handler_8h.html" target="_top" xlink:title=" ">
<polygon fill="none" stroke="black" points="354,-447.5 354,-477.5 464,-477.5 464,-447.5 354,-447.5"/>
<text text-anchor="start" x="362" y="-465.5" font-family="Helvetica,sans-Serif" font-size="10.00">../../core&#45;lib/include</text>
<text text-anchor="middle" x="409" y="-454.5" font-family="Helvetica,sans-Serif" font-size="10.00">/EventHandler.h</text>
</a>
</g>
</g>
<!-- Node5&#45;&gt;Node6 -->
<g id="edge7" class="edge">
<title>Node5&#45;&gt;Node6</title>
<path fill="none" stroke="midnightblue" d="M476.68,-514.48C466.08,-506.49 449.83,-494.25 435.91,-483.77"/>
<polygon fill="midnightblue" stroke="midnightblue" points="437.71,-480.74 427.62,-477.52 433.5,-486.33 437.71,-480.74"/>
</g>
<!-- Node21 -->
<g id="node21" class="node">
<title>Node21</title>
<g id="a_node21"><a xlink:href="_event_queue_8h.html" target="_top" xlink:title=" ">
<polygon fill="none" stroke="black" points="664,-257.5 664,-287.5 774,-287.5 774,-257.5 664,-257.5"/>
<text text-anchor="start" x="672" y="-275.5" font-family="Helvetica,sans-Serif" font-size="10.00">../../core&#45;lib/include</text>
<text text-anchor="middle" x="719" y="-264.5" font-family="Helvetica,sans-Serif" font-size="10.00">/EventQueue.h</text>
</a>
</g>
</g>
<!-- Node5&#45;&gt;Node21 -->
<g id="edge34" class="edge">
<title>Node5&#45;&gt;Node21</title>
<path fill="none" stroke="midnightblue" d="M518.03,-514.47C575.82,-496.23 701.28,-447.39 752,-355 762.57,-335.74 750.83,-312.38 738.52,-295.61"/>
<polygon fill="midnightblue" stroke="midnightblue" points="741.08,-293.2 732.14,-287.5 735.57,-297.53 741.08,-293.2"/>
</g>
<!-- Node23 -->
<g id="node23" class="node">
<title>Node23</title>
<g id="a_node23"><a xlink:href="_game_statistics_8h.html" target="_top" xlink:title=" ">
<polygon fill="none" stroke="black" points="534,-330 534,-349 634,-349 634,-330 534,-330"/>
<text text-anchor="middle" x="584" y="-337" font-family="Helvetica,sans-Serif" font-size="10.00">GameStatistics.h</text>
</a>
</g>
</g>
<!-- Node5&#45;&gt;Node23 -->
<g id="edge37" class="edge">
<title>Node5&#45;&gt;Node23</title>
<path fill="none" stroke="midnightblue" d="M492.63,-514.2C507.55,-485.83 554.57,-396.44 574.71,-358.17"/>
<polygon fill="midnightblue" stroke="midnightblue" points="577.86,-359.69 579.42,-349.21 571.66,-356.43 577.86,-359.69"/>
</g>
<!-- Node6&#45;&gt;Node3 -->
<g id="edge8" class="edge">
<title>Node6&#45;&gt;Node3</title>
<path fill="none" stroke="midnightblue" d="M389.77,-447.45C377.7,-438.02 362.34,-424.83 351,-411 324.88,-379.14 310.64,-364.34 319,-324 347.36,-187.09 480.92,-66.92 530.98,-25.95"/>
<polygon fill="midnightblue" stroke="midnightblue" points="533.21,-28.65 538.8,-19.65 528.82,-23.2 533.21,-28.65"/>
</g>
<!-- Node7 -->
<g id="node7" class="node">
<title>Node7</title>
<g id="a_node7"><a xlink:href="_event_8h.html" target="_top" xlink:title=" ">
<polygon fill="none" stroke="black" points="554.5,-263 554.5,-282 607.5,-282 607.5,-263 554.5,-263"/>
<text text-anchor="middle" x="581" y="-270" font-family="Helvetica,sans-Serif" font-size="10.00">Event.h</text>
</a>
</g>
</g>
<!-- Node6&#45;&gt;Node7 -->
<g id="edge9" class="edge">
<title>Node6&#45;&gt;Node7</title>
<path fill="none" stroke="midnightblue" d="M427.65,-447.39C439.62,-437.84 455.1,-424.54 467,-411 497.68,-376.1 494.62,-359.17 525,-324 536.18,-311.05 550.54,-298.16 561.92,-288.65"/>
<polygon fill="midnightblue" stroke="midnightblue" points="564.42,-291.13 569.94,-282.08 559.98,-285.71 564.42,-291.13"/>
</g>
<!-- Node17 -->
<g id="node17" class="node">
<title>Node17</title>
<g id="a_node17"><a xlink:href="_event_publisher_8h.html" target="_top" xlink:title=" ">
<polygon fill="none" stroke="black" points="360,-391.5 360,-410.5 458,-410.5 458,-391.5 360,-391.5"/>
<text text-anchor="middle" x="409" y="-398.5" font-family="Helvetica,sans-Serif" font-size="10.00">EventPublisher.h</text>
</a>
</g>
</g>
<!-- Node6&#45;&gt;Node17 -->
<g id="edge25" class="edge">
<title>Node6&#45;&gt;Node17</title>
<path fill="none" stroke="midnightblue" d="M409,-447.4C409,-439.47 409,-429.46 409,-420.86"/>
<polygon fill="midnightblue" stroke="midnightblue" points="412.5,-420.66 409,-410.66 405.5,-420.66 412.5,-420.66"/>
</g>
<!-- Node7&#45;&gt;Node3 -->
<g id="edge12" class="edge">
<title>Node7&#45;&gt;Node3</title>
<path fill="none" stroke="midnightblue" d="M564.23,-262.89C549.76,-254.42 529.85,-240.01 521,-221 490.48,-155.42 523.91,-66.77 541.09,-29.12"/>
<polygon fill="midnightblue" stroke="midnightblue" points="544.33,-30.45 545.44,-19.91 538,-27.46 544.33,-30.45"/>
</g>
<!-- Node8 -->
<g id="node8" class="node">
<title>Node8</title>
<g id="a_node8"><a xlink:title=" ">
<polygon fill="none" stroke="#bfbfbf" points="906.5,-196 906.5,-215 971.5,-215 971.5,-196 906.5,-196"/>
<text text-anchor="middle" x="939" y="-203" font-family="Helvetica,sans-Serif" font-size="10.00">exception</text>
</a>
</g>
</g>
<!-- Node7&#45;&gt;Node8 -->
<g id="edge10" class="edge">
<title>Node7&#45;&gt;Node8</title>
<path fill="none" stroke="midnightblue" d="M607.69,-266.15C621.76,-263.36 639.3,-259.93 655,-257 740.32,-241.06 840.3,-223.55 895.97,-213.91"/>
<polygon fill="midnightblue" stroke="midnightblue" points="896.91,-217.3 906.17,-212.15 895.72,-210.4 896.91,-217.3"/>
</g>
<!-- Node9 -->
<g id="node9" class="node">
<title>Node9</title>
<g id="a_node9"><a xlink:title=" ">
<polygon fill="none" stroke="#bfbfbf" points="222,-196 222,-215 266,-215 266,-196 222,-196"/>
<text text-anchor="middle" x="244" y="-203" font-family="Helvetica,sans-Serif" font-size="10.00">string</text>
</a>
</g>
</g>
<!-- Node7&#45;&gt;Node9 -->
<g id="edge11" class="edge">
<title>Node7&#45;&gt;Node9</title>
<path fill="none" stroke="midnightblue" d="M561.84,-262.89C556.47,-260.72 550.58,-258.57 545,-257 449.17,-230.01 331.87,-215.43 276.23,-209.59"/>
<polygon fill="midnightblue" stroke="midnightblue" points="276.57,-206.11 266.27,-208.57 275.86,-213.07 276.57,-206.11"/>
</g>
<!-- Node10 -->
<g id="node10" class="node">
<title>Node10</title>
<g id="a_node10"><a xlink:title=" ">
<polygon fill="none" stroke="#bfbfbf" points="530.5,-196 530.5,-215 581.5,-215 581.5,-196 530.5,-196"/>
<text text-anchor="middle" x="556" y="-203" font-family="Helvetica,sans-Serif" font-size="10.00">variant</text>
</a>
</g>
</g>
<!-- Node7&#45;&gt;Node10 -->
<g id="edge13" class="edge">
<title>Node7&#45;&gt;Node10</title>
<path fill="none" stroke="midnightblue" d="M577.63,-262.73C573.88,-252.99 567.72,-236.98 562.94,-224.53"/>
<polygon fill="midnightblue" stroke="midnightblue" points="566.17,-223.2 559.32,-215.13 559.64,-225.72 566.17,-223.2"/>
</g>
<!-- Node11 -->
<g id="node11" class="node">
<title>Node11</title>
<g id="a_node11"><a xlink:href="_entity_8h.html" target="_top" xlink:title=" ">
<polygon fill="none" stroke="black" points="1076,-56.5 1076,-86.5 1186,-86.5 1186,-56.5 1076,-56.5"/>
<text text-anchor="start" x="1084" y="-74.5" font-family="Helvetica,sans-Serif" font-size="10.00">../../tank&#45;lib/include</text>
<text text-anchor="middle" x="1131" y="-63.5" font-family="Helvetica,sans-Serif" font-size="10.00">/Entity.h</text>
</a>
</g>
</g>
<!-- Node7&#45;&gt;Node11 -->
<g id="edge14" class="edge">
<title>Node7&#45;&gt;Node11</title>
<path fill="none" stroke="midnightblue" d="M602.84,-262.99C662.6,-239.77 833.96,-173.69 978,-123 1010.83,-111.45 1047.9,-99.19 1077.32,-89.65"/>
<polygon fill="midnightblue" stroke="midnightblue" points="1078.55,-92.93 1086.99,-86.52 1076.4,-86.27 1078.55,-92.93"/>
</g>
<!-- Node12 -->
<g id="node12" class="node">
<title>Node12</title>
<g id="a_node12"><a xlink:href="_tank_8h.html" target="_top" xlink:title=" ">
<polygon fill="none" stroke="black" points="1055,-190.5 1055,-220.5 1165,-220.5 1165,-190.5 1055,-190.5"/>
<text text-anchor="start" x="1063" y="-208.5" font-family="Helvetica,sans-Serif" font-size="10.00">../../tank&#45;lib/include</text>
<text text-anchor="middle" x="1110" y="-197.5" font-family="Helvetica,sans-Serif" font-size="10.00">/Tank.h</text>
</a>
</g>
</g>
<!-- Node7&#45;&gt;Node12 -->
<g id="edge15" class="edge">
<title>Node7&#45;&gt;Node12</title>
<path fill="none" stroke="midnightblue" d="M607.6,-265.61C621.64,-262.67 639.19,-259.27 655,-257 824.53,-232.65 871.89,-247.75 1044.98,-221.02"/>
<polygon fill="midnightblue" stroke="midnightblue" points="1045.59,-224.47 1054.93,-219.46 1044.51,-217.55 1045.59,-224.47"/>
</g>
<!-- Node12&#45;&gt;Node3 -->
<g id="edge16" class="edge">
<title>Node12&#45;&gt;Node3</title>
<path fill="none" stroke="midnightblue" d="M1061.37,-190.41C1026.58,-179.74 983.32,-165.08 968,-154 923.35,-121.69 939.81,-83.43 892,-56 841.21,-26.85 668.46,-15.98 589.7,-12.47"/>
<polygon fill="midnightblue" stroke="midnightblue" points="589.38,-8.95 579.24,-12.02 589.08,-15.94 589.38,-8.95"/>
</g>
<!-- Node12&#45;&gt;Node11 -->
<g id="edge21" class="edge">
<title>Node12&#45;&gt;Node11</title>
<path fill="none" stroke="midnightblue" d="M1112.25,-190.37C1115.82,-167.94 1122.82,-123.92 1127.18,-96.49"/>
<polygon fill="midnightblue" stroke="midnightblue" points="1130.65,-96.95 1128.77,-86.52 1123.74,-95.85 1130.65,-96.95"/>
</g>
<!-- Node13 -->
<g id="node13" class="node">
<title>Node13</title>
<g id="a_node13"><a xlink:title=" ">
<polygon fill="none" stroke="#bfbfbf" points="1147,-129 1147,-148 1203,-148 1203,-129 1147,-129"/>
<text text-anchor="middle" x="1175" y="-136" font-family="Helvetica,sans-Serif" font-size="10.00">optional</text>
</a>
</g>
</g>
<!-- Node12&#45;&gt;Node13 -->
<g id="edge17" class="edge">
<title>Node12&#45;&gt;Node13</title>
<path fill="none" stroke="midnightblue" d="M1124.1,-190.4C1134.44,-180.06 1148.48,-166.02 1159.19,-155.31"/>
<polygon fill="midnightblue" stroke="midnightblue" points="1161.71,-157.74 1166.31,-148.19 1156.76,-152.79 1161.71,-157.74"/>
</g>
<!-- Node14 -->
<g id="node14" class="node">
<title>Node14</title>
<g id="a_node14"><a xlink:href="_simple_subscriber_8h.html" target="_top" xlink:title=" ">
<polygon fill="none" stroke="black" points="944.5,-56.5 944.5,-86.5 1057.5,-86.5 1057.5,-56.5 944.5,-56.5"/>
<text text-anchor="start" x="952.5" y="-74.5" font-family="Helvetica,sans-Serif" font-size="10.00">../../core&#45;lib/include</text>
<text text-anchor="middle" x="1001" y="-63.5" font-family="Helvetica,sans-Serif" font-size="10.00">/SimpleSubscriber.h</text>
</a>
</g>
</g>
<!-- Node12&#45;&gt;Node14 -->
<g id="edge18" class="edge">
<title>Node12&#45;&gt;Node14</title>
<path fill="none" stroke="midnightblue" d="M1055.7,-190.46C1023.58,-180.94 987.39,-167.64 978,-154 965.98,-136.53 974.81,-112.86 984.81,-95.53"/>
<polygon fill="midnightblue" stroke="midnightblue" points="988.04,-96.97 990.36,-86.64 982.1,-93.27 988.04,-96.97"/>
</g>
<!-- Node16 -->
<g id="node16" class="node">
<title>Node16</title>
<g id="a_node16"><a xlink:href="_bot_8h.html" target="_top" xlink:title=" ">
<polygon fill="none" stroke="black" points="987,-123.5 987,-153.5 1091,-153.5 1091,-123.5 987,-123.5"/>
<text text-anchor="start" x="995" y="-141.5" font-family="Helvetica,sans-Serif" font-size="10.00">../../bot&#45;lib/include</text>
<text text-anchor="middle" x="1039" y="-130.5" font-family="Helvetica,sans-Serif" font-size="10.00">/Bot.h</text>
</a>
</g>
</g>
<!-- Node12&#45;&gt;Node16 -->
<g id="edge22" class="edge">
<title>Node12&#45;&gt;Node16</title>
<path fill="none" stroke="midnightblue" d="M1094.59,-190.4C1085.01,-181.62 1072.51,-170.18 1061.8,-160.37"/>
<polygon fill="midnightblue" stroke="midnightblue" points="1064.12,-157.75 1054.38,-153.58 1059.39,-162.91 1064.12,-157.75"/>
</g>
<!-- Node14&#45;&gt;Node3 -->
<g id="edge20" class="edge">
<title>Node14&#45;&gt;Node3</title>
<path fill="none" stroke="midnightblue" d="M944.5,-58.52C939.6,-57.61 934.72,-56.76 930,-56 806.16,-36.06 658.29,-21.05 589.2,-14.55"/>
<polygon fill="midnightblue" stroke="midnightblue" points="589.48,-11.06 579.2,-13.62 588.83,-18.03 589.48,-11.06"/>
</g>
<!-- Node15 -->
<g id="node15" class="node">
<title>Node15</title>
<g id="a_node15"><a xlink:title=" ">
<polygon fill="none" stroke="#bfbfbf" points="1228.5,-0.5 1228.5,-19.5 1275.5,-19.5 1275.5,-0.5 1228.5,-0.5"/>
<text text-anchor="middle" x="1252" y="-7.5" font-family="Helvetica,sans-Serif" font-size="10.00">vector</text>
</a>
</g>
</g>
<!-- Node14&#45;&gt;Node15 -->
<g id="edge19" class="edge">
<title>Node14&#45;&gt;Node15</title>
<path fill="none" stroke="midnightblue" d="M1057.64,-57.07C1107.23,-45.32 1177.58,-28.64 1218.64,-18.91"/>
<polygon fill="midnightblue" stroke="midnightblue" points="1219.49,-22.3 1228.42,-16.59 1217.88,-15.49 1219.49,-22.3"/>
</g>
<!-- Node16&#45;&gt;Node11 -->
<g id="edge23" class="edge">
<title>Node16&#45;&gt;Node11</title>
<path fill="none" stroke="midnightblue" d="M1058.96,-123.4C1071.74,-114.37 1088.52,-102.51 1102.67,-92.52"/>
<polygon fill="midnightblue" stroke="midnightblue" points="1104.93,-95.21 1111.08,-86.58 1100.89,-89.49 1104.93,-95.21"/>
</g>
<!-- Node16&#45;&gt;Node14 -->
<g id="edge24" class="edge">
<title>Node16&#45;&gt;Node14</title>
<path fill="none" stroke="midnightblue" d="M1030.75,-123.4C1025.97,-115.22 1019.84,-104.73 1014.38,-95.39"/>
<polygon fill="midnightblue" stroke="midnightblue" points="1017.3,-93.44 1009.23,-86.58 1011.25,-96.98 1017.3,-93.44"/>
</g>
<!-- Node17&#45;&gt;Node7 -->
<g id="edge28" class="edge">
<title>Node17&#45;&gt;Node7</title>
<path fill="none" stroke="midnightblue" d="M417.17,-391.33C431.46,-376.46 462.29,-345.6 492,-324 511.64,-309.72 535.68,-296.29 553.82,-286.88"/>
<polygon fill="midnightblue" stroke="midnightblue" points="555.91,-289.74 563.23,-282.08 552.73,-283.5 555.91,-289.74"/>
</g>
<!-- Node17&#45;&gt;Node15 -->
<g id="edge27" class="edge">
<title>Node17&#45;&gt;Node15</title>
<path fill="none" stroke="midnightblue" d="M458.01,-398.59C650.59,-392.42 1345,-363.89 1345,-273.5 1345,-273.5 1345,-273.5 1345,-137.5 1345,-89.05 1300.16,-46.89 1272.75,-25.65"/>
<polygon fill="midnightblue" stroke="midnightblue" points="1274.65,-22.69 1264.54,-19.5 1270.45,-28.3 1274.65,-22.69"/>
</g>
<!-- Node18 -->
<g id="node18" class="node">
<title>Node18</title>
<g id="a_node18"><a xlink:title=" ">
<polygon fill="none" stroke="#bfbfbf" points="357,-263 357,-282 395,-282 395,-263 357,-263"/>
<text text-anchor="middle" x="376" y="-270" font-family="Helvetica,sans-Serif" font-size="10.00">map</text>
</a>
</g>
</g>
<!-- Node17&#45;&gt;Node18 -->
<g id="edge26" class="edge">
<title>Node17&#45;&gt;Node18</title>
<path fill="none" stroke="midnightblue" d="M377.19,-391.38C359.05,-384.66 337.84,-373.31 327,-355 313.23,-331.73 337.13,-304.88 356.14,-288.55"/>
<polygon fill="midnightblue" stroke="midnightblue" points="358.58,-291.08 364.12,-282.04 354.16,-285.65 358.58,-291.08"/>
</g>
<!-- Node19 -->
<g id="node19" class="node">
<title>Node19</title>
<g id="a_node19"><a xlink:href="_event_subscriber_8h.html" target="_top" xlink:title=" ">
<polygon fill="none" stroke="black" points="336,-330 336,-349 440,-349 440,-330 336,-330"/>
<text text-anchor="middle" x="388" y="-337" font-family="Helvetica,sans-Serif" font-size="10.00">EventSubscriber.h</text>
</a>
</g>
</g>
<!-- Node17&#45;&gt;Node19 -->
<g id="edge29" class="edge">
<title>Node17&#45;&gt;Node19</title>
<path fill="none" stroke="midnightblue" d="M405.99,-391.48C402.97,-382.9 398.21,-369.43 394.35,-358.48"/>
<polygon fill="midnightblue" stroke="midnightblue" points="397.63,-357.27 391,-349.01 391.03,-359.6 397.63,-357.27"/>
</g>
<!-- Node19&#45;&gt;Node7 -->
<g id="edge33" class="edge">
<title>Node19&#45;&gt;Node7</title>
<path fill="none" stroke="midnightblue" d="M416.57,-329.98C448.19,-320.4 500.57,-304.07 545,-288 546.9,-287.31 548.85,-286.59 550.81,-285.84"/>
<polygon fill="midnightblue" stroke="midnightblue" points="552.5,-288.94 560.54,-282.04 549.95,-282.42 552.5,-288.94"/>
</g>
<!-- Node19&#45;&gt;Node15 -->
<g id="edge31" class="edge">
<title>Node19&#45;&gt;Node15</title>
<path fill="none" stroke="midnightblue" d="M394.18,-329.84C424.18,-288.68 559.68,-112.6 721,-56 813.43,-23.57 1116.27,-14 1218.18,-11.66"/>
<polygon fill="midnightblue" stroke="midnightblue" points="1218.31,-15.16 1228.23,-11.44 1218.16,-8.16 1218.31,-15.16"/>
</g>
<!-- Node19&#45;&gt;Node18 -->
<g id="edge30" class="edge">
<title>Node19&#45;&gt;Node18</title>
<path fill="none" stroke="midnightblue" d="M386.38,-329.73C384.62,-320.18 381.74,-304.62 379.47,-292.28"/>
<polygon fill="midnightblue" stroke="midnightblue" points="382.85,-291.33 377.59,-282.13 375.97,-292.6 382.85,-291.33"/>
</g>
<!-- Node20 -->
<g id="node20" class="node">
<title>Node20</title>
<g id="a_node20"><a xlink:title=" ">
<polygon fill="none" stroke="#bfbfbf" points="504,-263 504,-282 536,-282 536,-263 504,-263"/>
<text text-anchor="middle" x="520" y="-270" font-family="Helvetica,sans-Serif" font-size="10.00">list</text>
</a>
</g>
</g>
<!-- Node19&#45;&gt;Node20 -->
<g id="edge32" class="edge">
<title>Node19&#45;&gt;Node20</title>
<path fill="none" stroke="midnightblue" d="M405.53,-329.87C428.29,-318.66 468.19,-299.01 494.35,-286.13"/>
<polygon fill="midnightblue" stroke="midnightblue" points="496.22,-289.11 503.65,-281.55 493.13,-282.83 496.22,-289.11"/>
</g>
<!-- Node21&#45;&gt;Node3 -->
<g id="edge36" class="edge">
<title>Node21&#45;&gt;Node3</title>
<path fill="none" stroke="midnightblue" d="M703.06,-257.26C680.44,-236.4 638.81,-195.47 612,-154 585.15,-112.47 565.04,-57.37 555.73,-29.23"/>
<polygon fill="midnightblue" stroke="midnightblue" points="559.01,-27.98 552.6,-19.54 552.35,-30.13 559.01,-27.98"/>
</g>
<!-- Node22 -->
<g id="node22" class="node">
<title>Node22</title>
<g id="a_node22"><a xlink:title=" ">
<polygon fill="none" stroke="#bfbfbf" points="989.5,-196 989.5,-215 1036.5,-215 1036.5,-196 989.5,-196"/>
<text text-anchor="middle" x="1013" y="-203" font-family="Helvetica,sans-Serif" font-size="10.00">queue</text>
</a>
</g>
</g>
<!-- Node21&#45;&gt;Node22 -->
<g id="edge35" class="edge">
<title>Node21&#45;&gt;Node22</title>
<path fill="none" stroke="midnightblue" d="M774.12,-264.72C827.8,-257.22 911.25,-243.18 981,-221 982.87,-220.4 984.78,-219.73 986.69,-219"/>
<polygon fill="midnightblue" stroke="midnightblue" points="988.15,-222.18 996.02,-215.09 985.45,-215.73 988.15,-222.18"/>
</g>
<!-- Node23&#45;&gt;Node7 -->
<g id="edge40" class="edge">
<title>Node23&#45;&gt;Node7</title>
<path fill="none" stroke="midnightblue" d="M583.6,-329.73C583.15,-320.18 582.44,-304.62 581.87,-292.28"/>
<polygon fill="midnightblue" stroke="midnightblue" points="585.36,-291.96 581.4,-282.13 578.36,-292.28 585.36,-291.96"/>
</g>
<!-- Node23&#45;&gt;Node20 -->
<g id="edge38" class="edge">
<title>Node23&#45;&gt;Node20</title>
<path fill="none" stroke="midnightblue" d="M575.37,-329.73C565.2,-319.4 548.1,-302.04 535.59,-289.33"/>
<polygon fill="midnightblue" stroke="midnightblue" points="538,-286.8 528.49,-282.13 533.02,-291.71 538,-286.8"/>
</g>
<!-- Node23&#45;&gt;Node21 -->
<g id="edge39" class="edge">
<title>Node23&#45;&gt;Node21</title>
<path fill="none" stroke="midnightblue" d="M601.93,-329.87C621.92,-320.24 654.85,-304.39 680.7,-291.94"/>
<polygon fill="midnightblue" stroke="midnightblue" points="682.37,-295.02 689.86,-287.53 679.34,-288.71 682.37,-295.02"/>
</g>
<!-- Node24&#45;&gt;Node3 -->
<g id="edge42" class="edge">
<title>Node24&#45;&gt;Node3</title>
<path fill="none" stroke="midnightblue" d="M204.68,-514.24C189.5,-495.15 156,-447.83 156,-402 156,-402 156,-402 156,-137.5 156,-84.84 194.62,-78.99 242,-56 288.74,-33.32 439.04,-19.32 510.96,-13.76"/>
<polygon fill="midnightblue" stroke="midnightblue" points="511.27,-17.25 520.97,-13 510.74,-10.27 511.27,-17.25"/>
</g>
<!-- Node24&#45;&gt;Node4 -->
<g id="edge44" class="edge">
<title>Node24&#45;&gt;Node4</title>
<path fill="none" stroke="midnightblue" d="M238.69,-533.52C263.15,-542.39 298.88,-556.38 323.09,-566.5"/>
<polygon fill="midnightblue" stroke="midnightblue" points="321.81,-569.76 332.38,-570.44 324.54,-563.32 321.81,-569.76"/>
</g>
<!-- Node24&#45;&gt;Node6 -->
<g id="edge43" class="edge">
<title>Node24&#45;&gt;Node6</title>
<path fill="none" stroke="midnightblue" d="M240.23,-514.48C269.52,-505.63 316.13,-491.55 352.95,-480.43"/>
<polygon fill="midnightblue" stroke="midnightblue" points="354.01,-483.76 362.57,-477.52 351.99,-477.06 354.01,-483.76"/>
</g>
<!-- Node25&#45;&gt;Node3 -->
<g id="edge46" class="edge">
<title>Node25&#45;&gt;Node3</title>
<path fill="none" stroke="midnightblue" d="M318.75,-514.46C273.64,-499.65 194,-464.64 194,-402 194,-402 194,-402 194,-137.5 194,-70.87 418.23,-30.32 510.77,-16.43"/>
<polygon fill="midnightblue" stroke="midnightblue" points="511.48,-19.86 520.87,-14.94 510.46,-12.93 511.48,-19.86"/>
</g>
<!-- Node25&#45;&gt;Node4 -->
<g id="edge48" class="edge">
<title>Node25&#45;&gt;Node4</title>
<path fill="none" stroke="midnightblue" d="M354.13,-533.75C355.66,-540.86 356.1,-551.14 355.47,-560.1"/>
<polygon fill="midnightblue" stroke="midnightblue" points="351.99,-559.71 354.17,-570.08 358.93,-560.62 351.99,-559.71"/>
</g>
<!-- Node25&#45;&gt;Node6 -->
<g id="edge47" class="edge">
<title>Node25&#45;&gt;Node6</title>
<path fill="none" stroke="midnightblue" d="M357.6,-514.48C365.42,-506.72 377.29,-494.94 387.66,-484.66"/>
<polygon fill="midnightblue" stroke="midnightblue" points="390.22,-487.05 394.86,-477.52 385.29,-482.08 390.22,-487.05"/>
</g>
<!-- Node26&#45;&gt;Node3 -->
<g id="edge50" class="edge">
<title>Node26&#45;&gt;Node3</title>
<path fill="none" stroke="midnightblue" d="M633.7,-514.26C635.67,-489.39 641.18,-416.04 643,-355 643.41,-341.23 645.21,-337.6 643,-324 625.21,-214.4 591.68,-194.53 564,-87 559.04,-67.74 555.13,-45.31 552.72,-29.83"/>
<polygon fill="midnightblue" stroke="midnightblue" points="556.12,-28.89 551.17,-19.52 549.19,-29.93 556.12,-28.89"/>
</g>
<!-- Node26&#45;&gt;Node6 -->
<g id="edge51" class="edge">
<title>Node26&#45;&gt;Node6</title>
<path fill="none" stroke="midnightblue" d="M600.91,-514.48C567.31,-505.55 513.69,-491.31 471.66,-480.14"/>
<polygon fill="midnightblue" stroke="midnightblue" points="472.36,-476.71 461.79,-477.52 470.56,-483.47 472.36,-476.71"/>
</g>
<!-- Node27&#45;&gt;Node3 -->
<g id="edge53" class="edge">
<title>Node27&#45;&gt;Node3</title>
<path fill="none" stroke="midnightblue" d="M741.29,-128.78C721.82,-113.13 679.04,-79.74 640,-56 620.23,-43.98 596.82,-32.35 578.83,-23.92"/>
<polygon fill="midnightblue" stroke="midnightblue" points="580,-20.61 569.45,-19.59 577.07,-26.96 580,-20.61"/>
</g>
<!-- Node27&#45;&gt;Node14 -->
<g id="edge55" class="edge">
<title>Node27&#45;&gt;Node14</title>
<path fill="none" stroke="midnightblue" d="M784.81,-128.94C823.48,-118.84 888.63,-101.83 937.33,-89.12"/>
<polygon fill="midnightblue" stroke="midnightblue" points="938.35,-92.47 947.14,-86.56 936.58,-85.7 938.35,-92.47"/>
</g>
<!-- Node28 -->
<g id="node28" class="node">
<title>Node28</title>
<g id="a_node28"><a xlink:title=" ">
<polygon fill="none" stroke="#bfbfbf" points="730,-62 730,-81 840,-81 840,-62 730,-62"/>
<text text-anchor="middle" x="785" y="-69" font-family="Helvetica,sans-Serif" font-size="10.00">SFML/Graphics.hpp</text>
</a>
</g>
</g>
<!-- Node27&#45;&gt;Node28 -->
<g id="edge54" class="edge">
<title>Node27&#45;&gt;Node28</title>
<path fill="none" stroke="midnightblue" d="M756.45,-128.73C761.45,-118.89 769.69,-102.66 776.03,-90.16"/>
<polygon fill="midnightblue" stroke="midnightblue" points="779.21,-91.63 780.62,-81.13 772.97,-88.46 779.21,-91.63"/>
</g>
<!-- Node29&#45;&gt;Node7 -->
<g id="edge58" class="edge">
<title>Node29&#45;&gt;Node7</title>
<path fill="none" stroke="midnightblue" d="M698.94,-329.87C675.77,-318.8 635.37,-299.49 608.4,-286.6"/>
<polygon fill="midnightblue" stroke="midnightblue" points="609.67,-283.32 599.13,-282.17 606.65,-289.64 609.67,-283.32"/>
</g>
<!-- Node29&#45;&gt;Node21 -->
<g id="edge57" class="edge">
<title>Node29&#45;&gt;Node21</title>
<path fill="none" stroke="midnightblue" d="M717.27,-329.73C717.52,-321.54 717.91,-308.92 718.25,-297.71"/>
<polygon fill="midnightblue" stroke="midnightblue" points="721.76,-297.69 718.57,-287.59 714.76,-297.48 721.76,-297.69"/>
</g>
<!-- Node30&#45;&gt;Node3 -->
<g id="edge60" class="edge">
<title>Node30&#45;&gt;Node3</title>
<path fill="none" stroke="midnightblue" d="M41.92,-262.82C37.04,-247.79 28.69,-216.05 35,-190 50.78,-124.9 48.63,-93.71 104,-56 169.64,-11.29 414.1,-9.27 510.53,-10.29"/>
<polygon fill="midnightblue" stroke="midnightblue" points="510.69,-13.79 520.73,-10.41 510.78,-6.79 510.69,-13.79"/>
</g>
<!-- Node30&#45;&gt;Node9 -->
<g id="edge61" class="edge">
<title>Node30&#45;&gt;Node9</title>
<path fill="none" stroke="midnightblue" d="M71.43,-262.87C107.72,-251.01 172.94,-229.71 211.97,-216.96"/>
<polygon fill="midnightblue" stroke="midnightblue" points="213.35,-220.19 221.76,-213.76 211.17,-213.54 213.35,-220.19"/>
</g>
<!-- Node31 -->
<g id="node31" class="node">
<title>Node31</title>
<g id="a_node31"><a xlink:title=" ">
<polygon fill="none" stroke="#bfbfbf" points="44.5,-196 44.5,-215 89.5,-215 89.5,-196 44.5,-196"/>
<text text-anchor="middle" x="67" y="-203" font-family="Helvetica,sans-Serif" font-size="10.00">utility</text>
</a>
</g>
</g>
<!-- Node30&#45;&gt;Node31 -->
<g id="edge62" class="edge">
<title>Node30&#45;&gt;Node31</title>
<path fill="none" stroke="midnightblue" d="M47.97,-262.73C51.23,-253.09 56.58,-237.3 60.77,-224.91"/>
<polygon fill="midnightblue" stroke="midnightblue" points="64.19,-225.72 64.08,-215.13 57.56,-223.48 64.19,-225.72"/>
</g>
<!-- Node32&#45;&gt;Node3 -->
<g id="edge64" class="edge">
<title>Node32&#45;&gt;Node3</title>
<path fill="none" stroke="midnightblue" d="M959.16,-324.34C928.92,-302.83 878,-258.82 878,-206.5 878,-206.5 878,-206.5 878,-137.5 878,-99.05 878.67,-80.45 849,-56 810.05,-23.91 660.91,-14.64 589.1,-12.01"/>
<polygon fill="midnightblue" stroke="midnightblue" points="589.2,-8.51 579.09,-11.67 588.96,-15.51 589.2,-8.51"/>
</g>
<!-- Node32&#45;&gt;Node12 -->
<g id="edge66" class="edge">
<title>Node32&#45;&gt;Node12</title>
<path fill="none" stroke="midnightblue" d="M1001.3,-324.35C1014.4,-314.78 1031.45,-301.48 1045,-288 1063.57,-269.52 1081.93,-245.88 1094.37,-228.82"/>
<polygon fill="midnightblue" stroke="midnightblue" points="1097.31,-230.73 1100.31,-220.57 1091.63,-226.64 1097.31,-230.73"/>
</g>
<!-- Node32&#45;&gt;Node21 -->
<g id="edge65" class="edge">
<title>Node32&#45;&gt;Node21</title>
<path fill="none" stroke="midnightblue" d="M924.47,-324.48C883.16,-314.23 827.06,-300.31 783.91,-289.6"/>
<polygon fill="midnightblue" stroke="midnightblue" points="784.63,-286.18 774.08,-287.16 782.94,-292.97 784.63,-286.18"/>
</g>
<!-- Node33 -->
<g id="node33" class="node">
<title>Node33</title>
<g id="a_node33"><a xlink:href="_entity_controller_8h.html" target="_top" xlink:title=" ">
<polygon fill="none" stroke="black" points="1176,-257.5 1176,-287.5 1286,-287.5 1286,-257.5 1176,-257.5"/>
<text text-anchor="start" x="1184" y="-275.5" font-family="Helvetica,sans-Serif" font-size="10.00">../../tank&#45;lib/include</text>
<text text-anchor="middle" x="1231" y="-264.5" font-family="Helvetica,sans-Serif" font-size="10.00">/EntityController.h</text>
</a>
</g>
</g>
<!-- Node32&#45;&gt;Node33 -->
<g id="edge67" class="edge">
<title>Node32&#45;&gt;Node33</title>
<path fill="none" stroke="midnightblue" d="M1034.94,-324.48C1073.66,-314.41 1126,-300.8 1166.87,-290.17"/>
<polygon fill="midnightblue" stroke="midnightblue" points="1167.93,-293.51 1176.73,-287.61 1166.17,-286.74 1167.93,-293.51"/>
</g>
<!-- Node34 -->
<g id="node34" class="node">
<title>Node34</title>
<g id="a_node34"><a xlink:href="_grid_8h.html" target="_top" xlink:title=" ">
<polygon fill="none" stroke="black" points="990,-263 990,-282 1036,-282 1036,-263 990,-263"/>
<text text-anchor="middle" x="1013" y="-270" font-family="Helvetica,sans-Serif" font-size="10.00">Grid.h</text>
</a>
</g>
</g>
<!-- Node32&#45;&gt;Node34 -->
<g id="edge72" class="edge">
<title>Node32&#45;&gt;Node34</title>
<path fill="none" stroke="midnightblue" d="M987.94,-324.4C992.74,-314.66 999.14,-301.65 1004.28,-291.21"/>
<polygon fill="midnightblue" stroke="midnightblue" points="1007.44,-292.71 1008.72,-282.19 1001.16,-289.62 1007.44,-292.71"/>
</g>
<!-- Node33&#45;&gt;Node3 -->
<g id="edge69" class="edge">
<title>Node33&#45;&gt;Node3</title>
<path fill="none" stroke="midnightblue" d="M1234.01,-257.23C1241.4,-217.77 1255.69,-106.71 1195,-56 1148.56,-17.2 722.62,-11.84 589.54,-11.11"/>
<polygon fill="midnightblue" stroke="midnightblue" points="589.4,-7.61 579.39,-11.06 589.37,-14.61 589.4,-7.61"/>
</g>
<!-- Node33&#45;&gt;Node12 -->
<g id="edge71" class="edge">
<title>Node33&#45;&gt;Node12</title>
<path fill="none" stroke="midnightblue" d="M1204.74,-257.4C1187.3,-248.03 1164.2,-235.62 1145.17,-225.39"/>
<polygon fill="midnightblue" stroke="midnightblue" points="1146.67,-222.23 1136.2,-220.58 1143.36,-228.39 1146.67,-222.23"/>
</g>
<!-- Node33&#45;&gt;Node13 -->
<g id="edge70" class="edge">
<title>Node33&#45;&gt;Node13</title>
<path fill="none" stroke="midnightblue" d="M1225.01,-257.37C1214.74,-233.18 1193.83,-183.88 1182.57,-157.35"/>
<polygon fill="midnightblue" stroke="midnightblue" points="1185.77,-155.94 1178.65,-148.1 1179.33,-158.67 1185.77,-155.94"/>
</g>
<!-- Node33&#45;&gt;Node15 -->
<g id="edge68" class="edge">
<title>Node33&#45;&gt;Node15</title>
<path fill="none" stroke="midnightblue" d="M1252.3,-257.38C1263.73,-248.46 1276.73,-235.84 1283,-221 1311.2,-154.29 1277.84,-66.25 1260.81,-28.94"/>
<polygon fill="midnightblue" stroke="midnightblue" points="1263.94,-27.37 1256.51,-19.82 1257.61,-30.36 1263.94,-27.37"/>
</g>
<!-- Node34&#45;&gt;Node8 -->
<g id="edge73" class="edge">
<title>Node34&#45;&gt;Node8</title>
<path fill="none" stroke="midnightblue" d="M1003.02,-262.73C991.15,-252.31 971.11,-234.71 956.62,-221.97"/>
<polygon fill="midnightblue" stroke="midnightblue" points="958.64,-219.1 948.82,-215.13 954.03,-224.36 958.64,-219.1"/>
</g>
<!-- Node34&#45;&gt;Node12 -->
<g id="edge76" class="edge">
<title>Node34&#45;&gt;Node12</title>
<path fill="none" stroke="midnightblue" d="M1026.08,-262.73C1039.95,-253.44 1062.3,-238.46 1080.46,-226.3"/>
<polygon fill="midnightblue" stroke="midnightblue" points="1082.62,-229.06 1088.97,-220.59 1078.72,-223.25 1082.62,-229.06"/>
</g>
<!-- Node34&#45;&gt;Node15 -->
<g id="edge74" class="edge">
<title>Node34&#45;&gt;Node15</title>
<path fill="none" stroke="midnightblue" d="M1036.02,-269.58C1069.7,-265.7 1132.87,-254.22 1174,-221 1234.57,-172.08 1248.11,-71.26 1251.13,-29.62"/>
<polygon fill="midnightblue" stroke="midnightblue" points="1254.63,-29.73 1251.74,-19.54 1247.64,-29.31 1254.63,-29.73"/>
</g>
<!-- Node34&#45;&gt;Node22 -->
<g id="edge75" class="edge">
<title>Node34&#45;&gt;Node22</title>
<path fill="none" stroke="midnightblue" d="M1013,-262.73C1013,-253.18 1013,-237.62 1013,-225.28"/>
<polygon fill="midnightblue" stroke="midnightblue" points="1016.5,-225.13 1013,-215.13 1009.5,-225.13 1016.5,-225.13"/>
</g>
</g>
</svg>
        <g id="navigator" transform="translate(0 0)" fill="#404254">
                <rect fill="#f2f5e9" fill-opacity="0.5" stroke="#606060" stroke-width=".5" x="0" y="0" width="60" height="60"/>
                <use id="zoomplus" xlink:href="#zoomPlus" x="17" y="9" onmousedown="handleZoom(evt,'in')"/>
                <use id="zoomminus" xlink:href="#zoomMin" x="42" y="9" onmousedown="handleZoom(evt,'out')"/>
                <use id="reset" xlink:href="#resetDef" x="30" y="36" onmousedown="handleReset()"/>
                <g id="arrowUp" xlink:href="#dirArrow" transform="translate(30 24)" onmousedown="handlePan(0,-1)">
                  <use xlink:href="#rim" fill="#404040">
                        <set attributeName="fill" to="#808080" begin="arrowUp.mouseover" end="arrowUp.mouseout"/>
                  </use>
                  <path fill="none" stroke="white" stroke-width="1.5" d="M0,-3.0v7 M-2.5,-0.5L0,-3.0L2.5,-0.5"/>
                </g>
                <g id="arrowRight" xlink:href="#dirArrow" transform="rotate(90) translate(36 -43)" onmousedown="handlePan(1,0)">
                  <use xlink:href="#rim" fill="#404040">
                        <set attributeName="fill" to="#808080" begin="arrowRight.mouseover" end="arrowRight.mouseout"/>
                  </use>
                  <path fill="none" stroke="white" stroke-width="1.5" d="M0,-3.0v7 M-2.5,-0.5L0,-3.0L2.5,-0.5"/>
                </g>
                <g id="arrowDown" xlink:href="#dirArrow" transform="rotate(180) translate(-30 -48)" onmousedown="handlePan(0,1)">
                  <use xlink:href="#rim" fill="#404040">
                        <set attributeName="fill" to="#808080" begin="arrowDown.mouseover" end="arrowDown.mouseout"/>
                  </use>
                  <path fill="none" stroke="white" stroke-width="1.5" d="M0,-3.0v7 M-2.5,-0.5L0,-3.0L2.5,-0.5"/>
                </g>
                <g id="arrowLeft" xlink:href="#dirArrow" transform="rotate(270) translate(-36 17)" onmousedown="handlePan(-1,0)">
                  <use xlink:href="#rim" fill="#404040">
                        <set attributeName="fill" to="#808080" begin="arrowLeft.mouseover" end="arrowLeft.mouseout"/>
                  </use>
                  <path fill="none" stroke="white" stroke-width="1.5" d="M0,-3.0v7 M-2.5,-0.5L0,-3.0L2.5,-0.5"/>
                </g>
        </g>
        <svg viewBox="0 0 15 15" width="100%" height="30px" preserveAspectRatio="xMaxYMin meet">
         <g id="arrow_out" transform="scale(0.3 0.3)">
          <a xlink:href="tanks_8cpp__incl_org.svg" target="_base">
           <rect id="button" ry="5" rx="5" y="6" x="6" height="38" width="38"
                fill="#f2f5e9" fill-opacity="0.5" stroke="#606060" stroke-width="1.0"/>
           <path id="arrow"
             d="M 11.500037,31.436501 C 11.940474,20.09759 22.043105,11.32322 32.158766,21.979434 L 37.068811,17.246167 C 37.068811,17.246167 37.088388,32 37.088388,32 L 22.160133,31.978069 C 22.160133,31.978069 26.997745,27.140456 26.997745,27.140456 C 18.528582,18.264221 13.291696,25.230495 11.500037,31.436501 z"
             style="fill:#404040;"/>
          </a>
         </g>
        </svg>
</svg>
