<?xml version="1.0" encoding="UTF-8" standalone="no"?>
<!DOCTYPE svg PUBLIC "-//W3C//DTD SVG 1.1//EN"
 "http://www.w3.org/Graphics/SVG/1.1/DTD/svg11.dtd">
<!-- Generated by graphviz version 2.43.0 (0)
 -->
<!-- Title: Event::info_u Pages: 1 -->
<!--zoomable 645 -->
<svg id="main" version="1.1" xmlns="http://www.w3.org/2000/svg" xmlns:xlink="http://www.w3.org/1999/xlink" xml:space="preserve" onload="init(evt)">
<style type="text/css"><![CDATA[
.edge:hover path { stroke: red; }
.edge:hover polygon { stroke: red; fill: red; }
]]></style>
<script type="text/javascript"><![CDATA[
var edges = document.getElementsByTagName('g');
if (edges && edges.length) {
  for (var i=0;i<edges.length;i++) {
    if (edges[i].id.substr(0,4)=='edge') {
      edges[i].setAttribute('class','edge');
    }
  }
}
]]></script>
        <defs>
                <circle id="rim" cx="0" cy="0" r="7"/>
                <circle id="rim2" cx="0" cy="0" r="3.5"/>
                <g id="zoomPlus">
                        <use xlink:href="#rim" fill="#404040">
                                <set attributeName="fill" to="#808080" begin="zoomplus.mouseover" end="zoomplus.mouseout"/>
                        </use>
                        <path d="M-4,0h8M0,-4v8" fill="none" stroke="white" stroke-width="1.5" pointer-events="none"/>
                </g>
                <g id="zoomMin">
                        <use xlink:href="#rim" fill="#404040">
                                <set attributeName="fill" to="#808080" begin="zoomminus.mouseover" end="zoomminus.mouseout"/>
                        </use>
                        <path d="M-4,0h8" fill="none" stroke="white" stroke-width="1.5" pointer-events="none"/>
                </g>
                <g id="dirArrow">
                        <path fill="none" stroke="white" stroke-width="1.5" d="M0,-3.0v7 M-2.5,-0.5L0,-3.0L2.5,-0.5"/>
                </g>
               <g id="resetDef">
                       <use xlink:href="#rim2" fill="#404040">
                               <set attributeName="fill" to="#808080" begin="reset.mouseover" end="reset.mouseout"/>
                       </use>
               </g>
        </defs>

<script type="text/javascript">
var viewWidth = 463;
var viewHeight = 645;
var sectionId = 'dynsection-0';
</script>
<script xlink:href="svgpan.js"/>
<svg id="graph" class="graph">
<g id="viewport">
<title>Event::info_u</title>
<!-- Node1 -->
<g id="node1" class="node">
<title>Node1</title>
<g id="a_node1"><a xlink:title=" ">
<polygon fill="#bfbfbf" stroke="black" points="88.5,-0.5 88.5,-57.5 168.5,-57.5 168.5,-0.5 88.5,-0.5"/>
<text text-anchor="middle" x="128.5" y="-45.5" font-family="Helvetica,sans-Serif" font-size="10.00">Event::info_u</text>
<polyline fill="none" stroke="black" points="88.5,-38.5 168.5,-38.5 "/>
<text text-anchor="middle" x="128.5" y="-26.5" font-family="Helvetica,sans-Serif" font-size="10.00"> </text>
<polyline fill="none" stroke="black" points="88.5,-19.5 168.5,-19.5 "/>
<text text-anchor="start" x="96.5" y="-7.5" font-family="Helvetica,sans-Serif" font-size="10.00">+ ~info_u()</text>
</a>
</g>
</g>
<!-- Node2 -->
<g id="node2" class="node">
<title>Node2</title>
<g id="a_node2"><a xlink:href="struct_event_1_1_key_event_info.html" target="_top" xlink:title=" ">
<polygon fill="none" stroke="black" points="37,-326 37,-383 152,-383 152,-326 37,-326"/>
<text text-anchor="middle" x="94.5" y="-371" font-family="Helvetica,sans-Serif" font-size="10.00">Event::KeyEventInfo</text>
<polyline fill="none" stroke="black" points="37,-364 152,-364 "/>
<text text-anchor="middle" x="94.5" y="-352" font-family="Helvetica,sans-Serif" font-size="10.00"> </text>
<polyline fill="none" stroke="black" points="37,-345 152,-345 "/>
<text text-anchor="middle" x="94.5" y="-333" font-family="Helvetica,sans-Serif" font-size="10.00"> </text>
</a>
</g>
</g>
<!-- Node2&#45;&gt;Node1 -->
<g id="edge1" class="edge">
<title>Node2&#45;&gt;Node1</title>
<path fill="none" stroke="#404040" d="M97.4,-325.92C103.43,-268.5 117.36,-135.96 124.35,-69.5"/>
<polygon fill="none" stroke="#404040" points="124.35,-69.45 121,-63.06 125.61,-57.51 128.96,-63.9 124.35,-69.45"/>
<text text-anchor="middle" x="144.5" y="-131.5" font-family="Helvetica,sans-Serif" font-size="10.00"> +keyInfo</text>
</g>
<!-- Node3 -->
<g id="node3" class="node">
<title>Node3</title>
<g id="a_node3"><a xlink:title=" ">
<polygon fill="none" stroke="black" points="102,-579.5 102,-636.5 179,-636.5 179,-579.5 102,-579.5"/>
<text text-anchor="middle" x="140.5" y="-624.5" font-family="Helvetica,sans-Serif" font-size="10.00">unsigned int</text>
<polyline fill="none" stroke="black" points="102,-617.5 179,-617.5 "/>
<text text-anchor="middle" x="140.5" y="-605.5" font-family="Helvetica,sans-Serif" font-size="10.00"> </text>
<polyline fill="none" stroke="black" points="102,-598.5 179,-598.5 "/>
<text text-anchor="middle" x="140.5" y="-586.5" font-family="Helvetica,sans-Serif" font-size="10.00"> </text>
</a>
</g>
</g>
<!-- Node3&#45;&gt;Node2 -->
<g id="edge2" class="edge">
<title>Node3&#45;&gt;Node2</title>
<path fill="none" stroke="#404040" d="M109.6,-579.29C105.1,-573.71 101.11,-567.53 98.5,-561 76.88,-506.82 81.24,-438.04 87.22,-395.39"/>
<polygon fill="none" stroke="#404040" points="87.25,-395.17 84.2,-388.64 89.05,-383.31 92.11,-389.84 87.25,-395.17"/>
<text text-anchor="middle" x="125.5" y="-536.5" font-family="Helvetica,sans-Serif" font-size="10.00"> +keyCode</text>
</g>
<!-- Node6 -->
<g id="node6" class="node">
<title>Node6</title>
<g id="a_node6"><a xlink:href="class_tank.html" target="_top" xlink:title="Base class for tank representation.">
<polygon fill="none" stroke="black" points="170.5,-210.5 170.5,-498.5 316.5,-498.5 316.5,-210.5 170.5,-210.5"/>
<text text-anchor="middle" x="243.5" y="-486.5" font-family="Helvetica,sans-Serif" font-size="10.00">Tank</text>
<polyline fill="none" stroke="black" points="170.5,-479.5 316.5,-479.5 "/>
<text text-anchor="middle" x="243.5" y="-467.5" font-family="Helvetica,sans-Serif" font-size="10.00"> </text>
<polyline fill="none" stroke="black" points="170.5,-460.5 316.5,-460.5 "/>
<text text-anchor="start" x="178.5" y="-448.5" font-family="Helvetica,sans-Serif" font-size="10.00">+ virtual ~Tank()=default</text>
<text text-anchor="start" x="178.5" y="-437.5" font-family="Helvetica,sans-Serif" font-size="10.00">+ void moveX(int delta_x)</text>
<text text-anchor="start" x="178.5" y="-426.5" font-family="Helvetica,sans-Serif" font-size="10.00">+ void moveY(int delta_y)</text>
<text text-anchor="start" x="178.5" y="-415.5" font-family="Helvetica,sans-Serif" font-size="10.00">+ void deltaLives(int</text>
<text text-anchor="start" x="178.5" y="-404.5" font-family="Helvetica,sans-Serif" font-size="10.00"> delta_l)</text>
<text text-anchor="start" x="178.5" y="-393.5" font-family="Helvetica,sans-Serif" font-size="10.00">+ TankType getType()</text>
<text text-anchor="start" x="178.5" y="-382.5" font-family="Helvetica,sans-Serif" font-size="10.00"> const</text>
<text text-anchor="start" x="178.5" y="-371.5" font-family="Helvetica,sans-Serif" font-size="10.00">+ unsigned int getX()</text>
<text text-anchor="start" x="178.5" y="-360.5" font-family="Helvetica,sans-Serif" font-size="10.00"> const</text>
<text text-anchor="start" x="178.5" y="-349.5" font-family="Helvetica,sans-Serif" font-size="10.00">+ unsigned int getY()</text>
<text text-anchor="start" x="178.5" y="-338.5" font-family="Helvetica,sans-Serif" font-size="10.00"> const</text>
<text text-anchor="start" x="178.5" y="-327.5" font-family="Helvetica,sans-Serif" font-size="10.00">+ unsigned int getLives</text>
<text text-anchor="start" x="178.5" y="-316.5" font-family="Helvetica,sans-Serif" font-size="10.00">() const</text>
<text text-anchor="start" x="178.5" y="-305.5" font-family="Helvetica,sans-Serif" font-size="10.00">+ double getTankSpeed</text>
<text text-anchor="start" x="178.5" y="-294.5" font-family="Helvetica,sans-Serif" font-size="10.00">() const</text>
<text text-anchor="start" x="178.5" y="-283.5" font-family="Helvetica,sans-Serif" font-size="10.00">+ double getBulletSpeed</text>
<text text-anchor="start" x="178.5" y="-272.5" font-family="Helvetica,sans-Serif" font-size="10.00">() const</text>
<text text-anchor="start" x="178.5" y="-261.5" font-family="Helvetica,sans-Serif" font-size="10.00">+ Direction getFacing</text>
<text text-anchor="start" x="178.5" y="-250.5" font-family="Helvetica,sans-Serif" font-size="10.00">() const</text>
<text text-anchor="start" x="178.5" y="-239.5" font-family="Helvetica,sans-Serif" font-size="10.00">+ unsigned int getPoints</text>
<text text-anchor="start" x="178.5" y="-228.5" font-family="Helvetica,sans-Serif" font-size="10.00">() const</text>
<text text-anchor="start" x="178.5" y="-217.5" font-family="Helvetica,sans-Serif" font-size="10.00"># Tank()=default</text>
</a>
</g>
</g>
<!-- Node3&#45;&gt;Node6 -->
<g id="edge7" class="edge">
<title>Node3&#45;&gt;Node6</title>
<path fill="none" stroke="#404040" d="M151.92,-579.12C159.26,-561.2 169.45,-536.32 180.37,-509.65"/>
<polygon fill="none" stroke="#404040" points="180.37,-509.64 178.95,-502.57 184.92,-498.53 186.35,-505.6 180.37,-509.64"/>
<text text-anchor="middle" x="199.5" y="-553" font-family="Helvetica,sans-Serif" font-size="10.00"> #lives_</text>
<text text-anchor="middle" x="199.5" y="-542" font-family="Helvetica,sans-Serif" font-size="10.00">#points_</text>
<text text-anchor="middle" x="199.5" y="-531" font-family="Helvetica,sans-Serif" font-size="10.00">#x_</text>
<text text-anchor="middle" x="199.5" y="-520" font-family="Helvetica,sans-Serif" font-size="10.00">#y_</text>
</g>
<!-- Node4 -->
<g id="node4" class="node">
<title>Node4</title>
<g id="a_node4"><a xlink:title=" ">
<polygon fill="none" stroke="black" points="0,-579.5 0,-636.5 65,-636.5 65,-579.5 0,-579.5"/>
<text text-anchor="middle" x="32.5" y="-624.5" font-family="Helvetica,sans-Serif" font-size="10.00">KeyAction</text>
<polyline fill="none" stroke="black" points="0,-617.5 65,-617.5 "/>
<text text-anchor="middle" x="32.5" y="-605.5" font-family="Helvetica,sans-Serif" font-size="10.00"> </text>
<polyline fill="none" stroke="black" points="0,-598.5 65,-598.5 "/>
<text text-anchor="middle" x="32.5" y="-586.5" font-family="Helvetica,sans-Serif" font-size="10.00"> </text>
</a>
</g>
</g>
<!-- Node4&#45;&gt;Node2 -->
<g id="edge3" class="edge">
<title>Node4&#45;&gt;Node2</title>
<path fill="none" stroke="#404040" d="M33.72,-579.19C34.89,-561.28 37.15,-537.59 41.5,-517 50.54,-474.25 66.86,-426.92 79,-394.61"/>
<polygon fill="none" stroke="#404040" points="79.16,-394.22 77.56,-387.18 83.43,-383 85.03,-390.04 79.16,-394.22"/>
<text text-anchor="middle" x="62.5" y="-536.5" font-family="Helvetica,sans-Serif" font-size="10.00"> +action</text>
</g>
<!-- Node5 -->
<g id="node5" class="node">
<title>Node5</title>
<g id="a_node5"><a xlink:href="struct_event_1_1_tank_info.html" target="_top" xlink:title=" ">
<polygon fill="none" stroke="black" points="187.5,-105.5 187.5,-162.5 279.5,-162.5 279.5,-105.5 187.5,-105.5"/>
<text text-anchor="middle" x="233.5" y="-150.5" font-family="Helvetica,sans-Serif" font-size="10.00">Event::TankInfo</text>
<polyline fill="none" stroke="black" points="187.5,-143.5 279.5,-143.5 "/>
<text text-anchor="middle" x="233.5" y="-131.5" font-family="Helvetica,sans-Serif" font-size="10.00"> </text>
<polyline fill="none" stroke="black" points="187.5,-124.5 279.5,-124.5 "/>
<text text-anchor="middle" x="233.5" y="-112.5" font-family="Helvetica,sans-Serif" font-size="10.00"> </text>
</a>
</g>
</g>
<!-- Node5&#45;&gt;Node1 -->
<g id="edge4" class="edge">
<title>Node5&#45;&gt;Node1</title>
<path fill="none" stroke="#404040" d="M205.36,-105.4C193.12,-93.39 178.61,-79.16 165.51,-66.31"/>
<polygon fill="none" stroke="#404040" points="165.28,-66.08 158.2,-64.74 156.72,-57.68 163.8,-59.02 165.28,-66.08"/>
<text text-anchor="middle" x="210.5" y="-79" font-family="Helvetica,sans-Serif" font-size="10.00"> +tankInfo</text>
</g>
<!-- Node6&#45;&gt;Node5 -->
<g id="edge5" class="edge">
<title>Node6&#45;&gt;Node5</title>
<path fill="none" stroke="#404040" d="M236.94,-210.2C236.36,-197.39 235.8,-185.27 235.31,-174.66"/>
<polygon fill="none" stroke="#404040" points="235.31,-174.49 231.04,-168.68 234.76,-162.51 239.03,-168.32 235.31,-174.49"/>
<text text-anchor="middle" x="253.5" y="-184" font-family="Helvetica,sans-Serif" font-size="10.00"> +tank</text>
</g>
<!-- Node7 -->
<g id="node7" class="node">
<title>Node7</title>
<g id="a_node7"><a xlink:title=" ">
<polygon fill="none" stroke="black" points="392.5,-579.5 392.5,-636.5 454.5,-636.5 454.5,-579.5 392.5,-579.5"/>
<text text-anchor="middle" x="423.5" y="-624.5" font-family="Helvetica,sans-Serif" font-size="10.00">TankType</text>
<polyline fill="none" stroke="black" points="392.5,-617.5 454.5,-617.5 "/>
<text text-anchor="middle" x="423.5" y="-605.5" font-family="Helvetica,sans-Serif" font-size="10.00"> </text>
<polyline fill="none" stroke="black" points="392.5,-598.5 454.5,-598.5 "/>
<text text-anchor="middle" x="423.5" y="-586.5" font-family="Helvetica,sans-Serif" font-size="10.00"> </text>
</a>
</g>
</g>
<!-- Node7&#45;&gt;Node6 -->
<g id="edge6" class="edge">
<title>Node7&#45;&gt;Node6</title>
<path fill="none" stroke="#404040" d="M413.98,-579.12C407.1,-560.76 396.87,-536.58 384.5,-517 367.4,-489.93 345.88,-462.82 324.83,-438.75"/>
<polygon fill="none" stroke="#404040" points="324.76,-438.67 317.78,-436.83 316.8,-429.69 323.77,-431.52 324.76,-438.67"/>
<text text-anchor="middle" x="425" y="-536.5" font-family="Helvetica,sans-Serif" font-size="10.00"> #type_</text>
</g>
<!-- Node8 -->
<g id="node8" class="node">
<title>Node8</title>
<g id="a_node8"><a xlink:title=" ">
<polygon fill="none" stroke="black" points="216.5,-579.5 216.5,-636.5 266.5,-636.5 266.5,-579.5 216.5,-579.5"/>
<text text-anchor="middle" x="241.5" y="-624.5" font-family="Helvetica,sans-Serif" font-size="10.00">double</text>
<polyline fill="none" stroke="black" points="216.5,-617.5 266.5,-617.5 "/>
<text text-anchor="middle" x="241.5" y="-605.5" font-family="Helvetica,sans-Serif" font-size="10.00"> </text>
<polyline fill="none" stroke="black" points="216.5,-598.5 266.5,-598.5 "/>
<text text-anchor="middle" x="241.5" y="-586.5" font-family="Helvetica,sans-Serif" font-size="10.00"> </text>
</a>
</g>
</g>
<!-- Node8&#45;&gt;Node6 -->
<g id="edge8" class="edge">
<title>Node8&#45;&gt;Node6</title>
<path fill="none" stroke="#404040" d="M241.72,-579.12C241.86,-561.43 242.06,-536.98 242.27,-510.71"/>
<polygon fill="none" stroke="#404040" points="242.27,-510.53 238.31,-504.5 242.36,-498.53 246.31,-504.56 242.27,-510.53"/>
<text text-anchor="middle" x="282" y="-542" font-family="Helvetica,sans-Serif" font-size="10.00"> #bullet_speed_</text>
<text text-anchor="middle" x="282" y="-531" font-family="Helvetica,sans-Serif" font-size="10.00">#tank_speed_</text>
</g>
<!-- Node9 -->
<g id="node9" class="node">
<title>Node9</title>
<g id="a_node9"><a xlink:title=" ">
<polygon fill="none" stroke="black" points="313,-579.5 313,-636.5 374,-636.5 374,-579.5 313,-579.5"/>
<text text-anchor="middle" x="343.5" y="-624.5" font-family="Helvetica,sans-Serif" font-size="10.00">Direction</text>
<polyline fill="none" stroke="black" points="313,-617.5 374,-617.5 "/>
<text text-anchor="middle" x="343.5" y="-605.5" font-family="Helvetica,sans-Serif" font-size="10.00"> </text>
<polyline fill="none" stroke="black" points="313,-598.5 374,-598.5 "/>
<text text-anchor="middle" x="343.5" y="-586.5" font-family="Helvetica,sans-Serif" font-size="10.00"> </text>
</a>
</g>
</g>
<!-- Node9&#45;&gt;Node6 -->
<g id="edge9" class="edge">
<title>Node9&#45;&gt;Node6</title>
<path fill="none" stroke="#404040" d="M338.32,-579.38C334.56,-561.35 328.84,-537.44 321.5,-517 320.69,-514.75 319.86,-512.48 319.01,-510.21"/>
<polygon fill="none" stroke="#404040" points="318.93,-510 313.03,-505.85 314.6,-498.81 320.5,-502.96 318.93,-510"/>
<text text-anchor="middle" x="357" y="-536.5" font-family="Helvetica,sans-Serif" font-size="10.00"> #facing_</text>
</g>
</g>
</svg>
        <g id="navigator" transform="translate(0 0)" fill="#404254">
                <rect fill="#f2f5e9" fill-opacity="0.5" stroke="#606060" stroke-width=".5" x="0" y="0" width="60" height="60"/>
                <use id="zoomplus" xlink:href="#zoomPlus" x="17" y="9" onmousedown="handleZoom(evt,'in')"/>
                <use id="zoomminus" xlink:href="#zoomMin" x="42" y="9" onmousedown="handleZoom(evt,'out')"/>
                <use id="reset" xlink:href="#resetDef" x="30" y="36" onmousedown="handleReset()"/>
                <g id="arrowUp" xlink:href="#dirArrow" transform="translate(30 24)" onmousedown="handlePan(0,-1)">
                  <use xlink:href="#rim" fill="#404040">
                        <set attributeName="fill" to="#808080" begin="arrowUp.mouseover" end="arrowUp.mouseout"/>
                  </use>
                  <path fill="none" stroke="white" stroke-width="1.5" d="M0,-3.0v7 M-2.5,-0.5L0,-3.0L2.5,-0.5"/>
                </g>
                <g id="arrowRight" xlink:href="#dirArrow" transform="rotate(90) translate(36 -43)" onmousedown="handlePan(1,0)">
                  <use xlink:href="#rim" fill="#404040">
                        <set attributeName="fill" to="#808080" begin="arrowRight.mouseover" end="arrowRight.mouseout"/>
                  </use>
                  <path fill="none" stroke="white" stroke-width="1.5" d="M0,-3.0v7 M-2.5,-0.5L0,-3.0L2.5,-0.5"/>
                </g>
                <g id="arrowDown" xlink:href="#dirArrow" transform="rotate(180) translate(-30 -48)" onmousedown="handlePan(0,1)">
                  <use xlink:href="#rim" fill="#404040">
                        <set attributeName="fill" to="#808080" begin="arrowDown.mouseover" end="arrowDown.mouseout"/>
                  </use>
                  <path fill="none" stroke="white" stroke-width="1.5" d="M0,-3.0v7 M-2.5,-0.5L0,-3.0L2.5,-0.5"/>
                </g>
                <g id="arrowLeft" xlink:href="#dirArrow" transform="rotate(270) translate(-36 17)" onmousedown="handlePan(-1,0)">
                  <use xlink:href="#rim" fill="#404040">
                        <set attributeName="fill" to="#808080" begin="arrowLeft.mouseover" end="arrowLeft.mouseout"/>
                  </use>
                  <path fill="none" stroke="white" stroke-width="1.5" d="M0,-3.0v7 M-2.5,-0.5L0,-3.0L2.5,-0.5"/>
                </g>
        </g>
        <svg viewBox="0 0 15 15" width="100%" height="30px" preserveAspectRatio="xMaxYMin meet">
         <g id="arrow_out" transform="scale(0.3 0.3)">
          <a xlink:href="union_event_1_1info__u__coll__graph_org.svg" target="_base">
           <rect id="button" ry="5" rx="5" y="6" x="6" height="38" width="38"
                fill="#f2f5e9" fill-opacity="0.5" stroke="#606060" stroke-width="1.0"/>
           <path id="arrow"
             d="M 11.500037,31.436501 C 11.940474,20.09759 22.043105,11.32322 32.158766,21.979434 L 37.068811,17.246167 C 37.068811,17.246167 37.088388,32 37.088388,32 L 22.160133,31.978069 C 22.160133,31.978069 26.997745,27.140456 26.997745,27.140456 C 18.528582,18.264221 13.291696,25.230495 11.500037,31.436501 z"
             style="fill:#404040;"/>
          </a>
         </g>
        </svg>
</svg>
