<?xml version="1.0" encoding="UTF-8" standalone="no"?>
<!DOCTYPE svg PUBLIC "-//W3C//DTD SVG 1.1//EN"
 "http://www.w3.org/Graphics/SVG/1.1/DTD/svg11.dtd">
<!-- Generated by graphviz version 2.43.0 (0)
 -->
<!-- Title: Event::info_u Pages: 1 -->
<!--zoomable 1119 -->
<svg id="main" version="1.1" xmlns="http://www.w3.org/2000/svg" xmlns:xlink="http://www.w3.org/1999/xlink" xml:space="preserve" onload="init(evt)">
<style type="text/css"><![CDATA[
.edge:hover path { stroke: red; }
.edge:hover polygon { stroke: red; fill: red; }
]]></style>
<script type="text/javascript"><![CDATA[
var edges = document.getElementsByTagName('g');
if (edges && edges.length) {
  for (var i=0;i<edges.length;i++) {
    if (edges[i].id.substr(0,4)=='edge') {
      edges[i].setAttribute('class','edge');
    }
  }
}
]]></script>
        <defs>
                <circle id="rim" cx="0" cy="0" r="7"/>
                <circle id="rim2" cx="0" cy="0" r="3.5"/>
                <g id="zoomPlus">
                        <use xlink:href="#rim" fill="#404040">
                                <set attributeName="fill" to="#808080" begin="zoomplus.mouseover" end="zoomplus.mouseout"/>
                        </use>
                        <path d="M-4,0h8M0,-4v8" fill="none" stroke="white" stroke-width="1.5" pointer-events="none"/>
                </g>
                <g id="zoomMin">
                        <use xlink:href="#rim" fill="#404040">
                                <set attributeName="fill" to="#808080" begin="zoomminus.mouseover" end="zoomminus.mouseout"/>
                        </use>
                        <path d="M-4,0h8" fill="none" stroke="white" stroke-width="1.5" pointer-events="none"/>
                </g>
                <g id="dirArrow">
                        <path fill="none" stroke="white" stroke-width="1.5" d="M0,-3.0v7 M-2.5,-0.5L0,-3.0L2.5,-0.5"/>
                </g>
               <g id="resetDef">
                       <use xlink:href="#rim2" fill="#404040">
                               <set attributeName="fill" to="#808080" begin="reset.mouseover" end="reset.mouseout"/>
                       </use>
               </g>
        </defs>

<script type="text/javascript">
var viewWidth = 1075;
var viewHeight = 1119;
var sectionId = 'dynsection-0';
</script>
<script xlink:href="svgpan.js"/>
<svg id="graph" class="graph">
<g id="viewport">
<title>Event::info_u</title>
<!-- Node1 -->
<g id="node1" class="node">
<title>Node1</title>
<g id="a_node1"><a xlink:title=" ">
<polygon fill="#bfbfbf" stroke="black" points="296,-0.5 296,-57.5 376,-57.5 376,-0.5 296,-0.5"/>
<text text-anchor="middle" x="336" y="-45.5" font-family="Helvetica,sans-Serif" font-size="10.00">Event::info_u</text>
<polyline fill="none" stroke="black" points="296,-38.5 376,-38.5 "/>
<text text-anchor="middle" x="336" y="-26.5" font-family="Helvetica,sans-Serif" font-size="10.00"> </text>
<polyline fill="none" stroke="black" points="296,-19.5 376,-19.5 "/>
<text text-anchor="start" x="304" y="-7.5" font-family="Helvetica,sans-Serif" font-size="10.00">+ ~info_u()</text>
</a>
</g>
</g>
<!-- Node2 -->
<g id="node2" class="node">
<title>Node2</title>
<g id="a_node2"><a xlink:href="struct_event_1_1_key_event_info.html" target="_top" xlink:title=" ">
<polygon fill="none" stroke="black" points="277.5,-298.5 277.5,-355.5 392.5,-355.5 392.5,-298.5 277.5,-298.5"/>
<text text-anchor="middle" x="335" y="-343.5" font-family="Helvetica,sans-Serif" font-size="10.00">Event::KeyEventInfo</text>
<polyline fill="none" stroke="black" points="277.5,-336.5 392.5,-336.5 "/>
<text text-anchor="middle" x="335" y="-324.5" font-family="Helvetica,sans-Serif" font-size="10.00"> </text>
<polyline fill="none" stroke="black" points="277.5,-317.5 392.5,-317.5 "/>
<text text-anchor="middle" x="335" y="-305.5" font-family="Helvetica,sans-Serif" font-size="10.00"> </text>
</a>
</g>
</g>
<!-- Node2&#45;&gt;Node1 -->
<g id="edge1" class="edge">
<title>Node2&#45;&gt;Node1</title>
<path fill="none" stroke="#404040" d="M332.95,-298.42C330.13,-256.59 325.76,-174.59 329,-105 329.53,-93.61 330.51,-81.28 331.57,-69.97"/>
<polygon fill="none" stroke="#404040" points="331.6,-69.68 328.22,-63.31 332.79,-57.74 336.18,-64.1 331.6,-69.68"/>
<text text-anchor="middle" x="353" y="-131.5" font-family="Helvetica,sans-Serif" font-size="10.00"> +keyInfo</text>
</g>
<!-- Node3 -->
<g id="node3" class="node">
<title>Node3</title>
<g id="a_node3"><a xlink:title=" ">
<polygon fill="none" stroke="black" points="480.5,-601.5 480.5,-658.5 557.5,-658.5 557.5,-601.5 480.5,-601.5"/>
<text text-anchor="middle" x="519" y="-646.5" font-family="Helvetica,sans-Serif" font-size="10.00">unsigned int</text>
<polyline fill="none" stroke="black" points="480.5,-639.5 557.5,-639.5 "/>
<text text-anchor="middle" x="519" y="-627.5" font-family="Helvetica,sans-Serif" font-size="10.00"> </text>
<polyline fill="none" stroke="black" points="480.5,-620.5 557.5,-620.5 "/>
<text text-anchor="middle" x="519" y="-608.5" font-family="Helvetica,sans-Serif" font-size="10.00"> </text>
</a>
</g>
</g>
<!-- Node3&#45;&gt;Node2 -->
<g id="edge2" class="edge">
<title>Node3&#45;&gt;Node2</title>
<path fill="none" stroke="#404040" d="M484.22,-601.49C457.17,-578.49 420.42,-543.5 397,-506 389.45,-493.91 363.46,-415.82 347.62,-367.18"/>
<polygon fill="none" stroke="#404040" points="347.54,-366.91 341.88,-362.44 343.83,-355.5 349.49,-359.97 347.54,-366.91"/>
<text text-anchor="middle" x="424" y="-476" font-family="Helvetica,sans-Serif" font-size="10.00"> +keyCode</text>
</g>
<!-- Node9 -->
<g id="node9" class="node">
<title>Node9</title>
<g id="a_node9"><a xlink:href="struct_event_1_1_tile_info.html" target="_top" xlink:title=" ">
<polygon fill="none" stroke="black" points="675.5,-105.5 675.5,-162.5 762.5,-162.5 762.5,-105.5 675.5,-105.5"/>
<text text-anchor="middle" x="719" y="-150.5" font-family="Helvetica,sans-Serif" font-size="10.00">Event::TileInfo</text>
<polyline fill="none" stroke="black" points="675.5,-143.5 762.5,-143.5 "/>
<text text-anchor="middle" x="719" y="-131.5" font-family="Helvetica,sans-Serif" font-size="10.00"> </text>
<polyline fill="none" stroke="black" points="675.5,-124.5 762.5,-124.5 "/>
<text text-anchor="middle" x="719" y="-112.5" font-family="Helvetica,sans-Serif" font-size="10.00"> </text>
</a>
</g>
</g>
<!-- Node3&#45;&gt;Node9 -->
<g id="edge9" class="edge">
<title>Node3&#45;&gt;Node9</title>
<path fill="none" stroke="#404040" d="M534.59,-601.41C554.81,-564.32 589.67,-495.78 608,-433 639.71,-324.4 581.88,-275.56 644,-181 645.75,-178.34 654.33,-172.52 665.1,-165.89"/>
<polygon fill="none" stroke="#404040" points="665.19,-165.83 668.27,-159.31 675.47,-159.64 672.4,-166.16 665.19,-165.83"/>
<text text-anchor="middle" x="641.5" y="-330" font-family="Helvetica,sans-Serif" font-size="10.00"> +tile_x</text>
<text text-anchor="middle" x="641.5" y="-319" font-family="Helvetica,sans-Serif" font-size="10.00">+tile_y</text>
</g>
<!-- Node10 -->
<g id="node10" class="node">
<title>Node10</title>
<g id="a_node10"><a xlink:href="class_grid.html" target="_top" xlink:title="Represents a grid of tiles.">
<polygon fill="none" stroke="black" points="687,-238 687,-416 855,-416 855,-238 687,-238"/>
<text text-anchor="middle" x="771" y="-404" font-family="Helvetica,sans-Serif" font-size="10.00">Grid</text>
<polyline fill="none" stroke="black" points="687,-397 855,-397 "/>
<text text-anchor="middle" x="771" y="-385" font-family="Helvetica,sans-Serif" font-size="10.00"> </text>
<polyline fill="none" stroke="black" points="687,-378 855,-378 "/>
<text text-anchor="start" x="695" y="-366" font-family="Helvetica,sans-Serif" font-size="10.00">+ Grid()</text>
<text text-anchor="start" x="695" y="-355" font-family="Helvetica,sans-Serif" font-size="10.00">+ TileType getTileAtPosition</text>
<text text-anchor="start" x="695" y="-344" font-family="Helvetica,sans-Serif" font-size="10.00">(unsigned int x, unsigned int y)</text>
<text text-anchor="start" x="695" y="-333" font-family="Helvetica,sans-Serif" font-size="10.00">+ void setTile(unsigned</text>
<text text-anchor="start" x="695" y="-322" font-family="Helvetica,sans-Serif" font-size="10.00"> int x, unsigned int</text>
<text text-anchor="start" x="695" y="-311" font-family="Helvetica,sans-Serif" font-size="10.00"> y, TileType newTile)</text>
<text text-anchor="start" x="695" y="-300" font-family="Helvetica,sans-Serif" font-size="10.00">+ void deleteTile(unsigned</text>
<text text-anchor="start" x="695" y="-289" font-family="Helvetica,sans-Serif" font-size="10.00"> int x, unsigned int y)</text>
<text text-anchor="start" x="695" y="-278" font-family="Helvetica,sans-Serif" font-size="10.00">+ unsigned int getSizeX</text>
<text text-anchor="start" x="695" y="-267" font-family="Helvetica,sans-Serif" font-size="10.00">() const</text>
<text text-anchor="start" x="695" y="-256" font-family="Helvetica,sans-Serif" font-size="10.00">+ unsigned int getSizeY</text>
<text text-anchor="start" x="695" y="-245" font-family="Helvetica,sans-Serif" font-size="10.00">() const</text>
</a>
</g>
</g>
<!-- Node3&#45;&gt;Node10 -->
<g id="edge11" class="edge">
<title>Node3&#45;&gt;Node10</title>
<path fill="none" stroke="#404040" d="M550.03,-601.31C576.28,-577.24 614.25,-540.85 644,-506 665.2,-481.17 686.49,-452.93 705.42,-426.37"/>
<polygon fill="none" stroke="#404040" points="705.62,-426.08 705.82,-418.88 712.55,-416.29 712.35,-423.5 705.62,-426.08"/>
<text text-anchor="middle" x="706.5" y="-481.5" font-family="Helvetica,sans-Serif" font-size="10.00"> #size_x</text>
<text text-anchor="middle" x="706.5" y="-470.5" font-family="Helvetica,sans-Serif" font-size="10.00">#size_y</text>
</g>
<!-- Node17 -->
<g id="node17" class="node">
<title>Node17</title>
<g id="a_node17"><a xlink:href="struct_event_1_1_level_info.html" target="_top" xlink:title=" ">
<polygon fill="none" stroke="black" points="562.5,-105.5 562.5,-162.5 657.5,-162.5 657.5,-105.5 562.5,-105.5"/>
<text text-anchor="middle" x="610" y="-150.5" font-family="Helvetica,sans-Serif" font-size="10.00">Event::LevelInfo</text>
<polyline fill="none" stroke="black" points="562.5,-143.5 657.5,-143.5 "/>
<text text-anchor="middle" x="610" y="-131.5" font-family="Helvetica,sans-Serif" font-size="10.00"> </text>
<polyline fill="none" stroke="black" points="562.5,-124.5 657.5,-124.5 "/>
<text text-anchor="middle" x="610" y="-112.5" font-family="Helvetica,sans-Serif" font-size="10.00"> </text>
</a>
</g>
</g>
<!-- Node3&#45;&gt;Node17 -->
<g id="edge20" class="edge">
<title>Node3&#45;&gt;Node17</title>
<path fill="none" stroke="#404040" d="M517.53,-601.47C513.64,-521.46 505.17,-290.21 533,-221 540.42,-202.54 553.66,-185.47 567.1,-171.48"/>
<polygon fill="none" stroke="#404040" points="567.37,-171.21 568.82,-164.14 575.89,-162.75 574.45,-169.82 567.37,-171.21"/>
<text text-anchor="middle" x="570.5" y="-324.5" font-family="Helvetica,sans-Serif" font-size="10.00"> +levelNumber</text>
</g>
<!-- Node19 -->
<g id="node19" class="node">
<title>Node19</title>
<g id="a_node19"><a xlink:href="struct_event_1_1_entity_tile_collision_info.html" target="_top" xlink:title=" ">
<polygon fill="none" stroke="black" points="386,-105.5 386,-162.5 544,-162.5 544,-105.5 386,-105.5"/>
<text text-anchor="middle" x="465" y="-150.5" font-family="Helvetica,sans-Serif" font-size="10.00">Event::EntityTileCollisionInfo</text>
<polyline fill="none" stroke="black" points="386,-143.5 544,-143.5 "/>
<text text-anchor="middle" x="465" y="-131.5" font-family="Helvetica,sans-Serif" font-size="10.00"> </text>
<polyline fill="none" stroke="black" points="386,-124.5 544,-124.5 "/>
<text text-anchor="middle" x="465" y="-112.5" font-family="Helvetica,sans-Serif" font-size="10.00"> </text>
</a>
</g>
</g>
<!-- Node3&#45;&gt;Node19 -->
<g id="edge26" class="edge">
<title>Node3&#45;&gt;Node19</title>
<path fill="none" stroke="#404040" d="M511.94,-601.31C502.64,-563.55 486.57,-493.65 479,-433 467.52,-341.02 465.25,-232.01 464.92,-174.73"/>
<polygon fill="none" stroke="#404040" points="464.92,-174.65 460.9,-168.66 464.88,-162.65 468.9,-168.63 464.92,-174.65"/>
<text text-anchor="middle" x="488" y="-330" font-family="Helvetica,sans-Serif" font-size="10.00"> +x</text>
<text text-anchor="middle" x="488" y="-319" font-family="Helvetica,sans-Serif" font-size="10.00">+y</text>
</g>
<!-- Node4 -->
<g id="node4" class="node">
<title>Node4</title>
<g id="a_node4"><a xlink:title=" ">
<polygon fill="none" stroke="black" points="298.5,-601.5 298.5,-658.5 363.5,-658.5 363.5,-601.5 298.5,-601.5"/>
<text text-anchor="middle" x="331" y="-646.5" font-family="Helvetica,sans-Serif" font-size="10.00">KeyAction</text>
<polyline fill="none" stroke="black" points="298.5,-639.5 363.5,-639.5 "/>
<text text-anchor="middle" x="331" y="-627.5" font-family="Helvetica,sans-Serif" font-size="10.00"> </text>
<polyline fill="none" stroke="black" points="298.5,-620.5 363.5,-620.5 "/>
<text text-anchor="middle" x="331" y="-608.5" font-family="Helvetica,sans-Serif" font-size="10.00"> </text>
</a>
</g>
</g>
<!-- Node4&#45;&gt;Node2 -->
<g id="edge3" class="edge">
<title>Node4&#45;&gt;Node2</title>
<path fill="none" stroke="#404040" d="M330.99,-601.25C331.03,-566.23 331.2,-504.15 332,-451 332.42,-423.3 333.18,-392.1 333.83,-368.05"/>
<polygon fill="none" stroke="#404040" points="333.84,-367.84 330.01,-361.73 334.17,-355.84 338,-361.95 333.84,-367.84"/>
<text text-anchor="middle" x="353" y="-476" font-family="Helvetica,sans-Serif" font-size="10.00"> +action</text>
</g>
<!-- Node5 -->
<g id="node5" class="node">
<title>Node5</title>
<g id="a_node5"><a xlink:href="struct_event_1_1_entity_info.html" target="_top" xlink:title=" ">
<polygon fill="none" stroke="black" points="186,-105.5 186,-162.5 284,-162.5 284,-105.5 186,-105.5"/>
<text text-anchor="middle" x="235" y="-150.5" font-family="Helvetica,sans-Serif" font-size="10.00">Event::EntityInfo</text>
<polyline fill="none" stroke="black" points="186,-143.5 284,-143.5 "/>
<text text-anchor="middle" x="235" y="-131.5" font-family="Helvetica,sans-Serif" font-size="10.00"> </text>
<polyline fill="none" stroke="black" points="186,-124.5 284,-124.5 "/>
<text text-anchor="middle" x="235" y="-112.5" font-family="Helvetica,sans-Serif" font-size="10.00"> </text>
</a>
</g>
</g>
<!-- Node5&#45;&gt;Node1 -->
<g id="edge4" class="edge">
<title>Node5&#45;&gt;Node1</title>
<path fill="none" stroke="#404040" d="M235.93,-105.43C237.45,-95.34 240.63,-84.37 247,-76 256.56,-63.44 270.52,-54.01 284.57,-47.06"/>
<polygon fill="none" stroke="#404040" points="284.83,-46.94 288.66,-40.83 295.77,-42.01 291.94,-48.12 284.83,-46.94"/>
<text text-anchor="middle" x="276.5" y="-79" font-family="Helvetica,sans-Serif" font-size="10.00"> +entityInfo</text>
</g>
<!-- Node6 -->
<g id="node6" class="node">
<title>Node6</title>
<g id="a_node6"><a xlink:href="class_entity.html" target="_top" xlink:title=" ">
<polygon fill="none" stroke="black" points="99,-221.5 99,-432.5 259,-432.5 259,-221.5 99,-221.5"/>
<text text-anchor="middle" x="179" y="-420.5" font-family="Helvetica,sans-Serif" font-size="10.00">Entity</text>
<polyline fill="none" stroke="black" points="99,-413.5 259,-413.5 "/>
<text text-anchor="middle" x="179" y="-401.5" font-family="Helvetica,sans-Serif" font-size="10.00"> </text>
<polyline fill="none" stroke="black" points="99,-394.5 259,-394.5 "/>
<text text-anchor="start" x="107" y="-382.5" font-family="Helvetica,sans-Serif" font-size="10.00">+ virtual ~Entity()=default</text>
<text text-anchor="start" x="107" y="-371.5" font-family="Helvetica,sans-Serif" font-size="10.00">+ virtual bool move()=0</text>
<text text-anchor="start" x="107" y="-360.5" font-family="Helvetica,sans-Serif" font-size="10.00">+ virtual bool moveBack()=0</text>
<text text-anchor="start" x="107" y="-349.5" font-family="Helvetica,sans-Serif" font-size="10.00">+ float getX() const</text>
<text text-anchor="start" x="107" y="-338.5" font-family="Helvetica,sans-Serif" font-size="10.00">+ float getY() const</text>
<text text-anchor="start" x="107" y="-327.5" font-family="Helvetica,sans-Serif" font-size="10.00">+ float getSpeed() const</text>
<text text-anchor="start" x="107" y="-316.5" font-family="Helvetica,sans-Serif" font-size="10.00">+ Direction getFacing</text>
<text text-anchor="start" x="107" y="-305.5" font-family="Helvetica,sans-Serif" font-size="10.00">() const</text>
<text text-anchor="start" x="107" y="-294.5" font-family="Helvetica,sans-Serif" font-size="10.00">+ float getSizeX() const</text>
<text text-anchor="start" x="107" y="-283.5" font-family="Helvetica,sans-Serif" font-size="10.00">+ float getSizeY() const</text>
<text text-anchor="start" x="107" y="-272.5" font-family="Helvetica,sans-Serif" font-size="10.00"># Entity()=default</text>
<text text-anchor="start" x="107" y="-261.5" font-family="Helvetica,sans-Serif" font-size="10.00"># Entity(float x, float</text>
<text text-anchor="start" x="107" y="-250.5" font-family="Helvetica,sans-Serif" font-size="10.00"> y, float sizeX, float</text>
<text text-anchor="start" x="107" y="-239.5" font-family="Helvetica,sans-Serif" font-size="10.00"> sizeY, float speed, Direction</text>
<text text-anchor="start" x="107" y="-228.5" font-family="Helvetica,sans-Serif" font-size="10.00"> facing)</text>
</a>
</g>
</g>
<!-- Node6&#45;&gt;Node5 -->
<g id="edge5" class="edge">
<title>Node6&#45;&gt;Node5</title>
<path fill="none" stroke="#404040" d="M184.81,-221.13C187.64,-207.3 191.58,-193.58 197,-181 198.22,-178.17 199.67,-175.38 201.28,-172.65"/>
<polygon fill="none" stroke="#404040" points="201.41,-172.46 201.46,-165.25 208.13,-162.52 208.08,-169.73 201.41,-172.46"/>
<text text-anchor="middle" x="217" y="-189.5" font-family="Helvetica,sans-Serif" font-size="10.00"> +entity</text>
</g>
<!-- Node18 -->
<g id="node18" class="node">
<title>Node18</title>
<g id="a_node18"><a xlink:href="struct_event_1_1_entity_entity_collision_info.html" target="_top" xlink:title=" ">
<polygon fill="none" stroke="black" points="0,-105.5 0,-162.5 168,-162.5 168,-105.5 0,-105.5"/>
<text text-anchor="middle" x="84" y="-150.5" font-family="Helvetica,sans-Serif" font-size="10.00">Event::EntityEntityCollisionInfo</text>
<polyline fill="none" stroke="black" points="0,-143.5 168,-143.5 "/>
<text text-anchor="middle" x="84" y="-131.5" font-family="Helvetica,sans-Serif" font-size="10.00"> </text>
<polyline fill="none" stroke="black" points="0,-124.5 168,-124.5 "/>
<text text-anchor="middle" x="84" y="-112.5" font-family="Helvetica,sans-Serif" font-size="10.00"> </text>
</a>
</g>
</g>
<!-- Node6&#45;&gt;Node18 -->
<g id="edge23" class="edge">
<title>Node6&#45;&gt;Node18</title>
<path fill="none" stroke="#404040" d="M126.91,-221.28C118.47,-204.31 110.23,-187.73 103.26,-173.72"/>
<polygon fill="none" stroke="#404040" points="103.07,-173.34 96.81,-169.75 97.72,-162.59 103.98,-166.18 103.07,-173.34"/>
<text text-anchor="middle" x="141" y="-195" font-family="Helvetica,sans-Serif" font-size="10.00"> +entity1</text>
<text text-anchor="middle" x="141" y="-184" font-family="Helvetica,sans-Serif" font-size="10.00">+entity2</text>
</g>
<!-- Node6&#45;&gt;Node19 -->
<g id="edge25" class="edge">
<title>Node6&#45;&gt;Node19</title>
<path fill="none" stroke="#404040" d="M259.19,-227.96C262.09,-225.54 265.03,-223.21 268,-221 299.88,-197.28 339.32,-178.42 374.52,-164.47"/>
<polygon fill="none" stroke="#404040" points="374.59,-164.44 378.74,-158.55 385.78,-160.11 381.63,-166.01 374.59,-164.44"/>
<text text-anchor="middle" x="353" y="-189.5" font-family="Helvetica,sans-Serif" font-size="10.00"> +entity</text>
</g>
<!-- Node7 -->
<g id="node7" class="node">
<title>Node7</title>
<g id="a_node7"><a xlink:title=" ">
<polygon fill="none" stroke="black" points="195,-601.5 195,-658.5 233,-658.5 233,-601.5 195,-601.5"/>
<text text-anchor="middle" x="214" y="-646.5" font-family="Helvetica,sans-Serif" font-size="10.00">float</text>
<polyline fill="none" stroke="black" points="195,-639.5 233,-639.5 "/>
<text text-anchor="middle" x="214" y="-627.5" font-family="Helvetica,sans-Serif" font-size="10.00"> </text>
<polyline fill="none" stroke="black" points="195,-620.5 233,-620.5 "/>
<text text-anchor="middle" x="214" y="-608.5" font-family="Helvetica,sans-Serif" font-size="10.00"> </text>
</a>
</g>
</g>
<!-- Node7&#45;&gt;Node6 -->
<g id="edge6" class="edge">
<title>Node7&#45;&gt;Node6</title>
<path fill="none" stroke="#404040" d="M210.8,-601.49C206.67,-565.99 199.23,-501.99 192.58,-444.82"/>
<polygon fill="none" stroke="#404040" points="192.57,-444.66 187.9,-439.16 191.18,-432.74 195.85,-438.24 192.57,-444.66"/>
<text text-anchor="middle" x="224" y="-498" font-family="Helvetica,sans-Serif" font-size="10.00"> #size_x_</text>
<text text-anchor="middle" x="224" y="-487" font-family="Helvetica,sans-Serif" font-size="10.00">#size_y_</text>
<text text-anchor="middle" x="224" y="-476" font-family="Helvetica,sans-Serif" font-size="10.00">#speed_</text>
<text text-anchor="middle" x="224" y="-465" font-family="Helvetica,sans-Serif" font-size="10.00">#x_</text>
<text text-anchor="middle" x="224" y="-454" font-family="Helvetica,sans-Serif" font-size="10.00">#y_</text>
</g>
<!-- Node8 -->
<g id="node8" class="node">
<title>Node8</title>
<g id="a_node8"><a xlink:title=" ">
<polygon fill="none" stroke="black" points="113.5,-601.5 113.5,-658.5 174.5,-658.5 174.5,-601.5 113.5,-601.5"/>
<text text-anchor="middle" x="144" y="-646.5" font-family="Helvetica,sans-Serif" font-size="10.00">Direction</text>
<polyline fill="none" stroke="black" points="113.5,-639.5 174.5,-639.5 "/>
<text text-anchor="middle" x="144" y="-627.5" font-family="Helvetica,sans-Serif" font-size="10.00"> </text>
<polyline fill="none" stroke="black" points="113.5,-620.5 174.5,-620.5 "/>
<text text-anchor="middle" x="144" y="-608.5" font-family="Helvetica,sans-Serif" font-size="10.00"> </text>
</a>
</g>
</g>
<!-- Node8&#45;&gt;Node6 -->
<g id="edge7" class="edge">
<title>Node8&#45;&gt;Node6</title>
<path fill="none" stroke="#404040" d="M141.34,-601.38C138.52,-566.24 135.44,-503.77 143,-451 143.31,-448.82 143.65,-446.63 144.02,-444.43"/>
<polygon fill="none" stroke="#404040" points="144.03,-444.37 141.2,-437.74 146.23,-432.57 149.06,-439.2 144.03,-444.37"/>
<text text-anchor="middle" x="166.5" y="-476" font-family="Helvetica,sans-Serif" font-size="10.00"> #facing_</text>
</g>
<!-- Node9&#45;&gt;Node1 -->
<g id="edge8" class="edge">
<title>Node9&#45;&gt;Node1</title>
<path fill="none" stroke="#404040" d="M675.45,-106.68C655.28,-95.59 630.59,-83.53 607,-76 533.04,-52.38 443.63,-40.2 388.28,-34.46"/>
<polygon fill="none" stroke="#404040" points="388.27,-34.46 381.9,-37.85 376.33,-33.27 382.7,-29.89 388.27,-34.46"/>
<text text-anchor="middle" x="655" y="-79" font-family="Helvetica,sans-Serif" font-size="10.00"> +tileInfo</text>
</g>
<!-- Node10&#45;&gt;Node9 -->
<g id="edge10" class="edge">
<title>Node10&#45;&gt;Node9</title>
<path fill="none" stroke="#404040" d="M746.98,-237.77C740.94,-215.58 734.76,-192.87 729.74,-174.46"/>
<polygon fill="none" stroke="#404040" points="729.71,-174.33 724.27,-169.59 726.55,-162.75 731.99,-167.49 729.71,-174.33"/>
<text text-anchor="middle" x="752.5" y="-189.5" font-family="Helvetica,sans-Serif" font-size="10.00"> +grid</text>
</g>
<!-- Node10&#45;&gt;Node17 -->
<g id="edge21" class="edge">
<title>Node10&#45;&gt;Node17</title>
<path fill="none" stroke="#404040" d="M696.63,-237.77C677.12,-214.63 657.13,-190.92 641.28,-172.11"/>
<polygon fill="none" stroke="#404040" points="641.12,-171.92 634.2,-169.91 633.39,-162.75 640.32,-164.76 641.12,-171.92"/>
<text text-anchor="middle" x="681.5" y="-189.5" font-family="Helvetica,sans-Serif" font-size="10.00"> +grid</text>
</g>
<!-- Node11 -->
<g id="node11" class="node">
<title>Node11</title>
<g id="a_node11"><a xlink:title=" ">
<polygon fill="none" stroke="black" points="731.5,-601.5 731.5,-658.5 788.5,-658.5 788.5,-601.5 731.5,-601.5"/>
<text text-anchor="middle" x="760" y="-646.5" font-family="Helvetica,sans-Serif" font-size="10.00">TileType</text>
<polyline fill="none" stroke="black" points="731.5,-639.5 788.5,-639.5 "/>
<text text-anchor="middle" x="760" y="-627.5" font-family="Helvetica,sans-Serif" font-size="10.00"> </text>
<polyline fill="none" stroke="black" points="731.5,-620.5 788.5,-620.5 "/>
<text text-anchor="middle" x="760" y="-608.5" font-family="Helvetica,sans-Serif" font-size="10.00"> </text>
</a>
</g>
</g>
<!-- Node11&#45;&gt;Node10 -->
<g id="edge12" class="edge">
<title>Node11&#45;&gt;Node10</title>
<path fill="none" stroke="#404040" d="M761.01,-601.49C762.43,-562.51 765.11,-489.16 767.34,-428.23"/>
<polygon fill="none" stroke="#404040" points="767.34,-428.22 763.56,-422.08 767.78,-416.23 771.55,-422.37 767.34,-428.22"/>
<text text-anchor="middle" x="781.5" y="-476" font-family="Helvetica,sans-Serif" font-size="10.00"> #grid</text>
</g>
<!-- Node12 -->
<g id="node12" class="node">
<title>Node12</title>
<g id="a_node12"><a xlink:href="class_event_queue.html" target="_top" xlink:title=" ">
<polygon fill="none" stroke="black" points="806,-524.5 806,-735.5 956,-735.5 956,-524.5 806,-524.5"/>
<text text-anchor="middle" x="881" y="-723.5" font-family="Helvetica,sans-Serif" font-size="10.00">EventQueue&lt; Event &gt;</text>
<polyline fill="none" stroke="black" points="806,-716.5 956,-716.5 "/>
<text text-anchor="middle" x="881" y="-704.5" font-family="Helvetica,sans-Serif" font-size="10.00"> </text>
<polyline fill="none" stroke="black" points="806,-697.5 956,-697.5 "/>
<text text-anchor="start" x="814" y="-685.5" font-family="Helvetica,sans-Serif" font-size="10.00">+ EventQueue(EventQueue</text>
<text text-anchor="start" x="814" y="-674.5" font-family="Helvetica,sans-Serif" font-size="10.00"> &amp;)=delete</text>
<text text-anchor="start" x="814" y="-663.5" font-family="Helvetica,sans-Serif" font-size="10.00">+ bool operator=(const</text>
<text text-anchor="start" x="814" y="-652.5" font-family="Helvetica,sans-Serif" font-size="10.00"> EventQueue &amp;)=delete</text>
<text text-anchor="start" x="814" y="-641.5" font-family="Helvetica,sans-Serif" font-size="10.00">+ void registerEvent</text>
<text text-anchor="start" x="814" y="-630.5" font-family="Helvetica,sans-Serif" font-size="10.00">(std::unique_ptr&lt; Event</text>
<text text-anchor="start" x="814" y="-619.5" font-family="Helvetica,sans-Serif" font-size="10.00"> &gt; event)</text>
<text text-anchor="start" x="814" y="-608.5" font-family="Helvetica,sans-Serif" font-size="10.00">+ std::unique_ptr&lt; Event</text>
<text text-anchor="start" x="814" y="-597.5" font-family="Helvetica,sans-Serif" font-size="10.00"> &gt; pop()</text>
<text text-anchor="start" x="814" y="-586.5" font-family="Helvetica,sans-Serif" font-size="10.00">+ bool isEmpty()</text>
<text text-anchor="start" x="814" y="-575.5" font-family="Helvetica,sans-Serif" font-size="10.00">+ unsigned int size()</text>
<text text-anchor="start" x="814" y="-564.5" font-family="Helvetica,sans-Serif" font-size="10.00">+ void clear()</text>
<text text-anchor="start" x="814" y="-553.5" font-family="Helvetica,sans-Serif" font-size="10.00">+ static EventQueue *</text>
<text text-anchor="start" x="814" y="-542.5" font-family="Helvetica,sans-Serif" font-size="10.00"> instance()</text>
<text text-anchor="start" x="814" y="-531.5" font-family="Helvetica,sans-Serif" font-size="10.00">&#45; EventQueue()=default</text>
</a>
</g>
</g>
<!-- Node12&#45;&gt;Node10 -->
<g id="edge13" class="edge">
<title>Node12&#45;&gt;Node10</title>
<path fill="none" stroke="#404040" d="M842.68,-524.15C831.2,-492.72 818.64,-458.35 807.29,-427.29"/>
<polygon fill="none" stroke="#404040" points="807.28,-427.28 801.47,-423.02 803.16,-416.01 808.98,-420.27 807.28,-427.28"/>
<text text-anchor="middle" x="873" y="-476" font-family="Helvetica,sans-Serif" font-size="10.00"> #eventQueue_</text>
</g>
<!-- Node13 -->
<g id="node13" class="node">
<title>Node13</title>
<g id="a_node13"><a xlink:href="classstd_1_1queue_3_01std_1_1unique__ptr_3_01_event_01_4_01_4.html" target="_top" xlink:title=" ">
<polygon fill="none" stroke="black" points="676,-855 676,-923 788,-923 788,-855 676,-855"/>
<text text-anchor="start" x="684" y="-911" font-family="Helvetica,sans-Serif" font-size="10.00">queue&lt; std::unique</text>
<text text-anchor="middle" x="732" y="-900" font-family="Helvetica,sans-Serif" font-size="10.00">_ptr&lt; Event &gt; &gt;</text>
<polyline fill="none" stroke="black" points="676,-893 788,-893 "/>
<text text-anchor="middle" x="732" y="-881" font-family="Helvetica,sans-Serif" font-size="10.00"> </text>
<polyline fill="none" stroke="black" points="676,-874 788,-874 "/>
<text text-anchor="middle" x="732" y="-862" font-family="Helvetica,sans-Serif" font-size="10.00"> </text>
</a>
</g>
</g>
<!-- Node13&#45;&gt;Node12 -->
<g id="edge14" class="edge">
<title>Node13&#45;&gt;Node12</title>
<path fill="none" stroke="#404040" d="M751.17,-854.93C767.26,-827.18 791.24,-785.82 814.23,-746.17"/>
<polygon fill="none" stroke="#404040" points="814.34,-745.98 813.89,-738.78 820.36,-735.6 820.81,-742.79 814.34,-745.98"/>
<text text-anchor="middle" x="831" y="-757" font-family="Helvetica,sans-Serif" font-size="10.00"> #events_</text>
</g>
<!-- Node14 -->
<g id="node14" class="node">
<title>Node14</title>
<g id="a_node14"><a xlink:title=" ">
<polygon fill="none" stroke="black" points="917,-1048 917,-1105 1067,-1105 1067,-1048 917,-1048"/>
<text text-anchor="middle" x="992" y="-1093" font-family="Helvetica,sans-Serif" font-size="10.00">unique_ptr&lt; EventQueue &gt;</text>
<polyline fill="none" stroke="black" points="917,-1086 1067,-1086 "/>
<text text-anchor="middle" x="992" y="-1074" font-family="Helvetica,sans-Serif" font-size="10.00"> </text>
<polyline fill="none" stroke="black" points="917,-1067 1067,-1067 "/>
<text text-anchor="middle" x="992" y="-1055" font-family="Helvetica,sans-Serif" font-size="10.00"> </text>
</a>
</g>
</g>
<!-- Node14&#45;&gt;Node12 -->
<g id="edge15" class="edge">
<title>Node14&#45;&gt;Node12</title>
<path fill="none" stroke="#404040" d="M993.17,-1047.76C994.59,-994.94 993.87,-876.83 965,-783 961.27,-770.87 956.49,-758.61 951.11,-746.6"/>
<polygon fill="none" stroke="#404040" points="951.08,-746.53 944.92,-742.78 946.02,-735.65 952.17,-739.41 951.08,-746.53"/>
<text text-anchor="middle" x="1010.5" y="-886.5" font-family="Helvetica,sans-Serif" font-size="10.00"> #self_</text>
</g>
<!-- Node15 -->
<g id="node15" class="node">
<title>Node15</title>
<g id="a_node15"><a xlink:href="class_event_queue.html" target="_top" xlink:title="Singleton class wrapper for std::queue&lt;E&gt;.">
<polygon fill="none" stroke="black" points="806,-783.5 806,-994.5 956,-994.5 956,-783.5 806,-783.5"/>
<text text-anchor="middle" x="881" y="-982.5" font-family="Helvetica,sans-Serif" font-size="10.00">EventQueue&lt; E &gt;</text>
<polyline fill="none" stroke="black" points="806,-975.5 956,-975.5 "/>
<text text-anchor="middle" x="881" y="-963.5" font-family="Helvetica,sans-Serif" font-size="10.00"> </text>
<polyline fill="none" stroke="black" points="806,-956.5 956,-956.5 "/>
<text text-anchor="start" x="814" y="-944.5" font-family="Helvetica,sans-Serif" font-size="10.00">+ EventQueue(EventQueue</text>
<text text-anchor="start" x="814" y="-933.5" font-family="Helvetica,sans-Serif" font-size="10.00"> &amp;)=delete</text>
<text text-anchor="start" x="814" y="-922.5" font-family="Helvetica,sans-Serif" font-size="10.00">+ bool operator=(const</text>
<text text-anchor="start" x="814" y="-911.5" font-family="Helvetica,sans-Serif" font-size="10.00"> EventQueue &amp;)=delete</text>
<text text-anchor="start" x="814" y="-900.5" font-family="Helvetica,sans-Serif" font-size="10.00">+ void registerEvent</text>
<text text-anchor="start" x="814" y="-889.5" font-family="Helvetica,sans-Serif" font-size="10.00">(std::unique_ptr&lt; E</text>
<text text-anchor="start" x="814" y="-878.5" font-family="Helvetica,sans-Serif" font-size="10.00"> &gt; event)</text>
<text text-anchor="start" x="814" y="-867.5" font-family="Helvetica,sans-Serif" font-size="10.00">+ std::unique_ptr&lt; E</text>
<text text-anchor="start" x="814" y="-856.5" font-family="Helvetica,sans-Serif" font-size="10.00"> &gt; pop()</text>
<text text-anchor="start" x="814" y="-845.5" font-family="Helvetica,sans-Serif" font-size="10.00">+ bool isEmpty()</text>
<text text-anchor="start" x="814" y="-834.5" font-family="Helvetica,sans-Serif" font-size="10.00">+ unsigned int size()</text>
<text text-anchor="start" x="814" y="-823.5" font-family="Helvetica,sans-Serif" font-size="10.00">+ void clear()</text>
<text text-anchor="start" x="814" y="-812.5" font-family="Helvetica,sans-Serif" font-size="10.00">+ static EventQueue *</text>
<text text-anchor="start" x="814" y="-801.5" font-family="Helvetica,sans-Serif" font-size="10.00"> instance()</text>
<text text-anchor="start" x="814" y="-790.5" font-family="Helvetica,sans-Serif" font-size="10.00">&#45; EventQueue()=default</text>
</a>
</g>
</g>
<!-- Node14&#45;&gt;Node15 -->
<g id="edge18" class="edge">
<title>Node14&#45;&gt;Node15</title>
<path fill="none" stroke="#404040" d="M962.49,-1047.8C955.59,-1040.46 948.62,-1032.27 943,-1024 938.98,-1018.09 935.11,-1011.88 931.39,-1005.51"/>
<polygon fill="none" stroke="#404040" points="931.16,-1005.1 924.74,-1001.84 925.28,-994.64 931.71,-997.91 931.16,-1005.1"/>
<text text-anchor="middle" x="960.5" y="-1016" font-family="Helvetica,sans-Serif" font-size="10.00"> #self_</text>
</g>
<!-- Node15&#45;&gt;Node12 -->
<g id="edge16" class="edge">
<title>Node15&#45;&gt;Node12</title>
<path fill="none" stroke="orange" d="M881,-773.1C881,-760.7 881,-748.13 881,-735.86"/>
<polygon fill="orange" stroke="orange" points="877.5,-773.47 881,-783.47 884.5,-773.47 877.5,-773.47"/>
<text text-anchor="middle" x="908" y="-757" font-family="Helvetica,sans-Serif" font-size="10.00"> &lt; Event &gt;</text>
</g>
<!-- Node16 -->
<g id="node16" class="node">
<title>Node16</title>
<g id="a_node16"><a xlink:title=" ">
<polygon fill="none" stroke="black" points="787,-1042.5 787,-1110.5 899,-1110.5 899,-1042.5 787,-1042.5"/>
<text text-anchor="start" x="795" y="-1098.5" font-family="Helvetica,sans-Serif" font-size="10.00">queue&lt; std::unique</text>
<text text-anchor="middle" x="843" y="-1087.5" font-family="Helvetica,sans-Serif" font-size="10.00">_ptr&lt; E &gt; &gt;</text>
<polyline fill="none" stroke="black" points="787,-1080.5 899,-1080.5 "/>
<text text-anchor="middle" x="843" y="-1068.5" font-family="Helvetica,sans-Serif" font-size="10.00"> </text>
<polyline fill="none" stroke="black" points="787,-1061.5 899,-1061.5 "/>
<text text-anchor="middle" x="843" y="-1049.5" font-family="Helvetica,sans-Serif" font-size="10.00"> </text>
</a>
</g>
</g>
<!-- Node16&#45;&gt;Node15 -->
<g id="edge17" class="edge">
<title>Node16&#45;&gt;Node15</title>
<path fill="none" stroke="#404040" d="M849.79,-1042.34C851.93,-1031.88 854.43,-1019.68 857.07,-1006.81"/>
<polygon fill="none" stroke="#404040" points="857.11,-1006.6 854.4,-999.92 859.52,-994.84 862.24,-1001.52 857.11,-1006.6"/>
<text text-anchor="middle" x="880" y="-1016" font-family="Helvetica,sans-Serif" font-size="10.00"> #events_</text>
</g>
<!-- Node17&#45;&gt;Node1 -->
<g id="edge19" class="edge">
<title>Node17&#45;&gt;Node1</title>
<path fill="none" stroke="#404040" d="M576.67,-105.24C562.68,-94.76 545.77,-83.56 529,-76 483.71,-55.58 428.19,-43.57 388.34,-36.97"/>
<polygon fill="none" stroke="#404040" points="388.1,-36.93 381.55,-39.94 376.25,-35.05 382.8,-32.04 388.1,-36.93"/>
<text text-anchor="middle" x="575.5" y="-79" font-family="Helvetica,sans-Serif" font-size="10.00"> +levelInfo</text>
</g>
<!-- Node18&#45;&gt;Node1 -->
<g id="edge22" class="edge">
<title>Node18&#45;&gt;Node1</title>
<path fill="none" stroke="#404040" d="M89.28,-105.25C92.65,-94.66 98.13,-83.36 107,-76 133.36,-54.12 224.7,-41.08 283.75,-34.75"/>
<polygon fill="none" stroke="#404040" points="283.89,-34.73 289.44,-30.14 295.82,-33.5 290.27,-38.09 283.89,-34.73"/>
<text text-anchor="middle" x="172" y="-79" font-family="Helvetica,sans-Serif" font-size="10.00"> +entityEntityCollisionInfo</text>
</g>
<!-- Node19&#45;&gt;Node1 -->
<g id="edge24" class="edge">
<title>Node19&#45;&gt;Node1</title>
<path fill="none" stroke="#404040" d="M430.43,-105.4C414.96,-93.04 396.53,-78.33 380.08,-65.2"/>
<polygon fill="none" stroke="#404040" points="380.04,-65.17 372.86,-64.55 370.67,-57.68 377.85,-58.3 380.04,-65.17"/>
<text text-anchor="middle" x="464.5" y="-79" font-family="Helvetica,sans-Serif" font-size="10.00"> +entityGridCollisionInfo</text>
</g>
</g>
</svg>
        <g id="navigator" transform="translate(0 0)" fill="#404254">
                <rect fill="#f2f5e9" fill-opacity="0.5" stroke="#606060" stroke-width=".5" x="0" y="0" width="60" height="60"/>
                <use id="zoomplus" xlink:href="#zoomPlus" x="17" y="9" onmousedown="handleZoom(evt,'in')"/>
                <use id="zoomminus" xlink:href="#zoomMin" x="42" y="9" onmousedown="handleZoom(evt,'out')"/>
                <use id="reset" xlink:href="#resetDef" x="30" y="36" onmousedown="handleReset()"/>
                <g id="arrowUp" xlink:href="#dirArrow" transform="translate(30 24)" onmousedown="handlePan(0,-1)">
                  <use xlink:href="#rim" fill="#404040">
                        <set attributeName="fill" to="#808080" begin="arrowUp.mouseover" end="arrowUp.mouseout"/>
                  </use>
                  <path fill="none" stroke="white" stroke-width="1.5" d="M0,-3.0v7 M-2.5,-0.5L0,-3.0L2.5,-0.5"/>
                </g>
                <g id="arrowRight" xlink:href="#dirArrow" transform="rotate(90) translate(36 -43)" onmousedown="handlePan(1,0)">
                  <use xlink:href="#rim" fill="#404040">
                        <set attributeName="fill" to="#808080" begin="arrowRight.mouseover" end="arrowRight.mouseout"/>
                  </use>
                  <path fill="none" stroke="white" stroke-width="1.5" d="M0,-3.0v7 M-2.5,-0.5L0,-3.0L2.5,-0.5"/>
                </g>
                <g id="arrowDown" xlink:href="#dirArrow" transform="rotate(180) translate(-30 -48)" onmousedown="handlePan(0,1)">
                  <use xlink:href="#rim" fill="#404040">
                        <set attributeName="fill" to="#808080" begin="arrowDown.mouseover" end="arrowDown.mouseout"/>
                  </use>
                  <path fill="none" stroke="white" stroke-width="1.5" d="M0,-3.0v7 M-2.5,-0.5L0,-3.0L2.5,-0.5"/>
                </g>
                <g id="arrowLeft" xlink:href="#dirArrow" transform="rotate(270) translate(-36 17)" onmousedown="handlePan(-1,0)">
                  <use xlink:href="#rim" fill="#404040">
                        <set attributeName="fill" to="#808080" begin="arrowLeft.mouseover" end="arrowLeft.mouseout"/>
                  </use>
                  <path fill="none" stroke="white" stroke-width="1.5" d="M0,-3.0v7 M-2.5,-0.5L0,-3.0L2.5,-0.5"/>
                </g>
        </g>
        <svg viewBox="0 0 15 15" width="100%" height="30px" preserveAspectRatio="xMaxYMin meet">
         <g id="arrow_out" transform="scale(0.3 0.3)">
          <a xlink:href="union_event_1_1info__u__coll__graph_org.svg" target="_base">
           <rect id="button" ry="5" rx="5" y="6" x="6" height="38" width="38"
                fill="#f2f5e9" fill-opacity="0.5" stroke="#606060" stroke-width="1.0"/>
           <path id="arrow"
             d="M 11.500037,31.436501 C 11.940474,20.09759 22.043105,11.32322 32.158766,21.979434 L 37.068811,17.246167 C 37.068811,17.246167 37.088388,32 37.088388,32 L 22.160133,31.978069 C 22.160133,31.978069 26.997745,27.140456 26.997745,27.140456 C 18.528582,18.264221 13.291696,25.230495 11.500037,31.436501 z"
             style="fill:#404040;"/>
          </a>
         </g>
        </svg>
</svg>
